<?xml version="1.0" encoding="UTF-8"?>
<!--Generator: Apple Native CoreSVG 175.5-->
<!DOCTYPE svg
PUBLIC "-//W3C//DTD SVG 1.1//EN"
       "http://www.w3.org/Graphics/SVG/1.1/DTD/svg11.dtd">
<svg version="1.1" xmlns="http://www.w3.org/2000/svg" xmlns:xlink="http://www.w3.org/1999/xlink" width="19.9219" height="19.9316">
 <g>
  <rect height="19.9316" opacity="0" width="19.9219" x="0" y="0"/>
  <path d="M9.96094 19.9219C15.4102 19.9219 19.9219 15.4004 19.9219 9.96094C19.9219 4.51172 15.4004 0 9.95117 0C4.51172 0 0 4.51172 0 9.96094C0 15.4004 4.52148 19.9219 9.96094 19.9219Z" fill="#000000" fill-opacity="0.85"/>
  <path d="M9.96094 14.7559C7.82227 14.7559 6.39648 12.832 6.39648 9.96094C6.39648 7.08984 7.82227 5.16602 9.96094 5.16602C12.0898 5.16602 13.5156 7.08984 13.5156 9.96094C13.5156 12.832 12.0898 14.7559 9.96094 14.7559ZM9.96094 13.457C11.1523 13.457 11.9727 12.0605 11.9727 9.96094C11.9727 7.86133 11.1523 6.46484 9.96094 6.46484C8.75977 6.46484 7.94922 7.86133 7.94922 9.96094C7.94922 12.0605 8.75977 13.457 9.96094 13.457Z" fill="#ffffff"/>
 </g>
</svg>
