<?xml version="1.0" encoding="UTF-8"?>
<!--Generator: Apple Native CoreSVG 175.5-->
<!DOCTYPE svg
PUBLIC "-//W3C//DTD SVG 1.1//EN"
       "http://www.w3.org/Graphics/SVG/1.1/DTD/svg11.dtd">
<svg version="1.1" xmlns="http://www.w3.org/2000/svg" xmlns:xlink="http://www.w3.org/1999/xlink" width="17.9785" height="17.998">
 <g>
  <rect height="17.998" opacity="0" width="17.9785" x="0" y="0"/>
  <path d="M3.06641 17.998L14.9121 17.998C16.9629 17.998 17.9785 16.9824 17.9785 14.9707L17.9785 3.04688C17.9785 1.03516 16.9629 0.0195312 14.9121 0.0195312L3.06641 0.0195312C1.02539 0.0195312 0 1.02539 0 3.04688L0 14.9707C0 16.9922 1.02539 17.998 3.06641 17.998Z" fill="#000000" fill-opacity="0.85"/>
  <path d="M8.99414 13.7891C6.85547 13.7891 5.42969 11.8652 5.42969 8.99414C5.42969 6.12305 6.85547 4.19922 8.99414 4.19922C11.123 4.19922 12.5488 6.12305 12.5488 8.99414C12.5488 11.8652 11.123 13.7891 8.99414 13.7891ZM8.99414 12.4902C10.1855 12.4902 11.0059 11.0938 11.0059 8.99414C11.0059 6.89453 10.1855 5.49805 8.99414 5.49805C7.79297 5.49805 6.98242 6.89453 6.98242 8.99414C6.98242 11.0938 7.79297 12.4902 8.99414 12.4902Z" fill="#ffffff"/>
 </g>
</svg>
