<?xml version="1.0" encoding="UTF-8"?>
<!--Generator: Apple Native CoreSVG 175.5-->
<!DOCTYPE svg
PUBLIC "-//W3C//DTD SVG 1.1//EN"
       "http://www.w3.org/Graphics/SVG/1.1/DTD/svg11.dtd">
<svg version="1.1" xmlns="http://www.w3.org/2000/svg" xmlns:xlink="http://www.w3.org/1999/xlink" width="19.9219" height="19.9316">
 <g>
  <rect height="19.9316" opacity="0" width="19.9219" x="0" y="0"/>
  <path d="M9.96094 19.9219C15.4102 19.9219 19.9219 15.4004 19.9219 9.96094C19.9219 4.51172 15.4004 0 9.95117 0C4.51172 0 0 4.51172 0 9.96094C0 15.4004 4.52148 19.9219 9.96094 19.9219ZM9.96094 18.2617C5.35156 18.2617 1.66992 14.5703 1.66992 9.96094C1.66992 5.35156 5.3418 1.66016 9.95117 1.66016C14.5605 1.66016 18.2617 5.35156 18.2617 9.96094C18.2617 14.5703 14.5703 18.2617 9.96094 18.2617Z" fill="#000000" fill-opacity="0.85"/>
  <path d="M6.55273 14.1699C8.23242 14.1699 9.3457 12.5586 9.3457 9.96094C9.3457 7.36328 8.23242 5.75195 6.55273 5.75195C4.87305 5.75195 3.75977 7.36328 3.75977 9.96094C3.75977 12.5586 4.87305 14.1699 6.55273 14.1699ZM6.55273 12.9883C5.625 12.9883 5.03906 11.8359 5.03906 9.96094C5.03906 8.08594 5.625 6.93359 6.55273 6.93359C7.49023 6.93359 8.06641 8.08594 8.06641 9.96094C8.06641 11.8359 7.5 12.9883 6.55273 12.9883ZM13.3398 14.1699C15.0195 14.1699 16.1328 12.5586 16.1328 9.96094C16.1328 7.36328 15.0195 5.75195 13.3398 5.75195C11.6602 5.75195 10.5469 7.36328 10.5469 9.96094C10.5469 12.5586 11.6602 14.1699 13.3398 14.1699ZM13.3398 12.9883C12.4121 12.9883 11.8262 11.8359 11.8262 9.96094C11.8262 8.08594 12.4121 6.93359 13.3398 6.93359C14.2773 6.93359 14.8535 8.08594 14.8535 9.96094C14.8535 11.8359 14.2871 12.9883 13.3398 12.9883Z" fill="#000000" fill-opacity="0.85"/>
 </g>
</svg>
