<?xml version="1.0" encoding="UTF-8"?>
<!--Generator: Apple Native CoreSVG 175.5-->
<!DOCTYPE svg
PUBLIC "-//W3C//DTD SVG 1.1//EN"
       "http://www.w3.org/Graphics/SVG/1.1/DTD/svg11.dtd">
<svg version="1.1" xmlns="http://www.w3.org/2000/svg" xmlns:xlink="http://www.w3.org/1999/xlink" width="19.9219" height="19.9316">
 <g>
  <rect height="19.9316" opacity="0" width="19.9219" x="0" y="0"/>
  <path d="M9.96094 19.9219C15.4102 19.9219 19.9219 15.4004 19.9219 9.96094C19.9219 4.51172 15.4004 0 9.95117 0C4.51172 0 0 4.51172 0 9.96094C0 15.4004 4.52148 19.9219 9.96094 19.9219ZM9.96094 18.2617C5.35156 18.2617 1.66992 14.5703 1.66992 9.96094C1.66992 5.35156 5.3418 1.66016 9.95117 1.66016C14.5605 1.66016 18.2617 5.35156 18.2617 9.96094C18.2617 14.5703 14.5703 18.2617 9.96094 18.2617Z" fill="#000000" fill-opacity="0.85"/>
  <path d="M7.36328 14.1699C9.04297 14.1699 10.1562 12.5586 10.1562 9.96094C10.1562 7.36328 9.04297 5.75195 7.36328 5.75195C5.67383 5.75195 4.56055 7.36328 4.56055 9.96094C4.56055 12.5586 5.67383 14.1699 7.36328 14.1699ZM7.36328 12.9883C6.42578 12.9883 5.84961 11.8359 5.84961 9.96094C5.84961 8.08594 6.42578 6.93359 7.36328 6.93359C8.29102 6.93359 8.86719 8.08594 8.86719 9.96094C8.86719 11.8359 8.30078 12.9883 7.36328 12.9883ZM14.1406 14.0527C14.5215 14.0527 14.7559 13.8086 14.7559 13.4277L14.7559 6.51367C14.7559 6.10352 14.4824 5.81055 14.0723 5.81055C13.75 5.81055 13.5645 5.9082 13.2227 6.14258L11.7383 7.1582C11.5234 7.30469 11.4062 7.48047 11.4062 7.73438C11.4062 8.06641 11.6797 8.32031 11.9629 8.32031C12.1191 8.32031 12.2168 8.31055 12.4414 8.13477L13.4863 7.36328L13.5352 7.36328L13.5352 13.4277C13.5352 13.8086 13.7793 14.0527 14.1406 14.0527Z" fill="#000000" fill-opacity="0.85"/>
 </g>
</svg>
