<?xml version="1.0" encoding="UTF-8"?>
<!--Generator: Apple Native CoreSVG 175.5-->
<!DOCTYPE svg
PUBLIC "-//W3C//DTD SVG 1.1//EN"
       "http://www.w3.org/Graphics/SVG/1.1/DTD/svg11.dtd">
<svg version="1.1" xmlns="http://www.w3.org/2000/svg" xmlns:xlink="http://www.w3.org/1999/xlink" width="17.9785" height="17.998">
 <g>
  <rect height="17.998" opacity="0" width="17.9785" x="0" y="0"/>
  <path d="M3.06641 17.998L14.9121 17.998C16.9629 17.998 17.9785 16.9824 17.9785 14.9707L17.9785 3.04688C17.9785 1.03516 16.9629 0.0195312 14.9121 0.0195312L3.06641 0.0195312C1.02539 0.0195312 0 1.02539 0 3.04688L0 14.9707C0 16.9922 1.02539 17.998 3.06641 17.998ZM3.08594 16.4258C2.10938 16.4258 1.57227 15.9082 1.57227 14.8926L1.57227 3.125C1.57227 2.10938 2.10938 1.5918 3.08594 1.5918L14.8926 1.5918C15.8594 1.5918 16.4062 2.10938 16.4062 3.125L16.4062 14.8926C16.4062 15.9082 15.8594 16.4258 14.8926 16.4258Z" fill="#000000" fill-opacity="0.85"/>
  <path d="M6.40625 13.2031C8.08594 13.2031 9.19922 11.5918 9.19922 8.99414C9.19922 6.39648 8.08594 4.78516 6.40625 4.78516C4.7168 4.78516 3.61328 6.39648 3.61328 8.99414C3.61328 11.5918 4.7168 13.2031 6.40625 13.2031ZM6.40625 12.0215C5.46875 12.0215 4.89258 10.8691 4.89258 8.99414C4.89258 7.11914 5.46875 5.9668 6.40625 5.9668C7.33398 5.9668 7.91016 7.11914 7.91016 8.99414C7.91016 10.8691 7.34375 12.0215 6.40625 12.0215ZM13.1836 13.0859C13.5645 13.0859 13.8086 12.8418 13.8086 12.4609L13.8086 5.54688C13.8086 5.13672 13.5254 4.84375 13.1152 4.84375C12.8027 4.84375 12.6074 4.94141 12.2656 5.17578L10.7812 6.19141C10.5762 6.33789 10.4492 6.51367 10.4492 6.76758C10.4492 7.09961 10.7227 7.35352 11.0059 7.35352C11.1621 7.35352 11.2598 7.34375 11.4844 7.16797L12.5293 6.39648L12.5879 6.39648L12.5879 12.4609C12.5879 12.8418 12.8223 13.0859 13.1836 13.0859Z" fill="#000000" fill-opacity="0.85"/>
 </g>
</svg>
