<?xml version="1.0" encoding="UTF-8"?>
<!--Generator: Apple Native CoreSVG 175.5-->
<!DOCTYPE svg
PUBLIC "-//W3C//DTD SVG 1.1//EN"
       "http://www.w3.org/Graphics/SVG/1.1/DTD/svg11.dtd">
<svg version="1.1" xmlns="http://www.w3.org/2000/svg" xmlns:xlink="http://www.w3.org/1999/xlink" width="19.9219" height="19.9316">
 <g>
  <rect height="19.9316" opacity="0" width="19.9219" x="0" y="0"/>
  <path d="M9.96094 19.9219C15.4102 19.9219 19.9219 15.4004 19.9219 9.96094C19.9219 4.51172 15.4004 0 9.95117 0C4.51172 0 0 4.51172 0 9.96094C0 15.4004 4.52148 19.9219 9.96094 19.9219Z" fill="#000000" fill-opacity="0.85"/>
  <path d="M6.67969 14.3066C4.94141 14.3066 3.79883 12.6465 3.79883 9.96094C3.79883 7.27539 4.94141 5.61523 6.67969 5.61523C8.4082 5.61523 9.56055 7.27539 9.56055 9.96094C9.56055 12.6465 8.4082 14.3066 6.67969 14.3066ZM6.67969 13.0762C7.64648 13.0762 8.23242 11.8945 8.23242 9.96094C8.23242 8.02734 7.63672 6.8457 6.67969 6.8457C5.72266 6.8457 5.12695 8.02734 5.12695 9.96094C5.12695 11.8945 5.72266 13.0762 6.67969 13.0762ZM11.3574 14.0723C10.9961 14.0723 10.7715 13.8379 10.7715 13.4766C10.7715 13.2715 10.8301 13.0957 10.9961 12.9297L13.6426 9.80469C14.1211 9.24805 14.6484 8.68164 14.6484 8.02734C14.6484 7.28516 14.1309 6.78711 13.3203 6.78711C12.5977 6.78711 12.0898 7.14844 11.8359 7.91016C11.709 8.21289 11.5527 8.37891 11.2598 8.37891C10.9082 8.37891 10.6934 8.13477 10.6934 7.77344C10.6934 7.65625 10.7129 7.53906 10.7422 7.41211C11.0059 6.38672 12.0703 5.61523 13.2715 5.61523C14.8535 5.61523 15.8691 6.51367 15.8691 7.91992C15.8691 8.92578 15.3223 9.64844 14.5703 10.5176L12.6074 12.8027L12.6074 12.8809L15.5273 12.8809C15.8496 12.8809 16.0938 13.0859 16.0938 13.4668C16.0938 13.8281 15.8496 14.0723 15.5273 14.0723Z" fill="#ffffff"/>
 </g>
</svg>
