<?xml version="1.0" encoding="UTF-8"?>
<!--Generator: Apple Native CoreSVG 175.5-->
<!DOCTYPE svg
PUBLIC "-//W3C//DTD SVG 1.1//EN"
       "http://www.w3.org/Graphics/SVG/1.1/DTD/svg11.dtd">
<svg version="1.1" xmlns="http://www.w3.org/2000/svg" xmlns:xlink="http://www.w3.org/1999/xlink" width="17.9785" height="17.998">
 <g>
  <rect height="17.998" opacity="0" width="17.9785" x="0" y="0"/>
  <path d="M3.06641 17.998L14.9121 17.998C16.9629 17.998 17.9785 16.9824 17.9785 14.9707L17.9785 3.04688C17.9785 1.03516 16.9629 0.0195312 14.9121 0.0195312L3.06641 0.0195312C1.02539 0.0195312 0 1.02539 0 3.04688L0 14.9707C0 16.9922 1.02539 17.998 3.06641 17.998ZM3.08594 16.4258C2.10938 16.4258 1.57227 15.9082 1.57227 14.8926L1.57227 3.125C1.57227 2.10938 2.10938 1.5918 3.08594 1.5918L14.8926 1.5918C15.8594 1.5918 16.4062 2.10938 16.4062 3.125L16.4062 14.8926C16.4062 15.9082 15.8594 16.4258 14.8926 16.4258Z" fill="#000000" fill-opacity="0.85"/>
  <path d="M5.71289 13.2031C7.39258 13.2031 8.50586 11.5918 8.50586 8.99414C8.50586 6.39648 7.39258 4.78516 5.71289 4.78516C4.0332 4.78516 2.91992 6.39648 2.91992 8.99414C2.91992 11.5918 4.0332 13.2031 5.71289 13.2031ZM5.71289 12.0215C4.78516 12.0215 4.19922 10.8691 4.19922 8.99414C4.19922 7.11914 4.78516 5.9668 5.71289 5.9668C6.64062 5.9668 7.22656 7.11914 7.22656 8.99414C7.22656 10.8691 6.65039 12.0215 5.71289 12.0215ZM12.2852 13.2031C13.9453 13.2031 15.1074 12.207 15.1074 10.8008C15.1074 9.76562 14.3848 8.92578 13.3984 8.82812L13.3984 8.76953C14.209 8.63281 14.8438 7.82227 14.8438 6.9043C14.8438 5.6543 13.8184 4.78516 12.3535 4.78516C11.0352 4.78516 10.0586 5.53711 9.80469 6.49414C9.77539 6.62109 9.77539 6.71875 9.77539 6.8457C9.77539 7.19727 10 7.44141 10.332 7.44141C10.625 7.44141 10.7812 7.28516 10.8789 6.97266C11.0938 6.28906 11.5625 5.9082 12.3242 5.9082C13.1055 5.9082 13.6426 6.37695 13.6426 7.06055C13.6426 7.77344 13.0957 8.29102 12.3145 8.29102L11.7871 8.29102C11.4746 8.29102 11.2598 8.51562 11.2598 8.86719C11.2598 9.17969 11.4746 9.42383 11.7871 9.42383L12.3633 9.42383C13.291 9.42383 13.8867 9.95117 13.8867 10.7422C13.8867 11.5039 13.2324 12.0801 12.2949 12.0801C11.5234 12.0801 10.9961 11.6992 10.7324 11.0156C10.6152 10.7031 10.4492 10.5469 10.1758 10.5469C9.85352 10.5469 9.60938 10.791 9.60938 11.1328C9.60938 11.2695 9.62891 11.3672 9.66797 11.4941C9.92188 12.3926 10.957 13.2031 12.2852 13.2031Z" fill="#000000" fill-opacity="0.85"/>
 </g>
</svg>
