<?xml version="1.0" encoding="UTF-8"?>
<!--Generator: Apple Native CoreSVG 175.5-->
<!DOCTYPE svg
PUBLIC "-//W3C//DTD SVG 1.1//EN"
       "http://www.w3.org/Graphics/SVG/1.1/DTD/svg11.dtd">
<svg version="1.1" xmlns="http://www.w3.org/2000/svg" xmlns:xlink="http://www.w3.org/1999/xlink" width="19.9219" height="19.9316">
 <g>
  <rect height="19.9316" opacity="0" width="19.9219" x="0" y="0"/>
  <path d="M9.96094 19.9219C15.4102 19.9219 19.9219 15.4004 19.9219 9.96094C19.9219 4.51172 15.4004 0 9.95117 0C4.51172 0 0 4.51172 0 9.96094C0 15.4004 4.52148 19.9219 9.96094 19.9219ZM9.96094 18.2617C5.35156 18.2617 1.66992 14.5703 1.66992 9.96094C1.66992 5.35156 5.3418 1.66016 9.95117 1.66016C14.5605 1.66016 18.2617 5.35156 18.2617 9.96094C18.2617 14.5703 14.5703 18.2617 9.96094 18.2617Z" fill="#000000" fill-opacity="0.85"/>
  <path d="M6.5918 14.1699C8.27148 14.1699 9.38477 12.5586 9.38477 9.96094C9.38477 7.36328 8.27148 5.75195 6.5918 5.75195C4.91211 5.75195 3.79883 7.36328 3.79883 9.96094C3.79883 12.5586 4.91211 14.1699 6.5918 14.1699ZM6.5918 12.9883C5.66406 12.9883 5.07812 11.8359 5.07812 9.96094C5.07812 8.08594 5.66406 6.93359 6.5918 6.93359C7.51953 6.93359 8.10547 8.08594 8.10547 9.96094C8.10547 11.8359 7.5293 12.9883 6.5918 12.9883ZM14.6484 14.1504C15.0488 14.1504 15.2539 13.877 15.2539 13.4961L15.2539 12.3438L15.7812 12.3438C16.123 12.3438 16.3379 12.1484 16.3379 11.8066C16.3379 11.4551 16.1133 11.25 15.7812 11.25L15.2539 11.25L15.2539 6.67969C15.2539 6.11328 14.8535 5.75195 14.2871 5.75195C13.7207 5.75195 13.3789 5.9668 13.0566 6.50391C12.2461 7.87109 11.2598 9.55078 10.5957 10.7324C10.4395 11.0352 10.3809 11.25 10.3809 11.5137C10.3809 12.0312 10.7227 12.3438 11.2207 12.3438L14.0723 12.3438L14.0723 13.4961C14.0723 13.8672 14.2676 14.1504 14.6484 14.1504ZM14.0723 11.25L11.6602 11.25L11.6602 11.2109C12.2363 10.1074 13.2422 8.38867 14.0137 7.07031L14.0723 7.07031Z" fill="#000000" fill-opacity="0.85"/>
 </g>
</svg>
