<?xml version="1.0" encoding="UTF-8"?>
<!--Generator: Apple Native CoreSVG 175.5-->
<!DOCTYPE svg
PUBLIC "-//W3C//DTD SVG 1.1//EN"
       "http://www.w3.org/Graphics/SVG/1.1/DTD/svg11.dtd">
<svg version="1.1" xmlns="http://www.w3.org/2000/svg" xmlns:xlink="http://www.w3.org/1999/xlink" width="19.9219" height="19.9316">
 <g>
  <rect height="19.9316" opacity="0" width="19.9219" x="0" y="0"/>
  <path d="M9.96094 19.9219C15.4102 19.9219 19.9219 15.4004 19.9219 9.96094C19.9219 4.51172 15.4004 0 9.95117 0C4.51172 0 0 4.51172 0 9.96094C0 15.4004 4.52148 19.9219 9.96094 19.9219Z" fill="#000000" fill-opacity="0.85"/>
  <path d="M6.49414 14.3066C4.75586 14.3066 3.61328 12.6465 3.61328 9.96094C3.61328 7.27539 4.75586 5.61523 6.49414 5.61523C8.22266 5.61523 9.375 7.27539 9.375 9.96094C9.375 12.6465 8.22266 14.3066 6.49414 14.3066ZM6.49414 13.0762C7.46094 13.0762 8.04688 11.8945 8.04688 9.96094C8.04688 8.02734 7.45117 6.8457 6.49414 6.8457C5.53711 6.8457 4.94141 8.02734 4.94141 9.96094C4.94141 11.8945 5.53711 13.0762 6.49414 13.0762ZM14.8047 14.2871C14.4043 14.2871 14.1992 13.9941 14.1992 13.6035L14.1992 12.4219L11.2695 12.4219C10.752 12.4219 10.4004 12.0996 10.4004 11.5625C10.4004 11.2891 10.459 11.0645 10.625 10.752C11.3086 9.53125 12.3145 7.8125 13.1543 6.39648C13.4863 5.83984 13.8379 5.61523 14.4238 5.61523C15.0098 5.61523 15.4297 5.99609 15.4297 6.58203L15.4297 11.2891L15.9668 11.2891C16.3086 11.2891 16.543 11.5039 16.543 11.8652C16.543 12.2168 16.3184 12.4219 15.9668 12.4219L15.4297 12.4219L15.4297 13.6035C15.4297 14.0039 15.2148 14.2871 14.8047 14.2871ZM14.1992 11.2891L14.1992 6.98242L14.1406 6.98242C13.3496 8.34961 12.3145 10.1074 11.7285 11.25L11.7285 11.2891Z" fill="#ffffff"/>
 </g>
</svg>
