<?xml version="1.0" encoding="UTF-8"?>
<!--Generator: Apple Native CoreSVG 175.5-->
<!DOCTYPE svg
PUBLIC "-//W3C//DTD SVG 1.1//EN"
       "http://www.w3.org/Graphics/SVG/1.1/DTD/svg11.dtd">
<svg version="1.1" xmlns="http://www.w3.org/2000/svg" xmlns:xlink="http://www.w3.org/1999/xlink" width="17.9785" height="17.998">
 <g>
  <rect height="17.998" opacity="0" width="17.9785" x="0" y="0"/>
  <path d="M3.06641 17.998L14.9121 17.998C16.9629 17.998 17.9785 16.9824 17.9785 14.9707L17.9785 3.04688C17.9785 1.03516 16.9629 0.0195312 14.9121 0.0195312L3.06641 0.0195312C1.02539 0.0195312 0 1.02539 0 3.04688L0 14.9707C0 16.9922 1.02539 17.998 3.06641 17.998Z" fill="#000000" fill-opacity="0.85"/>
  <path d="M5.52734 13.3398C3.78906 13.3398 2.64648 11.6797 2.64648 8.99414C2.64648 6.30859 3.78906 4.64844 5.52734 4.64844C7.25586 4.64844 8.4082 6.30859 8.4082 8.99414C8.4082 11.6797 7.25586 13.3398 5.52734 13.3398ZM5.52734 12.1094C6.49414 12.1094 7.08008 10.9277 7.08008 8.99414C7.08008 7.06055 6.48438 5.87891 5.52734 5.87891C4.57031 5.87891 3.97461 7.06055 3.97461 8.99414C3.97461 10.9277 4.57031 12.1094 5.52734 12.1094ZM13.8477 13.3203C13.4473 13.3203 13.2324 13.0273 13.2324 12.6367L13.2324 11.4551L10.3027 11.4551C9.78516 11.4551 9.44336 11.1328 9.44336 10.5957C9.44336 10.3223 9.49219 10.0977 9.66797 9.78516C10.3418 8.56445 11.3477 6.8457 12.1875 5.42969C12.5195 4.87305 12.8711 4.64844 13.457 4.64844C14.0527 4.64844 14.4629 5.0293 14.4629 5.61523L14.4629 10.3223L15 10.3223C15.3418 10.3223 15.5762 10.5371 15.5762 10.8984C15.5762 11.25 15.3516 11.4551 15 11.4551L14.4629 11.4551L14.4629 12.6367C14.4629 13.0371 14.248 13.3203 13.8477 13.3203ZM13.2324 10.3223L13.2324 6.01562L13.1836 6.01562C12.3828 7.38281 11.3477 9.14062 10.7617 10.2832L10.7617 10.3223Z" fill="#ffffff"/>
 </g>
</svg>
