<?xml version="1.0" encoding="UTF-8"?>
<!--Generator: Apple Native CoreSVG 175.5-->
<!DOCTYPE svg
PUBLIC "-//W3C//DTD SVG 1.1//EN"
       "http://www.w3.org/Graphics/SVG/1.1/DTD/svg11.dtd">
<svg version="1.1" xmlns="http://www.w3.org/2000/svg" xmlns:xlink="http://www.w3.org/1999/xlink" width="19.9219" height="19.9316">
 <g>
  <rect height="19.9316" opacity="0" width="19.9219" x="0" y="0"/>
  <path d="M9.96094 19.9219C15.4102 19.9219 19.9219 15.4004 19.9219 9.96094C19.9219 4.51172 15.4004 0 9.95117 0C4.51172 0 0 4.51172 0 9.96094C0 15.4004 4.52148 19.9219 9.96094 19.9219Z" fill="#000000" fill-opacity="0.85"/>
  <path d="M6.55273 14.3066C4.82422 14.3066 3.67188 12.6465 3.67188 9.96094C3.67188 7.27539 4.82422 5.61523 6.55273 5.61523C8.29102 5.61523 9.43359 7.27539 9.43359 9.96094C9.43359 12.6465 8.29102 14.3066 6.55273 14.3066ZM6.55273 13.0762C7.51953 13.0762 8.10547 11.8945 8.10547 9.96094C8.10547 8.02734 7.50977 6.8457 6.55273 6.8457C5.60547 6.8457 5 8.02734 5 9.96094C5 11.8945 5.60547 13.0762 6.55273 13.0762ZM13.3789 14.3066C12.1191 14.3066 11.1133 13.6426 10.8203 12.8027C10.7617 12.666 10.7324 12.5098 10.7324 12.3438C10.7324 12.0117 10.9668 11.7578 11.2988 11.7578C11.5332 11.7578 11.7383 11.9043 11.8848 12.1973C12.168 12.8027 12.7637 13.1641 13.4473 13.1641C14.4141 13.1641 15.0781 12.5293 15.0781 11.4746C15.0781 10.5469 14.4824 9.84375 13.5938 9.84375C13.1543 9.84375 12.832 9.99023 12.4219 10.3516C12.0996 10.6152 11.9043 10.7031 11.6016 10.7031C11.1328 10.7031 10.8496 10.3516 10.8887 9.82422L11.1328 6.68945C11.1621 6.15234 11.5234 5.83008 12.0605 5.83008L15.5078 5.83008C15.8008 5.83008 16.0156 6.07422 16.0156 6.39648C16.0156 6.72852 15.791 6.96289 15.5078 6.96289L12.1777 6.96289L11.9922 9.55078L12.041 9.55078C12.334 9.0918 13.0566 8.75977 13.7305 8.75977C15.293 8.75977 16.3379 9.89258 16.3379 11.4453C16.3379 13.2129 15.1562 14.3066 13.3789 14.3066Z" fill="#ffffff"/>
 </g>
</svg>
