<?xml version="1.0" encoding="UTF-8"?>
<!--Generator: Apple Native CoreSVG 175.5-->
<!DOCTYPE svg
PUBLIC "-//W3C//DTD SVG 1.1//EN"
       "http://www.w3.org/Graphics/SVG/1.1/DTD/svg11.dtd">
<svg version="1.1" xmlns="http://www.w3.org/2000/svg" xmlns:xlink="http://www.w3.org/1999/xlink" width="17.9785" height="17.998">
 <g>
  <rect height="17.998" opacity="0" width="17.9785" x="0" y="0"/>
  <path d="M3.06641 17.998L14.9121 17.998C16.9629 17.998 17.9785 16.9824 17.9785 14.9707L17.9785 3.04688C17.9785 1.03516 16.9629 0.0195312 14.9121 0.0195312L3.06641 0.0195312C1.02539 0.0195312 0 1.02539 0 3.04688L0 14.9707C0 16.9922 1.02539 17.998 3.06641 17.998Z" fill="#000000" fill-opacity="0.85"/>
  <path d="M5.58594 13.3398C3.85742 13.3398 2.70508 11.6797 2.70508 8.99414C2.70508 6.30859 3.85742 4.64844 5.58594 4.64844C7.32422 4.64844 8.4668 6.30859 8.4668 8.99414C8.4668 11.6797 7.32422 13.3398 5.58594 13.3398ZM5.58594 12.1094C6.5625 12.1094 7.13867 10.9277 7.13867 8.99414C7.13867 7.06055 6.55273 5.87891 5.58594 5.87891C4.63867 5.87891 4.0332 7.06055 4.0332 8.99414C4.0332 10.9277 4.63867 12.1094 5.58594 12.1094ZM12.4121 13.3398C11.1523 13.3398 10.1562 12.6758 9.85352 11.8359C9.79492 11.6992 9.76562 11.543 9.76562 11.377C9.76562 11.0449 10 10.791 10.332 10.791C10.5664 10.791 10.7715 10.9375 10.918 11.2305C11.2109 11.8359 11.7969 12.1973 12.4805 12.1973C13.4473 12.1973 14.1113 11.5625 14.1113 10.5078C14.1113 9.58008 13.5156 8.87695 12.627 8.87695C12.1875 8.87695 11.8652 9.02344 11.4551 9.38477C11.1328 9.64844 10.9473 9.73633 10.6348 9.73633C10.166 9.73633 9.88281 9.38477 9.92188 8.85742L10.166 5.72266C10.1953 5.18555 10.5566 4.86328 11.0938 4.86328L14.541 4.86328C14.8438 4.86328 15.0488 5.10742 15.0488 5.42969C15.0488 5.76172 14.834 5.99609 14.541 5.99609L11.2207 5.99609L11.0254 8.58398L11.0742 8.58398C11.3672 8.125 12.0996 7.79297 12.7637 7.79297C14.3262 7.79297 15.3711 8.92578 15.3711 10.4785C15.3711 12.2461 14.1895 13.3398 12.4121 13.3398Z" fill="#ffffff"/>
 </g>
</svg>
