<?xml version="1.0" encoding="UTF-8"?>
<!--Generator: Apple Native CoreSVG 175.5-->
<!DOCTYPE svg
PUBLIC "-//W3C//DTD SVG 1.1//EN"
       "http://www.w3.org/Graphics/SVG/1.1/DTD/svg11.dtd">
<svg version="1.1" xmlns="http://www.w3.org/2000/svg" xmlns:xlink="http://www.w3.org/1999/xlink" width="19.9219" height="19.9316">
 <g>
  <rect height="19.9316" opacity="0" width="19.9219" x="0" y="0"/>
  <path d="M9.96094 19.9219C15.4102 19.9219 19.9219 15.4004 19.9219 9.96094C19.9219 4.51172 15.4004 0 9.95117 0C4.51172 0 0 4.51172 0 9.96094C0 15.4004 4.52148 19.9219 9.96094 19.9219ZM9.96094 18.2617C5.35156 18.2617 1.66992 14.5703 1.66992 9.96094C1.66992 5.35156 5.3418 1.66016 9.95117 1.66016C14.5605 1.66016 18.2617 5.35156 18.2617 9.96094C18.2617 14.5703 14.5703 18.2617 9.96094 18.2617Z" fill="#000000" fill-opacity="0.85"/>
  <path d="M6.64062 14.1699C8.33008 14.1699 9.44336 12.5586 9.44336 9.96094C9.44336 7.36328 8.33008 5.75195 6.64062 5.75195C4.96094 5.75195 3.84766 7.36328 3.84766 9.96094C3.84766 12.5586 4.96094 14.1699 6.64062 14.1699ZM6.64062 12.9883C5.71289 12.9883 5.13672 11.8359 5.13672 9.96094C5.13672 8.08594 5.71289 6.93359 6.64062 6.93359C7.57812 6.93359 8.1543 8.08594 8.1543 9.96094C8.1543 11.8359 7.58789 12.9883 6.64062 12.9883ZM13.4473 14.1797C15.0391 14.1797 16.1621 13.1348 16.1621 11.3477C16.1621 9.66797 15.0195 8.74023 13.75 8.74023C12.7148 8.74023 12.0508 9.32617 11.8164 9.9707L11.7383 9.9707C11.7383 9.94141 11.7383 9.92188 11.7383 9.88281C11.7383 8.03711 12.4902 6.875 13.584 6.875C14.1504 6.875 14.541 7.14844 14.7852 7.5293C14.9609 7.77344 15.1074 7.89062 15.3711 7.89062C15.6445 7.89062 15.8594 7.67578 15.8594 7.35352C15.8594 7.22656 15.8301 7.10938 15.7812 6.98242C15.5273 6.32812 14.7461 5.75195 13.6328 5.75195C11.7578 5.75195 10.5957 7.2168 10.5957 10.1855C10.5957 11.377 10.791 12.2461 11.123 12.8613C11.6211 13.7988 12.4609 14.1797 13.4473 14.1797ZM13.3984 13.1055C12.4902 13.1055 11.8555 12.3926 11.8555 11.3867C11.8555 10.4297 12.4805 9.74609 13.3984 9.74609C14.3164 9.74609 14.9316 10.4199 14.9316 11.3965C14.9316 12.4414 14.3359 13.1055 13.3984 13.1055Z" fill="#000000" fill-opacity="0.85"/>
 </g>
</svg>
