<?xml version="1.0" encoding="UTF-8"?>
<!--Generator: Apple Native CoreSVG 175.5-->
<!DOCTYPE svg
PUBLIC "-//W3C//DTD SVG 1.1//EN"
       "http://www.w3.org/Graphics/SVG/1.1/DTD/svg11.dtd">
<svg version="1.1" xmlns="http://www.w3.org/2000/svg" xmlns:xlink="http://www.w3.org/1999/xlink" width="19.9219" height="19.9316">
 <g>
  <rect height="19.9316" opacity="0" width="19.9219" x="0" y="0"/>
  <path d="M9.96094 19.9219C15.4102 19.9219 19.9219 15.4004 19.9219 9.96094C19.9219 4.51172 15.4004 0 9.95117 0C4.51172 0 0 4.51172 0 9.96094C0 15.4004 4.52148 19.9219 9.96094 19.9219Z" fill="#000000" fill-opacity="0.85"/>
  <path d="M6.54297 14.3066C4.81445 14.3066 3.66211 12.6367 3.66211 9.96094C3.66211 7.27539 4.81445 5.61523 6.54297 5.61523C8.29102 5.61523 9.43359 7.27539 9.43359 9.96094C9.43359 12.6367 8.29102 14.3066 6.54297 14.3066ZM6.54297 13.0762C7.51953 13.0762 8.0957 11.8945 8.0957 9.96094C8.0957 8.02734 7.50977 6.8457 6.54297 6.8457C5.5957 6.8457 5 8.02734 5 9.96094C5 11.8945 5.5957 13.0762 6.54297 13.0762ZM13.5645 14.3164C12.5488 14.3164 11.6797 13.9258 11.1719 12.9492C10.8203 12.3242 10.625 11.4258 10.625 10.1953C10.625 7.12891 11.8262 5.61523 13.7598 5.61523C14.9023 5.61523 15.7129 6.21094 15.9668 6.88477C16.0254 7.02148 16.0547 7.13867 16.0547 7.27539C16.0547 7.60742 15.8301 7.83203 15.5469 7.83203C15.2734 7.83203 15.1172 7.70508 14.9414 7.45117C14.6875 7.06055 14.2871 6.78711 13.7012 6.78711C12.5781 6.78711 11.8066 7.97852 11.8066 9.87305C11.8066 9.92188 11.8066 9.94141 11.8066 9.9707L11.8848 9.9707C12.1289 9.30664 12.8125 8.70117 13.877 8.70117C15.1855 8.70117 16.3672 9.6582 16.3672 11.3867C16.3672 13.2324 15.2051 14.3164 13.5645 14.3164ZM13.5156 13.2031C14.4824 13.2031 15.0879 12.5195 15.0879 11.4453C15.0879 10.4395 14.4531 9.74609 13.5156 9.74609C12.5684 9.74609 11.9238 10.4492 11.9238 11.4355C11.9238 12.4707 12.5781 13.2031 13.5156 13.2031Z" fill="#ffffff"/>
 </g>
</svg>
