<?xml version="1.0" encoding="UTF-8"?>
<!--Generator: Apple Native CoreSVG 175.5-->
<!DOCTYPE svg
PUBLIC "-//W3C//DTD SVG 1.1//EN"
       "http://www.w3.org/Graphics/SVG/1.1/DTD/svg11.dtd">
<svg version="1.1" xmlns="http://www.w3.org/2000/svg" xmlns:xlink="http://www.w3.org/1999/xlink" width="17.9785" height="17.998">
 <g>
  <rect height="17.998" opacity="0" width="17.9785" x="0" y="0"/>
  <path d="M3.06641 17.998L14.9121 17.998C16.9629 17.998 17.9785 16.9824 17.9785 14.9707L17.9785 3.04688C17.9785 1.03516 16.9629 0.0195312 14.9121 0.0195312L3.06641 0.0195312C1.02539 0.0195312 0 1.02539 0 3.04688L0 14.9707C0 16.9922 1.02539 17.998 3.06641 17.998Z" fill="#000000" fill-opacity="0.85"/>
  <path d="M5.58594 13.3398C3.84766 13.3398 2.70508 11.6699 2.70508 8.99414C2.70508 6.30859 3.84766 4.64844 5.58594 4.64844C7.32422 4.64844 8.4668 6.30859 8.4668 8.99414C8.4668 11.6699 7.32422 13.3398 5.58594 13.3398ZM5.58594 12.1094C6.55273 12.1094 7.12891 10.9277 7.12891 8.99414C7.12891 7.06055 6.54297 5.87891 5.58594 5.87891C4.62891 5.87891 4.0332 7.06055 4.0332 8.99414C4.0332 10.9277 4.62891 12.1094 5.58594 12.1094ZM12.5977 13.3496C11.582 13.3496 10.7129 12.959 10.2051 11.9824C9.85352 11.3574 9.6582 10.459 9.6582 9.22852C9.6582 6.16211 10.8594 4.64844 12.793 4.64844C13.9355 4.64844 14.7461 5.24414 15 5.91797C15.0586 6.05469 15.0879 6.17188 15.0879 6.30859C15.0879 6.64062 14.8633 6.86523 14.5898 6.86523C14.3066 6.86523 14.1504 6.73828 13.9844 6.48438C13.7207 6.09375 13.3203 5.82031 12.7344 5.82031C11.6113 5.82031 10.8496 7.01172 10.8496 8.90625C10.8496 8.95508 10.8496 8.97461 10.8496 9.00391L10.918 9.00391C11.1621 8.33984 11.8457 7.73438 12.9102 7.73438C14.2188 7.73438 15.4102 8.69141 15.4102 10.4199C15.4102 12.2656 14.2383 13.3496 12.5977 13.3496ZM12.5488 12.2363C13.5156 12.2363 14.1309 11.5527 14.1309 10.4785C14.1309 9.47266 13.4863 8.7793 12.5488 8.7793C11.6016 8.7793 10.957 9.48242 10.957 10.4688C10.957 11.5039 11.6113 12.2363 12.5488 12.2363Z" fill="#ffffff"/>
 </g>
</svg>
