<?xml version="1.0" encoding="UTF-8"?>
<!--Generator: Apple Native CoreSVG 175.5-->
<!DOCTYPE svg
PUBLIC "-//W3C//DTD SVG 1.1//EN"
       "http://www.w3.org/Graphics/SVG/1.1/DTD/svg11.dtd">
<svg version="1.1" xmlns="http://www.w3.org/2000/svg" xmlns:xlink="http://www.w3.org/1999/xlink" width="17.9785" height="17.998">
 <g>
  <rect height="17.998" opacity="0" width="17.9785" x="0" y="0"/>
  <path d="M3.06641 17.998L14.9121 17.998C16.9629 17.998 17.9785 16.9824 17.9785 14.9707L17.9785 3.04688C17.9785 1.03516 16.9629 0.0195312 14.9121 0.0195312L3.06641 0.0195312C1.02539 0.0195312 0 1.02539 0 3.04688L0 14.9707C0 16.9922 1.02539 17.998 3.06641 17.998ZM3.08594 16.4258C2.10938 16.4258 1.57227 15.9082 1.57227 14.8926L1.57227 3.125C1.57227 2.10938 2.10938 1.5918 3.08594 1.5918L14.8926 1.5918C15.8594 1.5918 16.4062 2.10938 16.4062 3.125L16.4062 14.8926C16.4062 15.9082 15.8594 16.4258 14.8926 16.4258Z" fill="#000000" fill-opacity="0.85"/>
  <path d="M5.69336 13.2031C7.37305 13.2031 8.48633 11.5918 8.48633 8.99414C8.48633 6.39648 7.37305 4.78516 5.69336 4.78516C4.00391 4.78516 2.90039 6.39648 2.90039 8.99414C2.90039 11.5918 4.00391 13.2031 5.69336 13.2031ZM5.69336 12.0215C4.75586 12.0215 4.17969 10.8691 4.17969 8.99414C4.17969 7.11914 4.75586 5.9668 5.69336 5.9668C6.62109 5.9668 7.19727 7.11914 7.19727 8.99414C7.19727 10.8691 6.63086 12.0215 5.69336 12.0215ZM12.4902 13.2129C14.082 13.2129 15.2148 12.168 15.2148 10.3809C15.2148 8.70117 14.0625 7.77344 12.793 7.77344C11.7578 7.77344 11.0938 8.35938 10.8594 9.00391L10.791 9.00391C10.791 8.97461 10.791 8.95508 10.791 8.91602C10.791 7.07031 11.5332 5.9082 12.627 5.9082C13.1934 5.9082 13.584 6.18164 13.8379 6.5625C14.0039 6.80664 14.1504 6.92383 14.4238 6.92383C14.6875 6.92383 14.9023 6.70898 14.9023 6.38672C14.9023 6.25977 14.873 6.14258 14.8242 6.01562C14.5703 5.36133 13.7891 4.78516 12.6758 4.78516C10.8008 4.78516 9.63867 6.25 9.63867 9.21875C9.63867 10.4102 9.83398 11.2793 10.166 11.8945C10.6641 12.832 11.5039 13.2129 12.4902 13.2129ZM12.4414 12.1387C11.5332 12.1387 10.8984 11.4258 10.8984 10.4199C10.8984 9.46289 11.5234 8.7793 12.4414 8.7793C13.3594 8.7793 13.9844 9.45312 13.9844 10.4297C13.9844 11.4746 13.3789 12.1387 12.4414 12.1387Z" fill="#000000" fill-opacity="0.85"/>
 </g>
</svg>
