<?xml version="1.0" encoding="UTF-8"?>
<!--Generator: Apple Native CoreSVG 175.5-->
<!DOCTYPE svg
PUBLIC "-//W3C//DTD SVG 1.1//EN"
       "http://www.w3.org/Graphics/SVG/1.1/DTD/svg11.dtd">
<svg version="1.1" xmlns="http://www.w3.org/2000/svg" xmlns:xlink="http://www.w3.org/1999/xlink" width="19.9219" height="19.9316">
 <g>
  <rect height="19.9316" opacity="0" width="19.9219" x="0" y="0"/>
  <path d="M9.96094 19.9219C15.4102 19.9219 19.9219 15.4004 19.9219 9.96094C19.9219 4.51172 15.4004 0 9.95117 0C4.51172 0 0 4.51172 0 9.96094C0 15.4004 4.52148 19.9219 9.96094 19.9219ZM9.96094 18.2617C5.35156 18.2617 1.66992 14.5703 1.66992 9.96094C1.66992 5.35156 5.3418 1.66016 9.95117 1.66016C14.5605 1.66016 18.2617 5.35156 18.2617 9.96094C18.2617 14.5703 14.5703 18.2617 9.96094 18.2617Z" fill="#000000" fill-opacity="0.85"/>
  <path d="M6.91406 14.1699C8.59375 14.1699 9.70703 12.5586 9.70703 9.96094C9.70703 7.36328 8.59375 5.75195 6.91406 5.75195C5.23438 5.75195 4.12109 7.36328 4.12109 9.96094C4.12109 12.5586 5.23438 14.1699 6.91406 14.1699ZM6.91406 12.9883C5.98633 12.9883 5.40039 11.8359 5.40039 9.96094C5.40039 8.08594 5.98633 6.93359 6.91406 6.93359C7.8418 6.93359 8.42773 8.08594 8.42773 9.96094C8.42773 11.8359 7.85156 12.9883 6.91406 12.9883ZM12.1289 14.0625C12.3926 14.0625 12.5781 13.916 12.7539 13.584L15.8008 7.49023C15.9473 7.17773 15.9863 7.00195 15.9863 6.79688C15.9863 6.31836 15.6445 5.94727 15.1172 5.94727L11.1816 5.94727C10.8398 5.94727 10.6152 6.17188 10.6152 6.50391C10.6152 6.82617 10.8398 7.04102 11.1816 7.04102L14.6094 7.04102L14.6094 7.11914L11.582 12.9785C11.5039 13.125 11.4746 13.2422 11.4746 13.4277C11.4746 13.7988 11.7578 14.0625 12.1289 14.0625Z" fill="#000000" fill-opacity="0.85"/>
 </g>
</svg>
