<?xml version="1.0" encoding="UTF-8"?>
<!--Generator: Apple Native CoreSVG 175.5-->
<!DOCTYPE svg
PUBLIC "-//W3C//DTD SVG 1.1//EN"
       "http://www.w3.org/Graphics/SVG/1.1/DTD/svg11.dtd">
<svg version="1.1" xmlns="http://www.w3.org/2000/svg" xmlns:xlink="http://www.w3.org/1999/xlink" width="17.9785" height="17.998">
 <g>
  <rect height="17.998" opacity="0" width="17.9785" x="0" y="0"/>
  <path d="M3.06641 17.998L14.9121 17.998C16.9629 17.998 17.9785 16.9824 17.9785 14.9707L17.9785 3.04688C17.9785 1.03516 16.9629 0.0195312 14.9121 0.0195312L3.06641 0.0195312C1.02539 0.0195312 0 1.02539 0 3.04688L0 14.9707C0 16.9922 1.02539 17.998 3.06641 17.998ZM3.08594 16.4258C2.10938 16.4258 1.57227 15.9082 1.57227 14.8926L1.57227 3.125C1.57227 2.10938 2.10938 1.5918 3.08594 1.5918L14.8926 1.5918C15.8594 1.5918 16.4062 2.10938 16.4062 3.125L16.4062 14.8926C16.4062 15.9082 15.8594 16.4258 14.8926 16.4258Z" fill="#000000" fill-opacity="0.85"/>
  <path d="M5.95703 13.2031C7.63672 13.2031 8.75 11.5918 8.75 8.99414C8.75 6.39648 7.63672 4.78516 5.95703 4.78516C4.27734 4.78516 3.16406 6.39648 3.16406 8.99414C3.16406 11.5918 4.27734 13.2031 5.95703 13.2031ZM5.95703 12.0215C5.0293 12.0215 4.44336 10.8691 4.44336 8.99414C4.44336 7.11914 5.0293 5.9668 5.95703 5.9668C6.88477 5.9668 7.4707 7.11914 7.4707 8.99414C7.4707 10.8691 6.89453 12.0215 5.95703 12.0215ZM11.1719 13.0957C11.4355 13.0957 11.6309 12.9492 11.7969 12.6172L14.8438 6.52344C15 6.21094 15.0293 6.03516 15.0293 5.83008C15.0293 5.35156 14.6875 4.98047 14.1602 4.98047L10.2246 4.98047C9.88281 4.98047 9.6582 5.20508 9.6582 5.53711C9.6582 5.85938 9.88281 6.07422 10.2246 6.07422L13.6523 6.07422L13.6523 6.15234L10.625 12.0117C10.5469 12.1582 10.5176 12.2754 10.5176 12.4609C10.5176 12.832 10.8008 13.0957 11.1719 13.0957Z" fill="#000000" fill-opacity="0.85"/>
 </g>
</svg>
