<?xml version="1.0" encoding="UTF-8"?>
<!--Generator: Apple Native CoreSVG 175.5-->
<!DOCTYPE svg
PUBLIC "-//W3C//DTD SVG 1.1//EN"
       "http://www.w3.org/Graphics/SVG/1.1/DTD/svg11.dtd">
<svg version="1.1" xmlns="http://www.w3.org/2000/svg" xmlns:xlink="http://www.w3.org/1999/xlink" width="17.9785" height="17.998">
 <g>
  <rect height="17.998" opacity="0" width="17.9785" x="0" y="0"/>
  <path d="M3.06641 17.998L14.9121 17.998C16.9629 17.998 17.9785 16.9824 17.9785 14.9707L17.9785 3.04688C17.9785 1.03516 16.9629 0.0195312 14.9121 0.0195312L3.06641 0.0195312C1.02539 0.0195312 0 1.02539 0 3.04688L0 14.9707C0 16.9922 1.02539 17.998 3.06641 17.998Z" fill="#000000" fill-opacity="0.85"/>
  <path d="M5.85938 13.3398C4.12109 13.3398 2.97852 11.6797 2.97852 8.99414C2.97852 6.30859 4.12109 4.64844 5.85938 4.64844C7.58789 4.64844 8.74023 6.30859 8.74023 8.99414C8.74023 11.6797 7.58789 13.3398 5.85938 13.3398ZM5.85938 12.1094C6.82617 12.1094 7.41211 10.9277 7.41211 8.99414C7.41211 7.06055 6.80664 5.87891 5.85938 5.87891C4.90234 5.87891 4.30664 7.06055 4.30664 8.99414C4.30664 10.9277 4.90234 12.1094 5.85938 12.1094ZM11.2402 13.2227C10.8496 13.2227 10.5566 12.9492 10.5566 12.5684C10.5566 12.373 10.5859 12.2559 10.6738 12.0996L13.7891 6.06445L13.7891 5.98633L10.2637 5.98633C9.90234 5.98633 9.67773 5.76172 9.67773 5.42969C9.67773 5.08789 9.90234 4.85352 10.2637 4.85352L14.3164 4.85352C14.8633 4.85352 15.2148 5.24414 15.2148 5.73242C15.2148 5.94727 15.1855 6.13281 15.0195 6.45508L11.8848 12.7246C11.709 13.0762 11.5137 13.2227 11.2402 13.2227Z" fill="#ffffff"/>
 </g>
</svg>
