<?xml version="1.0" encoding="UTF-8"?>
<!--Generator: Apple Native CoreSVG 175.5-->
<!DOCTYPE svg
PUBLIC "-//W3C//DTD SVG 1.1//EN"
       "http://www.w3.org/Graphics/SVG/1.1/DTD/svg11.dtd">
<svg version="1.1" xmlns="http://www.w3.org/2000/svg" xmlns:xlink="http://www.w3.org/1999/xlink" width="19.9219" height="19.9316">
 <g>
  <rect height="19.9316" opacity="0" width="19.9219" x="0" y="0"/>
  <path d="M9.96094 19.9219C15.4102 19.9219 19.9219 15.4004 19.9219 9.96094C19.9219 4.51172 15.4004 0 9.95117 0C4.51172 0 0 4.51172 0 9.96094C0 15.4004 4.52148 19.9219 9.96094 19.9219Z" fill="#000000" fill-opacity="0.85"/>
  <path d="M6.5918 14.3066C4.86328 14.3066 3.71094 12.6465 3.71094 9.96094C3.71094 7.27539 4.86328 5.61523 6.5918 5.61523C8.33008 5.61523 9.47266 7.27539 9.47266 9.96094C9.47266 12.6465 8.33008 14.3066 6.5918 14.3066ZM6.5918 13.0762C7.55859 13.0762 8.14453 11.8945 8.14453 9.96094C8.14453 8.02734 7.54883 6.8457 6.5918 6.8457C5.64453 6.8457 5.03906 8.02734 5.03906 9.96094C5.03906 11.8945 5.64453 13.0762 6.5918 13.0762ZM13.4473 14.3066C11.6992 14.3066 10.5371 13.3203 10.5371 11.8457C10.5371 10.8203 11.1523 9.9707 12.2559 9.74609L12.2559 9.6875C11.3184 9.41406 10.8301 8.71094 10.8301 7.83203C10.8301 6.52344 11.9238 5.61523 13.4668 5.61523C15.0098 5.61523 16.1035 6.52344 16.1035 7.83203C16.1035 8.71094 15.6055 9.43359 14.6777 9.6875L14.6777 9.74609C15.7617 9.9707 16.3965 10.8105 16.3965 11.8359C16.3965 13.3008 15.1953 14.3066 13.4473 14.3066ZM13.4766 13.252C14.4238 13.252 15.1172 12.6367 15.1172 11.7578C15.1172 10.8789 14.4434 10.2539 13.4766 10.2539C12.5195 10.2539 11.8262 10.8887 11.8262 11.7578C11.8262 12.6367 12.5195 13.252 13.4766 13.252ZM13.4668 9.28711C14.2578 9.28711 14.8047 8.7207 14.8047 7.95898C14.8047 7.19727 14.2578 6.66992 13.4668 6.66992C12.6758 6.66992 12.1289 7.19727 12.1289 7.95898C12.1289 8.7207 12.6758 9.28711 13.4668 9.28711Z" fill="#ffffff"/>
 </g>
</svg>
