<?xml version="1.0" encoding="UTF-8"?>
<!--Generator: Apple Native CoreSVG 175.5-->
<!DOCTYPE svg
PUBLIC "-//W3C//DTD SVG 1.1//EN"
       "http://www.w3.org/Graphics/SVG/1.1/DTD/svg11.dtd">
<svg version="1.1" xmlns="http://www.w3.org/2000/svg" xmlns:xlink="http://www.w3.org/1999/xlink" width="17.9785" height="17.998">
 <g>
  <rect height="17.998" opacity="0" width="17.9785" x="0" y="0"/>
  <path d="M3.06641 17.998L14.9121 17.998C16.9629 17.998 17.9785 16.9824 17.9785 14.9707L17.9785 3.04688C17.9785 1.03516 16.9629 0.0195312 14.9121 0.0195312L3.06641 0.0195312C1.02539 0.0195312 0 1.02539 0 3.04688L0 14.9707C0 16.9922 1.02539 17.998 3.06641 17.998Z" fill="#000000" fill-opacity="0.85"/>
  <path d="M5.625 13.3398C3.89648 13.3398 2.74414 11.6797 2.74414 8.99414C2.74414 6.30859 3.89648 4.64844 5.625 4.64844C7.36328 4.64844 8.50586 6.30859 8.50586 8.99414C8.50586 11.6797 7.36328 13.3398 5.625 13.3398ZM5.625 12.1094C6.5918 12.1094 7.17773 10.9277 7.17773 8.99414C7.17773 7.06055 6.58203 5.87891 5.625 5.87891C4.67773 5.87891 4.07227 7.06055 4.07227 8.99414C4.07227 10.9277 4.67773 12.1094 5.625 12.1094ZM12.4902 13.3398C10.7324 13.3398 9.57031 12.3535 9.57031 10.8789C9.57031 9.85352 10.1953 9.00391 11.2891 8.7793L11.2891 8.7207C10.3516 8.44727 9.86328 7.74414 9.86328 6.86523C9.86328 5.55664 10.957 4.64844 12.5098 4.64844C14.043 4.64844 15.1367 5.55664 15.1367 6.86523C15.1367 7.74414 14.6387 8.4668 13.7109 8.7207L13.7109 8.7793C14.8047 9.00391 15.4297 9.84375 15.4297 10.8691C15.4297 12.334 14.2285 13.3398 12.4902 13.3398ZM12.5195 12.2852C13.457 12.2852 14.1504 11.6699 14.1504 10.791C14.1504 9.91211 13.4766 9.28711 12.5195 9.28711C11.5527 9.28711 10.8594 9.92188 10.8594 10.791C10.8594 11.6699 11.5527 12.2852 12.5195 12.2852ZM12.5098 8.32031C13.291 8.32031 13.8379 7.75391 13.8379 6.99219C13.8379 6.23047 13.291 5.70312 12.5098 5.70312C11.709 5.70312 11.1621 6.23047 11.1621 6.99219C11.1621 7.75391 11.709 8.32031 12.5098 8.32031Z" fill="#ffffff"/>
 </g>
</svg>
