<?xml version="1.0" encoding="UTF-8"?>
<!--Generator: Apple Native CoreSVG 175.5-->
<!DOCTYPE svg
PUBLIC "-//W3C//DTD SVG 1.1//EN"
       "http://www.w3.org/Graphics/SVG/1.1/DTD/svg11.dtd">
<svg version="1.1" xmlns="http://www.w3.org/2000/svg" xmlns:xlink="http://www.w3.org/1999/xlink" width="17.9785" height="17.998">
 <g>
  <rect height="17.998" opacity="0" width="17.9785" x="0" y="0"/>
  <path d="M3.06641 17.998L14.9121 17.998C16.9629 17.998 17.9785 16.9824 17.9785 14.9707L17.9785 3.04688C17.9785 1.03516 16.9629 0.0195312 14.9121 0.0195312L3.06641 0.0195312C1.02539 0.0195312 0 1.02539 0 3.04688L0 14.9707C0 16.9922 1.02539 17.998 3.06641 17.998Z" fill="#000000" fill-opacity="0.85"/>
  <path d="M5.63477 13.3398C3.90625 13.3398 2.75391 11.6797 2.75391 8.99414C2.75391 6.30859 3.90625 4.64844 5.63477 4.64844C7.37305 4.64844 8.51562 6.30859 8.51562 8.99414C8.51562 11.6797 7.37305 13.3398 5.63477 13.3398ZM5.63477 12.1094C6.61133 12.1094 7.1875 10.9277 7.1875 8.99414C7.1875 7.06055 6.60156 5.87891 5.63477 5.87891C4.6875 5.87891 4.08203 7.06055 4.08203 8.99414C4.08203 10.9277 4.6875 12.1094 5.63477 12.1094ZM12.3047 13.3398C10.9082 13.3398 10.0977 12.5488 9.92188 11.9922C9.88281 11.875 9.85352 11.7383 9.85352 11.6309C9.85352 11.2793 10.0781 11.0352 10.3906 11.0352C10.6543 11.0352 10.8496 11.1426 11.0059 11.4258C11.25 11.875 11.709 12.168 12.2852 12.168C13.4473 12.168 14.209 10.9863 14.1895 8.98438L14.1309 8.98438C13.8672 9.66797 13.2227 10.2637 12.1094 10.2637C10.791 10.2637 9.61914 9.29688 9.61914 7.56836C9.61914 5.79102 10.7227 4.64844 12.4121 4.64844C14.3066 4.64844 15.4004 6.07422 15.4004 8.71094C15.4004 11.748 14.3066 13.3398 12.3047 13.3398ZM12.5 9.21875C13.4277 9.21875 14.082 8.50586 14.082 7.51953C14.082 6.48438 13.418 5.75195 12.5 5.75195C11.5234 5.75195 10.8984 6.44531 10.8984 7.5C10.8984 8.50586 11.543 9.21875 12.5 9.21875Z" fill="#ffffff"/>
 </g>
</svg>
