<?xml version="1.0" encoding="UTF-8"?>
<!--Generator: Apple Native CoreSVG 175.5-->
<!DOCTYPE svg
PUBLIC "-//W3C//DTD SVG 1.1//EN"
       "http://www.w3.org/Graphics/SVG/1.1/DTD/svg11.dtd">
<svg version="1.1" xmlns="http://www.w3.org/2000/svg" xmlns:xlink="http://www.w3.org/1999/xlink" width="17.9785" height="17.998">
 <g>
  <rect height="17.998" opacity="0" width="17.9785" x="0" y="0"/>
  <path d="M3.06641 17.998L14.9121 17.998C16.9629 17.998 17.9785 16.9824 17.9785 14.9707L17.9785 3.04688C17.9785 1.03516 16.9629 0.0195312 14.9121 0.0195312L3.06641 0.0195312C1.02539 0.0195312 0 1.02539 0 3.04688L0 14.9707C0 16.9922 1.02539 17.998 3.06641 17.998ZM3.08594 16.4258C2.10938 16.4258 1.57227 15.9082 1.57227 14.8926L1.57227 3.125C1.57227 2.10938 2.10938 1.5918 3.08594 1.5918L14.8926 1.5918C15.8594 1.5918 16.4062 2.10938 16.4062 3.125L16.4062 14.8926C16.4062 15.9082 15.8594 16.4258 14.8926 16.4258Z" fill="#000000" fill-opacity="0.85"/>
  <path d="M5.74219 13.2031C7.42188 13.2031 8.53516 11.5918 8.53516 8.99414C8.53516 6.39648 7.42188 4.78516 5.74219 4.78516C4.0625 4.78516 2.94922 6.39648 2.94922 8.99414C2.94922 11.5918 4.0625 13.2031 5.74219 13.2031ZM5.74219 12.0215C4.81445 12.0215 4.22852 10.8691 4.22852 8.99414C4.22852 7.11914 4.81445 5.9668 5.74219 5.9668C6.67969 5.9668 7.25586 7.11914 7.25586 8.99414C7.25586 10.8691 6.68945 12.0215 5.74219 12.0215ZM12.207 13.2031C14.1504 13.2031 15.2051 11.6602 15.2051 8.7207C15.2051 6.16211 14.1504 4.78516 12.3145 4.78516C10.6738 4.78516 9.59961 5.88867 9.59961 7.60742C9.59961 9.28711 10.7422 10.2246 12.0215 10.2246C13.0957 10.2246 13.7305 9.64844 13.9844 8.98438L14.043 8.98438C14.0625 10.9277 13.3203 12.0801 12.1875 12.0801C11.6309 12.0801 11.1816 11.7871 10.9473 11.3574C10.791 11.084 10.6055 10.9766 10.3516 10.9766C10.0488 10.9766 9.83398 11.2109 9.83398 11.5527C9.83398 11.6504 9.86328 11.7871 9.90234 11.9043C10.0684 12.4414 10.8594 13.2031 12.207 13.2031ZM12.3926 9.21875C11.4648 9.21875 10.8398 8.52539 10.8398 7.54883C10.8398 6.52344 11.4453 5.84961 12.3926 5.84961C13.291 5.84961 13.9355 6.5625 13.9355 7.56836C13.9355 8.52539 13.3008 9.21875 12.3926 9.21875Z" fill="#000000" fill-opacity="0.85"/>
 </g>
</svg>
