<?xml version="1.0" encoding="UTF-8"?>
<!--Generator: Apple Native CoreSVG 175.5-->
<!DOCTYPE svg
PUBLIC "-//W3C//DTD SVG 1.1//EN"
       "http://www.w3.org/Graphics/SVG/1.1/DTD/svg11.dtd">
<svg version="1.1" xmlns="http://www.w3.org/2000/svg" xmlns:xlink="http://www.w3.org/1999/xlink" width="19.9219" height="19.9316">
 <g>
  <rect height="19.9316" opacity="0" width="19.9219" x="0" y="0"/>
  <path d="M9.96094 19.9219C15.4102 19.9219 19.9219 15.4004 19.9219 9.96094C19.9219 4.51172 15.4004 0 9.95117 0C4.51172 0 0 4.51172 0 9.96094C0 15.4004 4.52148 19.9219 9.96094 19.9219ZM9.96094 18.2617C5.35156 18.2617 1.66992 14.5703 1.66992 9.96094C1.66992 5.35156 5.3418 1.66016 9.95117 1.66016C14.5605 1.66016 18.2617 5.35156 18.2617 9.96094C18.2617 14.5703 14.5703 18.2617 9.96094 18.2617Z" fill="#000000" fill-opacity="0.85"/>
  <path d="M10.4492 14.4043C10.957 14.4043 11.2402 14.0723 11.2402 13.5254L11.2402 6.38672C11.2402 5.82031 10.9375 5.50781 10.4102 5.50781C10.0488 5.50781 9.79492 5.60547 9.38477 5.88867L7.62695 7.08008C7.41211 7.23633 7.32422 7.38281 7.32422 7.62695C7.32422 7.92969 7.55859 8.21289 7.87109 8.21289C8.02734 8.21289 8.125 8.19336 8.34961 8.03711L9.60938 7.20703L9.6875 7.20703L9.6875 13.5254C9.6875 14.0723 9.9707 14.4043 10.4492 14.4043Z" fill="#000000" fill-opacity="0.85"/>
 </g>
</svg>
