<?xml version="1.0" encoding="UTF-8"?>
<!--Generator: Apple Native CoreSVG 175.5-->
<!DOCTYPE svg
PUBLIC "-//W3C//DTD SVG 1.1//EN"
       "http://www.w3.org/Graphics/SVG/1.1/DTD/svg11.dtd">
<svg version="1.1" xmlns="http://www.w3.org/2000/svg" xmlns:xlink="http://www.w3.org/1999/xlink" width="17.9785" height="17.998">
 <g>
  <rect height="17.998" opacity="0" width="17.9785" x="0" y="0"/>
  <path d="M3.06641 17.998L14.9121 17.998C16.9629 17.998 17.9785 16.9824 17.9785 14.9707L17.9785 3.04688C17.9785 1.03516 16.9629 0.0195312 14.9121 0.0195312L3.06641 0.0195312C1.02539 0.0195312 0 1.02539 0 3.04688L0 14.9707C0 16.9922 1.02539 17.998 3.06641 17.998ZM3.08594 16.4258C2.10938 16.4258 1.57227 15.9082 1.57227 14.8926L1.57227 3.125C1.57227 2.10938 2.10938 1.5918 3.08594 1.5918L14.8926 1.5918C15.8594 1.5918 16.4062 2.10938 16.4062 3.125L16.4062 14.8926C16.4062 15.9082 15.8594 16.4258 14.8926 16.4258Z" fill="#000000" fill-opacity="0.85"/>
  <path d="M9.49219 13.4375C10 13.4375 10.2832 13.1055 10.2832 12.5586L10.2832 5.41992C10.2832 4.85352 9.98047 4.54102 9.45312 4.54102C9.10156 4.54102 8.83789 4.63867 8.42773 4.92188L6.66992 6.11328C6.45508 6.26953 6.36719 6.41602 6.36719 6.66016C6.36719 6.96289 6.61133 7.24609 6.92383 7.24609C7.07031 7.24609 7.16797 7.22656 7.39258 7.07031L8.66211 6.24023L8.73047 6.24023L8.73047 12.5586C8.73047 13.1055 9.01367 13.4375 9.49219 13.4375Z" fill="#000000" fill-opacity="0.85"/>
 </g>
</svg>
