<?xml version="1.0" encoding="UTF-8"?>
<!--Generator: Apple Native CoreSVG 175.5-->
<!DOCTYPE svg
PUBLIC "-//W3C//DTD SVG 1.1//EN"
       "http://www.w3.org/Graphics/SVG/1.1/DTD/svg11.dtd">
<svg version="1.1" xmlns="http://www.w3.org/2000/svg" xmlns:xlink="http://www.w3.org/1999/xlink" width="17.9785" height="17.998">
 <g>
  <rect height="17.998" opacity="0" width="17.9785" x="0" y="0"/>
  <path d="M3.06641 17.998L14.9121 17.998C16.9629 17.998 17.9785 16.9824 17.9785 14.9707L17.9785 3.04688C17.9785 1.03516 16.9629 0.0195312 14.9121 0.0195312L3.06641 0.0195312C1.02539 0.0195312 0 1.02539 0 3.04688L0 14.9707C0 16.9922 1.02539 17.998 3.06641 17.998Z" fill="#000000" fill-opacity="0.85"/>
  <path d="M9.51172 13.5742C9.01367 13.5742 8.7207 13.2324 8.7207 12.666L8.7207 6.16211L8.65234 6.16211L7.34375 7.01172C7.10938 7.17773 7.01172 7.19727 6.85547 7.19727C6.5332 7.19727 6.2793 6.9043 6.2793 6.5918C6.2793 6.33789 6.37695 6.18164 6.5918 6.02539L8.4082 4.79492C8.82812 4.50195 9.10156 4.4043 9.47266 4.4043C10.0195 4.4043 10.332 4.72656 10.332 5.3125L10.332 12.666C10.332 13.2324 10.0391 13.5742 9.51172 13.5742Z" fill="#ffffff"/>
 </g>
</svg>
