<?xml version="1.0" encoding="UTF-8"?>
<!--Generator: Apple Native CoreSVG 175.5-->
<!DOCTYPE svg
PUBLIC "-//W3C//DTD SVG 1.1//EN"
       "http://www.w3.org/Graphics/SVG/1.1/DTD/svg11.dtd">
<svg version="1.1" xmlns="http://www.w3.org/2000/svg" xmlns:xlink="http://www.w3.org/1999/xlink" width="17.9785" height="17.998">
 <g>
  <rect height="17.998" opacity="0" width="17.9785" x="0" y="0"/>
  <path d="M3.06641 17.998L14.9121 17.998C16.9629 17.998 17.9785 16.9824 17.9785 14.9707L17.9785 3.04688C17.9785 1.03516 16.9629 0.0195312 14.9121 0.0195312L3.06641 0.0195312C1.02539 0.0195312 0 1.02539 0 3.04688L0 14.9707C0 16.9922 1.02539 17.998 3.06641 17.998Z" fill="#000000" fill-opacity="0.85"/>
  <path d="M6.2793 13.2129C5.89844 13.2129 5.6543 12.959 5.6543 12.5684L5.6543 6.31836L5.5957 6.31836L4.53125 7.10938C4.29688 7.29492 4.19922 7.30469 4.0332 7.30469C3.74023 7.30469 3.45703 7.04102 3.45703 6.69922C3.45703 6.43555 3.58398 6.25 3.79883 6.10352L5.32227 5.05859C5.68359 4.81445 5.87891 4.7168 6.21094 4.7168C6.63086 4.7168 6.92383 5.01953 6.92383 5.43945L6.92383 12.5684C6.92383 12.959 6.66992 13.2129 6.2793 13.2129ZM11.6113 13.3398C9.88281 13.3398 8.73047 11.6797 8.73047 8.99414C8.73047 6.30859 9.88281 4.64844 11.6113 4.64844C13.3496 4.64844 14.4922 6.30859 14.4922 8.99414C14.4922 11.6797 13.3496 13.3398 11.6113 13.3398ZM11.6113 12.1094C12.5781 12.1094 13.1738 10.9277 13.1738 8.99414C13.1738 7.06055 12.5684 5.87891 11.6113 5.87891C10.6641 5.87891 10.0586 7.06055 10.0586 8.99414C10.0586 10.9277 10.6641 12.1094 11.6113 12.1094Z" fill="#ffffff"/>
 </g>
</svg>
