<?xml version="1.0" encoding="UTF-8"?>
<!--Generator: Apple Native CoreSVG 175.5-->
<!DOCTYPE svg
PUBLIC "-//W3C//DTD SVG 1.1//EN"
       "http://www.w3.org/Graphics/SVG/1.1/DTD/svg11.dtd">
<svg version="1.1" xmlns="http://www.w3.org/2000/svg" xmlns:xlink="http://www.w3.org/1999/xlink" width="19.9219" height="19.9316">
 <g>
  <rect height="19.9316" opacity="0" width="19.9219" x="0" y="0"/>
  <path d="M9.96094 19.9219C15.4102 19.9219 19.9219 15.4004 19.9219 9.96094C19.9219 4.51172 15.4004 0 9.95117 0C4.51172 0 0 4.51172 0 9.96094C0 15.4004 4.52148 19.9219 9.96094 19.9219Z" fill="#000000" fill-opacity="0.85"/>
  <path d="M7.85156 14.1797C7.48047 14.1797 7.22656 13.9258 7.22656 13.5352L7.22656 7.28516L7.16797 7.28516L6.09375 8.08594C5.85938 8.26172 5.77148 8.27148 5.60547 8.27148C5.3125 8.27148 5.01953 8.00781 5.01953 7.66602C5.01953 7.40234 5.15625 7.22656 5.36133 7.07031L6.89453 6.02539C7.24609 5.78125 7.45117 5.68359 7.7832 5.68359C8.19336 5.68359 8.48633 5.98633 8.48633 6.40625L8.48633 13.5352C8.48633 13.9258 8.23242 14.1797 7.85156 14.1797ZM13.1348 14.1797C12.7539 14.1797 12.5 13.9258 12.5 13.5352L12.5 7.28516L12.4414 7.28516L11.3867 8.08594C11.1523 8.26172 11.0449 8.27148 10.8887 8.27148C10.5957 8.27148 10.3125 8.00781 10.3125 7.66602C10.3125 7.40234 10.4297 7.22656 10.6445 7.07031L12.168 6.02539C12.5293 5.78125 12.7246 5.68359 13.0566 5.68359C13.4863 5.68359 13.7695 5.98633 13.7695 6.40625L13.7695 13.5352C13.7695 13.9258 13.5156 14.1797 13.1348 14.1797Z" fill="#ffffff"/>
 </g>
</svg>
