<?xml version="1.0" encoding="UTF-8"?>
<!--Generator: Apple Native CoreSVG 175.5-->
<!DOCTYPE svg
PUBLIC "-//W3C//DTD SVG 1.1//EN"
       "http://www.w3.org/Graphics/SVG/1.1/DTD/svg11.dtd">
<svg version="1.1" xmlns="http://www.w3.org/2000/svg" xmlns:xlink="http://www.w3.org/1999/xlink" width="17.9785" height="17.998">
 <g>
  <rect height="17.998" opacity="0" width="17.9785" x="0" y="0"/>
  <path d="M3.06641 17.998L14.9121 17.998C16.9629 17.998 17.9785 16.9824 17.9785 14.9707L17.9785 3.04688C17.9785 1.03516 16.9629 0.0195312 14.9121 0.0195312L3.06641 0.0195312C1.02539 0.0195312 0 1.02539 0 3.04688L0 14.9707C0 16.9922 1.02539 17.998 3.06641 17.998Z" fill="#000000" fill-opacity="0.85"/>
  <path d="M6.88477 13.2129C6.51367 13.2129 6.25977 12.959 6.25977 12.5684L6.25977 6.31836L6.20117 6.31836L5.13672 7.11914C4.89258 7.29492 4.80469 7.30469 4.63867 7.30469C4.3457 7.30469 4.0625 7.04102 4.0625 6.69922C4.0625 6.43555 4.18945 6.25977 4.39453 6.10352L5.92773 5.05859C6.28906 4.81445 6.48438 4.7168 6.81641 4.7168C7.23633 4.7168 7.51953 5.01953 7.51953 5.43945L7.51953 12.5684C7.51953 12.959 7.26562 13.2129 6.88477 13.2129ZM12.168 13.2129C11.7871 13.2129 11.5332 12.959 11.5332 12.5684L11.5332 6.31836L11.4844 6.31836L10.4199 7.11914C10.1855 7.29492 10.0781 7.30469 9.92188 7.30469C9.62891 7.30469 9.3457 7.04102 9.3457 6.69922C9.3457 6.43555 9.46289 6.25977 9.6875 6.10352L11.2012 5.05859C11.5625 4.81445 11.7578 4.7168 12.0898 4.7168C12.5195 4.7168 12.8027 5.01953 12.8027 5.43945L12.8027 12.5684C12.8027 12.959 12.5488 13.2129 12.168 13.2129Z" fill="#ffffff"/>
 </g>
</svg>
