<?xml version="1.0" encoding="UTF-8"?>
<!--Generator: Apple Native CoreSVG 175.5-->
<!DOCTYPE svg
PUBLIC "-//W3C//DTD SVG 1.1//EN"
       "http://www.w3.org/Graphics/SVG/1.1/DTD/svg11.dtd">
<svg version="1.1" xmlns="http://www.w3.org/2000/svg" xmlns:xlink="http://www.w3.org/1999/xlink" width="19.9219" height="19.9316">
 <g>
  <rect height="19.9316" opacity="0" width="19.9219" x="0" y="0"/>
  <path d="M9.96094 19.9219C15.4102 19.9219 19.9219 15.4004 19.9219 9.96094C19.9219 4.51172 15.4004 0 9.95117 0C4.51172 0 0 4.51172 0 9.96094C0 15.4004 4.52148 19.9219 9.96094 19.9219Z" fill="#000000" fill-opacity="0.85"/>
  <path d="M7.23633 14.1797C6.86523 14.1797 6.61133 13.9355 6.61133 13.5352L6.61133 7.29492L6.55273 7.29492L5.47852 8.08594C5.24414 8.26172 5.15625 8.27148 4.99023 8.27148C4.69727 8.27148 4.4043 8.00781 4.4043 7.66602C4.4043 7.40234 4.53125 7.22656 4.74609 7.07031L6.2793 6.02539C6.63086 5.78125 6.83594 5.68359 7.16797 5.68359C7.57812 5.68359 7.87109 5.98633 7.87109 6.40625L7.87109 13.5352C7.87109 13.9355 7.61719 14.1797 7.23633 14.1797ZM10.5078 14.0723C10.1562 14.0723 9.92188 13.8379 9.92188 13.4766C9.92188 13.2715 9.98047 13.1055 10.1465 12.9297L12.8027 9.81445C13.2715 9.24805 13.8086 8.68164 13.8086 8.02734C13.8086 7.28516 13.2812 6.78711 12.4707 6.78711C11.748 6.78711 11.25 7.1582 10.9863 7.91016C10.8594 8.21289 10.7031 8.37891 10.4102 8.37891C10.0684 8.37891 9.84375 8.14453 9.84375 7.77344C9.84375 7.65625 9.87305 7.53906 9.89258 7.41211C10.1562 6.38672 11.2207 5.625 12.4219 5.625C14.0039 5.625 15.0195 6.51367 15.0195 7.91992C15.0195 8.92578 14.4727 9.64844 13.7305 10.5176L11.7578 12.8125L11.7578 12.8809L14.6777 12.8809C15 12.8809 15.2441 13.0957 15.2441 13.4668C15.2441 13.8281 15 14.0723 14.6777 14.0723Z" fill="#ffffff"/>
 </g>
</svg>
