<?xml version="1.0" encoding="UTF-8"?>
<!--Generator: Apple Native CoreSVG 175.5-->
<!DOCTYPE svg
PUBLIC "-//W3C//DTD SVG 1.1//EN"
       "http://www.w3.org/Graphics/SVG/1.1/DTD/svg11.dtd">
<svg version="1.1" xmlns="http://www.w3.org/2000/svg" xmlns:xlink="http://www.w3.org/1999/xlink" width="19.9219" height="19.9316">
 <g>
  <rect height="19.9316" opacity="0" width="19.9219" x="0" y="0"/>
  <path d="M9.96094 19.9219C15.4102 19.9219 19.9219 15.4004 19.9219 9.96094C19.9219 4.51172 15.4004 0 9.95117 0C4.51172 0 0 4.51172 0 9.96094C0 15.4004 4.52148 19.9219 9.96094 19.9219ZM9.96094 18.2617C5.35156 18.2617 1.66992 14.5703 1.66992 9.96094C1.66992 5.35156 5.3418 1.66016 9.95117 1.66016C14.5605 1.66016 18.2617 5.35156 18.2617 9.96094C18.2617 14.5703 14.5703 18.2617 9.96094 18.2617Z" fill="#000000" fill-opacity="0.85"/>
  <path d="M7.30469 14.0527C7.67578 14.0527 7.91992 13.8086 7.91992 13.4277L7.91992 6.51367C7.91992 6.10352 7.63672 5.81055 7.23633 5.81055C6.91406 5.81055 6.71875 5.9082 6.37695 6.14258L4.89258 7.1582C4.6875 7.30469 4.56055 7.48047 4.56055 7.73438C4.56055 8.06641 4.84375 8.32031 5.12695 8.32031C5.2832 8.32031 5.37109 8.31055 5.5957 8.13477L6.64062 7.36328L6.69922 7.36328L6.69922 13.4277C6.69922 13.8086 6.94336 14.0527 7.30469 14.0527ZM10.4785 13.9453L14.5215 13.9453C14.834 13.9453 15.0684 13.7109 15.0684 13.3594C15.0684 12.998 14.834 12.793 14.5215 12.793L11.6797 12.793L11.6797 12.7246L13.6035 10.498C14.3164 9.6582 14.8535 8.95508 14.8535 7.97852C14.8535 6.62109 13.8672 5.75195 12.334 5.75195C11.1719 5.75195 10.1367 6.49414 9.88281 7.49023C9.86328 7.61719 9.83398 7.72461 9.83398 7.8418C9.83398 8.19336 10.0488 8.42773 10.3809 8.42773C10.6641 8.42773 10.8105 8.26172 10.9375 7.96875C11.1914 7.23633 11.6797 6.875 12.3828 6.875C13.1641 6.875 13.6816 7.36328 13.6816 8.08594C13.6816 8.7207 13.1641 9.26758 12.7051 9.81445L10.127 12.8418C9.9707 13.0078 9.91211 13.1738 9.91211 13.3691C9.91211 13.7207 10.1367 13.9453 10.4785 13.9453Z" fill="#000000" fill-opacity="0.85"/>
 </g>
</svg>
