<?xml version="1.0" encoding="UTF-8"?>
<!--Generator: Apple Native CoreSVG 175.5-->
<!DOCTYPE svg
PUBLIC "-//W3C//DTD SVG 1.1//EN"
       "http://www.w3.org/Graphics/SVG/1.1/DTD/svg11.dtd">
<svg version="1.1" xmlns="http://www.w3.org/2000/svg" xmlns:xlink="http://www.w3.org/1999/xlink" width="17.9785" height="17.998">
 <g>
  <rect height="17.998" opacity="0" width="17.9785" x="0" y="0"/>
  <path d="M3.06641 17.998L14.9121 17.998C16.9629 17.998 17.9785 16.9824 17.9785 14.9707L17.9785 3.04688C17.9785 1.03516 16.9629 0.0195312 14.9121 0.0195312L3.06641 0.0195312C1.02539 0.0195312 0 1.02539 0 3.04688L0 14.9707C0 16.9922 1.02539 17.998 3.06641 17.998Z" fill="#000000" fill-opacity="0.85"/>
  <path d="M6.26953 13.2129C5.89844 13.2129 5.64453 12.9688 5.64453 12.5684L5.64453 6.32812L5.58594 6.32812L4.52148 7.11914C4.28711 7.29492 4.18945 7.30469 4.02344 7.30469C3.73047 7.30469 3.44727 7.04102 3.44727 6.69922C3.44727 6.43555 3.56445 6.25977 3.7793 6.10352L5.3125 5.05859C5.67383 4.81445 5.86914 4.7168 6.20117 4.7168C6.62109 4.7168 6.9043 5.01953 6.9043 5.43945L6.9043 12.5684C6.9043 12.9688 6.65039 13.2129 6.26953 13.2129ZM9.55078 13.1055C9.18945 13.1055 8.95508 12.8711 8.95508 12.5098C8.95508 12.3047 9.02344 12.1387 9.17969 11.9629L11.8359 8.84766C12.3047 8.28125 12.8418 7.71484 12.8418 7.06055C12.8418 6.31836 12.3145 5.82031 11.5039 5.82031C10.7812 5.82031 10.2832 6.19141 10.0195 6.94336C9.89258 7.24609 9.73633 7.41211 9.44336 7.41211C9.10156 7.41211 8.87695 7.17773 8.87695 6.80664C8.87695 6.68945 8.90625 6.57227 8.92578 6.44531C9.18945 5.41992 10.2539 4.6582 11.4551 4.6582C13.0371 4.6582 14.0625 5.54688 14.0625 6.95312C14.0625 7.95898 13.5156 8.68164 12.7637 9.55078L10.791 11.8457L10.791 11.9141L13.7109 11.9141C14.0332 11.9141 14.2773 12.1289 14.2773 12.5C14.2773 12.8613 14.0332 13.1055 13.7109 13.1055Z" fill="#ffffff"/>
 </g>
</svg>
