<?xml version="1.0" encoding="UTF-8"?>
<!--Generator: Apple Native CoreSVG 175.5-->
<!DOCTYPE svg
PUBLIC "-//W3C//DTD SVG 1.1//EN"
       "http://www.w3.org/Graphics/SVG/1.1/DTD/svg11.dtd">
<svg version="1.1" xmlns="http://www.w3.org/2000/svg" xmlns:xlink="http://www.w3.org/1999/xlink" width="19.9219" height="19.9316">
 <g>
  <rect height="19.9316" opacity="0" width="19.9219" x="0" y="0"/>
  <path d="M9.96094 19.9219C15.4102 19.9219 19.9219 15.4004 19.9219 9.96094C19.9219 4.51172 15.4004 0 9.95117 0C4.51172 0 0 4.51172 0 9.96094C0 15.4004 4.52148 19.9219 9.96094 19.9219Z" fill="#000000" fill-opacity="0.85"/>
  <path d="M7.2168 14.1797C6.8457 14.1797 6.60156 13.9258 6.60156 13.5352L6.60156 7.28516L6.54297 7.28516L5.46875 8.07617C5.23438 8.26172 5.14648 8.27148 4.98047 8.27148C4.67773 8.27148 4.39453 8.00781 4.39453 7.66602C4.39453 7.40234 4.53125 7.2168 4.73633 7.07031L6.26953 6.02539C6.62109 5.78125 6.82617 5.68359 7.1582 5.68359C7.56836 5.68359 7.86133 5.98633 7.86133 6.40625L7.86133 13.5352C7.86133 13.9258 7.60742 14.1797 7.2168 14.1797ZM12.2852 14.3066C10.9082 14.3066 9.84375 13.4668 9.57031 12.5391C9.54102 12.4121 9.52148 12.3047 9.52148 12.168C9.52148 11.8164 9.77539 11.5625 10.1074 11.5625C10.3906 11.5625 10.5664 11.7188 10.6836 12.041C10.957 12.7441 11.4941 13.1348 12.2949 13.1348C13.2617 13.1348 13.9258 12.5488 13.9258 11.7676C13.9258 10.9473 13.3203 10.4102 12.3633 10.4102L11.7676 10.4102C11.4453 10.4102 11.2207 10.1562 11.2207 9.83398C11.2207 9.46289 11.4453 9.22852 11.7676 9.22852L12.3145 9.22852C13.1152 9.22852 13.6816 8.70117 13.6816 7.96875C13.6816 7.26562 13.1152 6.78711 12.3242 6.78711C11.543 6.78711 11.0547 7.17773 10.8398 7.88086C10.7324 8.20312 10.5762 8.35938 10.2734 8.35938C9.92188 8.35938 9.69727 8.10547 9.69727 7.74414C9.69727 7.61719 9.69727 7.50977 9.72656 7.38281C9.98047 6.39648 10.9961 5.61523 12.3535 5.61523C13.8672 5.61523 14.9219 6.51367 14.9219 7.80273C14.9219 8.75 14.2676 9.58984 13.4375 9.72656L13.4375 9.78516C14.4531 9.89258 15.1953 10.752 15.1953 11.8262C15.1953 13.2715 13.9941 14.3066 12.2852 14.3066Z" fill="#ffffff"/>
 </g>
</svg>
