<?xml version="1.0" encoding="UTF-8"?>
<!--Generator: Apple Native CoreSVG 175.5-->
<!DOCTYPE svg
PUBLIC "-//W3C//DTD SVG 1.1//EN"
       "http://www.w3.org/Graphics/SVG/1.1/DTD/svg11.dtd">
<svg version="1.1" xmlns="http://www.w3.org/2000/svg" xmlns:xlink="http://www.w3.org/1999/xlink" width="19.9219" height="19.9316">
 <g>
  <rect height="19.9316" opacity="0" width="19.9219" x="0" y="0"/>
  <path d="M9.96094 19.9219C15.4102 19.9219 19.9219 15.4004 19.9219 9.96094C19.9219 4.51172 15.4004 0 9.95117 0C4.51172 0 0 4.51172 0 9.96094C0 15.4004 4.52148 19.9219 9.96094 19.9219ZM9.96094 18.2617C5.35156 18.2617 1.66992 14.5703 1.66992 9.96094C1.66992 5.35156 5.3418 1.66016 9.95117 1.66016C14.5605 1.66016 18.2617 5.35156 18.2617 9.96094C18.2617 14.5703 14.5703 18.2617 9.96094 18.2617Z" fill="#000000" fill-opacity="0.85"/>
  <path d="M7.28516 14.0527C7.66602 14.0527 7.91016 13.8086 7.91016 13.4277L7.91016 6.51367C7.91016 6.10352 7.62695 5.81055 7.22656 5.81055C6.9043 5.81055 6.70898 5.9082 6.36719 6.14258L4.88281 7.1582C4.67773 7.30469 4.55078 7.48047 4.55078 7.73438C4.55078 8.06641 4.82422 8.32031 5.10742 8.32031C5.27344 8.32031 5.36133 8.31055 5.58594 8.13477L6.63086 7.36328L6.68945 7.36328L6.68945 13.4277C6.68945 13.8086 6.92383 14.0527 7.28516 14.0527ZM12.1973 14.1699C13.8574 14.1699 15.0195 13.1738 15.0195 11.7676C15.0195 10.7324 14.2969 9.89258 13.3105 9.79492L13.3105 9.73633C14.1211 9.59961 14.7559 8.78906 14.7559 7.87109C14.7559 6.62109 13.7305 5.75195 12.2656 5.75195C10.9473 5.75195 9.9707 6.50391 9.7168 7.46094C9.6875 7.58789 9.6875 7.68555 9.6875 7.8125C9.6875 8.16406 9.91211 8.4082 10.2441 8.4082C10.5371 8.4082 10.6934 8.25195 10.791 7.93945C11.0059 7.25586 11.4746 6.875 12.2363 6.875C13.0078 6.875 13.5547 7.34375 13.5547 8.02734C13.5547 8.74023 13.0078 9.25781 12.2266 9.25781L11.6992 9.25781C11.3867 9.25781 11.1719 9.48242 11.1719 9.83398C11.1719 10.1465 11.3867 10.3906 11.6992 10.3906L12.2754 10.3906C13.2031 10.3906 13.7988 10.918 13.7988 11.709C13.7988 12.4707 13.1445 13.0469 12.207 13.0469C11.4355 13.0469 10.9082 12.666 10.6445 11.9824C10.5273 11.6699 10.3613 11.5137 10.0879 11.5137C9.76562 11.5137 9.52148 11.7578 9.52148 12.0996C9.52148 12.2363 9.54102 12.334 9.57031 12.4609C9.83398 13.3594 10.8691 14.1699 12.1973 14.1699Z" fill="#000000" fill-opacity="0.85"/>
 </g>
</svg>
