<?xml version="1.0" encoding="UTF-8"?>
<!--Generator: Apple Native CoreSVG 175.5-->
<!DOCTYPE svg
PUBLIC "-//W3C//DTD SVG 1.1//EN"
       "http://www.w3.org/Graphics/SVG/1.1/DTD/svg11.dtd">
<svg version="1.1" xmlns="http://www.w3.org/2000/svg" xmlns:xlink="http://www.w3.org/1999/xlink" width="17.9785" height="17.998">
 <g>
  <rect height="17.998" opacity="0" width="17.9785" x="0" y="0"/>
  <path d="M3.06641 17.998L14.9121 17.998C16.9629 17.998 17.9785 16.9824 17.9785 14.9707L17.9785 3.04688C17.9785 1.03516 16.9629 0.0195312 14.9121 0.0195312L3.06641 0.0195312C1.02539 0.0195312 0 1.02539 0 3.04688L0 14.9707C0 16.9922 1.02539 17.998 3.06641 17.998ZM3.08594 16.4258C2.10938 16.4258 1.57227 15.9082 1.57227 14.8926L1.57227 3.125C1.57227 2.10938 2.10938 1.5918 3.08594 1.5918L14.8926 1.5918C15.8594 1.5918 16.4062 2.10938 16.4062 3.125L16.4062 14.8926C16.4062 15.9082 15.8594 16.4258 14.8926 16.4258Z" fill="#000000" fill-opacity="0.85"/>
  <path d="M6.33789 13.0859C6.70898 13.0859 6.95312 12.8418 6.95312 12.4609L6.95312 5.54688C6.95312 5.13672 6.66992 4.84375 6.26953 4.84375C5.94727 4.84375 5.75195 4.94141 5.41016 5.17578L3.92578 6.19141C3.7207 6.33789 3.59375 6.51367 3.59375 6.76758C3.59375 7.09961 3.87695 7.35352 4.16016 7.35352C4.31641 7.35352 4.4043 7.34375 4.62891 7.16797L5.67383 6.39648L5.73242 6.39648L5.73242 12.4609C5.73242 12.8418 5.97656 13.0859 6.33789 13.0859ZM11.25 13.2031C12.9004 13.2031 14.0625 12.207 14.0625 10.8008C14.0625 9.76562 13.3398 8.92578 12.3535 8.82812L12.3535 8.76953C13.1641 8.63281 13.7988 7.82227 13.7988 6.9043C13.7988 5.6543 12.7734 4.78516 11.3086 4.78516C9.99023 4.78516 9.01367 5.53711 8.75977 6.49414C8.73047 6.62109 8.73047 6.71875 8.73047 6.8457C8.73047 7.19727 8.95508 7.44141 9.28711 7.44141C9.58008 7.44141 9.73633 7.28516 9.83398 6.97266C10.0488 6.28906 10.5176 5.9082 11.2793 5.9082C12.0605 5.9082 12.5977 6.37695 12.5977 7.06055C12.5977 7.77344 12.0508 8.29102 11.2695 8.29102L10.7422 8.29102C10.4297 8.29102 10.2148 8.51562 10.2148 8.86719C10.2148 9.17969 10.4297 9.42383 10.7422 9.42383L11.3184 9.42383C12.2461 9.42383 12.8418 9.95117 12.8418 10.7422C12.8418 11.5039 12.1973 12.0801 11.2598 12.0801C10.4785 12.0801 9.95117 11.6992 9.6875 11.0156C9.57031 10.7031 9.41406 10.5469 9.13086 10.5469C8.80859 10.5469 8.56445 10.791 8.56445 11.1328C8.56445 11.2695 8.58398 11.3672 8.62305 11.4941C8.87695 12.3926 9.91211 13.2031 11.25 13.2031Z" fill="#000000" fill-opacity="0.85"/>
 </g>
</svg>
