<?xml version="1.0" encoding="UTF-8"?>
<!--Generator: Apple Native CoreSVG 175.5-->
<!DOCTYPE svg
PUBLIC "-//W3C//DTD SVG 1.1//EN"
       "http://www.w3.org/Graphics/SVG/1.1/DTD/svg11.dtd">
<svg version="1.1" xmlns="http://www.w3.org/2000/svg" xmlns:xlink="http://www.w3.org/1999/xlink" width="19.9219" height="19.9316">
 <g>
  <rect height="19.9316" opacity="0" width="19.9219" x="0" y="0"/>
  <path d="M9.96094 19.9219C15.4102 19.9219 19.9219 15.4004 19.9219 9.96094C19.9219 4.51172 15.4004 0 9.95117 0C4.51172 0 0 4.51172 0 9.96094C0 15.4004 4.52148 19.9219 9.96094 19.9219Z" fill="#000000" fill-opacity="0.85"/>
  <path d="M7.17773 14.1797C6.80664 14.1797 6.5625 13.9258 6.5625 13.5352L6.5625 7.28516L6.50391 7.28516L5.42969 8.07617C5.19531 8.26172 5.09766 8.27148 4.94141 8.27148C4.63867 8.27148 4.35547 8.00781 4.35547 7.66602C4.35547 7.40234 4.49219 7.2168 4.70703 7.07031L6.23047 6.02539C6.58203 5.78125 6.78711 5.68359 7.10938 5.68359C7.53906 5.68359 7.83203 5.98633 7.83203 6.40625L7.83203 13.5352C7.83203 13.9258 7.57812 14.1797 7.17773 14.1797ZM13.7891 14.2871C13.3984 14.2871 13.1836 13.9941 13.1836 13.6035L13.1836 12.4219L10.2441 12.4219C9.73633 12.4219 9.38477 12.0996 9.38477 11.5625C9.38477 11.2891 9.43359 11.0645 9.59961 10.752C10.2832 9.53125 11.2988 7.8125 12.1289 6.39648C12.4609 5.83984 12.8223 5.61523 13.4082 5.61523C14.0039 5.61523 14.4043 5.99609 14.4043 6.58203L14.4043 11.2891L14.9512 11.2891C15.293 11.2891 15.5273 11.5039 15.5273 11.8652C15.5273 12.2168 15.3027 12.4219 14.9512 12.4219L14.4043 12.4219L14.4043 13.6035C14.4043 14.0039 14.1992 14.2871 13.7891 14.2871ZM13.1836 11.2891L13.1836 6.98242L13.1348 6.98242C12.3242 8.34961 11.2988 10.1074 10.7031 11.25L10.7031 11.2891Z" fill="#ffffff"/>
 </g>
</svg>
