<?xml version="1.0" encoding="UTF-8"?>
<!--Generator: Apple Native CoreSVG 175.5-->
<!DOCTYPE svg
PUBLIC "-//W3C//DTD SVG 1.1//EN"
       "http://www.w3.org/Graphics/SVG/1.1/DTD/svg11.dtd">
<svg version="1.1" xmlns="http://www.w3.org/2000/svg" xmlns:xlink="http://www.w3.org/1999/xlink" width="17.9785" height="17.998">
 <g>
  <rect height="17.998" opacity="0" width="17.9785" x="0" y="0"/>
  <path d="M3.06641 17.998L14.9121 17.998C16.9629 17.998 17.9785 16.9824 17.9785 14.9707L17.9785 3.04688C17.9785 1.03516 16.9629 0.0195312 14.9121 0.0195312L3.06641 0.0195312C1.02539 0.0195312 0 1.02539 0 3.04688L0 14.9707C0 16.9922 1.02539 17.998 3.06641 17.998ZM3.08594 16.4258C2.10938 16.4258 1.57227 15.9082 1.57227 14.8926L1.57227 3.125C1.57227 2.10938 2.10938 1.5918 3.08594 1.5918L14.8926 1.5918C15.8594 1.5918 16.4062 2.10938 16.4062 3.125L16.4062 14.8926C16.4062 15.9082 15.8594 16.4258 14.8926 16.4258Z" fill="#000000" fill-opacity="0.85"/>
  <path d="M6.29883 13.0859C6.67969 13.0859 6.92383 12.8418 6.92383 12.4609L6.92383 5.54688C6.92383 5.13672 6.64062 4.84375 6.24023 4.84375C5.91797 4.84375 5.72266 4.94141 5.38086 5.17578L3.89648 6.19141C3.69141 6.33789 3.56445 6.51367 3.56445 6.76758C3.56445 7.09961 3.83789 7.35352 4.12109 7.35352C4.28711 7.35352 4.375 7.34375 4.59961 7.16797L5.64453 6.39648L5.70312 6.39648L5.70312 12.4609C5.70312 12.8418 5.9375 13.0859 6.29883 13.0859ZM12.7051 13.1836C13.0957 13.1836 13.3008 12.9102 13.3008 12.5293L13.3008 11.377L13.8379 11.377C14.1699 11.377 14.3848 11.1816 14.3848 10.8398C14.3848 10.4883 14.1699 10.2832 13.8379 10.2832L13.3008 10.2832L13.3008 5.71289C13.3008 5.14648 12.9102 4.78516 12.334 4.78516C11.7676 4.78516 11.4258 5 11.1133 5.53711C10.293 6.9043 9.30664 8.58398 8.65234 9.76562C8.49609 10.0684 8.4375 10.2832 8.4375 10.5469C8.4375 11.0645 8.7793 11.377 9.26758 11.377L12.1191 11.377L12.1191 12.5293C12.1191 12.9004 12.3242 13.1836 12.7051 13.1836ZM12.1191 10.2832L9.70703 10.2832L9.70703 10.2441C10.2832 9.14062 11.2891 7.42188 12.0703 6.10352L12.1191 6.10352Z" fill="#000000" fill-opacity="0.85"/>
 </g>
</svg>
