<?xml version="1.0" encoding="UTF-8"?>
<!--Generator: Apple Native CoreSVG 175.5-->
<!DOCTYPE svg
PUBLIC "-//W3C//DTD SVG 1.1//EN"
       "http://www.w3.org/Graphics/SVG/1.1/DTD/svg11.dtd">
<svg version="1.1" xmlns="http://www.w3.org/2000/svg" xmlns:xlink="http://www.w3.org/1999/xlink" width="17.9785" height="17.998">
 <g>
  <rect height="17.998" opacity="0" width="17.9785" x="0" y="0"/>
  <path d="M3.06641 17.998L14.9121 17.998C16.9629 17.998 17.9785 16.9824 17.9785 14.9707L17.9785 3.04688C17.9785 1.03516 16.9629 0.0195312 14.9121 0.0195312L3.06641 0.0195312C1.02539 0.0195312 0 1.02539 0 3.04688L0 14.9707C0 16.9922 1.02539 17.998 3.06641 17.998Z" fill="#000000" fill-opacity="0.85"/>
  <path d="M6.21094 13.2129C5.83984 13.2129 5.5957 12.959 5.5957 12.5684L5.5957 6.31836L5.53711 6.31836L4.46289 7.10938C4.22852 7.29492 4.14062 7.30469 3.97461 7.30469C3.67188 7.30469 3.38867 7.04102 3.38867 6.69922C3.38867 6.43555 3.52539 6.25 3.74023 6.10352L5.26367 5.05859C5.61523 4.81445 5.82031 4.7168 6.15234 4.7168C6.57227 4.7168 6.86523 5.01953 6.86523 5.43945L6.86523 12.5684C6.86523 12.959 6.61133 13.2129 6.21094 13.2129ZM12.8223 13.3203C12.4316 13.3203 12.2168 13.0273 12.2168 12.6367L12.2168 11.4551L9.27734 11.4551C8.7793 11.4551 8.41797 11.1328 8.41797 10.5957C8.41797 10.3223 8.47656 10.0977 8.64258 9.78516C9.31641 8.56445 10.332 6.8457 11.1719 5.42969C11.4941 4.87305 11.8555 4.64844 12.4414 4.64844C13.0371 4.64844 13.4375 5.0293 13.4375 5.61523L13.4375 10.3223L13.9941 10.3223C14.3359 10.3223 14.5605 10.5371 14.5605 10.8984C14.5605 11.25 14.3359 11.4551 13.9941 11.4551L13.4375 11.4551L13.4375 12.6367C13.4375 13.0371 13.2324 13.3203 12.8223 13.3203ZM12.2168 10.3223L12.2168 6.01562L12.168 6.01562C11.3574 7.38281 10.332 9.14062 9.73633 10.2832L9.73633 10.3223Z" fill="#ffffff"/>
 </g>
</svg>
