<?xml version="1.0" encoding="UTF-8"?>
<!--Generator: Apple Native CoreSVG 175.5-->
<!DOCTYPE svg
PUBLIC "-//W3C//DTD SVG 1.1//EN"
       "http://www.w3.org/Graphics/SVG/1.1/DTD/svg11.dtd">
<svg version="1.1" xmlns="http://www.w3.org/2000/svg" xmlns:xlink="http://www.w3.org/1999/xlink" width="19.9219" height="19.9316">
 <g>
  <rect height="19.9316" opacity="0" width="19.9219" x="0" y="0"/>
  <path d="M9.96094 19.9219C15.4102 19.9219 19.9219 15.4004 19.9219 9.96094C19.9219 4.51172 15.4004 0 9.95117 0C4.51172 0 0 4.51172 0 9.96094C0 15.4004 4.52148 19.9219 9.96094 19.9219ZM9.96094 18.2617C5.35156 18.2617 1.66992 14.5703 1.66992 9.96094C1.66992 5.35156 5.3418 1.66016 9.95117 1.66016C14.5605 1.66016 18.2617 5.35156 18.2617 9.96094C18.2617 14.5703 14.5703 18.2617 9.96094 18.2617Z" fill="#000000" fill-opacity="0.85"/>
  <path d="M7.17773 14.0527C7.54883 14.0527 7.79297 13.8086 7.79297 13.4277L7.79297 6.51367C7.79297 6.10352 7.51953 5.81055 7.10938 5.81055C6.78711 5.81055 6.60156 5.9082 6.25 6.14258L4.76562 7.1582C4.56055 7.30469 4.44336 7.48047 4.44336 7.73438C4.44336 8.06641 4.7168 8.32031 5 8.32031C5.15625 8.32031 5.25391 8.31055 5.47852 8.13477L6.51367 7.36328L6.57227 7.36328L6.57227 13.4277C6.57227 13.8086 6.81641 14.0527 7.17773 14.0527ZM12.2754 14.1699C13.9941 14.1699 15.1367 13.1152 15.1367 11.3965C15.1367 9.89258 14.1211 8.79883 12.6074 8.79883C11.9629 8.79883 11.2598 9.12109 10.9668 9.56055L10.9277 9.56055L11.1133 7.05078L14.3359 7.05078C14.6191 7.05078 14.8242 6.82617 14.8242 6.50391C14.8242 6.19141 14.6289 5.95703 14.3359 5.95703L10.9863 5.95703C10.4688 5.95703 10.127 6.26953 10.0977 6.78711L9.85352 9.83398C9.82422 10.3418 10.0977 10.6738 10.5469 10.6738C10.8496 10.6738 11.0254 10.5957 11.3379 10.3418C11.7383 9.99023 12.0508 9.84375 12.4805 9.84375C13.3398 9.84375 13.9258 10.5273 13.9258 11.4258C13.9258 12.4512 13.2812 13.0664 12.334 13.0664C11.6699 13.0664 11.1035 12.7148 10.8203 12.1289C10.6738 11.8457 10.4785 11.709 10.2539 11.709C9.93164 11.709 9.70703 11.9531 9.70703 12.2754C9.70703 12.4316 9.73633 12.5781 9.79492 12.7148C10.0879 13.5254 11.0449 14.1699 12.2754 14.1699Z" fill="#000000" fill-opacity="0.85"/>
 </g>
</svg>
