<?xml version="1.0" encoding="UTF-8"?>
<!--Generator: Apple Native CoreSVG 175.5-->
<!DOCTYPE svg
PUBLIC "-//W3C//DTD SVG 1.1//EN"
       "http://www.w3.org/Graphics/SVG/1.1/DTD/svg11.dtd">
<svg version="1.1" xmlns="http://www.w3.org/2000/svg" xmlns:xlink="http://www.w3.org/1999/xlink" width="17.9785" height="17.998">
 <g>
  <rect height="17.998" opacity="0" width="17.9785" x="0" y="0"/>
  <path d="M3.06641 17.998L14.9121 17.998C16.9629 17.998 17.9785 16.9824 17.9785 14.9707L17.9785 3.04688C17.9785 1.03516 16.9629 0.0195312 14.9121 0.0195312L3.06641 0.0195312C1.02539 0.0195312 0 1.02539 0 3.04688L0 14.9707C0 16.9922 1.02539 17.998 3.06641 17.998Z" fill="#000000" fill-opacity="0.85"/>
  <path d="M6.26953 13.2129C5.88867 13.2129 5.63477 12.959 5.63477 12.5684L5.63477 6.31836L5.58594 6.31836L4.52148 7.10938C4.28711 7.29492 4.17969 7.30469 4.02344 7.30469C3.73047 7.30469 3.44727 7.04102 3.44727 6.69922C3.44727 6.43555 3.56445 6.25 3.78906 6.10352L5.3125 5.05859C5.67383 4.81445 5.85938 4.70703 6.19141 4.70703C6.62109 4.70703 6.9043 5.01953 6.9043 5.43945L6.9043 12.5684C6.9043 12.959 6.66016 13.2129 6.26953 13.2129ZM11.5234 13.3398C10.2637 13.3398 9.26758 12.6758 8.96484 11.8359C8.91602 11.6992 8.87695 11.543 8.87695 11.377C8.87695 11.0449 9.10156 10.791 9.44336 10.791C9.6875 10.791 9.87305 10.9375 10.0293 11.2305C10.3223 11.8262 10.8984 12.1875 11.582 12.1875C12.5586 12.1875 13.2227 11.5625 13.2227 10.5078C13.2227 9.58008 12.6172 8.87695 11.7383 8.87695C11.2988 8.87695 10.9863 9.02344 10.5664 9.38477C10.2441 9.64844 10.0586 9.72656 9.74609 9.72656C9.27734 9.72656 8.99414 9.38477 9.0332 8.85742L9.27734 5.72266C9.30664 5.18555 9.6582 4.86328 10.1953 4.86328L13.6621 4.86328C13.9551 4.86328 14.1504 5.10742 14.1504 5.42969C14.1504 5.76172 13.9453 5.99609 13.6621 5.99609L10.332 5.99609L10.1367 8.57422L10.1758 8.57422C10.4785 8.125 11.2012 7.79297 11.875 7.79297C13.4277 7.79297 14.4727 8.92578 14.4727 10.4785C14.4727 12.2461 13.3008 13.3398 11.5234 13.3398Z" fill="#ffffff"/>
 </g>
</svg>
