<?xml version="1.0" encoding="UTF-8"?>
<!--Generator: Apple Native CoreSVG 175.5-->
<!DOCTYPE svg
PUBLIC "-//W3C//DTD SVG 1.1//EN"
       "http://www.w3.org/Graphics/SVG/1.1/DTD/svg11.dtd">
<svg version="1.1" xmlns="http://www.w3.org/2000/svg" xmlns:xlink="http://www.w3.org/1999/xlink" width="17.9785" height="17.998">
 <g>
  <rect height="17.998" opacity="0" width="17.9785" x="0" y="0"/>
  <path d="M3.06641 17.998L14.9121 17.998C16.9629 17.998 17.9785 16.9824 17.9785 14.9707L17.9785 3.04688C17.9785 1.03516 16.9629 0.0195312 14.9121 0.0195312L3.06641 0.0195312C1.02539 0.0195312 0 1.02539 0 3.04688L0 14.9707C0 16.9922 1.02539 17.998 3.06641 17.998ZM3.08594 16.4258C2.10938 16.4258 1.57227 15.9082 1.57227 14.8926L1.57227 3.125C1.57227 2.10938 2.10938 1.5918 3.08594 1.5918L14.8926 1.5918C15.8594 1.5918 16.4062 2.10938 16.4062 3.125L16.4062 14.8926C16.4062 15.9082 15.8594 16.4258 14.8926 16.4258Z" fill="#000000" fill-opacity="0.85"/>
  <path d="M6.07422 13.0859C6.45508 13.0859 6.69922 12.8418 6.69922 12.4609L6.69922 5.54688C6.69922 5.13672 6.41602 4.84375 6.00586 4.84375C5.69336 4.84375 5.49805 4.94141 5.15625 5.17578L3.67188 6.19141C3.4668 6.33789 3.33984 6.51367 3.33984 6.76758C3.33984 7.09961 3.61328 7.35352 3.89648 7.35352C4.05273 7.35352 4.15039 7.34375 4.375 7.16797L5.41992 6.39648L5.47852 6.39648L5.47852 12.4609C5.47852 12.8418 5.71289 13.0859 6.07422 13.0859ZM11.416 13.2129C12.998 13.2129 14.1309 12.168 14.1309 10.3809C14.1309 8.70117 12.9883 7.77344 11.7188 7.77344C10.6738 7.77344 10.0195 8.35938 9.77539 9.00391L9.70703 9.00391C9.70703 8.97461 9.70703 8.95508 9.70703 8.91602C9.70703 7.07031 10.4492 5.9082 11.5527 5.9082C12.1191 5.9082 12.5098 6.18164 12.7539 6.5625C12.9199 6.80664 13.0762 6.92383 13.3398 6.92383C13.6133 6.92383 13.8184 6.70898 13.8184 6.38672C13.8184 6.25977 13.7988 6.14258 13.75 6.01562C13.4961 5.36133 12.7148 4.78516 11.6016 4.78516C9.7168 4.78516 8.56445 6.25 8.56445 9.21875C8.56445 10.4102 8.75 11.2793 9.08203 11.8945C9.58008 12.832 10.4199 13.2129 11.416 13.2129ZM11.3574 12.1387C10.4492 12.1387 9.81445 11.4258 9.81445 10.4199C9.81445 9.46289 10.4492 8.7793 11.3672 8.7793C12.2852 8.7793 12.9004 9.45312 12.9004 10.4297C12.9004 11.4746 12.3047 12.1387 11.3574 12.1387Z" fill="#000000" fill-opacity="0.85"/>
 </g>
</svg>
