<?xml version="1.0" encoding="UTF-8"?>
<!--Generator: Apple Native CoreSVG 175.5-->
<!DOCTYPE svg
PUBLIC "-//W3C//DTD SVG 1.1//EN"
       "http://www.w3.org/Graphics/SVG/1.1/DTD/svg11.dtd">
<svg version="1.1" xmlns="http://www.w3.org/2000/svg" xmlns:xlink="http://www.w3.org/1999/xlink" width="19.9219" height="19.9316">
 <g>
  <rect height="19.9316" opacity="0" width="19.9219" x="0" y="0"/>
  <path d="M9.96094 19.9219C15.4102 19.9219 19.9219 15.4004 19.9219 9.96094C19.9219 4.51172 15.4004 0 9.95117 0C4.51172 0 0 4.51172 0 9.96094C0 15.4004 4.52148 19.9219 9.96094 19.9219ZM9.96094 18.2617C5.35156 18.2617 1.66992 14.5703 1.66992 9.96094C1.66992 5.35156 5.3418 1.66016 9.95117 1.66016C14.5605 1.66016 18.2617 5.35156 18.2617 9.96094C18.2617 14.5703 14.5703 18.2617 9.96094 18.2617Z" fill="#000000" fill-opacity="0.85"/>
  <path d="M7.45117 14.0527C7.82227 14.0527 8.06641 13.8086 8.06641 13.4277L8.06641 6.51367C8.06641 6.10352 7.7832 5.81055 7.38281 5.81055C7.06055 5.81055 6.86523 5.9082 6.52344 6.14258L5.03906 7.1582C4.83398 7.30469 4.7168 7.48047 4.7168 7.73438C4.7168 8.06641 4.99023 8.32031 5.27344 8.32031C5.42969 8.32031 5.51758 8.31055 5.74219 8.13477L6.78711 7.36328L6.8457 7.36328L6.8457 13.4277C6.8457 13.8086 7.08984 14.0527 7.45117 14.0527ZM11.2012 14.0625C11.4648 14.0625 11.6504 13.916 11.8262 13.584L14.873 7.49023C15.0195 7.17773 15.0586 7.00195 15.0586 6.79688C15.0586 6.31836 14.7168 5.94727 14.1895 5.94727L10.2441 5.94727C9.91211 5.94727 9.6875 6.17188 9.6875 6.50391C9.6875 6.82617 9.91211 7.04102 10.2441 7.04102L13.6816 7.04102L13.6816 7.11914L10.6543 12.9785C10.5664 13.125 10.5469 13.2422 10.5469 13.4277C10.5469 13.7988 10.8301 14.0625 11.2012 14.0625Z" fill="#000000" fill-opacity="0.85"/>
 </g>
</svg>
