<?xml version="1.0" encoding="UTF-8"?>
<!--Generator: Apple Native CoreSVG 175.5-->
<!DOCTYPE svg
PUBLIC "-//W3C//DTD SVG 1.1//EN"
       "http://www.w3.org/Graphics/SVG/1.1/DTD/svg11.dtd">
<svg version="1.1" xmlns="http://www.w3.org/2000/svg" xmlns:xlink="http://www.w3.org/1999/xlink" width="17.9785" height="17.998">
 <g>
  <rect height="17.998" opacity="0" width="17.9785" x="0" y="0"/>
  <path d="M3.06641 17.998L14.9121 17.998C16.9629 17.998 17.9785 16.9824 17.9785 14.9707L17.9785 3.04688C17.9785 1.03516 16.9629 0.0195312 14.9121 0.0195312L3.06641 0.0195312C1.02539 0.0195312 0 1.02539 0 3.04688L0 14.9707C0 16.9922 1.02539 17.998 3.06641 17.998Z" fill="#000000" fill-opacity="0.85"/>
  <path d="M6.41602 13.2129C6.04492 13.2129 5.79102 12.959 5.79102 12.5684L5.79102 6.31836L5.73242 6.31836L4.66797 7.11914C4.43359 7.29492 4.33594 7.30469 4.16992 7.30469C3.87695 7.30469 3.59375 7.04102 3.59375 6.69922C3.59375 6.43555 3.7207 6.25 3.92578 6.10352L5.45898 5.05859C5.82031 4.81445 6.01562 4.7168 6.34766 4.7168C6.77734 4.7168 7.06055 5.01953 7.06055 5.43945L7.06055 12.5684C7.06055 12.959 6.80664 13.2129 6.41602 13.2129ZM10.2832 13.2227C9.90234 13.2227 9.60938 12.9492 9.60938 12.5684C9.60938 12.373 9.62891 12.2559 9.7168 12.0996L12.8418 6.07422L12.8418 5.98633L9.30664 5.98633C8.95508 5.98633 8.7207 5.76172 8.7207 5.42969C8.7207 5.08789 8.95508 4.85352 9.30664 4.85352L13.3691 4.85352C13.916 4.85352 14.2676 5.24414 14.2676 5.73242C14.2676 5.94727 14.2285 6.13281 14.0723 6.45508L10.9375 12.7344C10.752 13.0762 10.5566 13.2227 10.2832 13.2227Z" fill="#ffffff"/>
 </g>
</svg>
