<?xml version="1.0" encoding="UTF-8"?>
<!--Generator: Apple Native CoreSVG 175.5-->
<!DOCTYPE svg
PUBLIC "-//W3C//DTD SVG 1.1//EN"
       "http://www.w3.org/Graphics/SVG/1.1/DTD/svg11.dtd">
<svg version="1.1" xmlns="http://www.w3.org/2000/svg" xmlns:xlink="http://www.w3.org/1999/xlink" width="17.9785" height="17.998">
 <g>
  <rect height="17.998" opacity="0" width="17.9785" x="0" y="0"/>
  <path d="M3.06641 17.998L14.9121 17.998C16.9629 17.998 17.9785 16.9824 17.9785 14.9707L17.9785 3.04688C17.9785 1.03516 16.9629 0.0195312 14.9121 0.0195312L3.06641 0.0195312C1.02539 0.0195312 0 1.02539 0 3.04688L0 14.9707C0 16.9922 1.02539 17.998 3.06641 17.998ZM3.08594 16.4258C2.10938 16.4258 1.57227 15.9082 1.57227 14.8926L1.57227 3.125C1.57227 2.10938 2.10938 1.5918 3.08594 1.5918L14.8926 1.5918C15.8594 1.5918 16.4062 2.10938 16.4062 3.125L16.4062 14.8926C16.4062 15.9082 15.8594 16.4258 14.8926 16.4258Z" fill="#000000" fill-opacity="0.85"/>
  <path d="M6.49414 13.0859C6.86523 13.0859 7.10938 12.8418 7.10938 12.4609L7.10938 5.54688C7.10938 5.13672 6.83594 4.84375 6.42578 4.84375C6.10352 4.84375 5.91797 4.94141 5.56641 5.17578L4.08203 6.19141C3.87695 6.33789 3.75977 6.51367 3.75977 6.76758C3.75977 7.09961 4.0332 7.35352 4.31641 7.35352C4.47266 7.35352 4.57031 7.34375 4.79492 7.16797L5.83008 6.39648L5.88867 6.39648L5.88867 12.4609C5.88867 12.8418 6.13281 13.0859 6.49414 13.0859ZM10.2441 13.0957C10.5078 13.0957 10.6934 12.9492 10.8691 12.6172L13.916 6.52344C14.0625 6.21094 14.1016 6.03516 14.1016 5.83008C14.1016 5.35156 13.7598 4.98047 13.2324 4.98047L9.29688 4.98047C8.95508 4.98047 8.73047 5.20508 8.73047 5.53711C8.73047 5.85938 8.95508 6.07422 9.29688 6.07422L12.7246 6.07422L12.7246 6.15234L9.69727 12.0117C9.60938 12.1582 9.58984 12.2754 9.58984 12.4609C9.58984 12.832 9.87305 13.0957 10.2441 13.0957Z" fill="#000000" fill-opacity="0.85"/>
 </g>
</svg>
