<?xml version="1.0" encoding="UTF-8"?>
<!--Generator: Apple Native CoreSVG 175.5-->
<!DOCTYPE svg
PUBLIC "-//W3C//DTD SVG 1.1//EN"
       "http://www.w3.org/Graphics/SVG/1.1/DTD/svg11.dtd">
<svg version="1.1" xmlns="http://www.w3.org/2000/svg" xmlns:xlink="http://www.w3.org/1999/xlink" width="19.9219" height="19.9316">
 <g>
  <rect height="19.9316" opacity="0" width="19.9219" x="0" y="0"/>
  <path d="M9.96094 19.9219C15.4102 19.9219 19.9219 15.4004 19.9219 9.96094C19.9219 4.51172 15.4004 0 9.95117 0C4.51172 0 0 4.51172 0 9.96094C0 15.4004 4.52148 19.9219 9.96094 19.9219Z" fill="#000000" fill-opacity="0.85"/>
  <path d="M7.08008 14.1797C6.70898 14.1797 6.45508 13.9258 6.45508 13.5352L6.45508 7.28516L6.39648 7.28516L5.33203 8.07617C5.09766 8.26172 5 8.27148 4.83398 8.27148C4.54102 8.27148 4.25781 8.00781 4.25781 7.66602C4.25781 7.40234 4.38477 7.2168 4.59961 7.07031L6.12305 6.02539C6.48438 5.78125 6.67969 5.68359 7.01172 5.68359C7.44141 5.68359 7.72461 5.98633 7.72461 6.40625L7.72461 13.5352C7.72461 13.9258 7.4707 14.1797 7.08008 14.1797ZM12.5488 14.3066C10.8105 14.3066 9.63867 13.3203 9.63867 11.8457C9.63867 10.8203 10.2637 9.9707 11.3574 9.74609L11.3574 9.6875C10.4199 9.41406 9.94141 8.71094 9.94141 7.83203C9.94141 6.52344 11.0352 5.61523 12.5684 5.61523C14.1113 5.61523 15.2051 6.52344 15.2051 7.83203C15.2051 8.71094 14.7168 9.43359 13.7891 9.6875L13.7891 9.74609C14.873 9.9707 15.5078 10.8105 15.5078 11.8359C15.5078 13.3008 14.3066 14.3066 12.5488 14.3066ZM12.5781 13.252C13.5254 13.252 14.2188 12.6367 14.2188 11.7578C14.2188 10.8789 13.5449 10.2539 12.5781 10.2539C11.6309 10.2539 10.9375 10.8887 10.9375 11.7578C10.9375 12.6367 11.6309 13.252 12.5781 13.252ZM12.5684 9.28711C13.3594 9.28711 13.916 8.7207 13.916 7.95898C13.916 7.19727 13.3691 6.66992 12.5684 6.66992C11.7871 6.66992 11.2305 7.19727 11.2305 7.95898C11.2305 8.7207 11.7871 9.28711 12.5684 9.28711Z" fill="#ffffff"/>
 </g>
</svg>
