<?xml version="1.0" encoding="UTF-8"?>
<!--Generator: Apple Native CoreSVG 175.5-->
<!DOCTYPE svg
PUBLIC "-//W3C//DTD SVG 1.1//EN"
       "http://www.w3.org/Graphics/SVG/1.1/DTD/svg11.dtd">
<svg version="1.1" xmlns="http://www.w3.org/2000/svg" xmlns:xlink="http://www.w3.org/1999/xlink" width="17.9785" height="17.998">
 <g>
  <rect height="17.998" opacity="0" width="17.9785" x="0" y="0"/>
  <path d="M3.06641 17.998L14.9121 17.998C16.9629 17.998 17.9785 16.9824 17.9785 14.9707L17.9785 3.04688C17.9785 1.03516 16.9629 0.0195312 14.9121 0.0195312L3.06641 0.0195312C1.02539 0.0195312 0 1.02539 0 3.04688L0 14.9707C0 16.9922 1.02539 17.998 3.06641 17.998Z" fill="#000000" fill-opacity="0.85"/>
  <path d="M6.11328 13.2129C5.74219 13.2129 5.48828 12.959 5.48828 12.5684L5.48828 6.31836L5.43945 6.31836L4.36523 7.10938C4.13086 7.29492 4.0332 7.30469 3.86719 7.30469C3.57422 7.30469 3.29102 7.04102 3.29102 6.69922C3.29102 6.43555 3.41797 6.25 3.64258 6.10352L5.16602 5.05859C5.51758 4.81445 5.71289 4.7168 6.04492 4.7168C6.47461 4.7168 6.75781 5.01953 6.75781 5.43945L6.75781 12.5684C6.75781 12.959 6.51367 13.2129 6.11328 13.2129ZM11.582 13.3398C9.84375 13.3398 8.67188 12.3535 8.67188 10.8789C8.67188 9.85352 9.29688 9.00391 10.3906 8.7793L10.3906 8.7207C9.45312 8.44727 8.97461 7.74414 8.97461 6.86523C8.97461 5.55664 10.0684 4.64844 11.6016 4.64844C13.1445 4.64844 14.2383 5.55664 14.2383 6.86523C14.2383 7.74414 13.75 8.4668 12.8223 8.7207L12.8223 8.7793C13.9062 9.00391 14.541 9.84375 14.541 10.8691C14.541 12.334 13.3398 13.3398 11.582 13.3398ZM11.6113 12.2852C12.5684 12.2852 13.2617 11.6699 13.2617 10.791C13.2617 9.91211 12.5879 9.28711 11.6113 9.28711C10.6641 9.28711 9.9707 9.92188 9.9707 10.791C9.9707 11.6699 10.6641 12.2852 11.6113 12.2852ZM11.6016 8.32031C12.3926 8.32031 12.9492 7.75391 12.9492 6.99219C12.9492 6.23047 12.4023 5.70312 11.6016 5.70312C10.8203 5.70312 10.2734 6.23047 10.2734 6.99219C10.2734 7.75391 10.8203 8.32031 11.6016 8.32031Z" fill="#ffffff"/>
 </g>
</svg>
