<?xml version="1.0" encoding="UTF-8"?>
<!--Generator: Apple Native CoreSVG 175.5-->
<!DOCTYPE svg
PUBLIC "-//W3C//DTD SVG 1.1//EN"
       "http://www.w3.org/Graphics/SVG/1.1/DTD/svg11.dtd">
<svg version="1.1" xmlns="http://www.w3.org/2000/svg" xmlns:xlink="http://www.w3.org/1999/xlink" width="19.9219" height="19.9316">
 <g>
  <rect height="19.9316" opacity="0" width="19.9219" x="0" y="0"/>
  <path d="M9.96094 19.9219C15.4102 19.9219 19.9219 15.4004 19.9219 9.96094C19.9219 4.51172 15.4004 0 9.95117 0C4.51172 0 0 4.51172 0 9.96094C0 15.4004 4.52148 19.9219 9.96094 19.9219Z" fill="#000000" fill-opacity="0.85"/>
  <path d="M6.92383 14.1797C6.55273 14.1797 6.29883 13.9258 6.29883 13.5352L6.29883 7.28516L6.24023 7.28516L5.17578 8.07617C4.93164 8.26172 4.84375 8.27148 4.67773 8.27148C4.38477 8.27148 4.10156 8.00781 4.10156 7.66602C4.10156 7.40234 4.22852 7.2168 4.43359 7.07031L5.9668 6.02539C6.32812 5.78125 6.52344 5.68359 6.85547 5.68359C7.26562 5.68359 7.55859 5.98633 7.55859 6.40625L7.55859 13.5352C7.55859 13.9258 7.31445 14.1797 6.92383 14.1797ZM12.4414 14.3066C11.0547 14.3066 10.2246 13.5156 10.0684 12.959C10.0293 12.8418 10 12.7051 10 12.5977C10 12.2461 10.2051 12.002 10.5273 12.002C10.791 12.002 10.9863 12.1094 11.1523 12.3926C11.3867 12.8418 11.8457 13.1348 12.4219 13.1348C13.5742 13.1348 14.3555 11.9531 14.3359 9.95117L14.2676 9.95117C14.0039 10.6348 13.3496 11.2305 12.2461 11.2305C10.9375 11.2305 9.75586 10.2637 9.75586 8.53516C9.75586 6.75781 10.8594 5.61523 12.5586 5.61523C14.4434 5.61523 15.5371 7.04102 15.5371 9.67773C15.5371 12.7148 14.4531 14.3066 12.4414 14.3066ZM12.627 10.1855C13.5742 10.1855 14.2188 9.47266 14.2188 8.48633C14.2188 7.45117 13.5547 6.71875 12.6367 6.71875C11.6602 6.71875 11.0352 7.41211 11.0352 8.4668C11.0352 9.47266 11.6699 10.1855 12.627 10.1855Z" fill="#ffffff"/>
 </g>
</svg>
