<?xml version="1.0" encoding="UTF-8"?>
<!--Generator: Apple Native CoreSVG 175.5-->
<!DOCTYPE svg
PUBLIC "-//W3C//DTD SVG 1.1//EN"
       "http://www.w3.org/Graphics/SVG/1.1/DTD/svg11.dtd">
<svg version="1.1" xmlns="http://www.w3.org/2000/svg" xmlns:xlink="http://www.w3.org/1999/xlink" width="19.9219" height="19.9316">
 <g>
  <rect height="19.9316" opacity="0" width="19.9219" x="0" y="0"/>
  <path d="M9.96094 19.9219C15.4102 19.9219 19.9219 15.4004 19.9219 9.96094C19.9219 4.51172 15.4004 0 9.95117 0C4.51172 0 0 4.51172 0 9.96094C0 15.4004 4.52148 19.9219 9.96094 19.9219Z" fill="#000000" fill-opacity="0.85"/>
  <path d="M7.66602 14.5312C7.2168 14.5312 6.95312 14.2773 6.95312 13.8672C6.95312 13.6621 7.04102 13.457 7.2168 13.2617L10.4395 9.81445C11.0254 9.18945 11.6504 8.57422 11.6504 7.8418C11.6504 7.01172 11.0156 6.45508 10.0586 6.45508C9.08203 6.45508 8.55469 7.09961 8.28125 7.70508C8.11523 7.98828 7.92969 8.21289 7.56836 8.21289C7.17773 8.21289 6.9043 7.95898 6.9043 7.56836C6.9043 7.43164 6.92383 7.31445 6.97266 7.1582C7.29492 6.03516 8.56445 5.16602 9.99023 5.16602C11.8555 5.16602 13.0859 6.19141 13.0859 7.71484C13.0859 8.83789 12.4609 9.63867 11.5625 10.5859L9.18945 13.1348L9.18945 13.2031L12.8516 13.2031C13.2422 13.2031 13.5254 13.4473 13.5254 13.8672C13.5254 14.2773 13.2422 14.5312 12.8516 14.5312Z" fill="#ffffff"/>
 </g>
</svg>
