<?xml version="1.0" encoding="UTF-8"?>
<!--Generator: Apple Native CoreSVG 175.5-->
<!DOCTYPE svg
PUBLIC "-//W3C//DTD SVG 1.1//EN"
       "http://www.w3.org/Graphics/SVG/1.1/DTD/svg11.dtd">
<svg version="1.1" xmlns="http://www.w3.org/2000/svg" xmlns:xlink="http://www.w3.org/1999/xlink" width="17.9785" height="17.998">
 <g>
  <rect height="17.998" opacity="0" width="17.9785" x="0" y="0"/>
  <path d="M3.06641 17.998L14.9121 17.998C16.9629 17.998 17.9785 16.9824 17.9785 14.9707L17.9785 3.04688C17.9785 1.03516 16.9629 0.0195312 14.9121 0.0195312L3.06641 0.0195312C1.02539 0.0195312 0 1.02539 0 3.04688L0 14.9707C0 16.9922 1.02539 17.998 3.06641 17.998Z" fill="#000000" fill-opacity="0.85"/>
  <path d="M3.82812 13.1055C3.4668 13.1055 3.23242 12.8711 3.23242 12.5098C3.23242 12.3047 3.31055 12.1289 3.45703 11.9629L6.11328 8.83789C6.5918 8.28125 7.11914 7.71484 7.11914 7.06055C7.11914 6.31836 6.60156 5.82031 5.78125 5.82031C5.06836 5.82031 4.56055 6.18164 4.29688 6.94336C4.16992 7.24609 4.01367 7.41211 3.7207 7.41211C3.37891 7.41211 3.16406 7.16797 3.16406 6.80664C3.16406 6.68945 3.18359 6.57227 3.20312 6.44531C3.4668 5.41992 4.54102 4.64844 5.73242 4.64844C7.31445 4.64844 8.34961 5.54688 8.34961 6.95312C8.34961 7.95898 7.79297 8.68164 7.04102 9.55078L5.07812 11.8359L5.07812 11.9141L7.98828 11.9141C8.31055 11.9141 8.55469 12.1191 8.55469 12.5C8.55469 12.8613 8.31055 13.1055 7.98828 13.1055ZM12.3535 13.3398C10.6152 13.3398 9.47266 11.6797 9.47266 8.99414C9.47266 6.30859 10.6152 4.64844 12.3535 4.64844C14.0918 4.64844 15.2344 6.30859 15.2344 8.99414C15.2344 11.6797 14.0918 13.3398 12.3535 13.3398ZM12.3535 12.1094C13.3203 12.1094 13.9062 10.9277 13.9062 8.99414C13.9062 7.06055 13.3105 5.87891 12.3535 5.87891C11.3965 5.87891 10.8105 7.06055 10.8105 8.99414C10.8105 10.9277 11.3965 12.1094 12.3535 12.1094Z" fill="#ffffff"/>
 </g>
</svg>
