<?xml version="1.0" encoding="UTF-8"?>
<!--Generator: Apple Native CoreSVG 175.5-->
<!DOCTYPE svg
PUBLIC "-//W3C//DTD SVG 1.1//EN"
       "http://www.w3.org/Graphics/SVG/1.1/DTD/svg11.dtd">
<svg version="1.1" xmlns="http://www.w3.org/2000/svg" xmlns:xlink="http://www.w3.org/1999/xlink" width="19.9219" height="19.9316">
 <g>
  <rect height="19.9316" opacity="0" width="19.9219" x="0" y="0"/>
  <path d="M9.96094 19.9219C15.4102 19.9219 19.9219 15.4004 19.9219 9.96094C19.9219 4.51172 15.4004 0 9.95117 0C4.51172 0 0 4.51172 0 9.96094C0 15.4004 4.52148 19.9219 9.96094 19.9219Z" fill="#000000" fill-opacity="0.85"/>
  <path d="M5.42969 14.0723C5.06836 14.0723 4.83398 13.8379 4.83398 13.4766C4.83398 13.2715 4.90234 13.1055 5.05859 12.9297L7.71484 9.81445C8.19336 9.24805 8.7207 8.68164 8.7207 8.02734C8.7207 7.28516 8.20312 6.78711 7.38281 6.78711C6.66016 6.78711 6.16211 7.1582 5.89844 7.91016C5.77148 8.21289 5.61523 8.37891 5.32227 8.37891C4.98047 8.37891 4.76562 8.14453 4.76562 7.77344C4.76562 7.65625 4.78516 7.53906 4.80469 7.41211C5.06836 6.38672 6.13281 5.625 7.33398 5.625C8.91602 5.625 9.94141 6.51367 9.94141 7.91992C9.94141 8.92578 9.39453 9.64844 8.64258 10.5176L6.67969 12.8125L6.67969 12.8809L9.58984 12.8809C9.91211 12.8809 10.1562 13.0957 10.1562 13.4668C10.1562 13.8281 9.91211 14.0723 9.58984 14.0723ZM14.1992 14.1797C13.8184 14.1797 13.5742 13.9355 13.5742 13.5352L13.5742 7.29492L13.5156 7.29492L12.4414 8.08594C12.2168 8.26172 12.1094 8.27148 11.9531 8.27148C11.6602 8.27148 11.377 8.00781 11.377 7.66602C11.377 7.40234 11.5039 7.22656 11.7188 7.07031L13.2422 6.02539C13.5938 5.78125 13.7988 5.68359 14.1211 5.68359C14.5508 5.68359 14.8438 5.98633 14.8438 6.40625L14.8438 13.5352C14.8438 13.9355 14.5898 14.1797 14.1992 14.1797Z" fill="#ffffff"/>
 </g>
</svg>
