<?xml version="1.0" encoding="UTF-8"?>
<!--Generator: Apple Native CoreSVG 175.5-->
<!DOCTYPE svg
PUBLIC "-//W3C//DTD SVG 1.1//EN"
       "http://www.w3.org/Graphics/SVG/1.1/DTD/svg11.dtd">
<svg version="1.1" xmlns="http://www.w3.org/2000/svg" xmlns:xlink="http://www.w3.org/1999/xlink" width="19.9219" height="19.9316">
 <g>
  <rect height="19.9316" opacity="0" width="19.9219" x="0" y="0"/>
  <path d="M9.96094 19.9219C15.4102 19.9219 19.9219 15.4004 19.9219 9.96094C19.9219 4.51172 15.4004 0 9.95117 0C4.51172 0 0 4.51172 0 9.96094C0 15.4004 4.52148 19.9219 9.96094 19.9219ZM9.96094 18.2617C5.35156 18.2617 1.66992 14.5703 1.66992 9.96094C1.66992 5.35156 5.3418 1.66016 9.95117 1.66016C14.5605 1.66016 18.2617 5.35156 18.2617 9.96094C18.2617 14.5703 14.5703 18.2617 9.96094 18.2617Z" fill="#000000" fill-opacity="0.85"/>
  <path d="M5.55664 13.9453L9.58984 13.9453C9.90234 13.9453 10.1367 13.7109 10.1367 13.3594C10.1367 12.998 9.90234 12.793 9.58984 12.793L6.75781 12.793L6.75781 12.7246L8.67188 10.498C9.39453 9.6582 9.93164 8.95508 9.93164 7.97852C9.93164 6.62109 8.93555 5.75195 7.40234 5.75195C6.24023 5.75195 5.20508 6.49414 4.95117 7.49023C4.93164 7.61719 4.91211 7.72461 4.91211 7.8418C4.91211 8.19336 5.11719 8.42773 5.44922 8.42773C5.73242 8.42773 5.87891 8.26172 6.00586 7.96875C6.25977 7.23633 6.74805 6.875 7.45117 6.875C8.24219 6.875 8.75 7.36328 8.75 8.08594C8.75 8.7207 8.24219 9.26758 7.77344 9.81445L5.19531 12.8418C5.04883 13.0078 4.98047 13.1738 4.98047 13.3691C4.98047 13.7207 5.20508 13.9453 5.55664 13.9453ZM14.0527 14.0527C14.4336 14.0527 14.6777 13.8086 14.6777 13.4277L14.6777 6.51367C14.6777 6.10352 14.3945 5.81055 13.9844 5.81055C13.6719 5.81055 13.4766 5.9082 13.1348 6.14258L11.6504 7.1582C11.4453 7.30469 11.3184 7.48047 11.3184 7.73438C11.3184 8.06641 11.5918 8.32031 11.875 8.32031C12.0312 8.32031 12.1289 8.31055 12.3535 8.13477L13.3984 7.36328L13.457 7.36328L13.457 13.4277C13.457 13.8086 13.6914 14.0527 14.0527 14.0527Z" fill="#000000" fill-opacity="0.85"/>
 </g>
</svg>
