<?xml version="1.0" encoding="UTF-8"?>
<!--Generator: Apple Native CoreSVG 175.5-->
<!DOCTYPE svg
PUBLIC "-//W3C//DTD SVG 1.1//EN"
       "http://www.w3.org/Graphics/SVG/1.1/DTD/svg11.dtd">
<svg version="1.1" xmlns="http://www.w3.org/2000/svg" xmlns:xlink="http://www.w3.org/1999/xlink" width="17.9785" height="17.998">
 <g>
  <rect height="17.998" opacity="0" width="17.9785" x="0" y="0"/>
  <path d="M3.06641 17.998L14.9121 17.998C16.9629 17.998 17.9785 16.9824 17.9785 14.9707L17.9785 3.04688C17.9785 1.03516 16.9629 0.0195312 14.9121 0.0195312L3.06641 0.0195312C1.02539 0.0195312 0 1.02539 0 3.04688L0 14.9707C0 16.9922 1.02539 17.998 3.06641 17.998ZM3.08594 16.4258C2.10938 16.4258 1.57227 15.9082 1.57227 14.8926L1.57227 3.125C1.57227 2.10938 2.10938 1.5918 3.08594 1.5918L14.8926 1.5918C15.8594 1.5918 16.4062 2.10938 16.4062 3.125L16.4062 14.8926C16.4062 15.9082 15.8594 16.4258 14.8926 16.4258Z" fill="#000000" fill-opacity="0.85"/>
  <path d="M4.59961 12.9785L8.64258 12.9785C8.94531 12.9785 9.17969 12.7441 9.17969 12.3926C9.17969 12.0312 8.94531 11.8262 8.64258 11.8262L5.80078 11.8262L5.80078 11.7578L7.71484 9.53125C8.4375 8.69141 8.97461 7.98828 8.97461 7.01172C8.97461 5.6543 7.97852 4.78516 6.44531 4.78516C5.2832 4.78516 4.24805 5.52734 3.99414 6.52344C3.97461 6.65039 3.95508 6.75781 3.95508 6.875C3.95508 7.22656 4.16016 7.46094 4.50195 7.46094C4.77539 7.46094 4.92188 7.29492 5.05859 7.00195C5.30273 6.26953 5.79102 5.9082 6.49414 5.9082C7.28516 5.9082 7.79297 6.39648 7.79297 7.11914C7.79297 7.75391 7.28516 8.30078 6.81641 8.84766L4.23828 11.875C4.0918 12.041 4.02344 12.207 4.02344 12.4023C4.02344 12.7539 4.24805 12.9785 4.59961 12.9785ZM13.0957 13.0859C13.4766 13.0859 13.7207 12.8418 13.7207 12.4609L13.7207 5.54688C13.7207 5.13672 13.4375 4.84375 13.0371 4.84375C12.7148 4.84375 12.5195 4.94141 12.1777 5.17578L10.6934 6.19141C10.4883 6.33789 10.3613 6.51367 10.3613 6.76758C10.3613 7.09961 10.6348 7.35352 10.918 7.35352C11.084 7.35352 11.1719 7.34375 11.3965 7.16797L12.4414 6.39648L12.5 6.39648L12.5 12.4609C12.5 12.8418 12.7344 13.0859 13.0957 13.0859Z" fill="#000000" fill-opacity="0.85"/>
 </g>
</svg>
