<?xml version="1.0" encoding="UTF-8"?>
<!--Generator: Apple Native CoreSVG 175.5-->
<!DOCTYPE svg
PUBLIC "-//W3C//DTD SVG 1.1//EN"
       "http://www.w3.org/Graphics/SVG/1.1/DTD/svg11.dtd">
<svg version="1.1" xmlns="http://www.w3.org/2000/svg" xmlns:xlink="http://www.w3.org/1999/xlink" width="19.9219" height="19.9316">
 <g>
  <rect height="19.9316" opacity="0" width="19.9219" x="0" y="0"/>
  <path d="M9.96094 19.9219C15.4102 19.9219 19.9219 15.4004 19.9219 9.96094C19.9219 4.51172 15.4004 0 9.95117 0C4.51172 0 0 4.51172 0 9.96094C0 15.4004 4.52148 19.9219 9.96094 19.9219ZM9.96094 18.2617C5.35156 18.2617 1.66992 14.5703 1.66992 9.96094C1.66992 5.35156 5.3418 1.66016 9.95117 1.66016C14.5605 1.66016 18.2617 5.35156 18.2617 9.96094C18.2617 14.5703 14.5703 18.2617 9.96094 18.2617Z" fill="#000000" fill-opacity="0.85"/>
  <path d="M4.92188 13.9453L8.96484 13.9453C9.26758 13.9453 9.50195 13.7109 9.50195 13.3594C9.50195 12.998 9.26758 12.793 8.96484 12.793L6.12305 12.793L6.12305 12.7246L8.03711 10.498C8.75977 9.6582 9.29688 8.95508 9.29688 7.97852C9.29688 6.62109 8.30078 5.75195 6.76758 5.75195C5.60547 5.75195 4.57031 6.49414 4.31641 7.49023C4.29688 7.61719 4.27734 7.72461 4.27734 7.8418C4.27734 8.19336 4.48242 8.42773 4.82422 8.42773C5.09766 8.42773 5.24414 8.26172 5.38086 7.96875C5.625 7.23633 6.12305 6.875 6.81641 6.875C7.60742 6.875 8.11523 7.36328 8.11523 8.08594C8.11523 8.7207 7.60742 9.26758 7.13867 9.81445L4.56055 12.8418C4.41406 13.0078 4.3457 13.1738 4.3457 13.3691C4.3457 13.7207 4.57031 13.9453 4.92188 13.9453ZM13.3496 14.1699C15.0098 14.1699 16.1621 13.1738 16.1621 11.7676C16.1621 10.7324 15.4492 9.89258 14.4629 9.79492L14.4629 9.73633C15.2637 9.59961 15.8984 8.78906 15.8984 7.87109C15.8984 6.62109 14.873 5.75195 13.418 5.75195C12.0898 5.75195 11.1133 6.50391 10.8594 7.46094C10.8398 7.58789 10.8301 7.68555 10.8301 7.8125C10.8301 8.16406 11.0547 8.4082 11.3965 8.4082C11.6895 8.4082 11.8359 8.25195 11.9336 7.93945C12.1484 7.25586 12.627 6.875 13.3887 6.875C14.1602 6.875 14.6973 7.34375 14.6973 8.02734C14.6973 8.74023 14.1504 9.25781 13.3789 9.25781L12.8516 9.25781C12.5293 9.25781 12.3145 9.48242 12.3145 9.83398C12.3145 10.1465 12.5293 10.3906 12.8516 10.3906L13.418 10.3906C14.3555 10.3906 14.9414 10.918 14.9414 11.709C14.9414 12.4707 14.2969 13.0469 13.3594 13.0469C12.5879 13.0469 12.0605 12.666 11.7969 11.9824C11.6797 11.6699 11.5137 11.5137 11.2402 11.5137C10.9082 11.5137 10.6738 11.7578 10.6738 12.0996C10.6738 12.2363 10.6836 12.334 10.7227 12.4609C10.9766 13.3594 12.0215 14.1699 13.3496 14.1699Z" fill="#000000" fill-opacity="0.85"/>
 </g>
</svg>
