<?xml version="1.0" encoding="UTF-8"?>
<!--Generator: Apple Native CoreSVG 175.5-->
<!DOCTYPE svg
PUBLIC "-//W3C//DTD SVG 1.1//EN"
       "http://www.w3.org/Graphics/SVG/1.1/DTD/svg11.dtd">
<svg version="1.1" xmlns="http://www.w3.org/2000/svg" xmlns:xlink="http://www.w3.org/1999/xlink" width="17.9785" height="17.998">
 <g>
  <rect height="17.998" opacity="0" width="17.9785" x="0" y="0"/>
  <path d="M3.06641 17.998L14.9121 17.998C16.9629 17.998 17.9785 16.9824 17.9785 14.9707L17.9785 3.04688C17.9785 1.03516 16.9629 0.0195312 14.9121 0.0195312L3.06641 0.0195312C1.02539 0.0195312 0 1.02539 0 3.04688L0 14.9707C0 16.9922 1.02539 17.998 3.06641 17.998Z" fill="#000000" fill-opacity="0.85"/>
  <path d="M3.80859 13.1055C3.44727 13.1055 3.22266 12.8711 3.22266 12.5098C3.22266 12.3047 3.28125 12.1289 3.4375 11.9629L6.09375 8.83789C6.57227 8.28125 7.09961 7.71484 7.09961 7.06055C7.09961 6.31836 6.57227 5.82031 5.76172 5.82031C5.04883 5.82031 4.54102 6.18164 4.28711 6.94336C4.15039 7.24609 4.00391 7.41211 3.71094 7.41211C3.35938 7.41211 3.14453 7.16797 3.14453 6.80664C3.14453 6.68945 3.16406 6.57227 3.19336 6.44531C3.44727 5.41992 4.51172 4.64844 5.71289 4.64844C7.29492 4.64844 8.32031 5.54688 8.32031 6.95312C8.32031 7.95898 7.76367 8.68164 7.02148 9.55078L5.05859 11.8359L5.05859 11.9141L7.97852 11.9141C8.29102 11.9141 8.53516 12.1191 8.53516 12.5C8.53516 12.8613 8.29102 13.1055 7.97852 13.1055ZM12.5 13.3398C11.1328 13.3398 10.0488 12.5 9.78516 11.5723C9.75586 11.4453 9.73633 11.3379 9.73633 11.2012C9.73633 10.8496 9.98047 10.5957 10.3223 10.5957C10.6055 10.5957 10.7812 10.752 10.8984 11.0742C11.1719 11.7773 11.7188 12.168 12.5098 12.168C13.4766 12.168 14.1504 11.582 14.1504 10.8008C14.1504 9.98047 13.5352 9.44336 12.5781 9.44336L11.9922 9.44336C11.6504 9.44336 11.4355 9.18945 11.4355 8.86719C11.4355 8.49609 11.6504 8.26172 11.9922 8.26172L12.5293 8.26172C13.3301 8.26172 13.8867 7.73438 13.8867 7.00195C13.8867 6.29883 13.3301 5.82031 12.5391 5.82031C11.7578 5.82031 11.2695 6.21094 11.0449 6.91406C10.9473 7.23633 10.791 7.39258 10.4883 7.39258C10.1367 7.39258 9.91211 7.13867 9.91211 6.77734C9.91211 6.65039 9.91211 6.54297 9.93164 6.41602C10.1953 5.42969 11.2012 4.64844 12.5684 4.64844C14.0723 4.64844 15.127 5.54688 15.127 6.83594C15.127 7.7832 14.4727 8.62305 13.6523 8.75977L13.6523 8.81836C14.668 8.92578 15.4004 9.78516 15.4004 10.8594C15.4004 12.3047 14.209 13.3398 12.5 13.3398Z" fill="#ffffff"/>
 </g>
</svg>
