<?xml version="1.0" encoding="UTF-8"?>
<!--Generator: Apple Native CoreSVG 175.5-->
<!DOCTYPE svg
PUBLIC "-//W3C//DTD SVG 1.1//EN"
       "http://www.w3.org/Graphics/SVG/1.1/DTD/svg11.dtd">
<svg version="1.1" xmlns="http://www.w3.org/2000/svg" xmlns:xlink="http://www.w3.org/1999/xlink" width="17.9785" height="17.998">
 <g>
  <rect height="17.998" opacity="0" width="17.9785" x="0" y="0"/>
  <path d="M3.06641 17.998L14.9121 17.998C16.9629 17.998 17.9785 16.9824 17.9785 14.9707L17.9785 3.04688C17.9785 1.03516 16.9629 0.0195312 14.9121 0.0195312L3.06641 0.0195312C1.02539 0.0195312 0 1.02539 0 3.04688L0 14.9707C0 16.9922 1.02539 17.998 3.06641 17.998Z" fill="#000000" fill-opacity="0.85"/>
  <path d="M3.82812 13.1055C3.4668 13.1055 3.23242 12.8711 3.23242 12.5098C3.23242 12.3047 3.30078 12.1289 3.45703 11.9629L6.11328 8.83789C6.58203 8.28125 7.11914 7.71484 7.11914 7.06055C7.11914 6.31836 6.58203 5.82031 5.78125 5.82031C5.05859 5.82031 4.56055 6.18164 4.29688 6.94336C4.16016 7.24609 4.01367 7.41211 3.7207 7.41211C3.37891 7.41211 3.1543 7.16797 3.1543 6.80664C3.1543 6.68945 3.18359 6.57227 3.20312 6.44531C3.4668 5.41992 4.53125 4.64844 5.73242 4.64844C7.31445 4.64844 8.33984 5.54688 8.33984 6.95312C8.33984 7.95898 7.7832 8.68164 7.04102 9.55078L5.05859 11.8359L5.05859 11.9141L7.98828 11.9141C8.31055 11.9141 8.55469 12.1191 8.55469 12.5C8.55469 12.8613 8.31055 13.1055 7.98828 13.1055ZM13.7305 13.3203C13.3301 13.3203 13.1348 13.0273 13.1348 12.6367L13.1348 11.4551L10.1953 11.4551C9.67773 11.4551 9.32617 11.1328 9.32617 10.5957C9.32617 10.3223 9.38477 10.0977 9.55078 9.78516C10.2344 8.56445 11.2402 6.8457 12.0801 5.42969C12.4121 4.87305 12.7637 4.64844 13.3496 4.64844C13.9453 4.64844 14.3555 5.0293 14.3555 5.61523L14.3555 10.3223L14.8926 10.3223C15.2344 10.3223 15.459 10.5371 15.459 10.8984C15.459 11.25 15.2344 11.4551 14.8926 11.4551L14.3555 11.4551L14.3555 12.6367C14.3555 13.0371 14.1406 13.3203 13.7305 13.3203ZM13.1348 10.3223L13.1348 6.01562L13.0664 6.01562C12.2754 7.38281 11.25 9.14062 10.6543 10.2832L10.6543 10.3223Z" fill="#ffffff"/>
 </g>
</svg>
