<?xml version="1.0" encoding="UTF-8"?>
<!--Generator: Apple Native CoreSVG 175.5-->
<!DOCTYPE svg
PUBLIC "-//W3C//DTD SVG 1.1//EN"
       "http://www.w3.org/Graphics/SVG/1.1/DTD/svg11.dtd">
<svg version="1.1" xmlns="http://www.w3.org/2000/svg" xmlns:xlink="http://www.w3.org/1999/xlink" width="19.9219" height="19.9316">
 <g>
  <rect height="19.9316" opacity="0" width="19.9219" x="0" y="0"/>
  <path d="M9.96094 19.9219C15.4102 19.9219 19.9219 15.4004 19.9219 9.96094C19.9219 4.51172 15.4004 0 9.95117 0C4.51172 0 0 4.51172 0 9.96094C0 15.4004 4.52148 19.9219 9.96094 19.9219ZM9.96094 18.2617C5.35156 18.2617 1.66992 14.5703 1.66992 9.96094C1.66992 5.35156 5.3418 1.66016 9.95117 1.66016C14.5605 1.66016 18.2617 5.35156 18.2617 9.96094C18.2617 14.5703 14.5703 18.2617 9.96094 18.2617Z" fill="#000000" fill-opacity="0.85"/>
  <path d="M4.84375 13.9453L8.88672 13.9453C9.18945 13.9453 9.42383 13.7109 9.42383 13.3594C9.42383 12.998 9.18945 12.793 8.88672 12.793L6.04492 12.793L6.04492 12.7246L7.95898 10.498C8.68164 9.6582 9.21875 8.95508 9.21875 7.97852C9.21875 6.62109 8.22266 5.75195 6.68945 5.75195C5.52734 5.75195 4.49219 6.49414 4.23828 7.49023C4.21875 7.61719 4.19922 7.72461 4.19922 7.8418C4.19922 8.19336 4.4043 8.42773 4.73633 8.42773C5.01953 8.42773 5.16602 8.26172 5.30273 7.96875C5.54688 7.23633 6.03516 6.875 6.73828 6.875C7.5293 6.875 8.03711 7.36328 8.03711 8.08594C8.03711 8.7207 7.5293 9.26758 7.06055 9.81445L4.48242 12.8418C4.33594 13.0078 4.26758 13.1738 4.26758 13.3691C4.26758 13.7207 4.49219 13.9453 4.84375 13.9453ZM13.1738 14.1699C14.8926 14.1699 16.0352 13.1152 16.0352 11.3965C16.0352 9.89258 15.0195 8.79883 13.5156 8.79883C12.8613 8.79883 12.1582 9.12109 11.8652 9.56055L11.8262 9.56055L12.0117 7.05078L15.2441 7.05078C15.5176 7.05078 15.7227 6.82617 15.7227 6.50391C15.7227 6.19141 15.5273 5.95703 15.2441 5.95703L11.8848 5.95703C11.3672 5.95703 11.0352 6.26953 10.9961 6.78711L10.7617 9.83398C10.7227 10.3418 10.9961 10.6738 11.4453 10.6738C11.748 10.6738 11.9238 10.5957 12.2363 10.3418C12.6465 9.99023 12.9492 9.84375 13.3887 9.84375C14.2383 9.84375 14.8242 10.5273 14.8242 11.4258C14.8242 12.4512 14.1797 13.0664 13.2324 13.0664C12.5684 13.0664 12.002 12.7148 11.7188 12.1289C11.5723 11.8457 11.3867 11.709 11.1621 11.709C10.8301 11.709 10.6055 11.9531 10.6055 12.2754C10.6055 12.4316 10.6445 12.5781 10.6934 12.7148C10.9863 13.5254 11.9531 14.1699 13.1738 14.1699Z" fill="#000000" fill-opacity="0.85"/>
 </g>
</svg>
