<?xml version="1.0" encoding="UTF-8"?>
<!--Generator: Apple Native CoreSVG 175.5-->
<!DOCTYPE svg
PUBLIC "-//W3C//DTD SVG 1.1//EN"
       "http://www.w3.org/Graphics/SVG/1.1/DTD/svg11.dtd">
<svg version="1.1" xmlns="http://www.w3.org/2000/svg" xmlns:xlink="http://www.w3.org/1999/xlink" width="17.9785" height="17.998">
 <g>
  <rect height="17.998" opacity="0" width="17.9785" x="0" y="0"/>
  <path d="M3.06641 17.998L14.9121 17.998C16.9629 17.998 17.9785 16.9824 17.9785 14.9707L17.9785 3.04688C17.9785 1.03516 16.9629 0.0195312 14.9121 0.0195312L3.06641 0.0195312C1.02539 0.0195312 0 1.02539 0 3.04688L0 14.9707C0 16.9922 1.02539 17.998 3.06641 17.998ZM3.08594 16.4258C2.10938 16.4258 1.57227 15.9082 1.57227 14.8926L1.57227 3.125C1.57227 2.10938 2.10938 1.5918 3.08594 1.5918L14.8926 1.5918C15.8594 1.5918 16.4062 2.10938 16.4062 3.125L16.4062 14.8926C16.4062 15.9082 15.8594 16.4258 14.8926 16.4258Z" fill="#000000" fill-opacity="0.85"/>
  <path d="M3.88672 12.9785L7.92969 12.9785C8.23242 12.9785 8.4668 12.7441 8.4668 12.3926C8.4668 12.0312 8.23242 11.8262 7.92969 11.8262L5.08789 11.8262L5.08789 11.7578L7.00195 9.53125C7.72461 8.69141 8.26172 7.98828 8.26172 7.01172C8.26172 5.6543 7.26562 4.78516 5.73242 4.78516C4.57031 4.78516 3.53516 5.52734 3.28125 6.52344C3.26172 6.65039 3.24219 6.75781 3.24219 6.875C3.24219 7.22656 3.44727 7.46094 3.78906 7.46094C4.0625 7.46094 4.20898 7.29492 4.3457 7.00195C4.58984 6.26953 5.07812 5.9082 5.78125 5.9082C6.57227 5.9082 7.08008 6.39648 7.08008 7.11914C7.08008 7.75391 6.57227 8.30078 6.10352 8.84766L3.52539 11.875C3.37891 12.041 3.31055 12.207 3.31055 12.4023C3.31055 12.7539 3.53516 12.9785 3.88672 12.9785ZM12.2168 13.2031C13.9355 13.2031 15.0879 12.1484 15.0879 10.4297C15.0879 8.92578 14.0625 7.83203 12.5586 7.83203C11.9043 7.83203 11.2012 8.1543 10.9082 8.59375L10.8691 8.59375L11.0547 6.08398L14.2871 6.08398C14.5605 6.08398 14.7656 5.85938 14.7656 5.53711C14.7656 5.22461 14.5703 4.99023 14.2871 4.99023L10.9277 4.99023C10.4102 4.99023 10.0781 5.30273 10.0391 5.82031L9.80469 8.86719C9.76562 9.375 10.0391 9.70703 10.4883 9.70703C10.791 9.70703 10.9766 9.62891 11.2793 9.375C11.6895 9.02344 11.9922 8.87695 12.4316 8.87695C13.2812 8.87695 13.877 9.56055 13.877 10.459C13.877 11.4844 13.2227 12.0996 12.2852 12.0996C11.6113 12.0996 11.0449 11.748 10.7617 11.1621C10.6152 10.8789 10.4297 10.7422 10.2051 10.7422C9.87305 10.7422 9.64844 10.9863 9.64844 11.3086C9.64844 11.4648 9.6875 11.6113 9.73633 11.748C10.0293 12.5586 10.9961 13.2031 12.2168 13.2031Z" fill="#000000" fill-opacity="0.85"/>
 </g>
</svg>
