<?xml version="1.0" encoding="UTF-8"?>
<!--Generator: Apple Native CoreSVG 175.5-->
<!DOCTYPE svg
PUBLIC "-//W3C//DTD SVG 1.1//EN"
       "http://www.w3.org/Graphics/SVG/1.1/DTD/svg11.dtd">
<svg version="1.1" xmlns="http://www.w3.org/2000/svg" xmlns:xlink="http://www.w3.org/1999/xlink" width="17.9785" height="17.998">
 <g>
  <rect height="17.998" opacity="0" width="17.9785" x="0" y="0"/>
  <path d="M3.06641 17.998L14.9121 17.998C16.9629 17.998 17.9785 16.9824 17.9785 14.9707L17.9785 3.04688C17.9785 1.03516 16.9629 0.0195312 14.9121 0.0195312L3.06641 0.0195312C1.02539 0.0195312 0 1.02539 0 3.04688L0 14.9707C0 16.9922 1.02539 17.998 3.06641 17.998Z" fill="#000000" fill-opacity="0.85"/>
  <path d="M3.73047 13.1055C3.36914 13.1055 3.13477 12.8711 3.13477 12.5098C3.13477 12.3047 3.20312 12.1289 3.35938 11.9629L6.01562 8.83789C6.49414 8.28125 7.02148 7.71484 7.02148 7.06055C7.02148 6.31836 6.49414 5.82031 5.68359 5.82031C4.9707 5.82031 4.46289 6.18164 4.20898 6.94336C4.07227 7.24609 3.92578 7.41211 3.63281 7.41211C3.28125 7.41211 3.06641 7.16797 3.06641 6.80664C3.06641 6.68945 3.08594 6.57227 3.10547 6.44531C3.36914 5.41992 4.43359 4.64844 5.63477 4.64844C7.2168 4.64844 8.24219 5.54688 8.24219 6.95312C8.24219 7.95898 7.68555 8.68164 6.94336 9.55078L4.98047 11.8359L4.98047 11.9141L7.90039 11.9141C8.21289 11.9141 8.45703 12.1191 8.45703 12.5C8.45703 12.8613 8.21289 13.1055 7.90039 13.1055ZM12.3242 13.3398C11.0645 13.3398 10.0684 12.6758 9.76562 11.8359C9.70703 11.6992 9.66797 11.543 9.66797 11.377C9.66797 11.0449 9.90234 10.791 10.2441 10.791C10.4785 10.791 10.6738 10.9375 10.8203 11.2305C11.1133 11.8359 11.6992 12.1973 12.3926 12.1973C13.3594 12.1973 14.0234 11.5625 14.0234 10.5078C14.0234 9.58008 13.418 8.87695 12.5391 8.87695C12.0898 8.87695 11.7773 9.02344 11.3574 9.38477C11.0449 9.64844 10.8496 9.73633 10.5371 9.73633C10.0781 9.73633 9.79492 9.38477 9.83398 8.85742L10.0781 5.72266C10.1172 5.18555 10.459 4.86328 10.9961 4.86328L14.4531 4.86328C14.7461 4.86328 14.9512 5.10742 14.9512 5.42969C14.9512 5.76172 14.7363 5.99609 14.4531 5.99609L11.123 5.99609L10.9375 8.58398L10.9766 8.58398C11.2793 8.125 12.002 7.79297 12.6758 7.79297C14.2285 7.79297 15.2832 8.92578 15.2832 10.4785C15.2832 12.2461 14.0918 13.3398 12.3242 13.3398Z" fill="#ffffff"/>
 </g>
</svg>
