<?xml version="1.0" encoding="UTF-8"?>
<!--Generator: Apple Native CoreSVG 175.5-->
<!DOCTYPE svg
PUBLIC "-//W3C//DTD SVG 1.1//EN"
       "http://www.w3.org/Graphics/SVG/1.1/DTD/svg11.dtd">
<svg version="1.1" xmlns="http://www.w3.org/2000/svg" xmlns:xlink="http://www.w3.org/1999/xlink" width="19.9219" height="19.9316">
 <g>
  <rect height="19.9316" opacity="0" width="19.9219" x="0" y="0"/>
  <path d="M9.96094 19.9219C15.4102 19.9219 19.9219 15.4004 19.9219 9.96094C19.9219 4.51172 15.4004 0 9.95117 0C4.51172 0 0 4.51172 0 9.96094C0 15.4004 4.52148 19.9219 9.96094 19.9219ZM9.96094 18.2617C5.35156 18.2617 1.66992 14.5703 1.66992 9.96094C1.66992 5.35156 5.3418 1.66016 9.95117 1.66016C14.5605 1.66016 18.2617 5.35156 18.2617 9.96094C18.2617 14.5703 14.5703 18.2617 9.96094 18.2617Z" fill="#000000" fill-opacity="0.85"/>
  <path d="M4.76562 13.9453L8.80859 13.9453C9.11133 13.9453 9.3457 13.7109 9.3457 13.3594C9.3457 12.998 9.11133 12.793 8.80859 12.793L5.9668 12.793L5.9668 12.7246L7.88086 10.498C8.60352 9.6582 9.14062 8.95508 9.14062 7.97852C9.14062 6.62109 8.14453 5.75195 6.61133 5.75195C5.44922 5.75195 4.41406 6.49414 4.16016 7.49023C4.14062 7.61719 4.12109 7.72461 4.12109 7.8418C4.12109 8.19336 4.32617 8.42773 4.66797 8.42773C4.94141 8.42773 5.08789 8.26172 5.22461 7.96875C5.46875 7.23633 5.95703 6.875 6.66016 6.875C7.45117 6.875 7.95898 7.36328 7.95898 8.08594C7.95898 8.7207 7.45117 9.26758 6.98242 9.81445L4.4043 12.8418C4.25781 13.0078 4.18945 13.1738 4.18945 13.3691C4.18945 13.7207 4.41406 13.9453 4.76562 13.9453ZM13.291 14.1797C14.8828 14.1797 16.0156 13.1348 16.0156 11.3477C16.0156 9.66797 14.8633 8.74023 13.5938 8.74023C12.5586 8.74023 11.8945 9.32617 11.6602 9.9707L11.5918 9.9707C11.5918 9.94141 11.5918 9.92188 11.5918 9.88281C11.5918 8.03711 12.334 6.875 13.4375 6.875C13.9941 6.875 14.3848 7.14844 14.6387 7.5293C14.8047 7.77344 14.9512 7.89062 15.2246 7.89062C15.4883 7.89062 15.7031 7.67578 15.7031 7.35352C15.7031 7.22656 15.6836 7.10938 15.625 6.98242C15.3711 6.32812 14.5898 5.75195 13.4863 5.75195C11.6016 5.75195 10.4395 7.2168 10.4395 10.1855C10.4395 11.377 10.6348 12.2461 10.9668 12.8613C11.4648 13.7988 12.3047 14.1797 13.291 14.1797ZM13.2422 13.1055C12.334 13.1055 11.6992 12.3926 11.6992 11.3867C11.6992 10.4297 12.3242 9.74609 13.2422 9.74609C14.1602 9.74609 14.7852 10.4199 14.7852 11.3965C14.7852 12.4414 14.1797 13.1055 13.2422 13.1055Z" fill="#000000" fill-opacity="0.85"/>
 </g>
</svg>
