<?xml version="1.0" encoding="UTF-8"?>
<!--Generator: Apple Native CoreSVG 175.5-->
<!DOCTYPE svg
PUBLIC "-//W3C//DTD SVG 1.1//EN"
       "http://www.w3.org/Graphics/SVG/1.1/DTD/svg11.dtd">
<svg version="1.1" xmlns="http://www.w3.org/2000/svg" xmlns:xlink="http://www.w3.org/1999/xlink" width="19.9219" height="19.9316">
 <g>
  <rect height="19.9316" opacity="0" width="19.9219" x="0" y="0"/>
  <path d="M9.96094 19.9219C15.4102 19.9219 19.9219 15.4004 19.9219 9.96094C19.9219 4.51172 15.4004 0 9.95117 0C4.51172 0 0 4.51172 0 9.96094C0 15.4004 4.52148 19.9219 9.96094 19.9219Z" fill="#000000" fill-opacity="0.85"/>
  <path d="M4.60938 14.0723C4.24805 14.0723 4.01367 13.8379 4.01367 13.4766C4.01367 13.2715 4.08203 13.0957 4.23828 12.9297L6.89453 9.80469C7.37305 9.24805 7.90039 8.68164 7.90039 8.02734C7.90039 7.28516 7.37305 6.78711 6.5625 6.78711C5.83984 6.78711 5.3418 7.14844 5.08789 7.91016C4.94141 8.21289 4.79492 8.37891 4.51172 8.37891C4.16016 8.37891 3.94531 8.13477 3.94531 7.77344C3.94531 7.65625 3.96484 7.53906 3.98438 7.41211C4.24805 6.38672 5.3125 5.61523 6.51367 5.61523C8.0957 5.61523 9.12109 6.51367 9.12109 7.91992C9.12109 8.92578 8.56445 9.64844 7.82227 10.5176L5.85938 12.8027L5.85938 12.8809L8.7793 12.8809C9.0918 12.8809 9.33594 13.0859 9.33594 13.4668C9.33594 13.8281 9.0918 14.0723 8.7793 14.0723ZM13.3984 14.3164C12.3828 14.3164 11.5234 13.9258 11.0059 12.9492C10.6641 12.3242 10.459 11.4258 10.459 10.1953C10.459 7.12891 11.6602 5.61523 13.5938 5.61523C14.7363 5.61523 15.5469 6.21094 15.8105 6.88477C15.8691 7.02148 15.8887 7.13867 15.8887 7.27539C15.8887 7.60742 15.6641 7.83203 15.3906 7.83203C15.1074 7.83203 14.9609 7.70508 14.7852 7.45117C14.5215 7.06055 14.1211 6.78711 13.5547 6.78711C12.4219 6.78711 11.6504 7.97852 11.6504 9.87305C11.6504 9.92188 11.6504 9.94141 11.6504 9.9707L11.7285 9.9707C11.9629 9.30664 12.6465 8.70117 13.7207 8.70117C15.0195 8.70117 16.2109 9.6582 16.2109 11.3867C16.2109 13.2324 15.0391 14.3164 13.3984 14.3164ZM13.3496 13.2031C14.3164 13.2031 14.9414 12.5195 14.9414 11.4453C14.9414 10.4395 14.2969 9.74609 13.3496 9.74609C12.4121 9.74609 11.7676 10.4492 11.7676 11.4355C11.7676 12.4707 12.4219 13.2031 13.3496 13.2031Z" fill="#ffffff"/>
 </g>
</svg>
