<?xml version="1.0" encoding="UTF-8"?>
<!--Generator: Apple Native CoreSVG 175.5-->
<!DOCTYPE svg
PUBLIC "-//W3C//DTD SVG 1.1//EN"
       "http://www.w3.org/Graphics/SVG/1.1/DTD/svg11.dtd">
<svg version="1.1" xmlns="http://www.w3.org/2000/svg" xmlns:xlink="http://www.w3.org/1999/xlink" width="19.9219" height="19.9316">
 <g>
  <rect height="19.9316" opacity="0" width="19.9219" x="0" y="0"/>
  <path d="M9.96094 19.9219C15.4102 19.9219 19.9219 15.4004 19.9219 9.96094C19.9219 4.51172 15.4004 0 9.95117 0C4.51172 0 0 4.51172 0 9.96094C0 15.4004 4.52148 19.9219 9.96094 19.9219Z" fill="#000000" fill-opacity="0.85"/>
  <path d="M4.90234 14.0723C4.54102 14.0723 4.30664 13.8379 4.30664 13.4766C4.30664 13.2715 4.38477 13.1055 4.53125 12.9297L7.1875 9.81445C7.66602 9.24805 8.19336 8.68164 8.19336 8.02734C8.19336 7.28516 7.67578 6.78711 6.85547 6.78711C6.14258 6.78711 5.63477 7.1582 5.37109 7.91016C5.24414 8.21289 5.08789 8.37891 4.79492 8.37891C4.45312 8.37891 4.23828 8.14453 4.23828 7.77344C4.23828 7.65625 4.25781 7.53906 4.27734 7.41211C4.54102 6.38672 5.61523 5.625 6.80664 5.625C8.38867 5.625 9.42383 6.51367 9.42383 7.91992C9.42383 8.92578 8.86719 9.64844 8.125 10.5176L6.15234 12.8027L6.15234 12.8809L9.0625 12.8809C9.38477 12.8809 9.62891 13.0859 9.62891 13.4668C9.62891 13.8281 9.38477 14.0723 9.0625 14.0723ZM12.2266 14.1895C11.8457 14.1895 11.5527 13.916 11.5527 13.5352C11.5527 13.3398 11.5723 13.2227 11.6602 13.0664L14.7852 7.04102L14.7852 6.95312L11.2402 6.95312C10.8984 6.95312 10.6641 6.73828 10.6641 6.39648C10.6641 6.05469 10.8984 5.82031 11.2402 5.82031L15.3125 5.82031C15.8594 5.82031 16.2109 6.21094 16.2109 6.69922C16.2109 6.91406 16.1719 7.09961 16.0156 7.42188L12.8809 13.7012C12.6953 14.043 12.5 14.1895 12.2266 14.1895Z" fill="#ffffff"/>
 </g>
</svg>
