<?xml version="1.0" encoding="UTF-8"?>
<!--Generator: Apple Native CoreSVG 175.5-->
<!DOCTYPE svg
PUBLIC "-//W3C//DTD SVG 1.1//EN"
       "http://www.w3.org/Graphics/SVG/1.1/DTD/svg11.dtd">
<svg version="1.1" xmlns="http://www.w3.org/2000/svg" xmlns:xlink="http://www.w3.org/1999/xlink" width="19.9219" height="19.9316">
 <g>
  <rect height="19.9316" opacity="0" width="19.9219" x="0" y="0"/>
  <path d="M9.96094 19.9219C15.4102 19.9219 19.9219 15.4004 19.9219 9.96094C19.9219 4.51172 15.4004 0 9.95117 0C4.51172 0 0 4.51172 0 9.96094C0 15.4004 4.52148 19.9219 9.96094 19.9219ZM9.96094 18.2617C5.35156 18.2617 1.66992 14.5703 1.66992 9.96094C1.66992 5.35156 5.3418 1.66016 9.95117 1.66016C14.5605 1.66016 18.2617 5.35156 18.2617 9.96094C18.2617 14.5703 14.5703 18.2617 9.96094 18.2617Z" fill="#000000" fill-opacity="0.85"/>
  <path d="M5.04883 13.9453L9.08203 13.9453C9.39453 13.9453 9.62891 13.7109 9.62891 13.3594C9.62891 12.998 9.39453 12.793 9.08203 12.793L6.25 12.793L6.25 12.7246L8.16406 10.498C8.88672 9.6582 9.42383 8.95508 9.42383 7.97852C9.42383 6.62109 8.42773 5.75195 6.89453 5.75195C5.73242 5.75195 4.69727 6.49414 4.44336 7.49023C4.42383 7.61719 4.4043 7.72461 4.4043 7.8418C4.4043 8.19336 4.60938 8.42773 4.94141 8.42773C5.22461 8.42773 5.37109 8.26172 5.49805 7.96875C5.75195 7.23633 6.24023 6.875 6.94336 6.875C7.73438 6.875 8.24219 7.36328 8.24219 8.08594C8.24219 8.7207 7.73438 9.26758 7.26562 9.81445L4.6875 12.8418C4.54102 13.0078 4.47266 13.1738 4.47266 13.3691C4.47266 13.7207 4.69727 13.9453 5.04883 13.9453ZM12.1484 14.0625C12.4121 14.0625 12.5977 13.916 12.7734 13.584L15.8203 7.49023C15.9668 7.17773 16.0059 7.00195 16.0059 6.79688C16.0059 6.31836 15.6641 5.94727 15.1367 5.94727L11.1914 5.94727C10.8594 5.94727 10.6348 6.17188 10.6348 6.50391C10.6348 6.82617 10.8594 7.04102 11.1914 7.04102L14.6289 7.04102L14.6289 7.11914L11.6016 12.9785C11.5137 13.125 11.4941 13.2422 11.4941 13.4277C11.4941 13.7988 11.7773 14.0625 12.1484 14.0625Z" fill="#000000" fill-opacity="0.85"/>
 </g>
</svg>
