<?xml version="1.0" encoding="UTF-8"?>
<!--Generator: Apple Native CoreSVG 175.5-->
<!DOCTYPE svg
PUBLIC "-//W3C//DTD SVG 1.1//EN"
       "http://www.w3.org/Graphics/SVG/1.1/DTD/svg11.dtd">
<svg version="1.1" xmlns="http://www.w3.org/2000/svg" xmlns:xlink="http://www.w3.org/1999/xlink" width="17.9785" height="17.998">
 <g>
  <rect height="17.998" opacity="0" width="17.9785" x="0" y="0"/>
  <path d="M3.06641 17.998L14.9121 17.998C16.9629 17.998 17.9785 16.9824 17.9785 14.9707L17.9785 3.04688C17.9785 1.03516 16.9629 0.0195312 14.9121 0.0195312L3.06641 0.0195312C1.02539 0.0195312 0 1.02539 0 3.04688L0 14.9707C0 16.9922 1.02539 17.998 3.06641 17.998Z" fill="#000000" fill-opacity="0.85"/>
  <path d="M3.93555 13.1055C3.57422 13.1055 3.33984 12.8711 3.33984 12.5098C3.33984 12.3047 3.41797 12.1387 3.56445 11.9629L6.2207 8.84766C6.69922 8.28125 7.22656 7.71484 7.22656 7.06055C7.22656 6.31836 6.70898 5.82031 5.88867 5.82031C5.17578 5.82031 4.66797 6.19141 4.41406 6.94336C4.27734 7.24609 4.12109 7.41211 3.83789 7.41211C3.48633 7.41211 3.27148 7.17773 3.27148 6.80664C3.27148 6.68945 3.29102 6.57227 3.31055 6.44531C3.57422 5.41992 4.64844 4.6582 5.83984 4.6582C7.42188 4.6582 8.45703 5.54688 8.45703 6.95312C8.45703 7.95898 7.90039 8.68164 7.1582 9.55078L5.18555 11.8359L5.18555 11.9141L8.10547 11.9141C8.41797 11.9141 8.66211 12.1191 8.66211 12.5C8.66211 12.8613 8.41797 13.1055 8.10547 13.1055ZM11.2598 13.2227C10.8789 13.2227 10.5859 12.9492 10.5859 12.5684C10.5859 12.373 10.6055 12.2559 10.6934 12.0996L13.8184 6.07422L13.8184 5.98633L10.2734 5.98633C9.93164 5.98633 9.69727 5.77148 9.69727 5.42969C9.69727 5.08789 9.93164 4.85352 10.2734 4.85352L14.3457 4.85352C14.8926 4.85352 15.2441 5.24414 15.2441 5.73242C15.2441 5.94727 15.2051 6.13281 15.0488 6.45508L11.9141 12.7344C11.7285 13.0762 11.5332 13.2227 11.2598 13.2227Z" fill="#ffffff"/>
 </g>
</svg>
