<?xml version="1.0" encoding="UTF-8"?>
<!--Generator: Apple Native CoreSVG 175.5-->
<!DOCTYPE svg
PUBLIC "-//W3C//DTD SVG 1.1//EN"
       "http://www.w3.org/Graphics/SVG/1.1/DTD/svg11.dtd">
<svg version="1.1" xmlns="http://www.w3.org/2000/svg" xmlns:xlink="http://www.w3.org/1999/xlink" width="19.9219" height="19.9316">
 <g>
  <rect height="19.9316" opacity="0" width="19.9219" x="0" y="0"/>
  <path d="M9.96094 19.9219C15.4102 19.9219 19.9219 15.4004 19.9219 9.96094C19.9219 4.51172 15.4004 0 9.95117 0C4.51172 0 0 4.51172 0 9.96094C0 15.4004 4.52148 19.9219 9.96094 19.9219ZM9.96094 18.2617C5.35156 18.2617 1.66992 14.5703 1.66992 9.96094C1.66992 5.35156 5.3418 1.66016 9.95117 1.66016C14.5605 1.66016 18.2617 5.35156 18.2617 9.96094C18.2617 14.5703 14.5703 18.2617 9.96094 18.2617Z" fill="#000000" fill-opacity="0.85"/>
  <path d="M4.78516 13.9453L8.81836 13.9453C9.13086 13.9453 9.36523 13.7109 9.36523 13.3594C9.36523 12.998 9.13086 12.793 8.81836 12.793L5.98633 12.793L5.98633 12.7246L7.90039 10.498C8.62305 9.6582 9.16016 8.95508 9.16016 7.97852C9.16016 6.62109 8.16406 5.75195 6.63086 5.75195C5.46875 5.75195 4.43359 6.49414 4.17969 7.49023C4.16016 7.61719 4.14062 7.72461 4.14062 7.8418C4.14062 8.19336 4.3457 8.42773 4.67773 8.42773C4.96094 8.42773 5.10742 8.26172 5.23438 7.96875C5.48828 7.23633 5.97656 6.875 6.67969 6.875C7.4707 6.875 7.97852 7.36328 7.97852 8.08594C7.97852 8.7207 7.4707 9.26758 7.00195 9.81445L4.42383 12.8418C4.27734 13.0078 4.20898 13.1738 4.20898 13.3691C4.20898 13.7207 4.43359 13.9453 4.78516 13.9453ZM13.2129 14.1699C14.9121 14.1699 16.0742 13.1934 16.0742 11.7773C16.0742 10.7812 15.459 9.9707 14.4141 9.75586L14.4141 9.69727C15.3125 9.45312 15.7812 8.75 15.7812 7.90039C15.7812 6.63086 14.7363 5.75195 13.2324 5.75195C11.7383 5.75195 10.6836 6.63086 10.6836 7.90039C10.6836 8.75 11.1523 9.43359 12.0605 9.69727L12.0605 9.75586C10.9961 9.9707 10.4004 10.791 10.4004 11.7871C10.4004 13.2129 11.5234 14.1699 13.2129 14.1699ZM13.2422 13.1543C12.3145 13.1543 11.6406 12.5586 11.6406 11.6992C11.6406 10.8594 12.3145 10.2441 13.2422 10.2441C14.1895 10.2441 14.8438 10.8496 14.8438 11.6992C14.8438 12.5586 14.1699 13.1543 13.2422 13.1543ZM13.2324 9.30664C12.4707 9.30664 11.9336 8.75977 11.9336 8.01758C11.9336 7.27539 12.4707 6.76758 13.2324 6.76758C14.0039 6.76758 14.541 7.27539 14.541 8.01758C14.541 8.75977 13.9941 9.30664 13.2324 9.30664Z" fill="#000000" fill-opacity="0.85"/>
 </g>
</svg>
