<?xml version="1.0" encoding="UTF-8"?>
<!--Generator: Apple Native CoreSVG 175.5-->
<!DOCTYPE svg
PUBLIC "-//W3C//DTD SVG 1.1//EN"
       "http://www.w3.org/Graphics/SVG/1.1/DTD/svg11.dtd">
<svg version="1.1" xmlns="http://www.w3.org/2000/svg" xmlns:xlink="http://www.w3.org/1999/xlink" width="17.9785" height="17.998">
 <g>
  <rect height="17.998" opacity="0" width="17.9785" x="0" y="0"/>
  <path d="M3.06641 17.998L14.9121 17.998C16.9629 17.998 17.9785 16.9824 17.9785 14.9707L17.9785 3.04688C17.9785 1.03516 16.9629 0.0195312 14.9121 0.0195312L3.06641 0.0195312C1.02539 0.0195312 0 1.02539 0 3.04688L0 14.9707C0 16.9922 1.02539 17.998 3.06641 17.998ZM3.08594 16.4258C2.10938 16.4258 1.57227 15.9082 1.57227 14.8926L1.57227 3.125C1.57227 2.10938 2.10938 1.5918 3.08594 1.5918L14.8926 1.5918C15.8594 1.5918 16.4062 2.10938 16.4062 3.125L16.4062 14.8926C16.4062 15.9082 15.8594 16.4258 14.8926 16.4258Z" fill="#000000" fill-opacity="0.85"/>
  <path d="M3.82812 12.9785L7.87109 12.9785C8.17383 12.9785 8.4082 12.7441 8.4082 12.3926C8.4082 12.0312 8.17383 11.8262 7.87109 11.8262L5.0293 11.8262L5.0293 11.7578L6.94336 9.53125C7.66602 8.69141 8.20312 7.98828 8.20312 7.01172C8.20312 5.6543 7.20703 4.78516 5.67383 4.78516C4.51172 4.78516 3.47656 5.52734 3.22266 6.52344C3.20312 6.65039 3.18359 6.75781 3.18359 6.875C3.18359 7.22656 3.38867 7.46094 3.73047 7.46094C4.00391 7.46094 4.15039 7.29492 4.28711 7.00195C4.53125 6.26953 5.01953 5.9082 5.72266 5.9082C6.51367 5.9082 7.02148 6.39648 7.02148 7.11914C7.02148 7.75391 6.51367 8.30078 6.04492 8.84766L3.4668 11.875C3.32031 12.041 3.25195 12.207 3.25195 12.4023C3.25195 12.7539 3.47656 12.9785 3.82812 12.9785ZM12.2559 13.2031C13.9551 13.2031 15.1172 12.2266 15.1172 10.8105C15.1172 9.81445 14.502 9.00391 13.457 8.78906L13.457 8.73047C14.3555 8.48633 14.834 7.7832 14.834 6.93359C14.834 5.66406 13.7793 4.78516 12.2754 4.78516C10.7812 4.78516 9.72656 5.66406 9.72656 6.93359C9.72656 7.7832 10.1953 8.4668 11.1035 8.73047L11.1035 8.78906C10.0391 9.00391 9.44336 9.82422 9.44336 10.8203C9.44336 12.2461 10.5664 13.2031 12.2559 13.2031ZM12.2852 12.1875C11.3574 12.1875 10.6836 11.5918 10.6836 10.7324C10.6836 9.89258 11.3574 9.27734 12.2852 9.27734C13.2324 9.27734 13.8867 9.88281 13.8867 10.7324C13.8867 11.5918 13.2129 12.1875 12.2852 12.1875ZM12.2754 8.33984C11.5137 8.33984 10.9766 7.79297 10.9766 7.05078C10.9766 6.30859 11.5137 5.80078 12.2754 5.80078C13.0469 5.80078 13.584 6.30859 13.584 7.05078C13.584 7.79297 13.0469 8.33984 12.2754 8.33984Z" fill="#000000" fill-opacity="0.85"/>
 </g>
</svg>
