<?xml version="1.0" encoding="UTF-8"?>
<!--Generator: Apple Native CoreSVG 175.5-->
<!DOCTYPE svg
PUBLIC "-//W3C//DTD SVG 1.1//EN"
       "http://www.w3.org/Graphics/SVG/1.1/DTD/svg11.dtd">
<svg version="1.1" xmlns="http://www.w3.org/2000/svg" xmlns:xlink="http://www.w3.org/1999/xlink" width="19.9219" height="19.9316">
 <g>
  <rect height="19.9316" opacity="0" width="19.9219" x="0" y="0"/>
  <path d="M9.96094 19.9219C15.4102 19.9219 19.9219 15.4004 19.9219 9.96094C19.9219 4.51172 15.4004 0 9.95117 0C4.51172 0 0 4.51172 0 9.96094C0 15.4004 4.52148 19.9219 9.96094 19.9219ZM9.96094 18.2617C5.35156 18.2617 1.66992 14.5703 1.66992 9.96094C1.66992 5.35156 5.3418 1.66016 9.95117 1.66016C14.5605 1.66016 18.2617 5.35156 18.2617 9.96094C18.2617 14.5703 14.5703 18.2617 9.96094 18.2617Z" fill="#000000" fill-opacity="0.85"/>
  <path d="M4.87305 13.9453L8.91602 13.9453C9.22852 13.9453 9.46289 13.7109 9.46289 13.3594C9.46289 12.998 9.22852 12.793 8.91602 12.793L6.07422 12.793L6.07422 12.7246L7.98828 10.498C8.71094 9.6582 9.24805 8.95508 9.24805 7.97852C9.24805 6.62109 8.26172 5.75195 6.72852 5.75195C5.55664 5.75195 4.53125 6.49414 4.27734 7.49023C4.24805 7.61719 4.22852 7.72461 4.22852 7.8418C4.22852 8.19336 4.43359 8.42773 4.77539 8.42773C5.05859 8.42773 5.20508 8.26172 5.33203 7.96875C5.57617 7.23633 6.07422 6.875 6.77734 6.875C7.55859 6.875 8.06641 7.36328 8.06641 8.08594C8.06641 8.7207 7.55859 9.26758 7.08984 9.81445L4.52148 12.8418C4.36523 13.0078 4.30664 13.1738 4.30664 13.3691C4.30664 13.7207 4.52148 13.9453 4.87305 13.9453ZM13.1445 14.1699C15.0879 14.1699 16.1426 12.627 16.1426 9.6875C16.1426 7.12891 15.0781 5.75195 13.252 5.75195C11.6113 5.75195 10.5371 6.85547 10.5371 8.57422C10.5371 10.2539 11.6797 11.1914 12.959 11.1914C14.0234 11.1914 14.6582 10.6152 14.9219 9.95117L14.9805 9.95117C15 11.8945 14.2578 13.0469 13.125 13.0469C12.5684 13.0469 12.1191 12.7539 11.8848 12.3242C11.7285 12.0508 11.543 11.9434 11.2891 11.9434C10.9863 11.9434 10.7715 12.1777 10.7715 12.5195C10.7715 12.6172 10.8008 12.7539 10.8398 12.8711C10.9961 13.4082 11.7969 14.1699 13.1445 14.1699ZM13.3203 10.1855C12.3926 10.1855 11.7773 9.49219 11.7773 8.51562C11.7773 7.49023 12.3828 6.81641 13.3301 6.81641C14.2285 6.81641 14.873 7.5293 14.873 8.53516C14.873 9.49219 14.2383 10.1855 13.3203 10.1855Z" fill="#000000" fill-opacity="0.85"/>
 </g>
</svg>
