<?xml version="1.0" encoding="UTF-8"?>
<!--Generator: Apple Native CoreSVG 175.5-->
<!DOCTYPE svg
PUBLIC "-//W3C//DTD SVG 1.1//EN"
       "http://www.w3.org/Graphics/SVG/1.1/DTD/svg11.dtd">
<svg version="1.1" xmlns="http://www.w3.org/2000/svg" xmlns:xlink="http://www.w3.org/1999/xlink" width="17.9785" height="17.998">
 <g>
  <rect height="17.998" opacity="0" width="17.9785" x="0" y="0"/>
  <path d="M3.06641 17.998L14.9121 17.998C16.9629 17.998 17.9785 16.9824 17.9785 14.9707L17.9785 3.04688C17.9785 1.03516 16.9629 0.0195312 14.9121 0.0195312L3.06641 0.0195312C1.02539 0.0195312 0 1.02539 0 3.04688L0 14.9707C0 16.9922 1.02539 17.998 3.06641 17.998Z" fill="#000000" fill-opacity="0.85"/>
  <path d="M3.75977 13.1055C3.4082 13.1055 3.17383 12.8711 3.17383 12.5098C3.17383 12.3047 3.23242 12.1289 3.39844 11.9629L6.05469 8.83789C6.52344 8.28125 7.06055 7.71484 7.06055 7.06055C7.06055 6.31836 6.52344 5.82031 5.72266 5.82031C5 5.82031 4.50195 6.18164 4.23828 6.94336C4.10156 7.24609 3.95508 7.41211 3.66211 7.41211C3.31055 7.41211 3.0957 7.16797 3.0957 6.80664C3.0957 6.68945 3.125 6.57227 3.14453 6.44531C3.4082 5.41992 4.47266 4.64844 5.67383 4.64844C7.25586 4.64844 8.27148 5.54688 8.27148 6.95312C8.27148 7.95898 7.71484 8.68164 6.97266 9.55078L5.00977 11.8359L5.00977 11.9141L7.92969 11.9141C8.25195 11.9141 8.49609 12.1191 8.49609 12.5C8.49609 12.8613 8.25195 13.1055 7.92969 13.1055ZM12.2852 13.3398C10.8984 13.3398 10.0781 12.5488 9.91211 11.9922C9.87305 11.875 9.84375 11.7383 9.84375 11.6309C9.84375 11.2793 10.0684 11.0352 10.3809 11.0352C10.6445 11.0352 10.8301 11.1426 10.9961 11.4258C11.2402 11.875 11.6992 12.168 12.2656 12.168C13.4375 12.168 14.1992 10.9863 14.1797 8.98438L14.1211 8.98438C13.8574 9.66797 13.2031 10.2637 12.0996 10.2637C10.7812 10.2637 9.59961 9.29688 9.59961 7.56836C9.59961 5.79102 10.7031 4.64844 12.4023 4.64844C14.2969 4.64844 15.3809 6.07422 15.3809 8.71094C15.3809 11.748 14.2969 13.3398 12.2852 13.3398ZM12.4805 9.21875C13.418 9.21875 14.0723 8.50586 14.0723 7.51953C14.0723 6.48438 13.4082 5.75195 12.4805 5.75195C11.5039 5.75195 10.8887 6.44531 10.8887 7.5C10.8887 8.50586 11.5234 9.21875 12.4805 9.21875Z" fill="#ffffff"/>
 </g>
</svg>
