<?xml version="1.0" encoding="UTF-8"?>
<!--Generator: Apple Native CoreSVG 175.5-->
<!DOCTYPE svg
PUBLIC "-//W3C//DTD SVG 1.1//EN"
       "http://www.w3.org/Graphics/SVG/1.1/DTD/svg11.dtd">
<svg version="1.1" xmlns="http://www.w3.org/2000/svg" xmlns:xlink="http://www.w3.org/1999/xlink" width="19.9219" height="19.9316">
 <g>
  <rect height="19.9316" opacity="0" width="19.9219" x="0" y="0"/>
  <path d="M9.96094 19.9219C15.4102 19.9219 19.9219 15.4004 19.9219 9.96094C19.9219 4.51172 15.4004 0 9.95117 0C4.51172 0 0 4.51172 0 9.96094C0 15.4004 4.52148 19.9219 9.96094 19.9219Z" fill="#000000" fill-opacity="0.85"/>
  <path d="M9.89258 14.7559C8.24219 14.7559 6.93359 13.9648 6.63086 12.8027C6.5918 12.6562 6.58203 12.5684 6.58203 12.4219C6.58203 12.0117 6.875 11.7285 7.28516 11.7285C7.62695 11.7285 7.8418 11.8945 7.97852 12.2461C8.22266 12.9395 8.82812 13.4668 9.92188 13.4668C11.0938 13.4668 11.8848 12.8809 11.8848 11.9727C11.8848 11.0645 11.1035 10.4395 9.9707 10.4395L9.27734 10.4395C8.91602 10.4395 8.65234 10.1758 8.65234 9.82422C8.65234 9.44336 8.91602 9.18945 9.27734 9.18945L9.91211 9.18945C10.8789 9.18945 11.5723 8.58398 11.5723 7.75391C11.5723 6.94336 10.957 6.44531 9.95117 6.44531C9.01367 6.44531 8.38867 6.91406 8.16406 7.66602C8.04688 8.01758 7.83203 8.19336 7.4707 8.19336C7.07031 8.19336 6.77734 7.91992 6.77734 7.51953C6.77734 7.37305 6.79688 7.26562 6.82617 7.11914C7.09961 5.92773 8.33984 5.16602 9.98047 5.16602C11.7871 5.16602 13.0664 6.17188 13.0664 7.57812C13.0664 8.63281 12.2852 9.56055 11.2695 9.70703L11.2695 9.78516C12.5 9.90234 13.3887 10.8496 13.3887 12.0312C13.3887 13.623 12.0508 14.7559 9.89258 14.7559Z" fill="#ffffff"/>
 </g>
</svg>
