<?xml version="1.0" encoding="UTF-8"?>
<!--Generator: Apple Native CoreSVG 175.5-->
<!DOCTYPE svg
PUBLIC "-//W3C//DTD SVG 1.1//EN"
       "http://www.w3.org/Graphics/SVG/1.1/DTD/svg11.dtd">
<svg version="1.1" xmlns="http://www.w3.org/2000/svg" xmlns:xlink="http://www.w3.org/1999/xlink" width="19.9219" height="19.9316">
 <g>
  <rect height="19.9316" opacity="0" width="19.9219" x="0" y="0"/>
  <path d="M9.96094 19.9219C15.4102 19.9219 19.9219 15.4004 19.9219 9.96094C19.9219 4.51172 15.4004 0 9.95117 0C4.51172 0 0 4.51172 0 9.96094C0 15.4004 4.52148 19.9219 9.96094 19.9219ZM9.96094 18.2617C5.35156 18.2617 1.66992 14.5703 1.66992 9.96094C1.66992 5.35156 5.3418 1.66016 9.95117 1.66016C14.5605 1.66016 18.2617 5.35156 18.2617 9.96094C18.2617 14.5703 14.5703 18.2617 9.96094 18.2617Z" fill="#000000" fill-opacity="0.85"/>
  <path d="M9.88281 14.6094C11.9727 14.6094 13.2715 13.5059 13.2715 11.9727C13.2715 10.8203 12.4121 9.90234 11.2207 9.79492L11.2207 9.7168C12.1973 9.57031 12.959 8.67188 12.959 7.64648C12.959 6.28906 11.7188 5.3125 9.9707 5.3125C8.37891 5.3125 7.17773 6.05469 6.91406 7.20703C6.88477 7.34375 6.86523 7.45117 6.86523 7.59766C6.86523 7.97852 7.14844 8.24219 7.53906 8.24219C7.89062 8.24219 8.0957 8.07617 8.20312 7.73438C8.42773 7.00195 9.0332 6.54297 9.94141 6.54297C10.918 6.54297 11.5137 7.03125 11.5137 7.82227C11.5137 8.62305 10.8398 9.21875 9.90234 9.21875L9.28711 9.21875C8.93555 9.21875 8.68164 9.46289 8.68164 9.82422C8.68164 10.166 8.93555 10.4199 9.28711 10.4199L9.96094 10.4199C11.0645 10.4199 11.8164 11.0254 11.8164 11.9141C11.8164 12.793 11.0547 13.3691 9.91211 13.3691C8.85742 13.3691 8.26172 12.8516 8.02734 12.1777C7.89062 11.8359 7.68555 11.6797 7.35352 11.6797C6.96289 11.6797 6.67969 11.9531 6.67969 12.3438C6.67969 12.4902 6.68945 12.5781 6.72852 12.7148C7.02148 13.8379 8.29102 14.6094 9.88281 14.6094Z" fill="#000000" fill-opacity="0.85"/>
 </g>
</svg>
