<?xml version="1.0" encoding="UTF-8"?>
<!--Generator: Apple Native CoreSVG 175.5-->
<!DOCTYPE svg
PUBLIC "-//W3C//DTD SVG 1.1//EN"
       "http://www.w3.org/Graphics/SVG/1.1/DTD/svg11.dtd">
<svg version="1.1" xmlns="http://www.w3.org/2000/svg" xmlns:xlink="http://www.w3.org/1999/xlink" width="17.9785" height="17.998">
 <g>
  <rect height="17.998" opacity="0" width="17.9785" x="0" y="0"/>
  <path d="M3.06641 17.998L14.9121 17.998C16.9629 17.998 17.9785 16.9824 17.9785 14.9707L17.9785 3.04688C17.9785 1.03516 16.9629 0.0195312 14.9121 0.0195312L3.06641 0.0195312C1.02539 0.0195312 0 1.02539 0 3.04688L0 14.9707C0 16.9922 1.02539 17.998 3.06641 17.998Z" fill="#000000" fill-opacity="0.85"/>
  <path d="M8.92578 13.7891C7.27539 13.7891 5.9668 12.998 5.66406 11.8359C5.625 11.6895 5.61523 11.6016 5.61523 11.4551C5.61523 11.0449 5.9082 10.7617 6.31836 10.7617C6.66016 10.7617 6.875 10.9277 7.01172 11.2793C7.25586 11.9727 7.86133 12.5 8.95508 12.5C10.127 12.5 10.918 11.9141 10.918 11.0059C10.918 10.0977 10.1367 9.47266 9.00391 9.47266L8.32031 9.47266C7.94922 9.47266 7.68555 9.20898 7.68555 8.85742C7.68555 8.47656 7.94922 8.22266 8.32031 8.22266L8.94531 8.22266C9.91211 8.22266 10.6055 7.61719 10.6055 6.78711C10.6055 5.97656 9.99023 5.47852 8.98438 5.47852C8.04688 5.47852 7.42188 5.94727 7.19727 6.69922C7.08008 7.05078 6.86523 7.22656 6.50391 7.22656C6.10352 7.22656 5.82031 6.95312 5.82031 6.55273C5.82031 6.40625 5.83008 6.29883 5.85938 6.15234C6.13281 4.96094 7.37305 4.19922 9.01367 4.19922C10.8203 4.19922 12.0996 5.20508 12.0996 6.61133C12.0996 7.66602 11.3184 8.59375 10.3027 8.74023L10.3027 8.81836C11.5332 8.93555 12.4219 9.88281 12.4219 11.0645C12.4219 12.6562 11.0938 13.7891 8.92578 13.7891Z" fill="#ffffff"/>
 </g>
</svg>
