<?xml version="1.0" encoding="UTF-8"?>
<!--Generator: Apple Native CoreSVG 175.5-->
<!DOCTYPE svg
PUBLIC "-//W3C//DTD SVG 1.1//EN"
       "http://www.w3.org/Graphics/SVG/1.1/DTD/svg11.dtd">
<svg version="1.1" xmlns="http://www.w3.org/2000/svg" xmlns:xlink="http://www.w3.org/1999/xlink" width="17.9785" height="17.998">
 <g>
  <rect height="17.998" opacity="0" width="17.9785" x="0" y="0"/>
  <path d="M3.06641 17.998L14.9121 17.998C16.9629 17.998 17.9785 16.9824 17.9785 14.9707L17.9785 3.04688C17.9785 1.03516 16.9629 0.0195312 14.9121 0.0195312L3.06641 0.0195312C1.02539 0.0195312 0 1.02539 0 3.04688L0 14.9707C0 16.9922 1.02539 17.998 3.06641 17.998ZM3.08594 16.4258C2.10938 16.4258 1.57227 15.9082 1.57227 14.8926L1.57227 3.125C1.57227 2.10938 2.10938 1.5918 3.08594 1.5918L14.8926 1.5918C15.8594 1.5918 16.4062 2.10938 16.4062 3.125L16.4062 14.8926C16.4062 15.9082 15.8594 16.4258 14.8926 16.4258Z" fill="#000000" fill-opacity="0.85"/>
  <path d="M8.92578 13.6426C11.0254 13.6426 12.3145 12.5391 12.3145 11.0059C12.3145 9.85352 11.4551 8.93555 10.2637 8.82812L10.2637 8.75C11.2402 8.60352 12.002 7.70508 12.002 6.67969C12.002 5.32227 10.7617 4.3457 9.01367 4.3457C7.42188 4.3457 6.2207 5.08789 5.95703 6.24023C5.92773 6.37695 5.91797 6.48438 5.91797 6.63086C5.91797 7.01172 6.19141 7.27539 6.58203 7.27539C6.93359 7.27539 7.13867 7.10938 7.24609 6.76758C7.4707 6.03516 8.07617 5.57617 8.98438 5.57617C9.96094 5.57617 10.5566 6.06445 10.5566 6.85547C10.5566 7.65625 9.88281 8.25195 8.94531 8.25195L8.33984 8.25195C7.97852 8.25195 7.72461 8.49609 7.72461 8.85742C7.72461 9.19922 7.97852 9.45312 8.33984 9.45312L9.00391 9.45312C10.1074 9.45312 10.8594 10.0586 10.8594 10.9473C10.8594 11.8262 10.0977 12.4023 8.95508 12.4023C7.90039 12.4023 7.30469 11.8848 7.07031 11.2109C6.93359 10.8691 6.72852 10.7129 6.39648 10.7129C6.00586 10.7129 5.72266 10.9863 5.72266 11.377C5.72266 11.5234 5.73242 11.6113 5.77148 11.748C6.06445 12.8711 7.33398 13.6426 8.92578 13.6426Z" fill="#000000" fill-opacity="0.85"/>
 </g>
</svg>
