<?xml version="1.0" encoding="UTF-8"?>
<!--Generator: Apple Native CoreSVG 175.5-->
<!DOCTYPE svg
PUBLIC "-//W3C//DTD SVG 1.1//EN"
       "http://www.w3.org/Graphics/SVG/1.1/DTD/svg11.dtd">
<svg version="1.1" xmlns="http://www.w3.org/2000/svg" xmlns:xlink="http://www.w3.org/1999/xlink" width="19.9219" height="19.9316">
 <g>
  <rect height="19.9316" opacity="0" width="19.9219" x="0" y="0"/>
  <path d="M9.96094 19.9219C15.4102 19.9219 19.9219 15.4004 19.9219 9.96094C19.9219 4.51172 15.4004 0 9.95117 0C4.51172 0 0 4.51172 0 9.96094C0 15.4004 4.52148 19.9219 9.96094 19.9219ZM9.96094 18.2617C5.35156 18.2617 1.66992 14.5703 1.66992 9.96094C1.66992 5.35156 5.3418 1.66016 9.95117 1.66016C14.5605 1.66016 18.2617 5.35156 18.2617 9.96094C18.2617 14.5703 14.5703 18.2617 9.96094 18.2617Z" fill="#000000" fill-opacity="0.85"/>
  <path d="M6.64062 14.1504C8.30078 14.1504 9.45312 13.1543 9.45312 11.748C9.45312 10.7129 8.74023 9.87305 7.75391 9.78516L7.75391 9.72656C8.55469 9.58984 9.18945 8.7793 9.18945 7.86133C9.18945 6.61133 8.16406 5.74219 6.70898 5.74219C5.39062 5.74219 4.4043 6.49414 4.15039 7.45117C4.13086 7.57812 4.13086 7.66602 4.13086 7.80273C4.13086 8.1543 4.3457 8.39844 4.6875 8.39844C4.98047 8.39844 5.13672 8.24219 5.22461 7.92969C5.44922 7.23633 5.91797 6.86523 6.67969 6.86523C7.45117 6.86523 7.99805 7.33398 7.99805 8.01758C7.99805 8.73047 7.45117 9.24805 6.66992 9.24805L6.14258 9.24805C5.83008 9.24805 5.60547 9.47266 5.60547 9.82422C5.60547 10.1367 5.82031 10.3809 6.14258 10.3809L6.71875 10.3809C7.64648 10.3809 8.24219 10.8984 8.24219 11.6895C8.24219 12.4512 7.58789 13.0273 6.65039 13.0273C5.87891 13.0273 5.35156 12.6562 5.08789 11.9629C4.9707 11.6602 4.80469 11.5039 4.53125 11.5039C4.19922 11.5039 3.96484 11.7383 3.96484 12.0898C3.96484 12.2266 3.98438 12.3242 4.01367 12.4414C4.27734 13.3398 5.3125 14.1504 6.64062 14.1504ZM13.2129 14.1504C14.8926 14.1504 16.0059 12.5488 16.0059 9.95117C16.0059 7.34375 14.8926 5.74219 13.2129 5.74219C11.5332 5.74219 10.4199 7.34375 10.4199 9.95117C10.4199 12.5488 11.5332 14.1504 13.2129 14.1504ZM13.2129 12.9688C12.2852 12.9688 11.6992 11.8164 11.6992 9.95117C11.6992 8.07617 12.2852 6.92383 13.2129 6.92383C14.1406 6.92383 14.7266 8.07617 14.7266 9.95117C14.7266 11.8164 14.1504 12.9688 13.2129 12.9688Z" fill="#000000" fill-opacity="0.85"/>
 </g>
</svg>
