<?xml version="1.0" encoding="UTF-8"?>
<!--Generator: Apple Native CoreSVG 175.5-->
<!DOCTYPE svg
PUBLIC "-//W3C//DTD SVG 1.1//EN"
       "http://www.w3.org/Graphics/SVG/1.1/DTD/svg11.dtd">
<svg version="1.1" xmlns="http://www.w3.org/2000/svg" xmlns:xlink="http://www.w3.org/1999/xlink" width="17.9785" height="17.998">
 <g>
  <rect height="17.998" opacity="0" width="17.9785" x="0" y="0"/>
  <path d="M3.06641 17.998L14.9121 17.998C16.9629 17.998 17.9785 16.9824 17.9785 14.9707L17.9785 3.04688C17.9785 1.03516 16.9629 0.0195312 14.9121 0.0195312L3.06641 0.0195312C1.02539 0.0195312 0 1.02539 0 3.04688L0 14.9707C0 16.9922 1.02539 17.998 3.06641 17.998Z" fill="#000000" fill-opacity="0.85"/>
  <path d="M5.57617 13.3203C4.20898 13.3203 3.14453 12.4805 2.87109 11.5527C2.8418 11.4355 2.82227 11.3281 2.82227 11.1914C2.82227 10.8301 3.05664 10.5859 3.4082 10.5859C3.69141 10.5859 3.85742 10.7422 3.98438 11.0547C4.25781 11.7676 4.79492 12.1484 5.58594 12.1484C6.55273 12.1484 7.22656 11.5625 7.22656 10.7812C7.22656 9.96094 6.61133 9.43359 5.66406 9.43359L5.06836 9.43359C4.73633 9.43359 4.51172 9.17969 4.51172 8.85742C4.51172 8.48633 4.74609 8.25195 5.06836 8.25195L5.60547 8.25195C6.41602 8.25195 6.97266 7.72461 6.97266 6.99219C6.97266 6.28906 6.41602 5.81055 5.61523 5.81055C4.83398 5.81055 4.35547 6.19141 4.13086 6.9043C4.0332 7.22656 3.86719 7.38281 3.56445 7.38281C3.21289 7.38281 2.98828 7.12891 2.98828 6.76758C2.98828 6.63086 2.98828 6.5332 3.01758 6.40625C3.28125 5.41992 4.28711 4.63867 5.6543 4.63867C7.14844 4.63867 8.22266 5.53711 8.22266 6.82617C8.22266 7.77344 7.56836 8.61328 6.72852 8.75L6.72852 8.80859C7.74414 8.90625 8.49609 9.76562 8.49609 10.8398C8.49609 12.2852 7.29492 13.3203 5.57617 13.3203ZM12.3535 13.3203C10.625 13.3203 9.47266 11.6699 9.47266 8.98438C9.47266 6.28906 10.625 4.63867 12.3535 4.63867C14.0918 4.63867 15.2344 6.28906 15.2344 8.98438C15.2344 11.6699 14.0918 13.3203 12.3535 13.3203ZM12.3535 12.0898C13.3301 12.0898 13.916 10.9082 13.916 8.98438C13.916 7.05078 13.3203 5.86914 12.3535 5.86914C11.4062 5.86914 10.8008 7.05078 10.8008 8.98438C10.8008 10.9082 11.4062 12.0898 12.3535 12.0898Z" fill="#ffffff"/>
 </g>
</svg>
