<?xml version="1.0" encoding="UTF-8"?>
<!--Generator: Apple Native CoreSVG 175.5-->
<!DOCTYPE svg
PUBLIC "-//W3C//DTD SVG 1.1//EN"
       "http://www.w3.org/Graphics/SVG/1.1/DTD/svg11.dtd">
<svg version="1.1" xmlns="http://www.w3.org/2000/svg" xmlns:xlink="http://www.w3.org/1999/xlink" width="19.9219" height="19.9316">
 <g>
  <rect height="19.9316" opacity="0" width="19.9219" x="0" y="0"/>
  <path d="M9.96094 19.9219C15.4102 19.9219 19.9219 15.4004 19.9219 9.96094C19.9219 4.51172 15.4004 0 9.95117 0C4.51172 0 0 4.51172 0 9.96094C0 15.4004 4.52148 19.9219 9.96094 19.9219ZM9.96094 18.2617C5.35156 18.2617 1.66992 14.5703 1.66992 9.96094C1.66992 5.35156 5.3418 1.66016 9.95117 1.66016C14.5605 1.66016 18.2617 5.35156 18.2617 9.96094C18.2617 14.5703 14.5703 18.2617 9.96094 18.2617Z" fill="#000000" fill-opacity="0.85"/>
  <path d="M7.40234 14.1699C9.0625 14.1699 10.2246 13.1738 10.2246 11.7676C10.2246 10.7324 9.50195 9.89258 8.51562 9.79492L8.51562 9.73633C9.32617 9.59961 9.96094 8.78906 9.96094 7.87109C9.96094 6.62109 8.93555 5.75195 7.4707 5.75195C6.15234 5.75195 5.17578 6.50391 4.92188 7.46094C4.89258 7.58789 4.89258 7.68555 4.89258 7.8125C4.89258 8.16406 5.11719 8.4082 5.44922 8.4082C5.74219 8.4082 5.89844 8.25195 5.99609 7.93945C6.21094 7.25586 6.67969 6.875 7.44141 6.875C8.22266 6.875 8.75977 7.34375 8.75977 8.02734C8.75977 8.74023 8.21289 9.25781 7.43164 9.25781L6.9043 9.25781C6.5918 9.25781 6.37695 9.48242 6.37695 9.83398C6.37695 10.1465 6.5918 10.3906 6.9043 10.3906L7.48047 10.3906C8.4082 10.3906 9.00391 10.918 9.00391 11.709C9.00391 12.4707 8.34961 13.0469 7.41211 13.0469C6.64062 13.0469 6.11328 12.666 5.84961 11.9824C5.73242 11.6699 5.56641 11.5137 5.29297 11.5137C4.9707 11.5137 4.72656 11.7578 4.72656 12.0996C4.72656 12.2363 4.74609 12.334 4.77539 12.4609C5.03906 13.3594 6.07422 14.1699 7.40234 14.1699ZM14.1992 14.0527C14.5703 14.0527 14.8145 13.8086 14.8145 13.4277L14.8145 6.51367C14.8145 6.10352 14.541 5.81055 14.1309 5.81055C13.8086 5.81055 13.623 5.9082 13.2715 6.14258L11.7871 7.1582C11.582 7.30469 11.4648 7.48047 11.4648 7.73438C11.4648 8.06641 11.7383 8.32031 12.0215 8.32031C12.1777 8.32031 12.2656 8.31055 12.5 8.13477L13.5352 7.36328L13.5938 7.36328L13.5938 13.4277C13.5938 13.8086 13.8379 14.0527 14.1992 14.0527Z" fill="#000000" fill-opacity="0.85"/>
 </g>
</svg>
