<?xml version="1.0" encoding="UTF-8"?>
<!--Generator: Apple Native CoreSVG 175.5-->
<!DOCTYPE svg
PUBLIC "-//W3C//DTD SVG 1.1//EN"
       "http://www.w3.org/Graphics/SVG/1.1/DTD/svg11.dtd">
<svg version="1.1" xmlns="http://www.w3.org/2000/svg" xmlns:xlink="http://www.w3.org/1999/xlink" width="17.9785" height="17.998">
 <g>
  <rect height="17.998" opacity="0" width="17.9785" x="0" y="0"/>
  <path d="M3.06641 17.998L14.9121 17.998C16.9629 17.998 17.9785 16.9824 17.9785 14.9707L17.9785 3.04688C17.9785 1.03516 16.9629 0.0195312 14.9121 0.0195312L3.06641 0.0195312C1.02539 0.0195312 0 1.02539 0 3.04688L0 14.9707C0 16.9922 1.02539 17.998 3.06641 17.998Z" fill="#000000" fill-opacity="0.85"/>
  <path d="M6.37695 13.3398C5 13.3398 3.92578 12.5 3.67188 11.5723C3.63281 11.4453 3.61328 11.3379 3.61328 11.2012C3.61328 10.8496 3.85742 10.5957 4.19922 10.5957C4.49219 10.5957 4.64844 10.752 4.77539 11.0742C5.03906 11.7773 5.58594 12.168 6.38672 12.168C7.35352 12.168 8.01758 11.582 8.01758 10.8008C8.01758 9.98047 7.40234 9.44336 6.44531 9.44336L5.85938 9.44336C5.53711 9.44336 5.3125 9.18945 5.3125 8.86719C5.3125 8.49609 5.53711 8.26172 5.85938 8.26172L6.39648 8.26172C7.20703 8.26172 7.76367 7.73438 7.76367 7.00195C7.76367 6.29883 7.2168 5.82031 6.40625 5.82031C5.625 5.82031 5.14648 6.21094 4.92188 6.91406C4.82422 7.23633 4.6582 7.39258 4.35547 7.39258C4.01367 7.39258 3.7793 7.13867 3.7793 6.77734C3.7793 6.65039 3.7793 6.54297 3.80859 6.41602C4.07227 5.42969 5.07812 4.64844 6.44531 4.64844C7.94922 4.64844 9.01367 5.54688 9.01367 6.83594C9.01367 7.7832 8.35938 8.62305 7.51953 8.75977L7.51953 8.81836C8.53516 8.92578 9.27734 9.78516 9.27734 10.8594C9.27734 12.3047 8.08594 13.3398 6.37695 13.3398ZM13.3789 13.2129C13.0078 13.2129 12.7539 12.959 12.7539 12.5684L12.7539 6.31836L12.7051 6.31836L11.6309 7.10938C11.3965 7.29492 11.2988 7.30469 11.1328 7.30469C10.8398 7.30469 10.5566 7.04102 10.5566 6.69922C10.5566 6.43555 10.6836 6.25 10.8887 6.10352L12.4219 5.05859C12.7832 4.81445 12.9785 4.7168 13.3105 4.7168C13.7305 4.7168 14.0137 5.01953 14.0137 5.43945L14.0137 12.5684C14.0137 12.959 13.7695 13.2129 13.3789 13.2129Z" fill="#ffffff"/>
 </g>
</svg>
