<?xml version="1.0" encoding="UTF-8"?>
<!--Generator: Apple Native CoreSVG 175.5-->
<!DOCTYPE svg
PUBLIC "-//W3C//DTD SVG 1.1//EN"
       "http://www.w3.org/Graphics/SVG/1.1/DTD/svg11.dtd">
<svg version="1.1" xmlns="http://www.w3.org/2000/svg" xmlns:xlink="http://www.w3.org/1999/xlink" width="19.9219" height="19.9316">
 <g>
  <rect height="19.9316" opacity="0" width="19.9219" x="0" y="0"/>
  <path d="M9.96094 19.9219C15.4102 19.9219 19.9219 15.4004 19.9219 9.96094C19.9219 4.51172 15.4004 0 9.95117 0C4.51172 0 0 4.51172 0 9.96094C0 15.4004 4.52148 19.9219 9.96094 19.9219Z" fill="#000000" fill-opacity="0.85"/>
  <path d="M6.60156 14.3066C5.23438 14.3066 4.16992 13.4668 3.89648 12.5391C3.86719 12.4121 3.84766 12.3047 3.84766 12.168C3.84766 11.8164 4.0918 11.5625 4.43359 11.5625C4.7168 11.5625 4.88281 11.7188 5.00977 12.041C5.2832 12.7441 5.82031 13.1348 6.61133 13.1348C7.57812 13.1348 8.25195 12.5488 8.25195 11.7676C8.25195 10.9473 7.63672 10.4102 6.68945 10.4102L6.09375 10.4102C5.76172 10.4102 5.53711 10.1562 5.53711 9.83398C5.53711 9.46289 5.77148 9.22852 6.09375 9.22852L6.64062 9.22852C7.44141 9.22852 7.99805 8.70117 7.99805 7.96875C7.99805 7.26562 7.44141 6.78711 6.65039 6.78711C5.85938 6.78711 5.38086 7.17773 5.15625 7.88086C5.05859 8.20312 4.89258 8.35938 4.58984 8.35938C4.23828 8.35938 4.01367 8.10547 4.01367 7.74414C4.01367 7.61719 4.01367 7.50977 4.04297 7.38281C4.30664 6.39648 5.3125 5.61523 6.67969 5.61523C8.17383 5.61523 9.23828 6.51367 9.23828 7.80273C9.23828 8.75 8.59375 9.58984 7.75391 9.72656L7.75391 9.78516C8.76953 9.89258 9.52148 10.752 9.52148 11.8262C9.52148 13.2715 8.32031 14.3066 6.60156 14.3066ZM11.4453 14.0723C11.084 14.0723 10.8594 13.8379 10.8594 13.4766C10.8594 13.2715 10.9277 13.0957 11.084 12.9297L13.7305 9.80469C14.209 9.24805 14.7363 8.68164 14.7363 8.02734C14.7363 7.28516 14.2188 6.78711 13.418 6.78711C12.6953 6.78711 12.1777 7.14844 11.9238 7.91016C11.7969 8.21289 11.6406 8.37891 11.3477 8.37891C10.9961 8.37891 10.7812 8.13477 10.7812 7.77344C10.7812 7.65625 10.8008 7.53906 10.8301 7.41211C11.084 6.38672 12.1582 5.61523 13.3594 5.61523C14.9316 5.61523 15.9668 6.51367 15.9668 7.91992C15.9668 8.92578 15.4102 9.64844 14.668 10.5176L12.6953 12.8027L12.6953 12.8809L15.6152 12.8809C15.9375 12.8809 16.1719 13.0859 16.1719 13.4668C16.1719 13.8281 15.9375 14.0723 15.6152 14.0723Z" fill="#ffffff"/>
 </g>
</svg>
