<?xml version="1.0" encoding="UTF-8"?>
<!--Generator: Apple Native CoreSVG 175.5-->
<!DOCTYPE svg
PUBLIC "-//W3C//DTD SVG 1.1//EN"
       "http://www.w3.org/Graphics/SVG/1.1/DTD/svg11.dtd">
<svg version="1.1" xmlns="http://www.w3.org/2000/svg" xmlns:xlink="http://www.w3.org/1999/xlink" width="17.9785" height="17.998">
 <g>
  <rect height="17.998" opacity="0" width="17.9785" x="0" y="0"/>
  <path d="M3.06641 17.998L14.9121 17.998C16.9629 17.998 17.9785 16.9824 17.9785 14.9707L17.9785 3.04688C17.9785 1.03516 16.9629 0.0195312 14.9121 0.0195312L3.06641 0.0195312C1.02539 0.0195312 0 1.02539 0 3.04688L0 14.9707C0 16.9922 1.02539 17.998 3.06641 17.998Z" fill="#000000" fill-opacity="0.85"/>
  <path d="M5.63477 13.3398C4.26758 13.3398 3.20312 12.5 2.92969 11.5723C2.90039 11.4453 2.88086 11.3379 2.88086 11.2012C2.88086 10.8496 3.125 10.5957 3.4668 10.5957C3.75 10.5957 3.91602 10.752 4.04297 11.0742C4.31641 11.7773 4.85352 12.168 5.64453 12.168C6.61133 12.168 7.28516 11.582 7.28516 10.8008C7.28516 9.98047 6.66992 9.44336 5.72266 9.44336L5.12695 9.44336C4.79492 9.44336 4.58008 9.18945 4.58008 8.86719C4.58008 8.49609 4.80469 8.26172 5.12695 8.26172L5.67383 8.26172C6.47461 8.26172 7.03125 7.73438 7.03125 7.00195C7.03125 6.29883 6.47461 5.82031 5.68359 5.82031C4.89258 5.82031 4.41406 6.21094 4.18945 6.91406C4.0918 7.23633 3.92578 7.39258 3.62305 7.39258C3.27148 7.39258 3.04688 7.13867 3.04688 6.77734C3.04688 6.65039 3.04688 6.54297 3.07617 6.41602C3.33984 5.42969 4.3457 4.64844 5.71289 4.64844C7.20703 4.64844 8.28125 5.54688 8.28125 6.83594C8.28125 7.7832 7.62695 8.62305 6.78711 8.75977L6.78711 8.81836C7.80273 8.92578 8.55469 9.78516 8.55469 10.8594C8.55469 12.3047 7.35352 13.3398 5.63477 13.3398ZM10.4785 13.1055C10.127 13.1055 9.89258 12.8711 9.89258 12.5098C9.89258 12.3047 9.96094 12.1289 10.1172 11.9629L12.7637 8.83789C13.2422 8.28125 13.7695 7.71484 13.7695 7.06055C13.7695 6.31836 13.252 5.82031 12.4512 5.82031C11.7285 5.82031 11.2109 6.18164 10.957 6.94336C10.8301 7.24609 10.6738 7.41211 10.3809 7.41211C10.0293 7.41211 9.81445 7.16797 9.81445 6.80664C9.81445 6.68945 9.83398 6.57227 9.86328 6.44531C10.127 5.41992 11.2012 4.64844 12.3926 4.64844C13.9746 4.64844 15 5.54688 15 6.95312C15 7.95898 14.4434 8.68164 13.7012 9.55078L11.7285 11.8359L11.7285 11.9141L14.6484 11.9141C14.9707 11.9141 15.2148 12.1191 15.2148 12.5C15.2148 12.8613 14.9707 13.1055 14.6484 13.1055Z" fill="#ffffff"/>
 </g>
</svg>
