<?xml version="1.0" encoding="UTF-8"?>
<!--Generator: Apple Native CoreSVG 175.5-->
<!DOCTYPE svg
PUBLIC "-//W3C//DTD SVG 1.1//EN"
       "http://www.w3.org/Graphics/SVG/1.1/DTD/svg11.dtd">
<svg version="1.1" xmlns="http://www.w3.org/2000/svg" xmlns:xlink="http://www.w3.org/1999/xlink" width="19.9219" height="19.9316">
 <g>
  <rect height="19.9316" opacity="0" width="19.9219" x="0" y="0"/>
  <path d="M9.96094 19.9219C15.4102 19.9219 19.9219 15.4004 19.9219 9.96094C19.9219 4.51172 15.4004 0 9.95117 0C4.51172 0 0 4.51172 0 9.96094C0 15.4004 4.52148 19.9219 9.96094 19.9219Z" fill="#000000" fill-opacity="0.85"/>
  <path d="M6.52344 14.3066C5.14648 14.3066 4.07227 13.4668 3.80859 12.5391C3.76953 12.4121 3.75 12.3047 3.75 12.168C3.75 11.8164 4.00391 11.5625 4.33594 11.5625C4.62891 11.5625 4.79492 11.7188 4.91211 12.041C5.18555 12.7441 5.73242 13.1348 6.5332 13.1348C7.49023 13.1348 8.16406 12.5488 8.16406 11.7676C8.16406 10.9473 7.54883 10.4102 6.5918 10.4102L6.00586 10.4102C5.67383 10.4102 5.45898 10.1562 5.45898 9.83398C5.45898 9.46289 5.67383 9.22852 6.00586 9.22852L6.54297 9.22852C7.34375 9.22852 7.91016 8.70117 7.91016 7.96875C7.91016 7.26562 7.35352 6.78711 6.55273 6.78711C5.77148 6.78711 5.29297 7.17773 5.06836 7.88086C4.96094 8.20312 4.80469 8.35938 4.50195 8.35938C4.16016 8.35938 3.92578 8.10547 3.92578 7.74414C3.92578 7.61719 3.92578 7.50977 3.95508 7.38281C4.21875 6.39648 5.22461 5.61523 6.58203 5.61523C8.0957 5.61523 9.15039 6.51367 9.15039 7.80273C9.15039 8.75 8.49609 9.58984 7.66602 9.72656L7.66602 9.78516C8.68164 9.89258 9.42383 10.752 9.42383 11.8262C9.42383 13.2715 8.22266 14.3066 6.52344 14.3066ZM13.4961 14.3066C12.1094 14.3066 11.0449 13.4668 10.7812 12.5391C10.7422 12.4121 10.7227 12.3047 10.7227 12.168C10.7227 11.8164 10.9766 11.5625 11.3086 11.5625C11.6016 11.5625 11.7676 11.7188 11.8848 12.041C12.1582 12.7441 12.6953 13.1348 13.5059 13.1348C14.4531 13.1348 15.127 12.5488 15.127 11.7676C15.127 10.9473 14.5215 10.4102 13.5645 10.4102L12.9688 10.4102C12.6465 10.4102 12.4219 10.1562 12.4219 9.83398C12.4219 9.46289 12.6465 9.22852 12.9688 9.22852L13.5156 9.22852C14.3164 9.22852 14.873 8.70117 14.873 7.96875C14.873 7.26562 14.3262 6.78711 13.5254 6.78711C12.7344 6.78711 12.2559 7.17773 12.0312 7.88086C11.9336 8.20312 11.7676 8.35938 11.4648 8.35938C11.123 8.35938 10.8887 8.10547 10.8887 7.74414C10.8887 7.61719 10.8887 7.50977 10.918 7.38281C11.1816 6.39648 12.1875 5.61523 13.5547 5.61523C15.0684 5.61523 16.123 6.51367 16.123 7.80273C16.123 8.75 15.4688 9.58984 14.6289 9.72656L14.6289 9.78516C15.6543 9.89258 16.3965 10.752 16.3965 11.8262C16.3965 13.2715 15.1953 14.3066 13.4961 14.3066Z" fill="#ffffff"/>
 </g>
</svg>
