<?xml version="1.0" encoding="UTF-8"?>
<!--Generator: Apple Native CoreSVG 175.5-->
<!DOCTYPE svg
PUBLIC "-//W3C//DTD SVG 1.1//EN"
       "http://www.w3.org/Graphics/SVG/1.1/DTD/svg11.dtd">
<svg version="1.1" xmlns="http://www.w3.org/2000/svg" xmlns:xlink="http://www.w3.org/1999/xlink" width="17.9785" height="17.998">
 <g>
  <rect height="17.998" opacity="0" width="17.9785" x="0" y="0"/>
  <path d="M3.06641 17.998L14.9121 17.998C16.9629 17.998 17.9785 16.9824 17.9785 14.9707L17.9785 3.04688C17.9785 1.03516 16.9629 0.0195312 14.9121 0.0195312L3.06641 0.0195312C1.02539 0.0195312 0 1.02539 0 3.04688L0 14.9707C0 16.9922 1.02539 17.998 3.06641 17.998ZM3.08594 16.4258C2.10938 16.4258 1.57227 15.9082 1.57227 14.8926L1.57227 3.125C1.57227 2.10938 2.10938 1.5918 3.08594 1.5918L14.8926 1.5918C15.8594 1.5918 16.4062 2.10938 16.4062 3.125L16.4062 14.8926C16.4062 15.9082 15.8594 16.4258 14.8926 16.4258Z" fill="#000000" fill-opacity="0.85"/>
  <path d="M5.64453 13.2031C7.30469 13.2031 8.45703 12.207 8.45703 10.8008C8.45703 9.76562 7.74414 8.92578 6.75781 8.82812L6.75781 8.76953C7.55859 8.63281 8.19336 7.82227 8.19336 6.9043C8.19336 5.6543 7.16797 4.78516 5.71289 4.78516C4.38477 4.78516 3.4082 5.53711 3.1543 6.49414C3.13477 6.62109 3.13477 6.71875 3.13477 6.8457C3.13477 7.19727 3.34961 7.44141 3.69141 7.44141C3.98438 7.44141 4.14062 7.28516 4.22852 6.97266C4.44336 6.28906 4.92188 5.9082 5.68359 5.9082C6.45508 5.9082 6.99219 6.37695 6.99219 7.06055C6.99219 7.77344 6.45508 8.29102 5.67383 8.29102L5.14648 8.29102C4.82422 8.29102 4.60938 8.51562 4.60938 8.86719C4.60938 9.17969 4.82422 9.42383 5.14648 9.42383L5.72266 9.42383C6.65039 9.42383 7.24609 9.95117 7.24609 10.7422C7.24609 11.5039 6.5918 12.0801 5.6543 12.0801C4.88281 12.0801 4.35547 11.6992 4.0918 11.0156C3.97461 10.7031 3.80859 10.5469 3.53516 10.5469C3.20312 10.5469 2.96875 10.791 2.96875 11.1328C2.96875 11.2695 2.98828 11.3672 3.01758 11.4941C3.27148 12.3926 4.31641 13.2031 5.64453 13.2031ZM13.6914 13.1836C14.0918 13.1836 14.2871 12.9102 14.2871 12.5293L14.2871 11.377L14.8242 11.377C15.1562 11.377 15.3711 11.1816 15.3711 10.8398C15.3711 10.4883 15.1562 10.2832 14.8242 10.2832L14.2871 10.2832L14.2871 5.71289C14.2871 5.14648 13.8965 4.78516 13.3301 4.78516C12.7637 4.78516 12.4121 5 12.0996 5.53711C11.2793 6.9043 10.293 8.58398 9.63867 9.76562C9.48242 10.0684 9.42383 10.2832 9.42383 10.5469C9.42383 11.0645 9.76562 11.377 10.2637 11.377L13.1055 11.377L13.1055 12.5293C13.1055 12.9004 13.3105 13.1836 13.6914 13.1836ZM13.1055 10.2832L10.7031 10.2832L10.7031 10.2441C11.2695 9.14062 12.2754 7.42188 13.0566 6.10352L13.1055 6.10352Z" fill="#000000" fill-opacity="0.85"/>
 </g>
</svg>
