<?xml version="1.0" encoding="UTF-8"?>
<!--Generator: Apple Native CoreSVG 175.5-->
<!DOCTYPE svg
PUBLIC "-//W3C//DTD SVG 1.1//EN"
       "http://www.w3.org/Graphics/SVG/1.1/DTD/svg11.dtd">
<svg version="1.1" xmlns="http://www.w3.org/2000/svg" xmlns:xlink="http://www.w3.org/1999/xlink" width="19.9219" height="19.9316">
 <g>
  <rect height="19.9316" opacity="0" width="19.9219" x="0" y="0"/>
  <path d="M9.96094 19.9219C15.4102 19.9219 19.9219 15.4004 19.9219 9.96094C19.9219 4.51172 15.4004 0 9.95117 0C4.51172 0 0 4.51172 0 9.96094C0 15.4004 4.52148 19.9219 9.96094 19.9219ZM9.96094 18.2617C5.35156 18.2617 1.66992 14.5703 1.66992 9.96094C1.66992 5.35156 5.3418 1.66016 9.95117 1.66016C14.5605 1.66016 18.2617 5.35156 18.2617 9.96094C18.2617 14.5703 14.5703 18.2617 9.96094 18.2617Z" fill="#000000" fill-opacity="0.85"/>
  <path d="M6.72852 14.1699C8.38867 14.1699 9.54102 13.1738 9.54102 11.7676C9.54102 10.7324 8.82812 9.89258 7.8418 9.79492L7.8418 9.73633C8.64258 9.59961 9.27734 8.78906 9.27734 7.87109C9.27734 6.62109 8.25195 5.75195 6.79688 5.75195C5.47852 5.75195 4.49219 6.50391 4.23828 7.46094C4.21875 7.58789 4.21875 7.68555 4.21875 7.8125C4.21875 8.16406 4.43359 8.4082 4.77539 8.4082C5.06836 8.4082 5.22461 8.25195 5.3125 7.93945C5.53711 7.25586 6.00586 6.875 6.76758 6.875C7.53906 6.875 8.08594 7.34375 8.08594 8.02734C8.08594 8.74023 7.53906 9.25781 6.75781 9.25781L6.23047 9.25781C5.91797 9.25781 5.69336 9.48242 5.69336 9.83398C5.69336 10.1465 5.9082 10.3906 6.23047 10.3906L6.80664 10.3906C7.73438 10.3906 8.33008 10.918 8.33008 11.709C8.33008 12.4707 7.67578 13.0469 6.73828 13.0469C5.9668 13.0469 5.43945 12.666 5.17578 11.9824C5.05859 11.6699 4.89258 11.5137 4.61914 11.5137C4.28711 11.5137 4.05273 11.7578 4.05273 12.0996C4.05273 12.2363 4.07227 12.334 4.10156 12.4609C4.36523 13.3594 5.40039 14.1699 6.72852 14.1699ZM13.2715 14.1699C14.9902 14.1699 16.1426 13.1152 16.1426 11.3965C16.1426 9.89258 15.127 8.79883 13.6133 8.79883C12.959 8.79883 12.2559 9.12109 11.9727 9.56055L11.9238 9.56055L12.1094 7.05078L15.3418 7.05078C15.6152 7.05078 15.8203 6.82617 15.8203 6.50391C15.8203 6.19141 15.625 5.95703 15.3418 5.95703L11.9824 5.95703C11.4746 5.95703 11.1328 6.26953 11.1035 6.78711L10.8594 9.83398C10.8301 10.3418 11.0938 10.6738 11.543 10.6738C11.8457 10.6738 12.0312 10.5957 12.3438 10.3418C12.7441 9.99023 13.0566 9.84375 13.4863 9.84375C14.3457 9.84375 14.9316 10.5273 14.9316 11.4258C14.9316 12.4512 14.2871 13.0664 13.3398 13.0664C12.6758 13.0664 12.0996 12.7148 11.8164 12.1289C11.6797 11.8457 11.4844 11.709 11.2598 11.709C10.9277 11.709 10.7129 11.9531 10.7129 12.2754C10.7129 12.4316 10.7422 12.5781 10.791 12.7148C11.084 13.5254 12.0508 14.1699 13.2715 14.1699Z" fill="#000000" fill-opacity="0.85"/>
 </g>
</svg>
