<?xml version="1.0" encoding="UTF-8"?>
<!--Generator: Apple Native CoreSVG 175.5-->
<!DOCTYPE svg
PUBLIC "-//W3C//DTD SVG 1.1//EN"
       "http://www.w3.org/Graphics/SVG/1.1/DTD/svg11.dtd">
<svg version="1.1" xmlns="http://www.w3.org/2000/svg" xmlns:xlink="http://www.w3.org/1999/xlink" width="19.9219" height="19.9316">
 <g>
  <rect height="19.9316" opacity="0" width="19.9219" x="0" y="0"/>
  <path d="M9.96094 19.9219C15.4102 19.9219 19.9219 15.4004 19.9219 9.96094C19.9219 4.51172 15.4004 0 9.95117 0C4.51172 0 0 4.51172 0 9.96094C0 15.4004 4.52148 19.9219 9.96094 19.9219ZM9.96094 18.2617C5.35156 18.2617 1.66992 14.5703 1.66992 9.96094C1.66992 5.35156 5.3418 1.66016 9.95117 1.66016C14.5605 1.66016 18.2617 5.35156 18.2617 9.96094C18.2617 14.5703 14.5703 18.2617 9.96094 18.2617Z" fill="#000000" fill-opacity="0.85"/>
  <path d="M6.55273 14.1699C8.21289 14.1699 9.36523 13.1738 9.36523 11.7676C9.36523 10.7324 8.65234 9.89258 7.66602 9.79492L7.66602 9.73633C8.4668 9.59961 9.10156 8.78906 9.10156 7.87109C9.10156 6.62109 8.07617 5.75195 6.62109 5.75195C5.29297 5.75195 4.31641 6.50391 4.0625 7.46094C4.04297 7.58789 4.0332 7.68555 4.0332 7.8125C4.0332 8.16406 4.25781 8.4082 4.58984 8.4082C4.88281 8.4082 5.03906 8.25195 5.13672 7.93945C5.35156 7.25586 5.83008 6.875 6.5918 6.875C7.36328 6.875 7.90039 7.34375 7.90039 8.02734C7.90039 8.74023 7.35352 9.25781 6.58203 9.25781L6.05469 9.25781C5.73242 9.25781 5.51758 9.48242 5.51758 9.83398C5.51758 10.1465 5.73242 10.3906 6.05469 10.3906L6.62109 10.3906C7.55859 10.3906 8.14453 10.918 8.14453 11.709C8.14453 12.4707 7.5 13.0469 6.5625 13.0469C5.79102 13.0469 5.25391 12.666 5 11.9824C4.88281 11.6699 4.7168 11.5137 4.44336 11.5137C4.11133 11.5137 3.87695 11.7578 3.87695 12.0996C3.87695 12.2363 3.88672 12.334 3.92578 12.4609C4.17969 13.3594 5.22461 14.1699 6.55273 14.1699ZM13.3887 14.1797C14.9707 14.1797 16.1035 13.1348 16.1035 11.3477C16.1035 9.66797 14.9512 8.74023 13.6816 8.74023C12.6465 8.74023 11.9824 9.32617 11.748 9.9707L11.6797 9.9707C11.6797 9.94141 11.6797 9.92188 11.6797 9.88281C11.6797 8.03711 12.4219 6.875 13.5254 6.875C14.082 6.875 14.4824 7.14844 14.7266 7.5293C14.8926 7.77344 15.0391 7.89062 15.3125 7.89062C15.5762 7.89062 15.791 7.67578 15.791 7.35352C15.791 7.22656 15.7715 7.10938 15.7227 6.98242C15.4688 6.32812 14.6875 5.75195 13.5742 5.75195C11.6895 5.75195 10.5273 7.2168 10.5273 10.1855C10.5273 11.377 10.7227 12.2461 11.0547 12.8613C11.5527 13.7988 12.3926 14.1797 13.3887 14.1797ZM13.3301 13.1055C12.4219 13.1055 11.7871 12.3926 11.7871 11.3867C11.7871 10.4297 12.4121 9.74609 13.3301 9.74609C14.248 9.74609 14.873 10.4199 14.873 11.3965C14.873 12.4414 14.2773 13.1055 13.3301 13.1055Z" fill="#000000" fill-opacity="0.85"/>
 </g>
</svg>
