<?xml version="1.0" encoding="UTF-8"?>
<!--Generator: Apple Native CoreSVG 175.5-->
<!DOCTYPE svg
PUBLIC "-//W3C//DTD SVG 1.1//EN"
       "http://www.w3.org/Graphics/SVG/1.1/DTD/svg11.dtd">
<svg version="1.1" xmlns="http://www.w3.org/2000/svg" xmlns:xlink="http://www.w3.org/1999/xlink" width="17.9785" height="17.998">
 <g>
  <rect height="17.998" opacity="0" width="17.9785" x="0" y="0"/>
  <path d="M3.06641 17.998L14.9121 17.998C16.9629 17.998 17.9785 16.9824 17.9785 14.9707L17.9785 3.04688C17.9785 1.03516 16.9629 0.0195312 14.9121 0.0195312L3.06641 0.0195312C1.02539 0.0195312 0 1.02539 0 3.04688L0 14.9707C0 16.9922 1.02539 17.998 3.06641 17.998Z" fill="#000000" fill-opacity="0.85"/>
  <path d="M5.48828 13.3398C4.12109 13.3398 3.03711 12.5 2.77344 11.5723C2.73438 11.4453 2.72461 11.3379 2.72461 11.2012C2.72461 10.8398 2.96875 10.5957 3.31055 10.5957C3.59375 10.5957 3.76953 10.752 3.88672 11.0742C4.16016 11.7773 4.70703 12.168 5.49805 12.168C6.46484 12.168 7.12891 11.582 7.12891 10.8008C7.12891 9.98047 6.52344 9.44336 5.56641 9.44336L4.98047 9.44336C4.63867 9.44336 4.42383 9.18945 4.42383 8.86719C4.42383 8.49609 4.63867 8.26172 4.98047 8.26172L5.51758 8.26172C6.31836 8.26172 6.875 7.73438 6.875 7.00195C6.875 6.29883 6.31836 5.82031 5.52734 5.82031C4.74609 5.82031 4.25781 6.21094 4.0332 6.91406C3.94531 7.23633 3.7793 7.39258 3.47656 7.39258C3.125 7.39258 2.90039 7.13867 2.90039 6.77734C2.90039 6.65039 2.90039 6.54297 2.91992 6.41602C3.18359 5.42969 4.18945 4.64844 5.55664 4.64844C7.06055 4.64844 8.11523 5.54688 8.11523 6.83594C8.11523 7.7832 7.46094 8.62305 6.64062 8.75977L6.64062 8.81836C7.65625 8.92578 8.38867 9.78516 8.38867 10.8594C8.38867 12.3047 7.19727 13.3398 5.48828 13.3398ZM12.5391 13.3496C11.5137 13.3496 10.6445 12.959 10.127 11.9824C9.78516 11.3574 9.59961 10.459 9.59961 9.22852C9.59961 6.16211 10.7812 4.64844 12.7344 4.64844C13.877 4.64844 14.6777 5.24414 14.9414 5.91797C15 6.05469 15.0195 6.17188 15.0195 6.30859C15.0195 6.64062 14.8047 6.86523 14.5215 6.86523C14.2383 6.86523 14.082 6.73828 13.916 6.48438C13.6621 6.09375 13.2617 5.82031 12.6758 5.82031C11.543 5.82031 10.7812 7.01172 10.7812 8.90625C10.7812 8.95508 10.7812 8.97461 10.7812 9.00391L10.8496 9.00391C11.1035 8.33984 11.7773 7.73438 12.8418 7.73438C14.1602 7.73438 15.3418 8.69141 15.3418 10.4199C15.3418 12.2656 14.1699 13.3496 12.5391 13.3496ZM12.4805 12.2363C13.4473 12.2363 14.0625 11.5527 14.0625 10.4785C14.0625 9.47266 13.418 8.7793 12.4805 8.7793C11.5332 8.7793 10.8887 9.48242 10.8887 10.4688C10.8887 11.5039 11.543 12.2363 12.4805 12.2363Z" fill="#ffffff"/>
 </g>
</svg>
