<?xml version="1.0" encoding="UTF-8"?>
<!--Generator: Apple Native CoreSVG 175.5-->
<!DOCTYPE svg
PUBLIC "-//W3C//DTD SVG 1.1//EN"
       "http://www.w3.org/Graphics/SVG/1.1/DTD/svg11.dtd">
<svg version="1.1" xmlns="http://www.w3.org/2000/svg" xmlns:xlink="http://www.w3.org/1999/xlink" width="19.9219" height="19.9316">
 <g>
  <rect height="19.9316" opacity="0" width="19.9219" x="0" y="0"/>
  <path d="M9.96094 19.9219C15.4102 19.9219 19.9219 15.4004 19.9219 9.96094C19.9219 4.51172 15.4004 0 9.95117 0C4.51172 0 0 4.51172 0 9.96094C0 15.4004 4.52148 19.9219 9.96094 19.9219ZM9.96094 18.2617C5.35156 18.2617 1.66992 14.5703 1.66992 9.96094C1.66992 5.35156 5.3418 1.66016 9.95117 1.66016C14.5605 1.66016 18.2617 5.35156 18.2617 9.96094C18.2617 14.5703 14.5703 18.2617 9.96094 18.2617Z" fill="#000000" fill-opacity="0.85"/>
  <path d="M6.82617 14.1699C8.48633 14.1699 9.64844 13.1738 9.64844 11.7676C9.64844 10.7324 8.92578 9.89258 7.93945 9.79492L7.93945 9.73633C8.75 9.59961 9.38477 8.78906 9.38477 7.87109C9.38477 6.62109 8.34961 5.75195 6.89453 5.75195C5.57617 5.75195 4.59961 6.50391 4.3457 7.46094C4.31641 7.58789 4.31641 7.68555 4.31641 7.8125C4.31641 8.16406 4.53125 8.4082 4.87305 8.4082C5.16602 8.4082 5.32227 8.25195 5.41992 7.93945C5.63477 7.25586 6.10352 6.875 6.86523 6.875C7.63672 6.875 8.18359 7.34375 8.18359 8.02734C8.18359 8.74023 7.63672 9.25781 6.85547 9.25781L6.32812 9.25781C6.01562 9.25781 5.79102 9.48242 5.79102 9.83398C5.79102 10.1465 6.00586 10.3906 6.32812 10.3906L6.9043 10.3906C7.83203 10.3906 8.42773 10.918 8.42773 11.709C8.42773 12.4707 7.77344 13.0469 6.83594 13.0469C6.06445 13.0469 5.53711 12.666 5.27344 11.9824C5.15625 11.6699 4.99023 11.5137 4.7168 11.5137C4.38477 11.5137 4.15039 11.7578 4.15039 12.0996C4.15039 12.2363 4.16992 12.334 4.19922 12.4609C4.46289 13.3594 5.49805 14.1699 6.82617 14.1699ZM12.1484 14.0625C12.4023 14.0625 12.5977 13.916 12.7637 13.584L15.8203 7.49023C15.9668 7.17773 16.0059 7.00195 16.0059 6.79688C16.0059 6.31836 15.6641 5.94727 15.1367 5.94727L11.1914 5.94727C10.8594 5.94727 10.625 6.17188 10.625 6.50391C10.625 6.82617 10.8594 7.04102 11.1914 7.04102L14.6289 7.04102L14.6289 7.11914L11.6016 12.9785C11.5137 13.125 11.4941 13.2422 11.4941 13.4277C11.4941 13.7988 11.7773 14.0625 12.1484 14.0625Z" fill="#000000" fill-opacity="0.85"/>
 </g>
</svg>
