<?xml version="1.0" encoding="UTF-8"?>
<!--Generator: Apple Native CoreSVG 175.5-->
<!DOCTYPE svg
PUBLIC "-//W3C//DTD SVG 1.1//EN"
       "http://www.w3.org/Graphics/SVG/1.1/DTD/svg11.dtd">
<svg version="1.1" xmlns="http://www.w3.org/2000/svg" xmlns:xlink="http://www.w3.org/1999/xlink" width="19.9219" height="19.9316">
 <g>
  <rect height="19.9316" opacity="0" width="19.9219" x="0" y="0"/>
  <path d="M9.96094 19.9219C15.4102 19.9219 19.9219 15.4004 19.9219 9.96094C19.9219 4.51172 15.4004 0 9.95117 0C4.51172 0 0 4.51172 0 9.96094C0 15.4004 4.52148 19.9219 9.96094 19.9219Z" fill="#000000" fill-opacity="0.85"/>
  <path d="M6.72852 14.3066C5.36133 14.3066 4.29688 13.4668 4.02344 12.5391C3.99414 12.4121 3.97461 12.3047 3.97461 12.168C3.97461 11.8164 4.21875 11.5625 4.56055 11.5625C4.84375 11.5625 5.00977 11.7188 5.13672 12.041C5.41016 12.7441 5.94727 13.1348 6.74805 13.1348C7.70508 13.1348 8.37891 12.5488 8.37891 11.7676C8.37891 10.9473 7.76367 10.4102 6.81641 10.4102L6.2207 10.4102C5.88867 10.4102 5.66406 10.1562 5.66406 9.83398C5.66406 9.46289 5.89844 9.22852 6.2207 9.22852L6.76758 9.22852C7.56836 9.22852 8.125 8.70117 8.125 7.96875C8.125 7.26562 7.56836 6.78711 6.77734 6.78711C5.98633 6.78711 5.50781 7.17773 5.2832 7.88086C5.18555 8.20312 5.01953 8.35938 4.7168 8.35938C4.36523 8.35938 4.14062 8.10547 4.14062 7.74414C4.14062 7.61719 4.14062 7.50977 4.16992 7.38281C4.43359 6.39648 5.43945 5.61523 6.80664 5.61523C8.31055 5.61523 9.375 6.51367 9.375 7.80273C9.375 8.75 8.7207 9.58984 7.88086 9.72656L7.88086 9.78516C8.89648 9.89258 9.64844 10.752 9.64844 11.8262C9.64844 13.2715 8.44727 14.3066 6.72852 14.3066ZM12.2266 14.1895C11.8457 14.1895 11.543 13.916 11.543 13.5352C11.543 13.3398 11.5723 13.2227 11.6602 13.0664L14.7754 7.03125L14.7754 6.95312L11.2402 6.95312C10.8984 6.95312 10.6543 6.72852 10.6543 6.39648C10.6543 6.05469 10.8984 5.82031 11.2402 5.82031L15.3027 5.82031C15.8496 5.82031 16.2012 6.21094 16.2012 6.69922C16.2012 6.91406 16.1621 7.09961 16.0156 7.42188L12.8613 13.6914C12.6953 14.043 12.4902 14.1895 12.2266 14.1895Z" fill="#ffffff"/>
 </g>
</svg>
