<?xml version="1.0" encoding="UTF-8"?>
<!--Generator: Apple Native CoreSVG 175.5-->
<!DOCTYPE svg
PUBLIC "-//W3C//DTD SVG 1.1//EN"
       "http://www.w3.org/Graphics/SVG/1.1/DTD/svg11.dtd">
<svg version="1.1" xmlns="http://www.w3.org/2000/svg" xmlns:xlink="http://www.w3.org/1999/xlink" width="19.9219" height="19.9316">
 <g>
  <rect height="19.9316" opacity="0" width="19.9219" x="0" y="0"/>
  <path d="M9.96094 19.9219C15.4102 19.9219 19.9219 15.4004 19.9219 9.96094C19.9219 4.51172 15.4004 0 9.95117 0C4.51172 0 0 4.51172 0 9.96094C0 15.4004 4.52148 19.9219 9.96094 19.9219Z" fill="#000000" fill-opacity="0.85"/>
  <path d="M6.67969 14.1699C5.3418 14.1699 4.30664 13.3594 4.05273 12.4609C4.01367 12.334 4.00391 12.2363 4.00391 12.0996C4.00391 11.7578 4.23828 11.5137 4.56055 11.5137C4.84375 11.5137 5 11.6699 5.12695 11.9824C5.38086 12.666 5.91797 13.0469 6.68945 13.0469C7.62695 13.0469 8.27148 12.4707 8.27148 11.709C8.27148 10.918 7.67578 10.3906 6.74805 10.3906L6.17188 10.3906C5.85938 10.3906 5.64453 10.1465 5.64453 9.83398C5.64453 9.48242 5.85938 9.25781 6.17188 9.25781L6.70898 9.25781C7.48047 9.25781 8.02734 8.74023 8.02734 8.02734C8.02734 7.34375 7.49023 6.875 6.70898 6.875C5.95703 6.875 5.47852 7.25586 5.26367 7.93945C5.16602 8.25195 5.00977 8.4082 4.7168 8.4082C4.38477 8.4082 4.16016 8.16406 4.16016 7.8125C4.16016 7.68555 4.16992 7.58789 4.18945 7.46094C4.44336 6.50391 5.41992 5.75195 6.73828 5.75195C8.20312 5.75195 9.22852 6.62109 9.22852 7.87109C9.22852 8.78906 8.59375 9.59961 7.7832 9.73633L7.7832 9.79492C8.76953 9.89258 9.49219 10.7324 9.49219 11.7676C9.49219 13.1738 8.33008 14.1699 6.67969 14.1699ZM13.4082 14.1699C11.7188 14.1699 10.5859 13.2129 10.5859 11.7871C10.5859 10.791 11.1914 9.9707 12.2559 9.75586L12.2559 9.69727C11.3477 9.43359 10.8789 8.75 10.8789 7.90039C10.8789 6.63086 11.9336 5.75195 13.4277 5.75195C14.9316 5.75195 15.9766 6.63086 15.9766 7.90039C15.9766 8.75 15.5078 9.45312 14.6094 9.69727L14.6094 9.75586C15.6543 9.9707 16.2695 10.7812 16.2695 11.7773C16.2695 13.1934 15.1074 14.1699 13.4082 14.1699ZM13.4375 13.1543C14.3652 13.1543 15.0391 12.5586 15.0391 11.6992C15.0391 10.8496 14.3848 10.2441 13.4375 10.2441C12.5098 10.2441 11.8359 10.8594 11.8359 11.6992C11.8359 12.5586 12.5098 13.1543 13.4375 13.1543ZM13.4277 9.30664C14.1895 9.30664 14.7363 8.75977 14.7363 8.01758C14.7363 7.27539 14.1992 6.76758 13.4277 6.76758C12.666 6.76758 12.1289 7.27539 12.1289 8.01758C12.1289 8.75977 12.666 9.30664 13.4277 9.30664Z" fill="#ffffff"/>
 </g>
</svg>
