<?xml version="1.0" encoding="UTF-8"?>
<!--Generator: Apple Native CoreSVG 175.5-->
<!DOCTYPE svg
PUBLIC "-//W3C//DTD SVG 1.1//EN"
       "http://www.w3.org/Graphics/SVG/1.1/DTD/svg11.dtd">
<svg version="1.1" xmlns="http://www.w3.org/2000/svg" xmlns:xlink="http://www.w3.org/1999/xlink" width="19.9219" height="19.9316">
 <g>
  <rect height="19.9316" opacity="0" width="19.9219" x="0" y="0"/>
  <path d="M9.96094 19.9219C15.4102 19.9219 19.9219 15.4004 19.9219 9.96094C19.9219 4.51172 15.4004 0 9.95117 0C4.51172 0 0 4.51172 0 9.96094C0 15.4004 4.52148 19.9219 9.96094 19.9219ZM9.96094 18.2617C5.35156 18.2617 1.66992 14.5703 1.66992 9.96094C1.66992 5.35156 5.3418 1.66016 9.95117 1.66016C14.5605 1.66016 18.2617 5.35156 18.2617 9.96094C18.2617 14.5703 14.5703 18.2617 9.96094 18.2617Z" fill="#000000" fill-opacity="0.85"/>
  <path d="M6.66992 14.1699C8.32031 14.1699 9.48242 13.1738 9.48242 11.7676C9.48242 10.7324 8.75977 9.89258 7.77344 9.79492L7.77344 9.73633C8.58398 9.59961 9.21875 8.78906 9.21875 7.87109C9.21875 6.62109 8.19336 5.75195 6.72852 5.75195C5.41016 5.75195 4.43359 6.50391 4.17969 7.46094C4.16016 7.58789 4.15039 7.68555 4.15039 7.8125C4.15039 8.16406 4.375 8.4082 4.70703 8.4082C5 8.4082 5.15625 8.25195 5.25391 7.93945C5.46875 7.25586 5.94727 6.875 6.69922 6.875C7.48047 6.875 8.01758 7.34375 8.01758 8.02734C8.01758 8.74023 7.4707 9.25781 6.69922 9.25781L6.16211 9.25781C5.84961 9.25781 5.63477 9.48242 5.63477 9.83398C5.63477 10.1465 5.84961 10.3906 6.16211 10.3906L6.73828 10.3906C7.66602 10.3906 8.26172 10.918 8.26172 11.709C8.26172 12.4707 7.61719 13.0469 6.67969 13.0469C5.9082 13.0469 5.37109 12.666 5.11719 11.9824C4.99023 11.6699 4.83398 11.5137 4.55078 11.5137C4.22852 11.5137 3.99414 11.7578 3.99414 12.0996C3.99414 12.2363 4.00391 12.334 4.04297 12.4609C4.29688 13.3594 5.33203 14.1699 6.66992 14.1699ZM13.3984 14.1699C15.0977 14.1699 16.2598 13.1934 16.2598 11.7773C16.2598 10.7812 15.6445 9.9707 14.5996 9.75586L14.5996 9.69727C15.498 9.45312 15.9668 8.75 15.9668 7.90039C15.9668 6.63086 14.9219 5.75195 13.418 5.75195C11.9238 5.75195 10.8691 6.63086 10.8691 7.90039C10.8691 8.75 11.3379 9.43359 12.2461 9.69727L12.2461 9.75586C11.1816 9.9707 10.5762 10.791 10.5762 11.7871C10.5762 13.2129 11.709 14.1699 13.3984 14.1699ZM13.4277 13.1543C12.5 13.1543 11.8262 12.5586 11.8262 11.6992C11.8262 10.8594 12.5 10.2441 13.4277 10.2441C14.375 10.2441 15.0293 10.8496 15.0293 11.6992C15.0293 12.5586 14.3555 13.1543 13.4277 13.1543ZM13.418 9.30664C12.6562 9.30664 12.1191 8.75977 12.1191 8.01758C12.1191 7.27539 12.6562 6.76758 13.418 6.76758C14.1895 6.76758 14.7266 7.27539 14.7266 8.01758C14.7266 8.75977 14.1797 9.30664 13.418 9.30664Z" fill="#000000" fill-opacity="0.85"/>
 </g>
</svg>
