<?xml version="1.0" encoding="UTF-8"?>
<!--Generator: Apple Native CoreSVG 175.5-->
<!DOCTYPE svg
PUBLIC "-//W3C//DTD SVG 1.1//EN"
       "http://www.w3.org/Graphics/SVG/1.1/DTD/svg11.dtd">
<svg version="1.1" xmlns="http://www.w3.org/2000/svg" xmlns:xlink="http://www.w3.org/1999/xlink" width="17.9785" height="17.998">
 <g>
  <rect height="17.998" opacity="0" width="17.9785" x="0" y="0"/>
  <path d="M3.06641 17.998L14.9121 17.998C16.9629 17.998 17.9785 16.9824 17.9785 14.9707L17.9785 3.04688C17.9785 1.03516 16.9629 0.0195312 14.9121 0.0195312L3.06641 0.0195312C1.02539 0.0195312 0 1.02539 0 3.04688L0 14.9707C0 16.9922 1.02539 17.998 3.06641 17.998Z" fill="#000000" fill-opacity="0.85"/>
  <path d="M5.71289 13.2031C4.38477 13.2031 3.33984 12.3926 3.08594 11.4941C3.04688 11.3672 3.03711 11.2695 3.03711 11.1328C3.03711 10.791 3.27148 10.5469 3.60352 10.5469C3.87695 10.5469 4.04297 10.7031 4.16016 11.0156C4.41406 11.6992 4.95117 12.0801 5.72266 12.0801C6.66016 12.0801 7.30469 11.5039 7.30469 10.7422C7.30469 9.95117 6.71875 9.42383 5.78125 9.42383L5.21484 9.42383C4.89258 9.42383 4.67773 9.17969 4.67773 8.86719C4.67773 8.51562 4.89258 8.29102 5.21484 8.29102L5.74219 8.29102C6.51367 8.29102 7.06055 7.77344 7.06055 7.06055C7.06055 6.37695 6.52344 5.9082 5.75195 5.9082C4.99023 5.9082 4.51172 6.28906 4.29688 6.97266C4.19922 7.28516 4.04297 7.44141 3.75 7.44141C3.41797 7.44141 3.19336 7.19727 3.19336 6.8457C3.19336 6.71875 3.20312 6.62109 3.22266 6.49414C3.47656 5.53711 4.45312 4.78516 5.78125 4.78516C7.23633 4.78516 8.26172 5.6543 8.26172 6.9043C8.26172 7.82227 7.62695 8.63281 6.82617 8.76953L6.82617 8.82812C7.8125 8.92578 8.52539 9.76562 8.52539 10.8008C8.52539 12.207 7.37305 13.2031 5.71289 13.2031ZM12.4414 13.2031C10.752 13.2031 9.62891 12.2461 9.62891 10.8203C9.62891 9.82422 10.2246 9.00391 11.2891 8.78906L11.2891 8.73047C10.3809 8.4668 9.91211 7.7832 9.91211 6.93359C9.91211 5.66406 10.9668 4.78516 12.4609 4.78516C13.9648 4.78516 15.0195 5.66406 15.0195 6.93359C15.0195 7.7832 14.541 8.48633 13.6426 8.73047L13.6426 8.78906C14.6875 9.00391 15.3027 9.81445 15.3027 10.8105C15.3027 12.2266 14.1406 13.2031 12.4414 13.2031ZM12.4707 12.1875C13.3984 12.1875 14.0723 11.5918 14.0723 10.7324C14.0723 9.88281 13.418 9.27734 12.4707 9.27734C11.543 9.27734 10.8691 9.89258 10.8691 10.7324C10.8691 11.5918 11.543 12.1875 12.4707 12.1875ZM12.4609 8.33984C13.2324 8.33984 13.7695 7.79297 13.7695 7.05078C13.7695 6.30859 13.2324 5.80078 12.4609 5.80078C11.6992 5.80078 11.1621 6.30859 11.1621 7.05078C11.1621 7.79297 11.6992 8.33984 12.4609 8.33984Z" fill="#ffffff"/>
 </g>
</svg>
