<?xml version="1.0" encoding="UTF-8"?>
<!--Generator: Apple Native CoreSVG 175.5-->
<!DOCTYPE svg
PUBLIC "-//W3C//DTD SVG 1.1//EN"
       "http://www.w3.org/Graphics/SVG/1.1/DTD/svg11.dtd">
<svg version="1.1" xmlns="http://www.w3.org/2000/svg" xmlns:xlink="http://www.w3.org/1999/xlink" width="19.9219" height="19.9316">
 <g>
  <rect height="19.9316" opacity="0" width="19.9219" x="0" y="0"/>
  <path d="M9.96094 19.9219C15.4102 19.9219 19.9219 15.4004 19.9219 9.96094C19.9219 4.51172 15.4004 0 9.95117 0C4.51172 0 0 4.51172 0 9.96094C0 15.4004 4.52148 19.9219 9.96094 19.9219ZM9.96094 18.2617C5.35156 18.2617 1.66992 14.5703 1.66992 9.96094C1.66992 5.35156 5.3418 1.66016 9.95117 1.66016C14.5605 1.66016 18.2617 5.35156 18.2617 9.96094C18.2617 14.5703 14.5703 18.2617 9.96094 18.2617Z" fill="#000000" fill-opacity="0.85"/>
  <path d="M6.63086 14.1699C8.29102 14.1699 9.44336 13.1738 9.44336 11.7676C9.44336 10.7324 8.7207 9.89258 7.73438 9.79492L7.73438 9.73633C8.54492 9.59961 9.17969 8.78906 9.17969 7.87109C9.17969 6.62109 8.1543 5.75195 6.69922 5.75195C5.37109 5.75195 4.39453 6.50391 4.14062 7.46094C4.12109 7.58789 4.11133 7.68555 4.11133 7.8125C4.11133 8.16406 4.33594 8.4082 4.66797 8.4082C4.96094 8.4082 5.11719 8.25195 5.21484 7.93945C5.42969 7.25586 5.9082 6.875 6.66992 6.875C7.44141 6.875 7.97852 7.34375 7.97852 8.02734C7.97852 8.74023 7.43164 9.25781 6.66016 9.25781L6.13281 9.25781C5.81055 9.25781 5.5957 9.48242 5.5957 9.83398C5.5957 10.1465 5.81055 10.3906 6.13281 10.3906L6.69922 10.3906C7.62695 10.3906 8.22266 10.918 8.22266 11.709C8.22266 12.4707 7.57812 13.0469 6.64062 13.0469C5.86914 13.0469 5.33203 12.666 5.07812 11.9824C4.95117 11.6699 4.79492 11.5137 4.52148 11.5137C4.18945 11.5137 3.95508 11.7578 3.95508 12.0996C3.95508 12.2363 3.96484 12.334 4.00391 12.4609C4.25781 13.3594 5.29297 14.1699 6.63086 14.1699ZM13.125 14.1699C15.0684 14.1699 16.1133 12.627 16.1133 9.6875C16.1133 7.12891 15.0586 5.75195 13.2324 5.75195C11.5918 5.75195 10.5176 6.85547 10.5176 8.57422C10.5176 10.2539 11.6602 11.1914 12.9297 11.1914C14.0039 11.1914 14.6387 10.6152 14.9023 9.95117L14.9609 9.95117C14.9805 11.8945 14.2285 13.0469 13.1055 13.0469C12.5391 13.0469 12.0996 12.7539 11.8555 12.3242C11.709 12.0508 11.5137 11.9434 11.2598 11.9434C10.957 11.9434 10.7422 12.1777 10.7422 12.5195C10.7422 12.6172 10.7812 12.7539 10.8203 12.8711C10.9766 13.4082 11.7773 14.1699 13.125 14.1699ZM13.3008 10.1855C12.373 10.1855 11.7578 9.49219 11.7578 8.51562C11.7578 7.49023 12.3633 6.81641 13.3105 6.81641C14.209 6.81641 14.8535 7.5293 14.8535 8.53516C14.8535 9.49219 14.2188 10.1855 13.3008 10.1855Z" fill="#000000" fill-opacity="0.85"/>
 </g>
</svg>
