<?xml version="1.0" encoding="UTF-8"?>
<!--Generator: Apple Native CoreSVG 175.5-->
<!DOCTYPE svg
PUBLIC "-//W3C//DTD SVG 1.1//EN"
       "http://www.w3.org/Graphics/SVG/1.1/DTD/svg11.dtd">
<svg version="1.1" xmlns="http://www.w3.org/2000/svg" xmlns:xlink="http://www.w3.org/1999/xlink" width="17.9785" height="17.998">
 <g>
  <rect height="17.998" opacity="0" width="17.9785" x="0" y="0"/>
  <path d="M3.06641 17.998L14.9121 17.998C16.9629 17.998 17.9785 16.9824 17.9785 14.9707L17.9785 3.04688C17.9785 1.03516 16.9629 0.0195312 14.9121 0.0195312L3.06641 0.0195312C1.02539 0.0195312 0 1.02539 0 3.04688L0 14.9707C0 16.9922 1.02539 17.998 3.06641 17.998Z" fill="#000000" fill-opacity="0.85"/>
  <path d="M5.67383 13.2031C4.3457 13.2031 3.30078 12.3926 3.04688 11.4941C3.00781 11.3672 2.99805 11.2695 2.99805 11.1328C2.99805 10.791 3.23242 10.5469 3.56445 10.5469C3.83789 10.5469 4.00391 10.7031 4.12109 11.0156C4.38477 11.6992 4.91211 12.0801 5.68359 12.0801C6.62109 12.0801 7.26562 11.5039 7.26562 10.7422C7.26562 9.95117 6.67969 9.42383 5.74219 9.42383L5.17578 9.42383C4.85352 9.42383 4.63867 9.17969 4.63867 8.86719C4.63867 8.51562 4.85352 8.29102 5.17578 8.29102L5.70312 8.29102C6.47461 8.29102 7.02148 7.77344 7.02148 7.06055C7.02148 6.37695 6.48438 5.9082 5.71289 5.9082C4.95117 5.9082 4.47266 6.28906 4.25781 6.97266C4.16016 7.28516 4.01367 7.44141 3.7207 7.44141C3.37891 7.44141 3.1543 7.19727 3.1543 6.8457C3.1543 6.71875 3.16406 6.62109 3.18359 6.49414C3.4375 5.53711 4.41406 4.78516 5.74219 4.78516C7.19727 4.78516 8.22266 5.6543 8.22266 6.9043C8.22266 7.82227 7.58789 8.63281 6.78711 8.76953L6.78711 8.82812C7.77344 8.92578 8.48633 9.76562 8.48633 10.8008C8.48633 12.207 7.33398 13.2031 5.67383 13.2031ZM12.168 13.2031C10.8203 13.2031 10.0195 12.4414 9.86328 11.9043C9.82422 11.7871 9.78516 11.6504 9.78516 11.5527C9.78516 11.2109 10 10.9766 10.3027 10.9766C10.5566 10.9766 10.752 11.084 10.9082 11.3574C11.1426 11.7871 11.582 12.0801 12.1484 12.0801C13.2715 12.0801 14.0234 10.9277 14.0039 8.98438L13.9453 8.98438C13.6816 9.64844 13.0469 10.2246 11.9824 10.2246C10.7031 10.2246 9.56055 9.28711 9.56055 7.60742C9.56055 5.88867 10.6348 4.78516 12.2754 4.78516C14.1016 4.78516 15.1562 6.16211 15.1562 8.7207C15.1562 11.6602 14.1113 13.2031 12.168 13.2031ZM12.3438 9.21875C13.2617 9.21875 13.8965 8.52539 13.8965 7.56836C13.8965 6.5625 13.252 5.84961 12.3535 5.84961C11.4062 5.84961 10.8008 6.52344 10.8008 7.54883C10.8008 8.52539 11.416 9.21875 12.3438 9.21875Z" fill="#ffffff"/>
 </g>
</svg>
