<?xml version="1.0" encoding="UTF-8"?>
<!--Generator: Apple Native CoreSVG 175.5-->
<!DOCTYPE svg
PUBLIC "-//W3C//DTD SVG 1.1//EN"
       "http://www.w3.org/Graphics/SVG/1.1/DTD/svg11.dtd">
<svg version="1.1" xmlns="http://www.w3.org/2000/svg" xmlns:xlink="http://www.w3.org/1999/xlink" width="19.9219" height="19.9316">
 <g>
  <rect height="19.9316" opacity="0" width="19.9219" x="0" y="0"/>
  <path d="M9.96094 19.9219C15.4102 19.9219 19.9219 15.4004 19.9219 9.96094C19.9219 4.51172 15.4004 0 9.95117 0C4.51172 0 0 4.51172 0 9.96094C0 15.4004 4.52148 19.9219 9.96094 19.9219ZM9.96094 18.2617C5.35156 18.2617 1.66992 14.5703 1.66992 9.96094C1.66992 5.35156 5.3418 1.66016 9.95117 1.66016C14.5605 1.66016 18.2617 5.35156 18.2617 9.96094C18.2617 14.5703 14.5703 18.2617 9.96094 18.2617Z" fill="#000000" fill-opacity="0.85"/>
  <path d="M6.23047 11.7676C6.23047 12.2559 6.55273 12.5781 7.08984 12.5781L10.7617 12.5781L10.7617 13.584C10.7617 14.1016 11.0254 14.4043 11.4648 14.4043C11.9336 14.4043 12.1973 14.1113 12.1973 13.584L12.1973 12.5781L12.8516 12.5781C13.2812 12.5781 13.5547 12.3145 13.5547 11.9043C13.5547 11.5332 13.2812 11.2891 12.8516 11.2891L12.1973 11.2891L12.1973 9.17969C12.1973 8.65234 11.9336 8.35938 11.4648 8.35938C11.0254 8.35938 10.7617 8.66211 10.7617 9.17969L10.7617 11.2891L8.04688 11.2891C8.92578 9.64844 9.77539 8.18359 10.6836 6.51367C10.7617 6.34766 10.8105 6.20117 10.8105 6.05469C10.8105 5.66406 10.5762 5.3418 10.127 5.3418C9.82422 5.3418 9.60938 5.48828 9.42383 5.81055C8.39844 7.63672 7.44141 9.31641 6.39648 11.1523C6.2793 11.3477 6.23047 11.5625 6.23047 11.7676Z" fill="#000000" fill-opacity="0.85"/>
 </g>
</svg>
