<?xml version="1.0" encoding="UTF-8"?>
<!--Generator: Apple Native CoreSVG 175.5-->
<!DOCTYPE svg
PUBLIC "-//W3C//DTD SVG 1.1//EN"
       "http://www.w3.org/Graphics/SVG/1.1/DTD/svg11.dtd">
<svg version="1.1" xmlns="http://www.w3.org/2000/svg" xmlns:xlink="http://www.w3.org/1999/xlink" width="19.9219" height="19.9316">
 <g>
  <rect height="19.9316" opacity="0" width="19.9219" x="0" y="0"/>
  <path d="M9.96094 19.9219C15.4102 19.9219 19.9219 15.4004 19.9219 9.96094C19.9219 4.51172 15.4004 0 9.95117 0C4.51172 0 0 4.51172 0 9.96094C0 15.4004 4.52148 19.9219 9.96094 19.9219ZM9.96094 18.2617C5.35156 18.2617 1.66992 14.5703 1.66992 9.96094C1.66992 5.35156 5.3418 1.66016 9.95117 1.66016C14.5605 1.66016 18.2617 5.35156 18.2617 9.96094C18.2617 14.5703 14.5703 18.2617 9.96094 18.2617Z" fill="#000000" fill-opacity="0.85"/>
  <path d="M11.2207 14.4043C11.6895 14.4043 11.9531 14.1016 11.9531 13.584L11.9531 12.5879L12.6953 12.5879C13.0859 12.5879 13.3496 12.334 13.3496 11.9531C13.3496 11.5723 13.0957 11.3086 12.6953 11.3086L11.9531 11.3086L11.9531 6.33789C11.9531 5.72266 11.4844 5.3125 10.7812 5.3125C10.0977 5.3125 9.67773 5.55664 9.28711 6.14258C8.28125 7.66602 7.07031 9.46289 6.25977 10.7812C6.06445 11.1035 5.98633 11.3379 5.98633 11.6309C5.98633 12.207 6.38672 12.5879 7.01172 12.5879L10.5176 12.5879L10.5176 13.584C10.5176 14.0918 10.7812 14.4043 11.2207 14.4043ZM10.5176 11.3086L7.43164 11.3086L7.43164 11.25C8.17383 9.9707 9.42383 8.11523 10.4395 6.57227L10.5176 6.57227Z" fill="#000000" fill-opacity="0.85"/>
 </g>
</svg>
