<?xml version="1.0" encoding="UTF-8"?>
<!--Generator: Apple Native CoreSVG 175.5-->
<!DOCTYPE svg
PUBLIC "-//W3C//DTD SVG 1.1//EN"
       "http://www.w3.org/Graphics/SVG/1.1/DTD/svg11.dtd">
<svg version="1.1" xmlns="http://www.w3.org/2000/svg" xmlns:xlink="http://www.w3.org/1999/xlink" width="17.9785" height="17.998">
 <g>
  <rect height="17.998" opacity="0" width="17.9785" x="0" y="0"/>
  <path d="M3.06641 17.998L14.9121 17.998C16.9629 17.998 17.9785 16.9824 17.9785 14.9707L17.9785 3.04688C17.9785 1.03516 16.9629 0.0195312 14.9121 0.0195312L3.06641 0.0195312C1.02539 0.0195312 0 1.02539 0 3.04688L0 14.9707C0 16.9922 1.02539 17.998 3.06641 17.998ZM3.08594 16.4258C2.10938 16.4258 1.57227 15.9082 1.57227 14.8926L1.57227 3.125C1.57227 2.10938 2.10938 1.5918 3.08594 1.5918L14.8926 1.5918C15.8594 1.5918 16.4062 2.10938 16.4062 3.125L16.4062 14.8926C16.4062 15.9082 15.8594 16.4258 14.8926 16.4258Z" fill="#000000" fill-opacity="0.85"/>
  <path d="M10.2637 13.4375C10.7324 13.4375 10.9961 13.1348 10.9961 12.6172L10.9961 11.6211L11.7383 11.6211C12.1289 11.6211 12.3926 11.3672 12.3926 10.9863C12.3926 10.6055 12.1387 10.3418 11.7383 10.3418L10.9961 10.3418L10.9961 5.37109C10.9961 4.75586 10.5273 4.3457 9.82422 4.3457C9.14062 4.3457 8.7207 4.58984 8.33008 5.17578C7.32422 6.69922 6.11328 8.49609 5.30273 9.81445C5.10742 10.1367 5.03906 10.3711 5.03906 10.6641C5.03906 11.2402 5.42969 11.6211 6.05469 11.6211L9.56055 11.6211L9.56055 12.6172C9.56055 13.125 9.82422 13.4375 10.2637 13.4375ZM9.56055 10.3418L6.47461 10.3418L6.47461 10.2832C7.2168 9.00391 8.4668 7.14844 9.49219 5.60547L9.56055 5.60547Z" fill="#000000" fill-opacity="0.85"/>
 </g>
</svg>
