<?xml version="1.0" encoding="UTF-8"?>
<!--Generator: Apple Native CoreSVG 175.5-->
<!DOCTYPE svg
PUBLIC "-//W3C//DTD SVG 1.1//EN"
       "http://www.w3.org/Graphics/SVG/1.1/DTD/svg11.dtd">
<svg version="1.1" xmlns="http://www.w3.org/2000/svg" xmlns:xlink="http://www.w3.org/1999/xlink" width="19.9219" height="19.9316">
 <g>
  <rect height="19.9316" opacity="0" width="19.9219" x="0" y="0"/>
  <path d="M9.96094 19.9219C15.4102 19.9219 19.9219 15.4004 19.9219 9.96094C19.9219 4.51172 15.4004 0 9.95117 0C4.51172 0 0 4.51172 0 9.96094C0 15.4004 4.52148 19.9219 9.96094 19.9219Z" fill="#000000" fill-opacity="0.85"/>
  <path d="M8.47656 14.2871C8.07617 14.2871 7.87109 13.9941 7.87109 13.6035L7.87109 12.4219L4.93164 12.4219C4.41406 12.4219 4.0625 12.0996 4.0625 11.5625C4.0625 11.2891 4.12109 11.0645 4.28711 10.752C4.9707 9.53125 5.97656 7.8125 6.81641 6.39648C7.14844 5.83984 7.50977 5.61523 8.0957 5.61523C8.68164 5.61523 9.0918 5.99609 9.0918 6.58203L9.0918 11.2891L9.62891 11.2891C9.98047 11.2891 10.2148 11.5039 10.2148 11.8652C10.2148 12.2168 9.99023 12.4219 9.62891 12.4219L9.0918 12.4219L9.0918 13.6035C9.0918 14.0039 8.88672 14.2871 8.47656 14.2871ZM7.87109 11.2891L7.87109 6.98242L7.8125 6.98242C7.01172 8.34961 5.98633 10.1074 5.39062 11.25L5.39062 11.2891ZM14.0137 14.1797C13.6426 14.1797 13.3887 13.9258 13.3887 13.5352L13.3887 7.28516L13.3301 7.28516L12.2656 8.07617C12.0215 8.26172 11.9336 8.27148 11.7676 8.27148C11.4746 8.27148 11.1914 8.00781 11.1914 7.66602C11.1914 7.40234 11.3184 7.2168 11.5332 7.07031L13.0566 6.02539C13.418 5.78125 13.6133 5.68359 13.9453 5.68359C14.3652 5.68359 14.6582 5.98633 14.6582 6.40625L14.6582 13.5352C14.6582 13.9258 14.4043 14.1797 14.0137 14.1797Z" fill="#ffffff"/>
 </g>
</svg>
