<?xml version="1.0" encoding="UTF-8"?>
<!--Generator: Apple Native CoreSVG 175.5-->
<!DOCTYPE svg
PUBLIC "-//W3C//DTD SVG 1.1//EN"
       "http://www.w3.org/Graphics/SVG/1.1/DTD/svg11.dtd">
<svg version="1.1" xmlns="http://www.w3.org/2000/svg" xmlns:xlink="http://www.w3.org/1999/xlink" width="17.9785" height="17.998">
 <g>
  <rect height="17.998" opacity="0" width="17.9785" x="0" y="0"/>
  <path d="M3.06641 17.998L14.9121 17.998C16.9629 17.998 17.9785 16.9824 17.9785 14.9707L17.9785 3.04688C17.9785 1.03516 16.9629 0.0195312 14.9121 0.0195312L3.06641 0.0195312C1.02539 0.0195312 0 1.02539 0 3.04688L0 14.9707C0 16.9922 1.02539 17.998 3.06641 17.998Z" fill="#000000" fill-opacity="0.85"/>
  <path d="M7.50977 13.3203C7.11914 13.3203 6.9043 13.0273 6.9043 12.6367L6.9043 11.4551L3.96484 11.4551C3.44727 11.4551 3.10547 11.1328 3.10547 10.5957C3.10547 10.3223 3.1543 10.0977 3.33008 9.78516C4.00391 8.56445 5.00977 6.8457 5.84961 5.42969C6.18164 4.87305 6.54297 4.64844 7.12891 4.64844C7.72461 4.64844 8.125 5.0293 8.125 5.61523L8.125 10.3223L8.66211 10.3223C9.02344 10.3223 9.24805 10.5371 9.24805 10.8984C9.24805 11.25 9.02344 11.4551 8.66211 11.4551L8.125 11.4551L8.125 12.6367C8.125 13.0371 7.91992 13.3203 7.50977 13.3203ZM6.9043 10.3223L6.9043 6.01562L6.85547 6.01562C6.04492 7.38281 5.01953 9.14062 4.42383 10.2832L4.42383 10.3223ZM13.0469 13.2129C12.6758 13.2129 12.4219 12.959 12.4219 12.5684L12.4219 6.31836L12.373 6.31836L11.2988 7.10938C11.0645 7.29492 10.9668 7.30469 10.8008 7.30469C10.5078 7.30469 10.2246 7.04102 10.2246 6.69922C10.2246 6.43555 10.3516 6.25 10.5664 6.10352L12.0898 5.05859C12.4512 4.81445 12.6465 4.7168 12.9785 4.7168C13.4082 4.7168 13.6914 5.01953 13.6914 5.43945L13.6914 12.5684C13.6914 12.959 13.4375 13.2129 13.0469 13.2129Z" fill="#ffffff"/>
 </g>
</svg>
