<?xml version="1.0" encoding="UTF-8"?>
<!--Generator: Apple Native CoreSVG 175.5-->
<!DOCTYPE svg
PUBLIC "-//W3C//DTD SVG 1.1//EN"
       "http://www.w3.org/Graphics/SVG/1.1/DTD/svg11.dtd">
<svg version="1.1" xmlns="http://www.w3.org/2000/svg" xmlns:xlink="http://www.w3.org/1999/xlink" width="19.9219" height="19.9316">
 <g>
  <rect height="19.9316" opacity="0" width="19.9219" x="0" y="0"/>
  <path d="M9.96094 19.9219C15.4102 19.9219 19.9219 15.4004 19.9219 9.96094C19.9219 4.51172 15.4004 0 9.95117 0C4.51172 0 0 4.51172 0 9.96094C0 15.4004 4.52148 19.9219 9.96094 19.9219Z" fill="#000000" fill-opacity="0.85"/>
  <path d="M7.97852 14.2871C7.58789 14.2871 7.38281 13.9941 7.38281 13.6035L7.38281 12.4219L4.44336 12.4219C3.93555 12.4219 3.57422 12.0996 3.57422 11.5625C3.57422 11.2891 3.64258 11.0645 3.79883 10.752C4.48242 9.53125 5.49805 7.8125 6.32812 6.39648C6.66016 5.83984 7.02148 5.61523 7.60742 5.61523C8.19336 5.61523 8.60352 5.99609 8.60352 6.58203L8.60352 11.2891L9.15039 11.2891C9.49219 11.2891 9.7168 11.5039 9.7168 11.8652C9.7168 12.2168 9.49219 12.4219 9.15039 12.4219L8.60352 12.4219L8.60352 13.6035C8.60352 14.0039 8.39844 14.2871 7.97852 14.2871ZM7.38281 11.2891L7.38281 6.98242L7.32422 6.98242C6.52344 8.34961 5.49805 10.1074 4.90234 11.25L4.90234 11.2891ZM11.3672 14.0723C11.0059 14.0723 10.7812 13.8379 10.7812 13.4766C10.7812 13.2715 10.8398 13.0957 10.9961 12.9297L13.6426 9.80469C14.1309 9.24805 14.6582 8.68164 14.6582 8.02734C14.6582 7.28516 14.1309 6.78711 13.3301 6.78711C12.6074 6.78711 12.0996 7.14844 11.8457 7.91016C11.709 8.21289 11.5625 8.37891 11.2695 8.37891C10.9082 8.37891 10.7031 8.13477 10.7031 7.77344C10.7031 7.65625 10.7227 7.53906 10.752 7.41211C11.0156 6.38672 12.0801 5.61523 13.2812 5.61523C14.8633 5.61523 15.8789 6.51367 15.8789 7.91992C15.8789 8.92578 15.3223 9.64844 14.5801 10.5176L12.6074 12.8027L12.6074 12.8809L15.5371 12.8809C15.8594 12.8809 16.1035 13.0859 16.1035 13.4668C16.1035 13.8281 15.8594 14.0723 15.5371 14.0723Z" fill="#ffffff"/>
 </g>
</svg>
