<?xml version="1.0" encoding="UTF-8"?>
<!--Generator: Apple Native CoreSVG 175.5-->
<!DOCTYPE svg
PUBLIC "-//W3C//DTD SVG 1.1//EN"
       "http://www.w3.org/Graphics/SVG/1.1/DTD/svg11.dtd">
<svg version="1.1" xmlns="http://www.w3.org/2000/svg" xmlns:xlink="http://www.w3.org/1999/xlink" width="17.9785" height="17.998">
 <g>
  <rect height="17.998" opacity="0" width="17.9785" x="0" y="0"/>
  <path d="M3.06641 17.998L14.9121 17.998C16.9629 17.998 17.9785 16.9824 17.9785 14.9707L17.9785 3.04688C17.9785 1.03516 16.9629 0.0195312 14.9121 0.0195312L3.06641 0.0195312C1.02539 0.0195312 0 1.02539 0 3.04688L0 14.9707C0 16.9922 1.02539 17.998 3.06641 17.998Z" fill="#000000" fill-opacity="0.85"/>
  <path d="M7.01172 13.3203C6.62109 13.3203 6.41602 13.0273 6.41602 12.6367L6.41602 11.4551L3.47656 11.4551C2.96875 11.4551 2.60742 11.1328 2.60742 10.5957C2.60742 10.3223 2.67578 10.0977 2.83203 9.78516C3.51562 8.56445 4.53125 6.8457 5.36133 5.42969C5.69336 4.87305 6.05469 4.64844 6.64062 4.64844C7.22656 4.64844 7.63672 5.0293 7.63672 5.61523L7.63672 10.3223L8.18359 10.3223C8.52539 10.3223 8.75 10.5371 8.75 10.8984C8.75 11.25 8.52539 11.4551 8.18359 11.4551L7.63672 11.4551L7.63672 12.6367C7.63672 13.0371 7.43164 13.3203 7.01172 13.3203ZM6.41602 10.3223L6.41602 6.01562L6.35742 6.01562C5.55664 7.38281 4.53125 9.14062 3.93555 10.2832L3.93555 10.3223ZM10.4004 13.1055C10.0391 13.1055 9.81445 12.8711 9.81445 12.5098C9.81445 12.3047 9.87305 12.1289 10.0293 11.9629L12.6855 8.83789C13.1641 8.28125 13.7012 7.71484 13.7012 7.06055C13.7012 6.31836 13.1641 5.82031 12.3633 5.82031C11.6406 5.82031 11.1426 6.18164 10.8789 6.94336C10.7422 7.24609 10.5957 7.41211 10.3027 7.41211C9.95117 7.41211 9.73633 7.16797 9.73633 6.80664C9.73633 6.68945 9.76562 6.57227 9.78516 6.44531C10.0488 5.41992 11.1133 4.64844 12.3145 4.64844C13.8965 4.64844 14.9121 5.54688 14.9121 6.95312C14.9121 7.95898 14.3555 8.68164 13.623 9.55078L11.6406 11.8359L11.6406 11.9141L14.5703 11.9141C14.8926 11.9141 15.1367 12.1191 15.1367 12.5C15.1367 12.8613 14.8926 13.1055 14.5703 13.1055Z" fill="#ffffff"/>
 </g>
</svg>
