<?xml version="1.0" encoding="UTF-8"?>
<!--Generator: Apple Native CoreSVG 175.5-->
<!DOCTYPE svg
PUBLIC "-//W3C//DTD SVG 1.1//EN"
       "http://www.w3.org/Graphics/SVG/1.1/DTD/svg11.dtd">
<svg version="1.1" xmlns="http://www.w3.org/2000/svg" xmlns:xlink="http://www.w3.org/1999/xlink" width="17.9785" height="17.998">
 <g>
  <rect height="17.998" opacity="0" width="17.9785" x="0" y="0"/>
  <path d="M3.06641 17.998L14.9121 17.998C16.9629 17.998 17.9785 16.9824 17.9785 14.9707L17.9785 3.04688C17.9785 1.03516 16.9629 0.0195312 14.9121 0.0195312L3.06641 0.0195312C1.02539 0.0195312 0 1.02539 0 3.04688L0 14.9707C0 16.9922 1.02539 17.998 3.06641 17.998Z" fill="#000000" fill-opacity="0.85"/>
  <path d="M6.77734 13.3203C6.38672 13.3203 6.17188 13.0273 6.17188 12.6367L6.17188 11.4551L3.24219 11.4551C2.72461 11.4551 2.38281 11.1328 2.38281 10.5957C2.38281 10.3223 2.43164 10.0977 2.58789 9.78516C3.27148 8.56445 4.28711 6.8457 5.11719 5.42969C5.45898 4.87305 5.81055 4.64844 6.39648 4.64844C6.98242 4.64844 7.40234 5.0293 7.40234 5.61523L7.40234 10.3223L7.93945 10.3223C8.28125 10.3223 8.51562 10.5371 8.51562 10.8984C8.51562 11.25 8.29102 11.4551 7.93945 11.4551L7.40234 11.4551L7.40234 12.6367C7.40234 13.0371 7.1875 13.3203 6.77734 13.3203ZM6.17188 10.3223L6.17188 6.01562L6.11328 6.01562C5.3125 7.38281 4.28711 9.14062 3.69141 10.2832L3.69141 10.3223ZM13.7207 13.3203C13.3301 13.3203 13.1152 13.0273 13.1152 12.6367L13.1152 11.4551L10.1758 11.4551C9.66797 11.4551 9.31641 11.1328 9.31641 10.5957C9.31641 10.3223 9.375 10.0977 9.54102 9.78516C10.2148 8.56445 11.2207 6.8457 12.0703 5.42969C12.3926 4.87305 12.7539 4.64844 13.3398 4.64844C13.9355 4.64844 14.3359 5.0293 14.3359 5.61523L14.3359 10.3223L14.8828 10.3223C15.2344 10.3223 15.4492 10.5371 15.4492 10.8984C15.4492 11.25 15.2344 11.4551 14.8828 11.4551L14.3359 11.4551L14.3359 12.6367C14.3359 13.0371 14.1211 13.3203 13.7207 13.3203ZM13.1152 10.3223L13.1152 6.01562L13.0664 6.01562C12.2559 7.38281 11.2305 9.14062 10.6348 10.2832L10.6348 10.3223Z" fill="#ffffff"/>
 </g>
</svg>
