<?xml version="1.0" encoding="UTF-8"?>
<!--Generator: Apple Native CoreSVG 175.5-->
<!DOCTYPE svg
PUBLIC "-//W3C//DTD SVG 1.1//EN"
       "http://www.w3.org/Graphics/SVG/1.1/DTD/svg11.dtd">
<svg version="1.1" xmlns="http://www.w3.org/2000/svg" xmlns:xlink="http://www.w3.org/1999/xlink" width="19.9219" height="19.9316">
 <g>
  <rect height="19.9316" opacity="0" width="19.9219" x="0" y="0"/>
  <path d="M9.96094 19.9219C15.4102 19.9219 19.9219 15.4004 19.9219 9.96094C19.9219 4.51172 15.4004 0 9.95117 0C4.51172 0 0 4.51172 0 9.96094C0 15.4004 4.52148 19.9219 9.96094 19.9219ZM9.96094 18.2617C5.35156 18.2617 1.66992 14.5703 1.66992 9.96094C1.66992 5.35156 5.3418 1.66016 9.95117 1.66016C14.5605 1.66016 18.2617 5.35156 18.2617 9.96094C18.2617 14.5703 14.5703 18.2617 9.96094 18.2617Z" fill="#000000" fill-opacity="0.85"/>
  <path d="M7.91016 14.1504C8.31055 14.1504 8.51562 13.877 8.51562 13.4961L8.51562 12.3438L9.04297 12.3438C9.375 12.3438 9.58984 12.1484 9.58984 11.8066C9.58984 11.4551 9.375 11.25 9.04297 11.25L8.51562 11.25L8.51562 6.67969C8.51562 6.11328 8.11523 5.75195 7.54883 5.75195C6.98242 5.75195 6.64062 5.9668 6.31836 6.50391C5.50781 7.87109 4.52148 9.55078 3.85742 10.7324C3.70117 11.0352 3.64258 11.25 3.64258 11.5137C3.64258 12.0312 3.98438 12.3438 4.48242 12.3438L7.33398 12.3438L7.33398 13.4961C7.33398 13.8672 7.5293 14.1504 7.91016 14.1504ZM7.33398 11.25L4.92188 11.25L4.92188 11.2109C5.49805 10.1074 6.50391 8.38867 7.27539 7.07031L7.33398 7.07031ZM13.1348 14.1699C14.8535 14.1699 15.9961 13.1152 15.9961 11.3965C15.9961 9.89258 14.9805 8.79883 13.4766 8.79883C12.8223 8.79883 12.1191 9.12109 11.8262 9.56055L11.7871 9.56055L11.9727 7.05078L15.2051 7.05078C15.4785 7.05078 15.6836 6.82617 15.6836 6.50391C15.6836 6.19141 15.4883 5.95703 15.2051 5.95703L11.8457 5.95703C11.3281 5.95703 10.9863 6.26953 10.957 6.78711L10.7227 9.83398C10.6836 10.3418 10.957 10.6738 11.4062 10.6738C11.709 10.6738 11.8848 10.5957 12.1973 10.3418C12.6074 9.99023 12.9102 9.84375 13.3398 9.84375C14.1992 9.84375 14.7852 10.5273 14.7852 11.4258C14.7852 12.4512 14.1406 13.0664 13.1934 13.0664C12.5293 13.0664 11.9629 12.7148 11.6797 12.1289C11.5332 11.8457 11.3477 11.709 11.1133 11.709C10.791 11.709 10.5664 11.9531 10.5664 12.2754C10.5664 12.4316 10.6055 12.5781 10.6543 12.7148C10.9473 13.5254 11.9141 14.1699 13.1348 14.1699Z" fill="#000000" fill-opacity="0.85"/>
 </g>
</svg>
