<?xml version="1.0" encoding="UTF-8"?>
<!--Generator: Apple Native CoreSVG 175.5-->
<!DOCTYPE svg
PUBLIC "-//W3C//DTD SVG 1.1//EN"
       "http://www.w3.org/Graphics/SVG/1.1/DTD/svg11.dtd">
<svg version="1.1" xmlns="http://www.w3.org/2000/svg" xmlns:xlink="http://www.w3.org/1999/xlink" width="17.9785" height="17.998">
 <g>
  <rect height="17.998" opacity="0" width="17.9785" x="0" y="0"/>
  <path d="M3.06641 17.998L14.9121 17.998C16.9629 17.998 17.9785 16.9824 17.9785 14.9707L17.9785 3.04688C17.9785 1.03516 16.9629 0.0195312 14.9121 0.0195312L3.06641 0.0195312C1.02539 0.0195312 0 1.02539 0 3.04688L0 14.9707C0 16.9922 1.02539 17.998 3.06641 17.998ZM3.08594 16.4258C2.10938 16.4258 1.57227 15.9082 1.57227 14.8926L1.57227 3.125C1.57227 2.10938 2.10938 1.5918 3.08594 1.5918L14.8926 1.5918C15.8594 1.5918 16.4062 2.10938 16.4062 3.125L16.4062 14.8926C16.4062 15.9082 15.8594 16.4258 14.8926 16.4258Z" fill="#000000" fill-opacity="0.85"/>
  <path d="M7.04102 13.1836C7.43164 13.1836 7.63672 12.9102 7.63672 12.5293L7.63672 11.377L8.17383 11.377C8.50586 11.377 8.7207 11.1816 8.7207 10.8398C8.7207 10.4883 8.50586 10.2832 8.17383 10.2832L7.63672 10.2832L7.63672 5.71289C7.63672 5.14648 7.24609 4.78516 6.67969 4.78516C6.11328 4.78516 5.76172 5 5.44922 5.53711C4.62891 6.9043 3.64258 8.58398 2.98828 9.76562C2.83203 10.0684 2.77344 10.2832 2.77344 10.5469C2.77344 11.0645 3.11523 11.377 3.60352 11.377L6.45508 11.377L6.45508 12.5293C6.45508 12.9004 6.66016 13.1836 7.04102 13.1836ZM6.45508 10.2832L4.05273 10.2832L4.05273 10.2441C4.61914 9.14062 5.625 7.42188 6.40625 6.10352L6.45508 6.10352ZM12.4219 13.2129C14.0137 13.2129 15.1367 12.168 15.1367 10.3809C15.1367 8.70117 13.9941 7.77344 12.7246 7.77344C11.6797 7.77344 11.0254 8.35938 10.791 9.00391L10.7129 9.00391C10.7129 8.97461 10.7129 8.95508 10.7129 8.91602C10.7129 7.07031 11.4648 5.9082 12.5586 5.9082C13.125 5.9082 13.5156 6.18164 13.7598 6.5625C13.9258 6.80664 14.082 6.92383 14.3457 6.92383C14.6191 6.92383 14.834 6.70898 14.834 6.38672C14.834 6.25977 14.8047 6.14258 14.7559 6.01562C14.502 5.36133 13.7207 4.78516 12.6074 4.78516C10.7324 4.78516 9.57031 6.25 9.57031 9.21875C9.57031 10.4102 9.76562 11.2793 10.0977 11.8945C10.5957 12.832 11.4355 13.2129 12.4219 13.2129ZM12.3633 12.1387C11.4648 12.1387 10.8301 11.4258 10.8301 10.4199C10.8301 9.46289 11.4551 8.7793 12.373 8.7793C13.291 8.7793 13.9062 9.45312 13.9062 10.4297C13.9062 11.4746 13.3105 12.1387 12.3633 12.1387Z" fill="#000000" fill-opacity="0.85"/>
 </g>
</svg>
