<?xml version="1.0" encoding="UTF-8"?>
<!--Generator: Apple Native CoreSVG 175.5-->
<!DOCTYPE svg
PUBLIC "-//W3C//DTD SVG 1.1//EN"
       "http://www.w3.org/Graphics/SVG/1.1/DTD/svg11.dtd">
<svg version="1.1" xmlns="http://www.w3.org/2000/svg" xmlns:xlink="http://www.w3.org/1999/xlink" width="17.9785" height="17.998">
 <g>
  <rect height="17.998" opacity="0" width="17.9785" x="0" y="0"/>
  <path d="M3.06641 17.998L14.9121 17.998C16.9629 17.998 17.9785 16.9824 17.9785 14.9707L17.9785 3.04688C17.9785 1.03516 16.9629 0.0195312 14.9121 0.0195312L3.06641 0.0195312C1.02539 0.0195312 0 1.02539 0 3.04688L0 14.9707C0 16.9922 1.02539 17.998 3.06641 17.998Z" fill="#000000" fill-opacity="0.85"/>
  <path d="M6.94336 13.3203C6.55273 13.3203 6.33789 13.0273 6.33789 12.6367L6.33789 11.4551L3.4082 11.4551C2.89062 11.4551 2.53906 11.1328 2.53906 10.5957C2.53906 10.3223 2.59766 10.0977 2.76367 9.78516C3.4375 8.56445 4.44336 6.8457 5.29297 5.42969C5.61523 4.87305 5.98633 4.64844 6.57227 4.64844C7.1582 4.64844 7.55859 5.0293 7.55859 5.61523L7.55859 10.3223L8.10547 10.3223C8.45703 10.3223 8.68164 10.5371 8.68164 10.8984C8.68164 11.25 8.45703 11.4551 8.10547 11.4551L7.55859 11.4551L7.55859 12.6367C7.55859 13.0371 7.36328 13.3203 6.94336 13.3203ZM6.33789 10.3223L6.33789 6.01562L6.28906 6.01562C5.47852 7.38281 4.46289 9.14062 3.86719 10.2832L3.86719 10.3223ZM11.1719 13.2227C10.791 13.2227 10.498 12.9492 10.498 12.5684C10.498 12.373 10.5273 12.2559 10.6055 12.0996L13.7305 6.06445L13.7305 5.98633L10.1953 5.98633C9.84375 5.98633 9.60938 5.76172 9.60938 5.42969C9.60938 5.08789 9.84375 4.85352 10.1953 4.85352L14.2578 4.85352C14.8047 4.85352 15.1562 5.24414 15.1562 5.73242C15.1562 5.94727 15.127 6.13281 14.9609 6.45508L11.8262 12.7246C11.6504 13.0762 11.4453 13.2227 11.1719 13.2227Z" fill="#ffffff"/>
 </g>
</svg>
