<?xml version="1.0" encoding="UTF-8"?>
<!--Generator: Apple Native CoreSVG 175.5-->
<!DOCTYPE svg
PUBLIC "-//W3C//DTD SVG 1.1//EN"
       "http://www.w3.org/Graphics/SVG/1.1/DTD/svg11.dtd">
<svg version="1.1" xmlns="http://www.w3.org/2000/svg" xmlns:xlink="http://www.w3.org/1999/xlink" width="19.9219" height="19.9316">
 <g>
  <rect height="19.9316" opacity="0" width="19.9219" x="0" y="0"/>
  <path d="M9.96094 19.9219C15.4102 19.9219 19.9219 15.4004 19.9219 9.96094C19.9219 4.51172 15.4004 0 9.95117 0C4.51172 0 0 4.51172 0 9.96094C0 15.4004 4.52148 19.9219 9.96094 19.9219Z" fill="#000000" fill-opacity="0.85"/>
  <path d="M7.85156 14.2871C7.46094 14.2871 7.24609 13.9941 7.24609 13.6035L7.24609 12.4219L4.31641 12.4219C3.80859 12.4219 3.45703 12.0996 3.45703 11.5625C3.45703 11.2891 3.50586 11.0645 3.67188 10.752C4.3457 9.53125 5.36133 7.8125 6.20117 6.39648C6.5332 5.83984 6.88477 5.61523 7.4707 5.61523C8.06641 5.61523 8.47656 5.99609 8.47656 6.58203L8.47656 11.2891L9.02344 11.2891C9.36523 11.2891 9.58984 11.5039 9.58984 11.8652C9.58984 12.2168 9.36523 12.4219 9.02344 12.4219L8.47656 12.4219L8.47656 13.6035C8.47656 14.0039 8.26172 14.2871 7.85156 14.2871ZM7.24609 11.2891L7.24609 6.98242L7.19727 6.98242C6.38672 8.34961 5.36133 10.1074 4.76562 11.25L4.76562 11.2891ZM13.5352 14.3066C11.7969 14.3066 10.625 13.3203 10.625 11.8457C10.625 10.8203 11.25 9.9707 12.334 9.74609L12.334 9.6875C11.3965 9.41406 10.9277 8.71094 10.9277 7.83203C10.9277 6.52344 12.0117 5.61523 13.5547 5.61523C15.0977 5.61523 16.1816 6.52344 16.1816 7.83203C16.1816 8.71094 15.6934 9.43359 14.7656 9.6875L14.7656 9.74609C15.8594 9.9707 16.4844 10.8105 16.4844 11.8359C16.4844 13.3008 15.293 14.3066 13.5352 14.3066ZM13.5645 13.252C14.5117 13.252 15.2051 12.6367 15.2051 11.7578C15.2051 10.8789 14.5312 10.2539 13.5645 10.2539C12.6074 10.2539 11.9141 10.8887 11.9141 11.7578C11.9141 12.6367 12.6074 13.252 13.5645 13.252ZM13.5547 9.28711C14.3359 9.28711 14.8926 8.7207 14.8926 7.95898C14.8926 7.19727 14.3359 6.66992 13.5547 6.66992C12.7637 6.66992 12.2168 7.19727 12.2168 7.95898C12.2168 8.7207 12.7734 9.28711 13.5547 9.28711Z" fill="#ffffff"/>
 </g>
</svg>
