<?xml version="1.0" encoding="UTF-8"?>
<!--Generator: Apple Native CoreSVG 175.5-->
<!DOCTYPE svg
PUBLIC "-//W3C//DTD SVG 1.1//EN"
       "http://www.w3.org/Graphics/SVG/1.1/DTD/svg11.dtd">
<svg version="1.1" xmlns="http://www.w3.org/2000/svg" xmlns:xlink="http://www.w3.org/1999/xlink" width="19.9219" height="19.9316">
 <g>
  <rect height="19.9316" opacity="0" width="19.9219" x="0" y="0"/>
  <path d="M9.96094 19.9219C15.4102 19.9219 19.9219 15.4004 19.9219 9.96094C19.9219 4.51172 15.4004 0 9.95117 0C4.51172 0 0 4.51172 0 9.96094C0 15.4004 4.52148 19.9219 9.96094 19.9219ZM9.96094 18.2617C5.35156 18.2617 1.66992 14.5703 1.66992 9.96094C1.66992 5.35156 5.3418 1.66016 9.95117 1.66016C14.5605 1.66016 18.2617 5.35156 18.2617 9.96094C18.2617 14.5703 14.5703 18.2617 9.96094 18.2617Z" fill="#000000" fill-opacity="0.85"/>
  <path d="M7.91016 14.1504C8.30078 14.1504 8.50586 13.877 8.50586 13.4961L8.50586 12.3438L9.04297 12.3438C9.375 12.3438 9.58984 12.1484 9.58984 11.8066C9.58984 11.4551 9.375 11.25 9.04297 11.25L8.50586 11.25L8.50586 6.67969C8.50586 6.11328 8.11523 5.75195 7.53906 5.75195C6.97266 5.75195 6.63086 5.9668 6.31836 6.50391C5.49805 7.87109 4.51172 9.55078 3.85742 10.7324C3.69141 11.0352 3.64258 11.25 3.64258 11.5137C3.64258 12.0312 3.98438 12.3438 4.47266 12.3438L7.32422 12.3438L7.32422 13.4961C7.32422 13.8672 7.5293 14.1504 7.91016 14.1504ZM7.32422 11.25L4.91211 11.25L4.91211 11.2109C5.48828 10.1074 6.49414 8.38867 7.27539 7.07031L7.32422 7.07031ZM13.418 14.1699C15.1172 14.1699 16.2793 13.1934 16.2793 11.7773C16.2793 10.7812 15.6641 9.9707 14.6191 9.75586L14.6191 9.69727C15.5078 9.45312 15.9863 8.75 15.9863 7.90039C15.9863 6.63086 14.9316 5.75195 13.4375 5.75195C11.9434 5.75195 10.8887 6.63086 10.8887 7.90039C10.8887 8.75 11.3477 9.43359 12.2559 9.69727L12.2559 9.75586C11.2012 9.9707 10.5957 10.791 10.5957 11.7871C10.5957 13.2129 11.7285 14.1699 13.418 14.1699ZM13.4473 13.1543C12.5098 13.1543 11.8359 12.5586 11.8359 11.6992C11.8359 10.8594 12.5098 10.2441 13.4473 10.2441C14.3848 10.2441 15.0391 10.8496 15.0391 11.6992C15.0391 12.5586 14.3652 13.1543 13.4473 13.1543ZM13.4375 9.30664C12.6758 9.30664 12.1289 8.75977 12.1289 8.01758C12.1289 7.27539 12.666 6.76758 13.4375 6.76758C14.1992 6.76758 14.7363 7.27539 14.7363 8.01758C14.7363 8.75977 14.1992 9.30664 13.4375 9.30664Z" fill="#000000" fill-opacity="0.85"/>
 </g>
</svg>
