<?xml version="1.0" encoding="UTF-8"?>
<!--Generator: Apple Native CoreSVG 175.5-->
<!DOCTYPE svg
PUBLIC "-//W3C//DTD SVG 1.1//EN"
       "http://www.w3.org/Graphics/SVG/1.1/DTD/svg11.dtd">
<svg version="1.1" xmlns="http://www.w3.org/2000/svg" xmlns:xlink="http://www.w3.org/1999/xlink" width="17.9785" height="17.998">
 <g>
  <rect height="17.998" opacity="0" width="17.9785" x="0" y="0"/>
  <path d="M3.06641 17.998L14.9121 17.998C16.9629 17.998 17.9785 16.9824 17.9785 14.9707L17.9785 3.04688C17.9785 1.03516 16.9629 0.0195312 14.9121 0.0195312L3.06641 0.0195312C1.02539 0.0195312 0 1.02539 0 3.04688L0 14.9707C0 16.9922 1.02539 17.998 3.06641 17.998ZM3.08594 16.4258C2.10938 16.4258 1.57227 15.9082 1.57227 14.8926L1.57227 3.125C1.57227 2.10938 2.10938 1.5918 3.08594 1.5918L14.8926 1.5918C15.8594 1.5918 16.4062 2.10938 16.4062 3.125L16.4062 14.8926C16.4062 15.9082 15.8594 16.4258 14.8926 16.4258Z" fill="#000000" fill-opacity="0.85"/>
  <path d="M6.95312 13.1836C7.34375 13.1836 7.54883 12.9102 7.54883 12.5293L7.54883 11.377L8.08594 11.377C8.41797 11.377 8.63281 11.1816 8.63281 10.8398C8.63281 10.4883 8.41797 10.2832 8.08594 10.2832L7.54883 10.2832L7.54883 5.71289C7.54883 5.14648 7.1582 4.78516 6.5918 4.78516C6.02539 4.78516 5.67383 5 5.36133 5.53711C4.54102 6.9043 3.55469 8.58398 2.90039 9.76562C2.74414 10.0684 2.68555 10.2832 2.68555 10.5469C2.68555 11.0645 3.02734 11.377 3.51562 11.377L6.36719 11.377L6.36719 12.5293C6.36719 12.9004 6.57227 13.1836 6.95312 13.1836ZM6.36719 10.2832L3.95508 10.2832L3.95508 10.2441C4.53125 9.14062 5.53711 7.42188 6.31836 6.10352L6.36719 6.10352ZM12.4609 13.2031C14.1602 13.2031 15.3223 12.2266 15.3223 10.8105C15.3223 9.81445 14.707 9.00391 13.6621 8.78906L13.6621 8.73047C14.5508 8.48633 15.0293 7.7832 15.0293 6.93359C15.0293 5.66406 13.9746 4.78516 12.4805 4.78516C10.9863 4.78516 9.93164 5.66406 9.93164 6.93359C9.93164 7.7832 10.3906 8.4668 11.2988 8.73047L11.2988 8.78906C10.2441 9.00391 9.63867 9.82422 9.63867 10.8203C9.63867 12.2461 10.7715 13.2031 12.4609 13.2031ZM12.4902 12.1875C11.5625 12.1875 10.8887 11.5918 10.8887 10.7324C10.8887 9.89258 11.5625 9.27734 12.4902 9.27734C13.4277 9.27734 14.082 9.88281 14.082 10.7324C14.082 11.5918 13.4082 12.1875 12.4902 12.1875ZM12.4805 8.33984C11.7188 8.33984 11.1719 7.79297 11.1719 7.05078C11.1719 6.30859 11.709 5.80078 12.4805 5.80078C13.2422 5.80078 13.7793 6.30859 13.7793 7.05078C13.7793 7.79297 13.2422 8.33984 12.4805 8.33984Z" fill="#000000" fill-opacity="0.85"/>
 </g>
</svg>
