<?xml version="1.0" encoding="UTF-8"?>
<!--Generator: Apple Native CoreSVG 175.5-->
<!DOCTYPE svg
PUBLIC "-//W3C//DTD SVG 1.1//EN"
       "http://www.w3.org/Graphics/SVG/1.1/DTD/svg11.dtd">
<svg version="1.1" xmlns="http://www.w3.org/2000/svg" xmlns:xlink="http://www.w3.org/1999/xlink" width="17.9785" height="17.998">
 <g>
  <rect height="17.998" opacity="0" width="17.9785" x="0" y="0"/>
  <path d="M3.06641 17.998L14.9121 17.998C16.9629 17.998 17.9785 16.9824 17.9785 14.9707L17.9785 3.04688C17.9785 1.03516 16.9629 0.0195312 14.9121 0.0195312L3.06641 0.0195312C1.02539 0.0195312 0 1.02539 0 3.04688L0 14.9707C0 16.9922 1.02539 17.998 3.06641 17.998Z" fill="#000000" fill-opacity="0.85"/>
  <path d="M6.88477 13.3203C6.49414 13.3203 6.2793 13.0273 6.2793 12.6367L6.2793 11.4551L3.34961 11.4551C2.8418 11.4551 2.49023 11.1328 2.49023 10.5957C2.49023 10.3223 2.54883 10.0977 2.70508 9.78516C3.37891 8.56445 4.39453 6.8457 5.23438 5.42969C5.56641 4.87305 5.92773 4.64844 6.51367 4.64844C7.09961 4.64844 7.50977 5.0293 7.50977 5.61523L7.50977 10.3223L8.05664 10.3223C8.39844 10.3223 8.62305 10.5371 8.62305 10.8984C8.62305 11.25 8.39844 11.4551 8.05664 11.4551L7.50977 11.4551L7.50977 12.6367C7.50977 13.0371 7.29492 13.3203 6.88477 13.3203ZM6.2793 10.3223L6.2793 6.01562L6.23047 6.01562C5.41992 7.38281 4.39453 9.14062 3.79883 10.2832L3.79883 10.3223ZM12.5684 13.3398C10.8301 13.3398 9.6582 12.3535 9.6582 10.8789C9.6582 9.85352 10.2832 9.00391 11.3672 8.7793L11.3672 8.7207C10.4297 8.44727 9.96094 7.74414 9.96094 6.86523C9.96094 5.55664 11.0449 4.64844 12.5879 4.64844C14.1309 4.64844 15.2148 5.55664 15.2148 6.86523C15.2148 7.74414 14.7266 8.4668 13.8086 8.7207L13.8086 8.7793C14.8926 9.00391 15.5176 9.84375 15.5176 10.8691C15.5176 12.334 14.3262 13.3398 12.5684 13.3398ZM12.5977 12.2852C13.5449 12.2852 14.2383 11.6699 14.2383 10.791C14.2383 9.91211 13.5645 9.28711 12.5977 9.28711C11.6504 9.28711 10.957 9.92188 10.957 10.791C10.957 11.6699 11.6504 12.2852 12.5977 12.2852ZM12.5879 8.32031C13.3691 8.32031 13.9258 7.75391 13.9258 6.99219C13.9258 6.23047 13.3691 5.70312 12.5879 5.70312C11.7969 5.70312 11.25 6.23047 11.25 6.99219C11.25 7.75391 11.8066 8.32031 12.5879 8.32031Z" fill="#ffffff"/>
 </g>
</svg>
