<?xml version="1.0" encoding="UTF-8"?>
<!--Generator: Apple Native CoreSVG 175.5-->
<!DOCTYPE svg
PUBLIC "-//W3C//DTD SVG 1.1//EN"
       "http://www.w3.org/Graphics/SVG/1.1/DTD/svg11.dtd">
<svg version="1.1" xmlns="http://www.w3.org/2000/svg" xmlns:xlink="http://www.w3.org/1999/xlink" width="19.9219" height="19.9316">
 <g>
  <rect height="19.9316" opacity="0" width="19.9219" x="0" y="0"/>
  <path d="M9.96094 19.9219C15.4102 19.9219 19.9219 15.4004 19.9219 9.96094C19.9219 4.51172 15.4004 0 9.95117 0C4.51172 0 0 4.51172 0 9.96094C0 15.4004 4.52148 19.9219 9.96094 19.9219ZM9.96094 18.2617C5.35156 18.2617 1.66992 14.5703 1.66992 9.96094C1.66992 5.35156 5.3418 1.66016 9.95117 1.66016C14.5605 1.66016 18.2617 5.35156 18.2617 9.96094C18.2617 14.5703 14.5703 18.2617 9.96094 18.2617Z" fill="#000000" fill-opacity="0.85"/>
  <path d="M7.89062 14.1504C8.29102 14.1504 8.48633 13.877 8.48633 13.4961L8.48633 12.3438L9.02344 12.3438C9.35547 12.3438 9.57031 12.1484 9.57031 11.8066C9.57031 11.4551 9.35547 11.25 9.02344 11.25L8.48633 11.25L8.48633 6.67969C8.48633 6.11328 8.0957 5.75195 7.5293 5.75195C6.96289 5.75195 6.61133 5.9668 6.29883 6.50391C5.47852 7.87109 4.49219 9.55078 3.83789 10.7324C3.68164 11.0352 3.62305 11.25 3.62305 11.5137C3.62305 12.0312 3.96484 12.3438 4.46289 12.3438L7.30469 12.3438L7.30469 13.4961C7.30469 13.8672 7.50977 14.1504 7.89062 14.1504ZM7.30469 11.25L4.90234 11.25L4.90234 11.2109C5.46875 10.1074 6.47461 8.38867 7.25586 7.07031L7.30469 7.07031ZM13.2227 14.1699C15.166 14.1699 16.2207 12.627 16.2207 9.6875C16.2207 7.12891 15.166 5.75195 13.3301 5.75195C11.6895 5.75195 10.6152 6.85547 10.6152 8.57422C10.6152 10.2539 11.7578 11.1914 13.0371 11.1914C14.1113 11.1914 14.7461 10.6152 15 9.95117L15.0586 9.95117C15.0781 11.8945 14.3359 13.0469 13.2031 13.0469C12.6465 13.0469 12.1973 12.7539 11.9629 12.3242C11.8066 12.0508 11.6211 11.9434 11.3672 11.9434C11.0645 11.9434 10.8496 12.1777 10.8496 12.5195C10.8496 12.6172 10.8789 12.7539 10.918 12.8711C11.084 13.4082 11.875 14.1699 13.2227 14.1699ZM13.4082 10.1855C12.4805 10.1855 11.8555 9.49219 11.8555 8.51562C11.8555 7.49023 12.4609 6.81641 13.4082 6.81641C14.3066 6.81641 14.9512 7.5293 14.9512 8.53516C14.9512 9.49219 14.3164 10.1855 13.4082 10.1855Z" fill="#000000" fill-opacity="0.85"/>
 </g>
</svg>
