<?xml version="1.0" encoding="UTF-8"?>
<!--Generator: Apple Native CoreSVG 175.5-->
<!DOCTYPE svg
PUBLIC "-//W3C//DTD SVG 1.1//EN"
       "http://www.w3.org/Graphics/SVG/1.1/DTD/svg11.dtd">
<svg version="1.1" xmlns="http://www.w3.org/2000/svg" xmlns:xlink="http://www.w3.org/1999/xlink" width="19.9219" height="19.9316">
 <g>
  <rect height="19.9316" opacity="0" width="19.9219" x="0" y="0"/>
  <path d="M9.96094 19.9219C15.4102 19.9219 19.9219 15.4004 19.9219 9.96094C19.9219 4.51172 15.4004 0 9.95117 0C4.51172 0 0 4.51172 0 9.96094C0 15.4004 4.52148 19.9219 9.96094 19.9219Z" fill="#000000" fill-opacity="0.85"/>
  <path d="M7.8418 14.2871C7.44141 14.2871 7.22656 13.9941 7.22656 13.6035L7.22656 12.4219L4.30664 12.4219C3.78906 12.4219 3.4375 12.0996 3.4375 11.5625C3.4375 11.2891 3.49609 11.0645 3.66211 10.752C4.33594 9.53125 5.3418 7.8125 6.19141 6.39648C6.51367 5.83984 6.875 5.61523 7.46094 5.61523C8.04688 5.61523 8.45703 5.99609 8.45703 6.58203L8.45703 11.2891L9.00391 11.2891C9.3457 11.2891 9.57031 11.5039 9.57031 11.8652C9.57031 12.2168 9.3457 12.4219 9.00391 12.4219L8.45703 12.4219L8.45703 13.6035C8.45703 14.0039 8.25195 14.2871 7.8418 14.2871ZM7.22656 11.2891L7.22656 6.98242L7.17773 6.98242C6.37695 8.34961 5.3418 10.1074 4.75586 11.25L4.75586 11.2891ZM13.3398 14.3066C11.9434 14.3066 11.123 13.5156 10.957 12.959C10.918 12.8418 10.8887 12.7051 10.8887 12.5977C10.8887 12.2461 11.1133 12.002 11.4258 12.002C11.6895 12.002 11.875 12.1094 12.041 12.3926C12.2852 12.8418 12.7441 13.1348 13.3203 13.1348C14.4824 13.1348 15.2441 11.9531 15.2246 9.95117L15.166 9.95117C14.9023 10.6348 14.248 11.2305 13.1445 11.2305C11.8262 11.2305 10.6445 10.2637 10.6445 8.53516C10.6445 6.75781 11.7578 5.61523 13.4473 5.61523C15.3418 5.61523 16.4258 7.04102 16.4258 9.67773C16.4258 12.7148 15.3418 14.3066 13.3398 14.3066ZM13.5254 10.1855C14.4629 10.1855 15.1172 9.47266 15.1172 8.48633C15.1172 7.45117 14.4531 6.71875 13.5254 6.71875C12.5488 6.71875 11.9336 7.41211 11.9336 8.4668C11.9336 9.47266 12.5781 10.1855 13.5254 10.1855Z" fill="#ffffff"/>
 </g>
</svg>
