<?xml version="1.0" encoding="UTF-8"?>
<!--Generator: Apple Native CoreSVG 175.5-->
<!DOCTYPE svg
PUBLIC "-//W3C//DTD SVG 1.1//EN"
       "http://www.w3.org/Graphics/SVG/1.1/DTD/svg11.dtd">
<svg version="1.1" xmlns="http://www.w3.org/2000/svg" xmlns:xlink="http://www.w3.org/1999/xlink" width="17.9785" height="17.998">
 <g>
  <rect height="17.998" opacity="0" width="17.9785" x="0" y="0"/>
  <path d="M3.06641 17.998L14.9121 17.998C16.9629 17.998 17.9785 16.9824 17.9785 14.9707L17.9785 3.04688C17.9785 1.03516 16.9629 0.0195312 14.9121 0.0195312L3.06641 0.0195312C1.02539 0.0195312 0 1.02539 0 3.04688L0 14.9707C0 16.9922 1.02539 17.998 3.06641 17.998ZM3.08594 16.4258C2.10938 16.4258 1.57227 15.9082 1.57227 14.8926L1.57227 3.125C1.57227 2.10938 2.10938 1.5918 3.08594 1.5918L14.8926 1.5918C15.8594 1.5918 16.4062 2.10938 16.4062 3.125L16.4062 14.8926C16.4062 15.9082 15.8594 16.4258 14.8926 16.4258Z" fill="#000000" fill-opacity="0.85"/>
  <path d="M6.93359 13.1836C7.33398 13.1836 7.53906 12.9102 7.53906 12.5293L7.53906 11.377L8.06641 11.377C8.39844 11.377 8.61328 11.1816 8.61328 10.8398C8.61328 10.4883 8.39844 10.2832 8.06641 10.2832L7.53906 10.2832L7.53906 5.71289C7.53906 5.14648 7.13867 4.78516 6.57227 4.78516C6.00586 4.78516 5.66406 5 5.3418 5.53711C4.53125 6.9043 3.54492 8.58398 2.88086 9.76562C2.72461 10.0684 2.66602 10.2832 2.66602 10.5469C2.66602 11.0645 3.00781 11.377 3.50586 11.377L6.35742 11.377L6.35742 12.5293C6.35742 12.9004 6.55273 13.1836 6.93359 13.1836ZM6.35742 10.2832L3.94531 10.2832L3.94531 10.2441C4.52148 9.14062 5.51758 7.42188 6.29883 6.10352L6.35742 6.10352ZM12.2656 13.2031C14.209 13.2031 15.2637 11.6602 15.2637 8.7207C15.2637 6.16211 14.209 4.78516 12.373 4.78516C10.7324 4.78516 9.6582 5.88867 9.6582 7.60742C9.6582 9.28711 10.8105 10.2246 12.0801 10.2246C13.1543 10.2246 13.7891 9.64844 14.043 8.98438L14.1016 8.98438C14.1211 10.9277 13.3789 12.0801 12.2461 12.0801C11.6895 12.0801 11.2402 11.7871 11.0059 11.3574C10.8496 11.084 10.6641 10.9766 10.4102 10.9766C10.1074 10.9766 9.89258 11.2109 9.89258 11.5527C9.89258 11.6504 9.93164 11.7871 9.9707 11.9043C10.127 12.4414 10.918 13.2031 12.2656 13.2031ZM12.4512 9.21875C11.5234 9.21875 10.8984 8.52539 10.8984 7.54883C10.8984 6.52344 11.5137 5.84961 12.4512 5.84961C13.3496 5.84961 13.9941 6.5625 13.9941 7.56836C13.9941 8.52539 13.3594 9.21875 12.4512 9.21875Z" fill="#000000" fill-opacity="0.85"/>
 </g>
</svg>
