<?xml version="1.0" encoding="UTF-8"?>
<!--Generator: Apple Native CoreSVG 175.5-->
<!DOCTYPE svg
PUBLIC "-//W3C//DTD SVG 1.1//EN"
       "http://www.w3.org/Graphics/SVG/1.1/DTD/svg11.dtd">
<svg version="1.1" xmlns="http://www.w3.org/2000/svg" xmlns:xlink="http://www.w3.org/1999/xlink" width="24.4141" height="20.1855">
 <g>
  <rect height="20.1855" opacity="0" width="24.4141" x="0" y="0"/>
  <path d="M2.50977 16.875L21.9043 16.875C23.5742 16.875 24.4141 16.084 24.4141 14.3652L24.4141 3.17383C24.4141 1.46484 23.5742 0.673828 21.9043 0.673828L2.50977 0.673828C0.839844 0.673828 0 1.46484 0 3.17383L0 14.3652C0 16.084 0.839844 16.875 2.50977 16.875ZM7.29492 20.1855L17.1191 20.1855C17.5488 20.1855 17.9102 19.834 17.9102 19.3945C17.9102 18.9551 17.5488 18.6035 17.1191 18.6035L7.29492 18.6035C6.86523 18.6035 6.50391 18.9551 6.50391 19.3945C6.50391 19.834 6.86523 20.1855 7.29492 20.1855Z" fill="#000000" fill-opacity="0.85"/>
  <path d="M9.28711 13.2031C8.85742 13.2031 8.60352 12.9102 8.60352 12.4121L8.60352 11.3965L5.20508 11.3965C4.59961 11.3965 4.21875 11.0254 4.21875 10.4688C4.21875 10.1953 4.27734 9.95117 4.47266 9.64844C5.25391 8.35938 6.43555 6.63086 7.42188 5.14648C7.79297 4.57031 8.20312 4.33594 8.86719 4.33594C9.53125 4.33594 10 4.74609 10 5.33203L10 10.166L10.7227 10.166C11.0938 10.166 11.3379 10.4199 11.3379 10.7812C11.3379 11.1621 11.084 11.3965 10.7227 11.3965L10 11.3965L10 12.4121C10 12.9199 9.73633 13.2031 9.28711 13.2031ZM8.60352 10.166L8.60352 5.56641L8.53516 5.56641C7.53906 7.06055 6.32812 8.85742 5.60547 10.1074L5.60547 10.166ZM13.3105 13.1445C12.8809 13.1445 12.6172 12.8516 12.6172 12.3633L12.6172 5.20508C12.6172 4.70703 12.8809 4.41406 13.3105 4.41406C13.7793 4.41406 14.0234 4.69727 14.0234 5.20508L14.0234 8.52539L14.1504 8.52539L17.9102 4.70703C18.1348 4.49219 18.2617 4.41406 18.4863 4.41406C18.8379 4.41406 19.1113 4.6582 19.1113 5C19.1113 5.19531 19.0527 5.35156 18.8867 5.48828L16.2598 8.21289L19.1309 11.9434C19.2578 12.1191 19.3262 12.3047 19.3262 12.4902C19.3262 12.8711 19.043 13.1445 18.6523 13.1445C18.418 13.1445 18.2227 13.0469 18.0371 12.8027L15.2344 9.0918L14.0234 10.3613L14.0234 12.3633C14.0234 12.8613 13.7793 13.1445 13.3105 13.1445Z" fill="#ffffff"/>
 </g>
</svg>
