<?xml version="1.0" encoding="UTF-8"?>
<!--Generator: Apple Native CoreSVG 175.5-->
<!DOCTYPE svg
PUBLIC "-//W3C//DTD SVG 1.1//EN"
       "http://www.w3.org/Graphics/SVG/1.1/DTD/svg11.dtd">
<svg version="1.1" xmlns="http://www.w3.org/2000/svg" xmlns:xlink="http://www.w3.org/1999/xlink" width="17.9785" height="17.998">
 <g>
  <rect height="17.998" opacity="0" width="17.9785" x="0" y="0"/>
  <path d="M3.06641 17.998L14.9121 17.998C16.9629 17.998 17.9785 16.9824 17.9785 14.9707L17.9785 3.04688C17.9785 1.03516 16.9629 0.0195312 14.9121 0.0195312L3.06641 0.0195312C1.02539 0.0195312 0 1.02539 0 3.04688L0 14.9707C0 16.9922 1.02539 17.998 3.06641 17.998Z" fill="#000000" fill-opacity="0.85"/>
  <path d="M5.6543 13.3496C4.39453 13.3496 3.39844 12.6855 3.0957 11.8457C3.04688 11.7188 3.01758 11.5625 3.01758 11.3867C3.01758 11.0547 3.23242 10.8008 3.58398 10.8008C3.80859 10.8008 4.01367 10.9473 4.16016 11.2402C4.45312 11.8457 5.03906 12.207 5.72266 12.207C6.69922 12.207 7.36328 11.5723 7.36328 10.5176C7.36328 9.58984 6.75781 8.89648 5.87891 8.89648C5.43945 8.89648 5.11719 9.04297 4.70703 9.39453C4.375 9.66797 4.18945 9.75586 3.87695 9.75586C3.4082 9.75586 3.13477 9.4043 3.16406 8.86719L3.41797 5.73242C3.44727 5.20508 3.79883 4.88281 4.32617 4.88281L7.79297 4.88281C8.08594 4.88281 8.28125 5.11719 8.28125 5.43945C8.28125 5.77148 8.07617 6.00586 7.79297 6.00586L4.46289 6.00586L4.26758 8.59375L4.31641 8.59375C4.60938 8.13477 5.33203 7.80273 6.00586 7.80273C7.56836 7.80273 8.61328 8.93555 8.61328 10.498C8.61328 12.2559 7.43164 13.3496 5.6543 13.3496ZM12.5781 13.3496C10.8398 13.3496 9.69727 11.6895 9.69727 9.00391C9.69727 6.31836 10.8398 4.6582 12.5781 4.6582C14.3164 4.6582 15.459 6.31836 15.459 9.00391C15.459 11.6895 14.3164 13.3496 12.5781 13.3496ZM12.5781 12.1191C13.5449 12.1191 14.1309 10.9375 14.1309 9.00391C14.1309 7.07031 13.5352 5.88867 12.5781 5.88867C11.6211 5.88867 11.0254 7.07031 11.0254 9.00391C11.0254 10.9375 11.6211 12.1191 12.5781 12.1191Z" fill="#ffffff"/>
 </g>
</svg>
