<?xml version="1.0" encoding="UTF-8"?>
<!--Generator: Apple Native CoreSVG 175.5-->
<!DOCTYPE svg
PUBLIC "-//W3C//DTD SVG 1.1//EN"
       "http://www.w3.org/Graphics/SVG/1.1/DTD/svg11.dtd">
<svg version="1.1" xmlns="http://www.w3.org/2000/svg" xmlns:xlink="http://www.w3.org/1999/xlink" width="17.9785" height="17.998">
 <g>
  <rect height="17.998" opacity="0" width="17.9785" x="0" y="0"/>
  <path d="M3.06641 17.998L14.9121 17.998C16.9629 17.998 17.9785 16.9824 17.9785 14.9707L17.9785 3.04688C17.9785 1.03516 16.9629 0.0195312 14.9121 0.0195312L3.06641 0.0195312C1.02539 0.0195312 0 1.02539 0 3.04688L0 14.9707C0 16.9922 1.02539 17.998 3.06641 17.998ZM3.08594 16.4258C2.10938 16.4258 1.57227 15.9082 1.57227 14.8926L1.57227 3.125C1.57227 2.10938 2.10938 1.5918 3.08594 1.5918L14.8926 1.5918C15.8594 1.5918 16.4062 2.10938 16.4062 3.125L16.4062 14.8926C16.4062 15.9082 15.8594 16.4258 14.8926 16.4258Z" fill="#000000" fill-opacity="0.85"/>
  <path d="M5.75195 13.2129C7.4707 13.2129 8.62305 12.1582 8.62305 10.4492C8.62305 8.93555 7.60742 7.8418 6.09375 7.8418C5.43945 7.8418 4.73633 8.16406 4.44336 8.60352L4.4043 8.60352L4.58984 6.09375L7.82227 6.09375C8.0957 6.09375 8.30078 5.86914 8.30078 5.54688C8.30078 5.23438 8.10547 5.00977 7.82227 5.00977L4.46289 5.00977C3.95508 5.00977 3.61328 5.32227 3.58398 5.83008L3.33984 8.87695C3.31055 9.39453 3.57422 9.72656 4.02344 9.72656C4.32617 9.72656 4.51172 9.64844 4.82422 9.38477C5.22461 9.04297 5.53711 8.89648 5.9668 8.89648C6.82617 8.89648 7.41211 9.57031 7.41211 10.4688C7.41211 11.4941 6.76758 12.1094 5.82031 12.1094C5.15625 12.1094 4.58008 11.7578 4.29688 11.1719C4.16016 10.8887 3.96484 10.752 3.74023 10.752C3.4082 10.752 3.19336 10.9961 3.19336 11.3184C3.19336 11.4844 3.22266 11.6309 3.27148 11.7578C3.56445 12.5684 4.53125 13.2129 5.75195 13.2129ZM12.4707 13.2129C14.1504 13.2129 15.2637 11.6016 15.2637 9.00391C15.2637 6.40625 14.1504 4.79492 12.4707 4.79492C10.7812 4.79492 9.67773 6.40625 9.67773 9.00391C9.67773 11.6016 10.7812 13.2129 12.4707 13.2129ZM12.4707 12.0312C11.5332 12.0312 10.957 10.8789 10.957 9.00391C10.957 7.12891 11.5332 5.97656 12.4707 5.97656C13.3984 5.97656 13.9746 7.12891 13.9746 9.00391C13.9746 10.8789 13.4082 12.0312 12.4707 12.0312Z" fill="#000000" fill-opacity="0.85"/>
 </g>
</svg>
