<?xml version="1.0" encoding="UTF-8"?>
<!--Generator: Apple Native CoreSVG 175.5-->
<!DOCTYPE svg
PUBLIC "-//W3C//DTD SVG 1.1//EN"
       "http://www.w3.org/Graphics/SVG/1.1/DTD/svg11.dtd">
<svg version="1.1" xmlns="http://www.w3.org/2000/svg" xmlns:xlink="http://www.w3.org/1999/xlink" width="19.9219" height="19.9316">
 <g>
  <rect height="19.9316" opacity="0" width="19.9219" x="0" y="0"/>
  <path d="M9.96094 19.9219C15.4102 19.9219 19.9219 15.4004 19.9219 9.96094C19.9219 4.51172 15.4004 0 9.95117 0C4.51172 0 0 4.51172 0 9.96094C0 15.4004 4.52148 19.9219 9.96094 19.9219Z" fill="#000000" fill-opacity="0.85"/>
  <path d="M9.98047 14.7559C7.89062 14.7559 6.46484 13.4277 6.46484 11.4941C6.46484 10.4004 6.9043 9.29688 7.94922 7.91992C8.4668 7.22656 9.08203 6.45508 9.73633 5.58594C9.89258 5.39062 10.0977 5.17578 10.4102 5.17578C10.9082 5.17578 11.1035 5.48828 11.1035 5.79102C11.1035 5.98633 11.0156 6.14258 10.8691 6.34766C10.3711 6.98242 9.7168 7.80273 9.19922 8.4668C8.88672 8.87695 8.75977 9.05273 8.65234 9.22852L8.75977 9.25781C9.0918 8.91602 9.79492 8.65234 10.4688 8.65234C12.2266 8.65234 13.4766 9.89258 13.4766 11.5527C13.4766 13.4277 12.0605 14.7559 9.98047 14.7559ZM9.98047 13.4863C11.1816 13.4863 12.0605 12.6758 12.0605 11.6309C12.0605 10.5664 11.1816 9.79492 9.9707 9.79492C8.78906 9.79492 7.89062 10.5664 7.89062 11.6113C7.89062 12.6758 8.79883 13.4863 9.98047 13.4863Z" fill="#ffffff"/>
 </g>
</svg>
