<?xml version="1.0" encoding="UTF-8"?>
<!--Generator: Apple Native CoreSVG 175.5-->
<!DOCTYPE svg
PUBLIC "-//W3C//DTD SVG 1.1//EN"
       "http://www.w3.org/Graphics/SVG/1.1/DTD/svg11.dtd">
<svg version="1.1" xmlns="http://www.w3.org/2000/svg" xmlns:xlink="http://www.w3.org/1999/xlink" width="17.9785" height="17.998">
 <g>
  <rect height="17.998" opacity="0" width="17.9785" x="0" y="0"/>
  <path d="M3.06641 17.998L14.9121 17.998C16.9629 17.998 17.9785 16.9824 17.9785 14.9707L17.9785 3.04688C17.9785 1.03516 16.9629 0.0195312 14.9121 0.0195312L3.06641 0.0195312C1.02539 0.0195312 0 1.02539 0 3.04688L0 14.9707C0 16.9922 1.02539 17.998 3.06641 17.998Z" fill="#000000" fill-opacity="0.85"/>
  <path d="M9.01367 13.7891C6.92383 13.7891 5.49805 12.4609 5.49805 10.5273C5.49805 9.43359 5.94727 8.33008 6.98242 6.95312C7.5 6.25977 8.11523 5.48828 8.7793 4.61914C8.92578 4.42383 9.13086 4.20898 9.45312 4.20898C9.94141 4.20898 10.1367 4.52148 10.1367 4.82422C10.1367 5.01953 10.0488 5.17578 9.90234 5.38086C9.4043 6.01562 8.75 6.83594 8.23242 7.5C7.91992 7.91016 7.79297 8.08594 7.68555 8.26172L7.79297 8.29102C8.125 7.94922 8.82812 7.68555 9.50195 7.68555C11.2598 7.68555 12.5195 8.92578 12.5195 10.5859C12.5195 12.4609 11.0938 13.7891 9.01367 13.7891ZM9.01367 12.5195C10.2148 12.5195 11.1035 11.709 11.1035 10.6641C11.1035 9.59961 10.2148 8.82812 9.01367 8.82812C7.82227 8.82812 6.92383 9.59961 6.92383 10.6445C6.92383 11.709 7.83203 12.5195 9.01367 12.5195Z" fill="#ffffff"/>
 </g>
</svg>
