<?xml version="1.0" encoding="UTF-8"?>
<!--Generator: Apple Native CoreSVG 175.5-->
<!DOCTYPE svg
PUBLIC "-//W3C//DTD SVG 1.1//EN"
       "http://www.w3.org/Graphics/SVG/1.1/DTD/svg11.dtd">
<svg version="1.1" xmlns="http://www.w3.org/2000/svg" xmlns:xlink="http://www.w3.org/1999/xlink" width="19.9219" height="19.9316">
 <g>
  <rect height="19.9316" opacity="0" width="19.9219" x="0" y="0"/>
  <path d="M9.96094 19.9219C15.4102 19.9219 19.9219 15.4004 19.9219 9.96094C19.9219 4.51172 15.4004 0 9.95117 0C4.51172 0 0 4.51172 0 9.96094C0 15.4004 4.52148 19.9219 9.96094 19.9219Z" fill="#000000" fill-opacity="0.85"/>
  <path d="M9.94141 14.7559C7.80273 14.7559 6.36719 13.6719 6.36719 12.041C6.36719 10.918 7.1875 9.98047 8.39844 9.73633L8.39844 9.67773C7.37305 9.36523 6.76758 8.58398 6.76758 7.61719C6.76758 6.16211 8.07617 5.16602 9.96094 5.16602C11.8359 5.16602 13.1543 6.16211 13.1543 7.61719C13.1543 8.58398 12.5195 9.38477 11.5137 9.67773L11.5137 9.73633C12.7246 9.98047 13.5449 10.9082 13.5449 12.0312C13.5449 13.6523 12.0801 14.7559 9.94141 14.7559ZM9.9707 13.6426C11.1426 13.6426 12.0117 12.9395 12.0117 11.9531C12.0117 10.9863 11.1719 10.2832 9.9707 10.2832C8.78906 10.2832 7.91016 10.9961 7.91016 11.9531C7.91016 12.9395 8.7793 13.6426 9.9707 13.6426ZM9.96094 9.21875C10.957 9.21875 11.6699 8.60352 11.6699 7.73438C11.6699 6.89453 10.9668 6.28906 9.96094 6.28906C8.95508 6.28906 8.24219 6.89453 8.24219 7.73438C8.24219 8.60352 8.95508 9.21875 9.96094 9.21875Z" fill="#ffffff"/>
 </g>
</svg>
