<?xml version="1.0" encoding="UTF-8"?>
<!--Generator: Apple Native CoreSVG 175.5-->
<!DOCTYPE svg
PUBLIC "-//W3C//DTD SVG 1.1//EN"
       "http://www.w3.org/Graphics/SVG/1.1/DTD/svg11.dtd">
<svg version="1.1" xmlns="http://www.w3.org/2000/svg" xmlns:xlink="http://www.w3.org/1999/xlink" width="27.8711" height="19.0527">
 <g>
  <rect height="19.0527" opacity="0" width="27.8711" x="0" y="0"/>
  <path d="M13.9355 19.043C19.1406 19.043 23.4668 14.7266 23.4668 9.52148C23.4668 4.31641 19.1406 0 13.9258 0C8.7207 0 4.41406 4.30664 4.41406 9.52148C4.41406 14.7266 8.73047 19.043 13.9355 19.043ZM13.9355 17.3828C9.58008 17.3828 6.08398 13.8867 6.08398 9.52148C6.08398 5.14648 9.57031 1.65039 13.9258 1.65039C18.291 1.65039 21.7969 5.14648 21.8066 9.52148C21.8164 13.877 18.3105 17.3828 13.9355 17.3828ZM7.50977 11.6602C7.40234 12.0801 7.60742 12.4219 8.04688 12.4219C8.29102 12.4219 8.52539 12.2852 8.58398 12.0312L8.81836 11.0059L10.3125 11.0059L10.5469 12.0312C10.6055 12.2852 10.8496 12.4121 11.0938 12.4121C11.4844 12.4121 11.7383 12.1094 11.6211 11.6602L10.4492 7.13867C10.332 6.69922 9.96094 6.46484 9.58008 6.46484C9.20898 6.46484 8.83789 6.68945 8.7207 7.13867ZM9.00391 10.166L9.55078 7.68555L9.58984 7.68555L10.1367 10.166ZM12.3145 11.5332C12.3145 12.0117 12.627 12.3145 13.1055 12.3145L14.4141 12.3145C15.5078 12.3145 16.1523 11.6992 16.1523 10.7031C16.1523 9.91211 15.6836 9.35547 14.9902 9.28711L14.9902 9.24805C15.625 9.11133 15.957 8.56445 15.957 7.95898C15.957 7.03125 15.3223 6.52344 14.3848 6.52344L13.1055 6.52344C12.627 6.52344 12.3145 6.83594 12.3145 7.30469ZM13.4668 11.4746L13.4668 9.7168L14.082 9.7168C14.6582 9.7168 14.9707 10.0195 14.9707 10.5957C14.9707 11.1719 14.6875 11.4746 14.1016 11.4746ZM13.4668 8.95508L13.4668 7.37305L14.0918 7.37305C14.5996 7.37305 14.834 7.65625 14.834 8.14453C14.834 8.68164 14.5508 8.95508 14.0234 8.95508ZM18.5156 12.4219C19.6582 12.4219 20.4102 11.7773 20.4102 10.7227C20.4102 9.69727 19.7559 9.30664 18.7109 8.88672C18.1445 8.66211 17.8223 8.48633 17.8223 8.00781C17.8223 7.60742 18.0859 7.35352 18.5156 7.35352C18.9258 7.35352 19.1504 7.57812 19.2285 7.94922C19.2969 8.19336 19.5117 8.31055 19.7363 8.31055C20.0098 8.31055 20.2832 8.14453 20.2832 7.82227C20.2832 7.74414 20.2734 7.66602 20.2441 7.58789C20.0879 6.93359 19.4922 6.41602 18.5059 6.41602C17.4023 6.41602 16.6699 7.08984 16.6699 8.07617C16.6699 9.07227 17.3145 9.47266 18.1055 9.78516C18.8574 10.0684 19.2773 10.3223 19.2773 10.8105C19.2773 11.2305 18.9746 11.4941 18.5156 11.4941C18.0664 11.4941 17.7832 11.2598 17.6855 10.8496C17.6172 10.5957 17.3926 10.4688 17.1777 10.4688C16.9141 10.4688 16.6504 10.6543 16.6504 10.9863C16.6504 11.1035 16.6699 11.2207 16.7188 11.3477C16.9434 12.0117 17.5781 12.4219 18.5156 12.4219Z" fill="#000000" fill-opacity="0.85"/>
  <path d="M0 9.52148C0 12.6172 1.00586 15.459 2.70508 17.7734C3.00781 18.1934 3.52539 18.2324 3.91602 17.9199C4.26758 17.6172 4.31641 17.1484 4.0332 16.7578C2.54883 14.7363 1.66992 12.2266 1.66992 9.52148C1.66992 6.80664 2.54883 4.30664 4.0332 2.26562C4.31641 1.89453 4.27734 1.41602 3.91602 1.11328C3.52539 0.800781 3.00781 0.849609 2.70508 1.25977C1.00586 3.57422 0 6.42578 0 9.52148ZM27.8711 9.52148C27.8711 6.42578 26.875 3.57422 25.166 1.25977C24.8633 0.849609 24.3457 0.800781 23.9551 1.11328C23.5938 1.41602 23.5645 1.89453 23.8379 2.26562C25.332 4.30664 26.2012 6.80664 26.2012 9.52148C26.2012 12.2266 25.332 14.7363 23.8379 16.7578C23.5645 17.1484 23.6035 17.6172 23.9551 17.9199C24.3457 18.2324 24.8633 18.1934 25.166 17.7734C26.875 15.459 27.8711 12.6172 27.8711 9.52148Z" fill="#000000" fill-opacity="0.85"/>
 </g>
</svg>
