<?xml version="1.0" encoding="UTF-8"?>
<!--Generator: Apple Native CoreSVG 175.5-->
<!DOCTYPE svg
PUBLIC "-//W3C//DTD SVG 1.1//EN"
       "http://www.w3.org/Graphics/SVG/1.1/DTD/svg11.dtd">
<svg version="1.1" xmlns="http://www.w3.org/2000/svg" xmlns:xlink="http://www.w3.org/1999/xlink" width="19.1149" height="22.9785">
 <g>
  <rect height="22.9785" opacity="0" width="19.1149" x="0" y="0"/>
  <path d="M3.01758 21.2402L11.8262 21.2402C13.8184 21.2402 14.834 20.2246 14.834 18.2617L14.834 2.96875C14.834 0.996094 13.7988 0 11.8262 0L3.01758 0C1.04492 0 0 0.996094 0 2.96875L0 18.2617C0 20.2246 1.02539 21.2402 3.01758 21.2402ZM3.95508 5.41016C3.17383 5.41016 2.53906 4.76562 2.53906 3.97461C2.53906 3.20312 3.17383 2.56836 3.95508 2.56836C4.73633 2.56836 5.38086 3.20312 5.38086 3.97461C5.38086 4.76562 4.73633 5.41016 3.95508 5.41016ZM3.11523 13.584C2.76367 13.584 2.48047 13.3105 2.48047 12.9492C2.48047 12.5977 2.76367 12.3145 3.11523 12.3145L6.04492 12.3145C6.40625 12.3145 6.68945 12.5977 6.68945 12.9492C6.68945 13.3105 6.40625 13.584 6.04492 13.584ZM3.11523 16.1035C2.76367 16.1035 2.48047 15.8301 2.48047 15.4688C2.48047 15.1074 2.76367 14.834 3.11523 14.834L6.04492 14.834C6.40625 14.834 6.68945 15.1074 6.68945 15.4688C6.68945 15.8301 6.40625 16.1035 6.04492 16.1035ZM3.11523 18.623C2.76367 18.623 2.48047 18.3398 2.48047 17.9883C2.48047 17.627 2.76367 17.3438 3.11523 17.3438L6.04492 17.3438C6.40625 17.3438 6.68945 17.627 6.68945 17.9883C6.68945 18.3398 6.40625 18.623 6.04492 18.623ZM8.78906 13.584C8.42773 13.584 8.14453 13.3105 8.14453 12.9492C8.14453 12.5977 8.42773 12.3145 8.78906 12.3145L11.7188 12.3145C12.0703 12.3145 12.3535 12.5977 12.3535 12.9492C12.3535 13.3105 12.0703 13.584 11.7188 13.584ZM8.78906 16.1035C8.42773 16.1035 8.14453 15.8301 8.14453 15.4688C8.14453 15.1074 8.42773 14.834 8.78906 14.834L11.7188 14.834C12.0703 14.834 12.3535 15.1074 12.3535 15.4688C12.3535 15.8301 12.0703 16.1035 11.7188 16.1035ZM8.78906 18.623C8.42773 18.623 8.14453 18.3398 8.14453 17.9883C8.14453 17.627 8.42773 17.3438 8.78906 17.3438L11.7188 17.3438C12.0703 17.3438 12.3535 17.627 12.3535 17.9883C12.3535 18.3398 12.0703 18.623 11.7188 18.623ZM10.4004 5.09766C9.6582 5.09766 8.94531 4.93164 8.30078 4.53125C7.89062 4.29688 7.87109 3.86719 8.04688 3.59375C8.20312 3.33984 8.53516 3.21289 8.86719 3.39844C9.43359 3.7207 9.87305 3.83789 10.4004 3.83789C12.6367 3.83789 13.9941 1.70898 16.6406 1.70898C17.3828 1.70898 18.0859 1.89453 18.7402 2.27539C19.1699 2.51953 19.1797 2.94922 18.9941 3.23242C18.8379 3.45703 18.5254 3.59375 18.1738 3.39844C17.6074 3.08594 17.168 2.97852 16.6406 2.97852C14.3652 2.97852 13.0078 5.09766 10.4004 5.09766ZM10.4102 7.82227C9.66797 7.82227 8.95508 7.64648 8.31055 7.25586C7.89062 7.02148 7.87109 6.5918 8.04688 6.31836C8.20312 6.06445 8.54492 5.92773 8.87695 6.12305C9.43359 6.43555 9.87305 6.5625 10.4102 6.5625C12.6465 6.5625 14.0039 4.42383 16.6406 4.42383C17.3828 4.42383 18.0957 4.60938 18.7598 4.99023C19.1797 5.23438 19.1797 5.67383 19.0039 5.94727C18.8477 6.18164 18.5254 6.31836 18.1836 6.12305C17.6172 5.80078 17.1777 5.69336 16.6406 5.69336C14.375 5.69336 13.0078 7.82227 10.4102 7.82227ZM10.4004 10.5371C9.6582 10.5371 8.94531 10.3711 8.30078 9.9707C7.89062 9.73633 7.87109 9.30664 8.04688 9.0332C8.20312 8.7793 8.53516 8.65234 8.86719 8.83789C9.43359 9.16016 9.87305 9.27734 10.4004 9.27734C12.6367 9.27734 13.9941 7.14844 16.6406 7.14844C17.3828 7.14844 18.0859 7.33398 18.7402 7.71484C19.1699 7.95898 19.1797 8.38867 18.9941 8.67188C18.8379 8.89648 18.5254 9.0332 18.1738 8.83789C17.6074 8.52539 17.168 8.41797 16.6406 8.41797C14.3652 8.41797 13.0078 10.5371 10.4004 10.5371ZM2.83203 22.959C3.30078 22.959 3.61328 22.6367 3.61328 22.168L3.61328 20.2539L2.04102 20.2539L2.04102 22.168C2.04102 22.6367 2.36328 22.959 2.83203 22.959ZM12.002 22.959C12.4805 22.959 12.793 22.6367 12.793 22.168L12.793 20.2539L11.2207 20.2539L11.2207 22.168C11.2207 22.6367 11.5332 22.959 12.002 22.959Z" fill="#000000" fill-opacity="0.85"/>
 </g>
</svg>
