<?xml version="1.0" encoding="UTF-8"?>
<!--Generator: Apple Native CoreSVG 175.5-->
<!DOCTYPE svg
PUBLIC "-//W3C//DTD SVG 1.1//EN"
       "http://www.w3.org/Graphics/SVG/1.1/DTD/svg11.dtd">
<svg version="1.1" xmlns="http://www.w3.org/2000/svg" xmlns:xlink="http://www.w3.org/1999/xlink" width="22.8027" height="18.5254">
 <g>
  <rect height="18.5254" opacity="0" width="22.8027" x="0" y="0"/>
  <path d="M15.4102 13.291L16.7969 14.8633L20.6934 14.8633C22.0508 14.8633 22.8027 14.1113 22.8027 12.7734L22.8027 2.09961C22.8027 0.771484 22.0508 0 20.6934 0L2.09961 0C0.78125 0 0 0.800781 0 2.09961L0 12.7734C0 14.1113 0.742188 14.8633 2.09961 14.8633L6.09375 14.8633L7.48047 13.291L2.34375 13.291C1.88477 13.291 1.66016 13.0566 1.66016 12.5977L1.66016 2.27539C1.66016 1.81641 1.88477 1.57227 2.34375 1.57227L20.4492 1.57227C20.9082 1.57227 21.1426 1.81641 21.1426 2.27539L21.1426 12.5977C21.1426 13.0566 20.9082 13.291 20.4492 13.291ZM17.3633 18.5059C17.8223 18.5059 17.998 18.0371 17.7051 17.7051L11.8164 11.0352C11.5918 10.7812 11.2012 10.7812 10.9766 11.0352L5.08789 17.7051C4.79492 18.0371 4.9707 18.5059 5.42969 18.5059Z" fill="#000000" fill-opacity="0.85"/>
 </g>
</svg>
