<?xml version="1.0" encoding="UTF-8"?>
<!--Generator: Apple Native CoreSVG 175.5-->
<!DOCTYPE svg
PUBLIC "-//W3C//DTD SVG 1.1//EN"
       "http://www.w3.org/Graphics/SVG/1.1/DTD/svg11.dtd">
<svg version="1.1" xmlns="http://www.w3.org/2000/svg" xmlns:xlink="http://www.w3.org/1999/xlink" width="20" height="20.0098">
 <g>
  <rect height="20.0098" opacity="0" width="20" x="0" y="0"/>
  <path d="M3.68164 18.8672C3.38867 19.1992 3.56445 19.668 4.02344 19.668L15.957 19.668C16.416 19.668 16.5918 19.1895 16.3086 18.8672L10.4102 12.1973C10.1855 11.9434 9.79492 11.9434 9.57031 12.1973Z" fill="#000000" fill-opacity="0.85"/>
  <path d="M5.68359 10C5.68359 11.0352 6.04492 11.9824 6.66992 12.7344C6.77734 12.8711 6.91406 12.8711 7.04102 12.7344L7.5 12.2559C7.61719 12.1387 7.60742 12.0117 7.51953 11.875C7.11914 11.3574 6.88477 10.6934 6.88477 10C6.88477 8.30078 8.30078 6.88477 10 6.88477C11.6992 6.88477 13.1152 8.30078 13.1152 10C13.1152 10.6934 12.8809 11.3574 12.4805 11.875C12.3828 12.0117 12.373 12.1387 12.5 12.2656L12.959 12.7344C13.0762 12.8711 13.2227 12.8711 13.3301 12.7344C13.9551 11.9824 14.3164 11.0352 14.3164 10C14.3164 7.63672 12.373 5.68359 10 5.68359C7.62695 5.68359 5.68359 7.63672 5.68359 10Z" fill="#000000" fill-opacity="0.85"/>
  <path d="M2.8418 10C2.8418 11.8945 3.57422 13.6035 4.78516 14.8926C4.91211 15.0293 5.04883 15.0195 5.16602 14.8926L5.60547 14.4043C5.73242 14.2773 5.71289 14.1602 5.5957 14.0234C4.62891 12.9492 4.04297 11.543 4.04297 10C4.04297 6.73828 6.72852 4.04297 10 4.04297C13.2715 4.04297 15.957 6.73828 15.957 10C15.957 11.543 15.3711 12.9492 14.4043 14.0137C14.2871 14.1504 14.2676 14.2676 14.3945 14.3945L14.8438 14.8926C14.9512 15.0195 15.0977 15.0293 15.2148 14.8926C16.416 13.6035 17.1582 11.8945 17.1582 10C17.1582 6.07422 13.9453 2.8418 10 2.8418C6.05469 2.8418 2.8418 6.07422 2.8418 10Z" fill="#000000" fill-opacity="0.85"/>
  <path d="M0 10C0 12.7441 1.11328 15.2246 2.90039 17.0312C3.02734 17.1582 3.16406 17.1582 3.27148 17.0215L3.71094 16.5234C3.82812 16.3965 3.81836 16.2793 3.70117 16.1523C2.1582 14.5605 1.19141 12.3828 1.19141 10C1.19141 5.19531 5.17578 1.20117 10 1.20117C14.8242 1.20117 18.8086 5.19531 18.8086 10C18.8086 12.3828 17.8418 14.5605 16.2988 16.1523C16.1816 16.2793 16.1719 16.3965 16.2891 16.5234L16.7285 17.0215C16.8359 17.1582 16.9727 17.1582 17.0996 17.0312C18.8867 15.2344 20 12.7441 20 10C20 4.52148 15.5176 0 10 0C4.48242 0 0 4.52148 0 10Z" fill="#000000" fill-opacity="0.85"/>
 </g>
</svg>
