<?xml version="1.0" encoding="UTF-8"?>
<!--Generator: Apple Native CoreSVG 175.5-->
<!DOCTYPE svg
PUBLIC "-//W3C//DTD SVG 1.1//EN"
       "http://www.w3.org/Graphics/SVG/1.1/DTD/svg11.dtd">
<svg version="1.1" xmlns="http://www.w3.org/2000/svg" xmlns:xlink="http://www.w3.org/1999/xlink" width="19.9219" height="19.9316">
 <g>
  <rect height="19.9316" opacity="0" width="19.9219" x="0" y="0"/>
  <path d="M9.96094 19.9219C15.4102 19.9219 19.9219 15.4004 19.9219 9.96094C19.9219 4.51172 15.4004 0 9.95117 0C4.51172 0 0 4.51172 0 9.96094C0 15.4004 4.52148 19.9219 9.96094 19.9219ZM9.96094 18.2617C5.35156 18.2617 1.66992 14.5703 1.66992 9.96094C1.66992 5.35156 5.3418 1.66016 9.95117 1.66016C14.5605 1.66016 18.2617 5.35156 18.2617 9.96094C18.2617 14.5703 14.5703 18.2617 9.96094 18.2617Z" fill="#000000" fill-opacity="0.85"/>
  <path d="M12.793 14.9023C13.1152 14.9023 13.2617 14.5508 13.0469 14.3164L10.2344 11.1328C10.0977 10.9668 9.81445 10.9668 9.6582 11.1328L6.83594 14.3164C6.62109 14.5508 6.78711 14.9023 7.08984 14.9023ZM14.375 5.84961L5.50781 5.84961C4.82422 5.84961 4.39453 6.26953 4.39453 6.96289L4.39453 12.0605C4.39453 12.7637 4.80469 13.1641 5.50781 13.1641L6.79688 13.1641L7.67578 12.1777L5.625 12.1777C5.47852 12.1777 5.42969 12.1191 5.42969 11.9727L5.42969 7.05078C5.42969 6.89453 5.47852 6.83594 5.625 6.83594L14.2676 6.83594C14.4141 6.83594 14.4727 6.89453 14.4727 7.05078L14.4727 11.9727C14.4727 12.1191 14.4141 12.1777 14.2676 12.1777L12.2168 12.1777L13.0859 13.1641L14.375 13.1641C15.0781 13.1641 15.5078 12.7637 15.5078 12.0605L15.5078 6.96289C15.5078 6.25977 15.0977 5.84961 14.375 5.84961Z" fill="#000000" fill-opacity="0.85"/>
 </g>
</svg>
