<?xml version="1.0" encoding="UTF-8"?>
<!--Generator: Apple Native CoreSVG 175.5-->
<!DOCTYPE svg
PUBLIC "-//W3C//DTD SVG 1.1//EN"
       "http://www.w3.org/Graphics/SVG/1.1/DTD/svg11.dtd">
<svg version="1.1" xmlns="http://www.w3.org/2000/svg" xmlns:xlink="http://www.w3.org/1999/xlink" width="26.8066" height="17.2761">
 <g>
  <rect height="17.2761" opacity="0" width="26.8066" x="0" y="0"/>
  <path d="M8.81836 0.000340539C7.14844-0.0191907 5.2832 0.801122 4.04297 2.5394C3.85742 2.77378 3.69141 3.03745 3.51562 3.42807C5.63477 3.80893 7.35352 5.68393 7.35352 7.77378C7.35352 8.36948 7.23633 8.91636 7.03125 9.40464C8.32031 9.21909 9.12109 8.92612 9.85352 8.51597C11.4648 7.58823 12.7344 6.08432 12.7344 3.92612C12.7344 1.43589 10.9766 0.0198718 8.81836 0.000340539ZM9.19922 4.18979C9.00391 4.35581 8.70117 4.33628 8.53516 4.1312C8.36914 3.92612 8.39844 3.63315 8.60352 3.46714L10.0391 2.2562C10.2344 2.09018 10.5273 2.11948 10.6836 2.32456C10.8594 2.51987 10.8496 2.81284 10.6445 2.97886ZM7.41211 17.2757L8.18359 17.2757C8.7793 17.2757 9.17969 16.9632 9.17969 16.3578L9.17969 9.92222C8.34961 10.2249 7.42188 10.4105 6.40625 10.4789L6.40625 16.3578C6.40625 16.9632 6.80664 17.2757 7.41211 17.2757ZM17.9785 0.000340539C15.8301 0.0198718 14.0723 1.43589 14.0723 3.92612C14.0723 6.08432 15.3418 7.58823 16.9434 8.51597C17.6855 8.92612 18.4863 9.21909 19.7754 9.40464C19.5605 8.91636 19.4531 8.36948 19.4531 7.77378C19.4531 5.68393 21.1621 3.80893 23.2812 3.42807C23.1152 3.03745 22.9395 2.77378 22.7637 2.5394C21.5137 0.801122 19.6582-0.0191907 17.9785 0.000340539ZM17.6074 4.18979L16.1621 2.97886C15.957 2.81284 15.9473 2.51987 16.1133 2.32456C16.2695 2.11948 16.5723 2.09018 16.7676 2.2562L18.2031 3.46714C18.4082 3.63315 18.4277 3.92612 18.2617 4.1312C18.0957 4.33628 17.8027 4.35581 17.6074 4.18979ZM19.3848 17.2757C20 17.2757 20.3906 16.9632 20.3906 16.3578L20.3906 10.4789C19.375 10.4105 18.457 10.2249 17.627 9.92222L17.627 16.3578C17.627 16.9632 18.0176 17.2757 18.623 17.2757Z" fill="#000000" fill-opacity="0.85"/>
  <path d="M3.55469 10.6058C5.06836 10.6058 6.41602 9.66831 6.41602 7.77378C6.41602 6.08432 4.82422 4.29722 2.75391 4.29722C1.00586 4.29722 0 5.68393 0 7.09995C0 9.21909 1.80664 10.6058 3.55469 10.6058ZM3.06641 9.12143C2.79297 9.36557 2.32422 9.12143 1.74805 8.42807C1.18164 7.73472 1.03516 7.2562 1.30859 7.02182C1.5918 6.76792 2.05078 7.00229 2.63672 7.70542C3.19336 8.41831 3.33984 8.88706 3.06641 9.12143ZM23.252 10.6058C25 10.6058 26.8066 9.21909 26.8066 7.09995C26.8066 5.68393 25.8008 4.29722 24.0527 4.29722C21.9824 4.29722 20.3906 6.08432 20.3906 7.77378C20.3906 9.66831 21.7383 10.6058 23.252 10.6058ZM23.7402 9.12143C23.4668 8.88706 23.6133 8.41831 24.1699 7.70542C24.7559 7.00229 25.2148 6.76792 25.498 7.02182C25.7715 7.2562 25.625 7.73472 25.0586 8.42807C24.4824 9.12143 24.0137 9.36557 23.7402 9.12143Z" fill="#000000" fill-opacity="0.425"/>
 </g>
</svg>
