<?xml version="1.0" encoding="UTF-8"?>
<!--Generator: Apple Native CoreSVG 175.5-->
<!DOCTYPE svg
PUBLIC "-//W3C//DTD SVG 1.1//EN"
       "http://www.w3.org/Graphics/SVG/1.1/DTD/svg11.dtd">
<svg version="1.1" xmlns="http://www.w3.org/2000/svg" xmlns:xlink="http://www.w3.org/1999/xlink" width="12.7344" height="17.2761">
 <g>
  <rect height="17.2761" opacity="0" width="12.7344" x="0" y="0"/>
  <path d="M3.90625 0.000340539C1.75781 0.0198718 0 1.43589 0 3.92612C0 6.08432 1.26953 7.58823 2.88086 8.51597C3.61328 8.92612 4.41406 9.21909 5.70312 9.40464C5.49805 8.91636 5.38086 8.36948 5.38086 7.77378C5.38086 5.68393 7.09961 3.80893 9.21875 3.42807C9.04297 3.03745 8.87695 2.77378 8.69141 2.5394C7.45117 0.801122 5.58594-0.0191907 3.90625 0.000340539ZM3.53516 4.18979L2.08984 2.97886C1.88477 2.81284 1.875 2.51987 2.04102 2.32456C2.20703 2.11948 2.5 2.09018 2.69531 2.2562L4.13086 3.46714C4.33594 3.63315 4.36523 3.92612 4.19922 4.1312C4.0332 4.33628 3.73047 4.35581 3.53516 4.18979ZM5.32227 17.2757C5.92773 17.2757 6.32812 16.9632 6.32812 16.3578L6.32812 10.4789C5.3125 10.4105 4.38477 10.2249 3.55469 9.92222L3.55469 16.3578C3.55469 16.9632 3.94531 17.2757 4.55078 17.2757Z" fill="#000000" fill-opacity="0.85"/>
  <path d="M9.17969 10.6058C10.9277 10.6058 12.7344 9.21909 12.7344 7.09995C12.7344 5.68393 11.7383 4.29722 9.98047 4.29722C7.91016 4.29722 6.32812 6.08432 6.32812 7.77378C6.32812 9.66831 7.66602 10.6058 9.17969 10.6058ZM9.66797 9.12143C9.39453 8.88706 9.54102 8.41831 10.0977 7.70542C10.6836 7.00229 11.1426 6.76792 11.4258 7.02182C11.6992 7.2562 11.5527 7.73472 10.9863 8.42807C10.4102 9.12143 9.94141 9.36557 9.66797 9.12143Z" fill="#000000" fill-opacity="0.425"/>
 </g>
</svg>
