<?xml version="1.0" encoding="UTF-8"?>
<!--Generator: Apple Native CoreSVG 175.5-->
<!DOCTYPE svg
PUBLIC "-//W3C//DTD SVG 1.1//EN"
       "http://www.w3.org/Graphics/SVG/1.1/DTD/svg11.dtd">
<svg version="1.1" xmlns="http://www.w3.org/2000/svg" xmlns:xlink="http://www.w3.org/1999/xlink" width="25.1367" height="25.4199">
 <g>
  <rect height="25.4199" opacity="0" width="25.1367" x="0" y="0"/>
  <path d="M8.56445 20.8496C10.9082 20.8496 12.8027 18.9551 12.8027 16.5918C12.8027 14.2676 10.8984 12.373 8.56445 12.373C6.23047 12.373 4.32617 14.2676 4.32617 16.5918C4.32617 18.9453 6.23047 20.8496 8.56445 20.8496ZM16.1328 13.8867C18.8184 13.8867 21.0156 11.6797 21.0156 8.99414C21.0156 6.30859 18.8184 4.12109 16.1328 4.12109C13.457 4.12109 11.25 6.30859 11.25 8.99414C11.25 11.6797 13.457 13.8867 16.1328 13.8867ZM16.1328 2.36328C16.7871 2.36328 17.3145 1.83594 17.3145 1.18164C17.3145 0.527344 16.7871 0 16.1328 0C15.4785 0 14.9512 0.527344 14.9512 1.18164C14.9512 1.83594 15.4785 2.36328 16.1328 2.36328ZM21.875 4.7168C22.5293 4.7168 23.0566 4.18945 23.0566 3.53516C23.0566 2.88086 22.5293 2.35352 21.875 2.35352C21.2109 2.35352 20.6836 2.88086 20.6836 3.53516C20.6836 4.18945 21.2109 4.7168 21.875 4.7168ZM23.9551 10.2148C24.6094 10.2148 25.1367 9.6875 25.1367 9.02344C25.1367 8.36914 24.6094 7.8418 23.9551 7.8418C23.3008 7.8418 22.7734 8.36914 22.7734 9.02344C22.7734 9.6875 23.3008 10.2148 23.9551 10.2148ZM21.582 15.9375C22.2461 15.9375 22.7734 15.4102 22.7734 14.7559C22.7734 14.0918 22.2461 13.5645 21.582 13.5645C20.9277 13.5645 20.4004 14.0918 20.4004 14.7559C20.4004 15.4102 20.9277 15.9375 21.582 15.9375ZM16.1328 17.7734C16.7871 17.7734 17.3145 17.2461 17.3145 16.5918C17.3145 15.9277 16.7871 15.4102 16.1328 15.4102C15.4785 15.4102 14.9512 15.9277 14.9512 16.5918C14.9512 17.2461 15.4785 17.7734 16.1328 17.7734ZM13.877 22.8027C14.5312 22.8027 15.0586 22.2754 15.0586 21.6211C15.0586 20.9668 14.5312 20.4395 13.877 20.4395C13.2227 20.4395 12.6953 20.9668 12.6953 21.6211C12.6953 22.2754 13.2227 22.8027 13.877 22.8027ZM8.56445 25.1758C9.21875 25.1758 9.74609 24.6484 9.74609 23.9941C9.74609 23.3301 9.21875 22.8027 8.56445 22.8027C7.90039 22.8027 7.38281 23.3301 7.38281 23.9941C7.38281 24.6484 7.90039 25.1758 8.56445 25.1758ZM3.55469 23.0664C4.20898 23.0664 4.73633 22.5391 4.73633 21.8848C4.73633 21.2207 4.20898 20.6934 3.55469 20.6934C2.89062 20.6934 2.37305 21.2207 2.37305 21.8848C2.37305 22.5391 2.89062 23.0664 3.55469 23.0664ZM1.18164 17.793C1.83594 17.793 2.36328 17.2656 2.36328 16.6113C2.36328 15.957 1.83594 15.4297 1.18164 15.4297C0.527344 15.4297 0 15.957 0 16.6113C0 17.2656 0.527344 17.793 1.18164 17.793ZM3.55469 12.5195C4.20898 12.5195 4.73633 11.9922 4.73633 11.3379C4.73633 10.6738 4.20898 10.1465 3.55469 10.1465C2.89062 10.1465 2.37305 10.6738 2.37305 11.3379C2.37305 11.9922 2.89062 12.5195 3.55469 12.5195ZM8.56445 10.1758C9.21875 10.1758 9.74609 9.64844 9.74609 8.99414C9.74609 8.33008 9.21875 7.80273 8.56445 7.80273C7.90039 7.80273 7.38281 8.33008 7.38281 8.99414C7.38281 9.64844 7.90039 10.1758 8.56445 10.1758ZM10.6836 4.45312C11.3379 4.45312 11.8652 3.92578 11.8652 3.26172C11.8652 2.60742 11.3379 2.08008 10.6836 2.08008C10.0195 2.08008 9.50195 2.60742 9.50195 3.26172C9.50195 3.92578 10.0195 4.45312 10.6836 4.45312Z" fill="#000000" fill-opacity="0.85"/>
 </g>
</svg>
