<?xml version="1.0" encoding="UTF-8"?>
<!--Generator: Apple Native CoreSVG 175.5-->
<!DOCTYPE svg
PUBLIC "-//W3C//DTD SVG 1.1//EN"
       "http://www.w3.org/Graphics/SVG/1.1/DTD/svg11.dtd">
<svg version="1.1" xmlns="http://www.w3.org/2000/svg" xmlns:xlink="http://www.w3.org/1999/xlink" width="20.7324" height="23.1055">
 <g>
  <rect height="23.1055" opacity="0" width="20.7324" x="0" y="0"/>
  <path d="M3.76953 16.0303C4.08203 15.6787 3.98438 15.2197 3.63281 14.8193C2.32422 13.3643 1.5918 11.4502 1.5918 9.35059C1.5918 7.62207 2.08984 6.04004 2.98828 4.72168L1.8457 3.5791C0.654297 5.2002 0 7.20215 0 9.35059C0 11.8799 0.917969 14.2236 2.53906 15.9814C2.91016 16.3916 3.45703 16.3916 3.76953 16.0303ZM6.69922 13.2471C7.01172 12.8955 6.88477 12.4561 6.57227 12.0361C5.98633 11.3135 5.70312 10.3662 5.70312 9.35059C5.70312 8.78418 5.82031 8.24707 6.02539 7.74902L4.80469 6.52832C4.3457 7.37793 4.11133 8.34473 4.11133 9.35059C4.11133 10.7861 4.59961 12.124 5.44922 13.1787C5.79102 13.6279 6.37695 13.6182 6.69922 13.2471ZM10.3711 20.5518C10.8301 20.5518 11.1133 20.2197 11.1133 19.7119L11.1133 12.8467L9.61914 11.3525L9.61914 19.7119C9.61914 20.21 9.92188 20.5518 10.3711 20.5518ZM16.0254 11.9678C16.416 11.1768 16.6211 10.2881 16.6211 9.35059C16.6211 7.91504 16.1328 6.57715 15.2832 5.52246C14.9414 5.07324 14.3555 5.08301 14.0332 5.4541C13.7207 5.80566 13.8574 6.23535 14.1602 6.66504C14.7168 7.41699 15.0293 8.33496 15.0293 9.35059C15.0293 9.83887 14.9512 10.3076 14.7754 10.7275ZM19.0137 14.9658C20.1172 13.3545 20.7324 11.4209 20.7324 9.35059C20.7324 6.82129 19.8145 4.47754 18.1934 2.71973C17.8223 2.30957 17.2754 2.30957 16.9629 2.6709C16.6504 3.02246 16.748 3.48145 17.0996 3.88184C18.4082 5.33691 19.1406 7.25098 19.1406 9.35059C19.1406 11.001 18.6816 12.5146 17.8516 13.8037Z" fill="#000000" fill-opacity="0.85"/>
  <path d="M18.8965 18.8037C19.1895 19.0967 19.668 19.0967 19.9609 18.8037C20.2441 18.501 20.2539 18.0322 19.9609 17.7393L2.44141 0.219727C2.14844-0.0732422 1.66016-0.0732422 1.36719 0.219727C1.08398 0.50293 1.08398 1.00098 1.36719 1.28418Z" fill="#000000" fill-opacity="0.85"/>
 </g>
</svg>
