<?xml version="1.0" encoding="UTF-8"?>
<!--Generator: Apple Native CoreSVG 175.5-->
<!DOCTYPE svg
PUBLIC "-//W3C//DTD SVG 1.1//EN"
       "http://www.w3.org/Graphics/SVG/1.1/DTD/svg11.dtd">
<svg version="1.1" xmlns="http://www.w3.org/2000/svg" xmlns:xlink="http://www.w3.org/1999/xlink" width="8.63281" height="21.5918">
 <g>
  <rect height="21.5918" opacity="0" width="8.63281" x="0" y="0"/>
  <path d="M2.29492 21.5723L6.34766 21.5723C7.79297 21.5723 8.63281 20.7227 8.63281 19.2773L8.63281 2.29492C8.63281 0.849609 7.79297 0 6.34766 0L2.29492 0C0.839844 0 0 0.849609 0 2.29492L0 19.2773C0 20.7227 0.839844 21.5723 2.29492 21.5723ZM4.31641 7.83203C2.63672 7.83203 1.2793 6.48438 1.2793 4.79492C1.2793 3.11523 2.63672 1.76758 4.31641 1.76758C6.00586 1.76758 7.36328 3.11523 7.36328 4.79492C7.36328 6.48438 6.00586 7.83203 4.31641 7.83203ZM2.8125 10.8203C2.20703 10.8203 1.71875 10.332 1.71875 9.7168C1.71875 9.11133 2.19727 8.62305 2.8125 8.62305C3.42773 8.62305 3.92578 9.11133 3.92578 9.7168C3.92578 10.332 3.41797 10.8203 2.8125 10.8203ZM5.83984 10.8203C5.21484 10.8203 4.7168 10.332 4.7168 9.7168C4.7168 9.11133 5.21484 8.62305 5.83984 8.62305C6.44531 8.62305 6.92383 9.11133 6.92383 9.7168C6.92383 10.3223 6.43555 10.8203 5.83984 10.8203ZM2.8125 13.7207C2.20703 13.7207 1.71875 13.2324 1.71875 12.627C1.71875 12.0215 2.20703 11.5234 2.8125 11.5234C3.42773 11.5234 3.92578 12.0117 3.92578 12.627C3.92578 13.2422 3.42773 13.7207 2.8125 13.7207ZM2.8125 16.6309C2.20703 16.6309 1.71875 16.1426 1.71875 15.5371C1.71875 14.9219 2.20703 14.4141 2.8125 14.4141C3.41797 14.4141 3.92578 14.9219 3.92578 15.5371C3.92578 16.1523 3.42773 16.6309 2.8125 16.6309ZM5.82031 16.6309C5.25391 16.6309 4.78516 16.1621 4.78516 15.6055L4.78516 12.5586C4.78516 11.9824 5.24414 11.5234 5.82031 11.5234C6.39648 11.5234 6.875 11.9922 6.875 12.5586L6.875 15.6055C6.875 16.1719 6.39648 16.6309 5.82031 16.6309Z" fill="#000000" fill-opacity="0.85"/>
 </g>
</svg>
