<?xml version="1.0" encoding="UTF-8"?>
<!--Generator: Apple Native CoreSVG 175.5-->
<!DOCTYPE svg
PUBLIC "-//W3C//DTD SVG 1.1//EN"
       "http://www.w3.org/Graphics/SVG/1.1/DTD/svg11.dtd">
<svg version="1.1" xmlns="http://www.w3.org/2000/svg" xmlns:xlink="http://www.w3.org/1999/xlink" width="22.9883" height="20.4785">
 <g>
  <rect height="20.4785" opacity="0" width="22.9883" x="0" y="0"/>
  <path d="M0 19.1602C0 19.873 0.46875 20.4785 1.47461 20.4785L9.23828 20.4785C10.4004 20.4785 10.9277 19.9609 10.9277 18.7988L10.9277 7.12891C10.9277 6.26953 10.2832 5.81055 9.58984 5.81055C9.12109 5.81055 8.67188 6.02539 8.34961 6.47461L0.302734 18.1543C0.0878906 18.4668 0 18.8281 0 19.1602ZM12.0605 18.7988C12.0605 19.9609 12.5879 20.4785 13.75 20.4785L21.5039 20.4785C22.5195 20.4785 22.9883 19.873 22.9883 19.1602C22.9883 18.8281 22.8906 18.4668 22.6758 18.1543L14.6289 6.47461C14.3164 6.02539 13.8574 5.81055 13.3887 5.81055C12.6953 5.81055 12.0605 6.26953 12.0605 7.12891Z" fill="#000000" fill-opacity="0.85"/>
  <path d="M1.51367 3.41797L4.13086 5.36133C4.66797 5.77148 5.3125 5.52734 5.3125 4.85352L5.3125 3.45703L17.666 3.45703L17.666 4.85352C17.666 5.52734 18.3203 5.77148 18.8574 5.36133L21.4746 3.41797C21.8359 3.14453 21.8262 2.64648 21.4746 2.38281L18.8574 0.429688C18.3398 0.0390625 17.666 0.244141 17.666 0.947266L17.666 2.32422L5.3125 2.32422L5.3125 0.947266C5.3125 0.263672 4.66797 0.0195312 4.13086 0.429688L1.51367 2.38281C1.15234 2.64648 1.16211 3.1543 1.51367 3.41797Z" fill="#000000" fill-opacity="0.85"/>
 </g>
</svg>
