<?xml version="1.0" encoding="UTF-8"?>
<!--Generator: Apple Native CoreSVG 175.5-->
<!DOCTYPE svg
PUBLIC "-//W3C//DTD SVG 1.1//EN"
       "http://www.w3.org/Graphics/SVG/1.1/DTD/svg11.dtd">
<svg version="1.1" xmlns="http://www.w3.org/2000/svg" xmlns:xlink="http://www.w3.org/1999/xlink" width="29.7266" height="18.5645">
 <g>
  <rect height="18.5645" opacity="0" width="29.7266" x="0" y="0"/>
  <path d="M0 9.10156C0 9.60938 0.351562 9.9707 0.859375 9.9707L7.51953 9.9707L9.46289 9.91211L6.24023 13.0176C6.07422 13.1836 5.99609 13.4082 5.99609 13.6426C5.99609 14.1406 6.36719 14.4922 6.85547 14.4922C7.09961 14.4922 7.31445 14.4043 7.50977 14.209L11.9727 9.75586C12.1582 9.57031 12.2754 9.33594 12.2754 9.10156C12.2754 8.85742 12.1582 8.63281 11.9727 8.4375L7.50977 3.98438C7.31445 3.78906 7.09961 3.70117 6.85547 3.70117C6.36719 3.70117 5.99609 4.05273 5.99609 4.55078C5.99609 4.77539 6.07422 5.00977 6.24023 5.17578L9.46289 8.29102L7.51953 8.22266L0.859375 8.22266C0.351562 8.22266 0 8.58398 0 9.10156ZM14.8633 18.5645C15.3711 18.5645 15.7324 18.2031 15.7324 17.6953L15.7324 0.849609C15.7324 0.351562 15.3711 0 14.8633 0C14.3555 0 13.9844 0.351562 13.9844 0.849609L13.9844 17.6953C13.9844 18.2031 14.3555 18.5645 14.8633 18.5645ZM29.7266 9.10156C29.7266 8.58398 29.3652 8.22266 28.8574 8.22266L22.207 8.22266L20.2539 8.29102L23.4766 5.17578C23.6426 5.00977 23.7207 4.77539 23.7207 4.55078C23.7207 4.05273 23.3496 3.70117 22.8711 3.70117C22.627 3.70117 22.4023 3.78906 22.207 3.98438L17.7441 8.4375C17.5586 8.63281 17.4512 8.85742 17.4512 9.10156C17.4512 9.33594 17.5586 9.57031 17.7441 9.75586L22.207 14.209C22.4023 14.4043 22.627 14.4922 22.8711 14.4922C23.3496 14.4922 23.7207 14.1406 23.7207 13.6426C23.7207 13.4082 23.6426 13.1836 23.4766 13.0176L20.2539 9.91211L22.207 9.9707L28.8574 9.9707C29.3652 9.9707 29.7266 9.60938 29.7266 9.10156Z" fill="#000000" fill-opacity="0.85"/>
 </g>
</svg>
