<?xml version="1.0" encoding="UTF-8"?>
<!--Generator: Apple Native CoreSVG 175.5-->
<!DOCTYPE svg
PUBLIC "-//W3C//DTD SVG 1.1//EN"
       "http://www.w3.org/Graphics/SVG/1.1/DTD/svg11.dtd">
<svg version="1.1" xmlns="http://www.w3.org/2000/svg" xmlns:xlink="http://www.w3.org/1999/xlink" width="19.9219" height="19.9316">
 <g>
  <rect height="19.9316" opacity="0" width="19.9219" x="0" y="0"/>
  <path d="M9.96094 19.9316C15.4102 19.9316 19.9219 15.4199 19.9219 9.9707C19.9219 4.53125 15.4004 0.00976562 9.95117 0.00976562C4.51172 0.00976562 0 4.53125 0 9.9707C0 15.4199 4.52148 19.9316 9.96094 19.9316Z" fill="#000000" fill-opacity="0.85"/>
  <path d="M9.95117 13.1836C9.76562 13.1836 9.58984 13.1055 9.44336 12.9492L6.04492 9.47266C5.91797 9.33594 5.83984 9.13086 5.83984 8.97461C5.83984 8.58398 6.10352 8.31055 6.48438 8.31055C6.69922 8.31055 6.85547 8.36914 6.98242 8.50586L7.54883 9.13086L9.38477 11.1914L9.26758 9.3457L9.26758 4.72656C9.26758 4.33594 9.54102 4.05273 9.95117 4.05273C10.332 4.05273 10.625 4.33594 10.625 4.72656L10.625 9.3457L10.5176 11.1816L12.3242 9.14062L12.9395 8.50586C13.0762 8.36914 13.252 8.31055 13.4473 8.31055C13.8184 8.31055 14.082 8.60352 14.082 8.97461C14.082 9.16016 14.0234 9.31641 13.8672 9.48242L10.459 12.9492C10.3223 13.0957 10.1367 13.1836 9.95117 13.1836ZM6.18164 15.3027C5.79102 15.3027 5.50781 15.0195 5.50781 14.6191C5.50781 14.2383 5.79102 13.9453 6.18164 13.9453L13.75 13.9453C14.1406 13.9453 14.4141 14.2383 14.4141 14.6191C14.4141 15.0195 14.1406 15.3027 13.75 15.3027Z" fill="#ffffff"/>
 </g>
</svg>
