<?xml version="1.0" encoding="UTF-8"?>
<!--Generator: Apple Native CoreSVG 175.5-->
<!DOCTYPE svg
PUBLIC "-//W3C//DTD SVG 1.1//EN"
       "http://www.w3.org/Graphics/SVG/1.1/DTD/svg11.dtd">
<svg version="1.1" xmlns="http://www.w3.org/2000/svg" xmlns:xlink="http://www.w3.org/1999/xlink" width="17.7734" height="17.7832">
 <g>
  <rect height="17.7832" opacity="0" width="17.7734" x="0" y="0"/>
  <path d="M16.6309 1.15234C15.6348 0.15625 14.2285 0 12.5586 0L5.18555 0C3.54492 0 2.13867 0.15625 1.14258 1.15234C0.146484 2.14844 0 3.54492 0 5.17578L0 12.5586C0 14.2285 0.146484 15.6152 1.14258 16.6113C2.13867 17.6074 3.54492 17.7637 5.20508 17.7637L12.5586 17.7637C14.2285 17.7637 15.6348 17.6074 16.6309 16.6113C17.627 15.6152 17.7734 14.2285 17.7734 12.5586L17.7734 5.20508C17.7734 3.53516 17.627 2.13867 16.6309 1.15234Z" fill="#000000" fill-opacity="0.85"/>
  <path d="M8.89648 3.75977C9.3457 3.75977 9.6582 4.07227 9.6582 4.52148L9.6582 9.53125L9.58008 11.6797L10.5957 10.459L11.7773 9.25781C11.9141 9.10156 12.0996 9.0332 12.3145 9.0332C12.7344 9.0332 13.0566 9.3457 13.0566 9.76562C13.0566 9.98047 12.9883 10.1562 12.8516 10.293L9.49219 13.6328C9.29688 13.8281 9.13086 13.9258 8.89648 13.9258C8.68164 13.9258 8.52539 13.8379 8.32031 13.6328L4.96094 10.293C4.81445 10.1562 4.75586 9.98047 4.75586 9.76562C4.75586 9.3457 5.06836 9.0332 5.48828 9.0332C5.70312 9.0332 5.88867 9.11133 6.02539 9.25781L7.2168 10.459L8.22266 11.6699L8.14453 9.53125L8.14453 4.52148C8.14453 4.07227 8.45703 3.75977 8.89648 3.75977Z" fill="#ffffff"/>
 </g>
</svg>
