<?xml version="1.0" encoding="UTF-8"?>
<!--Generator: Apple Native CoreSVG 175.5-->
<!DOCTYPE svg
PUBLIC "-//W3C//DTD SVG 1.1//EN"
       "http://www.w3.org/Graphics/SVG/1.1/DTD/svg11.dtd">
<svg version="1.1" xmlns="http://www.w3.org/2000/svg" xmlns:xlink="http://www.w3.org/1999/xlink" width="19.9219" height="19.9316">
 <g>
  <rect height="19.9316" opacity="0" width="19.9219" x="0" y="0"/>
  <path d="M9.96094 19.9219C15.4102 19.9219 19.9219 15.4004 19.9219 9.96094C19.9219 4.51172 15.4004 0 9.95117 0C4.51172 0 0 4.51172 0 9.96094C0 15.4004 4.52148 19.9219 9.96094 19.9219ZM9.96094 18.2617C5.35156 18.2617 1.66992 14.5703 1.66992 9.96094C1.66992 5.35156 5.3418 1.66016 9.95117 1.66016C14.5605 1.66016 18.2617 5.35156 18.2617 9.96094C18.2617 14.5703 14.5703 18.2617 9.96094 18.2617Z" fill="#000000" fill-opacity="0.85"/>
  <path d="M9.94141 15.8008C10.3125 15.8008 10.5957 15.5273 10.5957 15.1465L10.5957 10.6641L10.4883 8.88672L12.207 10.8301L12.8418 11.4844C12.9785 11.6113 13.1543 11.6699 13.3301 11.6699C13.6914 11.6699 13.9453 11.3867 13.9453 11.0352C13.9453 10.8496 13.8965 10.6836 13.7402 10.5371L10.4297 7.17773C10.293 7.04102 10.1172 6.95312 9.94141 6.95312C9.76562 6.95312 9.58984 7.03125 9.45312 7.17773L6.15234 10.5469C6.03516 10.6738 5.95703 10.8789 5.95703 11.0352C5.95703 11.4062 6.21094 11.6699 6.58203 11.6699C6.78711 11.6699 6.93359 11.6113 7.06055 11.4844L7.61719 10.8691L9.39453 8.87695L9.28711 10.6641L9.28711 15.1465C9.28711 15.5273 9.55078 15.8008 9.94141 15.8008ZM6.28906 6.20117L13.623 6.20117C14.0039 6.20117 14.2676 5.92773 14.2676 5.55664C14.2676 5.17578 14.0039 4.90234 13.623 4.90234L6.28906 4.90234C5.9082 4.90234 5.63477 5.17578 5.63477 5.55664C5.63477 5.92773 5.9082 6.20117 6.28906 6.20117Z" fill="#000000" fill-opacity="0.85"/>
 </g>
</svg>
