<?xml version="1.0" encoding="UTF-8"?>
<!--Generator: Apple Native CoreSVG 175.5-->
<!DOCTYPE svg
PUBLIC "-//W3C//DTD SVG 1.1//EN"
       "http://www.w3.org/Graphics/SVG/1.1/DTD/svg11.dtd">
<svg version="1.1" xmlns="http://www.w3.org/2000/svg" xmlns:xlink="http://www.w3.org/1999/xlink" width="29.104" height="20.4395">
 <g>
  <rect height="20.4395" opacity="0" width="29.104" x="0" y="0"/>
  <path d="M0.73244 11.377L8.12502 15.9082C9.12111 16.5137 10.0977 16.0742 10.0977 14.8828L10.0977 5.56641C10.0977 4.4043 9.14064 3.93555 8.12502 4.55078L0.73244 9.08203C-0.253888 9.67773-0.234357 10.7812 0.73244 11.377ZM14.5508 20.4395C14.9317 20.4395 15.2735 20.1367 15.2735 19.7559L15.2735 0.693359C15.2735 0.3125 14.9317 0.0195312 14.5508 0.0195312C14.1699 0.0195312 13.8379 0.3125 13.8379 0.693359L13.8379 19.7559C13.8379 20.1367 14.1699 20.4395 14.5508 20.4395ZM20.9766 15.9082L28.3789 11.377C29.336 10.7812 29.3555 9.67773 28.3789 9.08203L20.9766 4.55078C19.961 3.93555 19.0039 4.4043 19.0039 5.56641L19.0039 14.8828C19.0039 16.0742 19.9805 16.5137 20.9766 15.9082Z" fill="#000000" fill-opacity="0.85"/>
 </g>
</svg>
