<?xml version="1.0" encoding="UTF-8"?>
<!--Generator: Apple Native CoreSVG 175.5-->
<!DOCTYPE svg
PUBLIC "-//W3C//DTD SVG 1.1//EN"
       "http://www.w3.org/Graphics/SVG/1.1/DTD/svg11.dtd">
<svg version="1.1" xmlns="http://www.w3.org/2000/svg" xmlns:xlink="http://www.w3.org/1999/xlink" width="20.3053" height="22.998">
 <g>
  <rect height="22.998" opacity="0" width="20.3053" x="0" y="0"/>
  <path d="M20.3053 21.5137L20.3053 13.7598C20.3053 12.5977 19.778 12.0703 18.6159 12.0703L6.94593 12.0703C6.08655 12.0703 5.62757 12.7148 5.62757 13.4082C5.62757 13.877 5.84241 14.3262 6.3014 14.6387L17.9713 22.6855C18.2838 22.9102 18.6451 22.998 18.9869 22.998C19.6901 22.998 20.3053 22.5293 20.3053 21.5137ZM18.7135 20.8984C18.7135 20.9668 18.6744 21.0254 18.6159 21.0254C18.5866 21.0254 18.5475 21.0156 18.5084 20.9863L7.76624 13.8379C7.72718 13.8086 7.71741 13.7695 7.71741 13.75C7.71741 13.7012 7.75648 13.6719 7.8053 13.6719L18.4205 13.6719C18.6549 13.6719 18.7135 13.7305 18.7135 13.9648ZM20.3053 9.24805L20.3053 1.49414C20.3053 0.478516 19.6901 0.00976562 18.9869 0.00976562C18.6451 0.00976562 18.2838 0.0976562 17.9713 0.3125L6.3014 8.36914C5.84241 8.68164 5.62757 9.13086 5.62757 9.59961C5.62757 10.293 6.08655 10.9375 6.94593 10.9375L18.6159 10.9375C19.778 10.9375 20.3053 10.4102 20.3053 9.24805ZM18.7135 9.04297C18.7135 9.26758 18.6549 9.33594 18.4205 9.33594L7.81507 9.33594C7.76624 9.33594 7.71741 9.30664 7.71741 9.25781C7.71741 9.22852 7.72718 9.19922 7.78577 9.16992L18.5084 2.02148C18.5475 1.99219 18.5866 1.98242 18.6159 1.98242C18.6744 1.98242 18.7135 2.04102 18.7135 2.10938Z" fill="#000000" fill-opacity="0.85"/>
  <path d="M3.18616 21.4844L5.12952 18.8672C5.53968 18.3301 5.29554 17.6758 4.63148 17.6758L3.22523 17.6758L3.22523 5.33203L4.63148 5.33203C5.29554 5.33203 5.53968 4.67773 5.12952 4.14062L3.18616 1.52344C2.92249 1.16211 2.42444 1.16211 2.16077 1.52344L0.197882 4.14062C-0.192743 4.6582 0.0221009 5.33203 0.71546 5.33203L2.09241 5.33203L2.09241 17.6758L0.71546 17.6758C0.0416322 17.6758-0.212274 18.3301 0.197882 18.8672L2.16077 21.4844C2.42444 21.8359 2.93226 21.8359 3.18616 21.4844Z" fill="#000000" fill-opacity="0.85"/>
 </g>
</svg>
