<?xml version="1.0" encoding="UTF-8"?>
<!--Generator: Apple Native CoreSVG 175.5-->
<!DOCTYPE svg
PUBLIC "-//W3C//DTD SVG 1.1//EN"
       "http://www.w3.org/Graphics/SVG/1.1/DTD/svg11.dtd">
<svg version="1.1" xmlns="http://www.w3.org/2000/svg" xmlns:xlink="http://www.w3.org/1999/xlink" width="22.1473" height="22.1608">
 <g>
  <rect height="22.1608" opacity="0" width="22.1473" x="0" y="0"/>
  <path d="M1.09505 13.2337L8.91731 21.056C10.3626 22.5013 11.7884 22.5111 13.224 21.0853L21.0853 13.2142C22.5111 11.7884 22.5013 10.3529 21.056 8.90755L13.2435 1.09505C11.7982-0.350264 10.3724-0.369795 8.93685 1.06575L1.06575 8.92708C-0.369795 10.3626-0.350264 11.7884 1.09505 13.2337ZM2.22786 12.1497C1.5345 11.4466 1.51497 10.7142 2.23763 9.99153L9.99153 2.23763C10.7142 1.51497 11.4466 1.52474 12.1497 2.22786L19.9232 10.0013C20.6165 10.6947 20.6361 11.4368 19.9134 12.1595L12.1595 19.9134C11.4368 20.6361 10.6849 20.6165 10.0013 19.9329Z" fill="#000000" fill-opacity="0.85"/>
  <path d="M6.83724 14.1517C6.83724 14.7083 7.11067 15.0404 7.61849 15.0306C8.11653 15.0208 8.39974 14.7083 8.39974 14.1517L8.39974 11.4368C8.39974 10.5482 8.81966 10.138 9.6595 10.138L12.2083 10.138L12.2083 11.6712C12.2083 12.306 12.9212 12.599 13.4583 12.14L15.7923 10.1185C16.3783 9.61067 16.3783 9.0931 15.7923 8.58528L13.4583 6.57356C12.9212 6.10481 12.2083 6.40755 12.2083 7.03255L12.2083 8.56575L9.63997 8.56575C7.73567 8.56575 6.83724 9.47395 6.83724 11.3587Z" fill="#000000" fill-opacity="0.85"/>
 </g>
</svg>
