<?xml version="1.0" encoding="UTF-8"?>
<!--Generator: Apple Native CoreSVG 175.5-->
<!DOCTYPE svg
PUBLIC "-//W3C//DTD SVG 1.1//EN"
       "http://www.w3.org/Graphics/SVG/1.1/DTD/svg11.dtd">
<svg version="1.1" xmlns="http://www.w3.org/2000/svg" xmlns:xlink="http://www.w3.org/1999/xlink" width="19.9219" height="19.9316">
 <g>
  <rect height="19.9316" opacity="0" width="19.9219" x="0" y="0"/>
  <path d="M9.96094 19.9219C15.4102 19.9219 19.9219 15.4004 19.9219 9.96094C19.9219 4.51172 15.4004 0 9.95117 0C4.51172 0 0 4.51172 0 9.96094C0 15.4004 4.52148 19.9219 9.96094 19.9219Z" fill="#000000" fill-opacity="0.85"/>
  <path d="M5.73242 14.4043C5.33203 14.4043 5.03906 14.1309 5.03906 13.7402L5.03906 6.17188C5.03906 5.78125 5.33203 5.50781 5.73242 5.50781C6.11328 5.50781 6.39648 5.78125 6.39648 6.17188L6.39648 13.7402C6.39648 14.1309 6.11328 14.4043 5.73242 14.4043ZM16.2988 9.9707C16.2988 10.3809 16.0059 10.6543 15.6152 10.6543L11.0059 10.6543L9.15039 10.5371L11.2012 12.3535L11.8359 12.9395C11.9824 13.0566 12.041 13.2227 12.041 13.4277C12.041 13.8184 11.7676 14.082 11.377 14.082C11.2109 14.082 10.9961 13.9941 10.8691 13.8574L7.40234 10.4785C7.23633 10.332 7.16797 10.1562 7.16797 9.9707C7.16797 9.77539 7.25586 9.60938 7.40234 9.45312L10.8789 6.04492C11.0156 5.88867 11.1914 5.83008 11.3672 5.83008C11.748 5.83008 12.041 6.09375 12.041 6.47461C12.041 6.66016 11.9824 6.8457 11.8359 6.97266L11.2109 7.58789L9.16016 9.4043L11.0059 9.29688L15.6152 9.29688C16.0059 9.29688 16.2988 9.58008 16.2988 9.9707Z" fill="#ffffff"/>
 </g>
</svg>
