<?xml version="1.0" encoding="UTF-8"?>
<!--Generator: Apple Native CoreSVG 175.5-->
<!DOCTYPE svg
PUBLIC "-//W3C//DTD SVG 1.1//EN"
       "http://www.w3.org/Graphics/SVG/1.1/DTD/svg11.dtd">
<svg version="1.1" xmlns="http://www.w3.org/2000/svg" xmlns:xlink="http://www.w3.org/1999/xlink" width="19.9219" height="19.9316">
 <g>
  <rect height="19.9316" opacity="0" width="19.9219" x="0" y="0"/>
  <path d="M9.96094 19.9219C15.4102 19.9219 19.9219 15.4004 19.9219 9.96094C19.9219 4.51172 15.4004 0 9.95117 0C4.51172 0 0 4.51172 0 9.96094C0 15.4004 4.52148 19.9219 9.96094 19.9219ZM9.96094 18.2617C5.35156 18.2617 1.66992 14.5703 1.66992 9.96094C1.66992 5.35156 5.3418 1.66016 9.95117 1.66016C14.5605 1.66016 18.2617 5.35156 18.2617 9.96094C18.2617 14.5703 14.5703 18.2617 9.96094 18.2617Z" fill="#000000" fill-opacity="0.85"/>
  <path d="M9.94141 13.0762C10.1172 13.0762 10.293 12.9883 10.4297 12.8516L13.7402 9.49219C13.8965 9.33594 13.9453 9.16992 13.9453 8.99414C13.9453 8.64258 13.6914 8.34961 13.3301 8.34961C13.1543 8.34961 12.9785 8.4082 12.8418 8.54492L12.2363 9.16992L10.4883 11.1426L10.5957 9.35547L10.5957 4.87305C10.5957 4.50195 10.3125 4.22852 9.94141 4.22852C9.55078 4.22852 9.28711 4.50195 9.28711 4.87305L9.28711 9.35547L9.39453 11.1523L7.61719 9.16016L7.06055 8.54492C6.93359 8.4082 6.78711 8.34961 6.58203 8.34961C6.21094 8.34961 5.95703 8.62305 5.95703 8.99414C5.95703 9.15039 6.03516 9.35547 6.15234 9.48242L9.45312 12.8516C9.58984 12.998 9.76562 13.0762 9.94141 13.0762ZM6.28906 15.127L13.623 15.127C14.0039 15.127 14.2676 14.8535 14.2676 14.4629C14.2676 14.0918 14.0039 13.8184 13.623 13.8184L6.28906 13.8184C5.9082 13.8184 5.63477 14.0918 5.63477 14.4629C5.63477 14.8535 5.9082 15.127 6.28906 15.127Z" fill="#000000" fill-opacity="0.85"/>
 </g>
</svg>
