<?xml version="1.0" encoding="UTF-8"?>
<!--Generator: Apple Native CoreSVG 175.5-->
<!DOCTYPE svg
PUBLIC "-//W3C//DTD SVG 1.1//EN"
       "http://www.w3.org/Graphics/SVG/1.1/DTD/svg11.dtd">
<svg version="1.1" xmlns="http://www.w3.org/2000/svg" xmlns:xlink="http://www.w3.org/1999/xlink" width="23.9746" height="15.8691">
 <g>
  <rect height="15.8691" opacity="0" width="23.9746" x="0" y="0"/>
  <path d="M3.13477 15.8594L13.623 15.8594C15.5859 15.8594 16.7578 14.7266 16.7578 12.7637L16.7578 3.08594C16.7578 1.13281 15.6836 0 13.7207 0L3.13477 0C1.25977 0 0 1.13281 0 3.08594L0 12.7637C0 14.7266 1.17188 15.8594 3.13477 15.8594ZM18.0859 10.8105L21.6406 13.8867C21.9727 14.1797 22.3633 14.3652 22.7148 14.3652C23.4766 14.3652 23.9746 13.8086 23.9746 13.0078L23.9746 2.85156C23.9746 2.05078 23.4766 1.49414 22.7148 1.49414C22.3633 1.49414 21.9727 1.67969 21.6406 1.97266L18.0859 5.03906Z" fill="#000000" fill-opacity="0.85"/>
  <path d="M11.7383 3.87695C12.168 3.87695 12.4902 4.17969 12.4902 4.58008C12.4902 4.79492 12.4219 4.9707 12.2461 5.13672L8.13477 9.26758L6.43555 10.8105L9.31641 10.6445L10.6836 10.6445C11.0742 10.6445 11.416 10.9277 11.416 11.3281C11.416 11.748 11.0938 12.0801 10.6836 12.0801L5.07812 12.0801C4.54102 12.0801 4.27734 11.8164 4.27734 11.2793L4.27734 5.68359C4.27734 5.27344 4.61914 4.96094 5.0293 4.96094C5.41992 4.96094 5.71289 5.29297 5.71289 5.68359L5.71289 7.03125L5.54688 9.91211L7.09961 8.22266L11.2109 4.10156C11.3672 3.94531 11.5234 3.87695 11.7383 3.87695Z" fill="#ffffff"/>
 </g>
</svg>
