<?xml version="1.0" encoding="UTF-8"?>
<!--Generator: Apple Native CoreSVG 175.5-->
<!DOCTYPE svg
PUBLIC "-//W3C//DTD SVG 1.1//EN"
       "http://www.w3.org/Graphics/SVG/1.1/DTD/svg11.dtd">
<svg version="1.1" xmlns="http://www.w3.org/2000/svg" xmlns:xlink="http://www.w3.org/1999/xlink" width="24.5508" height="18.5645">
 <g>
  <rect height="18.5645" opacity="0" width="24.5508" x="0" y="0"/>
  <path d="M19.2969 16.9727C22.2461 16.9727 24.5508 14.8145 24.5508 12.1289C24.5508 10.0781 23.3691 8.30078 21.4648 7.5C21.4844 3.14453 18.3496 0 14.3555 0C11.709 0 9.82422 1.41602 8.65234 3.125C6.25 2.42188 3.63281 4.24805 3.58398 6.98242C1.37695 7.33398 0 9.30664 0 11.6895C0 14.5605 2.50977 16.9727 5.84961 16.9727Z" fill="#000000" fill-opacity="0.85"/>
  <path d="M8.68164 9.70703C8.68164 7.4707 10.5176 5.73242 12.5586 5.73242C12.6367 5.73242 12.7246 5.74219 12.793 5.75195L12.168 5.09766C12.0703 5 12.0117 4.83398 12.0117 4.6875C12.0117 4.36523 12.2656 4.0918 12.5879 4.0918C12.7441 4.0918 12.9102 4.16016 13.0078 4.27734L14.7461 6.05469C14.9609 6.26953 14.9707 6.67969 14.7461 6.9043L12.9883 8.66211C12.8906 8.75977 12.7344 8.82812 12.5879 8.82812C12.2656 8.82812 12.0117 8.57422 12.0117 8.24219C12.0117 8.08594 12.0801 7.93945 12.1875 7.83203L13.0469 6.97266C12.9688 6.95312 12.8516 6.94336 12.7344 6.94336C11.1816 6.94336 9.94141 8.19336 9.94141 9.73633C9.94141 11.2988 11.1816 12.5586 12.7344 12.5586C14.2969 12.5586 15.5371 11.2988 15.5371 9.73633C15.5371 9.4043 15.8203 9.12109 16.1719 9.12109C16.5039 9.12109 16.7969 9.4043 16.7969 9.73633C16.7969 11.9922 14.9902 13.8086 12.7344 13.8086C10.4883 13.8086 8.68164 11.9922 8.68164 9.70703Z" fill="#ffffff"/>
 </g>
</svg>
