<?xml version="1.0" encoding="UTF-8"?>
<!--Generator: Apple Native CoreSVG 175.5-->
<!DOCTYPE svg
PUBLIC "-//W3C//DTD SVG 1.1//EN"
       "http://www.w3.org/Graphics/SVG/1.1/DTD/svg11.dtd">
<svg version="1.1" xmlns="http://www.w3.org/2000/svg" xmlns:xlink="http://www.w3.org/1999/xlink" width="25.9082" height="17.9395">
 <g>
  <rect height="17.9395" opacity="0" width="25.9082" x="0" y="0"/>
  <path d="M14.3945 17.9102C15.0586 17.9102 15.5371 17.4219 15.5371 16.7676L15.5371 13.0371L15.8203 13.0371C19.6094 13.0371 21.9922 13.9941 23.7012 17.1875C24.043 17.8125 24.4922 17.9102 24.9023 17.9102C25.4199 17.9102 25.9082 17.4414 25.9082 16.6016C25.9082 9.38477 22.8418 4.88281 15.8203 4.88281L15.5371 4.88281L15.5371 1.19141C15.5371 0.537109 15.0586 0 14.375 0C13.8965 0 13.5742 0.205078 13.0566 0.693359L5.35156 7.90039C4.99023 8.23242 4.85352 8.60352 4.85352 8.95508C4.85352 9.28711 4.99023 9.66797 5.35156 10L13.0566 17.2754C13.5254 17.7148 13.916 17.9102 14.3945 17.9102ZM9.54102 17.9199C10.2051 17.9199 10.6836 17.5195 10.6836 17.0703L10.6836 16.7383L4.41406 10.9473C3.81836 10.4004 3.4668 9.70703 3.4668 8.96484C3.4668 8.22266 3.79883 7.5293 4.41406 6.97266L10.6836 1.23047L10.6836 0.898438C10.6836 0.429688 10.2051 0.00976562 9.52148 0.00976562C9.04297 0.00976562 8.7207 0.214844 8.20312 0.703125L0.488281 7.91016C0.117188 8.27148 0 8.63281 0 8.96484C0 9.28711 0.117188 9.6582 0.488281 10.0098L8.20312 17.2852C8.66211 17.7246 9.0625 17.9199 9.54102 17.9199Z" fill="#000000" fill-opacity="0.85"/>
 </g>
</svg>
