<?xml version="1.0" encoding="UTF-8"?>
<!--Generator: Apple Native CoreSVG 175.5-->
<!DOCTYPE svg
PUBLIC "-//W3C//DTD SVG 1.1//EN"
       "http://www.w3.org/Graphics/SVG/1.1/DTD/svg11.dtd">
<svg version="1.1" xmlns="http://www.w3.org/2000/svg" xmlns:xlink="http://www.w3.org/1999/xlink" width="19.9219" height="19.9316">
 <g>
  <rect height="19.9316" opacity="0" width="19.9219" x="0" y="0"/>
  <path d="M9.96094 19.9219C15.4102 19.9219 19.9219 15.4004 19.9219 9.96094C19.9219 4.51172 15.4004 0 9.95117 0C4.51172 0 0 4.51172 0 9.96094C0 15.4004 4.52148 19.9219 9.96094 19.9219Z" fill="#000000" fill-opacity="0.85"/>
  <path d="M3.63281 9.9707C3.63281 9.58008 3.91602 9.29688 4.30664 9.29688L8.91602 9.29688L10.7617 9.4043L8.71094 7.58789L8.08594 6.97266C7.93945 6.8457 7.88086 6.66016 7.88086 6.47461C7.88086 6.09375 8.18359 5.83008 8.55469 5.83008C8.73047 5.83008 8.90625 5.88867 9.05273 6.04492L12.5293 9.45312C12.666 9.60938 12.7539 9.77539 12.7539 9.9707C12.7539 10.1562 12.6855 10.332 12.5293 10.4785L9.0625 13.8574C8.92578 13.9941 8.71094 14.082 8.55469 14.082C8.16406 14.082 7.88086 13.8184 7.88086 13.4277C7.88086 13.2227 7.93945 13.0566 8.08594 12.9395L8.7207 12.3535L10.7715 10.5371L8.91602 10.6543L4.30664 10.6543C3.91602 10.6543 3.63281 10.3809 3.63281 9.9707ZM14.1895 14.4043C13.8086 14.4043 13.5254 14.1309 13.5254 13.7402L13.5254 6.17188C13.5254 5.78125 13.8086 5.50781 14.1895 5.50781C14.5996 5.50781 14.8828 5.78125 14.8828 6.17188L14.8828 13.7402C14.8828 14.1309 14.5996 14.4043 14.1895 14.4043Z" fill="#ffffff"/>
 </g>
</svg>
