<?xml version="1.0" encoding="UTF-8"?>
<!--Generator: Apple Native CoreSVG 175.5-->
<!DOCTYPE svg
PUBLIC "-//W3C//DTD SVG 1.1//EN"
       "http://www.w3.org/Graphics/SVG/1.1/DTD/svg11.dtd">
<svg version="1.1" xmlns="http://www.w3.org/2000/svg" xmlns:xlink="http://www.w3.org/1999/xlink" width="19.9707" height="24.5996">
 <g>
  <rect height="24.5996" opacity="0" width="19.9707" x="0" y="0"/>
  <path d="M4.73633 5.78125L12.2363 5.78125C13.3594 5.78125 14.4824 6.47461 14.4824 8.08594L14.4824 19.6973L16.9434 19.6973C18.9551 19.6973 19.9707 18.6621 19.9707 16.6309L19.9707 3.06641C19.9707 1.03516 18.9551 0 16.9434 0L7.76367 0C5.75195 0 4.73633 1.02539 4.73633 3.06641ZM9.3457 2.77344L9.3457 2.56836C9.3457 2.26562 9.54102 1.99219 9.9707 1.99219L14.7363 1.99219C15.1562 1.99219 15.3613 2.26562 15.3613 2.56836L15.3613 2.77344C15.3613 3.06641 15.1562 3.34961 14.7363 3.34961L9.9707 3.34961C9.54102 3.34961 9.3457 3.06641 9.3457 2.77344Z" fill="#000000" fill-opacity="0.85"/>
  <path d="M0 21.5039C0 23.5449 1.00586 24.5703 3.02734 24.5703L12.207 24.5703C14.2285 24.5703 15.2344 23.5352 15.2344 21.5039L15.2344 7.93945C15.2344 5.89844 14.2285 4.87305 12.207 4.87305L3.02734 4.87305C1.00586 4.87305 0 5.88867 0 7.93945ZM1.57227 21.4746L1.57227 7.95898C1.57227 6.99219 2.08984 6.44531 3.0957 6.44531L12.1289 6.44531C13.1348 6.44531 13.6621 6.99219 13.6621 7.95898L13.6621 21.4746C13.6621 22.4512 13.1348 22.998 12.1289 22.998L3.0957 22.998C2.08984 22.998 1.57227 22.4512 1.57227 21.4746ZM7.61719 18.9453C7.97852 18.9453 8.23242 18.6914 8.23242 18.3398L8.23242 14.1113L8.17383 12.3535L9.0332 13.3789L9.98047 14.3359C10.0879 14.4531 10.2344 14.5215 10.4102 14.5215C10.752 14.5215 11.0156 14.2676 11.0156 13.9258C11.0156 13.7598 10.9473 13.6133 10.8398 13.5059L8.0957 10.7715C7.94922 10.6152 7.80273 10.5273 7.61719 10.5273C7.44141 10.5273 7.31445 10.6055 7.14844 10.7715L4.39453 13.5059C4.28711 13.6133 4.22852 13.7598 4.22852 13.9258C4.22852 14.2676 4.48242 14.5215 4.82422 14.5215C5 14.5215 5.14648 14.4434 5.25391 14.3359L6.21094 13.3789L7.07031 12.3633L7.00195 14.1113L7.00195 18.3398C7.00195 18.6914 7.25586 18.9453 7.61719 18.9453Z" fill="#000000" fill-opacity="0.85"/>
 </g>
</svg>
