<?xml version="1.0" encoding="UTF-8"?>
<!--Generator: Apple Native CoreSVG 175.5-->
<!DOCTYPE svg
PUBLIC "-//W3C//DTD SVG 1.1//EN"
       "http://www.w3.org/Graphics/SVG/1.1/DTD/svg11.dtd">
<svg version="1.1" xmlns="http://www.w3.org/2000/svg" xmlns:xlink="http://www.w3.org/1999/xlink" width="18.0078" height="17.9395">
 <g>
  <rect height="17.9395" opacity="0" width="18.0078" x="0" y="0"/>
  <path d="M16.8652 1.17188C15.8691 0.175781 14.4629 0.0195312 12.793 0.0195312L5.18555 0.0195312C3.54492 0.0195312 2.13867 0.175781 1.14258 1.17188C0.146484 2.16797 0 3.56445 0 5.19531L0 12.7344C0 14.4043 0.146484 15.791 1.14258 16.7871C2.13867 17.7832 3.54492 17.9395 5.20508 17.9395L12.793 17.9395C14.4629 17.9395 15.8691 17.7832 16.8652 16.7871C17.8613 15.791 18.0078 14.4043 18.0078 12.7344L18.0078 5.22461C18.0078 3.55469 17.8613 2.1582 16.8652 1.17188ZM16.4355 4.95117L16.4355 12.998C16.4355 14.0137 16.3086 15.0488 15.7129 15.6445C15.127 16.2305 14.0723 16.3672 13.0664 16.3672L4.94141 16.3672C3.93555 16.3672 2.88086 16.2305 2.28516 15.6445C1.69922 15.0488 1.57227 14.0137 1.57227 12.998L1.57227 4.98047C1.57227 3.95508 1.69922 2.90039 2.28516 2.31445C2.88086 1.71875 3.94531 1.5918 4.9707 1.5918L13.0664 1.5918C14.0723 1.5918 15.127 1.72852 15.7129 2.31445C16.3086 2.91016 16.4355 3.94531 16.4355 4.95117Z" fill="#000000" fill-opacity="0.85"/>
  <path d="M9.01367 3.99414C8.59375 3.99414 8.29102 4.29688 8.29102 4.72656L8.29102 9.60938L8.35938 11.6699L7.38281 10.498L6.2207 9.32617C6.09375 9.18945 5.91797 9.11133 5.70312 9.11133C5.30273 9.11133 5 9.41406 5 9.81445C5 10.0195 5.05859 10.1953 5.19531 10.3223L8.45703 13.5645C8.65234 13.7598 8.80859 13.8477 9.01367 13.8477C9.23828 13.8477 9.4043 13.75 9.58984 13.5645L12.8516 10.3223C12.9785 10.1953 13.0469 10.0195 13.0469 9.81445C13.0469 9.41406 12.7344 9.11133 12.334 9.11133C12.1191 9.11133 11.9434 9.17969 11.8164 9.32617L10.6641 10.498L9.67773 11.6797L9.74609 9.60938L9.74609 4.72656C9.74609 4.29688 9.44336 3.99414 9.01367 3.99414Z" fill="#000000" fill-opacity="0.85"/>
 </g>
</svg>
