<?xml version="1.0" encoding="UTF-8"?>
<!--Generator: Apple Native CoreSVG 175.5-->
<!DOCTYPE svg
PUBLIC "-//W3C//DTD SVG 1.1//EN"
       "http://www.w3.org/Graphics/SVG/1.1/DTD/svg11.dtd">
<svg version="1.1" xmlns="http://www.w3.org/2000/svg" xmlns:xlink="http://www.w3.org/1999/xlink" width="23.9062" height="17.9395">
 <g>
  <rect height="17.9395" opacity="0" width="23.9062" x="0" y="0"/>
  <path d="M2.41211 17.8613L8.30078 17.8613C9.99023 17.8613 10.7129 17.1582 10.7129 15.498L10.7129 13.2715L13.2227 13.2715L13.2227 16.7773C13.2227 17.4316 13.7012 17.9199 14.3652 17.9199C14.8438 17.9199 15.2344 17.7246 15.7031 17.2852L23.4082 10.0098C23.7891 9.6582 23.9062 9.28711 23.9062 8.96484C23.9062 8.63281 23.7891 8.26172 23.4082 7.91016L15.7031 0.703125C15.1855 0.214844 14.8633 0 14.3848 0C13.7012 0 13.2227 0.546875 13.2227 1.20117L13.2227 4.99023L6.88477 4.99023C5.19531 4.99023 4.47266 5.69336 4.47266 7.35352L4.47266 9.39453L2.41211 9.39453C0.722656 9.39453 0 10.0879 0 11.748L0 15.498C0 17.1582 0.722656 17.8613 2.41211 17.8613ZM2.5293 16.3281C1.88477 16.3281 1.57227 15.9766 1.57227 15.2637L1.57227 11.9824C1.57227 11.2695 1.88477 10.9277 2.5293 10.9277L4.49219 10.9277L4.49219 11.3965C4.49219 11.9922 4.67773 12.4219 5.22461 12.7637L9.14062 15.1562L9.14062 15.2637C9.14062 15.9766 8.82812 16.3281 8.18359 16.3281ZM14.9316 15.8203C14.8438 15.8203 14.7949 15.7617 14.7949 15.6738L14.7949 11.8945C14.7949 11.6699 14.6875 11.5723 14.4629 11.5723L7.00195 11.5723C6.35742 11.5723 6.04492 11.2207 6.04492 10.5078L6.04492 7.43164C6.04492 6.70898 6.35742 6.36719 7.00195 6.36719L14.4629 6.36719C14.6875 6.36719 14.7949 6.26953 14.7949 6.04492L14.7949 2.16797C14.7949 2.08984 14.8438 2.03125 14.9316 2.03125C14.9902 2.03125 15.0488 2.07031 15.0977 2.10938L22.0508 8.7793C22.1289 8.84766 22.1582 8.90625 22.1582 8.96484C22.1582 9.02344 22.1289 9.07227 22.0508 9.15039L15.0977 15.7324C15.0391 15.791 14.9805 15.8203 14.9316 15.8203Z" fill="#000000" fill-opacity="0.85"/>
 </g>
</svg>
