<?xml version="1.0" encoding="UTF-8"?>
<!--Generator: Apple Native CoreSVG 175.5-->
<!DOCTYPE svg
PUBLIC "-//W3C//DTD SVG 1.1//EN"
       "http://www.w3.org/Graphics/SVG/1.1/DTD/svg11.dtd">
<svg version="1.1" xmlns="http://www.w3.org/2000/svg" xmlns:xlink="http://www.w3.org/1999/xlink" width="18.7891" height="26.709">
 <g>
  <rect height="26.709" opacity="0" width="18.7891" x="0" y="0"/>
  <path d="M10.0293 13.0273L8.68164 12.3633C8.07617 14.2871 6.79688 15.5957 5.24414 15.5957C3.10547 15.5957 1.48438 13.125 1.48438 10.0781C1.48438 7.87109 3.01758 6.09375 5.24414 6.09375C5.76172 6.09375 6.2207 6.20117 6.66016 6.35742L6.80664 4.84375C6.33789 4.70703 5.81055 4.61914 5.24414 4.61914C2.14844 4.61914 0 7.00195 0 10.0781C0 13.9355 2.28516 17.0801 5.24414 17.0801C7.39258 17.0898 9.19922 15.4199 10.0293 13.0273ZM3.80859 16.3867L3.39844 17.9883C3.29102 18.3398 3.49609 18.7109 3.94531 18.7109L6.16211 18.7109C6.62109 18.7109 6.80664 18.3398 6.70898 17.9883L6.28906 16.3867ZM4.96094 26.709C5.3125 26.709 5.5957 26.4258 5.5957 26.0938C5.5957 24.2285 7.23633 23.9746 7.23633 22.1191C7.23633 20.1562 5.64453 20.0586 5.66406 18.3398L4.43359 18.3398C4.41406 20.6836 6.01562 20.8008 6.01562 22.1191C6.01562 23.418 4.36523 23.4375 4.36523 26.0938C4.36523 26.4258 4.61914 26.709 4.96094 26.709Z" fill="#000000" fill-opacity="0.85"/>
  <path d="M12.4707 14.9609C16.0156 14.9609 18.7891 11.1914 18.7891 6.48438C18.7891 2.7832 16.2012 0 12.4707 0C8.74023 0 6.17188 2.7832 6.17188 6.48438C6.17188 11.1914 8.93555 14.9609 12.4707 14.9609ZM12.4707 13.4961C9.74609 13.4961 7.64648 10.3125 7.64648 6.48438C7.64648 3.69141 9.63867 1.47461 12.4707 1.47461C15.3027 1.47461 17.3145 3.69141 17.3145 6.48438C17.3145 10.3125 15.1855 13.4961 12.4707 13.4961ZM11.1035 14.2871L10.6445 16.0449C10.5273 16.4355 10.752 16.8555 11.25 16.8555L13.7012 16.8555C14.1992 16.8555 14.4141 16.4355 14.3066 16.0449L13.8379 14.2871ZM12.3535 26.5723C12.7344 26.5723 13.0566 26.25 13.0566 25.8691C13.0566 23.7305 15 23.2324 15 21.0645C15 18.8379 13.1152 18.418 13.1348 16.4746L11.748 16.4844C11.7383 19.1309 13.623 19.541 13.623 21.0645C13.623 22.6172 11.6699 22.8516 11.6699 25.8691C11.6699 26.25 11.9727 26.5723 12.3535 26.5723Z" fill="#000000" fill-opacity="0.85"/>
 </g>
</svg>
