<?xml version="1.0" encoding="UTF-8"?>
<!--Generator: Apple Native CoreSVG 175.5-->
<!DOCTYPE svg
PUBLIC "-//W3C//DTD SVG 1.1//EN"
       "http://www.w3.org/Graphics/SVG/1.1/DTD/svg11.dtd">
<svg version="1.1" xmlns="http://www.w3.org/2000/svg" xmlns:xlink="http://www.w3.org/1999/xlink" width="18.7891" height="26.709">
 <g>
  <rect height="26.709" opacity="0" width="18.7891" x="0" y="0"/>
  <path d="M3.80859 16.3867L3.39844 17.9883C3.30078 18.3398 3.49609 18.7109 3.94531 18.7109L6.16211 18.7109C6.62109 18.7109 6.79688 18.3398 6.70898 17.9883L6.28906 16.3867ZM4.96094 26.709C5.3125 26.709 5.5957 26.4258 5.5957 26.0938C5.5957 24.2285 7.23633 23.9746 7.23633 22.1191C7.23633 20.1562 5.64453 20.0586 5.66406 18.3398L4.43359 18.3398C4.41406 20.6836 6.01562 20.8008 6.01562 22.1191C6.01562 23.418 4.36523 23.4375 4.36523 26.0938C4.36523 26.4258 4.61914 26.709 4.96094 26.709ZM0 10.0781C0 13.9355 2.28516 17.0801 5.24414 17.0801C6.66016 17.0898 7.92969 16.3574 8.85742 15.1562C6.41602 13.5059 4.84375 10.1953 4.84375 6.48438C4.84375 5.83984 4.91211 5.23438 5.0293 4.63867C2.08008 4.74609 0 7.04102 0 10.0781Z" fill="#000000" fill-opacity="0.85"/>
  <path d="M12.4707 14.9609C16.0156 14.9609 18.7891 11.1914 18.7891 6.48438C18.7891 2.7832 16.2012 0 12.4707 0C8.74023 0 6.17188 2.7832 6.17188 6.48438C6.17188 11.1914 8.93555 14.9609 12.4707 14.9609ZM11.1035 14.2871L10.6445 16.0449C10.5469 16.4355 10.752 16.8555 11.25 16.8555L13.7012 16.8555C14.1992 16.8555 14.4141 16.4355 14.3066 16.0449L13.8379 14.2871ZM12.3535 26.5723C12.7344 26.5723 13.0566 26.25 13.0566 25.8691C13.0566 23.7305 15 23.2324 15 21.0645C15 18.8379 13.1152 18.418 13.1348 16.4746L11.748 16.4844C11.7383 19.1309 13.623 19.541 13.623 21.0645C13.623 22.6172 11.6699 22.8516 11.6699 25.8691C11.6699 26.25 11.9727 26.5723 12.3535 26.5723Z" fill="#000000" fill-opacity="0.85"/>
 </g>
</svg>
