<?xml version="1.0" encoding="UTF-8"?>
<!--Generator: Apple Native CoreSVG 175.5-->
<!DOCTYPE svg
PUBLIC "-//W3C//DTD SVG 1.1//EN"
       "http://www.w3.org/Graphics/SVG/1.1/DTD/svg11.dtd">
<svg version="1.1" xmlns="http://www.w3.org/2000/svg" xmlns:xlink="http://www.w3.org/1999/xlink" width="28.9062" height="13.2216">
 <g>
  <rect height="13.2216" opacity="0" width="28.9062" x="0" y="0"/>
  <path d="M5.20508 13.2172L9.59961 13.2172C9.41406 12.7192 9.47266 12.3188 9.7168 11.645L4.94141 11.645C3.93555 11.645 2.88086 11.5082 2.28516 10.9223C1.69922 10.3266 1.57227 9.28168 1.57227 8.27582L1.57227 4.96528C1.57227 3.93989 1.69922 2.89497 2.28516 2.29926C2.88086 1.70356 3.94531 1.57661 4.9707 1.57661L11.5723 1.57661L12.832 0.00434028L5.18555 0.00434028C3.54492 0.00434028 2.13867 0.16059 1.14258 1.15668C0.146484 2.15278 0 3.54926 0 5.18012L0 8.01215C0 9.68207 0.146484 11.0688 1.14258 12.0649C2.13867 13.061 3.54492 13.2172 5.20508 13.2172ZM13.1836 13.2172L20.5566 13.2172C22.2266 13.2172 23.6328 13.061 24.6289 12.0649C25.625 11.0688 25.7715 9.68207 25.7715 8.01215L25.7715 5.20942C25.7715 3.5395 25.625 2.15278 24.6289 1.15668C23.6328 0.16059 22.2266 0.00434028 20.5566 0.00434028L16.416 0.00434028C16.582 0.47309 16.5332 0.873481 16.2988 1.57661L20.8301 1.57661C21.8359 1.57661 22.8906 1.71332 23.4766 2.29926C24.0723 2.89497 24.1992 3.93012 24.1992 4.93598L24.1992 8.27582C24.1992 9.28168 24.0723 10.3266 23.4766 10.9223C22.8906 11.5082 21.8359 11.645 20.8301 11.645L14.4434 11.645ZM27.0996 9.1352C27.8711 9.08637 28.9062 8.10004 28.9062 6.6059C28.9062 5.12153 27.8711 4.1352 27.0996 4.08637Z" fill="#000000" fill-opacity="0.85"/>
  <path d="M4.42383 10.5122L10.1465 10.5122L10.6641 9.1059L9.28711 9.1059C8.30078 9.1059 7.5 8.33442 7.5 7.34809C7.5 6.90864 7.66602 6.48872 7.93945 6.14692L10.6738 2.70942L4.45312 2.70942C3.75977 2.70942 3.35938 2.80707 3.0957 3.08051C2.82227 3.35395 2.71484 3.75434 2.71484 4.43793L2.71484 8.80317C2.71484 9.477 2.82227 9.86762 3.0957 10.1411C3.36914 10.4145 3.75977 10.5122 4.42383 10.5122ZM15.3418 10.5122L21.3574 10.5122C22.0215 10.5122 22.4121 10.4145 22.6855 10.1411C22.959 9.86762 23.0664 9.477 23.0664 8.80317L23.0664 4.4184C23.0664 3.74457 22.959 3.35395 22.6855 3.08051C22.4121 2.80707 22.0215 2.70942 21.3574 2.70942L15.8691 2.70942L15.3516 4.11567L16.7383 4.11567C17.7148 4.11567 18.5156 4.87739 18.5156 5.87348C18.5156 6.31293 18.3496 6.73286 18.0762 7.07465Z" fill="#000000" fill-opacity="0.85"/>
  <path d="M8.82812 7.34809C8.82812 7.59223 9.0332 7.76801 9.28711 7.76801L12.5879 7.76801L10.8301 12.5141C10.5957 13.1391 11.2695 13.4809 11.6699 12.9829L17.0215 6.25434C17.1191 6.12739 17.1875 6.00043 17.1875 5.87348C17.1875 5.62934 16.9824 5.45356 16.7383 5.45356L13.4277 5.45356L15.1855 0.707465C15.4199 0.0824653 14.7559-0.259332 14.3555 0.238715L8.99414 6.95747C8.89648 7.09418 8.82812 7.22114 8.82812 7.34809Z" fill="#000000" fill-opacity="0.85"/>
 </g>
</svg>
