<?xml version="1.0" encoding="UTF-8"?>
<!--Generator: Apple Native CoreSVG 175.5-->
<!DOCTYPE svg
PUBLIC "-//W3C//DTD SVG 1.1//EN"
       "http://www.w3.org/Graphics/SVG/1.1/DTD/svg11.dtd">
<svg version="1.1" xmlns="http://www.w3.org/2000/svg" xmlns:xlink="http://www.w3.org/1999/xlink" width="19.0418" height="20.1855">
 <g>
  <rect height="20.1855" opacity="0" width="19.0418" x="0" y="0"/>
  <path d="M9.23584 20.1758C11.2183 20.1758 12.6538 18.6621 12.8296 16.8555L13.4644 16.8555L11.7749 15.166L1.92139 15.166L1.92139 15.0488C2.09717 14.7656 2.67334 14.1895 3.19092 13.623C3.88428 12.8418 4.22607 11.582 4.3042 9.67773C4.32373 8.99414 4.37256 8.38867 4.45068 7.8418L3.0835 6.47461C2.86865 7.36328 2.771 8.39844 2.75146 9.55078C2.67334 10.6738 2.50732 12.0605 1.86279 12.7344C1.01318 13.6035 0.0170898 14.4824 0.0170898 15.459C0.0170898 16.1816 0.563965 16.6406 1.50146 16.6406L5.61279 16.6406C5.69092 18.5254 7.16553 20.1758 9.23584 20.1758ZM9.23584 18.7988C8.0542 18.7988 7.21436 17.9688 7.13623 16.6406L11.3257 16.6406C11.2573 17.9688 10.4077 18.7988 9.23584 18.7988ZM5.04639 3.02734L6.16943 4.15039C6.521 3.88672 6.91162 3.71094 7.33154 3.59375C7.57568 3.53516 7.70264 3.41797 7.7124 3.16406C7.75146 2.14844 8.32764 1.43555 9.23584 1.43555C10.1343 1.43555 10.7202 2.14844 10.7495 3.16406C10.7593 3.41797 10.896 3.53516 11.1401 3.59375C12.8394 4.0625 14.1382 5.46875 14.1968 9.93164C14.2456 11.123 14.3433 11.8555 14.6851 12.5098L18.1519 16.084C18.3179 15.8984 18.4058 15.6445 18.4058 15.3711C18.4058 14.5898 17.5952 13.8574 16.8921 13.1445C16.0913 12.2461 15.7983 11.2891 15.7495 9.89258C15.7007 5.74219 14.6655 3.23242 12.0581 2.28516C11.7261 1.00586 10.6714 0 9.23584 0C7.79053 0 6.74561 1.00586 6.41357 2.28516C5.88623 2.46094 5.43701 2.71484 5.04639 3.02734Z" fill="#000000" fill-opacity="0.85"/>
  <path d="M0.212402 1.98242L17.7612 19.502C18.0542 19.8047 18.5327 19.8047 18.8257 19.502C19.1089 19.209 19.1187 18.7402 18.8257 18.4375L1.28662 0.917969C0.993652 0.625 0.515137 0.625 0.212402 0.917969C-0.0708008 1.20117-0.0708008 1.69922 0.212402 1.98242Z" fill="#000000" fill-opacity="0.85"/>
 </g>
</svg>
