<?xml version="1.0" encoding="UTF-8"?>
<!--Generator: Apple Native CoreSVG 175.5-->
<!DOCTYPE svg
PUBLIC "-//W3C//DTD SVG 1.1//EN"
       "http://www.w3.org/Graphics/SVG/1.1/DTD/svg11.dtd">
<svg version="1.1" xmlns="http://www.w3.org/2000/svg" xmlns:xlink="http://www.w3.org/1999/xlink" width="20.2539" height="22.8027">
 <g>
  <rect height="22.8027" opacity="0" width="20.2539" x="0" y="0"/>
  <path d="M9.20898 21.4844C11.2793 21.4844 12.7539 19.8438 12.832 17.9492L16.9531 17.9492C17.8711 17.9492 18.4277 17.4805 18.4277 16.7676C18.4277 15.791 17.4316 14.9121 16.5918 14.043C15.9961 13.4375 15.7715 12.2266 15.7324 11.2305C15.7324 11.0449 15.7324 10.8594 15.7227 10.6836C15.166 10.791 14.668 10.7812 14.1602 10.4688C14.1699 10.752 14.1797 11.0449 14.1895 11.3574C14.2188 13.1543 14.6191 14.2188 15.2539 14.9316C15.7715 15.498 16.3477 16.0742 16.5234 16.3574L16.5234 16.4746L1.89453 16.4746L1.89453 16.3574C2.07031 16.0742 2.65625 15.498 3.16406 14.9316C3.86719 14.1504 4.19922 12.8906 4.28711 10.9863C4.36523 6.71875 5.63477 5.36133 7.30469 4.90234C7.54883 4.84375 7.68555 4.72656 7.69531 4.47266C7.72461 3.67188 8.13477 3.11523 8.66211 2.93945C8.99414 2.23633 9.69727 1.73828 10.5273 1.73828C10.5957 1.73828 10.6543 1.73828 10.7422 1.75781C10.7422 1.73828 10.7422 1.73828 10.7422 1.72852C10.3027 1.47461 9.78516 1.30859 9.20898 1.30859C7.77344 1.30859 6.71875 2.31445 6.39648 3.59375C3.79883 4.53125 2.80273 7.01172 2.73438 10.8594C2.65625 11.9824 2.48047 13.3691 1.83594 14.043C0.986328 14.9121 0 15.791 0 16.7676C0 17.4805 0.546875 17.9492 1.47461 17.9492L5.5957 17.9492C5.67383 19.834 7.14844 21.4844 9.20898 21.4844ZM9.20898 20.1074C8.03711 20.1074 7.1875 19.2773 7.11914 17.9492L11.3086 17.9492C11.2305 19.2773 10.3906 20.1074 9.20898 20.1074Z" fill="#000000" fill-opacity="0.85"/>
  <path d="M10.5273 5.89844C10.8496 5.89844 11.0938 5.6543 11.0938 5.36133L11.0938 3.87695C11.0938 3.56445 10.8496 3.32031 10.5273 3.32031C10.2344 3.32031 9.99023 3.56445 9.99023 3.87695L9.99023 5.36133C9.99023 5.6543 10.2344 5.89844 10.5273 5.89844Z" fill="#000000" fill-opacity="0.85"/>
  <path d="M12.832 7.53906C13.1348 7.53906 13.3789 7.30469 13.3789 6.98242L13.3789 2.23633C13.3789 1.93359 13.1348 1.68945 12.832 1.68945C12.5195 1.68945 12.2852 1.93359 12.2852 2.23633L12.2852 6.98242C12.2852 7.30469 12.5195 7.53906 12.832 7.53906Z" fill="#000000" fill-opacity="0.85"/>
  <path d="M15.1172 9.22852C15.4297 9.22852 15.6738 8.99414 15.6738 8.68164L15.6738 0.566406C15.6738 0.244141 15.4297 0 15.1172 0C14.8145 0 14.5703 0.244141 14.5703 0.566406L14.5703 8.68164C14.5703 9.00391 14.8047 9.22852 15.1172 9.22852Z" fill="#000000" fill-opacity="0.85"/>
  <path d="M17.4023 8.26172C17.7148 8.26172 17.959 8.01758 17.959 7.70508L17.959 1.51367C17.959 1.2207 17.7148 0.976562 17.4023 0.976562C17.0996 0.976562 16.8652 1.2207 16.8652 1.51367L16.8652 7.70508C16.8652 8.01758 17.0996 8.26172 17.4023 8.26172Z" fill="#000000" fill-opacity="0.85"/>
  <path d="M19.6973 6.41602C20.0195 6.41602 20.2539 6.18164 20.2539 5.86914L20.2539 3.35938C20.2539 3.04688 20.0195 2.8125 19.6973 2.8125C19.3945 2.8125 19.1504 3.05664 19.1504 3.35938L19.1504 5.86914C19.1504 6.17188 19.3945 6.41602 19.6973 6.41602Z" fill="#000000" fill-opacity="0.85"/>
 </g>
</svg>
