<?xml version="1.0" encoding="UTF-8"?>
<!--Generator: Apple Native CoreSVG 175.5-->
<!DOCTYPE svg
PUBLIC "-//W3C//DTD SVG 1.1//EN"
       "http://www.w3.org/Graphics/SVG/1.1/DTD/svg11.dtd">
<svg version="1.1" xmlns="http://www.w3.org/2000/svg" xmlns:xlink="http://www.w3.org/1999/xlink" width="19.9219" height="19.9316">
 <g>
  <rect height="19.9316" opacity="0" width="19.9219" x="0" y="0"/>
  <path d="M9.96094 19.9316C15.4102 19.9316 19.9219 15.4199 19.9219 9.9707C19.9219 4.53125 15.4004 0.00976562 9.95117 0.00976562C4.51172 0.00976562 0 4.53125 0 9.9707C0 15.4199 4.52148 19.9316 9.96094 19.9316Z" fill="#000000" fill-opacity="0.85"/>
  <path d="M7.57812 5.83008C7.7832 5.64453 8.03711 5.50781 8.33984 5.40039C8.56445 4.67773 9.14062 4.10156 9.95117 4.10156C10.7715 4.10156 11.3477 4.67773 11.5723 5.40039C13.0469 5.94727 13.6328 7.41211 13.6719 9.57031C13.7109 10.1953 13.7793 10.9863 14.1602 11.3867C14.6582 11.875 15.2051 12.373 15.2051 12.9395C15.2051 13.0859 15.1465 13.2227 15.0586 13.3105ZM11.8164 13.6035L5.52734 13.6035C5.00977 13.6035 4.69727 13.3301 4.69727 12.9395C4.69727 12.373 5.26367 11.8848 5.75195 11.3867C6.11328 10.9863 6.20117 10.1953 6.24023 9.57031C6.25 9.05273 6.2793 8.57422 6.35742 8.13477ZM9.95117 15.9375C9.00391 15.9375 8.32031 15.2539 8.25195 14.4531L11.6602 14.4531C11.5918 15.2539 10.8984 15.9375 9.95117 15.9375ZM14.6973 15.3613L4.55078 5.21484C4.38477 5.04883 4.375 4.75586 4.55078 4.57031C4.73633 4.38477 5.0293 4.38477 5.21484 4.57031L15.3516 14.7168C15.5273 14.9023 15.5273 15.1758 15.3516 15.3613C15.1758 15.5371 14.873 15.5371 14.6973 15.3613Z" fill="#ffffff"/>
 </g>
</svg>
