<?xml version="1.0" encoding="UTF-8"?>
<!--Generator: Apple Native CoreSVG 175.5-->
<!DOCTYPE svg
PUBLIC "-//W3C//DTD SVG 1.1//EN"
       "http://www.w3.org/Graphics/SVG/1.1/DTD/svg11.dtd">
<svg version="1.1" xmlns="http://www.w3.org/2000/svg" xmlns:xlink="http://www.w3.org/1999/xlink" width="16.2427" height="21.9865">
 <g>
  <rect height="21.9865" opacity="0" width="16.2427" x="0" y="0"/>
  <path d="M1.24756 12.4435C1.24756 12.8243 1.54053 13.1075 1.95068 13.1075L7.46826 13.1075L4.55811 20.6954C4.16748 21.7013 5.2417 22.2481 5.87646 21.4181L10.2808 15.754L9.18701 14.6602L6.1792 18.6446L6.45264 18.7911L8.58154 14.045L6.16943 11.6524L3.68896 11.6524L4.76318 10.2364L3.62061 9.09384L1.50146 11.8185C1.33545 12.0333 1.24756 12.2286 1.24756 12.4435ZM5.96436 6.07626L7.05811 7.17001L10.0659 3.18564L9.79248 3.03916L7.66357 7.78525L10.0562 10.1778L12.5562 10.1778L11.4819 11.5938L12.6245 12.7364L14.7534 10.002C14.9194 9.79697 15.0073 9.60166 15.0073 9.37705C15.0073 9.00595 14.7144 8.72275 14.3042 8.72275L8.78662 8.72275L11.6968 1.12509C12.0874 0.119233 11.0132-0.427642 10.3784 0.412202Z" fill="#000000" fill-opacity="0.85"/>
  <path d="M14.9585 18.8106C15.2515 19.1036 15.7397 19.1036 16.0229 18.8106C16.3159 18.5274 16.3159 18.0489 16.0229 17.7462L1.28662 3.00986C0.993652 2.71689 0.495605 2.71689 0.212402 3.00986C-0.0708008 3.29306-0.0708008 3.79111 0.212402 4.07431Z" fill="#000000" fill-opacity="0.85"/>
 </g>
</svg>
