<?xml version="1.0" encoding="UTF-8"?>
<!--Generator: Apple Native CoreSVG 175.5-->
<!DOCTYPE svg
PUBLIC "-//W3C//DTD SVG 1.1//EN"
       "http://www.w3.org/Graphics/SVG/1.1/DTD/svg11.dtd">
<svg version="1.1" xmlns="http://www.w3.org/2000/svg" xmlns:xlink="http://www.w3.org/1999/xlink" width="16.2427" height="21.9824">
 <g>
  <rect height="21.9824" opacity="0" width="16.2427" x="0" y="0"/>
  <path d="M5.88623 21.416L10.3491 15.8203L3.51318 8.98435L1.51123 11.4941C1.34521 11.709 1.24756 11.9043 1.24756 12.1191C1.24756 12.5 1.54053 12.7832 1.95068 12.7832L7.31201 12.8613L4.55811 20.6933C4.20654 21.6992 5.22217 22.2363 5.88623 21.416ZM12.7319 12.8418L14.7534 10.3222C14.9194 10.1172 15.0073 9.92185 15.0073 9.69724C15.0073 9.32614 14.7241 9.04294 14.314 9.03317L8.94287 8.95505L11.7065 1.12302C12.0581 0.107392 11.0425-0.419952 10.3784 0.410126L5.896 6.0156Z" fill="#000000" fill-opacity="0.85"/>
  <path d="M14.9585 18.8086C15.2515 19.1015 15.7397 19.1015 16.0229 18.8086C16.3159 18.5254 16.3159 18.0468 16.0229 17.7441L1.28662 3.00778C0.993652 2.71481 0.495605 2.71481 0.212402 3.00778C-0.0708008 3.29099-0.0708008 3.78903 0.212402 4.07224Z" fill="#000000" fill-opacity="0.85"/>
 </g>
</svg>
