<?xml version="1.0" encoding="UTF-8"?>
<!--Generator: Apple Native CoreSVG 175.5-->
<!DOCTYPE svg
PUBLIC "-//W3C//DTD SVG 1.1//EN"
       "http://www.w3.org/Graphics/SVG/1.1/DTD/svg11.dtd">
<svg version="1.1" xmlns="http://www.w3.org/2000/svg" xmlns:xlink="http://www.w3.org/1999/xlink" width="23.0273" height="17.998">
 <g>
  <rect height="17.998" opacity="0" width="23.0273" x="0" y="0"/>
  <path d="M3.06641 17.998L19.9609 17.998C22.0117 17.998 23.0273 16.9824 23.0273 14.9707L23.0273 5.53711C23.0273 3.52539 22.0117 2.50977 19.9609 2.50977L3.06641 2.50977C1.02539 2.50977 0 3.51562 0 5.53711L0 14.9707C0 16.9922 1.02539 17.998 3.06641 17.998ZM4.29688 3.24219L9.54102 3.24219L9.54102 1.21094C9.54102 0.458984 9.11133 0.0195312 8.35938 0.0195312L5.47852 0.0195312C4.72656 0.0195312 4.29688 0.458984 4.29688 1.21094ZM13.4766 3.24219L18.7109 3.24219L18.7109 1.21094C18.7109 0.458984 18.2812 0.0195312 17.5293 0.0195312L14.6484 0.0195312C13.9062 0.0195312 13.4766 0.458984 13.4766 1.21094Z" fill="#000000" fill-opacity="0.85"/>
  <path d="M8.32031 10.9277C8.32031 10.8301 8.36914 10.7324 8.44727 10.6348L12.4805 5.56641C12.7832 5.18555 13.291 5.44922 13.1152 5.91797L11.7871 9.49219L14.2773 9.49219C14.4629 9.49219 14.6289 9.62891 14.6289 9.80469C14.6289 9.91211 14.5801 10.0098 14.4922 10.0977L10.4688 15.166C10.166 15.5469 9.64844 15.293 9.82422 14.8145L11.1621 11.25L8.66211 11.25C8.47656 11.25 8.32031 11.1035 8.32031 10.9277Z" fill="#ffffff"/>
 </g>
</svg>
