<?xml version="1.0" encoding="UTF-8"?>
<!--Generator: Apple Native CoreSVG 175.5-->
<!DOCTYPE svg
PUBLIC "-//W3C//DTD SVG 1.1//EN"
       "http://www.w3.org/Graphics/SVG/1.1/DTD/svg11.dtd">
<svg version="1.1" xmlns="http://www.w3.org/2000/svg" xmlns:xlink="http://www.w3.org/1999/xlink" width="21.9434" height="20.6152">
 <g>
  <rect height="20.6152" opacity="0" width="21.9434" x="0" y="0"/>
  <path d="M0 5.30273C0 8.61328 4.02344 12.002 10.7227 12.002C13.9355 12.002 16.7871 11.2012 18.7891 9.73633C18.2129 9.48242 17.7246 9.05273 17.4023 8.50586C15.9375 9.92188 13.5938 10.6836 10.7227 10.6836C4.90234 10.6836 2.71484 7.60742 2.71484 5.78125C2.71484 5.33203 2.7832 4.93164 2.92969 4.58984C2.01172 4.07227 1.40625 3.07617 1.38672 2.00195C0.46875 2.86133 0 3.97461 0 5.30273ZM16.084 14.1504C16.084 9.98047 12.0215 3.7207 7.49023 1.66992C7.5 1.75781 7.5 1.83594 7.5 1.91406C7.5 2.45117 7.36328 2.96875 7.10938 3.41797C10.6543 4.50195 14.0039 9.21875 14.0039 13.1836C14.0039 15.4688 12.666 17.0508 10.8984 17.0508C10.9668 17.334 11.0059 17.627 11.0059 17.9102C11.0059 18.584 10.791 19.2285 10.3906 19.7559C10.4785 19.7656 10.5957 19.7656 10.7031 19.7656C13.8281 19.7656 16.084 17.4121 16.084 14.1504ZM16.7676 1.01562C11.2988 1.01562 5.3418 9.11133 5.3418 14.1504C5.3418 14.7461 5.41992 15.3516 5.5957 15.9473C6.04492 15.293 6.95312 14.873 7.67578 14.8535C7.50977 14.3555 7.41211 13.7793 7.41211 13.1836C7.41211 8.82812 11.6699 3.17383 15.8691 3.17383C17.0215 3.17383 17.9102 3.59375 18.3691 4.36523C18.8672 4.04297 19.4336 3.87695 20.0293 3.87695C20.4785 3.87695 20.918 3.98438 21.3184 4.16016C20.8594 2.20703 19.1602 1.01562 16.7676 1.01562Z" fill="#000000" fill-opacity="0.85"/>
  <path d="M4.44336 3.82812C5.49805 3.82812 6.35742 2.97852 6.35742 1.91406C6.35742 0.859375 5.49805 0 4.44336 0C3.37891 0 2.51953 0.859375 2.51953 1.91406C2.51953 2.97852 3.37891 3.82812 4.44336 3.82812ZM20.0293 8.85742C21.0938 8.85742 21.9434 7.99805 21.9434 6.94336C21.9434 5.87891 21.0938 5.01953 20.0293 5.01953C18.9746 5.01953 18.1152 5.87891 18.1152 6.94336C18.1152 7.99805 18.9746 8.85742 20.0293 8.85742ZM7.94922 19.8242C9.01367 19.8242 9.86328 18.9746 9.86328 17.9102C9.86328 16.8457 9.00391 15.9961 7.94922 15.9961C6.88477 15.9961 6.03516 16.8457 6.03516 17.9102C6.03516 18.9746 6.88477 19.8242 7.94922 19.8242Z" fill="#000000" fill-opacity="0.85"/>
 </g>
</svg>
