<?xml version="1.0" encoding="UTF-8"?>
<!--Generator: Apple Native CoreSVG 175.5-->
<!DOCTYPE svg
PUBLIC "-//W3C//DTD SVG 1.1//EN"
       "http://www.w3.org/Graphics/SVG/1.1/DTD/svg11.dtd">
<svg version="1.1" xmlns="http://www.w3.org/2000/svg" xmlns:xlink="http://www.w3.org/1999/xlink" width="21.748" height="20.8496">
 <g>
  <rect height="20.8496" opacity="0" width="21.748" x="0" y="0"/>
  <path d="M3.01758 18.9258L18.7305 18.9258C20.752 18.9258 21.748 17.9395 21.748 15.9473L21.748 6.44531C21.748 4.44336 20.752 3.4668 18.7305 3.4668L3.01758 3.4668C1.00586 3.4668 0 4.44336 0 6.44531L0 15.9473C0 17.9395 1.00586 18.9258 3.01758 18.9258ZM3.03711 17.3633C2.08008 17.3633 1.57227 16.8652 1.57227 15.8691L1.57227 6.52344C1.57227 5.51758 2.08008 5.0293 3.03711 5.0293L18.7109 5.0293C19.668 5.0293 20.1758 5.51758 20.1758 6.52344L20.1758 15.8691C20.1758 16.8652 19.668 17.3633 18.7109 17.3633ZM0.810547 9.14062C3.83789 10.1758 7.25586 10.7031 10.8789 10.7031C14.4922 10.7031 17.9102 10.1758 20.9375 9.14062L20.9375 7.4707C17.9785 8.61328 14.5703 9.18945 10.8789 9.18945C7.17773 9.18945 3.76953 8.61328 0.810547 7.4707ZM9.35547 12.4609L12.3926 12.4609C13.0859 12.4609 13.4766 12.0801 13.4766 11.3965L13.4766 9.90234L8.28125 9.90234L8.28125 11.3965C8.28125 12.0801 8.67188 12.4609 9.35547 12.4609ZM5.92773 4.31641L7.44141 4.31641L7.44141 2.58789C7.44141 1.8457 7.87109 1.42578 8.63281 1.42578L13.1152 1.42578C13.877 1.42578 14.3164 1.8457 14.3164 2.58789L14.3164 4.29688L15.8301 4.29688L15.8301 2.69531C15.8301 0.859375 14.8633 0 13.0957 0L8.65234 0C6.99219 0 5.92773 0.859375 5.92773 2.69531Z" fill="#000000" fill-opacity="0.85"/>
 </g>
</svg>
