<?xml version="1.0" encoding="UTF-8"?>
<!--Generator: Apple Native CoreSVG 175.5-->
<!DOCTYPE svg
PUBLIC "-//W3C//DTD SVG 1.1//EN"
       "http://www.w3.org/Graphics/SVG/1.1/DTD/svg11.dtd">
<svg version="1.1" xmlns="http://www.w3.org/2000/svg" xmlns:xlink="http://www.w3.org/1999/xlink" width="21.748" height="20.8496">
 <g>
  <rect height="20.8496" opacity="0" width="21.748" x="0" y="0"/>
  <path d="M10.8789 9.23828C14.668 9.23828 18.1641 8.7207 21.748 7.23633L21.748 6.44531C21.748 4.44336 20.752 3.4668 18.7305 3.4668L15.8301 3.4668L15.8301 2.69531C15.8301 0.859375 14.8633 0 13.0957 0L8.65234 0C6.99219 0 5.92773 0.859375 5.92773 2.69531L5.92773 3.4668L3.01758 3.4668C1.00586 3.4668 0 4.44336 0 6.44531L0 7.23633C3.58398 8.7207 7.08008 9.23828 10.8789 9.23828ZM7.44141 3.4668L7.44141 2.58789C7.44141 1.8457 7.87109 1.42578 8.63281 1.42578L13.1152 1.42578C13.877 1.42578 14.3164 1.8457 14.3164 2.58789L14.3164 3.4668ZM3.01758 18.9258L18.7305 18.9258C20.752 18.9258 21.748 17.9395 21.748 15.9473L21.748 8.83789C18.8965 9.86328 16.1914 10.3906 13.4766 10.5762L13.4766 11.3672C13.4766 12.0508 13.0859 12.4316 12.3926 12.4316L9.35547 12.4316C8.67188 12.4316 8.28125 12.0508 8.28125 11.3672L8.28125 10.5762C5.55664 10.3906 2.85156 9.86328 0 8.83789L0 15.9473C0 17.9395 1.00586 18.9258 3.01758 18.9258Z" fill="#000000" fill-opacity="0.85"/>
 </g>
</svg>
