<?xml version="1.0" encoding="UTF-8"?>
<!--Generator: Apple Native CoreSVG 175.5-->
<!DOCTYPE svg
PUBLIC "-//W3C//DTD SVG 1.1//EN"
       "http://www.w3.org/Graphics/SVG/1.1/DTD/svg11.dtd">
<svg version="1.1" xmlns="http://www.w3.org/2000/svg" xmlns:xlink="http://www.w3.org/1999/xlink" width="20.6152" height="19.9316">
 <g>
  <rect height="19.9316" opacity="0" width="20.6152" x="0" y="0"/>
  <path d="M6.41602 5.36133C6.58203 5.36133 6.71875 5.25391 6.74805 5.07812C7.08008 3.30078 7.03125 3.35938 8.80859 3.00781C8.98438 2.97852 9.10156 2.8418 9.10156 2.67578C9.10156 2.50977 8.98438 2.38281 8.80859 2.35352C7.03125 2.00195 7.08008 2.06055 6.74805 0.283203C6.71875 0.107422 6.58203 0 6.41602 0C6.25 0 6.11328 0.107422 6.08398 0.283203C5.75195 2.06055 5.80078 2.00195 4.02344 2.35352C3.84766 2.38281 3.73047 2.50977 3.73047 2.67578C3.73047 2.8418 3.84766 2.97852 4.02344 3.00781C5.80078 3.35938 5.75195 3.30078 6.08398 5.07812C6.11328 5.25391 6.25 5.36133 6.41602 5.36133ZM17.0215 19.9219C17.2266 19.9219 17.4023 19.7656 17.4316 19.5508C17.7441 17.207 17.7539 17.2266 20.2441 16.748C20.459 16.709 20.6152 16.543 20.6152 16.3379C20.6152 16.123 20.459 15.9668 20.2344 15.9277C17.7832 15.5762 17.7344 15.5371 17.4316 13.1348C17.4121 12.9102 17.2363 12.7539 17.0215 12.7539C16.7969 12.7539 16.6309 12.9199 16.6113 13.1445C16.3184 15.4883 16.2695 15.459 13.7891 15.9277C13.5742 15.9766 13.4277 16.1426 13.4277 16.3379C13.4277 16.5527 13.584 16.709 13.8281 16.748C16.2695 17.1484 16.3184 17.1875 16.6113 19.5312C16.6309 19.7559 16.7969 19.9219 17.0215 19.9219Z" fill="#000000" fill-opacity="0.85"/>
  <path d="M14.7461 10.2344C15.0195 10.293 15.3027 10.3125 15.5957 10.3125C18.1543 10.3125 20.2246 8.25195 20.2246 5.70312C20.2246 3.1543 18.1543 1.08398 15.5957 1.08398C13.0566 1.08398 10.9863 3.1543 10.9863 5.70312C10.9863 5.98633 11.0059 6.2793 11.0547 6.54297L12.5684 6.54297C12.5 6.2793 12.4609 6.00586 12.4609 5.70312C12.4609 3.96484 13.8574 2.55859 15.5957 2.55859C17.3535 2.55859 18.75 3.95508 18.75 5.70312C18.75 7.44141 17.334 8.83789 15.5957 8.83789C15.3516 8.83789 15.1074 8.81836 14.873 8.75ZM11.6797 13.3008C13.7793 13.3008 15.4785 11.6113 15.4785 9.50195C15.4785 7.40234 13.7793 5.70312 11.6797 5.70312C9.58008 5.70312 7.88086 7.40234 7.88086 9.50195C7.88086 11.6113 9.58008 13.3008 11.6797 13.3008ZM11.6797 11.8262C10.3906 11.8262 9.35547 10.8008 9.35547 9.50195C9.35547 8.21289 10.3906 7.17773 11.6797 7.17773C12.9688 7.17773 14.0039 8.21289 14.0039 9.50195C14.0039 10.8008 12.9688 11.8262 11.6797 11.8262ZM2.58789 10.7715C3.99414 10.7715 5.16602 9.60938 5.16602 8.18359C5.16602 6.77734 3.99414 5.61523 2.58789 5.61523C1.16211 5.61523 0 6.77734 0 8.18359C0 9.60938 1.16211 10.7715 2.58789 10.7715ZM2.58789 9.29688C1.97266 9.29688 1.47461 8.79883 1.47461 8.18359C1.47461 7.58789 1.97266 7.08984 2.58789 7.08984C3.19336 7.08984 3.69141 7.58789 3.69141 8.18359C3.69141 8.79883 3.19336 9.29688 2.58789 9.29688ZM6.39648 19.6094C7.91016 19.6094 9.16016 18.3594 9.16016 16.8262C9.16016 15.3125 7.91016 14.0625 6.39648 14.0625C4.86328 14.0625 3.61328 15.3125 3.61328 16.8262C3.61328 18.3594 4.86328 19.6094 6.39648 19.6094ZM6.39648 18.125C5.67383 18.125 5.08789 17.5488 5.08789 16.8262C5.08789 16.123 5.68359 15.5371 6.39648 15.5371C7.09961 15.5371 7.68555 16.123 7.68555 16.8262C7.68555 17.5293 7.09961 18.125 6.39648 18.125Z" fill="#000000" fill-opacity="0.85"/>
 </g>
</svg>
