<?xml version="1.0" encoding="UTF-8"?>
<!--Generator: Apple Native CoreSVG 175.5-->
<!DOCTYPE svg
PUBLIC "-//W3C//DTD SVG 1.1//EN"
       "http://www.w3.org/Graphics/SVG/1.1/DTD/svg11.dtd">
<svg version="1.1" xmlns="http://www.w3.org/2000/svg" xmlns:xlink="http://www.w3.org/1999/xlink" width="24.2773" height="17.998">
 <g>
  <rect height="17.998" opacity="0" width="24.2773" x="0" y="0"/>
  <path d="M5.69336 11.0254L4.12109 11.0254L4.12109 14.9707C4.12109 16.9824 5.14648 17.998 7.1875 17.998L20.5273 17.998C22.5684 17.998 23.5938 16.9922 23.5938 14.9707L23.5938 11.0254L22.0215 11.0254L22.0215 15.0586C22.0215 15.9668 21.5332 16.4258 20.6738 16.4258L7.06055 16.4258C6.19141 16.4258 5.69336 15.9668 5.69336 15.0586ZM4.12109 6.98242L5.69336 6.98242L5.69336 2.95898C5.69336 2.05078 6.19141 1.5918 7.06055 1.5918L20.6738 1.5918C21.5332 1.5918 22.0215 2.05078 22.0215 2.95898L22.0215 6.98242L23.5938 6.98242L23.5938 3.04688C23.5938 1.02539 22.5684 0.0195312 20.5273 0.0195312L7.1875 0.0195312C5.14648 0.0195312 4.12109 1.03516 4.12109 3.04688Z" fill="#000000" fill-opacity="0.85"/>
  <path d="M1.32812 10.3223C2.05078 10.3223 2.65625 9.7168 2.65625 8.99414C2.65625 8.27148 2.05078 7.66602 1.32812 7.66602C0.605469 7.66602 0 8.27148 0 8.99414C0 9.7168 0.605469 10.3223 1.32812 10.3223ZM24.2773 9.00391C24.2773 8.62305 23.9746 8.32031 23.5938 8.32031L1.91406 8.32031L1.91406 9.69727L23.5938 9.69727C23.9746 9.69727 24.2773 9.38477 24.2773 9.00391Z" fill="#000000" fill-opacity="0.85"/>
  <path d="M1.32812 2.43164C1.99219 2.43164 2.5293 1.89453 2.5293 1.23047C2.5293 0.566406 1.99219 0.0292969 1.32812 0.0292969C0.664062 0.0292969 0.126953 0.566406 0.126953 1.23047C0.126953 1.89453 0.664062 2.43164 1.32812 2.43164ZM1.32812 6.30859C1.99219 6.30859 2.5293 5.77148 2.5293 5.10742C2.5293 4.44336 1.99219 3.90625 1.32812 3.90625C0.664062 3.90625 0.126953 4.44336 0.126953 5.10742C0.126953 5.77148 0.664062 6.30859 1.32812 6.30859ZM1.32812 14.0723C1.99219 14.0723 2.5293 13.5352 2.5293 12.8711C2.5293 12.207 1.99219 11.6602 1.32812 11.6602C0.664062 11.6602 0.126953 12.207 0.126953 12.8711C0.126953 13.5352 0.664062 14.0723 1.32812 14.0723ZM1.32812 17.959C1.99219 17.959 2.5293 17.4219 2.5293 16.7578C2.5293 16.0938 1.99219 15.5469 1.32812 15.5469C0.664062 15.5469 0.126953 16.0938 0.126953 16.7578C0.126953 17.4219 0.664062 17.959 1.32812 17.959Z" fill="#000000" fill-opacity="0.85"/>
 </g>
</svg>
