<?xml version="1.0" encoding="UTF-8"?>
<!--Generator: Apple Native CoreSVG 175.5-->
<!DOCTYPE svg
PUBLIC "-//W3C//DTD SVG 1.1//EN"
       "http://www.w3.org/Graphics/SVG/1.1/DTD/svg11.dtd">
<svg version="1.1" xmlns="http://www.w3.org/2000/svg" xmlns:xlink="http://www.w3.org/1999/xlink" width="24.2773" height="17.998">
 <g>
  <rect height="17.998" opacity="0" width="24.2773" x="0" y="0"/>
  <path d="M18.584 11.0254L18.584 15.0586C18.584 15.9668 18.0859 16.4258 17.2168 16.4258L3.61328 16.4258C2.74414 16.4258 2.25586 15.9668 2.25586 15.0586L2.25586 11.0254L0.683594 11.0254L0.683594 14.9707C0.683594 16.9922 1.71875 17.998 3.75 17.998L17.0898 17.998C19.1309 17.998 20.1562 16.9824 20.1562 14.9707L20.1562 11.0254ZM20.1562 6.98242L20.1562 3.04688C20.1562 1.03516 19.1309 0.0195312 17.0898 0.0195312L3.75 0.0195312C1.71875 0.0195312 0.683594 1.02539 0.683594 3.04688L0.683594 6.98242L2.25586 6.98242L2.25586 2.95898C2.25586 2.05078 2.74414 1.5918 3.61328 1.5918L17.2168 1.5918C18.0859 1.5918 18.584 2.05078 18.584 2.95898L18.584 6.98242Z" fill="#000000" fill-opacity="0.85"/>
  <path d="M22.9492 10.3223C23.6719 10.3223 24.2773 9.7168 24.2773 8.99414C24.2773 8.27148 23.6719 7.66602 22.9492 7.66602C22.2266 7.66602 21.6211 8.27148 21.6211 8.99414C21.6211 9.7168 22.2266 10.3223 22.9492 10.3223ZM0 9.00391C0 9.38477 0.302734 9.69727 0.683594 9.69727L22.3633 9.69727L22.3633 8.32031L0.683594 8.32031C0.302734 8.32031 0 8.62305 0 9.00391Z" fill="#000000" fill-opacity="0.85"/>
  <path d="M22.9492 2.43164C23.6133 2.43164 24.1504 1.89453 24.1504 1.23047C24.1504 0.566406 23.6133 0.0292969 22.9492 0.0292969C22.2852 0.0292969 21.748 0.566406 21.748 1.23047C21.748 1.89453 22.2852 2.43164 22.9492 2.43164ZM22.9492 6.30859C23.6133 6.30859 24.1504 5.77148 24.1504 5.10742C24.1504 4.44336 23.6133 3.90625 22.9492 3.90625C22.2852 3.90625 21.748 4.44336 21.748 5.10742C21.748 5.77148 22.2852 6.30859 22.9492 6.30859ZM22.9492 14.0723C23.6133 14.0723 24.1504 13.5352 24.1504 12.8711C24.1504 12.207 23.6133 11.6602 22.9492 11.6602C22.2852 11.6602 21.748 12.207 21.748 12.8711C21.748 13.5352 22.2852 14.0723 22.9492 14.0723ZM22.9492 17.959C23.6133 17.959 24.1504 17.4219 24.1504 16.7578C24.1504 16.0938 23.6133 15.5469 22.9492 15.5469C22.2852 15.5469 21.748 16.0938 21.748 16.7578C21.748 17.4219 22.2852 17.959 22.9492 17.959Z" fill="#000000" fill-opacity="0.85"/>
 </g>
</svg>
