<?xml version="1.0" encoding="UTF-8"?>
<!--Generator: Apple Native CoreSVG 175.5-->
<!DOCTYPE svg
PUBLIC "-//W3C//DTD SVG 1.1//EN"
       "http://www.w3.org/Graphics/SVG/1.1/DTD/svg11.dtd">
<svg version="1.1" xmlns="http://www.w3.org/2000/svg" xmlns:xlink="http://www.w3.org/1999/xlink" width="23.0273" height="17.9785">
 <g>
  <rect height="17.9785" opacity="0" width="23.0273" x="0" y="0"/>
  <path d="M3.06641 17.9785L10.8594 17.9785L10.8594 16.4062L3.08594 16.4062C2.10938 16.4062 1.57227 15.8887 1.57227 14.873L1.57227 9.6582L0 9.6582L0 14.9609C0 16.9727 1.02539 17.9785 3.06641 17.9785ZM12.1973 17.9785L19.9609 17.9785C22.0117 17.9785 23.0273 16.9727 23.0273 14.9609L23.0273 9.6582L21.4551 9.6582L21.4551 14.873C21.4551 15.8887 20.9082 16.4062 19.9414 16.4062L12.1973 16.4062ZM21.4551 8.33008L23.0273 8.33008L23.0273 3.02734C23.0273 1.01562 22.0117 0 19.9609 0L12.1973 0L12.1973 1.57227L19.9414 1.57227C20.9082 1.57227 21.4551 2.09961 21.4551 3.11523ZM0 8.33008L1.57227 8.33008L1.57227 3.11523C1.57227 2.09961 2.10938 1.57227 3.08594 1.57227L10.8594 1.57227L10.8594 0L3.06641 0C1.02539 0 0 1.01562 0 3.02734Z" fill="#000000" fill-opacity="0.85"/>
  <path d="M11.5234 6.30859C12.2852 6.30859 12.8906 5.69336 12.8906 4.93164C12.8906 4.18945 12.2852 3.56445 11.5234 3.56445C10.7715 3.56445 10.1562 4.18945 10.1562 4.93164C10.1562 5.69336 10.7715 6.30859 11.5234 6.30859ZM11.5234 14.4043C12.2852 14.4043 12.8906 13.7793 12.8906 13.0371C12.8906 12.2656 12.2852 11.6602 11.5234 11.6602C10.7715 11.6602 10.1562 12.2656 10.1562 13.0371C10.1562 13.7793 10.7715 14.4043 11.5234 14.4043ZM15.5859 10.3516C16.3281 10.3516 16.9531 9.73633 16.9531 8.98438C16.9531 8.22266 16.3281 7.61719 15.5859 7.61719C14.8145 7.61719 14.1992 8.22266 14.1992 8.98438C14.1992 9.73633 14.8145 10.3516 15.5859 10.3516ZM7.4707 10.3516C8.24219 10.3516 8.84766 9.73633 8.84766 8.98438C8.84766 8.22266 8.24219 7.61719 7.4707 7.61719C6.72852 7.61719 6.10352 8.22266 6.10352 8.98438C6.10352 9.73633 6.72852 10.3516 7.4707 10.3516Z" fill="#000000" fill-opacity="0.85"/>
  <path d="M11.5234 10.3516C12.2852 10.3516 12.8906 9.73633 12.8906 8.98438C12.8906 8.22266 12.2852 7.61719 11.5234 7.61719C10.7715 7.61719 10.1562 8.22266 10.1562 8.98438C10.1562 9.73633 10.7715 10.3516 11.5234 10.3516Z" fill="#000000" fill-opacity="0.85"/>
 </g>
</svg>
