<?xml version="1.0" encoding="UTF-8"?>
<!--Generator: Apple Native CoreSVG 175.5-->
<!DOCTYPE svg
PUBLIC "-//W3C//DTD SVG 1.1//EN"
       "http://www.w3.org/Graphics/SVG/1.1/DTD/svg11.dtd">
<svg version="1.1" xmlns="http://www.w3.org/2000/svg" xmlns:xlink="http://www.w3.org/1999/xlink" width="25.3027" height="20.4785">
 <g>
  <rect height="20.4785" opacity="0" width="25.3027" x="0" y="0"/>
  <path d="M0 12.9297C0 14.9414 1.01562 15.957 3.06641 15.957L3.59375 15.957L3.59375 9.16992C3.59375 6.41602 5.21484 4.81445 7.99805 4.81445L9.44336 4.81445C9.6582 4.81445 9.70703 4.79492 9.87305 4.61914L10.5664 3.91602C11.3477 3.10547 12.168 2.74414 13.2715 2.74414L16.9727 2.74414C18.0957 2.74414 18.9453 3.11523 19.707 3.94531L20.1465 4.42383C20.2246 4.50195 20.3125 4.60938 20.3711 4.63867L20.3711 3.04688C20.3711 1.03516 19.3457 0.0195312 17.3145 0.0195312L3.06641 0.0195312C1.01562 0.0195312 0 1.03516 0 3.04688Z" fill="#000000" fill-opacity="0.85"/>
  <path d="M7.99805 20.4785L22.2461 20.4785C24.2871 20.4785 25.3027 19.4629 25.3027 17.4512L25.3027 9.16992C25.3027 7.1582 24.2871 6.15234 22.2461 6.15234L20.791 6.15234C20.0586 6.15234 19.834 6.06445 19.4141 5.60547L18.7109 4.84375C18.2129 4.29688 17.7344 4.08203 16.9727 4.08203L13.2715 4.08203C12.5 4.08203 12.0508 4.30664 11.5234 4.84375L10.7812 5.60547C10.3516 6.02539 10.1758 6.15234 9.44336 6.15234L7.99805 6.15234C5.94727 6.15234 4.93164 7.1582 4.93164 9.16992L4.93164 17.4512C4.93164 19.4629 5.94727 20.4785 7.99805 20.4785ZM15.127 17.5879C12.5098 17.5879 10.4004 15.4785 10.4004 12.8516C10.4004 10.2441 12.5098 8.125 15.127 8.125C17.7344 8.125 19.8535 10.2441 19.8535 12.8516C19.8535 15.4785 17.7344 17.5879 15.127 17.5879ZM15.127 16.0938C16.9043 16.0938 18.3496 14.6387 18.3496 12.8516C18.3496 11.0742 16.9043 9.62891 15.127 9.62891C13.3496 9.62891 11.8945 11.0742 11.8945 12.8516C11.8945 14.6387 13.3496 16.0938 15.127 16.0938ZM21.123 10.6055C20.5176 10.6055 20.0293 10.1172 20.0293 9.51172C20.0293 8.90625 20.5176 8.4082 21.123 8.4082C21.7285 8.4082 22.2266 8.90625 22.2266 9.51172C22.2266 10.1172 21.7285 10.6055 21.123 10.6055Z" fill="#000000" fill-opacity="0.85"/>
 </g>
</svg>
