<?xml version="1.0" encoding="UTF-8"?>
<!--Generator: Apple Native CoreSVG 175.5-->
<!DOCTYPE svg
PUBLIC "-//W3C//DTD SVG 1.1//EN"
       "http://www.w3.org/Graphics/SVG/1.1/DTD/svg11.dtd">
<svg version="1.1" xmlns="http://www.w3.org/2000/svg" xmlns:xlink="http://www.w3.org/1999/xlink" width="19.9219" height="19.9316">
 <g>
  <rect height="19.9316" opacity="0" width="19.9219" x="0" y="0"/>
  <path d="M9.96094 14.7559C12.5781 14.7559 14.7559 12.5781 14.7559 9.96094C14.7559 7.33398 12.5781 5.15625 9.96094 5.15625C7.34375 5.15625 5.16602 7.33398 5.16602 9.96094C5.16602 12.5781 7.34375 14.7559 9.96094 14.7559ZM9.96094 13.2812C8.1543 13.2812 6.64062 11.7578 6.64062 9.96094C6.64062 8.13477 8.14453 6.63086 9.96094 6.63086C11.7676 6.63086 13.2812 8.14453 13.2812 9.96094C13.2812 11.7676 11.7773 13.2812 9.96094 13.2812ZM18.1738 6.63086L18.1738 5.16602L10.0098 5.15625L10.0098 6.63086ZM16.9824 15.5078L18.2227 14.7266L14.1895 7.73438L12.9199 8.4668ZM8.7207 18.7207L10.0098 19.4141L14.0625 12.4219L12.793 11.6797ZM1.74805 13.2812L1.74805 14.7461L9.91211 14.7559L9.91211 13.2812ZM2.93945 4.39453L1.69922 5.18555L5.73242 12.1777L7.00195 11.4453ZM11.2012 1.18164L9.91211 0.498047L5.85938 7.49023L7.12891 8.23242ZM9.96094 19.9219C15.4102 19.9219 19.9219 15.4004 19.9219 9.96094C19.9219 4.51172 15.4004 0 9.95117 0C4.51172 0 0 4.51172 0 9.96094C0 15.4004 4.52148 19.9219 9.96094 19.9219ZM9.96094 18.2617C5.35156 18.2617 1.66992 14.5703 1.66992 9.96094C1.66992 5.35156 5.3418 1.66016 9.95117 1.66016C14.5605 1.66016 18.2617 5.35156 18.2617 9.96094C18.2617 14.5703 14.5703 18.2617 9.96094 18.2617Z" fill="#000000" fill-opacity="0.85"/>
 </g>
</svg>
