<?xml version="1.0" encoding="UTF-8"?>
<!--Generator: Apple Native CoreSVG 175.5-->
<!DOCTYPE svg
PUBLIC "-//W3C//DTD SVG 1.1//EN"
       "http://www.w3.org/Graphics/SVG/1.1/DTD/svg11.dtd">
<svg version="1.1" xmlns="http://www.w3.org/2000/svg" xmlns:xlink="http://www.w3.org/1999/xlink" width="25.6445" height="19.1504">
 <g>
  <rect height="19.1504" opacity="0" width="25.6445" x="0" y="0"/>
  <path d="M0 9.57031C0 15.3418 3.98438 19.1406 10 19.1406L15.6348 19.1406C21.6504 19.1406 25.6445 15.3418 25.6445 9.57031C25.6445 3.79883 21.6504 0 15.6348 0L10 0C3.98438 0 0 3.79883 0 9.57031ZM1.58203 9.57031C1.58203 4.74609 4.81445 1.5918 9.70703 1.5918L15.9277 1.5918C20.8203 1.5918 24.0625 4.74609 24.0625 9.57031C24.0625 14.3945 20.8203 17.5488 15.9277 17.5488L9.70703 17.5488C4.81445 17.5488 1.58203 14.3945 1.58203 9.57031Z" fill="#000000" fill-opacity="0.85"/>
  <path d="M3.00781 9.57031C3.00781 13.584 5.60547 16.1133 9.70703 16.1133L15.9277 16.1133C20.0391 16.1133 22.6367 13.584 22.6367 9.57031C22.6367 5.55664 20.0391 3.01758 15.9277 3.01758L9.70703 3.01758C5.60547 3.01758 3.00781 5.55664 3.00781 9.57031Z" fill="#000000" fill-opacity="0.85"/>
 </g>
</svg>
