<?xml version="1.0" encoding="UTF-8"?>
<!--Generator: Apple Native CoreSVG 175.5-->
<!DOCTYPE svg
PUBLIC "-//W3C//DTD SVG 1.1//EN"
       "http://www.w3.org/Graphics/SVG/1.1/DTD/svg11.dtd">
<svg version="1.1" xmlns="http://www.w3.org/2000/svg" xmlns:xlink="http://www.w3.org/1999/xlink" width="31.1232" height="18.1934">
 <g>
  <rect height="18.1934" opacity="0" width="31.1232" x="0" y="0"/>
  <path d="M4.0334 5.68359C4.25801 4.61914 4.73653 3.22266 5.05879 2.65625C5.32246 2.19727 5.60567 2.00195 6.13301 1.92383C6.75801 1.83594 8.01778 1.77734 10.215 1.75781C10.4494 1.05469 10.7522 0.507812 11.3186 0C8.57442 0.0195312 6.80684 0.078125 6.2209 0.146484C4.92207 0.292969 3.90645 0.986328 3.38887 2.08984C3.04707 2.80273 2.41231 4.6582 2.05098 6.41602L1.24043 7.48047C0.341994 8.66211-0.00956813 9.58008 0.000197496 11.2305L0.00996312 12.9492C0.0197287 14.1992 0.752151 14.9219 2.07051 15.0684C3.07637 15.1855 4.79512 15.2832 6.67012 15.3516L6.67012 11.2305C6.67012 9.58008 7.01192 8.66211 7.90059 7.48047L8.7209 6.41602L8.85762 5.97656C6.92403 6.01562 5.6252 6.08398 4.47285 6.16211C4.09199 6.18164 3.94551 6.04492 4.0334 5.68359ZM3.68184 12.2852C2.86153 12.2852 2.24629 11.6602 2.24629 10.8496C2.24629 10.0293 2.86153 9.41406 3.68184 9.41406C4.49238 9.41406 5.10762 10.0293 5.10762 10.8496C5.10762 11.6602 4.49238 12.2852 3.68184 12.2852ZM1.31856 18.1348L2.46113 18.1348C3.19356 18.1348 3.7502 17.5684 3.7502 16.8457L3.7502 14.1211L0.00996312 12.3535L0.00996312 16.8555C0.00996312 17.5781 0.586135 18.1348 1.31856 18.1348Z" fill="#000000" fill-opacity="0.85"/>
  <path d="M19.5705 15.4492C22.8518 15.4492 27.2072 15.2832 29.0627 15.0684C30.3811 14.9219 31.1232 14.1895 31.1232 12.9395L31.1232 11.2207C31.1232 9.57031 30.7912 8.65234 29.883 7.48047L29.0627 6.41602C28.7014 4.6582 28.0568 2.8125 27.715 2.08984C27.1975 0.986328 26.1818 0.332031 24.883 0.15625C24.2287 0.0683594 22.09 0.0195312 19.5705 0.0195312C17.0412 0.0195312 14.9025 0.078125 14.2482 0.15625C12.9494 0.3125 11.9338 0.986328 11.4162 2.08984C11.0842 2.8125 10.4299 4.6582 10.0686 6.41602L9.24824 7.48047C8.34004 8.65234 8.00801 9.57031 8.00801 11.2207L8.00801 12.9395C8.00801 14.1895 8.7502 14.9219 10.0686 15.0684C11.924 15.2832 16.2795 15.4492 19.5705 15.4492ZM12.0412 5.5957C12.2756 4.53125 12.7443 3.13477 13.0666 2.56836C13.3303 2.10938 13.6232 1.9043 14.1506 1.83594C14.883 1.73828 16.5432 1.66992 19.5705 1.66992C22.5881 1.66992 24.2482 1.71875 24.9904 1.83594C25.5178 1.91406 25.7912 2.10938 26.0647 2.56836C26.3967 3.125 26.8361 4.53125 27.09 5.5957C27.1779 5.95703 27.0314 6.09375 26.6506 6.07422C25.0295 5.9668 23.0959 5.86914 19.5705 5.86914C16.0354 5.86914 14.1018 5.9668 12.4807 6.07422C12.0998 6.09375 11.9631 5.95703 12.0412 5.5957ZM12.5197 12.8125C11.6311 12.8125 10.9572 12.1289 10.9572 11.2402C10.9572 10.3418 11.6311 9.66797 12.5197 9.66797C13.4182 9.66797 14.092 10.3418 14.092 11.2402C14.092 12.1289 13.4182 12.8125 12.5197 12.8125ZM16.9826 12.4219C16.3186 12.4219 15.8498 11.9629 15.8498 11.2891C15.8498 10.625 16.3186 10.166 16.9826 10.166L22.1486 10.166C22.8127 10.166 23.2814 10.625 23.2814 11.2891C23.2814 11.9629 22.8127 12.4219 22.1486 12.4219ZM26.6115 12.8125C25.7131 12.8125 25.0393 12.1289 25.0393 11.2402C25.0393 10.3418 25.7131 9.66797 26.6115 9.66797C27.5002 9.66797 28.174 10.3418 28.174 11.2402C28.174 12.1289 27.5002 12.8125 26.6115 12.8125ZM9.30684 18.1348L10.4592 18.1348C11.1916 18.1348 11.7482 17.5684 11.7482 16.8457L11.7482 14.4141L8.00801 12.6367L8.00801 16.8457C8.00801 17.5684 8.57442 18.1348 9.30684 18.1348ZM28.6721 18.1348L29.8244 18.1348C30.5568 18.1348 31.1232 17.5684 31.1232 16.8457L31.1232 12.6367L27.383 14.4141L27.383 16.8457C27.383 17.5684 27.9494 18.1348 28.6721 18.1348Z" fill="#000000" fill-opacity="0.85"/>
 </g>
</svg>
