<?xml version="1.0" encoding="UTF-8"?>
<!--Generator: Apple Native CoreSVG 175.5-->
<!DOCTYPE svg
PUBLIC "-//W3C//DTD SVG 1.1//EN"
       "http://www.w3.org/Graphics/SVG/1.1/DTD/svg11.dtd">
<svg version="1.1" xmlns="http://www.w3.org/2000/svg" xmlns:xlink="http://www.w3.org/1999/xlink" width="20.9961" height="18.1738">
 <g>
  <rect height="18.1738" opacity="0" width="20.9961" x="0" y="0"/>
  <path d="M1.44531 3.03711L0.253906 4.21875L4.61914 8.64258C5.06836 9.0918 5.47852 9.28711 5.9375 9.28711C6.39648 9.28711 6.82617 9.08203 7.25586 8.64258L10.8496 4.96094C10.9375 4.87305 11.0352 4.82422 11.1133 4.82422C11.2012 4.82422 11.2988 4.87305 11.3867 4.96094L15.2344 8.85742L13.623 10.4688C13.2715 10.8203 13.4863 11.2695 13.9844 11.3965L19.6973 12.8418C20.1367 12.959 20.5273 12.5879 20.4102 12.1387L18.9648 6.41602C18.8379 5.91797 18.3789 5.70312 18.0273 6.05469L16.4258 7.66602L12.4414 3.66211C12.002 3.22266 11.582 3.01758 11.1133 3.01758C10.6543 3.01758 10.2148 3.22266 9.79492 3.66211L6.20117 7.34375C6.11328 7.43164 6.02539 7.48047 5.9375 7.48047C5.84961 7.48047 5.76172 7.43164 5.67383 7.34375Z" fill="#000000" fill-opacity="0.85"/>
  <path d="M0 17.4023C0 17.8711 0.3125 18.1738 0.78125 18.1738L20.2051 18.1738C20.6348 18.1738 20.9961 17.832 20.9961 17.3926C20.9961 16.9629 20.6348 16.6113 20.2051 16.6113L1.8457 16.6113C1.64062 16.6113 1.57227 16.543 1.57227 16.3379L1.57227 0.898438C1.57227 0.478516 1.2207 0.117188 0.791016 0.117188C0.351562 0.117188 0 0.478516 0 0.898438Z" fill="#000000" fill-opacity="0.85"/>
 </g>
</svg>
