<?xml version="1.0" encoding="UTF-8"?>
<!--Generator: Apple Native CoreSVG 175.5-->
<!DOCTYPE svg
PUBLIC "-//W3C//DTD SVG 1.1//EN"
       "http://www.w3.org/Graphics/SVG/1.1/DTD/svg11.dtd">
<svg version="1.1" xmlns="http://www.w3.org/2000/svg" xmlns:xlink="http://www.w3.org/1999/xlink" width="23.0273" height="17.9785">
 <g>
  <rect height="17.9785" opacity="0" width="23.0273" x="0" y="0"/>
  <path d="M11.4746 14.4336C14.4727 14.4336 16.9043 12.002 16.9043 8.99414C16.9043 5.99609 14.4727 3.56445 11.4746 3.56445C8.4668 3.56445 6.03516 5.99609 6.03516 8.99414C6.03516 12.002 8.4668 14.4336 11.4746 14.4336ZM11.4746 13.1738C9.15039 13.1738 7.29492 11.3184 7.29492 8.99414C7.29492 6.66992 9.15039 4.82422 11.4746 4.82422C13.7988 4.82422 15.6445 6.66992 15.6445 8.99414C15.6445 11.3184 13.7988 13.1738 11.4746 13.1738ZM0.947266 9.45312L9.72656 0.673828L7.63672 0.673828L0.947266 7.37305ZM11.3672 4.35547L13.4473 4.35547L17.0898 0.712891L15.0977 0.634766ZM1.00586 16.7871L6.64062 11.1621L6.64062 9.0918L0.947266 14.7852ZM16.1133 9.16016L21.9336 3.33984L21.8555 1.35742L16.1133 7.10938ZM8.24219 17.041L11.6309 13.6426L9.56055 13.6426L6.24023 16.9629ZM13.6035 17.002L15.6934 17.002L21.9141 10.7715L21.9141 8.68164ZM3.06641 17.9785L19.9609 17.9785C22.0117 17.9785 23.0273 16.9727 23.0273 14.9609L23.0273 3.02734C23.0273 1.01562 22.0117 0 19.9609 0L3.06641 0C1.02539 0 0 1.01562 0 3.02734L0 14.9609C0 16.9727 1.02539 17.9785 3.06641 17.9785ZM3.08594 16.4062C2.10938 16.4062 1.57227 15.8887 1.57227 14.873L1.57227 3.11523C1.57227 2.09961 2.10938 1.57227 3.08594 1.57227L19.9414 1.57227C20.9082 1.57227 21.4551 2.09961 21.4551 3.11523L21.4551 14.873C21.4551 15.8887 20.9082 16.4062 19.9414 16.4062Z" fill="#000000" fill-opacity="0.85"/>
 </g>
</svg>
