<?xml version="1.0" encoding="UTF-8"?>
<!--Generator: Apple Native CoreSVG 175.5-->
<!DOCTYPE svg
PUBLIC "-//W3C//DTD SVG 1.1//EN"
       "http://www.w3.org/Graphics/SVG/1.1/DTD/svg11.dtd">
<svg version="1.1" xmlns="http://www.w3.org/2000/svg" xmlns:xlink="http://www.w3.org/1999/xlink" width="19.9219" height="19.9316">
 <g>
  <rect height="19.9316" opacity="0" width="19.9219" x="0" y="0"/>
  <path d="M1.73828 4.4043C0.634766 5.98633 0 7.91016 0 9.96094C0 15.4004 4.52148 19.9219 9.96094 19.9219C12.0117 19.9219 13.9062 19.2773 15.5078 18.1934ZM18.1836 15.5273C19.2773 13.9355 19.9219 12.0117 19.9219 9.96094C19.9219 4.51172 15.4004 0 9.95117 0C7.90039 0 5.99609 0.644531 4.4043 1.72852Z" fill="#000000" fill-opacity="0.85"/>
  <path d="M18.3789 19.4629C18.6719 19.7559 19.1602 19.7461 19.4434 19.4531C19.7363 19.1504 19.7363 18.6816 19.4434 18.3887L1.5332 0.46875C1.24023 0.175781 0.761719 0.175781 0.458984 0.46875C0.175781 0.751953 0.175781 1.25 0.458984 1.5332Z" fill="#000000" fill-opacity="0.85"/>
 </g>
</svg>
