<?xml version="1.0" encoding="UTF-8"?>
<!--Generator: Apple Native CoreSVG 175.5-->
<!DOCTYPE svg
PUBLIC "-//W3C//DTD SVG 1.1//EN"
       "http://www.w3.org/Graphics/SVG/1.1/DTD/svg11.dtd">
<svg version="1.1" xmlns="http://www.w3.org/2000/svg" xmlns:xlink="http://www.w3.org/1999/xlink" width="19.9219" height="19.9316">
 <g>
  <rect height="19.9316" opacity="0" width="19.9219" x="0" y="0"/>
  <path d="M14.3262 17.0117C13.0664 17.8027 11.5625 18.2617 9.95117 18.2617C5.3418 18.2617 1.66016 14.5703 1.66016 9.96094C1.66016 8.34961 2.11914 6.8457 2.91016 5.58594L1.73828 4.4043C0.634766 5.98633 0 7.91016 0 9.96094C0 15.4004 4.52148 19.9219 9.96094 19.9219C12.0117 19.9219 13.916 19.2773 15.5078 18.1934ZM18.1836 15.5176C19.2773 13.9258 19.9219 12.0117 19.9219 9.96094C19.9219 4.51172 15.4004 0 9.95117 0C7.90039 0 5.98633 0.644531 4.4043 1.73828L5.58594 2.91016C6.83594 2.11914 8.33008 1.66016 9.94141 1.66016C14.5508 1.66016 18.2422 5.35156 18.252 9.96094C18.252 11.5723 17.793 13.0664 17.002 14.3359Z" fill="#000000" fill-opacity="0.85"/>
  <path d="M18.3789 19.4629C18.6719 19.7559 19.1602 19.7461 19.4434 19.4531C19.7363 19.1602 19.7363 18.6816 19.4434 18.3887L1.5332 0.478516C1.24023 0.185547 0.761719 0.175781 0.458984 0.478516C0.175781 0.761719 0.175781 1.25 0.458984 1.54297Z" fill="#000000" fill-opacity="0.85"/>
 </g>
</svg>
