<?xml version="1.0" encoding="UTF-8"?>
<!--Generator: Apple Native CoreSVG 175.5-->
<!DOCTYPE svg
PUBLIC "-//W3C//DTD SVG 1.1//EN"
       "http://www.w3.org/Graphics/SVG/1.1/DTD/svg11.dtd">
<svg version="1.1" xmlns="http://www.w3.org/2000/svg" xmlns:xlink="http://www.w3.org/1999/xlink" width="28.3789" height="20.6543">
 <g>
  <rect height="20.6543" opacity="0" width="28.3789" x="0" y="0"/>
  <path d="M18.2715 6.71875C20.1758 6.71875 21.6699 8.21289 21.6699 10.127C21.6699 11.6699 20.6836 12.9785 19.2773 13.4277L19.2871 14.9023C21.4844 14.4043 23.0957 12.4512 23.0957 10.127C23.0957 7.44141 20.957 5.2832 18.2715 5.2832C15.5859 5.2832 13.4375 7.44141 13.4375 10.127C13.4375 10.2539 13.4473 10.3711 13.457 10.4785L14.9316 10.625C14.8926 10.459 14.873 10.3027 14.873 10.127C14.873 8.21289 16.3672 6.71875 18.2715 6.71875ZM12.6074 5.61523C12.9297 5.9375 13.457 5.92773 13.7598 5.61523C14.0625 5.30273 14.0723 4.79492 13.7598 4.48242L12.2559 2.97852C11.9434 2.66602 11.4355 2.66602 11.123 2.97852C10.8105 3.29102 10.8008 3.80859 11.123 4.12109ZM18.2715 3.74023C18.7207 3.74023 19.082 3.35938 19.082 2.92969L19.082 0.810547C19.082 0.371094 18.7207 0 18.2715 0C17.8223 0 17.4609 0.371094 17.4609 0.810547L17.4609 2.92969C17.4609 3.35938 17.8223 3.74023 18.2715 3.74023ZM22.7832 5.61523C23.0859 5.92773 23.6133 5.9375 23.9355 5.61523L25.4297 4.12109C25.7422 3.80859 25.7422 3.29102 25.4297 2.97852C25.1172 2.66602 24.6094 2.66602 24.2969 2.97852L22.7832 4.48242C22.4707 4.79492 22.4805 5.30273 22.7832 5.61523ZM25.459 10.9375L27.5781 10.9375C28.0176 10.9375 28.3789 10.5762 28.3789 10.127C28.3789 9.6875 28.0176 9.31641 27.5781 9.31641L25.459 9.31641C25.0293 9.31641 24.6484 9.6875 24.6484 10.127C24.6484 10.5762 25.0293 10.9375 25.459 10.9375ZM24.2969 17.2949C24.6094 17.6074 25.1172 17.5977 25.4297 17.2852C25.7422 16.9727 25.7422 16.4551 25.4297 16.1523L23.916 14.6582C23.6035 14.3555 23.0957 14.3457 22.7832 14.6582C22.4707 14.9707 22.4707 15.4883 22.7832 15.8008Z" fill="#000000" fill-opacity="0.85"/>
  <path d="M4.14062 19.7363L14.707 19.7363C17.5293 19.7363 19.7266 17.5977 19.7266 14.8438C19.7266 12.1094 17.5098 10.0488 14.5801 10.0098C13.4375 7.87109 11.3965 6.5625 8.98438 6.5625C5.75195 6.5625 3.04688 9.05273 2.72461 12.2656C1.10352 12.7734 0 14.1797 0 15.957C0 18.1543 1.66016 19.7363 4.14062 19.7363ZM4.10156 18.1738C2.44141 18.1738 1.5625 17.2168 1.5625 15.9961C1.5625 14.9609 2.16797 14.0527 3.60352 13.6621C4.07227 13.5449 4.24805 13.3301 4.28711 12.832C4.51172 10.0977 6.54297 8.125 8.98438 8.125C10.8789 8.125 12.3535 9.16992 13.2617 10.9863C13.4766 11.4062 13.7109 11.5527 14.209 11.5527C16.7383 11.5527 18.1543 13.0762 18.1543 14.8926C18.1543 16.709 16.6699 18.1738 14.7363 18.1738Z" fill="#000000" fill-opacity="0.85"/>
 </g>
</svg>
