<?xml version="1.0" encoding="UTF-8"?>
<!--Generator: Apple Native CoreSVG 175.5-->
<!DOCTYPE svg
PUBLIC "-//W3C//DTD SVG 1.1//EN"
       "http://www.w3.org/Graphics/SVG/1.1/DTD/svg11.dtd">
<svg version="1.1" xmlns="http://www.w3.org/2000/svg" xmlns:xlink="http://www.w3.org/1999/xlink" width="22.2949" height="24.5155">
 <g>
  <rect height="24.5155" opacity="0" width="22.2949" x="0" y="0"/>
  <path d="M2.54883 20.6611C2.8418 20.8271 3.19336 20.7294 3.35938 20.4364L4.62891 18.2392C4.80469 17.9364 4.70703 17.5946 4.41406 17.4189C4.12109 17.2528 3.78906 17.3505 3.61328 17.6435L2.33398 19.87C2.16797 20.1532 2.24609 20.495 2.54883 20.6611ZM4.44336 23.3954C4.73633 23.5517 5.08789 23.454 5.25391 23.1708L6.52344 20.9638C6.69922 20.6708 6.60156 20.329 6.30859 20.1532C6.01562 19.9775 5.68359 20.0751 5.50781 20.3778L4.21875 22.5946C4.0625 22.8778 4.14062 23.2196 4.44336 23.3954ZM16.123 20.6611C16.416 20.8271 16.7676 20.7294 16.9336 20.4364L18.2031 18.2392C18.3789 17.9364 18.2812 17.5946 17.998 17.4189C17.6953 17.2528 17.3633 17.3505 17.1875 17.6435L15.9082 19.87C15.7422 20.1532 15.8203 20.495 16.123 20.6611ZM18.0176 23.3954C18.3105 23.5517 18.6621 23.454 18.8281 23.1708L20.0977 20.9638C20.2734 20.6708 20.1758 20.329 19.8926 20.1532C19.5898 19.9775 19.2578 20.0751 19.082 20.3778L17.8027 22.5946C17.6367 22.8778 17.7148 23.2196 18.0176 23.3954Z" fill="#000000" fill-opacity="0.85"/>
  <path d="M4.58984 15.8661L16.709 15.8661C19.9121 15.8661 22.2949 13.4345 22.2949 10.4267C22.2949 7.31144 19.7559 5.03605 16.4453 5.03605C15.2246 2.62394 12.959 1.07121 10.1367 1.07121C6.46484 1.07121 3.4375 3.95207 3.11523 7.57511C1.34766 8.09269 0 9.6259 0 11.6864C0 14.0009 1.67969 15.8661 4.58984 15.8661ZM13.4961 19.4892L11.2793 19.4892L11.2598 19.9286L12.4512 17.6435C12.5684 17.4286 12.4805 17.2626 12.2656 17.2626L10.1465 17.2626C9.86328 17.2626 9.76562 17.3603 9.67773 17.5653L8.34961 20.5927C8.24219 20.8368 8.34961 20.9833 8.60352 20.9833L10.4102 20.9833L10.5371 20.4071L8.96484 24.2255C8.91602 24.3525 8.94531 24.4599 9.0332 24.4989C9.12109 24.538 9.22852 24.5087 9.33594 24.4013L13.6523 19.9775C13.8574 19.7626 13.7793 19.4892 13.4961 19.4892Z" fill="#000000" fill-opacity="0.85"/>
 </g>
</svg>
