<?xml version="1.0" encoding="UTF-8"?>
<!--Generator: Apple Native CoreSVG 175.5-->
<!DOCTYPE svg
PUBLIC "-//W3C//DTD SVG 1.1//EN"
       "http://www.w3.org/Graphics/SVG/1.1/DTD/svg11.dtd">
<svg version="1.1" xmlns="http://www.w3.org/2000/svg" xmlns:xlink="http://www.w3.org/1999/xlink" width="22.2949" height="22.4563">
 <g>
  <rect height="22.4563" opacity="0" width="22.2949" x="0" y="0"/>
  <path d="M4.84375 19.4068L6.11328 17.1998C6.29883 16.9068 6.20117 16.565 5.9082 16.3893C5.61523 16.2232 5.2832 16.3111 5.09766 16.6139L3.81836 18.8404C3.65234 19.1139 3.74023 19.4557 4.04297 19.6315C4.32617 19.7975 4.67773 19.69 4.84375 19.4068ZM7.90039 22.151L9.16992 19.9537C9.3457 19.651 9.25781 19.3092 8.96484 19.1432C8.66211 18.9674 8.33008 19.065 8.1543 19.3678L6.875 21.5846C6.70898 21.8678 6.79688 22.2096 7.08984 22.3756C7.38281 22.5416 7.73438 22.444 7.90039 22.151ZM12.6172 19.3971L13.8867 17.19C14.0625 16.8971 13.9648 16.5553 13.6719 16.3795C13.3789 16.2135 13.0469 16.3014 12.8711 16.6041L11.5918 18.8307C11.4258 19.1041 11.5039 19.4459 11.8066 19.6217C12.0996 19.7877 12.4512 19.6803 12.6172 19.3971ZM15.6738 22.1412L16.9434 19.944C17.1191 19.6412 17.0215 19.2994 16.7285 19.1334C16.4355 18.9576 16.1035 19.0553 15.9277 19.358L14.6387 21.5748C14.4824 21.858 14.5605 22.1998 14.8633 22.3658C15.1562 22.5318 15.5078 22.4342 15.6738 22.1412Z" fill="#000000" fill-opacity="0.85"/>
  <path d="M4.58984 14.8365L16.709 14.8365C19.9121 14.8365 22.2949 12.4049 22.2949 9.39708C22.2949 6.28184 19.7559 4.00645 16.4453 4.00645C15.2246 1.59434 12.959 0.041609 10.1367 0.041609C6.46484 0.041609 3.4375 2.92247 3.11523 6.54552C1.34766 7.06309 0 8.5963 0 10.6568C0 12.9713 1.67969 14.8365 4.58984 14.8365Z" fill="#000000" fill-opacity="0.85"/>
 </g>
</svg>
