<?xml version="1.0" encoding="UTF-8"?>
<!--Generator: Apple Native CoreSVG 175.5-->
<!DOCTYPE svg
PUBLIC "-//W3C//DTD SVG 1.1//EN"
       "http://www.w3.org/Graphics/SVG/1.1/DTD/svg11.dtd">
<svg version="1.1" xmlns="http://www.w3.org/2000/svg" xmlns:xlink="http://www.w3.org/1999/xlink" width="28.252" height="28.4412">
 <g>
  <rect height="28.4412" opacity="0" width="28.252" x="0" y="0"/>
  <path d="M4.05273 20.1142L14.6191 20.1142C17.3828 20.1142 19.5312 18.0146 19.5312 15.3095C19.5312 12.6239 17.3438 10.5927 14.4238 10.5732C13.2812 8.38566 11.25 7.1259 8.88672 7.1259C5.71289 7.1259 3.01758 9.58683 2.72461 12.7997C1.06445 13.2978 0 14.704 0 16.4228C0 18.6103 1.65039 20.1142 4.05273 20.1142Z" fill="#000000" fill-opacity="0.85"/>
  <path d="M20.6543 14.8017C22.0898 13.8251 22.9688 12.3407 22.9688 10.6122C22.9688 7.92668 20.8301 5.76847 18.1445 5.76847C16.377 5.76847 14.8438 6.7255 14.0332 8.13175C14.4434 8.56144 14.7949 9.01066 15.0879 9.57707C18.3105 9.84074 20.3906 11.8427 20.6543 14.8017ZM12.4805 6.1005C12.8027 6.42277 13.3301 6.413 13.6328 6.1005C13.9355 5.788 13.9453 5.28019 13.6328 4.96769L12.1289 3.46379C11.8164 3.14152 11.3086 3.15129 10.9961 3.46379C10.6836 3.77629 10.6738 4.29386 10.9961 4.60636ZM18.1445 4.21574C18.5938 4.21574 18.9551 3.84465 18.9551 3.40519L18.9551 1.29582C18.9551 0.856364 18.5938 0.48527 18.1445 0.48527C17.6953 0.48527 17.334 0.856364 17.334 1.29582L17.334 3.40519C17.334 3.84465 17.6953 4.21574 18.1445 4.21574ZM22.6562 6.1005C22.959 6.413 23.4863 6.42277 23.8086 6.1005L25.3027 4.60636C25.6152 4.29386 25.6152 3.77629 25.3027 3.46379C24.9902 3.15129 24.4824 3.14152 24.1699 3.46379L22.6562 4.96769C22.3438 5.28019 22.3535 5.788 22.6562 6.1005ZM25.332 11.4228L27.4512 11.4228C27.8906 11.4228 28.252 11.0614 28.252 10.6122C28.252 10.163 27.8906 9.80168 27.4512 9.80168L25.332 9.80168C24.9023 9.80168 24.5215 10.163 24.5215 10.6122C24.5215 11.0614 24.9023 11.4228 25.332 11.4228ZM24.1699 17.7802C24.4824 18.0927 24.9902 18.0829 25.3027 17.7704C25.6152 17.4579 25.6152 16.9403 25.3027 16.6376L23.7891 15.1435C23.4766 14.8407 22.9688 14.831 22.6562 15.1435C22.3438 15.4462 22.3438 15.9736 22.6562 16.2861Z" fill="#000000" fill-opacity="0.85"/>
  <path d="M12.1973 23.6786L10.0586 23.6786L10.0391 24.0986L11.1523 21.9892C11.2695 21.7743 11.1816 21.6181 10.9668 21.6181L8.92578 21.6181C8.65234 21.6181 8.56445 21.7157 8.47656 21.9111L7.22656 24.7528C7.12891 24.9872 7.23633 25.1337 7.48047 25.1337L9.22852 25.1337L9.35547 24.5575L7.86133 28.1513C7.80273 28.288 7.83203 28.3857 7.92969 28.4247C8.01758 28.4638 8.125 28.4345 8.21289 28.3271L12.3438 24.1474C12.5488 23.9423 12.4805 23.6786 12.1973 23.6786Z" fill="#000000" fill-opacity="0.85"/>
 </g>
</svg>
