<?xml version="1.0" encoding="UTF-8"?>
<!--Generator: Apple Native CoreSVG 175.5-->
<!DOCTYPE svg
PUBLIC "-//W3C//DTD SVG 1.1//EN"
       "http://www.w3.org/Graphics/SVG/1.1/DTD/svg11.dtd">
<svg version="1.1" xmlns="http://www.w3.org/2000/svg" xmlns:xlink="http://www.w3.org/1999/xlink" width="28.252" height="27.4707">
 <g>
  <rect height="27.4707" opacity="0" width="28.252" x="0" y="0"/>
  <path d="M4.04297 19.6289L14.6094 19.6289C17.3828 19.6289 19.5312 17.5293 19.5312 14.8242C19.5312 12.1387 17.3438 10.1074 14.4238 10.0879C13.2812 7.90039 11.25 6.64062 8.88672 6.64062C5.71289 6.64062 3.01758 9.10156 2.72461 12.3145C1.05469 12.8125 0 14.2188 0 15.9375C0 18.125 1.64062 19.6289 4.04297 19.6289Z" fill="#000000" fill-opacity="0.85"/>
  <path d="M20.6543 14.3164C22.0898 13.3398 22.9688 11.8555 22.9688 10.127C22.9688 7.44141 20.8301 5.2832 18.1445 5.2832C16.377 5.2832 14.8438 6.24023 14.0332 7.64648C14.4434 8.07617 14.7949 8.52539 15.0879 9.0918C18.3105 9.35547 20.3906 11.3574 20.6543 14.3164ZM12.4805 5.61523C12.8027 5.9375 13.3301 5.92773 13.6328 5.61523C13.9355 5.30273 13.9453 4.79492 13.6328 4.48242L12.1289 2.97852C11.8164 2.65625 11.3086 2.66602 10.9961 2.97852C10.6836 3.29102 10.6738 3.80859 10.9961 4.12109ZM18.1445 3.73047C18.5938 3.73047 18.9551 3.35938 18.9551 2.91992L18.9551 0.810547C18.9551 0.371094 18.5938 0 18.1445 0C17.6953 0 17.334 0.371094 17.334 0.810547L17.334 2.91992C17.334 3.35938 17.6953 3.73047 18.1445 3.73047ZM22.6562 5.61523C22.959 5.92773 23.4863 5.9375 23.8086 5.61523L25.3027 4.12109C25.6152 3.80859 25.6152 3.29102 25.3027 2.97852C24.9902 2.66602 24.4824 2.65625 24.1699 2.97852L22.6562 4.48242C22.3438 4.79492 22.3535 5.30273 22.6562 5.61523ZM25.332 10.9375L27.4512 10.9375C27.8906 10.9375 28.252 10.5762 28.252 10.127C28.252 9.67773 27.8906 9.31641 27.4512 9.31641L25.332 9.31641C24.9023 9.31641 24.5215 9.67773 24.5215 10.127C24.5215 10.5762 24.9023 10.9375 25.332 10.9375ZM24.1699 17.2949C24.4824 17.6074 24.9902 17.5977 25.3027 17.2852C25.6152 16.9727 25.6152 16.4551 25.3027 16.1523L23.7891 14.6582C23.4766 14.3555 22.9688 14.3457 22.6562 14.6582C22.3438 14.9609 22.3438 15.4883 22.6562 15.8008Z" fill="#000000" fill-opacity="0.85"/>
  <path d="M3.94531 24.3262L5.21484 22.1289C5.39062 21.8262 5.30273 21.4844 5.00977 21.3086C4.70703 21.1426 4.375 21.2402 4.19922 21.5332L2.91992 23.7598C2.75391 24.0332 2.8418 24.3848 3.13477 24.5508C3.42773 24.7168 3.7793 24.6191 3.94531 24.3262ZM7.00195 27.0801L8.27148 24.873C8.44727 24.5801 8.34961 24.2285 8.06641 24.0625C7.76367 23.8867 7.43164 23.9844 7.25586 24.2871L5.97656 26.5039C5.81055 26.7871 5.89844 27.1289 6.19141 27.3047C6.48438 27.4609 6.83594 27.3633 7.00195 27.0801ZM11.7188 24.3164L12.9883 22.1191C13.1641 21.8164 13.0664 21.4746 12.7734 21.2988C12.4805 21.1328 12.1484 21.2305 11.9727 21.5234L10.6934 23.75C10.5273 24.0234 10.6055 24.375 10.9082 24.541C11.2012 24.707 11.5527 24.6094 11.7188 24.3164ZM14.7656 27.0703L16.0449 24.8633C16.2207 24.5703 16.123 24.2188 15.8301 24.0527C15.5371 23.877 15.2051 23.9746 15.0195 24.2773L13.7402 26.4941C13.5742 26.7773 13.6621 27.1191 13.9648 27.2949C14.248 27.4512 14.6094 27.3535 14.7656 27.0703Z" fill="#000000" fill-opacity="0.85"/>
 </g>
</svg>
