<?xml version="1.0" encoding="UTF-8"?>
<!--Generator: Apple Native CoreSVG 175.5-->
<!DOCTYPE svg
PUBLIC "-//W3C//DTD SVG 1.1//EN"
       "http://www.w3.org/Graphics/SVG/1.1/DTD/svg11.dtd">
<svg version="1.1" xmlns="http://www.w3.org/2000/svg" xmlns:xlink="http://www.w3.org/1999/xlink" width="22.2949" height="23.0566">
 <g>
  <rect height="23.0566" opacity="0" width="22.2949" x="0" y="0"/>
  <path d="M5.84961 18.6523L6.50391 17.5C6.67969 17.207 6.5918 16.8555 6.29883 16.6797C6.00586 16.5137 5.66406 16.6211 5.48828 16.9043L4.82422 18.0859C4.66797 18.3594 4.73633 18.7012 5.03906 18.877C5.33203 19.043 5.68359 18.9453 5.84961 18.6523ZM10.1074 20.1465L11.6309 17.5098C11.7969 17.207 11.709 16.8652 11.4258 16.6992C11.123 16.5234 10.7812 16.6211 10.6152 16.9238L9.08203 19.5801C8.91602 19.8633 9.00391 20.2051 9.30664 20.3711C9.58984 20.5371 9.95117 20.4395 10.1074 20.1465ZM16.084 18.6914L16.7383 17.5391C16.9141 17.2461 16.8262 16.8945 16.5332 16.7188C16.2402 16.5527 15.8984 16.6602 15.7227 16.9434L15.0586 18.125C14.9023 18.3984 14.9707 18.7402 15.2734 18.916C15.5664 19.082 15.918 18.9746 16.084 18.6914ZM4.12109 21.5625C4.69727 21.5625 5.17578 21.0742 5.17578 20.4883C5.17578 19.9219 4.69727 19.4434 4.12109 19.4434C3.53516 19.4434 3.05664 19.9219 3.05664 20.4883C3.05664 21.0742 3.53516 21.5625 4.12109 21.5625ZM8.37891 23.0566C8.95508 23.0566 9.44336 22.5684 9.44336 21.9824C9.44336 21.416 8.96484 20.9375 8.37891 20.9375C7.80273 20.9375 7.32422 21.416 7.32422 21.9824C7.32422 22.5684 7.80273 23.0566 8.37891 23.0566ZM14.3555 21.6016C14.9316 21.6016 15.4102 21.1133 15.4102 20.5273C15.4102 19.9609 14.9316 19.4727 14.3555 19.4727C13.7695 19.4727 13.291 19.9609 13.291 20.5273C13.291 21.1133 13.7695 21.6016 14.3555 21.6016Z" fill="#000000" fill-opacity="0.85"/>
  <path d="M4.58984 15.1367L16.709 15.1367C19.9121 15.1367 22.2949 12.7051 22.2949 9.69727C22.2949 6.58203 19.7559 4.30664 16.4453 4.30664C15.2246 1.89453 12.959 0.341797 10.1367 0.341797C6.46484 0.341797 3.4375 3.22266 3.11523 6.8457C1.34766 7.36328 0 8.89648 0 10.957C0 13.2715 1.67969 15.1367 4.58984 15.1367Z" fill="#000000" fill-opacity="0.85"/>
 </g>
</svg>
