<?xml version="1.0" encoding="UTF-8"?>
<!--Generator: Apple Native CoreSVG 175.5-->
<!DOCTYPE svg
PUBLIC "-//W3C//DTD SVG 1.1//EN"
       "http://www.w3.org/Graphics/SVG/1.1/DTD/svg11.dtd">
<svg version="1.1" xmlns="http://www.w3.org/2000/svg" xmlns:xlink="http://www.w3.org/1999/xlink" width="22.2949" height="22.373">
 <g>
  <rect height="22.373" opacity="0" width="22.2949" x="0" y="0"/>
  <path d="M17.5977 17.0605L4.89258 17.0605C4.55078 17.0605 4.27734 17.3242 4.27734 17.6758C4.27734 18.0273 4.55078 18.291 4.89258 18.291L17.5977 18.291C17.9395 18.291 18.2129 18.0273 18.2129 17.6758C18.2129 17.3242 17.9395 17.0605 17.5977 17.0605ZM17.5977 20.3711L4.89258 20.3711C4.55078 20.3711 4.27734 20.6348 4.27734 20.9863C4.27734 21.3379 4.55078 21.6113 4.89258 21.6113L17.5977 21.6113C17.9395 21.6113 18.2129 21.3379 18.2129 20.9863C18.2129 20.6348 17.9395 20.3711 17.5977 20.3711Z" fill="#000000" fill-opacity="0.85"/>
  <path d="M4.58984 14.7949L16.709 14.7949C19.9121 14.7949 22.2949 12.3633 22.2949 9.35547C22.2949 6.24023 19.7559 3.96484 16.4453 3.96484C15.2246 1.55273 12.959 0 10.1367 0C6.46484 0 3.4375 2.88086 3.11523 6.50391C1.34766 7.02148 0 8.55469 0 10.6152C0 12.9297 1.67969 14.7949 4.58984 14.7949ZM4.57031 13.2324C2.56836 13.2324 1.5625 12.1094 1.5625 10.6641C1.5625 9.49219 2.24609 8.4375 3.90625 7.99805C4.44336 7.85156 4.63867 7.59766 4.6875 7.05078C4.91211 3.85742 7.30469 1.5625 10.1367 1.5625C12.334 1.5625 14.0625 2.77344 15.1172 4.93164C15.3418 5.41016 15.6348 5.57617 16.2109 5.57617C19.1016 5.57617 20.7324 7.31445 20.7324 9.39453C20.7324 11.5234 19.0332 13.2324 16.8066 13.2324Z" fill="#000000" fill-opacity="0.85"/>
 </g>
</svg>
