<?xml version="1.0" encoding="UTF-8"?>
<!--Generator: Apple Native CoreSVG 175.5-->
<!DOCTYPE svg
PUBLIC "-//W3C//DTD SVG 1.1//EN"
       "http://www.w3.org/Graphics/SVG/1.1/DTD/svg11.dtd">
<svg version="1.1" xmlns="http://www.w3.org/2000/svg" xmlns:xlink="http://www.w3.org/1999/xlink" width="22.2949" height="22.5156">
 <g>
  <rect height="22.5156" opacity="0" width="22.2949" x="0" y="0"/>
  <path d="M4.84375 19.4365L6.11328 17.2295C6.29883 16.9365 6.20117 16.5947 5.9082 16.4189C5.61523 16.2529 5.2832 16.3408 5.09766 16.6435L3.81836 18.8701C3.65234 19.1435 3.74023 19.4853 4.04297 19.6611C4.32617 19.8271 4.67773 19.7197 4.84375 19.4365ZM7.11914 22.2197L10 17.2197C10.166 16.9267 10.0879 16.5947 9.80469 16.4287C9.52148 16.2529 9.16016 16.3408 8.99414 16.6435L6.13281 21.624C5.9668 21.917 6.04492 22.2588 6.33789 22.4345C6.62109 22.6006 6.95312 22.5029 7.11914 22.2197ZM12.6172 19.4267L13.8867 17.2197C14.0625 16.9267 13.9648 16.5849 13.6719 16.4091C13.3789 16.2431 13.0469 16.331 12.8711 16.6338L11.5918 18.8603C11.4258 19.1338 11.5039 19.4756 11.8066 19.6513C12.0996 19.8174 12.4512 19.7099 12.6172 19.4267ZM14.8828 22.2099L17.7734 17.2099C17.9395 16.917 17.8516 16.5849 17.5684 16.4189C17.2949 16.2431 16.9434 16.331 16.7676 16.6338L13.8965 21.6142C13.7305 21.9072 13.8184 22.249 14.1016 22.4248C14.3848 22.5908 14.7168 22.5029 14.8828 22.2099Z" fill="#000000" fill-opacity="0.85"/>
  <path d="M4.58984 14.8662L16.709 14.8662C19.9121 14.8662 22.2949 12.4345 22.2949 9.42673C22.2949 6.31149 19.7559 4.0361 16.4453 4.0361C15.2246 1.62399 12.959 0.0712566 10.1367 0.0712566C6.46484 0.0712566 3.4375 2.95212 3.11523 6.57516C1.34766 7.09274 0 8.62594 0 10.6865C0 13.0009 1.67969 14.8662 4.58984 14.8662Z" fill="#000000" fill-opacity="0.85"/>
 </g>
</svg>
