<?xml version="1.0" encoding="UTF-8"?>
<!--Generator: Apple Native CoreSVG 175.5-->
<!DOCTYPE svg
PUBLIC "-//W3C//DTD SVG 1.1//EN"
       "http://www.w3.org/Graphics/SVG/1.1/DTD/svg11.dtd">
<svg version="1.1" xmlns="http://www.w3.org/2000/svg" xmlns:xlink="http://www.w3.org/1999/xlink" width="25.6661" height="24.6242">
 <g>
  <rect height="24.6242" opacity="0" width="25.6661" x="0" y="0"/>
  <path d="M3.97461 21.565L5.24414 19.3678C5.41992 19.065 5.33203 18.7232 5.03906 18.5572C4.73633 18.3815 4.4043 18.4791 4.22852 18.7818L2.94922 20.9986C2.7832 21.2818 2.87109 21.6236 3.16406 21.7994C3.45703 21.9557 3.80859 21.858 3.97461 21.565ZM7.03125 24.319L8.30078 22.1119C8.47656 21.819 8.37891 21.4772 8.0957 21.3014C7.79297 21.1354 7.46094 21.233 7.28516 21.526L6.00586 23.7525C5.83984 24.026 5.92773 24.3678 6.2207 24.5436C6.51367 24.7096 6.86523 24.6119 7.03125 24.319ZM11.748 21.5553L13.0176 19.358C13.1934 19.0553 13.0957 18.7135 12.8027 18.5475C12.5098 18.3717 12.1777 18.4693 12.002 18.7721L10.7227 20.9889C10.5566 21.2721 10.6348 21.6139 10.9375 21.7897C11.2305 21.9459 11.582 21.8482 11.748 21.5553ZM14.7949 24.3092L16.0742 22.1022C16.25 21.8092 16.1523 21.4674 15.8594 21.2916C15.5664 21.1256 15.2344 21.2232 15.0488 21.5162L13.7695 23.7428C13.6035 24.0162 13.6914 24.358 13.9941 24.5338C14.2773 24.6998 14.6387 24.6022 14.7949 24.3092Z" fill="#000000" fill-opacity="0.85"/>
  <path d="M18.8672 12.0045C22.5195 12.2193 24.7656 10.2857 25.5566 8.24473C25.8789 7.46348 25.459 6.75059 24.6973 6.75059C24.1113 6.75059 23.6328 7.0045 22.5977 7.0045C20.1074 7.0045 18.7891 5.61778 18.7891 3.36192C18.7891 2.24864 19.1309 1.65294 19.1309 1.10606C19.1309 0.295515 18.4375-0.0951098 17.5781 0.197859C15.5078 0.881453 13.75 3.08848 13.75 5.7838C13.75 6.65294 13.9062 7.49278 14.2188 8.26427L15.8398 8.23497C15.4004 7.51231 15.1855 6.65294 15.1855 5.7545C15.1855 3.86973 16.3086 2.39512 17.5879 1.692L17.6953 1.77012C17.5293 2.23887 17.3828 2.89317 17.3828 3.65489C17.3828 6.45762 19.4336 8.39122 22.2656 8.39122C22.959 8.39122 23.6035 8.26427 24.0527 8.11778L24.1211 8.18614C23.4668 9.42637 21.709 10.7936 18.8672 10.5787Z" fill="#000000" fill-opacity="0.85"/>
  <path d="M4.14062 16.985L14.707 16.985C17.5293 16.985 19.7266 14.8561 19.7266 12.1022C19.7266 9.35802 17.5098 7.30723 14.5801 7.25841C13.4375 5.11973 11.3965 3.81114 8.98438 3.81114C5.75195 3.81114 3.04688 6.31114 2.72461 9.51427C1.10352 10.0221 0 11.4283 0 13.2057C0 15.4127 1.66016 16.985 4.14062 16.985ZM4.10156 15.4225C2.44141 15.4225 1.5625 14.4654 1.5625 13.2447C1.5625 12.2193 2.16797 11.3014 3.60352 10.9205C4.07227 10.7936 4.24805 10.5787 4.28711 10.0904C4.51172 7.3463 6.54297 5.37364 8.98438 5.37364C10.8789 5.37364 12.3535 6.41856 13.2617 8.24473C13.4766 8.66466 13.7109 8.80137 14.209 8.80137C16.7383 8.80137 18.1543 10.3248 18.1543 12.1412C18.1543 13.9674 16.6699 15.4225 14.7363 15.4225Z" fill="#000000" fill-opacity="0.85"/>
 </g>
</svg>
