<?xml version="1.0" encoding="UTF-8"?>
<!--Generator: Apple Native CoreSVG 175.5-->
<!DOCTYPE svg
PUBLIC "-//W3C//DTD SVG 1.1//EN"
       "http://www.w3.org/Graphics/SVG/1.1/DTD/svg11.dtd">
<svg version="1.1" xmlns="http://www.w3.org/2000/svg" xmlns:xlink="http://www.w3.org/1999/xlink" width="28.3789" height="28.4412">
 <g>
  <rect height="28.4412" opacity="0" width="28.3789" x="0" y="0"/>
  <path d="M18.2715 5.77824C15.5859 5.77824 13.4375 7.93644 13.4375 10.622C13.4375 10.7392 13.4473 10.8564 13.457 10.9638L14.9316 11.1103C14.8926 10.9443 14.873 10.788 14.873 10.622C14.873 8.70793 16.3672 7.21379 18.2715 7.21379C20.1758 7.21379 21.6699 8.70793 21.6699 10.622C21.6699 12.165 20.6836 13.4638 19.2773 13.913L19.2871 15.3876C21.4844 14.8896 23.0957 12.9364 23.0957 10.622C23.0957 7.93644 20.957 5.77824 18.2715 5.77824ZM12.6074 6.11027C12.9297 6.43254 13.457 6.42277 13.7598 6.11027C14.0625 5.79777 14.0723 5.28996 13.7598 4.97746L12.2559 3.46379C11.9434 3.15129 11.4355 3.15129 11.123 3.46379C10.8105 3.77629 10.8008 4.29386 11.123 4.61613ZM18.2715 4.2255C18.7207 4.2255 19.082 3.85441 19.082 3.41496L19.082 1.30558C19.082 0.856364 18.7207 0.495036 18.2715 0.495036C17.8223 0.495036 17.4609 0.856364 17.4609 1.30558L17.4609 3.41496C17.4609 3.85441 17.8223 4.2255 18.2715 4.2255ZM22.7832 6.11027C23.0859 6.42277 23.6133 6.43254 23.9355 6.11027L25.4297 4.61613C25.7422 4.29386 25.7422 3.77629 25.4297 3.46379C25.1172 3.15129 24.6094 3.15129 24.2969 3.46379L22.7832 4.97746C22.4707 5.28996 22.4805 5.79777 22.7832 6.11027ZM25.459 11.4325L27.5781 11.4325C28.0176 11.4325 28.3789 11.0712 28.3789 10.622C28.3789 10.1728 28.0176 9.81144 27.5781 9.81144L25.459 9.81144C25.0293 9.81144 24.6484 10.1728 24.6484 10.622C24.6484 11.0712 25.0293 11.4325 25.459 11.4325ZM24.2969 17.79C24.6094 18.1025 25.1172 18.0927 25.4297 17.7802C25.7422 17.4677 25.7422 16.9501 25.4297 16.6474L23.916 15.1435C23.6035 14.8407 23.0957 14.831 22.7832 15.1435C22.4707 15.456 22.4707 15.9736 22.7832 16.2861Z" fill="#000000" fill-opacity="0.85"/>
  <path d="M4.14062 20.2314L14.707 20.2314C17.5293 20.2314 19.7266 18.0927 19.7266 15.3388C19.7266 12.6044 17.5098 10.5439 14.5801 10.5048C13.4375 8.36613 11.3965 7.04777 8.98438 7.04777C5.75195 7.04777 3.04688 9.54777 2.72461 12.7509C1.10352 13.2685 0 14.6747 0 16.4521C0 18.6493 1.66016 20.2314 4.14062 20.2314ZM4.10156 18.6689C2.44141 18.6689 1.5625 17.7118 1.5625 16.4911C1.5625 15.456 2.16797 14.538 3.60352 14.1571C4.07227 14.0302 4.24805 13.8153 4.28711 13.3271C4.51172 10.5927 6.54297 8.62004 8.98438 8.62004C10.8789 8.62004 12.3535 9.65519 13.2617 11.4814C13.4766 11.9013 13.7109 12.0478 14.209 12.0478C16.7383 12.0478 18.1543 13.5614 18.1543 15.3876C18.1543 17.204 16.6699 18.6689 14.7363 18.6689ZM12.2266 23.6786L10.0879 23.6786L10.0684 24.0986L11.1816 21.9794C11.2891 21.7743 11.2012 21.6181 10.9863 21.6181L8.94531 21.6181C8.68164 21.6181 8.59375 21.7157 8.50586 21.9111L7.25586 24.7528C7.1582 24.9775 7.25586 25.1239 7.50977 25.1239L9.25781 25.1239L9.375 24.5575L7.89062 28.1513C7.83203 28.2782 7.86133 28.3857 7.94922 28.4247C8.03711 28.4638 8.14453 28.4345 8.24219 28.3271L12.373 24.1474C12.5684 23.9423 12.5 23.6786 12.2266 23.6786Z" fill="#000000" fill-opacity="0.85"/>
 </g>
</svg>
