<?xml version="1.0" encoding="UTF-8"?>
<!--Generator: Apple Native CoreSVG 175.5-->
<!DOCTYPE svg
PUBLIC "-//W3C//DTD SVG 1.1//EN"
       "http://www.w3.org/Graphics/SVG/1.1/DTD/svg11.dtd">
<svg version="1.1" xmlns="http://www.w3.org/2000/svg" xmlns:xlink="http://www.w3.org/1999/xlink" width="19.6191" height="19.5215">
 <g>
  <rect height="19.5215" opacity="0" width="19.6191" x="0" y="0"/>
  <path d="M6.23047 14.1406L13.4961 14.1406C13.9941 14.1406 14.2383 13.9062 14.2383 13.3887L14.2383 6.14258C14.2383 5.63477 13.9941 5.40039 13.4961 5.40039L6.23047 5.40039C5.73242 5.40039 5.48828 5.63477 5.48828 6.14258L5.48828 13.3887C5.48828 13.9062 5.73242 14.1406 6.23047 14.1406ZM7.00195 12.8613C6.86523 12.8613 6.76758 12.7637 6.76758 12.627L6.76758 6.91406C6.76758 6.76758 6.86523 6.67969 7.00195 6.67969L12.7148 6.67969C12.8613 6.67969 12.959 6.76758 12.959 6.91406L12.959 12.627C12.959 12.7637 12.8613 12.8613 12.7148 12.8613ZM2.60742 17.8027L17.1191 17.8027C17.5879 17.8027 17.9004 17.5 17.9004 17.0312L17.9004 2.50977C17.9004 2.04102 17.5879 1.72852 17.1191 1.72852L2.60742 1.72852C2.12891 1.72852 1.82617 2.04102 1.82617 2.50977L1.82617 17.0312C1.82617 17.5 2.12891 17.8027 2.60742 17.8027ZM3.68164 16.2305C3.47656 16.2305 3.39844 16.1621 3.39844 15.9473L3.39844 3.59375C3.39844 3.37891 3.47656 3.30078 3.68164 3.30078L16.0449 3.30078C16.25 3.30078 16.3281 3.37891 16.3281 3.59375L16.3281 15.9473C16.3281 16.1621 16.25 16.2305 16.0449 16.2305ZM7.41211 16.4844L5.83984 16.4844L5.83984 18.7402C5.83984 19.209 6.15234 19.5215 6.62109 19.5215C7.08984 19.5215 7.41211 19.209 7.41211 18.7402ZM10.6445 16.4844L9.07227 16.4844L9.07227 18.7402C9.07227 19.209 9.39453 19.5215 9.86328 19.5215C10.332 19.5215 10.6445 19.209 10.6445 18.7402ZM13.916 16.4844L12.3438 16.4844L12.3438 18.7402C12.3438 19.209 12.6562 19.5215 13.125 19.5215C13.5938 19.5215 13.916 19.209 13.916 18.7402ZM16.5723 12.207L16.5723 13.7793L18.8281 13.7793C19.2969 13.7793 19.6191 13.457 19.6191 12.9883C19.6191 12.5195 19.2969 12.207 18.8281 12.207ZM16.5723 8.96484L16.5723 10.5371L18.8281 10.5371C19.2969 10.5371 19.6191 10.2246 19.6191 9.75586C19.6191 9.28711 19.2969 8.96484 18.8281 8.96484ZM16.5723 5.73242L16.5723 7.30469L18.8281 7.30469C19.2969 7.30469 19.6191 6.98242 19.6191 6.51367C19.6191 6.04492 19.2969 5.73242 18.8281 5.73242ZM12.3145 3.05664L13.8867 3.05664L13.8867 0.800781C13.8867 0.332031 13.5645 0.0195312 13.0957 0.0195312C12.627 0.0195312 12.3145 0.332031 12.3145 0.800781ZM9.07227 3.05664L10.6445 3.05664L10.6445 0.800781C10.6445 0.332031 10.332 0.0195312 9.86328 0.0195312C9.39453 0.0195312 9.07227 0.332031 9.07227 0.800781ZM5.83984 3.05664L7.41211 3.05664L7.41211 0.800781C7.41211 0.332031 7.08984 0.0195312 6.62109 0.0195312C6.15234 0.0195312 5.83984 0.332031 5.83984 0.800781ZM3.14453 7.31445L3.14453 5.74219L0.78125 5.74219C0.3125 5.74219 0 6.05469 0 6.52344C0 6.99219 0.3125 7.31445 0.78125 7.31445ZM3.14453 10.5469L3.14453 8.97461L0.78125 8.97461C0.3125 8.97461 0 9.29688 0 9.76562C0 10.2344 0.3125 10.5469 0.78125 10.5469ZM3.14453 13.7891L3.14453 12.2168L0.78125 12.2168C0.3125 12.2168 0 12.5293 0 12.998C0 13.4668 0.3125 13.7891 0.78125 13.7891Z" fill="#000000" fill-opacity="0.85"/>
 </g>
</svg>
