<?xml version="1.0" encoding="UTF-8"?>
<!--Generator: Apple Native CoreSVG 175.5-->
<!DOCTYPE svg
PUBLIC "-//W3C//DTD SVG 1.1//EN"
       "http://www.w3.org/Graphics/SVG/1.1/DTD/svg11.dtd">
<svg version="1.1" xmlns="http://www.w3.org/2000/svg" xmlns:xlink="http://www.w3.org/1999/xlink" width="16.5723" height="24.7559">
 <g>
  <rect height="24.7559" opacity="0" width="16.5723" x="0" y="0"/>
  <path d="M3.01758 22.1289L11.8262 22.1289C13.7988 22.1289 14.834 21.1035 14.834 19.1504L14.834 11.748C14.3555 11.9238 13.8281 12.0215 13.2617 12.041L13.2617 19.0723C13.2617 20.0195 12.7148 20.5566 11.7969 20.5566L3.03711 20.5566C2.12891 20.5566 1.57227 20.0195 1.57227 19.0723L1.57227 3.94531C1.57227 2.98828 2.12891 2.46094 3.03711 2.46094L9.49219 2.46094C9.77539 1.93359 10.0879 1.39648 10.4102 0.888672L3.01758 0.888672C1.04492 0.888672 0 1.91406 0 3.85742L0 19.1504C0 21.1035 1.04492 22.1289 3.01758 22.1289ZM2.83203 23.8477C3.30078 23.8477 3.61328 23.5254 3.61328 23.0566L3.61328 21.1426L2.04102 21.1426L2.04102 23.0566C2.04102 23.5254 2.36328 23.8477 2.83203 23.8477ZM12.002 23.8477C12.4805 23.8477 12.793 23.5254 12.793 23.0566L12.793 21.1426L11.2207 21.1426L11.2207 23.0566C11.2207 23.5254 11.5332 23.8477 12.002 23.8477ZM4.16016 6.55273C4.91211 6.55273 5.53711 5.92773 5.53711 5.16602C5.53711 4.41406 4.91211 3.79883 4.16016 3.79883C3.39844 3.79883 2.7832 4.41406 2.7832 5.16602C2.7832 5.92773 3.39844 6.55273 4.16016 6.55273ZM3.33984 14.2871L6.18164 14.2871C6.5332 14.2871 6.80664 14.0234 6.80664 13.6719C6.80664 13.3301 6.5332 13.0566 6.18164 13.0566L3.33984 13.0566C2.99805 13.0566 2.72461 13.3301 2.72461 13.6719C2.72461 14.0234 2.99805 14.2871 3.33984 14.2871ZM3.33984 16.7285L6.18164 16.7285C6.5332 16.7285 6.80664 16.4648 6.80664 16.1133C6.80664 15.7617 6.5332 15.498 6.18164 15.498L3.33984 15.498C2.99805 15.498 2.72461 15.7617 2.72461 16.1133C2.72461 16.4648 2.99805 16.7285 3.33984 16.7285ZM3.33984 19.1699L6.18164 19.1699C6.5332 19.1699 6.80664 18.8965 6.80664 18.5547C6.80664 18.2031 6.5332 17.9297 6.18164 17.9297L3.33984 17.9297C2.99805 17.9297 2.72461 18.2031 2.72461 18.5547C2.72461 18.8965 2.99805 19.1699 3.33984 19.1699ZM8.65234 14.2871L11.4941 14.2871C11.8359 14.2871 12.1094 14.0234 12.1094 13.6719C12.1094 13.3301 11.8359 13.0566 11.4941 13.0566L8.65234 13.0566C8.30078 13.0566 8.02734 13.3301 8.02734 13.6719C8.02734 14.0234 8.30078 14.2871 8.65234 14.2871ZM8.65234 16.7285L11.4941 16.7285C11.8359 16.7285 12.1094 16.4648 12.1094 16.1133C12.1094 15.7617 11.8359 15.498 11.4941 15.498L8.65234 15.498C8.30078 15.498 8.02734 15.7617 8.02734 16.1133C8.02734 16.4648 8.30078 16.7285 8.65234 16.7285ZM8.65234 19.1699L11.4941 19.1699C11.8359 19.1699 12.1094 18.8965 12.1094 18.5547C12.1094 18.2031 11.8359 17.9297 11.4941 17.9297L8.65234 17.9297C8.30078 17.9297 8.02734 18.2031 8.02734 18.5547C8.02734 18.8965 8.30078 19.1699 8.65234 19.1699Z" fill="#000000" fill-opacity="0.85"/>
  <path d="M12.8809 10.752C15.0879 10.752 16.5723 9.31641 16.5723 7.17773C16.5723 6.11328 16.123 5.17578 15.8008 4.45312C15.2148 3.19336 14.2578 1.62109 13.4375 0.351562C13.2715 0.107422 13.0957 0 12.8809 0C12.666 0 12.4902 0.107422 12.3242 0.351562C11.5039 1.62109 10.5469 3.19336 9.96094 4.45312C9.63867 5.17578 9.18945 6.11328 9.18945 7.17773C9.18945 9.31641 10.6738 10.752 12.8809 10.752Z" fill="#000000" fill-opacity="0.85"/>
 </g>
</svg>
