<?xml version="1.0" encoding="UTF-8"?>
<!--Generator: Apple Native CoreSVG 175.5-->
<!DOCTYPE svg
PUBLIC "-//W3C//DTD SVG 1.1//EN"
       "http://www.w3.org/Graphics/SVG/1.1/DTD/svg11.dtd">
<svg version="1.1" xmlns="http://www.w3.org/2000/svg" xmlns:xlink="http://www.w3.org/1999/xlink" width="21.1621" height="17.998">
 <g>
  <rect height="17.998" opacity="0" width="21.1621" x="0" y="0"/>
  <path d="M3.06641 17.998L11.543 17.9883C12.6855 17.9883 13.6719 17.6367 14.4727 16.7969L20.2344 10.8496C20.8789 10.1953 21.1621 9.59961 21.1621 8.99414C21.1621 8.37891 20.8789 7.79297 20.2344 7.13867L14.4824 1.16211C13.6816 0.3125 12.6953 0.0195312 11.5527 0.0195312L3.06641 0.0195312C1.03516 0.0195312 0 1.02539 0 3.04688L0 14.9707C0 16.9922 1.03516 17.998 3.06641 17.998Z" fill="#000000" fill-opacity="0.85"/>
  <path d="M5.52734 13.1055C5.07812 13.1055 4.72656 12.7441 4.72656 12.2852C4.72656 12.0703 4.80469 11.875 4.96094 11.7188L7.66602 9.01367L4.96094 6.29883C4.80469 6.14258 4.72656 5.94727 4.72656 5.73242C4.72656 5.2832 5.07812 4.93164 5.52734 4.93164C5.75195 4.93164 5.92773 5.01953 6.08398 5.16602L8.80859 7.88086L11.5527 5.15625C11.7188 4.99023 11.9043 4.91211 12.1094 4.91211C12.5586 4.91211 12.9199 5.27344 12.9199 5.71289C12.9199 5.9375 12.8516 6.11328 12.6855 6.28906L9.96094 9.01367L12.6758 11.709C12.832 11.8652 12.9102 12.0605 12.9102 12.2852C12.9102 12.7441 12.5488 13.1055 12.0898 13.1055C11.875 13.1055 11.6602 13.0176 11.5137 12.8711L8.80859 10.1465L6.11328 12.8711C5.95703 13.0176 5.75195 13.1055 5.52734 13.1055Z" fill="#ffffff"/>
 </g>
</svg>
