<?xml version="1.0" encoding="UTF-8"?>
<!--Generator: Apple Native CoreSVG 175.5-->
<!DOCTYPE svg
PUBLIC "-//W3C//DTD SVG 1.1//EN"
       "http://www.w3.org/Graphics/SVG/1.1/DTD/svg11.dtd">
<svg version="1.1" xmlns="http://www.w3.org/2000/svg" xmlns:xlink="http://www.w3.org/1999/xlink" width="19.7461" height="24.248">
 <g>
  <rect height="24.248" opacity="0" width="19.7461" x="0" y="0"/>
  <path d="M9.87305 22.7441C16.0156 22.7441 19.7461 21.0254 19.7461 16.9434L19.7461 15.8301C19.0234 16.6602 17.9688 17.334 16.6309 17.832L16.6309 19.1602C16.6309 19.5117 16.3379 19.7949 15.9863 19.7949C15.6348 19.7949 15.3516 19.5117 15.3516 19.1602L15.3516 18.252C14.7852 18.3984 14.1797 18.5156 13.6328 18.6035L13.6328 19.8242C13.6328 20.1758 13.3496 20.459 12.998 20.459C12.6465 20.459 12.3535 20.1758 12.3535 19.8242L12.3535 18.7695C11.7188 18.8281 10.9961 18.877 10.3906 18.8867L10.3906 20.0684C10.3906 20.4199 10.1074 20.7129 9.75586 20.7129C9.4043 20.7129 9.11133 20.4199 9.11133 20.0684L9.11133 18.877C8.4668 18.8672 7.79297 18.8184 7.1582 18.75L7.1582 19.8242C7.1582 20.1758 6.86523 20.459 6.51367 20.459C6.16211 20.459 5.87891 20.1758 5.87891 19.8242L5.87891 18.5645C5.27344 18.4668 4.70703 18.3398 4.16016 18.1836L4.16016 19.1602C4.16016 19.5117 3.87695 19.7949 3.52539 19.7949C3.17383 19.7949 2.88086 19.5117 2.88086 19.1602L2.88086 17.7441C1.65039 17.2559 0.673828 16.6113 0 15.8301L0 16.9434C0 21.0254 3.7207 22.7441 9.87305 22.7441ZM8.27148 11.3574L6.05469 8.86719C2.46094 9.49219 0.253906 11.0254 0.253906 13.0469C0.253906 15.7227 4.10156 17.5488 9.87305 17.5488C15.6445 17.5488 19.4922 15.7227 19.4922 13.0469C19.4922 11.0254 17.2754 9.49219 13.6914 8.86719L11.4648 11.3574C10.5859 12.3633 9.16016 12.3633 8.27148 11.3574Z" fill="#000000" fill-opacity="0.85"/>
  <path d="M10.4688 10.4688L13.0859 7.51953C13.6035 6.94336 13.3105 6.11328 12.4805 6.11328L10.7129 6.11328L10.7129 0.830078C10.7129 0.361328 10.3418 0 9.88281 0C9.4043 0 9.04297 0.361328 9.04297 0.830078L9.04297 6.11328L7.25586 6.11328C6.45508 6.11328 6.11328 6.91406 6.64062 7.51953L9.26758 10.4688C9.61914 10.8789 10.1074 10.8789 10.4688 10.4688Z" fill="#000000" fill-opacity="0.85"/>
 </g>
</svg>
