<?xml version="1.0" encoding="UTF-8"?>
<!--Generator: Apple Native CoreSVG 175.5-->
<!DOCTYPE svg
PUBLIC "-//W3C//DTD SVG 1.1//EN"
       "http://www.w3.org/Graphics/SVG/1.1/DTD/svg11.dtd">
<svg version="1.1" xmlns="http://www.w3.org/2000/svg" xmlns:xlink="http://www.w3.org/1999/xlink" width="22.7441" height="19.7559">
 <g>
  <rect height="19.7559" opacity="0" width="22.7441" x="0" y="0"/>
  <path d="M0 9.87305C0 16.0156 1.71875 19.7461 5.80078 19.7461L9.69727 19.7461L9.69727 18.1738L5.80078 18.1738C2.69531 18.1738 1.57227 15.0391 1.57227 9.87305C1.57227 4.70703 2.69531 1.57227 5.80078 1.57227L9.69727 1.57227L9.69727 0L5.80078 0C1.71875 0 0 3.7207 0 9.87305ZM4.63867 4.16016L6.46484 4.16016L6.46484 2.88086L4.63867 2.88086C4.28711 2.88086 4.00391 3.17383 4.00391 3.52539C4.00391 3.87695 4.28711 4.16016 4.63867 4.16016ZM3.97461 7.1582L5.80078 7.1582L5.80078 5.87891L3.97461 5.87891C3.62305 5.87891 3.33984 6.16211 3.33984 6.51367C3.33984 6.86523 3.62305 7.1582 3.97461 7.1582ZM3.73047 10.3906L5.55664 10.3906L5.55664 9.11133L3.73047 9.11133C3.37891 9.11133 3.08594 9.4043 3.08594 9.75586C3.08594 10.1074 3.37891 10.3906 3.73047 10.3906ZM3.97461 13.6328L5.80078 13.6328L5.80078 12.3535L3.97461 12.3535C3.62305 12.3535 3.33984 12.6465 3.33984 12.998C3.33984 13.3496 3.62305 13.6328 3.97461 13.6328ZM4.63867 16.6309L6.46484 16.6309L6.46484 15.3516L4.63867 15.3516C4.28711 15.3516 4.00391 15.6348 4.00391 15.9863C4.00391 16.3379 4.28711 16.6309 4.63867 16.6309ZM9.69727 18.1738C7.80273 18.1738 6.51367 14.8438 6.51367 9.87305C6.51367 4.89258 7.80273 1.57227 9.69727 1.57227C11.2109 1.57227 12.334 3.70117 12.7148 7.09961L14.082 5.85938C13.4277 2.23633 11.8262 0 9.69727 0C6.8457 0 4.94141 3.94531 4.94141 9.87305C4.94141 15.791 6.8457 19.7461 9.69727 19.7461C11.8262 19.7461 13.4277 17.5 14.0918 13.877L12.7148 12.6465C12.334 16.0352 11.2109 18.1738 9.69727 18.1738Z" fill="#000000" fill-opacity="0.85"/>
  <path d="M12.2656 10.4688L15.2246 13.0859C15.791 13.6035 16.6309 13.3105 16.6309 12.4805L16.6309 10.7129L21.9043 10.7129C22.3828 10.7129 22.7441 10.3418 22.7441 9.88281C22.7441 9.4043 22.3828 9.04297 21.9043 9.04297L16.6309 9.04297L16.6309 7.25586C16.6309 6.45508 15.8203 6.11328 15.2246 6.64062L12.2656 9.26758C11.8652 9.61914 11.8555 10.1074 12.2656 10.4688Z" fill="#000000" fill-opacity="0.85"/>
 </g>
</svg>
