<?xml version="1.0" encoding="UTF-8"?>
<!--Generator: Apple Native CoreSVG 175.5-->
<!DOCTYPE svg
PUBLIC "-//W3C//DTD SVG 1.1//EN"
       "http://www.w3.org/Graphics/SVG/1.1/DTD/svg11.dtd">
<svg version="1.1" xmlns="http://www.w3.org/2000/svg" xmlns:xlink="http://www.w3.org/1999/xlink" width="22.7441" height="19.7559">
 <g>
  <rect height="19.7559" opacity="0" width="22.7441" x="0" y="0"/>
  <path d="M0 9.87305C0 16.0156 1.71875 19.7461 5.80078 19.7461L6.91406 19.7461C6.08398 19.0234 5.40039 17.9688 4.90234 16.6309L3.58398 16.6309C3.23242 16.6309 2.93945 16.3379 2.93945 15.9863C2.93945 15.6348 3.23242 15.3516 3.58398 15.3516L4.49219 15.3516C4.3457 14.7852 4.21875 14.1797 4.13086 13.6328L2.91992 13.6328C2.56836 13.6328 2.28516 13.3496 2.28516 12.998C2.28516 12.6465 2.56836 12.3535 2.91992 12.3535L3.97461 12.3535C3.90625 11.7188 3.86719 10.9961 3.85742 10.3906L2.67578 10.3906C2.32422 10.3906 2.03125 10.1074 2.03125 9.75586C2.03125 9.4043 2.32422 9.11133 2.67578 9.11133L3.86719 9.11133C3.87695 8.4668 3.91602 7.79297 3.99414 7.1582L2.91992 7.1582C2.56836 7.1582 2.28516 6.86523 2.28516 6.51367C2.28516 6.16211 2.56836 5.87891 2.91992 5.87891L4.16992 5.87891C4.27734 5.27344 4.39453 4.70703 4.56055 4.16016L3.58398 4.16016C3.23242 4.16016 2.93945 3.87695 2.93945 3.52539C2.93945 3.17383 3.23242 2.88086 3.58398 2.88086L4.99023 2.88086C5.47852 1.65039 6.13281 0.673828 6.91406 0L5.80078 0C1.71875 0 0 3.7207 0 9.87305ZM11.3867 8.27148L13.8672 6.05469C13.252 2.46094 11.709 0.244141 9.69727 0.244141C7.02148 0.244141 5.19531 4.10156 5.19531 9.87305C5.19531 15.6445 7.02148 19.4922 9.69727 19.4922C11.709 19.4922 13.252 17.2754 13.8672 13.6914L11.3867 11.4648C10.3809 10.5859 10.3809 9.16016 11.3867 8.27148Z" fill="#000000" fill-opacity="0.85"/>
  <path d="M12.2656 10.4688L15.2246 13.0859C15.791 13.6035 16.6309 13.3105 16.6309 12.4805L16.6309 10.7129L21.9043 10.7129C22.3828 10.7129 22.7441 10.3418 22.7441 9.88281C22.7441 9.4043 22.3828 9.04297 21.9043 9.04297L16.6309 9.04297L16.6309 7.25586C16.6309 6.45508 15.8203 6.11328 15.2246 6.64062L12.2656 9.26758C11.8652 9.61914 11.8555 10.1074 12.2656 10.4688Z" fill="#000000" fill-opacity="0.85"/>
 </g>
</svg>
