<?xml version="1.0" encoding="UTF-8"?>
<!--Generator: Apple Native CoreSVG 175.5-->
<!DOCTYPE svg
PUBLIC "-//W3C//DTD SVG 1.1//EN"
       "http://www.w3.org/Graphics/SVG/1.1/DTD/svg11.dtd">
<svg version="1.1" xmlns="http://www.w3.org/2000/svg" xmlns:xlink="http://www.w3.org/1999/xlink" width="19.7461" height="24.248">
 <g>
  <rect height="24.248" opacity="0" width="19.7461" x="0" y="0"/>
  <path d="M9.87305 22.7441C16.0156 22.7441 19.7461 21.0254 19.7461 16.9434L19.7461 13.0469L18.1738 13.0469L18.1738 16.9434C18.1738 20.0488 15.0391 21.1719 9.87305 21.1719C4.70703 21.1719 1.57227 20.0488 1.57227 16.9434L1.57227 13.0469L0 13.0469L0 16.9434C0 21.0254 3.7207 22.7441 9.87305 22.7441ZM4.16016 18.0957L4.16016 16.2695L2.88086 16.2695L2.88086 18.0957C2.88086 18.4473 3.17383 18.7402 3.52539 18.7402C3.87695 18.7402 4.16016 18.4473 4.16016 18.0957ZM7.1582 18.7598L7.1582 16.9336L5.87891 16.9336L5.87891 18.7598C5.87891 19.1113 6.16211 19.4043 6.51367 19.4043C6.86523 19.4043 7.1582 19.1113 7.1582 18.7598ZM10.3906 19.0137L10.3906 17.1875L9.11133 17.1875L9.11133 19.0137C9.11133 19.3652 9.4043 19.6484 9.75586 19.6484C10.1074 19.6484 10.3906 19.3652 10.3906 19.0137ZM13.6328 18.7598L13.6328 16.9336L12.3535 16.9336L12.3535 18.7598C12.3535 19.1113 12.6465 19.4043 12.998 19.4043C13.3496 19.4043 13.6328 19.1113 13.6328 18.7598ZM16.6309 18.0957L16.6309 16.2695L15.3516 16.2695L15.3516 18.0957C15.3516 18.4473 15.6348 18.7402 15.9863 18.7402C16.3379 18.7402 16.6309 18.4473 16.6309 18.0957ZM18.1738 13.0469C18.1738 14.9414 14.8535 16.2305 9.87305 16.2305C4.89258 16.2305 1.57227 14.9414 1.57227 13.0469C1.57227 11.5332 3.70117 10.4102 7.09961 10.0293L5.85938 8.65234C2.23633 9.30664 0 10.918 0 13.0469C0 15.8984 3.94531 17.8027 9.87305 17.8027C15.791 17.8027 19.7461 15.8984 19.7461 13.0469C19.7461 10.918 17.5 9.30664 13.877 8.65234L12.6465 10.0293C16.0352 10.4102 18.1738 11.5234 18.1738 13.0469Z" fill="#000000" fill-opacity="0.85"/>
  <path d="M10.4688 10.4688L13.0859 7.51953C13.6035 6.94336 13.3105 6.11328 12.4805 6.11328L10.7129 6.11328L10.7129 0.830078C10.7129 0.361328 10.3418 0 9.88281 0C9.4043 0 9.04297 0.361328 9.04297 0.830078L9.04297 6.11328L7.25586 6.11328C6.45508 6.11328 6.11328 6.91406 6.64062 7.51953L9.26758 10.4688C9.61914 10.8789 10.1074 10.8789 10.4688 10.4688Z" fill="#000000" fill-opacity="0.85"/>
 </g>
</svg>
