<?xml version="1.0" encoding="UTF-8"?>
<!--Generator: Apple Native CoreSVG 175.5-->
<!DOCTYPE svg
PUBLIC "-//W3C//DTD SVG 1.1//EN"
       "http://www.w3.org/Graphics/SVG/1.1/DTD/svg11.dtd">
<svg version="1.1" xmlns="http://www.w3.org/2000/svg" xmlns:xlink="http://www.w3.org/1999/xlink" width="18.5254" height="22.002">
 <g>
  <rect height="22.002" opacity="0" width="18.5254" x="0" y="0"/>
  <path d="M2.26562 21.1621L7.5293 21.1621C7.12891 20.7031 6.81641 20.166 6.60156 19.5898L2.33398 19.5898C1.88477 19.5898 1.57227 19.2871 1.57227 18.8184L1.57227 3.00781C1.57227 2.53906 1.88477 2.22656 2.33398 2.22656L14.6094 2.22656C15.0684 2.22656 15.3711 2.53906 15.3711 3.00781L15.3711 11.8164C15.9375 11.9434 16.4551 12.1582 16.9434 12.4512L16.9434 2.98828C16.9434 1.5918 16.0352 0.654297 14.6875 0.654297L2.26562 0.654297C0.908203 0.654297 0 1.5918 0 2.98828L0 18.8379C0 20.2344 0.908203 21.1621 2.26562 21.1621ZM3.68164 4.85352C4.16016 4.85352 4.54102 4.46289 4.54102 3.98438C4.54102 3.51562 4.16016 3.125 3.68164 3.125C3.21289 3.125 2.82227 3.51562 2.82227 3.98438C2.82227 4.46289 3.21289 4.85352 3.68164 4.85352ZM6.17188 4.85352C6.65039 4.85352 7.03125 4.46289 7.03125 3.98438C7.03125 3.51562 6.65039 3.125 6.17188 3.125C5.70312 3.125 5.32227 3.51562 5.32227 3.98438C5.32227 4.46289 5.70312 4.85352 6.17188 4.85352ZM0.859375 7.03125L16.0938 7.03125L16.0938 5.75195L0.859375 5.75195ZM6.17188 9.18945L10.7812 9.18945C11.0742 9.18945 11.2695 8.98438 11.2695 8.69141C11.2695 8.39844 11.0742 8.20312 10.7812 8.20312L6.17188 8.20312C5.87891 8.20312 5.67383 8.39844 5.67383 8.69141C5.67383 8.98438 5.87891 9.18945 6.17188 9.18945ZM0.722656 18.457L6.2207 18.457C6.13281 17.9883 6.12305 17.6172 6.15234 17.1777L0.722656 17.1777Z" fill="#000000" fill-opacity="0.85"/>
  <path d="M11.8848 22.002C14.4531 22.002 16.5234 19.9414 16.5234 17.3633C16.5234 14.7754 14.4531 12.7148 11.8848 12.7148C9.30664 12.7148 7.23633 14.7754 7.23633 17.3633C7.23633 19.9414 9.30664 22.002 11.8848 22.002ZM11.8848 21.0156C9.78516 21.0156 8.22266 19.4434 8.22266 17.3633C8.22266 15.2734 9.78516 13.7012 11.8848 13.7012C13.9648 13.7012 15.5371 15.2734 15.5371 17.3633C15.5371 19.4434 13.9648 21.0156 11.8848 21.0156ZM11.8848 20.2832C13.4863 20.2832 14.8047 18.9746 14.8047 17.3633C14.8047 15.752 13.4863 14.4434 11.8848 14.4434C10.2637 14.4434 8.95508 15.752 8.95508 17.3633C8.95508 18.9746 10.2637 20.2832 11.8848 20.2832ZM11.8848 19.3945C10.6934 19.3945 9.84375 18.5449 9.84375 17.3633C9.84375 16.1719 10.6934 15.332 11.8848 15.332C13.0762 15.332 13.916 16.1719 13.916 17.3633C13.916 18.5547 13.0664 19.3945 11.8848 19.3945ZM13.8867 22.002C16.4551 22.002 18.5254 19.9414 18.5254 17.3633C18.5254 14.7754 16.4551 12.7148 13.8867 12.7148C13.3301 12.7148 12.8027 12.8125 12.3242 12.998L13.457 13.7305C13.6035 13.7109 13.7402 13.7012 13.8867 13.7012C15.9766 13.7012 17.5391 15.2734 17.5391 17.3633C17.5391 19.4434 15.9766 21.0156 13.8867 21.0156C13.7402 21.0156 13.5938 21.0059 13.457 20.9961L12.6465 21.8359C13.0469 21.9531 13.457 22.002 13.8867 22.002Z" fill="#000000" fill-opacity="0.85"/>
 </g>
</svg>
