<?xml version="1.0" encoding="UTF-8"?>
<!--Generator: Apple Native CoreSVG 175.5-->
<!DOCTYPE svg
PUBLIC "-//W3C//DTD SVG 1.1//EN"
       "http://www.w3.org/Graphics/SVG/1.1/DTD/svg11.dtd">
<svg version="1.1" xmlns="http://www.w3.org/2000/svg" xmlns:xlink="http://www.w3.org/1999/xlink" width="19.7949" height="22.6465">
 <g>
  <rect height="22.6465" opacity="0" width="19.7949" x="0" y="0"/>
  <path d="M3.18359 3.37891L4.61914 3.37891L4.61914 0.673828C4.61914 0.292969 4.28711 0 3.90625 0C3.52539 0 3.18359 0.292969 3.18359 0.673828ZM3.90625 22.6367C4.28711 22.6367 4.61914 22.3438 4.61914 21.9629L4.61914 19.375L3.18359 19.375L3.18359 21.9629C3.18359 22.3438 3.52539 22.6367 3.90625 22.6367ZM15.1855 6.11328L16.6211 6.11328L16.6211 0.673828C16.6211 0.292969 16.2793 0 15.8984 0C15.5176 0 15.1855 0.292969 15.1855 0.673828ZM15.8984 22.6367C16.2793 22.6367 16.6211 22.3438 16.6211 21.9629L16.6211 16.543L15.1855 16.543L15.1855 21.9629C15.1855 22.3438 15.5176 22.6367 15.8984 22.6367Z" fill="#000000" fill-opacity="0.85"/>
  <path d="M2.19727 20.1367L5.5957 20.1367C7.02148 20.1367 7.79297 19.3457 7.79297 17.8906L7.79297 4.74609C7.79297 3.29102 7.02148 2.50977 5.5957 2.50977L2.19727 2.50977C0.771484 2.50977 0 3.29102 0 4.74609L0 17.8906C0 19.3457 0.771484 20.1367 2.19727 20.1367ZM14.1992 17.2363L17.5977 17.2363C19.0234 17.2363 19.7949 16.4551 19.7949 15L19.7949 7.63672C19.7949 6.18164 19.0234 5.40039 17.5977 5.40039L14.1992 5.40039C12.7734 5.40039 12.002 6.18164 12.002 7.63672L12.002 15C12.002 16.4551 12.7734 17.2363 14.1992 17.2363Z" fill="#000000" fill-opacity="0.85"/>
 </g>
</svg>
