<?xml version="1.0" encoding="UTF-8"?>
<!--Generator: Apple Native CoreSVG 175.5-->
<!DOCTYPE svg
PUBLIC "-//W3C//DTD SVG 1.1//EN"
       "http://www.w3.org/Graphics/SVG/1.1/DTD/svg11.dtd">
<svg version="1.1" xmlns="http://www.w3.org/2000/svg" xmlns:xlink="http://www.w3.org/1999/xlink" width="16.4258" height="20.9473">
 <g>
  <rect height="20.9473" opacity="0" width="16.4258" x="0" y="0"/>
  <path d="M5.63477 9.90234C4.42383 9.90234 3.45703 8.99414 3.45703 7.43164C3.45703 6.61133 3.73047 5.83984 4.27734 5.24414C4.82422 4.6582 5.61523 4.27734 6.25977 4.27734C6.5332 4.27734 6.67969 4.43359 6.67969 4.62891C6.67969 4.84375 6.5625 4.96094 6.20117 5.03906C5.77148 5.12695 5.41016 5.3125 5.09766 5.57617C4.75586 5.84961 4.53125 6.20117 4.45312 6.55273L4.6582 6.55273C4.95117 6.18164 5.38086 6.01562 5.9082 6.01562C6.94336 6.01562 7.63672 6.76758 7.63672 7.91016C7.63672 9.0918 6.81641 9.90234 5.63477 9.90234ZM10.9668 9.89258C9.76562 9.89258 8.79883 8.98438 8.79883 7.42188C8.79883 6.60156 9.07227 5.83008 9.61914 5.23438C10.1465 4.66797 10.957 4.26758 11.5918 4.26758C11.875 4.26758 12.0215 4.42383 12.0215 4.61914C12.0215 4.83398 11.9043 4.95117 11.543 5.0293C11.1035 5.12695 10.7227 5.30273 10.4102 5.58594C10.0879 5.85938 9.87305 6.20117 9.79492 6.54297L9.99023 6.54297C10.293 6.17188 10.7227 6.00586 11.2402 6.00586C12.2754 6.00586 12.9785 6.75781 12.9785 7.90039C12.9785 9.08203 12.1582 9.89258 10.9668 9.89258ZM4.31641 13.1934C3.96484 13.1934 3.70117 12.9297 3.70117 12.5879C3.70117 12.2559 3.96484 11.9922 4.31641 11.9922L12.1289 11.9922C12.4707 11.9922 12.7344 12.2559 12.7344 12.5879C12.7344 12.9297 12.4707 13.1934 12.1289 13.1934ZM4.31641 16.6016C3.96484 16.6016 3.70117 16.3477 3.70117 16.0059C3.70117 15.6641 3.96484 15.4004 4.31641 15.4004L8.04688 15.4004C8.38867 15.4004 8.65234 15.6641 8.65234 16.0059C8.65234 16.3477 8.38867 16.6016 8.04688 16.6016ZM0 17.8809C0 19.9219 1.00586 20.9375 3.02734 20.9375L13.3984 20.9375C15.4199 20.9375 16.4258 19.9219 16.4258 17.8809L16.4258 3.06641C16.4258 1.03516 15.4199 0 13.3984 0L3.02734 0C1.00586 0 0 1.03516 0 3.06641Z" fill="#000000" fill-opacity="0.85"/>
 </g>
</svg>
