<?xml version="1.0" encoding="UTF-8"?>
<!--Generator: Apple Native CoreSVG 175.5-->
<!DOCTYPE svg
PUBLIC "-//W3C//DTD SVG 1.1//EN"
       "http://www.w3.org/Graphics/SVG/1.1/DTD/svg11.dtd">
<svg version="1.1" xmlns="http://www.w3.org/2000/svg" xmlns:xlink="http://www.w3.org/1999/xlink" width="19.9707" height="24.5996">
 <g>
  <rect height="24.5996" opacity="0" width="19.9707" x="0" y="0"/>
  <path d="M16.5625 19.6973L16.9434 19.6973C18.9453 19.6973 19.9707 18.6621 19.9707 16.6309L19.9707 7.36328L14.5703 7.36328C13.5449 7.36328 12.9688 6.78711 12.9688 5.77148L12.9688 0L7.76367 0C5.78125 0 4.73633 1.03516 4.73633 2.98828L4.73633 3.54492L6.15234 3.54492C7.51953 3.54492 8.62305 3.85742 9.7168 4.95117L15.2637 10.4883C16.3574 11.5918 16.5625 12.7246 16.5625 14.0527ZM14.7559 6.14258L19.8535 6.14258C19.8047 5.83008 19.5898 5.55664 19.248 5.21484L15.1172 1.00586C14.7852 0.654297 14.502 0.439453 14.1992 0.400391L14.209 5.57617C14.209 5.97656 14.3555 6.14258 14.7559 6.14258Z" fill="#000000" fill-opacity="0.85"/>
  <path d="M3.02734 24.5703L12.207 24.5703C14.2285 24.5703 15.2344 23.5352 15.2344 21.5039L15.2344 13.7891L8.41797 13.7891C7.1582 13.7891 6.57227 13.1934 6.57227 11.9434L6.57227 4.87305L3.02734 4.87305C1.01562 4.87305 0 5.89844 0 7.93945L0 21.5039C0 23.5449 1.00586 24.5703 3.02734 24.5703ZM8.4082 12.4512L15.0586 12.4512C14.9609 12.0703 14.7363 11.7188 14.2969 11.2695L9.08203 5.95703C8.65234 5.51758 8.28125 5.22461 7.90039 5.11719L7.90039 11.9531C7.90039 12.2852 8.07617 12.4512 8.4082 12.4512Z" fill="#000000" fill-opacity="0.85"/>
 </g>
</svg>
