<?xml version="1.0" encoding="UTF-8"?>
<!--Generator: Apple Native CoreSVG 175.5-->
<!DOCTYPE svg
PUBLIC "-//W3C//DTD SVG 1.1//EN"
       "http://www.w3.org/Graphics/SVG/1.1/DTD/svg11.dtd">
<svg version="1.1" xmlns="http://www.w3.org/2000/svg" xmlns:xlink="http://www.w3.org/1999/xlink" width="16.4258" height="20.9473">
 <g>
  <rect height="20.9473" opacity="0" width="16.4258" x="0" y="0"/>
  <path d="M5.82031 9.90234C7.01172 9.90234 7.83203 9.08203 7.83203 7.91016C7.83203 6.76758 7.12891 6.00586 6.09375 6.00586C5.57617 6.00586 5.14648 6.17188 4.84375 6.55273L4.64844 6.55273C4.72656 6.19141 4.95117 5.84961 5.29297 5.56641C5.5957 5.30273 5.9668 5.12695 6.39648 5.03906C6.75781 4.95117 6.86523 4.84375 6.86523 4.62891C6.86523 4.42383 6.71875 4.26758 6.44531 4.26758C5.81055 4.26758 5.01953 4.6582 4.47266 5.24414C3.92578 5.83984 3.65234 6.60156 3.65234 7.43164C3.65234 8.99414 4.61914 9.90234 5.82031 9.90234ZM10.7715 9.89258C11.9531 9.89258 12.7832 9.07227 12.7832 7.90039C12.7832 6.75781 12.0801 5.99609 11.0449 5.99609C10.5176 5.99609 10.0977 6.16211 9.79492 6.54297L9.58984 6.54297C9.66797 6.19141 9.89258 5.85938 10.2051 5.57617C10.5176 5.29297 10.9082 5.12695 11.3379 5.0293C11.6992 4.94141 11.8164 4.83398 11.8164 4.61914C11.8164 4.41406 11.6699 4.25781 11.3965 4.25781C10.7617 4.25781 9.94141 4.66797 9.42383 5.23438C8.86719 5.83008 8.59375 6.5918 8.59375 7.42188C8.59375 8.98438 9.56055 9.89258 10.7715 9.89258ZM4.51172 13.1934L11.9238 13.1934C12.2754 13.1934 12.5293 12.9199 12.5293 12.5781C12.5293 12.2461 12.2754 11.9922 11.9238 11.9922L4.51172 11.9922C4.16016 11.9922 3.89648 12.2461 3.89648 12.5781C3.89648 12.9199 4.16016 13.1934 4.51172 13.1934ZM4.51172 16.5918L8.01758 16.5918C8.36914 16.5918 8.62305 16.3379 8.62305 16.0059C8.62305 15.6641 8.36914 15.3906 8.01758 15.3906L4.51172 15.3906C4.16016 15.3906 3.89648 15.6641 3.89648 16.0059C3.89648 16.3379 4.16016 16.5918 4.51172 16.5918ZM0 17.8809C0 19.9219 1.00586 20.9375 3.02734 20.9375L13.3984 20.9375C15.4199 20.9375 16.4258 19.9219 16.4258 17.8809L16.4258 3.06641C16.4258 1.03516 15.4199 0 13.3984 0L3.02734 0C1.00586 0 0 1.03516 0 3.06641ZM1.57227 17.8516L1.57227 3.0957C1.57227 2.11914 2.08984 1.57227 3.10547 1.57227L13.3203 1.57227C14.3359 1.57227 14.8535 2.11914 14.8535 3.0957L14.8535 17.8516C14.8535 18.8281 14.3359 19.3652 13.3203 19.3652L3.10547 19.3652C2.08984 19.3652 1.57227 18.8281 1.57227 17.8516Z" fill="#000000" fill-opacity="0.85"/>
 </g>
</svg>
