<?xml version="1.0" encoding="UTF-8"?>
<!--Generator: Apple Native CoreSVG 175.5-->
<!DOCTYPE svg
PUBLIC "-//W3C//DTD SVG 1.1//EN"
       "http://www.w3.org/Graphics/SVG/1.1/DTD/svg11.dtd">
<svg version="1.1" xmlns="http://www.w3.org/2000/svg" xmlns:xlink="http://www.w3.org/1999/xlink" width="16.4258" height="20.9473">
 <g>
  <rect height="20.9473" opacity="0" width="16.4258" x="0" y="0"/>
  <path d="M4.41406 7.88086L6.06445 7.88086C6.35742 7.88086 6.54297 7.72461 6.61133 7.4707L7.45117 4.08203L6.60156 4.08203L7.83203 10.0488C7.93945 10.5957 8.65234 10.5957 8.81836 10.0684L10.2051 5.27344L9.41406 5.25391L9.93164 7.44141C9.99023 7.72461 10.1855 7.88086 10.4785 7.88086L12.0117 7.88086C12.2949 7.88086 12.5195 7.65625 12.5195 7.38281C12.5195 7.09961 12.3047 6.875 12.0117 6.875L10.5762 6.875L10.8301 7.07031L10.2734 4.91211C10.1465 4.4043 9.46289 4.41406 9.29688 4.93164L7.88086 9.56055L8.70117 9.56055L7.49023 3.59375C7.37305 3.06641 6.66016 3.05664 6.5332 3.58398L5.6543 7.17773L5.94727 6.875L4.41406 6.875C4.13086 6.875 3.90625 7.10938 3.90625 7.38281C3.90625 7.65625 4.13086 7.88086 4.41406 7.88086ZM4.51172 13.0762L11.9238 13.0762C12.2656 13.0762 12.5195 12.8125 12.5195 12.4707C12.5195 12.1387 12.2656 11.875 11.9238 11.875L4.51172 11.875C4.16016 11.875 3.90625 12.1387 3.90625 12.4707C3.90625 12.8125 4.16016 13.0762 4.51172 13.0762ZM4.51172 16.4844L8.01758 16.4844C8.36914 16.4844 8.62305 16.2207 8.62305 15.8887C8.62305 15.5469 8.36914 15.2832 8.01758 15.2832L4.51172 15.2832C4.16016 15.2832 3.90625 15.5469 3.90625 15.8887C3.90625 16.2207 4.16016 16.4844 4.51172 16.4844ZM0 17.8809C0 19.9219 1.00586 20.9375 3.02734 20.9375L13.3984 20.9375C15.4199 20.9375 16.4258 19.9219 16.4258 17.8809L16.4258 3.06641C16.4258 1.03516 15.4199 0 13.3984 0L3.02734 0C1.00586 0 0 1.03516 0 3.06641ZM1.57227 17.8516L1.57227 3.0957C1.57227 2.11914 2.08984 1.57227 3.10547 1.57227L13.3203 1.57227C14.3359 1.57227 14.8535 2.11914 14.8535 3.0957L14.8535 17.8516C14.8535 18.8281 14.3359 19.3652 13.3203 19.3652L3.10547 19.3652C2.08984 19.3652 1.57227 18.8281 1.57227 17.8516Z" fill="#000000" fill-opacity="0.85"/>
 </g>
</svg>
