<?xml version="1.0" encoding="UTF-8"?>
<!--Generator: Apple Native CoreSVG 175.5-->
<!DOCTYPE svg
PUBLIC "-//W3C//DTD SVG 1.1//EN"
       "http://www.w3.org/Graphics/SVG/1.1/DTD/svg11.dtd">
<svg version="1.1" xmlns="http://www.w3.org/2000/svg" xmlns:xlink="http://www.w3.org/1999/xlink" width="16.4258" height="20.9473">
 <g>
  <rect height="20.9473" opacity="0" width="16.4258" x="0" y="0"/>
  <path d="M3.76953 7.30469C3.76953 7.02148 4.00391 6.77734 4.29688 6.77734L5.6543 6.77734L6.47461 3.38867C6.61133 2.8418 7.34375 2.86133 7.4707 3.39844L8.37891 7.92969L9.32617 4.77539C9.50195 4.24805 10.2051 4.23828 10.3418 4.75586L10.8691 6.77734L12.1289 6.77734C12.4316 6.77734 12.6562 7.01172 12.6562 7.30469C12.6562 7.58789 12.4219 7.82227 12.1289 7.82227L10.5469 7.82227C10.2441 7.82227 10.0391 7.66602 9.98047 7.37305L9.80469 6.66992L8.83789 10.0684C8.66211 10.6152 7.92969 10.6152 7.8125 10.0488L6.94336 5.83008L6.5625 7.40234C6.49414 7.66602 6.29883 7.82227 5.99609 7.82227L4.29688 7.82227C4.00391 7.82227 3.76953 7.58789 3.76953 7.30469ZM3.76953 12.5488C3.76953 12.207 4.0332 11.9336 4.39453 11.9336L12.041 11.9336C12.3926 11.9336 12.6562 12.207 12.6562 12.5488C12.6562 12.9004 12.3926 13.1738 12.041 13.1738L4.39453 13.1738C4.0332 13.1738 3.76953 12.9004 3.76953 12.5488ZM3.76953 16.0742C3.76953 15.7227 4.0332 15.4492 4.39453 15.4492L8.00781 15.4492C8.37891 15.4492 8.63281 15.7227 8.63281 16.0742C8.63281 16.416 8.37891 16.6895 8.00781 16.6895L4.39453 16.6895C4.0332 16.6895 3.76953 16.416 3.76953 16.0742ZM0 17.8809C0 19.9219 1.00586 20.9375 3.02734 20.9375L13.3984 20.9375C15.4199 20.9375 16.4258 19.9219 16.4258 17.8809L16.4258 3.06641C16.4258 1.03516 15.4199 0 13.3984 0L3.02734 0C1.00586 0 0 1.03516 0 3.06641Z" fill="#000000" fill-opacity="0.85"/>
 </g>
</svg>
