<?xml version="1.0" encoding="UTF-8"?>
<!--Generator: Apple Native CoreSVG 175.5-->
<!DOCTYPE svg
PUBLIC "-//W3C//DTD SVG 1.1//EN"
       "http://www.w3.org/Graphics/SVG/1.1/DTD/svg11.dtd">
<svg version="1.1" xmlns="http://www.w3.org/2000/svg" xmlns:xlink="http://www.w3.org/1999/xlink" width="21.8177" height="19.9316">
 <g>
  <rect height="19.9316" opacity="0" width="21.8177" x="0" y="0"/>
  <path d="M11.8568 19.9219C17.2962 19.9219 21.8177 15.4004 21.8177 9.96094C21.8177 4.51172 17.2962 0 11.8568 0C6.40757 0 1.89585 4.50195 1.89585 9.95117L3.55601 9.95117C3.55601 5.3418 7.24741 1.66992 11.8568 1.66992C16.4662 1.66992 20.1576 5.35156 20.1576 9.96094C20.1576 14.5703 16.4662 18.2812 11.8568 18.2617C9.07358 18.252 6.63218 16.9043 5.13804 14.8242C4.8353 14.4238 4.37632 14.2969 3.96616 14.541C3.57554 14.7852 3.46811 15.3223 3.80015 15.752C5.65561 18.2422 8.56577 19.9219 11.8568 19.9219ZM0.694677 8.07617C-0.00844799 8.07617-0.184229 8.55469 0.19663 9.10156L2.38413 12.207C2.7064 12.6562 3.17515 12.6465 3.48765 12.207L5.67515 9.0918C6.04624 8.55469 5.87046 8.07617 5.1771 8.07617Z" fill="#000000" fill-opacity="0.85"/>
  <path d="M11.847 14.8047C13.9271 14.8047 15.4408 13.6426 15.4408 12.0215C15.4408 10.6543 14.6888 9.92188 12.8236 9.47266L11.4369 9.13086C10.3431 8.85742 9.87436 8.47656 9.87436 7.82227C9.87436 7.00195 10.6361 6.43555 11.7689 6.43555C12.7943 6.43555 13.4193 6.875 13.7611 7.8125C13.9173 8.1543 14.181 8.31055 14.4544 8.31055C14.9623 8.31055 15.2552 7.86133 15.0794 7.27539C14.806 6.24023 13.6341 5.14648 11.7689 5.14648C9.78647 5.14648 8.37046 6.28906 8.37046 7.88086C8.37046 9.21875 9.22983 10.0391 11.0169 10.459L12.4134 10.791C13.5072 11.0449 13.9173 11.416 13.9173 12.1289C13.9173 12.9688 13.1068 13.5156 11.847 13.5156C10.7044 13.5156 10.0111 13.0859 9.65952 12.1582C9.51304 11.8262 9.24936 11.6699 8.97593 11.6699C8.47788 11.6699 8.21421 12.0703 8.32163 12.6562C8.55601 13.8574 9.96226 14.8047 11.847 14.8047ZM11.2708 15.7617C11.2708 16.084 11.5345 16.3574 11.8568 16.3574C12.1791 16.3574 12.4525 16.084 12.4525 15.7617L12.4525 4.16992C12.4525 3.84766 12.1791 3.57422 11.8568 3.57422C11.5345 3.57422 11.2708 3.84766 11.2708 4.16992Z" fill="#000000" fill-opacity="0.85"/>
 </g>
</svg>
