<?xml version="1.0" encoding="UTF-8"?>
<!--Generator: Apple Native CoreSVG 175.5-->
<!DOCTYPE svg
PUBLIC "-//W3C//DTD SVG 1.1//EN"
       "http://www.w3.org/Graphics/SVG/1.1/DTD/svg11.dtd">
<svg version="1.1" xmlns="http://www.w3.org/2000/svg" xmlns:xlink="http://www.w3.org/1999/xlink" width="17.9785" height="17.998">
 <g>
  <rect height="17.998" opacity="0" width="17.9785" x="0" y="0"/>
  <path d="M9.00391 12.0508C10.6641 12.0508 12.041 10.6836 12.041 8.99414C12.041 7.33398 10.6641 5.9668 9.00391 5.9668C7.32422 5.9668 5.94727 7.33398 5.94727 8.99414C5.94727 10.6836 7.32422 12.0508 9.00391 12.0508ZM4.69727 8.22266L0.830078 8.22266L0.830078 9.79492L4.69727 9.79492C4.63867 9.53125 4.60938 9.26758 4.60938 8.99414C4.60938 8.73047 4.63867 8.47656 4.69727 8.22266ZM9.77539 4.7168L9.77539 0.849609L8.20312 0.849609L8.20312 4.7168C8.4668 4.6582 8.73047 4.62891 9.00391 4.62891C9.26758 4.62891 9.52148 4.6582 9.77539 4.7168ZM17.1484 8.22266L13.3008 8.22266C13.3496 8.47656 13.3789 8.73047 13.3789 8.99414C13.3789 9.26758 13.3496 9.53125 13.3008 9.79492L17.1484 9.79492ZM8.20312 13.3008L8.20312 17.168L9.77539 17.168L9.77539 13.3008C9.52148 13.3594 9.26758 13.3887 9.00391 13.3887C8.73047 13.3887 8.4668 13.3594 8.20312 13.3008ZM0 17.2168C0 17.6855 0.3125 17.998 0.78125 17.998L17.207 17.998C17.6758 17.998 17.9785 17.6855 17.9785 17.2168L17.9785 0.791016C17.9785 0.322266 17.6758 0.0195312 17.207 0.0195312L0.78125 0.0195312C0.3125 0.0195312 0 0.322266 0 0.791016ZM1.57227 16.1426L1.57227 1.875C1.57227 1.66016 1.65039 1.5918 1.85547 1.5918L16.123 1.5918C16.3379 1.5918 16.4062 1.66016 16.4062 1.875L16.4062 16.1426C16.4062 16.3477 16.3379 16.4258 16.123 16.4258L1.85547 16.4258C1.65039 16.4258 1.57227 16.3477 1.57227 16.1426Z" fill="#000000" fill-opacity="0.85"/>
 </g>
</svg>
