<?xml version="1.0" encoding="UTF-8"?>
<!--Generator: Apple Native CoreSVG 175.5-->
<!DOCTYPE svg
PUBLIC "-//W3C//DTD SVG 1.1//EN"
       "http://www.w3.org/Graphics/SVG/1.1/DTD/svg11.dtd">
<svg version="1.1" xmlns="http://www.w3.org/2000/svg" xmlns:xlink="http://www.w3.org/1999/xlink" width="19.9219" height="19.9316">
 <g>
  <rect height="19.9316" opacity="0" width="19.9219" x="0" y="0"/>
  <path d="M9.96094 19.9219C15.4102 19.9219 19.9219 15.4004 19.9219 9.96094C19.9219 4.51172 15.4004 0 9.95117 0C4.51172 0 0 4.51172 0 9.96094C0 15.4004 4.52148 19.9219 9.96094 19.9219Z" fill="#000000" fill-opacity="0.85"/>
  <path d="M9.96094 15.3027C7.68555 15.3027 6.15234 13.8281 6.15234 11.6211C6.15234 10.5176 6.62109 9.55078 6.94336 8.80859C7.54883 7.50977 8.53516 5.88867 9.38477 4.58008C9.56055 4.32617 9.73633 4.21875 9.96094 4.21875C10.1855 4.21875 10.3516 4.32617 10.5371 4.58008C11.377 5.88867 12.3633 7.50977 12.9688 8.80859C13.3008 9.55078 13.7598 10.5176 13.7598 11.6211C13.7598 13.8281 12.2363 15.3027 9.96094 15.3027Z" fill="#ffffff"/>
 </g>
</svg>
