<?xml version="1.0" encoding="UTF-8"?>
<!--Generator: Apple Native CoreSVG 175.5-->
<!DOCTYPE svg
PUBLIC "-//W3C//DTD SVG 1.1//EN"
       "http://www.w3.org/Graphics/SVG/1.1/DTD/svg11.dtd">
<svg version="1.1" xmlns="http://www.w3.org/2000/svg" xmlns:xlink="http://www.w3.org/1999/xlink" width="18.2715" height="22.344">
 <g>
  <rect height="22.344" opacity="0" width="18.2715" x="0" y="0"/>
  <path d="M0 5.8351L16.9434 5.8351L16.9434 3.24721C16.9434 1.84096 16.0352 0.913228 14.6875 0.913228L2.26562 0.913228C0.908203 0.913228 0 1.84096 0 3.24721ZM3.53516 4.81948C3.04688 4.81948 2.64648 4.40932 2.64648 3.93081C2.64648 3.43276 3.04688 3.04213 3.53516 3.04213C4.02344 3.04213 4.41406 3.43276 4.41406 3.93081C4.41406 4.40932 4.02344 4.81948 3.53516 4.81948ZM6.10352 4.81948C5.61523 4.81948 5.22461 4.40932 5.22461 3.93081C5.22461 3.43276 5.61523 3.04213 6.10352 3.04213C6.5918 3.04213 6.98242 3.43276 6.98242 3.93081C6.98242 4.40932 6.5918 4.81948 6.10352 4.81948ZM11.3672 4.43862C11.0645 4.43862 10.8691 4.23354 10.8691 3.93081C10.8691 3.62807 11.0645 3.41323 11.3672 3.41323L13.7695 3.41323C14.082 3.41323 14.2773 3.62807 14.2773 3.93081C14.2773 4.23354 14.082 4.43862 13.7695 4.43862ZM4.86328 17.4757L8.60352 17.4757C8.41797 16.9386 8.25195 16.3039 8.25195 15.5226C8.25195 13.9406 9.01367 12.0558 10.7031 12.0558C11.3672 12.0558 11.8945 12.3878 12.1191 12.6808C12.207 12.5441 12.3242 12.4269 12.4707 12.3585L12.4707 10.8351C12.4707 10.591 12.3145 10.4347 12.0801 10.4347L4.86328 10.4347C4.62891 10.4347 4.47266 10.591 4.47266 10.8351L4.47266 17.0753C4.47266 17.3195 4.62891 17.4757 4.86328 17.4757ZM2.26562 21.421L9.50195 21.421C9.58984 21.0499 9.87305 20.7374 9.87305 20.2687C9.87305 19.8488 9.43359 19.3605 9.02344 18.5597L4.6875 18.5597C3.91602 18.5597 3.38867 18.0324 3.38867 17.2511L3.38867 10.6593C3.38867 9.87807 3.91602 9.35073 4.6875 9.35073L12.2559 9.35073C13.0273 9.35073 13.5645 9.87807 13.5645 10.6593L13.5645 12.0656C14.1602 12.0753 14.5508 12.3097 14.9316 12.671C15.4492 12.1632 16.2109 11.8996 16.9434 12.1339L16.9434 7.16323L0 7.16323L0 19.0871C0 20.4933 0.908203 21.421 2.26562 21.421Z" fill="#000000" fill-opacity="0.85"/>
  <path d="M11.1426 22.2218C11.4355 22.4171 11.8945 22.4074 12.1582 21.9777C12.4414 21.4601 12.6074 20.8546 12.6074 20.2687C12.6074 18.1398 10.9766 17.0949 10.9766 15.5226C10.9766 15.1222 11.0547 14.839 11.2988 14.4289C11.4941 14.0871 11.3379 13.7257 11.0742 13.5597C10.7812 13.3742 10.332 13.4035 10.0977 13.8136C9.79492 14.3214 9.63867 14.9269 9.63867 15.5226C9.63867 17.6124 11.2598 18.6574 11.2598 20.2687C11.2598 20.6691 11.1914 20.9328 10.9473 21.3527C10.7422 21.7042 10.918 22.0656 11.1426 22.2218ZM13.9746 22.2121C14.2871 22.4171 14.7461 22.3878 14.9805 21.9679C15.2734 21.4503 15.4395 20.8546 15.4395 20.2687C15.4395 18.13 13.8086 17.0851 13.8086 15.5128C13.8086 15.1222 13.8867 14.839 14.1211 14.4191C14.3262 14.0773 14.1602 13.7257 13.8965 13.5597C13.6133 13.3839 13.1543 13.4035 12.9199 13.8039C12.627 14.3214 12.4707 14.9171 12.4707 15.5128C12.4707 17.6124 14.0918 18.6476 14.0918 20.2687C14.0918 20.6593 14.0234 20.923 13.7891 21.3429C13.584 21.7042 13.7402 22.0558 13.9746 22.2121ZM16.8066 22.2023C17.1191 22.4074 17.5781 22.3781 17.8125 21.9582C18.1055 21.4406 18.2715 20.8449 18.2715 20.2589C18.2715 18.1203 16.6406 17.0753 16.6406 15.5031C16.6406 15.1124 16.7188 14.8292 16.9531 14.4093C17.1582 14.0675 16.9922 13.716 16.7285 13.5499C16.4355 13.3742 15.9863 13.3937 15.752 13.7941C15.4492 14.3117 15.3027 14.9074 15.3027 15.5031C15.3027 17.6027 16.9238 18.6378 16.9238 20.2589C16.9238 20.6496 16.8555 20.9132 16.6113 21.3332C16.4062 21.6945 16.5723 22.046 16.8066 22.2023Z" fill="#000000" fill-opacity="0.85"/>
 </g>
</svg>
