<?xml version="1.0" encoding="UTF-8"?>
<!--Generator: Apple Native CoreSVG 175.5-->
<!DOCTYPE svg
PUBLIC "-//W3C//DTD SVG 1.1//EN"
       "http://www.w3.org/Graphics/SVG/1.1/DTD/svg11.dtd">
<svg version="1.1" xmlns="http://www.w3.org/2000/svg" xmlns:xlink="http://www.w3.org/1999/xlink" width="15" height="22.7051">
 <g>
  <rect height="22.7051" opacity="0" width="15" x="0" y="0"/>
  <path d="M0 16.4062C0 19.1016 1.67969 20.8203 4.30664 20.8203C6.26953 20.8203 7.73438 19.9609 8.66211 18.3008L9.54102 16.7285C11.6016 12.959 15 12.4707 15 7.62695C15 3.05664 12.041 0 7.60742 0C3.06641 0 0 3.07617 0 7.66602ZM1.47461 16.3086L1.47461 7.66602C1.47461 3.94531 3.92578 1.47461 7.60742 1.47461C11.1621 1.47461 13.5254 3.94531 13.5254 7.62695C13.5254 11.6797 10.3516 12.3828 8.22266 16.0645L7.37305 17.5195C6.67969 18.7305 5.71289 19.3066 4.375 19.3066C2.56836 19.3066 1.47461 18.1738 1.47461 16.3086ZM3.55469 12.6367C3.95508 12.6367 4.29688 12.2949 4.29688 11.8945L4.29688 7.60742C4.29688 5.73242 5.60547 4.49219 7.59766 4.49219C9.49219 4.49219 10.7129 5.72266 10.7129 7.60742C10.7129 8.00781 11.0449 8.34961 11.4453 8.34961C11.8457 8.34961 12.1875 8.00781 12.1875 7.60742C12.1875 4.86328 10.3516 3.01758 7.59766 3.01758C4.74609 3.01758 2.82227 4.86328 2.82227 7.60742L2.82227 11.8945C2.82227 12.2949 3.1543 12.6367 3.55469 12.6367ZM3.47656 9.73633L6.77734 9.73633C7.44141 9.73633 7.86133 10.1367 7.86133 10.7227C7.86133 11.0254 7.70508 11.4355 7.4707 11.7188L6.29883 13.1934C6.17188 13.3594 6.10352 13.5352 6.10352 13.7207C6.10352 14.1211 6.44531 14.4531 6.8457 14.4531C7.07031 14.4531 7.28516 14.3359 7.45117 14.1309L8.7207 12.5195C9.12109 12.0117 9.38477 11.2695 9.38477 10.6641C9.38477 9.22852 8.33984 8.26172 6.75781 8.26172L3.47656 8.26172Z" fill="#000000" fill-opacity="0.85"/>
 </g>
</svg>
