<?xml version="1.0" encoding="UTF-8"?>
<!--Generator: Apple Native CoreSVG 175.5-->
<!DOCTYPE svg
PUBLIC "-//W3C//DTD SVG 1.1//EN"
       "http://www.w3.org/Graphics/SVG/1.1/DTD/svg11.dtd">
<svg version="1.1" xmlns="http://www.w3.org/2000/svg" xmlns:xlink="http://www.w3.org/1999/xlink" width="21.5625" height="16.8457">
 <g>
  <rect height="16.8457" opacity="0" width="21.5625" x="0" y="0"/>
  <path d="M3.06641 16.8457L18.7891 16.8457C20.5469 16.8457 21.5625 15.8301 21.5625 13.8184L21.5625 3.03711C21.5625 1.03516 20.5371 0.0195312 18.4961 0.0195312L2.77344 0.0195312C1.01562 0.0195312 0 1.02539 0 3.03711L0 13.8184C0 15.8398 1.02539 16.8457 3.06641 16.8457ZM3.00781 15.3516C2.03125 15.3516 1.49414 14.834 1.49414 13.8184L1.49414 3.03711C1.49414 2.03125 2.03125 1.51367 3.00781 1.51367L18.5547 1.51367C19.5117 1.51367 20.0684 2.03125 20.0684 3.04688L20.0684 13.8281C20.0684 14.834 19.5117 15.3516 18.5547 15.3516ZM10.8008 11.0352C11.4844 11.0352 12.1484 10.752 12.832 10.0781L20.7617 2.28516L19.7461 1.25977L11.9824 8.92578C11.5625 9.3457 11.1816 9.53125 10.8008 9.53125C10.4102 9.53125 10.0293 9.33594 9.61914 8.92578L1.81641 1.2207L0.791016 2.24609L8.76953 10.0781C9.45312 10.752 10.1074 11.0352 10.8008 11.0352ZM19.6484 15.5664L20.6641 14.541L14.3457 8.30078L13.3301 9.31641ZM0.927734 14.5508L1.94336 15.5762L8.27148 9.31641L7.24609 8.30078Z" fill="#000000" fill-opacity="0.85"/>
 </g>
</svg>
