<?xml version="1.0" encoding="UTF-8"?>
<!--Generator: Apple Native CoreSVG 175.5-->
<!DOCTYPE svg
PUBLIC "-//W3C//DTD SVG 1.1//EN"
       "http://www.w3.org/Graphics/SVG/1.1/DTD/svg11.dtd">
<svg version="1.1" xmlns="http://www.w3.org/2000/svg" xmlns:xlink="http://www.w3.org/1999/xlink" width="21.5625" height="24.8145">
 <g>
  <rect height="24.8145" opacity="0" width="21.5625" x="0" y="0"/>
  <path d="M0.224609 20.5078L6.52344 14.2969L1.24023 9.16016C1.03516 8.94531 1.03516 8.70117 1.24023 8.54492L9.59961 2.08008C10.1074 1.68945 10.3809 1.49414 10.7812 1.49414C11.1816 1.49414 11.4453 1.68945 11.9629 2.08008L20.3223 8.54492C20.5273 8.70117 20.5273 8.95508 20.3223 9.16016L15.0684 14.2969L21.3379 20.4883C21.4844 20.2148 21.5625 19.7461 21.5625 19.082L21.5625 9.17969C21.5625 8.14453 21.3867 7.62695 20.6641 7.03125L12.793 0.927734C12.0703 0.361328 11.5039 0 10.7812 0C10.0586 0 9.49219 0.361328 8.76953 0.927734L0.888672 7.03125C0.185547 7.61719 0 8.14453 0 9.17969L0 19.082C0 19.7656 0.078125 20.2344 0.224609 20.5078ZM2.77344 22.1094L18.4961 22.1094C19.4629 22.1094 20.1367 21.9336 20.498 21.582L12.002 13.1836C11.5723 12.7539 11.2012 12.5684 10.8008 12.5684C10.3906 12.5684 10.0195 12.7539 9.59961 13.1836L1.04492 21.6309C1.37695 21.9531 1.95312 22.1094 2.77344 22.1094Z" fill="#000000" fill-opacity="0.85"/>
 </g>
</svg>
