<?xml version="1.0" encoding="UTF-8"?>
<!--Generator: Apple Native CoreSVG 175.5-->
<!DOCTYPE svg
PUBLIC "-//W3C//DTD SVG 1.1//EN"
       "http://www.w3.org/Graphics/SVG/1.1/DTD/svg11.dtd">
<svg version="1.1" xmlns="http://www.w3.org/2000/svg" xmlns:xlink="http://www.w3.org/1999/xlink" width="21.5625" height="24.5997">
 <g>
  <rect height="24.5997" opacity="0" width="21.5625" x="0" y="0"/>
  <path d="M3.06641 21.9727L18.7891 21.9727C20.5469 21.9727 21.5625 20.9571 21.5625 18.9454L21.5625 9.21879C21.5625 7.20707 20.5371 6.19144 18.4961 6.19144L12.9102 6.19144L12.9102 7.68558L18.5547 7.68558C19.5117 7.68558 20.0684 8.20316 20.0684 9.21879L20.0684 18.9454C20.0684 19.9512 19.5117 20.4786 18.5547 20.4786L3.00781 20.4786C2.03125 20.4786 1.49414 19.9512 1.49414 18.9356L1.49414 9.20902C1.49414 8.20316 2.03125 7.68558 3.00781 7.68558L8.69141 7.68558L8.69141 6.19144L2.77344 6.19144C1.01562 6.19144 0 7.1973 0 9.21879L0 18.9454C0 20.9571 1.02539 21.9727 3.06641 21.9727ZM10.8008 16.3672C11.4844 16.3672 12.0996 16.0547 12.832 15.42L20.7617 8.45707L19.7461 7.44144L11.9824 14.2676C11.5234 14.6582 11.1816 14.8633 10.8008 14.8633C10.4102 14.8633 10.0391 14.6387 9.61914 14.2676L1.81641 7.40238L0.791016 8.41801L8.76953 15.42C9.49219 16.0547 10.1074 16.3672 10.8008 16.3672ZM19.6484 20.6934L20.6641 19.668L14.4434 13.5157L13.4277 14.5313ZM1.94336 20.7032L8.1543 14.5508L7.13867 13.5352L0.927734 19.6778Z" fill="#000000" fill-opacity="0.85"/>
  <path d="M3.75977 2.24613L5.77148 4.35551C6.20117 4.78519 6.66016 4.65824 6.76758 4.08207L6.96289 3.03715C9.0332 3.38871 10.0195 4.63871 10.0195 6.15238L10.0195 10.6934C10.0195 11.2012 10.332 11.5332 10.8008 11.5332C11.2695 11.5332 11.5723 11.2012 11.5723 10.6934L11.5723 6.15238C11.5723 4.63871 12.5684 3.38871 14.6387 3.03715L14.834 4.08207C14.9414 4.65824 15.4004 4.78519 15.8203 4.35551L17.8418 2.24613C18.1836 1.90433 18.0859 1.47465 17.6465 1.26957L14.9902 0.0879287C14.4434-0.156212 14.082 0.126991 14.1895 0.703163L14.3848 1.72855C12.8613 2.03129 11.1719 3.01762 10.8008 4.12113C10.4297 3.01762 8.74023 2.03129 7.2168 1.72855L7.41211 0.703163C7.51953 0.126991 7.1582-0.156212 6.60156 0.0879287L3.95508 1.26957C3.51562 1.47465 3.41797 1.90433 3.75977 2.24613Z" fill="#000000" fill-opacity="0.85"/>
 </g>
</svg>
