<?xml version="1.0" encoding="UTF-8"?>
<!--Generator: Apple Native CoreSVG 175.5-->
<!DOCTYPE svg
PUBLIC "-//W3C//DTD SVG 1.1//EN"
       "http://www.w3.org/Graphics/SVG/1.1/DTD/svg11.dtd">
<svg version="1.1" xmlns="http://www.w3.org/2000/svg" xmlns:xlink="http://www.w3.org/1999/xlink" width="23.5039" height="18.1984">
 <g>
  <rect height="18.1984" opacity="0" width="23.5039" x="0" y="0"/>
  <path d="M1.03321 13.3717L4.23634 16.4674C5.53516 17.7174 7.10743 17.7467 8.34766 16.5064L9.3047 15.5396L1.85352 8.24472L0.916023 9.18222C-0.324211 10.4225-0.324211 12.0631 1.03321 13.3717ZM2.77149 7.32675L10.2227 14.6314L16.9414 7.90292C17.7617 7.08261 17.752 5.95956 16.9121 5.13925L12.2832 0.617764C11.4531-0.192783 10.3399-0.212314 9.51954 0.598233Z" fill="#000000" fill-opacity="0.85"/>
  <path d="M9.69532 17.0142L15.1348 17.0142C15.5645 17.0142 15.916 16.6627 15.916 16.233C15.916 15.8033 15.5645 15.442 15.1348 15.442L11.2774 15.442ZM18.0449 17.0142L22.7227 17.0142C23.1524 17.0142 23.5039 16.6627 23.5039 16.233C23.5039 15.8033 23.1524 15.442 22.7227 15.442L18.0449 15.442C17.6152 15.442 17.2637 15.8033 17.2637 16.233C17.2637 16.6627 17.6152 17.0142 18.0449 17.0142Z" fill="#000000" fill-opacity="0.85"/>
 </g>
</svg>
