<?xml version="1.0" encoding="UTF-8"?>
<!--Generator: Apple Native CoreSVG 175.5-->
<!DOCTYPE svg
PUBLIC "-//W3C//DTD SVG 1.1//EN"
       "http://www.w3.org/Graphics/SVG/1.1/DTD/svg11.dtd">
<svg version="1.1" xmlns="http://www.w3.org/2000/svg" xmlns:xlink="http://www.w3.org/1999/xlink" width="23.8839" height="19.9316">
 <g>
  <rect height="19.9316" opacity="0" width="23.8839" x="0" y="0"/>
  <path d="M0.19663 9.99023C-0.184229 10.5273-0.00844799 11.0059 0.694677 11.0059L2.04233 11.0059C2.56968 15.9766 6.85679 19.9219 11.9447 19.9219C14.9232 19.9219 17.6185 18.5645 19.4544 16.4551C19.8158 16.0352 19.7669 15.5078 19.3861 15.2344C19.0052 14.9609 18.5365 15.0586 18.224 15.4199C16.7103 17.168 14.4642 18.2617 11.9447 18.2617C7.68686 18.2617 4.22007 15.1074 3.72202 11.0059L5.1771 11.0059C5.87046 11.0059 6.04624 10.5273 5.67515 10L3.48765 6.88477C3.17515 6.43555 2.7064 6.42578 2.38413 6.88477ZM4.44468 3.4668C4.07358 3.88672 4.12241 4.4043 4.51304 4.67773C4.8939 4.95117 5.35288 4.86328 5.67515 4.50195C7.19858 2.76367 9.44468 1.66016 11.9447 1.66016C16.1927 1.66016 19.6595 4.81445 20.1673 8.92578L18.7123 8.92578C18.0189 8.92578 17.8431 9.39453 18.2142 9.93164L20.4017 13.0469C20.7142 13.4961 21.183 13.5059 21.5052 13.0469L23.683 9.94141C24.0736 9.39453 23.888 8.92578 23.1849 8.92578L21.847 8.92578C21.3099 3.95508 17.0326 0 11.9447 0C8.96616 0 6.28061 1.34766 4.44468 3.4668Z" fill="#000000" fill-opacity="0.85"/>
  <path d="M11.9447 11.7188C12.4134 11.7188 12.6869 11.4551 12.6966 10.9473L12.8333 5.79102C12.8431 5.29297 12.4525 4.92188 11.9349 4.92188C11.4076 4.92188 11.0365 5.2832 11.0462 5.78125L11.183 10.9473C11.1927 11.4453 11.4564 11.7188 11.9447 11.7188ZM11.9447 14.8926C12.5111 14.8926 12.9994 14.4434 12.9994 13.877C12.9994 13.3105 12.5208 12.8613 11.9447 12.8613C11.3685 12.8613 10.89 13.3203 10.89 13.877C10.89 14.4336 11.3783 14.8926 11.9447 14.8926Z" fill="#000000" fill-opacity="0.85"/>
 </g>
</svg>
