<?xml version="1.0" encoding="UTF-8"?>
<!--Generator: Apple Native CoreSVG 175.5-->
<!DOCTYPE svg
PUBLIC "-//W3C//DTD SVG 1.1//EN"
       "http://www.w3.org/Graphics/SVG/1.1/DTD/svg11.dtd">
<svg version="1.1" xmlns="http://www.w3.org/2000/svg" xmlns:xlink="http://www.w3.org/1999/xlink" width="24.5508" height="18.5645">
 <g>
  <rect height="18.5645" opacity="0" width="24.5508" x="0" y="0"/>
  <path d="M19.2969 16.9727C22.2461 16.9727 24.5508 14.8145 24.5508 12.1289C24.5508 10.0781 23.3691 8.30078 21.4648 7.5C21.4844 3.14453 18.3496 0 14.3555 0C11.709 0 9.82422 1.41602 8.65234 3.125C6.25 2.42188 3.63281 4.24805 3.58398 6.98242C1.37695 7.33398 0 9.30664 0 11.6895C0 14.5605 2.50977 16.9727 5.84961 16.9727Z" fill="#000000" fill-opacity="0.85"/>
  <path d="M12.2852 10.5273C11.7773 10.5273 11.4844 10.2344 11.4648 9.70703L11.3379 5.41016C11.3184 4.88281 11.7188 4.49219 12.2754 4.49219C12.8223 4.49219 13.252 4.89258 13.2324 5.41992L13.0859 9.70703C13.0664 10.2441 12.7832 10.5273 12.2852 10.5273ZM12.2754 14.1309C11.7188 14.1309 11.1816 13.6816 11.1816 13.0762C11.1816 12.4707 11.709 12.0215 12.2754 12.0215C12.8516 12.0215 13.3691 12.4609 13.3691 13.0762C13.3691 13.6914 12.8418 14.1309 12.2754 14.1309Z" fill="#ffffff"/>
 </g>
</svg>
