<?xml version="1.0" encoding="UTF-8"?>
<!--Generator: Apple Native CoreSVG 175.5-->
<!DOCTYPE svg
PUBLIC "-//W3C//DTD SVG 1.1//EN"
       "http://www.w3.org/Graphics/SVG/1.1/DTD/svg11.dtd">
<svg version="1.1" xmlns="http://www.w3.org/2000/svg" xmlns:xlink="http://www.w3.org/1999/xlink" width="20.7031" height="22.4707">
 <g>
  <rect height="22.4707" opacity="0" width="20.7031" x="0" y="0"/>
  <path d="M0 11.7383C0 14.043 1.78711 15.752 4.21875 15.752L16.4844 15.752C18.916 15.752 20.7031 14.043 20.7031 11.7383C20.7031 11.084 20.5176 10.4785 20.293 9.92188L17.3535 2.89062C16.7773 1.49414 15.5957 0.732422 13.9648 0.732422L6.73828 0.732422C5.11719 0.732422 3.92578 1.49414 3.33984 2.89062L0.410156 9.92188C0.175781 10.498 0 11.0938 0 11.7383ZM3.02734 7.91992L4.85352 3.31055C5.16602 2.51953 5.83984 2.10938 6.81641 2.10938L13.8965 2.10938C14.873 2.10938 15.5469 2.51953 15.8594 3.31055L17.6855 7.91992C17.3047 7.79297 16.9043 7.73438 16.4844 7.73438L4.21875 7.73438C3.79883 7.73438 3.39844 7.79297 3.02734 7.91992ZM1.55273 11.7383C1.55273 10.3027 2.64648 9.28711 4.21875 9.28711L16.4844 9.28711C18.0566 9.28711 19.1504 10.3027 19.1504 11.7383C19.1504 13.2715 18.1543 14.1895 16.4844 14.1895L4.21875 14.1895C2.64648 14.1895 1.55273 13.1738 1.55273 11.7383ZM15.3125 11.7383C15.3125 12.3828 15.8301 12.9004 16.4746 12.9004C17.0996 12.8906 17.627 12.373 17.627 11.7383C17.627 11.123 17.0898 10.5859 16.4746 10.5859C15.8496 10.5859 15.3125 11.123 15.3125 11.7383ZM9.39453 20.2539L10.9668 20.2539L10.9668 14.7559L9.39453 14.7559ZM2.06055 21.0352L18.3008 21.0352C18.7305 21.0352 19.0918 20.6836 19.0918 20.2539C19.0918 19.8145 18.7305 19.4629 18.3008 19.4629L2.06055 19.4629C1.63086 19.4629 1.2793 19.8145 1.2793 20.2539C1.2793 20.6836 1.63086 21.0352 2.06055 21.0352ZM10.1855 22.4707C11.3867 22.4707 12.3926 21.4746 12.3926 20.2637C12.3926 19.0527 11.3867 18.0566 10.1855 18.0566C8.97461 18.0566 7.97852 19.0527 7.97852 20.2637C7.97852 21.4746 8.97461 22.4707 10.1855 22.4707Z" fill="#000000" fill-opacity="0.85"/>
 </g>
</svg>
