<?xml version="1.0" encoding="UTF-8"?>
<!--Generator: Apple Native CoreSVG 175.5-->
<!DOCTYPE svg
PUBLIC "-//W3C//DTD SVG 1.1//EN"
       "http://www.w3.org/Graphics/SVG/1.1/DTD/svg11.dtd">
<svg version="1.1" xmlns="http://www.w3.org/2000/svg" xmlns:xlink="http://www.w3.org/1999/xlink" width="19.9219" height="19.9316">
 <g>
  <rect height="19.9316" opacity="0" width="19.9219" x="0" y="0"/>
  <path d="M9.96094 19.9219C15.4102 19.9219 19.9219 15.4004 19.9219 9.96094C19.9219 4.51172 15.4004 0 9.95117 0C4.51172 0 0 4.51172 0 9.96094C0 15.4004 4.52148 19.9219 9.96094 19.9219ZM9.96094 18.2617C5.35156 18.2617 1.66992 14.5703 1.66992 9.96094C1.66992 5.35156 5.3418 1.66016 9.95117 1.66016C14.5605 1.66016 18.2617 5.35156 18.2617 9.96094C18.2617 14.5703 14.5703 18.2617 9.96094 18.2617Z" fill="#000000" fill-opacity="0.85"/>
  <path d="M12.207 13.8867L10.8984 12.5879C10.6055 12.7051 10.293 12.7734 9.95117 12.7734C8.38867 12.7734 7.13867 11.4941 7.13867 9.9707C7.13867 9.62891 7.19727 9.29688 7.31445 9.01367L5.45898 7.13867C3.99414 8.14453 3.11523 9.4043 3.11523 9.9707C3.11523 10.9863 5.9668 14.248 9.95117 14.248C10.752 14.248 11.5137 14.1113 12.207 13.8867ZM9.73633 11.4258L8.47656 10.166C8.45703 10.8203 9.0332 11.4355 9.73633 11.4258ZM12.5781 10.9082L14.4531 12.793C15.9082 11.7871 16.7773 10.5273 16.7773 9.9707C16.7773 8.94531 13.9746 5.68359 9.95117 5.68359C9.15039 5.68359 8.4082 5.82031 7.71484 6.04492L9.00391 7.33398C9.29688 7.22656 9.61914 7.1582 9.95117 7.1582C11.5039 7.1582 12.7637 8.39844 12.7637 9.9707C12.7637 10.293 12.6953 10.6152 12.5781 10.9082ZM10.166 8.49609L11.4062 9.73633C11.4062 9.0918 10.8594 8.49609 10.166 8.49609ZM14.5508 15.1855C14.7168 15.3516 15.0098 15.3516 15.1758 15.1855C15.3516 15.0098 15.3516 14.7363 15.1758 14.5605L5.33203 4.7168C5.15625 4.54102 4.88281 4.54102 4.69727 4.7168C4.53125 4.89258 4.53125 5.17578 4.69727 5.3418Z" fill="#000000" fill-opacity="0.85"/>
 </g>
</svg>
