<?xml version="1.0" encoding="UTF-8"?>
<!--Generator: Apple Native CoreSVG 175.5-->
<!DOCTYPE svg
PUBLIC "-//W3C//DTD SVG 1.1//EN"
       "http://www.w3.org/Graphics/SVG/1.1/DTD/svg11.dtd">
<svg version="1.1" xmlns="http://www.w3.org/2000/svg" xmlns:xlink="http://www.w3.org/1999/xlink" width="19.9219" height="19.9316">
 <g>
  <rect height="19.9316" opacity="0" width="19.9219" x="0" y="0"/>
  <path d="M9.96094 19.9316C15.4102 19.9316 19.9219 15.4199 19.9219 9.9707C19.9219 4.53125 15.4004 0.00976562 9.95117 0.00976562C4.51172 0.00976562 0 4.53125 0 9.9707C0 15.4199 4.52148 19.9316 9.96094 19.9316Z" fill="#000000" fill-opacity="0.85"/>
  <path d="M12.2852 14.0234C11.5723 14.248 10.7812 14.3945 9.96094 14.3945C5.84961 14.3945 2.91016 11.0254 2.91016 9.98047C2.91016 9.39453 3.81836 8.10547 5.32227 7.06055L7.23633 8.99414C7.11914 9.29688 7.06055 9.62891 7.06055 9.98047C7.06055 11.5527 8.34961 12.8711 9.96094 12.8711C10.3125 12.8711 10.6348 12.8027 10.9375 12.6855ZM9.73633 11.4844C9.01367 11.4941 8.41797 10.8594 8.4375 10.1953ZM12.6758 10.957C12.793 10.6445 12.8613 10.3223 12.8613 9.98047C12.8613 8.36914 11.5625 7.08984 9.96094 7.08984C9.61914 7.08984 9.28711 7.14844 8.98438 7.25586L7.65625 5.92773C8.36914 5.70312 9.14062 5.56641 9.96094 5.56641C14.1113 5.56641 17.002 8.92578 17.002 9.98047C17.002 10.5566 16.1035 11.8555 14.6094 12.8906ZM10.1855 8.45703C10.8984 8.45703 11.4648 9.07227 11.4648 9.73633ZM14.6973 15.3613L4.54102 5.22461C4.375 5.03906 4.375 4.74609 4.54102 4.57031C4.73633 4.38477 5.01953 4.38477 5.20508 4.57031L15.3516 14.707C15.5273 14.8926 15.5273 15.1758 15.3516 15.3613C15.1758 15.5371 14.873 15.5273 14.6973 15.3613Z" fill="#ffffff"/>
 </g>
</svg>
