<?xml version="1.0" encoding="UTF-8"?>
<!--Generator: Apple Native CoreSVG 175.5-->
<!DOCTYPE svg
PUBLIC "-//W3C//DTD SVG 1.1//EN"
       "http://www.w3.org/Graphics/SVG/1.1/DTD/svg11.dtd">
<svg version="1.1" xmlns="http://www.w3.org/2000/svg" xmlns:xlink="http://www.w3.org/1999/xlink" width="29.8535" height="15.0098">
 <g>
  <rect height="15.0098" opacity="0" width="29.8535" x="0" y="0"/>
  <path d="M0 6.41602C0 9.56055 2.28516 11.7578 5.71289 11.7578L6.34766 11.7578L6.34766 10.1855L5.55664 10.1855C3.18359 10.1855 1.57227 8.60352 1.57227 6.41602C1.57227 5.33203 2.14844 4.66797 3.19336 4.66797L5.94727 4.66797L5.94727 3.0957L3.19336 3.0957C1.17188 3.0957 0 4.3457 0 6.41602ZM29.8535 6.41602C29.8535 4.3457 28.6914 3.0957 26.6602 3.0957L23.9062 3.0957L23.9062 4.66797L26.6602 4.66797C27.7051 4.66797 28.2812 5.33203 28.2812 6.41602C28.2812 8.60352 26.6699 10.1855 24.2969 10.1855L23.5059 10.1855L23.5059 11.7578L24.1504 11.7578C27.5684 11.7578 29.8535 9.56055 29.8535 6.41602Z" fill="#000000" fill-opacity="0.85"/>
  <path d="M14.9316 14.9805C20.7227 14.9805 24.8438 12.7246 24.8438 9.41406L24.8438 4.53125C24.8438 1.60156 21.3379 0 14.9316 0C8.51562 0 5.00977 1.60156 5.00977 4.53125L5.00977 9.41406C5.00977 12.7246 9.13086 14.9805 14.9316 14.9805Z" fill="#000000" fill-opacity="0.85"/>
  <path d="M9.63867 5.39062C9.63867 4.95117 10 4.58008 10.4492 4.58008L19.4141 4.58008C19.873 4.58008 20.2344 4.95117 20.2344 5.39062C20.2344 5.83984 19.873 6.21094 19.4141 6.21094L10.4492 6.21094C10 6.21094 9.63867 5.83984 9.63867 5.39062ZM9.63867 9.16016C9.63867 8.71094 10 8.33984 10.4492 8.33984L19.4141 8.33984C19.873 8.33984 20.2344 8.71094 20.2344 9.16016C20.2344 9.60938 19.873 9.9707 19.4141 9.9707L10.4492 9.9707C10 9.9707 9.63867 9.60938 9.63867 9.16016Z" fill="#ffffff"/>
 </g>
</svg>
