<?xml version="1.0" encoding="UTF-8"?>
<!--Generator: Apple Native CoreSVG 175.5-->
<!DOCTYPE svg
PUBLIC "-//W3C//DTD SVG 1.1//EN"
       "http://www.w3.org/Graphics/SVG/1.1/DTD/svg11.dtd">
<svg version="1.1" xmlns="http://www.w3.org/2000/svg" xmlns:xlink="http://www.w3.org/1999/xlink" width="21.9434" height="21.3574">
 <g>
  <rect height="21.3574" opacity="0" width="21.9434" x="0" y="0"/>
  <path d="M3.86719 2.63672L18.0762 2.63672L18.0762 2.4707C18.0762 1.02539 16.9531 0.380859 15.3711 0.380859L6.57227 0.380859C5.05859 0.380859 3.86719 1.02539 3.86719 2.4707ZM5.44922 21.3574L16.4941 21.3574C17.7344 21.3574 18.3594 20.791 18.3594 19.4922L18.3594 17.6172L19.0332 17.6172C20.9375 17.6172 21.9434 16.6602 21.9434 14.7559L21.9434 6.80664C21.9434 4.90234 20.9375 3.93555 19.0332 3.93555L2.90039 3.93555C1.10352 3.93555 0 4.90234 0 6.80664L0 14.7559C0 16.6602 1.00586 17.6172 2.90039 17.6172L3.58398 17.6172L3.58398 19.4922C3.58398 20.791 4.20898 21.3574 5.44922 21.3574ZM5.60547 8.50586C5.32227 8.50586 5.14648 8.33008 5.14648 8.04688L5.14648 7.12891C5.14648 6.8457 5.32227 6.67969 5.60547 6.67969L6.5332 6.67969C6.80664 6.67969 6.97266 6.8457 6.97266 7.12891L6.97266 8.04688C6.97266 8.33008 6.80664 8.50586 6.5332 8.50586ZM8.90625 8.50586C8.63281 8.50586 8.4668 8.33008 8.4668 8.04688L8.4668 7.12891C8.4668 6.8457 8.63281 6.67969 8.90625 6.67969L9.83398 6.67969C10.1172 6.67969 10.293 6.8457 10.293 7.12891L10.293 8.04688C10.293 8.33008 10.1172 8.50586 9.83398 8.50586ZM12.2266 8.50586C11.9434 8.50586 11.7676 8.33008 11.7676 8.04688L11.7676 7.12891C11.7676 6.8457 11.9434 6.67969 12.2266 6.67969L13.1445 6.67969C13.4277 6.67969 13.5938 6.8457 13.5938 7.12891L13.5938 8.04688C13.5938 8.33008 13.4277 8.50586 13.1445 8.50586ZM15.5273 8.50586C15.2441 8.50586 15.0781 8.33008 15.0781 8.04688L15.0781 7.12891C15.0781 6.8457 15.2441 6.67969 15.5273 6.67969L16.4551 6.67969C16.7285 6.67969 16.9043 6.8457 16.9043 7.12891L16.9043 8.04688C16.9043 8.33008 16.7285 8.50586 16.4551 8.50586ZM5.60547 11.8848C5.32227 11.8848 5.14648 11.7188 5.14648 11.4453L5.14648 10.5176C5.14648 10.2344 5.32227 10.0586 5.60547 10.0586L6.5332 10.0586C6.80664 10.0586 6.97266 10.2344 6.97266 10.5176L6.97266 11.4453C6.97266 11.7188 6.80664 11.8848 6.5332 11.8848ZM8.90625 11.8848C8.63281 11.8848 8.4668 11.7188 8.4668 11.4453L8.4668 10.5176C8.4668 10.2344 8.63281 10.0586 8.90625 10.0586L9.83398 10.0586C10.1172 10.0586 10.293 10.2344 10.293 10.5176L10.293 11.4453C10.293 11.7188 10.1172 11.8848 9.83398 11.8848ZM12.2266 11.8848C11.9434 11.8848 11.7676 11.7188 11.7676 11.4453L11.7676 10.5176C11.7676 10.2344 11.9434 10.0586 12.2266 10.0586L13.1445 10.0586C13.4277 10.0586 13.5938 10.2344 13.5938 10.5176L13.5938 11.4453C13.5938 11.7188 13.4277 11.8848 13.1445 11.8848ZM15.5273 11.8848C15.2441 11.8848 15.0781 11.7188 15.0781 11.4453L15.0781 10.5176C15.0781 10.2344 15.2441 10.0586 15.5273 10.0586L16.4551 10.0586C16.7285 10.0586 16.9043 10.2344 16.9043 10.5176L16.9043 11.4453C16.9043 11.7188 16.7285 11.8848 16.4551 11.8848ZM5.9375 19.8828C5.41016 19.8828 5.15625 19.6289 5.15625 19.1016L5.15625 15.7617C5.15625 15.2441 5.41992 14.9902 5.9375 14.9902L16.0156 14.9902C16.5332 14.9902 16.7871 15.2441 16.7871 15.7617L16.7871 19.1016C16.7871 19.6289 16.5332 19.8828 16.0156 19.8828ZM7.70508 18.1738L14.3652 18.1738C14.7754 18.1738 15.0977 17.8418 15.0977 17.4219C15.0977 17.0215 14.7754 16.6895 14.3652 16.6895L7.70508 16.6895C7.28516 16.6895 6.96289 17.0215 6.96289 17.4219C6.96289 17.8418 7.28516 18.1738 7.70508 18.1738Z" fill="#000000" fill-opacity="0.85"/>
 </g>
</svg>
