<?xml version="1.0" encoding="UTF-8"?>
<!--Generator: Apple Native CoreSVG 175.5-->
<!DOCTYPE svg
PUBLIC "-//W3C//DTD SVG 1.1//EN"
       "http://www.w3.org/Graphics/SVG/1.1/DTD/svg11.dtd">
<svg version="1.1" xmlns="http://www.w3.org/2000/svg" xmlns:xlink="http://www.w3.org/1999/xlink" width="19.9219" height="19.9316">
 <g>
  <rect height="19.9316" opacity="0" width="19.9219" x="0" y="0"/>
  <path d="M9.96094 19.9219C15.4102 19.9219 19.9219 15.4004 19.9219 9.96094C19.9219 4.51172 15.4004 0 9.95117 0C4.51172 0 0 4.51172 0 9.96094C0 15.4004 4.52148 19.9219 9.96094 19.9219Z" fill="#000000" fill-opacity="0.85"/>
  <path d="M5.84961 16.1719C5.55664 16.1719 5.3125 15.9277 5.3125 15.625C5.3125 15.4688 5.39062 15.3223 5.51758 15.1953L7.5293 13.1934L9.14062 7.5C9.19922 7.28516 9.0625 7.12891 8.83789 7.13867L7.88086 7.1875L7.64648 8.93555C7.59766 9.28711 7.39258 9.48242 7.07031 9.44336C6.72852 9.42383 6.54297 9.17969 6.5918 8.81836L6.875 6.66992C6.92383 6.32812 7.13867 6.12305 7.45117 6.10352L9.83398 5.91797C10.8105 5.84961 11.4648 6.13281 11.9824 6.85547L13.0664 8.38867L14.6387 7.70508C14.9512 7.56836 15.2246 7.64648 15.3516 7.92969C15.498 8.21289 15.3809 8.47656 15.0488 8.61328L13.0566 9.50195C12.8125 9.60938 12.5488 9.54102 12.4121 9.32617L11.8359 8.48633C11.6895 8.26172 11.4258 8.31055 11.3574 8.55469L10.9277 10.0879L13.125 11.5039C13.3496 11.6504 13.4473 11.8164 13.4473 11.9922C13.4473 12.1777 13.3887 12.3047 13.2324 12.4316L11.1914 14.1602C11.0059 14.3457 10.8496 14.4141 10.6543 14.4141C10.3711 14.4141 10.1465 14.1699 10.1465 13.877C10.1465 13.7012 10.2344 13.5352 10.3906 13.418L11.9141 12.0996L10.2441 11.1328C9.89258 10.9277 9.57031 11.0156 9.44336 11.3574L8.58398 13.584C8.49609 13.8086 8.4668 13.8477 8.29102 14.0039L6.39648 15.8887C6.19141 16.0742 6.05469 16.1719 5.84961 16.1719ZM11.6211 5.63477C10.9277 5.63477 10.3516 5.05859 10.3516 4.35547C10.3516 3.64258 10.9082 3.06641 11.6211 3.06641C12.334 3.06641 12.9102 3.64258 12.9102 4.35547C12.9102 5.04883 12.3242 5.63477 11.6211 5.63477Z" fill="#ffffff"/>
 </g>
</svg>
