<?xml version="1.0" encoding="UTF-8"?>
<!--Generator: Apple Native CoreSVG 175.5-->
<!DOCTYPE svg
PUBLIC "-//W3C//DTD SVG 1.1//EN"
       "http://www.w3.org/Graphics/SVG/1.1/DTD/svg11.dtd">
<svg version="1.1" xmlns="http://www.w3.org/2000/svg" xmlns:xlink="http://www.w3.org/1999/xlink" width="29.502" height="19.8535">
 <g>
  <rect height="19.8535" opacity="0" width="29.502" x="0" y="0"/>
  <path d="M0 11.9434C0 12.373 0.351562 12.7246 0.78125 12.7246C1.2207 12.7246 1.57227 12.373 1.57227 11.9434L1.57227 8.52539C1.57227 8.36914 1.69922 8.24219 1.85547 8.24219C2.02148 8.24219 2.14844 8.36914 2.14844 8.52539L2.14844 18.8574C2.14844 19.3359 2.5293 19.7168 3.00781 19.7168C3.49609 19.7168 3.87695 19.3359 3.87695 18.8574L3.87695 12.5684C3.87695 12.4121 4.01367 12.2754 4.16992 12.2754C4.33594 12.2754 4.47266 12.4121 4.47266 12.5684L4.47266 18.8574C4.47266 19.3359 4.85352 19.7168 5.33203 19.7168C5.81055 19.7168 6.20117 19.3359 6.20117 18.8574L6.20117 8.52539C6.20117 8.36914 6.32812 8.24219 6.48438 8.24219C6.64062 8.24219 6.77734 8.36914 6.77734 8.52539L6.77734 11.9434C6.77734 12.373 7.11914 12.7246 7.55859 12.7246C7.99805 12.7246 8.33984 12.373 8.33984 11.9434L8.33984 8.125C8.33984 6.16211 6.91406 4.87305 4.81445 4.87305L3.53516 4.87305C1.43555 4.87305 0 6.16211 0 8.125ZM4.16992 3.85742C5.24414 3.85742 6.10352 2.99805 6.10352 1.92383C6.10352 0.859375 5.24414 0 4.16992 0C3.10547 0 2.24609 0.859375 2.24609 1.92383C2.24609 2.99805 3.10547 3.85742 4.16992 3.85742ZM21.1621 11.9434C21.1621 12.373 21.5137 12.7246 21.9434 12.7246C22.3828 12.7246 22.7344 12.373 22.7344 11.9434L22.7344 8.52539C22.7344 8.36914 22.8613 8.24219 23.0176 8.24219C23.1836 8.24219 23.3105 8.36914 23.3105 8.52539L23.3105 18.8574C23.3105 19.3359 23.6914 19.7168 24.1699 19.7168C24.6484 19.7168 25.0391 19.3359 25.0391 18.8574L25.0391 12.5684C25.0391 12.4121 25.1758 12.2754 25.332 12.2754C25.4883 12.2754 25.6348 12.4121 25.6348 12.5684L25.6348 18.8574C25.6348 19.3359 26.0156 19.7168 26.4941 19.7168C26.9727 19.7168 27.3535 19.3359 27.3535 18.8574L27.3535 8.52539C27.3535 8.36914 27.4902 8.24219 27.6465 8.24219C27.8027 8.24219 27.9297 8.36914 27.9297 8.52539L27.9297 11.9434C27.9297 12.373 28.2812 12.7246 28.7207 12.7246C29.1602 12.7246 29.502 12.373 29.502 11.9434L29.502 8.125C29.502 6.16211 28.0762 4.87305 25.9766 4.87305L24.6875 4.87305C22.5977 4.87305 21.1621 6.16211 21.1621 8.125ZM25.332 3.85742C26.4062 3.85742 27.2656 2.99805 27.2656 1.92383C27.2656 0.859375 26.4062 0 25.332 0C24.2676 0 23.4082 0.859375 23.4082 1.92383C23.4082 2.99805 24.2676 3.85742 25.332 3.85742Z" fill="#000000" fill-opacity="0.85"/>
  <path d="M10.8887 11.2109C11.6016 11.2109 12.1777 10.6348 12.1777 9.92188C12.1777 9.19922 11.6016 8.63281 10.8887 8.63281C10.166 8.63281 9.58984 9.19922 9.58984 9.92188C9.58984 10.6348 10.166 11.2109 10.8887 11.2109ZM14.7754 11.2109C15.4883 11.2109 16.0645 10.6348 16.0645 9.92188C16.0645 9.19922 15.4883 8.63281 14.7754 8.63281C14.0527 8.63281 13.4863 9.19922 13.4863 9.92188C13.4863 10.6348 14.0527 11.2109 14.7754 11.2109ZM18.6523 11.2109C19.3652 11.2109 19.9414 10.6348 19.9414 9.92188C19.9414 9.19922 19.3652 8.63281 18.6523 8.63281C17.9297 8.63281 17.3633 9.19922 17.3633 9.92188C17.3633 10.6348 17.9297 11.2109 18.6523 11.2109Z" fill="#000000" fill-opacity="0.85"/>
 </g>
</svg>
