<?xml version="1.0" encoding="UTF-8"?>
<!--Generator: Apple Native CoreSVG 175.5-->
<!DOCTYPE svg
PUBLIC "-//W3C//DTD SVG 1.1//EN"
       "http://www.w3.org/Graphics/SVG/1.1/DTD/svg11.dtd">
<svg version="1.1" xmlns="http://www.w3.org/2000/svg" xmlns:xlink="http://www.w3.org/1999/xlink" width="29.3543" height="22.0605">
 <g>
  <rect height="22.0605" opacity="0" width="29.3543" x="0" y="0"/>
  <path d="M6.56287 4.20898C7.73475 4.20898 8.67225 3.28125 8.67225 2.10938C8.67225 0.9375 7.73475 0 6.56287 0C5.391 0 4.4535 0.9375 4.4535 2.10938C4.4535 3.28125 5.391 4.20898 6.56287 4.20898ZM3.19373 21.7773C3.65272 21.7773 3.96522 21.5234 4.13123 20.918C4.46326 19.7168 5.44959 15.625 5.78162 14.6387C6.00623 13.9355 6.16248 13.6621 6.56287 13.6621C6.96326 13.6621 7.11951 13.9355 7.34412 14.6387C7.67615 15.625 8.66248 19.7168 8.99451 20.918C9.16053 21.5234 9.47303 21.7773 9.93201 21.7773C10.557 21.7773 10.9379 21.2109 10.7621 20.5957C10.6937 20.332 9.27772 14.4141 9.07264 13.1934C8.90662 12.1191 8.86756 9.95117 8.86756 8.92578C8.86756 8.76953 9.04334 8.71094 9.141 8.84766L10.2445 10.3906C10.3617 9.79492 10.9183 9.16992 11.7289 9.15039L10.2152 6.94336C9.41444 5.77148 8.41834 5.23438 6.56287 5.23438C4.7074 5.23438 3.71131 5.76172 2.91053 6.94336L0.381232 10.6641C0.283576 10.8105 0.176154 10.957 0.0980289 11.1035C-0.107049 11.4746 0.000372633 12.0117 0.508185 12.2754C0.889045 12.4902 1.35779 12.4316 1.641 12.0996C1.90467 11.7871 3.25233 9.88281 3.98475 8.84766C4.07264 8.7207 4.25819 8.76953 4.25819 8.93555C4.25819 9.96094 4.20936 12.1191 4.04334 13.1934C3.84803 14.4141 2.43201 20.332 2.36365 20.5957C2.18787 21.2109 2.56873 21.7773 3.19373 21.7773ZM14.6781 10.957C15.5375 10.957 16.2504 10.2539 16.2504 9.39453C16.2504 8.53516 15.5375 7.83203 14.6781 7.83203C13.8187 7.83203 13.1156 8.53516 13.1156 9.39453C13.1156 10.2539 13.8187 10.957 14.6781 10.957ZM12.6078 21.7773C12.9789 21.7773 13.2816 21.5625 13.4086 21.0742C13.6137 20.3418 14.2094 17.8223 14.4047 17.207C14.5414 16.8066 14.5707 16.7773 14.6781 16.7773C14.7855 16.7773 14.8051 16.8066 14.9418 17.207C15.1371 17.8223 15.7328 20.3418 15.9476 21.0742C16.0648 21.5625 16.3773 21.7773 16.7484 21.7773C17.3051 21.7773 17.6273 21.2598 17.4906 20.752C17.4418 20.5859 16.5922 16.9629 16.4555 16.2012C16.3578 15.5957 16.3285 14.375 16.3285 13.8867C16.3285 13.6035 16.4262 13.418 16.5824 13.2227C17.2855 12.3438 18.1742 11.3379 18.2816 11.1719C18.516 10.8301 18.4281 10.4297 18.1644 10.1562C17.8617 9.81445 17.3539 9.82422 17.0902 10.0977L16.0551 11.2012C15.6254 11.6602 15.264 11.875 14.6781 11.875C14.0922 11.875 13.7308 11.6602 13.3012 11.2012L12.266 10.0977C12.0023 9.82422 11.4847 9.81445 11.1918 10.1562C10.9183 10.4297 10.8402 10.8301 11.0648 11.1719C11.1722 11.3379 12.0707 12.3438 12.7738 13.2227C12.9301 13.418 13.018 13.6035 13.018 13.8867C13.018 14.375 12.9984 15.5957 12.9008 16.2012C12.764 16.9629 11.9144 20.5859 11.8558 20.752C11.7289 21.2598 12.0512 21.7773 12.6078 21.7773ZM22.7933 4.20898C23.9652 4.20898 24.893 3.28125 24.893 2.10938C24.893 0.9375 23.9652 0 22.7933 0C21.6215 0 20.684 0.9375 20.684 2.10938C20.684 3.28125 21.6215 4.20898 22.7933 4.20898ZM19.4242 21.7773C19.8832 21.7773 20.1859 21.5234 20.3617 20.918C20.684 19.7168 21.6801 15.625 22.0121 14.6387C22.2269 13.9355 22.393 13.6621 22.7933 13.6621C23.184 13.6621 23.35 13.9355 23.5746 14.6387C23.8969 15.625 24.893 19.7168 25.225 20.918C25.391 21.5234 25.7035 21.7773 26.1625 21.7773C26.7875 21.7773 27.1683 21.2109 26.9926 20.5957C26.9144 20.332 25.4984 14.4141 25.3031 13.1934C25.1371 12.1191 25.098 9.96094 25.098 8.93555C25.098 8.76953 25.2836 8.7207 25.3617 8.84766C26.1039 9.88281 27.4418 11.7871 27.7055 12.0996C27.9984 12.4316 28.4574 12.4902 28.848 12.2754C29.3461 12.0117 29.4633 11.4746 29.2582 11.1035C29.1703 10.957 29.0726 10.8105 28.9652 10.6641L26.4457 6.94336C25.6351 5.76172 24.6488 5.23438 22.7933 5.23438C20.9379 5.23438 19.9418 5.77148 19.141 6.94336L17.6176 9.15039C18.4379 9.16992 18.9847 9.79492 19.1117 10.3906L20.2152 8.84766C20.3129 8.71094 20.4887 8.76953 20.4887 8.92578C20.4887 9.95117 20.4398 12.1191 20.2738 13.1934C20.0785 14.4141 18.6625 20.332 18.5941 20.5957C18.4086 21.2109 18.7992 21.7773 19.4242 21.7773Z" fill="#000000" fill-opacity="0.85"/>
 </g>
</svg>
