<?xml version="1.0" encoding="UTF-8"?>
<!--Generator: Apple Native CoreSVG 175.5-->
<!DOCTYPE svg
PUBLIC "-//W3C//DTD SVG 1.1//EN"
       "http://www.w3.org/Graphics/SVG/1.1/DTD/svg11.dtd">
<svg version="1.1" xmlns="http://www.w3.org/2000/svg" xmlns:xlink="http://www.w3.org/1999/xlink" width="20.5566" height="21.6504">
 <g>
  <rect height="21.6504" opacity="0" width="20.5566" x="0" y="0"/>
  <path d="M2.09961 3.96484L18.4473 3.96484C18.3008 3.07617 17.8809 2.58789 16.9043 2.58789L3.64258 2.58789C2.66602 2.58789 2.24609 3.07617 2.09961 3.96484ZM4.11133 1.25977L16.4355 1.25977C16.377 0.429688 15.9082 0 15 0L5.53711 0C4.63867 0 4.16992 0.429688 4.11133 1.25977ZM1.76758 21.5918L18.7793 21.5918C19.873 21.5918 20.5566 20.9082 20.5566 19.8535L20.5566 7.28516C20.5566 6.23047 19.873 5.53711 18.7793 5.53711L1.76758 5.53711C0.683594 5.53711 0 6.23047 0 7.28516L0 19.8535C0 20.9082 0.683594 21.5918 1.76758 21.5918ZM1.77734 20.1855C1.49414 20.1855 1.31836 20 1.31836 19.7363L1.31836 18.7598C1.31836 18.5059 1.48438 18.3398 1.74805 18.3398L2.87109 18.3398C3.125 18.3398 3.28125 18.5059 3.28125 18.7598L3.28125 19.7754C3.28125 20.0098 3.125 20.1855 2.87109 20.1855ZM1.74805 17.2949C1.48438 17.2949 1.31836 17.1094 1.31836 16.8945L1.31836 15.8984C1.31836 15.6445 1.47461 15.4785 1.74805 15.4785L2.87109 15.4785C3.125 15.4785 3.28125 15.6445 3.28125 15.8984L3.28125 16.8945C3.28125 17.1094 3.125 17.2949 2.87109 17.2949ZM1.74805 14.4922C1.48438 14.4922 1.31836 14.2969 1.31836 14.0625L1.31836 13.0957C1.31836 12.8223 1.47461 12.6465 1.74805 12.6465L2.87109 12.6465C3.125 12.6465 3.28125 12.8223 3.28125 13.0957L3.28125 14.0625C3.28125 14.2969 3.125 14.4922 2.87109 14.4922ZM1.74805 11.6699C1.48438 11.6699 1.31836 11.4844 1.31836 11.2793L1.31836 10.2637C1.31836 10.0293 1.47461 9.84375 1.74805 9.84375L2.87109 9.84375C3.125 9.84375 3.28125 10.0293 3.28125 10.2637L3.28125 11.2793C3.28125 11.4844 3.125 11.6699 2.87109 11.6699ZM1.74805 8.78906C1.48438 8.78906 1.31836 8.61328 1.31836 8.38867L1.31836 7.40234C1.31836 7.12891 1.49414 6.94336 1.77734 6.94336L2.87109 6.94336C3.125 6.94336 3.28125 7.11914 3.28125 7.37305L3.28125 8.38867C3.28125 8.61328 3.125 8.78906 2.87109 8.78906ZM17.6758 20.1855C17.4414 20.1855 17.2754 20.0098 17.2754 19.7754L17.2754 18.7598C17.2754 18.5059 17.4414 18.3398 17.6758 18.3398L18.8086 18.3398C19.0625 18.3398 19.2383 18.5059 19.2383 18.7598L19.2383 19.7363C19.2383 20 19.0625 20.1855 18.7793 20.1855ZM17.6758 17.2949C17.4414 17.2949 17.2754 17.1094 17.2754 16.8945L17.2754 15.8984C17.2754 15.6445 17.4414 15.4785 17.6758 15.4785L18.8086 15.4785C19.0723 15.4785 19.2383 15.6445 19.2383 15.8984L19.2383 16.8945C19.2383 17.1094 19.0625 17.2949 18.8086 17.2949ZM17.6758 14.4922C17.4414 14.4922 17.2754 14.2969 17.2754 14.0625L17.2754 13.0957C17.2754 12.8223 17.4414 12.6465 17.6758 12.6465L18.8086 12.6465C19.0723 12.6465 19.2383 12.8223 19.2383 13.0957L19.2383 14.0625C19.2383 14.2969 19.0625 14.4922 18.8086 14.4922ZM17.6758 11.6699C17.4414 11.6699 17.2754 11.4844 17.2754 11.2793L17.2754 10.2637C17.2754 10.0293 17.4414 9.84375 17.6758 9.84375L18.8086 9.84375C19.0723 9.84375 19.2383 10.0293 19.2383 10.2637L19.2383 11.2793C19.2383 11.4844 19.0625 11.6699 18.8086 11.6699ZM17.6758 8.78906C17.4414 8.78906 17.2754 8.61328 17.2754 8.38867L17.2754 7.37305C17.2754 7.11914 17.4414 6.94336 17.6758 6.94336L18.7793 6.94336C19.0625 6.94336 19.2383 7.12891 19.2383 7.40234L19.2383 8.38867C19.2383 8.61328 19.0625 8.78906 18.8086 8.78906ZM4.28711 13.5645C4.28711 13.1934 4.57031 12.9004 4.94141 12.9004L15.6152 12.9004C15.9863 12.9004 16.2793 13.1934 16.2793 13.5645C16.2793 13.9258 15.9863 14.2285 15.6152 14.2285L4.94141 14.2285C4.57031 14.2285 4.28711 13.9258 4.28711 13.5645Z" fill="#000000" fill-opacity="0.85"/>
 </g>
</svg>
