<?xml version="1.0" encoding="UTF-8"?>
<!--Generator: Apple Native CoreSVG 175.5-->
<!DOCTYPE svg
PUBLIC "-//W3C//DTD SVG 1.1//EN"
       "http://www.w3.org/Graphics/SVG/1.1/DTD/svg11.dtd">
<svg version="1.1" xmlns="http://www.w3.org/2000/svg" xmlns:xlink="http://www.w3.org/1999/xlink" width="19.9219" height="19.9316">
 <g>
  <rect height="19.9316" opacity="0" width="19.9219" x="0" y="0"/>
  <path d="M9.96094 19.9219C15.4102 19.9219 19.9219 15.4004 19.9219 9.96094C19.9219 4.51172 15.4004 0 9.95117 0C4.51172 0 0 4.51172 0 9.96094C0 15.4004 4.52148 19.9219 9.96094 19.9219Z" fill="#000000" fill-opacity="0.85"/>
  <path d="M5.23438 14.4531C4.62891 14.4531 4.23828 14.082 4.23828 13.4863L4.23828 6.46484C4.23828 5.87891 4.62891 5.49805 5.23438 5.49805L14.7168 5.49805C15.3125 5.49805 15.7129 5.87891 15.7129 6.46484L15.7129 13.4863C15.7129 14.082 15.3125 14.4531 14.7168 14.4531ZM5.3418 13.623L6.09375 13.623C6.26953 13.623 6.37695 13.5059 6.37695 13.3301L6.37695 12.6465C6.37695 12.4707 6.26953 12.3438 6.09375 12.3438L5.33203 12.3438C5.13672 12.3438 5.0293 12.4707 5.0293 12.6465L5.0293 13.3105C5.0293 13.4961 5.13672 13.623 5.3418 13.623ZM5.33203 11.5723L6.09375 11.5723C6.26953 11.5723 6.37695 11.4355 6.37695 11.2891L6.37695 10.6152C6.37695 10.4199 6.26953 10.3223 6.09375 10.3223L5.33203 10.3223C5.13672 10.3223 5.0293 10.4199 5.0293 10.6152L5.0293 11.2891C5.0293 11.4355 5.13672 11.5723 5.33203 11.5723ZM5.33203 9.57031L6.09375 9.57031C6.26953 9.57031 6.37695 9.44336 6.37695 9.29688L6.37695 8.60352C6.37695 8.42773 6.26953 8.31055 6.09375 8.31055L5.33203 8.31055C5.13672 8.31055 5.0293 8.42773 5.0293 8.60352L5.0293 9.29688C5.0293 9.44336 5.13672 9.57031 5.33203 9.57031ZM5.33203 7.57812L6.09375 7.57812C6.26953 7.57812 6.37695 7.45117 6.37695 7.29492L6.37695 6.63086C6.37695 6.45508 6.26953 6.31836 6.09375 6.31836L5.33203 6.31836C5.13672 6.31836 5.0293 6.45508 5.0293 6.63086L5.0293 7.29492C5.0293 7.45117 5.13672 7.57812 5.33203 7.57812ZM13.8477 13.623L14.6094 13.623C14.8145 13.623 14.9219 13.4961 14.9219 13.3105L14.9219 12.6465C14.9219 12.4707 14.8145 12.3438 14.6191 12.3438L13.8477 12.3438C13.6816 12.3438 13.5742 12.4707 13.5742 12.6465L13.5742 13.3301C13.5742 13.5059 13.6816 13.623 13.8477 13.623ZM13.8477 11.5723L14.6191 11.5723C14.8145 11.5723 14.9219 11.4355 14.9219 11.2891L14.9219 10.6152C14.9219 10.4199 14.8145 10.3223 14.6191 10.3223L13.8477 10.3223C13.6816 10.3223 13.5742 10.4199 13.5742 10.6152L13.5742 11.2891C13.5742 11.4355 13.6816 11.5723 13.8477 11.5723ZM13.8477 9.57031L14.6191 9.57031C14.8145 9.57031 14.9219 9.44336 14.9219 9.29688L14.9219 8.60352C14.9219 8.42773 14.8145 8.31055 14.6191 8.31055L13.8477 8.31055C13.6816 8.31055 13.5742 8.42773 13.5742 8.60352L13.5742 9.29688C13.5742 9.44336 13.6816 9.57031 13.8477 9.57031ZM13.8477 7.57812L14.6191 7.57812C14.8145 7.57812 14.9219 7.45117 14.9219 7.29492L14.9219 6.63086C14.9219 6.45508 14.8145 6.31836 14.6191 6.31836L13.8477 6.31836C13.6816 6.31836 13.5742 6.45508 13.5742 6.63086L13.5742 7.29492C13.5742 7.45117 13.6816 7.57812 13.8477 7.57812ZM7.87109 10.5273L12.0703 10.5273C12.3828 10.5273 12.6172 10.293 12.6172 9.98047C12.6172 9.66797 12.3828 9.42383 12.0703 9.42383L7.87109 9.42383C7.55859 9.42383 7.32422 9.66797 7.32422 9.98047C7.32422 10.293 7.55859 10.5273 7.87109 10.5273Z" fill="#ffffff"/>
 </g>
</svg>
