<?xml version="1.0" encoding="UTF-8"?>
<!--Generator: Apple Native CoreSVG 175.5-->
<!DOCTYPE svg
PUBLIC "-//W3C//DTD SVG 1.1//EN"
       "http://www.w3.org/Graphics/SVG/1.1/DTD/svg11.dtd">
<svg version="1.1" xmlns="http://www.w3.org/2000/svg" xmlns:xlink="http://www.w3.org/1999/xlink" width="34.881" height="20.2478">
 <g>
  <rect height="20.2478" opacity="0" width="34.881" x="0" y="0"/>
  <path d="M18.1153 8.36121L18.9649 9.82605L19.3067 9.23035C19.7657 9.40613 20.4786 9.65027 21.2794 10.0995C23.6426 11.4764 24.5704 13.6444 27.0118 15.0604C27.7149 15.4804 28.4766 15.7831 29.0528 15.8514C29.7559 15.9198 30.3712 15.705 30.8106 14.9432L34.7462 8.1366C35.0489 7.59949 34.8145 7.11121 34.3165 6.81824C33.8868 6.5741 32.9786 6.34949 31.9434 5.75379C29.5704 4.3866 28.6524 2.20887 26.211 0.792851C25.5079 0.382695 24.7364 0.0799604 24.17 0.011601C23.4669-0.0567584 22.8516 0.167851 22.4122 0.92957ZM16.7676 13.6346L15.9083 12.16L11.9239 19.0643C11.7188 19.4159 11.8555 19.8749 12.1973 20.08C12.5587 20.285 12.9981 20.1679 13.1934 19.8065Z" fill="#000000" fill-opacity="0.85"/>
  <path d="M22.959 19.0643L12.4708 0.92957C12.0313 0.167851 11.4161-0.0567584 10.713 0.011601C10.1368 0.0799604 9.37507 0.382695 8.67194 0.792851C6.23053 2.20887 5.3028 4.3866 2.92975 5.75379C1.8946 6.34949 0.996159 6.5741 0.566471 6.81824C0.0586589 7.11121-0.16595 7.59949 0.136784 8.1366L4.06257 14.9432C4.50202 15.705 5.12702 15.9198 5.82038 15.8514C6.39655 15.7831 7.16803 15.4804 7.86139 15.0604C10.3126 13.6444 11.2305 11.4764 13.6036 10.0995C14.3946 9.65027 15.1173 9.40613 15.5762 9.23035L21.6798 19.8065C21.8848 20.1679 22.3243 20.285 22.6856 20.08C23.0274 19.8749 23.1544 19.4159 22.959 19.0643Z" fill="#000000" fill-opacity="0.85"/>
 </g>
</svg>
