<?xml version="1.0" encoding="UTF-8"?>
<!--Generator: Apple Native CoreSVG 175.5-->
<!DOCTYPE svg
PUBLIC "-//W3C//DTD SVG 1.1//EN"
       "http://www.w3.org/Graphics/SVG/1.1/DTD/svg11.dtd">
<svg version="1.1" xmlns="http://www.w3.org/2000/svg" xmlns:xlink="http://www.w3.org/1999/xlink" width="19.9219" height="19.9316">
 <g>
  <rect height="19.9316" opacity="0" width="19.9219" x="0" y="0"/>
  <path d="M9.96094 19.9316C15.4102 19.9316 19.9219 15.4199 19.9219 9.9707C19.9219 4.53125 15.4004 0.00976562 9.95117 0.00976562C4.51172 0.00976562 0 4.53125 0 9.9707C0 15.4199 4.52148 19.9316 9.96094 19.9316Z" fill="#000000" fill-opacity="0.85"/>
  <path d="M7.06055 5.3125C7.2168 5.29297 7.38281 5.2832 7.60742 5.2832C9.41406 5.2832 10.5664 6.18164 12.2656 6.18164C13.0957 6.18164 13.5352 5.9668 13.8281 5.9668C14.2383 5.9668 14.3945 6.18164 14.3945 6.48438L14.3945 11.4355C14.3945 11.8066 14.2188 12.0508 13.9746 12.2266ZM10.6445 12.3926C9.6875 12.1387 8.80859 11.7578 7.65625 11.7578C7.04102 11.7578 6.64062 11.875 6.45508 11.9531L6.45508 14.9219C6.45508 15.1855 6.26953 15.3906 5.99609 15.3906C5.75195 15.3906 5.52734 15.1758 5.52734 14.9219L5.52734 7.26562ZM14.707 15.3711L4.55078 5.22461C4.38477 5.04883 4.38477 4.75586 4.55078 4.57031C4.74609 4.39453 5.0293 4.39453 5.21484 4.57031L15.3613 14.7168C15.5371 14.9023 15.5371 15.1758 15.3613 15.3711C15.1758 15.5371 14.8828 15.5371 14.707 15.3711Z" fill="#ffffff"/>
 </g>
</svg>
