<?xml version="1.0" encoding="UTF-8"?>
<!--Generator: Apple Native CoreSVG 175.5-->
<!DOCTYPE svg
PUBLIC "-//W3C//DTD SVG 1.1//EN"
       "http://www.w3.org/Graphics/SVG/1.1/DTD/svg11.dtd">
<svg version="1.1" xmlns="http://www.w3.org/2000/svg" xmlns:xlink="http://www.w3.org/1999/xlink" width="19.9219" height="19.9316">
 <g>
  <rect height="19.9316" opacity="0" width="19.9219" x="0" y="0"/>
  <path d="M9.96094 19.9219C15.4102 19.9219 19.9219 15.4004 19.9219 9.96094C19.9219 4.51172 15.4004 0 9.95117 0C4.51172 0 0 4.51172 0 9.96094C0 15.4004 4.52148 19.9219 9.96094 19.9219ZM9.96094 18.2617C5.35156 18.2617 1.66992 14.5703 1.66992 9.96094C1.66992 5.35156 5.3418 1.66016 9.95117 1.66016C14.5605 1.66016 18.2617 5.35156 18.2617 9.96094C18.2617 14.5703 14.5703 18.2617 9.96094 18.2617Z" fill="#000000" fill-opacity="0.85"/>
  <path d="M7.13867 5.44922L13.8379 12.1484C14.0723 11.9824 14.248 11.7383 14.248 11.3867L14.248 6.57227C14.248 6.28906 14.1016 6.08398 13.7012 6.08398C13.418 6.08398 12.9883 6.28906 12.1875 6.28906C10.5371 6.28906 9.42383 5.41992 7.66602 5.41992C7.45117 5.41992 7.28516 5.42969 7.13867 5.44922ZM10.625 12.2949L5.6543 7.32422L5.6543 14.7656C5.6543 15 5.86914 15.2148 6.10352 15.2148C6.36719 15.2148 6.55273 15.0098 6.55273 14.7656L6.55273 11.8848C6.72852 11.8066 7.11914 11.6895 7.71484 11.6895C8.83789 11.6895 9.6875 12.0508 10.625 12.2949ZM14.5605 15.1953C14.7266 15.3613 15.0098 15.3613 15.1855 15.1953C15.3613 15.0098 15.3613 14.7461 15.1855 14.5703L5.3418 4.72656C5.16602 4.55078 4.89258 4.55078 4.70703 4.72656C4.54102 4.89258 4.54102 5.18555 4.70703 5.35156Z" fill="#000000" fill-opacity="0.85"/>
 </g>
</svg>
