<?xml version="1.0" encoding="UTF-8"?>
<!--Generator: Apple Native CoreSVG 175.5-->
<!DOCTYPE svg
PUBLIC "-//W3C//DTD SVG 1.1//EN"
       "http://www.w3.org/Graphics/SVG/1.1/DTD/svg11.dtd">
<svg version="1.1" xmlns="http://www.w3.org/2000/svg" xmlns:xlink="http://www.w3.org/1999/xlink" width="9.88281" height="21.9238">
 <g>
  <rect height="21.9238" opacity="0" width="9.88281" x="0" y="0"/>
  <path d="M3.76953 21.8652L6.11328 21.8652C7.28516 21.8652 7.88086 21.2793 7.88086 20.0488L7.88086 9.67773C7.88086 8.65234 8.125 7.91016 8.49609 7.34375L9.13086 6.40625C9.58008 5.71289 9.88281 5.05859 9.88281 4.22852L9.88281 3.42773L0 3.42773L0 4.22852C0 5.05859 0.302734 5.71289 0.751953 6.40625L1.37695 7.34375C1.75781 7.91016 1.99219 8.65234 1.99219 9.67773L1.99219 20.0488C1.99219 21.2793 2.59766 21.8652 3.76953 21.8652ZM4.94141 14.3555C4.14062 14.3555 3.62305 13.7695 3.62305 12.9492L3.62305 10.2734C3.62305 9.44336 4.14062 8.88672 4.94141 8.90625C5.73242 8.91602 6.25977 9.47266 6.25977 10.2734L6.25977 12.9492C6.25977 13.7695 5.73242 14.3555 4.94141 14.3555ZM4.94141 13.6621C5.37109 13.6621 5.74219 13.3008 5.74219 12.8613C5.74219 12.4219 5.37109 12.0508 4.94141 12.0508C4.50195 12.0508 4.13086 12.4219 4.13086 12.8613C4.13086 13.3008 4.50195 13.6621 4.94141 13.6621ZM0 2.28516L9.88281 2.28516L9.88281 1.81641C9.88281 0.585938 9.27734 0 8.10547 0L1.77734 0C0.605469 0 0 0.585938 0 1.81641Z" fill="#000000" fill-opacity="0.85"/>
 </g>
</svg>
