<?xml version="1.0" encoding="UTF-8"?>
<!--Generator: Apple Native CoreSVG 175.5-->
<!DOCTYPE svg
PUBLIC "-//W3C//DTD SVG 1.1//EN"
       "http://www.w3.org/Graphics/SVG/1.1/DTD/svg11.dtd">
<svg version="1.1" xmlns="http://www.w3.org/2000/svg" xmlns:xlink="http://www.w3.org/1999/xlink" width="21.3379" height="15.9082">
 <g>
  <rect height="15.9082" opacity="0" width="21.3379" x="0" y="0"/>
  <path d="M3.52539 15.9082C4.38477 15.9082 4.82422 15.459 4.82422 14.5996L4.82422 1.29883C4.82422 0.449219 4.38477 0 3.52539 0L1.30859 0C0.449219 0 0 0.410156 0 1.29883L0 14.5996C0 15.459 0.449219 15.9082 1.30859 15.9082ZM9.27734 15.6152C9.67773 15.6152 10.0098 15.4883 10.4004 15.2539L20.3516 9.4043C21.0449 8.99414 21.3379 8.50586 21.3379 7.94922C21.3379 7.38281 21.0449 6.9043 20.3516 6.49414L10.4004 0.634766C10 0.400391 9.67773 0.273438 9.27734 0.273438C8.51562 0.273438 7.87109 0.859375 7.87109 1.95312L7.87109 13.9453C7.87109 15.0391 8.51562 15.6152 9.27734 15.6152Z" fill="#000000" fill-opacity="0.85"/>
 </g>
</svg>
