<?xml version="1.0" encoding="UTF-8"?>
<!--Generator: Apple Native CoreSVG 175.5-->
<!DOCTYPE svg
PUBLIC "-//W3C//DTD SVG 1.1//EN"
       "http://www.w3.org/Graphics/SVG/1.1/DTD/svg11.dtd">
<svg version="1.1" xmlns="http://www.w3.org/2000/svg" xmlns:xlink="http://www.w3.org/1999/xlink" width="18.2129" height="16.1426">
 <g>
  <rect height="16.1426" opacity="0" width="18.2129" x="0" y="0"/>
  <path d="M0.830078 16.1426C1.28906 16.1426 1.66992 15.791 1.66992 15.332L1.66992 0.830078C1.66992 0.371094 1.28906 0.00976562 0.830078 0.00976562C0.371094 0.00976562 0 0.371094 0 0.830078L0 15.332C0 15.791 0.371094 16.1426 0.830078 16.1426ZM6.14258 15.752C6.54297 15.752 6.875 15.625 7.27539 15.3906L17.2266 9.53125C17.9102 9.12109 18.2129 8.63281 18.2129 8.07617C18.2129 7.51953 17.9199 7.03125 17.2266 6.62109L7.27539 0.761719C6.875 0.527344 6.54297 0.400391 6.14258 0.400391C5.38086 0.400391 4.73633 0.986328 4.73633 2.08008L4.73633 14.0723C4.73633 15.166 5.38086 15.752 6.14258 15.752ZM6.57227 13.9453C6.43555 13.9453 6.30859 13.8477 6.30859 13.6523L6.30859 2.5C6.30859 2.30469 6.43555 2.20703 6.57227 2.20703C6.64062 2.20703 6.71875 2.23633 6.81641 2.29492L16.0938 7.80273C16.2305 7.88086 16.3086 7.93945 16.3086 8.07617C16.3086 8.20312 16.2305 8.27148 16.0938 8.34961L6.81641 13.8574C6.71875 13.916 6.64062 13.9453 6.57227 13.9453Z" fill="#000000" fill-opacity="0.85"/>
 </g>
</svg>
