<?xml version="1.0" encoding="UTF-8"?>
<!--Generator: Apple Native CoreSVG 175.5-->
<!DOCTYPE svg
PUBLIC "-//W3C//DTD SVG 1.1//EN"
       "http://www.w3.org/Graphics/SVG/1.1/DTD/svg11.dtd">
<svg version="1.1" xmlns="http://www.w3.org/2000/svg" xmlns:xlink="http://www.w3.org/1999/xlink" width="25.4723" height="20.1074">
 <g>
  <rect height="20.1074" opacity="0" width="25.4723" x="0" y="0"/>
  <path d="M11.8457 20.1074C18.7695 20.1074 24.0137 15.3711 25.4395 8.99414C25.6055 8.25195 25.127 7.69531 24.3457 7.69531L15.0684 7.69531L15.0684 9.26758L24.541 9.26758L23.9062 8.7207C22.5293 14.5117 17.8223 18.5352 11.8457 18.5352C5.69336 18.5352 1.5625 14.6973 1.5625 9.20898C1.5625 4.76562 4.70703 1.58203 8.87695 1.58203C12.0898 1.58203 14.3848 3.67188 14.3848 6.61133C14.3848 9.05273 12.8516 10.8105 10.7031 10.8105C8.88672 10.8105 7.62695 9.61914 7.62695 8.08594C7.62695 6.875 8.42773 5.94727 9.56055 5.94727C10.4785 5.94727 11.0156 6.49414 11.0156 7.2168C11.0156 7.76367 10.6836 8.1543 10.2051 8.1543C9.81445 8.1543 9.67773 7.95898 9.57031 7.76367C9.46289 7.58789 9.31641 7.4707 9.04297 7.4707C8.73047 7.4707 8.39844 7.72461 8.39844 8.20312C8.39844 8.85742 9.00391 9.72656 10.1953 9.72656C11.5234 9.72656 12.5879 8.73047 12.5879 7.2168C12.5879 5.625 11.2598 4.375 9.56055 4.375C7.64648 4.375 6.05469 6.00586 6.05469 8.08594C6.05469 10.4883 8.01758 12.3828 10.7031 12.3828C14.5312 12.3828 15.957 8.96484 15.957 6.61133C15.957 2.77344 12.9883 0.00976562 8.87695 0.00976562C3.81836 0.00976562 0 3.86719 0 9.20898C0 15.5957 4.77539 20.1074 11.8457 20.1074ZM13.7793 1.9043L10.127 5.56641L10.9668 6.40625L14.6191 2.74414ZM8.36914 0.351562L8.36914 5.63477L9.55078 5.63477L9.55078 0.351562ZM3.22266 2.67578L7.08008 6.54297L7.91016 5.69336L4.0625 1.83594ZM1.18164 8.65234L6.82617 8.65234L6.82617 7.4707L1.18164 7.4707ZM3.27148 15.6152L7.93945 10.9473L7.10938 10.1074L2.45117 14.7754ZM9.79492 19.1895L10.9766 19.1895L10.9766 11.8555L9.79492 11.8555ZM18.8379 17.1387L19.668 16.2988L13.5938 10.2148L12.7637 11.0547Z" fill="#000000" fill-opacity="0.85"/>
 </g>
</svg>
