<?xml version="1.0" encoding="UTF-8"?>
<!--Generator: Apple Native CoreSVG 175.5-->
<!DOCTYPE svg
PUBLIC "-//W3C//DTD SVG 1.1//EN"
       "http://www.w3.org/Graphics/SVG/1.1/DTD/svg11.dtd">
<svg version="1.1" xmlns="http://www.w3.org/2000/svg" xmlns:xlink="http://www.w3.org/1999/xlink" width="28.1934" height="17.7051">
 <g>
  <rect height="17.7051" opacity="0" width="28.1934" x="0" y="0"/>
  <path d="M6.19141 6.89453C6.19141 6.40625 6.49414 6.10352 7.00195 6.10352L8.75977 6.10352L8.75977 4.39453C8.75977 3.89648 9.04297 3.59375 9.53125 3.59375C10.0098 3.59375 10.3027 3.89648 10.3027 4.39453L10.3027 6.10352L11.9531 6.10352C12.5 6.10352 12.8223 6.40625 12.8223 6.89453C12.8223 7.40234 12.5 7.71484 11.9531 7.71484L10.3027 7.71484L10.3027 9.42383C10.3027 9.92188 10.0098 10.2344 9.53125 10.2344C9.04297 10.2344 8.75977 9.92188 8.75977 9.42383L8.75977 7.71484L7.00195 7.71484C6.49414 7.71484 6.19141 7.40234 6.19141 6.89453ZM15.791 8.26172C15.791 7.46094 16.416 6.8457 17.1973 6.8457C17.9883 6.8457 18.6035 7.46094 18.6035 8.26172C18.6035 9.05273 17.9883 9.66797 17.1973 9.66797C16.416 9.66797 15.791 9.05273 15.791 8.26172ZM18.6719 5.37109C18.6719 4.57031 19.2871 3.95508 20.0684 3.95508C20.8691 3.95508 21.4746 4.57031 21.4746 5.37109C21.4746 6.16211 20.8691 6.76758 20.0684 6.76758C19.2871 6.76758 18.6719 6.16211 18.6719 5.37109ZM3.7207 17.7051C5.05859 17.7051 5.97656 17.2168 6.79688 16.2012L8.56445 14.0625C8.81836 13.7598 9.11133 13.6133 9.4043 13.6133L18.7891 13.6133C19.082 13.6133 19.375 13.7598 19.6289 14.0625L21.3965 16.2012C22.2168 17.2168 23.1348 17.7051 24.4727 17.7051C26.709 17.7051 28.1934 16.2207 28.1934 13.9355C28.1934 12.959 27.9688 11.8359 27.5879 10.5762C26.9922 8.57422 25.9473 5.84961 24.9512 3.74023C24.1113 1.98242 23.6816 1.18164 21.6113 0.712891C19.7754 0.292969 17.2266 0.00976562 14.1016 0.00976562C10.9766 0.00976562 8.41797 0.292969 6.58203 0.712891C4.51172 1.18164 4.08203 1.98242 3.24219 3.74023C2.24609 5.84961 1.20117 8.57422 0.605469 10.5762C0.224609 11.8359 0 12.959 0 13.9355C0 16.2207 1.48438 17.7051 3.7207 17.7051Z" fill="#000000" fill-opacity="0.85"/>
 </g>
</svg>
