<?xml version="1.0" encoding="UTF-8"?>
<!--Generator: Apple Native CoreSVG 175.5-->
<!DOCTYPE svg
PUBLIC "-//W3C//DTD SVG 1.1//EN"
       "http://www.w3.org/Graphics/SVG/1.1/DTD/svg11.dtd">
<svg version="1.1" xmlns="http://www.w3.org/2000/svg" xmlns:xlink="http://www.w3.org/1999/xlink" width="19.9219" height="19.9316">
 <g>
  <rect height="19.9316" opacity="0" width="19.9219" x="0" y="0"/>
  <path d="M9.96094 19.9219C15.4102 19.9219 19.9219 15.4004 19.9219 9.96094C19.9219 4.51172 15.4004 0 9.95117 0C4.51172 0 0 4.51172 0 9.96094C0 15.4004 4.52148 19.9219 9.96094 19.9219ZM9.96094 18.2617C5.35156 18.2617 1.66992 14.5703 1.66992 9.96094C1.66992 5.35156 5.3418 1.66016 9.95117 1.66016C14.5605 1.66016 18.2617 5.35156 18.2617 9.96094C18.2617 14.5703 14.5703 18.2617 9.96094 18.2617Z" fill="#000000" fill-opacity="0.85"/>
  <path d="M9.95117 15.8984C10.8203 15.8984 11.5039 15.2051 11.5039 14.3359C11.5039 13.7109 11.1328 13.1738 10.5957 12.9297L10.5957 8.35938C10.5957 7.98828 10.3027 7.69531 9.95117 7.69531C9.60938 7.69531 9.31641 7.98828 9.31641 8.35938L9.31641 12.9297C8.76953 13.1738 8.39844 13.7109 8.39844 14.3359C8.39844 15.2051 9.0918 15.8984 9.95117 15.8984ZM4.99023 8.35938C5.52734 8.35938 5.94727 7.92969 5.94727 7.39258C5.94727 6.86523 5.52734 6.43555 4.99023 6.43555C4.46289 6.43555 4.0332 6.86523 4.0332 7.39258C4.0332 7.92969 4.46289 8.35938 4.99023 8.35938ZM7.1582 6.29883C7.69531 6.29883 8.11523 5.85938 8.11523 5.33203C8.11523 4.80469 7.69531 4.375 7.1582 4.375C6.63086 4.375 6.20117 4.80469 6.20117 5.33203C6.20117 5.85938 6.63086 6.29883 7.1582 6.29883ZM9.95117 5.42969C10.4688 5.42969 10.9082 4.99023 10.9082 4.47266C10.9082 3.93555 10.4688 3.50586 9.95117 3.50586C9.42383 3.50586 8.99414 3.93555 8.99414 4.47266C8.99414 4.99023 9.42383 5.42969 9.95117 5.42969ZM12.7441 6.29883C13.2812 6.29883 13.7012 5.85938 13.7012 5.32227C13.7012 4.80469 13.2812 4.36523 12.7441 4.36523C12.2168 4.36523 11.7871 4.80469 11.7871 5.32227C11.7871 5.85938 12.2168 6.29883 12.7441 6.29883ZM14.9121 8.35938C15.4492 8.35938 15.8691 7.92969 15.8691 7.39258C15.8691 6.86523 15.4492 6.43555 14.9121 6.43555C14.3848 6.43555 13.9551 6.86523 13.9551 7.39258C13.9551 7.92969 14.3848 8.35938 14.9121 8.35938Z" fill="#000000" fill-opacity="0.85"/>
 </g>
</svg>
