<?xml version="1.0" encoding="UTF-8"?>
<!--Generator: Apple Native CoreSVG 175.5-->
<!DOCTYPE svg
PUBLIC "-//W3C//DTD SVG 1.1//EN"
       "http://www.w3.org/Graphics/SVG/1.1/DTD/svg11.dtd">
<svg version="1.1" xmlns="http://www.w3.org/2000/svg" xmlns:xlink="http://www.w3.org/1999/xlink" width="19.9219" height="23.7188">
 <g>
  <rect height="23.7188" opacity="0" width="19.9219" x="0" y="0"/>
  <path d="M0 11.8545C0 17.3037 4.52148 21.8155 9.96094 21.8155C15.4102 21.8155 19.9219 17.3037 19.9219 11.8545C19.9219 7.04983 16.416 2.97756 11.8457 2.07912L11.8457 0.692405C11.8457-0.000954238 11.3672-0.186501 10.8398 0.194358L7.72461 2.37209C7.27539 2.68459 7.26562 3.15334 7.72461 3.47561L10.8301 5.66311C11.3672 6.05373 11.8457 5.86819 11.8457 5.16506L11.8457 3.77834C15.5371 4.61819 18.252 7.89944 18.252 11.8545C18.252 16.4639 14.5703 20.1553 9.96094 20.1553C5.35156 20.1553 1.65039 16.4639 1.66016 11.8545C1.66992 9.08108 3.01758 6.62991 5.09766 5.14553C5.49805 4.8428 5.625 4.38381 5.38086 3.97366C5.13672 3.57326 4.59961 3.46584 4.16992 3.79787C1.66016 5.62405 0 8.57326 0 11.8545Z" fill="#000000" fill-opacity="0.85"/>
  <path d="M7.28516 15.8487C7.66602 15.8487 7.91016 15.585 7.91016 15.1748L7.91016 9.03225C7.91016 8.55373 7.65625 8.251 7.2168 8.251C6.95312 8.251 6.76758 8.33889 6.40625 8.57326L5.05859 9.48147C4.84375 9.63772 4.73633 9.8135 4.73633 10.0479C4.73633 10.3701 4.99023 10.6436 5.30273 10.6436C5.48828 10.6436 5.57617 10.6045 5.77148 10.4678L6.70898 9.7842L6.67969 9.7842L6.67969 15.1748C6.67969 15.5752 6.91406 15.8487 7.28516 15.8487ZM12.373 15.9658C13.9941 15.9658 15.0586 14.4326 15.0586 12.0889C15.0586 9.72561 13.9941 8.17287 12.373 8.17287C10.752 8.17287 9.6875 9.72561 9.6875 12.0889C9.6875 14.4326 10.752 15.9658 12.373 15.9658ZM12.373 14.7842C11.5137 14.7842 10.957 13.7588 10.957 12.0889C10.957 10.3897 11.5039 9.35451 12.373 9.35451C13.2422 9.35451 13.7793 10.3799 13.7793 12.0889C13.7793 13.7588 13.2324 14.7842 12.373 14.7842Z" fill="#000000" fill-opacity="0.85"/>
 </g>
</svg>
