<?xml version="1.0" encoding="UTF-8"?>
<!--Generator: Apple Native CoreSVG 175.5-->
<!DOCTYPE svg
PUBLIC "-//W3C//DTD SVG 1.1//EN"
       "http://www.w3.org/Graphics/SVG/1.1/DTD/svg11.dtd">
<svg version="1.1" xmlns="http://www.w3.org/2000/svg" xmlns:xlink="http://www.w3.org/1999/xlink" width="19.9219" height="23.7188">
 <g>
  <rect height="23.7188" opacity="0" width="19.9219" x="0" y="0"/>
  <path d="M0 11.8545C0 17.3037 4.52148 21.8155 9.96094 21.8155C15.4102 21.8155 19.9219 17.3037 19.9219 11.8545C19.9219 7.04983 16.416 2.97756 11.8457 2.07912L11.8457 0.692405C11.8457-0.000954238 11.3672-0.186501 10.8398 0.194358L7.72461 2.37209C7.27539 2.68459 7.26562 3.15334 7.72461 3.47561L10.8301 5.66311C11.3672 6.05373 11.8457 5.86819 11.8457 5.16506L11.8457 3.77834C15.5371 4.61819 18.252 7.89944 18.252 11.8545C18.252 16.4639 14.5703 20.1553 9.96094 20.1553C5.35156 20.1553 1.65039 16.4639 1.66016 11.8545C1.66992 9.08108 3.01758 6.62991 5.09766 5.14553C5.49805 4.8428 5.625 4.38381 5.38086 3.97366C5.13672 3.57326 4.59961 3.46584 4.16992 3.79787C1.66016 5.62405 0 8.57326 0 11.8545Z" fill="#000000" fill-opacity="0.85"/>
  <path d="M5.85938 15.9463C6.12305 15.9463 6.30859 15.8194 6.47461 15.4873L9.21875 9.86233C9.3457 9.59866 9.39453 9.42287 9.39453 9.2178C9.39453 8.73928 9.0332 8.38772 8.55469 8.38772L4.93164 8.38772C4.64844 8.38772 4.44336 8.62209 4.44336 8.93459C4.44336 9.25686 4.64844 9.48147 4.93164 9.48147L8.02734 9.48147L8.02734 9.48147L5.33203 14.8819C5.25391 15.0283 5.21484 15.1455 5.21484 15.3115C5.21484 15.6729 5.48828 15.9463 5.85938 15.9463ZM12.6562 15.9756C14.2773 15.9756 15.3418 14.9307 15.3418 13.3584C15.3418 11.9229 14.375 10.8975 12.9785 10.8975C12.3633 10.8975 11.6895 11.2002 11.4355 11.6983L11.4844 11.6983L11.6602 9.49123L14.5801 9.49123C14.873 9.49123 15.1172 9.25686 15.1172 8.92483C15.1172 8.5928 14.873 8.37795 14.5801 8.37795L11.4551 8.37795C10.9473 8.37795 10.6641 8.67092 10.625 9.1885L10.4102 12.001C10.3711 12.4893 10.625 12.7237 11.0449 12.7237C11.3672 12.7237 11.5137 12.6651 11.7871 12.4502C12.168 12.1084 12.4609 11.9717 12.8516 11.9717C13.6133 11.9717 14.1211 12.5283 14.1211 13.378C14.1211 14.2373 13.5156 14.8623 12.7148 14.8623C12.1289 14.8623 11.6406 14.5303 11.3867 14.0225C11.2402 13.7686 11.0645 13.6319 10.8203 13.6319C10.498 13.6319 10.2734 13.8662 10.2734 14.1983C10.2734 14.335 10.3027 14.4619 10.3516 14.5889C10.6152 15.292 11.4746 15.9756 12.6562 15.9756Z" fill="#000000" fill-opacity="0.85"/>
 </g>
</svg>
