<?xml version="1.0" encoding="UTF-8"?>
<!--Generator: Apple Native CoreSVG 175.5-->
<!DOCTYPE svg
PUBLIC "-//W3C//DTD SVG 1.1//EN"
       "http://www.w3.org/Graphics/SVG/1.1/DTD/svg11.dtd">
<svg version="1.1" xmlns="http://www.w3.org/2000/svg" xmlns:xlink="http://www.w3.org/1999/xlink" width="19.9219" height="23.7188">
 <g>
  <rect height="23.7188" opacity="0" width="19.9219" x="0" y="0"/>
  <path d="M0 11.8545C0 17.3037 4.52148 21.8155 9.96094 21.8155C15.4102 21.8155 19.9219 17.3037 19.9219 11.8545C19.9219 7.04983 16.416 2.97756 11.8457 2.07912L11.8457 0.692405C11.8457-0.000954238 11.3672-0.186501 10.8398 0.194358L7.72461 2.37209C7.27539 2.68459 7.26562 3.15334 7.72461 3.47561L10.8301 5.66311C11.3672 6.05373 11.8457 5.86819 11.8457 5.16506L11.8457 3.77834C15.5371 4.61819 18.252 7.89944 18.252 11.8545C18.252 16.4639 14.5703 20.1553 9.96094 20.1553C5.35156 20.1553 1.65039 16.4639 1.66016 11.8545C1.66992 9.08108 3.01758 6.62991 5.09766 5.14553C5.49805 4.8428 5.625 4.38381 5.38086 3.97366C5.13672 3.57326 4.59961 3.46584 4.16992 3.79787C1.66016 5.62405 0 8.57326 0 11.8545Z" fill="#000000" fill-opacity="0.85"/>
  <path d="M6.92383 15.9658C8.45703 15.9658 9.55078 15.0381 9.55078 13.7197C9.55078 12.7627 8.88672 11.9912 7.95898 11.8838L7.95898 11.9326C8.71094 11.7959 9.30664 11.044 9.30664 10.1651C9.30664 8.99319 8.34961 8.17287 6.98242 8.17287C5.80078 8.17287 4.81445 8.83694 4.60938 9.7842C4.58008 9.90139 4.57031 9.99905 4.57031 10.1065C4.57031 10.458 4.79492 10.7022 5.12695 10.7022C5.41016 10.7022 5.58594 10.5557 5.69336 10.2432C5.89844 9.62795 6.30859 9.30569 6.95312 9.30569C7.63672 9.30569 8.10547 9.71584 8.10547 10.3115C8.10547 10.9365 7.63672 11.3955 6.94336 11.3955L6.52344 11.3955C6.20117 11.3955 5.98633 11.6201 5.98633 11.9619C5.98633 12.2842 6.21094 12.5283 6.52344 12.5283L6.99219 12.5283C7.8125 12.5283 8.33008 12.9873 8.33008 13.6709C8.33008 14.335 7.74414 14.8428 6.93359 14.8428C6.25 14.8428 5.76172 14.501 5.54688 13.8955C5.42969 13.5733 5.25391 13.4365 4.99023 13.4365C4.6582 13.4365 4.42383 13.6905 4.42383 14.0322C4.42383 14.1397 4.43359 14.2471 4.46289 14.3545C4.67773 15.2725 5.73242 15.9658 6.92383 15.9658ZM13.2227 15.9658C14.8438 15.9658 15.9082 14.4326 15.9082 12.0889C15.9082 9.72561 14.8438 8.17287 13.2227 8.17287C11.5918 8.17287 10.5371 9.71584 10.5371 12.0889C10.5371 14.4326 11.6016 15.9658 13.2227 15.9658ZM13.2227 14.7842C12.3633 14.7842 11.8066 13.7588 11.8066 12.0889C11.8066 10.3897 12.3535 9.35451 13.2227 9.35451C14.0918 9.35451 14.6289 10.3799 14.6289 12.0889C14.6289 13.7588 14.082 14.7842 13.2227 14.7842Z" fill="#000000" fill-opacity="0.85"/>
 </g>
</svg>
