<?xml version="1.0" encoding="UTF-8"?>
<!--Generator: Apple Native CoreSVG 175.5-->
<!DOCTYPE svg
PUBLIC "-//W3C//DTD SVG 1.1//EN"
       "http://www.w3.org/Graphics/SVG/1.1/DTD/svg11.dtd">
<svg version="1.1" xmlns="http://www.w3.org/2000/svg" xmlns:xlink="http://www.w3.org/1999/xlink" width="19.9219" height="23.7188">
 <g>
  <rect height="23.7188" opacity="0" width="19.9219" x="0" y="0"/>
  <path d="M0 11.8545C0 17.3037 4.52148 21.8155 9.96094 21.8155C15.4102 21.8155 19.9219 17.3037 19.9219 11.8545C19.9219 7.04983 16.416 2.97756 11.8457 2.07912L11.8457 0.692405C11.8457-0.000954238 11.3672-0.186501 10.8398 0.194358L7.72461 2.37209C7.27539 2.68459 7.26562 3.15334 7.72461 3.47561L10.8301 5.66311C11.3672 6.05373 11.8457 5.86819 11.8457 5.16506L11.8457 3.77834C15.5371 4.61819 18.252 7.89944 18.252 11.8545C18.252 16.4639 14.5703 20.1553 9.96094 20.1553C5.35156 20.1553 1.65039 16.4639 1.66016 11.8545C1.66992 9.08108 3.01758 6.62991 5.09766 5.14553C5.49805 4.8428 5.625 4.38381 5.38086 3.97366C5.13672 3.57326 4.59961 3.46584 4.16992 3.79787C1.66016 5.62405 0 8.57326 0 11.8545Z" fill="#000000" fill-opacity="0.85"/>
  <path d="M6.67969 15.9756C8.48633 15.9756 9.47266 14.5205 9.47266 11.8838C9.47266 10.6045 9.19922 9.61819 8.67188 9.02248C8.23242 8.48537 7.58789 8.19241 6.79688 8.19241C5.24414 8.19241 4.24805 9.2178 4.24805 10.8291C4.24805 12.2549 5.19531 13.2608 6.51367 13.2608C7.38281 13.2608 8.05664 12.8213 8.34961 12.128L8.30078 12.0596C8.30078 12.0987 8.30078 12.1475 8.30078 12.1865C8.30078 13.7979 7.65625 14.8526 6.66992 14.8526C6.20117 14.8526 5.81055 14.6182 5.58594 14.2178C5.41992 13.9541 5.26367 13.8467 5 13.8467C4.69727 13.8467 4.44336 14.1104 4.44336 14.4131C4.44336 14.5303 4.45312 14.628 4.52148 14.7647C4.7168 15.1651 5.39062 15.9756 6.67969 15.9756ZM6.8457 12.2256C6.03516 12.2256 5.48828 11.6494 5.48828 10.7705C5.48828 9.85256 6.02539 9.27639 6.8457 9.27639C7.64648 9.27639 8.20312 9.90139 8.20312 10.7901C8.20312 11.6397 7.64648 12.2256 6.8457 12.2256ZM13.3203 15.9658C14.9414 15.9658 16.0059 14.4326 16.0059 12.0889C16.0059 9.72561 14.9414 8.17287 13.3203 8.17287C11.6895 8.17287 10.6445 9.72561 10.6445 12.0987C10.6445 14.4424 11.6992 15.9658 13.3203 15.9658ZM13.3203 14.7842C12.4609 14.7842 11.9141 13.7588 11.9141 12.0889C11.9141 10.3897 12.4512 9.35451 13.3203 9.35451C14.1992 9.35451 14.7266 10.3799 14.7266 12.0889C14.7266 13.7588 14.1895 14.7842 13.3203 14.7842Z" fill="#000000" fill-opacity="0.85"/>
 </g>
</svg>
