<?xml version="1.0" encoding="UTF-8"?>
<!--Generator: Apple Native CoreSVG 175.5-->
<!DOCTYPE svg
PUBLIC "-//W3C//DTD SVG 1.1//EN"
       "http://www.w3.org/Graphics/SVG/1.1/DTD/svg11.dtd">
<svg version="1.1" xmlns="http://www.w3.org/2000/svg" xmlns:xlink="http://www.w3.org/1999/xlink" width="19.9219" height="23.7125">
 <g>
  <rect height="23.7125" opacity="0" width="19.9219" x="0" y="0"/>
  <path d="M0 11.8514C0 17.3006 4.52148 21.8123 9.96094 21.8123C15.4102 21.8123 19.9219 17.3006 19.9219 11.8514C19.9219 8.57011 18.2617 5.62089 15.752 3.79472C15.3223 3.46269 14.7852 3.57011 14.541 3.9705C14.2969 4.38065 14.4238 4.83964 14.8242 5.14237C16.9043 6.62675 18.252 9.07792 18.2617 11.8514C18.2715 16.4607 14.5703 20.1521 9.96094 20.1521C5.35156 20.1521 1.66992 16.4607 1.66992 11.8514C1.66992 7.89628 4.38477 4.61503 8.07617 3.77519L8.07617 5.17167C8.07617 5.86503 8.55469 6.05058 9.0918 5.66972L12.207 3.48222C12.6465 3.17948 12.6562 2.71073 12.207 2.38847L9.10156 0.200966C8.55469-0.189659 8.07617-0.00411175 8.07617 0.699013L8.07617 2.07597C3.50586 2.9744 0 7.04667 0 11.8514Z" fill="#000000" fill-opacity="0.85"/>
  <path d="M7.23633 15.8455C7.61719 15.8455 7.86133 15.5818 7.86133 15.1717L7.86133 9.02909C7.86133 8.55058 7.60742 8.24784 7.16797 8.24784C6.9043 8.24784 6.71875 8.33573 6.35742 8.57011L5.00977 9.47831C4.79492 9.63456 4.6875 9.81034 4.6875 10.0447C4.6875 10.367 4.94141 10.6404 5.25391 10.6404C5.43945 10.6404 5.52734 10.6014 5.72266 10.4646L6.66016 9.78104L6.63086 9.78104L6.63086 15.1717C6.63086 15.5721 6.86523 15.8455 7.23633 15.8455ZM12.3242 15.9627C13.9453 15.9627 15.0098 14.4295 15.0098 12.0857C15.0098 9.72245 13.9453 8.16972 12.3242 8.16972C10.7031 8.16972 9.63867 9.72245 9.63867 12.0857C9.63867 14.4295 10.7031 15.9627 12.3242 15.9627ZM12.3242 14.781C11.4648 14.781 10.9082 13.7557 10.9082 12.0857C10.9082 10.3865 11.4551 9.35136 12.3242 9.35136C13.1934 9.35136 13.7305 10.3767 13.7305 12.0857C13.7305 13.7557 13.1836 14.781 12.3242 14.781Z" fill="#000000" fill-opacity="0.85"/>
 </g>
</svg>
