<?xml version="1.0" encoding="UTF-8"?>
<!--Generator: Apple Native CoreSVG 175.5-->
<!DOCTYPE svg
PUBLIC "-//W3C//DTD SVG 1.1//EN"
       "http://www.w3.org/Graphics/SVG/1.1/DTD/svg11.dtd">
<svg version="1.1" xmlns="http://www.w3.org/2000/svg" xmlns:xlink="http://www.w3.org/1999/xlink" width="19.9219" height="23.7125">
 <g>
  <rect height="23.7125" opacity="0" width="19.9219" x="0" y="0"/>
  <path d="M0 11.8514C0 17.3006 4.52148 21.8123 9.96094 21.8123C15.4102 21.8123 19.9219 17.3006 19.9219 11.8514C19.9219 8.57011 18.2617 5.62089 15.752 3.79472C15.3223 3.46269 14.7852 3.57011 14.541 3.9705C14.2969 4.38065 14.4238 4.83964 14.8242 5.14237C16.9043 6.62675 18.252 9.07792 18.2617 11.8514C18.2715 16.4607 14.5703 20.1521 9.96094 20.1521C5.35156 20.1521 1.66992 16.4607 1.66992 11.8514C1.66992 7.89628 4.38477 4.61503 8.07617 3.77519L8.07617 5.17167C8.07617 5.86503 8.55469 6.05058 9.0918 5.66972L12.207 3.48222C12.6465 3.17948 12.6562 2.71073 12.207 2.38847L9.10156 0.200966C8.55469-0.189659 8.07617-0.00411175 8.07617 0.699013L8.07617 2.07597C3.50586 2.9744 0 7.04667 0 11.8514Z" fill="#000000" fill-opacity="0.85"/>
  <path d="M6.81641 15.9627C8.39844 15.9627 9.41406 14.9178 9.41406 13.3162C9.41406 11.9002 8.4375 10.8943 7.11914 10.8943C6.20117 10.8943 5.50781 11.3533 5.24414 12.0369L5.29297 12.1053C5.29297 12.0467 5.29297 12.0369 5.29297 11.9881C5.29297 10.3767 5.94727 9.31229 6.95312 9.31229C7.46094 9.31229 7.7832 9.50761 8.00781 9.8787C8.17383 10.1326 8.33008 10.24 8.62305 10.24C8.91602 10.24 9.12109 10.0154 9.12109 9.70292C9.12109 9.5662 9.0918 9.43925 9.05273 9.33183C8.78906 8.67753 8.03711 8.17948 7.00195 8.17948C5.13672 8.17948 4.10156 9.64433 4.10156 12.2615C4.10156 13.2967 4.25781 14.1365 4.59961 14.742C5.0293 15.5525 5.83008 15.9627 6.81641 15.9627ZM6.76758 14.8787C5.9668 14.8787 5.39062 14.2537 5.39062 13.3748C5.39062 12.5154 5.95703 11.9197 6.76758 11.9197C7.57812 11.9197 8.14453 12.5057 8.14453 13.3748C8.14453 14.3025 7.60742 14.8787 6.76758 14.8787ZM13.252 15.9627C14.873 15.9627 15.9375 14.4295 15.9375 12.0857C15.9375 9.72245 14.873 8.16972 13.252 8.16972C11.6211 8.16972 10.5664 9.72245 10.5664 12.0955C10.5664 14.4392 11.6309 15.9627 13.252 15.9627ZM13.252 14.781C12.3828 14.781 11.8359 13.7557 11.8359 12.0857C11.8359 10.3865 12.373 9.35136 13.252 9.35136C14.1211 9.35136 14.6582 10.3767 14.6582 12.0857C14.6582 13.7557 14.1113 14.781 13.252 14.781Z" fill="#000000" fill-opacity="0.85"/>
 </g>
</svg>
