<?xml version="1.0" encoding="UTF-8"?>
<!--Generator: Apple Native CoreSVG 175.5-->
<!DOCTYPE svg
PUBLIC "-//W3C//DTD SVG 1.1//EN"
       "http://www.w3.org/Graphics/SVG/1.1/DTD/svg11.dtd">
<svg version="1.1" xmlns="http://www.w3.org/2000/svg" xmlns:xlink="http://www.w3.org/1999/xlink" width="19.9219" height="23.7125">
 <g>
  <rect height="23.7125" opacity="0" width="19.9219" x="0" y="0"/>
  <path d="M0 11.8514C0 17.3006 4.52148 21.8123 9.96094 21.8123C15.4102 21.8123 19.9219 17.3006 19.9219 11.8514C19.9219 8.57011 18.2617 5.62089 15.752 3.79472C15.3223 3.46269 14.7852 3.57011 14.541 3.9705C14.2969 4.38065 14.4238 4.83964 14.8242 5.14237C16.9043 6.62675 18.252 9.07792 18.2617 11.8514C18.2715 16.4607 14.5703 20.1521 9.96094 20.1521C5.35156 20.1521 1.66992 16.4607 1.66992 11.8514C1.66992 7.89628 4.38477 4.61503 8.07617 3.77519L8.07617 5.17167C8.07617 5.86503 8.55469 6.05058 9.0918 5.66972L12.207 3.48222C12.6465 3.17948 12.6562 2.71073 12.207 2.38847L9.10156 0.200966C8.55469-0.189659 8.07617-0.00411175 8.07617 0.699013L8.07617 2.07597C3.50586 2.9744 0 7.04667 0 11.8514Z" fill="#000000" fill-opacity="0.85"/>
  <path d="M7.06055 15.8553C7.44141 15.8553 7.68555 15.5916 7.68555 15.1814L7.68555 9.01933C7.68555 8.52128 7.43164 8.25761 6.99219 8.25761C6.71875 8.25761 6.52344 8.3455 6.18164 8.57987L4.83398 9.48808C4.60938 9.65409 4.50195 9.82987 4.50195 10.0545C4.50195 10.3767 4.76562 10.6502 5.07812 10.6502C5.26367 10.6502 5.36133 10.6111 5.54688 10.4646L6.47461 9.78104L6.46484 9.78104L6.46484 15.1814C6.46484 15.5818 6.69922 15.8553 7.06055 15.8553ZM12.0215 15.9725C13.6426 15.9725 14.7168 14.9275 14.7168 13.3553C14.7168 11.9197 13.75 10.8943 12.3535 10.8943C11.7383 10.8943 11.0645 11.1971 10.8105 11.6951L10.8594 11.6951L11.0254 9.48808L13.9551 9.48808C14.2383 9.48808 14.4824 9.2537 14.4824 8.92167C14.4824 8.58964 14.2383 8.37479 13.9551 8.37479L10.8301 8.37479C10.3223 8.37479 10.0391 8.66776 9.99023 9.18534L9.78516 11.9978C9.73633 12.4861 9.99023 12.7205 10.4199 12.7205C10.7422 12.7205 10.8789 12.6619 11.1621 12.4471C11.5332 12.1053 11.8359 11.9685 12.2266 11.9685C12.9785 11.9685 13.4863 12.5252 13.4863 13.3748C13.4863 14.2342 12.8906 14.8592 12.0801 14.8592C11.5039 14.8592 11.0059 14.5271 10.752 14.0193C10.6055 13.7654 10.4297 13.6287 10.1855 13.6287C9.86328 13.6287 9.63867 13.8631 9.63867 14.1951C9.63867 14.3318 9.66797 14.4588 9.72656 14.5857C9.98047 15.2889 10.8398 15.9725 12.0215 15.9725Z" fill="#000000" fill-opacity="0.85"/>
 </g>
</svg>
