<?xml version="1.0" encoding="UTF-8"?>
<!--Generator: Apple Native CoreSVG 175.5-->
<!DOCTYPE svg
PUBLIC "-//W3C//DTD SVG 1.1//EN"
       "http://www.w3.org/Graphics/SVG/1.1/DTD/svg11.dtd">
<svg version="1.1" xmlns="http://www.w3.org/2000/svg" xmlns:xlink="http://www.w3.org/1999/xlink" width="19.9219" height="23.7125">
 <g>
  <rect height="23.7125" opacity="0" width="19.9219" x="0" y="0"/>
  <path d="M0 11.8514C0 17.3006 4.52148 21.8123 9.96094 21.8123C15.4102 21.8123 19.9219 17.3006 19.9219 11.8514C19.9219 8.57011 18.2617 5.62089 15.752 3.79472C15.3223 3.46269 14.7852 3.57011 14.541 3.9705C14.2969 4.38065 14.4238 4.83964 14.8242 5.14237C16.9043 6.62675 18.252 9.07792 18.2617 11.8514C18.2715 16.4607 14.5703 20.1521 9.96094 20.1521C5.35156 20.1521 1.66992 16.4607 1.66992 11.8514C1.66992 7.89628 4.38477 4.61503 8.07617 3.77519L8.07617 5.17167C8.07617 5.86503 8.55469 6.05058 9.0918 5.66972L12.207 3.48222C12.6465 3.17948 12.6562 2.71073 12.207 2.38847L9.10156 0.200966C8.55469-0.189659 8.07617-0.00411175 8.07617 0.699013L8.07617 2.07597C3.50586 2.9744 0 7.04667 0 11.8514Z" fill="#000000" fill-opacity="0.85"/>
  <path d="M9.81445 15.9725C11.4355 15.9725 12.5 14.9275 12.5 13.3553C12.5 11.9197 11.5332 10.8943 10.1367 10.8943C9.52148 10.8943 8.84766 11.1971 8.59375 11.6951L8.64258 11.6951L8.81836 9.48808L11.7383 9.48808C12.0312 9.48808 12.2754 9.2537 12.2754 8.92167C12.2754 8.58964 12.0312 8.37479 11.7383 8.37479L8.61328 8.37479C8.10547 8.37479 7.82227 8.66776 7.7832 9.18534L7.56836 11.9978C7.5293 12.4861 7.7832 12.7205 8.20312 12.7205C8.52539 12.7205 8.67188 12.6619 8.94531 12.4471C9.32617 12.1053 9.61914 11.9685 10.0098 11.9685C10.7715 11.9685 11.2793 12.5252 11.2793 13.3748C11.2793 14.2342 10.6738 14.8592 9.87305 14.8592C9.28711 14.8592 8.79883 14.5271 8.54492 14.0193C8.39844 13.7654 8.22266 13.6287 7.97852 13.6287C7.65625 13.6287 7.43164 13.8631 7.43164 14.1951C7.43164 14.3318 7.46094 14.4588 7.50977 14.5857C7.77344 15.2889 8.63281 15.9725 9.81445 15.9725Z" fill="#000000" fill-opacity="0.85"/>
 </g>
</svg>
