<?xml version="1.0" encoding="UTF-8"?>
<!--Generator: Apple Native CoreSVG 175.5-->
<!DOCTYPE svg
PUBLIC "-//W3C//DTD SVG 1.1//EN"
       "http://www.w3.org/Graphics/SVG/1.1/DTD/svg11.dtd">
<svg version="1.1" xmlns="http://www.w3.org/2000/svg" xmlns:xlink="http://www.w3.org/1999/xlink" width="19.9219" height="23.7125">
 <g>
  <rect height="23.7125" opacity="0" width="19.9219" x="0" y="0"/>
  <path d="M0 11.8514C0 17.3006 4.52148 21.8123 9.96094 21.8123C15.4102 21.8123 19.9219 17.3006 19.9219 11.8514C19.9219 8.57011 18.2617 5.62089 15.752 3.79472C15.3223 3.46269 14.7852 3.57011 14.541 3.9705C14.2969 4.38065 14.4238 4.83964 14.8242 5.14237C16.9043 6.62675 18.252 9.07792 18.2617 11.8514C18.2715 16.4607 14.5703 20.1521 9.96094 20.1521C5.35156 20.1521 1.66992 16.4607 1.66992 11.8514C1.66992 7.89628 4.38477 4.61503 8.07617 3.77519L8.07617 5.17167C8.07617 5.86503 8.55469 6.05058 9.0918 5.66972L12.207 3.48222C12.6465 3.17948 12.6562 2.71073 12.207 2.38847L9.10156 0.200966C8.55469-0.189659 8.07617-0.00411175 8.07617 0.699013L8.07617 2.07597C3.50586 2.9744 0 7.04667 0 11.8514Z" fill="#000000" fill-opacity="0.85"/>
  <path d="M6.875 15.9627C8.4082 15.9627 9.50195 15.035 9.50195 13.7166C9.50195 12.7596 8.83789 11.9881 7.91016 11.8807L7.91016 11.9295C8.66211 11.7928 9.25781 11.0408 9.25781 10.1619C9.25781 8.99003 8.30078 8.16972 6.93359 8.16972C5.75195 8.16972 4.76562 8.83378 4.56055 9.78104C4.53125 9.89823 4.52148 9.99589 4.52148 10.1033C4.52148 10.4549 4.74609 10.699 5.07812 10.699C5.36133 10.699 5.53711 10.5525 5.64453 10.24C5.84961 9.62479 6.25977 9.30253 6.9043 9.30253C7.58789 9.30253 8.05664 9.71269 8.05664 10.3084C8.05664 10.9334 7.58789 11.3924 6.89453 11.3924L6.47461 11.3924C6.15234 11.3924 5.9375 11.617 5.9375 11.9588C5.9375 12.281 6.16211 12.5252 6.47461 12.5252L6.94336 12.5252C7.76367 12.5252 8.28125 12.9842 8.28125 13.6678C8.28125 14.3318 7.69531 14.8396 6.88477 14.8396C6.20117 14.8396 5.71289 14.4978 5.49805 13.8924C5.38086 13.5701 5.20508 13.4334 4.94141 13.4334C4.60938 13.4334 4.375 13.6873 4.375 14.0291C4.375 14.1365 4.38477 14.2439 4.41406 14.3514C4.62891 15.2693 5.68359 15.9627 6.875 15.9627ZM13.1738 15.9627C14.7949 15.9627 15.8594 14.4295 15.8594 12.0857C15.8594 9.72245 14.7949 8.16972 13.1738 8.16972C11.543 8.16972 10.4883 9.71269 10.4883 12.0857C10.4883 14.4295 11.5527 15.9627 13.1738 15.9627ZM13.1738 14.781C12.3145 14.781 11.7578 13.7557 11.7578 12.0857C11.7578 10.3865 12.3047 9.35136 13.1738 9.35136C14.043 9.35136 14.5801 10.3767 14.5801 12.0857C14.5801 13.7557 14.0332 14.781 13.1738 14.781Z" fill="#000000" fill-opacity="0.85"/>
 </g>
</svg>
