<?xml version="1.0" encoding="UTF-8"?>
<!--Generator: Apple Native CoreSVG 175.5-->
<!DOCTYPE svg
PUBLIC "-//W3C//DTD SVG 1.1//EN"
       "http://www.w3.org/Graphics/SVG/1.1/DTD/svg11.dtd">
<svg version="1.1" xmlns="http://www.w3.org/2000/svg" xmlns:xlink="http://www.w3.org/1999/xlink" width="18.2544" height="18.2715">
 <g>
  <rect height="18.2715" opacity="0" width="18.2544" x="0" y="0"/>
  <path d="M9.11133 16.2305C13.0273 16.2305 16.2207 13.0762 16.2207 9.13086C16.2207 5.20508 13.0273 2.03125 9.11133 2.03125C5.20508 2.03125 2.01172 5.20508 2.01172 9.13086C2.01172 13.0762 5.20508 16.2305 9.11133 16.2305ZM9.11133 14.6484C6.07422 14.6484 3.59375 12.1875 3.59375 9.14062C3.59375 6.10352 6.07422 3.62305 9.11133 3.62305C12.1582 3.62305 14.6387 6.10352 14.6387 9.14062C14.6387 12.1875 12.1582 14.6484 9.11133 14.6484ZM16.7676 17.2754C18.4082 15.6348 15.3516 10.9766 11.0742 6.69922C6.79688 2.42188 2.13867-0.634766 0.498047 1.00586C-1.13281 2.64648 1.91406 7.30469 6.19141 11.582C10.4688 15.8594 15.127 18.9062 16.7676 17.2754ZM15.6543 16.1621C14.9121 16.9043 10.7227 13.8965 7.30469 10.4688C3.87695 7.05078 0.869141 2.86133 1.61133 2.11914C2.34375 1.36719 6.54297 4.38477 9.9707 7.80273C13.3887 11.2305 16.4062 15.4297 15.6543 16.1621ZM14.6973 3.57422C15.498 4.38477 16.8359 4.38477 17.6465 3.57422C18.457 2.76367 18.457 1.43555 17.6465 0.625C16.8359-0.185547 15.498-0.185547 14.6973 0.625C13.8867 1.43555 13.8867 2.76367 14.6973 3.57422ZM14.6777 2.4707L2.12891 15.0391L3.23242 16.1426L15.791 3.59375ZM0.615234 17.6562C1.41602 18.4766 2.75391 18.4766 3.55469 17.6562C4.375 16.8555 4.375 15.5176 3.55469 14.7168C2.75391 13.8965 1.41602 13.8965 0.615234 14.7168C-0.205078 15.5176-0.205078 16.8555 0.615234 17.6562Z" fill="#000000" fill-opacity="0.85"/>
 </g>
</svg>
