<?xml version="1.0" encoding="UTF-8"?>
<!--Generator: Apple Native CoreSVG 175.5-->
<!DOCTYPE svg
PUBLIC "-//W3C//DTD SVG 1.1//EN"
       "http://www.w3.org/Graphics/SVG/1.1/DTD/svg11.dtd">
<svg version="1.1" xmlns="http://www.w3.org/2000/svg" xmlns:xlink="http://www.w3.org/1999/xlink" width="20.6641" height="20.459">
 <g>
  <rect height="20.459" opacity="0" width="20.6641" x="0" y="0"/>
  <path d="M7.80273 20.459L17.6074 20.459C19.6484 20.459 20.6641 19.4531 20.6641 17.4316L20.6641 7.54883C20.6641 5.53711 19.6484 4.53125 17.6074 4.53125L15.127 4.53125L15.127 6.10352L17.5781 6.10352C18.5547 6.10352 19.0918 6.62109 19.0918 7.63672L19.0918 17.3535C19.0918 18.3691 18.5547 18.8867 17.5781 18.8867L7.82227 18.8867C6.86523 18.8867 6.30859 18.3691 6.30859 17.3535L6.30859 15.2051L4.73633 15.2051L4.73633 17.4316C4.73633 19.4434 5.76172 20.459 7.80273 20.459Z" fill="#000000" fill-opacity="0.85"/>
  <path d="M3.06641 15.9375L12.8711 15.9375C14.9121 15.9375 15.9277 14.9316 15.9277 12.9102L15.9277 3.03711C15.9277 1.01562 14.9121 0.00976562 12.8711 0.00976562L3.06641 0.00976562C1.02539 0.00976562 0 1.02539 0 3.03711L0 12.9102C0 14.9219 1.02539 15.9375 3.06641 15.9375ZM3.08594 14.3652C2.12891 14.3652 1.57227 13.8477 1.57227 12.832L1.57227 3.11523C1.57227 2.09961 2.12891 1.58203 3.08594 1.58203L12.8418 1.58203C13.8184 1.58203 14.3555 2.09961 14.3555 3.11523L14.3555 12.832C14.3555 13.8477 13.8184 14.3652 12.8418 14.3652ZM4.89258 12.4414C5.39062 12.4414 5.67383 12.1289 5.67383 11.582L5.67383 8.34961L10.2441 8.34961L10.2441 11.582C10.2441 12.1191 10.5371 12.4414 11.0156 12.4414C11.5234 12.4414 11.8066 12.1289 11.8066 11.582L11.8066 4.18945C11.8066 3.63281 11.5234 3.32031 11.0156 3.32031C10.5371 3.32031 10.2441 3.64258 10.2441 4.18945L10.2441 7.13867L5.67383 7.13867L5.67383 4.18945C5.67383 3.63281 5.39062 3.32031 4.89258 3.32031C4.4043 3.32031 4.12109 3.64258 4.12109 4.18945L4.12109 11.582C4.12109 12.1191 4.4043 12.4414 4.89258 12.4414Z" fill="#000000" fill-opacity="0.85"/>
 </g>
</svg>
