<?xml version="1.0" encoding="UTF-8"?>
<!--Generator: Apple Native CoreSVG 175.5-->
<!DOCTYPE svg
PUBLIC "-//W3C//DTD SVG 1.1//EN"
       "http://www.w3.org/Graphics/SVG/1.1/DTD/svg11.dtd">
<svg version="1.1" xmlns="http://www.w3.org/2000/svg" xmlns:xlink="http://www.w3.org/1999/xlink" width="22.4832" height="27.7637">
 <g>
  <rect height="27.7637" opacity="0" width="22.4832" x="0" y="0"/>
  <path d="M17.8223 23.2617C20.2539 20.8398 20.6445 17.8125 18.9746 14.3066L16.7773 9.66797C16.6211 9.3457 16.4355 9.08203 16.2305 8.87695C15.498 8.14453 14.4336 8.18359 13.7305 8.89648C13.252 9.36523 13.1055 10.0781 13.418 10.8594L14.0723 12.4121C14.082 12.4512 14.0918 12.4902 14.0625 12.5195C14.0234 12.5586 13.9844 12.5488 13.9453 12.5098L8.4082 6.97266C7.59766 6.16211 6.5918 6.16211 5.82031 6.93359C5.53711 7.2168 5.38086 7.56836 5.37109 7.93945C4.57031 7.32422 3.68164 7.34375 2.98828 8.03711C2.32422 8.70117 2.30469 9.61914 2.88086 10.4004C2.5293 10.4004 2.19727 10.5566 1.94336 10.8105C1.2207 11.5234 1.25 12.5 2.01172 13.2715L2.7832 14.0332C2.40234 14.0234 2.02148 14.1992 1.71875 14.502C1.00586 15.2148 1.04492 16.2402 1.81641 17.0117L7.75391 22.9492C10.9863 26.1816 14.9023 26.1816 17.8223 23.2617ZM16.8359 22.3438C14.3848 24.7852 11.3281 24.707 8.55469 21.9238L2.82227 16.2012C2.5293 15.9082 2.50977 15.5176 2.80273 15.2246C3.08594 14.9414 3.49609 14.9414 3.78906 15.2344L7.31445 18.7695C7.57812 19.0234 7.94922 18.9844 8.17383 18.7598C8.4082 18.5254 8.44727 18.1445 8.19336 17.8906L2.91992 12.6074C2.62695 12.3145 2.60742 11.9238 2.89062 11.6406C3.17383 11.3574 3.58398 11.3574 3.88672 11.6504L8.80859 16.5723C9.0625 16.8262 9.44336 16.7969 9.66797 16.5625C9.90234 16.3281 9.94141 15.9473 9.6875 15.6934L3.90625 9.91211C3.61328 9.61914 3.59375 9.20898 3.88672 8.92578C4.16016 8.64258 4.57031 8.66211 4.87305 8.95508L10.6543 14.7363C10.8887 14.9707 11.2695 14.9609 11.5039 14.7266C11.748 14.4824 11.7676 14.1016 11.5234 13.8574L6.60156 8.92578C6.30859 8.63281 6.29883 8.23242 6.58203 7.94922C6.875 7.65625 7.26562 7.66602 7.56836 7.96875L14.3652 14.7656C14.707 15.1074 15.1074 15.1074 15.4004 14.8145C15.6445 14.5703 15.752 14.248 15.5566 13.75L14.3359 10.5371C14.1699 10.1074 14.3164 9.74609 14.6582 9.58984C15.0195 9.42383 15.3418 9.58984 15.5664 10.0586L17.832 14.8535C19.3457 18.0566 18.7598 20.4102 16.8359 22.3438ZM8.32031 6.05469C8.02734 6.32812 7.88086 6.68945 7.86133 7.06055L9.0918 8.04688C8.79883 7.76367 8.78906 7.35352 9.08203 7.06055C9.36523 6.77734 9.76562 6.79688 10.0586 7.08984L13.3789 10.4102L14.1699 9.35547L10.8984 6.09375C10.0879 5.2832 9.0918 5.2832 8.32031 6.05469ZM20.3125 22.3926C22.7441 19.9609 23.1348 16.9336 21.4746 13.4277L19.2676 8.7793C18.8672 7.91992 18.1934 7.4707 17.3926 7.4707C16.7578 7.4707 15.6738 7.91016 15.6738 9.18945C15.6738 9.29688 15.6738 9.4043 15.6934 9.52148L16.8457 9.84375C16.7871 9.7168 16.748 9.58984 16.748 9.42383C16.748 9.11133 17.0117 8.79883 17.4316 8.79883C17.6953 8.79883 17.9688 8.98438 18.1152 9.29688L20.332 13.9746C21.8457 17.168 21.2695 19.541 19.3262 21.4551C18.5449 22.2363 17.6953 22.7637 16.8164 23.0176L15.3906 24.5215C17.1484 24.5703 18.8574 23.8477 20.3125 22.3926Z" fill="#000000" fill-opacity="0.85"/>
  <path d="M14.6582 6.96289C14.8145 6.96289 14.9414 6.85547 14.9512 6.67969C15.2344 4.38477 15.3418 4.32617 17.6758 3.93555C17.8711 3.91602 17.9785 3.81836 17.9785 3.65234C17.9785 3.49609 17.8711 3.39844 17.7148 3.36914C15.3613 2.91992 15.2344 2.92969 14.9512 0.634766C14.9414 0.458984 14.8145 0.351562 14.6582 0.351562C14.5117 0.351562 14.3945 0.458984 14.3848 0.625C14.0723 2.95898 14.0039 3.02734 11.6113 3.36914C11.4551 3.38867 11.3477 3.49609 11.3477 3.65234C11.3477 3.80859 11.4551 3.91602 11.6113 3.93555C14.0039 4.4043 14.0625 4.39453 14.3848 6.69922C14.3945 6.85547 14.5117 6.96289 14.6582 6.96289ZM8.125 4.32617C8.23242 4.32617 8.32031 4.26758 8.34961 4.14062C8.61328 2.67578 8.61328 2.66602 10.0879 2.39258C10.2148 2.36328 10.293 2.28516 10.293 2.16797C10.293 2.04102 10.2148 1.96289 10.0879 1.93359C8.61328 1.64062 8.65234 1.63086 8.34961 0.195312C8.32031 0.0683594 8.24219 0 8.125 0C8.00781 0 7.91992 0.078125 7.90039 0.195312C7.58789 1.63086 7.63672 1.64062 6.15234 1.93359C6.02539 1.96289 5.94727 2.05078 5.94727 2.16797C5.94727 2.27539 6.02539 2.36328 6.15234 2.39258C7.63672 2.68555 7.61719 2.67578 7.90039 4.14062C7.91992 4.25781 8.00781 4.32617 8.125 4.32617ZM2.80273 26.0547C2.94922 26.0547 3.02734 25.9668 3.04688 25.8301C3.39844 23.916 3.38867 23.877 5.39062 23.4961C5.53711 23.457 5.61523 23.3887 5.61523 23.2422C5.61523 23.0957 5.53711 23.0273 5.39062 22.998C3.39844 22.5977 3.44727 22.5586 3.04688 20.6543C3.02734 20.5176 2.94922 20.4297 2.80273 20.4297C2.66602 20.4297 2.59766 20.5176 2.55859 20.6543C2.1582 22.5586 2.23633 22.5977 0.224609 22.998C0.0878906 23.0273 0 23.0957 0 23.2422C0 23.3887 0.0878906 23.457 0.224609 23.4961C2.23633 23.8867 2.19727 23.916 2.55859 25.8301C2.59766 25.9668 2.66602 26.0547 2.80273 26.0547Z" fill="#000000" fill-opacity="0.85"/>
 </g>
</svg>
