<?xml version="1.0" encoding="UTF-8"?>
<!--Generator: Apple Native CoreSVG 175.5-->
<!DOCTYPE svg
PUBLIC "-//W3C//DTD SVG 1.1//EN"
       "http://www.w3.org/Graphics/SVG/1.1/DTD/svg11.dtd">
<svg version="1.1" xmlns="http://www.w3.org/2000/svg" xmlns:xlink="http://www.w3.org/1999/xlink" width="19.1577" height="21.5723">
 <g>
  <rect height="21.5723" opacity="0" width="19.1577" x="0" y="0"/>
  <path d="M10.2905 20.8789C12.0386 20.8789 13.4253 20.459 14.519 19.6289L3.59131 8.70117L3.59131 14.0234C3.59131 18.3301 6.41357 20.8789 10.2905 20.8789ZM16.9019 16.5039C17.019 16.2598 17.1265 16.0059 17.2144 15.7324C17.6831 14.5312 18.103 13.2129 18.5425 11.7773C18.7964 10.957 19.1577 9.91211 19.1577 9.44336C19.1577 8.91602 18.7769 8.56445 18.2202 8.56445C17.605 8.56445 17.2437 8.95508 16.7847 9.88281L15.4272 12.7344C15.2905 13.0469 15.1343 13.1641 14.978 13.1641C14.7729 13.1641 14.6362 13.0469 14.6362 12.7051L14.6362 2.46094C14.6362 1.88477 14.1675 1.41602 13.5913 1.41602C13.0151 1.41602 12.5464 1.88477 12.5464 2.46094L12.5464 9.78516C12.2827 9.6875 11.9897 9.60938 11.6772 9.55078L11.6772 1.05469C11.6772 0.478516 11.2085 0 10.6323 0C10.0562 0 9.57764 0.478516 9.57764 1.05469L9.57764 8.84766C9.43115 8.85742 9.38232 8.85742 9.2749 8.88672ZM6.56982 6.17188L8.65967 8.27148L8.65967 1.88477C8.65967 1.30859 8.19092 0.839844 7.61475 0.839844C7.03857 0.839844 6.56982 1.30859 6.56982 1.88477ZM4.37256 3.99414L5.69092 5.30273L5.69092 4.92188C5.69092 4.3457 5.22217 3.87695 4.646 3.87695C4.52881 3.87695 4.44092 3.92578 4.37256 3.99414Z" fill="#000000" fill-opacity="0.85"/>
  <path d="M17.5757 20.9961C17.8589 21.2793 18.3569 21.2891 18.6401 20.9961C18.9233 20.6934 18.9331 20.2246 18.6401 19.9316L1.28662 2.58789C0.993652 2.29492 0.515137 2.29492 0.212402 2.58789C-0.0708008 2.88086-0.0708008 3.36914 0.212402 3.65234Z" fill="#000000" fill-opacity="0.85"/>
 </g>
</svg>
