<?xml version="1.0" encoding="UTF-8"?>
<!--Generator: Apple Native CoreSVG 175.5-->
<!DOCTYPE svg
PUBLIC "-//W3C//DTD SVG 1.1//EN"
       "http://www.w3.org/Graphics/SVG/1.1/DTD/svg11.dtd">
<svg version="1.1" xmlns="http://www.w3.org/2000/svg" xmlns:xlink="http://www.w3.org/1999/xlink" width="26.9297" height="24.9188">
 <g>
  <rect height="24.9188" opacity="0" width="26.9297" x="0" y="0"/>
  <path d="M11.7159 21.5365C14.7628 24.5834 18.5518 24.3979 21.296 21.6537C23.4932 19.4565 23.9327 17.1811 22.9952 14.4272C22.5069 12.8744 21.6866 11.2338 20.6905 9.37833C20.2901 8.61661 19.8116 7.62052 19.4893 7.28849C19.1085 6.91739 18.5909 6.94669 18.2003 7.33732C17.7608 7.77677 17.7803 8.30411 18.1124 9.28068L19.1768 12.2592C19.294 12.5717 19.2647 12.767 19.1573 12.8842C19.0108 13.0209 18.835 13.0404 18.5909 12.7963L11.3448 5.55021C10.9444 5.14982 10.2803 5.14982 9.87019 5.55021C9.46004 5.96036 9.46004 6.62443 9.87019 7.03458L15.046 12.2104C14.7921 12.3276 14.5284 12.474 14.2647 12.6596L8.25886 6.65372C7.84871 6.24357 7.18465 6.24357 6.77449 6.65372C6.36433 7.05411 6.36433 7.72794 6.77449 8.12833L12.712 14.0658C12.5069 14.3002 12.3214 14.5443 12.1456 14.7983L6.7159 9.36857C6.30574 8.96818 5.64168 8.96818 5.23152 9.36857C4.82136 9.77872 4.82136 10.4428 5.23152 10.8529L11.13 16.7514C11.0128 17.0834 10.9346 17.4154 10.8663 17.7279L6.76472 13.6264C6.35457 13.2162 5.6905 13.2162 5.28035 13.6264C4.87996 14.0268 4.87996 14.7006 5.28035 15.101ZM16.7452 7.47404L14.8214 5.55021C14.4112 5.14982 13.7374 5.14982 13.337 5.55021C13.3175 5.56974 13.3077 5.5795 13.2979 5.6088L16.8428 9.16349C16.7257 8.55802 16.6768 8.00138 16.7452 7.47404ZM24.7628 21.6635C26.96 19.4565 27.3995 17.1713 26.4718 14.4174C25.9737 12.8744 25.1534 11.2436 24.1573 9.37833C23.7667 8.61661 23.2784 7.62052 22.9464 7.29825C22.5753 6.92716 22.0675 6.94669 21.6671 7.33732C21.5401 7.46427 21.4425 7.62052 21.3839 7.78654C21.5987 8.18693 21.8038 8.59708 22.0186 8.98771C22.9659 10.7846 23.796 12.474 24.2745 14.0561C25.3487 17.3666 24.7042 20.1401 22.2335 22.5912C21.8136 23.0209 21.3643 23.3822 20.8956 23.6947C22.2823 23.4994 23.6202 22.7963 24.7628 21.6635Z" fill="#000000" fill-opacity="0.85"/>
  <path d="M3.33699 8.25529C3.64949 8.31388 3.99129 8.11857 4.04988 7.77677C4.11824 7.44474 3.91316 7.13224 3.57136 7.05411L0.749099 6.44864C0.38777 6.37052 0.0557392 6.60489 0.00691112 6.95646C-0.041917 7.27872 0.172927 7.59122 0.495192 7.65958ZM4.32332 5.00333C4.56746 5.24747 4.95808 5.24747 5.19246 5.00333C5.42683 4.75919 5.4366 4.37833 5.19246 4.13419L3.14168 2.09318C2.88777 1.83927 2.51668 1.84904 2.27254 2.09318C2.0284 2.33732 2.01863 2.70841 2.27254 2.96232ZM7.95613 4.03654C8.28816 3.96818 8.52254 3.62638 8.44441 3.31388L7.83894 0.491613C7.76082 0.149817 7.43855-0.0552616 7.10652 0.0130978C6.77449 0.0814571 6.54011 0.403723 6.61824 0.74552L7.22371 3.55802C7.30183 3.88029 7.6241 4.11466 7.95613 4.03654Z" fill="#000000" fill-opacity="0.85"/>
 </g>
</svg>
