<?xml version="1.0" encoding="UTF-8"?>
<!--Generator: Apple Native CoreSVG 175.5-->
<!DOCTYPE svg
PUBLIC "-//W3C//DTD SVG 1.1//EN"
       "http://www.w3.org/Graphics/SVG/1.1/DTD/svg11.dtd">
<svg version="1.1" xmlns="http://www.w3.org/2000/svg" xmlns:xlink="http://www.w3.org/1999/xlink" width="17.5391" height="25.8105">
 <g>
  <rect height="25.8105" opacity="0" width="17.5391" x="0" y="0"/>
  <path d="M9.36523 25.2637C13.4961 25.2637 16.2598 22.4902 16.2598 17.9199L16.2598 15.791C16.2598 13.5352 15.1953 12.2168 13.3789 12.1973C13.1543 11.4844 12.5684 11.0449 11.748 11.0449C11.4551 11.0449 11.1719 11.0938 10.8984 11.1914C10.6445 10.4004 10 9.92188 9.15039 9.92188C8.92578 9.92188 8.69141 9.95117 8.45703 10.0195L8.45703 6.76758C8.45703 5.53711 7.63672 4.7168 6.48438 4.7168C5.32227 4.7168 4.50195 5.53711 4.50195 6.76758L4.50195 14.9219C4.50195 14.9707 4.47266 15.0098 4.42383 15.0098C4.38477 15.0098 4.35547 14.9805 4.3457 14.9414L3.69141 13.3789C3.36914 12.6172 2.79297 12.207 2.09961 12.207C1.15234 12.207 0.3125 12.8125 0.3125 13.8867C0.3125 14.1797 0.371094 14.5703 0.488281 14.9121L2.20703 19.7461C3.50586 23.4082 5.91797 25.2637 9.36523 25.2637ZM9.41406 23.916C6.67969 23.916 4.58984 22.6562 3.39844 19.3262L1.67969 14.502C1.62109 14.3555 1.5918 14.2285 1.5918 14.0625C1.5918 13.7207 1.8457 13.4375 2.23633 13.4375C2.56836 13.4375 2.76367 13.6328 2.91016 13.9648L4.23828 16.9336C4.45312 17.4219 4.75586 17.5781 5.09766 17.5781C5.50781 17.5781 5.80078 17.2559 5.80078 16.8066L5.80078 6.67969C5.80078 6.26953 6.08398 5.97656 6.48438 5.97656C6.88477 5.97656 7.1582 6.26953 7.1582 6.67969L7.1582 13.9062C7.1582 14.248 7.45117 14.5117 7.79297 14.5117C8.125 14.5117 8.39844 14.248 8.39844 13.9062L8.39844 11.3086C8.56445 11.2305 8.78906 11.1816 8.98438 11.1816C9.47266 11.1816 9.76562 11.4941 9.76562 12.0117L9.76562 14.2773C9.76562 14.6387 10.0586 14.8828 10.3906 14.8828C10.7129 14.8828 11.0059 14.6387 11.0059 14.2773L11.0059 12.4316C11.1719 12.3535 11.3965 12.3047 11.582 12.3047C12.0801 12.3047 12.3633 12.627 12.3633 13.1348L12.3633 14.6582C12.3633 15.0195 12.666 15.2539 12.998 15.2539C13.3203 15.2539 13.6035 15.0195 13.6035 14.6582L13.6035 13.5352C14.4727 13.5352 14.9707 14.4336 14.9707 15.9863L14.9707 17.7637C14.9707 21.6895 12.8613 23.916 9.41406 23.916Z" fill="#000000" fill-opacity="0.85"/>
  <path d="M1.50391 7.5C2.37305 7.5 3.03711 6.81641 3.03711 5.9668C3.03711 5.12695 2.37305 4.44336 1.50391 4.44336C0.673828 4.44336 0 5.12695 0 5.9668C0 6.81641 0.673828 7.5 1.50391 7.5ZM6.48438 3.05664C7.33398 3.05664 8.01758 2.37305 8.01758 1.52344C8.01758 0.693359 7.33398 0 6.48438 0C5.6543 0 4.96094 0.693359 4.96094 1.52344C4.96094 2.37305 5.6543 3.05664 6.48438 3.05664ZM11.5137 7.5C12.3633 7.5 13.0469 6.81641 13.0469 5.9668C13.0469 5.12695 12.3633 4.44336 11.5137 4.44336C10.6738 4.44336 9.99023 5.12695 9.99023 5.9668C9.99023 6.81641 10.6738 7.5 11.5137 7.5ZM16.0059 7.5C16.8555 7.5 17.5391 6.81641 17.5391 5.9668C17.5391 5.12695 16.8555 4.44336 16.0059 4.44336C15.1758 4.44336 14.4922 5.12695 14.4922 5.9668C14.4922 6.81641 15.1758 7.5 16.0059 7.5ZM16.0059 3.05664C16.8555 3.05664 17.5391 2.37305 17.5391 1.52344C17.5391 0.693359 16.8555 0 16.0059 0C15.1758 0 14.4922 0.693359 14.4922 1.52344C14.4922 2.37305 15.1758 3.05664 16.0059 3.05664Z" fill="#000000" fill-opacity="0.85"/>
 </g>
</svg>
