<?xml version="1.0" encoding="UTF-8"?>
<!--Generator: Apple Native CoreSVG 175.5-->
<!DOCTYPE svg
PUBLIC "-//W3C//DTD SVG 1.1//EN"
       "http://www.w3.org/Graphics/SVG/1.1/DTD/svg11.dtd">
<svg version="1.1" xmlns="http://www.w3.org/2000/svg" xmlns:xlink="http://www.w3.org/1999/xlink" width="21.7959" height="19.0712">
 <g>
  <rect height="19.0712" opacity="0" width="21.7959" x="0" y="0"/>
  <path d="M17.2461 18.5737C21.123 17.1675 22.7734 13.6128 21.2109 9.31589L20.4883 7.31394C19.7168 5.1948 18.2617 4.32566 16.5527 4.92136C16.0938 4.32566 15.3906 4.12058 14.6289 4.39402C14.3457 4.50144 14.1016 4.64792 13.8672 4.8237C13.3691 4.17917 12.5977 3.9448 11.7969 4.228C11.582 4.30613 11.377 4.42331 11.1816 4.56003L10.0684 1.51316C9.64844 0.351047 8.59375-0.137234 7.50977 0.253391C6.41602 0.653781 5.92773 1.6987 6.34766 2.86081L9.13086 10.5171C9.15039 10.5659 9.14062 10.605 9.0918 10.6245C9.0625 10.644 9.02344 10.6245 8.99414 10.5952L7.85156 9.34519C7.28516 8.73972 6.60156 8.55417 5.94727 8.78855C5.05859 9.12058 4.48242 9.97019 4.85352 10.976C4.94141 11.2593 5.13672 11.601 5.36133 11.8843L8.63281 15.8393C11.1133 18.8276 14.0039 19.7553 17.2461 18.5737ZM16.8262 17.2944C14.2676 18.2319 11.875 17.7534 9.60938 15.0288L6.33789 11.0932C6.24023 10.976 6.17188 10.8686 6.11328 10.7026C5.99609 10.3901 6.13281 10.0288 6.50391 9.89206C6.81641 9.78464 7.07031 9.90183 7.31445 10.1655L9.58008 12.4995C9.95117 12.8901 10.2832 12.9292 10.6152 12.812C10.9961 12.6753 11.1523 12.2651 10.9961 11.8452L7.53906 2.33347C7.39258 1.94284 7.56836 1.57175 7.94922 1.43503C8.32031 1.29831 8.68164 1.48386 8.81836 1.87448L11.2891 8.66159C11.4062 8.98386 11.7676 9.13034 12.0898 9.01316C12.4023 8.89597 12.5781 8.55417 12.4609 8.24167L11.5723 5.7905C11.6992 5.66355 11.8945 5.53659 12.0703 5.46823C12.5293 5.30222 12.9102 5.5073 13.0859 5.98581L13.8672 8.12448C13.9844 8.45652 14.3555 8.58347 14.668 8.46628C14.9609 8.35886 15.1562 8.03659 15.0293 7.6948L14.3945 5.95652C14.5312 5.82956 14.7168 5.70261 14.9023 5.63425C15.3613 5.46823 15.7422 5.67331 15.918 6.15183L16.4355 7.57761C16.5625 7.91941 16.9238 8.04636 17.2363 7.92917C17.5391 7.82175 17.7246 7.48972 17.6074 7.15769L17.2266 6.103C18.0371 5.81003 18.8086 6.47409 19.3359 7.93894L19.9512 9.60886C21.2891 13.3003 20.0781 16.1128 16.8262 17.2944Z" fill="#000000" fill-opacity="0.85"/>
  <path d="M4.77539 2.45066C1.9043 4.18894 0 7.44089 0 11.4448C0 11.7964 0.302734 12.0991 0.634766 12.0893C0.976562 12.0796 1.2207 11.8159 1.23047 11.4643C1.31836 7.95847 2.82227 5.20456 5.21484 3.65183Z" fill="#000000" fill-opacity="0.85"/>
 </g>
</svg>
