<?xml version="1.0" encoding="UTF-8"?>
<!--Generator: Apple Native CoreSVG 175.5-->
<!DOCTYPE svg
PUBLIC "-//W3C//DTD SVG 1.1//EN"
       "http://www.w3.org/Graphics/SVG/1.1/DTD/svg11.dtd">
<svg version="1.1" xmlns="http://www.w3.org/2000/svg" xmlns:xlink="http://www.w3.org/1999/xlink" width="20.6641" height="20.4785">
 <g>
  <rect height="20.4785" opacity="0" width="20.6641" x="0" y="0"/>
  <path d="M7.80273 20.4785L17.6074 20.4785C19.6387 20.4785 20.6641 19.4629 20.6641 17.4512L20.6641 7.56836C20.6641 5.55664 19.6387 4.54102 17.6074 4.54102L7.80273 4.54102C5.75195 4.54102 4.73633 5.54688 4.73633 7.56836L4.73633 17.4512C4.73633 19.4629 5.75195 20.4785 7.80273 20.4785ZM0 12.9297C0 14.9414 1.01562 15.957 3.06641 15.957L3.39844 15.957L3.39844 7.56836C3.39844 4.80469 5.01953 3.21289 7.80273 3.21289L15.9277 3.21289L15.9277 3.04688C15.9277 1.03516 14.9023 0.0195312 12.8711 0.0195312L3.06641 0.0195312C1.01562 0.0195312 0 1.03516 0 3.04688Z" fill="#000000" fill-opacity="0.85"/>
  <path d="M9.01367 14.1895L9.01367 9.36523C9.01367 9.0625 9.26758 8.79883 9.59961 8.79883C9.90234 8.79883 10.166 9.0625 10.166 9.36523L10.166 12.3926C10.293 12.3145 10.4102 12.2266 10.5957 12.168L10.5957 7.75391C10.5957 7.43164 10.8594 7.17773 11.1621 7.17773C11.4746 7.17773 11.7285 7.43164 11.7285 7.75391L11.7285 11.7969C11.8848 11.7676 12.041 11.748 12.1875 11.7383L12.1875 7.30469C12.1875 6.99219 12.4414 6.73828 12.7637 6.73828C13.0762 6.73828 13.3301 6.99219 13.3301 7.30469L13.3301 11.7871C13.4766 11.8359 13.6328 11.875 13.75 11.9141L13.75 8.04688C13.75 7.74414 14.0137 7.49023 14.3359 7.49023C14.6289 7.49023 14.9023 7.74414 14.9023 8.04688L14.9023 13.4766C14.9023 13.6328 14.9512 13.7109 15.0684 13.7109C15.1562 13.7109 15.2246 13.6426 15.2832 13.4863L16.0156 11.9727C16.2598 11.4844 16.4453 11.2695 16.7871 11.2695C17.0898 11.2695 17.2949 11.4648 17.2949 11.7578C17.2949 12.002 17.1094 12.5488 16.9629 12.9883C16.6504 14.043 16.3574 14.9707 15.9473 15.7422C15.2344 17.2168 14.1602 17.8418 12.5879 17.8418C10.4785 17.8418 9.01367 16.4551 9.01367 14.1895Z" fill="#ffffff"/>
 </g>
</svg>
