<?xml version="1.0" encoding="UTF-8"?>
<!--Generator: Apple Native CoreSVG 175.5-->
<!DOCTYPE svg
PUBLIC "-//W3C//DTD SVG 1.1//EN"
       "http://www.w3.org/Graphics/SVG/1.1/DTD/svg11.dtd">
<svg version="1.1" xmlns="http://www.w3.org/2000/svg" xmlns:xlink="http://www.w3.org/1999/xlink" width="23.0849" height="27.7637">
 <g>
  <rect height="27.7637" opacity="0" width="23.0849" x="0" y="0"/>
  <path d="M7.87109 22.959C10.918 26.0059 14.707 25.8203 17.4512 23.0762C19.6484 20.8789 20.0879 18.6035 19.1504 15.8496C18.6621 14.2969 17.8418 12.6562 16.8457 10.8008C16.4453 10.0391 15.9668 9.04297 15.6348 8.71094C15.2637 8.33984 14.7461 8.36914 14.3555 8.75977C13.916 9.19922 13.9355 9.72656 14.2676 10.7031L15.3223 13.6816C15.4492 13.9941 15.4199 14.1895 15.3125 14.3066C15.166 14.4434 14.9902 14.4629 14.7461 14.2188L7.5 6.97266C7.09961 6.57227 6.42578 6.57227 6.02539 6.97266C5.61523 7.38281 5.61523 8.04688 6.02539 8.45703L11.2012 13.6328C10.9473 13.75 10.6836 13.8965 10.4199 14.082L4.41406 8.07617C4.00391 7.66602 3.33984 7.66602 2.92969 8.07617C2.51953 8.47656 2.51953 9.15039 2.92969 9.55078L8.86719 15.4883C8.66211 15.7227 8.47656 15.9668 8.30078 16.2207L2.87109 10.791C2.46094 10.3906 1.79688 10.3906 1.38672 10.791C0.976562 11.2012 0.976562 11.8652 1.38672 12.2754L7.28516 18.1738C7.16797 18.5059 7.08984 18.8379 7.02148 19.1504L2.91992 15.0488C2.50977 14.6387 1.8457 14.6387 1.43555 15.0488C1.03516 15.4492 1.03516 16.123 1.43555 16.5234ZM12.9004 8.89648L10.9766 6.97266C10.5664 6.57227 9.89258 6.57227 9.49219 6.97266C9.47266 6.99219 9.46289 7.00195 9.45312 7.03125L12.998 10.5859C12.8809 9.98047 12.832 9.42383 12.9004 8.89648ZM20.918 23.0859C23.1152 20.8789 23.5547 18.5938 22.627 15.8398C22.1289 14.2969 21.3086 12.666 20.3125 10.8008C19.9219 10.0391 19.4336 9.04297 19.1016 8.7207C18.7305 8.34961 18.2227 8.36914 17.8223 8.75977C17.6855 8.88672 17.5977 9.04297 17.5391 9.20898C17.7539 9.60938 17.959 10.0195 18.1738 10.4102C19.1211 12.207 19.9512 13.8965 20.4297 15.4785C21.5039 18.7891 20.8594 21.5625 18.3887 24.0137C17.9688 24.4434 17.5195 24.8047 17.0508 25.1172C18.4375 24.9219 19.7754 24.2188 20.918 23.0859Z" fill="#000000" fill-opacity="0.85"/>
  <path d="M14.6582 6.96289C14.8242 6.96289 14.9414 6.85547 14.9512 6.67969C15.2344 4.38477 15.3418 4.32617 17.6855 3.93555C17.8711 3.91602 17.9785 3.81836 17.9785 3.65234C17.9785 3.49609 17.8711 3.39844 17.7246 3.36914C15.3613 2.91992 15.2344 2.92969 14.9512 0.634766C14.9414 0.458984 14.8242 0.351562 14.6582 0.351562C14.5117 0.351562 14.3945 0.458984 14.3848 0.625C14.082 2.95898 14.0039 3.02734 11.6113 3.36914C11.4648 3.38867 11.3574 3.49609 11.3574 3.65234C11.3574 3.80859 11.4648 3.91602 11.6113 3.93555C14.0039 4.4043 14.0723 4.39453 14.3848 6.69922C14.3945 6.85547 14.5117 6.96289 14.6582 6.96289ZM8.125 4.32617C8.24219 4.32617 8.32031 4.26758 8.34961 4.14062C8.61328 2.67578 8.61328 2.66602 10.0879 2.39258C10.2148 2.36328 10.293 2.28516 10.293 2.16797C10.293 2.04102 10.2148 1.96289 10.0879 1.93359C8.61328 1.64062 8.66211 1.63086 8.34961 0.195312C8.32031 0.0683594 8.25195 0 8.125 0C8.00781 0 7.91992 0.078125 7.90039 0.195312C7.58789 1.63086 7.63672 1.64062 6.16211 1.93359C6.02539 1.96289 5.95703 2.05078 5.95703 2.16797C5.95703 2.27539 6.02539 2.36328 6.16211 2.39258C7.63672 2.68555 7.62695 2.67578 7.90039 4.14062C7.91992 4.25781 8.00781 4.32617 8.125 4.32617ZM2.8125 26.0547C2.94922 26.0547 3.02734 25.9668 3.04688 25.8301C3.4082 23.916 3.39844 23.877 5.40039 23.4961C5.53711 23.457 5.625 23.3887 5.625 23.2422C5.625 23.0957 5.53711 23.0273 5.40039 22.998C3.39844 22.5977 3.44727 22.5586 3.04688 20.6543C3.02734 20.5176 2.94922 20.4297 2.8125 20.4297C2.67578 20.4297 2.59766 20.5176 2.56836 20.6543C2.16797 22.5586 2.23633 22.5977 0.224609 22.998C0.0878906 23.0273 0 23.0957 0 23.2422C0 23.3887 0.0878906 23.457 0.224609 23.4961C2.23633 23.8867 2.20703 23.916 2.56836 25.8301C2.59766 25.9668 2.67578 26.0547 2.8125 26.0547Z" fill="#000000" fill-opacity="0.85"/>
 </g>
</svg>
