<?xml version="1.0" encoding="UTF-8"?>
<!--Generator: Apple Native CoreSVG 175.5-->
<!DOCTYPE svg
PUBLIC "-//W3C//DTD SVG 1.1//EN"
       "http://www.w3.org/Graphics/SVG/1.1/DTD/svg11.dtd">
<svg version="1.1" xmlns="http://www.w3.org/2000/svg" xmlns:xlink="http://www.w3.org/1999/xlink" width="26.3287" height="24.9188">
 <g>
  <rect height="24.9188" opacity="0" width="26.3287" x="0" y="0"/>
  <path d="M21.6671 21.8393C24.0987 19.4174 24.4893 16.3901 22.8194 12.8842L20.6221 8.24552C20.4659 7.92325 20.2803 7.65958 20.0753 7.4545C19.3428 6.72208 18.2784 6.76114 17.5753 7.47404C17.0968 7.94279 16.9503 8.65568 17.2725 9.43693L17.9171 10.9897C17.9366 11.0287 17.9366 11.0678 17.9073 11.0971C17.8682 11.1361 17.8292 11.1264 17.7901 11.0873L12.253 5.55021C11.4522 4.73966 10.4366 4.73966 9.66511 5.51114C9.38191 5.79435 9.22566 6.14591 9.2159 6.517C8.41511 5.90177 7.52644 5.9213 6.84285 6.61466C6.16902 7.27872 6.14949 8.19669 6.72566 8.97794C6.3741 8.97794 6.04207 9.13419 5.78816 9.3881C5.07527 10.101 5.0948 11.0776 5.85652 11.849L6.628 12.6108C6.24715 12.601 5.86629 12.7768 5.57332 13.0795C4.85066 13.7924 4.88972 14.8178 5.66121 15.5893L11.5987 21.5268C14.8311 24.7592 18.7471 24.7592 21.6671 21.8393ZM20.6807 20.9213C18.2393 23.3627 15.1729 23.2846 12.3995 20.5014L6.67683 14.7787C6.3741 14.4858 6.36433 14.0951 6.64754 13.8022C6.93074 13.519 7.3409 13.519 7.63386 13.8119L11.169 17.3471C11.4229 17.601 11.794 17.5619 12.0284 17.3373C12.2628 17.1029 12.3018 16.7221 12.0479 16.4682L6.76472 11.185C6.47175 10.892 6.45222 10.5014 6.73543 10.2182C7.0284 9.93497 7.43855 9.93497 7.73152 10.2279L12.6534 15.1498C12.9073 15.4037 13.2882 15.3744 13.5128 15.1401C13.7471 14.9057 13.7862 14.5248 13.5323 14.2709L7.75105 8.48966C7.45808 8.19669 7.44832 7.78654 7.73152 7.50333C8.00496 7.22013 8.42488 7.23966 8.71785 7.53263L14.4991 13.3139C14.7335 13.5483 15.1143 13.5385 15.3487 13.3041C15.5928 13.06 15.6124 12.6791 15.378 12.435L10.4464 7.50333C10.1534 7.21036 10.1436 6.80997 10.4366 6.52677C10.7198 6.2338 11.1202 6.24357 11.4132 6.5463L18.21 13.3432C18.5518 13.685 18.962 13.685 19.2452 13.392C19.4893 13.1479 19.5968 12.8256 19.4014 12.3276L18.1807 9.11466C18.0147 8.68497 18.171 8.32364 18.503 8.16739C18.8741 8.00138 19.1964 8.16739 19.421 8.63614L21.6866 13.4311C23.2003 16.6342 22.6046 18.9877 20.6807 20.9213ZM12.1651 4.63224C11.8721 4.90568 11.7257 5.267 11.7061 5.6381L12.9366 6.62443C12.6534 6.34122 12.6436 5.93107 12.9268 5.6381C13.21 5.35489 13.6104 5.37443 13.9132 5.66739L17.2237 8.98771L18.0147 7.93302L14.753 4.6713C13.9327 3.86075 12.9366 3.86075 12.1651 4.63224ZM24.1671 20.9701C26.5889 18.5385 26.9796 15.5111 25.3194 12.0053L23.1124 7.35685C22.712 6.49747 22.0382 6.04825 21.2374 6.04825C20.6124 6.04825 19.5186 6.48771 19.5186 7.767C19.5186 7.87443 19.5186 7.98185 19.5382 8.09904L20.7003 8.4213C20.6417 8.29435 20.6026 8.16739 20.6026 8.00138C20.6026 7.68888 20.8565 7.37638 21.2764 7.37638C21.5401 7.37638 21.8136 7.56193 21.96 7.87443L24.1768 12.5522C25.6905 15.7455 25.1143 18.1186 23.171 20.0326C22.3897 20.8139 21.5401 21.3412 20.671 21.5951L19.2452 23.099C20.9932 23.1479 22.7022 22.4252 24.1671 20.9701Z" fill="#000000" fill-opacity="0.85"/>
  <path d="M3.32722 8.25529C3.64949 8.31388 3.99129 8.11857 4.04988 7.77677C4.11824 7.44474 3.91316 7.13224 3.57136 7.05411L0.749099 6.44864C0.38777 6.37052 0.0557392 6.60489 0.00691112 6.95646C-0.041917 7.27872 0.172927 7.59122 0.495192 7.65958ZM4.31355 5.00333C4.55769 5.24747 4.95808 5.24747 5.19246 5.00333C5.42683 4.75919 5.4366 4.37833 5.19246 4.13419L3.14168 2.09318C2.88777 1.83927 2.51668 1.84904 2.27254 2.09318C2.0284 2.33732 2.01863 2.70841 2.27254 2.96232ZM7.95613 4.03654C8.28816 3.96818 8.52254 3.62638 8.44441 3.31388L7.83894 0.491613C7.76082 0.149817 7.42879-0.0552616 7.10652 0.0130978C6.77449 0.0814571 6.54011 0.403723 6.61824 0.74552L7.22371 3.55802C7.30183 3.88029 7.61433 4.11466 7.95613 4.03654Z" fill="#000000" fill-opacity="0.85"/>
 </g>
</svg>
