<?xml version="1.0" encoding="UTF-8"?>
<!--Generator: Apple Native CoreSVG 175.5-->
<!DOCTYPE svg
PUBLIC "-//W3C//DTD SVG 1.1//EN"
       "http://www.w3.org/Graphics/SVG/1.1/DTD/svg11.dtd">
<svg version="1.1" xmlns="http://www.w3.org/2000/svg" xmlns:xlink="http://www.w3.org/1999/xlink" width="17.5391" height="25.8105">
 <g>
  <rect height="25.8105" opacity="0" width="17.5391" x="0" y="0"/>
  <path d="M9.87305 24.8828C14.1113 24.8828 16.4941 22.2266 16.4941 17.6855L16.4941 15.8105C16.4941 14.0918 15.6738 13.0469 14.7363 13.0469C14.5215 13.0469 14.4141 13.1641 14.4141 13.3594L14.4141 14.1895C14.4141 14.5898 14.209 14.7754 13.9746 14.7754C13.7207 14.7754 13.5254 14.5898 13.5254 14.1895L13.5254 13.6426C13.5254 12.6367 12.8711 11.9727 12.002 11.9727C11.6016 11.9727 11.4258 12.1387 11.4258 12.4707L11.4258 13.6035C11.4258 14.0039 11.2305 14.1895 10.9961 14.1895C10.7422 14.1895 10.5371 14.0039 10.5371 13.6035L10.5371 12.5586C10.5371 11.4258 9.88281 10.8887 9.0332 10.8887C8.66211 10.8887 8.45703 11.0645 8.45703 11.3867L8.45703 13.6035C8.45703 14.0039 8.26172 14.1895 8.02734 14.1895C7.77344 14.1895 7.56836 14.0039 7.56836 13.6035L7.56836 6.19141C7.56836 5.46875 7.09961 5 6.48438 5C5.83008 5 5.38086 5.46875 5.38086 6.19141L5.38086 17.041C5.38086 17.3145 5.20508 17.4512 5.03906 17.4512C4.87305 17.4512 4.73633 17.3535 4.61914 17.0898L3.18359 13.6914C2.96875 13.1934 2.64648 12.9785 2.20703 12.9785C1.5332 12.9785 1.10352 13.4375 1.10352 13.9941C1.10352 14.209 1.15234 14.3945 1.20117 14.5508L2.7832 19.2676C4.13086 23.252 6.75781 24.8828 9.87305 24.8828Z" fill="#000000" fill-opacity="0.85"/>
  <path d="M1.50391 7.5C2.37305 7.5 3.03711 6.81641 3.03711 5.9668C3.03711 5.12695 2.37305 4.44336 1.50391 4.44336C0.673828 4.44336 0 5.12695 0 5.9668C0 6.81641 0.673828 7.5 1.50391 7.5ZM6.48438 3.05664C7.33398 3.05664 8.01758 2.37305 8.01758 1.52344C8.01758 0.693359 7.33398 0 6.48438 0C5.6543 0 4.96094 0.693359 4.96094 1.52344C4.96094 2.37305 5.6543 3.05664 6.48438 3.05664ZM11.5137 7.5C12.3633 7.5 13.0469 6.81641 13.0469 5.9668C13.0469 5.12695 12.3633 4.44336 11.5137 4.44336C10.6738 4.44336 9.99023 5.12695 9.99023 5.9668C9.99023 6.81641 10.6738 7.5 11.5137 7.5ZM16.0059 7.5C16.8555 7.5 17.5391 6.81641 17.5391 5.9668C17.5391 5.12695 16.8555 4.44336 16.0059 4.44336C15.1758 4.44336 14.4922 5.12695 14.4922 5.9668C14.4922 6.81641 15.1758 7.5 16.0059 7.5ZM16.0059 3.05664C16.8555 3.05664 17.5391 2.37305 17.5391 1.52344C17.5391 0.693359 16.8555 0 16.0059 0C15.1758 0 14.4922 0.693359 14.4922 1.52344C14.4922 2.37305 15.1758 3.05664 16.0059 3.05664Z" fill="#000000" fill-opacity="0.85"/>
 </g>
</svg>
