<?xml version="1.0" encoding="UTF-8"?>
<!--Generator: Apple Native CoreSVG 175.5-->
<!DOCTYPE svg
PUBLIC "-//W3C//DTD SVG 1.1//EN"
       "http://www.w3.org/Graphics/SVG/1.1/DTD/svg11.dtd">
<svg version="1.1" xmlns="http://www.w3.org/2000/svg" xmlns:xlink="http://www.w3.org/1999/xlink" width="25.7227" height="16.5723">
 <g>
  <rect height="16.5723" opacity="0" width="25.7227" x="0" y="0"/>
  <path d="M9.4043 8.28125C9.38477 10.166 9.54102 11.9727 10.0586 13.8184C10.6543 15.8301 11.7871 16.543 14.1699 16.543L14.7168 16.543C20.5371 16.543 25.7227 12.7441 25.7227 8.28125C25.7227 3.81836 20.5371 0 14.7168 0L14.1699 0C11.7969 0 10.6641 0.722656 10.0586 2.73438C9.54102 4.58984 9.38477 6.39648 9.4043 8.28125ZM10.9766 8.28125C10.9668 6.18164 11.1426 4.66797 11.5723 3.17383C11.9238 2.00195 12.6367 1.5625 14.1699 1.5625L14.7168 1.5625C19.6289 1.5625 24.1504 4.7168 24.1504 8.28125C24.1504 11.8457 19.6289 14.9805 14.7168 14.9805L14.1699 14.9805C12.6172 14.9805 11.9141 14.541 11.5723 13.3887C11.1426 11.8945 10.9668 10.3809 10.9766 8.28125ZM0 2.71484C0 3.16406 0.361328 3.50586 0.78125 3.50586L8.20312 3.50586C8.36914 2.73438 8.4668 2.32422 8.61328 1.93359L0.78125 1.93359C0.361328 1.93359 0 2.29492 0 2.71484ZM0 6.41602C0 6.85547 0.371094 7.20703 0.78125 7.20703L7.7832 7.2168C7.79297 6.66992 7.8418 6.14258 7.89062 5.63477L0.78125 5.63477C0.361328 5.63477 0 5.99609 0 6.41602ZM0 10.127C0 10.5566 0.361328 10.9082 0.78125 10.9082L7.89062 10.9082C7.8418 10.3906 7.80273 9.86328 7.7832 9.33594L0.78125 9.33594C0.361328 9.33594 0 9.70703 0 10.127ZM0 13.8281C0 14.2578 0.361328 14.6094 0.78125 14.6094L8.60352 14.6191C8.47656 14.2383 8.29102 13.5059 8.20312 13.0469L0.78125 13.0371C0.361328 13.0371 0 13.4082 0 13.8281Z" fill="#000000" fill-opacity="0.85"/>
 </g>
</svg>
