<?xml version="1.0" encoding="UTF-8"?>
<!--Generator: Apple Native CoreSVG 175.5-->
<!DOCTYPE svg
PUBLIC "-//W3C//DTD SVG 1.1//EN"
       "http://www.w3.org/Graphics/SVG/1.1/DTD/svg11.dtd">
<svg version="1.1" xmlns="http://www.w3.org/2000/svg" xmlns:xlink="http://www.w3.org/1999/xlink" width="20.3003" height="20.0977">
 <g>
  <rect height="20.0977" opacity="0" width="20.3003" x="0" y="0"/>
  <path d="M17.0386 14.3799C19.1187 12.0947 20.3003 9.70215 20.3003 7.28027C20.3003 3.82324 17.9272 1.38184 14.8608 1.38184C12.9565 1.38184 11.4917 2.43652 10.603 4.04785C9.73389 2.44629 8.24951 1.38184 6.34521 1.38184C5.66162 1.38184 5.00732 1.49902 4.42139 1.7334ZM14.2456 16.958L1.60889 4.31152C1.15967 5.16113 0.905762 6.16699 0.905762 7.28027C0.905762 11.4404 4.39209 15.5322 9.8999 19.0479C10.105 19.1748 10.3979 19.3115 10.603 19.3115C10.8081 19.3115 11.1011 19.1748 11.3159 19.0479C12.3608 18.374 13.3472 17.6709 14.2456 16.958Z" fill="#000000" fill-opacity="0.85"/>
  <path d="M17.8394 18.8916C18.1323 19.1943 18.6206 19.1943 18.9038 18.8916C19.187 18.5986 19.1968 18.1299 18.9038 17.8271L1.28662 0.219727C0.993652-0.0732422 0.505371-0.0732422 0.212402 0.219727C-0.0708008 0.50293-0.0708008 1.00098 0.212402 1.28418Z" fill="#000000" fill-opacity="0.85"/>
 </g>
</svg>
