<?xml version="1.0" encoding="UTF-8"?>
<!--Generator: Apple Native CoreSVG 175.5-->
<!DOCTYPE svg
PUBLIC "-//W3C//DTD SVG 1.1//EN"
       "http://www.w3.org/Graphics/SVG/1.1/DTD/svg11.dtd">
<svg version="1.1" xmlns="http://www.w3.org/2000/svg" xmlns:xlink="http://www.w3.org/1999/xlink" width="19.9219" height="19.9316">
 <g>
  <rect height="19.9316" opacity="0" width="19.9219" x="0" y="0"/>
  <path d="M9.96094 19.9219C15.4102 19.9219 19.9219 15.4004 19.9219 9.96094C19.9219 4.51172 15.4004 0 9.95117 0C4.51172 0 0 4.51172 0 9.96094C0 15.4004 4.52148 19.9219 9.96094 19.9219ZM9.96094 18.2617C5.35156 18.2617 1.66992 14.5703 1.66992 9.96094C1.66992 5.35156 5.3418 1.66016 9.95117 1.66016C14.5605 1.66016 18.2617 5.35156 18.2617 9.96094C18.2617 14.5703 14.5703 18.2617 9.96094 18.2617Z" fill="#000000" fill-opacity="0.85"/>
  <path d="M7.37305 5.68359L13.6719 11.9922C14.5215 10.9766 15.1465 9.84375 15.1465 8.63281C15.1465 6.9043 13.9453 5.6543 12.2949 5.6543C11.2598 5.6543 10.4297 6.25 9.95117 7.13867C9.46289 6.25 8.65234 5.6543 7.60742 5.6543C7.5293 5.6543 7.45117 5.66406 7.37305 5.68359ZM11.9727 13.6523L5.23438 6.92383C4.93164 7.39258 4.75586 7.97852 4.75586 8.63281C4.75586 11.2012 7.43164 13.6035 9.46289 14.834C9.62891 14.9316 9.84375 15.0684 9.9707 15.0684C10.0879 15.0684 10.2832 14.9414 10.4297 14.834C10.8984 14.502 11.4453 14.1016 11.9727 13.6523ZM14.5508 15.1855C14.7266 15.3516 15.0098 15.3516 15.1758 15.1855C15.3613 15.0098 15.3613 14.7363 15.1758 14.5605L5.3418 4.7168C5.16602 4.54102 4.88281 4.54102 4.70703 4.7168C4.54102 4.89258 4.54102 5.17578 4.70703 5.3418Z" fill="#000000" fill-opacity="0.85"/>
 </g>
</svg>
