<?xml version="1.0" encoding="UTF-8"?>
<!--Generator: Apple Native CoreSVG 175.5-->
<!DOCTYPE svg
PUBLIC "-//W3C//DTD SVG 1.1//EN"
       "http://www.w3.org/Graphics/SVG/1.1/DTD/svg11.dtd">
<svg version="1.1" xmlns="http://www.w3.org/2000/svg" xmlns:xlink="http://www.w3.org/1999/xlink" width="15" height="22.7051">
 <g>
  <rect height="22.7051" opacity="0" width="15" x="0" y="0"/>
  <path d="M0 16.4062C0 19.1016 1.67969 20.8203 4.30664 20.8203C6.26953 20.8203 7.73438 19.9609 8.66211 18.3008L9.54102 16.7285C11.6016 12.959 15 12.4707 15 7.62695C15 3.05664 12.041 0 7.60742 0C3.06641 0 0 3.07617 0 7.66602ZM1.47461 16.3086L1.47461 7.66602C1.47461 3.94531 3.92578 1.47461 7.60742 1.47461C11.1621 1.47461 13.5254 3.94531 13.5254 7.62695C13.5254 11.6797 10.3516 12.3828 8.22266 16.0645L7.37305 17.5195C6.67969 18.7305 5.71289 19.3066 4.375 19.3066C2.56836 19.3066 1.47461 18.1738 1.47461 16.3086Z" fill="#000000" fill-opacity="0.85"/>
  <path d="M3.00781 13.5645C3.00781 14.5801 3.76953 15.2539 4.91211 15.2539C6.38672 15.2441 7.39258 13.9941 7.39258 12.4219C7.39258 9.60938 4.48242 9.14062 4.48242 7.1582C4.48242 5.625 5.73242 4.49219 7.59766 4.49219C9.49219 4.49219 10.7129 5.72266 10.7129 7.60742C10.7129 8.00781 11.0449 8.34961 11.4453 8.34961C11.8457 8.34961 12.1875 8.00781 12.1875 7.60742C12.1875 4.86328 10.3516 3.01758 7.59766 3.01758C4.85352 3.01758 3.00781 4.74609 3.00781 7.1582C3.00781 9.27734 5.00977 9.9707 5.00977 10.918C5.00977 11.9727 3.00781 11.7383 3.00781 13.5645Z" fill="#000000" fill-opacity="0.85"/>
 </g>
</svg>
