<?xml version="1.0" encoding="UTF-8"?>
<!--Generator: Apple Native CoreSVG 175.5-->
<!DOCTYPE svg
PUBLIC "-//W3C//DTD SVG 1.1//EN"
       "http://www.w3.org/Graphics/SVG/1.1/DTD/svg11.dtd">
<svg version="1.1" xmlns="http://www.w3.org/2000/svg" xmlns:xlink="http://www.w3.org/1999/xlink" width="21.7188" height="20.8496">
 <g>
  <rect height="20.8496" opacity="0" width="21.7188" x="0" y="0"/>
  <path d="M6.71875 16.4062C6.71875 19.1113 8.38867 20.8301 11.0254 20.8301C12.9883 20.8301 14.4531 19.9609 15.3711 18.3008L16.25 16.7285C18.3105 12.9688 21.7188 12.4707 21.7188 7.63672C21.7188 3.05664 18.7598 0 14.3262 0C9.77539 0 6.71875 3.07617 6.71875 7.66602ZM8.19336 16.3086L8.19336 7.66602C8.19336 3.94531 10.6445 1.47461 14.3262 1.47461C17.8809 1.47461 20.2441 3.94531 20.2441 7.63672C20.2441 11.6797 17.0703 12.3828 14.9414 16.0742L14.0918 17.5195C13.3984 18.7305 12.4316 19.3164 11.0938 19.3164C9.28711 19.3164 8.19336 18.1738 8.19336 16.3086ZM9.7168 13.5742C9.7168 14.5898 10.4883 15.2539 11.6309 15.2539C13.0957 15.2441 14.1016 13.9941 14.1016 12.4316C14.1016 9.61914 11.1914 9.14062 11.1914 7.1582C11.1914 5.625 12.4414 4.50195 14.3066 4.50195C16.2012 4.50195 17.4316 5.72266 17.4316 7.61719C17.4316 8.01758 17.7637 8.34961 18.1641 8.34961C18.5645 8.34961 18.9062 8.01758 18.9062 7.61719C18.9062 4.86328 17.0605 3.02734 14.3066 3.02734C11.5625 3.02734 9.7168 4.74609 9.7168 7.1582C9.7168 9.27734 11.7188 9.9707 11.7188 10.9277C11.7188 11.9727 9.7168 11.748 9.7168 13.5742Z" fill="#000000" fill-opacity="0.85"/>
  <path d="M1.79688 19.9902C2.77344 19.9902 3.56445 19.1992 3.56445 18.2227C3.56445 17.2266 2.77344 16.4453 1.79688 16.4453C0.791016 16.4453 0 17.2266 0 18.2227C0 19.1992 0.800781 19.9902 1.79688 19.9902Z" fill="#000000" fill-opacity="0.85"/>
  <path d="M1.79688 14.9121C2.77344 14.9121 3.56445 14.1113 3.56445 13.1152C3.56445 12.1387 2.77344 11.3477 1.79688 11.3477C0.800781 11.3477 0 12.1387 0 13.1152C0 14.1211 0.791016 14.9121 1.79688 14.9121Z" fill="#000000" fill-opacity="0.85"/>
  <path d="M1.79688 9.80469C2.77344 9.80469 3.56445 9.01367 3.56445 8.02734C3.56445 7.03125 2.77344 6.24023 1.79688 6.24023C0.791016 6.24023 0 7.03125 0 8.02734C0 9.01367 0.791016 9.80469 1.79688 9.80469Z" fill="#000000" fill-opacity="0.85"/>
  <path d="M1.79688 4.70703C2.77344 4.70703 3.56445 3.92578 3.56445 2.92969C3.56445 1.95312 2.77344 1.16211 1.79688 1.16211C0.800781 1.16211 0 1.95312 0 2.92969C0 3.92578 0.791016 4.70703 1.79688 4.70703Z" fill="#000000" fill-opacity="0.85"/>
 </g>
</svg>
