<?xml version="1.0" encoding="UTF-8"?>
<!--Generator: Apple Native CoreSVG 175.5-->
<!DOCTYPE svg
PUBLIC "-//W3C//DTD SVG 1.1//EN"
       "http://www.w3.org/Graphics/SVG/1.1/DTD/svg11.dtd">
<svg version="1.1" xmlns="http://www.w3.org/2000/svg" xmlns:xlink="http://www.w3.org/1999/xlink" width="19.8145" height="21.1499">
 <g>
  <rect height="21.1499" opacity="0" width="19.8145" x="0" y="0"/>
  <path d="M18.418 16.8005C19.3262 16.283 19.8145 15.7556 19.8145 14.3396L19.8145 6.74195C19.8145 5.365 19.3164 4.86695 18.4863 4.38843L11.6797 0.521247C10.498-0.162347 9.3457-0.172112 8.13477 0.521247L1.33789 4.38843C0.498047 4.86695 0 5.365 0 6.74195L0 14.3396C0 15.7556 0.498047 16.283 1.39648 16.8005L8.18359 20.6482C9.35547 21.322 10.4785 21.3123 11.6309 20.6482ZM9.91211 1.68336L9.91211 19.4763C9.56055 19.4763 9.21875 19.3591 8.82812 19.1443L2.32422 15.4431C1.76758 15.1306 1.58203 14.8279 1.58203 14.3005L1.58203 6.82008C1.58203 6.33179 1.77734 6.04859 2.26562 5.76539L8.82812 2.00562C9.19922 1.79078 9.56055 1.68336 9.91211 1.68336Z" fill="#000000" fill-opacity="0.85"/>
 </g>
</svg>
