<?xml version="1.0" encoding="UTF-8"?>
<!--Generator: Apple Native CoreSVG 175.5-->
<!DOCTYPE svg
PUBLIC "-//W3C//DTD SVG 1.1//EN"
       "http://www.w3.org/Graphics/SVG/1.1/DTD/svg11.dtd">
<svg version="1.1" xmlns="http://www.w3.org/2000/svg" xmlns:xlink="http://www.w3.org/1999/xlink" width="19.8145" height="21.1499">
 <g>
  <rect height="21.1499" opacity="0" width="19.8145" x="0" y="0"/>
  <path d="M1.39648 16.8005L8.18359 20.6482C9.33594 21.3123 10.459 21.322 11.6309 20.6482L18.418 16.8005C19.3262 16.283 19.8145 15.7556 19.8145 14.3396L19.8145 6.74195C19.8145 5.365 19.3164 4.86695 18.4863 4.38843L11.6797 0.521247C10.4688-0.172112 9.31641-0.162347 8.13477 0.521247L1.33789 4.38843C0.498047 4.86695 0 5.365 0 6.74195L0 14.3396C0 15.7556 0.498047 16.283 1.39648 16.8005ZM9.91211 1.68336C10.2637 1.68336 10.6152 1.79078 10.9961 2.00562L17.5488 5.76539C18.0469 6.04859 18.2324 6.33179 18.2324 6.82008L18.2324 14.3005C18.2324 14.8279 18.0469 15.1306 17.5 15.4431L10.9961 19.1443C10.6055 19.3591 10.2539 19.4763 9.91211 19.4763Z" fill="#000000" fill-opacity="0.85"/>
 </g>
</svg>
