<?xml version="1.0" encoding="UTF-8"?>
<!--Generator: Apple Native CoreSVG 175.5-->
<!DOCTYPE svg
PUBLIC "-//W3C//DTD SVG 1.1//EN"
       "http://www.w3.org/Graphics/SVG/1.1/DTD/svg11.dtd">
<svg version="1.1" xmlns="http://www.w3.org/2000/svg" xmlns:xlink="http://www.w3.org/1999/xlink" width="23.6719" height="22.8809">
 <g>
  <rect height="22.8809" opacity="0" width="23.6719" x="0" y="0"/>
  <path d="M15.8105 22.7832C21.2012 22.7832 23.6719 20.8691 23.6719 16.5137L23.6719 9.08203C23.6719 7.24609 23.2324 6.00586 22.5391 5.12695C22.3047 4.83398 21.9336 4.81445 21.6406 5.04883C20.7031 5.86914 18.2617 6.57227 15.8105 6.57227C13.3691 6.57227 10.9277 5.86914 9.99023 5.04883C9.69727 4.81445 9.32617 4.83398 9.0918 5.12695C8.39844 6.00586 7.95898 7.24609 7.95898 9.08203L7.95898 16.5137C7.95898 20.8691 10.4297 22.7832 15.8105 22.7832Z" fill="#000000" fill-opacity="0.425"/>
  <path d="M2.25586 17.0996L6.66016 17.0996L6.66016 14.9219C6.54297 14.9316 6.43555 14.9316 6.31836 14.9316C4.28711 14.9316 2.63672 13.291 2.63672 11.25C2.63672 9.20898 4.28711 7.59766 6.31836 7.57812C6.45508 7.57812 6.57227 7.59766 6.71875 7.60742C6.77734 7.08008 6.875 6.58203 7.00195 6.12305C6.79688 6.20117 6.57227 6.24023 6.32812 6.24023C5.15625 6.24023 4.18945 5.3125 4.19922 4.13086C4.20898 2.95898 5.15625 2.01172 6.32812 2.01172C7.24609 2.01172 8.01758 2.61719 8.27148 3.42773C8.28125 3.48633 8.29102 3.55469 8.29102 3.61328C9.22852 2.58789 10.5664 1.86523 12.4805 1.49414L12.4805 1.34766C12.2266 0.449219 11.5234 0 10.3809 0L2.25586 0C0.751953 0 0 0.761719 0 2.27539L0 14.8145C0 16.3477 0.761719 17.0996 2.25586 17.0996ZM6.31836 5.22461C6.92383 5.22461 7.41211 4.73633 7.41211 4.13086C7.41211 3.52539 6.93359 3.04688 6.31836 3.04688C5.72266 3.04688 5.22461 3.52539 5.22461 4.13086C5.22461 4.73633 5.71289 5.22461 6.31836 5.22461ZM6.31836 12.8125C6.43555 12.8125 6.55273 12.793 6.66016 12.7734L6.66016 9.72656C6.55273 9.70703 6.43555 9.69727 6.31836 9.69727C5.45898 9.69727 4.76562 10.3711 4.76562 11.25C4.76562 12.1191 5.45898 12.8125 6.31836 12.8125ZM15.8105 5.23438C18.3203 5.23438 20.332 4.6875 20.332 3.98438C20.332 3.26172 18.3203 2.72461 15.8105 2.72461C13.3105 2.72461 11.2988 3.26172 11.2988 3.98438C11.2988 4.6875 13.3105 5.23438 15.8105 5.23438Z" fill="#000000" fill-opacity="0.85"/>
 </g>
</svg>
