<?xml version="1.0" encoding="UTF-8"?>
<!--Generator: Apple Native CoreSVG 175.5-->
<!DOCTYPE svg
PUBLIC "-//W3C//DTD SVG 1.1//EN"
       "http://www.w3.org/Graphics/SVG/1.1/DTD/svg11.dtd">
<svg version="1.1" xmlns="http://www.w3.org/2000/svg" xmlns:xlink="http://www.w3.org/1999/xlink" width="23.7109" height="22.8418">
 <g>
  <rect height="22.8418" opacity="0" width="23.7109" x="0" y="0"/>
  <path d="M2.42188 17.8223L6.25977 17.8223L6.25977 16.3477L2.49023 16.3477C1.8457 16.3477 1.47461 15.9961 1.47461 15.3418L1.47461 2.48047C1.47461 1.82617 1.8457 1.47461 2.49023 1.47461L10.918 1.47461C11.5723 1.47461 11.9434 1.82617 11.9434 2.48047L11.9434 5.40039C12.0898 5.39062 12.2461 5.39062 12.4023 5.39062L13.418 5.39062L13.418 2.44141C13.418 0.839844 12.5781 0 10.9863 0L2.42188 0C0.839844 0 0 0.839844 0 2.44141L0 15.3711C0 16.9824 0.839844 17.8223 2.42188 17.8223ZM3.13477 11.5234C3.13477 13.3594 4.48242 14.8535 6.25977 15.0684C6.25977 14.3555 6.25977 13.623 6.25977 12.9102C5.67383 12.7246 5.24414 12.168 5.24414 11.5234C5.24414 10.8496 5.68359 10.2832 6.28906 10.127C6.36719 9.22852 6.52344 8.55469 6.80664 7.94922C6.77734 7.94922 6.73828 7.94922 6.70898 7.94922C4.7168 7.93945 3.13477 9.53125 3.13477 11.5234ZM6.70898 6.76758C7.82227 6.76758 8.7207 5.87891 8.70117 4.77539C8.69141 3.67188 7.82227 2.79297 6.70898 2.7832C5.5957 2.77344 4.70703 3.67188 4.70703 4.77539C4.70703 5.88867 5.5957 6.76758 6.70898 6.76758ZM6.70898 5.72266C6.18164 5.72266 5.76172 5.29297 5.76172 4.77539C5.76172 4.23828 6.17188 3.81836 6.70898 3.81836C7.22656 3.81836 7.65625 4.25781 7.65625 4.77539C7.65625 5.29297 7.23633 5.72266 6.70898 5.72266ZM11.9043 22.7832L19.4043 22.7832C20.7812 22.7832 21.9434 22.6562 22.7734 21.8359C23.5938 20.9961 23.7109 19.8535 23.7109 18.4766L23.7109 11.0352C23.7109 9.6582 23.5938 8.50586 22.7734 7.68555C21.9434 6.86523 20.7812 6.72852 19.4043 6.72852L11.875 6.72852C10.5273 6.72852 9.36523 6.86523 8.54492 7.68555C7.71484 8.51562 7.58789 9.6582 7.58789 11.0156L7.58789 18.4766C7.58789 19.8535 7.71484 21.0059 8.54492 21.8359C9.36523 22.6562 10.5273 22.7832 11.9043 22.7832ZM14.2188 15.8203C14.0918 16.25 13.8086 16.748 13.4473 17.1191C13.3301 17.2168 13.1738 17.2949 12.9688 17.2949C12.7734 17.2949 12.666 17.2266 12.4902 17.168C12.3828 17.1387 12.2363 17.0605 12.0605 17.0605C11.6504 17.0605 11.4648 17.3047 11.123 17.3047C10.8887 17.3047 10.7129 17.168 10.459 16.8848C9.9707 16.3574 9.6582 15.5176 9.6582 14.7852C9.6582 14.3359 9.77539 13.9258 10.0586 13.5742C10.293 13.2715 10.6543 13.0957 11.0938 13.0957C11.4941 13.0957 11.7383 13.3398 11.9531 13.3398C12.207 13.3398 12.4902 13.0859 13.0176 13.0859C13.457 13.0859 13.8477 13.2617 14.082 13.623C13.7598 13.8086 13.6426 14.043 13.5742 14.2383C13.4668 14.5117 13.4473 14.8438 13.5742 15.1758C13.7012 15.4785 13.8965 15.6836 14.2188 15.8203ZM11.9238 12.9395C11.8945 12.3242 12.4121 11.7188 13.0762 11.6797C13.125 12.2852 12.5977 13.0176 11.9238 12.9395ZM16.4941 12.0898L16.4941 13.0859L17.2949 13.0859L17.2949 13.7402L16.4941 13.7402L16.4941 16.0547C16.4941 16.4355 16.6602 16.5918 16.9922 16.5918C17.0801 16.5918 17.2363 16.5918 17.2852 16.5625L17.2852 17.2656C17.207 17.2754 16.9922 17.2949 16.8164 17.2949C15.957 17.2949 15.625 16.9922 15.625 16.1621L15.625 13.7402L15.0391 13.7402L15.0391 13.0859L15.625 13.0859L15.625 12.0898ZM20.127 17.2656L19.2188 17.2656L17.6855 13.0859L18.584 13.0859L19.668 16.4355L20.6934 13.0859L21.6309 13.0859Z" fill="#000000" fill-opacity="0.85"/>
 </g>
</svg>
