<?xml version="1.0" encoding="UTF-8"?>
<!--Generator: Apple Native CoreSVG 175.5-->
<!DOCTYPE svg
PUBLIC "-//W3C//DTD SVG 1.1//EN"
       "http://www.w3.org/Graphics/SVG/1.1/DTD/svg11.dtd">
<svg version="1.1" xmlns="http://www.w3.org/2000/svg" xmlns:xlink="http://www.w3.org/1999/xlink" width="22.3535" height="22.5879">
 <g>
  <rect height="22.5879" opacity="0" width="22.3535" x="0" y="0"/>
  <path d="M2.63672 16.3379L6.67969 16.3379L6.67969 14.8535L2.71484 14.8535C1.91406 14.8535 1.48438 14.4336 1.48438 13.6523L1.48438 2.70508C1.48438 1.92383 1.91406 1.48438 2.71484 1.48438L9.4043 1.48438C9.74609 1.48438 10.0586 1.62109 10.2344 1.88477L10.2539 1.97266C10.5176 1.92383 10.8496 1.9043 11.084 1.9043L12.0312 1.9043L12.002 1.72852C11.6895 0.664062 10.9277 0 9.49219 0L2.63672 0C0.898438 0 0 0.908203 0 2.66602L0 13.6816C0 15.4395 0.888672 16.3379 2.63672 16.3379ZM4.43359 4.39453C4.43359 5.44922 5.2832 6.31836 6.35742 6.31836C6.51367 6.31836 6.5918 6.30859 6.67969 6.28906C6.67969 6.18164 6.67969 6.09375 6.67969 6.00586C6.67969 5.73242 6.69922 5.44922 6.72852 5.25391C6.68945 5.2832 6.54297 5.32227 6.35742 5.32227C5.83008 5.32227 5.41992 4.91211 5.41992 4.39453C5.41992 3.87695 5.83008 3.44727 6.35742 3.44727C6.67969 3.44727 7.02148 3.66211 7.13867 3.81836C7.26562 3.54492 7.51953 3.18359 7.69531 3.01758C7.41211 2.69531 6.9043 2.4707 6.35742 2.46094C5.2832 2.46094 4.43359 3.33008 4.43359 4.39453ZM2.91992 10.4297C2.91992 12.334 4.43359 13.8574 6.34766 13.8574C6.49414 13.8574 6.5918 13.8574 6.67969 13.8477L6.67969 11.8066C6.60156 11.8164 6.47461 11.8262 6.33789 11.8262C5.55664 11.8262 4.95117 11.2109 4.95117 10.4492C4.95117 9.66797 5.56641 9.05273 6.37695 9.05273C6.47461 9.05273 6.60156 9.07227 6.67969 9.0918L6.67969 7.46094C6.67969 7.33398 6.67969 7.17773 6.67969 7.03125C6.61133 7.03125 6.50391 7.01172 6.34766 7.01172C4.44336 7.01172 2.91992 8.54492 2.91992 10.4297ZM8.00781 5.92773L8.00781 19.8926C8.00781 21.6602 8.88672 22.5684 10.6543 22.5684L19.6973 22.5684C21.4648 22.5684 22.3535 21.6602 22.3535 19.8926L22.3535 5.92773C22.3535 4.15039 21.4648 3.24219 19.6973 3.24219L10.6543 3.24219C8.88672 3.24219 8.00781 4.15039 8.00781 5.92773ZM9.58008 5.9375C9.58008 5.19531 9.95117 4.81445 10.7129 4.81445L19.6387 4.81445C20.3906 4.81445 20.7812 5.19531 20.7812 5.9375L20.7812 19.873C20.7812 20.6152 20.3906 20.9961 19.6387 20.9961L10.7129 20.9961C9.96094 20.9961 9.58008 20.6152 9.58008 19.873ZM15.1758 19.5801C17.3047 19.5801 19.0137 17.8809 19.0137 15.7422C19.0137 13.6133 17.3047 11.9238 15.1758 11.9141C13.0566 11.8945 11.3477 13.623 11.3477 15.7422C11.3477 17.8711 13.0566 19.5801 15.1758 19.5801ZM15.1758 17.3145C14.3066 17.3145 13.6035 16.6309 13.6035 15.7422C13.6035 14.8438 14.2871 14.1504 15.1758 14.1504C16.0645 14.1504 16.7578 14.8438 16.7578 15.7422C16.7578 16.6309 16.0645 17.3145 15.1758 17.3145ZM15.1758 10.5176C16.3672 10.5176 17.3438 9.56055 17.3242 8.36914C17.3145 7.1875 16.3672 6.25977 15.1758 6.25C13.9941 6.2207 13.0371 7.17773 13.0371 8.36914C13.0371 9.57031 13.9844 10.5176 15.1758 10.5176ZM15.1758 9.42383C14.5898 9.42383 14.1406 8.95508 14.1406 8.36914C14.1406 7.7832 14.5898 7.32422 15.1758 7.32422C15.752 7.32422 16.2207 7.80273 16.2207 8.36914C16.2207 8.95508 15.752 9.42383 15.1758 9.42383Z" fill="#000000" fill-opacity="0.85"/>
 </g>
</svg>
