<?xml version="1.0" encoding="UTF-8"?>
<!--Generator: Apple Native CoreSVG 175.5-->
<!DOCTYPE svg
PUBLIC "-//W3C//DTD SVG 1.1//EN"
       "http://www.w3.org/Graphics/SVG/1.1/DTD/svg11.dtd">
<svg version="1.1" xmlns="http://www.w3.org/2000/svg" xmlns:xlink="http://www.w3.org/1999/xlink" width="25.498" height="23.0176">
 <g>
  <rect height="23.0176" opacity="0" width="25.498" x="0" y="0"/>
  <path d="M0 13.7793C0 18.5059 2.89062 20.0586 7.99805 20.0586C7.06055 18.457 6.5332 16.6113 6.5332 14.7266C6.5332 9.16992 9.87305 5.91797 15.6836 5.625C15.5957 4.17969 15.166 3.1543 14.5801 2.40234C14.3457 2.09961 13.9648 2.08008 13.6816 2.32422C12.7441 3.14453 10.293 3.83789 7.85156 3.83789C5.41016 3.83789 2.95898 3.14453 2.03125 2.32422C1.73828 2.08008 1.36719 2.09961 1.13281 2.40234C0.439453 3.27148 0 4.52148 0 6.35742ZM16.748 22.9688C19.9805 22.9688 21.3379 22.5586 22.627 21.3574C24.4336 19.707 25.498 17.3145 25.498 14.7754C25.498 12.6855 24.7852 10.7324 23.3984 9.14062C23.0664 8.74023 22.7246 8.71094 22.3633 8.96484C21.0547 9.96094 19.6094 10.4785 16.748 10.4785C13.877 10.4785 12.4316 9.96094 11.123 8.96484C10.7715 8.71094 10.4199 8.74023 10.0879 9.14062C8.71094 10.7324 7.98828 12.6855 7.98828 14.7754C7.98828 17.3145 9.05273 19.707 10.8594 21.3574C12.1484 22.5586 13.5156 22.9688 16.748 22.9688Z" fill="#000000" fill-opacity="0.425"/>
  <path d="M7.85156 2.50977C10.3613 2.50977 12.373 1.96289 12.373 1.25C12.373 0.537109 10.3613 0 7.85156 0C5.35156 0 3.33984 0.537109 3.33984 1.25C3.33984 1.96289 5.35156 2.50977 7.85156 2.50977ZM16.748 9.25781C19.1895 9.25781 20.918 8.75977 20.918 8.125C20.918 7.4707 19.1895 6.98242 16.748 6.98242C14.2969 6.98242 12.5684 7.4707 12.5684 8.125C12.5684 8.75977 14.2969 9.25781 16.748 9.25781Z" fill="#000000" fill-opacity="0.85"/>
 </g>
</svg>
