<?xml version="1.0" encoding="UTF-8"?>
<!--Generator: Apple Native CoreSVG 175.5-->
<!DOCTYPE svg
PUBLIC "-//W3C//DTD SVG 1.1//EN"
       "http://www.w3.org/Graphics/SVG/1.1/DTD/svg11.dtd">
<svg version="1.1" xmlns="http://www.w3.org/2000/svg" xmlns:xlink="http://www.w3.org/1999/xlink" width="23.4668" height="22.8418">
 <g>
  <rect height="22.8418" opacity="0" width="23.4668" x="0" y="0"/>
  <path d="M0 12.4902C0 16.2695 2.05078 18.0176 6.47461 18.1641C6.44531 17.8027 6.42578 17.4414 6.42578 17.0508L6.42578 8.53516C6.42578 6.30859 7.07031 4.59961 8.32031 3.41797C7.92969 3.4668 7.5293 3.47656 7.11914 3.47656C4.90234 3.47656 2.71484 2.80273 1.8457 2.08984C1.57227 1.88477 1.24023 1.91406 1.02539 2.17773C0.380859 2.94922 0 4.0918 0 5.75195ZM15.6055 22.7637C20.9863 22.7637 23.4668 20.8496 23.4668 16.4941L23.4668 9.0625C23.4668 7.22656 23.0176 5.98633 22.334 5.10742C22.0996 4.81445 21.7188 4.79492 21.4355 5.0293C20.498 5.84961 18.0469 6.55273 15.6055 6.55273C13.1641 6.55273 10.7129 5.84961 9.78516 5.0293C9.49219 4.79492 9.12109 4.81445 8.88672 5.10742C8.19336 5.98633 7.75391 7.22656 7.75391 9.0625L7.75391 16.4941C7.75391 20.8496 10.2246 22.7637 15.6055 22.7637Z" fill="#000000" fill-opacity="0.425"/>
  <path d="M7.11914 2.26562C9.47266 2.26562 11.2207 1.76758 11.2207 1.13281C11.2207 0.478516 9.47266 0 7.11914 0C4.77539 0 3.01758 0.478516 3.01758 1.13281C3.01758 1.76758 4.77539 2.26562 7.11914 2.26562ZM15.6055 5.21484C18.1152 5.21484 20.127 4.66797 20.127 3.96484C20.127 3.24219 18.1152 2.70508 15.6055 2.70508C13.1055 2.70508 11.0938 3.24219 11.0938 3.96484C11.0938 4.66797 13.1055 5.21484 15.6055 5.21484Z" fill="#000000" fill-opacity="0.85"/>
 </g>
</svg>
