<?xml version="1.0" encoding="UTF-8"?>
<!--Generator: Apple Native CoreSVG 175.5-->
<!DOCTYPE svg
PUBLIC "-//W3C//DTD SVG 1.1//EN"
       "http://www.w3.org/Graphics/SVG/1.1/DTD/svg11.dtd">
<svg version="1.1" xmlns="http://www.w3.org/2000/svg" xmlns:xlink="http://www.w3.org/1999/xlink" width="23.6426" height="22.8418">
 <g>
  <rect height="22.8418" opacity="0" width="23.6426" x="0" y="0"/>
  <path d="M0 12.4902C0 16.123 1.88477 17.9297 6.18164 18.1543L6.18164 11.0156C6.18164 9.02344 6.51367 7.75391 7.5293 6.74805C8.53516 5.73242 9.83398 5.39062 11.8066 5.39062L14.2383 5.39062C14.2285 5.20508 14.2188 5.00977 14.209 4.82422C14.1113 3.62305 13.7207 2.77344 13.2227 2.16797C13.0176 1.89453 12.666 1.875 12.4121 2.08984C11.5625 2.8418 9.33594 3.47656 7.12891 3.47656C4.92188 3.47656 2.69531 2.8418 1.8457 2.08984C1.5918 1.875 1.25 1.89453 1.03516 2.16797C0.400391 2.95898 0 4.0918 0 5.75195Z" fill="#000000" fill-opacity="0.425"/>
  <path d="M7.12891 2.26562C9.48242 2.26562 11.2305 1.76758 11.2305 1.13281C11.2305 0.478516 9.48242 0 7.12891 0C4.77539 0 3.03711 0.478516 3.03711 1.13281C3.03711 1.76758 4.77539 2.26562 7.12891 2.26562ZM11.8262 22.7832L19.3359 22.7832C20.7129 22.7832 21.875 22.6562 22.6953 21.8262C23.5156 21.0059 23.6426 19.8535 23.6426 18.4766L23.6426 11.0352C23.6426 9.6582 23.5156 8.50586 22.6953 7.68555C21.8652 6.85547 20.7129 6.72852 19.3359 6.72852L11.8066 6.72852C10.459 6.72852 9.28711 6.86523 8.4668 7.68555C7.64648 8.50586 7.51953 9.6582 7.51953 11.0156L7.51953 18.4766C7.51953 19.8535 7.64648 21.0059 8.4668 21.8262C9.28711 22.6562 10.4492 22.7832 11.8262 22.7832ZM14.1504 15.8203C14.0234 16.25 13.7402 16.748 13.3789 17.1191C13.2617 17.2168 13.1055 17.2949 12.8906 17.2949C12.7051 17.2949 12.5879 17.2266 12.4219 17.168C12.3145 17.1387 12.168 17.0605 11.9922 17.0605C11.5723 17.0605 11.3965 17.3047 11.0547 17.3047C10.8203 17.3047 10.6348 17.168 10.3809 16.8848C9.90234 16.3574 9.58984 15.5176 9.58984 14.7852C9.58984 14.3359 9.69727 13.9258 9.99023 13.5742C10.2246 13.2715 10.5859 13.0957 11.0156 13.0957C11.416 13.0957 11.6602 13.3398 11.8848 13.3398C12.1387 13.3398 12.4219 13.0859 12.9492 13.0859C13.3887 13.0859 13.7695 13.2617 14.0137 13.623C13.6914 13.8086 13.5645 14.043 13.5059 14.2383C13.3984 14.5117 13.3789 14.8438 13.5059 15.1758C13.623 15.4785 13.8281 15.6836 14.1504 15.8203ZM11.8457 12.9395C11.8262 12.3242 12.334 11.7188 13.0078 11.6797C13.0566 12.2852 12.5293 13.0176 11.8457 12.9395ZM16.4258 12.0898L16.4258 13.0859L17.2168 13.0859L17.2168 13.7402L16.4258 13.7402L16.4258 16.0547C16.4258 16.4355 16.582 16.5918 16.9238 16.5918C17.0117 16.5918 17.168 16.5918 17.2168 16.5625L17.2168 17.2656C17.1387 17.2754 16.9238 17.2949 16.748 17.2949C15.8887 17.2949 15.5566 16.9922 15.5566 16.1621L15.5566 13.7402L14.9707 13.7402L14.9707 13.0859L15.5566 13.0859L15.5566 12.0898ZM20.0488 17.2656L19.1504 17.2656L17.6172 13.0859L18.5156 13.0859L19.5996 16.4355L20.625 13.0859L21.5625 13.0859Z" fill="#000000" fill-opacity="0.85"/>
 </g>
</svg>
