<?xml version="1.0" encoding="UTF-8"?>
<!--Generator: Apple Native CoreSVG 175.5-->
<!DOCTYPE svg
PUBLIC "-//W3C//DTD SVG 1.1//EN"
       "http://www.w3.org/Graphics/SVG/1.1/DTD/svg11.dtd">
<svg version="1.1" xmlns="http://www.w3.org/2000/svg" xmlns:xlink="http://www.w3.org/1999/xlink" width="25.5176" height="21.2793">
 <g>
  <rect height="21.2793" opacity="0" width="25.5176" x="0" y="0"/>
  <path d="M0 7.85156C0 10.3906 1.06445 12.7832 2.87109 14.4434C3.61328 15.127 4.38477 15.5664 5.52734 15.8008C5.35156 15.2832 5.22461 14.7461 5.14648 14.1992C4.64844 14.0137 4.24805 13.7598 3.85742 13.3887C2.31445 11.9727 1.43555 9.9707 1.43555 7.85156C1.43555 6.33789 1.88477 4.86328 2.85156 3.64258C4.0332 4.49219 5.78125 4.88281 7.93945 4.9707C8.47656 4.39453 8.99414 3.91602 9.56055 3.52539C9.30664 3.55469 9.04297 3.55469 8.75 3.55469C5.88867 3.55469 4.49219 2.99805 3.4082 2.19727C2.91016 1.875 2.31445 1.95312 1.96289 2.40234C0.722656 3.81836 0 5.76172 0 7.85156ZM15.9082 21.2793C19.4531 21.2793 20.9473 20.8301 22.3633 19.5117C24.3555 17.6953 25.5176 15.0684 25.5176 12.2852C25.5176 10.0293 24.7656 7.87109 23.3594 6.29883C22.9785 5.81055 22.334 5.73242 21.7871 6.06445C20.5859 6.94336 18.9746 7.54883 15.9082 7.54883C12.8418 7.54883 11.2305 6.94336 10.0293 6.06445C9.48242 5.73242 8.82812 5.81055 8.45703 6.29883C7.05078 7.87109 6.28906 10.0293 6.28906 12.2852C6.28906 15.0684 7.46094 17.6953 9.44336 19.5117C10.8594 20.8301 12.3633 21.2793 15.9082 21.2793ZM15.9082 19.707C12.8027 19.707 11.6211 19.3945 10.5176 18.3594C8.82812 16.8066 7.86133 14.6191 7.86133 12.2852C7.86133 10.4199 8.47656 8.64258 9.73633 7.20703L9.02344 7.39258C10.6055 8.61328 13.0859 9.12109 15.9082 9.12109C18.7305 9.12109 21.2109 8.61328 22.7832 7.39258L22.0801 7.20703C23.3398 8.64258 23.9453 10.4199 23.9453 12.2852C23.9453 14.6191 22.9883 16.8066 21.2988 18.3594C20.1953 19.3945 19.0039 19.707 15.9082 19.707Z" fill="#000000" fill-opacity="0.425"/>
  <path d="M8.75 2.33398C11.2012 2.33398 12.9395 1.83594 12.9395 1.19141C12.9395 0.546875 11.2012 0.0585938 8.75 0.0585938C6.30859 0.0585938 4.58008 0.546875 4.58008 1.19141C4.58008 1.83594 6.30859 2.33398 8.75 2.33398ZM15.9082 6.21094C18.623 6.21094 20.5273 5.66406 20.5273 4.96094C20.5273 4.25781 18.623 3.7207 15.9082 3.7207C13.1934 3.7207 11.2891 4.25781 11.2891 4.96094C11.2891 5.66406 13.1934 6.21094 15.9082 6.21094Z" fill="#000000" fill-opacity="0.85"/>
 </g>
</svg>
