<?xml version="1.0" encoding="UTF-8"?>
<!--Generator: Apple Native CoreSVG 175.5-->
<!DOCTYPE svg
PUBLIC "-//W3C//DTD SVG 1.1//EN"
       "http://www.w3.org/Graphics/SVG/1.1/DTD/svg11.dtd">
<svg version="1.1" xmlns="http://www.w3.org/2000/svg" xmlns:xlink="http://www.w3.org/1999/xlink" width="15.7422" height="24.502">
 <g>
  <rect height="24.502" opacity="0" width="15.7422" x="0" y="0"/>
  <path d="M2.94922 10.1172L12.793 10.1172C12.1582 9.16992 11.4746 8.22266 10.752 7.25586C10.2246 6.5625 9.88281 6.17188 8.92578 6.17188L6.81641 6.17188C5.86914 6.17188 5.52734 6.5625 4.99023 7.25586C4.26758 8.22266 3.58398 9.16992 2.94922 10.1172ZM0.0683594 16.2109L5.75195 16.2109C6.05469 15.332 6.875 14.7168 7.88086 14.7168C8.86719 14.7168 9.6875 15.332 10 16.2109L15.6738 16.2109C15.4492 14.873 14.7656 13.3105 13.7891 11.6602L1.96289 11.6602C0.976562 13.3105 0.292969 14.873 0.0683594 16.2109ZM7.88086 17.9199C8.41797 17.9199 8.81836 17.5195 8.81836 16.9727C8.81836 16.4355 8.41797 16.0352 7.88086 16.0352C7.32422 16.0352 6.93359 16.4355 6.93359 16.9727C6.93359 17.5195 7.32422 17.9199 7.88086 17.9199ZM5.75195 22.5879L9.99023 22.5879C13.5742 22.5879 15.5078 20.8105 15.7422 17.7539L9.99023 17.7539C9.67773 18.623 8.85742 19.2383 7.88086 19.2383C6.875 19.2383 6.06445 18.623 5.76172 17.7539L0 17.7539C0.234375 20.8105 2.16797 22.5879 5.75195 22.5879Z" fill="#000000" fill-opacity="0.85"/>
  <path d="M3.13477 2.46094C3.51562 2.1875 3.59375 1.64062 3.33984 1.25977C3.07617 0.888672 2.54883 0.78125 2.14844 1.05469C1.77734 1.31836 1.66016 1.875 1.92383 2.24609C2.19727 2.62695 2.75391 2.72461 3.13477 2.46094ZM4.91211 5.01953C5.41992 4.6875 5.53711 3.98438 5.19531 3.47656C4.84375 2.98828 4.16016 2.87109 3.65234 3.21289C3.1543 3.54492 3.00781 4.24805 3.37891 4.75586C3.74023 5.25391 4.41406 5.39062 4.91211 5.01953ZM7.88086 1.71875C8.35938 1.71875 8.74023 1.31836 8.74023 0.869141C8.74023 0.390625 8.34961 0 7.88086 0C7.42188 0 7.04102 0.390625 7.04102 0.869141C7.04102 1.31836 7.41211 1.71875 7.88086 1.71875ZM7.88086 4.85352C8.49609 4.85352 9.00391 4.3457 9.00391 3.74023C9.00391 3.13477 8.49609 2.62695 7.88086 2.62695C7.28516 2.62695 6.78711 3.13477 6.78711 3.74023C6.78711 4.3457 7.28516 4.85352 7.88086 4.85352ZM12.627 2.46094C13.0176 2.72461 13.5547 2.62695 13.8379 2.24609C14.1016 1.875 14.0039 1.31836 13.6133 1.05469C13.2129 0.78125 12.6855 0.888672 12.4219 1.25977C12.168 1.64062 12.2461 2.1875 12.627 2.46094ZM10.8496 5.01953C11.3477 5.39062 12.0312 5.25391 12.3828 4.75586C12.7539 4.24805 12.6074 3.54492 12.1094 3.21289C11.5918 2.87109 10.918 2.98828 10.5664 3.47656C10.2148 3.99414 10.3418 4.6875 10.8496 5.01953Z" fill="#000000" fill-opacity="0.85"/>
 </g>
</svg>
