<?xml version="1.0" encoding="UTF-8"?>
<!--Generator: Apple Native CoreSVG 175.5-->
<!DOCTYPE svg
PUBLIC "-//W3C//DTD SVG 1.1//EN"
       "http://www.w3.org/Graphics/SVG/1.1/DTD/svg11.dtd">
<svg version="1.1" xmlns="http://www.w3.org/2000/svg" xmlns:xlink="http://www.w3.org/1999/xlink" width="15.7812" height="24.502">
 <g>
  <rect height="24.502" opacity="0" width="15.7812" x="0" y="0"/>
  <path d="M5.77148 22.5879L10.0098 22.5879C13.8281 22.5879 15.7812 20.5664 15.7812 17.1191C15.7812 14.4238 13.4766 10.8594 10.7715 7.25586C10.2441 6.5625 9.90234 6.17188 8.94531 6.17188L6.83594 6.17188C5.88867 6.17188 5.54688 6.5625 5.00977 7.25586C2.30469 10.8594 0 14.4238 0 17.1191C0 20.5664 1.95312 22.5879 5.77148 22.5879ZM1.54297 17.1191C1.54297 14.9609 3.37891 12.0215 6.26953 8.05664C6.46484 7.80273 6.57227 7.72461 6.85547 7.72461L8.92578 7.72461C9.20898 7.72461 9.31641 7.80273 9.51172 8.05664C12.4023 12.0215 14.2383 14.9609 14.2383 17.1191C14.2383 19.6094 12.8711 21.0449 10.0098 21.0449L5.77148 21.0449C2.91016 21.0449 1.54297 19.6094 1.54297 17.1191ZM3.62305 10.2148L3.32031 11.7578L12.4805 11.7578L12.1875 10.2148ZM1.06445 17.7539L6.32812 17.7539L6.32812 16.2109L1.06445 16.2109ZM7.90039 19.2383C9.15039 19.2383 10.1465 18.2324 10.1465 16.9727C10.1465 15.7129 9.15039 14.7168 7.90039 14.7168C6.62109 14.7168 5.63477 15.7129 5.63477 16.9727C5.63477 18.2324 6.62109 19.2383 7.90039 19.2383ZM7.90039 17.8516C7.38281 17.8516 7.02148 17.4805 7.02148 16.9727C7.02148 16.4746 7.38281 16.0938 7.90039 16.0938C8.39844 16.0938 8.76953 16.4746 8.76953 16.9727C8.76953 17.4805 8.39844 17.8516 7.90039 17.8516ZM9.46289 17.7539L14.7656 17.7539L14.7656 16.2109L9.46289 16.2109Z" fill="#000000" fill-opacity="0.85"/>
  <path d="M3.1543 2.46094C3.53516 2.1875 3.61328 1.64062 3.35938 1.25977C3.0957 0.888672 2.56836 0.78125 2.16797 1.05469C1.79688 1.31836 1.67969 1.875 1.94336 2.24609C2.2168 2.62695 2.77344 2.72461 3.1543 2.46094ZM4.93164 5.01953C5.43945 4.6875 5.55664 3.98438 5.21484 3.47656C4.86328 2.98828 4.17969 2.87109 3.67188 3.21289C3.17383 3.54492 3.02734 4.24805 3.39844 4.75586C3.75977 5.25391 4.43359 5.39062 4.93164 5.01953ZM7.90039 1.71875C8.37891 1.71875 8.75977 1.31836 8.75977 0.869141C8.75977 0.390625 8.36914 0 7.90039 0C7.44141 0 7.06055 0.390625 7.06055 0.869141C7.06055 1.31836 7.43164 1.71875 7.90039 1.71875ZM7.90039 4.85352C8.51562 4.85352 9.02344 4.3457 9.02344 3.74023C9.02344 3.13477 8.51562 2.62695 7.90039 2.62695C7.30469 2.62695 6.80664 3.13477 6.80664 3.74023C6.80664 4.3457 7.30469 4.85352 7.90039 4.85352ZM12.6465 2.46094C13.0371 2.72461 13.5742 2.62695 13.8574 2.24609C14.1211 1.875 14.0234 1.31836 13.6328 1.05469C13.2324 0.78125 12.7051 0.888672 12.4414 1.25977C12.1875 1.64062 12.2656 2.1875 12.6465 2.46094ZM10.8691 5.01953C11.3672 5.39062 12.0508 5.25391 12.4023 4.75586C12.7734 4.24805 12.627 3.54492 12.1289 3.21289C11.6113 2.87109 10.9375 2.98828 10.5859 3.47656C10.2344 3.99414 10.3613 4.6875 10.8691 5.01953Z" fill="#000000" fill-opacity="0.85"/>
 </g>
</svg>
