<?xml version="1.0" encoding="UTF-8"?>
<!--Generator: Apple Native CoreSVG 175.5-->
<!DOCTYPE svg
PUBLIC "-//W3C//DTD SVG 1.1//EN"
       "http://www.w3.org/Graphics/SVG/1.1/DTD/svg11.dtd">
<svg version="1.1" xmlns="http://www.w3.org/2000/svg" xmlns:xlink="http://www.w3.org/1999/xlink" width="21.0142" height="18.4082">
 <g>
  <rect height="18.4082" opacity="0" width="21.0142" x="0" y="0"/>
  <path d="M3.96341 6.5918C8.30912 6.5918 10.6626 2.91016 14.7544 2.91016C15.7115 2.91016 16.5611 3.125 17.5572 3.69141C17.9771 3.92578 18.3677 3.76953 18.5728 3.47656C18.8169 3.125 18.7876 2.59766 18.2408 2.27539C17.1372 1.64062 16.0044 1.33789 14.7544 1.33789C10.3208 1.33789 7.98685 5.01953 3.96341 5.01953C2.99662 5.01953 2.14701 4.80469 1.15091 4.23828C0.730992 4.00391 0.340367 4.16016 0.135289 4.46289C-0.0893201 4.81445-0.0697888 5.3418 0.467321 5.6543C1.57084 6.28906 2.70365 6.5918 3.96341 6.5918ZM3.97318 11.8359C7.84037 11.8359 10.1451 8.87695 13.5337 8.29102C13.8365 7.71484 14.149 7.1582 14.4517 6.58203C10.1158 6.78711 7.91849 10.2637 3.97318 10.2637C3.00638 10.2637 2.15677 10.0391 1.16068 9.47266C0.750524 9.23828 0.350133 9.39453 0.154821 9.69727C-0.0795545 10.0488-0.0600232 10.5762 0.477086 10.8887C1.5806 11.5234 2.72318 11.8359 3.97318 11.8359ZM3.96341 17.0703C6.91263 17.0703 8.96341 15.332 11.2779 14.2676C11.229 13.8379 11.3462 13.0664 11.522 12.4902C8.92435 13.5352 6.8931 15.498 3.96341 15.498C2.99662 15.498 2.14701 15.2832 1.15091 14.707C0.730992 14.4727 0.340367 14.6289 0.135289 14.9316C-0.0893201 15.2832-0.0697888 15.8203 0.467321 16.123C1.57084 16.7676 2.70365 17.0703 3.96341 17.0703Z" fill="#000000" fill-opacity="0.85"/>
  <path d="M16.7857 18.4082C19.1294 18.4082 21.0142 16.5723 21.0142 14.2773C21.0142 13.0078 20.3794 11.7676 19.8423 10.7617L17.6646 6.70898C17.4302 6.26953 17.2154 6.08398 16.7857 6.08398C16.3462 6.08398 16.1314 6.26953 15.897 6.70898L13.7388 10.7617C13.2017 11.7676 12.5669 13.0078 12.5669 14.2773C12.5669 16.5723 14.4419 18.4082 16.7857 18.4082ZM16.7857 17.1191C15.1548 17.1191 13.856 15.8691 13.856 14.2773C13.856 13.3105 14.354 12.373 14.8814 11.3672L16.6978 7.99805C16.7466 7.90039 16.8345 7.90039 16.8931 7.99805L18.6802 11.3672C19.2173 12.373 19.7251 13.3105 19.7251 14.2773C19.7251 15.8691 18.4165 17.1191 16.7857 17.1191Z" fill="#000000" fill-opacity="0.85"/>
 </g>
</svg>
