<?xml version="1.0" encoding="UTF-8"?>
<!--Generator: Apple Native CoreSVG 175.5-->
<!DOCTYPE svg
PUBLIC "-//W3C//DTD SVG 1.1//EN"
       "http://www.w3.org/Graphics/SVG/1.1/DTD/svg11.dtd">
<svg version="1.1" xmlns="http://www.w3.org/2000/svg" xmlns:xlink="http://www.w3.org/1999/xlink" width="24.5508" height="20.7812">
 <g>
  <rect height="20.7812" opacity="0" width="24.5508" x="0" y="0"/>
  <path d="M5.84961 18.0811L15.1953 18.0811L3.85742 6.7627C3.68164 7.16309 3.59375 7.6123 3.58398 8.09082C1.37695 8.44238 0 10.415 0 12.7979C0 15.6689 2.50977 18.0811 5.84961 18.0811ZM20.459 17.915C22.8711 17.4268 24.5508 15.5322 24.5508 13.2373C24.5508 11.1865 23.3691 9.40918 21.4648 8.6084C21.4844 4.25293 18.3496 1.1084 14.3555 1.1084C11.709 1.1084 9.82422 2.52441 8.65234 4.2334C8.05664 4.04785 7.38281 4.03809 6.74805 4.21387Z" fill="#000000" fill-opacity="0.85"/>
  <path d="M19.3164 20.5615C19.6094 20.8545 20.0879 20.8545 20.3809 20.5615C20.6738 20.2686 20.6738 19.79 20.3809 19.4971L4.08203 3.20801C3.78906 2.90527 3.30078 2.9248 3.00781 3.20801C2.72461 3.49121 2.73438 3.99902 3.00781 4.27246Z" fill="#000000" fill-opacity="0.85"/>
 </g>
</svg>
