<?xml version="1.0" encoding="UTF-8"?>
<!--Generator: Apple Native CoreSVG 175.5-->
<!DOCTYPE svg
PUBLIC "-//W3C//DTD SVG 1.1//EN"
       "http://www.w3.org/Graphics/SVG/1.1/DTD/svg11.dtd">
<svg version="1.1" xmlns="http://www.w3.org/2000/svg" xmlns:xlink="http://www.w3.org/1999/xlink" width="24.5508" height="23.4082">
 <g>
  <rect height="23.4082" opacity="0" width="24.5508" x="0" y="0"/>
  <path d="M14.873 16.0352L14.873 17.6074L19.7559 17.6074C22.7539 17.6074 24.5508 15.8008 24.5508 13.4375C24.5508 11.4648 23.3691 9.84375 21.4648 9.07227C21.4844 4.7168 18.3496 1.57227 14.3555 1.57227C11.709 1.57227 9.82422 2.98828 8.65234 4.69727C6.43555 4.10156 3.63281 5.82031 3.58398 8.56445C1.37695 8.90625 0 10.7129 0 13.0176C0 15.5566 1.9043 17.6074 5.10742 17.6074L9.76562 17.6074L9.76562 16.0352L5.09766 16.0352C2.7832 16.0352 1.57227 14.6973 1.57227 13.0176C1.57227 11.1523 2.75391 9.76562 4.82422 9.76562C4.96094 9.76562 5.00977 9.6875 5.00977 9.56055C5.00977 6.5625 7.16797 5.73242 9.17969 6.31836C9.29688 6.35742 9.36523 6.33789 9.42383 6.23047C10.3711 4.54102 11.8262 3.14453 14.3555 3.14453C17.5586 3.14453 19.7754 5.68359 19.9414 8.59375C19.9707 9.0332 19.9414 9.56055 19.9023 10.0195C19.8926 10.1465 19.9414 10.2246 20.0586 10.2441C21.8359 10.6348 22.9785 11.748 22.9785 13.4375C22.9785 14.9414 21.8848 16.0352 19.7461 16.0352Z" fill="#000000" fill-opacity="0.85"/>
  <path d="M12.3242 23.4082C12.5195 23.4082 12.6758 23.3301 12.8809 23.1445L16.1816 20.0586C16.3379 19.9219 16.416 19.7559 16.416 19.541C16.416 19.1504 16.1035 18.8574 15.7031 18.8574C15.5176 18.8574 15.3223 18.9453 15.1758 19.0918L13.6914 20.5762L13.0371 21.2598L13.0957 19.8047L13.0957 11.4258C13.0957 11.0156 12.7441 10.6641 12.3242 10.6641C11.9043 10.6641 11.543 11.0156 11.543 11.4258L11.543 19.8047L11.6016 21.2695L10.9473 20.5762L9.46289 19.0918C9.31641 18.9453 9.11133 18.8574 8.92578 18.8574C8.51562 18.8574 8.22266 19.1504 8.22266 19.541C8.22266 19.7559 8.30078 19.9219 8.45703 20.0586L11.7578 23.1445C11.9629 23.3301 12.1191 23.4082 12.3242 23.4082Z" fill="#000000" fill-opacity="0.85"/>
 </g>
</svg>
