<?xml version="1.0" encoding="UTF-8"?>
<!--Generator: Apple Native CoreSVG 175.5-->
<!DOCTYPE svg
PUBLIC "-//W3C//DTD SVG 1.1//EN"
       "http://www.w3.org/Graphics/SVG/1.1/DTD/svg11.dtd">
<svg version="1.1" xmlns="http://www.w3.org/2000/svg" xmlns:xlink="http://www.w3.org/1999/xlink" width="24.5508" height="21.7871">
 <g>
  <rect height="21.7871" opacity="0" width="24.5508" x="0" y="0"/>
  <path d="M0 12.3047C0 14.7949 2.09961 16.7969 5.30273 16.7969L11.5625 16.7969L11.5625 21.0352C11.5625 21.4453 11.9238 21.7871 12.3438 21.7871C12.7637 21.7871 13.1152 21.4453 13.1152 21.0352L13.1152 16.7969L19.8535 16.7969C22.666 16.7969 24.5508 15.0391 24.5508 12.7246C24.5508 10.8105 23.3691 9.05273 21.4648 8.26172C21.4844 3.90625 18.3496 0.761719 14.3555 0.761719C11.709 0.761719 9.82422 2.17773 8.65234 3.88672C6.43555 3.29102 3.63281 5.00977 3.58398 7.75391C1.37695 8.10547 0 10.0488 0 12.3047ZM11.5625 16.3965L11.5625 11.3672L11.6211 9.91211L11.123 10.4395L9.48242 12.1777C9.3457 12.334 9.13086 12.4121 8.94531 12.4121C8.53516 12.4121 8.24219 12.1191 8.24219 11.7285C8.24219 11.5137 8.33008 11.3574 8.47656 11.2109L11.7773 8.02734C11.9727 7.83203 12.1387 7.76367 12.3438 7.76367C12.5391 7.76367 12.7051 7.83203 12.9004 8.02734L16.2012 11.2109C16.3477 11.3574 16.4355 11.5137 16.4355 11.7285C16.4355 12.1191 16.123 12.4121 15.7227 12.4121C15.5371 12.4121 15.332 12.334 15.1953 12.1777L13.5547 10.4395L13.0566 9.91211L13.1152 11.3672L13.1152 16.3965C13.1152 16.8262 12.7637 17.168 12.3438 17.168C11.9141 17.168 11.5625 16.8262 11.5625 16.3965Z" fill="#000000" fill-opacity="0.85"/>
 </g>
</svg>
