<?xml version="1.0" encoding="UTF-8"?>
<!--Generator: Apple Native CoreSVG 175.5-->
<!DOCTYPE svg
PUBLIC "-//W3C//DTD SVG 1.1//EN"
       "http://www.w3.org/Graphics/SVG/1.1/DTD/svg11.dtd">
<svg version="1.1" xmlns="http://www.w3.org/2000/svg" xmlns:xlink="http://www.w3.org/1999/xlink" width="19.2578" height="22.0215">
 <g>
  <rect height="22.0215" opacity="0" width="19.2578" x="0" y="0"/>
  <path d="M2.93945 13.0371L2.93945 19.4238C2.93945 20.9668 4.0332 22.002 5.64453 22.002L16.5527 22.002C18.1738 22.002 19.2578 20.9668 19.2578 19.4238L19.2578 2.58789C19.2578 1.04492 18.1738 0 16.5527 0L5.64453 0C4.0332 0 2.93945 1.04492 2.93945 2.58789L2.93945 8.97461L4.51172 8.97461L4.51172 2.85156C4.51172 2.05078 5.00977 1.57227 5.84961 1.57227L16.3574 1.57227C17.1973 1.57227 17.6855 2.05078 17.6855 2.85156L17.6855 19.1602C17.6855 19.9609 17.1973 20.4297 16.3574 20.4297L5.84961 20.4297C5.00977 20.4297 4.51172 19.9609 4.51172 19.1602L4.51172 13.0371Z" fill="#000000" fill-opacity="0.85"/>
  <path d="M0.712891 11.6895L7.08984 11.6895L9.15039 11.5918L7.01172 13.5059L6.45508 14.0625C6.32812 14.1992 6.25 14.3848 6.25 14.5898C6.25 14.9902 6.5332 15.2637 6.91406 15.2637C7.11914 15.2637 7.29492 15.1855 7.43164 15.0488L10.9766 11.5137C11.1426 11.3477 11.2305 11.1621 11.2305 10.9961C11.2305 10.8301 11.1426 10.625 10.9766 10.4688L7.43164 6.94336C7.29492 6.80664 7.11914 6.72852 6.91406 6.72852C6.5332 6.72852 6.25 7.00195 6.25 7.39258C6.25 7.60742 6.32812 7.7832 6.45508 7.91992L7.01172 8.48633L9.15039 10.3906L7.08984 10.293L0.712891 10.293C0.273438 10.293 0 10.6348 0 10.9961C0 11.3574 0.273438 11.6895 0.712891 11.6895Z" fill="#000000" fill-opacity="0.85"/>
 </g>
</svg>
