<?xml version="1.0" encoding="UTF-8"?>
<!--Generator: Apple Native CoreSVG 175.5-->
<!DOCTYPE svg
PUBLIC "-//W3C//DTD SVG 1.1//EN"
       "http://www.w3.org/Graphics/SVG/1.1/DTD/svg11.dtd">
<svg version="1.1" xmlns="http://www.w3.org/2000/svg" xmlns:xlink="http://www.w3.org/1999/xlink" width="17.688" height="20.6934">
 <g>
  <rect height="20.6934" opacity="0" width="17.688" x="0" y="0"/>
  <path d="M5.23193 20.6738L12.4683 20.6738C13.5913 20.6738 14.4116 20.1758 14.7827 19.2871C14.8022 19.2383 14.8315 19.1699 14.8511 19.1211L13.5522 17.7832C13.5522 17.8516 13.5522 17.9102 13.5522 17.9688C13.5132 18.7012 13.0444 19.1016 12.2632 19.1016L5.42725 19.1016C4.60693 19.1016 4.14795 18.6621 4.14795 17.8809L4.14795 8.4082L2.57568 6.83594L2.57568 18.1348C2.57568 19.6582 3.64014 20.6738 5.23193 20.6738ZM6.7749 18.3887L10.9253 18.3887C11.189 18.3887 11.3843 18.2031 11.3843 17.9297C11.3843 17.6562 11.189 17.4805 10.9253 17.4805L6.7749 17.4805C6.51123 17.4805 6.32568 17.6562 6.32568 17.9297C6.32568 18.2031 6.51123 18.3887 6.7749 18.3887ZM13.5522 12.373L15.1245 13.9453L15.1245 2.53906C15.1245 1.01562 14.0601 0 12.4683 0L5.23193 0C4.06982 0 3.20068 0.507812 2.87842 1.44531L2.81006 1.62109L4.14795 2.95898L4.14795 2.77344C4.14795 1.99219 4.60693 1.57227 5.42725 1.57227L6.68701 1.57227C6.84326 1.57227 6.92139 1.65039 6.92139 1.79688L6.92139 2.02148C6.92139 2.43164 7.18506 2.70508 7.58545 2.70508L10.1147 2.70508C10.5151 2.70508 10.7886 2.43164 10.7886 2.02148L10.7886 1.79688C10.7886 1.65039 10.8667 1.57227 11.0132 1.57227L12.2632 1.57227C13.0835 1.57227 13.5522 2.01172 13.5522 2.79297Z" fill="#000000" fill-opacity="0.85"/>
  <path d="M16.4038 19.0039C16.6968 19.3066 17.1851 19.2969 17.4683 19.0039C17.7612 18.7207 17.7612 18.2422 17.4683 17.9395L1.28662 1.76758C0.993652 1.47461 0.515137 1.46484 0.212402 1.76758C-0.0708008 2.05078-0.0708008 2.54883 0.212402 2.83203Z" fill="#000000" fill-opacity="0.85"/>
 </g>
</svg>
