<?xml version="1.0" encoding="UTF-8"?>
<!--Generator: Apple Native CoreSVG 175.5-->
<!DOCTYPE svg
PUBLIC "-//W3C//DTD SVG 1.1//EN"
       "http://www.w3.org/Graphics/SVG/1.1/DTD/svg11.dtd">
<svg version="1.1" xmlns="http://www.w3.org/2000/svg" xmlns:xlink="http://www.w3.org/1999/xlink" width="19.9219" height="19.9316">
 <g>
  <rect height="19.9316" opacity="0" width="19.9219" x="0" y="0"/>
  <path d="M9.96094 19.9219C15.4102 19.9219 19.9219 15.4004 19.9219 9.96094C19.9219 4.51172 15.4004 0 9.95117 0C4.51172 0 0 4.51172 0 9.96094C0 15.4004 4.52148 19.9219 9.96094 19.9219ZM9.96094 18.2617C5.35156 18.2617 1.66992 14.5703 1.66992 9.96094C1.66992 5.35156 5.3418 1.66016 9.95117 1.66016C14.5605 1.66016 18.2617 5.35156 18.2617 9.96094C18.2617 14.5703 14.5703 18.2617 9.96094 18.2617Z" fill="#000000" fill-opacity="0.85"/>
  <path d="M7.82227 16.123L12.0898 16.123C12.7832 16.123 13.2812 15.8008 13.4863 15.2441L13.4863 15.1855L12.3242 14.0234L12.3242 14.1309L7.1875 14.1309L7.1875 8.87695L6.23047 7.92969L6.23047 14.5898C6.23047 15.5078 6.85547 16.123 7.82227 16.123ZM9.96094 15.5273C9.6875 15.5273 9.46289 15.3027 9.46289 15.0293C9.46289 14.7559 9.6875 14.5312 9.96094 14.5312C10.2344 14.5312 10.4492 14.7559 10.4492 15.0293C10.4492 15.3027 10.2344 15.5273 9.96094 15.5273ZM12.0898 3.79883L7.82227 3.79883C7.11914 3.79883 6.63086 4.12109 6.41602 4.6875L6.41602 4.72656L7.55859 5.87891L7.55859 5.79102L12.7246 5.79102L12.7246 11.0547L13.6816 12.0117L13.6816 5.33203C13.6816 4.41406 13.0469 3.79883 12.0898 3.79883ZM8.83789 4.83398C8.83789 4.6875 8.94531 4.59961 9.07227 4.59961L10.8398 4.59961C10.9766 4.59961 11.0742 4.6875 11.0742 4.83398C11.0742 4.9707 10.9766 5.06836 10.8398 5.06836L9.07227 5.06836C8.94531 5.06836 8.83789 4.9707 8.83789 4.83398ZM14.3066 14.9316C14.4727 15.1074 14.7559 15.1074 14.9316 14.9316C15.1074 14.7559 15.1074 14.4922 14.9316 14.3066L5.58594 4.9707C5.41016 4.79492 5.12695 4.79492 4.95117 4.9707C4.78516 5.13672 4.78516 5.42969 4.95117 5.5957Z" fill="#000000" fill-opacity="0.85"/>
 </g>
</svg>
