<?xml version="1.0" encoding="UTF-8"?>
<!--Generator: Apple Native CoreSVG 175.5-->
<!DOCTYPE svg
PUBLIC "-//W3C//DTD SVG 1.1//EN"
       "http://www.w3.org/Graphics/SVG/1.1/DTD/svg11.dtd">
<svg version="1.1" xmlns="http://www.w3.org/2000/svg" xmlns:xlink="http://www.w3.org/1999/xlink" width="19.9219" height="19.9316">
 <g>
  <rect height="19.9316" opacity="0" width="19.9219" x="0" y="0"/>
  <path d="M9.96094 19.9219C15.4102 19.9219 19.9219 15.4004 19.9219 9.96094C19.9219 4.51172 15.4004 0 9.95117 0C4.51172 0 0 4.51172 0 9.96094C0 15.4004 4.52148 19.9219 9.96094 19.9219ZM9.96094 18.2617C5.35156 18.2617 1.66992 14.5703 1.66992 9.96094C1.66992 5.35156 5.3418 1.66016 9.95117 1.66016C14.5605 1.66016 18.2617 5.35156 18.2617 9.96094C18.2617 14.5703 14.5703 18.2617 9.96094 18.2617Z" fill="#000000" fill-opacity="0.85"/>
  <path d="M7.82227 16.123L12.0898 16.123C12.7832 16.123 13.2715 15.8008 13.4863 15.2441L13.4863 15.1855L12.7246 14.4238L12.7246 14.5898C12.666 14.9707 12.4121 15.166 11.9629 15.166L7.93945 15.166C7.44141 15.166 7.17773 14.9121 7.17773 14.4434L7.17773 8.86719L6.23047 7.91992L6.23047 14.5801C6.23047 15.5078 6.86523 16.123 7.82227 16.123ZM8.74023 14.7461L11.1816 14.7461C11.3477 14.7461 11.4551 14.6387 11.4551 14.4727C11.4551 14.2969 11.3477 14.1797 11.1816 14.1797L8.74023 14.1797C8.57422 14.1797 8.45703 14.2969 8.45703 14.4727C8.45703 14.6387 8.57422 14.7461 8.74023 14.7461ZM13.6816 12.0117L13.6816 5.33203C13.6816 4.4043 13.0469 3.79883 12.0898 3.79883L7.82227 3.79883C7.10938 3.79883 6.61133 4.13086 6.40625 4.6875L6.40625 4.72656L7.1875 5.50781L7.1875 5.36133C7.2168 4.96094 7.48047 4.74609 7.93945 4.74609L8.63281 4.74609C8.73047 4.74609 8.75977 4.78516 8.75977 4.87305L8.75977 5C8.75977 5.24414 8.92578 5.41992 9.16992 5.41992L10.7422 5.41992C10.9863 5.41992 11.1426 5.24414 11.1426 5L11.1426 4.87305C11.1426 4.78516 11.1816 4.74609 11.2695 4.74609L11.9629 4.74609C12.4707 4.74609 12.7344 5 12.7344 5.46875L12.7344 11.0645ZM14.3066 14.9316C14.4727 15.1074 14.7559 15.1074 14.9316 14.9316C15.1074 14.7559 15.1074 14.4922 14.9316 14.3066L5.58594 4.9707C5.41016 4.79492 5.12695 4.79492 4.95117 4.9707C4.78516 5.13672 4.78516 5.42969 4.95117 5.5957Z" fill="#000000" fill-opacity="0.85"/>
 </g>
</svg>
