<?xml version="1.0" encoding="UTF-8"?>
<!--Generator: Apple Native CoreSVG 175.5-->
<!DOCTYPE svg
PUBLIC "-//W3C//DTD SVG 1.1//EN"
       "http://www.w3.org/Graphics/SVG/1.1/DTD/svg11.dtd">
<svg version="1.1" xmlns="http://www.w3.org/2000/svg" xmlns:xlink="http://www.w3.org/1999/xlink" width="14.4727" height="25.9277">
 <g>
  <rect height="25.9277" opacity="0" width="14.4727" x="0" y="0"/>
  <path d="M2.69531 21.4648L11.7773 21.4648C13.4863 21.4648 14.4727 20.4492 14.4727 18.7207L14.4727 4.77539C14.4727 3.03711 13.4863 2.03125 11.7773 2.03125L9.19922 2.03125L9.19922 1.95312C9.19922 0.800781 8.4082 0.00976562 7.23633 0C6.06445 0.00976562 5.27344 0.800781 5.27344 1.95312L5.27344 2.03125L2.69531 2.03125C0.986328 2.03125 0 3.03711 0 4.77539L0 18.7207C0 20.4492 0.986328 21.4648 2.69531 21.4648ZM2.77344 19.8438C2.04102 19.8438 1.63086 19.4238 1.63086 18.7012L1.63086 4.79492C1.63086 4.07227 2.04102 3.65234 2.77344 3.65234L11.6992 3.65234C12.4316 3.65234 12.8418 4.07227 12.8418 4.79492L12.8418 18.7012C12.8418 19.4238 12.4316 19.8438 11.6992 19.8438ZM7.23633 2.69531C6.83594 2.69531 6.52344 2.37305 6.52344 1.97266C6.52344 1.58203 6.83594 1.25977 7.23633 1.25977C7.63672 1.25977 7.94922 1.58203 7.94922 1.97266C7.94922 2.37305 7.63672 2.69531 7.23633 2.69531ZM9.51172 25.7617L13.7695 25.7617C14.1602 25.7617 14.4727 25.4492 14.4727 25.0586C14.4727 24.6582 14.1602 24.3359 13.7695 24.3359L9.51172 24.3359C8.38867 24.3359 7.8125 23.8672 7.8125 22.7441L7.8125 20.3906L6.38672 20.3906L6.38672 22.7441C6.38672 24.6582 7.59766 25.7617 9.51172 25.7617Z" fill="#000000" fill-opacity="0.85"/>
  <path d="M3.99414 18.4668L10.498 18.4668C11.0938 18.4668 11.4844 18.0859 11.4844 17.5L11.4844 6.98242C11.4844 6.39648 11.0938 6.01562 10.498 6.01562L3.99414 6.01562C3.39844 6.01562 3.00781 6.39648 3.00781 6.98242L3.00781 17.5C3.00781 18.0859 3.39844 18.4668 3.99414 18.4668Z" fill="#000000" fill-opacity="0.85"/>
  <path d="M6.03516 16.5527C5.74219 16.5527 5.55664 16.3477 5.55664 16.084C5.55664 15.8105 5.74219 15.5957 6.03516 15.5957L8.45703 15.5957C8.74023 15.5957 8.93555 15.8105 8.93555 16.084C8.93555 16.3477 8.74023 16.5527 8.45703 16.5527ZM5.29297 14.5117C5 14.5117 4.80469 14.3066 4.80469 14.0332C4.80469 13.7695 5 13.5547 5.29297 13.5547L9.22852 13.5547C9.50195 13.5547 9.70703 13.7695 9.70703 14.0332C9.70703 14.3066 9.50195 14.5117 9.22852 14.5117ZM7.23633 12.1973C6.39648 12.1973 5.69336 11.543 5.69336 10.6836C5.69336 10.2148 5.9375 9.74609 6.17188 9.32617L6.96289 7.86133C7.12891 7.54883 7.34375 7.53906 7.50977 7.86133L8.30078 9.32617C8.53516 9.74609 8.7793 10.2148 8.7793 10.6836C8.7793 11.543 8.08594 12.1973 7.23633 12.1973Z" fill="#ffffff"/>
 </g>
</svg>
