<?xml version="1.0" encoding="UTF-8"?>
<!--Generator: Apple Native CoreSVG 175.5-->
<!DOCTYPE svg
PUBLIC "-//W3C//DTD SVG 1.1//EN"
       "http://www.w3.org/Graphics/SVG/1.1/DTD/svg11.dtd">
<svg version="1.1" xmlns="http://www.w3.org/2000/svg" xmlns:xlink="http://www.w3.org/1999/xlink" width="14.4727" height="25.9082">
 <g>
  <rect height="25.9082" opacity="0" width="14.4727" x="0" y="0"/>
  <path d="M2.69531 21.4551L11.7773 21.4551C13.4863 21.4551 14.4727 20.4395 14.4727 18.7109L14.4727 4.76562C14.4727 3.02734 13.4863 2.02148 11.7773 2.02148L9.19922 2.02148L9.19922 1.95312C9.19922 0.791016 8.39844 0 7.23633 0C6.07422 0 5.27344 0.791016 5.27344 1.95312L5.27344 2.02148L2.69531 2.02148C0.986328 2.02148 0 3.02734 0 4.76562L0 18.7109C0 20.4395 0.986328 21.4551 2.69531 21.4551ZM7.23633 2.68555C6.83594 2.68555 6.52344 2.36328 6.52344 1.96289C6.52344 1.57227 6.83594 1.25 7.23633 1.25C7.63672 1.25 7.94922 1.57227 7.94922 1.96289C7.94922 2.36328 7.63672 2.68555 7.23633 2.68555ZM9.51172 25.752L13.7695 25.752C14.1602 25.752 14.4727 25.4395 14.4727 25.0488C14.4727 24.6484 14.1602 24.3262 13.7695 24.3262L9.51172 24.3262C8.38867 24.3262 7.8125 23.8574 7.8125 22.7344L7.8125 20.3809L6.38672 20.3809L6.38672 22.7344C6.38672 24.6484 7.59766 25.752 9.51172 25.752Z" fill="#000000" fill-opacity="0.85"/>
  <path d="M3.88672 18.6426C3.27148 18.6426 2.87109 18.2617 2.87109 17.6562L2.87109 6.79688C2.87109 6.20117 3.27148 5.80078 3.88672 5.80078L10.6055 5.80078C11.2207 5.80078 11.6211 6.20117 11.6211 6.79688L11.6211 17.6562C11.6211 18.2617 11.2207 18.6426 10.6055 18.6426Z" fill="#ffffff"/>
  <path d="M6.00586 16.6797L8.48633 16.6797C8.7793 16.6797 8.99414 16.4746 8.99414 16.2012C8.99414 15.918 8.7793 15.6836 8.48633 15.6836L6.00586 15.6836C5.70312 15.6836 5.49805 15.918 5.49805 16.2012C5.49805 16.4746 5.70312 16.6797 6.00586 16.6797ZM5.23438 14.5801L9.28711 14.5801C9.57031 14.5801 9.78516 14.3555 9.78516 14.0723C9.78516 13.7988 9.57031 13.584 9.28711 13.584L5.23438 13.584C4.93164 13.584 4.72656 13.7988 4.72656 14.0723C4.72656 14.3555 4.93164 14.5801 5.23438 14.5801ZM7.23633 12.1777C8.10547 12.1777 8.82812 11.5039 8.82812 10.625C8.82812 10.1367 8.57422 9.6582 8.33984 9.21875L7.51953 7.71484C7.34375 7.38281 7.11914 7.39258 6.95312 7.71484L6.13281 9.21875C5.89844 9.6582 5.64453 10.1367 5.64453 10.625C5.64453 11.5039 6.37695 12.1777 7.23633 12.1777Z" fill="#000000" fill-opacity="0.85"/>
 </g>
</svg>
