<?xml version="1.0" encoding="UTF-8"?>
<!--Generator: Apple Native CoreSVG 175.5-->
<!DOCTYPE svg
PUBLIC "-//W3C//DTD SVG 1.1//EN"
       "http://www.w3.org/Graphics/SVG/1.1/DTD/svg11.dtd">
<svg version="1.1" xmlns="http://www.w3.org/2000/svg" xmlns:xlink="http://www.w3.org/1999/xlink" width="20.6641" height="20.459">
 <g>
  <rect height="20.459" opacity="0" width="20.6641" x="0" y="0"/>
  <path d="M7.80273 20.459L17.6074 20.459C19.6484 20.459 20.6641 19.4531 20.6641 17.4316L20.6641 7.54883C20.6641 5.53711 19.6484 4.53125 17.6074 4.53125L15.127 4.53125L15.127 6.10352L17.5781 6.10352C18.5547 6.10352 19.0918 6.62109 19.0918 7.63672L19.0918 17.3535C19.0918 18.3691 18.5547 18.8867 17.5781 18.8867L7.82227 18.8867C6.86523 18.8867 6.30859 18.3691 6.30859 17.3535L6.30859 15.2051L4.73633 15.2051L4.73633 17.4316C4.73633 19.4434 5.76172 20.459 7.80273 20.459Z" fill="#000000" fill-opacity="0.85"/>
  <path d="M3.06641 15.9375L12.8711 15.9375C14.9121 15.9375 15.9277 14.9316 15.9277 12.9102L15.9277 3.03711C15.9277 1.01562 14.9121 0.00976562 12.8711 0.00976562L3.06641 0.00976562C1.02539 0.00976562 0 1.02539 0 3.03711L0 12.9102C0 14.9219 1.02539 15.9375 3.06641 15.9375ZM3.08594 14.3652C2.12891 14.3652 1.57227 13.8477 1.57227 12.832L1.57227 3.11523C1.57227 2.09961 2.12891 1.58203 3.08594 1.58203L12.8418 1.58203C13.8184 1.58203 14.3555 2.09961 14.3555 3.11523L14.3555 12.832C14.3555 13.8477 13.8184 14.3652 12.8418 14.3652ZM7.5 12.5391C9.42383 12.5391 10.4492 11.5234 10.4492 9.66797L10.4492 4.19922C10.4492 3.65234 10.1758 3.32031 9.6582 3.32031C9.16016 3.32031 8.88672 3.67188 8.88672 4.19922L8.88672 9.64844C8.88672 10.625 8.38867 11.2109 7.57812 11.2109C6.8457 11.2109 6.35742 10.8398 6.11328 10.2051C5.94727 9.84375 5.73242 9.6875 5.40039 9.6875C4.9707 9.6875 4.67773 9.98047 4.67773 10.4102C4.67773 10.5664 4.70703 10.7129 4.75586 10.8594C5.09766 11.8848 6.15234 12.5391 7.5 12.5391Z" fill="#000000" fill-opacity="0.85"/>
 </g>
</svg>
