<?xml version="1.0" encoding="UTF-8"?>
<!--Generator: Apple Native CoreSVG 175.5-->
<!DOCTYPE svg
PUBLIC "-//W3C//DTD SVG 1.1//EN"
       "http://www.w3.org/Graphics/SVG/1.1/DTD/svg11.dtd">
<svg version="1.1" xmlns="http://www.w3.org/2000/svg" xmlns:xlink="http://www.w3.org/1999/xlink" width="12.4707" height="24.2449">
 <g>
  <rect height="24.2449" opacity="0" width="12.4707" x="0" y="0"/>
  <path d="M6.24023 0.144902C2.76367 0.144902 0 2.90857 0 6.36561C0 8.97303 1.5625 11.2777 4.00391 12.2054L4.00391 21.8441C4.00391 22.0883 4.08203 22.2738 4.25781 22.4594L5.88867 24.1C6.05469 24.266 6.38672 24.3148 6.5918 24.1097L9.6875 21.014C9.89258 20.7992 9.88281 20.516 9.6875 20.3109L7.76367 18.4164L10.4004 15.7894C10.5859 15.5941 10.5859 15.3109 10.3809 15.0961L7.77344 12.4691C10.791 11.2679 12.4707 9.04139 12.4707 6.36561C12.4707 2.92811 9.6875 0.144902 6.24023 0.144902ZM6.24023 6.1117C5.2832 6.1117 4.50195 5.34021 4.50195 4.37342C4.50195 3.40662 5.26367 2.63514 6.24023 2.63514C7.19727 2.63514 7.97852 3.41639 7.97852 4.37342C7.97852 5.34021 7.19727 6.1117 6.24023 6.1117Z" fill="#000000" fill-opacity="0.85"/>
 </g>
</svg>
