<?xml version="1.0" encoding="UTF-8"?>
<!--Generator: Apple Native CoreSVG 175.5-->
<!DOCTYPE svg
PUBLIC "-//W3C//DTD SVG 1.1//EN"
       "http://www.w3.org/Graphics/SVG/1.1/DTD/svg11.dtd">
<svg version="1.1" xmlns="http://www.w3.org/2000/svg" xmlns:xlink="http://www.w3.org/1999/xlink" width="24.5508" height="18.5645">
 <g>
  <rect height="18.5645" opacity="0" width="24.5508" x="0" y="0"/>
  <path d="M19.2969 16.9727C22.2461 16.9727 24.5508 14.8145 24.5508 12.1289C24.5508 10.0781 23.3691 8.30078 21.4648 7.5C21.4844 3.14453 18.3496 0 14.3555 0C11.709 0 9.82422 1.41602 8.65234 3.125C6.25 2.42188 3.63281 4.24805 3.58398 6.98242C1.37695 7.33398 0 9.30664 0 11.6895C0 14.5605 2.50977 16.9727 5.84961 16.9727Z" fill="#000000" fill-opacity="0.85"/>
  <path d="M6.73828 9.61914C6.73828 7.94922 8.07617 6.62109 9.73633 6.62109C10.9863 6.62109 12.0996 7.36328 12.5488 8.54492L17.1875 8.54492C17.2949 8.54492 17.3828 8.57422 17.4902 8.67188L18.2715 9.45312C18.3496 9.54102 18.3594 9.6875 18.2715 9.78516L16.7871 11.2695C16.6895 11.377 16.543 11.377 16.4453 11.2695L15.5273 10.3418L14.2676 11.6211C14.1895 11.7188 14.043 11.709 13.9355 11.6016L12.666 10.3516C12.0898 11.8066 11.0156 12.6074 9.73633 12.6074C8.07617 12.6074 6.73828 11.2793 6.73828 9.61914ZM8.17383 9.60938C8.17383 10.1172 8.59375 10.5273 9.10156 10.5273C9.62891 10.5273 10.0293 10.1172 10.0293 9.60938C10.0293 9.10156 9.62891 8.69141 9.10156 8.69141C8.59375 8.69141 8.17383 9.0918 8.17383 9.60938Z" fill="#ffffff"/>
 </g>
</svg>
