<?xml version="1.0" encoding="UTF-8"?>
<!--Generator: Apple Native CoreSVG 175.5-->
<!DOCTYPE svg
PUBLIC "-//W3C//DTD SVG 1.1//EN"
       "http://www.w3.org/Graphics/SVG/1.1/DTD/svg11.dtd">
<svg version="1.1" xmlns="http://www.w3.org/2000/svg" xmlns:xlink="http://www.w3.org/1999/xlink" width="27.2925" height="24.7949">
 <g>
  <rect height="24.7949" opacity="0" width="27.2925" x="0" y="0"/>
  <path d="M12.3926 0C5.54688 0 0 5.54688 0 12.3926C0 19.2383 5.54688 24.7852 12.3926 24.7852C17.8418 24.7852 22.4707 21.2598 24.1309 16.3672C23.5645 16.4453 23.0176 16.2891 22.6074 15.957C21.1328 20.1855 17.1191 23.2129 12.3926 23.2129C6.41602 23.2129 1.57227 18.3691 1.57227 12.3926C1.57227 6.41602 6.41602 1.57227 12.3926 1.57227C17.1289 1.57227 21.1426 4.60938 22.6074 8.84766C23.0273 8.50586 23.5742 8.35938 24.1406 8.4375C22.4902 3.53516 17.8516 0 12.3926 0Z" fill="#000000" fill-opacity="0.85"/>
  <path d="M12.3926 20.9668C17.1289 20.9668 20.9766 17.1289 20.9766 12.3926C20.9766 7.65625 17.1289 3.80859 12.3926 3.80859C7.65625 3.80859 3.80859 7.65625 3.80859 12.3926C3.80859 17.1289 7.65625 20.9668 12.3926 20.9668ZM12.3926 19.3945C8.52539 19.3945 5.38086 16.2598 5.38086 12.3926C5.38086 8.52539 8.52539 5.38086 12.3926 5.38086C16.2598 5.38086 19.4043 8.52539 19.4043 12.3926C19.4043 16.2598 16.2598 19.3945 12.3926 19.3945ZM24.4043 9.93164C23.8672 9.52148 23.2129 9.76562 23.2129 10.4395L23.2129 14.3555C23.2129 15.0488 23.8867 15.2539 24.4043 14.8633L27.0215 12.9102C27.3828 12.6465 27.3828 12.1484 27.0215 11.8848ZM10.6738 16.5332L14.9414 16.5332C15.3027 16.5332 15.5664 16.2988 15.5664 15.9277C15.5664 15.5469 15.3027 15.3223 14.9414 15.3223L11.4258 15.3223L11.4258 8.80859C11.4258 8.29102 11.1621 7.96875 10.6738 7.96875C10.1953 7.96875 9.94141 8.31055 9.94141 8.80859L9.94141 15.7031C9.94141 16.2012 10.1953 16.5332 10.6738 16.5332Z" fill="#000000" fill-opacity="0.85"/>
 </g>
</svg>
