<?xml version="1.0" encoding="UTF-8"?>
<!--Generator: Apple Native CoreSVG 175.5-->
<!DOCTYPE svg
PUBLIC "-//W3C//DTD SVG 1.1//EN"
       "http://www.w3.org/Graphics/SVG/1.1/DTD/svg11.dtd">
<svg version="1.1" xmlns="http://www.w3.org/2000/svg" xmlns:xlink="http://www.w3.org/1999/xlink" width="20.1367" height="19.1113">
 <g>
  <rect height="19.1113" opacity="0" width="20.1367" x="0" y="0"/>
  <path d="M10.0684 14.9707C16.1621 14.9707 20.1367 12.2754 20.1367 8.37891C20.1367 4.49219 16.1523 1.79688 10.0586 1.79688C3.97461 1.79688 0 4.49219 0 8.37891C0 12.2754 3.97461 14.9707 10.0684 14.9707ZM10.0684 13.291C5.09766 13.291 1.76758 11.2988 1.76758 8.37891C1.76758 5.45898 5.09766 3.47656 10.0586 3.47656C15.0293 3.47656 18.3691 5.45898 18.3691 8.37891C18.3691 11.2988 15.0391 13.291 10.0684 13.291ZM10.0684 19.1113C12.4414 19.1113 13.8477 17.998 13.8477 16.123L13.8477 15.7324C12.6855 15.9766 11.4258 16.1035 10.0684 16.1035C8.71094 16.1035 7.45117 15.9766 6.29883 15.7324L6.29883 16.123C6.29883 17.998 7.70508 19.1113 10.0684 19.1113Z" fill="#000000" fill-opacity="0.85"/>
  <path d="M8.70117 11.4355L11.709 11.4355C12.0898 11.4355 12.3535 11.1719 12.3535 10.8105C12.3535 10.4297 12.0898 10.1758 11.709 10.1758L9.42383 10.1758L9.42383 5.77148C9.42383 5.2832 9.14062 4.99023 8.70117 4.99023C8.27148 4.99023 7.97852 5.29297 7.97852 5.77148L7.97852 10.6543C7.97852 11.123 8.26172 11.4355 8.70117 11.4355Z" fill="#000000" fill-opacity="0.85"/>
 </g>
</svg>
