<?xml version="1.0" encoding="UTF-8"?>
<!--Generator: Apple Native CoreSVG 175.5-->
<!DOCTYPE svg
PUBLIC "-//W3C//DTD SVG 1.1//EN"
       "http://www.w3.org/Graphics/SVG/1.1/DTD/svg11.dtd">
<svg version="1.1" xmlns="http://www.w3.org/2000/svg" xmlns:xlink="http://www.w3.org/1999/xlink" width="27.2925" height="24.7949">
 <g>
  <rect height="24.7949" opacity="0" width="27.2925" x="0" y="0"/>
  <path d="M12.3926 0C5.54688 0 0 5.54688 0 12.3926C0 19.2383 5.54688 24.7852 12.3926 24.7852C17.8418 24.7852 22.4707 21.2598 24.1309 16.3672C23.5645 16.4453 23.0176 16.2891 22.6074 15.957C21.1328 20.1855 17.1191 23.2129 12.3926 23.2129C6.41602 23.2129 1.57227 18.3691 1.57227 12.3926C1.57227 6.41602 6.41602 1.57227 12.3926 1.57227C17.1289 1.57227 21.1426 4.60938 22.6074 8.84766C23.0273 8.50586 23.5742 8.35938 24.1406 8.4375C22.4902 3.53516 17.8516 0 12.3926 0Z" fill="#000000" fill-opacity="0.85"/>
  <path d="M12.3926 20.9668C17.1289 20.9668 20.9766 17.1289 20.9766 12.3926C20.9766 7.65625 17.1289 3.80859 12.3926 3.80859C7.65625 3.80859 3.80859 7.65625 3.80859 12.3926C3.80859 17.1289 7.65625 20.9668 12.3926 20.9668ZM24.4043 9.93164C23.8672 9.52148 23.2129 9.76562 23.2129 10.4395L23.2129 14.3555C23.2129 15.0488 23.8867 15.2539 24.4043 14.8633L27.0215 12.9102C27.3828 12.6465 27.3828 12.1484 27.0215 11.8848ZM10.6152 16.6699C10.1172 16.6699 9.85352 16.3086 9.85352 15.791L9.85352 8.69141C9.85352 8.17383 10.1172 7.82227 10.6152 7.82227C11.1133 7.82227 11.3867 8.16406 11.3867 8.69141L11.3867 15.4004L15.0195 15.4004C15.3906 15.4004 15.6641 15.6348 15.6641 16.0254C15.6641 16.4258 15.3906 16.6699 15.0195 16.6699Z" fill="#000000" fill-opacity="0.85"/>
 </g>
</svg>
