<?xml version="1.0" encoding="UTF-8"?>
<!--Generator: Apple Native CoreSVG 175.5-->
<!DOCTYPE svg
PUBLIC "-//W3C//DTD SVG 1.1//EN"
       "http://www.w3.org/Graphics/SVG/1.1/DTD/svg11.dtd">
<svg version="1.1" xmlns="http://www.w3.org/2000/svg" xmlns:xlink="http://www.w3.org/1999/xlink" width="23.6133" height="17.998">
 <g>
  <rect height="17.998" opacity="0" width="23.6133" x="0" y="0"/>
  <path d="M8.39844 17.998L15.2246 17.998C21.0352 17.998 23.6133 15.332 23.6133 9.85352L23.6133 3.04688C23.6133 1.03516 22.5879 0.0195312 20.5469 0.0195312L3.06641 0.0195312C1.02539 0.0195312 0 1.02539 0 3.04688L0 9.85352C0 15.332 2.57812 17.998 8.39844 17.998Z" fill="#000000" fill-opacity="0.85"/>
  <path d="M9.94141 13.5254C9.41406 13.5254 9.14062 13.1445 9.14062 12.6074L9.14062 5.13672C9.14062 4.58984 9.41406 4.21875 9.94141 4.21875C10.4688 4.21875 10.7617 4.57031 10.7617 5.13672L10.7617 12.1973L14.5703 12.1973C14.9707 12.1973 15.2539 12.4414 15.2539 12.8516C15.2539 13.2715 14.9707 13.5254 14.5703 13.5254Z" fill="#ffffff"/>
 </g>
</svg>
