<?xml version="1.0" encoding="UTF-8"?>
<!--Generator: Apple Native CoreSVG 175.5-->
<!DOCTYPE svg
PUBLIC "-//W3C//DTD SVG 1.1//EN"
       "http://www.w3.org/Graphics/SVG/1.1/DTD/svg11.dtd">
<svg version="1.1" xmlns="http://www.w3.org/2000/svg" xmlns:xlink="http://www.w3.org/1999/xlink" width="23.6133" height="17.998">
 <g>
  <rect height="17.998" opacity="0" width="23.6133" x="0" y="0"/>
  <path d="M8.39844 0.0195312C2.57812 0.0195312 0 2.68555 0 8.1543L0 14.9707C0 16.9922 1.02539 17.998 3.06641 17.998L20.5469 17.998C22.5879 17.998 23.6133 16.9824 23.6133 14.9707L23.6133 8.1543C23.6133 2.68555 21.0352 0.0195312 15.2246 0.0195312ZM8.39844 1.61133L15.2148 1.61133C19.9609 1.61133 22.041 3.68164 22.041 8.06641L22.041 14.8926C22.041 15.9082 21.4941 16.4258 20.5273 16.4258L3.08594 16.4258C2.10938 16.4258 1.57227 15.9082 1.57227 14.8926L1.57227 8.06641C1.57227 3.68164 3.65234 1.61133 8.39844 1.61133Z" fill="#000000" fill-opacity="0.85"/>
  <path d="M6.5625 13.4082L10.8691 13.4082C11.25 13.4082 11.5234 13.1641 11.5234 12.7637C11.5234 12.3633 11.2402 12.1289 10.8691 12.1289L7.35352 12.1289L7.35352 5.27344C7.35352 4.72656 7.08008 4.39453 6.5625 4.39453C6.06445 4.39453 5.80078 4.74609 5.80078 5.27344L5.80078 12.5293C5.80078 13.0469 6.06445 13.4082 6.5625 13.4082ZM13.1738 13.4082L18.0957 13.4082C18.4668 13.4082 18.75 13.1543 18.75 12.7637C18.75 12.3633 18.4668 12.1289 18.0957 12.1289L14.6289 12.1289L14.6289 12.0605L16.9434 9.64844C17.8223 8.73047 18.418 7.94922 18.418 6.86523C18.418 5.38086 17.2266 4.39453 15.4199 4.39453C14.0332 4.39453 12.8027 5.23438 12.4902 6.32812C12.4512 6.47461 12.4414 6.5918 12.4414 6.71875C12.4414 7.09961 12.6953 7.34375 13.0664 7.34375C13.418 7.34375 13.5938 7.12891 13.7598 6.85547C14.0332 6.25977 14.5312 5.63477 15.4883 5.63477C16.416 5.63477 17.0312 6.17188 17.0312 6.98242C17.0312 7.69531 16.4355 8.29102 15.8594 8.89648L12.7344 12.1875C12.5684 12.373 12.4805 12.5586 12.4805 12.7637C12.4805 13.1543 12.7441 13.4082 13.1738 13.4082Z" fill="#000000" fill-opacity="0.85"/>
 </g>
</svg>
