<?xml version="1.0" encoding="UTF-8"?>
<!--Generator: Apple Native CoreSVG 175.5-->
<!DOCTYPE svg
PUBLIC "-//W3C//DTD SVG 1.1//EN"
       "http://www.w3.org/Graphics/SVG/1.1/DTD/svg11.dtd">
<svg version="1.1" xmlns="http://www.w3.org/2000/svg" xmlns:xlink="http://www.w3.org/1999/xlink" width="22.1387" height="23.1379">
 <g>
  <rect height="23.1379" opacity="0" width="22.1387" x="0" y="0"/>
  <path d="M4.98047 8.43908L3.16406 6.90588C2.80273 6.59338 2.33398 6.55432 2.03125 6.91564C1.73828 7.27697 1.85547 7.74572 2.20703 8.04846L4.04297 9.59143ZM3.20312 13.0582L0.800781 13.0582C0.3125 13.0582 0 13.361 0 13.8102C0 14.2594 0.3125 14.5524 0.810547 14.5524L3.20312 14.5426ZM3.99414 18.7711L2.16797 20.2946C1.81641 20.5973 1.70898 21.066 2.00195 21.4176C2.30469 21.7789 2.76367 21.7399 3.13477 21.4371L4.93164 19.9137ZM17.1582 8.43908L18.0957 9.59143L19.9316 8.04846C20.2832 7.74572 20.4004 7.27697 20.1074 6.91564C19.8047 6.55432 19.3359 6.59338 18.9746 6.90588ZM18.9355 13.0582L18.9355 14.5426L21.3281 14.5524C21.8164 14.5524 22.1387 14.2594 22.1387 13.8102C22.1387 13.361 21.8164 13.0582 21.3379 13.0582ZM18.1445 18.7711L17.1973 19.9137L19.0039 21.4371C19.3652 21.7399 19.834 21.7789 20.1367 21.4176C20.4297 21.066 20.3223 20.5973 19.9609 20.2946Z" fill="#000000" fill-opacity="0.85"/>
  <path d="M2.49023 14.3278C2.49023 19.0446 5.23438 22.4723 9.43359 23.0094C10.0977 23.0875 10.4297 22.8531 10.4297 22.3453L10.4297 11.2321C10.4297 10.8805 10.7129 10.5973 11.0645 10.5973C11.416 10.5973 11.709 10.8805 11.709 11.2321L11.709 22.3453C11.709 22.8531 12.041 23.0875 12.7051 23.0094C16.9043 22.4723 19.6484 19.0446 19.6484 14.3278C19.6484 12.2184 18.8379 9.41564 17.5977 8.24377C16.9629 7.6676 16.5918 7.65783 16.2207 7.81408C14.7754 8.45861 12.9492 8.86877 11.0645 8.86877C9.18945 8.86877 7.36328 8.45861 5.91797 7.81408C5.54688 7.65783 5.17578 7.6676 4.54102 8.24377C3.30078 9.41564 2.49023 12.2184 2.49023 14.3278Z" fill="#000000" fill-opacity="0.85"/>
  <path d="M7.26562 12.4723C6.57227 12.4723 6.01562 11.8863 6.01562 11.2125C6.01562 10.5192 6.57227 9.95275 7.26562 9.95275C7.95898 9.95275 8.52539 10.5192 8.52539 11.2125C8.52539 11.8961 7.95898 12.4723 7.26562 12.4723ZM6.2207 16.6715C5.41016 16.6715 4.75586 16.0172 4.75586 15.1969C4.75586 14.3961 5.41016 13.7418 6.2207 13.7418C7.02148 13.7418 7.68555 14.3961 7.68555 15.1969C7.68555 16.0172 7.02148 16.6715 6.2207 16.6715ZM7.46094 20.2457C6.86523 20.2457 6.38672 19.7672 6.38672 19.1715C6.38672 18.5758 6.86523 18.0973 7.46094 18.0973C8.06641 18.0973 8.54492 18.5758 8.54492 19.1715C8.54492 19.7672 8.06641 20.2457 7.46094 20.2457ZM14.873 12.4723C14.1797 12.4723 13.6133 11.8961 13.6133 11.2125C13.6133 10.5192 14.1797 9.95275 14.873 9.95275C15.5664 9.95275 16.123 10.5192 16.123 11.2125C16.123 11.8863 15.5664 12.4723 14.873 12.4723ZM15.918 16.6715C15.1172 16.6715 14.4531 16.0172 14.4531 15.1969C14.4531 14.3961 15.1172 13.7418 15.918 13.7418C16.7285 13.7418 17.3828 14.3961 17.3828 15.1969C17.3828 16.0172 16.7285 16.6715 15.918 16.6715ZM14.6777 20.2457C14.0723 20.2457 13.5938 19.7672 13.5938 19.1715C13.5938 18.5758 14.0723 18.0973 14.6777 18.0973C15.2734 18.0973 15.752 18.5758 15.752 19.1715C15.752 19.7672 15.2734 20.2457 14.6777 20.2457Z" fill="#ffffff"/>
  <path d="M5.87891 5.71447C5.87891 6.24182 6.08398 6.65197 6.70898 6.93518C7.7832 7.43322 9.4043 7.73596 11.0645 7.73596C12.7344 7.73596 14.3555 7.43322 15.4297 6.93518C16.0547 6.65197 16.2598 6.24182 16.2598 5.71447C16.2598 3.56603 14.1992 1.85705 11.0645 1.85705C7.93945 1.85705 5.87891 3.56603 5.87891 5.71447ZM6.76758 1.40783L7.43164 1.65197C7.85156 1.79846 8.01758 2.02307 7.93945 2.36486L7.82227 2.86291L9.25781 2.85314L9.32617 2.3551C9.43359 1.40783 8.99414 0.704707 8.02734 0.36291L7.25586 0.0504097C6.28906-0.281622 5.83008 1.12463 6.76758 1.40783ZM15.3711 1.40783C16.3086 1.12463 15.8496-0.281622 14.8828 0.0504097L14.1113 0.36291C13.1445 0.704707 12.7051 1.40783 12.8125 2.3551L12.8809 2.85314L14.3164 2.86291L14.1992 2.36486C14.1211 2.02307 14.2871 1.79846 14.707 1.65197Z" fill="#000000" fill-opacity="0.85"/>
 </g>
</svg>
