<?xml version="1.0" encoding="UTF-8"?>
<!--Generator: Apple Native CoreSVG 175.5-->
<!DOCTYPE svg
PUBLIC "-//W3C//DTD SVG 1.1//EN"
       "http://www.w3.org/Graphics/SVG/1.1/DTD/svg11.dtd">
<svg version="1.1" xmlns="http://www.w3.org/2000/svg" xmlns:xlink="http://www.w3.org/1999/xlink" width="28.1641" height="21.748">
 <g>
  <rect height="21.748" opacity="0" width="28.1641" x="0" y="0"/>
  <path d="M1.10352 18.8281L27.0605 18.8281C27.666 18.8281 28.1641 18.3301 28.1641 17.7148C28.1641 17.0996 27.666 16.6016 27.0605 16.6016L1.10352 16.6016C0.498047 16.6016 0 17.0996 0 17.7148C0 18.3301 0.498047 18.8281 1.10352 18.8281ZM16.1133 4.51172L22.4121 4.51172C23.0371 4.51172 23.3496 4.82422 23.3496 5.44922L23.3496 17.3242L24.9219 17.3242L24.9219 5.00977C24.9219 3.64258 24.1895 2.93945 22.832 2.93945L16.1133 2.93945ZM12.0508 2.93945L5.33203 2.93945C4.04297 2.93945 3.24219 3.64258 3.24219 5.00977L3.24219 17.3242L4.81445 17.3242L4.81445 5.44922C4.81445 4.82422 5.12695 4.51172 5.75195 4.51172L12.0508 4.51172Z" fill="#000000" fill-opacity="0.85"/>
  <path d="M13.3887 0.703125L13.3887 8.4668L13.4766 10.5273L11.5723 8.38867L11.0059 7.83203C10.8691 7.70508 10.6934 7.62695 10.4883 7.62695C10.0879 7.62695 9.81445 7.91016 9.81445 8.29102C9.81445 8.49609 9.89258 8.67188 10.0293 8.80859L13.5547 12.3535C13.7305 12.5195 13.916 12.6074 14.082 12.6074C14.248 12.6074 14.4434 12.5195 14.6094 12.3535L18.1348 8.80859C18.2715 8.67188 18.3496 8.49609 18.3496 8.29102C18.3496 7.91016 18.0762 7.62695 17.6758 7.62695C17.4707 7.62695 17.2949 7.70508 17.1582 7.83203L16.5918 8.38867L14.6875 10.5273L14.7852 8.4668L14.7852 0.703125C14.7852 0.263672 14.4434 0 14.082 0C13.7207 0 13.3887 0.263672 13.3887 0.703125Z" fill="#000000" fill-opacity="0.85"/>
 </g>
</svg>
