<?xml version="1.0" encoding="UTF-8"?>
<!--Generator: Apple Native CoreSVG 175.5-->
<!DOCTYPE svg
PUBLIC "-//W3C//DTD SVG 1.1//EN"
       "http://www.w3.org/Graphics/SVG/1.1/DTD/svg11.dtd">
<svg version="1.1" xmlns="http://www.w3.org/2000/svg" xmlns:xlink="http://www.w3.org/1999/xlink" width="29.4531" height="16.6504">
 <g>
  <rect height="16.6504" opacity="0" width="29.4531" x="0" y="0"/>
  <path d="M3.24219 14.4434L4.81445 14.4434L4.81445 2.50977C4.81445 1.88477 5.12695 1.57227 5.75195 1.57227L22.4121 1.57227C23.0371 1.57227 23.3496 1.88477 23.3496 2.44141L23.3496 2.56836L24.9219 2.56836L24.9219 2.07031C24.9219 0.703125 24.1211 0 22.832 0L5.33203 0C4.04297 0 3.24219 0.703125 3.24219 2.07031ZM1.10352 15.8887L12.7051 15.8887C12.4707 15.3906 12.3438 14.9121 12.334 13.6621L1.10352 13.6621C0.498047 13.6621 0 14.1602 0 14.7754C0 15.3906 0.498047 15.8887 1.10352 15.8887Z" fill="#000000" fill-opacity="0.85"/>
  <path d="M15.8594 16.3477L27.2461 16.3477C28.7012 16.3477 29.4531 15.5957 29.4531 14.1602L29.4531 6.10352C29.4531 4.6582 28.7012 3.90625 27.2461 3.90625L15.8594 3.90625C14.4141 3.90625 13.6621 4.64844 13.6621 6.10352L13.6621 14.1602C13.6621 15.5957 14.4141 16.3477 15.8594 16.3477ZM15.8789 14.9707C15.3027 14.9707 15.0391 14.7363 15.0391 14.1211L15.0391 6.12305C15.0391 5.52734 15.3027 5.27344 15.8789 5.27344L27.2363 5.27344C27.793 5.27344 28.0762 5.52734 28.0762 6.12305L28.0762 14.1211C28.0762 14.7363 27.793 14.9707 27.2363 14.9707ZM19.043 14.1113L24.082 14.1113C24.3457 14.1113 24.5312 13.9355 24.5312 13.6621C24.5312 13.3887 24.3457 13.2031 24.082 13.2031L19.043 13.2031C18.7695 13.2031 18.584 13.3887 18.584 13.6621C18.584 13.9355 18.7695 14.1113 19.043 14.1113Z" fill="#000000" fill-opacity="0.85"/>
 </g>
</svg>
