<?xml version="1.0" encoding="UTF-8"?>
<!--Generator: Apple Native CoreSVG 175.5-->
<!DOCTYPE svg
PUBLIC "-//W3C//DTD SVG 1.1//EN"
       "http://www.w3.org/Graphics/SVG/1.1/DTD/svg11.dtd">
<svg version="1.1" xmlns="http://www.w3.org/2000/svg" xmlns:xlink="http://www.w3.org/1999/xlink" width="22.6074" height="20.8496">
 <g>
  <rect height="20.8496" opacity="0" width="22.6074" x="0" y="0"/>
  <path d="M0 10.6836L0 9.20898L4.14062 9.20898L4.14062 8.95508C4.14062 8.27148 4.53125 7.88086 5.21484 7.88086L7.63672 7.88086C8.33008 7.88086 8.7207 8.27148 8.7207 8.95508L8.7207 9.20898L13.877 9.20898L13.877 8.95508C13.877 8.27148 14.2676 7.88086 14.9609 7.88086L17.3828 7.88086C18.0762 7.88086 18.4668 8.27148 18.4668 8.95508L18.4668 9.20898L22.6074 9.20898L22.6074 10.6836L18.4668 10.6836L18.4668 10.957C18.4668 11.6406 18.0762 12.0215 17.3828 12.0215L14.9609 12.0215C14.2676 12.0215 13.877 11.6406 13.877 10.957L13.877 10.6836L8.7207 10.6836L8.7207 10.957C8.7207 11.6406 8.33008 12.0215 7.63672 12.0215L5.21484 12.0215C4.53125 12.0215 4.14062 11.6406 4.14062 10.957L4.14062 10.6836ZM3.01758 18.9258L19.5898 18.9258C21.6113 18.9258 22.6074 17.9395 22.6074 15.9473L22.6074 6.44531C22.6074 4.44336 21.6113 3.4668 19.5898 3.4668L3.01758 3.4668C1.00586 3.4668 0 4.44336 0 6.44531L0 15.9473C0 17.9395 1.00586 18.9258 3.01758 18.9258ZM6.34766 4.31641L7.86133 4.31641L7.86133 2.58789C7.86133 1.8457 8.30078 1.42578 9.0625 1.42578L13.5449 1.42578C14.3066 1.42578 14.7363 1.8457 14.7363 2.58789L14.7363 4.29688L16.25 4.29688L16.25 2.69531C16.25 0.859375 15.2832 0 13.5156 0L9.08203 0C7.41211 0 6.34766 0.859375 6.34766 2.69531Z" fill="#000000" fill-opacity="0.85"/>
 </g>
</svg>
