<?xml version="1.0" encoding="UTF-8"?>
<!--Generator: Apple Native CoreSVG 175.5-->
<!DOCTYPE svg
PUBLIC "-//W3C//DTD SVG 1.1//EN"
       "http://www.w3.org/Graphics/SVG/1.1/DTD/svg11.dtd">
<svg version="1.1" xmlns="http://www.w3.org/2000/svg" xmlns:xlink="http://www.w3.org/1999/xlink" width="23.6133" height="17.998">
 <g>
  <rect height="17.998" opacity="0" width="23.6133" x="0" y="0"/>
  <path d="M8.39844 17.998L15.2246 17.998C21.0352 17.998 23.6133 15.332 23.6133 9.85352L23.6133 3.04688C23.6133 1.03516 22.5879 0.0195312 20.5469 0.0195312L3.06641 0.0195312C1.02539 0.0195312 0 1.02539 0 3.04688L0 9.85352C0 15.332 2.57812 17.998 8.39844 17.998ZM8.39844 16.4062C3.65234 16.4062 1.57227 14.3262 1.57227 9.95117L1.57227 3.125C1.57227 2.10938 2.10938 1.5918 3.08594 1.5918L20.5273 1.5918C21.4941 1.5918 22.041 2.10938 22.041 3.125L22.041 9.95117C22.041 14.3262 19.9609 16.4062 15.2148 16.4062Z" fill="#000000" fill-opacity="0.85"/>
  <path d="M6.01562 13.3887L10.5176 13.3887C10.8887 13.3887 11.1621 13.1445 11.1621 12.7441C11.1621 12.3438 10.8887 12.1094 10.5176 12.1094L6.80664 12.1094L6.80664 5.25391C6.80664 4.70703 6.5332 4.375 6.01562 4.375C5.50781 4.375 5.24414 4.72656 5.24414 5.25391L5.24414 12.5098C5.24414 13.0273 5.51758 13.3887 6.01562 13.3887ZM13.4473 13.3984L16.2988 13.3984C18.3203 13.3984 19.6094 12.4219 19.6094 10.8887C19.6094 9.69727 18.8184 8.86719 17.5195 8.70117L17.5195 8.64258C18.4863 8.4082 19.082 7.64648 19.082 6.66992C19.082 5.3418 17.998 4.47266 16.3184 4.47266L13.4473 4.47266C12.9004 4.47266 12.5781 4.78516 12.5781 5.3418L12.5781 12.5293C12.5781 13.0762 12.9004 13.3984 13.4473 13.3984ZM14.0918 8.26172L14.0918 5.625L16.0059 5.625C16.9922 5.625 17.5879 6.11328 17.5879 6.91406C17.5879 7.7832 16.875 8.26172 15.5664 8.26172ZM14.0918 12.2461L14.0918 9.33594L16.1621 9.33594C17.3633 9.33594 18.0566 9.88281 18.0566 10.8301C18.0566 11.7969 17.3047 12.2461 15.6836 12.2461Z" fill="#000000" fill-opacity="0.85"/>
 </g>
</svg>
