<?xml version="1.0" encoding="UTF-8"?>
<!--Generator: Apple Native CoreSVG 175.5-->
<!DOCTYPE svg
PUBLIC "-//W3C//DTD SVG 1.1//EN"
       "http://www.w3.org/Graphics/SVG/1.1/DTD/svg11.dtd">
<svg version="1.1" xmlns="http://www.w3.org/2000/svg" xmlns:xlink="http://www.w3.org/1999/xlink" width="23.8867" height="10.5957">
 <g>
  <rect height="10.5957" opacity="0" width="23.8867" x="0" y="0"/>
  <path d="M3.97461 9.47266L4.91211 9.47266L4.91211 1.13281L3.97461 1.13281ZM18.9746 9.47266L19.9121 9.47266L19.9121 1.13281L18.9746 1.13281ZM11.9434 5.75195C14.8828 5.75195 17.0605 3.91602 17.2754 1.13281L16.2305 1.13281C16.0645 3.37891 14.3066 4.86328 11.9434 4.86328C9.57031 4.86328 7.8125 3.37891 7.64648 1.13281L6.60156 1.13281C6.82617 3.91602 9.00391 5.75195 11.9434 5.75195Z" fill="#000000" fill-opacity="0.85"/>
  <path d="M2.64648 10.5957L21.2402 10.5957C22.9883 10.5957 23.8867 9.69727 23.8867 7.96875L23.8867 2.63672C23.8867 0.908203 22.9785 0.00976562 21.2305 0.00976562L2.63672 0.00976562C0.888672 0.00976562 0 0.908203 0 2.63672L0 7.96875C0 9.69727 0.898438 10.5957 2.64648 10.5957ZM2.88086 9.02344C2.05078 9.02344 1.57227 8.56445 1.57227 7.68555L1.57227 2.91992C1.57227 2.04102 2.05078 1.58203 2.89062 1.58203L20.9961 1.58203C21.8359 1.58203 22.3047 2.04102 22.3047 2.91992L22.3047 7.68555C22.3047 8.56445 21.8359 9.02344 20.9863 9.02344ZM11.9434 3.41797C13.2715 3.41797 14.248 2.58789 14.3555 1.32812L9.53125 1.32812C9.62891 2.58789 10.6055 3.41797 11.9434 3.41797Z" fill="#000000" fill-opacity="0.85"/>
 </g>
</svg>
