<?xml version="1.0" encoding="UTF-8"?>
<!--Generator: Apple Native CoreSVG 175.5-->
<!DOCTYPE svg
PUBLIC "-//W3C//DTD SVG 1.1//EN"
       "http://www.w3.org/Graphics/SVG/1.1/DTD/svg11.dtd">
<svg version="1.1" xmlns="http://www.w3.org/2000/svg" xmlns:xlink="http://www.w3.org/1999/xlink" width="19.9316" height="21.4551">
 <g>
  <rect height="21.4551" opacity="0" width="19.9316" x="0" y="0"/>
  <path d="M2.89062 15.9863L7.82227 15.9863C8.18359 15.9863 8.35938 15.7617 8.38867 15.4492C8.62305 13.0273 9.16016 11.5918 9.64844 10.4004L8.7793 8.70117C8.32031 9.85352 7.60742 11.2402 7.13867 14.6191L3.56445 14.6191C2.83203 9.08203 1.37695 8.66211 1.37695 6.41602C1.37695 4.33594 3.18359 2.82227 5.35156 2.82227C6.57227 2.82227 7.67578 3.30078 8.37891 4.10156L9.01367 2.7832C8.06641 1.95312 6.77734 1.44531 5.35156 1.44531C2.37305 1.44531 0 3.63281 0 6.41602C0 9.50195 1.81641 10.2637 2.32422 15.4492C2.34375 15.7617 2.5293 15.9863 2.89062 15.9863ZM2.86133 17.8418L7.85156 17.8418C8.16406 17.8418 8.41797 17.6074 8.41797 17.2949C8.41797 16.9727 8.16406 16.7383 7.85156 16.7383L2.86133 16.7383C2.54883 16.7383 2.31445 16.9824 2.31445 17.2949C2.31445 17.5977 2.54883 17.8418 2.86133 17.8418ZM5.36133 20.2832C6.65039 20.2832 7.76367 19.5898 7.7832 18.5938L2.94922 18.5938C2.96875 19.5898 4.0625 20.2832 5.36133 20.2832Z" fill="#000000" fill-opacity="0.85"/>
  <path d="M13.75 0C10.3027 0 7.58789 2.50977 7.58789 5.70312C7.58789 9.23828 9.70703 10.1172 10.293 16.2207C10.3223 16.5625 10.5078 16.7773 10.8691 16.7773L16.6406 16.7773C17.002 16.7773 17.1875 16.5625 17.2168 16.2207C17.8027 10.1172 19.9316 9.23828 19.9316 5.70312C19.9316 2.50977 17.207 0 13.75 0ZM13.75 1.43555C16.3184 1.43555 18.4961 3.23242 18.4961 5.70312C18.4961 8.33008 16.7578 8.92578 15.9082 15.3418L11.6016 15.3418C10.752 8.92578 9.02344 8.33008 9.02344 5.70312C9.02344 3.23242 11.1914 1.43555 13.75 1.43555ZM10.8496 18.7695L16.6699 18.7695C16.9824 18.7695 17.2363 18.5352 17.2363 18.2129C17.2363 17.8906 16.9824 17.6562 16.6699 17.6562L10.8496 17.6562C10.5273 17.6562 10.293 17.8906 10.293 18.2129C10.293 18.5352 10.5273 18.7695 10.8496 18.7695ZM13.7598 21.4453C15.1953 21.4453 16.4062 20.7227 16.4844 19.6484L11.0352 19.6484C11.0938 20.7227 12.3145 21.4453 13.7598 21.4453Z" fill="#000000" fill-opacity="0.85"/>
 </g>
</svg>
