<?xml version="1.0" encoding="UTF-8"?>
<!--Generator: Apple Native CoreSVG 175.5-->
<!DOCTYPE svg
PUBLIC "-//W3C//DTD SVG 1.1//EN"
       "http://www.w3.org/Graphics/SVG/1.1/DTD/svg11.dtd">
<svg version="1.1" xmlns="http://www.w3.org/2000/svg" xmlns:xlink="http://www.w3.org/1999/xlink" width="16.4258" height="24.7949">
 <g>
  <rect height="24.7949" opacity="0" width="16.4258" x="0" y="0"/>
  <path d="M4.0918 10.6348C4.55078 10.6348 4.92188 10.2637 4.92188 9.80469C4.92188 9.3457 4.55078 8.97461 4.0918 8.97461C3.64258 8.97461 3.26172 9.35547 3.26172 9.80469C3.26172 10.2539 3.64258 10.6348 4.0918 10.6348ZM6.69922 10.4102L12.5586 10.4102C12.8906 10.4102 13.1641 10.1367 13.1641 9.80469C13.1641 9.47266 12.8906 9.18945 12.5586 9.18945L6.69922 9.18945C6.36719 9.18945 6.08398 9.47266 6.08398 9.80469C6.08398 10.1367 6.36719 10.4102 6.69922 10.4102ZM3.02734 23.6621L13.3984 23.6621C15.4199 23.6621 16.4258 22.6465 16.4258 20.5957L16.4258 5.79102C16.4258 3.78906 15.459 2.72461 13.5059 2.72461L13.2715 2.72461C13.2812 2.80273 13.2812 2.89062 13.2812 2.96875L13.2812 3.84766C13.2812 4.00391 13.2715 4.16016 13.2422 4.29688L13.4766 4.29688C14.3945 4.29688 14.8535 4.89258 14.8535 5.81055L14.8535 20.5762C14.8535 21.5527 14.3359 22.0898 13.3203 22.0898L3.10547 22.0898C2.08984 22.0898 1.57227 21.5527 1.57227 20.5762L1.57227 5.81055C1.57227 4.89258 2.03125 4.29688 2.94922 4.29688L3.18359 4.29688C3.1543 4.16016 3.14453 4.00391 3.14453 3.84766L3.14453 2.96875C3.14453 2.89062 3.14453 2.80273 3.1543 2.72461L2.91992 2.72461C0.966797 2.72461 0 3.78906 0 5.79102L0 20.5957C0 22.6465 1.00586 23.6621 3.02734 23.6621ZM5.19531 4.96094L11.2305 4.96094C11.7969 4.96094 12.1387 4.59961 12.1387 3.99414L12.1387 2.96875C12.1387 2.36328 11.7969 2.00195 11.2305 2.00195L10.332 2.00195C10.2637 0.898438 9.3457 0 8.21289 0C7.08008 0 6.16211 0.898438 6.09375 2.00195L5.19531 2.00195C4.62891 2.00195 4.28711 2.36328 4.28711 2.96875L4.28711 3.99414C4.28711 4.59961 4.62891 4.96094 5.19531 4.96094ZM8.21289 2.92969C7.74414 2.92969 7.36328 2.53906 7.36328 2.08008C7.36328 1.60156 7.74414 1.2207 8.21289 1.2207C8.68164 1.2207 9.0625 1.60156 9.0625 2.08008C9.0625 2.53906 8.68164 2.92969 8.21289 2.92969Z" fill="#000000" fill-opacity="0.85"/>
  <path d="M4.0918 17.7539C4.55078 17.7539 4.92188 17.3828 4.92188 16.9238C4.92188 16.4648 4.55078 16.0938 4.0918 16.0938C3.64258 16.0938 3.26172 16.4746 3.26172 16.9238C3.26172 17.373 3.64258 17.7539 4.0918 17.7539ZM6.69922 17.5293L12.5586 17.5293C12.8906 17.5293 13.1641 17.2559 13.1641 16.9238C13.1641 16.5918 12.9004 16.3184 12.5586 16.3184L6.69922 16.3184C6.35742 16.3184 6.08398 16.5918 6.08398 16.9238C6.08398 17.2559 6.36719 17.5293 6.69922 17.5293Z" fill="#000000" fill-opacity="0.85"/>
  <path d="M4.0918 14.0918C4.55078 14.0918 4.92188 13.7207 4.92188 13.2617C4.92188 12.8027 4.55078 12.4414 4.0918 12.4414C3.63281 12.4414 3.26172 12.8125 3.26172 13.2617C3.26172 13.7207 3.63281 14.0918 4.0918 14.0918ZM6.69922 13.877L12.5586 13.877C12.9004 13.877 13.1641 13.6035 13.1641 13.2617C13.1641 12.9297 12.9004 12.666 12.5586 12.666L6.69922 12.666C6.35742 12.666 6.08398 12.9297 6.08398 13.2617C6.08398 13.6035 6.35742 13.877 6.69922 13.877Z" fill="#000000" fill-opacity="0.85"/>
 </g>
</svg>
