<?xml version="1.0" encoding="UTF-8"?>
<!--Generator: Apple Native CoreSVG 175.5-->
<!DOCTYPE svg
PUBLIC "-//W3C//DTD SVG 1.1//EN"
       "http://www.w3.org/Graphics/SVG/1.1/DTD/svg11.dtd">
<svg version="1.1" xmlns="http://www.w3.org/2000/svg" xmlns:xlink="http://www.w3.org/1999/xlink" width="16.4258" height="24.7949">
 <g>
  <rect height="24.7949" opacity="0" width="16.4258" x="0" y="0"/>
  <path d="M3.76953 11.1035C3.42773 11.1035 3.13477 10.8203 3.13477 10.4785C3.13477 10.127 3.42773 9.83398 3.76953 9.83398L12.6562 9.83398C12.998 9.83398 13.291 10.127 13.291 10.4785C13.291 10.8203 12.998 11.1035 12.6562 11.1035ZM3.76953 14.6777C3.41797 14.6777 3.13477 14.3945 3.13477 14.043C3.13477 13.6914 3.41797 13.418 3.76953 13.418L12.6562 13.418C13.0078 13.418 13.291 13.6914 13.291 14.043C13.291 14.3945 13.0078 14.6777 12.6562 14.6777ZM3.76953 18.4473C3.42773 18.4473 3.13477 18.1543 3.13477 17.8125C3.13477 17.4707 3.41797 17.1875 3.76953 17.1875L8.24219 17.1875C8.59375 17.1875 8.86719 17.4707 8.86719 17.8125C8.86719 18.1543 8.58398 18.4473 8.24219 18.4473ZM3.02734 23.6621L13.3984 23.6621C15.4199 23.6621 16.4258 22.6465 16.4258 20.5957L16.4258 5.78125C16.4258 3.73047 15.4199 2.71484 13.4961 2.71484L13.2715 2.71484C13.2715 2.75391 13.2715 2.80273 13.2715 2.8418L13.2715 3.99414C13.2715 5.22461 12.4414 6.09375 11.2305 6.09375L5.19531 6.09375C3.98438 6.09375 3.1543 5.22461 3.1543 3.99414L3.1543 2.8418C3.1543 2.80273 3.1543 2.75391 3.1543 2.71484L2.92969 2.71484C1.00586 2.71484 0 3.73047 0 5.78125L0 20.5957C0 22.6465 1.00586 23.6621 3.02734 23.6621ZM5.19531 4.96094L11.2305 4.96094C11.7969 4.96094 12.1387 4.59961 12.1387 3.99414L12.1387 2.96875C12.1387 2.36328 11.7969 2.00195 11.2305 2.00195L10.332 2.00195C10.2637 0.898438 9.3457 0 8.21289 0C7.08008 0 6.16211 0.898438 6.09375 2.00195L5.19531 2.00195C4.62891 2.00195 4.28711 2.36328 4.28711 2.96875L4.28711 3.99414C4.28711 4.59961 4.62891 4.96094 5.19531 4.96094ZM8.21289 2.92969C7.74414 2.92969 7.36328 2.53906 7.36328 2.08008C7.36328 1.60156 7.74414 1.2207 8.21289 1.2207C8.68164 1.2207 9.0625 1.60156 9.0625 2.08008C9.0625 2.53906 8.68164 2.92969 8.21289 2.92969Z" fill="#000000" fill-opacity="0.85"/>
 </g>
</svg>
