<?xml version="1.0" encoding="UTF-8"?>
<!--Generator: Apple Native CoreSVG 175.5-->
<!DOCTYPE svg
PUBLIC "-//W3C//DTD SVG 1.1//EN"
       "http://www.w3.org/Graphics/SVG/1.1/DTD/svg11.dtd">
<svg version="1.1" xmlns="http://www.w3.org/2000/svg" xmlns:xlink="http://www.w3.org/1999/xlink" width="16.4258" height="24.7949">
 <g>
  <rect height="24.7949" opacity="0" width="16.4258" x="0" y="0"/>
  <path d="M3.96484 10.9766C3.49609 10.9766 3.10547 10.5762 3.10547 10.1172C3.10547 9.64844 3.49609 9.25781 3.96484 9.25781C4.43359 9.25781 4.82422 9.63867 4.82422 10.1172C4.82422 10.5859 4.43359 10.9766 3.96484 10.9766ZM3.96484 14.541C3.48633 14.541 3.10547 14.1504 3.10547 13.6816C3.10547 13.2129 3.48633 12.832 3.96484 12.832C4.43359 12.832 4.82422 13.2031 4.82422 13.6816C4.82422 14.1504 4.43359 14.541 3.96484 14.541ZM3.96484 18.3105C3.49609 18.3105 3.10547 17.9199 3.10547 17.4512C3.10547 16.9922 3.49609 16.5918 3.96484 16.5918C4.43359 16.5918 4.82422 16.9824 4.82422 17.4512C4.82422 17.9297 4.43359 18.3105 3.96484 18.3105ZM6.66016 10.7422C6.30859 10.7422 6.01562 10.459 6.01562 10.1172C6.01562 9.77539 6.30859 9.47266 6.66016 9.47266L12.6953 9.47266C13.0371 9.47266 13.3203 9.77539 13.3203 10.1172C13.3203 10.459 13.0371 10.7422 12.6953 10.7422ZM6.66016 14.3164C6.29883 14.3164 6.01562 14.0332 6.01562 13.6816C6.01562 13.3301 6.29883 13.0566 6.66016 13.0566L12.6953 13.0566C13.0469 13.0566 13.3203 13.3301 13.3203 13.6816C13.3203 14.0332 13.0469 14.3164 12.6953 14.3164ZM6.66016 18.0859C6.30859 18.0859 6.01562 17.793 6.01562 17.4512C6.01562 17.1094 6.29883 16.8262 6.66016 16.8262L12.6953 16.8262C13.0469 16.8262 13.3203 17.1094 13.3203 17.4512C13.3203 17.793 13.0371 18.0859 12.6953 18.0859ZM3.02734 23.6621L13.3984 23.6621C15.4199 23.6621 16.4258 22.6465 16.4258 20.5957L16.4258 5.78125C16.4258 3.73047 15.4199 2.71484 13.4961 2.71484L13.2715 2.71484C13.2715 2.75391 13.2715 2.80273 13.2715 2.8418L13.2715 3.99414C13.2715 5.22461 12.4414 6.09375 11.2305 6.09375L5.19531 6.09375C3.98438 6.09375 3.1543 5.22461 3.1543 3.99414L3.1543 2.8418C3.1543 2.80273 3.1543 2.75391 3.1543 2.71484L2.92969 2.71484C1.00586 2.71484 0 3.73047 0 5.78125L0 20.5957C0 22.6465 1.00586 23.6621 3.02734 23.6621ZM5.19531 4.96094L11.2305 4.96094C11.7969 4.96094 12.1387 4.59961 12.1387 3.99414L12.1387 2.96875C12.1387 2.36328 11.7969 2.00195 11.2305 2.00195L10.332 2.00195C10.2637 0.898438 9.3457 0 8.21289 0C7.08008 0 6.16211 0.898438 6.09375 2.00195L5.19531 2.00195C4.62891 2.00195 4.28711 2.36328 4.28711 2.96875L4.28711 3.99414C4.28711 4.59961 4.62891 4.96094 5.19531 4.96094ZM8.21289 2.92969C7.74414 2.92969 7.36328 2.53906 7.36328 2.08008C7.36328 1.60156 7.74414 1.2207 8.21289 1.2207C8.68164 1.2207 9.0625 1.60156 9.0625 2.08008C9.0625 2.53906 8.68164 2.92969 8.21289 2.92969Z" fill="#000000" fill-opacity="0.85"/>
 </g>
</svg>
