<?xml version="1.0" encoding="UTF-8"?>
<!--Generator: Apple Native CoreSVG 175.5-->
<!DOCTYPE svg
PUBLIC "-//W3C//DTD SVG 1.1//EN"
       "http://www.w3.org/Graphics/SVG/1.1/DTD/svg11.dtd">
<svg version="1.1" xmlns="http://www.w3.org/2000/svg" xmlns:xlink="http://www.w3.org/1999/xlink" width="24.2095" height="26.709">
 <g>
  <rect height="26.709" opacity="0" width="24.2095" x="0" y="0"/>
  <path d="M11.1719 0C8.54492 0 7.33398 4.0625 7.33398 5.78125C7.33398 8.14453 8.86719 8.13477 8.86719 8.68164C8.86719 8.81836 8.78906 8.90625 8.55469 9.05273L5.35156 11.0352L4.58008 10.0586C4.30664 9.69727 4.42383 9.08203 5.07812 9.08203C5.69336 9.08203 6.09375 8.67188 6.09375 8.125C6.09375 7.57812 5.6543 7.14844 5.11719 7.14844C4.57031 7.14844 4.13086 7.57812 4.13086 8.125C4.13086 8.18359 4.13086 8.24219 4.14062 8.29102C4.27734 9.0625 3.11523 8.79883 3.54492 8.22266C3.67188 8.05664 3.74023 7.85156 3.74023 7.63672C3.74023 7.08984 3.30078 6.66016 2.75391 6.66016C2.2168 6.66016 1.77734 7.08984 1.77734 7.63672C1.77734 8.06641 2.04102 8.38867 2.41211 8.56445C3.00781 8.83789 2.32422 9.55078 2.00195 9.08203C1.81641 8.81836 1.51367 8.64258 1.17188 8.64258C0.634766 8.64258 0.195312 9.07227 0.195312 9.61914C0.195312 10.166 0.634766 10.6055 1.17188 10.6055C1.36719 10.6055 1.54297 10.5469 1.69922 10.4492C2.13867 10.1758 2.5 10.1953 2.86133 10.6543L4.36523 12.5781C4.73633 13.0664 5.36133 13.2715 5.9082 12.9785L7.36328 12.1973L7.08008 12.1582C6.77734 13.0566 6.5625 14.209 6.94336 15.6445L7.05078 15.4004L5.71289 14.668C5.16602 14.3652 4.55078 14.5801 4.16992 15.0684L2.67578 16.9922C2.30469 17.4414 1.95312 17.4707 1.50391 17.1973C1.34766 17.0996 1.17188 17.041 0.986328 17.041C0.439453 17.041 0 17.4805 0 18.0273C0 18.5645 0.439453 19.0039 0.986328 19.0039C1.31836 19.0039 1.63086 18.8281 1.80664 18.5547C2.12891 18.0957 2.82227 18.7988 2.2168 19.082C1.8457 19.248 1.58203 19.5801 1.58203 20C1.58203 20.5469 2.02148 20.9863 2.56836 20.9863C3.10547 20.9863 3.54492 20.5469 3.54492 20C3.54492 19.7852 3.47656 19.5898 3.35938 19.4141C2.91992 18.8477 4.08203 18.584 3.95508 19.3555C3.93555 19.3945 3.93555 19.4531 3.93555 19.5215C3.93555 20.0586 4.375 20.498 4.92188 20.498C5.46875 20.498 5.89844 20.0586 5.89844 19.5215C5.89844 18.9746 5.49805 18.5645 4.88281 18.5645C4.23828 18.5645 4.11133 17.9492 4.38477 17.5879L5.16602 16.6113L8.87695 19.5801C9.375 23.3887 12.5781 26.4648 17.4316 26.4648C21.3477 26.4648 23.5059 23.9648 24.0625 22.7637C24.668 21.4453 23.2617 20.4883 22.4023 21.3672C21.0156 22.7734 19.2969 22.959 18.0762 22.959C16.2012 22.959 14.1992 21.4941 13.7988 19.2773L17.1582 16.6113L17.9297 17.5879C18.2129 17.9492 18.0859 18.5645 17.4414 18.5645C16.8164 18.5645 16.4258 18.9746 16.4258 19.5215C16.4258 20.0586 16.8555 20.498 17.4023 20.498C17.9492 20.498 18.3887 20.0586 18.3887 19.5215C18.3887 19.4531 18.3887 19.3945 18.3691 19.3555C18.2422 18.584 19.4043 18.8477 18.9648 19.4141C18.8477 19.5898 18.7793 19.7852 18.7793 20C18.7793 20.5469 19.2188 20.9863 19.7559 20.9863C20.3027 20.9863 20.7422 20.5469 20.7422 20C20.7422 19.5801 20.4785 19.248 20.1074 19.082C19.502 18.7988 20.1855 18.0957 20.5176 18.5547C20.6934 18.8281 21.0059 19.0039 21.3379 19.0039C21.8848 19.0039 22.3242 18.5645 22.3242 18.0273C22.3242 17.4805 21.8848 17.041 21.3379 17.041C21.1523 17.041 20.9766 17.0996 20.8105 17.1973C20.3711 17.4707 20.0098 17.4414 19.6484 16.9922L18.1543 15.0684C17.7734 14.5801 17.1582 14.3652 16.6113 14.668L15.2832 15.3906L15.3906 15.6543C15.7812 14.2188 15.5566 13.0469 15.2539 12.1387L14.9707 12.1973L16.4258 12.9785C16.9727 13.2715 17.5977 13.0664 17.9688 12.5781L19.4727 10.6543C19.834 10.1953 20.1953 10.1758 20.6348 10.4492C20.791 10.5469 20.9668 10.6055 21.1621 10.6055C21.6992 10.6055 22.1387 10.166 22.1387 9.61914C22.1387 9.07227 21.6992 8.64258 21.1621 8.64258C20.8203 8.64258 20.5176 8.81836 20.332 9.08203C20.0098 9.55078 19.3262 8.83789 19.9219 8.56445C20.293 8.38867 20.5566 8.06641 20.5566 7.63672C20.5566 7.08984 20.1172 6.66016 19.5801 6.66016C19.0332 6.66016 18.5938 7.08984 18.5938 7.63672C18.5938 7.85156 18.6621 8.05664 18.7891 8.22266C19.2188 8.79883 18.0566 9.0625 18.1934 8.29102C18.2031 8.24219 18.2031 8.18359 18.2031 8.125C18.2031 7.57812 17.7637 7.14844 17.2168 7.14844C16.6797 7.14844 16.2402 7.57812 16.2402 8.125C16.2402 8.67188 16.6406 9.08203 17.2559 9.08203C17.9102 9.08203 18.0273 9.69727 17.7539 10.0586L16.9824 11.0352L13.7891 9.05273C13.5449 8.89648 13.4668 8.81836 13.4668 8.68164C13.4668 8.13477 15 8.125 15 5.78125C15 4.0625 13.7891 0 11.1719 0Z" fill="#000000" fill-opacity="0.85"/>
 </g>
</svg>
