<?xml version="1.0" encoding="UTF-8"?>
<!--Generator: Apple Native CoreSVG 175.5-->
<!DOCTYPE svg
PUBLIC "-//W3C//DTD SVG 1.1//EN"
       "http://www.w3.org/Graphics/SVG/1.1/DTD/svg11.dtd">
<svg version="1.1" xmlns="http://www.w3.org/2000/svg" xmlns:xlink="http://www.w3.org/1999/xlink" width="18.695" height="18.5547">
 <g>
  <rect height="18.5547" opacity="0" width="18.695" x="0" y="0"/>
  <path d="M5.04145 5.59082L0.803167 7.56348C-0.446833 8.13965-0.202692 9.89746 1.29145 9.90723L8.41059 9.93652C8.55707 9.93652 8.6059 9.98535 8.6059 10.1318L8.62543 17.1924C8.62543 18.6475 10.3735 18.9893 11.0278 17.5732L12.9321 13.4912ZM14.6508 9.77051L18.2446 2.05566C18.8989 0.629883 17.7758-0.317383 16.4086 0.327148L8.75239 3.88184Z" fill="#000000" fill-opacity="0.85"/>
  <path d="M17.4145 16.3232C17.7075 16.6162 18.1957 16.6162 18.4789 16.3232C18.7622 16.0303 18.7719 15.5518 18.4789 15.2588L3.43989 0.219727C3.14692-0.0732422 2.65864-0.0732422 2.36567 0.219727C2.08246 0.50293 2.08246 1.00098 2.36567 1.28418Z" fill="#000000" fill-opacity="0.85"/>
 </g>
</svg>
