<?xml version="1.0" encoding="UTF-8"?>
<!--Generator: Apple Native CoreSVG 175.5-->
<!DOCTYPE svg
PUBLIC "-//W3C//DTD SVG 1.1//EN"
       "http://www.w3.org/Graphics/SVG/1.1/DTD/svg11.dtd">
<svg version="1.1" xmlns="http://www.w3.org/2000/svg" xmlns:xlink="http://www.w3.org/1999/xlink" width="19.9219" height="19.9316">
 <g>
  <rect height="19.9316" opacity="0" width="19.9219" x="0" y="0"/>
  <path d="M9.96094 19.9219C15.4102 19.9219 19.9219 15.4004 19.9219 9.96094C19.9219 4.51172 15.4004 0 9.95117 0C4.51172 0 0 4.51172 0 9.96094C0 15.4004 4.52148 19.9219 9.96094 19.9219ZM9.96094 18.2617C5.35156 18.2617 1.66992 14.5703 1.66992 9.96094C1.66992 5.35156 5.3418 1.66016 9.95117 1.66016C14.5605 1.66016 18.2617 5.35156 18.2617 9.96094C18.2617 14.5703 14.5703 18.2617 9.96094 18.2617Z" fill="#000000" fill-opacity="0.85"/>
  <path d="M14.0137 14.6387C14.1797 14.8047 14.4727 14.8047 14.6387 14.6387C14.8145 14.4531 14.8145 14.1895 14.6387 14.0137L5.9082 5.27344C5.72266 5.09766 5.44922 5.09766 5.27344 5.27344C5.09766 5.44922 5.09766 5.73242 5.27344 5.89844ZM12.4316 10.7422L14.5508 6.23047C14.9023 5.47852 14.2578 4.83398 13.4961 5.19531L9.00391 7.32422ZM4.59961 10.7812L9.11133 10.7812L6.73828 8.39844L4.26758 9.57031C3.64258 9.87305 3.74023 10.7812 4.59961 10.7812ZM10.2148 15.4785L11.3574 13.0371L9.00391 10.6738L9.00391 15.1465C9.00391 16.0156 9.92188 16.1035 10.2148 15.4785Z" fill="#000000" fill-opacity="0.85"/>
 </g>
</svg>
