<?xml version="1.0" encoding="UTF-8"?>
<!--Generator: Apple Native CoreSVG 175.5-->
<!DOCTYPE svg
PUBLIC "-//W3C//DTD SVG 1.1//EN"
       "http://www.w3.org/Graphics/SVG/1.1/DTD/svg11.dtd">
<svg version="1.1" xmlns="http://www.w3.org/2000/svg" xmlns:xlink="http://www.w3.org/1999/xlink" width="18.7546" height="18.6719">
 <g>
  <rect height="18.6719" opacity="0" width="18.7546" x="0" y="0"/>
  <path d="M1.34121 10.0146L8.46035 10.0439C8.57754 10.0439 8.60684 10.0732 8.60684 10.1904L8.62637 17.251C8.63614 18.7939 10.4721 19.0674 11.1264 17.6514L13.06 13.501L11.9076 12.3486L10.1693 16.0986C10.1596 16.1377 10.1205 16.1279 10.1205 16.0889L10.1596 10.5908L8.0209 8.46191L2.53262 8.49121C2.49356 8.49121 2.48379 8.45215 2.53262 8.43262L6.27285 6.72363L5.13028 5.57129L0.833401 7.57324C-0.514255 8.19824-0.143161 10.0049 1.34121 10.0146ZM14.7689 9.80957L18.3432 2.13379C19.0072 0.688477 17.8744-0.336914 16.4389 0.336914L8.80215 3.88184L9.97403 5.03418L16.5658 2.00684C16.6342 1.97754 16.6635 1.99707 16.6342 2.0752L13.5971 8.64746Z" fill="#000000" fill-opacity="0.85"/>
  <path d="M17.474 16.3232C17.767 16.6162 18.2553 16.6162 18.5385 16.3232C18.8217 16.0303 18.8314 15.5518 18.5385 15.2588L3.49942 0.219727C3.20645-0.0732422 2.71817-0.0732422 2.4252 0.219727C2.14199 0.50293 2.14199 1.00098 2.4252 1.28418Z" fill="#000000" fill-opacity="0.85"/>
 </g>
</svg>
