<?xml version="1.0" encoding="UTF-8"?>
<!--Generator: Apple Native CoreSVG 175.5-->
<!DOCTYPE svg
PUBLIC "-//W3C//DTD SVG 1.1//EN"
       "http://www.w3.org/Graphics/SVG/1.1/DTD/svg11.dtd">
<svg version="1.1" xmlns="http://www.w3.org/2000/svg" xmlns:xlink="http://www.w3.org/1999/xlink" width="14.1602" height="20.9082">
 <g>
  <rect height="20.9082" opacity="0" width="14.1602" x="0" y="0"/>
  <path d="M0 14.4043C0 15.918 0.595703 17.0312 1.69922 17.6367C2.23633 17.9199 2.54883 18.2812 2.74414 18.9355L3.05664 19.9805C3.24219 20.6055 3.68164 20.9082 4.33594 20.9082L8.84766 20.9082C9.52148 20.9082 9.93164 20.6152 10.1172 19.9805L10.4395 18.9355C10.6348 18.2812 10.9473 17.9199 11.4844 17.6367C12.5879 17.0312 13.1836 15.918 13.1836 14.4043L13.1836 6.50391C13.1836 4.99023 12.5879 3.88672 11.4844 3.27148C10.9473 2.98828 10.6348 2.62695 10.4395 1.98242L10.1172 0.927734C9.95117 0.3125 9.51172 0 8.84766 0L4.33594 0C3.68164 0 3.24219 0.302734 3.05664 0.927734L2.74414 1.98242C2.55859 2.61719 2.24609 2.99805 1.69922 3.27148C0.605469 3.85742 0 4.9707 0 6.50391ZM1.42578 14.1992L1.42578 6.71875C1.42578 5.26367 2.27539 4.38477 3.70117 4.38477L9.48242 4.38477C10.9082 4.38477 11.7578 5.26367 11.7578 6.71875L11.7578 14.1992C11.7578 15.6445 10.9082 16.5234 9.48242 16.5234L3.70117 16.5234C2.27539 16.5234 1.42578 15.6445 1.42578 14.1992ZM12.9688 9.76562L13.3203 9.76562C13.8281 9.76562 14.1602 9.42383 14.1602 8.86719L14.1602 7.54883C14.1602 6.99219 13.8281 6.65039 13.3203 6.65039L12.9688 6.65039Z" fill="#000000" fill-opacity="0.85"/>
  <path d="M3.10547 12.9297C3.10547 13.4863 3.37891 13.7695 3.90625 13.7695L7.22656 13.7695C7.75391 13.7695 8.02734 13.4863 8.02734 12.9297L8.02734 10.3809C8.02734 9.82422 7.75391 9.55078 7.22656 9.55078L3.90625 9.55078C3.37891 9.55078 3.10547 9.82422 3.10547 10.3809ZM6.47461 10.1172L7.44141 10.1172L7.44141 8.7207C7.44141 7.99805 7.83203 7.5293 8.49609 7.5293C9.16016 7.5293 9.55078 7.99805 9.55078 8.7207L9.55078 9.41406C9.55078 9.6875 9.76562 9.90234 10.0391 9.90234C10.293 9.90234 10.5176 9.6875 10.5176 9.41406L10.5176 8.7207C10.5176 7.49023 9.7168 6.5918 8.49609 6.5918C7.26562 6.5918 6.47461 7.49023 6.47461 8.80859Z" fill="#000000" fill-opacity="0.85"/>
 </g>
</svg>
