<?xml version="1.0" encoding="UTF-8"?>
<!--Generator: Apple Native CoreSVG 175.5-->
<!DOCTYPE svg
PUBLIC "-//W3C//DTD SVG 1.1//EN"
       "http://www.w3.org/Graphics/SVG/1.1/DTD/svg11.dtd">
<svg version="1.1" xmlns="http://www.w3.org/2000/svg" xmlns:xlink="http://www.w3.org/1999/xlink" width="20.0684" height="21.2402">
 <g>
  <rect height="21.2402" opacity="0" width="20.0684" x="0" y="0"/>
  <path d="M2.96875 21.2305L17.0996 21.2305C19.0625 21.2305 20.0684 20.2344 20.0684 18.291L20.0684 8.4668C20.0684 6.52344 19.0625 5.53711 17.0996 5.53711L2.96875 5.53711C0.986328 5.53711 0 6.52344 0 8.4668L0 18.291C0 20.2344 0.986328 21.2305 2.96875 21.2305ZM1.86523 3.96484L18.2129 3.96484C18.0664 3.07617 17.6465 2.58789 16.6699 2.58789L3.4082 2.58789C2.43164 2.58789 2.01172 3.07617 1.86523 3.96484ZM3.87695 1.25977L16.2012 1.25977C16.1426 0.429688 15.6738 0 14.7656 0L5.30273 0C4.4043 0 3.93555 0.429688 3.87695 1.25977Z" fill="#000000" fill-opacity="0.85"/>
  <path d="M6.40625 17.3633L6.40625 13.3594C6.40625 12.6465 6.69922 12.2949 7.28516 12.2559L7.28516 11.0742C7.28516 9.21875 8.39844 7.96875 10.0391 7.96875C11.6797 7.96875 12.793 9.21875 12.793 11.0742L12.793 12.2559C13.3789 12.2949 13.6719 12.6465 13.6719 13.3594L13.6719 17.3633C13.6719 18.1152 13.3398 18.4668 12.6465 18.4668L7.43164 18.4668C6.73828 18.4668 6.40625 18.1152 6.40625 17.3633ZM8.33984 12.2461L11.7383 12.2461L11.7383 10.957C11.7383 9.77539 11.0547 8.98438 10.0391 8.98438C9.02344 8.98438 8.33984 9.77539 8.33984 10.957Z" fill="#ffffff"/>
 </g>
</svg>
