<?xml version="1.0" encoding="UTF-8"?>
<!--Generator: Apple Native CoreSVG 175.5-->
<!DOCTYPE svg
PUBLIC "-//W3C//DTD SVG 1.1//EN"
       "http://www.w3.org/Graphics/SVG/1.1/DTD/svg11.dtd">
<svg version="1.1" xmlns="http://www.w3.org/2000/svg" xmlns:xlink="http://www.w3.org/1999/xlink" width="23.6133" height="17.998">
 <g>
  <rect height="17.998" opacity="0" width="23.6133" x="0" y="0"/>
  <path d="M8.39844 0.0195312C2.57812 0.0195312 0 2.68555 0 8.1543L0 14.9707C0 16.9922 1.02539 17.998 3.06641 17.998L20.5469 17.998C22.5879 17.998 23.6133 16.9824 23.6133 14.9707L23.6133 8.1543C23.6133 2.68555 21.0352 0.0195312 15.2246 0.0195312Z" fill="#000000" fill-opacity="0.85"/>
  <path d="M6.45508 13.5449C5.92773 13.5449 5.6543 13.1738 5.6543 12.6367L5.6543 5.16602C5.6543 4.61914 5.92773 4.24805 6.45508 4.24805C6.98242 4.24805 7.26562 4.58984 7.26562 5.16602L7.26562 12.2266L11.0938 12.2266C11.4746 12.2266 11.7676 12.4609 11.7676 12.8809C11.7676 13.291 11.4844 13.5449 11.0938 13.5449ZM15.2539 13.6621C14.7363 13.6621 14.4629 13.291 14.4629 12.7441L14.4629 5.68359L11.9727 5.68359C11.5918 5.68359 11.3086 5.42969 11.3086 5.0293C11.3086 4.59961 11.5918 4.36523 11.9727 4.36523L18.5742 4.36523C18.9648 4.36523 19.248 4.59961 19.248 5.0293C19.248 5.42969 18.9648 5.68359 18.5742 5.68359L16.0742 5.68359L16.0742 12.7441C16.0742 13.3203 15.791 13.6621 15.2539 13.6621Z" fill="#ffffff"/>
 </g>
</svg>
