<?xml version="1.0" encoding="UTF-8"?>
<!--Generator: Apple Native CoreSVG 175.5-->
<!DOCTYPE svg
PUBLIC "-//W3C//DTD SVG 1.1//EN"
       "http://www.w3.org/Graphics/SVG/1.1/DTD/svg11.dtd">
<svg version="1.1" xmlns="http://www.w3.org/2000/svg" xmlns:xlink="http://www.w3.org/1999/xlink" width="23.6133" height="17.998">
 <g>
  <rect height="17.998" opacity="0" width="23.6133" x="0" y="0"/>
  <path d="M8.39844 0.0195312C2.57812 0.0195312 0 2.68555 0 8.1543L0 14.9707C0 16.9922 1.02539 17.998 3.06641 17.998L20.5469 17.998C22.5879 17.998 23.6133 16.9824 23.6133 14.9707L23.6133 8.1543C23.6133 2.68555 21.0352 0.0195312 15.2246 0.0195312ZM8.39844 1.61133L15.2148 1.61133C19.9609 1.61133 22.041 3.68164 22.041 8.06641L22.041 14.8926C22.041 15.9082 21.4941 16.4258 20.5273 16.4258L3.08594 16.4258C2.10938 16.4258 1.57227 15.9082 1.57227 14.8926L1.57227 8.06641C1.57227 3.68164 3.65234 1.61133 8.39844 1.61133Z" fill="#000000" fill-opacity="0.85"/>
  <path d="M6.62109 13.4082L11.1133 13.4082C11.4941 13.4082 11.7676 13.1641 11.7676 12.7637C11.7676 12.3633 11.4844 12.1289 11.1133 12.1289L7.40234 12.1289L7.40234 5.27344C7.40234 4.72656 7.12891 4.39453 6.62109 4.39453C6.11328 4.39453 5.84961 4.74609 5.84961 5.27344L5.84961 12.5293C5.84961 13.0469 6.11328 13.4082 6.62109 13.4082ZM15.1465 13.5156C15.6641 13.5156 15.9375 13.1836 15.9375 12.6367L15.9375 5.78125L18.3691 5.78125C18.7402 5.78125 19.0137 5.53711 19.0137 5.14648C19.0137 4.73633 18.7402 4.50195 18.3691 4.50195L11.9727 4.50195C11.6016 4.50195 11.3281 4.73633 11.3281 5.14648C11.3281 5.53711 11.6016 5.78125 11.9727 5.78125L14.3848 5.78125L14.3848 12.6367C14.3848 13.1641 14.6484 13.5156 15.1465 13.5156Z" fill="#000000" fill-opacity="0.85"/>
 </g>
</svg>
