<?xml version="1.0" encoding="UTF-8"?>
<!--Generator: Apple Native CoreSVG 175.5-->
<!DOCTYPE svg
PUBLIC "-//W3C//DTD SVG 1.1//EN"
       "http://www.w3.org/Graphics/SVG/1.1/DTD/svg11.dtd">
<svg version="1.1" xmlns="http://www.w3.org/2000/svg" xmlns:xlink="http://www.w3.org/1999/xlink" width="26.7194" height="20.127">
 <g>
  <rect height="20.127" opacity="0" width="26.7194" x="0" y="0"/>
  <path d="M3.58431 19.8145L7.59799 19.0332C9.71713 18.623 10.6351 17.4902 10.6351 15.2441L10.6351 3.33984C10.6351 1.32812 9.24838 0 7.15853 0C5.39095 0 3.84799 1.25977 3.37924 3.14453L0.146814 16.1523C-0.487952 18.6914 0.986657 20.3125 3.58431 19.8145ZM23.1351 19.8145C25.7328 20.3125 27.2074 18.6914 26.5726 16.1523L23.3402 3.14453C22.8617 1.25977 21.3285 0 19.5609 0C17.471 0 16.0745 1.32812 16.0745 3.33984L16.0745 15.2441C16.0745 17.4902 17.0023 18.623 19.1117 19.0332Z" fill="#000000" fill-opacity="0.85"/>
  <path d="M4.62924 15.1855C4.21908 15.2734 3.77963 14.9902 3.69174 14.5801C3.61361 14.1602 3.89681 13.7402 4.2972 13.6621L7.37338 12.998L4.85384 10.7422C4.54134 10.4688 4.50228 9.95117 4.79525 9.62891C5.06869 9.31641 5.59603 9.30664 5.89877 9.58008L9.25814 12.6074L10.6351 12.3145L10.6351 13.916ZM16.0745 13.916L16.0745 12.3145L17.4515 12.6074L20.8011 9.58008C21.1038 9.30664 21.6312 9.31641 21.9144 9.62891C22.2074 9.95117 22.1683 10.4688 21.8558 10.7422L19.3265 12.998L22.4027 13.6621C22.8128 13.7402 23.096 14.1602 23.0081 14.5801C22.93 14.9902 22.4906 15.2734 22.0804 15.1855Z" fill="#ffffff"/>
  <path d="M16.0745 12.3145L16.0745 13.916L13.3597 13.3301L10.6351 13.916L10.6351 12.3145L12.5687 11.8945L12.5687 1.07422C12.5687 0.644531 12.93 0.283203 13.3597 0.283203C13.7894 0.283203 14.141 0.644531 14.141 1.07422L14.141 11.8945Z" fill="#000000" fill-opacity="0.85"/>
 </g>
</svg>
