<?xml version="1.0" encoding="UTF-8"?>
<!--Generator: Apple Native CoreSVG 175.5-->
<!DOCTYPE svg
PUBLIC "-//W3C//DTD SVG 1.1//EN"
       "http://www.w3.org/Graphics/SVG/1.1/DTD/svg11.dtd">
<svg version="1.1" xmlns="http://www.w3.org/2000/svg" xmlns:xlink="http://www.w3.org/1999/xlink" width="20.0684" height="21.2402">
 <g>
  <rect height="21.2402" opacity="0" width="20.0684" x="0" y="0"/>
  <path d="M3.90625 10.5957C3.49609 10.5957 3.20312 10.2734 3.20312 9.89258C3.20312 9.51172 3.49609 9.18945 3.90625 9.18945L10.293 9.18945C10.6738 9.18945 10.9766 9.51172 10.9766 9.89258C10.9766 10.2734 10.6738 10.5957 10.293 10.5957ZM3.90625 13.2324C3.49609 13.2324 3.20312 12.9297 3.20312 12.5488C3.20312 12.1484 3.49609 11.8457 3.90625 11.8457L8.4668 11.8457C8.84766 11.8457 9.16016 12.1484 9.16016 12.5488C9.16016 12.9297 8.84766 13.2324 8.4668 13.2324ZM14.873 13.4961C13.5547 13.4961 12.4902 12.4414 12.4902 11.123C12.4902 9.80469 13.5547 8.75 14.873 8.75C16.1719 8.75 17.2363 9.80469 17.2363 11.123C17.2363 12.4414 16.1719 13.4961 14.873 13.4961ZM2.96875 21.2305L17.0996 21.2305C19.0625 21.2305 20.0684 20.2344 20.0684 18.291L20.0684 8.4668C20.0684 6.52344 19.0625 5.53711 17.0996 5.53711L2.96875 5.53711C0.986328 5.53711 0 6.52344 0 8.4668L0 18.291C0 20.2344 0.986328 21.2305 2.96875 21.2305ZM1.86523 3.96484L18.2129 3.96484C18.0664 3.07617 17.6465 2.58789 16.6699 2.58789L3.4082 2.58789C2.43164 2.58789 2.01172 3.07617 1.86523 3.96484ZM3.87695 1.25977L16.2012 1.25977C16.1426 0.429688 15.6738 0 14.7656 0L5.30273 0C4.4043 0 3.93555 0.429688 3.87695 1.25977Z" fill="#000000" fill-opacity="0.85"/>
 </g>
</svg>
