<?xml version="1.0" encoding="UTF-8"?>
<!--Generator: Apple Native CoreSVG 175.5-->
<!DOCTYPE svg
PUBLIC "-//W3C//DTD SVG 1.1//EN"
       "http://www.w3.org/Graphics/SVG/1.1/DTD/svg11.dtd">
<svg version="1.1" xmlns="http://www.w3.org/2000/svg" xmlns:xlink="http://www.w3.org/1999/xlink" width="19.9219" height="19.9316">
 <g>
  <rect height="19.9316" opacity="0" width="19.9219" x="0" y="0"/>
  <path d="M9.96094 19.9219C15.4102 19.9219 19.9219 15.4004 19.9219 9.96094C19.9219 4.51172 15.4004 0 9.95117 0C4.51172 0 0 4.51172 0 9.96094C0 15.4004 4.52148 19.9219 9.96094 19.9219ZM9.96094 18.2617C5.35156 18.2617 1.66992 14.5703 1.66992 9.96094C1.66992 5.35156 5.3418 1.66016 9.95117 1.66016C14.5605 1.66016 18.2617 5.35156 18.2617 9.96094C18.2617 14.5703 14.5703 18.2617 9.96094 18.2617Z" fill="#000000" fill-opacity="0.85"/>
  <path d="M10.625 8.4668C11.5332 8.18359 12.1875 7.33398 12.1875 6.32812C12.1875 5.08789 11.1816 4.08203 9.94141 4.08203C8.93555 4.08203 8.08594 4.74609 7.8125 5.6543ZM8.66211 5.73242C8.66211 5.35156 8.99414 5.01953 9.375 5.01953C9.76562 5.01953 10.0879 5.35156 10.0781 5.73242C10.0781 6.11328 9.76562 6.44531 9.375 6.44531C8.99414 6.44531 8.66211 6.11328 8.66211 5.73242ZM9.26758 10.957L9.26758 13.3301C9.26758 14.7559 9.50195 16.0254 9.94141 16.0254C10.3906 16.0254 10.6152 14.7754 10.6152 13.3301L10.6152 12.2949ZM14.5117 15.1367C14.6777 15.3027 14.9609 15.3027 15.1367 15.1367C15.3125 14.9609 15.3125 14.6875 15.1367 14.5117L5.40039 4.77539C5.22461 4.59961 4.95117 4.59961 4.76562 4.77539C4.59961 4.95117 4.59961 5.23438 4.76562 5.40039Z" fill="#000000" fill-opacity="0.85"/>
 </g>
</svg>
