<?xml version="1.0" encoding="UTF-8"?>
<!--Generator: Apple Native CoreSVG 175.5-->
<!DOCTYPE svg
PUBLIC "-//W3C//DTD SVG 1.1//EN"
       "http://www.w3.org/Graphics/SVG/1.1/DTD/svg11.dtd">
<svg version="1.1" xmlns="http://www.w3.org/2000/svg" xmlns:xlink="http://www.w3.org/1999/xlink" width="19.9219" height="19.9316">
 <g>
  <rect height="19.9316" opacity="0" width="19.9219" x="0" y="0"/>
  <path d="M9.96094 19.9316C15.4102 19.9316 19.9219 15.4199 19.9219 9.9707C19.9219 4.53125 15.4004 0.00976562 9.95117 0.00976562C4.51172 0.00976562 0 4.53125 0 9.9707C0 15.4199 4.52148 19.9316 9.96094 19.9316Z" fill="#000000" fill-opacity="0.85"/>
  <path d="M10.625 8.47656L7.8125 5.67383C8.08594 4.75586 8.93555 4.0918 9.94141 4.0918C11.1816 4.0918 12.1875 5.09766 12.1875 6.33789C12.1875 7.34375 11.5332 8.19336 10.625 8.47656ZM8.66211 5.75195C8.66211 6.12305 8.99414 6.45508 9.375 6.45508C9.76562 6.45508 10.0781 6.12305 10.0781 5.75195C10.0879 5.36133 9.76562 5.0293 9.375 5.0293C8.99414 5.0293 8.66211 5.36133 8.66211 5.75195ZM9.26758 10.9668L10.6152 12.3145L10.6152 13.3398C10.6152 14.7949 10.3906 16.0449 9.94141 16.0449C9.50195 16.0449 9.26758 14.7656 9.26758 13.3398ZM14.5117 15.1465L4.76562 5.41992C4.59961 5.25391 4.59961 4.96094 4.76562 4.79492C4.95117 4.61914 5.22461 4.61914 5.40039 4.79492L15.1367 14.5215C15.3125 14.6973 15.3125 14.9707 15.1367 15.1465C14.9609 15.3223 14.6777 15.3125 14.5117 15.1465Z" fill="#ffffff"/>
 </g>
</svg>
