<?xml version="1.0" encoding="UTF-8"?>
<!--Generator: Apple Native CoreSVG 175.5-->
<!DOCTYPE svg
PUBLIC "-//W3C//DTD SVG 1.1//EN"
       "http://www.w3.org/Graphics/SVG/1.1/DTD/svg11.dtd">
<svg version="1.1" xmlns="http://www.w3.org/2000/svg" xmlns:xlink="http://www.w3.org/1999/xlink" width="18.5449" height="21.4551">
 <g>
  <rect height="21.4551" opacity="0" width="18.5449" x="0" y="0"/>
  <path d="M9.27734 21.4453C15.166 21.4453 18.5449 19.4141 18.5449 17.2656C18.5449 14.6875 14.4531 13.1152 11.7676 13.0859L11.7676 14.5117C13.6523 14.541 16.5723 15.5664 16.5723 17.0312C16.5723 18.7109 13.4766 19.9023 9.27734 19.9023C5.05859 19.9023 1.98242 18.7305 1.98242 17.0312C1.98242 15.5664 4.89258 14.541 6.77734 14.5117L6.77734 13.0859C4.0918 13.1152 0 14.6875 0 17.2656C0 19.4141 3.38867 21.4453 9.27734 21.4453Z" fill="#000000" fill-opacity="0.85"/>
  <path d="M5.60547 3.68164C5.60547 5.40039 6.76758 6.83594 8.35938 7.23633L8.35938 13.418C8.35938 16.2988 8.87695 17.8711 9.26758 17.8711C9.66797 17.8711 10.1758 16.3086 10.1758 13.418L10.1758 7.23633C11.7676 6.8457 12.9395 5.40039 12.9395 3.68164C12.9395 1.66016 11.3086 0 9.26758 0C7.23633 0 5.60547 1.66016 5.60547 3.68164Z" fill="#000000" fill-opacity="0.85"/>
  <path d="M8.22266 3.88672C7.55859 3.88672 6.97266 3.30078 6.97266 2.61719C6.97266 1.94336 7.55859 1.36719 8.22266 1.36719C8.91602 1.36719 9.48242 1.94336 9.48242 2.61719C9.48242 3.30078 8.91602 3.88672 8.22266 3.88672Z" fill="#ffffff"/>
 </g>
</svg>
