<?xml version="1.0" encoding="UTF-8"?>
<!--Generator: Apple Native CoreSVG 175.5-->
<!DOCTYPE svg
PUBLIC "-//W3C//DTD SVG 1.1//EN"
       "http://www.w3.org/Graphics/SVG/1.1/DTD/svg11.dtd">
<svg version="1.1" xmlns="http://www.w3.org/2000/svg" xmlns:xlink="http://www.w3.org/1999/xlink" width="19.9219" height="19.9316">
 <g>
  <rect height="19.9316" opacity="0" width="19.9219" x="0" y="0"/>
  <path d="M9.96094 19.9219C15.4102 19.9219 19.9219 15.4004 19.9219 9.96094C19.9219 4.51172 15.4004 0 9.95117 0C4.51172 0 0 4.51172 0 9.96094C0 15.4004 4.52148 19.9219 9.96094 19.9219ZM9.96094 18.2617C5.35156 18.2617 1.66992 14.5703 1.66992 9.96094C1.66992 5.35156 5.3418 1.66016 9.95117 1.66016C14.5605 1.66016 18.2617 5.35156 18.2617 9.96094C18.2617 14.5703 14.5703 18.2617 9.96094 18.2617Z" fill="#000000" fill-opacity="0.85"/>
  <path d="M9.95117 13.8281C12.9785 13.8281 15.3516 11.8555 15.3516 9.41406C15.3516 6.98242 12.9785 5.00977 9.95117 5.00977C6.92383 5.00977 4.55078 6.98242 4.55078 9.41406C4.55078 10.9473 5.51758 12.2754 6.95312 13.0957C7.07031 13.1641 7.07031 13.2715 7.01172 13.3789C6.85547 13.7109 6.57227 14.0039 6.36719 14.2383C6.09375 14.5508 6.17188 14.8926 6.60156 14.8926C7.13867 14.8926 8.11523 14.4922 9.08203 13.8965C9.17969 13.8379 9.23828 13.7988 9.3457 13.8086C9.53125 13.8184 9.73633 13.8281 9.95117 13.8281Z" fill="#000000" fill-opacity="0.85"/>
 </g>
</svg>
