<?xml version="1.0" encoding="UTF-8"?>
<!--Generator: Apple Native CoreSVG 175.5-->
<!DOCTYPE svg
PUBLIC "-//W3C//DTD SVG 1.1//EN"
       "http://www.w3.org/Graphics/SVG/1.1/DTD/svg11.dtd">
<svg version="1.1" xmlns="http://www.w3.org/2000/svg" xmlns:xlink="http://www.w3.org/1999/xlink" width="16.6101" height="22.0996">
 <g>
  <rect height="22.0996" opacity="0" width="16.6101" x="0" y="0"/>
  <path d="M1.16943 10.2246C1.16943 14.0527 3.69873 16.7383 7.41943 17.0508L7.41943 19.3262L3.79639 19.3262C3.38623 19.3262 3.0542 19.6582 3.0542 20.0684C3.0542 20.4785 3.38623 20.8008 3.79639 20.8008L12.5171 20.8008C12.9272 20.8008 13.2593 20.4785 13.2593 20.0684C13.2593 19.6582 12.9272 19.3262 12.5171 19.3262L8.89404 19.3262L8.89404 17.0508C9.99756 16.9629 10.9839 16.6699 11.8335 16.1914L10.7886 15.1367C10.0366 15.498 9.15771 15.7031 8.16162 15.7031C4.81201 15.7031 2.64404 13.4961 2.64404 10.166L2.64404 8.24219C2.64404 7.83203 2.32178 7.50977 1.90186 7.50977C1.4917 7.50977 1.16943 7.83203 1.16943 8.24219ZM13.3276 12.2363L14.4702 13.3789C14.9097 12.4609 15.144 11.3965 15.144 10.2246L15.144 8.24219C15.144 7.83203 14.8218 7.50977 14.4116 7.50977C14.0015 7.50977 13.6694 7.83203 13.6694 8.24219L13.6694 10.166C13.6694 10.918 13.5522 11.6113 13.3276 12.2363ZM8.16162 13.6035C8.49365 13.6035 8.81592 13.5547 9.09912 13.4473L4.8999 9.24805L4.8999 10.0684C4.8999 12.1484 6.2085 13.6035 8.16162 13.6035ZM8.16162 0C10.105 0 11.4136 1.44531 11.4136 3.53516L11.4136 10.0684C11.4136 10.1465 11.4038 10.2344 11.3843 10.3027L4.8999 3.81836L4.8999 3.42773C4.94873 1.39648 6.23779 0 8.16162 0Z" fill="#000000" fill-opacity="0.85"/>
  <path d="M15.3296 18.0176C15.6226 18.3105 16.1011 18.3105 16.394 18.0176C16.6772 17.7148 16.687 17.2461 16.394 16.9531L1.28662 1.85547C0.993652 1.57227 0.505371 1.5625 0.212402 1.85547C-0.0708008 2.14844-0.0708008 2.63672 0.212402 2.91992Z" fill="#000000" fill-opacity="0.85"/>
 </g>
</svg>
