<?xml version="1.0" encoding="UTF-8"?>
<!--Generator: Apple Native CoreSVG 175.5-->
<!DOCTYPE svg
PUBLIC "-//W3C//DTD SVG 1.1//EN"
       "http://www.w3.org/Graphics/SVG/1.1/DTD/svg11.dtd">
<svg version="1.1" xmlns="http://www.w3.org/2000/svg" xmlns:xlink="http://www.w3.org/1999/xlink" width="19.9219" height="19.9316">
 <g>
  <rect height="19.9316" opacity="0" width="19.9219" x="0" y="0"/>
  <path d="M9.96094 19.9219C15.4102 19.9219 19.9219 15.4004 19.9219 9.96094C19.9219 4.51172 15.4004 0 9.95117 0C4.51172 0 0 4.51172 0 9.96094C0 15.4004 4.52148 19.9219 9.96094 19.9219Z" fill="#000000" fill-opacity="0.85"/>
  <path d="M14.0918 14.4336L5.37109 5.71289C5.18555 5.53711 5.18555 5.23438 5.37109 5.05859C5.54688 4.88281 5.83008 4.88281 6.02539 5.05859L14.7363 13.7793C14.9121 13.9648 14.9121 14.248 14.7363 14.4336C14.5605 14.6094 14.2773 14.6094 14.0918 14.4336ZM11.2012 12.6465L11.9922 13.4375C11.5625 13.6914 11.0547 13.8574 10.5078 13.916L10.5078 14.9219L12.5195 14.9219C12.8125 14.9219 13.0664 15.1855 13.0664 15.4785C13.0664 15.7617 12.8027 16.0059 12.5195 16.0059L7.39258 16.0059C7.09961 16.0059 6.8457 15.7715 6.8457 15.4785C6.8457 15.1855 7.09961 14.9219 7.39258 14.9219L9.41406 14.9219L9.41406 13.916C7.41211 13.6914 6.06445 12.1582 6.06445 10.1074L6.06445 8.81836C6.06445 8.53516 6.29883 8.28125 6.5918 8.28125C6.88477 8.28125 7.12891 8.53516 7.12891 8.81836L7.12891 10.1074C7.12891 11.7578 8.29102 12.9199 9.95117 12.9199C10.4297 12.9199 10.8496 12.8223 11.2012 12.6465ZM8.28125 9.7168L10.3906 11.8262C10.2539 11.875 10.1172 11.9043 9.95117 11.9043C8.96484 11.9043 8.28125 11.1328 8.28125 10.1172ZM11.6211 9.57031L8.28125 6.21094L8.28125 5.80078C8.28125 4.77539 8.96484 4.02344 9.95117 4.02344C10.9375 4.02344 11.6211 4.77539 11.6211 5.80078ZM13.5938 11.5332L12.7051 10.6445C12.7441 10.4883 12.7734 10.3027 12.7734 10.1074L12.7734 8.81836C12.7734 8.53516 13.0176 8.28125 13.3105 8.28125C13.5938 8.28125 13.8477 8.53516 13.8477 8.81836L13.8477 10.1074C13.8477 10.6348 13.7598 11.1035 13.5938 11.5332Z" fill="#ffffff"/>
 </g>
</svg>
