<?xml version="1.0" encoding="UTF-8"?>
<!--Generator: Apple Native CoreSVG 175.5-->
<!DOCTYPE svg
PUBLIC "-//W3C//DTD SVG 1.1//EN"
       "http://www.w3.org/Graphics/SVG/1.1/DTD/svg11.dtd">
<svg version="1.1" xmlns="http://www.w3.org/2000/svg" xmlns:xlink="http://www.w3.org/1999/xlink" width="20.6934" height="22.0996">
 <g>
  <rect height="22.0996" opacity="0" width="20.6934" x="0" y="0"/>
  <path d="M6.71875 10.2246C6.71875 14.0527 9.24805 16.7383 12.9688 17.0508L12.9688 19.3262L9.3457 19.3262C8.93555 19.3262 8.60352 19.6582 8.60352 20.0684C8.60352 20.4785 8.93555 20.8008 9.3457 20.8008L18.0664 20.8008C18.4766 20.8008 18.8086 20.4785 18.8086 20.0684C18.8086 19.6582 18.4766 19.3262 18.0664 19.3262L14.4434 19.3262L14.4434 17.0508C18.1641 16.7383 20.6934 14.0527 20.6934 10.2246L20.6934 8.24219C20.6934 7.83203 20.3711 7.50977 19.9609 7.50977C19.5508 7.50977 19.2188 7.83203 19.2188 8.24219L19.2188 10.166C19.2188 13.4961 17.0508 15.7031 13.7012 15.7031C10.3613 15.7031 8.19336 13.4961 8.19336 10.166L8.19336 8.24219C8.19336 7.83203 7.86133 7.50977 7.45117 7.50977C7.04102 7.50977 6.71875 7.83203 6.71875 8.24219ZM13.7012 13.6035C15.6543 13.6035 16.9629 12.1484 16.9629 10.0684L16.9629 3.53516C16.9629 1.44531 15.6543 0 13.7012 0C11.7578 0 10.4492 1.44531 10.4492 3.53516L10.4492 10.0684C10.4492 12.1484 11.7578 13.6035 13.7012 13.6035Z" fill="#000000" fill-opacity="0.85"/>
  <path d="M1.79688 20.3516C2.77344 20.3516 3.56445 19.5605 3.56445 18.584C3.56445 17.5879 2.77344 16.8066 1.79688 16.8066C0.791016 16.8066 0 17.5879 0 18.584C0 19.5605 0.800781 20.3516 1.79688 20.3516Z" fill="#000000" fill-opacity="0.85"/>
  <path d="M1.79688 15.2734C2.77344 15.2734 3.56445 14.4727 3.56445 13.4766C3.56445 12.5 2.77344 11.709 1.79688 11.709C0.800781 11.709 0 12.5 0 13.4766C0 14.4824 0.791016 15.2734 1.79688 15.2734Z" fill="#000000" fill-opacity="0.85"/>
  <path d="M1.79688 10.166C2.77344 10.166 3.56445 9.38477 3.56445 8.38867C3.56445 7.39258 2.77344 6.60156 1.79688 6.60156C0.791016 6.60156 0 7.39258 0 8.38867C0 9.38477 0.791016 10.166 1.79688 10.166Z" fill="#000000" fill-opacity="0.85"/>
  <path d="M1.79688 5.06836C2.77344 5.06836 3.56445 4.28711 3.56445 3.29102C3.56445 2.31445 2.77344 1.52344 1.79688 1.52344C0.800781 1.52344 0 2.31445 0 3.29102C0 4.28711 0.791016 5.06836 1.79688 5.06836Z" fill="#000000" fill-opacity="0.85"/>
 </g>
</svg>
