<?xml version="1.0" encoding="UTF-8"?>
<!--Generator: Apple Native CoreSVG 175.5-->
<!DOCTYPE svg
PUBLIC "-//W3C//DTD SVG 1.1//EN"
       "http://www.w3.org/Graphics/SVG/1.1/DTD/svg11.dtd">
<svg version="1.1" xmlns="http://www.w3.org/2000/svg" xmlns:xlink="http://www.w3.org/1999/xlink" width="20.8008" height="20.8105">
 <g>
  <rect height="20.8105" opacity="0" width="20.8008" x="0" y="0"/>
  <path d="M10.4004 2.36328C11.0547 2.36328 11.582 1.83594 11.582 1.18164C11.582 0.527344 11.0547 0 10.4004 0C9.74609 0 9.21875 0.527344 9.21875 1.18164C9.21875 1.83594 9.74609 2.36328 10.4004 2.36328ZM14.4238 3.4375C14.9805 3.76953 15.7031 3.58398 16.0352 3.00781C16.3574 2.44141 16.1719 1.71875 15.6055 1.39648C15.0391 1.06445 14.3164 1.25977 13.9844 1.82617C13.6621 2.39258 13.8477 3.11523 14.4238 3.4375ZM17.3633 6.37695C17.6855 6.95312 18.4082 7.13867 18.9746 6.81641C19.541 6.49414 19.7363 5.76172 19.4043 5.19531C19.082 4.62891 18.3691 4.44336 17.793 4.76562C17.2168 5.09766 17.0312 5.81055 17.3633 6.37695ZM18.4375 10.4004C18.4375 11.0547 18.9648 11.582 19.6191 11.582C20.2637 11.582 20.8008 11.0547 20.8008 10.4004C20.8008 9.74609 20.2734 9.22852 19.6191 9.21875C18.9648 9.21875 18.4375 9.74609 18.4375 10.4004ZM17.3633 14.4141C17.0312 14.9805 17.2168 15.7031 17.793 16.0352C18.3594 16.3574 19.082 16.1621 19.4043 15.5957C19.7363 15.0293 19.541 14.3262 18.9746 13.9844C18.4082 13.6523 17.6855 13.8477 17.3633 14.4141ZM14.4238 17.3633C13.8477 17.6855 13.6621 18.3984 13.9844 18.9746C14.3066 19.541 15.0391 19.7363 15.6055 19.4043C16.1719 19.082 16.3477 18.3691 16.0352 17.7832C15.7031 17.2168 14.9902 17.0312 14.4238 17.3633ZM10.4004 18.4375C9.74609 18.4375 9.21875 18.9551 9.21875 19.6191C9.21875 20.2734 9.74609 20.8008 10.4004 20.8008C11.0547 20.8008 11.582 20.2734 11.582 19.6191C11.582 18.9551 11.0547 18.4375 10.4004 18.4375ZM6.38672 17.3633C5.82031 17.0312 5.09766 17.2168 4.76562 17.7832C4.44336 18.3594 4.62891 19.082 5.20508 19.4043C5.77148 19.7363 6.48438 19.541 6.81641 18.9746C7.13867 18.3984 6.95312 17.6855 6.38672 17.3633ZM3.4375 14.4141C3.11523 13.8477 2.40234 13.6523 1.82617 13.9844C1.25977 14.3066 1.06445 15.0293 1.39648 15.6055C1.71875 16.1621 2.43164 16.3574 3.01758 16.0352C3.58398 15.7031 3.76953 14.9902 3.4375 14.4141ZM2.36328 10.4004C2.36328 9.74609 1.83594 9.21875 1.18164 9.21875C0.537109 9.21875 0 9.74609 0 10.4004C0 11.0547 0.527344 11.5723 1.18164 11.582C1.83594 11.582 2.36328 11.0547 2.36328 10.4004ZM3.4375 6.38672C3.76953 5.81055 3.58398 5.09766 3.01758 4.76562C2.44141 4.44336 1.71875 4.62891 1.39648 5.19531C1.06445 5.76172 1.25977 6.47461 1.82617 6.81641C2.40234 7.13867 3.11523 6.95312 3.4375 6.38672ZM6.38672 3.4375C6.95312 3.11523 7.13867 2.39258 6.81641 1.82617C6.49414 1.25977 5.77148 1.06445 5.20508 1.39648C4.62891 1.71875 4.45312 2.43164 4.76562 3.00781C5.09766 3.58398 5.81055 3.76953 6.38672 3.4375ZM10.3809 16.582C13.8281 16.582 16.5723 13.8281 16.5625 10.3906C16.5625 6.96289 13.8086 4.20898 10.3711 4.20898C6.93359 4.20898 4.19922 6.95312 4.19922 10.3906C4.19922 13.8379 6.94336 16.582 10.3809 16.582Z" fill="#000000" fill-opacity="0.85"/>
 </g>
</svg>
