<?xml version="1.0" encoding="UTF-8"?>
<!--Generator: Apple Native CoreSVG 175.5-->
<!DOCTYPE svg
PUBLIC "-//W3C//DTD SVG 1.1//EN"
       "http://www.w3.org/Graphics/SVG/1.1/DTD/svg11.dtd">
<svg version="1.1" xmlns="http://www.w3.org/2000/svg" xmlns:xlink="http://www.w3.org/1999/xlink" width="25.9961" height="16.0254">
 <g>
  <rect height="16.0254" opacity="0" width="25.9961" x="0" y="0"/>
  <path d="M0 7.44141C0 11.1426 2.22656 13.1445 5.99609 13.1445L19.3945 13.1445C21.7676 13.1445 23.4375 13.5059 24.6582 14.3066L24.6582 7.08008L21.2598 7.08008C20.6348 7.08008 20.3711 6.82617 20.4297 6.25977L20.7031 3.58398C20.9375 1.34766 19.5801 0 17.0508 0C14.4141 0.00976562 9.21875 0.136719 6.16211 0.46875C2.28516 0.917969 0 3.50586 0 7.44141ZM1.60156 7.44141C1.60156 4.41406 3.35938 2.40234 6.33789 2.07031C9.35547 1.72852 14.4238 1.5918 17.0508 1.5918C18.6426 1.5918 19.248 2.13867 19.0918 3.4082L18.3984 9.63867C18.2422 11.0742 17.627 11.5723 16.0547 11.5723L5.99609 11.5723C3.23242 11.5723 1.60156 10.1465 1.60156 7.44141ZM25.2051 16.0059C25.6348 16.0059 25.9961 15.6445 25.9961 15.2148L25.9961 4.6875C25.9961 4.25781 25.6348 3.90625 25.2051 3.90625C24.7754 3.90625 24.4238 4.25781 24.4238 4.6875L24.4238 15.2148C24.4238 15.6445 24.7754 16.0059 25.2051 16.0059Z" fill="#000000" fill-opacity="0.85"/>
  <path d="M1.60156 7.44141C1.60156 4.41406 3.35938 2.40234 6.33789 2.07031C9.35547 1.72852 14.4238 1.5918 17.0508 1.5918C18.6426 1.5918 19.248 2.13867 19.0918 3.4082L18.3984 9.63867C18.2422 11.0742 17.627 11.5723 16.0547 11.5723L5.99609 11.5723C3.23242 11.5723 1.60156 10.1465 1.60156 7.44141Z" fill="#ffffff"/>
 </g>
</svg>
