<?xml version="1.0" encoding="UTF-8"?>
<!--Generator: Apple Native CoreSVG 175.5-->
<!DOCTYPE svg
PUBLIC "-//W3C//DTD SVG 1.1//EN"
       "http://www.w3.org/Graphics/SVG/1.1/DTD/svg11.dtd">
<svg version="1.1" xmlns="http://www.w3.org/2000/svg" xmlns:xlink="http://www.w3.org/1999/xlink" width="22.5391" height="22.7051">
 <g>
  <rect height="22.7051" opacity="0" width="22.5391" x="0" y="0"/>
  <path d="M6.63086 14.082L9.70703 14.082C7.09961 13.3301 5.46875 11.0547 5.46875 8.25195C5.46875 6.23047 6.35742 4.44336 7.79297 3.23242C7.63672 3.78906 7.55859 4.49219 7.55859 5.22461C7.55859 9.47266 10.4883 12.3242 14.834 12.3242C15.3906 12.3242 15.9766 12.2559 16.4258 12.168C15.7031 13.0469 14.6582 13.7207 13.4082 14.082L16.4355 14.0918C17.2852 13.4082 17.959 12.5293 18.3984 11.5039C18.5645 11.123 18.5254 10.791 18.3301 10.5859C18.1543 10.4102 17.8613 10.3809 17.5195 10.5078C16.8652 10.7617 16.0938 10.8887 15.1465 10.8887C11.377 10.8887 8.97461 8.55469 8.97461 4.87305C8.97461 3.89648 9.15039 2.85156 9.42383 2.30469C9.59961 1.96289 9.59961 1.61133 9.4043 1.40625C9.19922 1.19141 8.86719 1.13281 8.4668 1.29883C5.80078 2.38281 3.99414 5.16602 3.99414 8.35938C3.99414 10.6836 4.94141 12.7539 6.63086 14.082Z" fill="#000000" fill-opacity="0.85"/>
  <path d="M2.08984 15.1953L21.9238 15.1953C22.2656 15.1953 22.5391 14.9316 22.5391 14.5801C22.5391 14.2285 22.2656 13.9648 21.9238 13.9648L2.08984 13.9648C1.73828 13.9648 1.47461 14.2285 1.47461 14.5801C1.47461 14.9316 1.73828 15.1953 2.08984 15.1953ZM0.615234 18.9551L20.4492 18.9551C20.791 18.9551 21.0645 18.6816 21.0645 18.3301C21.0645 17.9785 20.791 17.7148 20.4492 17.7148L0.615234 17.7148C0.273438 17.7148 0 17.9785 0 18.3301C0 18.6816 0.273438 18.9551 0.615234 18.9551ZM2.08984 22.7051L21.9238 22.7051C22.2656 22.7051 22.5391 22.4414 22.5391 22.0898C22.5391 21.7285 22.2656 21.4648 21.9238 21.4648L2.08984 21.4648C1.73828 21.4648 1.47461 21.7285 1.47461 22.0898C1.47461 22.4414 1.73828 22.7051 2.08984 22.7051Z" fill="#000000" fill-opacity="0.85"/>
 </g>
</svg>
