<?xml version="1.0" encoding="UTF-8"?>
<!--Generator: Apple Native CoreSVG 175.5-->
<!DOCTYPE svg
PUBLIC "-//W3C//DTD SVG 1.1//EN"
       "http://www.w3.org/Graphics/SVG/1.1/DTD/svg11.dtd">
<svg version="1.1" xmlns="http://www.w3.org/2000/svg" xmlns:xlink="http://www.w3.org/1999/xlink" width="19.9219" height="19.9316">
 <g>
  <rect height="19.9316" opacity="0" width="19.9219" x="0" y="0"/>
  <path d="M1.66992 9.96094C1.66992 5.68359 4.83398 2.20703 8.95508 1.72852C11.748 3.37891 13.3105 6.2793 13.3105 9.96094C13.3105 13.6426 11.7578 16.5332 8.99414 18.1934C4.85352 17.7246 1.66992 14.2383 1.66992 9.96094Z" fill="#000000" fill-opacity="0.2125"/>
  <path d="M0 9.96094C0 15.4004 4.52148 19.9219 9.96094 19.9219C15.4102 19.9219 19.9219 15.4004 19.9219 9.96094C19.9219 4.52148 15.4004 0 9.95117 0C4.51172 0 0 4.51172 0 9.96094ZM1.66992 9.96094C1.66992 5.68359 4.83398 2.20703 8.95508 1.72852C11.748 3.37891 13.3105 6.2793 13.3105 9.96094C13.3105 13.6426 11.7578 16.5332 8.99414 18.1934C4.85352 17.7246 1.66992 14.2383 1.66992 9.96094Z" fill="#000000" fill-opacity="0.85"/>
 </g>
</svg>
