<?xml version="1.0" encoding="UTF-8"?>
<!--Generator: Apple Native CoreSVG 175.5-->
<!DOCTYPE svg
PUBLIC "-//W3C//DTD SVG 1.1//EN"
       "http://www.w3.org/Graphics/SVG/1.1/DTD/svg11.dtd">
<svg version="1.1" xmlns="http://www.w3.org/2000/svg" xmlns:xlink="http://www.w3.org/1999/xlink" width="19.541" height="21.8652">
 <g>
  <rect height="21.8652" opacity="0" width="19.541" x="0" y="0"/>
  <path d="M8.53516 20.2832C12.1094 20.2832 15.0098 18.4863 16.3184 15.4199C16.4941 15.0098 16.4355 14.6777 16.25 14.4922C16.084 14.3164 15.7812 14.2871 15.4395 14.4141C14.6973 14.707 13.8086 14.8828 12.6855 14.8828C8.31055 14.8828 5.50781 12.1484 5.50781 7.87109C5.50781 6.68945 5.73242 5.50781 6.03516 4.89258C6.2207 4.51172 6.21094 4.16992 6.03516 3.97461C5.84961 3.75977 5.51758 3.69141 5.06836 3.86719C2.07031 5.08789 0 8.22266 0 11.8652C0 16.6211 3.50586 20.2832 8.53516 20.2832ZM8.55469 18.7891C4.39453 18.7891 1.49414 15.752 1.49414 11.748C1.49414 9.29688 2.63672 7.11914 4.45312 5.73242C4.20898 6.37695 4.07227 7.34375 4.07227 8.28125C4.07227 13.0957 7.39258 16.3184 12.3145 16.3184C13.1836 16.3184 13.9844 16.2012 14.4043 16.0645C13.1836 17.7539 11.0059 18.7891 8.55469 18.7891Z" fill="#000000" fill-opacity="0.85"/>
  <path d="M15.7812 11.3574C15.9668 11.3574 16.0938 11.2305 16.1133 11.0352C16.4355 8.42773 16.5625 8.35938 19.209 7.92969C19.4141 7.90039 19.541 7.79297 19.541 7.60742C19.541 7.42188 19.4141 7.30469 19.248 7.27539C16.582 6.76758 16.4355 6.77734 16.1133 4.16992C16.0938 3.97461 15.9668 3.84766 15.7812 3.84766C15.6055 3.84766 15.4785 3.97461 15.4492 4.16016C15.1172 6.80664 15.0195 6.89453 12.3145 7.27539C12.1484 7.29492 12.0215 7.42188 12.0215 7.60742C12.0215 7.7832 12.1484 7.90039 12.3145 7.92969C15.0195 8.44727 15.1074 8.44727 15.4492 11.0547C15.4785 11.2305 15.6055 11.3574 15.7812 11.3574ZM11.1133 4.74609C11.2305 4.74609 11.2891 4.67773 11.3086 4.57031C11.6113 2.93945 11.6016 2.90039 13.3008 2.57812C13.4082 2.55859 13.4863 2.49023 13.4863 2.37305C13.4863 2.25586 13.4082 2.1875 13.3008 2.16797C11.6016 1.82617 11.6602 1.78711 11.3086 0.175781C11.2891 0.0683594 11.2305 0 11.1133 0C10.9961 0 10.9277 0.0683594 10.9082 0.175781C10.5664 1.78711 10.625 1.82617 8.92578 2.16797C8.80859 2.1875 8.74023 2.25586 8.74023 2.37305C8.74023 2.49023 8.80859 2.55859 8.92578 2.57812C10.625 2.91992 10.6055 2.93945 10.9082 4.57031C10.9277 4.67773 10.9961 4.74609 11.1133 4.74609Z" fill="#000000" fill-opacity="0.85"/>
 </g>
</svg>
