<?xml version="1.0" encoding="UTF-8"?>
<!--Generator: Apple Native CoreSVG 175.5-->
<!DOCTYPE svg
PUBLIC "-//W3C//DTD SVG 1.1//EN"
       "http://www.w3.org/Graphics/SVG/1.1/DTD/svg11.dtd">
<svg version="1.1" xmlns="http://www.w3.org/2000/svg" xmlns:xlink="http://www.w3.org/1999/xlink" width="24.4141" height="20.1855">
 <g>
  <rect height="20.1855" opacity="0" width="24.4141" x="0" y="0"/>
  <path d="M2.50977 16.875L21.9043 16.875C23.5547 16.875 24.4141 16.0254 24.4141 14.3652L24.4141 3.17383C24.4141 1.52344 23.5547 0.673828 21.9043 0.673828L2.50977 0.673828C0.859375 0.673828 0 1.52344 0 3.17383L0 14.3652C0 16.0254 0.859375 16.875 2.50977 16.875ZM2.53906 15.3027C1.89453 15.3027 1.57227 14.9805 1.57227 14.3457L1.57227 3.20312C1.57227 2.55859 1.89453 2.24609 2.53906 2.24609L21.875 2.24609C22.5195 2.24609 22.8418 2.55859 22.8418 3.20312L22.8418 14.3457C22.8418 14.9805 22.5195 15.3027 21.875 15.3027ZM7.29492 20.1855L17.1191 20.1855C17.5488 20.1855 17.9102 19.834 17.9102 19.3945C17.9102 18.9551 17.5488 18.6035 17.1191 18.6035L7.29492 18.6035C6.86523 18.6035 6.50391 18.9551 6.50391 19.3945C6.50391 19.834 6.86523 20.1855 7.29492 20.1855Z" fill="#000000" fill-opacity="0.85"/>
  <path d="M15.1562 6.99219C15.625 6.875 15.7617 6.77734 15.7617 6.21094L15.7617 4.28711C15.7617 3.91602 15.6348 3.75 15.1172 3.87695L12.2559 4.58984C11.7773 4.70703 11.6699 4.80469 11.6699 5.38086L11.6699 9.78516C11.6699 10.2148 11.6309 10.3027 11.1426 10.4297L10.2441 10.6738C9.35547 10.8984 8.61328 11.4258 8.61328 12.3828C8.61328 13.2129 9.23828 13.8184 10.2148 13.8184C11.6113 13.8184 12.5586 12.8223 12.5586 11.4062L12.5586 8.04688C12.5586 7.68555 12.6465 7.58789 12.8613 7.54883Z" fill="#000000" fill-opacity="0.85"/>
 </g>
</svg>
