<?xml version="1.0" encoding="UTF-8"?>
<!--Generator: Apple Native CoreSVG 175.5-->
<!DOCTYPE svg
PUBLIC "-//W3C//DTD SVG 1.1//EN"
       "http://www.w3.org/Graphics/SVG/1.1/DTD/svg11.dtd">
<svg version="1.1" xmlns="http://www.w3.org/2000/svg" xmlns:xlink="http://www.w3.org/1999/xlink" width="18.0078" height="17.9395">
 <g>
  <rect height="17.9395" opacity="0" width="18.0078" x="0" y="0"/>
  <path d="M16.8652 1.17188C15.8691 0.175781 14.4629 0.0195312 12.793 0.0195312L5.18555 0.0195312C3.54492 0.0195312 2.13867 0.175781 1.14258 1.17188C0.146484 2.16797 0 3.56445 0 5.19531L0 12.7344C0 14.4043 0.146484 15.791 1.14258 16.7871C2.13867 17.7832 3.54492 17.9395 5.20508 17.9395L12.793 17.9395C14.4629 17.9395 15.8691 17.7832 16.8652 16.7871C17.8613 15.791 18.0078 14.4043 18.0078 12.7344L18.0078 5.22461C18.0078 3.55469 17.8613 2.1582 16.8652 1.17188ZM16.4355 4.95117L16.4355 12.998C16.4355 14.0137 16.3086 15.0488 15.7129 15.6445C15.127 16.2305 14.0723 16.3672 13.0664 16.3672L4.94141 16.3672C3.93555 16.3672 2.88086 16.2305 2.28516 15.6445C1.69922 15.0488 1.57227 14.0137 1.57227 12.998L1.57227 4.98047C1.57227 3.95508 1.69922 2.90039 2.28516 2.31445C2.88086 1.71875 3.94531 1.5918 4.9707 1.5918L13.0664 1.5918C14.0723 1.5918 15.127 1.72852 15.7129 2.31445C16.3086 2.91016 16.4355 3.94531 16.4355 4.95117Z" fill="#000000" fill-opacity="0.85"/>
  <path d="M9.00391 14.209C11.8652 14.209 14.2383 11.8262 14.2383 8.97461C14.2383 6.13281 11.8457 3.74023 9.00391 3.74023C6.15234 3.74023 3.7793 6.12305 3.7793 8.97461C3.7793 11.8164 6.17188 14.209 9.00391 14.209ZM9.00391 12.7832C6.94336 12.7832 5.20508 11.0449 5.20508 8.97461C5.20508 6.89453 6.93359 5.16602 9.00391 5.16602C11.0742 5.16602 12.8125 6.9043 12.8125 8.97461C12.8125 11.0547 11.084 12.7832 9.00391 12.7832ZM11.7188 12.7344L12.7637 11.6895L6.28906 5.21484L5.25391 6.25977Z" fill="#000000" fill-opacity="0.85"/>
 </g>
</svg>
