<?xml version="1.0" encoding="UTF-8"?>
<!--Generator: Apple Native CoreSVG 175.5-->
<!DOCTYPE svg
PUBLIC "-//W3C//DTD SVG 1.1//EN"
       "http://www.w3.org/Graphics/SVG/1.1/DTD/svg11.dtd">
<svg version="1.1" xmlns="http://www.w3.org/2000/svg" xmlns:xlink="http://www.w3.org/1999/xlink" width="23.5254" height="19.7559">
 <g>
  <rect height="19.7559" opacity="0" width="23.5254" x="0" y="0"/>
  <path d="M12.6367 19.5605C16.748 19.5605 19.4922 18.1055 19.4922 15.957C19.4922 14.0332 17.8516 13.6035 17.8516 12.4707C17.8516 10.9082 23.5254 10.5957 23.5254 6.58203C23.5254 2.61719 19.4336 0 13.3594 0C5.38086 0 0 3.98438 0 9.95117C0 15.6934 5.10742 19.5605 12.6367 19.5605ZM12.4219 15.8301C10.9961 15.8301 9.82422 14.668 9.82422 13.2324C9.82422 11.8066 10.9961 10.6348 12.4219 10.6348C13.8574 10.6348 15.0293 11.8066 15.0293 13.2324C15.0293 14.668 13.8574 15.8301 12.4219 15.8301Z" fill="#000000" fill-opacity="0.85"/>
  <path d="M4.61914 11.1426C3.73047 11.1426 2.98828 10.4004 2.98828 9.50195C2.98828 8.64258 3.75977 7.89062 4.61914 7.89062C5.51758 7.89062 6.24023 8.60352 6.24023 9.50195C6.24023 10.4004 5.51758 11.1426 4.61914 11.1426Z" fill="#ffffff"/>
  <path d="M8.36914 7.68555C7.2168 7.68555 6.29883 6.78711 6.29883 5.63477C6.29883 4.51172 7.2168 3.61328 8.36914 3.61328C9.48242 3.61328 10.4102 4.51172 10.4102 5.63477C10.4102 6.78711 9.49219 7.68555 8.36914 7.68555Z" fill="#ffffff"/>
  <path d="M13.5742 6.14258C12.6758 6.14258 11.9141 5.41016 11.9141 4.50195C11.9141 3.59375 12.6758 2.86133 13.5742 2.86133C14.4922 2.86133 15.2148 3.59375 15.2148 4.50195C15.2148 5.41016 14.4922 6.14258 13.5742 6.14258Z" fill="#ffffff"/>
  <path d="M18.1738 7.00195C17.4316 7.00195 16.8262 6.41602 16.8262 5.67383C16.8262 4.94141 17.4316 4.33594 18.1738 4.33594C18.9062 4.33594 19.4922 4.94141 19.4922 5.67383C19.4922 6.41602 18.9062 7.00195 18.1738 7.00195Z" fill="#ffffff"/>
 </g>
</svg>
