<?xml version="1.0" encoding="UTF-8"?>
<!--Generator: Apple Native CoreSVG 175.5-->
<!DOCTYPE svg
PUBLIC "-//W3C//DTD SVG 1.1//EN"
       "http://www.w3.org/Graphics/SVG/1.1/DTD/svg11.dtd">
<svg version="1.1" xmlns="http://www.w3.org/2000/svg" xmlns:xlink="http://www.w3.org/1999/xlink" width="27.8711" height="22.6953">
 <g>
  <rect height="22.6953" opacity="0" width="27.8711" x="0" y="0"/>
  <path d="M2.80273 2.9541C0.986328 5.35645 0 8.27637 0 11.3428C0 14.4385 1.00586 17.2803 2.70508 19.5947C3.00781 20.0146 3.52539 20.0537 3.91602 19.7412C4.26758 19.4385 4.31641 18.9697 4.0332 18.5791C2.54883 16.5576 1.66992 14.0479 1.66992 11.3428C1.66992 8.64746 2.5293 6.17676 3.99414 4.14551ZM13.9355 19.2041C9.58008 19.2041 6.08398 15.708 6.08398 11.3428C6.08398 9.8584 6.48438 8.47168 7.20703 7.2998L6.00586 6.09863C5.00977 7.6123 4.41406 9.41895 4.41406 11.3428C4.41406 16.5479 8.73047 20.8643 13.9355 20.8643C15.8594 20.8643 17.666 20.2686 19.1699 19.2627L17.9883 18.0811C16.8066 18.7939 15.4199 19.2041 13.9355 19.2041ZM13.9258 3.47168C18.291 3.47168 21.7969 6.96777 21.8066 11.3428C21.8066 12.8076 21.4062 14.1846 20.6934 15.3564L21.8848 16.5381C22.8711 15.0439 23.4668 13.2471 23.4668 11.3428C23.4668 6.1377 19.1406 1.82129 13.9258 1.82129C12.0215 1.82129 10.2344 2.40723 8.74023 3.39355L9.93164 4.58496C11.0938 3.88184 12.4609 3.47168 13.9258 3.47168ZM25.0977 19.7021C26.9043 17.2607 27.8711 14.4189 27.8711 11.3428C27.8711 8.24707 26.875 5.39551 25.166 3.08105C24.8633 2.6709 24.3457 2.62207 23.9551 2.93457C23.5938 3.2373 23.5645 3.71582 23.8379 4.08691C25.332 6.12793 26.2012 8.62793 26.2012 11.3428C26.2012 14.0088 25.3516 16.4893 23.8965 18.501ZM12.1973 6.80176L13.3887 7.99316L14.4531 7.99316C15.5957 7.99316 16.3086 8.68652 16.3086 9.80957C16.3086 10.1611 16.2012 10.4639 16.0254 10.6787L17.1191 11.7822C17.5781 11.2842 17.8516 10.6006 17.8516 9.80957C17.8516 8.0127 16.5625 6.80176 14.6777 6.80176ZM11.9531 15.8154C12.4707 15.8154 12.7441 15.4736 12.7441 14.9365L12.7441 12.8369L11.1816 11.2842L11.1816 14.9365C11.1816 15.4541 11.4551 15.8154 11.9531 15.8154Z" fill="#000000" fill-opacity="0.85"/>
  <path d="M24.0332 22.4756C24.3262 22.7686 24.8145 22.7686 25.0977 22.4756C25.3906 22.1826 25.3906 21.7041 25.0977 21.4111L3.95508 0.268555C3.66211-0.0244141 3.18359-0.0341797 2.88086 0.268555C2.59766 0.551758 2.59766 1.04004 2.88086 1.33301Z" fill="#000000" fill-opacity="0.85"/>
 </g>
</svg>
