<?xml version="1.0" encoding="UTF-8"?>
<!--Generator: Apple Native CoreSVG 175.5-->
<!DOCTYPE svg
PUBLIC "-//W3C//DTD SVG 1.1//EN"
       "http://www.w3.org/Graphics/SVG/1.1/DTD/svg11.dtd">
<svg version="1.1" xmlns="http://www.w3.org/2000/svg" xmlns:xlink="http://www.w3.org/1999/xlink" width="37.4121" height="16.262">
 <g>
  <rect height="16.262" opacity="0" width="37.4121" x="0" y="0"/>
  <path d="M6.78711 8.12611C6.79688 9.44447 6.96289 10.8605 7.19727 11.7394C7.61719 13.1652 8.4375 13.712 10.166 13.712L10.4883 13.712C14.4434 13.712 17.8125 11.1046 17.8125 8.12611C17.8125 5.1476 14.4434 2.54017 10.4883 2.54017L10.166 2.54017C8.44727 2.54017 7.62695 3.07728 7.19727 4.51283C6.94336 5.47963 6.77734 6.89564 6.78711 8.12611ZM8.26172 8.12611C8.26172 6.95424 8.4082 5.69447 8.63281 4.92299C8.82812 4.22963 9.18945 4.02455 10.166 4.02455L10.4883 4.02455C13.5938 4.02455 16.3379 5.99721 16.3379 8.12611C16.3379 10.255 13.5938 12.2277 10.4883 12.2277L10.166 12.2277C9.19922 12.2277 8.83789 12.0226 8.63281 11.3195C8.4082 10.548 8.26172 9.29799 8.26172 8.12611ZM30.625 8.12611C30.6445 6.89564 30.4785 5.47963 30.2148 4.51283C29.7852 3.07728 28.9746 2.54017 27.2461 2.54017L26.9238 2.54017C22.9688 2.54017 19.5996 5.1476 19.5996 8.12611C19.5996 11.1046 22.9688 13.712 26.9238 13.712L27.2461 13.712C28.9844 13.712 29.7949 13.1652 30.2148 11.7394C30.459 10.8605 30.625 9.44447 30.625 8.12611ZM29.1504 8.12611C29.1504 9.29799 29.0039 10.548 28.7793 11.3195C28.5742 12.0226 28.2227 12.2277 27.2461 12.2277L26.9238 12.2277C23.8184 12.2277 21.0742 10.255 21.0742 8.12611C21.0742 5.99721 23.8184 4.02455 26.9238 4.02455L27.2461 4.02455C28.2324 4.02455 28.584 4.22963 28.7793 4.92299C29.0039 5.69447 29.1504 6.95424 29.1504 8.12611ZM1.72852 0.0987684C1.38672-0.10631 0.898438 0.0206434 0.712891 0.36244C0.507812 0.704237 0.634766 1.17299 0.986328 1.37807L5.91797 4.22963C6.06445 3.70228 6.25 3.2433 6.50391 2.86244ZM0.732422 7.38392C0.341797 7.38392 0 7.72572 0 8.12611C0 8.5265 0.332031 8.85853 0.732422 8.85853L5.47852 8.85853C5.45898 8.50697 5.45898 7.79408 5.46875 7.38392ZM0.986328 14.8742C0.644531 15.0792 0.517578 15.5382 0.712891 15.8898C0.908203 16.2316 1.38672 16.3488 1.72852 16.1437L6.49414 13.3995C6.2207 12.9796 6.06445 12.5402 5.91797 12.0324ZM35.6836 0.0987684L30.9082 2.86244C31.1621 3.2433 31.3477 3.70228 31.4941 4.22963L36.4258 1.37807C36.7773 1.17299 36.9043 0.704237 36.6992 0.36244C36.5137 0.0206434 36.0352-0.10631 35.6836 0.0987684ZM36.6797 7.38392L31.9434 7.38392C31.9531 7.78432 31.9531 8.46791 31.9336 8.85853L36.6797 8.85853C37.0801 8.85853 37.4121 8.5265 37.4121 8.12611C37.4121 7.72572 37.0801 7.38392 36.6797 7.38392ZM36.4258 14.8742L31.4941 12.0324C31.3574 12.5109 31.1914 12.9699 30.918 13.3995L35.6836 16.1437C36.0254 16.3488 36.5039 16.2316 36.6992 15.8898C36.9043 15.5382 36.7773 15.0792 36.4258 14.8742Z" fill="#000000" fill-opacity="0.85"/>
 </g>
</svg>
