<?xml version="1.0" encoding="UTF-8"?>
<!--Generator: Apple Native CoreSVG 175.5-->
<!DOCTYPE svg
PUBLIC "-//W3C//DTD SVG 1.1//EN"
       "http://www.w3.org/Graphics/SVG/1.1/DTD/svg11.dtd">
<svg version="1.1" xmlns="http://www.w3.org/2000/svg" xmlns:xlink="http://www.w3.org/1999/xlink" width="24.7366" height="24.4824">
 <g>
  <rect height="24.4824" opacity="0" width="24.7366" x="0" y="0"/>
  <path d="M15.4984 18.3594C18.1644 17.2461 15.6546 12.9785 13.5062 10.8105C11.2601 8.58398 7.2464 6.01562 5.95734 8.82812L0.166323 21.6602C-0.478209 23.0957 0.859682 24.4727 2.30499 23.8672ZM1.39679 22.1875L6.26984 11.377C6.75812 12.6172 7.74445 14.0234 9.01398 15.3027C10.264 16.543 11.6312 17.5098 12.8519 18.0078L1.78742 22.6074C1.45539 22.7441 1.24054 22.5391 1.39679 22.1875ZM7.33429 9.12109C7.97882 8.4668 10.2054 9.42383 12.5394 11.7773C14.9027 14.1113 15.8402 16.3477 15.1956 16.9824C14.5413 17.6465 12.3148 16.6895 9.97101 14.3359C7.62726 12.002 6.67999 9.76562 7.33429 9.12109Z" fill="#000000" fill-opacity="0.85"/>
  <path d="M8.76984 2.13867C9.35578 2.13867 9.84406 1.66016 9.84406 1.06445C9.84406 0.478516 9.35578 0 8.76984 0C8.16437 0 7.69562 0.478516 7.69562 1.06445C7.69562 1.66016 8.16437 2.13867 8.76984 2.13867ZM10.0589 3.96484C9.99054 3.60352 9.75617 3.30078 9.37531 3.30078C9.01398 3.31055 8.64289 3.61328 8.72101 4.00391C9.16046 6.29883 9.16046 8.66211 8.72101 10.9961C8.63312 11.377 9.01398 11.6699 9.36554 11.6797C9.73664 11.6797 9.98078 11.3867 10.0491 11.0254C10.5081 8.64258 10.5081 6.31836 10.0589 3.96484ZM14.805 3.82812C15.8304 3.82812 16.6409 3.00781 16.6409 1.99219C16.6409 0.957031 15.8304 0.15625 14.805 0.15625C13.7796 0.15625 12.9691 0.957031 12.9691 1.99219C12.9691 3.00781 13.7796 3.82812 14.805 3.82812ZM12.9495 6.9043C13.428 6.9043 13.8089 6.51367 13.8089 6.03516C13.8089 5.56641 13.428 5.17578 12.9495 5.17578C12.4808 5.17578 12.0804 5.56641 12.0804 6.03516C12.0804 6.51367 12.4808 6.9043 12.9495 6.9043ZM22.7737 2.69531C23.2425 2.69531 23.6234 2.31445 23.6234 1.83594C23.6234 1.35742 23.2425 0.966797 22.7737 0.966797C22.2952 0.966797 21.9144 1.35742 21.9144 1.83594C21.9144 2.31445 22.2952 2.69531 22.7737 2.69531ZM19.9515 3.33008L18.1253 5.15625C17.8714 5.41992 17.8714 5.84961 18.1253 6.11328C18.3987 6.37695 18.8284 6.37695 19.0921 6.11328L20.9183 4.29688C21.1722 4.0332 21.1722 3.59375 20.9183 3.33008C20.6546 3.07617 20.2152 3.07617 19.9515 3.33008ZM16.3284 6.96289L11.348 11.9336C11.0941 12.1973 11.0941 12.6367 11.348 12.9004C11.6116 13.1543 12.0511 13.1543 12.3148 12.9004L17.2855 7.91992C17.5296 7.66602 17.5296 7.23633 17.2855 6.96289C17.012 6.71875 16.5823 6.71875 16.3284 6.96289ZM23.6624 11.4551C24.2581 11.4551 24.7366 10.9766 24.7366 10.3711C24.7366 9.78516 24.2581 9.30664 23.6624 9.30664C23.0569 9.30664 22.5882 9.78516 22.5882 10.3711C22.5882 10.9766 23.0569 11.4551 23.6624 11.4551ZM19.4632 11.8555C20.3323 11.8555 21.0257 11.1816 21.0257 10.3125C21.0257 9.45312 20.3323 8.75977 19.4632 8.75977C18.6038 8.75977 17.93 9.45312 17.93 10.3125C17.93 11.1816 18.6038 11.8555 19.4632 11.8555ZM23.2913 16.4551C23.887 16.4551 24.3655 15.9863 24.3655 15.3809C24.3655 14.7852 23.887 14.3066 23.2913 14.3066C22.6956 14.3066 22.2171 14.7852 22.2171 15.3809C22.2171 15.9863 22.6956 16.4551 23.2913 16.4551ZM20.3128 14.1895C17.9495 13.7402 15.6351 13.7402 13.2425 14.1895C12.8909 14.2676 12.5882 14.5117 12.598 14.873C12.598 15.2344 12.8909 15.6152 13.2816 15.5371C15.6155 15.0977 17.9691 15.0879 20.2737 15.5273C20.6448 15.6055 20.9573 15.2441 20.9671 14.873C20.9769 14.4922 20.6644 14.2578 20.3128 14.1895Z" fill="#000000" fill-opacity="0.85"/>
 </g>
</svg>
