<?xml version="1.0" encoding="UTF-8"?>
<!--Generator: Apple Native CoreSVG 175.5-->
<!DOCTYPE svg
PUBLIC "-//W3C//DTD SVG 1.1//EN"
       "http://www.w3.org/Graphics/SVG/1.1/DTD/svg11.dtd">
<svg version="1.1" xmlns="http://www.w3.org/2000/svg" xmlns:xlink="http://www.w3.org/1999/xlink" width="35.6152" height="16.0254">
 <g>
  <rect height="16.0254" opacity="0" width="35.6152" x="0" y="0"/>
  <path d="M7.45117 7.7832C9.35547 7.7832 11.0156 6.06445 11.0156 3.82812C11.0156 1.63086 9.3457 0 7.45117 0C5.53711 0 3.86719 1.66016 3.87695 3.84766C3.87695 6.06445 5.53711 7.7832 7.45117 7.7832ZM1.54297 16.0059L13.3398 16.0059C14.3164 16.0059 14.8828 15.5566 14.8828 14.7949C14.8828 12.5098 12.0508 9.32617 7.44141 9.32617C2.83203 9.32617 0 12.5098 0 14.7949C0 15.5566 0.556641 16.0059 1.54297 16.0059ZM28.1836 7.7832C30.0879 7.7832 31.748 6.06445 31.748 3.82812C31.748 1.63086 30.0781 0 28.1836 0C26.2695 0 24.5996 1.66016 24.6094 3.84766C24.6094 6.06445 26.2695 7.7832 28.1836 7.7832ZM22.2754 16.0059L34.0723 16.0059C35.0488 16.0059 35.6152 15.5566 35.6152 14.7949C35.6152 12.5098 32.7832 9.32617 28.1738 9.32617C23.5645 9.32617 20.7324 12.5098 20.7324 14.7949C20.7324 15.5566 21.2891 16.0059 22.2754 16.0059Z" fill="#000000" fill-opacity="0.85"/>
  <path d="M13.9746 8.55469C14.6973 8.55469 15.2734 7.97852 15.2734 7.25586C15.2734 6.54297 14.6973 5.9668 13.9746 5.9668C13.2617 5.9668 12.6855 6.54297 12.6855 7.25586C12.6855 7.97852 13.2617 8.55469 13.9746 8.55469ZM17.8125 8.55469C18.5254 8.55469 19.1016 7.97852 19.1016 7.25586C19.1016 6.54297 18.5254 5.9668 17.8125 5.9668C17.0898 5.9668 16.5234 6.54297 16.5234 7.25586C16.5234 7.97852 17.0898 8.55469 17.8125 8.55469ZM21.6309 8.55469C22.3535 8.55469 22.9297 7.97852 22.9297 7.25586C22.9297 6.54297 22.3535 5.9668 21.6309 5.9668C20.918 5.9668 20.3418 6.54297 20.3418 7.25586C20.3418 7.97852 20.918 8.55469 21.6309 8.55469Z" fill="#000000" fill-opacity="0.85"/>
 </g>
</svg>
