<?xml version="1.0" encoding="UTF-8"?>
<!--Generator: Apple Native CoreSVG 175.5-->
<!DOCTYPE svg
PUBLIC "-//W3C//DTD SVG 1.1//EN"
       "http://www.w3.org/Graphics/SVG/1.1/DTD/svg11.dtd">
<svg version="1.1" xmlns="http://www.w3.org/2000/svg" xmlns:xlink="http://www.w3.org/1999/xlink" width="27.1973" height="23.9062">
 <g>
  <rect height="23.9062" opacity="0" width="27.1973" x="0" y="0"/>
  <path d="M7.42188 12.2021C8.41797 12.2021 9.30664 11.7627 9.94141 11.04L8.91602 10.0049C8.53516 10.4736 8.01758 10.7471 7.42188 10.7471C6.2207 10.7471 5.21484 9.60449 5.21484 8.19824C5.21484 7.65137 5.39062 7.15332 5.67383 6.77246L4.61914 5.71777C4.08203 6.38184 3.75 7.25098 3.75977 8.19824C3.75977 10.4053 5.41016 12.2021 7.42188 12.2021ZM1.98242 21.1572L9.64844 21.1572C9.17969 20.8936 8.82812 20.3076 8.89648 19.7119L1.74805 19.7119C1.54297 19.7119 1.45508 19.6338 1.45508 19.4482C1.45508 17.0264 4.21875 14.7607 7.41211 14.7607C8.63281 14.7607 9.74609 15.0537 10.6934 15.6104C10.9961 15.2197 11.3574 14.8779 11.7969 14.5752C10.5371 13.7451 9.02344 13.3154 7.41211 13.3154C3.32031 13.3154 0 16.2842 0 19.5361C0 20.6201 0.664062 21.1572 1.98242 21.1572ZM18.6719 12.124C20.9961 12.124 22.8906 10.0537 22.8906 7.53418C22.8906 5.03418 21.0059 3.07129 18.6719 3.07129C16.3477 3.07129 14.4434 5.07324 14.4531 7.55371C14.4629 10.0635 16.3477 12.124 18.6719 12.124ZM18.6719 10.6494C17.2461 10.6494 16.0254 9.28223 16.0254 7.55371C16.0156 5.85449 17.2168 4.5459 18.6719 4.5459C20.127 4.5459 21.3184 5.83496 21.3184 7.53418C21.3184 9.2627 20.1074 10.6494 18.6719 10.6494ZM12.5293 21.1572L20.0684 21.1572L18.5938 19.6826L12.0605 19.6826C11.8066 19.6826 11.709 19.6143 11.709 19.4092C11.709 18.374 12.7344 16.7725 14.6582 15.7471L13.5938 14.6826C11.3867 15.9912 10.1367 18.0029 10.1367 19.5947C10.1367 20.6689 10.9082 21.1572 12.5293 21.1572ZM23.9453 19.6826L25.3418 21.0791L25.8789 21.04C26.7773 20.874 27.1973 20.3857 27.1973 19.5947C27.1973 17.0361 23.9648 13.335 18.6621 13.335C18.3203 13.335 17.9883 13.3643 17.666 13.4033L19.1602 14.8975C19.3066 14.8779 19.4238 14.8682 19.6094 14.8779C23.4863 15.249 25.625 17.915 25.625 19.4092C25.625 19.6143 25.5176 19.6826 25.2637 19.6826Z" fill="#000000" fill-opacity="0.85"/>
  <path d="M24.209 23.6865C24.502 23.9795 24.9902 23.9795 25.2734 23.6865C25.5664 23.3936 25.5762 22.9248 25.2734 22.6221L4.6582 2.00684C4.35547 1.7041 3.88672 1.71387 3.58398 2.00684C3.30078 2.29004 3.30078 2.78809 3.58398 3.07129Z" fill="#000000" fill-opacity="0.85"/>
 </g>
</svg>
