<?xml version="1.0" encoding="UTF-8"?>
<!--Generator: Apple Native CoreSVG 175.5-->
<!DOCTYPE svg
PUBLIC "-//W3C//DTD SVG 1.1//EN"
       "http://www.w3.org/Graphics/SVG/1.1/DTD/svg11.dtd">
<svg version="1.1" xmlns="http://www.w3.org/2000/svg" xmlns:xlink="http://www.w3.org/1999/xlink" width="23.8574" height="17.8809">
 <g>
  <rect height="17.8809" opacity="0" width="23.8574" x="0" y="0"/>
  <path d="M1.66992 17.8809L14.7656 17.8809C15.8105 17.8809 16.4355 17.3926 16.4355 16.582C16.4355 14.0625 13.2812 10.5859 8.21289 10.5859C3.1543 10.5859 0 14.0625 0 16.582C0 17.3926 0.625 17.8809 1.66992 17.8809ZM8.22266 8.83789C10.3125 8.83789 12.1289 6.96289 12.1289 4.52148C12.1289 2.10938 10.3125 0.322266 8.22266 0.322266C6.13281 0.322266 4.31641 2.14844 4.31641 4.54102C4.31641 6.96289 6.12305 8.83789 8.22266 8.83789Z" fill="#000000" fill-opacity="0.85"/>
  <path d="M16.3965 8.69141C16.6113 8.69141 16.8066 8.60352 16.9531 8.44727L19.7266 5.67383L22.5 8.44727C22.6465 8.59375 22.8418 8.69141 23.0664 8.69141C23.4961 8.69141 23.8477 8.33008 23.8477 7.90039C23.8477 7.67578 23.7598 7.5 23.6133 7.34375L20.8398 4.57031L23.623 1.77734C23.7793 1.61133 23.8574 1.44531 23.8574 1.23047C23.8574 0.800781 23.5059 0.449219 23.0762 0.449219C22.8711 0.449219 22.6953 0.527344 22.5293 0.693359L19.7266 3.47656L16.9336 0.703125C16.7871 0.546875 16.6113 0.46875 16.3965 0.46875C15.957 0.46875 15.6152 0.810547 15.6152 1.24023C15.6152 1.45508 15.6934 1.64062 15.8496 1.78711L18.623 4.57031L15.8496 7.35352C15.6934 7.5 15.6152 7.68555 15.6152 7.90039C15.6152 8.33008 15.957 8.69141 16.3965 8.69141Z" fill="#000000" fill-opacity="0.85"/>
 </g>
</svg>
