<?xml version="1.0" encoding="UTF-8"?>
<!--Generator: Apple Native CoreSVG 175.5-->
<!DOCTYPE svg
PUBLIC "-//W3C//DTD SVG 1.1//EN"
       "http://www.w3.org/Graphics/SVG/1.1/DTD/svg11.dtd">
<svg version="1.1" xmlns="http://www.w3.org/2000/svg" xmlns:xlink="http://www.w3.org/1999/xlink" width="17.1289" height="22.7246">
 <g>
  <rect height="22.7246" opacity="0" width="17.1289" x="0" y="0"/>
  <path d="M3.06641 22.7246L14.3555 22.7246C16.1035 22.7246 17.1289 21.709 17.1289 19.6973L17.1289 8.62305C17.1289 6.61133 16.0938 5.5957 14.0625 5.5957L3.06641 5.5957C1.02539 5.5957 0 6.60156 0 8.62305L0 19.6973C0 21.709 1.02539 22.7246 3.06641 22.7246ZM2.12891 4.02344L14.9902 4.02344C14.8438 3.13477 14.4238 2.64648 13.4473 2.64648L3.67188 2.64648C2.69531 2.64648 2.27539 3.13477 2.12891 4.02344ZM3.82812 1.31836L13.3008 1.31836C13.2422 0.488281 12.7637 0.0585938 11.8652 0.0585938L5.25391 0.0585938C4.35547 0.0585938 3.88672 0.488281 3.82812 1.31836ZM7.43164 21.1719C7.27539 21.1328 7.02148 20.8691 7.02148 20.4199C7.02148 18.7402 8.74023 16.7188 11.4941 16.7188C13.2715 16.7188 14.8242 17.6172 15.5566 18.877L15.5566 19.6289C15.5566 20.6445 14.9023 21.1719 14.043 21.1719ZM11.4941 15.6348C10.332 15.6348 9.32617 14.5898 9.32617 13.2617C9.31641 11.9336 10.3418 10.918 11.5039 10.918C12.666 10.918 13.6523 11.9043 13.6523 13.2422C13.6523 14.5898 12.6562 15.6348 11.4941 15.6348ZM3.0957 21.1719C2.11914 21.1719 1.58203 20.6445 1.58203 19.6289L1.58203 18.6719C2.16797 17.627 3.49609 16.6992 5.25391 16.6992C6.11328 16.6992 6.77734 16.8945 7.40234 17.2949C6.44531 17.998 5.77148 19.3848 5.77148 20.4199C5.77148 20.7129 5.82031 20.9668 5.92773 21.1719ZM5.25391 15.7715C4.23828 15.7715 3.36914 14.8633 3.35938 13.6816C3.35938 12.5293 4.23828 11.6504 5.25391 11.6504C6.25977 11.6504 7.13867 12.5098 7.13867 13.6719C7.13867 14.8633 6.26953 15.7715 5.25391 15.7715Z" fill="#000000" fill-opacity="0.85"/>
 </g>
</svg>
