<?xml version="1.0" encoding="UTF-8"?>
<!--Generator: Apple Native CoreSVG 175.5-->
<!DOCTYPE svg
PUBLIC "-//W3C//DTD SVG 1.1//EN"
       "http://www.w3.org/Graphics/SVG/1.1/DTD/svg11.dtd">
<svg version="1.1" xmlns="http://www.w3.org/2000/svg" xmlns:xlink="http://www.w3.org/1999/xlink" width="35.1953" height="16.0449">
 <g>
  <rect height="16.0449" opacity="0" width="35.1953" x="0" y="0"/>
  <path d="M7.23633 8.01758C9.28711 8.01758 10.9863 6.19141 10.9863 3.95508C10.9863 1.74805 9.30664 0 7.23633 0C5.17578 0 3.48633 1.77734 3.49609 3.96484C3.49609 6.20117 5.18555 8.01758 7.23633 8.01758ZM7.23633 6.54297C6.04492 6.54297 5.05859 5.42969 5.05859 3.96484C5.04883 2.54883 6.02539 1.47461 7.23633 1.47461C8.44727 1.47461 9.42383 2.5293 9.42383 3.95508C9.42383 5.41016 8.4375 6.54297 7.23633 6.54297ZM2.14844 15.9863L12.3145 15.9863C13.7305 15.9863 14.4629 15.5273 14.4629 14.5312C14.4629 12.2852 11.8555 9.02344 7.22656 9.02344C2.60742 9.02344 0 12.2852 0 14.5312C0 15.5273 0.722656 15.9863 2.14844 15.9863ZM1.76758 14.5117C1.62109 14.5117 1.5625 14.4531 1.5625 14.3359C1.5625 13.0469 3.4082 10.498 7.22656 10.498C11.0449 10.498 12.8906 13.0469 12.8906 14.3359C12.8906 14.4531 12.832 14.5117 12.6953 14.5117ZM27.9688 8.06641C30.0195 8.06641 31.7188 6.24023 31.7188 4.00391C31.7188 1.79688 30.0391 0.0488281 27.9688 0.0488281C25.9082 0.0488281 24.2188 1.82617 24.2285 4.01367C24.2285 6.25 25.918 8.06641 27.9688 8.06641ZM27.9688 6.5918C26.7773 6.5918 25.791 5.47852 25.791 4.01367C25.7812 2.59766 26.7578 1.52344 27.9688 1.52344C29.1797 1.52344 30.1562 2.57812 30.1562 4.00391C30.1562 5.45898 29.1699 6.5918 27.9688 6.5918ZM22.8809 16.0352L33.0469 16.0352C34.4629 16.0352 35.1953 15.5762 35.1953 14.5801C35.1953 12.334 32.5879 9.07227 27.959 9.07227C23.3398 9.07227 20.7324 12.334 20.7324 14.5801C20.7324 15.5762 21.4551 16.0352 22.8809 16.0352ZM22.5 14.5605C22.3535 14.5605 22.2949 14.502 22.2949 14.3848C22.2949 13.0957 24.1504 10.5469 27.959 10.5469C31.7773 10.5469 33.623 13.0957 33.623 14.3848C33.623 14.502 33.5645 14.5605 33.4277 14.5605Z" fill="#000000" fill-opacity="0.85"/>
  <path d="M13.7598 8.56445C14.4824 8.56445 15.0586 7.98828 15.0586 7.26562C15.0586 6.55273 14.4824 5.97656 13.7598 5.97656C13.0469 5.97656 12.4707 6.55273 12.4707 7.26562C12.4707 7.98828 13.0469 8.56445 13.7598 8.56445ZM17.5977 8.56445C18.3105 8.56445 18.8867 7.98828 18.8867 7.26562C18.8867 6.55273 18.3105 5.97656 17.5977 5.97656C16.875 5.97656 16.3086 6.55273 16.3086 7.26562C16.3086 7.98828 16.875 8.56445 17.5977 8.56445ZM21.416 8.56445C22.1387 8.56445 22.7148 7.98828 22.7148 7.26562C22.7148 6.55273 22.1387 5.97656 21.416 5.97656C20.7031 5.97656 20.127 6.55273 20.127 7.26562C20.127 7.98828 20.7031 8.56445 21.416 8.56445Z" fill="#000000" fill-opacity="0.85"/>
 </g>
</svg>
