<?xml version="1.0" encoding="UTF-8"?>
<!--Generator: Apple Native CoreSVG 175.5-->
<!DOCTYPE svg
PUBLIC "-//W3C//DTD SVG 1.1//EN"
       "http://www.w3.org/Graphics/SVG/1.1/DTD/svg11.dtd">
<svg version="1.1" xmlns="http://www.w3.org/2000/svg" xmlns:xlink="http://www.w3.org/1999/xlink" width="27.1973" height="18.4082">
 <g>
  <rect height="18.4082" opacity="0" width="27.1973" x="0" y="0"/>
  <path d="M12.5293 18.4082L24.7949 18.4082C26.4258 18.4082 27.1973 17.9199 27.1973 16.8457C27.1973 14.2871 23.9648 10.5859 18.6621 10.5859C13.3691 10.5859 10.1367 14.2871 10.1367 16.8457C10.1367 17.9199 10.9082 18.4082 12.5293 18.4082ZM12.0605 16.9336C11.8066 16.9336 11.709 16.8652 11.709 16.6602C11.709 15.0586 14.1895 12.0605 18.6621 12.0605C23.1445 12.0605 25.625 15.0586 25.625 16.6602C25.625 16.8652 25.5176 16.9336 25.2637 16.9336ZM18.6719 9.375C20.9961 9.375 22.8906 7.30469 22.8906 4.78516C22.8906 2.28516 21.0059 0.322266 18.6719 0.322266C16.3477 0.322266 14.4434 2.32422 14.4531 4.80469C14.4629 7.31445 16.3477 9.375 18.6719 9.375ZM18.6719 7.90039C17.2461 7.90039 16.0254 6.5332 16.0254 4.80469C16.0156 3.10547 17.2168 1.79688 18.6719 1.79688C20.127 1.79688 21.3184 3.08594 21.3184 4.78516C21.3184 6.51367 20.1074 7.90039 18.6719 7.90039Z" fill="#000000" fill-opacity="0.85"/>
  <path d="M1.98242 18.4082L9.64844 18.4082C9.17969 18.1445 8.82812 17.5586 8.89648 16.9629L1.74805 16.9629C1.54297 16.9629 1.45508 16.8848 1.45508 16.6992C1.45508 14.2773 4.21875 12.0117 7.41211 12.0117C8.63281 12.0117 9.74609 12.3047 10.6934 12.8613C10.9961 12.4707 11.3574 12.1289 11.7969 11.8262C10.5371 10.9961 9.02344 10.5664 7.41211 10.5664C3.32031 10.5664 0 13.5352 0 16.7871C0 17.8711 0.664062 18.4082 1.98242 18.4082ZM7.42188 9.45312C9.43359 9.45312 11.084 7.64648 11.084 5.42969C11.084 3.26172 9.45312 1.51367 7.42188 1.51367C5.41016 1.51367 3.75 3.29102 3.75977 5.44922C3.75977 7.65625 5.41016 9.45312 7.42188 9.45312ZM7.42188 7.99805C6.2207 7.99805 5.21484 6.85547 5.21484 5.44922C5.21484 4.07227 6.21094 2.96875 7.42188 2.96875C8.65234 2.96875 9.63867 4.05273 9.63867 5.42969C9.63867 6.85547 8.62305 7.99805 7.42188 7.99805Z" fill="#000000" fill-opacity="0.85"/>
 </g>
</svg>
