<?xml version="1.0" encoding="UTF-8"?>
<!--Generator: Apple Native CoreSVG 175.5-->
<!DOCTYPE svg
PUBLIC "-//W3C//DTD SVG 1.1//EN"
       "http://www.w3.org/Graphics/SVG/1.1/DTD/svg11.dtd">
<svg version="1.1" xmlns="http://www.w3.org/2000/svg" xmlns:xlink="http://www.w3.org/1999/xlink" width="38.3496" height="17.8809">
 <g>
  <rect height="17.8809" opacity="0" width="38.3496" x="0" y="0"/>
  <path d="M2.08008 17.8809L14.3457 17.8809C15.8887 17.8809 16.4355 17.4414 16.4355 16.582C16.4355 14.0625 13.2812 10.5859 8.21289 10.5859C3.1543 10.5859 0 14.0625 0 16.582C0 17.4414 0.546875 17.8809 2.08008 17.8809ZM8.22266 8.83789C10.3125 8.83789 12.1289 6.96289 12.1289 4.52148C12.1289 2.10938 10.3125 0.322266 8.22266 0.322266C6.13281 0.322266 4.31641 2.14844 4.31641 4.54102C4.31641 6.96289 6.12305 8.83789 8.22266 8.83789Z" fill="#000000" fill-opacity="0.85"/>
  <path d="M19.1797 10.5859C17.5195 10.5859 16.0547 10.9668 14.8535 11.5723C16.5625 12.9004 17.666 14.6777 17.666 16.582C17.666 17.0898 17.5586 17.5293 17.334 17.8809L25.3125 17.8809C26.8457 17.8809 27.3926 17.4414 27.3926 16.582C27.3926 14.0625 24.2383 10.5859 19.1797 10.5859ZM19.1797 8.83789C21.2793 8.83789 23.0859 6.96289 23.0859 4.52148C23.0859 2.10938 21.2695 0.322266 19.1797 0.322266C17.0996 0.322266 15.2734 2.14844 15.2832 4.54102C15.2832 6.96289 17.0898 8.83789 19.1797 8.83789Z" fill="#000000" fill-opacity="0.85"/>
  <path d="M30.127 10.5859C28.4668 10.5859 27.0117 10.9668 25.8105 11.5625C27.5293 12.8906 28.6328 14.6777 28.6328 16.582C28.6328 17.0898 28.5156 17.5293 28.3008 17.8809L36.2598 17.8809C37.8027 17.8809 38.3496 17.4414 38.3496 16.582C38.3496 14.0625 35.1953 10.5859 30.127 10.5859ZM30.1367 8.83789C32.2363 8.83789 34.043 6.96289 34.043 4.52148C34.043 2.10938 32.2266 0.322266 30.1367 0.322266C28.0469 0.322266 26.2305 2.14844 26.2305 4.54102C26.2305 6.96289 28.0371 8.83789 30.1367 8.83789Z" fill="#000000" fill-opacity="0.85"/>
 </g>
</svg>
