<?xml version="1.0" encoding="UTF-8"?>
<!--Generator: Apple Native CoreSVG 175.5-->
<!DOCTYPE svg
PUBLIC "-//W3C//DTD SVG 1.1//EN"
       "http://www.w3.org/Graphics/SVG/1.1/DTD/svg11.dtd">
<svg version="1.1" xmlns="http://www.w3.org/2000/svg" xmlns:xlink="http://www.w3.org/1999/xlink" width="25.6519" height="17.8809">
 <g>
  <rect height="17.8809" opacity="0" width="25.6519" x="0" y="0"/>
  <path d="M6.26953 17.8809L19.375 17.8809C20.4199 17.8809 21.0449 17.3926 21.0449 16.582C21.0449 14.0625 17.8906 10.5859 12.8223 10.5859C7.76367 10.5859 4.60938 14.0625 4.60938 16.582C4.60938 17.3926 5.23438 17.8809 6.26953 17.8809ZM12.832 8.83789C14.9219 8.83789 16.7383 6.96289 16.7383 4.52148C16.7383 2.10938 14.9219 0.322266 12.832 0.322266C10.7422 0.322266 8.92578 2.14844 8.92578 4.54102C8.92578 6.96289 10.7324 8.83789 12.832 8.83789Z" fill="#000000" fill-opacity="0.85"/>
  <path d="M0.263672 5.04883L2.88086 6.99219C3.42773 7.40234 4.07227 7.1582 4.07227 6.49414L4.07227 5.2832L6.5918 5.2832C7.02148 5.2832 7.36328 4.95117 7.36328 4.52148C7.36328 4.10156 7.02148 3.75977 6.5918 3.75977L4.07227 3.75977L4.07227 2.57812C4.07227 1.875 3.4082 1.66992 2.88086 2.06055L0.263672 4.02344C-0.0878906 4.28711-0.0878906 4.78516 0.263672 5.04883ZM18.291 4.52148C18.291 4.95117 18.623 5.2832 19.0527 5.2832L21.5723 5.2832L21.5723 6.49414C21.5723 7.1582 22.2266 7.40234 22.7637 6.99219L25.3809 5.04883C25.7422 4.78516 25.7422 4.28711 25.3809 4.02344L22.7637 2.06055C22.2461 1.66992 21.5723 1.875 21.5723 2.57812L21.5723 3.75977L19.0527 3.75977C18.623 3.75977 18.291 4.10156 18.291 4.52148Z" fill="#000000" fill-opacity="0.85"/>
 </g>
</svg>
