<?xml version="1.0" encoding="UTF-8"?>
<!--Generator: Apple Native CoreSVG 175.5-->
<!DOCTYPE svg
PUBLIC "-//W3C//DTD SVG 1.1//EN"
       "http://www.w3.org/Graphics/SVG/1.1/DTD/svg11.dtd">
<svg version="1.1" xmlns="http://www.w3.org/2000/svg" xmlns:xlink="http://www.w3.org/1999/xlink" width="25.6519" height="18.4082">
 <g>
  <rect height="18.4082" opacity="0" width="25.6519" x="0" y="0"/>
  <path d="M6.68945 18.4082L18.9551 18.4082C20.5859 18.4082 21.3574 17.9199 21.3574 16.8457C21.3574 14.2871 18.125 10.5859 12.8223 10.5859C7.5293 10.5859 4.29688 14.2871 4.29688 16.8457C4.29688 17.9199 5.06836 18.4082 6.68945 18.4082ZM6.2207 16.9336C5.9668 16.9336 5.86914 16.8652 5.86914 16.6602C5.86914 15.0586 8.34961 12.0605 12.8223 12.0605C17.3047 12.0605 19.7852 15.0586 19.7852 16.6602C19.7852 16.8652 19.6777 16.9336 19.4238 16.9336ZM12.832 9.375C15.1465 9.375 17.0508 7.30469 17.0508 4.78516C17.0508 2.28516 15.166 0.322266 12.832 0.322266C10.5078 0.322266 8.60352 2.32422 8.61328 4.80469C8.61328 7.31445 10.5078 9.375 12.832 9.375ZM12.832 7.90039C11.4062 7.90039 10.1855 6.5332 10.1855 4.80469C10.1758 3.10547 11.377 1.79688 12.832 1.79688C14.2871 1.79688 15.4785 3.08594 15.4785 4.78516C15.4785 6.51367 14.2676 7.90039 12.832 7.90039Z" fill="#000000" fill-opacity="0.85"/>
  <path d="M0.263672 5.3125L2.88086 7.25586C3.42773 7.66602 4.07227 7.42188 4.07227 6.75781L4.07227 5.54688L6.5918 5.54688C7.02148 5.54688 7.36328 5.21484 7.36328 4.78516C7.36328 4.36523 7.02148 4.02344 6.5918 4.02344L4.07227 4.02344L4.07227 2.8418C4.07227 2.13867 3.4082 1.93359 2.88086 2.32422L0.263672 4.28711C-0.0878906 4.55078-0.0878906 5.04883 0.263672 5.3125ZM18.291 4.78516C18.291 5.21484 18.623 5.54688 19.0527 5.54688L21.5723 5.54688L21.5723 6.75781C21.5723 7.42188 22.2266 7.66602 22.7637 7.25586L25.3809 5.3125C25.7422 5.04883 25.7422 4.55078 25.3809 4.28711L22.7637 2.32422C22.2461 1.93359 21.5723 2.13867 21.5723 2.8418L21.5723 4.02344L19.0527 4.02344C18.623 4.02344 18.291 4.36523 18.291 4.78516Z" fill="#000000" fill-opacity="0.85"/>
 </g>
</svg>
