<?xml version="1.0" encoding="UTF-8"?>
<!--Generator: Apple Native CoreSVG 175.5-->
<!DOCTYPE svg
PUBLIC "-//W3C//DTD SVG 1.1//EN"
       "http://www.w3.org/Graphics/SVG/1.1/DTD/svg11.dtd">
<svg version="1.1" xmlns="http://www.w3.org/2000/svg" xmlns:xlink="http://www.w3.org/1999/xlink" width="20.0684" height="21.2402">
 <g>
  <rect height="21.2402" opacity="0" width="20.0684" x="0" y="0"/>
  <path d="M2.96875 21.2305L17.0996 21.2305C19.0625 21.2305 20.0684 20.2344 20.0684 18.291L20.0684 8.4668C20.0684 6.52344 19.0625 5.53711 17.0996 5.53711L2.96875 5.53711C0.986328 5.53711 0 6.52344 0 8.4668L0 18.291C0 20.2344 0.986328 21.2305 2.96875 21.2305ZM1.86523 3.96484L18.2129 3.96484C18.0664 3.07617 17.6465 2.58789 16.6699 2.58789L3.4082 2.58789C2.43164 2.58789 2.01172 3.07617 1.86523 3.96484ZM3.87695 1.25977L16.2012 1.25977C16.1426 0.429688 15.6738 0 14.7656 0L5.30273 0C4.4043 0 3.93555 0.429688 3.87695 1.25977ZM4.38477 19.6387C5.15625 17.6367 7.36328 16.2109 10.0293 16.2109C12.7051 16.2109 14.9121 17.6367 15.6836 19.6387ZM10.0293 14.7852C8.4082 14.7656 7.12891 13.418 7.11914 11.6016C7.10938 9.87305 8.4082 8.4668 10.0293 8.4668C11.6602 8.4668 12.9492 9.87305 12.9492 11.6016C12.9492 13.418 11.6602 14.8047 10.0293 14.7852Z" fill="#000000" fill-opacity="0.85"/>
 </g>
</svg>
