<?xml version="1.0" encoding="UTF-8"?>
<!--Generator: Apple Native CoreSVG 175.5-->
<!DOCTYPE svg
PUBLIC "-//W3C//DTD SVG 1.1//EN"
       "http://www.w3.org/Graphics/SVG/1.1/DTD/svg11.dtd">
<svg version="1.1" xmlns="http://www.w3.org/2000/svg" xmlns:xlink="http://www.w3.org/1999/xlink" width="19.9219" height="19.9316">
 <g>
  <rect height="19.9316" opacity="0" width="19.9219" x="0" y="0"/>
  <path d="M9.96094 19.9219C15.4102 19.9219 19.9219 15.4004 19.9219 9.96094C19.9219 4.51172 15.4004 0 9.95117 0C4.51172 0 0 4.51172 0 9.96094C0 15.4004 4.52148 19.9219 9.96094 19.9219ZM9.96094 18.2617C5.35156 18.2617 1.66992 14.5703 1.66992 9.96094C1.66992 5.35156 5.3418 1.66016 9.95117 1.66016C14.5605 1.66016 18.2617 5.35156 18.2617 9.96094C18.2617 14.5703 14.5703 18.2617 9.96094 18.2617Z" fill="#000000" fill-opacity="0.85"/>
  <path d="M9.46289 13.8477L15.4297 13.8477C16.1816 13.8477 16.4453 13.6328 16.4453 13.2129C16.4453 11.9922 14.9121 10.3027 12.4512 10.3027C9.98047 10.3027 8.4375 11.9922 8.4375 13.2129C8.4375 13.6328 8.71094 13.8477 9.46289 13.8477ZM12.4512 9.46289C13.4766 9.46289 14.3457 8.53516 14.3457 7.34375C14.3457 6.17188 13.4668 5.3125 12.4512 5.3125C11.4258 5.3125 10.5469 6.20117 10.5469 7.35352C10.5566 8.53516 11.4258 9.46289 12.4512 9.46289ZM4.31641 13.8477L7.93945 13.8477C7.44141 13.1445 8.04688 11.6895 9.07227 10.9082C8.53516 10.5566 7.85156 10.293 6.97266 10.293C4.82422 10.293 3.48633 11.875 3.48633 13.1836C3.48633 13.6133 3.7207 13.8477 4.31641 13.8477ZM6.97266 9.56055C7.86133 9.56055 8.62305 8.75977 8.62305 7.72461C8.62305 6.70898 7.86133 5.94727 6.97266 5.94727C6.09375 5.94727 5.3125 6.72852 5.3125 7.73438C5.32227 8.75977 6.08398 9.56055 6.97266 9.56055Z" fill="#000000" fill-opacity="0.85"/>
 </g>
</svg>
