<?xml version="1.0" encoding="UTF-8"?>
<!--Generator: Apple Native CoreSVG 175.5-->
<!DOCTYPE svg
PUBLIC "-//W3C//DTD SVG 1.1//EN"
       "http://www.w3.org/Graphics/SVG/1.1/DTD/svg11.dtd">
<svg version="1.1" xmlns="http://www.w3.org/2000/svg" xmlns:xlink="http://www.w3.org/1999/xlink" width="32.3145" height="22.8036">
 <g>
  <rect height="22.8036" opacity="0" width="32.3145" x="0" y="0"/>
  <path d="M12.2656 20.3422L24.541 20.3422C26.0742 20.3422 26.6211 19.9028 26.6211 19.0434C26.6211 16.5239 23.4668 13.0473 18.3984 13.0473C13.3398 13.0473 10.1855 16.5239 10.1855 19.0434C10.1855 19.9028 10.7324 20.3422 12.2656 20.3422ZM18.4082 11.2993C20.5078 11.2993 22.3145 9.42428 22.3145 6.98287C22.3145 4.57076 20.498 2.78365 18.4082 2.78365C16.3184 2.78365 14.502 4.60982 14.502 7.0024C14.502 9.42428 16.3086 11.2993 18.4082 11.2993ZM1.71875 20.3422L9.14062 20.3422C8.125 18.8676 9.36523 15.8989 11.4648 14.2778C10.3809 13.5551 8.98438 13.018 7.1582 13.018C2.75391 13.018 0 16.27 0 18.9751C0 19.854 0.488281 20.3422 1.71875 20.3422ZM7.16797 11.5239C8.98438 11.5239 10.5664 9.88326 10.5664 7.76412C10.5664 5.66451 8.97461 4.11178 7.16797 4.11178C5.35156 4.11178 3.75 5.70357 3.75977 7.78365C3.75977 9.88326 5.3418 11.5239 7.16797 11.5239Z" fill="#000000" fill-opacity="0.85"/>
  <path d="M25.6348 11.0063C25.9668 11.2309 26.4258 11.1626 26.6895 10.7817C27.4414 9.79537 27.8906 8.34029 27.8906 6.84615C27.8906 5.35201 27.4414 3.9067 26.6895 2.9106C26.4258 2.52974 25.9668 2.46139 25.6348 2.68599C25.2441 2.95943 25.1758 3.44771 25.4883 3.8481C26.0547 4.62935 26.377 5.71334 26.377 6.84615C26.377 7.97896 26.0449 9.05318 25.4883 9.8442C25.1855 10.2544 25.2441 10.7231 25.6348 11.0063Z" fill="#000000" fill-opacity="0.85"/>
  <path d="M29.2578 13.5551C29.6191 13.7993 30.0684 13.7114 30.332 13.3403C31.582 11.6215 32.3145 9.25826 32.3145 6.84615C32.3145 4.43404 31.5918 2.05123 30.332 0.352011C30.0684-0.0190832 29.6191-0.106974 29.2578 0.137167C28.8965 0.381307 28.8379 0.840292 29.1211 1.24068C30.1855 2.74459 30.8008 4.76607 30.8008 6.84615C30.8008 8.92623 30.166 10.9379 29.1211 12.4516C28.8477 12.852 28.8965 13.311 29.2578 13.5551Z" fill="#000000" fill-opacity="0.85"/>
 </g>
</svg>
