<?xml version="1.0" encoding="UTF-8"?>
<!--Generator: Apple Native CoreSVG 175.5-->
<!DOCTYPE svg
PUBLIC "-//W3C//DTD SVG 1.1//EN"
       "http://www.w3.org/Graphics/SVG/1.1/DTD/svg11.dtd">
<svg version="1.1" xmlns="http://www.w3.org/2000/svg" xmlns:xlink="http://www.w3.org/1999/xlink" width="23.623" height="23.4863">
 <g>
  <rect height="23.4863" opacity="0" width="23.623" x="0" y="0"/>
  <path d="M11.8164 23.3496C12.2656 23.3496 12.5488 23.0566 12.5488 22.5781L12.5488 0.78125C12.5488 0.292969 12.2656 0 11.8164 0C11.3477 0 11.0742 0.292969 11.0742 0.78125L11.0742 22.5781C11.0742 23.0566 11.3477 23.3496 11.8164 23.3496ZM0.78125 12.4121L22.8418 12.4121C23.3301 12.4121 23.623 12.1289 23.623 11.6797C23.623 11.2109 23.3301 10.9375 22.8418 10.9375L0.78125 10.9375C0.292969 10.9375 0 11.2109 0 11.6797C0 12.1289 0.292969 12.4121 0.78125 12.4121Z" fill="#000000" fill-opacity="0.85"/>
  <path d="M6.48438 18.3496L17.1387 20.2148C19.0039 20.5469 20.1172 19.375 20.1172 17.2852L20.1172 6.07422C20.1172 3.87695 19.082 2.79297 17.1387 3.13477L6.48438 5.00977C4.54102 5.35156 3.50586 6.29883 3.50586 7.93945L3.50586 15.4102C3.50586 17.041 4.54102 18.0078 6.48438 18.3496ZM6.40625 16.875C5.47852 16.7188 4.98047 16.25 4.98047 15.4297L4.98047 7.91992C4.98047 7.09961 5.47852 6.63086 6.40625 6.47461L17.2168 4.60938C18.1445 4.45312 18.6426 4.9707 18.6426 6.05469L18.6426 17.3047C18.6426 18.3398 18.1152 18.8965 17.2168 18.75Z" fill="#000000" fill-opacity="0.85"/>
 </g>
</svg>
