<?xml version="1.0" encoding="UTF-8"?>
<!--Generator: Apple Native CoreSVG 175.5-->
<!DOCTYPE svg
PUBLIC "-//W3C//DTD SVG 1.1//EN"
       "http://www.w3.org/Graphics/SVG/1.1/DTD/svg11.dtd">
<svg version="1.1" xmlns="http://www.w3.org/2000/svg" xmlns:xlink="http://www.w3.org/1999/xlink" width="22.1289" height="22.8036">
 <g>
  <rect height="22.8036" opacity="0" width="22.1289" x="0" y="0"/>
  <path d="M2.08984 20.3422L14.3555 20.3422C15.8887 20.3422 16.4355 19.9028 16.4355 19.0434C16.4355 16.5239 13.2812 13.0473 8.22266 13.0473C3.1543 13.0473 0 16.5239 0 19.0434C0 19.9028 0.546875 20.3422 2.08984 20.3422ZM8.22266 11.2993C10.3223 11.2993 12.1289 9.42428 12.1289 6.98287C12.1289 4.57076 10.3125 2.78365 8.22266 2.78365C6.13281 2.78365 4.31641 4.60982 4.31641 7.0024C4.31641 9.42428 6.13281 11.2993 8.22266 11.2993Z" fill="#000000" fill-opacity="0.85"/>
  <path d="M15.459 11.0063C15.7812 11.2309 16.2402 11.1626 16.5039 10.7817C17.2559 9.79537 17.7051 8.34029 17.7051 6.84615C17.7051 5.35201 17.2559 3.9067 16.5039 2.9106C16.2402 2.52974 15.7812 2.46139 15.459 2.68599C15.0586 2.95943 15 3.44771 15.3027 3.8481C15.8691 4.62935 16.1914 5.71334 16.1914 6.84615C16.1914 7.97896 15.8594 9.05318 15.3027 9.8442C15.0098 10.2544 15.0586 10.7231 15.459 11.0063Z" fill="#000000" fill-opacity="0.85"/>
  <path d="M19.0723 13.5551C19.4336 13.7993 19.8828 13.7114 20.1465 13.3403C21.3965 11.6215 22.1289 9.25826 22.1289 6.84615C22.1289 4.43404 21.4062 2.05123 20.1465 0.352011C19.8828-0.0190832 19.4336-0.106974 19.0723 0.137167C18.7109 0.381307 18.6523 0.840292 18.9355 1.24068C20.0098 2.74459 20.6152 4.76607 20.6152 6.84615C20.6152 8.92623 19.9902 10.9379 18.9355 12.4516C18.6621 12.852 18.7109 13.311 19.0723 13.5551Z" fill="#000000" fill-opacity="0.85"/>
 </g>
</svg>
