<?xml version="1.0" encoding="UTF-8"?>
<!--Generator: Apple Native CoreSVG 175.5-->
<!DOCTYPE svg
PUBLIC "-//W3C//DTD SVG 1.1//EN"
       "http://www.w3.org/Graphics/SVG/1.1/DTD/svg11.dtd">
<svg version="1.1" xmlns="http://www.w3.org/2000/svg" xmlns:xlink="http://www.w3.org/1999/xlink" width="20.6055" height="19.8535">
 <g>
  <rect height="19.8535" opacity="0" width="20.6055" x="0" y="0"/>
  <path d="M14.1992 19.502C15.8984 19.502 17.0215 19.043 18.0176 17.9297C18.0957 17.8516 18.1641 17.7637 18.2422 17.6855C18.8281 17.0312 19.1016 16.3867 19.1016 15.7715C19.1016 15.0684 18.6914 14.4141 17.8223 13.8086L14.9805 11.8359C14.1016 11.2305 13.0762 11.1621 12.2559 11.9727L11.5039 12.7246C11.2793 12.9492 11.084 12.959 10.8594 12.8223C10.3418 12.4902 9.27734 11.5625 8.55469 10.8398C7.79297 10.0879 7.05078 9.24805 6.66992 8.63281C6.5332 8.4082 6.55273 8.22266 6.77734 7.99805L7.51953 7.24609C8.33984 6.42578 8.27148 5.39062 7.66602 4.52148L5.68359 1.67969C5.08789 0.810547 4.43359 0.410156 3.73047 0.400391C3.11523 0.390625 2.4707 0.673828 1.81641 1.25977C1.72852 1.33789 1.65039 1.40625 1.5625 1.47461C0.458984 2.4707 0 3.59375 0 5.2832C0 8.07617 1.71875 11.4746 4.87305 14.6289C8.00781 17.7637 11.416 19.502 14.1992 19.502ZM14.209 17.998C11.7188 18.0469 8.52539 16.1328 5.99609 13.6133C3.44727 11.0742 1.44531 7.77344 1.49414 5.2832C1.51367 4.20898 1.88477 3.28125 2.65625 2.61719C2.71484 2.55859 2.77344 2.50977 2.8418 2.46094C3.125 2.20703 3.44727 2.07031 3.7207 2.07031C4.01367 2.07031 4.26758 2.17773 4.45312 2.4707L6.34766 5.3125C6.55273 5.61523 6.57227 5.95703 6.26953 6.25977L5.41016 7.11914C4.72656 7.79297 4.78516 8.61328 5.27344 9.26758C5.83008 10.0195 6.79688 11.1133 7.53906 11.8555C8.29102 12.6074 9.47266 13.6621 10.2246 14.2285C10.8789 14.7168 11.709 14.7656 12.3828 14.0918L13.2422 13.2324C13.5449 12.9297 13.877 12.9492 14.1797 13.1445L17.0215 15.0391C17.3145 15.2344 17.4316 15.4785 17.4316 15.7715C17.4316 16.0547 17.2949 16.3672 17.0312 16.6602C16.9824 16.7285 16.9434 16.7773 16.8848 16.8457C16.2109 17.6074 15.2832 17.9785 14.209 17.998Z" fill="#000000" fill-opacity="0.85"/>
  <path d="M10.8887 5.89844C11.2109 5.89844 11.4453 5.6543 11.4453 5.36133L11.4453 3.86719C11.4453 3.56445 11.2109 3.32031 10.8887 3.32031C10.5859 3.32031 10.3516 3.56445 10.3516 3.86719L10.3516 5.36133C10.3516 5.6543 10.5859 5.89844 10.8887 5.89844Z" fill="#000000" fill-opacity="0.85"/>
  <path d="M13.1836 7.53906C13.4961 7.53906 13.7402 7.29492 13.7402 6.98242L13.7402 2.23633C13.7402 1.93359 13.4961 1.68945 13.1836 1.68945C12.8809 1.68945 12.6367 1.93359 12.6367 2.23633L12.6367 6.98242C12.6367 7.29492 12.8809 7.53906 13.1836 7.53906Z" fill="#000000" fill-opacity="0.85"/>
  <path d="M15.4785 9.22852C15.791 9.22852 16.0254 8.98438 16.0254 8.68164L16.0254 0.566406C16.0254 0.244141 15.791 0 15.4785 0C15.166 0 14.9316 0.244141 14.9316 0.566406L14.9316 8.68164C14.9316 8.99414 15.1562 9.22852 15.4785 9.22852Z" fill="#000000" fill-opacity="0.85"/>
  <path d="M17.7539 8.25195C18.0762 8.25195 18.3203 8.01758 18.3203 7.70508L18.3203 1.51367C18.3203 1.21094 18.0762 0.976562 17.7539 0.976562C17.4609 0.976562 17.2168 1.21094 17.2168 1.51367L17.2168 7.70508C17.2168 8.01758 17.4609 8.25195 17.7539 8.25195Z" fill="#000000" fill-opacity="0.85"/>
  <path d="M20.0586 6.41602C20.3809 6.41602 20.6055 6.18164 20.6055 5.85938L20.6055 3.35938C20.6055 3.04688 20.3809 2.80273 20.0586 2.80273C19.7461 2.80273 19.5117 3.05664 19.5117 3.35938L19.5117 5.85938C19.5117 6.17188 19.7461 6.41602 20.0586 6.41602Z" fill="#000000" fill-opacity="0.85"/>
 </g>
</svg>
