<?xml version="1.0" encoding="UTF-8"?>
<!--Generator: Apple Native CoreSVG 175.5-->
<!DOCTYPE svg
PUBLIC "-//W3C//DTD SVG 1.1//EN"
       "http://www.w3.org/Graphics/SVG/1.1/DTD/svg11.dtd">
<svg version="1.1" xmlns="http://www.w3.org/2000/svg" xmlns:xlink="http://www.w3.org/1999/xlink" width="20.6055" height="19.8535">
 <g>
  <rect height="19.8535" opacity="0" width="20.6055" x="0" y="0"/>
  <path d="M4.95117 14.3457C7.77344 17.168 11.2109 19.3457 14.0137 19.3457C15.2734 19.3457 16.377 18.9062 17.2656 17.9297C17.7832 17.3535 18.1055 16.6797 18.1055 16.0156C18.1055 15.5273 17.9199 15.0586 17.4512 14.7266L14.4629 12.5977C14.0039 12.2852 13.623 12.1289 13.2715 12.1289C12.8223 12.1289 12.4316 12.3828 11.9824 12.8223L11.2891 13.5059C11.1816 13.6133 11.0449 13.6621 10.918 13.6621C10.7617 13.6621 10.625 13.6035 10.5176 13.5547C9.92188 13.2324 8.88672 12.3438 7.91992 11.3867C6.96289 10.4297 6.07422 9.39453 5.76172 8.78906C5.70312 8.68164 5.6543 8.54492 5.6543 8.39844C5.6543 8.27148 5.69336 8.14453 5.80078 8.03711L6.48438 7.32422C6.92383 6.875 7.17773 6.48438 7.17773 6.03516C7.17773 5.68359 7.02148 5.30273 6.69922 4.84375L4.59961 1.88477C4.25781 1.41602 3.7793 1.21094 3.25195 1.21094C2.60742 1.21094 1.93359 1.50391 1.36719 2.06055C0.419922 2.96875 0 4.0918 0 5.33203C0 8.13477 2.13867 11.5332 4.95117 14.3457Z" fill="#000000" fill-opacity="0.85"/>
  <path d="M10.8887 5.89844C11.2109 5.89844 11.4453 5.6543 11.4453 5.36133L11.4453 3.86719C11.4453 3.56445 11.2109 3.32031 10.8887 3.32031C10.5859 3.32031 10.3516 3.56445 10.3516 3.86719L10.3516 5.36133C10.3516 5.6543 10.5859 5.89844 10.8887 5.89844Z" fill="#000000" fill-opacity="0.85"/>
  <path d="M13.1836 7.53906C13.4961 7.53906 13.7402 7.29492 13.7402 6.98242L13.7402 2.23633C13.7402 1.93359 13.4961 1.68945 13.1836 1.68945C12.8809 1.68945 12.6367 1.93359 12.6367 2.23633L12.6367 6.98242C12.6367 7.29492 12.8809 7.53906 13.1836 7.53906Z" fill="#000000" fill-opacity="0.85"/>
  <path d="M15.4785 9.22852C15.791 9.22852 16.0254 8.98438 16.0254 8.68164L16.0254 0.566406C16.0254 0.244141 15.791 0 15.4785 0C15.166 0 14.9316 0.244141 14.9316 0.566406L14.9316 8.68164C14.9316 8.99414 15.1562 9.22852 15.4785 9.22852Z" fill="#000000" fill-opacity="0.85"/>
  <path d="M17.7539 8.25195C18.0762 8.25195 18.3203 8.01758 18.3203 7.70508L18.3203 1.51367C18.3203 1.21094 18.0762 0.976562 17.7539 0.976562C17.4609 0.976562 17.2168 1.21094 17.2168 1.51367L17.2168 7.70508C17.2168 8.01758 17.4609 8.25195 17.7539 8.25195Z" fill="#000000" fill-opacity="0.85"/>
  <path d="M20.0586 6.41602C20.3809 6.41602 20.6055 6.18164 20.6055 5.85938L20.6055 3.35938C20.6055 3.04688 20.3809 2.80273 20.0586 2.80273C19.7461 2.80273 19.5117 3.05664 19.5117 3.35938L19.5117 5.85938C19.5117 6.17188 19.7461 6.41602 20.0586 6.41602Z" fill="#000000" fill-opacity="0.85"/>
 </g>
</svg>
