<?xml version="1.0" encoding="UTF-8"?>
<!--Generator: Apple Native CoreSVG 175.5-->
<!DOCTYPE svg
PUBLIC "-//W3C//DTD SVG 1.1//EN"
       "http://www.w3.org/Graphics/SVG/1.1/DTD/svg11.dtd">
<svg version="1.1" xmlns="http://www.w3.org/2000/svg" xmlns:xlink="http://www.w3.org/1999/xlink" width="24.2969" height="19.7949">
 <g>
  <rect height="19.7949" opacity="0" width="24.2969" x="0" y="0"/>
  <path d="M7.89062 3.19336L19.3652 3.19336L19.3652 3.02734C19.3652 1.01562 18.3301 0 16.2988 0L3.06641 0C1.01562 0 0 1.01562 0 3.02734L0 12.2363C0 14.2578 1.01562 15.2637 3.06641 15.2637L3.48633 15.2637L3.48633 7.54883C3.48633 4.79492 5.10742 3.19336 7.89062 3.19336Z" fill="#000000" fill-opacity="0.85"/>
  <path d="M11.7871 12.0117C10.6445 12.0117 9.7168 11.0645 9.7168 9.92188C9.7168 8.79883 10.6445 7.85156 11.7871 7.85156C12.9199 7.85156 13.8477 8.79883 13.8477 9.92188C13.8477 11.0645 12.9199 12.0117 11.7871 12.0117ZM7.91016 18.2129C6.93359 18.2129 6.39648 17.6953 6.39648 16.6797L6.39648 15.791L8.60352 13.8477C8.98438 13.5254 9.3457 13.3691 9.72656 13.3691C10.1465 13.3691 10.5469 13.5254 10.918 13.8672L12.4902 15.2832L16.4355 11.7871C16.8359 11.4258 17.2656 11.2695 17.7539 11.2695C18.2227 11.2695 18.6914 11.4453 19.0723 11.7969L22.7246 15.2441L22.7246 16.6797C22.7246 17.6953 22.168 18.2129 21.2012 18.2129ZM7.89062 19.7852L21.2305 19.7852C23.2617 19.7852 24.2969 18.7695 24.2969 16.7578L24.2969 7.54883C24.2969 5.53711 23.2617 4.52148 21.2305 4.52148L7.89062 4.52148C5.83984 4.52148 4.82422 5.53711 4.82422 7.54883L4.82422 16.7578C4.82422 18.7793 5.83984 19.7852 7.89062 19.7852Z" fill="#000000" fill-opacity="0.85"/>
 </g>
</svg>
