<?xml version="1.0" encoding="UTF-8"?>
<!--Generator: Apple Native CoreSVG 175.5-->
<!DOCTYPE svg
PUBLIC "-//W3C//DTD SVG 1.1//EN"
       "http://www.w3.org/Graphics/SVG/1.1/DTD/svg11.dtd">
<svg version="1.1" xmlns="http://www.w3.org/2000/svg" xmlns:xlink="http://www.w3.org/1999/xlink" width="23.0273" height="17.9785">
 <g>
  <rect height="17.9785" opacity="0" width="23.0273" x="0" y="0"/>
  <path d="M3.08594 16.416C2.13867 16.416 1.57227 15.8496 1.57227 14.8926L1.57227 14.2969L4.57031 11.6797C5 11.2988 5.46875 11.1035 5.89844 11.1035C6.37695 11.1035 6.875 11.2988 7.30469 11.6992L9.16992 13.3789L13.8379 9.23828C14.3164 8.80859 14.8535 8.61328 15.4102 8.61328C15.9473 8.61328 16.5039 8.81836 16.9629 9.24805L21.4551 13.4082L21.4551 14.9121C21.4551 15.8496 20.8789 16.416 19.9512 16.416ZM7.32422 9.23828C5.99609 9.23828 4.91211 8.1543 4.91211 6.82617C4.91211 5.50781 5.99609 4.41406 7.32422 4.41406C8.64258 4.41406 9.72656 5.50781 9.72656 6.82617C9.72656 8.1543 8.64258 9.23828 7.32422 9.23828ZM3.06641 17.9785L19.9609 17.9785C22.0117 17.9785 23.0273 16.9727 23.0273 14.9609L23.0273 3.02734C23.0273 1.01562 22.0117 0 19.9609 0L3.06641 0C1.02539 0 0 1.01562 0 3.02734L0 14.9609C0 16.9727 1.02539 17.9785 3.06641 17.9785Z" fill="#000000" fill-opacity="0.85"/>
 </g>
</svg>
