<?xml version="1.0" encoding="UTF-8"?>
<!--Generator: Apple Native CoreSVG 175.5-->
<!DOCTYPE svg
PUBLIC "-//W3C//DTD SVG 1.1//EN"
       "http://www.w3.org/Graphics/SVG/1.1/DTD/svg11.dtd">
<svg version="1.1" xmlns="http://www.w3.org/2000/svg" xmlns:xlink="http://www.w3.org/1999/xlink" width="19.1565" height="23.3691">
 <g>
  <rect height="23.3691" opacity="0" width="19.1565" x="0" y="0"/>
  <path d="M2.38037 14.6973C2.38037 15.5273 2.93701 16.0742 3.81592 16.0742L9.09912 16.0742L9.09912 20.6348C9.09912 22.1289 9.72412 23.3691 9.96826 23.3691C10.2026 23.3691 10.8276 22.1289 10.8276 20.6348L10.8276 16.1914L11.3843 16.1914L9.79248 14.5996L4.20654 14.5996C3.98193 14.5996 3.88428 14.4727 3.92334 14.209C4.04053 13.1152 4.9585 11.9531 6.40381 11.2109L5.37842 10.1855C3.53271 11.2695 2.38037 12.9785 2.38037 14.6973ZM3.62061 1.64062C3.62061 1.92383 3.73779 2.25586 3.9917 2.58789C4.48975 3.25195 5.67139 4.16992 6.90186 4.98047L6.82373 6.05469L8.26904 7.5L8.46436 4.25781C8.47412 4.12109 8.45459 4.07227 8.35693 4.02344C6.89209 3.27148 5.75928 2.38281 5.68115 2.1875C5.60303 2.06055 5.68115 1.98242 5.78857 1.98242L14.1382 1.98242C14.2456 1.98242 14.3237 2.06055 14.2456 2.1875C14.1675 2.38281 13.0347 3.27148 11.5698 4.02344C11.4819 4.07227 11.4526 4.12109 11.4722 4.25781L11.7651 9.10156C11.189 8.98438 10.5933 8.92578 9.96826 8.92578L9.70459 8.92578L11.2183 10.459C13.9233 10.7324 15.9058 12.9395 15.9058 14.502C15.9058 14.5508 15.9058 14.5996 15.9058 14.6484L16.9604 15.8594C17.2827 15.6641 17.5464 15.2637 17.5464 14.6973C17.5464 12.6367 15.896 10.5566 13.3472 9.56055L13.0249 4.98047C14.2651 4.16992 15.437 3.25195 15.9351 2.58789C16.1987 2.25586 16.3159 1.92383 16.3159 1.64062C16.3159 1.04492 15.8569 0.605469 15.1733 0.605469L4.76318 0.605469C4.06982 0.605469 3.62061 1.04492 3.62061 1.64062Z" fill="#000000" fill-opacity="0.85"/>
  <path d="M0.212402 3.30078L17.8687 20.9375C18.1714 21.2305 18.6499 21.2305 18.9331 20.9375C19.2261 20.6445 19.2358 20.166 18.9331 19.873L1.28662 2.23633C0.993652 1.94336 0.505371 1.93359 0.212402 2.23633C-0.0708008 2.51953-0.0708008 3.00781 0.212402 3.30078Z" fill="#000000" fill-opacity="0.85"/>
 </g>
</svg>
