<?xml version="1.0" encoding="UTF-8"?>
<!--Generator: Apple Native CoreSVG 175.5-->
<!DOCTYPE svg
PUBLIC "-//W3C//DTD SVG 1.1//EN"
       "http://www.w3.org/Graphics/SVG/1.1/DTD/svg11.dtd">
<svg version="1.1" xmlns="http://www.w3.org/2000/svg" xmlns:xlink="http://www.w3.org/1999/xlink" width="25.3027" height="20.4785">
 <g>
  <rect height="20.4785" opacity="0" width="25.3027" x="0" y="0"/>
  <path d="M12.6465 6.75781L20.3711 6.75781L20.3711 3.04688C20.3711 1.03516 19.3457 0.0195312 17.3145 0.0195312L3.06641 0.0195312C1.01562 0.0195312 0 1.03516 0 3.04688L0 12.9297C0 14.9414 1.01562 15.957 3.06641 15.957L8.24219 15.957L8.24219 11.123C8.24219 8.36914 9.86328 6.75781 12.6465 6.75781Z" fill="#000000" fill-opacity="0.85"/>
  <path d="M12.6465 20.4785L22.2461 20.4785C24.2773 20.4785 25.3027 19.4629 25.3027 17.4512L25.3027 11.123C25.3027 9.11133 24.2773 8.0957 22.2461 8.0957L12.6465 8.0957C10.6055 8.0957 9.58008 9.10156 9.58008 11.123L9.58008 17.4512C9.58008 19.4629 10.6055 20.4785 12.6465 20.4785Z" fill="#000000" fill-opacity="0.85"/>
 </g>
</svg>
