<?xml version="1.0" encoding="UTF-8"?>
<!--Generator: Apple Native CoreSVG 175.5-->
<!DOCTYPE svg
PUBLIC "-//W3C//DTD SVG 1.1//EN"
       "http://www.w3.org/Graphics/SVG/1.1/DTD/svg11.dtd">
<svg version="1.1" xmlns="http://www.w3.org/2000/svg" xmlns:xlink="http://www.w3.org/1999/xlink" width="24.4141" height="20.1855">
 <g>
  <rect height="20.1855" opacity="0" width="24.4141" x="0" y="0"/>
  <path d="M2.50977 16.875L21.9043 16.875C23.5742 16.875 24.4141 16.084 24.4141 14.3652L24.4141 3.17383C24.4141 1.46484 23.5742 0.673828 21.9043 0.673828L2.50977 0.673828C0.839844 0.673828 0 1.46484 0 3.17383L0 14.3652C0 16.084 0.839844 16.875 2.50977 16.875ZM7.29492 20.1855L17.1191 20.1855C17.5488 20.1855 17.9102 19.834 17.9102 19.3945C17.9102 18.9551 17.5488 18.6035 17.1191 18.6035L7.29492 18.6035C6.86523 18.6035 6.50391 18.9551 6.50391 19.3945C6.50391 19.834 6.86523 20.1855 7.29492 20.1855Z" fill="#000000" fill-opacity="0.85"/>
  <path d="M8.92578 12.9102L8.92578 4.63867C8.92578 4.11133 9.48242 3.92578 9.90234 4.16992L16.6699 8.16406C17.1484 8.44727 17.168 9.10156 16.6797 9.39453L9.90234 13.3789C9.48242 13.623 8.92578 13.4375 8.92578 12.9102Z" fill="#ffffff"/>
 </g>
</svg>
