<?xml version="1.0" encoding="UTF-8"?>
<!--Generator: Apple Native CoreSVG 175.5-->
<!DOCTYPE svg
PUBLIC "-//W3C//DTD SVG 1.1//EN"
       "http://www.w3.org/Graphics/SVG/1.1/DTD/svg11.dtd">
<svg version="1.1" xmlns="http://www.w3.org/2000/svg" xmlns:xlink="http://www.w3.org/1999/xlink" width="16.853" height="17.1484">
 <g>
  <rect height="17.1484" opacity="0" width="16.853" x="0" y="0"/>
  <path d="M10.3198 13.0322L9.16748 11.8799L3.87451 14.9463C3.83545 14.9658 3.79639 14.9854 3.75732 14.9854C3.69873 14.9854 3.65967 14.9463 3.65967 14.8682L3.65967 6.37207L2.0874 4.79004L2.0874 15.4443C2.0874 16.2939 2.53662 16.8506 3.25928 16.8506C3.6499 16.8506 3.98193 16.6943 4.37256 16.4697ZM13.7671 11.04L15.7593 9.8877C16.5698 9.40918 16.853 9.09668 16.853 8.5791C16.853 8.06152 16.5698 7.74902 15.7593 7.28027L4.37256 0.688477C4.021 0.493164 3.71826 0.34668 3.34717 0.317383L7.07764 4.06738L14.6851 8.47168C14.7339 8.50098 14.7729 8.53027 14.7729 8.5791C14.7729 8.62793 14.7339 8.66699 14.6851 8.68652L12.6147 9.89746Z" fill="#000000" fill-opacity="0.85"/>
  <path d="M14.6655 15.7178C14.9683 16.0107 15.4468 16.0107 15.73 15.7178C16.0229 15.4248 16.0327 14.9463 15.73 14.6533L1.28662 0.219727C0.993652-0.0732422 0.515137-0.0732422 0.212402 0.219727C-0.0708008 0.50293-0.0708008 1.00098 0.212402 1.28418Z" fill="#000000" fill-opacity="0.85"/>
 </g>
</svg>
