<?xml version="1.0" encoding="UTF-8"?>
<!--Generator: Apple Native CoreSVG 175.5-->
<!DOCTYPE svg
PUBLIC "-//W3C//DTD SVG 1.1//EN"
       "http://www.w3.org/Graphics/SVG/1.1/DTD/svg11.dtd">
<svg version="1.1" xmlns="http://www.w3.org/2000/svg" xmlns:xlink="http://www.w3.org/1999/xlink" width="28.1641" height="15.9082">
 <g>
  <rect height="15.9082" opacity="0" width="28.1641" x="0" y="0"/>
  <path d="M0 14.7949C0 15.4102 0.498047 15.9082 1.10352 15.9082L27.0605 15.9082C27.666 15.9082 28.1641 15.4102 28.1641 14.7949C28.1641 14.1797 27.666 13.6816 27.0605 13.6816L24.9219 13.6816L24.9219 2.08984C24.9219 0.722656 24.1895 0.0195312 22.832 0.0195312L5.33203 0.0195312C4.04297 0.0195312 3.24219 0.722656 3.24219 2.08984L3.24219 13.6816L1.10352 13.6816C0.498047 13.6816 0 14.1797 0 14.7949ZM4.81445 13.6816L4.81445 2.5293C4.81445 1.9043 5.12695 1.5918 5.75195 1.5918L22.4121 1.5918C23.0371 1.5918 23.3496 1.9043 23.3496 2.5293L23.3496 13.6816Z" fill="#000000" fill-opacity="0.85"/>
  <path d="M11.6602 10.8594C11.6602 11.2598 12.0898 11.4062 12.4121 11.2207L17.6465 8.13477C17.9688 7.93945 17.959 7.51953 17.6367 7.33398L12.4121 4.25781C12.0898 4.0625 11.6602 4.20898 11.6602 4.61914Z" fill="#000000" fill-opacity="0.85"/>
 </g>
</svg>
