<?xml version="1.0" encoding="UTF-8"?>
<!--Generator: Apple Native CoreSVG 175.5-->
<!DOCTYPE svg
PUBLIC "-//W3C//DTD SVG 1.1//EN"
       "http://www.w3.org/Graphics/SVG/1.1/DTD/svg11.dtd">
<svg version="1.1" xmlns="http://www.w3.org/2000/svg" xmlns:xlink="http://www.w3.org/1999/xlink" width="24.2969" height="19.7949">
 <g>
  <rect height="19.7949" opacity="0" width="24.2969" x="0" y="0"/>
  <path d="M7.89062 19.7852L21.2305 19.7852C23.2617 19.7852 24.2969 18.7695 24.2969 16.7578L24.2969 7.54883C24.2969 5.53711 23.2617 4.52148 21.2305 4.52148L7.89062 4.52148C5.83984 4.52148 4.82422 5.53711 4.82422 7.54883L4.82422 16.7578C4.82422 18.7793 5.83984 19.7852 7.89062 19.7852ZM7.89062 3.19336L19.3652 3.19336L19.3652 3.02734C19.3652 1.01562 18.3301 0 16.2988 0L3.06641 0C1.01562 0 0 1.01562 0 3.02734L0 12.2363C0 14.2578 1.01562 15.2637 3.06641 15.2637L3.48633 15.2637L3.48633 7.54883C3.48633 4.79492 5.10742 3.19336 7.89062 3.19336Z" fill="#000000" fill-opacity="0.85"/>
  <path d="M11.7969 15.6836L11.7969 8.62305C11.7969 8.16406 12.2754 7.99805 12.6465 8.21289L18.5645 11.709C18.916 11.9043 18.9258 12.3926 18.5742 12.6074L12.6465 16.0938C12.2754 16.3184 11.7969 16.1426 11.7969 15.6836Z" fill="#ffffff"/>
 </g>
</svg>
