<?xml version="1.0" encoding="UTF-8"?>
<!--Generator: Apple Native CoreSVG 175.5-->
<!DOCTYPE svg
PUBLIC "-//W3C//DTD SVG 1.1//EN"
       "http://www.w3.org/Graphics/SVG/1.1/DTD/svg11.dtd">
<svg version="1.1" xmlns="http://www.w3.org/2000/svg" xmlns:xlink="http://www.w3.org/1999/xlink" width="20.6641" height="20.459">
 <g>
  <rect height="20.459" opacity="0" width="20.6641" x="0" y="0"/>
  <path d="M7.80273 20.459L17.6074 20.459C19.6387 20.459 20.6641 19.4434 20.6641 17.4316L20.6641 7.55859C20.6641 5.54688 19.6387 4.53125 17.6074 4.53125L7.80273 4.53125C5.75195 4.53125 4.73633 5.53711 4.73633 7.55859L4.73633 17.4316C4.73633 19.4531 5.75195 20.459 7.80273 20.459ZM0 12.9199C0 14.9316 1.01562 15.9375 3.06641 15.9375L3.39844 15.9375L3.39844 7.55859C3.39844 4.79492 5.01953 3.19336 7.80273 3.19336L15.9277 3.19336L15.9277 3.03711C15.9277 1.02539 14.9023 0.00976562 12.8711 0.00976562L3.06641 0.00976562C1.01562 0.00976562 0 1.01562 0 3.03711Z" fill="#000000" fill-opacity="0.85"/>
  <path d="M7.93945 12.5098C7.93945 11.9922 8.29102 11.6504 8.80859 11.6504L11.8652 11.6504L11.8652 8.59375C11.8652 8.08594 12.1973 7.72461 12.6953 7.72461C13.2031 7.72461 13.5547 8.07617 13.5547 8.59375L13.5547 11.6504L16.6211 11.6504C17.1191 11.6504 17.4805 11.9922 17.4805 12.5098C17.4805 12.998 17.1191 13.3398 16.6211 13.3398L13.5547 13.3398L13.5547 16.4062C13.5547 16.9043 13.2031 17.2656 12.6953 17.2656C12.1973 17.2656 11.8652 16.9043 11.8652 16.4062L11.8652 13.3398L8.80859 13.3398C8.30078 13.3398 7.93945 12.998 7.93945 12.5098Z" fill="#ffffff"/>
 </g>
</svg>
