<?xml version="1.0" encoding="UTF-8"?>
<!--Generator: Apple Native CoreSVG 175.5-->
<!DOCTYPE svg
PUBLIC "-//W3C//DTD SVG 1.1//EN"
       "http://www.w3.org/Graphics/SVG/1.1/DTD/svg11.dtd">
<svg version="1.1" xmlns="http://www.w3.org/2000/svg" xmlns:xlink="http://www.w3.org/1999/xlink" width="26.3672" height="20.0684">
 <g>
  <rect height="20.0684" opacity="0" width="26.3672" x="0" y="0"/>
  <path d="M3.06641 18.9062L19.4043 18.9062C21.1523 18.9062 22.1777 17.6953 22.1777 15.6836L22.1777 13.1738L14.9121 13.1738C12.1387 13.1738 10.5078 11.5723 10.5078 8.81836L10.5078 7.87109L0 7.87109L0 15.8789C0 17.9004 1.02539 18.9062 3.06641 18.9062ZM0 6.5918L10.5078 6.5918L10.5078 3.52539C10.5078 3.29102 10.5078 3.06641 10.5078 2.82227C10.2246 2.82227 10.0195 2.82227 9.73633 2.82227C9.07227 2.82227 8.67188 2.66602 8.18359 2.24609L7.58789 1.75781C6.94336 1.21094 6.44531 1.03516 5.47852 1.03516L2.69531 1.03516C0.986328 1.03516 0 2.01172 0 3.97461Z" fill="#000000" fill-opacity="0.85"/>
  <path d="M14.9121 11.8457L23.3008 11.8457C25.3418 11.8457 26.3672 10.8301 26.3672 8.81836L26.3672 3.02734C26.3672 1.00586 25.3418 0 23.3008 0L14.9121 0C12.8711 0 11.8555 1.00586 11.8555 3.02734L11.8555 8.81836C11.8555 10.8301 12.8711 11.8457 14.9121 11.8457ZM19.1113 9.02344C18.75 9.02344 18.5156 8.78906 18.5156 8.42773L18.5156 6.52344L16.6016 6.52344C16.25 6.52344 16.0059 6.28906 16.0059 5.91797C16.0059 5.55664 16.25 5.32227 16.6016 5.32227L18.5156 5.32227L18.5156 3.41797C18.5156 3.05664 18.75 2.8125 19.1113 2.8125C19.4727 2.8125 19.707 3.05664 19.707 3.41797L19.707 5.32227L21.6113 5.32227C21.9727 5.32227 22.2168 5.55664 22.2168 5.91797C22.2168 6.28906 21.9727 6.52344 21.6113 6.52344L19.707 6.52344L19.707 8.42773C19.707 8.78906 19.4727 9.02344 19.1113 9.02344Z" fill="#000000" fill-opacity="0.85"/>
 </g>
</svg>
