<?xml version="1.0" encoding="UTF-8"?>
<!--Generator: Apple Native CoreSVG 175.5-->
<!DOCTYPE svg
PUBLIC "-//W3C//DTD SVG 1.1//EN"
       "http://www.w3.org/Graphics/SVG/1.1/DTD/svg11.dtd">
<svg version="1.1" xmlns="http://www.w3.org/2000/svg" xmlns:xlink="http://www.w3.org/1999/xlink" width="24.2969" height="19.7949">
 <g>
  <rect height="19.7949" opacity="0" width="24.2969" x="0" y="0"/>
  <path d="M7.89062 19.7852L21.2305 19.7852C23.2617 19.7852 24.2969 18.7695 24.2969 16.7578L24.2969 7.54883C24.2969 5.53711 23.2617 4.52148 21.2305 4.52148L7.89062 4.52148C5.83984 4.52148 4.82422 5.53711 4.82422 7.54883L4.82422 16.7578C4.82422 18.7793 5.83984 19.7852 7.89062 19.7852ZM7.89062 3.19336L19.3652 3.19336L19.3652 3.02734C19.3652 1.01562 18.3301 0 16.2988 0L3.06641 0C1.01562 0 0 1.01562 0 3.02734L0 12.2363C0 14.2578 1.01562 15.2637 3.06641 15.2637L3.48633 15.2637L3.48633 7.54883C3.48633 4.79492 5.10742 3.19336 7.89062 3.19336Z" fill="#000000" fill-opacity="0.85"/>
  <path d="M9.79492 12.168C9.79492 11.6504 10.1465 11.3086 10.6641 11.3086L13.7207 11.3086L13.7207 8.25195C13.7207 7.74414 14.0527 7.38281 14.5508 7.38281C15.0586 7.38281 15.4102 7.73438 15.4102 8.25195L15.4102 11.3086L18.4766 11.3086C18.9746 11.3086 19.3359 11.6504 19.3359 12.168C19.3359 12.6562 18.9746 12.998 18.4766 12.998L15.4102 12.998L15.4102 16.0645C15.4102 16.5625 15.0586 16.9238 14.5508 16.9238C14.0527 16.9238 13.7207 16.5625 13.7207 16.0645L13.7207 12.998L10.6641 12.998C10.1562 12.998 9.79492 12.6562 9.79492 12.168Z" fill="#ffffff"/>
 </g>
</svg>
