<?xml version="1.0" encoding="UTF-8"?>
<!--Generator: Apple Native CoreSVG 175.5-->
<!DOCTYPE svg
PUBLIC "-//W3C//DTD SVG 1.1//EN"
       "http://www.w3.org/Graphics/SVG/1.1/DTD/svg11.dtd">
<svg version="1.1" xmlns="http://www.w3.org/2000/svg" xmlns:xlink="http://www.w3.org/1999/xlink" width="17.1777" height="21.1621">
 <g>
  <rect height="21.1621" opacity="0" width="17.1777" x="0" y="0"/>
  <path d="M2.35352 6.68945C2.35352 8.64258 3.57422 10.0098 5.89844 10.6543L10.8105 12.041C12.4219 12.5 13.2422 13.3301 13.2422 14.502L13.2422 15.1855L14.8145 15.1855L14.8145 14.502C14.8145 12.5586 13.6035 11.1914 11.2793 10.5469L6.36719 9.16016C4.76562 8.71094 3.92578 7.86133 3.92578 6.68945L3.92578 6.01562L2.35352 6.01562Z" fill="#000000" fill-opacity="0.85"/>
  <path d="M14.0332 14.873C12.2949 14.873 10.8789 16.2793 10.8789 18.0273C10.8789 19.7559 12.2949 21.1621 14.0332 21.1621C15.7715 21.1621 17.1777 19.7559 17.1777 18.0273C17.1777 16.2793 15.7715 14.873 14.0332 14.873ZM14.0332 16.4062C14.9316 16.4062 15.6445 17.1191 15.6445 18.0273C15.6445 18.9258 14.9316 19.6289 14.0332 19.6289C13.1152 19.6289 12.4121 18.9258 12.4121 18.0273C12.4121 17.1191 13.1152 16.4062 14.0332 16.4062ZM3.14453 6.32812C4.88281 6.32812 6.28906 4.91211 6.28906 3.17383C6.28906 1.44531 4.88281 0.0292969 3.14453 0.0292969C1.40625 0.0292969 0 1.44531 0 3.17383C0 4.91211 1.40625 6.32812 3.14453 6.32812ZM3.14453 4.79492C2.24609 4.79492 1.5332 4.08203 1.5332 3.17383C1.5332 2.26562 2.24609 1.5625 3.14453 1.5625C4.05273 1.5625 4.75586 2.26562 4.75586 3.17383C4.75586 4.08203 4.0625 4.79492 3.14453 4.79492Z" fill="#000000" fill-opacity="0.85"/>
 </g>
</svg>
