<?xml version="1.0" encoding="UTF-8"?>
<!--Generator: Apple Native CoreSVG 175.5-->
<!DOCTYPE svg
PUBLIC "-//W3C//DTD SVG 1.1//EN"
       "http://www.w3.org/Graphics/SVG/1.1/DTD/svg11.dtd">
<svg version="1.1" xmlns="http://www.w3.org/2000/svg" xmlns:xlink="http://www.w3.org/1999/xlink" width="17.8793" height="24.7168">
 <g>
  <rect height="24.7168" opacity="0" width="17.8793" x="0" y="0"/>
  <path d="M1.80505 8.17383L2.40075 6.85547C1.9027 6.70898 1.54137 6.23047 1.54137 5.6543C1.54137 4.73633 2.53747 4.12109 3.59215 4.45312C3.45544 3.45703 4.47106 2.71484 5.46715 3.20312C5.16442 2.06055 5.88708 1.41602 6.69762 1.41602C7.48864 1.41602 8.28942 2.02148 8.13317 3.18359C8.76794 2.76367 9.83239 2.85156 10.3695 3.26172C10.6234 2.67578 11.1507 2.33398 11.766 2.33398C12.6449 2.33398 13.1039 3.03711 13.0746 4.01367C14.2855 3.81836 15.1547 4.36523 15.1547 5.49805C15.1547 6.11328 14.6859 6.66992 14.0902 6.8457L14.8812 8.07617C15.8675 7.59766 16.5511 6.57227 16.5511 5.40039C16.5511 3.7207 15.4769 2.53906 13.9242 2.5C13.514 1.55273 12.7621 0.917969 11.6976 0.917969C11.0336 0.917969 10.4183 1.15234 9.94958 1.58203C9.70544 1.51367 9.3734 1.49414 9.0902 1.55273C8.67028 0.605469 7.74255 0 6.69762 0C5.3109 0 4.4027 0.849609 4.22692 1.69922C3.48473 1.63086 2.85973 2.31445 2.85973 2.97852C1.36559 2.92969 0.144889 4.16016 0.144889 5.6543C0.144889 6.78711 0.828483 7.77344 1.80505 8.17383ZM4.50036 23.1348L10.6039 23.1348L10.5453 21.6797L7.46911 21.6797L6.35583 9.46289C6.23864 8.19336 7.02965 7.36328 8.34801 7.36328C9.66637 7.36328 10.4574 8.19336 10.3402 9.46289L9.4027 19.8047L10.9066 19.1406L11.7757 9.52148C11.8734 8.4375 12.5863 7.86133 13.4554 7.86133C14.5199 7.86133 15.4574 8.64258 15.2035 9.95117L13.8949 16.7383L15.35 16.8066L16.6293 10.0293C17.0492 7.85156 15.4281 6.40625 13.4554 6.40625C12.5765 6.40625 11.805 6.75781 11.2582 7.39258C10.7113 6.49414 9.65661 5.9082 8.34801 5.9082C7.03942 5.9082 5.98473 6.49414 5.43786 7.39258C4.89098 6.75781 4.1195 6.40625 3.24059 6.40625C1.26794 6.40625-0.353158 7.85156 0.0667643 10.0293L2.12731 20.9375C2.39098 22.3438 3.10387 23.1348 4.50036 23.1348ZM4.54919 21.6797C4.01208 21.6797 3.69958 21.4062 3.60192 20.8691L1.49255 9.95117C1.23864 8.64258 2.17614 7.86133 3.24059 7.86133C4.10973 7.86133 4.82262 8.4375 4.91051 9.52148L6.01403 21.6797ZM13.68 24.6973C14.6273 24.6973 15.5062 24.1602 15.9164 23.3398C17.0785 23.0664 17.8793 22.041 17.8793 20.8496C17.8793 19.7754 17.2152 18.8672 16.3168 18.4082C16.2582 17.002 15.1058 16.0645 13.68 16.0645C12.2738 16.0645 11.141 16.9629 11.0531 18.3105C9.88122 18.5742 9.01208 19.6191 9.01208 20.8398C9.01208 22.2168 10.0668 23.3105 11.4047 23.4277C11.8539 24.1797 12.723 24.6973 13.68 24.6973ZM13.68 23.4375C12.9281 23.4375 12.2347 22.9688 12.2738 22.0898C11.2777 22.4023 10.2621 21.8848 10.2621 20.8398C10.2621 19.7754 11.1019 19.1797 12.3324 19.3848C12.0101 18.4766 12.4886 17.3242 13.68 17.3242C14.8324 17.3242 15.3793 18.4277 15.0668 19.4531C15.975 19.3555 16.5902 19.9414 16.5902 20.8984C16.5902 21.7383 15.9945 22.2363 15.0179 22.1484C15.0472 22.9004 14.3734 23.4375 13.68 23.4375Z" fill="#000000" fill-opacity="0.85"/>
 </g>
</svg>
