<?xml version="1.0" encoding="UTF-8"?>
<!--Generator: Apple Native CoreSVG 175.5-->
<!DOCTYPE svg
PUBLIC "-//W3C//DTD SVG 1.1//EN"
       "http://www.w3.org/Graphics/SVG/1.1/DTD/svg11.dtd">
<svg version="1.1" xmlns="http://www.w3.org/2000/svg" xmlns:xlink="http://www.w3.org/1999/xlink" width="27.1387" height="18.1738">
 <g>
  <rect height="18.1738" opacity="0" width="27.1387" x="0" y="0"/>
  <path d="M0 11.0547C0 12.5 0.742188 13.2324 2.20703 13.2324L5.625 13.2324C7.08008 13.2324 7.89062 13.6035 8.81836 14.8633C10.4199 17.0117 12.8613 18.1348 15.4004 18.1348L19.0527 18.1348C19.7754 18.1348 20.2246 17.6855 20.2246 16.9824L20.2246 1.12305C20.2246 0.439453 19.7656 0 19.0527 0L15.4004 0C12.8613 0 10.4102 1.11328 8.81836 3.27148C7.89062 4.54102 7.08008 4.91211 5.625 4.91211L2.20703 4.91211C0.742188 4.91211 0 5.63477 0 7.08008ZM19.8535 6.875L25.5566 6.875C26.4258 6.875 27.1387 6.16211 27.1387 5.29297C27.1387 4.42383 26.4258 3.71094 25.5566 3.71094L19.8535 3.71094ZM19.8535 14.4238L25.5566 14.4238C26.4258 14.4238 27.1387 13.7109 27.1387 12.8418C27.1387 11.9727 26.4258 11.2598 25.5566 11.2598L19.8535 11.2598Z" fill="#000000" fill-opacity="0.85"/>
 </g>
</svg>
