<?xml version="1.0" encoding="UTF-8"?>
<!--Generator: Apple Native CoreSVG 175.5-->
<!DOCTYPE svg
PUBLIC "-//W3C//DTD SVG 1.1//EN"
       "http://www.w3.org/Graphics/SVG/1.1/DTD/svg11.dtd">
<svg version="1.1" xmlns="http://www.w3.org/2000/svg" xmlns:xlink="http://www.w3.org/1999/xlink" width="21.9434" height="21.3379">
 <g>
  <rect height="21.3379" opacity="0" width="21.9434" x="0" y="0"/>
  <path d="M5.44922 21.3379L16.4941 21.3379C17.7344 21.3379 18.3594 20.7812 18.3594 19.4824L18.3594 17.6074L19.0332 17.6074C20.9375 17.6074 21.9434 16.6504 21.9434 14.7461L21.9434 6.79688C21.9434 4.89258 20.9375 3.92578 19.0332 3.92578L2.90039 3.92578C1.10352 3.92578 0 4.89258 0 6.79688L0 14.7461C0 16.6504 1.00586 17.6074 2.90039 17.6074L3.58398 17.6074L3.58398 19.4824C3.58398 20.7812 4.20898 21.3379 5.44922 21.3379ZM6.23047 19.873C5.70312 19.873 5.44922 19.6191 5.44922 19.0918L5.44922 11.8359C5.44922 11.3184 5.71289 11.0645 6.23047 11.0645L15.7227 11.0645C16.2402 11.0645 16.4941 11.3184 16.4941 11.8359L16.4941 19.0918C16.4941 19.6191 16.2402 19.873 15.7227 19.873ZM3.86719 2.62695L18.0762 2.62695L18.0762 2.46094C18.0762 1.01562 16.9531 0.371094 15.3711 0.371094L6.57227 0.371094C5.05859 0.371094 3.86719 1.01562 3.86719 2.46094ZM7.85156 13.6816C8.33984 13.6816 8.74023 13.3008 8.74023 12.8027C8.74023 12.3145 8.33984 11.9336 7.85156 11.9336C7.37305 11.9336 6.97266 12.3145 6.97266 12.8027C6.97266 13.3008 7.37305 13.6816 7.85156 13.6816ZM7.85156 16.3672C8.33984 16.3672 8.74023 15.9863 8.74023 15.498C8.74023 15.0098 8.33984 14.6191 7.85156 14.6191C7.37305 14.6191 6.97266 15.0098 6.97266 15.498C6.97266 15.9863 7.37305 16.3672 7.85156 16.3672ZM7.85156 19.0625C8.33984 19.0625 8.74023 18.6816 8.74023 18.1836C8.74023 17.6953 8.33984 17.3145 7.85156 17.3145C7.37305 17.3145 6.97266 17.6953 6.97266 18.1836C6.97266 18.6816 7.37305 19.0625 7.85156 19.0625ZM14.1016 13.6816C14.5898 13.6816 14.9805 13.3008 14.9805 12.8027C14.9805 12.3145 14.5898 11.9336 14.1016 11.9336C13.6133 11.9336 13.2227 12.3145 13.2227 12.8027C13.2227 13.3008 13.6133 13.6816 14.1016 13.6816ZM14.1016 16.3672C14.5898 16.3672 14.9805 15.9863 14.9805 15.498C14.9805 15.0098 14.5898 14.6191 14.1016 14.6191C13.6133 14.6191 13.2227 15.0098 13.2227 15.498C13.2227 15.9863 13.6133 16.3672 14.1016 16.3672ZM14.1016 19.0625C14.5898 19.0625 14.9805 18.6816 14.9805 18.1836C14.9805 17.6953 14.5898 17.3145 14.1016 17.3145C13.6133 17.3145 13.2227 17.6953 13.2227 18.1836C13.2227 18.6816 13.6133 19.0625 14.1016 19.0625ZM15.7227 7.1582C15.7227 6.48438 16.2988 5.89844 16.9922 5.89844C17.6562 5.89844 18.2422 6.48438 18.2422 7.1582C18.2422 7.85156 17.6562 8.39844 16.9922 8.4082C16.2988 8.4082 15.7227 7.86133 15.7227 7.1582Z" fill="#000000" fill-opacity="0.85"/>
 </g>
</svg>
