<?xml version="1.0" encoding="UTF-8"?>
<!--Generator: Apple Native CoreSVG 175.5-->
<!DOCTYPE svg
PUBLIC "-//W3C//DTD SVG 1.1//EN"
       "http://www.w3.org/Graphics/SVG/1.1/DTD/svg11.dtd">
<svg version="1.1" xmlns="http://www.w3.org/2000/svg" xmlns:xlink="http://www.w3.org/1999/xlink" width="21.9434" height="21.3379">
 <g>
  <rect height="21.3379" opacity="0" width="21.9434" x="0" y="0"/>
  <path d="M5.44922 21.3379L16.4941 21.3379C17.7344 21.3379 18.3594 20.7812 18.3594 19.4824L18.3594 17.6074L19.0332 17.6074C20.9375 17.6074 21.9434 16.6504 21.9434 14.7461L21.9434 6.79688C21.9434 4.89258 20.9375 3.92578 19.0332 3.92578L2.90039 3.92578C1.10352 3.92578 0 4.89258 0 6.79688L0 14.7461C0 16.6504 1.00586 17.6074 2.90039 17.6074L3.58398 17.6074L3.58398 19.4824C3.58398 20.7812 4.20898 21.3379 5.44922 21.3379ZM5.9375 19.873C5.41016 19.873 5.15625 19.6191 5.15625 19.0918L5.15625 11.8359C5.15625 11.3184 5.41992 11.0645 5.9375 11.0645L16.0156 11.0645C16.5332 11.0645 16.7871 11.3184 16.7871 11.8359L16.7871 19.0918C16.7871 19.6191 16.5332 19.873 16.0156 19.873ZM3.86719 2.62695L18.0762 2.62695L18.0762 2.46094C18.0762 1.01562 16.9531 0.371094 15.3711 0.371094L6.57227 0.371094C5.05859 0.371094 3.86719 1.01562 3.86719 2.46094ZM7.58789 14.3945L14.375 14.3945C14.7168 14.3945 14.9805 14.1309 14.9805 13.7793C14.9805 13.4473 14.7168 13.1934 14.375 13.1934L7.58789 13.1934C7.22656 13.1934 6.97266 13.4473 6.97266 13.7793C6.97266 14.1309 7.22656 14.3945 7.58789 14.3945ZM7.58789 17.8027L14.375 17.8027C14.7168 17.8027 14.9805 17.5391 14.9805 17.207C14.9805 16.8652 14.7168 16.6016 14.375 16.6016L7.58789 16.6016C7.22656 16.6016 6.97266 16.8652 6.97266 17.207C6.97266 17.5391 7.22656 17.8027 7.58789 17.8027ZM15.7227 7.1582C15.7227 6.48438 16.2988 5.89844 16.9922 5.89844C17.6562 5.89844 18.2422 6.48438 18.2422 7.1582C18.2422 7.85156 17.6562 8.39844 16.9922 8.4082C16.2988 8.4082 15.7227 7.86133 15.7227 7.1582Z" fill="#000000" fill-opacity="0.85"/>
 </g>
</svg>
