<?xml version="1.0" encoding="UTF-8"?>
<!--Generator: Apple Native CoreSVG 175.5-->
<!DOCTYPE svg
PUBLIC "-//W3C//DTD SVG 1.1//EN"
       "http://www.w3.org/Graphics/SVG/1.1/DTD/svg11.dtd">
<svg version="1.1" xmlns="http://www.w3.org/2000/svg" xmlns:xlink="http://www.w3.org/1999/xlink" width="23.2715" height="18.916">
 <g>
  <rect height="18.916" opacity="0" width="23.2715" x="0" y="0"/>
  <path d="M0 15.9277C0 17.8613 0.996094 18.877 2.91992 18.877L15 18.877C16.9434 18.877 17.959 17.8809 17.959 15.9668L17.959 11.8457C17.959 11.6504 18.1152 11.5625 18.3105 11.7188C18.8477 12.1289 19.4824 12.4609 20.3223 12.4609C21.9824 12.4609 23.2715 11.1523 23.2715 9.47266C23.2715 7.80273 21.9824 6.49414 20.3223 6.49414C19.4824 6.49414 18.8477 6.82617 18.3105 7.23633C18.1152 7.39258 17.959 7.30469 17.959 7.10938L17.959 2.91016C17.959 0.996094 16.9434 0 15 0L2.91992 0C0.996094 0 0 1.01562 0 2.94922L0 7.13867C0 7.77344 0.498047 8.19336 1.08398 8.19336C1.40625 8.19336 1.74805 8.05664 2.05078 7.76367C2.50977 7.33398 3.07617 6.78711 4.20898 6.78711C5.68359 6.78711 6.8457 7.95898 6.8457 9.45312C6.8457 10.9473 5.68359 12.1191 4.20898 12.1191C3.07617 12.1191 2.50977 11.5625 2.05078 11.1328C1.74805 10.8496 1.40625 10.7129 1.08398 10.7129C0.498047 10.7129 0 11.1328 0 11.7676Z" fill="#000000" fill-opacity="0.85"/>
 </g>
</svg>
