<?xml version="1.0" encoding="UTF-8"?>
<!--Generator: Apple Native CoreSVG 175.5-->
<!DOCTYPE svg
PUBLIC "-//W3C//DTD SVG 1.1//EN"
       "http://www.w3.org/Graphics/SVG/1.1/DTD/svg11.dtd">
<svg version="1.1" xmlns="http://www.w3.org/2000/svg" xmlns:xlink="http://www.w3.org/1999/xlink" width="17.7734" height="17.7832">
 <g>
  <rect height="17.7832" opacity="0" width="17.7734" x="0" y="0"/>
  <path d="M16.6309 1.15234C15.6348 0.15625 14.2285 0 12.5586 0L5.18555 0C3.54492 0 2.13867 0.15625 1.14258 1.15234C0.146484 2.14844 0 3.54492 0 5.17578L0 12.5586C0 14.2285 0.146484 15.6152 1.14258 16.6113C2.13867 17.6074 3.54492 17.7637 5.20508 17.7637L12.5586 17.7637C14.2285 17.7637 15.6348 17.6074 16.6309 16.6113C17.627 15.6152 17.7734 14.2285 17.7734 12.5586L17.7734 5.20508C17.7734 3.53516 17.627 2.13867 16.6309 1.15234Z" fill="#000000" fill-opacity="0.85"/>
  <path d="M8.69141 10.9766C8.16406 10.9766 7.88086 10.7031 7.88086 10.1758C7.88086 10.1367 7.88086 10.0879 7.88086 10.0488C7.88086 9.05273 8.41797 8.52539 9.14062 8.01758C10.0195 7.40234 10.4492 7.07031 10.4492 6.38672C10.4492 5.625 9.84375 5.10742 8.93555 5.10742C8.27148 5.10742 7.74414 5.43945 7.38281 6.02539L7.20703 6.26953C7.02148 6.50391 6.80664 6.66992 6.46484 6.66992C6.12305 6.66992 5.76172 6.42578 5.76172 5.97656C5.76172 5.80078 5.80078 5.63477 5.84961 5.47852C6.13281 4.55078 7.26562 3.74023 9.00391 3.74023C10.7227 3.74023 12.207 4.62891 12.207 6.30859C12.207 7.51953 11.5039 8.10547 10.5273 8.75C9.83398 9.20898 9.50195 9.57031 9.50195 10.1367C9.50195 10.166 9.50195 10.2148 9.50195 10.2539C9.50195 10.6543 9.19922 10.9766 8.69141 10.9766ZM8.66211 13.9746C8.08594 13.9746 7.56836 13.5059 7.56836 12.9297C7.56836 12.3535 8.07617 11.875 8.66211 11.875C9.25781 11.875 9.75586 12.3438 9.75586 12.9297C9.75586 13.5156 9.24805 13.9746 8.66211 13.9746Z" fill="#ffffff"/>
 </g>
</svg>
