<?xml version="1.0" encoding="UTF-8"?>
<!--Generator: Apple Native CoreSVG 175.5-->
<!DOCTYPE svg
PUBLIC "-//W3C//DTD SVG 1.1//EN"
       "http://www.w3.org/Graphics/SVG/1.1/DTD/svg11.dtd">
<svg version="1.1" xmlns="http://www.w3.org/2000/svg" xmlns:xlink="http://www.w3.org/1999/xlink" width="19.9805" height="25.2441">
 <g>
  <rect height="25.2441" opacity="0" width="19.9805" x="0" y="0"/>
  <path d="M9.99023 17.7441C16.2305 17.7441 19.9805 14.9316 19.9805 11.4453C19.9805 7.96875 16.2305 5.15625 9.98047 5.15625C3.75 5.15625 0 7.96875 0 11.4453C0 14.9316 3.75 17.7441 9.99023 17.7441ZM9.99023 22.1777C12.3633 22.1777 13.7695 21.0645 13.7695 19.1895L13.7695 18.7012C12.5879 18.9355 11.3281 19.0723 9.99023 19.0723C8.65234 19.0723 7.39258 18.9355 6.2207 18.7012L6.2207 19.1895C6.2207 21.0645 7.62695 22.1777 9.99023 22.1777Z" fill="#000000" fill-opacity="0.85"/>
  <path d="M8.38867 14.4531C8.01758 14.4531 7.7832 14.1895 7.7832 13.7793L7.7832 9.02344C7.7832 8.59375 8.01758 8.33008 8.38867 8.33008L10.2246 8.33008C11.5625 8.33008 12.4414 9.11133 12.4414 10.3223C12.4414 11.1133 11.9922 11.7871 11.2598 12.0801L12.168 13.4961C12.2559 13.6328 12.3047 13.7598 12.3047 13.9258C12.3047 14.248 12.041 14.4727 11.7285 14.4727C11.4746 14.4727 11.3086 14.3652 11.1426 14.082L10.0391 12.2852L9.01367 12.2852L9.01367 13.7793C9.01367 14.1895 8.76953 14.4531 8.38867 14.4531ZM9.01367 11.3281L10.0781 11.3281C10.8105 11.3281 11.2207 10.9668 11.2207 10.3418C11.2207 9.7168 10.8008 9.32617 10.0977 9.32617L9.01367 9.32617Z" fill="#ffffff"/>
  <path d="M7.60742 1.19141L9.55078 3.80859C9.81445 4.16992 10.3125 4.16992 10.5762 3.80859L12.5391 1.19141C12.9297 0.673828 12.7246 0 12.0215 0L8.10547 0C7.44141 0 7.19727 0.654297 7.60742 1.19141Z" fill="#000000" fill-opacity="0.85"/>
 </g>
</svg>
