<?xml version="1.0" encoding="UTF-8"?>
<!--Generator: Apple Native CoreSVG 175.5-->
<!DOCTYPE svg
PUBLIC "-//W3C//DTD SVG 1.1//EN"
       "http://www.w3.org/Graphics/SVG/1.1/DTD/svg11.dtd">
<svg version="1.1" xmlns="http://www.w3.org/2000/svg" xmlns:xlink="http://www.w3.org/1999/xlink" width="20.1367" height="19.1113">
 <g>
  <rect height="19.1113" opacity="0" width="20.1367" x="0" y="0"/>
  <path d="M10.0684 14.9707C16.1621 14.9707 20.1367 12.2754 20.1367 8.37891C20.1367 4.49219 16.1523 1.79688 10.0586 1.79688C3.97461 1.79688 0 4.49219 0 8.37891C0 12.2754 3.97461 14.9707 10.0684 14.9707ZM10.0684 13.291C5.09766 13.291 1.76758 11.2988 1.76758 8.37891C1.76758 5.45898 5.09766 3.47656 10.0586 3.47656C15.0293 3.47656 18.3691 5.45898 18.3691 8.37891C18.3691 11.2988 15.0391 13.291 10.0684 13.291ZM10.0684 19.1113C12.4414 19.1113 13.8477 17.998 13.8477 16.123L13.8477 15.7324C12.6855 15.9766 11.4258 16.1035 10.0684 16.1035C8.71094 16.1035 7.45117 15.9766 6.29883 15.7324L6.29883 16.123C6.29883 17.998 7.70508 19.1113 10.0684 19.1113Z" fill="#000000" fill-opacity="0.85"/>
  <path d="M8.4375 11.2988C8.80859 11.2988 9.04297 11.0449 9.04297 10.6445L9.04297 9.18945L10.0391 9.18945L11.1133 10.9375C11.2793 11.2109 11.4355 11.3086 11.6797 11.3086C11.9824 11.3086 12.2363 11.0938 12.2363 10.7812C12.2363 10.625 12.1875 10.498 12.0996 10.3711L11.2207 8.99414C11.9336 8.71094 12.3633 8.05664 12.3633 7.28516C12.3633 6.11328 11.5137 5.36133 10.2246 5.36133L8.4375 5.36133C8.08594 5.36133 7.86133 5.61523 7.86133 6.02539L7.86133 10.6445C7.86133 11.0449 8.08594 11.2988 8.4375 11.2988ZM9.04297 8.26172L9.04297 6.31836L10.0977 6.31836C10.7812 6.31836 11.1914 6.69922 11.1914 7.30469C11.1914 7.91016 10.791 8.26172 10.0781 8.26172Z" fill="#000000" fill-opacity="0.85"/>
 </g>
</svg>
