<?xml version="1.0" encoding="UTF-8"?>
<!--Generator: Apple Native CoreSVG 175.5-->
<!DOCTYPE svg
PUBLIC "-//W3C//DTD SVG 1.1//EN"
       "http://www.w3.org/Graphics/SVG/1.1/DTD/svg11.dtd">
<svg version="1.1" xmlns="http://www.w3.org/2000/svg" xmlns:xlink="http://www.w3.org/1999/xlink" width="24.7949" height="29.8096">
 <g>
  <rect height="29.8096" opacity="0" width="24.7949" x="0" y="0"/>
  <path d="M12.3926 27.2925C19.2383 27.2925 24.7949 21.7456 24.7949 14.8999C24.7949 9.45068 21.2695 4.81201 16.3672 3.16162C16.4453 3.71826 16.2988 4.2749 15.957 4.68506C20.1855 6.15967 23.2227 10.1733 23.2227 14.8999C23.2227 20.8765 18.3691 25.7202 12.3926 25.7202C6.41602 25.7202 1.57227 20.8765 1.57227 14.8999C1.57227 10.1636 4.61914 6.1499 8.84766 4.68506C8.51562 4.26514 8.35938 3.7085 8.4375 3.15186C3.53516 4.79248 0 9.44092 0 14.8999C0 21.7456 5.54688 27.2925 12.3926 27.2925Z" fill="#000000" fill-opacity="0.85"/>
  <path d="M12.3926 23.4741C17.1387 23.4741 20.9766 19.6362 20.9766 14.8999C20.9766 10.1636 17.1387 6.31592 12.3926 6.31592C7.65625 6.31592 3.81836 10.1636 3.81836 14.8999C3.81836 19.6362 7.65625 23.4741 12.3926 23.4741ZM12.3926 21.9019C8.52539 21.9019 5.39062 18.7671 5.39062 14.8999C5.39062 11.0327 8.52539 7.88818 12.3926 7.88818C16.2695 7.88818 19.4043 11.0327 19.4043 14.8999C19.4043 18.7671 16.2695 21.9019 12.3926 21.9019ZM9.94141 2.88818C9.54102 3.42529 9.77539 4.07959 10.4492 4.07959L14.3555 4.07959C15.0586 4.07959 15.2637 3.40576 14.873 2.88818L12.9199 0.270996C12.6465-0.090332 12.1484-0.090332 11.8848 0.270996ZM10.0195 19.1479C10.5078 19.1479 10.7715 18.8354 10.7715 18.3276L10.7715 16.0132L12.5 16.0132L14.1113 18.6597C14.3262 19.021 14.5215 19.1479 14.8438 19.1479C15.2441 19.1479 15.5176 18.894 15.5176 18.5229C15.5176 18.3179 15.4688 18.1616 15.3516 17.9858L13.9551 15.7983C15.0488 15.437 15.752 14.4702 15.752 13.3179C15.752 11.6479 14.5605 10.5835 12.6758 10.5835L10.0195 10.5835C9.54102 10.5835 9.28711 10.9253 9.28711 11.4233L9.28711 18.3276C9.28711 18.8159 9.54102 19.1479 10.0195 19.1479ZM10.7715 14.9292L10.7715 11.7163L12.5 11.7163C13.5645 11.7163 14.2871 12.312 14.2871 13.3569C14.2871 14.3628 13.584 14.9292 12.4609 14.9292Z" fill="#000000" fill-opacity="0.85"/>
 </g>
</svg>
