<?xml version="1.0" encoding="UTF-8"?>
<!--Generator: Apple Native CoreSVG 175.5-->
<!DOCTYPE svg
PUBLIC "-//W3C//DTD SVG 1.1//EN"
       "http://www.w3.org/Graphics/SVG/1.1/DTD/svg11.dtd">
<svg version="1.1" xmlns="http://www.w3.org/2000/svg" xmlns:xlink="http://www.w3.org/1999/xlink" width="24.7949" height="29.7827">
 <g>
  <rect height="29.7827" opacity="0" width="24.7949" x="0" y="0"/>
  <path d="M12.3926 2.49391C5.54688 2.49391 0 8.04078 0 14.8865C0 20.3455 3.53516 24.9841 8.4375 26.6345C8.35938 26.0681 8.51562 25.5213 8.84766 25.1013C4.61914 23.6365 1.57227 19.6228 1.57227 14.8865C1.57227 8.90992 6.41602 4.06617 12.3926 4.06617C18.3691 4.06617 23.2227 8.90992 23.2227 14.8865C23.2227 19.6033 20.1855 23.6267 15.957 25.1013C16.2988 25.5115 16.4453 26.0584 16.3672 26.6248C21.2695 24.9646 24.7949 20.3357 24.7949 14.8865C24.7949 8.04078 19.2383 2.49391 12.3926 2.49391Z" fill="#000000" fill-opacity="0.85"/>
  <path d="M12.3926 6.3025C7.65625 6.3025 3.81836 10.1502 3.81836 14.8865C3.81836 19.6228 7.65625 23.4607 12.3926 23.4607C17.1387 23.4607 20.9766 19.6228 20.9766 14.8865C20.9766 10.1502 17.1387 6.3025 12.3926 6.3025ZM12.3926 7.87477C16.2695 7.87477 19.4043 11.0193 19.4043 14.8865C19.4043 18.7537 16.2695 21.8884 12.3926 21.8884C8.52539 21.8884 5.39062 18.7537 5.39062 14.8865C5.39062 11.0193 8.52539 7.87477 12.3926 7.87477ZM9.94141 26.8982L11.8848 29.5154C12.1484 29.8767 12.6465 29.867 12.9199 29.5154L14.873 26.8982C15.2637 26.3806 15.0586 25.7068 14.3555 25.7068L10.4492 25.7068C9.77539 25.7068 9.54102 26.3611 9.94141 26.8982ZM10.0195 19.1345C10.5078 19.1345 10.7715 18.822 10.7715 18.3142L10.7715 15.9998L12.5 15.9998L14.1113 18.6463C14.3262 19.0076 14.5215 19.1345 14.8438 19.1345C15.2441 19.1345 15.5176 18.8806 15.5176 18.5095C15.5176 18.3045 15.4688 18.1482 15.3516 17.9724L13.9551 15.7849C15.0488 15.4236 15.752 14.4568 15.752 13.3045C15.752 11.6345 14.5605 10.5701 12.6758 10.5701L10.0195 10.5701C9.54102 10.5701 9.28711 10.9119 9.28711 11.4099L9.28711 18.3142C9.28711 18.8025 9.54102 19.1345 10.0195 19.1345ZM10.7715 14.9158L10.7715 11.7029L12.5 11.7029C13.5645 11.7029 14.2871 12.2986 14.2871 13.3435C14.2871 14.3494 13.584 14.9158 12.4609 14.9158Z" fill="#000000" fill-opacity="0.85"/>
 </g>
</svg>
