<?xml version="1.0" encoding="UTF-8"?>
<!--Generator: Apple Native CoreSVG 175.5-->
<!DOCTYPE svg
PUBLIC "-//W3C//DTD SVG 1.1//EN"
       "http://www.w3.org/Graphics/SVG/1.1/DTD/svg11.dtd">
<svg version="1.1" xmlns="http://www.w3.org/2000/svg" xmlns:xlink="http://www.w3.org/1999/xlink" width="27.2925" height="24.7949">
 <g>
  <rect height="24.7949" opacity="0" width="27.2925" x="0" y="0"/>
  <path d="M12.3926 0C5.54688 0 0 5.54688 0 12.3926C0 19.2383 5.54688 24.7852 12.3926 24.7852C17.8418 24.7852 22.4707 21.2598 24.1309 16.3672C23.5645 16.4453 23.0176 16.2891 22.6074 15.957C21.1328 20.1855 17.1191 23.2129 12.3926 23.2129C6.41602 23.2129 1.57227 18.3691 1.57227 12.3926C1.57227 6.41602 6.41602 1.57227 12.3926 1.57227C17.1289 1.57227 21.1426 4.60938 22.6074 8.84766C23.0273 8.50586 23.5742 8.35938 24.1406 8.4375C22.4902 3.53516 17.8516 0 12.3926 0Z" fill="#000000" fill-opacity="0.85"/>
  <path d="M12.3926 20.9668C17.1289 20.9668 20.9766 17.1289 20.9766 12.3926C20.9766 7.65625 17.1289 3.80859 12.3926 3.80859C7.65625 3.80859 3.80859 7.65625 3.80859 12.3926C3.80859 17.1289 7.65625 20.9668 12.3926 20.9668ZM12.3926 19.3945C8.52539 19.3945 5.38086 16.2598 5.38086 12.3926C5.38086 8.52539 8.52539 5.38086 12.3926 5.38086C16.2598 5.38086 19.4043 8.52539 19.4043 12.3926C19.4043 16.2598 16.2598 19.3945 12.3926 19.3945ZM24.4043 9.93164C23.8672 9.52148 23.2129 9.76562 23.2129 10.4395L23.2129 14.3555C23.2129 15.0488 23.8867 15.2539 24.4043 14.8633L27.0215 12.9102C27.3828 12.6465 27.3828 12.1484 27.0215 11.8848ZM10.0195 16.6406C10.5078 16.6406 10.7715 16.3281 10.7715 15.8203L10.7715 13.5059L12.5 13.5059L14.1113 16.1523C14.3262 16.5137 14.5215 16.6406 14.8438 16.6406C15.2441 16.6406 15.5176 16.3867 15.5176 16.0156C15.5176 15.8105 15.4688 15.6543 15.3516 15.4785L13.9551 13.291C15.0488 12.9297 15.752 11.9629 15.752 10.8105C15.752 9.14062 14.5605 8.07617 12.6758 8.07617L10.0195 8.07617C9.54102 8.07617 9.28711 8.41797 9.28711 8.91602L9.28711 15.8203C9.28711 16.3086 9.54102 16.6406 10.0195 16.6406ZM10.7715 12.4219L10.7715 9.20898L12.5 9.20898C13.5645 9.20898 14.2871 9.80469 14.2871 10.8496C14.2871 11.8555 13.584 12.4219 12.4609 12.4219Z" fill="#000000" fill-opacity="0.85"/>
 </g>
</svg>
