<?xml version="1.0" encoding="UTF-8"?>
<!--Generator: Apple Native CoreSVG 175.5-->
<!DOCTYPE svg
PUBLIC "-//W3C//DTD SVG 1.1//EN"
       "http://www.w3.org/Graphics/SVG/1.1/DTD/svg11.dtd">
<svg version="1.1" xmlns="http://www.w3.org/2000/svg" xmlns:xlink="http://www.w3.org/1999/xlink" width="23.6133" height="17.998">
 <g>
  <rect height="17.998" opacity="0" width="23.6133" x="0" y="0"/>
  <path d="M8.39844 17.998L15.2246 17.998C21.0352 17.998 23.6133 15.332 23.6133 9.85352L23.6133 3.04688C23.6133 1.03516 22.5879 0.0195312 20.5469 0.0195312L3.06641 0.0195312C1.02539 0.0195312 0 1.02539 0 3.04688L0 9.85352C0 15.332 2.57812 17.998 8.39844 17.998ZM8.39844 16.4062C3.65234 16.4062 1.57227 14.3262 1.57227 9.95117L1.57227 3.125C1.57227 2.10938 2.10938 1.5918 3.08594 1.5918L20.5273 1.5918C21.4941 1.5918 22.041 2.10938 22.041 3.125L22.041 9.95117C22.041 14.3262 19.9609 16.4062 15.2148 16.4062Z" fill="#000000" fill-opacity="0.85"/>
  <path d="M9.30664 13.4961C9.82422 13.4961 10.0977 13.1738 10.0977 12.627L10.0977 10.2051L11.9141 10.2051L13.6133 12.9883C13.8477 13.3594 14.043 13.4961 14.3848 13.4961C14.8047 13.4961 15.0977 13.2227 15.0977 12.832C15.0977 12.6172 15.0488 12.4609 14.9219 12.2656L13.457 9.98047C14.5996 9.59961 15.3516 8.57422 15.3516 7.35352C15.3516 5.60547 14.0918 4.48242 12.1094 4.48242L9.30664 4.48242C8.80859 4.48242 8.54492 4.84375 8.54492 5.36133L8.54492 12.627C8.54492 13.1543 8.80859 13.4961 9.30664 13.4961ZM10.0977 9.0625L10.0977 5.67383L11.9238 5.67383C13.0469 5.67383 13.7988 6.29883 13.7988 7.39258C13.7988 8.4668 13.0664 9.0625 11.8848 9.0625Z" fill="#000000" fill-opacity="0.85"/>
 </g>
</svg>
