<?xml version="1.0" encoding="UTF-8"?>
<!--Generator: Apple Native CoreSVG 175.5-->
<!DOCTYPE svg
PUBLIC "-//W3C//DTD SVG 1.1//EN"
       "http://www.w3.org/Graphics/SVG/1.1/DTD/svg11.dtd">
<svg version="1.1" xmlns="http://www.w3.org/2000/svg" xmlns:xlink="http://www.w3.org/1999/xlink" width="23.6133" height="17.998">
 <g>
  <rect height="17.998" opacity="0" width="23.6133" x="0" y="0"/>
  <path d="M8.39844 17.998L15.2246 17.998C21.0352 17.998 23.6133 15.332 23.6133 9.85352L23.6133 3.04688C23.6133 1.03516 22.5879 0.0195312 20.5469 0.0195312L3.06641 0.0195312C1.02539 0.0195312 0 1.02539 0 3.04688L0 9.85352C0 15.332 2.57812 17.998 8.39844 17.998ZM8.39844 16.4062C3.65234 16.4062 1.57227 14.3262 1.57227 9.95117L1.57227 3.125C1.57227 2.10938 2.10938 1.5918 3.08594 1.5918L20.5273 1.5918C21.4941 1.5918 22.041 2.10938 22.041 3.125L22.041 9.95117C22.041 14.3262 19.9609 16.4062 15.2148 16.4062Z" fill="#000000" fill-opacity="0.85"/>
  <path d="M6.57227 13.4961C7.08008 13.4961 7.36328 13.1738 7.36328 12.627L7.36328 10.2051L9.17969 10.2051L10.8691 12.9883C11.1035 13.3594 11.3086 13.4961 11.6504 13.4961C12.0703 13.4961 12.3633 13.2227 12.3633 12.832C12.3633 12.6172 12.3047 12.4609 12.1777 12.2656L10.7129 9.98047C11.8652 9.59961 12.6074 8.57422 12.6074 7.35352C12.6074 5.60547 11.3477 4.48242 9.375 4.48242L6.5625 4.48242C6.06445 4.48242 5.80078 4.84375 5.80078 5.36133L5.80078 12.627C5.80078 13.1543 6.07422 13.4961 6.57227 13.4961ZM7.36328 9.0625L7.36328 5.67383L9.17969 5.67383C10.3027 5.67383 11.0645 6.29883 11.0645 7.39258C11.0645 8.4668 10.3223 9.0625 9.14062 9.0625ZM17.0898 13.6035C17.5977 13.6035 17.8809 13.2812 17.8809 12.7246L17.8809 5.27344C17.8809 4.70703 17.5781 4.38477 17.0508 4.38477C16.6895 4.38477 16.4355 4.48242 16.0254 4.77539L14.2676 5.9668C14.0527 6.11328 13.9648 6.26953 13.9648 6.51367C13.9648 6.81641 14.1992 7.08984 14.5117 7.08984C14.6582 7.08984 14.7656 7.07031 14.9902 6.92383L16.25 6.08398L16.3184 6.08398L16.3184 12.7246C16.3184 13.2812 16.6113 13.6035 17.0898 13.6035Z" fill="#000000" fill-opacity="0.85"/>
 </g>
</svg>
