<?xml version="1.0" encoding="UTF-8"?>
<!--Generator: Apple Native CoreSVG 175.5-->
<!DOCTYPE svg
PUBLIC "-//W3C//DTD SVG 1.1//EN"
       "http://www.w3.org/Graphics/SVG/1.1/DTD/svg11.dtd">
<svg version="1.1" xmlns="http://www.w3.org/2000/svg" xmlns:xlink="http://www.w3.org/1999/xlink" width="23.6133" height="17.998">
 <g>
  <rect height="17.998" opacity="0" width="23.6133" x="0" y="0"/>
  <path d="M8.39844 17.998L15.2246 17.998C21.0352 17.998 23.6133 15.332 23.6133 9.85352L23.6133 3.04688C23.6133 1.03516 22.5879 0.0195312 20.5469 0.0195312L3.06641 0.0195312C1.02539 0.0195312 0 1.02539 0 3.04688L0 9.85352C0 15.332 2.57812 17.998 8.39844 17.998Z" fill="#000000" fill-opacity="0.85"/>
  <path d="M6.40625 13.6426C5.88867 13.6426 5.60547 13.2812 5.60547 12.7344L5.60547 5.25391C5.60547 4.7168 5.87891 4.33594 6.39648 4.33594L9.29688 4.33594C11.3379 4.33594 12.6367 5.49805 12.6367 7.30469C12.6367 8.56445 11.8652 9.61914 10.6836 10.0098L12.1875 12.3633C12.3242 12.5684 12.3828 12.7246 12.3828 12.9492C12.3828 13.3594 12.0801 13.6426 11.6406 13.6426C11.2891 13.6426 11.0742 13.4961 10.8301 13.1152L9.0918 10.2441L7.22656 10.2441L7.22656 12.7344C7.22656 13.3008 6.93359 13.6426 6.40625 13.6426ZM7.22656 9.0625L9.05273 9.0625C10.2734 9.0625 11.0352 8.44727 11.0352 7.34375C11.0352 6.2207 10.2539 5.57617 9.0918 5.57617L7.22656 5.57617ZM17.2559 13.75C16.7578 13.75 16.4551 13.418 16.4551 12.8418L16.4551 5.99609L16.3867 5.99609L15.0977 6.86523C14.8633 7.01172 14.7461 7.03125 14.5996 7.03125C14.2773 7.03125 14.0332 6.74805 14.0332 6.43555C14.0332 6.18164 14.1211 6.02539 14.3457 5.86914L16.1523 4.63867C16.582 4.33594 16.8457 4.23828 17.2168 4.23828C17.7637 4.23828 18.0762 4.57031 18.0762 5.15625L18.0762 12.8418C18.0762 13.418 17.7832 13.75 17.2559 13.75Z" fill="#ffffff"/>
 </g>
</svg>
