<?xml version="1.0" encoding="UTF-8"?>
<!--Generator: Apple Native CoreSVG 175.5-->
<!DOCTYPE svg
PUBLIC "-//W3C//DTD SVG 1.1//EN"
       "http://www.w3.org/Graphics/SVG/1.1/DTD/svg11.dtd">
<svg version="1.1" xmlns="http://www.w3.org/2000/svg" xmlns:xlink="http://www.w3.org/1999/xlink" width="23.6133" height="17.998">
 <g>
  <rect height="17.998" opacity="0" width="23.6133" x="0" y="0"/>
  <path d="M8.39844 17.998L15.2246 17.998C21.0352 17.998 23.6133 15.332 23.6133 9.85352L23.6133 3.04688C23.6133 1.03516 22.5879 0.0195312 20.5469 0.0195312L3.06641 0.0195312C1.02539 0.0195312 0 1.02539 0 3.04688L0 9.85352C0 15.332 2.57812 17.998 8.39844 17.998Z" fill="#000000" fill-opacity="0.85"/>
  <path d="M5.11719 13.6426C4.60938 13.6426 4.33594 13.2812 4.33594 12.7344L4.33594 5.25391C4.33594 4.7168 4.59961 4.33594 5.11719 4.33594L8.01758 4.33594C10.0586 4.33594 11.3672 5.49805 11.3672 7.30469C11.3672 8.56445 10.5859 9.61914 9.41406 10.0098L10.918 12.3633C11.0449 12.5684 11.1035 12.7246 11.1035 12.9492C11.1035 13.3594 10.791 13.6426 10.3613 13.6426C10.0098 13.6426 9.80469 13.4961 9.56055 13.1152L7.8125 10.2441L5.9375 10.2441L5.9375 12.7344C5.9375 13.3008 5.6543 13.6426 5.11719 13.6426ZM5.9375 9.0625L7.77344 9.0625C8.99414 9.0625 9.75586 8.44727 9.75586 7.34375C9.75586 6.2207 8.97461 5.57617 7.8125 5.57617L5.9375 5.57617ZM13.8379 13.5352C13.2715 13.5352 12.9395 13.2031 12.9395 12.6367L12.9395 5.23438C12.9395 4.6582 13.2715 4.32617 13.8379 4.32617L16.8066 4.32617C18.5352 4.32617 19.6582 5.22461 19.6582 6.60156C19.6582 7.60742 19.043 8.38867 18.0469 8.63281L18.0469 8.69141C19.3848 8.86719 20.2051 9.7168 20.2051 10.9473C20.2051 12.5293 18.8672 13.5352 16.7871 13.5352ZM14.5117 8.23242L16.0254 8.23242C17.373 8.23242 18.1055 7.74414 18.1055 6.8457C18.1055 6.02539 17.4902 5.52734 16.4746 5.52734L14.5117 5.52734ZM14.5117 12.3438L16.1426 12.3438C17.8125 12.3438 18.5938 11.8848 18.5938 10.8887C18.5938 9.91211 17.8711 9.3457 16.6504 9.3457L14.5117 9.3457Z" fill="#ffffff"/>
 </g>
</svg>
