<?xml version="1.0" encoding="UTF-8"?>
<!--Generator: Apple Native CoreSVG 175.5-->
<!DOCTYPE svg
PUBLIC "-//W3C//DTD SVG 1.1//EN"
       "http://www.w3.org/Graphics/SVG/1.1/DTD/svg11.dtd">
<svg version="1.1" xmlns="http://www.w3.org/2000/svg" xmlns:xlink="http://www.w3.org/1999/xlink" width="23.6133" height="17.998">
 <g>
  <rect height="17.998" opacity="0" width="23.6133" x="0" y="0"/>
  <path d="M8.39844 17.998L15.2246 17.998C21.0352 17.998 23.6133 15.332 23.6133 9.85352L23.6133 3.04688C23.6133 1.03516 22.5879 0.0195312 20.5469 0.0195312L3.06641 0.0195312C1.02539 0.0195312 0 1.02539 0 3.04688L0 9.85352C0 15.332 2.57812 17.998 8.39844 17.998ZM8.39844 16.4062C3.65234 16.4062 1.57227 14.3262 1.57227 9.95117L1.57227 3.125C1.57227 2.10938 2.10938 1.5918 3.08594 1.5918L20.5273 1.5918C21.4941 1.5918 22.041 2.10938 22.041 3.125L22.041 9.95117C22.041 14.3262 19.9609 16.4062 15.2148 16.4062Z" fill="#000000" fill-opacity="0.85"/>
  <path d="M5.32227 13.4961C5.83984 13.4961 6.11328 13.1738 6.11328 12.627L6.11328 10.2051L7.92969 10.2051L9.62891 12.9883C9.86328 13.3594 10.0586 13.4961 10.4004 13.4961C10.8203 13.4961 11.1133 13.2227 11.1133 12.832C11.1133 12.6172 11.0645 12.4609 10.9375 12.2656L9.47266 9.98047C10.6152 9.59961 11.3672 8.57422 11.3672 7.35352C11.3672 5.60547 10.1074 4.48242 8.125 4.48242L5.32227 4.48242C4.81445 4.48242 4.56055 4.84375 4.56055 5.36133L4.56055 12.627C4.56055 13.1543 4.82422 13.4961 5.32227 13.4961ZM6.11328 9.0625L6.11328 5.67383L7.92969 5.67383C9.0625 5.67383 9.81445 6.29883 9.81445 7.39258C9.81445 8.4668 9.08203 9.0625 7.89062 9.0625ZM13.7695 13.3984L16.6211 13.3984C18.6426 13.3984 19.9414 12.4219 19.9414 10.8887C19.9414 9.69727 19.1406 8.86719 17.8418 8.70117L17.8418 8.64258C18.8086 8.4082 19.4043 7.64648 19.4043 6.66992C19.4043 5.3418 18.3203 4.47266 16.6406 4.47266L13.7695 4.47266C13.2227 4.47266 12.9004 4.78516 12.9004 5.3418L12.9004 12.5293C12.9004 13.0762 13.2227 13.3984 13.7695 13.3984ZM14.4141 8.26172L14.4141 5.625L16.3281 5.625C17.3145 5.625 17.9102 6.11328 17.9102 6.91406C17.9102 7.7832 17.1973 8.26172 15.8887 8.26172ZM14.4141 12.2461L14.4141 9.33594L16.4941 9.33594C17.6855 9.33594 18.3789 9.88281 18.3789 10.8301C18.3789 11.7969 17.627 12.2461 16.0059 12.2461Z" fill="#000000" fill-opacity="0.85"/>
 </g>
</svg>
