<?xml version="1.0" encoding="UTF-8"?>
<!--Generator: Apple Native CoreSVG 175.5-->
<!DOCTYPE svg
PUBLIC "-//W3C//DTD SVG 1.1//EN"
       "http://www.w3.org/Graphics/SVG/1.1/DTD/svg11.dtd">
<svg version="1.1" xmlns="http://www.w3.org/2000/svg" xmlns:xlink="http://www.w3.org/1999/xlink" width="23.6133" height="17.998">
 <g>
  <rect height="17.998" opacity="0" width="23.6133" x="0" y="0"/>
  <path d="M8.39844 0.0195312C2.57812 0.0195312 0 2.68555 0 8.1543L0 14.9707C0 16.9922 1.02539 17.998 3.06641 17.998L20.5469 17.998C22.5879 17.998 23.6133 16.9824 23.6133 14.9707L23.6133 8.1543C23.6133 2.68555 21.0352 0.0195312 15.2246 0.0195312ZM8.39844 1.61133L15.2148 1.61133C19.9609 1.61133 22.041 3.68164 22.041 8.06641L22.041 14.8926C22.041 15.9082 21.4941 16.4258 20.5273 16.4258L3.08594 16.4258C2.10938 16.4258 1.57227 15.9082 1.57227 14.8926L1.57227 8.06641C1.57227 3.68164 3.65234 1.61133 8.39844 1.61133Z" fill="#000000" fill-opacity="0.85"/>
 </g>
</svg>
