<?xml version="1.0" encoding="UTF-8"?>
<!--Generator: Apple Native CoreSVG 175.5-->
<!DOCTYPE svg
PUBLIC "-//W3C//DTD SVG 1.1//EN"
       "http://www.w3.org/Graphics/SVG/1.1/DTD/svg11.dtd">
<svg version="1.1" xmlns="http://www.w3.org/2000/svg" xmlns:xlink="http://www.w3.org/1999/xlink" width="23.2632" height="20.4937">
 <g>
  <rect height="20.4937" opacity="0" width="23.2632" x="0" y="0"/>
  <path d="M12.1777 1.26734L12.1777 2.83961L14.1309 2.83961L15.7031 1.26734ZM6.44531 2.83961L10.8496 2.83961L10.8496 1.26734L6.44531 1.26734ZM0 6.41382L1.57227 6.41382L1.57227 4.37281C1.57227 3.35718 2.10938 2.83961 3.08594 2.83961L5.10742 2.83961L5.10742 1.26734L3.06641 1.26734C1.02539 1.26734 0 2.2732 0 4.29468ZM0 12.7615L1.57227 12.7615L1.57227 7.75172L0 7.75172ZM3.06641 19.2459L5.10742 19.2459L5.10742 17.6736L3.08594 17.6736C2.10938 17.6736 1.57227 17.156 1.57227 16.1404L1.57227 14.0994L0 14.0994L0 16.2185C0 18.24 1.02539 19.2459 3.06641 19.2459ZM6.44531 19.2459L10.8496 19.2459L10.8496 17.6736L6.44531 17.6736ZM12.1777 19.2459L16.582 19.2459L16.582 17.6736L12.1777 17.6736ZM19.9609 19.2459C22.002 19.2459 23.0273 18.24 23.0273 16.2185L23.0273 14.0994L21.4551 14.0994L21.4551 16.1404C21.4551 17.156 20.918 17.6736 19.9414 17.6736L17.9199 17.6736L17.9199 19.2459ZM23.0273 12.7615L23.0273 9.47047L21.4551 11.0427L21.4551 12.7615Z" fill="#000000" fill-opacity="0.85"/>
  <path d="M12.4316 12.3318C13.9453 13.8455 16.2402 13.8845 17.8223 12.3025L22.6172 7.50757C22.8613 7.26343 22.8418 6.88257 22.6074 6.66773C22.3633 6.44312 22.0312 6.44312 21.7871 6.68726L17.041 11.4431C15.9082 12.5662 14.3262 12.5662 13.291 11.4919C12.2168 10.3982 12.1973 8.84547 13.3203 7.72242L19.3164 1.74586C20.0586 1.00367 21.0645 0.993903 21.6895 1.59937C22.3047 2.20484 22.2852 3.20093 21.543 3.96265L15.7129 9.83179C15.4688 10.0759 15.1562 10.0662 14.9414 9.83179C14.6973 9.59742 14.707 9.29468 14.9512 9.05054L19.082 4.91968C19.3262 4.67554 19.3164 4.34351 19.1113 4.1189C18.8867 3.90406 18.5645 3.89429 18.3203 4.1482L14.1504 8.30836C13.4766 8.98218 13.4668 10.0369 14.1016 10.6619C14.7656 11.3259 15.7617 11.3259 16.4648 10.6228L22.334 4.75367C23.5645 3.5232 23.5449 1.92164 22.4414 0.808356C21.3574-0.275628 19.6973-0.29516 18.4961 0.906012L12.4707 6.9314C10.8887 8.51343 10.9375 10.8377 12.4316 12.3318Z" fill="#000000" fill-opacity="0.85"/>
 </g>
</svg>
