<?xml version="1.0" encoding="UTF-8"?>
<!--Generator: Apple Native CoreSVG 175.5-->
<!DOCTYPE svg
PUBLIC "-//W3C//DTD SVG 1.1//EN"
       "http://www.w3.org/Graphics/SVG/1.1/DTD/svg11.dtd">
<svg version="1.1" xmlns="http://www.w3.org/2000/svg" xmlns:xlink="http://www.w3.org/1999/xlink" width="24.4165" height="18.9746">
 <g>
  <rect height="18.9746" opacity="0" width="24.4165" x="0" y="0"/>
  <path d="M5.8606 3.06641L5.8606 15.9082C5.8606 17.959 6.87623 18.9746 8.88795 18.9746L15.5286 18.9746C17.5305 18.9746 18.5462 17.959 18.5462 15.9082L18.5462 3.06641C18.5462 1.01562 17.5403 0 15.5286 0L8.88795 0C6.87623 0 5.8606 1.01562 5.8606 3.06641ZM7.43287 3.08594C7.43287 2.10938 7.96021 1.57227 8.97584 1.57227L15.4407 1.57227C16.4563 1.57227 16.9739 2.10938 16.9739 3.08594L16.9739 15.8887C16.9739 16.8457 16.4563 17.4023 15.4407 17.4023L8.97584 17.4023C7.96021 17.4023 7.43287 16.8457 7.43287 15.8887Z" fill="#000000" fill-opacity="0.85"/>
  <path d="M21.3294 12.002L24.054 10.1953C24.5422 9.86328 24.5325 9.16016 24.054 8.83789L21.3294 6.99219C20.7044 6.5625 20.0501 6.79688 20.0501 7.55859L20.0501 11.4551C20.0501 12.1875 20.7337 12.4023 21.3294 12.002ZM3.08717 12.002C3.68287 12.4023 4.36646 12.1875 4.36646 11.4551L4.36646 7.55859C4.36646 6.79688 3.71217 6.5625 3.08717 6.99219L0.362558 8.83789C-0.115958 9.16016-0.125723 9.86328 0.362558 10.1953Z" fill="#000000" fill-opacity="0.85"/>
 </g>
</svg>
