<?xml version="1.0" encoding="UTF-8"?>
<!--Generator: Apple Native CoreSVG 175.5-->
<!DOCTYPE svg
PUBLIC "-//W3C//DTD SVG 1.1//EN"
       "http://www.w3.org/Graphics/SVG/1.1/DTD/svg11.dtd">
<svg version="1.1" xmlns="http://www.w3.org/2000/svg" xmlns:xlink="http://www.w3.org/1999/xlink" width="23.7334" height="21.6809">
 <g>
  <rect height="21.6809" opacity="0" width="23.7334" x="0" y="0"/>
  <path d="M19.3457 21.2067C23.3301 19.7516 24.6484 16.4606 23.1055 12.1832L22.4609 10.4157C21.8848 8.8141 20.7422 8.10121 19.8633 8.42348C19.668 8.5016 19.6094 8.63832 19.668 8.82387L19.9512 9.61488C20.0781 9.97621 19.9609 10.2301 19.7461 10.318C19.502 10.4059 19.248 10.2887 19.1113 9.91762L18.9258 9.40004C18.5742 8.45277 17.7539 8.05238 16.9238 8.35512C16.5527 8.49184 16.4355 8.69691 16.5527 9.01918L16.9434 10.0739C17.0898 10.445 16.9531 10.6989 16.7383 10.777C16.5039 10.8649 16.2402 10.7477 16.1133 10.3864L15.7617 9.40004C15.3809 8.32582 14.5605 8.06215 13.7695 8.35512C13.418 8.47231 13.291 8.71645 13.3984 9.00941L14.1504 11.0993C14.2871 11.4704 14.1699 11.7145 13.9551 11.8024C13.7109 11.8903 13.457 11.7731 13.3203 11.402L10.791 4.4391C10.5371 3.75551 9.93164 3.47231 9.36523 3.68715C8.74023 3.92152 8.47656 4.50746 8.7207 5.19106L12.4414 15.3864C12.5391 15.6403 12.4121 15.8258 12.2559 15.8844C12.0996 15.9235 11.9434 15.8942 11.7383 15.6793L9.23828 12.984C8.85742 12.5836 8.47656 12.4957 8.06641 12.652C7.44141 12.8864 7.1875 13.4528 7.38281 13.9801C7.45117 14.1754 7.55859 14.3414 7.66602 14.4684L10.7715 18.3551C13.3887 21.6364 16.4062 22.2711 19.3457 21.2067Z" fill="#000000" fill-opacity="0.85"/>
  <path d="M2.96875 15.9723L7.13867 15.9723C6.75781 15.5036 6.49414 15.0348 6.34766 14.5954L2.99805 14.5954C1.95312 14.5954 1.37695 14.0192 1.37695 12.9645L1.37695 3.26723C1.37695 2.21254 1.95312 1.6266 2.99805 1.6266L15.8789 1.6266C16.9141 1.6266 17.4902 2.21254 17.4902 3.26723L17.4902 6.91957C17.959 6.91957 18.4277 7.04652 18.8672 7.31996L18.8672 3.17934C18.8672 1.22621 17.8906 0.249649 15.9082 0.249649L2.96875 0.249649C0.986328 0.249649 0 1.21645 0 3.17934L0 13.0524C0 15.0153 0.986328 15.9723 2.96875 15.9723Z" fill="#000000" fill-opacity="0.85"/>
 </g>
</svg>
