<?xml version="1.0" encoding="UTF-8"?>
<!--Generator: Apple Native CoreSVG 175.5-->
<!DOCTYPE svg
PUBLIC "-//W3C//DTD SVG 1.1//EN"
       "http://www.w3.org/Graphics/SVG/1.1/DTD/svg11.dtd">
<svg version="1.1" xmlns="http://www.w3.org/2000/svg" xmlns:xlink="http://www.w3.org/1999/xlink" width="19.9219" height="19.9316">
 <g>
  <rect height="19.9316" opacity="0" width="19.9219" x="0" y="0"/>
  <path d="M9.96094 19.9219C15.4102 19.9219 19.9219 15.4004 19.9219 9.96094C19.9219 4.51172 15.4004 0 9.95117 0C4.51172 0 0 4.51172 0 9.96094C0 15.4004 4.52148 19.9219 9.96094 19.9219ZM9.96094 18.2617C5.35156 18.2617 1.66992 14.5703 1.66992 9.96094C1.66992 5.35156 5.3418 1.66016 9.95117 1.66016C14.5605 1.66016 18.2617 5.35156 18.2617 9.96094C18.2617 14.5703 14.5703 18.2617 9.96094 18.2617Z" fill="#000000" fill-opacity="0.85"/>
  <path d="M7.75391 14.5117L14.2773 14.5117C15.1758 14.5117 15.6152 14.0723 15.6152 13.1836L15.6152 8.61328C15.6152 7.74414 15.1758 7.28516 14.2773 7.28516L7.75391 7.28516C6.85547 7.28516 6.40625 7.74414 6.40625 8.61328L6.40625 13.1836C6.40625 14.0723 6.85547 14.5117 7.75391 14.5117ZM5.83008 8.55469C5.83008 7.33398 6.46484 6.69922 7.69531 6.69922L13.4766 6.69922L13.4766 6.5918C13.4766 5.70312 13.0371 5.26367 12.1387 5.26367L5.60547 5.26367C4.7168 5.26367 4.26758 5.70312 4.26758 6.5918L4.26758 11.123C4.26758 12.002 4.7168 12.4512 5.60547 12.4512L5.83008 12.4512Z" fill="#000000" fill-opacity="0.85"/>
 </g>
</svg>
