<?xml version="1.0" encoding="UTF-8"?>
<!--Generator: Apple Native CoreSVG 175.5-->
<!DOCTYPE svg
PUBLIC "-//W3C//DTD SVG 1.1//EN"
       "http://www.w3.org/Graphics/SVG/1.1/DTD/svg11.dtd">
<svg version="1.1" xmlns="http://www.w3.org/2000/svg" xmlns:xlink="http://www.w3.org/1999/xlink" width="23.0493" height="24.3066">
 <g>
  <rect height="24.3066" opacity="0" width="23.0493" x="0" y="0"/>
  <path d="M19.0991 22.4414C18.9233 22.6172 18.6597 22.7246 18.3081 22.7246L9.25537 22.7246C8.23975 22.7246 7.72217 22.168 7.72217 21.2109L7.72217 11.0742L6.1499 9.50195L6.1499 21.2305C6.1499 23.2715 7.16553 24.2969 9.17725 24.2969L18.3862 24.2969C19.2358 24.2969 19.8901 24.1016 20.3491 23.7109ZM1.62842 4.98047L1.62842 16.2988C1.62842 18.3398 2.64404 19.3652 4.65576 19.3652L6.78467 19.3652L6.78467 17.793L4.73389 17.793C3.71826 17.793 3.20068 17.2363 3.20068 16.2793L3.20068 6.55273ZM3.92334 1.86523C4.09912 1.67969 4.37256 1.57227 4.73389 1.57227L13.7866 1.57227C14.8022 1.57227 15.3198 2.11914 15.3198 3.0957L15.3198 5.48828L16.8921 5.48828L16.8921 3.06641C16.8921 1.02539 15.8862 0 13.8647 0L4.65576 0C3.79639 0 3.13232 0.205078 2.66357 0.605469ZM21.4136 19.3359L21.4136 7.89062C21.4136 5.84961 20.4077 4.82422 18.3862 4.82422L9.17725 4.82422C8.41553 4.82422 7.81006 4.98047 7.36084 5.29297L8.6499 6.58203C8.78662 6.46484 8.9917 6.39648 9.25537 6.39648L18.3081 6.39648C19.3237 6.39648 19.8413 6.94336 19.8413 7.91992L19.8413 17.7734Z" fill="#000000" fill-opacity="0.85"/>
  <path d="M21.7651 23.4766C22.0581 23.7695 22.5464 23.7695 22.8296 23.4766C23.1226 23.1738 23.1226 22.7051 22.8296 22.4121L1.28662 0.849609C0.993652 0.566406 0.515137 0.556641 0.212402 0.849609C-0.0708008 1.14258-0.0708008 1.63086 0.212402 1.91406Z" fill="#000000" fill-opacity="0.85"/>
 </g>
</svg>
