<?xml version="1.0" encoding="UTF-8"?>
<!--Generator: Apple Native CoreSVG 175.5-->
<!DOCTYPE svg
PUBLIC "-//W3C//DTD SVG 1.1//EN"
       "http://www.w3.org/Graphics/SVG/1.1/DTD/svg11.dtd">
<svg version="1.1" xmlns="http://www.w3.org/2000/svg" xmlns:xlink="http://www.w3.org/1999/xlink" width="19.8169" height="20.9473">
 <g>
  <rect height="20.9473" opacity="0" width="19.8169" x="0" y="0"/>
  <path d="M2.73193 0.595703L9.11865 6.98242L9.11865 0L4.71436 0C3.85498 0 3.20068 0.205078 2.73193 0.595703ZM1.68701 4.98047L1.68701 17.8809C1.68701 19.9219 2.69287 20.9375 4.71436 20.9375L9.11865 20.9375L9.11865 12.4023ZM10.6812 8.55469L18.1128 15.9863L18.1128 3.06641C18.1128 1.03516 17.1069 0 15.0854 0L10.6812 0ZM10.6812 13.9746L10.6812 20.9375L15.0854 20.9375C15.9448 20.9375 16.6089 20.7422 17.0581 20.3516Z" fill="#000000" fill-opacity="0.85"/>
  <path d="M18.5327 20.1562C18.8354 20.459 19.314 20.459 19.5972 20.1562C19.8901 19.8633 19.8901 19.3848 19.5972 19.082L1.28662 0.78125C0.993652 0.488281 0.515137 0.488281 0.212402 0.78125C-0.0708008 1.07422-0.0708008 1.5625 0.212402 1.8457Z" fill="#000000" fill-opacity="0.85"/>
 </g>
</svg>
