<?xml version="1.0" encoding="UTF-8"?>
<!--Generator: Apple Native CoreSVG 175.5-->
<!DOCTYPE svg
PUBLIC "-//W3C//DTD SVG 1.1//EN"
       "http://www.w3.org/Graphics/SVG/1.1/DTD/svg11.dtd">
<svg version="1.1" xmlns="http://www.w3.org/2000/svg" xmlns:xlink="http://www.w3.org/1999/xlink" width="20.6553" height="24.672">
 <g>
  <rect height="24.672" opacity="0" width="20.6553" x="0" y="0"/>
  <path d="M6.75882 18.9913L5.69437 19.1768C4.69828 19.3526 4.08304 18.9034 3.91703 17.9464L1.63187 4.96785C1.46585 4.00105 1.87601 3.38582 2.88187 3.21004L11.7881 1.63777C12.7842 1.46199 13.3897 1.90144 13.5557 2.86824L14.1612 6.20809L15.6944 5.93465L15.1084 2.57527C14.7569 0.553788 13.5752-0.266524 11.5928 0.0752726L2.53031 1.66707C0.547885 2.01863-0.272428 3.20027 0.0791346 5.22176L2.37406 18.2491C2.73538 20.2608 3.91703 21.0811 5.88968 20.7393L6.75882 20.5831Z" fill="#000000" fill-opacity="0.85"/>
  <path d="M20.6553 8.07332C20.6553 6.0323 19.6494 5.00691 17.628 5.00691L8.41898 5.00691C6.40726 5.00691 5.39163 6.0323 5.39163 8.07332L5.39163 21.4132C5.39163 23.4542 6.40726 24.4796 8.41898 24.4796L17.628 24.4796C19.6397 24.4796 20.6553 23.4542 20.6553 21.4132ZM19.083 8.10262L19.083 21.3936C19.083 22.3507 18.5655 22.9073 17.5498 22.9073L8.50687 22.9073C7.49124 22.9073 6.9639 22.3507 6.9639 21.3936L6.9639 8.10262C6.9639 7.12605 7.49124 6.57918 8.50687 6.57918L17.5498 6.57918C18.5655 6.57918 19.083 7.12605 19.083 8.10262Z" fill="#000000" fill-opacity="0.85"/>
 </g>
</svg>
