<?xml version="1.0" encoding="UTF-8"?>
<!--Generator: Apple Native CoreSVG 175.5-->
<!DOCTYPE svg
PUBLIC "-//W3C//DTD SVG 1.1//EN"
       "http://www.w3.org/Graphics/SVG/1.1/DTD/svg11.dtd">
<svg version="1.1" xmlns="http://www.w3.org/2000/svg" xmlns:xlink="http://www.w3.org/1999/xlink" width="17.9785" height="17.998">
 <g>
  <rect height="17.998" opacity="0" width="17.9785" x="0" y="0"/>
  <path d="M3.06641 17.998L14.9121 17.998C16.9629 17.998 17.9785 16.9824 17.9785 14.9707L17.9785 3.04688C17.9785 1.03516 16.9629 0.0195312 14.9121 0.0195312L3.06641 0.0195312C1.02539 0.0195312 0 1.02539 0 3.04688L0 14.9707C0 16.9922 1.02539 17.998 3.06641 17.998Z" fill="#000000" fill-opacity="0.85"/>
  <path d="M6.72852 13.6914C5.80078 13.6914 5.3418 13.2422 5.3418 12.3242L5.3418 7.60742C5.3418 6.70898 5.80078 6.24023 6.72852 6.24023L13.457 6.24023C14.3848 6.24023 14.8438 6.70898 14.8438 7.60742L14.8438 12.3242C14.8438 13.2422 14.3848 13.6914 13.457 13.6914ZM4.74609 7.54883L4.74609 11.5625L4.51172 11.5625C3.59375 11.5625 3.13477 11.1035 3.13477 10.1953L3.13477 5.51758C3.13477 4.59961 3.59375 4.15039 4.51172 4.15039L11.25 4.15039C12.1777 4.15039 12.627 4.59961 12.627 5.51758L12.627 5.63477L6.66992 5.63477C5.40039 5.63477 4.74609 6.28906 4.74609 7.54883Z" fill="#ffffff"/>
 </g>
</svg>
