<?xml version="1.0" encoding="UTF-8"?>
<!--Generator: Apple Native CoreSVG 175.5-->
<!DOCTYPE svg
PUBLIC "-//W3C//DTD SVG 1.1//EN"
       "http://www.w3.org/Graphics/SVG/1.1/DTD/svg11.dtd">
<svg version="1.1" xmlns="http://www.w3.org/2000/svg" xmlns:xlink="http://www.w3.org/1999/xlink" width="17.9785" height="18.2129">
 <g>
  <rect height="18.2129" opacity="0" width="17.9785" x="0" y="0"/>
  <path d="M3.06641 18.2129L14.9121 18.2129C16.9629 18.2129 17.9785 17.207 17.9785 15.1953L17.9785 3.26172C17.9785 1.25 16.9629 0.234375 14.9121 0.234375L3.06641 0.234375C1.02539 0.234375 0 1.25 0 3.26172L0 15.1953C0 17.207 1.02539 18.2129 3.06641 18.2129ZM3.08594 16.6406C2.10938 16.6406 1.57227 16.123 1.57227 15.1074L1.57227 3.34961C1.57227 2.33398 2.10938 1.80664 3.08594 1.80664L14.8926 1.80664C15.8594 1.80664 16.4062 2.33398 16.4062 3.34961L16.4062 15.1074C16.4062 16.123 15.8594 16.6406 14.8926 16.6406Z" fill="#000000" fill-opacity="0.85"/>
  <path d="M6.79688 13.7598L13.3203 13.7598C14.2188 13.7598 14.668 13.3301 14.668 12.4316L14.668 7.86133C14.668 6.99219 14.2188 6.54297 13.3203 6.54297L6.79688 6.54297C5.89844 6.54297 5.44922 6.99219 5.44922 7.86133L5.44922 12.4316C5.44922 13.3301 5.89844 13.7598 6.79688 13.7598ZM4.87305 7.80273C4.87305 6.5918 5.50781 5.94727 6.73828 5.94727L12.5195 5.95703L12.5195 5.84961C12.5195 4.96094 12.0801 4.51172 11.1816 4.51172L4.64844 4.51172C3.75977 4.51172 3.31055 4.95117 3.31055 5.84961L3.31055 10.3809C3.31055 11.2598 3.75977 11.6992 4.64844 11.6992L4.87305 11.6992Z" fill="#000000" fill-opacity="0.85"/>
 </g>
</svg>
