<?xml version="1.0" encoding="UTF-8"?>
<!--Generator: Apple Native CoreSVG 175.5-->
<!DOCTYPE svg
PUBLIC "-//W3C//DTD SVG 1.1//EN"
       "http://www.w3.org/Graphics/SVG/1.1/DTD/svg11.dtd">
<svg version="1.1" xmlns="http://www.w3.org/2000/svg" xmlns:xlink="http://www.w3.org/1999/xlink" width="19.9219" height="19.9316">
 <g>
  <rect height="19.9316" opacity="0" width="19.9219" x="0" y="0"/>
  <path d="M5.9082 10.2832C5.9082 13.8965 6.99219 17.4707 9.15039 19.7266L10.3809 19.0527C8.45703 16.9727 7.4707 13.6523 7.4707 10.2832C7.4707 6.70898 8.49609 3.1543 10.3809 0.869141L9.14062 0.205078C7.03125 2.64648 5.9082 6.46484 5.9082 10.2832ZM9.60938 13.5547C13.418 13.5547 17.2363 12.4414 19.6777 10.3223L19.0234 9.08203C16.7383 10.9766 13.1836 11.9922 9.60938 11.9922C6.23047 11.9922 2.91016 11.0059 0.830078 9.08203L0.166016 10.3125C2.41211 12.4707 5.98633 13.5547 9.60938 13.5547ZM9.96094 19.9219C15.4102 19.9219 19.9219 15.4004 19.9219 9.96094C19.9219 4.51172 15.4004 0 9.95117 0C4.51172 0 0 4.51172 0 9.96094C0 15.4004 4.52148 19.9219 9.96094 19.9219ZM9.96094 18.2617C5.35156 18.2617 1.66992 14.5703 1.66992 9.96094C1.66992 5.35156 5.3418 1.66016 9.95117 1.66016C14.5605 1.66016 18.2617 5.35156 18.2617 9.96094C18.2617 14.5703 14.5703 18.2617 9.96094 18.2617Z" fill="#000000" fill-opacity="0.85"/>
 </g>
</svg>
