<?xml version="1.0" encoding="UTF-8"?>
<!--Generator: Apple Native CoreSVG 175.5-->
<!DOCTYPE svg
PUBLIC "-//W3C//DTD SVG 1.1//EN"
       "http://www.w3.org/Graphics/SVG/1.1/DTD/svg11.dtd">
<svg version="1.1" xmlns="http://www.w3.org/2000/svg" xmlns:xlink="http://www.w3.org/1999/xlink" width="23.6133" height="17.998">
 <g>
  <rect height="17.998" opacity="0" width="23.6133" x="0" y="0"/>
  <path d="M8.39844 0.0195312C2.57812 0.0195312 0 2.68555 0 8.1543L0 14.9707C0 16.9922 1.02539 17.998 3.06641 17.998L20.5469 17.998C22.5879 17.998 23.6133 16.9824 23.6133 14.9707L23.6133 8.1543C23.6133 2.68555 21.0352 0.0195312 15.2246 0.0195312Z" fill="#000000" fill-opacity="0.85"/>
  <path d="M5.06836 13.6621C4.55078 13.6621 4.26758 13.3008 4.26758 12.7539L4.26758 5.27344C4.26758 4.73633 4.54102 4.35547 5.05859 4.35547L7.95898 4.35547C10 4.35547 11.2988 5.51758 11.2988 7.32422C11.2988 8.58398 10.5371 9.63867 9.3457 10.0293L10.8691 12.3828C10.9863 12.5879 11.0449 12.7441 11.0449 12.9688C11.0449 13.3789 10.7422 13.6621 10.3125 13.6621C9.95117 13.6621 9.74609 13.5156 9.50195 13.1348L7.76367 10.2637L5.88867 10.2637L5.88867 12.7539C5.88867 13.3203 5.60547 13.6621 5.06836 13.6621ZM5.88867 9.08203L7.71484 9.08203C8.93555 9.08203 9.69727 8.4668 9.69727 7.36328C9.69727 6.24023 8.91602 5.5957 7.76367 5.5957L5.88867 5.5957ZM16.2207 13.6621C15.7031 13.6621 15.4199 13.291 15.4199 12.7441L15.4199 5.68359L12.9395 5.68359C12.5586 5.68359 12.2754 5.42969 12.2754 5.0293C12.2754 4.59961 12.5586 4.35547 12.9395 4.35547L19.541 4.35547C19.9316 4.35547 20.2148 4.59961 20.2148 5.0293C20.2148 5.42969 19.9316 5.68359 19.541 5.68359L17.041 5.68359L17.041 12.7441C17.041 13.3105 16.7578 13.6621 16.2207 13.6621Z" fill="#ffffff"/>
 </g>
</svg>
