<?xml version="1.0" encoding="UTF-8"?>
<!--Generator: Apple Native CoreSVG 175.5-->
<!DOCTYPE svg
PUBLIC "-//W3C//DTD SVG 1.1//EN"
       "http://www.w3.org/Graphics/SVG/1.1/DTD/svg11.dtd">
<svg version="1.1" xmlns="http://www.w3.org/2000/svg" xmlns:xlink="http://www.w3.org/1999/xlink" width="22.4216" height="25.4395">
 <g>
  <rect height="25.4395" opacity="0" width="22.4216" x="0" y="0"/>
  <path d="M2.43561 15.6641L9.3692 15.6641L9.3692 19.0234L10.6876 19.0234L10.6876 15.6641L14.1348 15.6641C17.0743 15.6641 18.7149 14.1602 18.7149 11.7285C18.7149 7.69531 14.6329 3.1543 10.6876 0.986328L10.6876 0.664062C10.6876 0.302734 10.3946 0 10.0333 0C9.67194 0 9.3692 0.302734 9.3692 0.664062L9.3692 1.25977C9.3692 4.60938 6.28327 10.6543 1.8985 13.8281C0.94147 14.5215 1.47858 15.6641 2.43561 15.6641ZM10.6876 14.0332L10.6876 2.4707C12.2598 4.25781 12.9337 6.64062 12.9337 8.69141C12.9337 10.9863 12.1036 12.9883 10.6876 14.0332ZM0.0820954 19.9023L0.765689 22.2168C0.78522 22.2852 0.804752 22.3438 0.824283 22.4023C1.39069 22.373 1.84967 22.1777 2.53327 21.6992C3.1778 21.2305 4.23249 20.459 5.69733 20.459C6.98639 20.459 7.97272 21.0547 8.71491 21.6016C9.66217 22.3145 9.88678 22.4414 10.336 22.4414C10.7852 22.4414 11.0098 22.3145 11.9571 21.6016C12.6895 21.0645 13.6954 20.459 14.9747 20.459C16.4395 20.459 17.4942 21.2305 18.1485 21.6992C18.8223 22.1777 19.3301 22.3926 20.0528 22.4121L22.1036 20.0977C22.7969 19.2871 22.2989 18.2031 21.1661 18.2031L1.31256 18.2031C0.257877 18.2031-0.201108 18.9258 0.0820954 19.9023ZM0.0723298 24.2676C0.0723298 24.6484 0.38483 24.9609 0.765689 24.9609L0.814517 24.9609C3.86139 24.9609 4.1153 22.9785 5.69733 22.9785C7.25006 22.9785 7.66999 24.9609 10.336 24.9609C13.002 24.9609 13.4219 22.9785 14.9747 22.9785C16.5567 22.9785 16.8106 24.9609 19.8575 24.9609L20.8536 24.9609C21.2344 24.9609 21.5372 24.6484 21.5372 24.2676C21.5372 23.8867 21.2344 23.584 20.8536 23.584L19.8575 23.584C18.8126 23.584 18.2169 23.1445 17.4844 22.627C16.8497 22.168 16.0587 21.6016 14.9747 21.6016C13.8516 21.6016 13.0508 22.1973 12.4161 22.6758C11.7423 23.1836 11.2149 23.584 10.336 23.584C9.4571 23.584 8.92975 23.1836 8.25592 22.6758C7.62116 22.1973 6.82038 21.6016 5.69733 21.6016C4.61335 21.6016 3.82233 22.168 3.18756 22.627C2.45514 23.1445 1.85944 23.584 0.814517 23.584L0.765689 23.584C0.38483 23.584 0.0723298 23.8867 0.0723298 24.2676Z" fill="#000000" fill-opacity="0.85"/>
 </g>
</svg>
