<?xml version="1.0" encoding="UTF-8"?>
<!--Generator: Apple Native CoreSVG 175.5-->
<!DOCTYPE svg
PUBLIC "-//W3C//DTD SVG 1.1//EN"
       "http://www.w3.org/Graphics/SVG/1.1/DTD/svg11.dtd">
<svg version="1.1" xmlns="http://www.w3.org/2000/svg" xmlns:xlink="http://www.w3.org/1999/xlink" width="19.9219" height="19.9316">
 <g>
  <rect height="19.9316" opacity="0" width="19.9219" x="0" y="0"/>
  <path d="M9.96094 19.9316C15.4102 19.9316 19.9219 15.4199 19.9219 9.9707C19.9219 4.53125 15.4004 0.00976562 9.95117 0.00976562C4.51172 0.00976562 0 4.53125 0 9.9707C0 15.4199 4.52148 19.9316 9.96094 19.9316Z" fill="#000000" fill-opacity="0.85"/>
  <path d="M6.05469 14.5703C4.99023 14.5703 4.14062 13.7109 4.14062 12.6465C4.14062 11.5918 4.99023 10.7422 6.05469 10.7422C6.93359 10.7422 7.08008 11.1035 7.48047 11.1035C7.55859 11.1035 7.62695 11.084 7.73438 11.0352L8.47656 10.6348C8.83789 10.4395 8.95508 10.332 9.01367 10.0879L9.11133 9.74609C9.24805 9.22852 9.52148 8.94531 10.0781 8.73047L14.1113 7.28516C15.3223 6.8457 16.0742 7.00195 16.2598 7.71484L8.26172 11.9531C7.98828 12.0996 7.96875 12.2461 7.96875 12.6465C7.96875 13.7207 7.11914 14.5703 6.05469 14.5703ZM6.05469 13.7793C6.67969 13.7793 7.1875 13.2812 7.1875 12.6465C7.1875 12.0215 6.67969 11.5234 6.05469 11.5234C5.43945 11.5234 4.93164 12.0215 4.93164 12.6465C4.93164 13.2812 5.43945 13.7793 6.05469 13.7793ZM10.1855 10.0977C10.3906 10.0977 10.5762 9.93164 10.5762 9.7168C10.5762 9.50195 10.3906 9.3457 10.1855 9.3457C9.98047 9.3457 9.80469 9.50195 9.80469 9.7168C9.80469 9.93164 9.98047 10.0977 10.1855 10.0977ZM9.21875 8.50586C8.93555 8.7207 8.73047 8.99414 8.59375 9.36523L7.73438 8.92578C7.62695 8.86719 7.55859 8.84766 7.48047 8.84766C7.08008 8.84766 6.93359 9.19922 6.05469 9.19922C4.99023 9.19922 4.14062 8.35938 4.14062 7.29492C4.14062 6.23047 4.99023 5.37109 6.05469 5.37109C7.11914 5.37109 7.96875 6.2207 7.96875 7.29492C7.96875 7.71484 7.99805 7.8418 8.32031 8.02734ZM6.05469 8.41797C6.67969 8.41797 7.1875 7.91992 7.1875 7.29492C7.1875 6.66016 6.67969 6.16211 6.05469 6.16211C5.43945 6.16211 4.93164 6.66016 4.93164 7.29492C4.93164 7.91992 5.43945 8.41797 6.05469 8.41797ZM10.6641 11.377L12.6465 10.332L16.2598 12.2363C16.0742 12.959 15.3125 13.125 14.1113 12.666Z" fill="#ffffff"/>
 </g>
</svg>
