<?xml version="1.0" encoding="UTF-8"?>
<!--Generator: Apple Native CoreSVG 175.5-->
<!DOCTYPE svg
PUBLIC "-//W3C//DTD SVG 1.1//EN"
       "http://www.w3.org/Graphics/SVG/1.1/DTD/svg11.dtd">
<svg version="1.1" xmlns="http://www.w3.org/2000/svg" xmlns:xlink="http://www.w3.org/1999/xlink" width="25.0293" height="19.5801">
 <g>
  <rect height="19.5801" opacity="0" width="25.0293" x="0" y="0"/>
  <path d="M3.92578 19.5801C6.11328 19.5801 7.87109 17.8223 7.87109 15.6152C7.87109 14.8047 7.91016 14.4824 8.50586 14.1602L25.0293 5.38086C24.6289 3.91602 23.0371 3.66211 20.6055 4.53125L12.2656 7.5293C11.0938 7.94922 10.5859 8.52539 10.2734 9.60938L10.0781 10.3223C9.93164 10.8301 9.70703 11.084 8.93555 11.4746L7.42188 12.2754C7.17773 12.4023 7.04102 12.4414 6.85547 12.4414C6.03516 12.4414 5.74219 11.6797 3.92578 11.6797C1.74805 11.6797 0 13.4375 0 15.6152C0 17.8125 1.74805 19.5801 3.92578 19.5801ZM3.92578 17.9785C2.63672 17.9785 1.60156 16.9336 1.60156 15.6152C1.60156 14.3262 2.63672 13.2715 3.92578 13.2715C5.23438 13.2715 6.2793 14.3262 6.2793 15.6152C6.2793 16.9336 5.23438 17.9785 3.92578 17.9785ZM12.4805 10.3613C12.0508 10.3613 11.6699 10 11.6699 9.55078C11.6699 9.08203 12.0508 8.73047 12.4805 8.73047C12.9395 8.73047 13.3203 9.08203 13.3203 9.55078C13.3203 10 12.9395 10.3613 12.4805 10.3613ZM3.92578 8.4668C5.75195 8.4668 6.04492 7.71484 6.85547 7.71484C7.04102 7.71484 7.17773 7.75391 7.42188 7.87109L9.07227 8.75C9.27734 8.85742 9.44336 8.95508 9.57031 9.04297L9.62891 9.04297C9.85352 8.22266 10.2246 7.69531 10.8398 7.30469L10.8398 7.24609L8.62305 6.06445C7.92969 5.69336 7.87109 5.39062 7.87109 4.52148C7.87109 2.31445 6.11328 0.556641 3.92578 0.556641C1.74805 0.556641 0 2.32422 0 4.52148C0 6.70898 1.74805 8.4668 3.92578 8.4668ZM3.92578 6.875C2.63672 6.875 1.60156 5.81055 1.60156 4.52148C1.60156 3.20312 2.63672 2.1582 3.92578 2.1582C5.23438 2.1582 6.2793 3.20312 6.2793 4.52148C6.2793 5.81055 5.23438 6.875 3.92578 6.875ZM20.6055 15.6348C23.0566 16.543 24.6289 16.25 25.0293 14.7461L17.0801 10.5469L13.0469 12.666L13.0469 12.7832Z" fill="#000000" fill-opacity="0.85"/>
 </g>
</svg>
