<?xml version="1.0" encoding="UTF-8"?>
<!--Generator: Apple Native CoreSVG 175.5-->
<!DOCTYPE svg
PUBLIC "-//W3C//DTD SVG 1.1//EN"
       "http://www.w3.org/Graphics/SVG/1.1/DTD/svg11.dtd">
<svg version="1.1" xmlns="http://www.w3.org/2000/svg" xmlns:xlink="http://www.w3.org/1999/xlink" width="19.9219" height="19.9316">
 <g>
  <rect height="19.9316" opacity="0" width="19.9219" x="0" y="0"/>
  <path d="M9.96094 19.9219C15.4102 19.9219 19.9219 15.4004 19.9219 9.96094C19.9219 4.51172 15.4004 0 9.95117 0C4.51172 0 0 4.51172 0 9.96094C0 15.4004 4.52148 19.9219 9.96094 19.9219ZM9.96094 18.2617C5.35156 18.2617 1.66992 14.5703 1.66992 9.96094C1.66992 5.35156 5.3418 1.66016 9.95117 1.66016C14.5605 1.66016 18.2617 5.35156 18.2617 9.96094C18.2617 14.5703 14.5703 18.2617 9.96094 18.2617Z" fill="#000000" fill-opacity="0.85"/>
  <path d="M6.18164 14.4238C7.20703 14.4238 8.03711 13.6035 8.03711 12.5586C8.03711 12.168 8.05664 12.0215 8.32031 11.875L16.0742 7.76367C15.8984 7.08008 15.166 6.93359 13.9941 7.35352L10.0879 8.75977C9.54102 8.95508 9.27734 9.22852 9.15039 9.74609L9.05273 10.0781C8.99414 10.3125 8.88672 10.4199 8.53516 10.6055L7.8125 10.9863C7.70508 11.0449 7.63672 11.0547 7.55859 11.0547C7.17773 11.0547 7.03125 10.7129 6.18164 10.7129C5.14648 10.7129 4.32617 11.5234 4.32617 12.5586C4.32617 13.5938 5.14648 14.4238 6.18164 14.4238ZM6.18164 13.6621C5.57617 13.6621 5.08789 13.1738 5.08789 12.5586C5.08789 11.9531 5.57617 11.4648 6.18164 11.4648C6.78711 11.4648 7.27539 11.9531 7.27539 12.5586C7.27539 13.1738 6.78711 13.6621 6.18164 13.6621ZM10.1855 10.0879C9.99023 10.0879 9.82422 9.92188 9.82422 9.7168C9.82422 9.51172 9.99023 9.3457 10.1855 9.3457C10.3906 9.3457 10.5664 9.51172 10.5664 9.7168C10.5664 9.92188 10.3906 10.0879 10.1855 10.0879ZM9.24805 8.53516L8.37891 8.06641C8.06641 7.90039 8.03711 7.77344 8.03711 7.36328C8.03711 6.31836 7.20703 5.49805 6.18164 5.49805C5.14648 5.49805 4.32617 6.32812 4.32617 7.36328C4.32617 8.38867 5.14648 9.20898 6.18164 9.20898C7.03125 9.20898 7.17773 8.85742 7.55859 8.85742C7.63672 8.85742 7.70508 8.88672 7.8125 8.93555L8.64258 9.36523C8.7793 9.01367 8.97461 8.74023 9.24805 8.53516ZM6.18164 8.45703C5.57617 8.45703 5.08789 7.96875 5.08789 7.36328C5.08789 6.74805 5.57617 6.25977 6.18164 6.25977C6.78711 6.25977 7.27539 6.74805 7.27539 7.36328C7.27539 7.96875 6.78711 8.45703 6.18164 8.45703ZM10.6543 11.3184L13.9941 12.5781C15.1562 13.0078 15.8984 12.8516 16.0742 12.1484L12.5684 10.3027Z" fill="#000000" fill-opacity="0.85"/>
 </g>
</svg>
