<?xml version="1.0" encoding="UTF-8"?>
<!--Generator: Apple Native CoreSVG 175.5-->
<!DOCTYPE svg
PUBLIC "-//W3C//DTD SVG 1.1//EN"
       "http://www.w3.org/Graphics/SVG/1.1/DTD/svg11.dtd">
<svg version="1.1" xmlns="http://www.w3.org/2000/svg" xmlns:xlink="http://www.w3.org/1999/xlink" width="24.1016" height="18.5254">
 <g>
  <rect height="18.5254" opacity="0" width="24.1016" x="0" y="0"/>
  <path d="M7.40234 18.5059L18.1934 18.5059C19.0527 18.5059 19.5703 18.1055 19.5703 17.4414C19.5703 15.3613 16.9727 12.4902 12.8027 12.4902C8.62305 12.4902 6.02539 15.3613 6.02539 17.4414C6.02539 18.1055 6.54297 18.5059 7.40234 18.5059ZM12.8027 11.0547C14.5215 11.0547 16.0156 9.51172 16.0156 7.5C16.0156 5.51758 14.5215 4.04297 12.8027 4.04297C11.084 4.04297 9.58008 5.54688 9.58008 7.51953C9.58008 9.51172 11.084 11.0547 12.8027 11.0547Z" fill="#000000" fill-opacity="0.85"/>
  <path d="M1.39648 14.5312L3.36914 14.5312C4.29688 14.5312 4.76562 14.0723 4.76562 13.1543L4.76562 11.1328C4.76562 10.2246 4.29688 9.76562 3.36914 9.76562L1.39648 9.76562C0.46875 9.76562 0 10.2148 0 11.1328L0 13.1543C0 14.0723 0.46875 14.5312 1.39648 14.5312ZM3.99414 7.48047L8.25195 7.48047C8.26172 4.96094 10.127 2.90039 12.4902 2.72461L12.4902 1.36719C12.4902 0.458984 12.0215 0 11.084 0L3.99414 0C3.06641 0 2.59766 0.458984 2.59766 1.36719L2.59766 6.11328C2.59766 7.03125 3.06641 7.48047 3.99414 7.48047ZM19.8145 12.6758L22.6953 12.6758C23.6328 12.6758 24.1016 12.2168 24.1016 11.3086L24.1016 5.61523C24.1016 4.70703 23.6328 4.24805 22.6953 4.24805L19.8145 4.24805C18.8867 4.24805 18.418 4.70703 18.418 5.61523L18.418 11.3086C18.418 12.2168 18.8867 12.6758 19.8145 12.6758Z" fill="#000000" fill-opacity="0.425"/>
 </g>
</svg>
