<?xml version="1.0" encoding="UTF-8"?>
<!--Generator: Apple Native CoreSVG 175.5-->
<!DOCTYPE svg
PUBLIC "-//W3C//DTD SVG 1.1//EN"
       "http://www.w3.org/Graphics/SVG/1.1/DTD/svg11.dtd">
<svg version="1.1" xmlns="http://www.w3.org/2000/svg" xmlns:xlink="http://www.w3.org/1999/xlink" width="29.1309" height="17.1973">
 <g>
  <rect height="17.1973" opacity="0" width="29.1309" x="0" y="0"/>
  <path d="M14.5801 9.88281C16.1914 9.88281 17.5977 8.4375 17.5977 6.5625C17.5977 4.70703 16.1719 3.32031 14.5801 3.32031C12.959 3.32031 11.5527 4.73633 11.5625 6.58203C11.5625 8.4375 12.959 9.88281 14.5801 9.88281ZM9.64844 16.6797L19.4922 16.6797C20.3125 16.6797 20.8301 16.2891 20.8301 15.6348C20.8301 13.6816 18.418 11.0352 14.5801 11.0352C10.7227 11.0352 8.32031 13.6816 8.32031 15.6348C8.32031 16.2891 8.81836 16.6797 9.64844 16.6797Z" fill="#000000" fill-opacity="0.85"/>
  <path d="M5.3125 16.4453C5.74219 16.4453 6.12305 16.1035 6.12305 15.6738C6.12305 12.4023 7.7832 9.45312 10.3906 7.8418C10.2344 7.25586 10.1953 6.70898 10.2832 6.11328C6.81641 7.83203 4.53125 11.5527 4.53125 15.6738C4.53125 16.1035 4.87305 16.4453 5.3125 16.4453ZM23.8184 16.4453C24.248 16.4453 24.6094 16.1035 24.6094 15.6738C24.6094 11.5625 22.3438 7.87109 18.8965 6.13281C18.9551 6.69922 18.916 7.28516 18.7695 7.86133C21.3574 9.47266 23.0176 12.4121 23.0176 15.6738C23.0176 16.1035 23.3887 16.4453 23.8184 16.4453Z" fill="#000000" fill-opacity="0.425"/>
  <path d="M0.791016 16.4453C1.2207 16.4453 1.57227 16.1035 1.57227 15.6641C1.57227 7.90039 7.39258 1.57227 14.5605 1.57227C21.7188 1.57227 27.5586 7.90039 27.5586 15.6641C27.5586 16.1035 27.9004 16.4453 28.3301 16.4453C28.7695 16.4453 29.1309 16.1035 29.1309 15.6641C29.1309 7.04102 22.5781 0 14.5605 0C6.5332 0 0 7.04102 0 15.6641C0 16.1035 0.351562 16.4453 0.791016 16.4453Z" fill="#000000" fill-opacity="0.425"/>
 </g>
</svg>
