<?xml version="1.0" encoding="UTF-8"?>
<!--Generator: Apple Native CoreSVG 175.5-->
<!DOCTYPE svg
PUBLIC "-//W3C//DTD SVG 1.1//EN"
       "http://www.w3.org/Graphics/SVG/1.1/DTD/svg11.dtd">
<svg version="1.1" xmlns="http://www.w3.org/2000/svg" xmlns:xlink="http://www.w3.org/1999/xlink" width="24.1016" height="21.0547">
 <g>
  <rect height="21.0547" opacity="0" width="24.1016" x="0" y="0"/>
  <path d="M12.5781 13.7549C8.81836 13.9014 6.02539 16.46 6.02539 18.7061C6.02539 19.3701 6.54297 19.7705 7.40234 19.7705L18.1934 19.7705C18.3203 19.7705 18.4375 19.7607 18.5547 19.7412ZM1.39648 15.7959L3.36914 15.7959C4.29688 15.7959 4.76562 15.3369 4.76562 14.4189L4.76562 12.3975C4.76562 11.4893 4.29688 11.0303 3.36914 11.0303L1.39648 11.0303C0.46875 11.0303 0 11.4795 0 12.3975L0 14.4189C0 15.3369 0.46875 15.7959 1.39648 15.7959ZM2.59766 3.76465L2.59766 7.37793C2.59766 8.2959 3.06641 8.74512 3.99414 8.74512L7.57812 8.74512ZM19.8145 13.9404L22.6953 13.9404C23.6328 13.9404 24.1016 13.4814 24.1016 12.5732L24.1016 6.87988C24.1016 5.97168 23.6328 5.5127 22.6953 5.5127L19.8145 5.5127C18.8867 5.5127 18.418 5.97168 18.418 6.87988L18.418 12.5732C18.418 13.4814 18.8867 13.9404 19.8145 13.9404ZM9.56055 5.43457C10.3125 4.62402 11.3379 4.06738 12.4902 3.98926L12.4902 2.63184C12.4902 1.72363 12.0215 1.26465 11.084 1.26465L5.38086 1.26465ZM15.2148 11.0889C15.7129 10.4834 16.0156 9.66309 16.0156 8.76465C16.0156 6.78223 14.5215 5.30762 12.8027 5.30762C11.9141 5.30762 11.0938 5.72754 10.5078 6.38184Z" fill="#000000" fill-opacity="0.85"/>
  <path d="M21.2402 20.835C21.5332 21.1279 22.0117 21.1279 22.3047 20.835C22.5879 20.5322 22.5977 20.0732 22.3047 19.7705L2.94922 0.395508C2.64648 0.0927734 2.17773 0.102539 1.875 0.395508C1.5918 0.678711 1.5918 1.17676 1.875 1.45996Z" fill="#000000" fill-opacity="0.85"/>
 </g>
</svg>
