<?xml version="1.0" encoding="UTF-8"?>
<!--Generator: Apple Native CoreSVG 175.5-->
<!DOCTYPE svg
PUBLIC "-//W3C//DTD SVG 1.1//EN"
       "http://www.w3.org/Graphics/SVG/1.1/DTD/svg11.dtd">
<svg version="1.1" xmlns="http://www.w3.org/2000/svg" xmlns:xlink="http://www.w3.org/1999/xlink" width="19.7461" height="20.2441">
 <g>
  <rect height="20.2441" opacity="0" width="19.7461" x="0" y="0"/>
  <path d="M2.30957 5.25391L2.30957 12.0508C2.30957 15.6152 4.2334 16.9238 9.77051 20.0488C10.0244 20.1855 10.2686 20.2441 10.4248 20.2441C10.5811 20.2441 10.835 20.1855 11.0791 20.0488C12.6123 19.1895 13.8525 18.4668 14.8584 17.8125L13.667 16.6113C12.9346 17.0801 12.0654 17.5977 11.0303 18.2422C10.7568 18.418 10.5908 18.4766 10.4346 18.4766L10.4346 13.3789ZM17.71 15.2148C18.2959 14.3262 18.54 13.3398 18.54 12.0508L18.54 4.58008C18.54 3.55469 18.1006 3.23242 17.2705 2.88086C16.1182 2.40234 12.3975 1.06445 11.2451 0.664062C10.9814 0.576172 10.6982 0.517578 10.4248 0.517578C10.1514 0.517578 9.86816 0.595703 9.61426 0.664062C8.71582 0.9375 6.54785 1.72852 4.87793 2.37305L10.4346 7.92969L10.4346 2.08984C10.542 2.08984 10.6592 2.11914 10.8154 2.17773C12.29 2.76367 15.1514 3.79883 16.665 4.31641C16.9287 4.41406 16.9873 4.55078 16.9873 4.88281L16.9873 11.6895C16.9873 12.627 16.8408 13.3496 16.4893 13.9844Z" fill="#000000" fill-opacity="0.85"/>
  <path d="M18.4619 19.7852C18.7549 20.0781 19.2334 20.0781 19.5264 19.7852C19.8193 19.4922 19.8193 19.0137 19.5264 18.7207L1.29395 0.498047C1.00098 0.205078 0.512695 0.205078 0.219727 0.498047C-0.0732422 0.78125-0.0732422 1.26953 0.219727 1.5625Z" fill="#000000" fill-opacity="0.85"/>
 </g>
</svg>
