<?xml version="1.0" encoding="UTF-8"?>
<!--Generator: Apple Native CoreSVG 175.5-->
<!DOCTYPE svg
PUBLIC "-//W3C//DTD SVG 1.1//EN"
       "http://www.w3.org/Graphics/SVG/1.1/DTD/svg11.dtd">
<svg version="1.1" xmlns="http://www.w3.org/2000/svg" xmlns:xlink="http://www.w3.org/1999/xlink" width="28.3691" height="21.4941">
 <g>
  <rect height="21.4941" opacity="0" width="28.3691" x="0" y="0"/>
  <path d="M8.65234 13.7109L8.65234 14.4824C8.65234 15.8789 9.13086 16.3965 10.0195 16.9043L17.7051 21.2598C18.252 21.5723 18.7695 21.5723 19.3262 21.2598L27.002 16.9043C27.9004 16.3965 28.3691 15.8789 28.3691 14.4824L28.3691 6.74805C28.3691 5.73242 27.998 5.09766 27.1777 4.62891L20.2637 0.703125C19.082 0.0195312 17.9395 0.0195312 16.7578 0.703125L9.85352 4.62891C9.02344 5.09766 8.65234 5.73242 8.65234 6.74805L8.65234 10L10.1367 10L10.1367 7.06055L17.7441 11.4062L17.7441 19.5117L10.8984 15.6152C10.332 15.3027 10.1367 14.9707 10.1367 14.4336L10.1367 13.7109ZM26.1328 15.6152L19.2773 19.5117L19.2773 11.4062L26.8848 7.06055L26.8848 14.4336C26.8848 14.9707 26.6895 15.3027 26.1328 15.6152ZM18.5156 10.0391L10.9766 5.77148L13.9941 4.04297L21.5332 8.33008ZM23.1055 7.44141L15.5371 3.16406L17.4121 2.09961C18.1641 1.66992 18.8574 1.66016 19.6191 2.09961L26.0547 5.77148Z" fill="#000000" fill-opacity="0.85"/>
  <path d="M12.3535 11.8555C12.3535 11.3477 11.9922 10.9863 11.4941 10.9863L4.93164 10.9863L1.92383 11.084L1.92383 11.6309L4.58984 9.20898L5.9375 8.01758C6.15234 7.83203 6.2207 7.58789 6.2207 7.35352C6.2207 6.86523 5.84961 6.51367 5.36133 6.51367C5.13672 6.51367 4.93164 6.5918 4.73633 6.77734L0.302734 11.2012C0.107422 11.3867 0 11.6113 0 11.8555C0 12.0996 0.107422 12.3242 0.302734 12.5098L4.70703 16.9043C4.92188 17.1191 5.13672 17.1973 5.36133 17.1973C5.84961 17.1973 6.2207 16.8457 6.2207 16.3574C6.2207 16.123 6.16211 15.8789 5.9375 15.6934L4.58984 14.502L1.92383 12.0801L1.92383 12.627L4.93164 12.7246L11.4941 12.7246C11.9922 12.7246 12.3535 12.3633 12.3535 11.8555Z" fill="#000000" fill-opacity="0.85"/>
 </g>
</svg>
