<?xml version="1.0" encoding="UTF-8"?>
<!--Generator: Apple Native CoreSVG 175.5-->
<!DOCTYPE svg
PUBLIC "-//W3C//DTD SVG 1.1//EN"
       "http://www.w3.org/Graphics/SVG/1.1/DTD/svg11.dtd">
<svg version="1.1" xmlns="http://www.w3.org/2000/svg" xmlns:xlink="http://www.w3.org/1999/xlink" width="22.6542" height="21.2988">
 <g>
  <rect height="21.2988" opacity="0" width="22.6542" x="0" y="0"/>
  <path d="M14.1309 0.566406L10.3906 10.8691C10.2637 11.2305 10.4395 11.6211 10.8008 11.748C11.1621 11.8848 11.5527 11.6895 11.6797 11.3477L15.4395 1.04492C15.5664 0.683594 15.3809 0.292969 15.0195 0.15625C14.668 0.0195312 14.2578 0.214844 14.1309 0.566406ZM9.83398 10.498L13.457 0.517578C11.5723 0.0390625 9.77539 0.419922 8.44727 1.5918L8.26172 1.52344C7.05078 1.08398 5.91797 1.71875 5.39062 3.1543L1.12305 14.8926C0.810547 15.7617 1.18164 16.543 2.04102 16.875C2.92969 17.168 3.73047 16.8164 4.0332 15.9668L7.32422 6.9043L6.86523 7.1875C7.29492 8.59375 8.33008 9.76562 9.83398 10.498ZM2.69531 16.6895L1.67969 16.3184L0 20.9277L1.01562 21.2988Z" fill="#000000" fill-opacity="0.85"/>
  <path d="M14.7363 10.5957C15.0488 10.3125 15.0684 9.87305 14.8047 9.57031C14.5215 9.25781 14.0625 9.21875 13.7695 9.51172C13.4766 9.81445 13.457 10.2539 13.7402 10.5469C14.0137 10.8203 14.4531 10.8691 14.7363 10.5957ZM16.1328 7.01172C16.2695 6.65039 16.0645 6.23047 15.6934 6.10352C15.3223 5.9668 14.9023 6.14258 14.7656 6.52344C14.6289 6.9043 14.8145 7.34375 15.1953 7.48047C15.5762 7.61719 15.9863 7.41211 16.1328 7.01172ZM17.3633 3.42773C17.2852 3.03711 16.9531 2.7832 16.543 2.8418C16.1328 2.90039 15.8594 3.22266 15.918 3.62305C15.9668 4.01367 16.3184 4.28711 16.7285 4.24805C17.1387 4.18945 17.4023 3.82812 17.3633 3.42773Z" fill="#000000" fill-opacity="0.85"/>
  <path d="M16.5527 12.5684C16.8555 12.2852 16.8652 11.8262 16.582 11.5137C16.3281 11.25 15.8789 11.2305 15.5762 11.5039C15.293 11.7676 15.2734 12.2266 15.5273 12.5C15.8203 12.793 16.2598 12.832 16.5527 12.5684ZM18.6328 7.94922C18.7695 7.57812 18.5742 7.16797 18.1934 7.03125C17.8223 6.89453 17.4316 7.07031 17.2949 7.46094C17.1582 7.82227 17.334 8.23242 17.7148 8.36914C18.0957 8.50586 18.4961 8.32031 18.6328 7.94922ZM20 3.08594C19.9609 2.68555 19.5801 2.41211 19.1895 2.46094C18.8086 2.5293 18.5156 2.88086 18.5645 3.29102C18.623 3.65234 18.9844 3.93555 19.3848 3.89648C19.7754 3.83789 20.0586 3.47656 20 3.08594Z" fill="#000000" fill-opacity="0.85"/>
  <path d="M18.3496 14.5215C18.623 14.248 18.6621 13.8281 18.3984 13.5059C18.125 13.2129 17.666 13.2129 17.3828 13.4961C17.1094 13.7598 17.0605 14.1992 17.3242 14.4922C17.5977 14.7949 18.0664 14.7949 18.3496 14.5215ZM21.1523 8.84766C21.2891 8.47656 21.0938 8.06641 20.7227 7.92969C20.3418 7.79297 19.9219 7.97852 19.7852 8.34961C19.6484 8.7207 19.834 9.16992 20.2148 9.30664C20.5957 9.44336 21.0156 9.22852 21.1523 8.84766ZM22.6465 2.74414C22.5781 2.34375 22.2363 2.06055 21.8457 2.10938C21.4453 2.14844 21.1719 2.53906 21.2305 2.91016C21.2793 3.31055 21.6309 3.58398 22.0215 3.52539C22.4219 3.48633 22.7051 3.11523 22.6465 2.74414Z" fill="#000000" fill-opacity="0.85"/>
 </g>
</svg>
