<?xml version="1.0" encoding="UTF-8"?>
<!--Generator: Apple Native CoreSVG 175.5-->
<!DOCTYPE svg
PUBLIC "-//W3C//DTD SVG 1.1//EN"
       "http://www.w3.org/Graphics/SVG/1.1/DTD/svg11.dtd">
<svg version="1.1" xmlns="http://www.w3.org/2000/svg" xmlns:xlink="http://www.w3.org/1999/xlink" width="15.8398" height="21.1426">
 <g>
  <rect height="21.1426" opacity="0" width="15.8398" x="0" y="0"/>
  <path d="M10.8984 0L8.25195 0C6.5918 0 5.55664 1.01562 5.55664 2.63672L5.55664 4.35547L7.03125 4.35547L7.03125 2.63672C7.03125 1.92383 7.49023 1.48438 8.25195 1.48438L10.8984 1.48438C13.0078 1.48438 14.3652 2.94922 14.3652 5.21484L14.3652 20.3711C14.3652 20.8105 14.668 21.123 15.0977 21.123C15.5273 21.123 15.8398 20.8105 15.8398 20.3711L15.8398 5.21484C15.8398 2.04102 13.916 0 10.8984 0ZM0 11.9336C0 12.2852 0.292969 12.5684 0.644531 12.5684L11.9434 12.5684C12.2949 12.5684 12.5781 12.2852 12.5781 11.9336C12.5781 11.582 12.3047 11.2891 11.9629 11.2891L11.9043 11.2891C11.8262 9.18945 10.4883 7.37305 8.64258 6.51367L8.64258 5.76172C8.64258 4.41406 7.66602 3.41797 6.28906 3.41797C4.91211 3.41797 3.93555 4.41406 3.93555 5.76172L3.93555 6.51367C2.08984 7.37305 0.751953 9.18945 0.673828 11.2891L0.625 11.2891C0.283203 11.2891 0 11.582 0 11.9336Z" fill="#000000" fill-opacity="0.85"/>
  <path d="M3.01758 15.2246C3.41797 15.2246 3.73047 14.9121 3.73047 14.502C3.73047 14.1016 3.41797 13.7891 3.01758 13.7891C2.61719 13.7891 2.29492 14.1016 2.29492 14.502C2.29492 14.9121 2.61719 15.2246 3.01758 15.2246ZM6.2793 15.2246C6.67969 15.2246 6.99219 14.9121 6.99219 14.502C6.99219 14.1016 6.67969 13.7891 6.2793 13.7891C5.87891 13.7891 5.55664 14.1016 5.55664 14.502C5.55664 14.9121 5.87891 15.2246 6.2793 15.2246ZM9.53125 15.2246C9.93164 15.2246 10.2441 14.9121 10.2441 14.502C10.2441 14.1016 9.93164 13.7891 9.53125 13.7891C9.13086 13.7891 8.80859 14.1016 8.80859 14.502C8.80859 14.9121 9.13086 15.2246 9.53125 15.2246Z" fill="#000000" fill-opacity="0.85"/>
  <path d="M3.01758 17.9004C3.41797 17.9004 3.73047 17.5781 3.73047 17.1777C3.73047 16.7773 3.41797 16.4648 3.01758 16.4648C2.61719 16.4648 2.29492 16.7773 2.29492 17.1777C2.29492 17.5781 2.61719 17.9004 3.01758 17.9004ZM6.2793 17.9004C6.67969 17.9004 6.99219 17.5781 6.99219 17.1777C6.99219 16.7773 6.67969 16.4648 6.2793 16.4648C5.87891 16.4648 5.55664 16.7773 5.55664 17.1777C5.55664 17.5781 5.87891 17.9004 6.2793 17.9004ZM9.53125 17.9004C9.93164 17.9004 10.2441 17.5781 10.2441 17.1777C10.2441 16.7773 9.93164 16.4648 9.53125 16.4648C9.13086 16.4648 8.80859 16.7773 8.80859 17.1777C8.80859 17.5781 9.13086 17.9004 9.53125 17.9004Z" fill="#000000" fill-opacity="0.85"/>
  <path d="M3.01758 20.5762C3.41797 20.5762 3.73047 20.2539 3.73047 19.8535C3.73047 19.4531 3.41797 19.1406 3.01758 19.1406C2.61719 19.1406 2.29492 19.4531 2.29492 19.8535C2.29492 20.2539 2.61719 20.5762 3.01758 20.5762ZM6.2793 20.5762C6.67969 20.5762 6.99219 20.2539 6.99219 19.8535C6.99219 19.4531 6.67969 19.1406 6.2793 19.1406C5.87891 19.1406 5.55664 19.4531 5.55664 19.8535C5.55664 20.2539 5.87891 20.5762 6.2793 20.5762ZM9.53125 20.5762C9.93164 20.5762 10.2441 20.2539 10.2441 19.8535C10.2441 19.4531 9.93164 19.1406 9.53125 19.1406C9.13086 19.1406 8.80859 19.4531 8.80859 19.8535C8.80859 20.2539 9.13086 20.5762 9.53125 20.5762Z" fill="#000000" fill-opacity="0.85"/>
 </g>
</svg>
