<?xml version="1.0" encoding="UTF-8"?>
<!--Generator: Apple Native CoreSVG 175.5-->
<!DOCTYPE svg
PUBLIC "-//W3C//DTD SVG 1.1//EN"
       "http://www.w3.org/Graphics/SVG/1.1/DTD/svg11.dtd">
<svg version="1.1" xmlns="http://www.w3.org/2000/svg" xmlns:xlink="http://www.w3.org/1999/xlink" width="23.0078" height="13.4482">
 <g>
  <rect height="13.4482" opacity="0" width="23.0078" x="0" y="0"/>
  <path d="M1.80664 10.8403C3.31055 10.8403 4.15039 9.88327 4.15039 8.18405L4.15039 5.25436C4.15039 3.55514 3.31055 2.59811 1.80664 2.59811L0.908203 2.59811C0.332031 2.59811 0 2.93014 0 3.50631L0 9.93209C0 10.5083 0.332031 10.8403 0.908203 10.8403ZM1.80664 9.61959L1.38672 9.61959C1.28906 9.61959 1.2207 9.55123 1.2207 9.44381L1.2207 3.99459C1.2207 3.88717 1.28906 3.81881 1.38672 3.81881L1.80664 3.81881C2.5293 3.81881 2.92969 4.33639 2.92969 5.25436L2.92969 8.18405C2.92969 9.10202 2.5293 9.61959 1.80664 9.61959ZM11.6504 12.7153C12.5195 12.7153 13.0762 12.1587 13.0762 11.2895L13.0762 2.14889C13.0762 1.27975 12.5195 0.723109 11.6504 0.723109L9.49219 0.723109C6.96289 0.723109 5.38086 2.31491 5.38086 4.8442L5.38086 8.60397C5.38086 11.1333 6.96289 12.7153 9.49219 12.7153ZM11.3867 11.3383L9.49219 11.3383C7.8125 11.3383 6.75781 10.2739 6.75781 8.60397L6.75781 4.8442C6.75781 3.16452 7.8125 2.10983 9.49219 2.10983L11.3867 2.10983C11.5723 2.10983 11.6992 2.22702 11.6992 2.41256L11.6992 11.0356C11.6992 11.2114 11.5723 11.3383 11.3867 11.3383ZM15.0195 8.9067L15.0195 4.54147C15.0195 3.21334 14.2871 2.4028 13.125 2.4028L12.627 2.4028L12.627 11.0356L13.125 11.0356C14.2871 11.0356 15.0195 10.2153 15.0195 8.9067ZM6.24023 8.936L6.24023 7.55905L3.61328 7.55905L3.61328 8.936ZM6.24023 5.7817L6.24023 4.40475L3.61328 4.40475L3.61328 5.7817Z" fill="#000000" fill-opacity="0.85"/>
  <path d="M17.5879 10.5766C17.7734 10.2251 17.6367 9.79537 17.2852 9.60006C16.9238 9.41452 16.5039 9.55123 16.3086 9.91256C16.123 10.2739 16.2598 10.684 16.6211 10.8794C16.9727 11.0649 17.4023 10.9282 17.5879 10.5766ZM17.666 6.70944C17.666 6.30905 17.3438 5.99655 16.9434 5.99655C16.543 5.99655 16.2305 6.30905 16.2305 6.70944C16.2305 7.10983 16.543 7.43209 16.9434 7.43209C17.3438 7.43209 17.666 7.10983 17.666 6.70944ZM17.5879 2.85202C17.4023 2.51022 16.9727 2.3735 16.6211 2.55905C16.2598 2.74459 16.123 3.16452 16.3086 3.51608C16.5039 3.88717 16.9238 4.01412 17.2852 3.82858C17.6367 3.64303 17.7734 3.21334 17.5879 2.85202Z" fill="#000000" fill-opacity="0.85"/>
  <path d="M19.9609 11.8169C20.1465 11.4555 20 11.0258 19.6484 10.8403C19.2871 10.6645 18.8672 10.8012 18.6816 11.1528C18.5059 11.5044 18.6328 11.934 18.9844 12.1196C19.3359 12.3051 19.7754 12.1684 19.9609 11.8169ZM20.332 6.70944C20.332 6.30905 20.0098 5.99655 19.6094 5.99655C19.209 5.99655 18.8965 6.30905 18.8965 6.70944C18.8965 7.10983 19.209 7.43209 19.6094 7.43209C20.0098 7.43209 20.332 7.10983 20.332 6.70944ZM19.9609 1.62155C19.7754 1.26998 19.3359 1.13327 18.9844 1.31881C18.6328 1.50436 18.5059 1.93405 18.6816 2.28561C18.8672 2.62741 19.2871 2.77389 19.6484 2.59811C20 2.41256 20.1465 1.97311 19.9609 1.62155Z" fill="#000000" fill-opacity="0.85"/>
  <path d="M22.3145 13.0571C22.5 12.7055 22.373 12.2661 22.0117 12.0805C21.6504 11.895 21.2305 12.0415 21.0449 12.393C20.8594 12.7446 20.9961 13.1743 21.3574 13.3598C21.709 13.5356 22.1289 13.4087 22.3145 13.0571ZM23.0078 6.70944C23.0078 6.30905 22.6855 5.99655 22.2852 5.99655C21.8848 5.99655 21.5723 6.30905 21.5723 6.70944C21.5723 7.10983 21.8848 7.43209 22.2852 7.43209C22.6855 7.43209 23.0078 7.10983 23.0078 6.70944ZM22.3145 0.381312C22.1289 0.0297498 21.709-0.0972033 21.3574 0.0785779C20.9961 0.264125 20.8594 0.684047 21.0449 1.04537C21.2305 1.39694 21.6504 1.54342 22.0117 1.35787C22.373 1.17233 22.5 0.732875 22.3145 0.381312Z" fill="#000000" fill-opacity="0.85"/>
 </g>
</svg>
