<?xml version="1.0" encoding="UTF-8"?>
<!--Generator: Apple Native CoreSVG 175.5-->
<!DOCTYPE svg
PUBLIC "-//W3C//DTD SVG 1.1//EN"
       "http://www.w3.org/Graphics/SVG/1.1/DTD/svg11.dtd">
<svg version="1.1" xmlns="http://www.w3.org/2000/svg" xmlns:xlink="http://www.w3.org/1999/xlink" width="22.3612" height="21.3379">
 <g>
  <rect height="21.3379" opacity="0" width="22.3612" x="0" y="0"/>
  <path d="M13.8281 0.605469L10.0879 10.9082C9.95117 11.2695 10.1367 11.6699 10.5078 11.8066C10.8691 11.9434 11.2695 11.748 11.4062 11.3965L15.1562 1.09375C15.2832 0.722656 15.0977 0.322266 14.7363 0.185547C14.3652 0.0488281 13.9551 0.244141 13.8281 0.605469ZM1.95312 17.1777C2.94922 17.5391 3.92578 17.0703 4.27734 16.1035L7.41211 7.54883L6.89453 7.87109C7.4707 9.20898 8.64258 10.3418 10.2637 10.8398L10.6836 9.6582C8.73047 8.95508 7.58789 7.54883 7.53906 5.74219L7.1582 5.60547C6.99219 5.53711 6.79688 5.625 6.73828 5.80078L3.17383 15.5762C3.02734 15.9766 2.65625 16.084 2.34375 15.9668C2.06055 15.8496 1.875 15.5664 2.01172 15.2051L6.24023 3.60352C6.48438 2.91016 7.22656 2.56836 7.91016 2.8125L8.47656 3.01758C9.67773 1.61133 11.5039 1.23047 13.4961 1.95312L13.916 0.78125C11.748-0.00976562 9.64844 0.3125 8.1543 1.63086L7.97852 1.5625C6.77734 1.13281 5.61523 1.78711 5.09766 3.19336L0.859375 14.8438C0.507812 15.8203 0.976562 16.8164 1.95312 17.1777ZM2.69531 16.7285L1.67969 16.3574L0 20.9766L1.01562 21.3379Z" fill="#000000" fill-opacity="0.85"/>
  <path d="M14.4434 10.6348C14.7559 10.3613 14.7754 9.92188 14.5117 9.60938C14.2285 9.29688 13.7891 9.29688 13.4766 9.56055C13.1836 9.86328 13.1641 10.293 13.4473 10.5859C13.7207 10.8691 14.1602 10.9082 14.4434 10.6348ZM15.8398 7.05078C15.9766 6.68945 15.7715 6.2793 15.4004 6.14258C15.0293 6.00586 14.6094 6.18164 14.4727 6.5625C14.3359 6.95312 14.5215 7.38281 14.9023 7.51953C15.2832 7.65625 15.6934 7.45117 15.8398 7.05078ZM17.0703 3.47656C16.9922 3.07617 16.6602 2.83203 16.25 2.88086C15.8398 2.94922 15.5664 3.26172 15.625 3.66211C15.6738 4.0625 16.0254 4.32617 16.4355 4.28711C16.8457 4.22852 17.1094 3.87695 17.0703 3.47656Z" fill="#000000" fill-opacity="0.85"/>
  <path d="M16.2598 12.6074C16.5625 12.3242 16.5723 11.8652 16.2891 11.5625C16.0352 11.2891 15.5859 11.2793 15.2832 11.543C15 11.8164 14.9805 12.2656 15.2344 12.5391C15.5273 12.8418 15.9668 12.8711 16.2598 12.6074ZM18.3398 7.99805C18.4766 7.62695 18.2812 7.20703 17.9004 7.08008C17.5293 6.93359 17.1387 7.10938 17.002 7.5C16.8652 7.87109 17.041 8.27148 17.4219 8.4082C17.8027 8.54492 18.2031 8.35938 18.3398 7.99805ZM19.707 3.125C19.668 2.72461 19.2871 2.45117 18.8965 2.5C18.5156 2.56836 18.2227 2.91992 18.2715 3.33008C18.3301 3.69141 18.6914 3.97461 19.0918 3.93555C19.4824 3.87695 19.7656 3.51562 19.707 3.125Z" fill="#000000" fill-opacity="0.85"/>
  <path d="M18.0566 14.5605C18.3301 14.2871 18.3691 13.8672 18.1055 13.5547C17.832 13.252 17.373 13.252 17.0898 13.5352C16.8164 13.7988 16.7676 14.2383 17.0312 14.541C17.3047 14.8438 17.7734 14.834 18.0566 14.5605ZM20.8594 8.88672C20.9961 8.51562 20.8008 8.11523 20.4297 7.96875C20.0488 7.83203 19.6289 8.01758 19.4922 8.38867C19.3555 8.76953 19.541 9.20898 19.9219 9.3457C20.3027 9.48242 20.7227 9.26758 20.8594 8.88672ZM22.3535 2.7832C22.2852 2.38281 21.9434 2.09961 21.5527 2.14844C21.1523 2.1875 20.8789 2.57812 20.9375 2.94922C20.9863 3.34961 21.3379 3.62305 21.7285 3.57422C22.1289 3.53516 22.4121 3.1543 22.3535 2.7832Z" fill="#000000" fill-opacity="0.85"/>
 </g>
</svg>
