<?xml version="1.0" encoding="UTF-8"?>
<!--Generator: Apple Native CoreSVG 175.5-->
<!DOCTYPE svg
PUBLIC "-//W3C//DTD SVG 1.1//EN"
       "http://www.w3.org/Graphics/SVG/1.1/DTD/svg11.dtd">
<svg version="1.1" xmlns="http://www.w3.org/2000/svg" xmlns:xlink="http://www.w3.org/1999/xlink" width="20.0098" height="21.3574">
 <g>
  <rect height="21.3574" opacity="0" width="20.0098" x="0" y="0"/>
  <path d="M2.07031 12.4512L14.8145 12.4316C15.7031 12.4316 16.1035 12.1777 16.6016 11.6992L19.209 9.20898C20.2637 8.20312 20.293 7.2168 19.1992 6.16211L16.6016 3.68164C16.1035 3.20312 15.7031 2.93945 14.8242 2.93945L2.07031 2.93945C0.742188 2.93945 0 3.66211 0 4.9707L0 10.4102C0 11.7188 0.742188 12.4512 2.07031 12.4512ZM2.10938 10.8691C1.80664 10.8691 1.61133 10.6738 1.61133 10.3613L1.61133 5.01953C1.61133 4.70703 1.80664 4.51172 2.10938 4.51172L14.7754 4.51172C15.1562 4.51172 15.293 4.58984 15.4785 4.76562L18.1543 7.30469C18.4082 7.5293 18.4082 7.83203 18.1543 8.06641L15.4688 10.6152C15.2832 10.791 15.1562 10.8691 14.7656 10.8691ZM8.24219 4.16992L9.81445 4.16992L9.81445 0.791016C9.81445 0.361328 9.45312 0 9.02344 0C8.59375 0 8.24219 0.361328 8.24219 0.791016ZM8.24219 11.8945L8.24219 20.5078L9.81445 20.5078L9.81445 11.8945ZM4.48242 19.7754C4.48242 20.2051 4.84375 20.5566 5.27344 20.5566L12.793 20.5566C13.2227 20.5566 13.584 20.2051 13.584 19.7754C13.584 19.3457 13.2227 18.9844 12.793 18.9844L5.27344 18.9844C4.84375 18.9844 4.48242 19.3457 4.48242 19.7754Z" fill="#000000" fill-opacity="0.85"/>
 </g>
</svg>
