<?xml version="1.0" encoding="UTF-8"?>
<!--Generator: Apple Native CoreSVG 175.5-->
<!DOCTYPE svg
PUBLIC "-//W3C//DTD SVG 1.1//EN"
       "http://www.w3.org/Graphics/SVG/1.1/DTD/svg11.dtd">
<svg version="1.1" xmlns="http://www.w3.org/2000/svg" xmlns:xlink="http://www.w3.org/1999/xlink" width="19.8633" height="21.1621">
 <g>
  <rect height="21.1621" opacity="0" width="19.8633" x="0" y="0"/>
  <path d="M5.97656 18.1836L5.97656 16.6113L2.79297 16.6113C1.98242 16.6113 1.57227 16.2012 1.57227 15.4004L1.57227 2.7832C1.57227 1.99219 1.98242 1.57227 2.80273 1.57227L8.35938 1.57227C8.79883 1.57227 9.0918 1.68945 9.39453 1.99219L10.791 3.39844L12.9004 3.39844L10.2246 0.712891C9.7168 0.205078 9.20898 0 8.4082 0L2.73438 0C0.927734 0 0 0.947266 0 2.7832L0 15.4199C0 17.2461 0.927734 18.1836 2.73438 18.1836ZM5.37109 15.332L5.37109 11.1914L3.16406 11.1914L3.16406 14.0918C3.16406 14.8535 3.64258 15.332 4.38477 15.332ZM5.37109 10.2051L5.37109 7.85156L4.38477 7.85156C3.64258 7.85156 3.16406 8.32031 3.16406 9.08203L3.16406 10.2051Z" fill="#000000" fill-opacity="0.85"/>
  <path d="M8.10547 21.0547L17.1289 21.0547C18.9355 21.0547 19.8633 20.1074 19.8633 18.2812L19.8633 8.75977C19.8633 7.89062 19.6973 7.45117 19.1992 6.95312L15.5859 3.33984C15.0781 2.83203 14.5703 2.62695 13.7793 2.62695L8.10547 2.62695C6.29883 2.62695 5.36133 3.57422 5.36133 5.41016L5.36133 18.2812C5.36133 20.1074 6.29883 21.0547 8.10547 21.0547ZM8.1543 19.4824C7.34375 19.4824 6.93359 19.0723 6.93359 18.2617L6.93359 5.41016C6.93359 4.61914 7.35352 4.19922 8.16406 4.19922L13.7305 4.19922C14.1699 4.19922 14.4629 4.31641 14.7656 4.61914L17.9395 7.8125C18.2031 8.08594 18.291 8.33008 18.291 8.86719L18.291 18.2617C18.291 19.0723 17.8711 19.4824 17.0605 19.4824ZM8.50586 16.9629C8.50586 17.7148 8.98438 18.1934 9.72656 18.1934L10.9082 18.1934L10.9082 14.0332C10.9082 13.9453 10.8594 13.8965 10.7617 13.8965L8.50586 13.8965ZM8.50586 12.9102L11.3379 12.9102C11.6992 12.9102 11.8945 13.1152 11.8945 13.4473L11.8945 18.1934L13.5352 18.1934L13.5352 10.5566L9.72656 10.5566C8.98438 10.5566 8.50586 11.0254 8.50586 11.7871ZM14.5312 18.1934L15.4883 18.1934C16.2402 18.1934 16.709 17.7148 16.709 16.9629L16.709 11.7871C16.709 11.0254 16.2402 10.5566 15.4883 10.5566L14.5312 10.5566Z" fill="#000000" fill-opacity="0.85"/>
 </g>
</svg>
