<?xml version="1.0" encoding="UTF-8"?>
<!--Generator: Apple Native CoreSVG 175.5-->
<!DOCTYPE svg
PUBLIC "-//W3C//DTD SVG 1.1//EN"
       "http://www.w3.org/Graphics/SVG/1.1/DTD/svg11.dtd">
<svg version="1.1" xmlns="http://www.w3.org/2000/svg" xmlns:xlink="http://www.w3.org/1999/xlink" width="23.3398" height="17.1777">
 <g>
  <rect height="17.1777" opacity="0" width="23.3398" x="0" y="0"/>
  <path d="M7.19727 17.1484L18.9648 17.1484C21.5918 17.1484 23.3398 15.3418 23.3398 13.0469C23.3301 11.1328 22.041 9.52148 20.1855 9.0332C19.9414 6.64062 17.9492 4.77539 15.5371 4.77539C14.0137 4.77539 12.627 5.49805 11.7285 6.69922C11.377 6.62109 10.9863 6.55273 10.6055 6.55273C8.7207 6.5625 7.13867 7.89062 6.77734 9.70703C4.81445 9.92188 3.33984 11.4746 3.33984 13.418C3.33984 15.5664 4.96094 17.1484 7.19727 17.1484ZM7.19727 15.6738C5.78125 15.6738 4.81445 14.7559 4.81445 13.418C4.81445 12.1484 5.83984 11.1523 7.1582 11.1328C7.83203 11.1133 8.11523 10.9082 8.16406 10.332C8.27148 8.99414 9.28711 8.02734 10.6055 8.02734C10.9863 8.02734 11.2109 8.08594 11.6113 8.24219C12.1387 8.44727 12.4512 8.35938 12.666 7.92969C13.1738 6.91406 14.2871 6.25977 15.5371 6.25C17.3047 6.25 18.7305 7.70508 18.7305 9.48242C18.7305 10.1562 18.9258 10.3711 19.5898 10.4492C20.8789 10.5957 21.8652 11.7285 21.8652 13.0469C21.8652 14.6191 20.6934 15.6738 18.9648 15.6738ZM0 8.28125C0 10.4785 1.74805 12.334 4.46289 12.334L4.56055 12.334L5.01953 10.8594L4.66797 10.8594C2.73438 10.8594 1.47461 9.76562 1.47461 8.28125C1.47461 6.91406 2.5 5.79102 3.75977 5.64453C4.35547 5.57617 4.58008 5.30273 4.58008 4.67773C4.55078 2.94922 6.03516 1.47461 7.82227 1.47461C9.01367 1.48438 9.99023 2.08008 10.6445 3.13477C10.8789 3.52539 11.2305 3.61328 11.7285 3.45703C11.9922 3.36914 12.3926 3.28125 12.8223 3.28125C14.0137 3.28125 15.0195 4.20898 15.0586 5.40039L16.5625 5.40039C16.5234 3.38867 14.9121 1.80664 12.9297 1.80664C12.4414 1.80664 12.0117 1.86523 11.6406 1.96289C10.5176 0.625 9.30664 0 7.82227 0C5.40039 0.00976562 3.37891 1.875 3.11523 4.27734C1.26953 4.75586 0 6.38672 0 8.28125Z" fill="#000000" fill-opacity="0.85"/>
 </g>
</svg>
