<?xml version="1.0" encoding="UTF-8"?>
<!--Generator: Apple Native CoreSVG 175.5-->
<!DOCTYPE svg
PUBLIC "-//W3C//DTD SVG 1.1//EN"
       "http://www.w3.org/Graphics/SVG/1.1/DTD/svg11.dtd">
<svg version="1.1" xmlns="http://www.w3.org/2000/svg" xmlns:xlink="http://www.w3.org/1999/xlink" width="23.7598" height="17.041">
 <g>
  <rect height="17.041" opacity="0" width="23.7598" x="0" y="0"/>
  <path d="M7.50977 17.0312L19.6484 17.0312C22.0996 17.0312 23.7598 15.2832 23.7598 13.0957C23.7598 11.1719 22.3926 9.57031 20.5664 9.19922C20.4199 6.81641 18.4766 4.88281 16.0449 4.88281C14.4531 4.88281 13.0762 5.67383 12.2363 6.91406C11.8164 6.77734 11.4355 6.70898 10.9961 6.70898C9.12109 6.70898 7.57812 8.07617 7.30469 9.90234C5.36133 9.96094 3.82812 11.543 3.82812 13.457C3.82812 15.4492 5.30273 17.0312 7.50977 17.0312ZM2.87109 11.9434C3.39844 10.1172 4.6582 8.98438 6.39648 8.65234C7.11914 6.39648 9.00391 5.2832 11.1621 5.2832C11.4062 5.2832 11.6309 5.3125 11.8359 5.3418C12.6855 4.0918 13.9941 3.48633 15.6641 3.48633C15.332 2.59766 14.3262 1.81641 12.7637 1.81641C12.3047 1.81641 11.9336 1.9043 11.5234 2.03125C10.6641 0.78125 9.30664 0 7.74414 0C5.33203 0 3.33984 1.92383 3.19336 4.30664C1.34766 4.69727 0 6.28906 0 8.20312C0 9.92188 1.04492 11.4062 2.87109 11.9434Z" fill="#000000" fill-opacity="0.85"/>
 </g>
</svg>
