<?xml version="1.0" encoding="UTF-8"?>
<!--Generator: Apple Native CoreSVG 175.5-->
<!DOCTYPE svg
PUBLIC "-//W3C//DTD SVG 1.1//EN"
       "http://www.w3.org/Graphics/SVG/1.1/DTD/svg11.dtd">
<svg version="1.1" xmlns="http://www.w3.org/2000/svg" xmlns:xlink="http://www.w3.org/1999/xlink" width="24.4141" height="20.1855">
 <g>
  <rect height="20.1855" opacity="0" width="24.4141" x="0" y="0"/>
  <path d="M2.50977 16.875L21.9043 16.875C23.5742 16.875 24.4141 16.084 24.4141 14.3652L24.4141 3.17383C24.4141 1.46484 23.5742 0.673828 21.9043 0.673828L2.50977 0.673828C0.839844 0.673828 0 1.46484 0 3.17383L0 14.3652C0 16.084 0.839844 16.875 2.50977 16.875ZM7.29492 20.1855L17.1191 20.1855C17.5488 20.1855 17.9102 19.834 17.9102 19.3945C17.9102 18.9551 17.5488 18.6035 17.1191 18.6035L7.29492 18.6035C6.86523 18.6035 6.50391 18.9551 6.50391 19.3945C6.50391 19.834 6.86523 20.1855 7.29492 20.1855Z" fill="#000000" fill-opacity="0.85"/>
  <path d="M12.7148 12.8223C12.5 12.8223 12.3633 12.6953 12.334 12.4902C11.9043 9.55078 11.5234 8.89648 8.4375 8.58398C8.23242 8.55469 8.10547 8.4082 8.10547 8.21289C8.10547 8.02734 8.23242 7.87109 8.4375 7.8418C11.5137 7.43164 11.7773 6.89453 12.334 3.92578C12.3828 3.73047 12.5195 3.60352 12.7148 3.60352C12.9004 3.60352 13.0469 3.74023 13.0762 3.93555C13.5156 6.8457 13.916 7.43164 16.9824 7.8418C17.1777 7.87109 17.3145 8.02734 17.3145 8.21289C17.3145 8.4082 17.1777 8.55469 16.9824 8.58398C13.9062 8.99414 13.6328 9.55078 13.0762 12.5C13.0371 12.6953 12.9004 12.8223 12.7148 12.8223ZM8.75 14.4727C8.59375 14.4727 8.51562 14.3652 8.4668 14.209C8.17383 12.7734 8.30078 12.7051 6.71875 12.4707C6.55273 12.4414 6.46484 12.3438 6.46484 12.1875C6.46484 12.0508 6.55273 11.9336 6.69922 11.9141C8.30078 11.6504 8.17383 11.582 8.4668 10.1562C8.51562 10 8.60352 9.89258 8.75 9.89258C8.89648 9.89258 8.99414 10.0098 9.0332 10.1562C9.30664 11.582 9.20898 11.6504 10.8105 11.9141C10.9473 11.9336 11.0449 12.0508 11.0449 12.1875C11.0449 12.3242 10.9473 12.4414 10.8105 12.4707C9.20898 12.7051 9.30664 12.7734 9.0332 14.2383C8.99414 14.375 8.88672 14.4727 8.75 14.4727Z" fill="#ffffff"/>
 </g>
</svg>
