<?xml version="1.0" encoding="UTF-8"?>
<!--Generator: Apple Native CoreSVG 175.5-->
<!DOCTYPE svg
PUBLIC "-//W3C//DTD SVG 1.1//EN"
       "http://www.w3.org/Graphics/SVG/1.1/DTD/svg11.dtd">
<svg version="1.1" xmlns="http://www.w3.org/2000/svg" xmlns:xlink="http://www.w3.org/1999/xlink" width="20.459" height="21.6504">
 <g>
  <rect height="21.6504" opacity="0" width="20.459" x="0" y="0"/>
  <path d="M3.06641 21.6211L17.3926 21.6211C19.4238 21.6211 20.459 20.6055 20.459 18.5938L20.459 8.56445C20.459 6.55273 19.4238 5.53711 17.3926 5.53711L3.06641 5.53711C1.01562 5.53711 0 6.55273 0 8.56445L0 18.5938C0 20.6055 1.01562 21.6211 3.06641 21.6211ZM3.08594 20.0488C2.10938 20.0488 1.57227 19.5215 1.57227 18.5059L1.57227 8.65234C1.57227 7.63672 2.10938 7.10938 3.08594 7.10938L17.3633 7.10938C18.3301 7.10938 18.8867 7.63672 18.8867 8.65234L18.8867 18.5059C18.8867 19.5215 18.3301 20.0488 17.3633 20.0488ZM2.06055 3.96484L18.4082 3.96484C18.2617 3.07617 17.8418 2.58789 16.8652 2.58789L3.60352 2.58789C2.62695 2.58789 2.20703 3.07617 2.06055 3.96484ZM4.07227 1.25977L16.3965 1.25977C16.3379 0.429688 15.8691 0 14.9609 0L5.49805 0C4.59961 0 4.13086 0.429688 4.07227 1.25977Z" fill="#000000" fill-opacity="0.85"/>
  <path d="M10.7031 17.5195C10.8887 17.5195 11.0156 17.3926 11.0547 17.207C11.5918 14.3359 11.8555 13.7988 14.8438 13.3984C15.0391 13.3691 15.1758 13.2324 15.1758 13.0469C15.1758 12.8613 15.0391 12.7246 14.8438 12.6855C11.8652 12.2852 11.4844 11.7188 11.0547 8.89648C11.0254 8.70117 10.8887 8.57422 10.7031 8.57422C10.5273 8.57422 10.3809 8.69141 10.3418 8.88672C9.80469 11.7676 9.54102 12.2852 6.55273 12.6855C6.35742 12.7246 6.23047 12.8613 6.23047 13.0469C6.23047 13.2324 6.35742 13.3691 6.55273 13.3984C9.55078 13.7012 9.92188 14.3359 10.3418 17.1973C10.3711 17.3926 10.5078 17.5195 10.7031 17.5195ZM6.86523 19.1113C6.99219 19.1113 7.09961 19.0234 7.12891 18.8965C7.40234 17.4707 7.30469 17.4023 8.85742 17.168C8.99414 17.1484 9.08203 17.0312 9.08203 16.8945C9.08203 16.7676 8.99414 16.6504 8.85742 16.6309C7.30469 16.377 7.40234 16.3086 7.12891 14.9316C7.09961 14.7852 7.00195 14.6777 6.86523 14.6777C6.72852 14.6777 6.63086 14.7754 6.5918 14.9316C6.30859 16.3086 6.42578 16.377 4.87305 16.6309C4.72656 16.6504 4.64844 16.7676 4.64844 16.8945C4.64844 17.0508 4.72656 17.1484 4.89258 17.168C6.42578 17.4023 6.30859 17.4707 6.5918 18.8672C6.63086 19.0137 6.71875 19.1113 6.86523 19.1113Z" fill="#000000" fill-opacity="0.85"/>
 </g>
</svg>
