<?xml version="1.0" encoding="UTF-8"?>
<!--Generator: Apple Native CoreSVG 175.5-->
<!DOCTYPE svg
PUBLIC "-//W3C//DTD SVG 1.1//EN"
       "http://www.w3.org/Graphics/SVG/1.1/DTD/svg11.dtd">
<svg version="1.1" xmlns="http://www.w3.org/2000/svg" xmlns:xlink="http://www.w3.org/1999/xlink" width="19.9219" height="19.9316">
 <g>
  <rect height="19.9316" opacity="0" width="19.9219" x="0" y="0"/>
  <path d="M9.96094 19.9316C15.4102 19.9316 19.9219 15.4199 19.9219 9.9707C19.9219 4.53125 15.4004 0.00976562 9.95117 0.00976562C4.51172 0.00976562 0 4.53125 0 9.9707C0 15.4199 4.52148 19.9316 9.96094 19.9316Z" fill="#000000" fill-opacity="0.85"/>
  <path d="M7.28516 12.0605C6.60156 12.0605 6.21094 11.6699 6.21094 10.9375L6.21094 9.01367C6.21094 8.70117 6.33789 8.44727 6.49414 8.30078L6.57227 8.30078L12.2559 13.9746L12.1484 14.3262C12.0605 14.4238 11.9336 14.5117 11.7676 14.5117C11.5234 14.5117 11.3184 14.4141 11.084 14.1895L8.89648 12.0996C8.85742 12.0703 8.81836 12.0605 8.75977 12.0605ZM9.25781 7.50977L11.084 5.78125C11.3477 5.53711 11.5137 5.42969 11.7578 5.42969C12.0996 5.42969 12.3438 5.70312 12.3438 6.03516L12.3438 10.5957ZM14.707 15.3613L4.56055 5.22461C4.39453 5.03906 4.38477 4.74609 4.56055 4.57031C4.74609 4.38477 5.03906 4.38477 5.22461 4.57031L15.3613 14.707C15.5371 14.8926 15.5371 15.1758 15.3613 15.3613C15.1855 15.5371 14.8828 15.5273 14.707 15.3613Z" fill="#ffffff"/>
 </g>
</svg>
