<?xml version="1.0" encoding="UTF-8"?>
<!--Generator: Apple Native CoreSVG 175.5-->
<!DOCTYPE svg
PUBLIC "-//W3C//DTD SVG 1.1//EN"
       "http://www.w3.org/Graphics/SVG/1.1/DTD/svg11.dtd">
<svg version="1.1" xmlns="http://www.w3.org/2000/svg" xmlns:xlink="http://www.w3.org/1999/xlink" width="18.2324" height="19.7266">
 <g>
  <rect height="19.7266" opacity="0" width="18.2324" x="0" y="0"/>
  <path d="M3.94043 13.833L6.72363 13.833C6.82129 13.833 6.89941 13.8623 6.96777 13.9209L11.1865 17.8662C11.6455 18.2959 12.0166 18.4814 12.4658 18.4814C12.9736 18.4814 13.3545 18.2275 13.5107 17.6709L2.37793 6.54785C2.09473 6.87012 1.94824 7.3584 1.94824 8.0127L1.94824 11.7529C1.94824 13.1689 2.6123 13.833 3.94043 13.833ZM13.5791 12.4072L13.5791 2.40723C13.5791 1.77246 13.1201 1.25488 12.4561 1.25488C11.9971 1.25488 11.6943 1.45996 11.1865 1.92871L7.26074 5.57129C7.21191 5.61035 7.15332 5.64941 7.09473 5.64941L6.80176 5.64941Z" fill="#000000" fill-opacity="0.85"/>
  <path d="M16.9482 19.5068C17.2412 19.7998 17.7295 19.7998 18.0127 19.5068C18.3057 19.2041 18.3057 18.7354 18.0127 18.4424L1.29395 1.72363C1.00098 1.43066 0.512695 1.43066 0.219727 1.72363C-0.0732422 2.00684-0.0732422 2.50488 0.219727 2.78809Z" fill="#000000" fill-opacity="0.85"/>
 </g>
</svg>
