<?xml version="1.0" encoding="UTF-8"?>
<!--Generator: Apple Native CoreSVG 175.5-->
<!DOCTYPE svg
PUBLIC "-//W3C//DTD SVG 1.1//EN"
       "http://www.w3.org/Graphics/SVG/1.1/DTD/svg11.dtd">
<svg version="1.1" xmlns="http://www.w3.org/2000/svg" xmlns:xlink="http://www.w3.org/1999/xlink" width="17.9102" height="20.2051">
 <g>
  <rect height="20.2051" opacity="0" width="17.9102" x="0" y="0"/>
  <path d="M7.09961 9.60938L10.8008 9.60938C11.4453 9.60938 11.9043 9.15039 11.9043 8.50586L11.9043 7.82227C11.9043 6.76758 11.1328 6.02539 10.0195 6.02539L7.88086 6.02539C6.77734 6.02539 6.00586 6.76758 6.00586 7.82227L6.00586 8.50586C6.00586 9.15039 6.46484 9.60938 7.09961 9.60938ZM7.51953 8.38867C7.37305 8.38867 7.27539 8.29102 7.27539 8.13477L7.27539 7.82227C7.27539 7.42188 7.49023 7.24609 7.92969 7.24609L9.9707 7.24609C10.4199 7.24609 10.6348 7.42188 10.6348 7.82227L10.6348 8.13477C10.6348 8.29102 10.5371 8.38867 10.3809 8.38867ZM7.10938 14.2871L10.8008 14.2871C11.4453 14.2871 11.9043 13.8281 11.9043 13.1738L11.9043 11.7188C11.9043 11.0742 11.4453 10.625 10.8008 10.625L7.10938 10.625C6.46484 10.625 6.00586 11.0742 6.00586 11.7188L6.00586 13.1738C6.00586 13.8281 6.46484 14.2871 7.10938 14.2871ZM7.48047 13.0566C7.32422 13.0566 7.22656 12.9688 7.22656 12.8125L7.22656 12.0996C7.22656 11.9434 7.32422 11.8457 7.48047 11.8457L10.4297 11.8457C10.5859 11.8457 10.6836 11.9434 10.6836 12.0996L10.6836 12.8125C10.6836 12.9688 10.5859 13.0566 10.4297 13.0566ZM7.29492 11.4551L8.60352 11.4551L8.60352 8.94531L7.29492 8.94531ZM9.30664 11.4551L10.6152 11.4551L10.6152 8.94531L9.30664 8.94531ZM7.09961 18.4961L8.4082 18.4961L8.4082 13.7695L7.09961 13.7695ZM9.50195 18.4961L10.8105 18.4961L10.8105 13.7695L9.50195 13.7695ZM1.15234 19.3066L16.7578 19.3066C17.1777 19.3066 17.5391 18.9551 17.5391 18.5352C17.5391 18.0957 17.1777 17.7539 16.7578 17.7539L1.15234 17.7539C0.732422 17.7539 0.371094 18.0957 0.371094 18.5352C0.371094 18.9551 0.732422 19.3066 1.15234 19.3066Z" fill="#000000" fill-opacity="0.85"/>
  <path d="M4.6875 8.28125C4.6875 7.69531 4.21875 7.22656 3.64258 7.22656C3.07617 7.22656 2.60742 7.69531 2.60742 8.28125C2.60742 8.83789 3.07617 9.30664 3.64258 9.30664C4.21875 9.30664 4.6875 8.83789 4.6875 8.28125ZM5.67383 5.25391C6.08398 4.84375 6.07422 4.17969 5.67383 3.7793C5.2832 3.37891 4.61914 3.36914 4.20898 3.78906C3.80859 4.17969 3.80859 4.84375 4.20898 5.23438C4.61914 5.6543 5.2832 5.66406 5.67383 5.25391ZM8.95508 4.6875C9.52148 4.6875 9.98047 4.20898 9.98047 3.64258C9.98047 3.07617 9.52148 2.59766 8.95508 2.59766C8.36914 2.59766 7.91016 3.07617 7.91016 3.64258C7.91016 4.20898 8.36914 4.6875 8.95508 4.6875ZM12.2363 5.25391C12.627 5.66406 13.291 5.6543 13.7012 5.23438C14.1016 4.84375 14.1016 4.17969 13.7012 3.78906C13.291 3.36914 12.627 3.37891 12.2363 3.7793C11.8262 4.17969 11.8164 4.84375 12.2363 5.25391ZM13.2227 8.28125C13.2227 8.83789 13.6914 9.30664 14.2676 9.30664C14.834 9.30664 15.3027 8.83789 15.3027 8.28125C15.3027 7.69531 14.834 7.22656 14.2676 7.22656C13.6914 7.22656 13.2227 7.69531 13.2227 8.28125Z" fill="#000000" fill-opacity="0.85"/>
  <path d="M1.61133 8.28125C1.61133 7.8125 1.24023 7.4707 0.810547 7.4707C0.361328 7.4707 0 7.82227 0 8.28125C0 8.7207 0.361328 9.07227 0.810547 9.07227C1.24023 9.07227 1.61133 8.73047 1.61133 8.28125ZM3.49609 3.07617C3.82812 2.75391 3.81836 2.24609 3.50586 1.94336C3.19336 1.62109 2.68555 1.62109 2.36328 1.94336C2.05078 2.25586 2.05078 2.75391 2.37305 3.06641C2.67578 3.37891 3.18359 3.39844 3.49609 3.07617ZM8.95508 1.61133C9.4043 1.61133 9.74609 1.24023 9.74609 0.800781C9.74609 0.351562 9.39453 0 8.95508 0C8.50586 0 8.14453 0.351562 8.14453 0.800781C8.14453 1.24023 8.49609 1.61133 8.95508 1.61133ZM14.4141 3.07617C14.7266 3.39844 15.2344 3.37891 15.5371 3.06641C15.8594 2.75391 15.8594 2.25586 15.5469 1.94336C15.2246 1.62109 14.7168 1.62109 14.4043 1.94336C14.0918 2.24609 14.082 2.75391 14.4141 3.07617ZM16.2988 8.28125C16.2988 8.73047 16.6699 9.07227 17.0996 9.07227C17.5488 9.07227 17.9102 8.7207 17.9102 8.28125C17.9102 7.82227 17.5488 7.4707 17.0996 7.4707C16.6699 7.4707 16.2988 7.8125 16.2988 8.28125Z" fill="#000000" fill-opacity="0.85"/>
 </g>
</svg>
