<?xml version="1.0" encoding="UTF-8"?>
<!--Generator: Apple Native CoreSVG 175.5-->
<!DOCTYPE svg
PUBLIC "-//W3C//DTD SVG 1.1//EN"
       "http://www.w3.org/Graphics/SVG/1.1/DTD/svg11.dtd">
<svg version="1.1" xmlns="http://www.w3.org/2000/svg" xmlns:xlink="http://www.w3.org/1999/xlink" width="19.209" height="22.5684">
 <g>
  <rect height="22.5684" opacity="0" width="19.209" x="0" y="0"/>
  <path d="M1.00586 17.9297C1.18164 17.9297 1.38672 17.8711 1.58203 17.7344L1.58203 7.28516C1.58203 6.93359 1.65039 6.79688 1.95312 6.63086L11.0059 1.41602C11.0449 0.771484 10.625 0.371094 10.0781 0.371094C9.82422 0.371094 9.55078 0.439453 9.25781 0.615234L1.06445 5.32227C0.107422 5.87891 0 6.05469 0 7.16797L0 16.5137C0 17.3535 0.400391 17.9297 1.00586 17.9297Z" fill="#000000" fill-opacity="0.85"/>
  <path d="M4.90234 20.1855C5.08789 20.1855 5.2832 20.127 5.47852 19.9902L5.47852 9.54102C5.47852 9.16016 5.53711 9.0625 5.85938 8.88672L14.9121 3.66211C14.9414 3.02734 14.541 2.61719 13.9648 2.61719C13.7207 2.61719 13.4473 2.69531 13.1543 2.85156L4.96094 7.56836C4.00391 8.11523 3.88672 8.32031 3.88672 9.41406L3.88672 18.7695C3.88672 19.6094 4.31641 20.1855 4.90234 20.1855Z" fill="#000000" fill-opacity="0.85"/>
  <path d="M9.0918 22.5684C9.43359 22.5684 9.84375 22.4316 10.332 22.1582L17.9883 17.7637C18.8867 17.2461 19.209 16.709 19.209 15.6152L19.209 6.76758C19.209 5.5957 18.7988 5 18.0664 5C17.7344 5 17.334 5.12695 16.875 5.39062L9.19922 9.81445C8.28125 10.3516 7.95898 10.8984 7.95898 11.9629L7.95898 20.8105C7.95898 21.9434 8.34961 22.5684 9.0918 22.5684ZM9.61914 20.6641C9.56055 20.6543 9.55078 20.625 9.55078 20.5566L9.61914 11.9922C9.61914 11.6211 9.72656 11.4258 10.0488 11.2402L17.4414 6.89453C17.4805 6.875 17.5098 6.875 17.5391 6.88477C17.5879 6.89453 17.6074 6.92383 17.6074 6.99219L17.5781 15.5859C17.5781 15.9082 17.4707 16.1523 17.1484 16.3477L9.7168 20.6543C9.67773 20.6738 9.64844 20.6738 9.61914 20.6641Z" fill="#000000" fill-opacity="0.85"/>
 </g>
</svg>
