<?xml version="1.0" encoding="UTF-8"?>
<!--Generator: Apple Native CoreSVG 175.5-->
<!DOCTYPE svg
PUBLIC "-//W3C//DTD SVG 1.1//EN"
       "http://www.w3.org/Graphics/SVG/1.1/DTD/svg11.dtd">
<svg version="1.1" xmlns="http://www.w3.org/2000/svg" xmlns:xlink="http://www.w3.org/1999/xlink" width="22.207" height="26.5527">
 <g>
  <rect height="26.5527" opacity="0" width="22.207" x="0" y="0"/>
  <path d="M0 19.0039C0 21.0254 1.02539 22.0312 3.06641 22.0312L14.2676 22.0312C16.3086 22.0312 17.334 21.0156 17.334 19.0039L17.334 9.46289C17.334 7.45117 16.3086 6.43555 14.2676 6.43555L9.44336 6.43555L9.44336 1.70898C9.44336 1.29883 9.0918 0.957031 8.67188 0.957031C8.25195 0.957031 7.89062 1.29883 7.89062 1.70898L7.89062 6.43555L3.06641 6.43555C1.02539 6.43555 0 7.44141 0 9.46289ZM8.67188 15.7422C8.4668 15.7422 8.30078 15.6738 8.10547 15.4785L4.80469 12.2949C4.6582 12.1484 4.57031 11.9922 4.57031 11.7773C4.57031 11.3867 4.86328 11.0938 5.27344 11.0938C5.45898 11.0938 5.67383 11.1719 5.81055 11.3281L7.4707 13.0859L7.94922 13.6035L7.89062 12.1387L7.89062 7.10938C7.89062 6.66992 8.21289 6.37695 8.67188 6.37695C9.13086 6.37695 9.44336 6.66992 9.44336 7.10938L9.44336 12.1387L9.38477 13.5938L9.86328 13.0859L11.5234 11.3281C11.6602 11.1719 11.8652 11.0938 12.0508 11.0938C12.4512 11.0938 12.7637 11.3867 12.7637 11.7773C12.7637 11.9922 12.6758 12.1484 12.5293 12.2949L9.22852 15.4785C9.0332 15.6738 8.86719 15.7422 8.67188 15.7422ZM8.76953 26.5527L19.1406 26.5527C21.1914 26.5527 22.207 25.5469 22.207 23.5254L22.207 13.7891C22.207 11.7676 21.1914 10.7617 19.1406 10.7617L18.6621 10.7617L18.6621 19.1504C18.6621 21.9238 17.207 23.3691 14.4141 23.3691L5.70312 23.3691L5.70312 23.4668C5.70312 25.5078 6.66992 26.5527 8.76953 26.5527Z" fill="#000000" fill-opacity="0.85"/>
 </g>
</svg>
