<?xml version="1.0" encoding="UTF-8"?>
<!--Generator: Apple Native CoreSVG 175.5-->
<!DOCTYPE svg
PUBLIC "-//W3C//DTD SVG 1.1//EN"
       "http://www.w3.org/Graphics/SVG/1.1/DTD/svg11.dtd">
<svg version="1.1" xmlns="http://www.w3.org/2000/svg" xmlns:xlink="http://www.w3.org/1999/xlink" width="19.3213" height="20.6396">
 <g>
  <rect height="20.6396" opacity="0" width="19.3213" x="0" y="0"/>
  <path d="M3.06641 19.2895L14.5312 19.2895C16.2891 19.2895 17.3047 18.2739 17.3047 16.2622L17.3047 5.82271L15.7324 7.39497L15.7324 16.184C15.7324 17.1997 15.1855 17.7172 14.5117 17.7172L3.0957 17.7172C2.11914 17.7172 1.57227 17.1997 1.57227 16.184L1.57227 5.10005C1.57227 4.08443 2.11914 3.55708 3.0957 3.55708L11.9922 3.55708L13.5645 1.98482L3.06641 1.98482C1.03516 1.98482 0 3.00044 0 5.01216L0 16.2622C0 18.2836 1.03516 19.2895 3.06641 19.2895Z" fill="#000000" fill-opacity="0.85"/>
  <path d="M6.62109 12.9614L8.52539 12.1313L17.6465 3.01997L16.3086 1.70161L7.19727 10.8129L6.31836 12.6489C6.24023 12.8149 6.43555 13.0395 6.62109 12.9614ZM18.3691 2.30708L19.0723 1.58443C19.4043 1.23286 19.4043 0.764113 19.0723 0.441848L18.8477 0.207473C18.5449-0.0952615 18.0664-0.056199 17.7441 0.256301L17.0312 0.959426Z" fill="#000000" fill-opacity="0.85"/>
 </g>
</svg>
