<?xml version="1.0" encoding="UTF-8"?>
<!--Generator: Apple Native CoreSVG 175.5-->
<!DOCTYPE svg
PUBLIC "-//W3C//DTD SVG 1.1//EN"
       "http://www.w3.org/Graphics/SVG/1.1/DTD/svg11.dtd">
<svg version="1.1" xmlns="http://www.w3.org/2000/svg" xmlns:xlink="http://www.w3.org/1999/xlink" width="22.2168" height="22.5293">
 <g>
  <rect height="22.5293" opacity="0" width="22.2168" x="0" y="0"/>
  <path d="M9.3457 4.3457L15.1074 4.3457C13.7891 1.76758 11.1035 0 8.00781 0C3.58398 0 0 3.58398 0 8.00781C0 11.3574 2.04102 14.209 4.95117 15.4199L4.95117 8.70117C4.95117 5.9375 6.57227 4.3457 9.3457 4.3457Z" fill="#000000" fill-opacity="0.85"/>
  <path d="M6.2793 18.584C6.2793 20.5957 7.30469 21.6113 9.3457 21.6113L19.1504 21.6113C21.1914 21.6113 22.2168 20.5957 22.2168 18.584L22.2168 8.70117C22.2168 6.68945 21.1914 5.67383 19.1504 5.67383L9.3457 5.67383C7.30469 5.67383 6.2793 6.68945 6.2793 8.70117Z" fill="#000000" fill-opacity="0.85"/>
 </g>
</svg>
