<?xml version="1.0" encoding="UTF-8"?>
<!--Generator: Apple Native CoreSVG 175.5-->
<!DOCTYPE svg
PUBLIC "-//W3C//DTD SVG 1.1//EN"
       "http://www.w3.org/Graphics/SVG/1.1/DTD/svg11.dtd">
<svg version="1.1" xmlns="http://www.w3.org/2000/svg" xmlns:xlink="http://www.w3.org/1999/xlink" width="22.207" height="26.5527">
 <g>
  <rect height="26.5527" opacity="0" width="22.207" x="0" y="0"/>
  <path d="M3.06641 22.0312L14.2676 22.0312C16.3086 22.0312 17.334 21.0156 17.334 19.0039L17.334 9.26758C17.334 7.25586 16.3086 6.24023 14.2676 6.24023L11.543 6.24023L11.543 7.8125L14.2383 7.8125C15.2051 7.8125 15.7617 8.33008 15.7617 9.3457L15.7617 18.9258C15.7617 19.9414 15.2051 20.459 14.2383 20.459L3.08594 20.459C2.10938 20.459 1.57227 19.9414 1.57227 18.9258L1.57227 9.3457C1.57227 8.33008 2.10938 7.8125 3.08594 7.8125L5.79102 7.8125L5.79102 6.24023L3.06641 6.24023C1.02539 6.24023 0 7.24609 0 9.26758L0 19.0039C0 21.0254 1.02539 22.0312 3.06641 22.0312ZM8.76953 26.5527L19.1406 26.5527C21.1816 26.5527 22.207 25.5469 22.207 23.5254L22.207 13.7891C22.207 11.7676 21.1816 10.7617 19.1406 10.7617L16.8262 10.7617L16.8262 12.334L19.1211 12.334C20.0977 12.334 20.6348 12.8516 20.6348 13.8672L20.6348 23.4473C20.6348 24.4629 20.0977 24.9805 19.1211 24.9805L8.79883 24.9805C7.83203 24.9805 7.27539 24.4629 7.27539 23.4473L7.27539 21.2402L5.70312 21.2402L5.70312 23.5254C5.70312 25.5371 6.72852 26.5527 8.76953 26.5527Z" fill="#000000" fill-opacity="0.85"/>
  <path d="M8.66211 14.3848C9.08203 14.3848 9.44336 14.043 9.44336 13.6328L9.44336 3.59375L9.38477 2.13867L10.0391 2.83203L11.5234 4.4043C11.6602 4.56055 11.8555 4.63867 12.0508 4.63867C12.4512 4.63867 12.7637 4.35547 12.7637 3.95508C12.7637 3.74023 12.6758 3.58398 12.5293 3.4375L9.22852 0.253906C9.0332 0.0585938 8.86719 0 8.66211 0C8.4668 0 8.30078 0.0585938 8.0957 0.253906L4.79492 3.4375C4.64844 3.58398 4.57031 3.74023 4.57031 3.95508C4.57031 4.35547 4.86328 4.63867 5.27344 4.63867C5.45898 4.63867 5.67383 4.56055 5.81055 4.4043L7.28516 2.83203L7.94922 2.13867L7.89062 3.59375L7.89062 13.6328C7.89062 14.043 8.24219 14.3848 8.66211 14.3848Z" fill="#000000" fill-opacity="0.85"/>
 </g>
</svg>
