<?xml version="1.0" encoding="UTF-8"?>
<!--Generator: Apple Native CoreSVG 175.5-->
<!DOCTYPE svg
PUBLIC "-//W3C//DTD SVG 1.1//EN"
       "http://www.w3.org/Graphics/SVG/1.1/DTD/svg11.dtd">
<svg version="1.1" xmlns="http://www.w3.org/2000/svg" xmlns:xlink="http://www.w3.org/1999/xlink" width="22.0801" height="22.0801">
 <g>
  <rect height="22.0801" opacity="0" width="22.0801" x="0" y="0"/>
  <path d="M7.65625 8.4668L19.8145 8.4668L19.8145 6.89453L7.65625 6.89453ZM19.0332 19.8242L20.6055 19.8242L20.6055 7.67578L19.0332 7.67578ZM7.65625 20.6055L19.8145 20.6055L19.8145 19.0332L7.65625 19.0332ZM6.86523 19.8242L8.4375 19.8242L8.4375 7.67578L6.86523 7.67578ZM2.26562 15.1953L7.59766 15.1953L7.59766 13.623L2.26562 13.623ZM1.47461 14.4141L3.04688 14.4141L3.04688 2.26562L1.47461 2.26562ZM2.26562 3.05664L14.4238 3.05664L14.4238 1.48438L2.26562 1.48438ZM13.6426 7.8125L15.2148 7.8125L15.2148 2.26562L13.6426 2.26562Z" fill="#000000" fill-opacity="0.85"/>
  <path d="M7.65625 9.94141C8.90625 9.94141 9.91211 8.93555 9.91211 7.67578C9.91211 6.42578 8.90625 5.41992 7.65625 5.41992C6.39648 5.41992 5.39062 6.42578 5.39062 7.67578C5.39062 8.93555 6.39648 9.94141 7.65625 9.94141ZM19.8145 9.94141C21.0645 9.94141 22.0801 8.93555 22.0801 7.67578C22.0801 6.42578 21.0645 5.41992 19.8145 5.41992C18.5645 5.41992 17.5488 6.42578 17.5488 7.67578C17.5488 8.93555 18.5645 9.94141 19.8145 9.94141ZM19.8145 22.0801C21.0645 22.0801 22.0801 21.0742 22.0801 19.8242C22.0801 18.5742 21.0645 17.5586 19.8145 17.5586C18.5645 17.5586 17.5488 18.5742 17.5488 19.8242C17.5488 21.0742 18.5645 22.0801 19.8145 22.0801ZM7.65625 22.0801C8.90625 22.0801 9.91211 21.0742 9.91211 19.8242C9.91211 18.5742 8.90625 17.5586 7.65625 17.5586C6.39648 17.5586 5.39062 18.5742 5.39062 19.8242C5.39062 21.0742 6.39648 22.0801 7.65625 22.0801ZM2.26562 16.6797C3.56445 16.6797 4.52148 15.6641 4.52148 14.4141C4.52148 13.1641 3.51562 12.1484 2.26562 12.1484C1.00586 12.1484 0 13.1641 0 14.4141C0 15.6641 1.00586 16.6797 2.26562 16.6797ZM2.26562 4.53125C3.51562 4.53125 4.52148 3.52539 4.52148 2.26562C4.52148 1.01562 3.51562 0.00976562 2.26562 0.00976562C1.00586 0.00976562 0 1.01562 0 2.26562C0 3.52539 1.00586 4.53125 2.26562 4.53125ZM14.4238 4.53125C15.6738 4.53125 16.6895 3.52539 16.6895 2.26562C16.6895 1.01562 15.6738 0.00976562 14.4238 0.00976562C13.1738 0.00976562 12.1582 1.01562 12.1582 2.26562C12.1582 3.52539 13.1738 4.53125 14.4238 4.53125Z" fill="#000000" fill-opacity="0.85"/>
 </g>
</svg>
