<?xml version="1.0" encoding="UTF-8"?>
<!--Generator: Apple Native CoreSVG 175.5-->
<!DOCTYPE svg
PUBLIC "-//W3C//DTD SVG 1.1//EN"
       "http://www.w3.org/Graphics/SVG/1.1/DTD/svg11.dtd">
<svg version="1.1" xmlns="http://www.w3.org/2000/svg" xmlns:xlink="http://www.w3.org/1999/xlink" width="19.2676" height="22.279">
 <g>
  <rect height="22.279" opacity="0" width="19.2676" x="0" y="0"/>
  <path d="M14.5898 15.7537L16.9141 17.0916C18.291 17.8827 19.2676 17.3553 19.2676 15.7147L19.2676 6.86703C19.2676 5.8514 18.9355 5.27523 18.0664 4.76742L10.2441 0.245934C9.27734-0.300941 8.04688 0.0506216 8.04688 1.43734L8.04688 4.52328L9.63867 5.31429L9.63867 1.97445C9.63867 1.87679 9.70703 1.82797 9.80469 1.88656L17.2461 6.18343C17.5586 6.36898 17.6758 6.5057 17.6758 6.92562L17.6758 15.4803C17.6758 15.578 17.6172 15.6073 17.5293 15.5584L14.5898 13.8592Z" fill="#000000" fill-opacity="0.85"/>
  <path d="M10.3613 17.8045L13.0176 19.3475C14.3945 20.1287 15.3711 19.6014 15.3711 17.9705L15.3711 9.11312C15.3711 8.10726 15.0488 7.53109 14.1699 7.01351L6.34766 2.50179C5.38086 1.94515 4.15039 2.30648 4.15039 3.68343L4.15039 7.05257L5.74219 7.88265L5.74219 4.22054C5.74219 4.13265 5.82031 4.07406 5.9082 4.13265L13.3496 8.42953C13.6621 8.61507 13.7793 8.75179 13.7793 9.17172L13.7793 17.7264C13.7793 17.8241 13.7207 17.8534 13.6328 17.8045L10.3613 15.9198Z" fill="#000000" fill-opacity="0.85"/>
  <path d="M11.2207 11.5545C11.2207 10.5487 10.8887 9.9725 10.0195 9.46468L2.19727 4.9432C1.23047 4.39632 0 4.74789 0 6.12484L0 15.2264C0 16.2616 0.263672 16.8182 1.2207 17.3651L8.86719 21.7889C10.2441 22.5799 11.2207 22.0428 11.2207 20.4119ZM9.19922 10.8709C9.51172 11.0565 9.62891 11.1932 9.62891 11.6131L9.62891 20.1678C9.62891 20.2655 9.57031 20.3045 9.48242 20.2557L2.01172 15.9393C1.67969 15.744 1.5918 15.5877 1.5918 15.1971L1.5918 6.66195C1.5918 6.57406 1.66016 6.52523 1.75781 6.57406Z" fill="#000000" fill-opacity="0.85"/>
 </g>
</svg>
