<?xml version="1.0" encoding="UTF-8"?>
<!--Generator: Apple Native CoreSVG 175.5-->
<!DOCTYPE svg
PUBLIC "-//W3C//DTD SVG 1.1//EN"
       "http://www.w3.org/Graphics/SVG/1.1/DTD/svg11.dtd">
<svg version="1.1" xmlns="http://www.w3.org/2000/svg" xmlns:xlink="http://www.w3.org/1999/xlink" width="20.907" height="22.1191">
 <g>
  <rect height="22.1191" opacity="0" width="20.907" x="0" y="0"/>
  <path d="M6.97021 10.8301L1.67725 5.53711C1.14014 5.9082 0.935059 6.21094 0.935059 6.65039C0.935059 7.1582 1.21826 7.5 1.97021 7.93945ZM13.4741 11.6504L19.8022 7.97852C20.5933 7.51953 20.896 7.1582 20.896 6.62109C20.896 6.09375 20.5933 5.73242 19.8022 5.27344L12.1655 0.839844C11.6968 0.566406 11.3159 0.439453 10.9253 0.439453C10.5249 0.439453 10.1538 0.566406 9.67529 0.839844L5.2417 3.4082L6.42334 4.59961L10.4858 2.27539C10.6519 2.1875 10.7788 2.13867 10.9253 2.13867C11.062 2.13867 11.189 2.1875 11.355 2.27539L18.7866 6.5332C18.8354 6.55273 18.855 6.58203 18.855 6.62109C18.855 6.66992 18.8354 6.69922 18.7866 6.71875L12.2729 10.4492ZM10.9253 17.627C11.2769 17.627 11.5796 17.4609 11.9897 17.2168L13.0054 16.6113L11.853 15.459L11.2964 15.7812C11.1499 15.8594 11.0327 15.918 10.9253 15.918C10.8081 15.918 10.6909 15.8594 10.5444 15.7812L1.50146 10.5566C1.22803 10.6836 0.935059 11.0156 0.935059 11.416C0.935059 11.7188 1.11084 12.0508 1.47217 12.2656L9.85107 17.2168C10.271 17.4609 10.564 17.627 10.9253 17.627ZM16.4136 14.5996L20.3784 12.2656C20.7397 12.041 20.9058 11.7188 20.9058 11.416C20.9058 11.0156 20.6128 10.6836 20.3394 10.5566L15.2905 13.4668ZM10.9253 22.1191C11.2769 22.1191 11.5796 21.9531 11.9897 21.709L15.8374 19.4434L14.6948 18.3105L11.2964 20.2832C11.1499 20.3613 11.0327 20.4199 10.9253 20.4199C10.8081 20.4199 10.6909 20.3613 10.5444 20.2832L1.50146 15.0488C1.22803 15.1855 0.935059 15.5078 0.935059 15.9082C0.935059 16.2109 1.11084 16.5527 1.47217 16.7578L9.85107 21.709C10.271 21.9531 10.564 22.1191 10.9253 22.1191ZM19.2456 17.4316L20.3784 16.7578C20.73 16.5527 20.9058 16.2109 20.9058 15.9082C20.9058 15.5078 20.6128 15.1855 20.3394 15.0488L18.1421 16.3281Z" fill="#000000" fill-opacity="0.85"/>
  <path d="M19.6265 21.5723C19.9097 21.8555 20.3979 21.8652 20.6909 21.5723C20.9741 21.2695 20.9839 20.8008 20.6909 20.5078L1.28662 1.11328C0.993652 0.820312 0.505371 0.820312 0.212402 1.11328C-0.0708008 1.39648-0.0708008 1.89453 0.212402 2.17773Z" fill="#000000" fill-opacity="0.85"/>
 </g>
</svg>
