<?xml version="1.0" encoding="UTF-8"?>
<!--Generator: Apple Native CoreSVG 175.5-->
<!DOCTYPE svg
PUBLIC "-//W3C//DTD SVG 1.1//EN"
       "http://www.w3.org/Graphics/SVG/1.1/DTD/svg11.dtd">
<svg version="1.1" xmlns="http://www.w3.org/2000/svg" xmlns:xlink="http://www.w3.org/1999/xlink" width="22.2168" height="22.5293">
 <g>
  <rect height="22.5293" opacity="0" width="22.2168" x="0" y="0"/>
  <path d="M0 8.00781C0 11.9922 2.91016 15.3027 6.72852 15.918L6.72852 14.4043C3.73047 13.8086 1.48438 11.1719 1.48438 8.00781C1.48438 4.4043 4.4043 1.48438 8.00781 1.48438C10.9766 1.48438 13.4766 3.4668 14.2676 6.17188L15.8105 6.17188C14.9707 2.62695 11.7969 0 8.00781 0C3.58398 0 0 3.58398 0 8.00781Z" fill="#000000" fill-opacity="0.85"/>
  <path d="M9.3457 21.6113L19.1504 21.6113C21.1914 21.6113 22.2168 20.5957 22.2168 18.584L22.2168 8.70117C22.2168 6.68945 21.1914 5.67383 19.1504 5.67383L9.3457 5.67383C7.30469 5.67383 6.28906 6.68945 6.28906 8.70117L6.28906 18.584C6.28906 20.5957 7.30469 21.6113 9.3457 21.6113ZM9.375 20.0391C8.39844 20.0391 7.86133 19.5117 7.86133 18.4961L7.86133 8.78906C7.86133 7.77344 8.39844 7.24609 9.375 7.24609L19.1309 7.24609C20.1074 7.24609 20.6445 7.77344 20.6445 8.78906L20.6445 18.4961C20.6445 19.5117 20.1074 20.0391 19.1309 20.0391Z" fill="#000000" fill-opacity="0.85"/>
 </g>
</svg>
