<?xml version="1.0" encoding="UTF-8"?>
<!--Generator: Apple Native CoreSVG 175.5-->
<!DOCTYPE svg
PUBLIC "-//W3C//DTD SVG 1.1//EN"
       "http://www.w3.org/Graphics/SVG/1.1/DTD/svg11.dtd">
<svg version="1.1" xmlns="http://www.w3.org/2000/svg" xmlns:xlink="http://www.w3.org/1999/xlink" width="17.1289" height="22.6855">
 <g>
  <rect height="22.6855" opacity="0" width="17.1289" x="0" y="0"/>
  <path d="M3.06641 22.6855L14.3555 22.6855C16.1035 22.6855 17.1289 21.6699 17.1289 19.6582L17.1289 8.58398C17.1289 6.57227 16.0938 5.55664 14.0625 5.55664L3.06641 5.55664C1.02539 5.55664 0 6.5625 0 8.58398L0 19.6582C0 21.6699 1.02539 22.6855 3.06641 22.6855ZM3.08594 21.1133C2.10938 21.1133 1.57227 20.5859 1.57227 19.5703L1.57227 8.66211C1.57227 7.65625 2.10938 7.12891 3.08594 7.12891L14.0332 7.12891C15 7.12891 15.5566 7.65625 15.5566 8.66211L15.5566 19.5703C15.5566 20.5859 15 21.1133 14.3262 21.1133ZM2.12891 3.98438L14.9902 3.98438C14.8438 3.0957 14.4238 2.60742 13.4473 2.60742L3.67188 2.60742C2.69531 2.60742 2.27539 3.0957 2.12891 3.98438ZM3.82812 1.2793L13.3008 1.2793C13.2422 0.449219 12.7637 0.0195312 11.8652 0.0195312L5.25391 0.0195312C4.35547 0.0195312 3.88672 0.449219 3.82812 1.2793Z" fill="#000000" fill-opacity="0.85"/>
 </g>
</svg>
