<?xml version="1.0" encoding="UTF-8"?>
<!--Generator: Apple Native CoreSVG 175.5-->
<!DOCTYPE svg
PUBLIC "-//W3C//DTD SVG 1.1//EN"
       "http://www.w3.org/Graphics/SVG/1.1/DTD/svg11.dtd">
<svg version="1.1" xmlns="http://www.w3.org/2000/svg" xmlns:xlink="http://www.w3.org/1999/xlink" width="20.7129" height="20.7324">
 <g>
  <rect height="20.7324" opacity="0" width="20.7129" x="0" y="0"/>
  <path d="M2.26562 3.06641L18.457 3.06641L18.457 1.49414L2.26562 1.49414ZM17.666 18.4668L19.2383 18.4668L19.2383 2.27539L17.666 2.27539ZM2.26562 19.2578L18.457 19.2578L18.457 17.6855L2.26562 17.6855ZM1.47461 18.4668L3.04688 18.4668L3.04688 2.27539L1.47461 2.27539Z" fill="#000000" fill-opacity="0.85"/>
  <path d="M2.26562 4.54102C3.51562 4.54102 4.52148 3.52539 4.52148 2.27539C4.52148 1.02539 3.51562 0.00976562 2.26562 0.00976562C1.00586 0.00976562 0 1.02539 0 2.27539C0 3.52539 1.00586 4.54102 2.26562 4.54102ZM18.457 4.54102C19.707 4.54102 20.7129 3.52539 20.7129 2.27539C20.7129 1.02539 19.707 0.00976562 18.457 0.00976562C17.1973 0.00976562 16.1914 1.02539 16.1914 2.27539C16.1914 3.52539 17.1973 4.54102 18.457 4.54102ZM18.457 20.7324C19.707 20.7324 20.7129 19.7168 20.7129 18.4668C20.7129 17.2168 19.707 16.2012 18.457 16.2012C17.1973 16.2012 16.1914 17.2168 16.1914 18.4668C16.1914 19.7168 17.1973 20.7324 18.457 20.7324ZM2.26562 20.7324C3.51562 20.7324 4.52148 19.7168 4.52148 18.4668C4.52148 17.2168 3.51562 16.2012 2.26562 16.2012C1.00586 16.2012 0 17.2168 0 18.4668C0 19.7168 1.00586 20.7324 2.26562 20.7324ZM8.56445 15.7031L14.5508 15.7031C15.3223 15.7031 15.7715 15.2637 15.7715 14.4824L15.7715 8.61328C15.7715 7.8418 15.3125 7.40234 14.5215 7.40234L8.56445 7.40234C7.79297 7.40234 7.34375 7.8418 7.34375 8.61328L7.34375 14.4824C7.34375 15.2637 7.79297 15.7031 8.56445 15.7031ZM8.95508 14.4238C8.74023 14.4238 8.62305 14.3066 8.62305 14.1016L8.62305 9.00391C8.62305 8.79883 8.74023 8.68164 8.95508 8.68164L14.1309 8.68164C14.3652 8.68164 14.4922 8.79883 14.4922 9.00391L14.4922 14.1016C14.4922 14.3066 14.375 14.4238 14.1602 14.4238ZM6.2207 13.3496L7.88086 13.3496L7.88086 12.0703L6.61133 12.0703C6.39648 12.0703 6.2793 11.9531 6.2793 11.7383L6.2793 6.65039C6.2793 6.44531 6.39648 6.31836 6.61133 6.31836L11.8164 6.31836C12.0312 6.31836 12.1484 6.44531 12.1484 6.65039L12.1484 8.04688L13.4277 8.04688L13.4277 6.25977C13.4277 5.48828 12.9785 5.03906 12.1973 5.03906L6.2207 5.03906C5.44922 5.03906 5 5.48828 5 6.25977L5 12.1289C5 12.9004 5.44922 13.3496 6.2207 13.3496Z" fill="#000000" fill-opacity="0.85"/>
 </g>
</svg>
