<?xml version="1.0" encoding="UTF-8"?>
<!--Generator: Apple Native CoreSVG 175.5-->
<!DOCTYPE svg
PUBLIC "-//W3C//DTD SVG 1.1//EN"
       "http://www.w3.org/Graphics/SVG/1.1/DTD/svg11.dtd">
<svg version="1.1" xmlns="http://www.w3.org/2000/svg" xmlns:xlink="http://www.w3.org/1999/xlink" width="22.207" height="26.5527">
 <g>
  <rect height="26.5527" opacity="0" width="22.207" x="0" y="0"/>
  <path d="M3.06641 22.0312L14.2676 22.0312C16.3086 22.0312 17.334 21.0156 17.334 19.0039L17.334 9.26758C17.334 7.25586 16.3086 6.24023 14.2676 6.24023L11.543 6.24023L11.543 7.8125L14.2383 7.8125C15.2051 7.8125 15.7617 8.33008 15.7617 9.3457L15.7617 18.9258C15.7617 19.9414 15.2051 20.459 14.2383 20.459L3.08594 20.459C2.10938 20.459 1.57227 19.9414 1.57227 18.9258L1.57227 9.3457C1.57227 8.33008 2.10938 7.8125 3.08594 7.8125L5.79102 7.8125L5.79102 6.24023L3.06641 6.24023C1.02539 6.24023 0 7.24609 0 9.26758L0 19.0039C0 21.0254 1.02539 22.0312 3.06641 22.0312ZM8.76953 26.5527L19.1406 26.5527C21.1816 26.5527 22.207 25.5469 22.207 23.5254L22.207 13.7891C22.207 11.7676 21.1816 10.7617 19.1406 10.7617L16.8262 10.7617L16.8262 12.334L19.1211 12.334C20.0977 12.334 20.6348 12.8516 20.6348 13.8672L20.6348 23.4473C20.6348 24.4629 20.0977 24.9805 19.1211 24.9805L8.79883 24.9805C7.83203 24.9805 7.27539 24.4629 7.27539 23.4473L7.27539 21.2402L5.70312 21.2402L5.70312 23.5254C5.70312 25.5371 6.72852 26.5527 8.76953 26.5527Z" fill="#000000" fill-opacity="0.85"/>
  <path d="M8.66211 15.6152C8.86719 15.6152 9.0332 15.5469 9.22852 15.3516L12.5293 12.168C12.6758 12.0215 12.7637 11.8652 12.7637 11.6504C12.7637 11.2598 12.4512 10.9668 12.0508 10.9668C11.8555 10.9668 11.6602 11.0449 11.5234 11.2012L10.0391 12.7832L9.38477 13.4668L9.44336 12.0117L9.44336 1.70898C9.44336 1.29883 9.08203 0.957031 8.66211 0.957031C8.24219 0.957031 7.89062 1.29883 7.89062 1.70898L7.89062 12.0117L7.94922 13.4766L7.28516 12.7832L5.81055 11.2012C5.67383 11.0449 5.45898 10.9668 5.27344 10.9668C4.86328 10.9668 4.57031 11.2598 4.57031 11.6504C4.57031 11.8652 4.64844 12.0215 4.79492 12.168L8.0957 15.3516C8.30078 15.5469 8.4668 15.6152 8.66211 15.6152Z" fill="#000000" fill-opacity="0.85"/>
 </g>
</svg>
