<?xml version="1.0" encoding="UTF-8"?>
<!--Generator: Apple Native CoreSVG 175.5-->
<!DOCTYPE svg
PUBLIC "-//W3C//DTD SVG 1.1//EN"
       "http://www.w3.org/Graphics/SVG/1.1/DTD/svg11.dtd">
<svg version="1.1" xmlns="http://www.w3.org/2000/svg" xmlns:xlink="http://www.w3.org/1999/xlink" width="17.9785" height="17.998">
 <g>
  <rect height="17.998" opacity="0" width="17.9785" x="0" y="0"/>
  <path d="M8.99414 1.73828C9.47266 1.73828 9.85352 1.34766 9.85352 0.869141C9.85352 0.390625 9.47266 0.00976562 8.99414 0.00976562C8.51562 0.00976562 8.125 0.390625 8.125 0.869141C8.125 1.34766 8.51562 1.73828 8.99414 1.73828ZM8.99414 4.44336C9.47266 4.44336 9.85352 4.0625 9.85352 3.58398C9.85352 3.10547 9.47266 2.71484 8.99414 2.71484C8.51562 2.71484 8.125 3.10547 8.125 3.58398C8.125 4.0625 8.51562 4.44336 8.99414 4.44336ZM8.99414 7.14844C9.47266 7.14844 9.85352 6.76758 9.85352 6.28906C9.85352 5.81055 9.47266 5.41992 8.99414 5.41992C8.51562 5.41992 8.125 5.81055 8.125 6.28906C8.125 6.76758 8.51562 7.14844 8.99414 7.14844ZM8.99414 9.86328C9.47266 9.86328 9.85352 9.47266 9.85352 8.99414C9.85352 8.51562 9.47266 8.13477 8.99414 8.13477C8.51562 8.13477 8.125 8.51562 8.125 8.99414C8.125 9.47266 8.51562 9.86328 8.99414 9.86328ZM8.99414 12.5684C9.47266 12.5684 9.85352 12.1875 9.85352 11.709C9.85352 11.2305 9.47266 10.8398 8.99414 10.8398C8.51562 10.8398 8.125 11.2305 8.125 11.709C8.125 12.1875 8.51562 12.5684 8.99414 12.5684ZM8.99414 15.2734C9.47266 15.2734 9.85352 14.8926 9.85352 14.4141C9.85352 13.9355 9.47266 13.5449 8.99414 13.5449C8.51562 13.5449 8.125 13.9355 8.125 14.4141C8.125 14.8926 8.51562 15.2734 8.99414 15.2734ZM8.99414 17.9883C9.47266 17.9883 9.85352 17.5977 9.85352 17.1191C9.85352 16.6406 9.47266 16.2598 8.99414 16.2598C8.51562 16.2598 8.125 16.6406 8.125 17.1191C8.125 17.5977 8.51562 17.9883 8.99414 17.9883ZM0.878906 9.86328C1.35742 9.86328 1.73828 9.47266 1.73828 8.99414C1.73828 8.51562 1.35742 8.13477 0.878906 8.13477C0.400391 8.13477 0.00976562 8.51562 0.00976562 8.99414C0.00976562 9.47266 0.400391 9.86328 0.878906 9.86328ZM3.57422 9.86328C4.05273 9.86328 4.44336 9.47266 4.44336 8.99414C4.44336 8.51562 4.05273 8.13477 3.57422 8.13477C3.0957 8.13477 2.71484 8.51562 2.71484 8.99414C2.71484 9.47266 3.0957 9.86328 3.57422 9.86328ZM6.2793 9.86328C6.75781 9.86328 7.14844 9.47266 7.14844 8.99414C7.14844 8.51562 6.75781 8.13477 6.2793 8.13477C5.80078 8.13477 5.41992 8.51562 5.41992 8.99414C5.41992 9.47266 5.80078 9.86328 6.2793 9.86328ZM11.6992 9.86328C12.1777 9.86328 12.5684 9.47266 12.5684 8.99414C12.5684 8.51562 12.1777 8.13477 11.6992 8.13477C11.2207 8.13477 10.8398 8.51562 10.8398 8.99414C10.8398 9.47266 11.2207 9.86328 11.6992 9.86328ZM14.4043 9.86328C14.8828 9.86328 15.2734 9.47266 15.2734 8.99414C15.2734 8.51562 14.8828 8.13477 14.4043 8.13477C13.9258 8.13477 13.5449 8.51562 13.5449 8.99414C13.5449 9.47266 13.9258 9.86328 14.4043 9.86328ZM17.1094 9.86328C17.5879 9.86328 17.9688 9.47266 17.9688 8.99414C17.9688 8.51562 17.5879 8.13477 17.1094 8.13477C16.6309 8.13477 16.2402 8.51562 16.2402 8.99414C16.2402 9.47266 16.6309 9.86328 17.1094 9.86328ZM0 17.2168C0 17.6855 0.3125 17.998 0.78125 17.998L17.207 17.998C17.6758 17.998 17.9785 17.6855 17.9785 17.2168L17.9785 0.791016C17.9785 0.322266 17.6758 0.0195312 17.207 0.0195312L0.78125 0.0195312C0.3125 0.0195312 0 0.322266 0 0.791016ZM1.57227 16.1426L1.57227 1.875C1.57227 1.66016 1.65039 1.5918 1.85547 1.5918L16.123 1.5918C16.3379 1.5918 16.4062 1.66016 16.4062 1.875L16.4062 16.1426C16.4062 16.3477 16.3379 16.4258 16.123 16.4258L1.85547 16.4258C1.65039 16.4258 1.57227 16.3477 1.57227 16.1426Z" fill="#000000" fill-opacity="0.85"/>
 </g>
</svg>
