<?xml version="1.0" encoding="UTF-8"?>
<!--Generator: Apple Native CoreSVG 175.5-->
<!DOCTYPE svg
PUBLIC "-//W3C//DTD SVG 1.1//EN"
       "http://www.w3.org/Graphics/SVG/1.1/DTD/svg11.dtd">
<svg version="1.1" xmlns="http://www.w3.org/2000/svg" xmlns:xlink="http://www.w3.org/1999/xlink" width="19.9219" height="20.4395">
 <g>
  <rect height="20.4395" opacity="0" width="19.9219" x="0" y="0"/>
  <path d="M9.96094 20.4395C15.4102 20.4395 19.9219 15.918 19.9219 10.4785C19.9219 5.0293 15.4004 0.517578 9.95117 0.517578C4.51172 0.517578 0 5.0293 0 10.4785C0 15.918 4.52148 20.4395 9.96094 20.4395Z" fill="#000000" fill-opacity="0.85"/>
  <path d="M6.97266 15.4004C5.88867 15.4004 5.3125 14.8242 5.30273 13.7402L5.30273 8.78906C5.3125 7.70508 5.88867 7.13867 6.97266 7.13867L8.47656 7.13867L8.47656 8.16406L6.98242 8.16406C6.54297 8.16406 6.32812 8.37891 6.32812 8.82812L6.32812 13.7109C6.32812 14.1699 6.54297 14.3848 6.98242 14.3848L12.666 14.3848C13.1055 14.3848 13.3203 14.1602 13.3203 13.7109L13.3203 8.82812C13.3203 8.37891 13.1055 8.16406 12.666 8.16406L11.1816 8.16406L11.1816 7.13867L12.6758 7.13867C13.7695 7.13867 14.3457 7.69531 14.3457 8.78906L14.3457 13.7402C14.3457 14.834 13.7695 15.4004 12.6758 15.4004ZM9.81445 11.4453C9.54102 11.4453 9.31641 11.2305 9.31641 10.957L9.31641 5.86914L9.33594 5.38086L8.88672 5.86914L8.4375 6.32812C8.35938 6.42578 8.22266 6.47461 8.08594 6.47461C7.82227 6.47461 7.62695 6.29883 7.62695 6.03516C7.62695 5.9082 7.65625 5.80078 7.77344 5.69336L9.46289 4.0625C9.57031 3.94531 9.6875 3.89648 9.81445 3.89648C9.93164 3.89648 10.0586 3.94531 10.1758 4.0625L11.8555 5.69336C11.9727 5.79102 12.0117 5.89844 12.0117 6.03516C12.0117 6.29883 11.8164 6.47461 11.543 6.47461C11.3965 6.47461 11.2695 6.42578 11.1914 6.33789L10.7422 5.86914L10.3027 5.38086L10.3223 5.86914L10.3223 10.957C10.3223 11.2305 10.0977 11.4453 9.81445 11.4453Z" fill="#ffffff"/>
 </g>
</svg>
