<?xml version="1.0" encoding="UTF-8"?>
<!--Generator: Apple Native CoreSVG 175.5-->
<!DOCTYPE svg
PUBLIC "-//W3C//DTD SVG 1.1//EN"
       "http://www.w3.org/Graphics/SVG/1.1/DTD/svg11.dtd">
<svg version="1.1" xmlns="http://www.w3.org/2000/svg" xmlns:xlink="http://www.w3.org/1999/xlink" width="18.1348" height="18.1543">
 <g>
  <rect height="18.1543" opacity="0" width="18.1348" x="0" y="0"/>
  <path d="M2.95898 1.77734C3.45703 1.77734 3.84766 1.38672 3.84766 0.908203C3.84766 0.419922 3.45703 0.0195312 2.95898 0.0195312C2.49023 0.0195312 2.08984 0.419922 2.08984 0.908203C2.08984 1.37695 2.49023 1.77734 2.95898 1.77734ZM6.01562 1.77734C6.50391 1.77734 6.9043 1.38672 6.9043 0.908203C6.9043 0.419922 6.50391 0.0195312 6.01562 0.0195312C5.53711 0.0195312 5.13672 0.419922 5.13672 0.908203C5.13672 1.37695 5.53711 1.77734 6.01562 1.77734ZM9.07227 1.77734C9.55078 1.77734 9.95117 1.38672 9.95117 0.908203C9.95117 0.419922 9.55078 0.0195312 9.07227 0.0195312C8.58398 0.0195312 8.18359 0.419922 8.18359 0.908203C8.18359 1.37695 8.58398 1.77734 9.07227 1.77734ZM12.1191 1.77734C12.5977 1.77734 12.998 1.38672 12.998 0.908203C12.998 0.419922 12.5977 0.0195312 12.1191 0.0195312C11.6309 0.0195312 11.2305 0.419922 11.2305 0.908203C11.2305 1.37695 11.6309 1.77734 12.1191 1.77734ZM15.166 1.77734C15.6445 1.77734 16.0449 1.38672 16.0449 0.908203C16.0449 0.419922 15.6445 0.0195312 15.166 0.0195312C14.6777 0.0195312 14.2773 0.419922 14.2773 0.908203C14.2773 1.37695 14.6777 1.77734 15.166 1.77734ZM17.2559 3.86719C17.7344 3.86719 18.1348 3.4668 18.1348 2.97852C18.1348 2.5 17.7344 2.09961 17.2559 2.09961C16.7773 2.09961 16.377 2.5 16.377 2.97852C16.377 3.4668 16.7676 3.86719 17.2559 3.86719ZM17.2559 6.91406C17.7344 6.91406 18.1348 6.51367 18.1348 6.02539C18.1348 5.54688 17.7344 5.14648 17.2559 5.14648C16.7773 5.14648 16.377 5.54688 16.377 6.02539C16.377 6.51367 16.7676 6.91406 17.2559 6.91406ZM17.2559 9.96094C17.7344 9.96094 18.1348 9.56055 18.1348 9.08203C18.1348 8.59375 17.7344 8.19336 17.2559 8.19336C16.7773 8.19336 16.377 8.59375 16.377 9.08203C16.377 9.56055 16.7676 9.96094 17.2559 9.96094ZM17.2559 13.0176C17.7344 13.0176 18.1348 12.6172 18.1348 12.1387C18.1348 11.6504 17.7344 11.25 17.2559 11.25C16.7773 11.25 16.377 11.6504 16.377 12.1387C16.377 12.6172 16.7676 13.0176 17.2559 13.0176ZM17.2559 16.0645C17.7344 16.0645 18.1348 15.6641 18.1348 15.1855C18.1348 14.6973 17.7344 14.2969 17.2559 14.2969C16.7773 14.2969 16.377 14.6973 16.377 15.1855C16.377 15.6641 16.7676 16.0645 17.2559 16.0645ZM15.166 18.1543C15.6445 18.1543 16.0449 17.7637 16.0449 17.2852C16.0449 16.7969 15.6445 16.3965 15.166 16.3965C14.6777 16.3965 14.2773 16.7969 14.2773 17.2852C14.2773 17.7539 14.6777 18.1543 15.166 18.1543ZM12.1191 18.1543C12.5977 18.1543 12.998 17.7637 12.998 17.2852C12.998 16.7969 12.5977 16.3965 12.1191 16.3965C11.6309 16.3965 11.2305 16.7969 11.2305 17.2852C11.2305 17.7539 11.6309 18.1543 12.1191 18.1543ZM9.07227 18.1543C9.55078 18.1543 9.95117 17.7637 9.95117 17.2852C9.95117 16.7969 9.55078 16.3965 9.07227 16.3965C8.58398 16.3965 8.18359 16.7969 8.18359 17.2852C8.18359 17.7539 8.58398 18.1543 9.07227 18.1543ZM6.01562 18.1543C6.50391 18.1543 6.9043 17.7637 6.9043 17.2852C6.9043 16.7969 6.50391 16.3965 6.01562 16.3965C5.53711 16.3965 5.13672 16.7969 5.13672 17.2852C5.13672 17.7539 5.53711 18.1543 6.01562 18.1543ZM2.95898 18.1543C3.45703 18.1543 3.84766 17.7637 3.84766 17.2852C3.84766 16.7969 3.45703 16.3965 2.95898 16.3965C2.49023 16.3965 2.08984 16.7969 2.08984 17.2852C2.08984 17.7539 2.49023 18.1543 2.95898 18.1543ZM0.878906 16.0645C1.35742 16.0645 1.75781 15.6641 1.75781 15.1855C1.75781 14.6973 1.35742 14.2969 0.878906 14.2969C0.400391 14.2969 0 14.6973 0 15.1855C0 15.6641 0.400391 16.0645 0.878906 16.0645ZM0.878906 13.0176C1.35742 13.0176 1.75781 12.6172 1.75781 12.1387C1.75781 11.6504 1.35742 11.25 0.878906 11.25C0.400391 11.25 0 11.6504 0 12.1387C0 12.6172 0.400391 13.0176 0.878906 13.0176ZM0.878906 9.96094C1.35742 9.96094 1.75781 9.56055 1.75781 9.08203C1.75781 8.59375 1.35742 8.19336 0.878906 8.19336C0.400391 8.19336 0 8.59375 0 9.08203C0 9.56055 0.400391 9.96094 0.878906 9.96094ZM0.878906 6.91406C1.35742 6.91406 1.75781 6.51367 1.75781 6.02539C1.75781 5.54688 1.35742 5.14648 0.878906 5.14648C0.400391 5.14648 0 5.54688 0 6.02539C0 6.51367 0.400391 6.91406 0.878906 6.91406ZM0.878906 3.86719C1.35742 3.86719 1.75781 3.4668 1.75781 2.97852C1.75781 2.5 1.35742 2.09961 0.878906 2.09961C0.400391 2.09961 0 2.5 0 2.97852C0 3.4668 0.400391 3.86719 0.878906 3.86719Z" fill="#000000" fill-opacity="0.85"/>
 </g>
</svg>
