<?xml version="1.0" encoding="UTF-8"?>
<!--Generator: Apple Native CoreSVG 175.5-->
<!DOCTYPE svg
PUBLIC "-//W3C//DTD SVG 1.1//EN"
       "http://www.w3.org/Graphics/SVG/1.1/DTD/svg11.dtd">
<svg version="1.1" xmlns="http://www.w3.org/2000/svg" xmlns:xlink="http://www.w3.org/1999/xlink" width="20.3967" height="22.1191">
 <g>
  <rect height="22.1191" opacity="0" width="20.3967" x="0" y="0"/>
  <path d="M13.4424 11.1816L18.9697 7.97852C19.751 7.51953 20.0635 7.1582 20.0635 6.62109C20.0635 6.09375 19.751 5.73242 18.9697 5.27344L11.3232 0.839844C10.8545 0.566406 10.4736 0.439453 10.083 0.439453C9.69238 0.439453 9.31152 0.566406 8.84277 0.839844L5.2002 2.94922L6.40137 4.14062L9.65332 2.27539C9.80957 2.1875 9.94629 2.13867 10.083 2.13867C10.2197 2.13867 10.3564 2.1875 10.5127 2.27539L17.9443 6.5332C17.9932 6.55273 18.0225 6.58203 18.0225 6.62109C18.0225 6.66992 17.9932 6.69922 17.9443 6.71875L12.251 9.98047ZM1.19629 7.97852L8.21777 12.0508C8.61816 12.2949 8.96973 12.4316 9.32129 12.5L5.30762 8.48633C4.27246 7.90039 3.25684 7.30469 2.22168 6.71875C2.11426 6.66016 2.13379 6.58203 2.22168 6.5332C2.45605 6.39648 2.69043 6.25 2.93457 6.12305L1.75293 4.95117L1.19629 5.27344C0.415039 5.74219 0.102539 6.09375 0.102539 6.62109C0.102539 7.1582 0.415039 7.51953 1.19629 7.97852ZM16.499 14.2188L18.9697 12.7832C19.751 12.3242 20.0635 11.9727 20.0635 11.4355C20.0635 10.8984 19.751 10.5469 18.9697 10.0781L16.4111 8.59375L14.8975 9.59961L17.9443 11.3379C17.9932 11.3574 18.0225 11.3867 18.0225 11.4355C18.0225 11.4844 17.9932 11.5039 17.9443 11.5332L15.3174 13.0371ZM10.083 17.627C10.4736 17.627 10.8545 17.5 11.3232 17.2266L13.042 16.2207L11.8408 15.0195L10.5127 15.7812C10.3564 15.8691 10.2197 15.918 10.083 15.918C9.94629 15.918 9.80957 15.8691 9.65332 15.7812L2.22168 11.5332C2.17285 11.5039 2.14355 11.4844 2.14355 11.4355C2.14355 11.3867 2.17285 11.3574 2.22168 11.3379L5.5127 9.45312L3.94043 8.49609L1.19629 10.0781C0.415039 10.5469 0.102539 10.8984 0.102539 11.4355C0.102539 11.9727 0.415039 12.3242 1.19629 12.7832L8.84277 17.2266C9.31152 17.5 9.69238 17.627 10.083 17.627ZM16.6357 13.2227L16.0889 13.5645L19.6631 16.7578C20.3564 16.0352 20.1416 15.2637 18.9697 14.5801ZM14.7021 17.8906L10.5127 20.2832C10.3564 20.3711 10.2197 20.4199 10.083 20.4199C9.94629 20.4199 9.80957 20.3711 9.65332 20.2832L2.22168 16.0254C2.17285 16.0059 2.14355 15.9766 2.14355 15.9277C2.14355 15.8887 2.17285 15.8594 2.22168 15.8398L5.27832 14.0918L3.6377 13.1641L1.19629 14.5801C0.415039 15.0391 0.102539 15.4004 0.102539 15.9277C0.102539 16.4648 0.415039 16.8262 1.19629 17.2852L8.84277 21.7188C9.31152 21.9922 9.69238 22.1191 10.083 22.1191C10.4736 22.1191 10.8545 21.9922 11.3232 21.7188L15.8936 19.0723Z" fill="#000000" fill-opacity="0.85"/>
  <path d="M19.1162 20.625C19.4092 20.918 19.8877 20.918 20.1807 20.625C20.4639 20.332 20.4736 19.8535 20.1807 19.5605L1.29395 0.683594C1.00098 0.390625 0.512695 0.390625 0.219727 0.683594C-0.0732422 0.966797-0.0732422 1.46484 0.219727 1.74805Z" fill="#000000" fill-opacity="0.85"/>
 </g>
</svg>
