<?xml version="1.0" encoding="UTF-8"?>
<!--Generator: Apple Native CoreSVG 175.5-->
<!DOCTYPE svg
PUBLIC "-//W3C//DTD SVG 1.1//EN"
       "http://www.w3.org/Graphics/SVG/1.1/DTD/svg11.dtd">
<svg version="1.1" xmlns="http://www.w3.org/2000/svg" xmlns:xlink="http://www.w3.org/1999/xlink" width="23.9453" height="23.0957">
 <g>
  <rect height="23.0957" opacity="0" width="23.9453" x="0" y="0"/>
  <path d="M0.791016 18.0566L18.3496 18.0566C20.1855 18.0566 21.0254 17.2266 21.0254 15.4199L21.0254 5.71289C21.0254 4.89258 21.4355 4.47266 22.2461 4.47266L23.1641 4.47266C23.584 4.47266 23.9453 4.11133 23.9453 3.68164C23.9453 3.26172 23.584 2.90039 23.1641 2.90039L22.1289 2.90039C20.293 2.90039 19.4531 3.7207 19.4531 5.53711L19.4531 15.2441C19.4531 16.0645 19.043 16.4844 18.2324 16.4844L0.791016 16.4844C0.361328 16.4844 0 16.8262 0 17.2656C0 17.7051 0.361328 18.0566 0.791016 18.0566ZM4.24805 23.0859C5.22461 23.0859 6.05469 22.2559 6.05469 21.2793C6.05469 20.2832 5.22461 19.4531 4.24805 19.4531C3.26172 19.4531 2.43164 20.2832 2.43164 21.2793C2.43164 22.2559 3.26172 23.0859 4.24805 23.0859ZM14.7168 23.0859C15.7031 23.0859 16.5234 22.2559 16.5234 21.2793C16.5234 20.2832 15.7031 19.4531 14.7168 19.4531C13.7305 19.4531 12.9102 20.2832 12.9102 21.2793C12.9102 22.2559 13.7305 23.0859 14.7168 23.0859Z" fill="#000000" fill-opacity="0.85"/>
  <path d="M2.23633 14.9316L15.5664 14.9316C16.9824 14.9316 17.8027 14.1699 17.8027 12.832L17.8027 4.90234C17.8027 3.57422 16.9824 2.80273 15.5664 2.80273L2.23633 2.80273C0.820312 2.80273 0.00976562 3.57422 0.00976562 4.90234L0.00976562 12.832C0.00976562 14.1699 0.820312 14.9316 2.23633 14.9316ZM2.24609 13.5156C1.72852 13.5156 1.43555 13.252 1.43555 12.7734L1.43555 4.96094C1.43555 4.49219 1.72852 4.22852 2.24609 4.22852L15.5566 4.22852C16.084 4.22852 16.377 4.49219 16.377 4.96094L16.377 12.7734C16.377 13.252 16.084 13.5156 15.5566 13.5156ZM3.20312 14.3359L4.61914 14.3359L4.61914 3.84766L3.20312 3.84766ZM13.1836 14.3359L14.5996 14.3359L14.5996 3.45703L13.1836 3.45703ZM4.88281 3.65234L6.25977 3.65234L6.25977 2.13867C6.25977 1.60156 6.55273 1.30859 7.11914 1.30859L10.6836 1.30859C11.25 1.30859 11.5527 1.60156 11.5527 2.13867L11.5527 3.63281L12.9297 3.63281L12.9297 2.22656C12.9297 0.742188 12.168 0 10.6543 0L7.14844 0C5.67383 0 4.88281 0.78125 4.88281 2.22656Z" fill="#000000" fill-opacity="0.85"/>
 </g>
</svg>
