<?xml version="1.0" encoding="UTF-8"?>
<!--Generator: Apple Native CoreSVG 175.5-->
<!DOCTYPE svg
PUBLIC "-//W3C//DTD SVG 1.1//EN"
       "http://www.w3.org/Graphics/SVG/1.1/DTD/svg11.dtd">
<svg version="1.1" xmlns="http://www.w3.org/2000/svg" xmlns:xlink="http://www.w3.org/1999/xlink" width="19.5898" height="19.5996">
 <g>
  <rect height="19.5996" opacity="0" width="19.5898" x="0" y="0"/>
  <path d="M9.79492 14.7656C12.5098 14.7656 14.7754 12.5098 14.7754 9.79492C14.7754 7.07031 12.5098 4.81445 9.79492 4.81445C7.08008 4.81445 4.82422 7.07031 4.82422 9.79492C4.82422 12.5098 7.08008 14.7656 9.79492 14.7656ZM9.79492 13.2812C7.89062 13.2812 6.30859 11.6992 6.30859 9.79492C6.30859 7.89062 7.89062 6.29883 9.79492 6.29883C11.6992 6.29883 13.291 7.88086 13.291 9.79492C13.291 11.6992 11.6992 13.2812 9.79492 13.2812ZM1.14258 10.9375C1.76758 10.9375 2.28516 10.4199 2.28516 9.79492C2.28516 9.16016 1.76758 8.65234 1.14258 8.65234C0.517578 8.65234 0 9.16016 0 9.79492C0 10.4199 0.517578 10.9375 1.14258 10.9375ZM3.67188 4.81445C4.30664 4.81445 4.81445 4.29688 4.81445 3.67188C4.81445 3.04688 4.30664 2.5293 3.67188 2.5293C3.04688 2.5293 2.5293 3.04688 2.5293 3.67188C2.5293 4.29688 3.04688 4.81445 3.67188 4.81445ZM9.79492 2.28516C10.4199 2.28516 10.9375 1.76758 10.9375 1.14258C10.9375 0.517578 10.4199 0 9.79492 0C9.16992 0 8.65234 0.517578 8.65234 1.14258C8.65234 1.76758 9.16992 2.28516 9.79492 2.28516ZM15.918 4.81445C16.543 4.81445 17.0605 4.29688 17.0605 3.67188C17.0605 3.04688 16.543 2.5293 15.918 2.5293C15.293 2.5293 14.7754 3.04688 14.7754 3.67188C14.7754 4.29688 15.293 4.81445 15.918 4.81445ZM18.4473 10.9375C19.0723 10.9375 19.5898 10.4199 19.5898 9.79492C19.5898 9.16016 19.0723 8.65234 18.4473 8.65234C17.8223 8.65234 17.3047 9.16016 17.3047 9.79492C17.3047 10.4199 17.8223 10.9375 18.4473 10.9375ZM15.918 17.0605C16.543 17.0605 17.0605 16.543 17.0605 15.918C17.0605 15.2832 16.543 14.7754 15.918 14.7754C15.293 14.7754 14.7754 15.2832 14.7754 15.918C14.7754 16.543 15.293 17.0605 15.918 17.0605ZM9.79492 19.5898C10.4199 19.5898 10.9375 19.0723 10.9375 18.4473C10.9375 17.8125 10.4199 17.3047 9.79492 17.3047C9.16992 17.3047 8.65234 17.8125 8.65234 18.4473C8.65234 19.0723 9.16992 19.5898 9.79492 19.5898ZM3.67188 17.0605C4.30664 17.0605 4.81445 16.543 4.81445 15.918C4.81445 15.2832 4.30664 14.7754 3.67188 14.7754C3.04688 14.7754 2.5293 15.2832 2.5293 15.918C2.5293 16.543 3.04688 17.0605 3.67188 17.0605Z" fill="#000000" fill-opacity="0.85"/>
 </g>
</svg>
