<?xml version="1.0" encoding="UTF-8"?>
<!--Generator: Apple Native CoreSVG 175.5-->
<!DOCTYPE svg
PUBLIC "-//W3C//DTD SVG 1.1//EN"
       "http://www.w3.org/Graphics/SVG/1.1/DTD/svg11.dtd">
<svg version="1.1" xmlns="http://www.w3.org/2000/svg" xmlns:xlink="http://www.w3.org/1999/xlink" width="21.9096" height="22.5488">
 <g>
  <rect height="22.5488" opacity="0" width="21.9096" x="0" y="0"/>
  <path d="M2.77344 22.5391L6.46484 22.5391C8.23242 22.5391 9.15039 21.6406 9.15039 19.9023L9.15039 2.62695C9.15039 0.888672 8.23242 0 6.46484 0L2.77344 0C0.947266 0 0 0.888672 0 2.62695L0 19.9023C0 21.6406 0.947266 22.5391 2.77344 22.5391ZM2.79297 20.9668C2.09961 20.9668 1.57227 20.4785 1.57227 19.8242L1.57227 2.70508C1.57227 2.05078 2.09961 1.57227 2.79297 1.57227L6.44531 1.57227C7.09961 1.57227 7.57812 2.05078 7.57812 2.70508L7.57812 19.8242C7.57812 20.4785 7.09961 20.9668 6.44531 20.9668ZM0.810547 8.56445L8.33984 8.56445L8.33984 6.99219L0.810547 6.99219ZM0.810547 15.5469L8.33984 15.5469L8.33984 13.9746L0.810547 13.9746ZM8.27148 4.07227L8.7207 6.42578L10.5664 3.23242C10.8887 2.66602 11.5918 2.50977 12.1973 2.86133L15.3613 4.6875C15.918 5.00977 16.084 5.66406 15.7617 6.24023L7.42188 20.6836L8.78906 21.4648L17.1582 6.95312C18.0273 5.44922 17.6855 4.22852 16.1621 3.34961L12.959 1.49414C11.377 0.576172 10.1172 0.878906 9.24805 2.38281ZM8.80859 8.97461L13.5059 11.6895L14.2871 10.332L8.80859 7.16797ZM8.56445 16.8945L10.0098 17.7441L10.8008 16.377L8.56445 15.0879ZM16.4258 6.5918L15.7129 8.73047L16.6309 8.20312C17.1973 7.87109 17.8809 8.08594 18.2324 8.69141L20.0586 11.8457C20.3809 12.4121 20.1953 13.0762 19.6387 13.3984L10.0879 18.9062L8.61328 21.5723L20.4883 14.7266C21.9824 13.8574 22.3047 12.6074 21.4258 11.084L19.5801 7.89062C18.8281 6.57227 17.8027 6.07422 16.6504 6.48438ZM12.959 13.5352L14.9512 16.9824L16.3086 16.2012L13.8672 11.9629Z" fill="#000000" fill-opacity="0.85"/>
 </g>
</svg>
