<?xml version="1.0" encoding="UTF-8"?>
<!--Generator: Apple Native CoreSVG 175.5-->
<!DOCTYPE svg
PUBLIC "-//W3C//DTD SVG 1.1//EN"
       "http://www.w3.org/Graphics/SVG/1.1/DTD/svg11.dtd">
<svg version="1.1" xmlns="http://www.w3.org/2000/svg" xmlns:xlink="http://www.w3.org/1999/xlink" width="21.8189" height="22.8003">
 <g>
  <rect height="22.8003" opacity="0" width="21.8189" x="0" y="0"/>
  <path d="M14.7778 18.4851L4.33839 8.02613L1.05714 11.2976C-0.339343 12.6941-0.36864 14.1394 1.06691 15.5652L7.24855 21.7371C8.68409 23.1628 10.1196 23.1433 11.5161 21.7468ZM7.04347 5.32105L17.4829 15.7605L21.0376 12.2058C21.77 11.4734 21.8189 11.0535 21.8189 10.0281L21.8189 6.31714C21.8189 5.28199 21.5747 4.95972 20.8325 4.21753L18.5864 1.97144C17.854 1.23902 17.5318 0.985111 16.4966 0.985111L12.7759 0.985111C11.7505 0.985111 11.3403 1.03394 10.6079 1.76636ZM14.856 8.79761C14.0845 8.79761 13.5181 8.20191 13.5181 7.45972C13.5181 6.70777 14.0845 6.12183 14.856 6.12183C15.6177 6.12183 16.1939 6.70777 16.1939 7.45972C16.1939 8.20191 15.6177 8.79761 14.856 8.79761Z" fill="#000000" fill-opacity="0.85"/>
  <path d="M18.8599 20.8972C19.1626 21.1902 19.6411 21.1902 19.9243 20.8972C20.2075 20.6043 20.2173 20.1257 19.9243 19.8328L2.9712 2.87964C2.67824 2.58667 2.19972 2.57691 1.89699 2.87964C1.61378 3.16284 1.61378 3.65113 1.89699 3.94409Z" fill="#000000" fill-opacity="0.85"/>
 </g>
</svg>
