<?xml version="1.0" encoding="UTF-8"?>
<!--Generator: Apple Native CoreSVG 175.5-->
<!DOCTYPE svg
PUBLIC "-//W3C//DTD SVG 1.1//EN"
       "http://www.w3.org/Graphics/SVG/1.1/DTD/svg11.dtd">
<svg version="1.1" xmlns="http://www.w3.org/2000/svg" xmlns:xlink="http://www.w3.org/1999/xlink" width="30.2539" height="20.6152">
 <g>
  <rect height="20.6152" opacity="0" width="30.2539" x="0" y="0"/>
  <path d="M1.18164 20.5566C1.83594 20.5566 2.36328 20.0293 2.36328 19.3848C2.36328 18.7305 1.83594 18.2129 1.18164 18.2129C0.537109 18.2129 0.00976562 18.7305 0.00976562 19.3848C0.00976562 20.0293 0.537109 20.5566 1.18164 20.5566ZM5.83984 20.5566C6.49414 20.5566 7.02148 20.0293 7.02148 19.3848C7.02148 18.7305 6.49414 18.2129 5.83984 18.2129C5.19531 18.2129 4.66797 18.7305 4.66797 19.3848C4.66797 20.0293 5.19531 20.5566 5.83984 20.5566ZM10.4883 20.5566C11.1426 20.5566 11.6602 20.0293 11.6602 19.3848C11.6602 18.7305 11.1426 18.2129 10.4883 18.2129C9.84375 18.2129 9.31641 18.7305 9.31641 19.3848C9.31641 20.0293 9.84375 20.5566 10.4883 20.5566ZM15.1367 20.5566C15.791 20.5566 16.3086 20.0293 16.3086 19.3848C16.3086 18.7305 15.791 18.2129 15.1367 18.2129C14.4922 18.2129 13.9648 18.7305 13.9648 19.3848C13.9648 20.0293 14.4922 20.5566 15.1367 20.5566ZM19.7852 20.5566C20.4395 20.5566 20.957 20.0293 20.957 19.3848C20.957 18.7305 20.4395 18.2129 19.7852 18.2129C19.1406 18.2129 18.6133 18.7305 18.6133 19.3848C18.6133 20.0293 19.1406 20.5566 19.7852 20.5566ZM24.4336 20.5566C25.0781 20.5566 25.6055 20.0293 25.6055 19.3848C25.6055 18.7305 25.0781 18.2129 24.4336 18.2129C23.7891 18.2129 23.2617 18.7305 23.2617 19.3848C23.2617 20.0293 23.7891 20.5566 24.4336 20.5566ZM29.082 20.5566C29.7363 20.5566 30.2539 20.0293 30.2539 19.3848C30.2539 18.7305 29.7363 18.2129 29.082 18.2129C28.4375 18.2129 27.9102 18.7305 27.9102 19.3848C27.9102 20.0293 28.4375 20.5566 29.082 20.5566Z" fill="#000000" fill-opacity="0.85"/>
  <path d="M3.47656 14.4141C4.9707 14.4141 6.36719 13.6035 6.96289 12.3438L6.99219 12.3438L6.99219 13.6133C6.99219 14.1016 7.32422 14.4238 7.7832 14.4238C8.26172 14.4238 8.58398 14.1016 8.58398 13.5742L8.58398 7.10938C8.58398 5 7.03125 3.64258 4.58008 3.64258C2.74414 3.64258 1.24023 4.44336 0.673828 5.68359C0.566406 5.92773 0.498047 6.16211 0.498047 6.36719C0.498047 6.79688 0.810547 7.08008 1.23047 7.08008C1.5332 7.08008 1.76758 6.96289 1.91406 6.68945C2.46094 5.56641 3.28125 5.04883 4.53125 5.04883C6.04492 5.04883 6.93359 5.88867 6.93359 7.24609L6.93359 8.07617L3.81836 8.25195C1.36719 8.37891 0 9.52148 0 11.3184C0 13.1738 1.42578 14.4141 3.47656 14.4141ZM3.87695 13.0566C2.56836 13.0566 1.68945 12.3438 1.68945 11.2793C1.68945 10.2637 2.50977 9.58008 4.02344 9.48242L6.93359 9.28711L6.93359 10.3125C6.93359 11.8555 5.57617 13.0566 3.87695 13.0566ZM11.3086 14.4141C11.7773 14.4141 12.1191 14.0918 12.1191 13.584L12.1191 12.1875L12.1484 12.1875C12.7832 13.5645 14.0625 14.4141 15.6738 14.4141C18.3398 14.4141 20.0977 12.2949 20.0977 9.0332C20.0977 5.76172 18.3301 3.64258 15.6934 3.64258C14.1113 3.64258 12.8223 4.50195 12.2168 5.86914L12.168 5.86914L12.168 0.878906C12.168 0.341797 11.8359 0 11.3477 0C10.8496 0 10.5176 0.341797 10.5176 0.878906L10.5176 13.584C10.5176 14.1016 10.8398 14.4141 11.3086 14.4141ZM15.3125 12.998C13.4668 12.998 12.168 11.4258 12.168 9.0332C12.168 6.65039 13.4766 5.07812 15.3125 5.07812C17.207 5.07812 18.3984 6.61133 18.3984 9.0332C18.3984 11.4648 17.1973 12.998 15.3125 12.998ZM26.0352 14.4141C27.9492 14.4141 29.5996 13.3594 30.1562 11.875C30.2051 11.709 30.2441 11.5527 30.2441 11.4062C30.2441 10.9961 29.9414 10.7031 29.5312 10.7031C29.1602 10.7031 28.9746 10.8398 28.75 11.2695C28.2422 12.3828 27.3633 12.998 26.0449 12.998C24.1309 12.998 22.8809 11.4844 22.8809 9.0332C22.8809 6.61133 24.1406 5.06836 26.0449 5.06836C27.3047 5.06836 28.2129 5.6543 28.7305 6.80664C28.9453 7.2168 29.1406 7.36328 29.502 7.36328C29.9219 7.36328 30.2148 7.08984 30.2148 6.66016C30.2148 6.54297 30.1758 6.39648 30.1465 6.25977C29.6582 4.76562 27.9883 3.64258 26.0059 3.64258C23.0957 3.64258 21.1914 5.78125 21.1914 9.05273C21.1914 12.334 23.1152 14.4141 26.0352 14.4141Z" fill="#000000" fill-opacity="0.85"/>
 </g>
</svg>
