<?xml version="1.0" encoding="UTF-8"?>
<!--Generator: Apple Native CoreSVG 175.5-->
<!DOCTYPE svg
PUBLIC "-//W3C//DTD SVG 1.1//EN"
       "http://www.w3.org/Graphics/SVG/1.1/DTD/svg11.dtd">
<svg version="1.1" xmlns="http://www.w3.org/2000/svg" xmlns:xlink="http://www.w3.org/1999/xlink" width="25.8301" height="19.9462">
 <g>
  <rect height="19.9462" opacity="0" width="25.8301" x="0" y="0"/>
  <path d="M6.89453 18.7963L25.0879 18.7963C25.498 18.7963 25.8301 18.4741 25.8301 18.0639C25.8301 17.6537 25.498 17.3217 25.0879 17.3217L6.89453 17.3217C6.48438 17.3217 6.16211 17.6537 6.16211 18.0639C6.16211 18.4741 6.48438 18.7963 6.89453 18.7963ZM6.89453 13.7866L25.0879 13.7866C25.498 13.7866 25.8301 13.4545 25.8301 13.0444C25.8301 12.6342 25.498 12.312 25.0879 12.312L6.89453 12.312C6.48438 12.312 6.16211 12.6342 6.16211 13.0444C6.16211 13.4545 6.48438 13.7866 6.89453 13.7866ZM6.89453 8.76703L25.0879 8.76703C25.498 8.76703 25.8301 8.44476 25.8301 8.02484C25.8301 7.61469 25.498 7.29242 25.0879 7.29242L6.89453 7.29242C6.48438 7.29242 6.16211 7.61469 6.16211 8.02484C6.16211 8.44476 6.48438 8.76703 6.89453 8.76703Z" fill="#000000" fill-opacity="0.85"/>
  <path d="M7.39258 4.29437L24.5996 4.29437C25.4199 4.29437 25.8301 3.89398 25.8301 3.07367L25.8301 2.35101C25.8301 1.54047 25.4199 1.13031 24.5996 1.13031L7.39258 1.13031C6.57227 1.13031 6.16211 1.54047 6.16211 2.35101L6.16211 3.07367C6.16211 3.89398 6.57227 4.29437 7.39258 4.29437ZM1.02539 5.29047L4.28711 3.30804C4.79492 3.00531 4.80469 2.41937 4.28711 2.11664L1.02539 0.134217C0.498047-0.178283 0 0.075623 0 0.681092L0 4.74359C0 5.35883 0.507812 5.60297 1.02539 5.29047Z" fill="#000000" fill-opacity="0.85"/>
 </g>
</svg>
