<?xml version="1.0" encoding="UTF-8"?>
<!--Generator: Apple Native CoreSVG 175.5-->
<!DOCTYPE svg
PUBLIC "-//W3C//DTD SVG 1.1//EN"
       "http://www.w3.org/Graphics/SVG/1.1/DTD/svg11.dtd">
<svg version="1.1" xmlns="http://www.w3.org/2000/svg" xmlns:xlink="http://www.w3.org/1999/xlink" width="23.3343" height="24.6822">
 <g>
  <rect height="24.6822" opacity="0" width="23.3343" x="0" y="0"/>
  <path d="M6.77722 22.6585C9.00378 24.7581 12.8612 24.7581 14.8827 22.6097C16.6112 20.7933 16.6307 18.4007 14.8241 16.7112C13.1249 15.1097 10.996 15.0218 9.61902 16.5062C8.31042 17.8929 9.13074 19.4163 8.40808 20.1878C7.76355 20.8519 7.03113 20.6761 6.58191 21.1741C6.24988 21.555 6.21082 22.1312 6.77722 22.6585ZM8.72058 22.1702C8.56433 22.053 8.55457 21.9163 8.62292 21.8089C8.74011 21.6624 9.27722 21.5355 9.61902 21.0472C10.3807 19.9534 9.83386 18.6644 10.7616 17.6194C11.5331 16.7601 12.8124 16.7991 13.8378 17.7366C15.0096 18.7913 14.9315 20.3343 13.8085 21.5648C12.5682 22.9612 10.3221 23.3421 8.72058 22.1702ZM15.7909 18.723C16.7968 18.4202 17.5878 17.7464 18.4081 16.5941C20.9374 12.9612 22.9491 6.87725 23.1737 6.23272C23.9159 4.15265 21.9432 2.61944 20.1757 4.11358C19.6385 4.58233 15.1659 8.9085 12.6366 12.5608C11.8456 13.6937 11.4843 14.6605 11.5233 15.6956L13.1151 15.8421C12.9979 15.139 13.2616 14.387 13.9257 13.4593C16.4452 9.91436 20.7909 5.72491 21.1522 5.35382C21.4354 5.05108 21.8553 5.33429 21.6796 5.73468C21.494 6.1546 19.5897 12.1605 17.1093 15.6956C16.4647 16.6233 15.9081 17.053 15.2538 17.2386ZM17.0604 16.0081L18.2421 15.471C17.7831 13.6546 15.6639 12.1409 13.828 12.3069L13.6327 13.6155C14.8534 13.3616 16.8553 14.7581 17.0604 16.0081Z" fill="#000000" fill-opacity="0.85"/>
  <path d="M1.77722 11.8773C2.92957 16.223 6.0155 18.2542 10.1171 17.4046C10.3905 17.346 10.6542 17.2874 10.9276 17.2288L10.7811 15.5687C10.5272 15.6663 10.41 15.6956 10.2733 15.7347C6.84558 16.6331 4.28699 15.0608 3.32996 11.4671L1.6991 5.37335C1.51355 4.66046 1.77722 4.17218 2.49011 3.98663L11.1327 1.66241C11.8456 1.47686 12.3241 1.76007 12.5194 2.49249L14.1503 8.56671C14.3749 9.39679 14.4725 10.178 14.4432 10.8812L15.9764 9.5921C15.9178 9.12335 15.83 8.63507 15.6932 8.14679L14.0526 2.00421C13.5936 0.334286 12.4413-0.310246 10.7323 0.138973L2.05066 2.45343C0.35144 2.90265-0.312622 4.03546 0.136596 5.73468ZM5.52722 8.42022C6.15222 8.27374 6.46472 8.55694 6.71863 8.48858C6.92371 8.43975 7.00183 8.20538 6.91394 7.87335C6.71863 7.08233 5.88855 6.62335 5.12683 6.85772C4.32605 7.0628 3.84753 7.85382 4.06238 8.6253C4.16003 8.9671 4.35535 9.13311 4.54089 9.08429C4.80457 9.00616 4.91199 8.596 5.52722 8.42022ZM10.7225 7.02374C11.3475 6.84796 11.66 7.15069 11.9139 7.08233C12.119 7.0335 12.1971 6.78936 12.1093 6.47686C11.9042 5.68585 11.0936 5.2464 10.3124 5.45147C9.52136 5.66632 9.03308 6.45733 9.25769 7.22882C9.35535 7.56085 9.54089 7.72686 9.72644 7.67804C9.99988 7.59991 10.0975 7.17999 10.7225 7.02374ZM9.75574 13.6937C11.4647 13.2249 12.5682 11.9358 12.6171 10.3245C12.6268 9.91436 12.2948 9.76788 11.9237 10.0316C10.9667 10.7151 9.8241 11.0667 9.15027 11.2523C8.43738 11.4573 7.2655 11.7405 6.03503 11.6136C5.61511 11.555 5.37097 11.8675 5.59558 12.2093C6.44519 13.5667 8.05652 14.1526 9.75574 13.6937Z" fill="#000000" fill-opacity="0.85"/>
 </g>
</svg>
