<?xml version="1.0" encoding="UTF-8"?>
<!--Generator: Apple Native CoreSVG 175.5-->
<!DOCTYPE svg
PUBLIC "-//W3C//DTD SVG 1.1//EN"
       "http://www.w3.org/Graphics/SVG/1.1/DTD/svg11.dtd">
<svg version="1.1" xmlns="http://www.w3.org/2000/svg" xmlns:xlink="http://www.w3.org/1999/xlink" width="32.9725" height="22.5268">
 <g>
  <rect height="22.5268" opacity="0" width="32.9725" x="0" y="0"/>
  <path d="M30.7324 5.25265L21.0644 2.66475C19.3457 2.20577 18.1348 2.71358 17.6367 4.23702L17.5195 4.65694L18.5937 8.66085C19.668 12.655 18.7891 16.0339 16.2891 18.2214C17.2461 19.8034 18.9453 20.9851 21.1914 21.5808C25.9863 22.8601 29.6289 20.6335 30.9766 15.614L32.8223 8.79757C33.3105 6.95186 32.6074 5.75069 30.7324 5.25265ZM20.8887 11.1706C20.2148 11.0046 19.8144 10.321 20 9.62765C20.1855 8.95382 20.8691 8.55343 21.543 8.73897C22.2168 8.92452 22.6172 9.61788 22.4414 10.2917C22.2558 10.9655 21.5723 11.3562 20.8887 11.1706ZM26.6211 12.7038C25.957 12.528 25.5566 11.8347 25.7422 11.1511C25.918 10.4773 26.6016 10.0866 27.2754 10.2722C27.959 10.4382 28.3496 11.1316 28.1738 11.8151C27.9883 12.489 27.3047 12.8894 26.6211 12.7038ZM22.5098 16.4538C21.4941 16.1706 20.5176 16.1608 19.2676 16.4343C18.8769 16.5222 18.6426 16.1999 18.8476 15.8776C19.6875 14.5593 21.3867 14.0124 23.0371 14.4714C24.7461 14.9011 25.9082 16.2097 25.9668 17.7722C25.9863 18.1628 25.625 18.3288 25.332 18.0651C24.3652 17.1862 23.5351 16.7175 22.5098 16.4538Z" fill="#000000" fill-opacity="0.85"/>
  <path d="M11.7871 19.0612C16.6016 17.7624 18.6621 14.0319 17.3047 9.00265L15.4785 2.16671C14.9805 0.33077 13.7695-0.333292 11.9043 0.154989L2.22655 2.72335C0.351552 3.23116-0.341808 4.40304 0.156239 6.27804L1.97265 13.1042C3.31054 18.1237 6.97265 20.3503 11.7871 19.0612ZM10.8691 15.5651C8.82811 16.0925 6.84569 15.3991 5.80077 13.739C5.59569 13.4362 5.77147 13.1335 6.1621 13.1628C7.46093 13.2702 9.0039 13.0456 10.1172 12.7429C11.2109 12.4597 12.6367 11.8933 13.7207 11.1413C14.043 10.9069 14.3652 11.073 14.3457 11.4733C14.2773 13.4265 12.9199 14.9987 10.8691 15.5651ZM5.94725 9.14913C5.21483 9.35421 5.11718 9.84249 4.80468 9.89132C4.65819 9.92061 4.48241 9.7546 4.39452 9.4714C4.16015 8.64132 4.68749 7.75265 5.52733 7.54757C6.37694 7.34249 7.24608 7.84054 7.46093 8.64132C7.54882 8.93429 7.47069 9.1589 7.31444 9.21749C6.95311 9.34444 6.61132 8.97335 5.94725 9.14913ZM11.9043 7.5378C11.1719 7.75265 11.0742 8.23116 10.7617 8.27022C10.6152 8.29952 10.4394 8.1335 10.3516 7.86007C10.1172 7.03975 10.6445 6.14132 11.4844 5.93624C12.3437 5.71163 13.2031 6.21944 13.418 7.02999C13.5058 7.33272 13.4277 7.54757 13.2715 7.60616C12.9199 7.73311 12.5683 7.35225 11.9043 7.5378Z" fill="#000000" fill-opacity="0.85"/>
 </g>
</svg>
