<?xml version="1.0" encoding="UTF-8"?>
<!--Generator: Apple Native CoreSVG 175.5-->
<!DOCTYPE svg
PUBLIC "-//W3C//DTD SVG 1.1//EN"
       "http://www.w3.org/Graphics/SVG/1.1/DTD/svg11.dtd">
<svg version="1.1" xmlns="http://www.w3.org/2000/svg" xmlns:xlink="http://www.w3.org/1999/xlink" width="32.9745" height="22.5443">
 <g>
  <rect height="22.5443" opacity="0" width="32.9745" x="0" y="0"/>
  <path d="M21.1826 21.5993C25.9873 22.8786 29.6397 20.6521 30.9873 15.6325L32.8233 8.80635C33.3116 6.96065 32.6182 5.75948 30.7334 5.25166L21.0655 2.66377C19.1905 2.16573 18.0088 2.83955 17.501 4.70479L16.7002 7.63448L17.3643 11.404L19.0342 5.1833C19.2686 4.31416 19.8155 3.9919 20.6748 4.22627L30.3037 6.79463C31.1729 7.02901 31.4756 7.58565 31.2412 8.47432L29.4248 15.2321C28.3506 19.2849 25.4405 21.0622 21.583 20.0466C18.5948 19.2263 16.9151 17.1853 16.9248 14.3435L15.5967 16.7556C16.3389 19.1384 18.2725 20.8083 21.1826 21.5993ZM20.8701 11.2868C21.5928 11.4919 22.335 11.0622 22.5401 10.3298C22.7354 9.59737 22.3057 8.84541 21.5635 8.64033C20.8506 8.44502 20.0987 8.88448 19.8936 9.6169C19.708 10.3493 20.1377 11.0915 20.8701 11.2868ZM26.6026 12.82C27.3252 13.0056 28.0674 12.5759 28.2725 11.8435C28.4678 11.111 28.0381 10.3689 27.3057 10.1735C26.5733 9.96846 25.8311 10.4079 25.6455 11.1306C25.4405 11.863 25.8701 12.6149 26.6026 12.82ZM22.4912 16.5603C23.5752 16.8435 24.4444 17.3317 25.46 18.2497C25.8409 18.611 26.3487 18.3767 26.3194 17.8591C26.2608 16.1403 24.9815 14.7146 23.1065 14.2263C21.2315 13.7185 19.4151 14.3239 18.4971 15.7692C18.2237 16.1892 18.5459 16.6579 19.0635 16.5407C20.3623 16.2575 21.417 16.2575 22.4912 16.5603Z" fill="#000000" fill-opacity="0.85"/>
  <path d="M11.7979 19.0798C16.6221 17.7712 18.6534 14.0505 17.3155 9.01143L15.4795 2.17549C14.9815 0.329788 13.7803-0.34404 11.9053 0.163772L2.22757 2.73213C0.342805 3.23018-0.340789 4.41182 0.157258 6.28682L1.97366 13.1228C3.31155 18.1423 6.9639 20.3591 11.7979 19.0798ZM11.378 17.5271C7.54007 18.5329 4.62991 16.7458 3.54593 12.7028L1.72952 5.93526C1.49515 5.06612 1.80765 4.51924 2.66702 4.2751L12.2959 1.69698C13.1553 1.4626 13.7217 1.79463 13.9463 2.67354L15.753 9.44112C16.8369 13.4939 15.2159 16.5017 11.378 17.5271ZM10.8506 15.5251C12.9112 14.9587 14.2295 13.3962 14.2979 11.4626C14.3076 10.9646 13.8877 10.779 13.4678 11.1013C12.1397 12.0388 10.7334 12.4099 10.0694 12.5954C9.39554 12.7712 7.99905 13.1618 6.35843 13.0056C5.84085 12.9372 5.55765 13.3181 5.83109 13.7185C6.86624 15.3786 8.7803 16.0622 10.8506 15.5251ZM6.07523 9.3044C6.77835 9.11885 7.12015 9.44112 7.41312 9.37276C7.6182 9.32393 7.71585 9.05049 7.6182 8.69893C7.40335 7.82979 6.47562 7.30244 5.61624 7.55635C4.73734 7.77119 4.20023 8.68916 4.44437 9.53877C4.55179 9.9001 4.76663 10.0856 4.97171 10.0368C5.26468 9.94893 5.38187 9.48994 6.07523 9.3044ZM11.8565 7.73213C12.5596 7.54658 12.8916 7.87862 13.1944 7.81026C13.4092 7.75166 13.4971 7.47823 13.3994 7.12666C13.1846 6.25752 12.2666 5.73994 11.4073 5.99385C10.5186 6.20869 9.98148 7.1169 10.2256 7.96651C10.333 8.32783 10.5381 8.52315 10.753 8.46455C11.0459 8.37666 11.1631 7.91768 11.8565 7.73213Z" fill="#000000" fill-opacity="0.85"/>
 </g>
</svg>
