<?xml version="1.0" encoding="UTF-8"?>
<!--Generator: Apple Native CoreSVG 175.5-->
<!DOCTYPE svg
PUBLIC "-//W3C//DTD SVG 1.1//EN"
       "http://www.w3.org/Graphics/SVG/1.1/DTD/svg11.dtd">
<svg version="1.1" xmlns="http://www.w3.org/2000/svg" xmlns:xlink="http://www.w3.org/1999/xlink" width="12.7051" height="21.7285">
 <g>
  <rect height="21.7285" opacity="0" width="12.7051" x="0" y="0"/>
  <path d="M5.11719 21.6992C7.92969 21.6992 10.2051 19.4141 10.2051 16.6016C10.2051 15.1172 9.59961 13.8184 8.42773 12.7637C8.22266 12.5781 8.17383 12.4609 8.17383 12.168L8.17383 3.33984C8.17383 1.35742 6.93359 0 5.11719 0C3.28125 0 2.03125 1.35742 2.03125 3.33984L2.03125 12.168C2.03125 12.4609 1.99219 12.5781 1.77734 12.7637C0.615234 13.8184 0 15.1172 0 16.6016C0 19.4141 2.28516 21.6992 5.11719 21.6992ZM5.11719 20.2832C3.07617 20.2832 1.43555 18.623 1.43555 16.6016C1.43555 15.3809 2.01172 14.2773 3.04688 13.584C3.34961 13.3789 3.4668 13.1934 3.4668 12.793L3.4668 3.39844C3.4668 2.22656 4.14062 1.43555 5.11719 1.43555C6.07422 1.43555 6.74805 2.22656 6.74805 3.39844L6.74805 12.793C6.74805 13.1934 6.86523 13.3789 7.16797 13.584C8.20312 14.2773 8.7793 15.3809 8.7793 16.6016C8.7793 18.623 7.12891 20.2832 5.11719 20.2832Z" fill="#000000" fill-opacity="0.85"/>
  <path d="M10.0098 3.58398L12.1289 3.58398C12.4707 3.58398 12.7051 3.32031 12.7051 3.01758C12.7051 2.71484 12.4707 2.45117 12.1289 2.45117L10.0098 2.45117C9.66797 2.45117 9.43359 2.71484 9.43359 3.01758C9.43359 3.32031 9.66797 3.58398 10.0098 3.58398ZM10.0098 6.32812L12.1289 6.32812C12.4707 6.32812 12.7051 6.06445 12.7051 5.76172C12.7051 5.45898 12.4707 5.19531 12.1289 5.19531L10.0098 5.19531C9.66797 5.19531 9.43359 5.45898 9.43359 5.76172C9.43359 6.06445 9.66797 6.32812 10.0098 6.32812ZM10.0098 9.07227L12.1289 9.07227C12.4707 9.07227 12.7051 8.80859 12.7051 8.50586C12.7051 8.20312 12.4707 7.92969 12.1289 7.92969L10.0098 7.92969C9.66797 7.92969 9.43359 8.20312 9.43359 8.50586C9.43359 8.80859 9.66797 9.07227 10.0098 9.07227ZM10.0098 11.8164L12.1289 11.8164C12.4707 11.8164 12.7051 11.5527 12.7051 11.25C12.7051 10.9375 12.4707 10.6738 12.1289 10.6738L10.0098 10.6738C9.66797 10.6738 9.43359 10.9375 9.43359 11.25C9.43359 11.5527 9.66797 11.8164 10.0098 11.8164Z" fill="#000000" fill-opacity="0.85"/>
  <path d="M5.10742 18.9648C6.41602 18.9648 7.4707 17.9102 7.4707 16.5918C7.4707 15.6738 6.95312 14.9219 6.20117 14.5117C5.88867 14.3457 5.78125 14.2285 5.78125 13.75L5.78125 11.9434C5.78125 11.4746 5.47852 11.1719 5.10742 11.1719C4.72656 11.1719 4.43359 11.4746 4.43359 11.9434L4.43359 13.75C4.43359 14.2285 4.32617 14.3457 4.01367 14.5117C3.26172 14.9219 2.74414 15.6738 2.74414 16.5918C2.74414 17.9102 3.79883 18.9648 5.10742 18.9648Z" fill="#000000" fill-opacity="0.85"/>
 </g>
</svg>
