<?xml version="1.0" encoding="UTF-8"?>
<!--Generator: Apple Native CoreSVG 175.5-->
<!DOCTYPE svg
PUBLIC "-//W3C//DTD SVG 1.1//EN"
       "http://www.w3.org/Graphics/SVG/1.1/DTD/svg11.dtd">
<svg version="1.1" xmlns="http://www.w3.org/2000/svg" xmlns:xlink="http://www.w3.org/1999/xlink" width="18.1834" height="23.291">
 <g>
  <rect height="23.291" opacity="0" width="18.1834" x="0" y="0"/>
  <path d="M5.11719 22.4805C7.92969 22.4805 10.2051 20.1953 10.2051 17.3828C10.2051 15.8984 9.59961 14.5996 8.42773 13.5449C8.22266 13.3594 8.17383 13.2422 8.17383 12.9492L8.18359 4.12109C8.18359 2.13867 6.93359 0.78125 5.11719 0.78125C3.28125 0.78125 2.02148 2.13867 2.02148 4.12109L2.03125 12.9492C2.03125 13.2422 1.99219 13.3594 1.77734 13.5449C0.615234 14.5996 0 15.8984 0 17.3828C0 20.1953 2.28516 22.4805 5.11719 22.4805ZM5.11719 21.0645C3.07617 21.0645 1.43555 19.4043 1.43555 17.3828C1.43555 16.1621 2.01172 15.0586 3.04688 14.3652C3.34961 14.1602 3.4668 13.9746 3.4668 13.5742L3.4668 4.17969C3.4668 3.00781 4.14062 2.2168 5.11719 2.2168C6.07422 2.2168 6.74805 3.00781 6.74805 4.17969L6.74805 13.5742C6.74805 13.9746 6.86523 14.1602 7.16797 14.3652C8.20312 15.0586 8.7793 16.1621 8.7793 17.3828C8.7793 19.4043 7.12891 21.0645 5.11719 21.0645Z" fill="#000000" fill-opacity="0.85"/>
  <path d="M5.10742 19.7461C6.41602 19.7461 7.4707 18.6914 7.4707 17.373C7.4707 16.4551 6.95312 15.7031 6.20117 15.293C5.88867 15.127 5.78125 15.0098 5.78125 14.5312L5.78125 12.5781C5.78125 12.1094 5.47852 11.8066 5.10742 11.8066C4.72656 11.8066 4.43359 12.1094 4.43359 12.5781L4.43359 14.5312C4.43359 15.0098 4.32617 15.127 4.01367 15.293C3.26172 15.7031 2.74414 16.4551 2.74414 17.373C2.74414 18.6914 3.79883 19.7461 5.10742 19.7461Z" fill="#000000" fill-opacity="0.85"/>
  <path d="M17.8516 10.4297L16.5234 9.66797L17.7051 8.98438C17.959 8.83789 18.0566 8.54492 17.9199 8.30078C17.7734 8.03711 17.4707 7.99805 17.1973 8.1543L15.5371 9.10156L12.627 7.45117L15.5664 5.79102L17.2266 6.74805C17.4902 6.9043 17.7832 6.85547 17.9492 6.60156C18.0762 6.34766 17.9785 6.05469 17.7344 5.91797L16.5527 5.23438L17.8613 4.49219C18.1641 4.31641 18.2715 4.01367 18.1055 3.73047C17.959 3.45703 17.627 3.39844 17.3633 3.55469L16.0352 4.32617L16.0352 2.97852C16.0352 2.67578 15.8301 2.45117 15.5566 2.45117C15.2441 2.45117 15.0586 2.67578 15.0586 3.00781L15.0488 4.90234L12.1387 6.61133L12.168 3.21289L13.8184 2.25586C14.0918 2.08984 14.1992 1.81641 14.0527 1.55273C13.9062 1.30859 13.6133 1.25 13.3594 1.39648L12.1777 2.08008L12.1875 0.595703C12.1875 0.263672 11.9824 0 11.6602 0C11.3281 0 11.1328 0.263672 11.1328 0.595703L11.1426 2.08008L9.96094 1.39648C9.70703 1.25 9.4043 1.30859 9.26758 1.55273C9.12109 1.81641 9.22852 2.08984 9.50195 2.25586L11.1523 3.21289L11.1816 6.61133L9.32617 5.51758L9.32617 6.66992L10.6836 7.45117L9.32617 8.22266L9.32617 9.38477L11.1816 8.29102L11.1523 11.6699L9.6582 12.5293C9.77539 12.793 10.0293 13.1152 10.2734 13.3008L11.1426 12.8027L11.1328 14.3066C11.1328 14.6484 11.3281 14.9023 11.6602 14.9023C11.9824 14.9023 12.1875 14.6387 12.1875 14.3066L12.1777 12.8125L13.3496 13.4863C13.6035 13.6328 13.8965 13.5742 14.043 13.3301C14.1992 13.0664 14.082 12.793 13.8086 12.627L12.168 11.6699L12.1387 8.29102L15.0293 9.99023L15.0293 11.8945C15.0293 12.1973 15.2246 12.4316 15.5273 12.4414C15.8008 12.4414 16.0059 12.1973 16.0059 11.9238L16.0156 10.5664L17.3242 11.3379C17.6172 11.5039 17.9395 11.4648 18.1055 11.1816C18.2715 10.8984 18.1445 10.5859 17.8516 10.4297Z" fill="#000000" fill-opacity="0.85"/>
 </g>
</svg>
