<?xml version="1.0" encoding="UTF-8"?>
<!--Generator: Apple Native CoreSVG 175.5-->
<!DOCTYPE svg
PUBLIC "-//W3C//DTD SVG 1.1//EN"
       "http://www.w3.org/Graphics/SVG/1.1/DTD/svg11.dtd">
<svg version="1.1" xmlns="http://www.w3.org/2000/svg" xmlns:xlink="http://www.w3.org/1999/xlink" width="16.8482" height="21.7285">
 <g>
  <rect height="21.7285" opacity="0" width="16.8482" x="0" y="0"/>
  <path d="M7.23756 0C5.64577 0 4.47389 1.01562 4.22975 2.57812L4.21999 3.22266L5.58717 4.58984L5.58717 3.39844C5.58717 2.22656 6.25124 1.43555 7.23756 1.43555C8.1946 1.43555 8.86842 2.22656 8.86842 3.39844L8.86842 7.87109L10.2942 9.30664L10.2942 3.39844C10.2942 1.36719 9.05397 0 7.23756 0ZM7.23756 21.6992C9.78639 21.6992 11.886 19.8242 12.2473 17.3828C12.2766 17.1582 12.2864 16.9336 12.2766 16.7188L10.4895 14.9316C10.7532 15.4395 10.8997 16.0059 10.8997 16.6016C10.8997 18.623 9.24928 20.2832 7.23756 20.2832C5.19655 20.2832 3.55592 18.623 3.55592 16.6016C3.55592 15.3809 4.1321 14.2773 5.16725 13.584C5.46999 13.3789 5.58717 13.1934 5.58717 12.793L5.58717 9.95117L4.15163 8.51562L4.15163 12.168C4.15163 12.4609 4.11256 12.5781 3.89772 12.7637C2.73561 13.8184 2.12038 15.1172 2.12038 16.6016C2.12038 19.4141 4.40553 21.6992 7.23756 21.6992ZM7.2278 18.9648C8.53639 18.9648 9.59108 17.9102 9.59108 16.5918C9.59108 15.6738 9.0735 14.9219 8.32155 14.5117C8.00905 14.3457 7.90163 14.2285 7.90163 13.75L7.90163 12.2559L6.55397 10.9082L6.55397 13.75C6.55397 14.2285 6.44655 14.3457 6.13405 14.5117C5.3821 14.9219 4.86452 15.6738 4.86452 16.5918C4.86452 17.9102 5.9192 18.9648 7.2278 18.9648ZM12.1301 3.58398L14.2493 3.58398C14.5911 3.58398 14.8255 3.32031 14.8255 3.01758C14.8255 2.71484 14.5911 2.45117 14.2493 2.45117L12.1301 2.45117C11.7883 2.45117 11.554 2.71484 11.554 3.01758C11.554 3.32031 11.7883 3.58398 12.1301 3.58398ZM12.1301 6.32812L14.2493 6.32812C14.5911 6.32812 14.8255 6.06445 14.8255 5.76172C14.8255 5.45898 14.5911 5.19531 14.2493 5.19531L12.1301 5.19531C11.7883 5.19531 11.554 5.45898 11.554 5.76172C11.554 6.06445 11.7883 6.32812 12.1301 6.32812ZM12.1301 9.07227L14.2493 9.07227C14.5911 9.07227 14.8255 8.80859 14.8255 8.50586C14.8255 8.20312 14.5911 7.92969 14.2493 7.92969L12.1301 7.92969C11.7883 7.92969 11.554 8.20312 11.554 8.50586C11.554 8.80859 11.7883 9.07227 12.1301 9.07227Z" fill="#000000" fill-opacity="0.85"/>
  <path d="M15.5676 18.3105C15.8606 18.6035 16.3489 18.6035 16.6321 18.3105C16.9153 18.0176 16.9251 17.5391 16.6321 17.2461L1.2903 1.91406C0.99733 1.62109 0.518814 1.61133 0.21608 1.91406C-0.0671232 2.19727-0.0768888 2.69531 0.21608 2.97852Z" fill="#000000" fill-opacity="0.85"/>
 </g>
</svg>
