<?xml version="1.0" encoding="UTF-8"?>
<!--Generator: Apple Native CoreSVG 175.5-->
<!DOCTYPE svg
PUBLIC "-//W3C//DTD SVG 1.1//EN"
       "http://www.w3.org/Graphics/SVG/1.1/DTD/svg11.dtd">
<svg version="1.1" xmlns="http://www.w3.org/2000/svg" xmlns:xlink="http://www.w3.org/1999/xlink" width="33.3691" height="17.998">
 <g>
  <rect height="17.998" opacity="0" width="33.3691" x="0" y="0"/>
  <path d="M9.32617 17.998L24.043 17.998C26.084 17.998 27.1094 16.9824 27.1094 14.9707L27.1094 3.04688C27.1094 1.03516 26.084 0.0195312 24.043 0.0195312L9.32617 0.0195312C7.29492 0.0195312 6.26953 1.02539 6.26953 3.04688L6.26953 14.9707C6.26953 16.9922 7.29492 17.998 9.32617 17.998ZM8.06641 12.1289L8.06641 5.88867C8.06641 5.56641 8.33984 5.30273 8.66211 5.30273C8.98438 5.30273 9.24805 5.56641 9.24805 5.88867L9.24805 12.1289C9.24805 12.4512 8.98438 12.7148 8.66211 12.7148C8.33984 12.7148 8.06641 12.4512 8.06641 12.1289ZM11.0547 16.4258L11.0547 1.5918L22.3242 1.5918L22.3242 16.4258ZM24.1211 12.1289L24.1211 5.88867C24.1211 5.56641 24.3945 5.30273 24.7168 5.30273C25.0391 5.30273 25.3027 5.56641 25.3027 5.88867L25.3027 12.1289C25.3027 12.4512 25.0391 12.7148 24.7168 12.7148C24.3945 12.7148 24.1211 12.4512 24.1211 12.1289Z" fill="#000000" fill-opacity="0.85"/>
  <path d="M1.5332 12.002L4.17969 9.84375C4.7168 9.39453 4.69727 8.68164 4.17969 8.24219L1.5332 6.03516C0.839844 5.45898 0 5.81055 0 6.70898L0 11.3477C0 12.2168 0.869141 12.5391 1.5332 12.002ZM31.8359 12.002C32.5 12.5391 33.3691 12.2168 33.3691 11.3477L33.3691 6.70898C33.3691 5.81055 32.5293 5.45898 31.8359 6.03516L29.1895 8.24219C28.6816 8.68164 28.6523 9.39453 29.1895 9.84375Z" fill="#000000" fill-opacity="0.85"/>
 </g>
</svg>
