<?xml version="1.0" encoding="UTF-8"?>
<!--Generator: Apple Native CoreSVG 175.5-->
<!DOCTYPE svg
PUBLIC "-//W3C//DTD SVG 1.1//EN"
       "http://www.w3.org/Graphics/SVG/1.1/DTD/svg11.dtd">
<svg version="1.1" xmlns="http://www.w3.org/2000/svg" xmlns:xlink="http://www.w3.org/1999/xlink" width="18.905" height="23.4863">
 <g>
  <rect height="23.4863" opacity="0" width="18.905" x="0" y="0"/>
  <path d="M16.5308 15.3125L17.0093 5.24414L18.1812 5.24414C18.5815 5.24414 18.9038 4.90234 18.9038 4.50195C18.9038 4.10156 18.5815 3.76953 18.1812 3.76953L13.7183 3.76953L13.7183 2.30469C13.7183 0.898438 12.771 0 11.2671 0L7.61475 0C6.11084 0 5.17334 0.898438 5.17334 2.30469L5.17334 3.56445L4.79248 3.56445L6.47217 5.24414L15.4468 5.24414L15.0464 13.8281ZM6.73584 3.76953L6.73584 2.40234C6.73584 1.8457 7.13623 1.45508 7.73193 1.45508L11.1597 1.45508C11.7554 1.45508 12.1655 1.8457 12.1655 2.40234L12.1655 3.76953ZM4.97803 21.748L13.9331 21.748C14.978 21.748 15.7202 21.2402 16.0815 20.4395L16.0913 20.2246L14.812 18.9453L14.8022 19.2676C14.7925 19.834 14.3628 20.2734 13.7769 20.2734L5.11475 20.2734C4.55811 20.2734 4.13818 19.8535 4.10889 19.2773L3.54248 7.66602L1.94092 6.06445L2.57568 19.4531C2.64404 20.8496 3.56201 21.748 4.97803 21.748ZM10.0854 8.85742L10.0854 7.58789C10.0854 7.24609 9.82178 7.01172 9.45068 7.01172C9.2749 7.01172 9.08936 7.08008 8.97217 7.2168L8.97217 7.74414ZM13.1323 11.9043L13.2593 7.58789C13.269 7.24609 13.0151 7.01172 12.644 7.01172C12.3022 7.01172 12.0483 7.23633 12.0386 7.58789L11.9507 10.7227ZM6.56006 18.6035C6.93115 18.6035 7.17529 18.3691 7.16553 18.0273L6.96045 11.1035L5.72021 9.85352L5.94482 18.0273C5.95459 18.3789 6.19873 18.6035 6.56006 18.6035ZM9.45068 18.6035C9.82178 18.6035 10.0854 18.3691 10.0854 18.0273L10.0854 14.2188L8.82568 12.9688L8.82568 18.0273C8.82568 18.3789 9.07959 18.6035 9.45068 18.6035ZM12.3511 18.6035C12.7026 18.6035 12.9468 18.3789 12.9565 18.0273L12.9858 17.1289L11.8042 15.9473L11.7456 18.0273C11.7358 18.3691 11.98 18.6035 12.3511 18.6035Z" fill="#000000" fill-opacity="0.85"/>
  <path d="M17.6245 20.1465C17.9175 20.4395 18.396 20.4395 18.689 20.1465C18.9722 19.8438 18.9819 19.375 18.689 19.082L1.28662 1.66992C0.993652 1.37695 0.505371 1.37695 0.212402 1.66992C-0.0708008 1.95312-0.0708008 2.45117 0.212402 2.73438Z" fill="#000000" fill-opacity="0.85"/>
 </g>
</svg>
