<?xml version="1.0" encoding="UTF-8"?>
<!--Generator: Apple Native CoreSVG 175.5-->
<!DOCTYPE svg
PUBLIC "-//W3C//DTD SVG 1.1//EN"
       "http://www.w3.org/Graphics/SVG/1.1/DTD/svg11.dtd">
<svg version="1.1" xmlns="http://www.w3.org/2000/svg" xmlns:xlink="http://www.w3.org/1999/xlink" width="18.9136" height="23.7012">
 <g>
  <rect height="23.7012" opacity="0" width="18.9136" x="0" y="0"/>
  <path d="M16.2866 15.2051L16.7163 5.35156L18.1812 5.35156C18.5815 5.35156 18.9136 5.00977 18.9136 4.60938C18.9136 4.20898 18.5815 3.87695 18.1812 3.87695L13.8257 3.87695L13.8257 2.38281C13.8257 0.908203 12.8589 0 11.2964 0L7.58545 0C6.03271 0 5.06592 0.908203 5.06592 2.38281L5.06592 3.62305L4.69482 3.62305L8.87451 7.80273L8.87451 7.27539C8.9624 7.05078 9.17725 6.92383 9.45068 6.92383C9.82178 6.92383 10.0854 7.1582 10.0854 7.5L10.0854 9.01367L12.1362 11.0645L12.2339 7.5C12.2437 7.14844 12.4976 6.92383 12.8394 6.92383C13.2104 6.92383 13.4546 7.1582 13.4448 7.5L13.3179 12.2461ZM6.8335 3.87695L6.8335 2.48047C6.8335 1.99219 7.16553 1.66016 7.70264 1.66016L11.1987 1.66016C11.7261 1.66016 12.0679 1.99219 12.0679 2.48047L12.0679 3.87695ZM4.81201 21.5039L14.0991 21.5039C14.9976 21.5039 15.6519 21.0938 15.9058 20.4199L15.9155 20.2051L13.1714 17.4609L13.1519 18.1348C13.1519 18.4863 12.8979 18.7109 12.5464 18.7109C12.1753 18.7109 11.9312 18.4766 11.9409 18.1348L11.9897 16.2695L10.0854 14.3652L10.0854 18.1348C10.0854 18.4766 9.82178 18.7109 9.45068 18.7109C9.07959 18.7109 8.82568 18.4766 8.82568 18.1348L8.82568 13.1152L6.7749 11.0547L6.97021 18.1348C6.97998 18.4766 6.73584 18.7109 6.36475 18.7109C6.00342 18.7109 5.75928 18.4863 5.74951 18.1348L5.5249 9.80469L2.25342 6.55273L2.82959 19.6191C2.87842 20.8301 3.60107 21.5039 4.81201 21.5039Z" fill="#000000" fill-opacity="0.85"/>
  <path d="M17.6245 20.2539C17.9175 20.5469 18.396 20.5469 18.689 20.2539C18.9722 19.9512 18.9819 19.4824 18.689 19.1895L1.28662 1.77734C0.993652 1.48438 0.505371 1.48438 0.212402 1.77734C-0.0708008 2.06055-0.0708008 2.55859 0.212402 2.8418Z" fill="#000000" fill-opacity="0.85"/>
 </g>
</svg>
