<?xml version="1.0" encoding="UTF-8"?>
<!--Generator: Apple Native CoreSVG 175.5-->
<!DOCTYPE svg
PUBLIC "-//W3C//DTD SVG 1.1//EN"
       "http://www.w3.org/Graphics/SVG/1.1/DTD/svg11.dtd">
<svg version="1.1" xmlns="http://www.w3.org/2000/svg" xmlns:xlink="http://www.w3.org/1999/xlink" width="17.9785" height="17.998">
 <g>
  <rect height="17.998" opacity="0" width="17.9785" x="0" y="0"/>
  <path d="M3.06641 17.998L14.9121 17.998C16.9629 17.998 17.9785 16.9824 17.9785 14.9707L17.9785 3.04688C17.9785 1.03516 16.9629 0.0195312 14.9121 0.0195312L3.06641 0.0195312C1.02539 0.0195312 0 1.02539 0 3.04688L0 14.9707C0 16.9922 1.02539 17.998 3.06641 17.998Z" fill="#000000" fill-opacity="0.85"/>
  <path d="M6.47461 14.7461C5.81055 14.7461 5.42969 14.375 5.40039 13.7207L5.09766 6.74805L6.79688 8.44727L6.96289 12.9004C6.96289 13.0957 7.11914 13.2324 7.31445 13.2324C7.5293 13.2324 7.65625 13.0957 7.65625 12.9004L7.51953 9.17969L8.62305 10.2734L8.62305 12.9004C8.62305 13.0957 8.75977 13.2324 8.97461 13.2324C9.18945 13.2324 9.3457 13.0957 9.3457 12.9004L9.3457 11.0059L10.332 11.9922L10.3027 12.9004C10.3027 13.0957 10.4199 13.2324 10.6445 13.2324C10.8105 13.2324 10.957 13.1348 10.9863 12.9688L11.0156 12.6758L12.4805 14.1309L12.4512 14.2285C12.3242 14.541 11.9629 14.7461 11.5234 14.7461ZM13.3691 13.9648L4.16016 4.75586C3.98438 4.57031 3.98438 4.29688 4.16016 4.13086C4.33594 3.94531 4.60938 3.94531 4.78516 4.13086L13.9844 13.3301C14.1699 13.5059 14.1699 13.7793 13.9844 13.9551C13.8184 14.1309 13.5547 14.1406 13.3691 13.9648ZM12.7148 10.9863L11.1133 9.375L11.2012 7.19727C11.2012 6.99219 11.0645 6.85547 10.8496 6.85547C10.6445 6.85547 10.4883 6.98242 10.4883 7.19727L10.4297 8.70117L9.3457 7.61719L9.3457 7.19727C9.3457 6.99219 9.19922 6.85547 8.97461 6.85547C8.91602 6.85547 8.86719 6.875 8.82812 6.91406L8.82812 7.09961L6.41602 4.6875L6.62109 4.6875C6.62109 4.58008 6.62109 4.48242 6.62109 4.375C6.62109 3.56445 7.14844 3.05664 7.99805 3.05664L9.9707 3.05664C10.8301 3.05664 11.3672 3.56445 11.3672 4.375L11.3672 5.16602L13.7012 5.16602C13.9355 5.16602 14.1406 5.35156 14.1309 5.58594C14.1211 5.81055 13.9355 5.99609 13.7012 5.99609L12.9297 5.99609ZM7.59766 5.16602L10.3613 5.16602L10.3613 4.42383C10.3613 4.16992 10.1758 4.00391 9.91211 4.00391L8.04688 4.00391C7.79297 4.00391 7.59766 4.16992 7.59766 4.42383Z" fill="#ffffff"/>
 </g>
</svg>
