<?xml version="1.0" encoding="UTF-8"?>
<!--Generator: Apple Native CoreSVG 175.5-->
<!DOCTYPE svg
PUBLIC "-//W3C//DTD SVG 1.1//EN"
       "http://www.w3.org/Graphics/SVG/1.1/DTD/svg11.dtd">
<svg version="1.1" xmlns="http://www.w3.org/2000/svg" xmlns:xlink="http://www.w3.org/1999/xlink" width="23.0273" height="22.6074">
 <g>
  <rect height="22.6074" opacity="0" width="23.0273" x="0" y="0"/>
  <path d="M3.06641 21.6016L19.9609 21.6016C22.0117 21.6016 23.0273 20.5859 23.0273 18.5742L23.0273 12.793C23.0273 11.9043 22.9102 11.4648 22.4707 10.9375L19.1016 6.75781C17.959 5.35156 17.2559 4.53125 15.5273 4.53125L14.0918 4.53125L14.0918 5.9082L15.6348 5.9082C16.3477 5.9082 17.0898 6.5332 17.5684 7.13867L21.0352 11.5039C21.4258 12.002 21.2891 12.1973 20.752 12.1973L14.5312 12.1973C14.0234 12.1973 13.7891 12.5879 13.7891 12.9883L13.7891 13.0273C13.7891 14.1602 12.9004 15.3516 11.5137 15.3516C10.1367 15.3516 9.24805 14.1602 9.24805 13.0273L9.24805 12.9883C9.24805 12.5879 9.00391 12.1973 8.49609 12.1973L2.29492 12.1973C1.72852 12.1973 1.62109 11.9727 2.00195 11.5039L5.45898 7.13867C5.9375 6.5332 6.67969 5.9082 7.39258 5.9082L8.94531 5.9082L8.94531 4.53125L7.50977 4.53125C5.77148 4.53125 5.07812 5.35156 3.93555 6.75781L0.556641 10.9375C0.126953 11.4648 0 11.9043 0 12.793L0 18.5742C0 20.5859 1.02539 21.6016 3.06641 21.6016ZM3.08594 20.0293C2.10938 20.0293 1.57227 19.502 1.57227 18.4863L1.57227 13.6328L7.76367 13.6328C7.99805 15.459 9.53125 16.8066 11.5137 16.8066C13.4961 16.8066 15.0293 15.4492 15.2637 13.6328L21.4551 13.6328L21.4551 18.4863C21.4551 19.502 20.9082 20.0293 19.9414 20.0293Z" fill="#000000" fill-opacity="0.85"/>
  <path d="M11.5137 12.0801C11.7188 12.0801 11.8848 12.0215 12.0801 11.8262L15.3809 8.64258C15.5273 8.49609 15.6055 8.33008 15.6055 8.125C15.6055 7.72461 15.3027 7.44141 14.9023 7.44141C14.707 7.44141 14.502 7.51953 14.3652 7.67578L12.8906 9.24805L12.2266 9.94141L12.2949 8.47656L12.2949 0.751953C12.2949 0.341797 11.9336 0 11.5137 0C11.0938 0 10.7422 0.341797 10.7422 0.751953L10.7422 8.47656L10.8008 9.94141L10.1367 9.24805L8.66211 7.67578C8.51562 7.51953 8.31055 7.44141 8.11523 7.44141C7.71484 7.44141 7.42188 7.72461 7.42188 8.125C7.42188 8.33008 7.5 8.49609 7.64648 8.64258L10.9473 11.8262C11.1426 12.0215 11.3184 12.0801 11.5137 12.0801Z" fill="#000000" fill-opacity="0.85"/>
 </g>
</svg>
