<?xml version="1.0" encoding="UTF-8"?>
<!--Generator: Apple Native CoreSVG 175.5-->
<!DOCTYPE svg
PUBLIC "-//W3C//DTD SVG 1.1//EN"
       "http://www.w3.org/Graphics/SVG/1.1/DTD/svg11.dtd">
<svg version="1.1" xmlns="http://www.w3.org/2000/svg" xmlns:xlink="http://www.w3.org/1999/xlink" width="27.7441" height="22.002">
 <g>
  <rect height="22.002" opacity="0" width="27.7441" x="0" y="0"/>
  <path d="M14.9707 12.9883L24.3848 12.9883L24.3848 4.08203C24.3848 2.37305 23.5547 1.58203 21.8848 1.58203L2.50977 1.58203C0.839844 1.58203 0 2.37305 0 4.08203L0 15.2734C0 16.9922 0.839844 17.7832 2.50977 17.7832L11.5625 17.7832L11.5625 16.3574C11.5625 14.0918 13.0371 12.9883 14.9707 12.9883ZM7.29492 21.0938L11.7188 21.0938C11.6016 20.6543 11.5723 20.3223 11.5723 19.5117L7.29492 19.5117C6.86523 19.5117 6.50391 19.8633 6.50391 20.3027C6.50391 20.7422 6.86523 21.0938 7.29492 21.0938Z" fill="#000000" fill-opacity="0.425"/>
  <path d="M14.9707 22.002L25.6738 22.002C27.041 22.002 27.7441 21.3086 27.7441 19.9121L27.7441 16.416C27.7441 15.0098 27.041 14.3164 25.6738 14.3164L14.9707 14.3164C13.5742 14.3164 12.9004 15.0098 12.9004 16.3574L12.9004 19.9121C12.9004 21.3086 13.5742 22.002 14.9707 22.002ZM24.5312 18.6719C23.9062 18.6719 23.4082 18.1641 23.4082 17.5391C23.4082 16.9238 23.9062 16.4258 24.5312 16.4258C25.1465 16.4258 25.6445 16.9238 25.6445 17.5391C25.6445 18.1641 25.1465 18.6719 24.5312 18.6719Z" fill="#000000" fill-opacity="0.85"/>
 </g>
</svg>
