<?xml version="1.0" encoding="UTF-8"?>
<!--Generator: Apple Native CoreSVG 175.5-->
<!DOCTYPE svg
PUBLIC "-//W3C//DTD SVG 1.1//EN"
       "http://www.w3.org/Graphics/SVG/1.1/DTD/svg11.dtd">
<svg version="1.1" xmlns="http://www.w3.org/2000/svg" xmlns:xlink="http://www.w3.org/1999/xlink" width="19.9219" height="19.9316">
 <g>
  <rect height="19.9316" opacity="0" width="19.9219" x="0" y="0"/>
  <path d="M9.96094 19.9219C15.4102 19.9219 19.9219 15.4004 19.9219 9.96094C19.9219 4.51172 15.4004 0 9.95117 0C4.51172 0 0 4.51172 0 9.96094C0 15.4004 4.52148 19.9219 9.96094 19.9219ZM9.96094 18.2617C5.35156 18.2617 1.66992 14.5703 1.66992 9.96094C1.66992 5.35156 5.3418 1.66016 9.95117 1.66016C14.5605 1.66016 18.2617 5.35156 18.2617 9.96094C18.2617 14.5703 14.5703 18.2617 9.96094 18.2617Z" fill="#000000" fill-opacity="0.85"/>
  <path d="M5.60547 13.3691L14.2871 13.3691C15.1758 13.3691 15.6836 12.8711 15.6836 11.9824L15.6836 7.01172C15.6836 6.11328 15.1855 5.61523 14.2871 5.61523L5.60547 5.61523C4.7168 5.61523 4.20898 6.11328 4.20898 7.01172L4.20898 11.9824C4.20898 12.8711 4.72656 13.3691 5.60547 13.3691ZM5.71289 12.1387C5.50781 12.1387 5.44922 12.0801 5.44922 11.875L5.44922 7.11914C5.44922 6.9043 5.50781 6.8457 5.71289 6.8457L14.1797 6.8457C14.3848 6.8457 14.4531 6.91406 14.4531 7.11914L14.4531 11.875C14.4531 12.0703 14.3848 12.1387 14.1797 12.1387ZM7.42188 15.3516L12.5 15.3516C12.832 15.3516 13.1055 15.0684 13.1055 14.7266C13.1055 14.4043 12.8223 14.1211 12.5 14.1211L7.42188 14.1211C7.08984 14.1211 6.79688 14.4043 6.79688 14.7266C6.79688 15.0684 7.08008 15.3516 7.42188 15.3516Z" fill="#000000" fill-opacity="0.85"/>
 </g>
</svg>
