<?xml version="1.0" encoding="UTF-8"?>
<!--Generator: Apple Native CoreSVG 175.5-->
<!DOCTYPE svg
PUBLIC "-//W3C//DTD SVG 1.1//EN"
       "http://www.w3.org/Graphics/SVG/1.1/DTD/svg11.dtd">
<svg version="1.1" xmlns="http://www.w3.org/2000/svg" xmlns:xlink="http://www.w3.org/1999/xlink" width="24.4141" height="20.1855">
 <g>
  <rect height="20.1855" opacity="0" width="24.4141" x="0" y="0"/>
  <path d="M2.53906 15.3027C1.89453 15.3027 1.57227 14.9805 1.57227 14.3457L1.57227 3.20312C1.57227 2.55859 1.89453 2.24609 2.53906 2.24609L21.875 2.24609C22.5195 2.24609 22.8418 2.55859 22.8418 3.20312L22.8418 14.3457C22.8418 14.9805 22.5195 15.3027 21.875 15.3027Z" fill="#000000" fill-opacity="0.2125"/>
  <path d="M2.50977 16.875L21.9043 16.875C23.5547 16.875 24.4141 16.0254 24.4141 14.3652L24.4141 3.17383C24.4141 1.52344 23.5547 0.673828 21.9043 0.673828L2.50977 0.673828C0.859375 0.673828 0 1.52344 0 3.17383L0 14.3652C0 16.0254 0.859375 16.875 2.50977 16.875ZM2.53906 15.3027C1.89453 15.3027 1.57227 14.9805 1.57227 14.3457L1.57227 3.20312C1.57227 2.55859 1.89453 2.24609 2.53906 2.24609L21.875 2.24609C22.5195 2.24609 22.8418 2.55859 22.8418 3.20312L22.8418 14.3457C22.8418 14.9805 22.5195 15.3027 21.875 15.3027ZM7.29492 20.1855L17.1191 20.1855C17.5488 20.1855 17.9102 19.834 17.9102 19.3945C17.9102 18.9551 17.5488 18.6035 17.1191 18.6035L7.29492 18.6035C6.86523 18.6035 6.50391 18.9551 6.50391 19.3945C6.50391 19.834 6.86523 20.1855 7.29492 20.1855Z" fill="#000000" fill-opacity="0.85"/>
 </g>
</svg>
