<?xml version="1.0" encoding="UTF-8"?>
<!--Generator: Apple Native CoreSVG 175.5-->
<!DOCTYPE svg
PUBLIC "-//W3C//DTD SVG 1.1//EN"
       "http://www.w3.org/Graphics/SVG/1.1/DTD/svg11.dtd">
<svg version="1.1" xmlns="http://www.w3.org/2000/svg" xmlns:xlink="http://www.w3.org/1999/xlink" width="25.5347" height="20.8594">
 <g>
  <rect height="20.8594" opacity="0" width="25.5347" x="0" y="0"/>
  <path d="M4.69482 18.3545L15.5835 18.3545L1.74561 4.5166C1.63818 4.76074 1.56982 5.20996 1.56982 5.62012L1.56982 15.2393C1.56982 17.2021 2.73193 18.3545 4.69482 18.3545ZM15.2808 2.49512L5.11475 2.49512L18.2104 15.5908C18.2788 15.2588 18.3179 14.8096 18.3179 14.3896L18.3179 5.58105C18.3179 3.62793 17.2437 2.49512 15.2808 2.49512ZM19.646 13.3057L23.2007 16.3818C23.5327 16.6748 23.9233 16.8604 24.2749 16.8604C25.0366 16.8604 25.5347 16.3037 25.5347 15.5029L25.5347 5.34668C25.5347 4.5459 25.0366 3.98926 24.2749 3.98926C23.9233 3.98926 23.5327 4.1748 23.2007 4.46777L19.646 7.53418Z" fill="#000000" fill-opacity="0.85"/>
  <path d="M19.5093 20.6396C19.8022 20.9326 20.2905 20.9326 20.5737 20.6396C20.8569 20.3369 20.8667 19.8682 20.5737 19.5752L1.28662 0.297852C0.993652 0.00488281 0.505371-0.00488281 0.212402 0.297852C-0.0708008 0.581055-0.0708008 1.0791 0.212402 1.3623Z" fill="#000000" fill-opacity="0.85"/>
 </g>
</svg>
