<?xml version="1.0" encoding="UTF-8"?>
<!--Generator: Apple Native CoreSVG 175.5-->
<!DOCTYPE svg
PUBLIC "-//W3C//DTD SVG 1.1//EN"
       "http://www.w3.org/Graphics/SVG/1.1/DTD/svg11.dtd">
<svg version="1.1" xmlns="http://www.w3.org/2000/svg" xmlns:xlink="http://www.w3.org/1999/xlink" width="20.5273" height="19.6484">
 <g>
  <rect height="19.6484" opacity="0" width="20.5273" x="0" y="0"/>
  <path d="M20.5273 4.69238C20.5273 4.31152 20.2148 4.00879 19.834 4.00879L19.7852 4.00879C18.7305 4.00879 18.1445 3.56934 17.4121 3.05176C16.7773 2.59277 15.9863 2.02637 14.9023 2.02637C13.7793 2.02637 12.9785 2.62207 12.3438 3.10059C11.6699 3.6084 11.1328 4.00879 10.2637 4.00879C9.38477 4.00879 8.85742 3.6084 8.18359 3.10059C7.54883 2.62207 6.74805 2.02637 5.625 2.02637C5.3418 2.02637 5.07812 2.06543 4.83398 2.13379L6.46484 3.75488C6.51367 3.78418 6.5918 3.82324 6.65039 3.85254C7.64648 4.31152 8.35938 5.38574 10.2637 5.38574C12.9199 5.38574 13.3496 3.40332 14.9023 3.40332C16.4844 3.40332 16.7383 5.38574 19.7852 5.38574L19.834 5.38574C20.2148 5.38574 20.5273 5.07324 20.5273 4.69238ZM0 10.7959C0 11.1768 0.302734 11.4795 0.693359 11.4795L0.742188 11.4795C3.7793 11.4795 4.04297 9.49707 5.625 9.49707C6.28906 9.49707 6.60156 9.98535 7.27539 10.1318L5.78125 8.6377C5.6543 8.59863 5.53711 8.52051 5.42969 8.44238C5.2832 8.34473 5.13672 8.22754 4.92188 8.22754C4.47266 8.22754 3.59375 8.79395 3.11523 9.14551C2.38281 9.67285 1.78711 10.1025 0.742188 10.1025L0.693359 10.1025C0.302734 10.1025 0 10.415 0 10.7959ZM20.5273 10.7959C20.5273 10.415 20.2148 10.1025 19.834 10.1025L19.7852 10.1025C18.7305 10.1025 18.1445 9.67285 17.4121 9.14551C16.7773 8.68652 15.9863 8.12012 14.9023 8.12012C13.7793 8.12012 12.9785 8.72559 12.3438 9.19434C12.2559 9.2627 12.1777 9.33105 12.0898 9.37988L13.1055 10.4053C13.6816 9.94629 14.1504 9.49707 14.9023 9.49707C16.4844 9.49707 16.7383 11.4795 19.7852 11.4795L19.834 11.4795C20.2148 11.4795 20.5273 11.1768 20.5273 10.7959ZM0 16.8896C0 17.2705 0.302734 17.583 0.693359 17.583L0.742188 17.583C3.7793 17.583 4.04297 15.6006 5.625 15.6006C7.17773 15.6006 7.59766 17.583 10.2637 17.583C11.9629 17.583 12.7344 16.7432 13.5352 16.1865L12.5195 15.1709C11.7871 15.6787 11.2305 16.2061 10.2637 16.2061C9.38477 16.2061 8.85742 15.8057 8.18359 15.2881C7.54883 14.8193 6.74805 14.2236 5.625 14.2236C4.54102 14.2236 3.75 14.7803 3.11523 15.249C2.38281 15.7666 1.78711 16.2061 0.742188 16.2061L0.693359 16.2061C0.302734 16.2061 0 16.5088 0 16.8896Z" fill="#000000" fill-opacity="0.85"/>
  <path d="M18.3887 19.4287C18.6816 19.7217 19.1699 19.7217 19.4531 19.4287C19.7363 19.126 19.7461 18.6572 19.4531 18.3643L2.07031 0.97168C1.77734 0.688477 1.28906 0.678711 0.996094 0.97168C0.712891 1.26465 0.712891 1.75293 0.996094 2.03613Z" fill="#000000" fill-opacity="0.85"/>
 </g>
</svg>
