<?xml version="1.0" encoding="UTF-8"?>
<!--Generator: Apple Native CoreSVG 175.5-->
<!DOCTYPE svg
PUBLIC "-//W3C//DTD SVG 1.1//EN"
       "http://www.w3.org/Graphics/SVG/1.1/DTD/svg11.dtd">
<svg version="1.1" xmlns="http://www.w3.org/2000/svg" xmlns:xlink="http://www.w3.org/1999/xlink" width="20.5273" height="17.9029">
 <g>
  <rect height="17.9029" opacity="0" width="20.5273" x="0" y="0"/>
  <path d="M10.2637 4.51295C12.9199 4.51295 13.3496 2.53053 14.9023 2.53053C16.4844 2.53053 16.7383 4.51295 19.7852 4.51295L19.834 4.51295C20.2148 4.51295 20.5273 4.20045 20.5273 3.81959C20.5273 3.43873 20.2148 3.136 19.834 3.136L19.7852 3.136C18.7305 3.136 18.1445 2.69654 17.4121 2.17897C16.7773 1.71998 15.9863 1.15357 14.9023 1.15357C13.7793 1.15357 12.9785 1.74928 12.3438 2.22779C11.6699 2.73561 11.1328 3.136 10.2637 3.136C9.38477 3.136 8.85742 2.73561 8.18359 2.22779C7.54883 1.74928 6.74805 1.15357 5.625 1.15357C4.54102 1.15357 3.75 1.71998 3.11523 2.17897C2.38281 2.69654 1.78711 3.136 0.742188 3.136L0.693359 3.136C0.302734 3.136 0 3.43873 0 3.81959C0 4.20045 0.302734 4.51295 0.693359 4.51295L0.742188 4.51295C3.7793 4.51295 4.04297 2.53053 5.625 2.53053C7.17773 2.53053 7.59766 4.51295 10.2637 4.51295Z" fill="#000000" fill-opacity="0.85"/>
  <path d="M5.625 8.62428C6.66016 8.62428 7.16797 9.48365 8.16406 10.0305L8.16406 9.28834C8.16406 8.95631 8.16406 8.61451 8.16406 8.27272C7.97852 8.18482 7.8125 8.05787 7.63672 7.94068C7.08984 7.57936 6.45508 7.24732 5.625 7.24732C4.54102 7.24732 3.75 7.81373 3.11523 8.27272C2.38281 8.80006 1.78711 9.22975 0.742188 9.22975L0.693359 9.22975C0.302734 9.22975 0 9.54225 0 9.92311C0 10.304 0.302734 10.6067 0.693359 10.6067L0.742188 10.6067C3.7793 10.6067 4.04297 8.62428 5.625 8.62428ZM14.9023 8.62428C16.4844 8.62428 16.7383 10.6067 19.7852 10.6067L19.834 10.6067C20.2148 10.6067 20.5273 10.304 20.5273 9.92311C20.5273 9.54225 20.2148 9.22975 19.834 9.22975L19.7852 9.22975C18.7305 9.22975 18.1445 8.80006 17.4121 8.27272C16.7773 7.81373 15.9863 7.24732 14.9023 7.24732C14.0723 7.24732 13.4375 7.57936 12.8906 7.94068C12.7051 8.05787 12.5488 8.18482 12.3633 8.27272C12.3633 8.61451 12.3633 8.94654 12.3633 9.28834L12.3633 10.0305C13.3594 9.48365 13.8672 8.62428 14.9023 8.62428Z" fill="#000000" fill-opacity="0.85"/>
  <path d="M7.68555 13.2141C7.06055 13.2141 6.80664 13.8196 7.16797 14.2786L9.67773 17.5696C10.0391 18.0188 10.4785 18.009 10.8301 17.5696L13.3398 14.2688C13.6914 13.8196 13.4375 13.2141 12.8223 13.2141ZM9.48242 14.1712L11.0352 14.1712L11.0352 7.1692C11.0352 6.75904 10.6738 6.41725 10.2539 6.41725C9.83398 6.41725 9.48242 6.75904 9.48242 7.1692Z" fill="#000000" fill-opacity="0.85"/>
 </g>
</svg>
