<?xml version="1.0" encoding="UTF-8"?>
<!--Generator: Apple Native CoreSVG 175.5-->
<!DOCTYPE svg
PUBLIC "-//W3C//DTD SVG 1.1//EN"
       "http://www.w3.org/Graphics/SVG/1.1/DTD/svg11.dtd">
<svg version="1.1" xmlns="http://www.w3.org/2000/svg" xmlns:xlink="http://www.w3.org/1999/xlink" width="20.5273" height="17.9199">
 <g>
  <rect height="17.9199" opacity="0" width="20.5273" x="0" y="0"/>
  <path d="M5.625 7.25586C4.54102 7.25586 3.75 7.82227 3.11523 8.28125C2.38281 8.80859 1.78711 9.23828 0.742188 9.23828L0.693359 9.23828C0.302734 9.23828 0 9.55078 0 9.93164C0 10.3125 0.302734 10.6152 0.693359 10.6152L0.742188 10.6152C3.7793 10.6152 4.04297 8.63281 5.625 8.63281C5.9375 8.63281 6.17188 8.74023 6.39648 8.85742L7.26562 7.73438C6.79688 7.4707 6.26953 7.25586 5.625 7.25586ZM19.834 9.23828L19.7852 9.23828C18.7305 9.23828 18.1445 8.80859 17.4121 8.28125C16.7773 7.82227 15.9863 7.25586 14.9023 7.25586C14.248 7.25586 13.7207 7.4707 13.2422 7.74414L14.1113 8.86719C14.3457 8.73047 14.5801 8.63281 14.9023 8.63281C16.4844 8.63281 16.7383 10.6152 19.7852 10.6152L19.834 10.6152C20.2148 10.6152 20.5273 10.3125 20.5273 9.93164C20.5273 9.55078 20.2148 9.23828 19.834 9.23828Z" fill="#000000" fill-opacity="0.85"/>
  <path d="M0 3.82812C0 4.20898 0.302734 4.52148 0.693359 4.52148L0.742188 4.52148C3.7793 4.52148 4.04297 2.53906 5.625 2.53906C7.17773 2.53906 7.59766 4.52148 10.2637 4.52148C12.9199 4.52148 13.3496 2.53906 14.9023 2.53906C16.4844 2.53906 16.7383 4.52148 19.7852 4.52148L19.834 4.52148C20.2148 4.52148 20.5273 4.20898 20.5273 3.82812C20.5273 3.44727 20.2148 3.14453 19.834 3.14453L19.7852 3.14453C18.7305 3.14453 18.1445 2.70508 17.4121 2.1875C16.7773 1.72852 15.9863 1.16211 14.9023 1.16211C13.7793 1.16211 12.9785 1.75781 12.3438 2.23633C11.6699 2.74414 11.1328 3.14453 10.2637 3.14453C9.38477 3.14453 8.85742 2.74414 8.18359 2.23633C7.54883 1.75781 6.74805 1.16211 5.625 1.16211C4.54102 1.16211 3.75 1.72852 3.11523 2.1875C2.38281 2.70508 1.78711 3.14453 0.742188 3.14453L0.693359 3.14453C0.302734 3.14453 0 3.44727 0 3.82812Z" fill="#000000" fill-opacity="0.85"/>
  <path d="M7.68555 11.123L12.8223 11.123C13.4375 11.123 13.6914 10.5176 13.3398 10.0586L10.8301 6.76758C10.4785 6.31836 10.0391 6.30859 9.67773 6.76758L7.16797 10.0488C6.80664 10.5176 7.06055 11.123 7.68555 11.123ZM9.48242 10.1562L9.48242 17.1582C9.48242 17.5684 9.83398 17.9199 10.2539 17.9199C10.6738 17.9199 11.0352 17.5684 11.0352 17.1582L11.0352 10.1562Z" fill="#000000" fill-opacity="0.85"/>
 </g>
</svg>
