<?xml version="1.0" encoding="UTF-8"?>
<!--Generator: Apple Native CoreSVG 175.5-->
<!DOCTYPE svg
PUBLIC "-//W3C//DTD SVG 1.1//EN"
       "http://www.w3.org/Graphics/SVG/1.1/DTD/svg11.dtd">
<svg version="1.1" xmlns="http://www.w3.org/2000/svg" xmlns:xlink="http://www.w3.org/1999/xlink" width="21.0254" height="20.791">
 <g>
  <rect height="20.791" opacity="0" width="21.0254" x="0" y="0"/>
  <path d="M0.78125 12.666C1.23047 12.666 1.57227 12.3145 1.57227 11.875L1.57227 8.91602C1.57227 8.47656 1.23047 8.11523 0.78125 8.11523C0.332031 8.11523 0 8.47656 0 8.91602L0 11.875C0 12.3145 0.332031 12.666 0.78125 12.666Z" fill="#000000" fill-opacity="0.85"/>
  <path d="M4.0625 16.6602C4.51172 16.6602 4.86328 16.3086 4.86328 15.8691L4.86328 4.92188C4.86328 4.48242 4.51172 4.12109 4.0625 4.12109C3.62305 4.12109 3.29102 4.48242 3.29102 4.92188L3.29102 15.8691C3.29102 16.3086 3.62305 16.6602 4.0625 16.6602Z" fill="#000000" fill-opacity="0.85"/>
  <path d="M7.34375 20.5957C7.80273 20.5957 8.14453 20.2441 8.14453 19.8047L8.14453 0.986328C8.14453 0.546875 7.80273 0.195312 7.34375 0.195312C6.9043 0.195312 6.57227 0.546875 6.57227 0.986328L6.57227 19.8047C6.57227 20.2441 6.9043 20.5957 7.34375 20.5957Z" fill="#000000" fill-opacity="0.85"/>
  <path d="M10.6445 15.4688C11.084 15.4688 11.4258 15.127 11.4258 14.6875L11.4258 6.10352C11.4258 5.66406 11.084 5.3125 10.6445 5.3125C10.1855 5.3125 9.85352 5.66406 9.85352 6.10352L9.85352 14.6875C9.85352 15.127 10.1855 15.4688 10.6445 15.4688Z" fill="#000000" fill-opacity="0.85"/>
  <path d="M13.1445 12.5781C13.6133 12.3145 14.2285 12.2852 14.7168 12.5098L14.7168 3.14453C14.7168 2.71484 14.3652 2.35352 13.9258 2.35352C13.4766 2.35352 13.1445 2.71484 13.1445 3.14453Z" fill="#000000" fill-opacity="0.85"/>
  <path d="M14.7754 20.791L19.7461 20.791C20.0586 20.791 20.2637 20.5762 20.2637 20.2637C20.2637 19.9512 20.0586 19.7363 19.7461 19.7363L17.7832 19.7363L17.7832 18.7598C19.7266 18.5254 21.0254 17.0508 21.0254 15.0684L21.0254 14.209C21.0254 13.9355 20.791 13.6914 20.5176 13.6914C20.2344 13.6914 19.9902 13.9355 19.9902 14.209L19.9902 15.0684C19.9902 16.6699 18.8672 17.793 17.2559 17.793C15.6348 17.793 14.5215 16.6699 14.5215 15.0684L14.5215 14.209C14.5215 13.9355 14.2773 13.6914 13.9941 13.6914C13.7207 13.6914 13.4863 13.9355 13.4863 14.209L13.4863 15.0684C13.4863 17.0508 14.7852 18.5352 16.7285 18.7598L16.7285 19.7363L14.7754 19.7363C14.4629 19.7363 14.2383 19.9512 14.2383 20.2637C14.2383 20.5762 14.4629 20.791 14.7754 20.791ZM17.2559 16.8066C18.2129 16.8066 18.877 16.0645 18.877 15.0781L18.877 11.2402C18.877 10.2539 18.2129 9.52148 17.2559 9.52148C16.2988 9.52148 15.6348 10.2539 15.6348 11.2402L15.6348 15.0781C15.6348 16.0645 16.2988 16.8066 17.2559 16.8066Z" fill="#000000" fill-opacity="0.85"/>
 </g>
</svg>
