<?xml version="1.0" encoding="UTF-8"?>
<!--Generator: Apple Native CoreSVG 175.5-->
<!DOCTYPE svg
PUBLIC "-//W3C//DTD SVG 1.1//EN"
       "http://www.w3.org/Graphics/SVG/1.1/DTD/svg11.dtd">
<svg version="1.1" xmlns="http://www.w3.org/2000/svg" xmlns:xlink="http://www.w3.org/1999/xlink" width="19.4385" height="20.4004">
 <g>
  <rect height="20.4004" opacity="0" width="19.4385" x="0" y="0"/>
  <path d="M0.78125 12.4707C1.23047 12.4707 1.57227 12.1191 1.57227 11.6797L1.57227 8.7207C1.57227 8.28125 1.23047 7.91992 0.78125 7.91992C0.332031 7.91992 0 8.28125 0 8.7207L0 11.6797C0 12.1191 0.332031 12.4707 0.78125 12.4707ZM4.0625 16.4648C4.51172 16.4648 4.86328 16.1133 4.86328 15.6738L4.86328 8.07617L3.29102 6.50391L3.29102 15.6738C3.29102 16.1133 3.62305 16.4648 4.0625 16.4648ZM7.34375 0C6.9043 0 6.57227 0.351562 6.57227 0.791016L6.57227 3.87695L8.14453 5.44922L8.14453 0.791016C8.14453 0.351562 7.80273 0 7.34375 0ZM7.34375 20.4004C7.80273 20.4004 8.14453 20.0488 8.14453 19.6094L8.14453 11.3574L6.57227 9.79492L6.57227 19.6094C6.57227 20.0488 6.9043 20.4004 7.34375 20.4004ZM10.6445 5.11719C10.1855 5.11719 9.85352 5.46875 9.85352 5.9082L9.85352 7.16797L11.4258 8.74023L11.4258 5.9082C11.4258 5.46875 11.084 5.11719 10.6445 5.11719ZM10.6445 16.123C11.0938 16.123 11.4258 15.7715 11.4258 15.332L11.4258 14.6387L9.85352 13.0664L9.85352 15.332C9.85352 15.7715 10.1953 16.123 10.6445 16.123ZM13.9258 2.1582C13.4766 2.1582 13.1445 2.51953 13.1445 2.94922L13.1445 10.4492L14.7168 12.0215L14.7168 2.94922C14.7168 2.51953 14.3652 2.1582 13.9258 2.1582ZM17.207 7.08008C16.7578 7.08008 16.4258 7.44141 16.4258 7.87109L16.4258 12.5293C16.4258 12.959 16.7578 13.3105 17.207 13.3105C17.6562 13.3105 17.998 12.959 17.998 12.5293L17.998 7.87109C17.998 7.44141 17.6562 7.08008 17.207 7.08008Z" fill="#000000" fill-opacity="0.85"/>
  <path d="M18.1543 19.4824C18.4473 19.7754 18.9355 19.7754 19.2188 19.4824C19.5117 19.1797 19.5117 18.7109 19.2188 18.418L1.70898 0.898438C1.41602 0.605469 0.927734 0.605469 0.634766 0.898438C0.341797 1.18164 0.341797 1.67969 0.634766 1.96289Z" fill="#000000" fill-opacity="0.85"/>
 </g>
</svg>
