<?xml version="1.0" encoding="UTF-8"?>
<!--Generator: Apple Native CoreSVG 175.5-->
<!DOCTYPE svg
PUBLIC "-//W3C//DTD SVG 1.1//EN"
       "http://www.w3.org/Graphics/SVG/1.1/DTD/svg11.dtd">
<svg version="1.1" xmlns="http://www.w3.org/2000/svg" xmlns:xlink="http://www.w3.org/1999/xlink" width="28.3183" height="20.1465">
 <g>
  <rect height="20.1465" opacity="0" width="28.3183" x="0" y="0"/>
  <path d="M0.432673 7.13867L7.20025 15.7715C7.49322 16.1523 7.9815 16.25 8.43072 16.0059C10.0225 15.1562 12.3174 14.5508 14.1631 14.5508C15.9991 14.5508 18.3038 15.1562 19.8858 16.0059C20.335 16.25 20.8331 16.1523 21.126 15.7715L27.8936 7.13867C28.5479 6.29883 28.4405 5.41016 27.6104 4.76562C24.876 2.65625 19.6612 1.02539 14.1631 1.02539C8.66509 1.02539 3.44049 2.65625 0.70611 4.76562C-0.123968 5.41016-0.23139 6.29883 0.432673 7.13867ZM1.99517 6.58203C1.80963 6.32812 1.83892 6.10352 2.10259 5.91797C5.46197 3.79883 9.75884 2.59766 14.1631 2.59766C18.5577 2.59766 22.8643 3.79883 26.2237 5.91797C26.4776 6.10352 26.5167 6.32812 26.3213 6.58203L20.4229 14.1016C20.2374 14.3457 20.1202 14.3652 19.876 14.2676C17.9424 13.4473 15.8721 12.9785 14.1631 12.9785C12.4444 12.9785 10.3741 13.4473 8.44049 14.2676C8.19634 14.3652 8.08892 14.3457 7.89361 14.1016Z" fill="#000000" fill-opacity="0.85"/>
  <path d="M14.1631 20.1465C15.3545 20.1465 16.3604 19.1504 16.3604 17.9492C16.3604 16.7285 15.3643 15.7422 14.1631 15.7422C12.9522 15.7422 11.9561 16.7285 11.9561 17.9492C11.9561 19.1602 12.9424 20.1465 14.1631 20.1465ZM14.1631 18.8477C13.6553 18.8477 13.2549 18.4375 13.2549 17.9492C13.2549 17.4414 13.6553 17.0215 14.1631 17.0215C14.6514 17.0215 15.0811 17.4414 15.0811 17.9492C15.0811 18.4375 14.6514 18.8477 14.1631 18.8477ZM14.3292 16.2891L5.09088 0.478516C4.8858 0.117188 4.39752-0.0195312 3.99713 0.195312C3.62603 0.410156 3.50884 0.898438 3.73345 1.26953L12.9327 17.0312Z" fill="#000000" fill-opacity="0.85"/>
 </g>
</svg>
