<?xml version="1.0" encoding="UTF-8"?>
<!--Generator: Apple Native CoreSVG 175.5-->
<!DOCTYPE svg
PUBLIC "-//W3C//DTD SVG 1.1//EN"
       "http://www.w3.org/Graphics/SVG/1.1/DTD/svg11.dtd">
<svg version="1.1" xmlns="http://www.w3.org/2000/svg" xmlns:xlink="http://www.w3.org/1999/xlink" width="20.0477" height="20.6348">
 <g>
  <rect height="20.6348" opacity="0" width="20.0477" x="0" y="0"/>
  <path d="M17.0106 3.53516C17.2157 3.53516 17.3817 3.34961 17.3622 3.125L17.3036 2.31445L17.9872 2.77344C18.1434 2.88086 18.3973 2.8418 18.5145 2.66602C18.6415 2.48047 18.5536 2.2168 18.3387 2.12891L17.6161 1.76758L18.3582 1.39648C18.5438 1.29883 18.6317 1.06445 18.5243 0.869141C18.4266 0.693359 18.1532 0.634766 17.9774 0.761719L17.3036 1.2207L17.3719 0.419922C17.3915 0.195312 17.2254 0 17.0106 0C16.7762 0 16.6102 0.175781 16.6297 0.410156L16.6883 1.23047L15.995 0.761719C15.8192 0.644531 15.575 0.683594 15.4774 0.869141C15.3602 1.06445 15.4383 1.29883 15.6336 1.39648L16.3661 1.76758L15.6434 2.12891C15.4383 2.2168 15.3504 2.46094 15.4676 2.66602C15.5653 2.8418 15.8192 2.89062 15.995 2.77344L16.6883 2.31445L16.6395 3.125C16.6297 3.35938 16.786 3.53516 17.0106 3.53516ZM17.0106 17.5391C17.2157 17.5391 17.3817 17.3535 17.3622 17.1387L17.3036 16.3281L17.9872 16.7871C18.1434 16.8945 18.3973 16.8555 18.5145 16.6699C18.6415 16.4844 18.5536 16.2207 18.3387 16.1426L17.6161 15.7715L18.3582 15.4004C18.5438 15.3125 18.6317 15.0781 18.5243 14.873C18.4266 14.6973 18.1532 14.6387 17.9774 14.7656L17.3036 15.2246L17.3719 14.4238C17.3915 14.209 17.2254 14.0137 17.0106 14.0137C16.7762 14.0137 16.6102 14.1895 16.6297 14.4141L16.6883 15.2344L15.995 14.7656C15.8192 14.6484 15.575 14.6875 15.4774 14.873C15.3602 15.0781 15.4383 15.3027 15.6336 15.4004L16.3661 15.7715L15.6434 16.1328C15.4383 16.2207 15.3504 16.4648 15.4676 16.6699C15.5653 16.8457 15.8192 16.8945 15.995 16.7773L16.6883 16.3184L16.6395 17.1387C16.6297 17.3633 16.786 17.5391 17.0106 17.5391Z" fill="#000000" fill-opacity="0.85"/>
  <path d="M0.887545 7.5293C2.2938 7.08008 3.74887 6.8457 5.13559 6.8457C6.93247 6.8457 8.25083 7.13867 9.95005 7.13867C11.7079 7.13867 12.8016 5.94727 12.8016 4.39453C12.8016 2.80273 11.5809 1.66016 10.077 1.66016C8.96372 1.66016 7.98715 2.36328 7.577 3.29102C7.42075 3.61328 7.47934 3.98438 7.82114 4.16016C8.13364 4.31641 8.5145 4.21875 8.71958 3.82812C8.93442 3.33008 9.46176 2.93945 10.077 2.93945C10.8875 2.93945 11.5223 3.50586 11.5223 4.39453C11.5223 5.2832 10.9071 5.86914 9.95005 5.86914C8.32895 5.86914 6.99106 5.57617 5.13559 5.57617C3.5438 5.57617 1.93247 5.85938 0.49692 6.31836C0.0867638 6.43555-0.0694862 6.78711 0.0281701 7.11914C0.125826 7.46094 0.448092 7.65625 0.887545 7.5293ZM16.161 12.0996C18.4364 12.0996 20.0477 10.6543 20.0477 8.63281C20.0477 6.64062 18.5145 5.19531 16.6102 5.19531C14.8426 5.19531 13.534 6.42578 13.2997 8.03711C13.2411 8.44727 13.4657 8.76953 13.8172 8.81836C14.1786 8.86719 14.4911 8.64258 14.5692 8.18359C14.7352 7.1582 15.5848 6.46484 16.6102 6.46484C17.8016 6.46484 18.7684 7.35352 18.7684 8.63281C18.7684 9.93164 17.743 10.8301 16.161 10.8301C13.1825 10.8301 9.96958 9.13086 6.06333 9.13086C4.05161 9.13086 2.21567 9.45312 0.49692 10.0586C0.0965294 10.2051-0.0694862 10.5469 0.0281701 10.8789C0.125826 11.2207 0.457858 11.4258 0.887545 11.2793C2.47934 10.6738 4.1395 10.4102 6.06333 10.4102C9.95981 10.4102 12.87 12.0996 16.161 12.0996ZM9.95981 18.9844C11.4637 18.9844 12.6258 17.8711 12.6258 16.2793C12.6258 13.9746 10.2723 12.6855 5.93637 12.6855C4.11997 12.6855 2.15708 13.0371 0.49692 13.6035C0.0965294 13.75-0.0694862 14.0918 0.0281701 14.4238C0.125826 14.7656 0.457858 14.9707 0.887545 14.8242C2.44028 14.2676 4.17856 13.9648 5.93637 13.9648C9.4813 13.9648 11.3563 14.8535 11.3563 16.2793C11.3563 17.168 10.7313 17.7148 9.95981 17.7148C9.18833 17.7148 8.71958 17.1973 8.58286 16.377C8.52426 16.0156 8.26059 15.7129 7.84067 15.7422C7.40122 15.7715 7.22544 16.1426 7.28403 16.543C7.45981 17.9004 8.46567 18.9844 9.95981 18.9844Z" fill="#000000" fill-opacity="0.85"/>
 </g>
</svg>
