<?xml version="1.0" encoding="UTF-8"?>
<!--Generator: Apple Native CoreSVG 175.5-->
<!DOCTYPE svg
PUBLIC "-//W3C//DTD SVG 1.1//EN"
       "http://www.w3.org/Graphics/SVG/1.1/DTD/svg11.dtd">
<svg version="1.1" xmlns="http://www.w3.org/2000/svg" xmlns:xlink="http://www.w3.org/1999/xlink" width="23.9258" height="19.4238">
 <g>
  <rect height="19.4238" opacity="0" width="23.9258" x="0" y="0"/>
  <path d="M14.1895 7.46094L20.8301 7.46094C21.7969 7.46094 22.3535 7.98828 22.3535 9.00391L22.3535 16.3184C22.3535 17.334 21.7969 17.8516 20.8301 17.8516L3.08594 17.8516C2.10938 17.8516 1.57227 17.334 1.57227 16.3184L1.57227 9.00391C1.57227 7.98828 2.10938 7.46094 3.08594 7.46094L9.73633 7.46094L9.73633 5.88867L3.06641 5.88867C1.02539 5.88867 0 6.9043 0 8.91602L0 16.4062C0 18.418 1.02539 19.4238 3.06641 19.4238L20.8594 19.4238C22.9102 19.4238 23.9258 18.4082 23.9258 16.4062L23.9258 8.91602C23.9258 6.9043 22.9102 5.88867 20.8594 5.88867L14.1895 5.88867Z" fill="#000000" fill-opacity="0.85"/>
  <path d="M11.9629 15.1758C12.3926 15.1758 12.7441 14.8145 12.7441 14.3848L12.7441 11.8945C12.7441 11.4648 12.3926 11.1035 11.9629 11.1035C11.5332 11.1035 11.1719 11.4648 11.1719 11.8945L11.1719 14.3848C11.1719 14.8145 11.5332 15.1758 11.9629 15.1758ZM11.9629 8.93555C12.3926 8.93555 12.7441 8.58398 12.7441 8.1543L12.7441 5.66406C12.7441 5.23438 12.3926 4.87305 11.9629 4.87305C11.5332 4.87305 11.1719 5.23438 11.1719 5.66406L11.1719 8.1543C11.1719 8.58398 11.5332 8.93555 11.9629 8.93555ZM1.25977 3.39844C1.63086 3.62305 2.05078 3.51562 2.33398 3.17383C2.87109 2.5293 3.54492 2.05078 4.31641 1.77734C4.73633 1.62109 5 1.25977 4.91211 0.830078C4.80469 0.341797 4.32617 0.107422 3.75 0.302734C2.75391 0.644531 1.80664 1.32812 1.08398 2.2168C0.732422 2.63672 0.859375 3.1543 1.25977 3.39844ZM10.8496 3.37891C11.25 3.13477 11.3477 2.62695 11.0059 2.20703C10.2832 1.31836 9.33594 0.644531 8.34961 0.3125C7.73438 0.0976562 7.27539 0.380859 7.1875 0.849609C7.11914 1.26953 7.36328 1.62109 7.7832 1.77734C8.54492 2.05078 9.21875 2.5293 9.74609 3.16406C10.0586 3.53516 10.4688 3.60352 10.8496 3.37891ZM22.666 3.39844C23.0664 3.1543 23.1934 2.63672 22.8418 2.2168C22.1191 1.32812 21.1719 0.644531 20.166 0.302734C19.5996 0.107422 19.1113 0.341797 19.0137 0.830078C18.916 1.25977 19.1895 1.62109 19.6094 1.77734C20.3809 2.05078 21.0547 2.5293 21.5918 3.17383C21.875 3.51562 22.2949 3.62305 22.666 3.39844ZM13.0762 3.37891C13.457 3.60352 13.8574 3.53516 14.1797 3.16406C14.6973 2.5293 15.3809 2.05078 16.1328 1.77734C16.5625 1.62109 16.8066 1.26953 16.7285 0.849609C16.6504 0.380859 16.1914 0.0976562 15.5762 0.3125C14.5898 0.644531 13.6328 1.31836 12.9102 2.20703C12.5781 2.62695 12.666 3.13477 13.0762 3.37891Z" fill="#000000" fill-opacity="0.85"/>
 </g>
</svg>
