<?xml version="1.0" encoding="UTF-8"?>
<!--Generator: Apple Native CoreSVG 175.5-->
<!DOCTYPE svg
PUBLIC "-//W3C//DTD SVG 1.1//EN"
       "http://www.w3.org/Graphics/SVG/1.1/DTD/svg11.dtd">
<svg version="1.1" xmlns="http://www.w3.org/2000/svg" xmlns:xlink="http://www.w3.org/1999/xlink" width="23.2041" height="23.4864">
 <g>
  <rect height="23.4864" opacity="0" width="23.2041" x="0" y="0"/>
  <path d="M7.4451 13.9258L13.4021 9.05278L6.4783 2.08012C5.10135 0.712933 3.6365 0.712933 2.29861 2.05082L0.999786 3.34965C-0.338105 4.68754-0.338105 6.15239 1.02908 7.51957ZM6.86893 9.74614L2.99197 5.88871C2.83572 5.73246 2.84549 5.48832 2.99197 5.32231C3.14822 5.17582 3.40213 5.19536 3.53885 5.32231L7.42557 9.20903C7.58182 9.36528 7.57205 9.59965 7.42557 9.74614C7.27908 9.90239 7.02518 9.90239 6.86893 9.74614ZM8.14822 8.48637L4.28104 4.58989C4.13455 4.4434 4.12479 4.20903 4.28104 4.05278C4.41775 3.90629 4.67166 3.89653 4.82791 4.05278L8.70486 7.91996C8.85135 8.06645 8.85135 8.31059 8.6951 8.48637C8.56814 8.62309 8.29471 8.64262 8.14822 8.48637ZM20.8826 23.0664L22.0252 21.9239C22.2107 21.7383 22.1717 21.5039 22.0056 21.1914L20.2381 17.9395C20.0623 17.6172 19.7303 17.4024 19.408 17.3926L18.3728 17.3438L13.3045 12.2754L11.2537 14.3946L16.2928 19.4336L16.3416 20.4688C16.3513 20.7715 16.5564 21.1133 16.8885 21.2793L20.1599 23.0664C20.4529 23.2129 20.6873 23.2618 20.8826 23.0664Z" fill="#000000" fill-opacity="0.85"/>
  <path d="M1.52713 22.2168C3.22635 23.8965 5.50174 23.9161 7.17166 22.2364C9.3201 20.0684 8.92947 17.6075 15.824 10.7422L14.9744 9.88286C7.45486 17.4317 8.59744 18.8379 6.17557 21.2598C5.09158 22.3536 3.62674 22.3633 2.49393 21.25C1.37088 20.1075 1.39041 18.6524 2.46463 17.5684C4.90604 15.1368 6.31229 16.2891 13.8513 8.76957L13.0017 7.91996C6.1365 14.8145 3.67557 14.4239 1.5076 16.5625C-0.181855 18.2325-0.162324 20.5176 1.52713 22.2168ZM13.6756 10.0586C15.9119 12.295 19.4763 12.3731 21.6443 10.2149C23.4021 8.45707 23.7049 5.68364 22.3963 3.43754L21.449 4.39457C22.2693 6.07426 21.9959 8.02739 20.7263 9.30668C19.076 10.9571 16.3416 10.8789 14.5935 9.15043C12.8553 7.41215 12.7869 4.65825 14.4471 3.01762C15.7166 1.74809 17.699 1.47465 19.3299 2.30473L20.2869 1.3477C18.0603 0.0488707 15.2967 0.341839 13.5388 2.10942C11.3806 4.25786 11.449 7.82231 13.6756 10.0586ZM16.6346 5.67387L18.0799 7.10942C18.8025 7.83207 19.7303 7.85161 20.4138 7.15825L22.4646 5.0977L21.6053 4.24809L19.74 6.09379C19.4763 6.35746 19.1443 6.377 18.8611 6.09379L17.6697 4.89262C17.3865 4.59965 17.3572 4.25786 17.6209 3.99418L19.5056 2.12895L18.617 1.26957L16.5857 3.31059C15.8631 4.02348 15.8826 4.94145 16.6346 5.67387ZM4.31033 20.6641C4.97439 20.6641 5.52127 20.1172 5.52127 19.4532C5.52127 18.7891 4.97439 18.252 4.31033 18.252C3.64627 18.252 3.10916 18.7891 3.10916 19.4532C3.10916 20.1172 3.64627 20.6641 4.31033 20.6641Z" fill="#000000" fill-opacity="0.85"/>
 </g>
</svg>
