<?xml version="1.0" encoding="UTF-8"?>
<!--Generator: Apple Native CoreSVG 175.5-->
<!DOCTYPE svg
PUBLIC "-//W3C//DTD SVG 1.1//EN"
       "http://www.w3.org/Graphics/SVG/1.1/DTD/svg11.dtd">
<svg version="1.1" xmlns="http://www.w3.org/2000/svg" xmlns:xlink="http://www.w3.org/1999/xlink" width="17.7734" height="17.7832">
 <g>
  <rect height="17.7832" opacity="0" width="17.7734" x="0" y="0"/>
  <path d="M16.6309 1.15234C15.6348 0.15625 14.2285 0 12.5586 0L5.18555 0C3.54492 0 2.13867 0.15625 1.14258 1.15234C0.146484 2.14844 0 3.54492 0 5.17578L0 12.5586C0 14.2285 0.146484 15.6152 1.14258 16.6113C2.13867 17.6074 3.54492 17.7637 5.20508 17.7637L12.5586 17.7637C14.2285 17.7637 15.6348 17.6074 16.6309 16.6113C17.627 15.6152 17.7734 14.2285 17.7734 12.5586L17.7734 5.20508C17.7734 3.53516 17.627 2.13867 16.6309 1.15234Z" fill="#000000" fill-opacity="0.85"/>
  <path d="M5.60547 12.9883C5.16602 12.9883 4.80469 12.627 4.80469 12.1777C4.80469 11.9629 4.88281 11.7578 5.03906 11.6113L7.75391 8.89648L5.03906 6.19141C4.88281 6.03516 4.80469 5.83984 4.80469 5.625C4.80469 5.16602 5.16602 4.82422 5.60547 4.82422C5.83008 4.82422 6.01562 4.90234 6.16211 5.04883L8.88672 7.76367L11.6309 5.03906C11.7969 4.87305 11.9824 4.80469 12.1973 4.80469C12.6367 4.80469 12.998 5.15625 12.998 5.60547C12.998 5.83008 12.9297 6.00586 12.7637 6.18164L10.0391 8.89648L12.7539 11.6016C12.9102 11.748 12.9883 11.9531 12.9883 12.1777C12.9883 12.627 12.627 12.9883 12.1777 12.9883C11.9531 12.9883 11.7383 12.9102 11.5918 12.7539L8.88672 10.0391L6.19141 12.7539C6.04492 12.9102 5.83008 12.9883 5.60547 12.9883Z" fill="#ffffff"/>
 </g>
</svg>
