<?xml version="1.0" encoding="UTF-8"?>
<!--Generator: Apple Native CoreSVG 175.5-->
<!DOCTYPE svg
PUBLIC "-//W3C//DTD SVG 1.1//EN"
       "http://www.w3.org/Graphics/SVG/1.1/DTD/svg11.dtd">
<svg version="1.1" xmlns="http://www.w3.org/2000/svg" xmlns:xlink="http://www.w3.org/1999/xlink" width="22.1473" height="22.1608">
 <g>
  <rect height="22.1608" opacity="0" width="22.1473" x="0" y="0"/>
  <path d="M1.09505 13.2337L8.91731 21.056C10.3626 22.5013 11.7884 22.5111 13.224 21.0853L21.0853 13.2142C22.5111 11.7884 22.5013 10.3529 21.056 8.90755L13.2435 1.09505C11.7982-0.350264 10.3724-0.369795 8.93685 1.06575L1.06575 8.92708C-0.369795 10.3626-0.350264 11.7884 1.09505 13.2337Z" fill="#000000" fill-opacity="0.85"/>
  <path d="M7.7845 15.1771C7.34505 15.1771 6.98372 14.8158 6.98372 14.3665C6.98372 14.1517 7.07161 13.9466 7.2181 13.8001L9.93294 11.0853L7.2181 8.3802C7.07161 8.22395 6.98372 8.02864 6.98372 7.8138C6.98372 7.35481 7.34505 7.01302 7.7845 7.01302C8.01888 7.01302 8.19466 7.09114 8.35091 7.23763L11.0755 9.95247L13.8197 7.22786C13.9857 7.06185 14.1615 6.99349 14.3763 6.99349C14.8255 6.99349 15.1771 7.34505 15.1771 7.79427C15.1771 8.01888 15.1185 8.19466 14.9427 8.37044L12.2279 11.0853L14.9329 13.7904C15.099 13.9368 15.1673 14.1419 15.1673 14.3665C15.1673 14.8158 14.8158 15.1771 14.3568 15.1771C14.1322 15.1771 13.9271 15.099 13.7806 14.9427L11.0755 12.2279L8.3802 14.9427C8.22395 15.099 8.01888 15.1771 7.7845 15.1771Z" fill="#ffffff"/>
 </g>
</svg>
