<?xml version="1.0" encoding="UTF-8"?>
<!--Generator: Apple Native CoreSVG 175.5-->
<!DOCTYPE svg
PUBLIC "-//W3C//DTD SVG 1.1//EN"
       "http://www.w3.org/Graphics/SVG/1.1/DTD/svg11.dtd">
<svg version="1.1" xmlns="http://www.w3.org/2000/svg" xmlns:xlink="http://www.w3.org/1999/xlink" width="23.0273" height="16.6895">
 <g>
  <rect height="16.6895" opacity="0" width="23.0273" x="0" y="0"/>
  <path d="M3.96484 14.1797C4.25781 14.1797 4.52148 13.9551 4.52148 13.6523L4.52148 9.49219C4.52148 9.19922 4.25781 8.95508 3.96484 8.95508C3.66211 8.95508 3.42773 9.19922 3.42773 9.49219L3.42773 13.6523C3.42773 13.9551 3.66211 14.1797 3.96484 14.1797ZM6.25977 14.1797C6.5625 14.1797 6.81641 13.9551 6.81641 13.6523L6.81641 9.49219C6.81641 9.19922 6.5625 8.95508 6.25977 8.95508C5.95703 8.95508 5.73242 9.19922 5.73242 9.49219L5.73242 13.6523C5.73242 13.9551 5.95703 14.1797 6.25977 14.1797ZM8.55469 14.1797C8.85742 14.1797 9.11133 13.9551 9.11133 13.6523L9.11133 9.49219C9.11133 9.19922 8.85742 8.95508 8.55469 8.95508C8.25195 8.95508 8.02734 9.19922 8.02734 9.49219L8.02734 13.6523C8.02734 13.9551 8.25195 14.1797 8.55469 14.1797ZM11.5332 14.2383C11.9238 14.2285 12.2656 13.916 12.2656 13.4961C12.2656 13.0957 11.9238 12.7637 11.5332 12.7637C11.1133 12.7637 10.7812 13.0957 10.7812 13.4961C10.7812 13.916 11.1133 14.2285 11.5332 14.2383ZM11.5332 12.3047C11.9238 12.2949 12.2656 11.9824 12.2656 11.5625C12.2656 11.1621 11.9238 10.8203 11.5332 10.8203C11.1133 10.8203 10.7812 11.1621 10.7812 11.5625C10.7812 11.9824 11.1133 12.2949 11.5332 12.3047ZM11.5332 10.3613C11.9238 10.3516 12.2656 10.0293 12.2656 9.60938C12.2656 9.21875 11.9238 8.87695 11.5332 8.87695C11.1133 8.87695 10.7812 9.21875 10.7812 9.60938C10.7812 10.0391 11.1133 10.3516 11.5332 10.3613ZM14.375 14.1797C14.6777 14.1797 14.9316 13.9551 14.9316 13.6523L14.9316 9.49219C14.9316 9.19922 14.6777 8.95508 14.375 8.95508C14.0723 8.95508 13.8477 9.19922 13.8477 9.49219L13.8477 13.6523C13.8477 13.9551 14.0723 14.1797 14.375 14.1797ZM16.6699 14.1797C16.9727 14.1797 17.2363 13.9551 17.2363 13.6523L17.2363 9.49219C17.2363 9.19922 16.9727 8.95508 16.6699 8.95508C16.377 8.95508 16.1426 9.19922 16.1426 9.49219L16.1426 13.6523C16.1426 13.9551 16.377 14.1797 16.6699 14.1797ZM18.9746 14.1797C19.2676 14.1797 19.5312 13.9551 19.5312 13.6523L19.5312 9.49219C19.5312 9.19922 19.2676 8.95508 18.9746 8.95508C18.6719 8.95508 18.4375 9.19922 18.4375 9.49219L18.4375 13.6523C18.4375 13.9551 18.6719 14.1797 18.9746 14.1797ZM3.06641 16.6895L19.9609 16.6895C22.002 16.6895 23.0273 15.6836 23.0273 13.6621L23.0273 7.77344C23.0273 6.43555 22.7148 5.57617 21.9043 4.76562L18.6621 1.41602C17.7148 0.439453 16.9141 0.0195312 15.6152 0.0195312L7.41211 0.0195312C6.12305 0.0195312 5.3125 0.439453 4.375 1.41602L1.12305 4.76562C0.322266 5.57617 0 6.43555 0 7.77344L0 13.6621C0 15.6836 1.02539 16.6895 3.06641 16.6895ZM3.08594 15.1172C2.10938 15.1172 1.57227 14.5996 1.57227 13.584L1.57227 8.91602C1.57227 8.30078 1.8457 8.01758 2.44141 8.01758L20.5859 8.01758C21.1816 8.01758 21.4551 8.30078 21.4551 8.91602L21.4551 13.584C21.4551 14.5996 20.918 15.1172 19.9414 15.1172ZM2.30469 6.60156C1.96289 6.60156 1.86523 6.28906 2.07031 6.07422L5.6543 2.28516C6.25977 1.64062 6.68945 1.43555 7.49023 1.43555L15.5371 1.43555C16.3379 1.43555 16.7773 1.64062 17.373 2.28516L20.9668 6.07422C21.1621 6.28906 21.0742 6.60156 20.7227 6.60156Z" fill="#000000" fill-opacity="0.85"/>
 </g>
</svg>
