<?xml version="1.0" encoding="UTF-8"?>
<!--Generator: Apple Native CoreSVG 175.5-->
<!DOCTYPE svg
PUBLIC "-//W3C//DTD SVG 1.1//EN"
       "http://www.w3.org/Graphics/SVG/1.1/DTD/svg11.dtd">
<svg version="1.1" xmlns="http://www.w3.org/2000/svg" xmlns:xlink="http://www.w3.org/1999/xlink" width="19.9219" height="19.9316">
 <g>
  <rect height="19.9316" opacity="0" width="19.9219" x="0" y="0"/>
  <path d="M9.96094 19.9219C15.4102 19.9219 19.9219 15.4004 19.9219 9.96094C19.9219 4.51172 15.4004 0 9.95117 0C4.51172 0 0 4.51172 0 9.96094C0 15.4004 4.52148 19.9219 9.96094 19.9219Z" fill="#000000" fill-opacity="0.85"/>
  <path d="M9.96094 15.0586C9.58984 15.0586 9.33594 14.7852 9.33594 14.375L9.33594 12.9297L7.49023 12.9297C7.20703 12.9297 7.00195 12.7148 7.00195 12.4316C7.00195 12.1484 7.19727 11.9336 7.49023 11.9336L9.33594 11.9336L9.33594 11.1621L7.49023 11.1621C7.20703 11.1621 7.00195 10.9473 7.00195 10.6641C7.00195 10.3711 7.19727 10.1562 7.49023 10.1562L8.86719 10.1562L6.41602 6.21094C6.32812 6.06445 6.28906 5.94727 6.28906 5.79102C6.28906 5.45898 6.5625 5.19531 6.92383 5.19531C7.17773 5.19531 7.36328 5.29297 7.50977 5.52734L9.9707 9.67773L12.4316 5.53711C12.5684 5.3125 12.7637 5.20508 13.0078 5.20508C13.3691 5.20508 13.6426 5.46875 13.6426 5.80078C13.6426 5.95703 13.6133 6.07422 13.5156 6.2207L11.0742 10.1562L12.4707 10.1562C12.7637 10.1562 12.9688 10.3711 12.9688 10.6641C12.9688 10.9473 12.7637 11.1621 12.4707 11.1621L10.6055 11.1621L10.6055 11.9336L12.4707 11.9336C12.7637 11.9336 12.9688 12.1484 12.9688 12.4316C12.9688 12.7148 12.7637 12.9297 12.4707 12.9297L10.6055 12.9297L10.6055 14.3848C10.6055 14.7949 10.3418 15.0586 9.96094 15.0586Z" fill="#ffffff"/>
 </g>
</svg>
