<?xml version="1.0" encoding="UTF-8"?>
<!--Generator: Apple Native CoreSVG 175.5-->
<!DOCTYPE svg
PUBLIC "-//W3C//DTD SVG 1.1//EN"
       "http://www.w3.org/Graphics/SVG/1.1/DTD/svg11.dtd">
<svg version="1.1" xmlns="http://www.w3.org/2000/svg" xmlns:xlink="http://www.w3.org/1999/xlink" width="17.9785" height="17.998">
 <g>
  <rect height="17.998" opacity="0" width="17.9785" x="0" y="0"/>
  <path d="M3.06641 17.998L14.9121 17.998C16.9629 17.998 17.9785 16.9824 17.9785 14.9707L17.9785 3.04688C17.9785 1.03516 16.9629 0.0195312 14.9121 0.0195312L3.06641 0.0195312C1.02539 0.0195312 0 1.02539 0 3.04688L0 14.9707C0 16.9922 1.02539 17.998 3.06641 17.998Z" fill="#000000" fill-opacity="0.85"/>
  <path d="M9.00391 14.0918C8.63281 14.0918 8.36914 13.8184 8.36914 13.4082L8.36914 11.9629L6.52344 11.9629C6.24023 11.9629 6.03516 11.748 6.03516 11.4648C6.03516 11.1816 6.23047 10.9668 6.52344 10.9668L8.36914 10.9668L8.36914 10.1953L6.52344 10.1953C6.24023 10.1953 6.03516 9.98047 6.03516 9.69727C6.03516 9.4043 6.23047 9.18945 6.52344 9.18945L7.90039 9.18945L5.44922 5.24414C5.36133 5.09766 5.32227 4.98047 5.32227 4.82422C5.32227 4.49219 5.60547 4.22852 5.9668 4.22852C6.21094 4.22852 6.39648 4.32617 6.54297 4.56055L9.00391 8.71094L11.4648 4.57031C11.6113 4.3457 11.7969 4.23828 12.041 4.23828C12.4023 4.23828 12.6855 4.50195 12.6855 4.83398C12.6855 4.99023 12.6465 5.10742 12.5488 5.25391L10.1074 9.18945L11.5137 9.18945C11.8066 9.18945 12.002 9.4043 12.002 9.69727C12.002 9.98047 11.8066 10.1953 11.5137 10.1953L9.63867 10.1953L9.63867 10.9668L11.5137 10.9668C11.8066 10.9668 12.002 11.1816 12.002 11.4648C12.002 11.748 11.8066 11.9629 11.5137 11.9629L9.63867 11.9629L9.63867 13.418C9.63867 13.8281 9.375 14.0918 9.00391 14.0918Z" fill="#ffffff"/>
 </g>
</svg>
