<?xml version="1.0" encoding="UTF-8"?>
<!--Generator: Apple Native CoreSVG 175.5-->
<!DOCTYPE svg
PUBLIC "-//W3C//DTD SVG 1.1//EN"
       "http://www.w3.org/Graphics/SVG/1.1/DTD/svg11.dtd">
<svg version="1.1" xmlns="http://www.w3.org/2000/svg" xmlns:xlink="http://www.w3.org/1999/xlink" width="16.5332" height="20.4395">
 <g>
  <rect height="20.4395" opacity="0" width="16.5332" x="0" y="0"/>
  <path d="M3.83789 20.4199L7.79297 20.4199C8.20312 20.4199 8.44727 20.1953 8.44727 19.8047C8.44727 19.4238 8.20312 19.209 7.79297 19.209L4.69727 19.209L4.69727 19.1699L7.93945 15.2148C8.25195 14.834 8.34961 14.5996 8.34961 14.3262C8.34961 13.8477 8.03711 13.584 7.50977 13.584L3.59375 13.584C3.17383 13.584 2.93945 13.8184 2.93945 14.1992C2.93945 14.5898 3.17383 14.8047 3.59375 14.8047L6.72852 14.8047L6.72852 14.8438L3.33984 18.9453C3.0957 19.2383 3.02734 19.3945 3.02734 19.6777C3.02734 20.1074 3.33984 20.4199 3.83789 20.4199ZM10.8887 15L15.8203 15C16.2695 15 16.5332 14.7559 16.5332 14.3359C16.5332 13.9258 16.2695 13.6914 15.8203 13.6914L11.8066 13.6914L11.8066 13.6523L15.9863 8.61328C16.3184 8.21289 16.4258 7.98828 16.4258 7.71484C16.4258 7.1875 16.084 6.86523 15.459 6.86523L10.6543 6.86523C10.2051 6.86523 9.95117 7.10938 9.95117 7.51953C9.95117 7.93945 10.2051 8.17383 10.6543 8.17383L14.6582 8.17383L14.6582 8.21289L10.3613 13.4082C10.1074 13.7109 10.0098 13.9062 10.0098 14.1797C10.0098 14.668 10.3516 15 10.8887 15ZM0.966797 9.74609L7.17773 9.74609C7.64648 9.74609 7.91016 9.49219 7.91016 9.05273C7.91016 8.63281 7.64648 8.38867 7.17773 8.38867L1.96289 8.38867L1.96289 8.34961L7.43164 1.75781C7.74414 1.37695 7.82227 1.16211 7.82227 0.869141C7.82227 0.332031 7.45117 0 6.80664 0L0.732422 0C0.273438 0 0 0.244141 0 0.673828C0 1.10352 0.273438 1.35742 0.732422 1.35742L5.94727 1.35742L5.94727 1.38672L0.351562 8.1543C0.126953 8.41797 0.0683594 8.61328 0.0683594 8.89648C0.0683594 9.4043 0.419922 9.74609 0.966797 9.74609Z" fill="#000000" fill-opacity="0.85"/>
 </g>
</svg>
