<?xml version="1.0" encoding="UTF-8"?>
<!--Generator: Apple Native CoreSVG 175.5-->
<!DOCTYPE svg
PUBLIC "-//W3C//DTD SVG 1.1//EN"
       "http://www.w3.org/Graphics/SVG/1.1/DTD/svg11.dtd">
<svg version="1.1" xmlns="http://www.w3.org/2000/svg" xmlns:xlink="http://www.w3.org/1999/xlink" width="19.9219" height="19.9316">
 <g>
  <rect height="19.9316" opacity="0" width="19.9219" x="0" y="0"/>
  <path d="M9.96094 19.9219C15.4102 19.9219 19.9219 15.4004 19.9219 9.96094C19.9219 4.51172 15.4004 0 9.95117 0C4.51172 0 0 4.51172 0 9.96094C0 15.4004 4.52148 19.9219 9.96094 19.9219Z" fill="#000000" fill-opacity="0.85"/>
  <path d="M6.45508 14.3066C4.72656 14.3066 3.57422 12.6465 3.57422 9.96094C3.57422 7.27539 4.72656 5.61523 6.45508 5.61523C8.19336 5.61523 9.33594 7.27539 9.33594 9.96094C9.33594 12.6465 8.19336 14.3066 6.45508 14.3066ZM6.45508 13.0762C7.43164 13.0762 8.00781 11.8945 8.00781 9.96094C8.00781 8.02734 7.42188 6.8457 6.45508 6.8457C5.49805 6.8457 4.90234 8.02734 4.90234 9.96094C4.90234 11.8945 5.49805 13.0762 6.45508 13.0762ZM13.457 14.3066C11.7188 14.3066 10.5762 12.6465 10.5762 9.96094C10.5762 7.27539 11.7188 5.61523 13.457 5.61523C15.1855 5.61523 16.3379 7.27539 16.3379 9.96094C16.3379 12.6465 15.1855 14.3066 13.457 14.3066ZM13.457 13.0762C14.4336 13.0762 15.0098 11.8945 15.0098 9.96094C15.0098 8.02734 14.4238 6.8457 13.457 6.8457C12.5 6.8457 11.9043 8.02734 11.9043 9.96094C11.9043 11.8945 12.5 13.0762 13.457 13.0762Z" fill="#ffffff"/>
 </g>
</svg>
