<?xml version="1.0" encoding="UTF-8"?>
<!--Generator: Apple Native CoreSVG 175.5-->
<!DOCTYPE svg
PUBLIC "-//W3C//DTD SVG 1.1//EN"
       "http://www.w3.org/Graphics/SVG/1.1/DTD/svg11.dtd">
<svg version="1.1" xmlns="http://www.w3.org/2000/svg" xmlns:xlink="http://www.w3.org/1999/xlink" width="17.9785" height="17.998">
 <g>
  <rect height="17.998" opacity="0" width="17.9785" x="0" y="0"/>
  <path d="M3.06641 17.998L14.9121 17.998C16.9629 17.998 17.9785 16.9824 17.9785 14.9707L17.9785 3.04688C17.9785 1.03516 16.9629 0.0195312 14.9121 0.0195312L3.06641 0.0195312C1.02539 0.0195312 0 1.02539 0 3.04688L0 14.9707C0 16.9922 1.02539 17.998 3.06641 17.998Z" fill="#000000" fill-opacity="0.85"/>
  <path d="M5.48828 13.3398C3.75977 13.3398 2.60742 11.6797 2.60742 8.99414C2.60742 6.30859 3.75977 4.64844 5.48828 4.64844C7.23633 4.64844 8.36914 6.30859 8.36914 8.99414C8.36914 11.6797 7.23633 13.3398 5.48828 13.3398ZM5.48828 12.1094C6.46484 12.1094 7.04102 10.9277 7.04102 8.99414C7.04102 7.06055 6.45508 5.87891 5.48828 5.87891C4.53125 5.87891 3.94531 7.06055 3.94531 8.99414C3.94531 10.9277 4.53125 12.1094 5.48828 12.1094ZM12.4902 13.3398C10.752 13.3398 9.60938 11.6797 9.60938 8.99414C9.60938 6.30859 10.752 4.64844 12.4902 4.64844C14.2285 4.64844 15.3711 6.30859 15.3711 8.99414C15.3711 11.6797 14.2285 13.3398 12.4902 13.3398ZM12.4902 12.1094C13.4668 12.1094 14.043 10.9277 14.043 8.99414C14.043 7.06055 13.457 5.87891 12.4902 5.87891C11.5332 5.87891 10.9473 7.06055 10.9473 8.99414C10.9473 10.9277 11.5332 12.1094 12.4902 12.1094Z" fill="#ffffff"/>
 </g>
</svg>
