<?xml version="1.0" encoding="UTF-8"?>
<!--Generator: Apple Native CoreSVG 175.5-->
<!DOCTYPE svg
PUBLIC "-//W3C//DTD SVG 1.1//EN"
       "http://www.w3.org/Graphics/SVG/1.1/DTD/svg11.dtd">
<svg version="1.1" xmlns="http://www.w3.org/2000/svg" xmlns:xlink="http://www.w3.org/1999/xlink" width="17.9785" height="17.998">
 <g>
  <rect height="17.998" opacity="0" width="17.9785" x="0" y="0"/>
  <path d="M3.06641 17.998L14.9121 17.998C16.9629 17.998 17.9785 16.9824 17.9785 14.9707L17.9785 3.04688C17.9785 1.03516 16.9629 0.0195312 14.9121 0.0195312L3.06641 0.0195312C1.02539 0.0195312 0 1.02539 0 3.04688L0 14.9707C0 16.9922 1.02539 17.998 3.06641 17.998ZM3.08594 16.4258C2.10938 16.4258 1.57227 15.9082 1.57227 14.8926L1.57227 3.125C1.57227 2.10938 2.10938 1.5918 3.08594 1.5918L14.8926 1.5918C15.8594 1.5918 16.4062 2.10938 16.4062 3.125L16.4062 14.8926C16.4062 15.9082 15.8594 16.4258 14.8926 16.4258Z" fill="#000000" fill-opacity="0.85"/>
  <path d="M5.5957 13.2031C7.28516 13.2031 8.38867 11.5918 8.38867 8.99414C8.38867 6.39648 7.28516 4.78516 5.5957 4.78516C3.91602 4.78516 2.80273 6.39648 2.80273 8.99414C2.80273 11.5918 3.91602 13.2031 5.5957 13.2031ZM5.5957 12.0215C4.66797 12.0215 4.0918 10.8691 4.0918 8.99414C4.0918 7.11914 4.66797 5.9668 5.5957 5.9668C6.5332 5.9668 7.10938 7.11914 7.10938 8.99414C7.10938 10.8691 6.54297 12.0215 5.5957 12.0215ZM12.3828 13.2031C14.0723 13.2031 15.1758 11.5918 15.1758 8.99414C15.1758 6.39648 14.0723 4.78516 12.3828 4.78516C10.7031 4.78516 9.58984 6.39648 9.58984 8.99414C9.58984 11.5918 10.7031 13.2031 12.3828 13.2031ZM12.3828 12.0215C11.4551 12.0215 10.8789 10.8691 10.8789 8.99414C10.8789 7.11914 11.4551 5.9668 12.3828 5.9668C13.3203 5.9668 13.8965 7.11914 13.8965 8.99414C13.8965 10.8691 13.3301 12.0215 12.3828 12.0215Z" fill="#000000" fill-opacity="0.85"/>
 </g>
</svg>
