<?xml version="1.0" encoding="UTF-8"?>
<!--Generator: Apple Native CoreSVG 175.5-->
<!DOCTYPE svg
PUBLIC "-//W3C//DTD SVG 1.1//EN"
       "http://www.w3.org/Graphics/SVG/1.1/DTD/svg11.dtd">
<svg version="1.1" xmlns="http://www.w3.org/2000/svg" xmlns:xlink="http://www.w3.org/1999/xlink" width="19.9219" height="19.9316">
 <g>
  <rect height="19.9316" opacity="0" width="19.9219" x="0" y="0"/>
  <path d="M9.96094 19.9219C15.4102 19.9219 19.9219 15.4004 19.9219 9.96094C19.9219 4.51172 15.4004 0 9.95117 0C4.51172 0 0 4.51172 0 9.96094C0 15.4004 4.52148 19.9219 9.96094 19.9219Z" fill="#000000" fill-opacity="0.85"/>
  <path d="M7.28516 14.3066C5.54688 14.3066 4.39453 12.6465 4.39453 9.96094C4.39453 7.27539 5.54688 5.61523 7.28516 5.61523C9.02344 5.61523 10.166 7.27539 10.166 9.96094C10.166 12.6465 9.02344 14.3066 7.28516 14.3066ZM7.28516 13.0762C8.25195 13.0762 8.83789 11.8945 8.83789 9.96094C8.83789 8.02734 8.24219 6.8457 7.28516 6.8457C6.32812 6.8457 5.73242 8.02734 5.73242 9.96094C5.73242 11.8945 6.32812 13.0762 7.28516 13.0762ZM14.2773 14.1797C13.9062 14.1797 13.6523 13.9258 13.6523 13.5352L13.6523 7.28516L13.6035 7.28516L12.5293 8.07617C12.2949 8.26172 12.1973 8.27148 12.0312 8.27148C11.7383 8.27148 11.4551 8.00781 11.4551 7.66602C11.4551 7.40234 11.582 7.2168 11.7969 7.07031L13.3301 6.02539C13.6816 5.78125 13.877 5.68359 14.209 5.68359C14.6387 5.68359 14.9219 5.98633 14.9219 6.40625L14.9219 13.5352C14.9219 13.9258 14.6777 14.1797 14.2773 14.1797Z" fill="#ffffff"/>
 </g>
</svg>
