<?xml version="1.0" encoding="UTF-8"?>
<!--Generator: Apple Native CoreSVG 175.5-->
<!DOCTYPE svg
PUBLIC "-//W3C//DTD SVG 1.1//EN"
       "http://www.w3.org/Graphics/SVG/1.1/DTD/svg11.dtd">
<svg version="1.1" xmlns="http://www.w3.org/2000/svg" xmlns:xlink="http://www.w3.org/1999/xlink" width="17.9785" height="17.998">
 <g>
  <rect height="17.998" opacity="0" width="17.9785" x="0" y="0"/>
  <path d="M3.06641 17.998L14.9121 17.998C16.9629 17.998 17.9785 16.9824 17.9785 14.9707L17.9785 3.04688C17.9785 1.03516 16.9629 0.0195312 14.9121 0.0195312L3.06641 0.0195312C1.02539 0.0195312 0 1.02539 0 3.04688L0 14.9707C0 16.9922 1.02539 17.998 3.06641 17.998Z" fill="#000000" fill-opacity="0.85"/>
  <path d="M6.31836 13.3398C4.58008 13.3398 3.4375 11.6797 3.4375 8.99414C3.4375 6.30859 4.58008 4.64844 6.31836 4.64844C8.05664 4.64844 9.19922 6.30859 9.19922 8.99414C9.19922 11.6797 8.05664 13.3398 6.31836 13.3398ZM6.31836 12.1094C7.28516 12.1094 7.87109 10.9277 7.87109 8.99414C7.87109 7.06055 7.27539 5.87891 6.31836 5.87891C5.36133 5.87891 4.76562 7.06055 4.76562 8.99414C4.76562 10.9277 5.36133 12.1094 6.31836 12.1094ZM13.3105 13.2129C12.9395 13.2129 12.6953 12.959 12.6953 12.5684L12.6953 6.31836L12.6367 6.31836L11.5625 7.10938C11.3281 7.29492 11.2305 7.30469 11.0645 7.30469C10.7715 7.30469 10.4883 7.04102 10.4883 6.69922C10.4883 6.43555 10.625 6.25 10.8301 6.10352L12.3633 5.05859C12.7148 4.81445 12.9199 4.7168 13.2422 4.7168C13.6719 4.7168 13.9648 5.01953 13.9648 5.43945L13.9648 12.5684C13.9648 12.959 13.7109 13.2129 13.3105 13.2129Z" fill="#ffffff"/>
 </g>
</svg>
