<?xml version="1.0" encoding="UTF-8"?>
<!--Generator: Apple Native CoreSVG 175.5-->
<!DOCTYPE svg
PUBLIC "-//W3C//DTD SVG 1.1//EN"
       "http://www.w3.org/Graphics/SVG/1.1/DTD/svg11.dtd">
<svg version="1.1" xmlns="http://www.w3.org/2000/svg" xmlns:xlink="http://www.w3.org/1999/xlink" width="17.9785" height="17.998">
 <g>
  <rect height="17.998" opacity="0" width="17.9785" x="0" y="0"/>
  <path d="M3.06641 17.998L14.9121 17.998C16.9629 17.998 17.9785 16.9824 17.9785 14.9707L17.9785 3.04688C17.9785 1.03516 16.9629 0.0195312 14.9121 0.0195312L3.06641 0.0195312C1.02539 0.0195312 0 1.02539 0 3.04688L0 14.9707C0 16.9922 1.02539 17.998 3.06641 17.998ZM3.08594 16.4258C2.10938 16.4258 1.57227 15.9082 1.57227 14.8926L1.57227 3.125C1.57227 2.10938 2.10938 1.5918 3.08594 1.5918L14.8926 1.5918C15.8594 1.5918 16.4062 2.10938 16.4062 3.125L16.4062 14.8926C16.4062 15.9082 15.8594 16.4258 14.8926 16.4258Z" fill="#000000" fill-opacity="0.85"/>
  <path d="M5.81055 13.2031C7.49023 13.2031 8.60352 11.5918 8.60352 8.99414C8.60352 6.39648 7.49023 4.78516 5.81055 4.78516C4.13086 4.78516 3.01758 6.39648 3.01758 8.99414C3.01758 11.5918 4.13086 13.2031 5.81055 13.2031ZM5.81055 12.0215C4.88281 12.0215 4.29688 10.8691 4.29688 8.99414C4.29688 7.11914 4.88281 5.9668 5.81055 5.9668C6.73828 5.9668 7.32422 7.11914 7.32422 8.99414C7.32422 10.8691 6.74805 12.0215 5.81055 12.0215ZM10.3516 12.9785L14.3945 12.9785C14.707 12.9785 14.9414 12.7441 14.9414 12.3926C14.9414 12.0312 14.707 11.8262 14.3945 11.8262L11.5527 11.8262L11.5527 11.7578L13.4668 9.53125C14.1895 8.69141 14.7266 7.98828 14.7266 7.01172C14.7266 5.6543 13.7402 4.78516 12.207 4.78516C11.0449 4.78516 10.0098 5.52734 9.75586 6.52344C9.73633 6.65039 9.70703 6.75781 9.70703 6.875C9.70703 7.22656 9.91211 7.46094 10.2539 7.46094C10.5371 7.46094 10.6836 7.29492 10.8105 7.00195C11.0547 6.26953 11.5527 5.9082 12.2559 5.9082C13.0371 5.9082 13.5547 6.39648 13.5547 7.11914C13.5547 7.75391 13.0371 8.30078 12.5781 8.84766L10 11.875C9.84375 12.041 9.78516 12.207 9.78516 12.4023C9.78516 12.7539 10.0098 12.9785 10.3516 12.9785Z" fill="#000000" fill-opacity="0.85"/>
 </g>
</svg>
