<?xml version="1.0" encoding="UTF-8"?>
<!--Generator: Apple Native CoreSVG 175.5-->
<!DOCTYPE svg
PUBLIC "-//W3C//DTD SVG 1.1//EN"
       "http://www.w3.org/Graphics/SVG/1.1/DTD/svg11.dtd">
<svg version="1.1" xmlns="http://www.w3.org/2000/svg" xmlns:xlink="http://www.w3.org/1999/xlink" width="17.9785" height="17.998">
 <g>
  <rect height="17.998" opacity="0" width="17.9785" x="0" y="0"/>
  <path d="M3.06641 17.998L14.9121 17.998C16.9629 17.998 17.9785 16.9824 17.9785 14.9707L17.9785 3.04688C17.9785 1.03516 16.9629 0.0195312 14.9121 0.0195312L3.06641 0.0195312C1.02539 0.0195312 0 1.02539 0 3.04688L0 14.9707C0 16.9922 1.02539 17.998 3.06641 17.998Z" fill="#000000" fill-opacity="0.85"/>
  <path d="M5.71289 13.3398C3.97461 13.3398 2.83203 11.6797 2.83203 8.99414C2.83203 6.30859 3.97461 4.64844 5.71289 4.64844C7.44141 4.64844 8.59375 6.30859 8.59375 8.99414C8.59375 11.6797 7.44141 13.3398 5.71289 13.3398ZM5.71289 12.1094C6.67969 12.1094 7.26562 10.9277 7.26562 8.99414C7.26562 7.06055 6.66992 5.87891 5.71289 5.87891C4.75586 5.87891 4.16016 7.06055 4.16016 8.99414C4.16016 10.9277 4.75586 12.1094 5.71289 12.1094ZM10.3906 13.1055C10.0391 13.1055 9.80469 12.8711 9.80469 12.5098C9.80469 12.3047 9.86328 12.1289 10.0293 11.9629L12.6855 8.83789C13.1543 8.28125 13.6914 7.71484 13.6914 7.06055C13.6914 6.31836 13.1641 5.82031 12.3535 5.82031C11.6309 5.82031 11.123 6.18164 10.8691 6.94336C10.7422 7.24609 10.5859 7.41211 10.293 7.41211C9.94141 7.41211 9.72656 7.16797 9.72656 6.80664C9.72656 6.68945 9.75586 6.57227 9.77539 6.44531C10.0391 5.41992 11.1133 4.64844 12.3047 4.64844C13.8867 4.64844 14.9023 5.54688 14.9023 6.95312C14.9023 7.95898 14.3555 8.68164 13.6035 9.55078L11.6406 11.8359L11.6406 11.9141L14.5605 11.9141C14.8828 11.9141 15.127 12.1191 15.127 12.5C15.127 12.8613 14.8828 13.1055 14.5605 13.1055Z" fill="#ffffff"/>
 </g>
</svg>
