<?xml version="1.0" encoding="UTF-8"?>
<!--Generator: Apple Native CoreSVG 175.5-->
<!DOCTYPE svg
PUBLIC "-//W3C//DTD SVG 1.1//EN"
       "http://www.w3.org/Graphics/SVG/1.1/DTD/svg11.dtd">
<svg version="1.1" xmlns="http://www.w3.org/2000/svg" xmlns:xlink="http://www.w3.org/1999/xlink" width="19.9219" height="19.9512">
 <g>
  <rect height="19.9512" opacity="0" width="19.9219" x="0" y="0"/>
  <path d="M9.96094 19.9219C15.4102 19.9219 19.9219 15.4004 19.9219 9.96094C19.9219 4.51172 15.4004 0 9.95117 0C4.51172 0 0 4.51172 0 9.96094C0 15.4004 4.52148 19.9219 9.96094 19.9219Z" fill="#000000" fill-opacity="0.85"/>
  <path d="M6.57227 14.3066C4.84375 14.3066 3.69141 12.6465 3.69141 9.96094C3.69141 7.26562 4.84375 5.61523 6.57227 5.61523C8.31055 5.61523 9.45312 7.26562 9.45312 9.96094C9.45312 12.6465 8.31055 14.3066 6.57227 14.3066ZM6.57227 13.0762C7.53906 13.0762 8.13477 11.8848 8.13477 9.96094C8.13477 8.02734 7.5293 6.8457 6.57227 6.8457C5.625 6.8457 5.01953 8.02734 5.01953 9.96094C5.01953 11.8848 5.625 13.0762 6.57227 13.0762ZM13.3496 14.3066C11.9824 14.3066 10.918 13.4668 10.6445 12.5293C10.6152 12.4121 10.5957 12.3047 10.5957 12.168C10.5957 11.8164 10.8398 11.5625 11.1816 11.5625C11.4648 11.5625 11.6309 11.7188 11.7578 12.0312C12.0312 12.7441 12.5684 13.1348 13.3594 13.1348C14.3262 13.1348 15 12.5488 15 11.7676C15 10.9473 14.3848 10.4102 13.4375 10.4102L12.8418 10.4102C12.5098 10.4102 12.2949 10.1562 12.2949 9.83398C12.2949 9.46289 12.5195 9.22852 12.8418 9.22852L13.3789 9.22852C14.1895 9.22852 14.7461 8.70117 14.7461 7.96875C14.7461 7.26562 14.1895 6.78711 13.3984 6.78711C12.6074 6.78711 12.1289 7.16797 11.9043 7.88086C11.8066 8.20312 11.6406 8.35938 11.3379 8.35938C10.9961 8.35938 10.7617 8.10547 10.7617 7.74414C10.7617 7.61719 10.7617 7.50977 10.791 7.38281C11.0547 6.39648 12.0605 5.61523 13.4277 5.61523C14.9219 5.61523 15.9961 6.51367 15.9961 7.80273C15.9961 8.75 15.3418 9.58984 14.502 9.72656L14.502 9.78516C15.5176 9.89258 16.2695 10.7422 16.2695 11.8262C16.2695 13.2715 15.0684 14.3066 13.3496 14.3066Z" fill="#ffffff"/>
 </g>
</svg>
