<?xml version="1.0" encoding="UTF-8"?>
<!--Generator: Apple Native CoreSVG 175.5-->
<!DOCTYPE svg
PUBLIC "-//W3C//DTD SVG 1.1//EN"
       "http://www.w3.org/Graphics/SVG/1.1/DTD/svg11.dtd">
<svg version="1.1" xmlns="http://www.w3.org/2000/svg" xmlns:xlink="http://www.w3.org/1999/xlink" width="19.9219" height="19.9316">
 <g>
  <rect height="19.9316" opacity="0" width="19.9219" x="0" y="0"/>
  <path d="M9.96094 19.9219C15.4102 19.9219 19.9219 15.4004 19.9219 9.96094C19.9219 4.51172 15.4004 0 9.95117 0C4.51172 0 0 4.51172 0 9.96094C0 15.4004 4.52148 19.9219 9.96094 19.9219ZM9.96094 18.2617C5.35156 18.2617 1.66992 14.5703 1.66992 9.96094C1.66992 5.35156 5.3418 1.66016 9.95117 1.66016C14.5605 1.66016 18.2617 5.35156 18.2617 9.96094C18.2617 14.5703 14.5703 18.2617 9.96094 18.2617Z" fill="#000000" fill-opacity="0.85"/>
  <path d="M6.66992 14.1699C8.34961 14.1699 9.46289 12.5586 9.46289 9.96094C9.46289 7.36328 8.34961 5.75195 6.66992 5.75195C4.99023 5.75195 3.87695 7.36328 3.87695 9.96094C3.87695 12.5586 4.99023 14.1699 6.66992 14.1699ZM6.66992 12.9883C5.74219 12.9883 5.15625 11.8359 5.15625 9.96094C5.15625 8.08594 5.74219 6.93359 6.66992 6.93359C7.59766 6.93359 8.18359 8.08594 8.18359 9.96094C8.18359 11.8359 7.60742 12.9883 6.66992 12.9883ZM13.2422 14.1699C14.9023 14.1699 16.0645 13.1738 16.0645 11.7676C16.0645 10.7324 15.3418 9.89258 14.3555 9.79492L14.3555 9.73633C15.166 9.59961 15.8008 8.78906 15.8008 7.87109C15.8008 6.62109 14.7656 5.75195 13.3105 5.75195C11.9922 5.75195 11.0156 6.50391 10.7617 7.46094C10.7324 7.58789 10.7324 7.68555 10.7324 7.8125C10.7324 8.16406 10.957 8.4082 11.2891 8.4082C11.582 8.4082 11.7383 8.25195 11.8359 7.93945C12.0508 7.25586 12.5195 6.875 13.2812 6.875C14.0527 6.875 14.5996 7.34375 14.5996 8.02734C14.5996 8.74023 14.0527 9.25781 13.2715 9.25781L12.7441 9.25781C12.4316 9.25781 12.2168 9.48242 12.2168 9.83398C12.2168 10.1465 12.4219 10.3906 12.7441 10.3906L13.3203 10.3906C14.248 10.3906 14.8438 10.918 14.8438 11.709C14.8438 12.4707 14.1895 13.0469 13.252 13.0469C12.4805 13.0469 11.9531 12.666 11.6895 11.9824C11.5723 11.6699 11.4062 11.5137 11.1328 11.5137C10.8008 11.5137 10.5664 11.7578 10.5664 12.0996C10.5664 12.2363 10.5859 12.334 10.6152 12.4609C10.8789 13.3594 11.9141 14.1699 13.2422 14.1699Z" fill="#000000" fill-opacity="0.85"/>
 </g>
</svg>
