<?xml version="1.0" encoding="UTF-8"?>
<!--Generator: Apple Native CoreSVG 175.5-->
<!DOCTYPE svg
PUBLIC "-//W3C//DTD SVG 1.1//EN"
       "http://www.w3.org/Graphics/SVG/1.1/DTD/svg11.dtd">
<svg version="1.1" xmlns="http://www.w3.org/2000/svg" xmlns:xlink="http://www.w3.org/1999/xlink" width="17.9785" height="17.998">
 <g>
  <rect height="17.998" opacity="0" width="17.9785" x="0" y="0"/>
  <path d="M3.06641 17.998L14.9121 17.998C16.9629 17.998 17.9785 16.9824 17.9785 14.9707L17.9785 3.04688C17.9785 1.03516 16.9629 0.0195312 14.9121 0.0195312L3.06641 0.0195312C1.02539 0.0195312 0 1.02539 0 3.04688L0 14.9707C0 16.9922 1.02539 17.998 3.06641 17.998Z" fill="#000000" fill-opacity="0.85"/>
  <path d="M5.60547 13.3398C3.87695 13.3398 2.72461 11.6797 2.72461 8.99414C2.72461 6.30859 3.87695 4.64844 5.60547 4.64844C7.34375 4.64844 8.48633 6.30859 8.48633 8.99414C8.48633 11.6797 7.34375 13.3398 5.60547 13.3398ZM5.60547 12.1094C6.57227 12.1094 7.16797 10.9277 7.16797 8.99414C7.16797 7.06055 6.5625 5.87891 5.60547 5.87891C4.6582 5.87891 4.05273 7.06055 4.05273 8.99414C4.05273 10.9277 4.6582 12.1094 5.60547 12.1094ZM12.3828 13.3398C11.0156 13.3398 9.95117 12.5 9.6875 11.5723C9.64844 11.4453 9.62891 11.3379 9.62891 11.2012C9.62891 10.8496 9.88281 10.5957 10.2148 10.5957C10.498 10.5957 10.6641 10.752 10.791 11.0742C11.0645 11.7773 11.6016 12.168 12.3926 12.168C13.3594 12.168 14.0332 11.582 14.0332 10.8008C14.0332 9.98047 13.418 9.44336 12.4707 9.44336L11.875 9.44336C11.5527 9.44336 11.3281 9.18945 11.3281 8.86719C11.3281 8.49609 11.5527 8.26172 11.875 8.26172L12.4121 8.26172C13.2227 8.26172 13.7793 7.73438 13.7793 7.00195C13.7793 6.29883 13.2324 5.82031 12.4316 5.82031C11.6406 5.82031 11.1621 6.21094 10.9375 6.91406C10.8398 7.23633 10.6738 7.39258 10.3711 7.39258C10.0293 7.39258 9.79492 7.13867 9.79492 6.77734C9.79492 6.65039 9.79492 6.54297 9.82422 6.41602C10.0879 5.42969 11.0938 4.64844 12.4609 4.64844C13.9648 4.64844 15.0293 5.54688 15.0293 6.83594C15.0293 7.7832 14.375 8.62305 13.5352 8.75977L13.5352 8.81836C14.5508 8.92578 15.3027 9.78516 15.3027 10.8594C15.3027 12.3047 14.1016 13.3398 12.3828 13.3398Z" fill="#ffffff"/>
 </g>
</svg>
