<?xml version="1.0" encoding="UTF-8"?>
<!--Generator: Apple Native CoreSVG 175.5-->
<!DOCTYPE svg
PUBLIC "-//W3C//DTD SVG 1.1//EN"
       "http://www.w3.org/Graphics/SVG/1.1/DTD/svg11.dtd">
<svg version="1.1" xmlns="http://www.w3.org/2000/svg" xmlns:xlink="http://www.w3.org/1999/xlink" width="17.9785" height="17.998">
 <g>
  <rect height="17.998" opacity="0" width="17.9785" x="0" y="0"/>
  <path d="M3.06641 17.998L14.9121 17.998C16.9629 17.998 17.9785 16.9824 17.9785 14.9707L17.9785 3.04688C17.9785 1.03516 16.9629 0.0195312 14.9121 0.0195312L3.06641 0.0195312C1.02539 0.0195312 0 1.02539 0 3.04688L0 14.9707C0 16.9922 1.02539 17.998 3.06641 17.998ZM3.08594 16.4258C2.10938 16.4258 1.57227 15.9082 1.57227 14.8926L1.57227 3.125C1.57227 2.10938 2.10938 1.5918 3.08594 1.5918L14.8926 1.5918C15.8594 1.5918 16.4062 2.10938 16.4062 3.125L16.4062 14.8926C16.4062 15.9082 15.8594 16.4258 14.8926 16.4258Z" fill="#000000" fill-opacity="0.85"/>
  <path d="M5.63477 13.2031C7.31445 13.2031 8.42773 11.5918 8.42773 8.99414C8.42773 6.39648 7.31445 4.78516 5.63477 4.78516C3.95508 4.78516 2.8418 6.39648 2.8418 8.99414C2.8418 11.5918 3.95508 13.2031 5.63477 13.2031ZM5.63477 12.0215C4.70703 12.0215 4.12109 10.8691 4.12109 8.99414C4.12109 7.11914 4.70703 5.9668 5.63477 5.9668C6.5625 5.9668 7.14844 7.11914 7.14844 8.99414C7.14844 10.8691 6.57227 12.0215 5.63477 12.0215ZM13.7012 13.1836C14.0918 13.1836 14.2969 12.9102 14.2969 12.5293L14.2969 11.377L14.8242 11.377C15.166 11.377 15.3809 11.1816 15.3809 10.8398C15.3809 10.4883 15.166 10.2832 14.8242 10.2832L14.2969 10.2832L14.2969 5.71289C14.2969 5.14648 13.9062 4.78516 13.3301 4.78516C12.7637 4.78516 12.4219 5 12.0996 5.53711C11.2891 6.9043 10.3027 8.58398 9.64844 9.76562C9.48242 10.0684 9.43359 10.2832 9.43359 10.5469C9.43359 11.0645 9.76562 11.377 10.2637 11.377L13.1152 11.377L13.1152 12.5293C13.1152 12.9004 13.3203 13.1836 13.7012 13.1836ZM13.1152 10.2832L10.7031 10.2832L10.7031 10.2441C11.2793 9.14062 12.2852 7.42188 13.0664 6.10352L13.1152 6.10352Z" fill="#000000" fill-opacity="0.85"/>
 </g>
</svg>
