<?xml version="1.0" encoding="UTF-8"?>
<!--Generator: Apple Native CoreSVG 175.5-->
<!DOCTYPE svg
PUBLIC "-//W3C//DTD SVG 1.1//EN"
       "http://www.w3.org/Graphics/SVG/1.1/DTD/svg11.dtd">
<svg version="1.1" xmlns="http://www.w3.org/2000/svg" xmlns:xlink="http://www.w3.org/1999/xlink" width="19.9219" height="19.9316">
 <g>
  <rect height="19.9316" opacity="0" width="19.9219" x="0" y="0"/>
  <path d="M9.96094 19.9219C15.4102 19.9219 19.9219 15.4004 19.9219 9.96094C19.9219 4.51172 15.4004 0 9.95117 0C4.51172 0 0 4.51172 0 9.96094C0 15.4004 4.52148 19.9219 9.96094 19.9219ZM9.96094 18.2617C5.35156 18.2617 1.66992 14.5703 1.66992 9.96094C1.66992 5.35156 5.3418 1.66016 9.95117 1.66016C14.5605 1.66016 18.2617 5.35156 18.2617 9.96094C18.2617 14.5703 14.5703 18.2617 9.96094 18.2617Z" fill="#000000" fill-opacity="0.85"/>
  <path d="M6.65039 14.1699C8.33008 14.1699 9.44336 12.5586 9.44336 9.96094C9.44336 7.36328 8.33008 5.75195 6.65039 5.75195C4.9707 5.75195 3.85742 7.36328 3.85742 9.96094C3.85742 12.5586 4.9707 14.1699 6.65039 14.1699ZM6.65039 12.9883C5.72266 12.9883 5.13672 11.8359 5.13672 9.96094C5.13672 8.08594 5.72266 6.93359 6.65039 6.93359C7.57812 6.93359 8.16406 8.08594 8.16406 9.96094C8.16406 11.8359 7.58789 12.9883 6.65039 12.9883ZM13.2715 14.1699C14.9902 14.1699 16.1328 13.1152 16.1328 11.3965C16.1328 9.89258 15.1172 8.79883 13.6035 8.79883C12.9492 8.79883 12.2559 9.12109 11.9629 9.56055L11.9238 9.56055L12.0996 7.05078L15.332 7.05078C15.6055 7.05078 15.8203 6.82617 15.8203 6.50391C15.8203 6.19141 15.6152 5.95703 15.332 5.95703L11.9824 5.95703C11.4648 5.95703 11.123 6.26953 11.0938 6.78711L10.8496 9.83398C10.8203 10.3418 11.0938 10.6738 11.543 10.6738C11.8359 10.6738 12.0215 10.5957 12.334 10.3418C12.7344 9.99023 13.0469 9.84375 13.4766 9.84375C14.3359 9.84375 14.9219 10.5273 14.9219 11.4258C14.9219 12.4512 14.2773 13.0664 13.3301 13.0664C12.666 13.0664 12.0898 12.7148 11.8164 12.1289C11.6699 11.8457 11.4746 11.709 11.25 11.709C10.9277 11.709 10.7031 11.9531 10.7031 12.2754C10.7031 12.4316 10.7324 12.5781 10.791 12.7148C11.0742 13.5254 12.041 14.1699 13.2715 14.1699Z" fill="#000000" fill-opacity="0.85"/>
 </g>
</svg>
