<?xml version="1.0" encoding="UTF-8"?>
<!--Generator: Apple Native CoreSVG 175.5-->
<!DOCTYPE svg
PUBLIC "-//W3C//DTD SVG 1.1//EN"
       "http://www.w3.org/Graphics/SVG/1.1/DTD/svg11.dtd">
<svg version="1.1" xmlns="http://www.w3.org/2000/svg" xmlns:xlink="http://www.w3.org/1999/xlink" width="17.9785" height="17.998">
 <g>
  <rect height="17.998" opacity="0" width="17.9785" x="0" y="0"/>
  <path d="M3.06641 17.998L14.9121 17.998C16.9629 17.998 17.9785 16.9824 17.9785 14.9707L17.9785 3.04688C17.9785 1.03516 16.9629 0.0195312 14.9121 0.0195312L3.06641 0.0195312C1.02539 0.0195312 0 1.02539 0 3.04688L0 14.9707C0 16.9922 1.02539 17.998 3.06641 17.998ZM3.08594 16.4258C2.10938 16.4258 1.57227 15.9082 1.57227 14.8926L1.57227 3.125C1.57227 2.10938 2.10938 1.5918 3.08594 1.5918L14.8926 1.5918C15.8594 1.5918 16.4062 2.10938 16.4062 3.125L16.4062 14.8926C16.4062 15.9082 15.8594 16.4258 14.8926 16.4258Z" fill="#000000" fill-opacity="0.85"/>
  <path d="M5.69336 13.2031C7.37305 13.2031 8.48633 11.5918 8.48633 8.99414C8.48633 6.39648 7.37305 4.78516 5.69336 4.78516C4.01367 4.78516 2.90039 6.39648 2.90039 8.99414C2.90039 11.5918 4.01367 13.2031 5.69336 13.2031ZM5.69336 12.0215C4.76562 12.0215 4.17969 10.8691 4.17969 8.99414C4.17969 7.11914 4.76562 5.9668 5.69336 5.9668C6.63086 5.9668 7.20703 7.11914 7.20703 8.99414C7.20703 10.8691 6.64062 12.0215 5.69336 12.0215ZM12.3145 13.2031C14.0332 13.2031 15.1758 12.1484 15.1758 10.4297C15.1758 8.92578 14.1602 7.83203 12.6465 7.83203C12.002 7.83203 11.2988 8.1543 11.0059 8.59375L10.9668 8.59375L11.1523 6.08398L14.375 6.08398C14.6582 6.08398 14.8633 5.85938 14.8633 5.53711C14.8633 5.22461 14.668 4.99023 14.375 4.99023L11.0254 4.99023C10.5078 4.99023 10.166 5.30273 10.1367 5.82031L9.89258 8.86719C9.86328 9.375 10.1367 9.70703 10.5859 9.70703C10.8887 9.70703 11.0645 9.62891 11.377 9.375C11.7773 9.02344 12.0898 8.87695 12.5195 8.87695C13.3789 8.87695 13.9648 9.56055 13.9648 10.459C13.9648 11.4844 13.3203 12.0996 12.373 12.0996C11.709 12.0996 11.1426 11.748 10.8594 11.1621C10.7129 10.8789 10.5176 10.7422 10.293 10.7422C9.9707 10.7422 9.74609 10.9863 9.74609 11.3086C9.74609 11.4648 9.77539 11.6113 9.83398 11.748C10.127 12.5586 11.084 13.2031 12.3145 13.2031Z" fill="#000000" fill-opacity="0.85"/>
 </g>
</svg>
