<?xml version="1.0" encoding="UTF-8"?>
<!--Generator: Apple Native CoreSVG 175.5-->
<!DOCTYPE svg
PUBLIC "-//W3C//DTD SVG 1.1//EN"
       "http://www.w3.org/Graphics/SVG/1.1/DTD/svg11.dtd">
<svg version="1.1" xmlns="http://www.w3.org/2000/svg" xmlns:xlink="http://www.w3.org/1999/xlink" width="19.9219" height="19.9316">
 <g>
  <rect height="19.9316" opacity="0" width="19.9219" x="0" y="0"/>
  <path d="M9.96094 19.9219C15.4102 19.9219 19.9219 15.4004 19.9219 9.96094C19.9219 4.51172 15.4004 0 9.95117 0C4.51172 0 0 4.51172 0 9.96094C0 15.4004 4.52148 19.9219 9.96094 19.9219Z" fill="#000000" fill-opacity="0.85"/>
  <path d="M6.82617 14.3066C5.08789 14.3066 3.94531 12.6465 3.94531 9.96094C3.94531 7.27539 5.08789 5.61523 6.82617 5.61523C8.55469 5.61523 9.70703 7.27539 9.70703 9.96094C9.70703 12.6465 8.55469 14.3066 6.82617 14.3066ZM6.82617 13.0762C7.79297 13.0762 8.37891 11.8945 8.37891 9.96094C8.37891 8.02734 7.77344 6.8457 6.82617 6.8457C5.86914 6.8457 5.27344 8.02734 5.27344 9.96094C5.27344 11.8945 5.86914 13.0762 6.82617 13.0762ZM12.207 14.1895C11.8164 14.1895 11.5234 13.916 11.5234 13.5352C11.5234 13.3398 11.5527 13.2227 11.6406 13.0664L14.7559 7.03125L14.7559 6.95312L11.2305 6.95312C10.8691 6.95312 10.6445 6.72852 10.6445 6.39648C10.6445 6.05469 10.8691 5.82031 11.2305 5.82031L15.2832 5.82031C15.8301 5.82031 16.1816 6.21094 16.1816 6.69922C16.1816 6.91406 16.1426 7.09961 15.9863 7.42188L12.8516 13.6914C12.666 14.043 12.4805 14.1895 12.207 14.1895Z" fill="#ffffff"/>
 </g>
</svg>
