<?xml version="1.0" encoding="UTF-8"?>
<!--Generator: Apple Native CoreSVG 175.5-->
<!DOCTYPE svg
PUBLIC "-//W3C//DTD SVG 1.1//EN"
       "http://www.w3.org/Graphics/SVG/1.1/DTD/svg11.dtd">
<svg version="1.1" xmlns="http://www.w3.org/2000/svg" xmlns:xlink="http://www.w3.org/1999/xlink" width="19.9219" height="19.9316">
 <g>
  <rect height="19.9316" opacity="0" width="19.9219" x="0" y="0"/>
  <path d="M9.96094 19.9219C15.4102 19.9219 19.9219 15.4004 19.9219 9.96094C19.9219 4.51172 15.4004 0 9.95117 0C4.51172 0 0 4.51172 0 9.96094C0 15.4004 4.52148 19.9219 9.96094 19.9219ZM9.96094 18.2617C5.35156 18.2617 1.66992 14.5703 1.66992 9.96094C1.66992 5.35156 5.3418 1.66016 9.95117 1.66016C14.5605 1.66016 18.2617 5.35156 18.2617 9.96094C18.2617 14.5703 14.5703 18.2617 9.96094 18.2617Z" fill="#000000" fill-opacity="0.85"/>
  <path d="M6.68945 14.1699C8.36914 14.1699 9.48242 12.5586 9.48242 9.96094C9.48242 7.36328 8.36914 5.75195 6.68945 5.75195C5.00977 5.75195 3.89648 7.36328 3.89648 9.96094C3.89648 12.5586 5.00977 14.1699 6.68945 14.1699ZM6.68945 12.9883C5.76172 12.9883 5.17578 11.8359 5.17578 9.96094C5.17578 8.08594 5.76172 6.93359 6.68945 6.93359C7.61719 6.93359 8.20312 8.08594 8.20312 9.96094C8.20312 11.8359 7.62695 12.9883 6.68945 12.9883ZM13.3301 14.1699C15.0293 14.1699 16.1914 13.1934 16.1914 11.7773C16.1914 10.7812 15.5859 9.9707 14.5312 9.75586L14.5312 9.69727C15.4297 9.45312 15.9082 8.75 15.9082 7.90039C15.9082 6.63086 14.8535 5.75195 13.3496 5.75195C11.8555 5.75195 10.8008 6.63086 10.8008 7.90039C10.8008 8.75 11.2695 9.43359 12.1777 9.69727L12.1777 9.75586C11.1133 9.9707 10.5176 10.791 10.5176 11.7871C10.5176 13.2129 11.6406 14.1699 13.3301 14.1699ZM13.3594 13.1543C12.4316 13.1543 11.7578 12.5586 11.7578 11.6992C11.7578 10.8594 12.4316 10.2441 13.3594 10.2441C14.3066 10.2441 14.9609 10.8496 14.9609 11.6992C14.9609 12.5586 14.2871 13.1543 13.3594 13.1543ZM13.3496 9.30664C12.5879 9.30664 12.0508 8.75977 12.0508 8.01758C12.0508 7.27539 12.5879 6.76758 13.3496 6.76758C14.1211 6.76758 14.6582 7.27539 14.6582 8.01758C14.6582 8.75977 14.1211 9.30664 13.3496 9.30664Z" fill="#000000" fill-opacity="0.85"/>
 </g>
</svg>
