<?xml version="1.0" encoding="UTF-8"?>
<!--Generator: Apple Native CoreSVG 175.5-->
<!DOCTYPE svg
PUBLIC "-//W3C//DTD SVG 1.1//EN"
       "http://www.w3.org/Graphics/SVG/1.1/DTD/svg11.dtd">
<svg version="1.1" xmlns="http://www.w3.org/2000/svg" xmlns:xlink="http://www.w3.org/1999/xlink" width="17.9785" height="17.998">
 <g>
  <rect height="17.998" opacity="0" width="17.9785" x="0" y="0"/>
  <path d="M3.06641 17.998L14.9121 17.998C16.9629 17.998 17.9785 16.9824 17.9785 14.9707L17.9785 3.04688C17.9785 1.03516 16.9629 0.0195312 14.9121 0.0195312L3.06641 0.0195312C1.02539 0.0195312 0 1.02539 0 3.04688L0 14.9707C0 16.9922 1.02539 17.998 3.06641 17.998ZM3.08594 16.4258C2.10938 16.4258 1.57227 15.9082 1.57227 14.8926L1.57227 3.125C1.57227 2.10938 2.10938 1.5918 3.08594 1.5918L14.8926 1.5918C15.8594 1.5918 16.4062 2.10938 16.4062 3.125L16.4062 14.8926C16.4062 15.9082 15.8594 16.4258 14.8926 16.4258Z" fill="#000000" fill-opacity="0.85"/>
  <path d="M5.73242 13.2031C7.41211 13.2031 8.52539 11.5918 8.52539 8.99414C8.52539 6.39648 7.41211 4.78516 5.73242 4.78516C4.05273 4.78516 2.93945 6.39648 2.93945 8.99414C2.93945 11.5918 4.05273 13.2031 5.73242 13.2031ZM5.73242 12.0215C4.80469 12.0215 4.21875 10.8691 4.21875 8.99414C4.21875 7.11914 4.80469 5.9668 5.73242 5.9668C6.66016 5.9668 7.24609 7.11914 7.24609 8.99414C7.24609 10.8691 6.66992 12.0215 5.73242 12.0215ZM12.3828 13.2031C14.0723 13.2031 15.2344 12.2266 15.2344 10.8105C15.2344 9.81445 14.6289 9.00391 13.5742 8.78906L13.5742 8.73047C14.4727 8.48633 14.9512 7.7832 14.9512 6.93359C14.9512 5.66406 13.8965 4.78516 12.4023 4.78516C10.8984 4.78516 9.84375 5.66406 9.84375 6.93359C9.84375 7.7832 10.3125 8.4668 11.2207 8.73047L11.2207 8.78906C10.166 9.00391 9.56055 9.82422 9.56055 10.8203C9.56055 12.2461 10.6934 13.2031 12.3828 13.2031ZM12.4121 12.1875C11.4746 12.1875 10.8008 11.5918 10.8008 10.7324C10.8008 9.89258 11.4746 9.27734 12.4121 9.27734C13.3496 9.27734 14.0039 9.88281 14.0039 10.7324C14.0039 11.5918 13.3301 12.1875 12.4121 12.1875ZM12.4023 8.33984C11.6309 8.33984 11.0938 7.79297 11.0938 7.05078C11.0938 6.30859 11.6309 5.80078 12.4023 5.80078C13.1641 5.80078 13.7012 6.30859 13.7012 7.05078C13.7012 7.79297 13.1641 8.33984 12.4023 8.33984Z" fill="#000000" fill-opacity="0.85"/>
 </g>
</svg>
