<?xml version="1.0" encoding="UTF-8"?>
<!--Generator: Apple Native CoreSVG 175.5-->
<!DOCTYPE svg
PUBLIC "-//W3C//DTD SVG 1.1//EN"
       "http://www.w3.org/Graphics/SVG/1.1/DTD/svg11.dtd">
<svg version="1.1" xmlns="http://www.w3.org/2000/svg" xmlns:xlink="http://www.w3.org/1999/xlink" width="19.9219" height="19.9316">
 <g>
  <rect height="19.9316" opacity="0" width="19.9219" x="0" y="0"/>
  <path d="M9.96094 19.9219C15.4102 19.9219 19.9219 15.4004 19.9219 9.96094C19.9219 4.51172 15.4004 0 9.95117 0C4.51172 0 0 4.51172 0 9.96094C0 15.4004 4.52148 19.9219 9.96094 19.9219Z" fill="#000000" fill-opacity="0.85"/>
  <path d="M6.60156 14.3066C4.87305 14.3066 3.7207 12.6465 3.7207 9.96094C3.7207 7.27539 4.87305 5.61523 6.60156 5.61523C8.33984 5.61523 9.48242 7.27539 9.48242 9.96094C9.48242 12.6465 8.33984 14.3066 6.60156 14.3066ZM6.60156 13.0762C7.56836 13.0762 8.1543 11.8945 8.1543 9.96094C8.1543 8.02734 7.55859 6.8457 6.60156 6.8457C5.6543 6.8457 5.04883 8.02734 5.04883 9.96094C5.04883 11.8945 5.6543 13.0762 6.60156 13.0762ZM13.2715 14.3066C11.875 14.3066 11.0547 13.5156 10.8887 12.959C10.8496 12.8418 10.8203 12.7051 10.8203 12.5977C10.8203 12.2461 11.0449 12.002 11.3574 12.002C11.6211 12.002 11.8164 12.1094 11.9727 12.3926C12.2168 12.8418 12.6758 13.1348 13.252 13.1348C14.4141 13.1348 15.1758 11.9531 15.1562 9.95117L15.0977 9.95117C14.8242 10.6348 14.1797 11.2305 13.0762 11.2305C11.7578 11.2305 10.5859 10.2637 10.5859 8.53516C10.5859 6.75781 11.6895 5.61523 13.3789 5.61523C15.2637 5.61523 16.3672 7.04102 16.3672 9.67773C16.3672 12.7148 15.2734 14.3066 13.2715 14.3066ZM13.457 10.1855C14.3945 10.1855 15.0488 9.47266 15.0488 8.48633C15.0488 7.45117 14.3848 6.71875 13.4668 6.71875C12.4902 6.71875 11.8652 7.41211 11.8652 8.4668C11.8652 9.47266 12.5 10.1855 13.457 10.1855Z" fill="#ffffff"/>
 </g>
</svg>
