<?xml version="1.0" encoding="UTF-8"?>
<!--Generator: Apple Native CoreSVG 175.5-->
<!DOCTYPE svg
PUBLIC "-//W3C//DTD SVG 1.1//EN"
       "http://www.w3.org/Graphics/SVG/1.1/DTD/svg11.dtd">
<svg version="1.1" xmlns="http://www.w3.org/2000/svg" xmlns:xlink="http://www.w3.org/1999/xlink" width="19.9219" height="19.9316">
 <g>
  <rect height="19.9316" opacity="0" width="19.9219" x="0" y="0"/>
  <path d="M9.96094 19.9219C15.4102 19.9219 19.9219 15.4004 19.9219 9.96094C19.9219 4.51172 15.4004 0 9.95117 0C4.51172 0 0 4.51172 0 9.96094C0 15.4004 4.52148 19.9219 9.96094 19.9219ZM9.96094 18.2617C5.35156 18.2617 1.66992 14.5703 1.66992 9.96094C1.66992 5.35156 5.3418 1.66016 9.95117 1.66016C14.5605 1.66016 18.2617 5.35156 18.2617 9.96094C18.2617 14.5703 14.5703 18.2617 9.96094 18.2617Z" fill="#000000" fill-opacity="0.85"/>
  <path d="M6.69922 14.1699C8.37891 14.1699 9.49219 12.5586 9.49219 9.96094C9.49219 7.36328 8.37891 5.75195 6.69922 5.75195C5.01953 5.75195 3.90625 7.36328 3.90625 9.96094C3.90625 12.5586 5.01953 14.1699 6.69922 14.1699ZM6.69922 12.9883C5.77148 12.9883 5.18555 11.8359 5.18555 9.96094C5.18555 8.08594 5.77148 6.93359 6.69922 6.93359C7.62695 6.93359 8.21289 8.08594 8.21289 9.96094C8.21289 11.8359 7.63672 12.9883 6.69922 12.9883ZM13.1641 14.1699C15.1074 14.1699 16.1621 12.627 16.1621 9.6875C16.1621 7.12891 15.0977 5.75195 13.2715 5.75195C11.6309 5.75195 10.5566 6.85547 10.5566 8.57422C10.5566 10.2539 11.6992 11.1914 12.9785 11.1914C14.043 11.1914 14.6777 10.6152 14.9414 9.95117L15 9.95117C15.0195 11.8945 14.2773 13.0469 13.1445 13.0469C12.5879 13.0469 12.1387 12.7539 11.9043 12.3242C11.748 12.0508 11.5625 11.9434 11.3086 11.9434C11.0059 11.9434 10.791 12.1777 10.791 12.5195C10.791 12.6172 10.8203 12.7539 10.8594 12.8711C11.0156 13.4082 11.8164 14.1699 13.1641 14.1699ZM13.3398 10.1855C12.4121 10.1855 11.7969 9.49219 11.7969 8.51562C11.7969 7.49023 12.4023 6.81641 13.3496 6.81641C14.248 6.81641 14.8926 7.5293 14.8926 8.53516C14.8926 9.49219 14.2578 10.1855 13.3398 10.1855Z" fill="#000000" fill-opacity="0.85"/>
 </g>
</svg>
