<?xml version="1.0" encoding="UTF-8"?>
<!--Generator: Apple Native CoreSVG 175.5-->
<!DOCTYPE svg
PUBLIC "-//W3C//DTD SVG 1.1//EN"
       "http://www.w3.org/Graphics/SVG/1.1/DTD/svg11.dtd">
<svg version="1.1" xmlns="http://www.w3.org/2000/svg" xmlns:xlink="http://www.w3.org/1999/xlink" width="19.9219" height="19.9316">
 <g>
  <rect height="19.9316" opacity="0" width="19.9219" x="0" y="0"/>
  <path d="M9.96094 19.9219C15.4102 19.9219 19.9219 15.4004 19.9219 9.96094C19.9219 4.51172 15.4004 0 9.95117 0C4.51172 0 0 4.51172 0 9.96094C0 15.4004 4.52148 19.9219 9.96094 19.9219Z" fill="#000000" fill-opacity="0.85"/>
  <path d="M10.4785 14.541C9.98047 14.541 9.6875 14.1992 9.6875 13.6328L9.6875 7.12891L9.60938 7.12891L8.31055 7.97852C8.07617 8.14453 7.97852 8.16406 7.8125 8.16406C7.49023 8.16406 7.24609 7.87109 7.24609 7.55859C7.24609 7.30469 7.34375 7.14844 7.55859 6.99219L9.375 5.76172C9.79492 5.46875 10.0586 5.37109 10.4395 5.37109C10.9863 5.37109 11.2988 5.69336 11.2988 6.2793L11.2988 13.6328C11.2988 14.1992 11.0059 14.541 10.4785 14.541Z" fill="#ffffff"/>
 </g>
</svg>
