<?xml version="1.0" encoding="UTF-8"?>
<!--Generator: Apple Native CoreSVG 175.5-->
<!DOCTYPE svg
PUBLIC "-//W3C//DTD SVG 1.1//EN"
       "http://www.w3.org/Graphics/SVG/1.1/DTD/svg11.dtd">
<svg version="1.1" xmlns="http://www.w3.org/2000/svg" xmlns:xlink="http://www.w3.org/1999/xlink" width="19.9219" height="19.9316">
 <g>
  <rect height="19.9316" opacity="0" width="19.9219" x="0" y="0"/>
  <path d="M9.96094 19.9219C15.4102 19.9219 19.9219 15.4004 19.9219 9.96094C19.9219 4.51172 15.4004 0 9.95117 0C4.51172 0 0 4.51172 0 9.96094C0 15.4004 4.52148 19.9219 9.96094 19.9219ZM9.96094 18.2617C5.35156 18.2617 1.66992 14.5703 1.66992 9.96094C1.66992 5.35156 5.3418 1.66016 9.95117 1.66016C14.5605 1.66016 18.2617 5.35156 18.2617 9.96094C18.2617 14.5703 14.5703 18.2617 9.96094 18.2617Z" fill="#000000" fill-opacity="0.85"/>
  <path d="M7.31445 14.0527C7.69531 14.0527 7.93945 13.8086 7.93945 13.4277L7.93945 6.51367C7.93945 6.10352 7.65625 5.81055 7.24609 5.81055C6.93359 5.81055 6.73828 5.9082 6.39648 6.14258L4.91211 7.1582C4.70703 7.30469 4.58008 7.48047 4.58008 7.73438C4.58008 8.06641 4.85352 8.32031 5.13672 8.32031C5.29297 8.32031 5.39062 8.31055 5.61523 8.13477L6.66016 7.36328L6.71875 7.36328L6.71875 13.4277C6.71875 13.8086 6.95312 14.0527 7.31445 14.0527ZM12.4902 14.1699C14.1699 14.1699 15.2832 12.5586 15.2832 9.96094C15.2832 7.36328 14.1699 5.75195 12.4902 5.75195C10.8105 5.75195 9.69727 7.36328 9.69727 9.96094C9.69727 12.5586 10.8105 14.1699 12.4902 14.1699ZM12.4902 12.9883C11.5625 12.9883 10.9766 11.8359 10.9766 9.96094C10.9766 8.08594 11.5625 6.93359 12.4902 6.93359C13.418 6.93359 14.0039 8.08594 14.0039 9.96094C14.0039 11.8359 13.4277 12.9883 12.4902 12.9883Z" fill="#000000" fill-opacity="0.85"/>
 </g>
</svg>
