<?xml version="1.0" encoding="UTF-8"?>
<!--Generator: Apple Native CoreSVG 175.5-->
<!DOCTYPE svg
PUBLIC "-//W3C//DTD SVG 1.1//EN"
       "http://www.w3.org/Graphics/SVG/1.1/DTD/svg11.dtd">
<svg version="1.1" xmlns="http://www.w3.org/2000/svg" xmlns:xlink="http://www.w3.org/1999/xlink" width="19.9219" height="19.9316">
 <g>
  <rect height="19.9316" opacity="0" width="19.9219" x="0" y="0"/>
  <path d="M9.96094 19.9219C15.4102 19.9219 19.9219 15.4004 19.9219 9.96094C19.9219 4.51172 15.4004 0 9.95117 0C4.51172 0 0 4.51172 0 9.96094C0 15.4004 4.52148 19.9219 9.96094 19.9219Z" fill="#000000" fill-opacity="0.85"/>
  <path d="M7.24609 14.1797C6.86523 14.1797 6.62109 13.9258 6.62109 13.5352L6.62109 7.28516L6.5625 7.28516L5.49805 8.07617C5.26367 8.26172 5.15625 8.27148 5 8.27148C4.70703 8.27148 4.42383 8.00781 4.42383 7.66602C4.42383 7.40234 4.55078 7.2168 4.76562 7.07031L6.28906 6.02539C6.65039 5.78125 6.8457 5.68359 7.16797 5.68359C7.59766 5.68359 7.89062 5.98633 7.89062 6.40625L7.89062 13.5352C7.89062 13.9258 7.63672 14.1797 7.24609 14.1797ZM12.5781 14.3066C10.8496 14.3066 9.69727 12.6465 9.69727 9.96094C9.69727 7.27539 10.8496 5.61523 12.5781 5.61523C14.3164 5.61523 15.459 7.27539 15.459 9.96094C15.459 12.6465 14.3164 14.3066 12.5781 14.3066ZM12.5781 13.0762C13.5449 13.0762 14.1406 11.8945 14.1406 9.96094C14.1406 8.02734 13.5352 6.8457 12.5781 6.8457C11.6309 6.8457 11.0254 8.02734 11.0254 9.96094C11.0254 11.8945 11.6309 13.0762 12.5781 13.0762Z" fill="#ffffff"/>
 </g>
</svg>
