<?xml version="1.0" encoding="UTF-8"?>
<!--Generator: Apple Native CoreSVG 175.5-->
<!DOCTYPE svg
PUBLIC "-//W3C//DTD SVG 1.1//EN"
       "http://www.w3.org/Graphics/SVG/1.1/DTD/svg11.dtd">
<svg version="1.1" xmlns="http://www.w3.org/2000/svg" xmlns:xlink="http://www.w3.org/1999/xlink" width="17.9785" height="17.998">
 <g>
  <rect height="17.998" opacity="0" width="17.9785" x="0" y="0"/>
  <path d="M3.06641 17.998L14.9121 17.998C16.9629 17.998 17.9785 16.9824 17.9785 14.9707L17.9785 3.04688C17.9785 1.03516 16.9629 0.0195312 14.9121 0.0195312L3.06641 0.0195312C1.02539 0.0195312 0 1.02539 0 3.04688L0 14.9707C0 16.9922 1.02539 17.998 3.06641 17.998ZM3.08594 16.4258C2.10938 16.4258 1.57227 15.9082 1.57227 14.8926L1.57227 3.125C1.57227 2.10938 2.10938 1.5918 3.08594 1.5918L14.8926 1.5918C15.8594 1.5918 16.4062 2.10938 16.4062 3.125L16.4062 14.8926C16.4062 15.9082 15.8594 16.4258 14.8926 16.4258Z" fill="#000000" fill-opacity="0.85"/>
  <path d="M6.35742 13.0859C6.73828 13.0859 6.98242 12.8418 6.98242 12.4609L6.98242 5.54688C6.98242 5.13672 6.69922 4.84375 6.29883 4.84375C5.97656 4.84375 5.78125 4.94141 5.43945 5.17578L3.95508 6.19141C3.75 6.33789 3.62305 6.51367 3.62305 6.76758C3.62305 7.09961 3.89648 7.35352 4.17969 7.35352C4.3457 7.35352 4.43359 7.34375 4.6582 7.16797L5.70312 6.39648L5.76172 6.39648L5.76172 12.4609C5.76172 12.8418 5.99609 13.0859 6.35742 13.0859ZM11.5332 13.2031C13.2129 13.2031 14.3262 11.5918 14.3262 8.99414C14.3262 6.39648 13.2129 4.78516 11.5332 4.78516C9.85352 4.78516 8.74023 6.39648 8.74023 8.99414C8.74023 11.5918 9.85352 13.2031 11.5332 13.2031ZM11.5332 12.0215C10.6055 12.0215 10.0195 10.8691 10.0195 8.99414C10.0195 7.11914 10.6055 5.9668 11.5332 5.9668C12.4609 5.9668 13.0469 7.11914 13.0469 8.99414C13.0469 10.8691 12.4707 12.0215 11.5332 12.0215Z" fill="#000000" fill-opacity="0.85"/>
 </g>
</svg>
