<?xml version="1.0" encoding="UTF-8"?>
<!--Generator: Apple Native CoreSVG 175.5-->
<!DOCTYPE svg
PUBLIC "-//W3C//DTD SVG 1.1//EN"
       "http://www.w3.org/Graphics/SVG/1.1/DTD/svg11.dtd">
<svg version="1.1" xmlns="http://www.w3.org/2000/svg" xmlns:xlink="http://www.w3.org/1999/xlink" width="19.9219" height="19.9316">
 <g>
  <rect height="19.9316" opacity="0" width="19.9219" x="0" y="0"/>
  <path d="M9.96094 19.9219C15.4102 19.9219 19.9219 15.4004 19.9219 9.96094C19.9219 4.51172 15.4004 0 9.95117 0C4.51172 0 0 4.51172 0 9.96094C0 15.4004 4.52148 19.9219 9.96094 19.9219ZM9.96094 18.2617C5.35156 18.2617 1.66992 14.5703 1.66992 9.96094C1.66992 5.35156 5.3418 1.66016 9.95117 1.66016C14.5605 1.66016 18.2617 5.35156 18.2617 9.96094C18.2617 14.5703 14.5703 18.2617 9.96094 18.2617Z" fill="#000000" fill-opacity="0.85"/>
  <path d="M7.91016 14.0527C8.28125 14.0527 8.52539 13.8086 8.52539 13.4277L8.52539 6.51367C8.52539 6.10352 8.24219 5.81055 7.8418 5.81055C7.51953 5.81055 7.32422 5.9082 6.98242 6.14258L5.49805 7.1582C5.29297 7.30469 5.16602 7.48047 5.16602 7.73438C5.16602 8.06641 5.44922 8.32031 5.73242 8.32031C5.88867 8.32031 5.97656 8.31055 6.20117 8.13477L7.24609 7.36328L7.30469 7.36328L7.30469 13.4277C7.30469 13.8086 7.54883 14.0527 7.91016 14.0527ZM13.0273 14.0527C13.3984 14.0527 13.6426 13.8086 13.6426 13.4277L13.6426 6.51367C13.6426 6.10352 13.3691 5.81055 12.959 5.81055C12.6367 5.81055 12.4512 5.9082 12.0996 6.14258L10.6152 7.1582C10.4102 7.30469 10.293 7.48047 10.293 7.73438C10.293 8.06641 10.5664 8.32031 10.8496 8.32031C11.0059 8.32031 11.1035 8.31055 11.3281 8.13477L12.3633 7.36328L12.4219 7.36328L12.4219 13.4277C12.4219 13.8086 12.666 14.0527 13.0273 14.0527Z" fill="#000000" fill-opacity="0.85"/>
 </g>
</svg>
