<?xml version="1.0" encoding="UTF-8"?>
<!--Generator: Apple Native CoreSVG 175.5-->
<!DOCTYPE svg
PUBLIC "-//W3C//DTD SVG 1.1//EN"
       "http://www.w3.org/Graphics/SVG/1.1/DTD/svg11.dtd">
<svg version="1.1" xmlns="http://www.w3.org/2000/svg" xmlns:xlink="http://www.w3.org/1999/xlink" width="17.9785" height="17.998">
 <g>
  <rect height="17.998" opacity="0" width="17.9785" x="0" y="0"/>
  <path d="M3.06641 17.998L14.9121 17.998C16.9629 17.998 17.9785 16.9824 17.9785 14.9707L17.9785 3.04688C17.9785 1.03516 16.9629 0.0195312 14.9121 0.0195312L3.06641 0.0195312C1.02539 0.0195312 0 1.02539 0 3.04688L0 14.9707C0 16.9922 1.02539 17.998 3.06641 17.998ZM3.08594 16.4258C2.10938 16.4258 1.57227 15.9082 1.57227 14.8926L1.57227 3.125C1.57227 2.10938 2.10938 1.5918 3.08594 1.5918L14.8926 1.5918C15.8594 1.5918 16.4062 2.10938 16.4062 3.125L16.4062 14.8926C16.4062 15.9082 15.8594 16.4258 14.8926 16.4258Z" fill="#000000" fill-opacity="0.85"/>
  <path d="M6.95312 13.0859C7.32422 13.0859 7.56836 12.8418 7.56836 12.4609L7.56836 5.54688C7.56836 5.13672 7.29492 4.84375 6.88477 4.84375C6.5625 4.84375 6.37695 4.94141 6.02539 5.17578L4.54102 6.19141C4.33594 6.33789 4.21875 6.51367 4.21875 6.76758C4.21875 7.09961 4.49219 7.35352 4.77539 7.35352C4.93164 7.35352 5.01953 7.34375 5.25391 7.16797L6.28906 6.39648L6.34766 6.39648L6.34766 12.4609C6.34766 12.8418 6.5918 13.0859 6.95312 13.0859ZM12.0703 13.0859C12.4414 13.0859 12.6855 12.8418 12.6855 12.4609L12.6855 5.54688C12.6855 5.13672 12.4121 4.84375 12.002 4.84375C11.6797 4.84375 11.4941 4.94141 11.1426 5.17578L9.66797 6.19141C9.45312 6.33789 9.33594 6.51367 9.33594 6.76758C9.33594 7.09961 9.60938 7.35352 9.89258 7.35352C10.0488 7.35352 10.1465 7.34375 10.3711 7.16797L11.416 6.39648L11.4648 6.39648L11.4648 12.4609C11.4648 12.8418 11.709 13.0859 12.0703 13.0859Z" fill="#000000" fill-opacity="0.85"/>
 </g>
</svg>
