<?xml version="1.0" encoding="UTF-8"?>
<!--Generator: Apple Native CoreSVG 175.5-->
<!DOCTYPE svg
PUBLIC "-//W3C//DTD SVG 1.1//EN"
       "http://www.w3.org/Graphics/SVG/1.1/DTD/svg11.dtd">
<svg version="1.1" xmlns="http://www.w3.org/2000/svg" xmlns:xlink="http://www.w3.org/1999/xlink" width="17.9785" height="17.998">
 <g>
  <rect height="17.998" opacity="0" width="17.9785" x="0" y="0"/>
  <path d="M3.06641 17.998L14.9121 17.998C16.9629 17.998 17.9785 16.9824 17.9785 14.9707L17.9785 3.04688C17.9785 1.03516 16.9629 0.0195312 14.9121 0.0195312L3.06641 0.0195312C1.02539 0.0195312 0 1.02539 0 3.04688L0 14.9707C0 16.9922 1.02539 17.998 3.06641 17.998ZM3.08594 16.4258C2.10938 16.4258 1.57227 15.9082 1.57227 14.8926L1.57227 3.125C1.57227 2.10938 2.10938 1.5918 3.08594 1.5918L14.8926 1.5918C15.8594 1.5918 16.4062 2.10938 16.4062 3.125L16.4062 14.8926C16.4062 15.9082 15.8594 16.4258 14.8926 16.4258Z" fill="#000000" fill-opacity="0.85"/>
  <path d="M6.34766 13.0859C6.71875 13.0859 6.96289 12.8418 6.96289 12.4609L6.96289 5.54688C6.96289 5.13672 6.68945 4.84375 6.2793 4.84375C5.95703 4.84375 5.77148 4.94141 5.41992 5.17578L3.93555 6.19141C3.73047 6.33789 3.61328 6.51367 3.61328 6.76758C3.61328 7.09961 3.88672 7.35352 4.16992 7.35352C4.32617 7.35352 4.41406 7.34375 4.64844 7.16797L5.68359 6.39648L5.74219 6.39648L5.74219 12.4609C5.74219 12.8418 5.98633 13.0859 6.34766 13.0859ZM9.53125 12.9785L13.5645 12.9785C13.877 12.9785 14.1113 12.7441 14.1113 12.3926C14.1113 12.0312 13.877 11.8262 13.5645 11.8262L10.7227 11.8262L10.7227 11.7578L12.6465 9.53125C13.3691 8.69141 13.9062 7.98828 13.9062 7.01172C13.9062 5.6543 12.9102 4.78516 11.377 4.78516C10.2148 4.78516 9.17969 5.52734 8.92578 6.52344C8.90625 6.65039 8.87695 6.75781 8.87695 6.875C8.87695 7.22656 9.0918 7.46094 9.42383 7.46094C9.70703 7.46094 9.85352 7.29492 9.98047 7.00195C10.2344 6.26953 10.7227 5.9082 11.4258 5.9082C12.2168 5.9082 12.7246 6.39648 12.7246 7.11914C12.7246 7.75391 12.207 8.30078 11.748 8.84766L9.16992 11.875C9.02344 12.041 8.95508 12.207 8.95508 12.4023C8.95508 12.7539 9.17969 12.9785 9.53125 12.9785Z" fill="#000000" fill-opacity="0.85"/>
 </g>
</svg>
