<?xml version="1.0" encoding="UTF-8"?>
<!--Generator: Apple Native CoreSVG 175.5-->
<!DOCTYPE svg
PUBLIC "-//W3C//DTD SVG 1.1//EN"
       "http://www.w3.org/Graphics/SVG/1.1/DTD/svg11.dtd">
<svg version="1.1" xmlns="http://www.w3.org/2000/svg" xmlns:xlink="http://www.w3.org/1999/xlink" width="17.9785" height="17.998">
 <g>
  <rect height="17.998" opacity="0" width="17.9785" x="0" y="0"/>
  <path d="M3.06641 17.998L14.9121 17.998C16.9629 17.998 17.9785 16.9824 17.9785 14.9707L17.9785 3.04688C17.9785 1.03516 16.9629 0.0195312 14.9121 0.0195312L3.06641 0.0195312C1.02539 0.0195312 0 1.02539 0 3.04688L0 14.9707C0 16.9922 1.02539 17.998 3.06641 17.998Z" fill="#000000" fill-opacity="0.85"/>
  <path d="M6.25977 13.2129C5.88867 13.2129 5.63477 12.959 5.63477 12.5684L5.63477 6.31836L5.57617 6.31836L4.50195 7.10938C4.26758 7.29492 4.17969 7.30469 4.01367 7.30469C3.7207 7.30469 3.42773 7.04102 3.42773 6.69922C3.42773 6.43555 3.56445 6.25 3.76953 6.10352L5.30273 5.05859C5.6543 4.81445 5.85938 4.7168 6.19141 4.7168C6.60156 4.7168 6.89453 5.01953 6.89453 5.43945L6.89453 12.5684C6.89453 12.959 6.64062 13.2129 6.25977 13.2129ZM11.3281 13.3398C9.94141 13.3398 8.87695 12.5 8.61328 11.5723C8.57422 11.4453 8.55469 11.3379 8.55469 11.2012C8.55469 10.8496 8.80859 10.5957 9.14062 10.5957C9.43359 10.5957 9.59961 10.752 9.7168 11.0742C9.99023 11.7773 10.5273 12.168 11.3379 12.168C12.2949 12.168 12.959 11.582 12.959 10.8008C12.959 9.98047 12.3535 9.44336 11.3965 9.44336L10.8008 9.44336C10.4785 9.44336 10.2539 9.18945 10.2539 8.86719C10.2539 8.49609 10.4785 8.26172 10.8008 8.26172L11.3477 8.26172C12.1484 8.26172 12.7148 7.73438 12.7148 7.00195C12.7148 6.29883 12.1582 5.82031 11.3574 5.82031C10.5762 5.82031 10.0879 6.21094 9.87305 6.91406C9.76562 7.23633 9.60938 7.39258 9.30664 7.39258C8.95508 7.39258 8.73047 7.13867 8.73047 6.77734C8.73047 6.65039 8.73047 6.54297 8.75977 6.41602C9.01367 5.42969 10.0293 4.64844 11.3867 4.64844C12.9004 4.64844 13.9551 5.54688 13.9551 6.83594C13.9551 7.7832 13.3008 8.62305 12.4707 8.75977L12.4707 8.81836C13.4863 8.92578 14.2285 9.78516 14.2285 10.8594C14.2285 12.3047 13.0273 13.3398 11.3281 13.3398Z" fill="#ffffff"/>
 </g>
</svg>
