<?xml version="1.0" encoding="UTF-8"?>
<!--Generator: Apple Native CoreSVG 175.5-->
<!DOCTYPE svg
PUBLIC "-//W3C//DTD SVG 1.1//EN"
       "http://www.w3.org/Graphics/SVG/1.1/DTD/svg11.dtd">
<svg version="1.1" xmlns="http://www.w3.org/2000/svg" xmlns:xlink="http://www.w3.org/1999/xlink" width="19.9219" height="19.9316">
 <g>
  <rect height="19.9316" opacity="0" width="19.9219" x="0" y="0"/>
  <path d="M9.96094 19.9219C15.4102 19.9219 19.9219 15.4004 19.9219 9.96094C19.9219 4.51172 15.4004 0 9.95117 0C4.51172 0 0 4.51172 0 9.96094C0 15.4004 4.52148 19.9219 9.96094 19.9219ZM9.96094 18.2617C5.35156 18.2617 1.66992 14.5703 1.66992 9.96094C1.66992 5.35156 5.3418 1.66016 9.95117 1.66016C14.5605 1.66016 18.2617 5.35156 18.2617 9.96094C18.2617 14.5703 14.5703 18.2617 9.96094 18.2617Z" fill="#000000" fill-opacity="0.85"/>
  <path d="M7.25586 14.0527C7.63672 14.0527 7.88086 13.8086 7.88086 13.4277L7.88086 6.51367C7.88086 6.10352 7.59766 5.81055 7.1875 5.81055C6.875 5.81055 6.67969 5.9082 6.33789 6.14258L4.85352 7.1582C4.64844 7.30469 4.52148 7.48047 4.52148 7.73438C4.52148 8.06641 4.79492 8.32031 5.07812 8.32031C5.23438 8.32031 5.33203 8.31055 5.55664 8.13477L6.60156 7.36328L6.66016 7.36328L6.66016 13.4277C6.66016 13.8086 6.89453 14.0527 7.25586 14.0527ZM13.6621 14.1504C14.0527 14.1504 14.2578 13.877 14.2578 13.4961L14.2578 12.3438L14.7852 12.3438C15.127 12.3438 15.3418 12.1484 15.3418 11.8066C15.3418 11.4551 15.1172 11.25 14.7852 11.25L14.2578 11.25L14.2578 6.67969C14.2578 6.11328 13.8672 5.75195 13.291 5.75195C12.7246 5.75195 12.3828 5.9668 12.0605 6.50391C11.25 7.87109 10.2637 9.55078 9.59961 10.7324C9.44336 11.0352 9.39453 11.25 9.39453 11.5137C9.39453 12.0312 9.72656 12.3438 10.2246 12.3438L13.0762 12.3438L13.0762 13.4961C13.0762 13.8672 13.2812 14.1504 13.6621 14.1504ZM13.0762 11.25L10.6641 11.25L10.6641 11.2109C11.2402 10.1074 12.2461 8.38867 13.0273 7.07031L13.0762 7.07031Z" fill="#000000" fill-opacity="0.85"/>
 </g>
</svg>
