<?xml version="1.0" encoding="UTF-8"?>
<!--Generator: Apple Native CoreSVG 175.5-->
<!DOCTYPE svg
PUBLIC "-//W3C//DTD SVG 1.1//EN"
       "http://www.w3.org/Graphics/SVG/1.1/DTD/svg11.dtd">
<svg version="1.1" xmlns="http://www.w3.org/2000/svg" xmlns:xlink="http://www.w3.org/1999/xlink" width="19.9219" height="19.9316">
 <g>
  <rect height="19.9316" opacity="0" width="19.9219" x="0" y="0"/>
  <path d="M9.96094 19.9219C15.4102 19.9219 19.9219 15.4004 19.9219 9.96094C19.9219 4.51172 15.4004 0 9.95117 0C4.51172 0 0 4.51172 0 9.96094C0 15.4004 4.52148 19.9219 9.96094 19.9219Z" fill="#000000" fill-opacity="0.85"/>
  <path d="M7.23633 14.1797C6.85547 14.1797 6.60156 13.9258 6.60156 13.5352L6.60156 7.28516L6.54297 7.28516L5.48828 8.07617C5.25391 8.26172 5.14648 8.27148 4.99023 8.27148C4.69727 8.27148 4.41406 8.00781 4.41406 7.66602C4.41406 7.40234 4.53125 7.2168 4.74609 7.07031L6.26953 6.02539C6.64062 5.78125 6.82617 5.67383 7.1582 5.67383C7.58789 5.67383 7.87109 5.98633 7.87109 6.40625L7.87109 13.5352C7.87109 13.9258 7.61719 14.1797 7.23633 14.1797ZM12.4902 14.3066C11.2207 14.3066 10.2344 13.6426 9.93164 12.8027C9.87305 12.666 9.84375 12.5098 9.84375 12.3438C9.84375 12.0117 10.0684 11.7578 10.4102 11.7578C10.6445 11.7578 10.8398 11.9043 10.9961 12.1973C11.2891 12.793 11.8652 13.1543 12.5488 13.1543C13.5254 13.1543 14.1895 12.5293 14.1895 11.4746C14.1895 10.5469 13.584 9.84375 12.7051 9.84375C12.2656 9.84375 11.9434 9.99023 11.5332 10.3516C11.2109 10.6152 11.0254 10.6934 10.7129 10.6934C10.2441 10.6934 9.96094 10.3516 9.99023 9.82422L10.2441 6.68945C10.2734 6.15234 10.625 5.83008 11.1621 5.83008L14.6191 5.83008C14.9121 5.83008 15.1172 6.07422 15.1172 6.39648C15.1172 6.72852 14.9023 6.96289 14.6191 6.96289L11.2988 6.96289L11.1035 9.54102L11.1426 9.54102C11.4453 9.0918 12.168 8.75977 12.832 8.75977C14.3945 8.75977 15.4395 9.89258 15.4395 11.4453C15.4395 13.2129 14.2676 14.3066 12.4902 14.3066Z" fill="#ffffff"/>
 </g>
</svg>
