<?xml version="1.0" encoding="UTF-8"?>
<!--Generator: Apple Native CoreSVG 175.5-->
<!DOCTYPE svg
PUBLIC "-//W3C//DTD SVG 1.1//EN"
       "http://www.w3.org/Graphics/SVG/1.1/DTD/svg11.dtd">
<svg version="1.1" xmlns="http://www.w3.org/2000/svg" xmlns:xlink="http://www.w3.org/1999/xlink" width="17.9785" height="17.998">
 <g>
  <rect height="17.998" opacity="0" width="17.9785" x="0" y="0"/>
  <path d="M3.06641 17.998L14.9121 17.998C16.9629 17.998 17.9785 16.9824 17.9785 14.9707L17.9785 3.04688C17.9785 1.03516 16.9629 0.0195312 14.9121 0.0195312L3.06641 0.0195312C1.02539 0.0195312 0 1.02539 0 3.04688L0 14.9707C0 16.9922 1.02539 17.998 3.06641 17.998ZM3.08594 16.4258C2.10938 16.4258 1.57227 15.9082 1.57227 14.8926L1.57227 3.125C1.57227 2.10938 2.10938 1.5918 3.08594 1.5918L14.8926 1.5918C15.8594 1.5918 16.4062 2.10938 16.4062 3.125L16.4062 14.8926C16.4062 15.9082 15.8594 16.4258 14.8926 16.4258Z" fill="#000000" fill-opacity="0.85"/>
  <path d="M6.2207 13.0859C6.60156 13.0859 6.83594 12.8418 6.83594 12.4609L6.83594 5.54688C6.83594 5.13672 6.5625 4.84375 6.15234 4.84375C5.83008 4.84375 5.64453 4.94141 5.30273 5.17578L3.81836 6.19141C3.60352 6.33789 3.48633 6.51367 3.48633 6.76758C3.48633 7.09961 3.75977 7.35352 4.04297 7.35352C4.19922 7.35352 4.29688 7.34375 4.52148 7.16797L5.56641 6.39648L5.61523 6.39648L5.61523 12.4609C5.61523 12.8418 5.85938 13.0859 6.2207 13.0859ZM11.3184 13.2031C13.0371 13.2031 14.1797 12.1484 14.1797 10.4297C14.1797 8.92578 13.1641 7.83203 11.6602 7.83203C11.0059 7.83203 10.3027 8.1543 10.0098 8.59375L9.9707 8.59375L10.1562 6.08398L13.3887 6.08398C13.6621 6.08398 13.8672 5.85938 13.8672 5.53711C13.8672 5.22461 13.6719 4.99023 13.3887 4.99023L10.0293 4.99023C9.51172 4.99023 9.17969 5.30273 9.14062 5.82031L8.90625 8.86719C8.86719 9.375 9.14062 9.70703 9.58984 9.70703C9.89258 9.70703 10.0684 9.62891 10.3809 9.375C10.791 9.02344 11.0938 8.87695 11.5234 8.87695C12.3828 8.87695 12.9688 9.56055 12.9688 10.459C12.9688 11.4844 12.3242 12.0996 11.377 12.0996C10.7129 12.0996 10.1465 11.748 9.86328 11.1621C9.7168 10.8789 9.53125 10.7422 9.30664 10.7422C8.97461 10.7422 8.75 10.9863 8.75 11.3086C8.75 11.4648 8.78906 11.6113 8.83789 11.748C9.13086 12.5586 10.0977 13.2031 11.3184 13.2031Z" fill="#000000" fill-opacity="0.85"/>
 </g>
</svg>
