<?xml version="1.0" encoding="UTF-8"?>
<!--Generator: Apple Native CoreSVG 175.5-->
<!DOCTYPE svg
PUBLIC "-//W3C//DTD SVG 1.1//EN"
       "http://www.w3.org/Graphics/SVG/1.1/DTD/svg11.dtd">
<svg version="1.1" xmlns="http://www.w3.org/2000/svg" xmlns:xlink="http://www.w3.org/1999/xlink" width="19.9219" height="19.9316">
 <g>
  <rect height="19.9316" opacity="0" width="19.9219" x="0" y="0"/>
  <path d="M9.96094 19.9219C15.4102 19.9219 19.9219 15.4004 19.9219 9.96094C19.9219 4.51172 15.4004 0 9.95117 0C4.51172 0 0 4.51172 0 9.96094C0 15.4004 4.52148 19.9219 9.96094 19.9219Z" fill="#000000" fill-opacity="0.85"/>
  <path d="M6.95312 14.1797C6.57227 14.1797 6.32812 13.9258 6.32812 13.5352L6.32812 7.28516L6.26953 7.28516L5.20508 8.07617C4.9707 8.26172 4.86328 8.27148 4.70703 8.27148C4.41406 8.27148 4.13086 8.00781 4.13086 7.66602C4.13086 7.40234 4.25781 7.2168 4.47266 7.07031L5.99609 6.02539C6.34766 5.78125 6.55273 5.68359 6.875 5.68359C7.30469 5.68359 7.59766 5.98633 7.59766 6.40625L7.59766 13.5352C7.59766 13.9258 7.34375 14.1797 6.95312 14.1797ZM12.4609 14.3164C11.4355 14.3164 10.5664 13.9258 10.0488 12.9492C9.70703 12.3242 9.51172 11.4258 9.51172 10.1953C9.51172 7.12891 10.7031 5.61523 12.6465 5.61523C13.7988 5.61523 14.5996 6.21094 14.8633 6.88477C14.9121 7.02148 14.9316 7.13867 14.9316 7.27539C14.9316 7.60742 14.7266 7.83203 14.4434 7.83203C14.1699 7.83203 14.0039 7.70508 13.8281 7.45117C13.584 7.06055 13.1836 6.78711 12.5977 6.78711C11.4648 6.78711 10.7031 7.97852 10.7031 9.87305C10.7031 9.92188 10.7031 9.94141 10.7031 9.9707L10.7715 9.9707C11.0254 9.30664 11.6895 8.70117 12.7637 8.70117C14.082 8.70117 15.2539 9.6582 15.2539 11.3867C15.2539 13.2324 14.0918 14.3164 12.4609 14.3164ZM12.3926 13.2031C13.3691 13.2031 13.9844 12.5195 13.9844 11.4453C13.9844 10.4395 13.3398 9.74609 12.3926 9.74609C11.4648 9.74609 10.8105 10.4492 10.8105 11.4355C10.8105 12.4707 11.4648 13.2031 12.3926 13.2031Z" fill="#ffffff"/>
 </g>
</svg>
