<?xml version="1.0" encoding="UTF-8"?>
<!--Generator: Apple Native CoreSVG 175.5-->
<!DOCTYPE svg
PUBLIC "-//W3C//DTD SVG 1.1//EN"
       "http://www.w3.org/Graphics/SVG/1.1/DTD/svg11.dtd">
<svg version="1.1" xmlns="http://www.w3.org/2000/svg" xmlns:xlink="http://www.w3.org/1999/xlink" width="19.9219" height="19.9316">
 <g>
  <rect height="19.9316" opacity="0" width="19.9219" x="0" y="0"/>
  <path d="M9.96094 19.9219C15.4102 19.9219 19.9219 15.4004 19.9219 9.96094C19.9219 4.51172 15.4004 0 9.95117 0C4.51172 0 0 4.51172 0 9.96094C0 15.4004 4.52148 19.9219 9.96094 19.9219ZM9.96094 18.2617C5.35156 18.2617 1.66992 14.5703 1.66992 9.96094C1.66992 5.35156 5.3418 1.66016 9.95117 1.66016C14.5605 1.66016 18.2617 5.35156 18.2617 9.96094C18.2617 14.5703 14.5703 18.2617 9.96094 18.2617Z" fill="#000000" fill-opacity="0.85"/>
  <path d="M7.03125 14.0527C7.41211 14.0527 7.65625 13.8086 7.65625 13.4277L7.65625 6.51367C7.65625 6.10352 7.37305 5.81055 6.96289 5.81055C6.65039 5.81055 6.45508 5.9082 6.11328 6.14258L4.62891 7.1582C4.42383 7.30469 4.29688 7.48047 4.29688 7.73438C4.29688 8.06641 4.57031 8.32031 4.85352 8.32031C5.00977 8.32031 5.10742 8.31055 5.33203 8.13477L6.37695 7.36328L6.43555 7.36328L6.43555 13.4277C6.43555 13.8086 6.66992 14.0527 7.03125 14.0527ZM12.373 14.1797C13.9551 14.1797 15.0879 13.1348 15.0879 11.3477C15.0879 9.66797 13.9453 8.74023 12.666 8.74023C11.6309 8.74023 10.9766 9.32617 10.7324 9.9707L10.6641 9.9707C10.6641 9.94141 10.6641 9.92188 10.6641 9.88281C10.6641 8.03711 11.4062 6.875 12.5098 6.875C13.0762 6.875 13.4668 7.14844 13.7109 7.5293C13.877 7.77344 14.0332 7.89062 14.2969 7.89062C14.5703 7.89062 14.7754 7.67578 14.7754 7.35352C14.7754 7.22656 14.7559 7.10938 14.707 6.98242C14.4531 6.32812 13.6719 5.75195 12.5586 5.75195C10.6738 5.75195 9.52148 7.2168 9.52148 10.1855C9.52148 11.377 9.70703 12.2461 10.0391 12.8613C10.5371 13.7988 11.377 14.1797 12.373 14.1797ZM12.3145 13.1055C11.4062 13.1055 10.7715 12.3926 10.7715 11.3867C10.7715 10.4297 11.4062 9.74609 12.3145 9.74609C13.2324 9.74609 13.8574 10.4199 13.8574 11.3965C13.8574 12.4414 13.2617 13.1055 12.3145 13.1055Z" fill="#000000" fill-opacity="0.85"/>
 </g>
</svg>
