<?xml version="1.0" encoding="UTF-8"?>
<!--Generator: Apple Native CoreSVG 175.5-->
<!DOCTYPE svg
PUBLIC "-//W3C//DTD SVG 1.1//EN"
       "http://www.w3.org/Graphics/SVG/1.1/DTD/svg11.dtd">
<svg version="1.1" xmlns="http://www.w3.org/2000/svg" xmlns:xlink="http://www.w3.org/1999/xlink" width="17.9785" height="17.998">
 <g>
  <rect height="17.998" opacity="0" width="17.9785" x="0" y="0"/>
  <path d="M3.06641 17.998L14.9121 17.998C16.9629 17.998 17.9785 16.9824 17.9785 14.9707L17.9785 3.04688C17.9785 1.03516 16.9629 0.0195312 14.9121 0.0195312L3.06641 0.0195312C1.02539 0.0195312 0 1.02539 0 3.04688L0 14.9707C0 16.9922 1.02539 17.998 3.06641 17.998Z" fill="#000000" fill-opacity="0.85"/>
  <path d="M5.98633 13.2129C5.60547 13.2129 5.36133 12.959 5.36133 12.5684L5.36133 6.31836L5.30273 6.31836L4.23828 7.10938C4.00391 7.29492 3.89648 7.30469 3.74023 7.30469C3.44727 7.30469 3.16406 7.04102 3.16406 6.69922C3.16406 6.43555 3.29102 6.25 3.50586 6.10352L5.0293 5.05859C5.38086 4.81445 5.58594 4.7168 5.9082 4.7168C6.33789 4.7168 6.63086 5.01953 6.63086 5.43945L6.63086 12.5684C6.63086 12.959 6.37695 13.2129 5.98633 13.2129ZM11.4941 13.3496C10.4688 13.3496 9.59961 12.959 9.08203 11.9824C8.74023 11.3574 8.54492 10.459 8.54492 9.22852C8.54492 6.16211 9.73633 4.64844 11.6797 4.64844C12.832 4.64844 13.6328 5.24414 13.8965 5.91797C13.9453 6.05469 13.9648 6.17188 13.9648 6.30859C13.9648 6.64062 13.7598 6.86523 13.4766 6.86523C13.2031 6.86523 13.0371 6.73828 12.8613 6.48438C12.6172 6.09375 12.2168 5.82031 11.6309 5.82031C10.498 5.82031 9.73633 7.01172 9.73633 8.90625C9.73633 8.95508 9.73633 8.97461 9.73633 9.00391L9.80469 9.00391C10.0586 8.33984 10.7227 7.73438 11.8066 7.73438C13.1152 7.73438 14.2871 8.69141 14.2871 10.4199C14.2871 12.2656 13.125 13.3496 11.4941 13.3496ZM11.4258 12.2363C12.4023 12.2363 13.0176 11.5527 13.0176 10.4785C13.0176 9.47266 12.3828 8.7793 11.4355 8.7793C10.498 8.7793 9.84375 9.48242 9.84375 10.4688C9.84375 11.5039 10.498 12.2363 11.4258 12.2363Z" fill="#ffffff"/>
 </g>
</svg>
