<?xml version="1.0" encoding="UTF-8"?>
<!--Generator: Apple Native CoreSVG 175.5-->
<!DOCTYPE svg
PUBLIC "-//W3C//DTD SVG 1.1//EN"
       "http://www.w3.org/Graphics/SVG/1.1/DTD/svg11.dtd">
<svg version="1.1" xmlns="http://www.w3.org/2000/svg" xmlns:xlink="http://www.w3.org/1999/xlink" width="19.9219" height="19.9316">
 <g>
  <rect height="19.9316" opacity="0" width="19.9219" x="0" y="0"/>
  <path d="M9.96094 19.9219C15.4102 19.9219 19.9219 15.4004 19.9219 9.96094C19.9219 4.51172 15.4004 0 9.95117 0C4.51172 0 0 4.51172 0 9.96094C0 15.4004 4.52148 19.9219 9.96094 19.9219Z" fill="#000000" fill-opacity="0.85"/>
  <path d="M7.38281 14.1797C7.01172 14.1797 6.75781 13.9258 6.75781 13.5352L6.75781 7.28516L6.69922 7.28516L5.63477 8.08594C5.39062 8.26172 5.30273 8.27148 5.13672 8.27148C4.84375 8.27148 4.56055 8.00781 4.56055 7.66602C4.56055 7.40234 4.6875 7.2168 4.89258 7.07031L6.42578 6.02539C6.77734 5.78125 6.98242 5.68359 7.31445 5.68359C7.73438 5.68359 8.02734 5.98633 8.02734 6.40625L8.02734 13.5352C8.02734 13.9258 7.77344 14.1797 7.38281 14.1797ZM11.25 14.1895C10.8691 14.1895 10.5762 13.916 10.5762 13.5352C10.5762 13.3398 10.5957 13.2227 10.6836 13.0664L13.8086 7.04102L13.8086 6.95312L10.2637 6.95312C9.92188 6.95312 9.6875 6.72852 9.6875 6.39648C9.6875 6.05469 9.92188 5.82031 10.2637 5.82031L14.3359 5.82031C14.8828 5.82031 15.2344 6.21094 15.2344 6.69922C15.2344 6.91406 15.1953 7.09961 15.0391 7.42188L11.9043 13.7012C11.7188 14.043 11.5234 14.1895 11.25 14.1895Z" fill="#ffffff"/>
 </g>
</svg>
