<?xml version="1.0" encoding="UTF-8"?>
<!--Generator: Apple Native CoreSVG 175.5-->
<!DOCTYPE svg
PUBLIC "-//W3C//DTD SVG 1.1//EN"
       "http://www.w3.org/Graphics/SVG/1.1/DTD/svg11.dtd">
<svg version="1.1" xmlns="http://www.w3.org/2000/svg" xmlns:xlink="http://www.w3.org/1999/xlink" width="19.9219" height="19.9316">
 <g>
  <rect height="19.9316" opacity="0" width="19.9219" x="0" y="0"/>
  <path d="M9.96094 19.9219C15.4102 19.9219 19.9219 15.4004 19.9219 9.96094C19.9219 4.51172 15.4004 0 9.95117 0C4.51172 0 0 4.51172 0 9.96094C0 15.4004 4.52148 19.9219 9.96094 19.9219ZM9.96094 18.2617C5.35156 18.2617 1.66992 14.5703 1.66992 9.96094C1.66992 5.35156 5.3418 1.66016 9.95117 1.66016C14.5605 1.66016 18.2617 5.35156 18.2617 9.96094C18.2617 14.5703 14.5703 18.2617 9.96094 18.2617Z" fill="#000000" fill-opacity="0.85"/>
  <path d="M7.1582 14.0527C7.5293 14.0527 7.77344 13.8086 7.77344 13.4277L7.77344 6.51367C7.77344 6.10352 7.5 5.81055 7.08984 5.81055C6.76758 5.81055 6.58203 5.9082 6.23047 6.14258L4.74609 7.1582C4.54102 7.30469 4.42383 7.48047 4.42383 7.73438C4.42383 8.06641 4.69727 8.32031 4.98047 8.32031C5.13672 8.32031 5.23438 8.31055 5.45898 8.13477L6.49414 7.36328L6.55273 7.36328L6.55273 13.4277C6.55273 13.8086 6.79688 14.0527 7.1582 14.0527ZM12.4609 14.1699C14.1602 14.1699 15.3223 13.1934 15.3223 11.7773C15.3223 10.7812 14.707 9.9707 13.6621 9.75586L13.6621 9.69727C14.5605 9.45312 15.0293 8.75 15.0293 7.90039C15.0293 6.63086 13.9746 5.75195 12.4805 5.75195C10.9863 5.75195 9.93164 6.63086 9.93164 7.90039C9.93164 8.75 10.3906 9.43359 11.2988 9.69727L11.2988 9.75586C10.2441 9.9707 9.63867 10.791 9.63867 11.7871C9.63867 13.2129 10.7715 14.1699 12.4609 14.1699ZM12.4902 13.1543C11.5625 13.1543 10.8887 12.5586 10.8887 11.6992C10.8887 10.8594 11.5625 10.2441 12.4902 10.2441C13.4277 10.2441 14.082 10.8496 14.082 11.6992C14.082 12.5586 13.4082 13.1543 12.4902 13.1543ZM12.4805 9.30664C11.7188 9.30664 11.1719 8.75977 11.1719 8.01758C11.1719 7.27539 11.7188 6.76758 12.4805 6.76758C13.252 6.76758 13.7891 7.27539 13.7891 8.01758C13.7891 8.75977 13.2422 9.30664 12.4805 9.30664Z" fill="#000000" fill-opacity="0.85"/>
 </g>
</svg>
