<?xml version="1.0" encoding="UTF-8"?>
<!--Generator: Apple Native CoreSVG 175.5-->
<!DOCTYPE svg
PUBLIC "-//W3C//DTD SVG 1.1//EN"
       "http://www.w3.org/Graphics/SVG/1.1/DTD/svg11.dtd">
<svg version="1.1" xmlns="http://www.w3.org/2000/svg" xmlns:xlink="http://www.w3.org/1999/xlink" width="17.9785" height="17.998">
 <g>
  <rect height="17.998" opacity="0" width="17.9785" x="0" y="0"/>
  <path d="M3.06641 17.998L14.9121 17.998C16.9629 17.998 17.9785 16.9824 17.9785 14.9707L17.9785 3.04688C17.9785 1.03516 16.9629 0.0195312 14.9121 0.0195312L3.06641 0.0195312C1.02539 0.0195312 0 1.02539 0 3.04688L0 14.9707C0 16.9922 1.02539 17.998 3.06641 17.998ZM3.08594 16.4258C2.10938 16.4258 1.57227 15.9082 1.57227 14.8926L1.57227 3.125C1.57227 2.10938 2.10938 1.5918 3.08594 1.5918L14.8926 1.5918C15.8594 1.5918 16.4062 2.10938 16.4062 3.125L16.4062 14.8926C16.4062 15.9082 15.8594 16.4258 14.8926 16.4258Z" fill="#000000" fill-opacity="0.85"/>
  <path d="M6.20117 13.0859C6.58203 13.0859 6.81641 12.8418 6.81641 12.4609L6.81641 5.54688C6.81641 5.13672 6.54297 4.84375 6.13281 4.84375C5.81055 4.84375 5.625 4.94141 5.2832 5.17578L3.79883 6.19141C3.58398 6.33789 3.4668 6.51367 3.4668 6.76758C3.4668 7.09961 3.74023 7.35352 4.02344 7.35352C4.17969 7.35352 4.27734 7.34375 4.50195 7.16797L5.54688 6.39648L5.5957 6.39648L5.5957 12.4609C5.5957 12.8418 5.83984 13.0859 6.20117 13.0859ZM11.5039 13.2031C13.2031 13.2031 14.3652 12.2266 14.3652 10.8105C14.3652 9.81445 13.75 9.00391 12.7051 8.78906L12.7051 8.73047C13.6035 8.48633 14.0723 7.7832 14.0723 6.93359C14.0723 5.66406 13.0176 4.78516 11.5234 4.78516C10.0293 4.78516 8.97461 5.66406 8.97461 6.93359C8.97461 7.7832 9.43359 8.4668 10.3418 8.73047L10.3418 8.78906C9.28711 9.00391 8.68164 9.82422 8.68164 10.8203C8.68164 12.2461 9.81445 13.2031 11.5039 13.2031ZM11.5332 12.1875C10.6055 12.1875 9.93164 11.5918 9.93164 10.7324C9.93164 9.89258 10.6055 9.27734 11.5332 9.27734C12.4805 9.27734 13.1348 9.88281 13.1348 10.7324C13.1348 11.5918 12.4609 12.1875 11.5332 12.1875ZM11.5234 8.33984C10.7617 8.33984 10.2246 7.79297 10.2246 7.05078C10.2246 6.30859 10.7617 5.80078 11.5234 5.80078C12.2949 5.80078 12.832 6.30859 12.832 7.05078C12.832 7.79297 12.2852 8.33984 11.5234 8.33984Z" fill="#000000" fill-opacity="0.85"/>
 </g>
</svg>
