<?xml version="1.0" encoding="UTF-8"?>
<!--Generator: Apple Native CoreSVG 175.5-->
<!DOCTYPE svg
PUBLIC "-//W3C//DTD SVG 1.1//EN"
       "http://www.w3.org/Graphics/SVG/1.1/DTD/svg11.dtd">
<svg version="1.1" xmlns="http://www.w3.org/2000/svg" xmlns:xlink="http://www.w3.org/1999/xlink" width="19.9219" height="19.9316">
 <g>
  <rect height="19.9316" opacity="0" width="19.9219" x="0" y="0"/>
  <path d="M9.96094 19.9219C15.4102 19.9219 19.9219 15.4004 19.9219 9.96094C19.9219 4.51172 15.4004 0 9.95117 0C4.51172 0 0 4.51172 0 9.96094C0 15.4004 4.52148 19.9219 9.96094 19.9219ZM9.96094 18.2617C5.35156 18.2617 1.66992 14.5703 1.66992 9.96094C1.66992 5.35156 5.3418 1.66016 9.95117 1.66016C14.5605 1.66016 18.2617 5.35156 18.2617 9.96094C18.2617 14.5703 14.5703 18.2617 9.96094 18.2617Z" fill="#000000" fill-opacity="0.85"/>
  <path d="M7.00195 14.0527C7.37305 14.0527 7.61719 13.8086 7.61719 13.4277L7.61719 6.51367C7.61719 6.10352 7.33398 5.81055 6.93359 5.81055C6.61133 5.81055 6.41602 5.9082 6.07422 6.14258L4.58984 7.1582C4.38477 7.30469 4.26758 7.48047 4.26758 7.73438C4.26758 8.06641 4.54102 8.32031 4.82422 8.32031C4.98047 8.32031 5.06836 8.31055 5.30273 8.13477L6.33789 7.36328L6.39648 7.36328L6.39648 13.4277C6.39648 13.8086 6.64062 14.0527 7.00195 14.0527ZM12.3535 14.1699C14.2969 14.1699 15.3516 12.627 15.3516 9.6875C15.3516 7.12891 14.2871 5.75195 12.4609 5.75195C10.8203 5.75195 9.74609 6.85547 9.74609 8.57422C9.74609 10.2539 10.8887 11.1914 12.168 11.1914C13.2324 11.1914 13.8672 10.6152 14.1309 9.95117L14.1895 9.95117C14.209 11.8945 13.457 13.0469 12.334 13.0469C11.7676 13.0469 11.3281 12.7539 11.0938 12.3242C10.9375 12.0508 10.752 11.9434 10.498 11.9434C10.1855 11.9434 9.98047 12.1777 9.98047 12.5195C9.98047 12.6172 10.0098 12.7539 10.0488 12.8711C10.2051 13.4082 11.0059 14.1699 12.3535 14.1699ZM12.5293 10.1855C11.6016 10.1855 10.9863 9.49219 10.9863 8.51562C10.9863 7.49023 11.5918 6.81641 12.5391 6.81641C13.4375 6.81641 14.082 7.5293 14.082 8.53516C14.082 9.49219 13.4473 10.1855 12.5293 10.1855Z" fill="#000000" fill-opacity="0.85"/>
 </g>
</svg>
