<?xml version="1.0" encoding="UTF-8"?>
<!--Generator: Apple Native CoreSVG 175.5-->
<!DOCTYPE svg
PUBLIC "-//W3C//DTD SVG 1.1//EN"
       "http://www.w3.org/Graphics/SVG/1.1/DTD/svg11.dtd">
<svg version="1.1" xmlns="http://www.w3.org/2000/svg" xmlns:xlink="http://www.w3.org/1999/xlink" width="17.9785" height="17.998">
 <g>
  <rect height="17.998" opacity="0" width="17.9785" x="0" y="0"/>
  <path d="M3.06641 17.998L14.9121 17.998C16.9629 17.998 17.9785 16.9824 17.9785 14.9707L17.9785 3.04688C17.9785 1.03516 16.9629 0.0195312 14.9121 0.0195312L3.06641 0.0195312C1.02539 0.0195312 0 1.02539 0 3.04688L0 14.9707C0 16.9922 1.02539 17.998 3.06641 17.998ZM3.08594 16.4258C2.10938 16.4258 1.57227 15.9082 1.57227 14.8926L1.57227 3.125C1.57227 2.10938 2.10938 1.5918 3.08594 1.5918L14.8926 1.5918C15.8594 1.5918 16.4062 2.10938 16.4062 3.125L16.4062 14.8926C16.4062 15.9082 15.8594 16.4258 14.8926 16.4258Z" fill="#000000" fill-opacity="0.85"/>
  <path d="M6.04492 13.0859C6.41602 13.0859 6.66016 12.8418 6.66016 12.4609L6.66016 5.54688C6.66016 5.13672 6.38672 4.84375 5.97656 4.84375C5.6543 4.84375 5.46875 4.94141 5.11719 5.17578L3.63281 6.19141C3.42773 6.33789 3.31055 6.51367 3.31055 6.76758C3.31055 7.09961 3.58398 7.35352 3.86719 7.35352C4.02344 7.35352 4.12109 7.34375 4.3457 7.16797L5.39062 6.39648L5.43945 6.39648L5.43945 12.4609C5.43945 12.8418 5.68359 13.0859 6.04492 13.0859ZM11.3965 13.2031C13.3398 13.2031 14.3945 11.6602 14.3945 8.7207C14.3945 6.16211 13.3398 4.78516 11.5039 4.78516C9.86328 4.78516 8.78906 5.88867 8.78906 7.60742C8.78906 9.28711 9.93164 10.2246 11.2109 10.2246C12.2754 10.2246 12.9199 9.64844 13.1738 8.98438L13.2324 8.98438C13.252 10.9277 12.5098 12.0801 11.377 12.0801C10.8203 12.0801 10.3711 11.7871 10.1367 11.3574C9.98047 11.084 9.79492 10.9766 9.54102 10.9766C9.23828 10.9766 9.02344 11.2109 9.02344 11.5527C9.02344 11.6504 9.05273 11.7871 9.0918 11.9043C9.24805 12.4414 10.0488 13.2031 11.3965 13.2031ZM11.5723 9.21875C10.6543 9.21875 10.0293 8.52539 10.0293 7.54883C10.0293 6.52344 10.6348 5.84961 11.582 5.84961C12.4805 5.84961 13.125 6.5625 13.125 7.56836C13.125 8.52539 12.4902 9.21875 11.5723 9.21875Z" fill="#000000" fill-opacity="0.85"/>
 </g>
</svg>
