<?xml version="1.0" encoding="UTF-8"?>
<!--Generator: Apple Native CoreSVG 175.5-->
<!DOCTYPE svg
PUBLIC "-//W3C//DTD SVG 1.1//EN"
       "http://www.w3.org/Graphics/SVG/1.1/DTD/svg11.dtd">
<svg version="1.1" xmlns="http://www.w3.org/2000/svg" xmlns:xlink="http://www.w3.org/1999/xlink" width="17.9785" height="17.998">
 <g>
  <rect height="17.998" opacity="0" width="17.9785" x="0" y="0"/>
  <path d="M3.06641 17.998L14.9121 17.998C16.9629 17.998 17.9785 16.9824 17.9785 14.9707L17.9785 3.04688C17.9785 1.03516 16.9629 0.0195312 14.9121 0.0195312L3.06641 0.0195312C1.02539 0.0195312 0 1.02539 0 3.04688L0 14.9707C0 16.9922 1.02539 17.998 3.06641 17.998Z" fill="#000000" fill-opacity="0.85"/>
  <path d="M5.95703 13.2129C5.58594 13.2129 5.33203 12.959 5.33203 12.5684L5.33203 6.31836L5.2832 6.31836L4.20898 7.10938C3.97461 7.29492 3.87695 7.30469 3.71094 7.30469C3.41797 7.30469 3.13477 7.04102 3.13477 6.69922C3.13477 6.43555 3.26172 6.25 3.4668 6.10352L5 5.05859C5.36133 4.81445 5.55664 4.7168 5.88867 4.7168C6.30859 4.7168 6.5918 5.01953 6.5918 5.43945L6.5918 12.5684C6.5918 12.959 6.34766 13.2129 5.95703 13.2129ZM11.4746 13.3398C10.0879 13.3398 9.25781 12.5488 9.10156 11.9922C9.0625 11.875 9.0332 11.7383 9.0332 11.6309C9.0332 11.2793 9.24805 11.0352 9.56055 11.0352C9.82422 11.0352 10.0195 11.1426 10.1855 11.4258C10.4199 11.875 10.8887 12.168 11.4551 12.168C12.6172 12.168 13.3887 10.9863 13.3691 8.98438L13.3008 8.98438C13.0469 9.66797 12.3828 10.2637 11.2793 10.2637C9.9707 10.2637 8.78906 9.29688 8.78906 7.56836C8.78906 5.79102 9.89258 4.64844 11.5918 4.64844C13.4766 4.64844 14.5703 6.07422 14.5703 8.71094C14.5703 11.748 13.4863 13.3398 11.4746 13.3398ZM11.6602 9.21875C12.6074 9.21875 13.252 8.50586 13.252 7.51953C13.252 6.48438 12.5879 5.75195 11.6699 5.75195C10.6934 5.75195 10.0684 6.44531 10.0684 7.5C10.0684 8.50586 10.7129 9.21875 11.6602 9.21875Z" fill="#ffffff"/>
 </g>
</svg>
