<?xml version="1.0" encoding="UTF-8"?>
<!--Generator: Apple Native CoreSVG 175.5-->
<!DOCTYPE svg
PUBLIC "-//W3C//DTD SVG 1.1//EN"
       "http://www.w3.org/Graphics/SVG/1.1/DTD/svg11.dtd">
<svg version="1.1" xmlns="http://www.w3.org/2000/svg" xmlns:xlink="http://www.w3.org/1999/xlink" width="19.9219" height="19.9316">
 <g>
  <rect height="19.9316" opacity="0" width="19.9219" x="0" y="0"/>
  <path d="M9.96094 19.9219C15.4102 19.9219 19.9219 15.4004 19.9219 9.96094C19.9219 4.51172 15.4004 0 9.95117 0C4.51172 0 0 4.51172 0 9.96094C0 15.4004 4.52148 19.9219 9.96094 19.9219ZM9.96094 18.2617C5.35156 18.2617 1.66992 14.5703 1.66992 9.96094C1.66992 5.35156 5.3418 1.66016 9.95117 1.66016C14.5605 1.66016 18.2617 5.35156 18.2617 9.96094C18.2617 14.5703 14.5703 18.2617 9.96094 18.2617Z" fill="#000000" fill-opacity="0.85"/>
  <path d="M4.94141 13.9453L8.97461 13.9453C9.28711 13.9453 9.52148 13.7109 9.52148 13.3594C9.52148 12.998 9.28711 12.793 8.97461 12.793L6.14258 12.793L6.14258 12.7246L8.05664 10.498C8.7793 9.6582 9.31641 8.95508 9.31641 7.97852C9.31641 6.62109 8.32031 5.75195 6.78711 5.75195C5.625 5.75195 4.58984 6.49414 4.33594 7.49023C4.31641 7.61719 4.28711 7.72461 4.28711 7.8418C4.28711 8.19336 4.50195 8.42773 4.83398 8.42773C5.11719 8.42773 5.26367 8.26172 5.39062 7.96875C5.64453 7.23633 6.13281 6.875 6.83594 6.875C7.62695 6.875 8.13477 7.36328 8.13477 8.08594C8.13477 8.7207 7.61719 9.26758 7.1582 9.81445L4.58008 12.8418C4.43359 13.0078 4.36523 13.1738 4.36523 13.3691C4.36523 13.7207 4.58984 13.9453 4.94141 13.9453ZM13.2031 14.1699C14.8828 14.1699 15.9961 12.5586 15.9961 9.96094C15.9961 7.36328 14.8828 5.75195 13.2031 5.75195C11.5234 5.75195 10.4102 7.36328 10.4102 9.96094C10.4102 12.5586 11.5234 14.1699 13.2031 14.1699ZM13.2031 12.9883C12.2754 12.9883 11.6895 11.8359 11.6895 9.96094C11.6895 8.08594 12.2754 6.93359 13.2031 6.93359C14.1406 6.93359 14.7168 8.08594 14.7168 9.96094C14.7168 11.8359 14.1504 12.9883 13.2031 12.9883Z" fill="#000000" fill-opacity="0.85"/>
 </g>
</svg>
