<?xml version="1.0" encoding="UTF-8"?>
<!--Generator: Apple Native CoreSVG 175.5-->
<!DOCTYPE svg
PUBLIC "-//W3C//DTD SVG 1.1//EN"
       "http://www.w3.org/Graphics/SVG/1.1/DTD/svg11.dtd">
<svg version="1.1" xmlns="http://www.w3.org/2000/svg" xmlns:xlink="http://www.w3.org/1999/xlink" width="19.9219" height="19.9316">
 <g>
  <rect height="19.9316" opacity="0" width="19.9219" x="0" y="0"/>
  <path d="M9.96094 19.9219C15.4102 19.9219 19.9219 15.4004 19.9219 9.96094C19.9219 4.51172 15.4004 0 9.95117 0C4.51172 0 0 4.51172 0 9.96094C0 15.4004 4.52148 19.9219 9.96094 19.9219Z" fill="#000000" fill-opacity="0.85"/>
  <path d="M4.79492 14.0723C4.43359 14.0723 4.19922 13.8379 4.19922 13.4766C4.19922 13.2715 4.27734 13.0957 4.42383 12.9297L7.08008 9.80469C7.54883 9.24805 8.08594 8.68164 8.08594 8.02734C8.08594 7.28516 7.56836 6.78711 6.74805 6.78711C6.03516 6.78711 5.52734 7.14844 5.26367 7.91016C5.13672 8.21289 4.98047 8.37891 4.6875 8.37891C4.3457 8.37891 4.12109 8.13477 4.12109 7.77344C4.12109 7.65625 4.15039 7.53906 4.16992 7.41211C4.43359 6.38672 5.50781 5.61523 6.69922 5.61523C8.28125 5.61523 9.31641 6.51367 9.31641 7.91992C9.31641 8.92578 8.75977 9.64844 8.00781 10.5176L6.04492 12.8027L6.04492 12.8809L8.95508 12.8809C9.27734 12.8809 9.52148 13.0859 9.52148 13.4668C9.52148 13.8281 9.27734 14.0723 8.95508 14.0723ZM13.3203 14.3066C11.582 14.3066 10.4395 12.6465 10.4395 9.96094C10.4395 7.27539 11.582 5.61523 13.3203 5.61523C15.0488 5.61523 16.2012 7.27539 16.2012 9.96094C16.2012 12.6465 15.0488 14.3066 13.3203 14.3066ZM13.3203 13.0762C14.2871 13.0762 14.873 11.8945 14.873 9.96094C14.873 8.02734 14.2773 6.8457 13.3203 6.8457C12.3633 6.8457 11.7676 8.02734 11.7676 9.96094C11.7676 11.8945 12.3633 13.0762 13.3203 13.0762Z" fill="#ffffff"/>
 </g>
</svg>
