<?xml version="1.0" encoding="UTF-8"?>
<!--Generator: Apple Native CoreSVG 175.5-->
<!DOCTYPE svg
PUBLIC "-//W3C//DTD SVG 1.1//EN"
       "http://www.w3.org/Graphics/SVG/1.1/DTD/svg11.dtd">
<svg version="1.1" xmlns="http://www.w3.org/2000/svg" xmlns:xlink="http://www.w3.org/1999/xlink" width="17.9785" height="17.998">
 <g>
  <rect height="17.998" opacity="0" width="17.9785" x="0" y="0"/>
  <path d="M3.06641 17.998L14.9121 17.998C16.9629 17.998 17.9785 16.9824 17.9785 14.9707L17.9785 3.04688C17.9785 1.03516 16.9629 0.0195312 14.9121 0.0195312L3.06641 0.0195312C1.02539 0.0195312 0 1.02539 0 3.04688L0 14.9707C0 16.9922 1.02539 17.998 3.06641 17.998ZM3.08594 16.4258C2.10938 16.4258 1.57227 15.9082 1.57227 14.8926L1.57227 3.125C1.57227 2.10938 2.10938 1.5918 3.08594 1.5918L14.8926 1.5918C15.8594 1.5918 16.4062 2.10938 16.4062 3.125L16.4062 14.8926C16.4062 15.9082 15.8594 16.4258 14.8926 16.4258Z" fill="#000000" fill-opacity="0.85"/>
  <path d="M3.98438 12.9785L8.01758 12.9785C8.33008 12.9785 8.56445 12.7441 8.56445 12.3926C8.56445 12.0312 8.33008 11.8262 8.01758 11.8262L5.18555 11.8262L5.18555 11.7578L7.09961 9.53125C7.82227 8.69141 8.35938 7.98828 8.35938 7.01172C8.35938 5.6543 7.36328 4.78516 5.83008 4.78516C4.66797 4.78516 3.63281 5.52734 3.37891 6.52344C3.35938 6.65039 3.33984 6.75781 3.33984 6.875C3.33984 7.22656 3.54492 7.46094 3.87695 7.46094C4.16016 7.46094 4.30664 7.29492 4.43359 7.00195C4.6875 6.26953 5.17578 5.9082 5.87891 5.9082C6.66992 5.9082 7.17773 6.39648 7.17773 7.11914C7.17773 7.75391 6.66992 8.30078 6.20117 8.84766L3.62305 11.875C3.47656 12.041 3.4082 12.207 3.4082 12.4023C3.4082 12.7539 3.63281 12.9785 3.98438 12.9785ZM12.2461 13.2031C13.9355 13.2031 15.0391 11.5918 15.0391 8.99414C15.0391 6.39648 13.9355 4.78516 12.2461 4.78516C10.5664 4.78516 9.45312 6.39648 9.45312 8.99414C9.45312 11.5918 10.5664 13.2031 12.2461 13.2031ZM12.2461 12.0215C11.3184 12.0215 10.7422 10.8691 10.7422 8.99414C10.7422 7.11914 11.3184 5.9668 12.2461 5.9668C13.1836 5.9668 13.7598 7.11914 13.7598 8.99414C13.7598 10.8691 13.1934 12.0215 12.2461 12.0215Z" fill="#000000" fill-opacity="0.85"/>
 </g>
</svg>
