<?xml version="1.0" encoding="UTF-8"?>
<!--Generator: Apple Native CoreSVG 175.5-->
<!DOCTYPE svg
PUBLIC "-//W3C//DTD SVG 1.1//EN"
       "http://www.w3.org/Graphics/SVG/1.1/DTD/svg11.dtd">
<svg version="1.1" xmlns="http://www.w3.org/2000/svg" xmlns:xlink="http://www.w3.org/1999/xlink" width="17.9785" height="17.998">
 <g>
  <rect height="17.998" opacity="0" width="17.9785" x="0" y="0"/>
  <path d="M3.06641 17.998L14.9121 17.998C16.9629 17.998 17.9785 16.9824 17.9785 14.9707L17.9785 3.04688C17.9785 1.03516 16.9629 0.0195312 14.9121 0.0195312L3.06641 0.0195312C1.02539 0.0195312 0 1.02539 0 3.04688L0 14.9707C0 16.9922 1.02539 17.998 3.06641 17.998Z" fill="#000000" fill-opacity="0.85"/>
  <path d="M4.46289 13.1055C4.10156 13.1055 3.86719 12.8711 3.86719 12.5098C3.86719 12.3047 3.93555 12.1387 4.0918 11.9629L6.74805 8.84766C7.22656 8.28125 7.75391 7.71484 7.75391 7.06055C7.75391 6.31836 7.23633 5.82031 6.41602 5.82031C5.69336 5.82031 5.19531 6.19141 4.94141 6.94336C4.80469 7.24609 4.64844 7.41211 4.36523 7.41211C4.01367 7.41211 3.79883 7.17773 3.79883 6.80664C3.79883 6.68945 3.81836 6.57227 3.83789 6.44531C4.10156 5.41992 5.16602 4.6582 6.36719 4.6582C7.94922 4.6582 8.97461 5.54688 8.97461 6.95312C8.97461 7.95898 8.42773 8.68164 7.67578 9.55078L5.71289 11.8457L5.71289 11.9141L8.63281 11.9141C8.94531 11.9141 9.18945 12.1289 9.18945 12.5C9.18945 12.8613 8.94531 13.1055 8.63281 13.1055ZM13.2324 13.2129C12.8516 13.2129 12.6074 12.9688 12.6074 12.5684L12.6074 6.32812L12.5488 6.32812L11.4746 7.11914C11.25 7.29492 11.1523 7.30469 10.9863 7.30469C10.6934 7.30469 10.4102 7.04102 10.4102 6.69922C10.4102 6.43555 10.5371 6.25977 10.752 6.10352L12.2754 5.05859C12.627 4.81445 12.832 4.7168 13.1641 4.7168C13.584 4.7168 13.877 5.01953 13.877 5.43945L13.877 12.5684C13.877 12.9688 13.623 13.2129 13.2324 13.2129Z" fill="#ffffff"/>
 </g>
</svg>
