<?xml version="1.0" encoding="UTF-8"?>
<!--Generator: Apple Native CoreSVG 175.5-->
<!DOCTYPE svg
PUBLIC "-//W3C//DTD SVG 1.1//EN"
       "http://www.w3.org/Graphics/SVG/1.1/DTD/svg11.dtd">
<svg version="1.1" xmlns="http://www.w3.org/2000/svg" xmlns:xlink="http://www.w3.org/1999/xlink" width="19.9219" height="19.9316">
 <g>
  <rect height="19.9316" opacity="0" width="19.9219" x="0" y="0"/>
  <path d="M9.96094 19.9219C15.4102 19.9219 19.9219 15.4004 19.9219 9.96094C19.9219 4.51172 15.4004 0 9.95117 0C4.51172 0 0 4.51172 0 9.96094C0 15.4004 4.52148 19.9219 9.96094 19.9219Z" fill="#000000" fill-opacity="0.85"/>
  <path d="M4.79492 14.0723C4.43359 14.0723 4.19922 13.8379 4.19922 13.4766C4.19922 13.2715 4.26758 13.1055 4.42383 12.9297L7.08008 9.81445C7.55859 9.24805 8.08594 8.69141 8.08594 8.02734C8.08594 7.28516 7.56836 6.78711 6.74805 6.78711C6.03516 6.78711 5.52734 7.1582 5.27344 7.91016C5.13672 8.21289 4.99023 8.38867 4.69727 8.38867C4.3457 8.38867 4.13086 8.14453 4.13086 7.77344C4.13086 7.65625 4.15039 7.54883 4.16992 7.41211C4.43359 6.38672 5.49805 5.625 6.69922 5.625C8.28125 5.625 9.30664 6.52344 9.30664 7.91992C9.30664 8.92578 8.75977 9.6582 8.00781 10.5176L6.04492 12.8125L6.04492 12.8809L8.96484 12.8809C9.27734 12.8809 9.52148 13.0957 9.52148 13.4668C9.52148 13.8281 9.27734 14.0723 8.96484 14.0723ZM11.4844 14.0723C11.123 14.0723 10.8887 13.8379 10.8887 13.4766C10.8887 13.2715 10.957 13.1055 11.1133 12.9297L13.7695 9.81445C14.248 9.24805 14.7754 8.69141 14.7754 8.02734C14.7754 7.28516 14.248 6.78711 13.4375 6.78711C12.7148 6.78711 12.2168 7.1582 11.9531 7.91016C11.8164 8.21289 11.6699 8.38867 11.377 8.38867C11.0352 8.38867 10.8203 8.14453 10.8203 7.77344C10.8203 7.65625 10.8398 7.54883 10.8594 7.41211C11.123 6.38672 12.1875 5.625 13.3887 5.625C14.9707 5.625 15.9961 6.52344 15.9961 7.91992C15.9961 8.92578 15.4395 9.6582 14.6973 10.5176L12.7344 12.8125L12.7344 12.8809L15.6445 12.8809C15.9668 12.8809 16.2109 13.0957 16.2109 13.4668C16.2109 13.8281 15.9668 14.0723 15.6445 14.0723Z" fill="#ffffff"/>
 </g>
</svg>
