<?xml version="1.0" encoding="UTF-8"?>
<!--Generator: Apple Native CoreSVG 175.5-->
<!DOCTYPE svg
PUBLIC "-//W3C//DTD SVG 1.1//EN"
       "http://www.w3.org/Graphics/SVG/1.1/DTD/svg11.dtd">
<svg version="1.1" xmlns="http://www.w3.org/2000/svg" xmlns:xlink="http://www.w3.org/1999/xlink" width="17.9785" height="17.998">
 <g>
  <rect height="17.998" opacity="0" width="17.9785" x="0" y="0"/>
  <path d="M3.06641 17.998L14.9121 17.998C16.9629 17.998 17.9785 16.9824 17.9785 14.9707L17.9785 3.04688C17.9785 1.03516 16.9629 0.0195312 14.9121 0.0195312L3.06641 0.0195312C1.02539 0.0195312 0 1.02539 0 3.04688L0 14.9707C0 16.9922 1.02539 17.998 3.06641 17.998Z" fill="#000000" fill-opacity="0.85"/>
  <path d="M3.82812 13.1055C3.4668 13.1055 3.24219 12.8711 3.24219 12.5098C3.24219 12.3047 3.30078 12.1387 3.45703 11.9629L6.11328 8.84766C6.5918 8.28125 7.11914 7.72461 7.11914 7.06055C7.11914 6.31836 6.60156 5.82031 5.78125 5.82031C5.06836 5.82031 4.56055 6.19141 4.30664 6.94336C4.17969 7.24609 4.02344 7.42188 3.73047 7.42188C3.37891 7.42188 3.16406 7.17773 3.16406 6.80664C3.16406 6.68945 3.18359 6.58203 3.21289 6.44531C3.4668 5.41992 4.53125 4.6582 5.73242 4.6582C7.31445 4.6582 8.33984 5.55664 8.33984 6.95312C8.33984 7.95898 7.79297 8.69141 7.04102 9.55078L5.07812 11.8457L5.07812 11.9141L7.99805 11.9141C8.31055 11.9141 8.55469 12.1289 8.55469 12.5C8.55469 12.8613 8.31055 13.1055 7.99805 13.1055ZM10.5176 13.1055C10.1562 13.1055 9.92188 12.8711 9.92188 12.5098C9.92188 12.3047 9.99023 12.1387 10.1465 11.9629L12.8027 8.84766C13.2812 8.28125 13.8086 7.72461 13.8086 7.06055C13.8086 6.31836 13.2812 5.82031 12.4707 5.82031C11.748 5.82031 11.25 6.19141 10.9961 6.94336C10.8496 7.24609 10.7031 7.42188 10.4102 7.42188C10.0684 7.42188 9.85352 7.17773 9.85352 6.80664C9.85352 6.68945 9.87305 6.58203 9.89258 6.44531C10.1562 5.41992 11.2207 4.6582 12.4219 4.6582C14.0039 4.6582 15.0293 5.55664 15.0293 6.95312C15.0293 7.95898 14.4727 8.69141 13.7305 9.55078L11.7676 11.8457L11.7676 11.9141L14.6875 11.9141C15 11.9141 15.2441 12.1289 15.2441 12.5C15.2441 12.8613 15 13.1055 14.6875 13.1055Z" fill="#ffffff"/>
 </g>
</svg>
