<?xml version="1.0" encoding="UTF-8"?>
<!--Generator: Apple Native CoreSVG 175.5-->
<!DOCTYPE svg
PUBLIC "-//W3C//DTD SVG 1.1//EN"
       "http://www.w3.org/Graphics/SVG/1.1/DTD/svg11.dtd">
<svg version="1.1" xmlns="http://www.w3.org/2000/svg" xmlns:xlink="http://www.w3.org/1999/xlink" width="19.9219" height="19.9316">
 <g>
  <rect height="19.9316" opacity="0" width="19.9219" x="0" y="0"/>
  <path d="M9.96094 19.9219C15.4102 19.9219 19.9219 15.4004 19.9219 9.96094C19.9219 4.51172 15.4004 0 9.95117 0C4.51172 0 0 4.51172 0 9.96094C0 15.4004 4.52148 19.9219 9.96094 19.9219Z" fill="#000000" fill-opacity="0.85"/>
  <path d="M4.77539 14.0723C4.41406 14.0723 4.17969 13.8379 4.17969 13.4766C4.17969 13.2715 4.24805 13.0957 4.4043 12.9297L7.06055 9.80469C7.53906 9.24805 8.06641 8.68164 8.06641 8.02734C8.06641 7.28516 7.53906 6.78711 6.72852 6.78711C6.01562 6.78711 5.50781 7.14844 5.25391 7.91016C5.10742 8.21289 4.9707 8.37891 4.67773 8.37891C4.32617 8.37891 4.11133 8.13477 4.11133 7.77344C4.11133 7.65625 4.13086 7.53906 4.15039 7.41211C4.41406 6.38672 5.47852 5.61523 6.67969 5.61523C8.26172 5.61523 9.28711 6.51367 9.28711 7.91992C9.28711 8.92578 8.73047 9.64844 7.98828 10.5176L6.02539 12.8027L6.02539 12.8809L8.94531 12.8809C9.25781 12.8809 9.50195 13.0859 9.50195 13.4668C9.50195 13.8281 9.25781 14.0723 8.94531 14.0723ZM13.4668 14.3066C12.0996 14.3066 11.0156 13.4668 10.752 12.5391C10.7129 12.4121 10.7031 12.3047 10.7031 12.168C10.7031 11.8164 10.9473 11.5625 11.2891 11.5625C11.5723 11.5625 11.748 11.7188 11.8652 12.041C12.1387 12.7441 12.6855 13.1348 13.4766 13.1348C14.4434 13.1348 15.1074 12.5488 15.1074 11.7676C15.1074 10.9473 14.502 10.4102 13.5352 10.4102L12.959 10.4102C12.6172 10.4102 12.4023 10.1562 12.4023 9.83398C12.4023 9.46289 12.6172 9.22852 12.959 9.22852L13.4961 9.22852C14.2871 9.22852 14.8535 8.70117 14.8535 7.96875C14.8535 7.26562 14.2969 6.78711 13.5059 6.78711C12.7246 6.78711 12.2363 7.17773 12.0117 7.88086C11.9043 8.20312 11.7578 8.35938 11.4551 8.35938C11.1035 8.35938 10.8691 8.10547 10.8691 7.74414C10.8691 7.61719 10.8789 7.50977 10.8984 7.38281C11.1621 6.39648 12.168 5.61523 13.5352 5.61523C15.0391 5.61523 16.0938 6.51367 16.0938 7.80273C16.0938 8.75 15.4395 9.58984 14.6191 9.72656L14.6191 9.78516C15.6348 9.89258 16.3672 10.752 16.3672 11.8262C16.3672 13.2715 15.1758 14.3066 13.4668 14.3066Z" fill="#ffffff"/>
 </g>
</svg>
