<?xml version="1.0" encoding="UTF-8"?>
<!--Generator: Apple Native CoreSVG 175.5-->
<!DOCTYPE svg
PUBLIC "-//W3C//DTD SVG 1.1//EN"
       "http://www.w3.org/Graphics/SVG/1.1/DTD/svg11.dtd">
<svg version="1.1" xmlns="http://www.w3.org/2000/svg" xmlns:xlink="http://www.w3.org/1999/xlink" width="17.9785" height="17.998">
 <g>
  <rect height="17.998" opacity="0" width="17.9785" x="0" y="0"/>
  <path d="M3.06641 17.998L14.9121 17.998C16.9629 17.998 17.9785 16.9824 17.9785 14.9707L17.9785 3.04688C17.9785 1.03516 16.9629 0.0195312 14.9121 0.0195312L3.06641 0.0195312C1.02539 0.0195312 0 1.02539 0 3.04688L0 14.9707C0 16.9922 1.02539 17.998 3.06641 17.998ZM3.08594 16.4258C2.10938 16.4258 1.57227 15.9082 1.57227 14.8926L1.57227 3.125C1.57227 2.10938 2.10938 1.5918 3.08594 1.5918L14.8926 1.5918C15.8594 1.5918 16.4062 2.10938 16.4062 3.125L16.4062 14.8926C16.4062 15.9082 15.8594 16.4258 14.8926 16.4258Z" fill="#000000" fill-opacity="0.85"/>
  <path d="M3.96484 12.9785L8.00781 12.9785C8.31055 12.9785 8.54492 12.7441 8.54492 12.3926C8.54492 12.0312 8.31055 11.8262 8.00781 11.8262L5.16602 11.8262L5.16602 11.7578L7.08008 9.53125C7.80273 8.69141 8.33984 7.98828 8.33984 7.01172C8.33984 5.6543 7.34375 4.78516 5.81055 4.78516C4.64844 4.78516 3.61328 5.52734 3.36914 6.52344C3.33984 6.65039 3.32031 6.75781 3.32031 6.875C3.32031 7.22656 3.52539 7.46094 3.86719 7.46094C4.15039 7.46094 4.29688 7.29492 4.42383 7.00195C4.66797 6.26953 5.16602 5.9082 5.85938 5.9082C6.65039 5.9082 7.1582 6.39648 7.1582 7.11914C7.1582 7.75391 6.65039 8.30078 6.18164 8.84766L3.60352 11.875C3.45703 12.041 3.39844 12.207 3.39844 12.4023C3.39844 12.7539 3.61328 12.9785 3.96484 12.9785ZM12.3926 13.2031C14.0527 13.2031 15.2051 12.207 15.2051 10.8008C15.2051 9.76562 14.4922 8.92578 13.5059 8.82812L13.5059 8.76953C14.3066 8.63281 14.9414 7.82227 14.9414 6.9043C14.9414 5.6543 13.916 4.78516 12.4609 4.78516C11.1426 4.78516 10.1562 5.53711 9.90234 6.49414C9.88281 6.62109 9.88281 6.71875 9.88281 6.8457C9.88281 7.19727 10.0977 7.44141 10.4395 7.44141C10.7324 7.44141 10.8887 7.28516 10.9766 6.97266C11.1914 6.28906 11.6699 5.9082 12.4316 5.9082C13.2031 5.9082 13.7402 6.37695 13.7402 7.06055C13.7402 7.77344 13.2031 8.29102 12.4219 8.29102L11.8945 8.29102C11.5723 8.29102 11.3574 8.51562 11.3574 8.86719C11.3574 9.17969 11.5723 9.42383 11.8945 9.42383L12.4707 9.42383C13.3984 9.42383 13.9941 9.95117 13.9941 10.7422C13.9941 11.5039 13.3398 12.0801 12.4023 12.0801C11.6309 12.0801 11.1035 11.6992 10.8398 11.0156C10.7227 10.7031 10.5566 10.5469 10.2832 10.5469C9.95117 10.5469 9.7168 10.791 9.7168 11.1328C9.7168 11.2695 9.73633 11.3672 9.76562 11.4941C10.0195 12.3926 11.0645 13.2031 12.3926 13.2031Z" fill="#000000" fill-opacity="0.85"/>
 </g>
</svg>
