<?xml version="1.0" encoding="UTF-8"?>
<!--Generator: Apple Native CoreSVG 175.5-->
<!DOCTYPE svg
PUBLIC "-//W3C//DTD SVG 1.1//EN"
       "http://www.w3.org/Graphics/SVG/1.1/DTD/svg11.dtd">
<svg version="1.1" xmlns="http://www.w3.org/2000/svg" xmlns:xlink="http://www.w3.org/1999/xlink" width="19.9219" height="19.9316">
 <g>
  <rect height="19.9316" opacity="0" width="19.9219" x="0" y="0"/>
  <path d="M9.96094 19.9219C15.4102 19.9219 19.9219 15.4004 19.9219 9.96094C19.9219 4.51172 15.4004 0 9.95117 0C4.51172 0 0 4.51172 0 9.96094C0 15.4004 4.52148 19.9219 9.96094 19.9219ZM9.96094 18.2617C5.35156 18.2617 1.66992 14.5703 1.66992 9.96094C1.66992 5.35156 5.3418 1.66016 9.95117 1.66016C14.5605 1.66016 18.2617 5.35156 18.2617 9.96094C18.2617 14.5703 14.5703 18.2617 9.96094 18.2617Z" fill="#000000" fill-opacity="0.85"/>
  <path d="M4.93164 13.9453L8.97461 13.9453C9.28711 13.9453 9.52148 13.7109 9.52148 13.3594C9.52148 12.998 9.28711 12.793 8.97461 12.793L6.13281 12.793L6.13281 12.7246L8.05664 10.498C8.76953 9.6582 9.30664 8.95508 9.30664 7.97852C9.30664 6.62109 8.32031 5.75195 6.78711 5.75195C5.625 5.75195 4.58984 6.49414 4.33594 7.49023C4.31641 7.61719 4.28711 7.72461 4.28711 7.8418C4.28711 8.19336 4.49219 8.42773 4.83398 8.42773C5.11719 8.42773 5.26367 8.26172 5.39062 7.96875C5.64453 7.23633 6.13281 6.875 6.83594 6.875C7.61719 6.875 8.13477 7.36328 8.13477 8.08594C8.13477 8.7207 7.61719 9.26758 7.1582 9.81445L4.58008 12.8418C4.42383 13.0078 4.36523 13.1738 4.36523 13.3691C4.36523 13.7207 4.58984 13.9453 4.93164 13.9453ZM14.541 14.1504C14.9414 14.1504 15.1465 13.877 15.1465 13.4961L15.1465 12.3438L15.6738 12.3438C16.0059 12.3438 16.2207 12.1484 16.2207 11.8066C16.2207 11.4551 16.0059 11.25 15.6738 11.25L15.1465 11.25L15.1465 6.67969C15.1465 6.11328 14.7461 5.75195 14.1797 5.75195C13.6133 5.75195 13.2617 5.9668 12.9492 6.50391C12.1289 7.87109 11.1426 9.55078 10.4883 10.7324C10.332 11.0352 10.2734 11.25 10.2734 11.5137C10.2734 12.0312 10.6152 12.3438 11.1133 12.3438L13.9551 12.3438L13.9551 13.4961C13.9551 13.8672 14.1602 14.1504 14.541 14.1504ZM13.9551 11.25L11.5527 11.25L11.5527 11.2109C12.1289 10.1074 13.125 8.38867 13.9062 7.07031L13.9551 7.07031Z" fill="#000000" fill-opacity="0.85"/>
 </g>
</svg>
