<?xml version="1.0" encoding="UTF-8"?>
<!--Generator: Apple Native CoreSVG 175.5-->
<!DOCTYPE svg
PUBLIC "-//W3C//DTD SVG 1.1//EN"
       "http://www.w3.org/Graphics/SVG/1.1/DTD/svg11.dtd">
<svg version="1.1" xmlns="http://www.w3.org/2000/svg" xmlns:xlink="http://www.w3.org/1999/xlink" width="19.9219" height="19.9316">
 <g>
  <rect height="19.9316" opacity="0" width="19.9219" x="0" y="0"/>
  <path d="M9.96094 19.9219C15.4102 19.9219 19.9219 15.4004 19.9219 9.96094C19.9219 4.51172 15.4004 0 9.95117 0C4.51172 0 0 4.51172 0 9.96094C0 15.4004 4.52148 19.9219 9.96094 19.9219Z" fill="#000000" fill-opacity="0.85"/>
  <path d="M4.78516 14.0723C4.43359 14.0723 4.19922 13.8379 4.19922 13.4766C4.19922 13.2715 4.25781 13.0957 4.42383 12.9297L7.08008 9.80469C7.54883 9.24805 8.08594 8.68164 8.08594 8.02734C8.08594 7.28516 7.54883 6.78711 6.74805 6.78711C6.02539 6.78711 5.52734 7.14844 5.26367 7.91016C5.12695 8.21289 4.98047 8.37891 4.6875 8.37891C4.3457 8.37891 4.12109 8.13477 4.12109 7.77344C4.12109 7.65625 4.15039 7.53906 4.16992 7.41211C4.43359 6.38672 5.49805 5.61523 6.69922 5.61523C8.28125 5.61523 9.29688 6.51367 9.29688 7.91992C9.29688 8.92578 8.74023 9.64844 8.00781 10.5176L6.02539 12.8027L6.02539 12.8809L8.95508 12.8809C9.27734 12.8809 9.52148 13.0859 9.52148 13.4668C9.52148 13.8281 9.27734 14.0723 8.95508 14.0723ZM14.6973 14.2871C14.2969 14.2871 14.0918 13.9941 14.0918 13.6035L14.0918 12.4219L11.1621 12.4219C10.6445 12.4219 10.293 12.0996 10.293 11.5625C10.293 11.2891 10.3516 11.0645 10.5176 10.752C11.1914 9.53125 12.1973 7.8125 13.0469 6.39648C13.3691 5.83984 13.7305 5.61523 14.3164 5.61523C14.9121 5.61523 15.3125 5.99609 15.3125 6.58203L15.3125 11.2891L15.8594 11.2891C16.2012 11.2891 16.4258 11.5039 16.4258 11.8652C16.4258 12.2168 16.2012 12.4219 15.8594 12.4219L15.3125 12.4219L15.3125 13.6035C15.3125 14.0039 15.1074 14.2871 14.6973 14.2871ZM14.0918 11.2891L14.0918 6.98242L14.0332 6.98242C13.2324 8.34961 12.2168 10.1074 11.6211 11.25L11.6211 11.2891Z" fill="#ffffff"/>
 </g>
</svg>
