<?xml version="1.0" encoding="UTF-8"?>
<!--Generator: Apple Native CoreSVG 175.5-->
<!DOCTYPE svg
PUBLIC "-//W3C//DTD SVG 1.1//EN"
       "http://www.w3.org/Graphics/SVG/1.1/DTD/svg11.dtd">
<svg version="1.1" xmlns="http://www.w3.org/2000/svg" xmlns:xlink="http://www.w3.org/1999/xlink" width="17.9785" height="17.998">
 <g>
  <rect height="17.998" opacity="0" width="17.9785" x="0" y="0"/>
  <path d="M3.06641 17.998L14.9121 17.998C16.9629 17.998 17.9785 16.9824 17.9785 14.9707L17.9785 3.04688C17.9785 1.03516 16.9629 0.0195312 14.9121 0.0195312L3.06641 0.0195312C1.02539 0.0195312 0 1.02539 0 3.04688L0 14.9707C0 16.9922 1.02539 17.998 3.06641 17.998ZM3.08594 16.4258C2.10938 16.4258 1.57227 15.9082 1.57227 14.8926L1.57227 3.125C1.57227 2.10938 2.10938 1.5918 3.08594 1.5918L14.8926 1.5918C15.8594 1.5918 16.4062 2.10938 16.4062 3.125L16.4062 14.8926C16.4062 15.9082 15.8594 16.4258 14.8926 16.4258Z" fill="#000000" fill-opacity="0.85"/>
  <path d="M3.98438 12.9785L8.01758 12.9785C8.33008 12.9785 8.56445 12.7441 8.56445 12.3926C8.56445 12.0312 8.33008 11.8262 8.01758 11.8262L5.17578 11.8262L5.17578 11.7578L7.09961 9.53125C7.82227 8.69141 8.35938 7.98828 8.35938 7.01172C8.35938 5.6543 7.36328 4.78516 5.83008 4.78516C4.66797 4.78516 3.63281 5.52734 3.37891 6.52344C3.35938 6.65039 3.33008 6.75781 3.33008 6.875C3.33008 7.22656 3.54492 7.46094 3.87695 7.46094C4.16016 7.46094 4.30664 7.29492 4.43359 7.00195C4.6875 6.26953 5.17578 5.9082 5.87891 5.9082C6.66016 5.9082 7.17773 6.39648 7.17773 7.11914C7.17773 7.75391 6.66016 8.30078 6.20117 8.84766L3.62305 11.875C3.47656 12.041 3.4082 12.207 3.4082 12.4023C3.4082 12.7539 3.63281 12.9785 3.98438 12.9785ZM13.584 13.1836C13.9844 13.1836 14.1895 12.9102 14.1895 12.5293L14.1895 11.377L14.7168 11.377C15.0488 11.377 15.2637 11.1816 15.2637 10.8398C15.2637 10.4883 15.0488 10.2832 14.7168 10.2832L14.1895 10.2832L14.1895 5.71289C14.1895 5.14648 13.7891 4.78516 13.2227 4.78516C12.6562 4.78516 12.3145 5 11.9922 5.53711C11.1816 6.9043 10.1953 8.58398 9.53125 9.76562C9.375 10.0684 9.31641 10.2832 9.31641 10.5469C9.31641 11.0645 9.6582 11.377 10.1562 11.377L13.0078 11.377L13.0078 12.5293C13.0078 12.9004 13.2031 13.1836 13.584 13.1836ZM13.0078 10.2832L10.5957 10.2832L10.5957 10.2441C11.1719 9.14062 12.1777 7.42188 12.9492 6.10352L13.0078 6.10352Z" fill="#000000" fill-opacity="0.85"/>
 </g>
</svg>
