<?xml version="1.0" encoding="UTF-8"?>
<!--Generator: Apple Native CoreSVG 175.5-->
<!DOCTYPE svg
PUBLIC "-//W3C//DTD SVG 1.1//EN"
       "http://www.w3.org/Graphics/SVG/1.1/DTD/svg11.dtd">
<svg version="1.1" xmlns="http://www.w3.org/2000/svg" xmlns:xlink="http://www.w3.org/1999/xlink" width="19.9219" height="19.9316">
 <g>
  <rect height="19.9316" opacity="0" width="19.9219" x="0" y="0"/>
  <path d="M9.96094 19.9219C15.4102 19.9219 19.9219 15.4004 19.9219 9.96094C19.9219 4.51172 15.4004 0 9.95117 0C4.51172 0 0 4.51172 0 9.96094C0 15.4004 4.52148 19.9219 9.96094 19.9219Z" fill="#000000" fill-opacity="0.85"/>
  <path d="M4.69727 14.0723C4.33594 14.0723 4.10156 13.8379 4.10156 13.4766C4.10156 13.2715 4.16992 13.0957 4.32617 12.9297L6.98242 9.80469C7.46094 9.24805 7.98828 8.68164 7.98828 8.02734C7.98828 7.28516 7.46094 6.78711 6.65039 6.78711C5.92773 6.78711 5.42969 7.14844 5.17578 7.91016C5.03906 8.21289 4.88281 8.37891 4.59961 8.37891C4.24805 8.37891 4.0332 8.13477 4.0332 7.77344C4.0332 7.65625 4.05273 7.53906 4.07227 7.41211C4.33594 6.38672 5.40039 5.61523 6.60156 5.61523C8.18359 5.61523 9.20898 6.51367 9.20898 7.91992C9.20898 8.92578 8.65234 9.64844 7.91016 10.5176L5.94727 12.8027L5.94727 12.8809L8.86719 12.8809C9.17969 12.8809 9.42383 13.0859 9.42383 13.4668C9.42383 13.8281 9.17969 14.0723 8.86719 14.0723ZM13.291 14.3066C12.0312 14.3066 11.0352 13.6426 10.7324 12.8027C10.6738 12.666 10.6348 12.5098 10.6348 12.3438C10.6348 12.0117 10.8691 11.7578 11.2109 11.7578C11.4453 11.7578 11.6406 11.9043 11.7871 12.1973C12.0801 12.8027 12.666 13.1641 13.3496 13.1641C14.3262 13.1641 14.9805 12.5293 14.9805 11.4746C14.9805 10.5469 14.3848 9.84375 13.5059 9.84375C13.0566 9.84375 12.7441 9.99023 12.3242 10.3516C12.002 10.6152 11.8164 10.7031 11.5039 10.7031C11.0449 10.7031 10.7617 10.3516 10.8008 9.82422L11.0449 6.68945C11.084 6.15234 11.4258 5.83008 11.9629 5.83008L15.4199 5.83008C15.7129 5.83008 15.918 6.07422 15.918 6.39648C15.918 6.72852 15.7031 6.96289 15.4199 6.96289L12.0898 6.96289L11.9043 9.55078L11.9434 9.55078C12.2461 9.0918 12.9688 8.75977 13.6426 8.75977C15.1953 8.75977 16.2402 9.89258 16.2402 11.4453C16.2402 13.2129 15.0586 14.3066 13.291 14.3066Z" fill="#ffffff"/>
 </g>
</svg>
