<?xml version="1.0" encoding="UTF-8"?>
<!--Generator: Apple Native CoreSVG 175.5-->
<!DOCTYPE svg
PUBLIC "-//W3C//DTD SVG 1.1//EN"
       "http://www.w3.org/Graphics/SVG/1.1/DTD/svg11.dtd">
<svg version="1.1" xmlns="http://www.w3.org/2000/svg" xmlns:xlink="http://www.w3.org/1999/xlink" width="17.9785" height="17.998">
 <g>
  <rect height="17.998" opacity="0" width="17.9785" x="0" y="0"/>
  <path d="M3.06641 17.998L14.9121 17.998C16.9629 17.998 17.9785 16.9824 17.9785 14.9707L17.9785 3.04688C17.9785 1.03516 16.9629 0.0195312 14.9121 0.0195312L3.06641 0.0195312C1.02539 0.0195312 0 1.02539 0 3.04688L0 14.9707C0 16.9922 1.02539 17.998 3.06641 17.998ZM3.08594 16.4258C2.10938 16.4258 1.57227 15.9082 1.57227 14.8926L1.57227 3.125C1.57227 2.10938 2.10938 1.5918 3.08594 1.5918L14.8926 1.5918C15.8594 1.5918 16.4062 2.10938 16.4062 3.125L16.4062 14.8926C16.4062 15.9082 15.8594 16.4258 14.8926 16.4258Z" fill="#000000" fill-opacity="0.85"/>
  <path d="M3.80859 12.9785L7.85156 12.9785C8.1543 12.9785 8.38867 12.7441 8.38867 12.3926C8.38867 12.0312 8.1543 11.8262 7.85156 11.8262L5.00977 11.8262L5.00977 11.7578L6.92383 9.53125C7.64648 8.69141 8.18359 7.98828 8.18359 7.01172C8.18359 5.6543 7.1875 4.78516 5.6543 4.78516C4.49219 4.78516 3.45703 5.52734 3.20312 6.52344C3.18359 6.65039 3.16406 6.75781 3.16406 6.875C3.16406 7.22656 3.36914 7.46094 3.71094 7.46094C3.99414 7.46094 4.14062 7.29492 4.26758 7.00195C4.51172 6.26953 5.00977 5.9082 5.70312 5.9082C6.49414 5.9082 7.00195 6.39648 7.00195 7.11914C7.00195 7.75391 6.49414 8.30078 6.02539 8.84766L3.44727 11.875C3.30078 12.041 3.23242 12.207 3.23242 12.4023C3.23242 12.7539 3.45703 12.9785 3.80859 12.9785ZM12.3438 13.2129C13.9258 13.2129 15.0586 12.168 15.0586 10.3809C15.0586 8.70117 13.9062 7.77344 12.6367 7.77344C11.6016 7.77344 10.9375 8.35938 10.7031 9.00391L10.6348 9.00391C10.6348 8.97461 10.6348 8.95508 10.6348 8.91602C10.6348 7.07031 11.377 5.9082 12.4805 5.9082C13.0371 5.9082 13.4375 6.18164 13.6816 6.5625C13.8477 6.80664 13.9941 6.92383 14.2676 6.92383C14.5312 6.92383 14.7461 6.70898 14.7461 6.38672C14.7461 6.25977 14.7266 6.14258 14.668 6.01562C14.4238 5.36133 13.6426 4.78516 12.5293 4.78516C10.6445 4.78516 9.48242 6.25 9.48242 9.21875C9.48242 10.4102 9.67773 11.2793 10.0098 11.8945C10.5078 12.832 11.3477 13.2129 12.3438 13.2129ZM12.2852 12.1387C11.377 12.1387 10.7422 11.4258 10.7422 10.4199C10.7422 9.46289 11.3672 8.7793 12.2852 8.7793C13.2031 8.7793 13.8281 9.45312 13.8281 10.4297C13.8281 11.4746 13.2227 12.1387 12.2852 12.1387Z" fill="#000000" fill-opacity="0.85"/>
 </g>
</svg>
