<?xml version="1.0" encoding="UTF-8"?>
<!--Generator: Apple Native CoreSVG 175.5-->
<!DOCTYPE svg
PUBLIC "-//W3C//DTD SVG 1.1//EN"
       "http://www.w3.org/Graphics/SVG/1.1/DTD/svg11.dtd">
<svg version="1.1" xmlns="http://www.w3.org/2000/svg" xmlns:xlink="http://www.w3.org/1999/xlink" width="17.9785" height="17.998">
 <g>
  <rect height="17.998" opacity="0" width="17.9785" x="0" y="0"/>
  <path d="M3.06641 17.998L14.9121 17.998C16.9629 17.998 17.9785 16.9824 17.9785 14.9707L17.9785 3.04688C17.9785 1.03516 16.9629 0.0195312 14.9121 0.0195312L3.06641 0.0195312C1.02539 0.0195312 0 1.02539 0 3.04688L0 14.9707C0 16.9922 1.02539 17.998 3.06641 17.998Z" fill="#000000" fill-opacity="0.85"/>
  <path d="M3.64258 13.1055C3.28125 13.1055 3.04688 12.8711 3.04688 12.5098C3.04688 12.3047 3.11523 12.1289 3.27148 11.9629L5.92773 8.83789C6.40625 8.28125 6.93359 7.71484 6.93359 7.06055C6.93359 6.31836 6.40625 5.82031 5.5957 5.82031C4.88281 5.82031 4.375 6.18164 4.12109 6.94336C3.98438 7.24609 3.83789 7.41211 3.54492 7.41211C3.19336 7.41211 2.97852 7.16797 2.97852 6.80664C2.97852 6.68945 2.99805 6.57227 3.02734 6.44531C3.28125 5.41992 4.3457 4.64844 5.54688 4.64844C7.12891 4.64844 8.1543 5.54688 8.1543 6.95312C8.1543 7.95898 7.59766 8.68164 6.85547 9.55078L4.89258 11.8359L4.89258 11.9141L7.8125 11.9141C8.125 11.9141 8.36914 12.1191 8.36914 12.5C8.36914 12.8613 8.125 13.1055 7.8125 13.1055ZM12.4414 13.3496C11.416 13.3496 10.5566 12.959 10.0391 11.9824C9.69727 11.3574 9.49219 10.459 9.49219 9.22852C9.49219 6.16211 10.6934 4.64844 12.6367 4.64844C13.7793 4.64844 14.5898 5.24414 14.8438 5.91797C14.9023 6.05469 14.9219 6.17188 14.9219 6.30859C14.9219 6.64062 14.6973 6.86523 14.4238 6.86523C14.1406 6.86523 13.9941 6.73828 13.8184 6.48438C13.5645 6.09375 13.1543 5.82031 12.5879 5.82031C11.4551 5.82031 10.6836 7.01172 10.6836 8.90625C10.6836 8.95508 10.6836 8.97461 10.6836 9.00391L10.7617 9.00391C10.9961 8.33984 11.6797 7.73438 12.7539 7.73438C14.0527 7.73438 15.2441 8.69141 15.2441 10.4199C15.2441 12.2656 14.0723 13.3496 12.4414 13.3496ZM12.3828 12.2363C13.3496 12.2363 13.9746 11.5527 13.9746 10.4785C13.9746 9.47266 13.3301 8.7793 12.3828 8.7793C11.4453 8.7793 10.8008 9.48242 10.8008 10.4688C10.8008 11.5039 11.4551 12.2363 12.3828 12.2363Z" fill="#ffffff"/>
 </g>
</svg>
