<?xml version="1.0" encoding="UTF-8"?>
<!--Generator: Apple Native CoreSVG 175.5-->
<!DOCTYPE svg
PUBLIC "-//W3C//DTD SVG 1.1//EN"
       "http://www.w3.org/Graphics/SVG/1.1/DTD/svg11.dtd">
<svg version="1.1" xmlns="http://www.w3.org/2000/svg" xmlns:xlink="http://www.w3.org/1999/xlink" width="17.9785" height="17.998">
 <g>
  <rect height="17.998" opacity="0" width="17.9785" x="0" y="0"/>
  <path d="M3.06641 17.998L14.9121 17.998C16.9629 17.998 17.9785 16.9824 17.9785 14.9707L17.9785 3.04688C17.9785 1.03516 16.9629 0.0195312 14.9121 0.0195312L3.06641 0.0195312C1.02539 0.0195312 0 1.02539 0 3.04688L0 14.9707C0 16.9922 1.02539 17.998 3.06641 17.998ZM3.08594 16.4258C2.10938 16.4258 1.57227 15.9082 1.57227 14.8926L1.57227 3.125C1.57227 2.10938 2.10938 1.5918 3.08594 1.5918L14.8926 1.5918C15.8594 1.5918 16.4062 2.10938 16.4062 3.125L16.4062 14.8926C16.4062 15.9082 15.8594 16.4258 14.8926 16.4258Z" fill="#000000" fill-opacity="0.85"/>
  <path d="M4.0918 12.9785L8.13477 12.9785C8.4375 12.9785 8.67188 12.7441 8.67188 12.3926C8.67188 12.0312 8.4375 11.8262 8.13477 11.8262L5.29297 11.8262L5.29297 11.7578L7.20703 9.53125C7.92969 8.69141 8.4668 7.98828 8.4668 7.01172C8.4668 5.6543 7.4707 4.78516 5.9375 4.78516C4.77539 4.78516 3.74023 5.52734 3.48633 6.52344C3.4668 6.65039 3.44727 6.75781 3.44727 6.875C3.44727 7.22656 3.65234 7.46094 3.99414 7.46094C4.26758 7.46094 4.41406 7.29492 4.55078 7.00195C4.79492 6.26953 5.2832 5.9082 5.98633 5.9082C6.77734 5.9082 7.28516 6.39648 7.28516 7.11914C7.28516 7.75391 6.77734 8.30078 6.30859 8.84766L3.73047 11.875C3.58398 12.041 3.51562 12.207 3.51562 12.4023C3.51562 12.7539 3.74023 12.9785 4.0918 12.9785ZM11.1914 13.0957C11.4551 13.0957 11.6406 12.9492 11.8164 12.6172L14.8633 6.52344C15.0098 6.21094 15.0488 6.03516 15.0488 5.83008C15.0488 5.35156 14.707 4.98047 14.1797 4.98047L10.2344 4.98047C9.90234 4.98047 9.67773 5.20508 9.67773 5.53711C9.67773 5.85938 9.90234 6.07422 10.2344 6.07422L13.6719 6.07422L13.6719 6.15234L10.6445 12.0117C10.5566 12.1582 10.5371 12.2754 10.5371 12.4609C10.5371 12.832 10.8203 13.0957 11.1914 13.0957Z" fill="#000000" fill-opacity="0.85"/>
 </g>
</svg>
