<?xml version="1.0" encoding="UTF-8"?>
<!--Generator: Apple Native CoreSVG 175.5-->
<!DOCTYPE svg
PUBLIC "-//W3C//DTD SVG 1.1//EN"
       "http://www.w3.org/Graphics/SVG/1.1/DTD/svg11.dtd">
<svg version="1.1" xmlns="http://www.w3.org/2000/svg" xmlns:xlink="http://www.w3.org/1999/xlink" width="19.9219" height="19.9316">
 <g>
  <rect height="19.9316" opacity="0" width="19.9219" x="0" y="0"/>
  <path d="M9.96094 19.9219C15.4102 19.9219 19.9219 15.4004 19.9219 9.96094C19.9219 4.51172 15.4004 0 9.95117 0C4.51172 0 0 4.51172 0 9.96094C0 15.4004 4.52148 19.9219 9.96094 19.9219Z" fill="#000000" fill-opacity="0.85"/>
  <path d="M4.63867 14.0723C4.27734 14.0723 4.04297 13.8379 4.04297 13.4766C4.04297 13.2715 4.11133 13.0957 4.26758 12.9297L6.92383 9.80469C7.40234 9.24805 7.92969 8.68164 7.92969 8.02734C7.92969 7.28516 7.40234 6.78711 6.5918 6.78711C5.86914 6.78711 5.37109 7.14844 5.10742 7.91016C4.9707 8.21289 4.82422 8.37891 4.53125 8.37891C4.18945 8.37891 3.97461 8.13477 3.97461 7.77344C3.97461 7.65625 3.99414 7.53906 4.01367 7.41211C4.27734 6.38672 5.3418 5.61523 6.54297 5.61523C8.125 5.61523 9.15039 6.51367 9.15039 7.91992C9.15039 8.92578 8.59375 9.64844 7.85156 10.5176L5.87891 12.8027L5.87891 12.8809L8.79883 12.8809C9.12109 12.8809 9.36523 13.0859 9.36523 13.4668C9.36523 13.8281 9.12109 14.0723 8.79883 14.0723ZM13.3301 14.3066C11.582 14.3066 10.4297 13.3203 10.4297 11.8457C10.4297 10.8203 11.0449 9.9707 12.1387 9.74609L12.1387 9.6875C11.2012 9.41406 10.7227 8.71094 10.7227 7.83203C10.7227 6.52344 11.8066 5.61523 13.3496 5.61523C14.9023 5.61523 15.9766 6.52344 15.9766 7.83203C15.9766 8.71094 15.498 9.43359 14.5703 9.6875L14.5703 9.74609C15.6445 9.9707 16.2793 10.8105 16.2793 11.8359C16.2793 13.3008 15.0879 14.3066 13.3301 14.3066ZM13.3594 13.252C14.3164 13.252 15.0098 12.6367 15.0098 11.7578C15.0098 10.8789 14.3359 10.2539 13.3594 10.2539C12.4023 10.2539 11.7188 10.8887 11.7188 11.7578C11.7188 12.6367 12.4023 13.252 13.3594 13.252ZM13.3496 9.28711C14.1309 9.28711 14.6973 8.7207 14.6973 7.95898C14.6973 7.19727 14.1406 6.66992 13.3496 6.66992C12.5684 6.66992 12.0117 7.19727 12.0117 7.95898C12.0117 8.7207 12.5684 9.28711 13.3496 9.28711Z" fill="#ffffff"/>
 </g>
</svg>
