<?xml version="1.0" encoding="UTF-8"?>
<!--Generator: Apple Native CoreSVG 175.5-->
<!DOCTYPE svg
PUBLIC "-//W3C//DTD SVG 1.1//EN"
       "http://www.w3.org/Graphics/SVG/1.1/DTD/svg11.dtd">
<svg version="1.1" xmlns="http://www.w3.org/2000/svg" xmlns:xlink="http://www.w3.org/1999/xlink" width="17.9785" height="17.998">
 <g>
  <rect height="17.998" opacity="0" width="17.9785" x="0" y="0"/>
  <path d="M3.06641 17.998L14.9121 17.998C16.9629 17.998 17.9785 16.9824 17.9785 14.9707L17.9785 3.04688C17.9785 1.03516 16.9629 0.0195312 14.9121 0.0195312L3.06641 0.0195312C1.02539 0.0195312 0 1.02539 0 3.04688L0 14.9707C0 16.9922 1.02539 17.998 3.06641 17.998Z" fill="#000000" fill-opacity="0.85"/>
  <path d="M3.67188 13.1055C3.31055 13.1055 3.07617 12.8711 3.07617 12.5098C3.07617 12.3047 3.14453 12.1289 3.30078 11.9629L5.95703 8.83789C6.43555 8.28125 6.96289 7.71484 6.96289 7.06055C6.96289 6.31836 6.43555 5.82031 5.625 5.82031C4.90234 5.82031 4.4043 6.18164 4.15039 6.94336C4.00391 7.24609 3.85742 7.41211 3.57422 7.41211C3.22266 7.41211 3.00781 7.16797 3.00781 6.80664C3.00781 6.68945 3.02734 6.57227 3.04688 6.44531C3.31055 5.41992 4.375 4.64844 5.57617 4.64844C7.1582 4.64844 8.18359 5.54688 8.18359 6.95312C8.18359 7.95898 7.62695 8.68164 6.88477 9.55078L4.91211 11.8359L4.91211 11.9141L7.8418 11.9141C8.1543 11.9141 8.39844 12.1191 8.39844 12.5C8.39844 12.8613 8.1543 13.1055 7.8418 13.1055ZM12.3633 13.3398C10.6152 13.3398 9.46289 12.3535 9.46289 10.8789C9.46289 9.85352 10.0781 9.00391 11.1719 8.7793L11.1719 8.7207C10.2344 8.44727 9.75586 7.74414 9.75586 6.86523C9.75586 5.55664 10.8398 4.64844 12.3828 4.64844C13.9355 4.64844 15.0195 5.55664 15.0195 6.86523C15.0195 7.74414 14.5312 8.4668 13.6035 8.7207L13.6035 8.7793C14.6777 9.00391 15.3125 9.84375 15.3125 10.8691C15.3125 12.334 14.1211 13.3398 12.3633 13.3398ZM12.3926 12.2852C13.3496 12.2852 14.043 11.6699 14.043 10.791C14.043 9.91211 13.3691 9.28711 12.3926 9.28711C11.4355 9.28711 10.752 9.92188 10.752 10.791C10.752 11.6699 11.4355 12.2852 12.3926 12.2852ZM12.3828 8.32031C13.1738 8.32031 13.7305 7.75391 13.7305 6.99219C13.7305 6.23047 13.1738 5.70312 12.3828 5.70312C11.6016 5.70312 11.0449 6.23047 11.0449 6.99219C11.0449 7.75391 11.6016 8.32031 12.3828 8.32031Z" fill="#ffffff"/>
 </g>
</svg>
