<?xml version="1.0" encoding="UTF-8"?>
<!--Generator: Apple Native CoreSVG 175.5-->
<!DOCTYPE svg
PUBLIC "-//W3C//DTD SVG 1.1//EN"
       "http://www.w3.org/Graphics/SVG/1.1/DTD/svg11.dtd">
<svg version="1.1" xmlns="http://www.w3.org/2000/svg" xmlns:xlink="http://www.w3.org/1999/xlink" width="19.9219" height="19.9316">
 <g>
  <rect height="19.9316" opacity="0" width="19.9219" x="0" y="0"/>
  <path d="M9.96094 19.9219C15.4102 19.9219 19.9219 15.4004 19.9219 9.96094C19.9219 4.51172 15.4004 0 9.95117 0C4.51172 0 0 4.51172 0 9.96094C0 15.4004 4.52148 19.9219 9.96094 19.9219Z" fill="#000000" fill-opacity="0.85"/>
  <path d="M4.72656 14.0723C4.36523 14.0723 4.14062 13.8379 4.14062 13.4766C4.14062 13.2715 4.19922 13.0957 4.36523 12.9297L7.01172 9.80469C7.49023 9.24805 8.01758 8.68164 8.01758 8.02734C8.01758 7.28516 7.49023 6.78711 6.68945 6.78711C5.9668 6.78711 5.45898 7.14844 5.20508 7.91016C5.06836 8.21289 4.92188 8.37891 4.62891 8.37891C4.27734 8.37891 4.0625 8.13477 4.0625 7.77344C4.0625 7.65625 4.08203 7.53906 4.11133 7.41211C4.375 6.38672 5.43945 5.61523 6.64062 5.61523C8.22266 5.61523 9.23828 6.51367 9.23828 7.91992C9.23828 8.92578 8.68164 9.64844 7.93945 10.5176L5.97656 12.8027L5.97656 12.8809L8.89648 12.8809C9.21875 12.8809 9.46289 13.0859 9.46289 13.4668C9.46289 13.8281 9.21875 14.0723 8.89648 14.0723ZM13.252 14.3066C11.8652 14.3066 11.0352 13.5156 10.8789 12.959C10.8398 12.8418 10.8105 12.7051 10.8105 12.5977C10.8105 12.2461 11.0352 12.002 11.3477 12.002C11.6113 12.002 11.7969 12.1094 11.9629 12.3926C12.207 12.8418 12.666 13.1348 13.2324 13.1348C14.4043 13.1348 15.166 11.9531 15.1465 9.95117L15.0879 9.95117C14.8145 10.6348 14.1602 11.2305 13.0664 11.2305C11.748 11.2305 10.5664 10.2637 10.5664 8.53516C10.5664 6.75781 11.6699 5.61523 13.3691 5.61523C15.2539 5.61523 16.3477 7.04102 16.3477 9.67773C16.3477 12.7148 15.2637 14.3066 13.252 14.3066ZM13.4375 10.1855C14.3848 10.1855 15.0391 9.47266 15.0391 8.48633C15.0391 7.45117 14.375 6.71875 13.4473 6.71875C12.4707 6.71875 11.8555 7.41211 11.8555 8.4668C11.8555 9.47266 12.4805 10.1855 13.4375 10.1855Z" fill="#ffffff"/>
 </g>
</svg>
