<?xml version="1.0" encoding="UTF-8"?>
<!--Generator: Apple Native CoreSVG 175.5-->
<!DOCTYPE svg
PUBLIC "-//W3C//DTD SVG 1.1//EN"
       "http://www.w3.org/Graphics/SVG/1.1/DTD/svg11.dtd">
<svg version="1.1" xmlns="http://www.w3.org/2000/svg" xmlns:xlink="http://www.w3.org/1999/xlink" width="17.9785" height="17.998">
 <g>
  <rect height="17.998" opacity="0" width="17.9785" x="0" y="0"/>
  <path d="M3.06641 17.998L14.9121 17.998C16.9629 17.998 17.9785 16.9824 17.9785 14.9707L17.9785 3.04688C17.9785 1.03516 16.9629 0.0195312 14.9121 0.0195312L3.06641 0.0195312C1.02539 0.0195312 0 1.02539 0 3.04688L0 14.9707C0 16.9922 1.02539 17.998 3.06641 17.998ZM3.08594 16.4258C2.10938 16.4258 1.57227 15.9082 1.57227 14.8926L1.57227 3.125C1.57227 2.10938 2.10938 1.5918 3.08594 1.5918L14.8926 1.5918C15.8594 1.5918 16.4062 2.10938 16.4062 3.125L16.4062 14.8926C16.4062 15.9082 15.8594 16.4258 14.8926 16.4258Z" fill="#000000" fill-opacity="0.85"/>
  <path d="M3.91602 12.9785L7.95898 12.9785C8.27148 12.9785 8.50586 12.7441 8.50586 12.3926C8.50586 12.0312 8.27148 11.8262 7.95898 11.8262L5.11719 11.8262L5.11719 11.7578L7.03125 9.53125C7.75391 8.69141 8.29102 7.98828 8.29102 7.01172C8.29102 5.6543 7.30469 4.78516 5.77148 4.78516C4.60938 4.78516 3.57422 5.52734 3.32031 6.52344C3.30078 6.65039 3.27148 6.75781 3.27148 6.875C3.27148 7.22656 3.47656 7.46094 3.81836 7.46094C4.10156 7.46094 4.24805 7.29492 4.375 7.00195C4.61914 6.26953 5.11719 5.9082 5.82031 5.9082C6.60156 5.9082 7.11914 6.39648 7.11914 7.11914C7.11914 7.75391 6.60156 8.30078 6.14258 8.84766L3.56445 11.875C3.4082 12.041 3.34961 12.207 3.34961 12.4023C3.34961 12.7539 3.57422 12.9785 3.91602 12.9785ZM12.1875 13.2031C14.1309 13.2031 15.1855 11.6602 15.1855 8.7207C15.1855 6.16211 14.1309 4.78516 12.2949 4.78516C10.6543 4.78516 9.58008 5.88867 9.58008 7.60742C9.58008 9.28711 10.7227 10.2246 12.002 10.2246C13.0762 10.2246 13.7109 9.64844 13.9648 8.98438L14.0234 8.98438C14.043 10.9277 13.3008 12.0801 12.168 12.0801C11.6113 12.0801 11.1621 11.7871 10.9277 11.3574C10.7715 11.084 10.5859 10.9766 10.332 10.9766C10.0293 10.9766 9.81445 11.2109 9.81445 11.5527C9.81445 11.6504 9.84375 11.7871 9.88281 11.9043C10.0488 12.4414 10.8398 13.2031 12.1875 13.2031ZM12.373 9.21875C11.4453 9.21875 10.8203 8.52539 10.8203 7.54883C10.8203 6.52344 11.4258 5.84961 12.373 5.84961C13.2715 5.84961 13.916 6.5625 13.916 7.56836C13.916 8.52539 13.2812 9.21875 12.373 9.21875Z" fill="#000000" fill-opacity="0.85"/>
 </g>
</svg>
