<?xml version="1.0" encoding="UTF-8"?>
<!--Generator: Apple Native CoreSVG 175.5-->
<!DOCTYPE svg
PUBLIC "-//W3C//DTD SVG 1.1//EN"
       "http://www.w3.org/Graphics/SVG/1.1/DTD/svg11.dtd">
<svg version="1.1" xmlns="http://www.w3.org/2000/svg" xmlns:xlink="http://www.w3.org/1999/xlink" width="19.9219" height="19.9316">
 <g>
  <rect height="19.9316" opacity="0" width="19.9219" x="0" y="0"/>
  <path d="M9.96094 19.9219C15.4102 19.9219 19.9219 15.4004 19.9219 9.96094C19.9219 4.51172 15.4004 0 9.95117 0C4.51172 0 0 4.51172 0 9.96094C0 15.4004 4.52148 19.9219 9.96094 19.9219Z" fill="#000000" fill-opacity="0.85"/>
  <path d="M6.54297 14.2871C5.17578 14.2871 4.11133 13.4473 3.83789 12.5195C3.80859 12.4023 3.78906 12.2949 3.78906 12.1582C3.78906 11.7969 4.02344 11.5527 4.375 11.5527C4.6582 11.5527 4.82422 11.709 4.95117 12.0215C5.22461 12.7344 5.76172 13.1152 6.55273 13.1152C7.51953 13.1152 8.19336 12.5293 8.19336 11.748C8.19336 10.9277 7.57812 10.4004 6.63086 10.4004L6.03516 10.4004C5.70312 10.4004 5.47852 10.1465 5.47852 9.82422C5.47852 9.45312 5.71289 9.21875 6.03516 9.21875L6.57227 9.21875C7.38281 9.21875 7.93945 8.69141 7.93945 7.95898C7.93945 7.25586 7.38281 6.77734 6.58203 6.77734C5.80078 6.77734 5.32227 7.1582 5.09766 7.87109C5 8.19336 4.83398 8.34961 4.53125 8.34961C4.17969 8.34961 3.95508 8.0957 3.95508 7.73438C3.95508 7.59766 3.95508 7.5 3.97461 7.37305C4.23828 6.38672 5.25391 5.60547 6.62109 5.60547C8.11523 5.60547 9.17969 6.50391 9.17969 7.79297C9.17969 8.74023 8.52539 9.58008 7.69531 9.7168L7.69531 9.77539C8.71094 9.87305 9.45312 10.7324 9.45312 11.8066C9.45312 13.252 8.26172 14.2871 6.54297 14.2871ZM13.3203 14.2871C11.5918 14.2871 10.4395 12.6367 10.4395 9.95117C10.4395 7.25586 11.5918 5.60547 13.3203 5.60547C15.0586 5.60547 16.2012 7.25586 16.2012 9.95117C16.2012 12.6367 15.0586 14.2871 13.3203 14.2871ZM13.3203 13.0566C14.2871 13.0566 14.8828 11.875 14.8828 9.95117C14.8828 8.01758 14.2773 6.83594 13.3203 6.83594C12.373 6.83594 11.7676 8.01758 11.7676 9.95117C11.7676 11.875 12.373 13.0566 13.3203 13.0566Z" fill="#ffffff"/>
 </g>
</svg>
