<?xml version="1.0" encoding="UTF-8"?>
<!--Generator: Apple Native CoreSVG 175.5-->
<!DOCTYPE svg
PUBLIC "-//W3C//DTD SVG 1.1//EN"
       "http://www.w3.org/Graphics/SVG/1.1/DTD/svg11.dtd">
<svg version="1.1" xmlns="http://www.w3.org/2000/svg" xmlns:xlink="http://www.w3.org/1999/xlink" width="17.9785" height="17.998">
 <g>
  <rect height="17.998" opacity="0" width="17.9785" x="0" y="0"/>
  <path d="M3.06641 17.998L14.9121 17.998C16.9629 17.998 17.9785 16.9824 17.9785 14.9707L17.9785 3.04688C17.9785 1.03516 16.9629 0.0195312 14.9121 0.0195312L3.06641 0.0195312C1.02539 0.0195312 0 1.02539 0 3.04688L0 14.9707C0 16.9922 1.02539 17.998 3.06641 17.998ZM3.08594 16.4258C2.10938 16.4258 1.57227 15.9082 1.57227 14.8926L1.57227 3.125C1.57227 2.10938 2.10938 1.5918 3.08594 1.5918L14.8926 1.5918C15.8594 1.5918 16.4062 2.10938 16.4062 3.125L16.4062 14.8926C16.4062 15.9082 15.8594 16.4258 14.8926 16.4258Z" fill="#000000" fill-opacity="0.85"/>
  <path d="M5.68359 13.1836C7.34375 13.1836 8.50586 12.1875 8.50586 10.7812C8.50586 9.74609 7.7832 8.90625 6.79688 8.81836L6.79688 8.75977C7.60742 8.62305 8.24219 7.8125 8.24219 6.89453C8.24219 5.64453 7.20703 4.77539 5.75195 4.77539C4.43359 4.77539 3.45703 5.52734 3.20312 6.48438C3.17383 6.61133 3.17383 6.69922 3.17383 6.83594C3.17383 7.1875 3.38867 7.43164 3.73047 7.43164C4.02344 7.43164 4.17969 7.27539 4.27734 6.96289C4.49219 6.26953 4.96094 5.89844 5.72266 5.89844C6.49414 5.89844 7.04102 6.36719 7.04102 7.05078C7.04102 7.76367 6.49414 8.28125 5.71289 8.28125L5.18555 8.28125C4.87305 8.28125 4.64844 8.50586 4.64844 8.85742C4.64844 9.16992 4.86328 9.41406 5.18555 9.41406L5.76172 9.41406C6.68945 9.41406 7.28516 9.93164 7.28516 10.7227C7.28516 11.4844 6.63086 12.0605 5.69336 12.0605C4.92188 12.0605 4.39453 11.6895 4.13086 10.9961C4.01367 10.6934 3.84766 10.5371 3.57422 10.5371C3.24219 10.5371 3.00781 10.7715 3.00781 11.123C3.00781 11.2598 3.02734 11.3574 3.05664 11.4746C3.32031 12.373 4.35547 13.1836 5.68359 13.1836ZM12.2559 13.1836C13.9355 13.1836 15.0488 11.582 15.0488 8.98438C15.0488 6.37695 13.9355 4.77539 12.2559 4.77539C10.5762 4.77539 9.46289 6.37695 9.46289 8.98438C9.46289 11.582 10.5762 13.1836 12.2559 13.1836ZM12.2559 12.002C11.3281 12.002 10.7422 10.8496 10.7422 8.98438C10.7422 7.10938 11.3281 5.95703 12.2559 5.95703C13.1934 5.95703 13.7695 7.10938 13.7695 8.98438C13.7695 10.8496 13.2031 12.002 12.2559 12.002Z" fill="#000000" fill-opacity="0.85"/>
 </g>
</svg>
