<?xml version="1.0" encoding="UTF-8"?>
<!--Generator: Apple Native CoreSVG 175.5-->
<!DOCTYPE svg
PUBLIC "-//W3C//DTD SVG 1.1//EN"
       "http://www.w3.org/Graphics/SVG/1.1/DTD/svg11.dtd">
<svg version="1.1" xmlns="http://www.w3.org/2000/svg" xmlns:xlink="http://www.w3.org/1999/xlink" width="19.9219" height="19.9316">
 <g>
  <rect height="19.9316" opacity="0" width="19.9219" x="0" y="0"/>
  <path d="M9.96094 19.9219C15.4102 19.9219 19.9219 15.4004 19.9219 9.96094C19.9219 4.51172 15.4004 0 9.95117 0C4.51172 0 0 4.51172 0 9.96094C0 15.4004 4.52148 19.9219 9.96094 19.9219Z" fill="#000000" fill-opacity="0.85"/>
  <path d="M7.33398 14.3066C5.9668 14.3066 4.89258 13.4668 4.62891 12.5391C4.59961 12.4121 4.58008 12.3047 4.58008 12.168C4.58008 11.8164 4.82422 11.5625 5.16602 11.5625C5.44922 11.5625 5.61523 11.7188 5.74219 12.041C6.00586 12.7441 6.55273 13.1348 7.34375 13.1348C8.31055 13.1348 8.98438 12.5488 8.98438 11.7676C8.98438 10.9473 8.36914 10.4102 7.41211 10.4102L6.82617 10.4102C6.50391 10.4102 6.2793 10.1562 6.2793 9.83398C6.2793 9.46289 6.50391 9.22852 6.82617 9.22852L7.36328 9.22852C8.17383 9.22852 8.73047 8.70117 8.73047 7.96875C8.73047 7.26562 8.18359 6.78711 7.37305 6.78711C6.5918 6.78711 6.11328 7.17773 5.88867 7.88086C5.79102 8.20312 5.625 8.35938 5.32227 8.35938C4.98047 8.35938 4.74609 8.10547 4.74609 7.74414C4.74609 7.61719 4.74609 7.50977 4.77539 7.38281C5.03906 6.39648 6.04492 5.61523 7.41211 5.61523C8.91602 5.61523 9.98047 6.51367 9.98047 7.80273C9.98047 8.75 9.32617 9.58984 8.48633 9.72656L8.48633 9.78516C9.50195 9.89258 10.2441 10.752 10.2441 11.8262C10.2441 13.2715 9.05273 14.3066 7.33398 14.3066ZM14.3457 14.1797C13.9746 14.1797 13.7207 13.9258 13.7207 13.5352L13.7207 7.28516L13.6621 7.28516L12.5977 8.07617C12.3535 8.26172 12.2656 8.27148 12.0996 8.27148C11.8066 8.27148 11.5234 8.00781 11.5234 7.66602C11.5234 7.40234 11.6504 7.2168 11.8555 7.07031L13.3887 6.02539C13.75 5.78125 13.9453 5.68359 14.2773 5.68359C14.6973 5.68359 14.9805 5.98633 14.9805 6.40625L14.9805 13.5352C14.9805 13.9258 14.7363 14.1797 14.3457 14.1797Z" fill="#ffffff"/>
 </g>
</svg>
