<?xml version="1.0" encoding="UTF-8"?>
<!--Generator: Apple Native CoreSVG 175.5-->
<!DOCTYPE svg
PUBLIC "-//W3C//DTD SVG 1.1//EN"
       "http://www.w3.org/Graphics/SVG/1.1/DTD/svg11.dtd">
<svg version="1.1" xmlns="http://www.w3.org/2000/svg" xmlns:xlink="http://www.w3.org/1999/xlink" width="17.9785" height="17.998">
 <g>
  <rect height="17.998" opacity="0" width="17.9785" x="0" y="0"/>
  <path d="M3.06641 17.998L14.9121 17.998C16.9629 17.998 17.9785 16.9824 17.9785 14.9707L17.9785 3.04688C17.9785 1.03516 16.9629 0.0195312 14.9121 0.0195312L3.06641 0.0195312C1.02539 0.0195312 0 1.02539 0 3.04688L0 14.9707C0 16.9922 1.02539 17.998 3.06641 17.998ZM3.08594 16.4258C2.10938 16.4258 1.57227 15.9082 1.57227 14.8926L1.57227 3.125C1.57227 2.10938 2.10938 1.5918 3.08594 1.5918L14.8926 1.5918C15.8594 1.5918 16.4062 2.10938 16.4062 3.125L16.4062 14.8926C16.4062 15.9082 15.8594 16.4258 14.8926 16.4258Z" fill="#000000" fill-opacity="0.85"/>
  <path d="M6.45508 13.2031C8.10547 13.2031 9.26758 12.207 9.26758 10.8008C9.26758 9.76562 8.54492 8.92578 7.55859 8.82812L7.55859 8.76953C8.36914 8.63281 9.00391 7.82227 9.00391 6.9043C9.00391 5.6543 7.97852 4.78516 6.51367 4.78516C5.19531 4.78516 4.21875 5.53711 3.96484 6.49414C3.93555 6.62109 3.93555 6.71875 3.93555 6.8457C3.93555 7.19727 4.16016 7.44141 4.49219 7.44141C4.78516 7.44141 4.94141 7.28516 5.03906 6.97266C5.25391 6.28906 5.72266 5.9082 6.48438 5.9082C7.26562 5.9082 7.80273 6.37695 7.80273 7.06055C7.80273 7.77344 7.25586 8.29102 6.47461 8.29102L5.94727 8.29102C5.63477 8.29102 5.41992 8.51562 5.41992 8.86719C5.41992 9.17969 5.63477 9.42383 5.94727 9.42383L6.52344 9.42383C7.45117 9.42383 8.04688 9.95117 8.04688 10.7422C8.04688 11.5039 7.40234 12.0801 6.46484 12.0801C5.68359 12.0801 5.15625 11.6992 4.89258 11.0156C4.77539 10.7031 4.61914 10.5469 4.33594 10.5469C4.01367 10.5469 3.76953 10.791 3.76953 11.1328C3.76953 11.2695 3.78906 11.3672 3.82812 11.4941C4.08203 12.3926 5.11719 13.2031 6.45508 13.2031ZM13.2422 13.0859C13.6133 13.0859 13.8574 12.8418 13.8574 12.4609L13.8574 5.54688C13.8574 5.13672 13.584 4.84375 13.1738 4.84375C12.8516 4.84375 12.666 4.94141 12.3145 5.17578L10.8301 6.19141C10.625 6.33789 10.5078 6.51367 10.5078 6.76758C10.5078 7.09961 10.7812 7.35352 11.0645 7.35352C11.2207 7.35352 11.3184 7.34375 11.543 7.16797L12.5879 6.39648L12.6367 6.39648L12.6367 12.4609C12.6367 12.8418 12.8809 13.0859 13.2422 13.0859Z" fill="#000000" fill-opacity="0.85"/>
 </g>
</svg>
