<?xml version="1.0" encoding="UTF-8"?>
<!--Generator: Apple Native CoreSVG 175.5-->
<!DOCTYPE svg
PUBLIC "-//W3C//DTD SVG 1.1//EN"
       "http://www.w3.org/Graphics/SVG/1.1/DTD/svg11.dtd">
<svg version="1.1" xmlns="http://www.w3.org/2000/svg" xmlns:xlink="http://www.w3.org/1999/xlink" width="19.9219" height="19.9316">
 <g>
  <rect height="19.9316" opacity="0" width="19.9219" x="0" y="0"/>
  <path d="M9.96094 19.9219C15.4102 19.9219 19.9219 15.4004 19.9219 9.96094C19.9219 4.51172 15.4004 0 9.95117 0C4.51172 0 0 4.51172 0 9.96094C0 15.4004 4.52148 19.9219 9.96094 19.9219ZM9.96094 18.2617C5.35156 18.2617 1.66992 14.5703 1.66992 9.96094C1.66992 5.35156 5.3418 1.66016 9.95117 1.66016C14.5605 1.66016 18.2617 5.35156 18.2617 9.96094C18.2617 14.5703 14.5703 18.2617 9.96094 18.2617Z" fill="#000000" fill-opacity="0.85"/>
  <path d="M6.69922 14.1699C8.35938 14.1699 9.52148 13.1738 9.52148 11.7676C9.52148 10.7324 8.79883 9.89258 7.8125 9.79492L7.8125 9.73633C8.62305 9.59961 9.24805 8.78906 9.24805 7.87109C9.24805 6.62109 8.22266 5.75195 6.76758 5.75195C5.44922 5.75195 4.47266 6.50391 4.21875 7.46094C4.18945 7.58789 4.18945 7.68555 4.18945 7.8125C4.18945 8.16406 4.4043 8.4082 4.74609 8.4082C5.03906 8.4082 5.19531 8.25195 5.29297 7.93945C5.50781 7.25586 5.97656 6.875 6.73828 6.875C7.50977 6.875 8.05664 7.34375 8.05664 8.02734C8.05664 8.74023 7.50977 9.25781 6.72852 9.25781L6.20117 9.25781C5.88867 9.25781 5.66406 9.48242 5.66406 9.83398C5.66406 10.1465 5.87891 10.3906 6.20117 10.3906L6.77734 10.3906C7.70508 10.3906 8.30078 10.918 8.30078 11.709C8.30078 12.4707 7.64648 13.0469 6.70898 13.0469C5.9375 13.0469 5.41016 12.666 5.14648 11.9824C5.0293 11.6699 4.86328 11.5137 4.58984 11.5137C4.25781 11.5137 4.02344 11.7578 4.02344 12.0996C4.02344 12.2363 4.04297 12.334 4.07227 12.4609C4.33594 13.3594 5.37109 14.1699 6.69922 14.1699ZM11.3965 13.9453L15.4395 13.9453C15.752 13.9453 15.9766 13.7109 15.9766 13.3594C15.9766 12.998 15.752 12.793 15.4395 12.793L12.5977 12.793L12.5977 12.7246L14.5117 10.498C15.2344 9.6582 15.7715 8.95508 15.7715 7.97852C15.7715 6.62109 14.7754 5.75195 13.252 5.75195C12.0801 5.75195 11.0449 6.49414 10.8008 7.49023C10.7715 7.61719 10.752 7.72461 10.752 7.8418C10.752 8.19336 10.957 8.42773 11.2988 8.42773C11.582 8.42773 11.7285 8.26172 11.8555 7.96875C12.0996 7.23633 12.5977 6.875 13.3008 6.875C14.082 6.875 14.5898 7.36328 14.5898 8.08594C14.5898 8.7207 14.082 9.26758 13.6133 9.81445L11.0449 12.8418C10.8887 13.0078 10.8301 13.1738 10.8301 13.3691C10.8301 13.7207 11.0449 13.9453 11.3965 13.9453Z" fill="#000000" fill-opacity="0.85"/>
 </g>
</svg>
