<?xml version="1.0" encoding="UTF-8"?>
<!--Generator: Apple Native CoreSVG 175.5-->
<!DOCTYPE svg
PUBLIC "-//W3C//DTD SVG 1.1//EN"
       "http://www.w3.org/Graphics/SVG/1.1/DTD/svg11.dtd">
<svg version="1.1" xmlns="http://www.w3.org/2000/svg" xmlns:xlink="http://www.w3.org/1999/xlink" width="17.9785" height="17.998">
 <g>
  <rect height="17.998" opacity="0" width="17.9785" x="0" y="0"/>
  <path d="M3.06641 17.998L14.9121 17.998C16.9629 17.998 17.9785 16.9824 17.9785 14.9707L17.9785 3.04688C17.9785 1.03516 16.9629 0.0195312 14.9121 0.0195312L3.06641 0.0195312C1.02539 0.0195312 0 1.02539 0 3.04688L0 14.9707C0 16.9922 1.02539 17.998 3.06641 17.998ZM3.08594 16.4258C2.10938 16.4258 1.57227 15.9082 1.57227 14.8926L1.57227 3.125C1.57227 2.10938 2.10938 1.5918 3.08594 1.5918L14.8926 1.5918C15.8594 1.5918 16.4062 2.10938 16.4062 3.125L16.4062 14.8926C16.4062 15.9082 15.8594 16.4258 14.8926 16.4258Z" fill="#000000" fill-opacity="0.85"/>
  <path d="M5.74219 13.2031C7.40234 13.2031 8.56445 12.207 8.56445 10.8008C8.56445 9.76562 7.8418 8.92578 6.85547 8.82812L6.85547 8.76953C7.66602 8.63281 8.30078 7.82227 8.30078 6.9043C8.30078 5.6543 7.26562 4.78516 5.81055 4.78516C4.49219 4.78516 3.51562 5.53711 3.26172 6.49414C3.23242 6.62109 3.23242 6.71875 3.23242 6.8457C3.23242 7.19727 3.44727 7.44141 3.78906 7.44141C4.08203 7.44141 4.23828 7.28516 4.33594 6.97266C4.55078 6.28906 5.01953 5.9082 5.78125 5.9082C6.55273 5.9082 7.09961 6.37695 7.09961 7.06055C7.09961 7.77344 6.55273 8.29102 5.77148 8.29102L5.24414 8.29102C4.93164 8.29102 4.7168 8.51562 4.7168 8.86719C4.7168 9.17969 4.92188 9.42383 5.24414 9.42383L5.82031 9.42383C6.74805 9.42383 7.34375 9.95117 7.34375 10.7422C7.34375 11.5039 6.68945 12.0801 5.75195 12.0801C4.98047 12.0801 4.45312 11.6992 4.18945 11.0156C4.07227 10.7031 3.90625 10.5469 3.63281 10.5469C3.30078 10.5469 3.06641 10.791 3.06641 11.1328C3.06641 11.2695 3.08594 11.3672 3.11523 11.4941C3.37891 12.3926 4.41406 13.2031 5.74219 13.2031ZM10.4395 12.9785L14.4824 12.9785C14.7949 12.9785 15.0293 12.7441 15.0293 12.3926C15.0293 12.0312 14.7949 11.8262 14.4824 11.8262L11.6406 11.8262L11.6406 11.7578L13.5547 9.53125C14.2773 8.69141 14.8145 7.98828 14.8145 7.01172C14.8145 5.6543 13.8281 4.78516 12.2949 4.78516C11.1328 4.78516 10.0977 5.52734 9.84375 6.52344C9.81445 6.65039 9.79492 6.75781 9.79492 6.875C9.79492 7.22656 10 7.46094 10.3418 7.46094C10.625 7.46094 10.7715 7.29492 10.8984 7.00195C11.1426 6.26953 11.6406 5.9082 12.3438 5.9082C13.125 5.9082 13.6328 6.39648 13.6328 7.11914C13.6328 7.75391 13.125 8.30078 12.6562 8.84766L10.0879 11.875C9.93164 12.041 9.87305 12.207 9.87305 12.4023C9.87305 12.7539 10.0977 12.9785 10.4395 12.9785Z" fill="#000000" fill-opacity="0.85"/>
 </g>
</svg>
