<?xml version="1.0" encoding="UTF-8"?>
<!--Generator: Apple Native CoreSVG 175.5-->
<!DOCTYPE svg
PUBLIC "-//W3C//DTD SVG 1.1//EN"
       "http://www.w3.org/Graphics/SVG/1.1/DTD/svg11.dtd">
<svg version="1.1" xmlns="http://www.w3.org/2000/svg" xmlns:xlink="http://www.w3.org/1999/xlink" width="19.9219" height="19.9316">
 <g>
  <rect height="19.9316" opacity="0" width="19.9219" x="0" y="0"/>
  <path d="M9.96094 19.9219C15.4102 19.9219 19.9219 15.4004 19.9219 9.96094C19.9219 4.51172 15.4004 0 9.95117 0C4.51172 0 0 4.51172 0 9.96094C0 15.4004 4.52148 19.9219 9.96094 19.9219ZM9.96094 18.2617C5.35156 18.2617 1.66992 14.5703 1.66992 9.96094C1.66992 5.35156 5.3418 1.66016 9.95117 1.66016C14.5605 1.66016 18.2617 5.35156 18.2617 9.96094C18.2617 14.5703 14.5703 18.2617 9.96094 18.2617Z" fill="#000000" fill-opacity="0.85"/>
  <path d="M6.62109 14.1699C8.27148 14.1699 9.43359 13.1738 9.43359 11.7676C9.43359 10.7324 8.71094 9.89258 7.72461 9.79492L7.72461 9.73633C8.53516 9.59961 9.16992 8.78906 9.16992 7.87109C9.16992 6.62109 8.14453 5.75195 6.67969 5.75195C5.36133 5.75195 4.38477 6.50391 4.13086 7.46094C4.10156 7.58789 4.10156 7.68555 4.10156 7.8125C4.10156 8.16406 4.32617 8.4082 4.6582 8.4082C4.95117 8.4082 5.10742 8.25195 5.20508 7.93945C5.41992 7.25586 5.88867 6.875 6.65039 6.875C7.43164 6.875 7.96875 7.34375 7.96875 8.02734C7.96875 8.74023 7.42188 9.25781 6.64062 9.25781L6.11328 9.25781C5.80078 9.25781 5.58594 9.48242 5.58594 9.83398C5.58594 10.1465 5.80078 10.3906 6.11328 10.3906L6.68945 10.3906C7.61719 10.3906 8.21289 10.918 8.21289 11.709C8.21289 12.4707 7.55859 13.0469 6.63086 13.0469C5.84961 13.0469 5.32227 12.666 5.05859 11.9824C4.94141 11.6699 4.78516 11.5137 4.50195 11.5137C4.17969 11.5137 3.93555 11.7578 3.93555 12.0996C3.93555 12.2363 3.95508 12.334 3.99414 12.4609C4.24805 13.3594 5.2832 14.1699 6.62109 14.1699ZM13.3789 14.1699C15.0293 14.1699 16.1914 13.1738 16.1914 11.7676C16.1914 10.7324 15.4688 9.89258 14.4824 9.79492L14.4824 9.73633C15.293 9.59961 15.9277 8.78906 15.9277 7.87109C15.9277 6.62109 14.9023 5.75195 13.4375 5.75195C12.1191 5.75195 11.1426 6.50391 10.8887 7.46094C10.8594 7.58789 10.8594 7.68555 10.8594 7.8125C10.8594 8.16406 11.084 8.4082 11.416 8.4082C11.709 8.4082 11.8652 8.25195 11.9629 7.93945C12.1777 7.25586 12.6465 6.875 13.4082 6.875C14.1895 6.875 14.7266 7.34375 14.7266 8.02734C14.7266 8.74023 14.1797 9.25781 13.3984 9.25781L12.8711 9.25781C12.5586 9.25781 12.3438 9.48242 12.3438 9.83398C12.3438 10.1465 12.5586 10.3906 12.8711 10.3906L13.4473 10.3906C14.375 10.3906 14.9707 10.918 14.9707 11.709C14.9707 12.4707 14.3262 13.0469 13.3887 13.0469C12.6074 13.0469 12.0801 12.666 11.8164 11.9824C11.6992 11.6699 11.543 11.5137 11.2598 11.5137C10.9375 11.5137 10.6934 11.7578 10.6934 12.0996C10.6934 12.2363 10.7129 12.334 10.752 12.4609C11.0059 13.3594 12.041 14.1699 13.3789 14.1699Z" fill="#000000" fill-opacity="0.85"/>
 </g>
</svg>
