<?xml version="1.0" encoding="UTF-8"?>
<!--Generator: Apple Native CoreSVG 175.5-->
<!DOCTYPE svg
PUBLIC "-//W3C//DTD SVG 1.1//EN"
       "http://www.w3.org/Graphics/SVG/1.1/DTD/svg11.dtd">
<svg version="1.1" xmlns="http://www.w3.org/2000/svg" xmlns:xlink="http://www.w3.org/1999/xlink" width="17.9785" height="17.998">
 <g>
  <rect height="17.998" opacity="0" width="17.9785" x="0" y="0"/>
  <path d="M3.06641 17.998L14.9121 17.998C16.9629 17.998 17.9785 16.9824 17.9785 14.9707L17.9785 3.04688C17.9785 1.03516 16.9629 0.0195312 14.9121 0.0195312L3.06641 0.0195312C1.02539 0.0195312 0 1.02539 0 3.04688L0 14.9707C0 16.9922 1.02539 17.998 3.06641 17.998Z" fill="#000000" fill-opacity="0.85"/>
  <path d="M5.55664 13.3398C4.17969 13.3398 3.10547 12.5 2.8418 11.5723C2.80273 11.4453 2.79297 11.3379 2.79297 11.2012C2.79297 10.8496 3.03711 10.5957 3.36914 10.5957C3.66211 10.5957 3.82812 10.752 3.94531 11.0742C4.21875 11.7773 4.77539 12.168 5.56641 12.168C6.5332 12.168 7.19727 11.582 7.19727 10.8008C7.19727 9.98047 6.58203 9.44336 5.625 9.44336L5.03906 9.44336C4.70703 9.44336 4.49219 9.18945 4.49219 8.86719C4.49219 8.49609 4.70703 8.26172 5.03906 8.26172L5.58594 8.26172C6.37695 8.26172 6.94336 7.73438 6.94336 7.00195C6.94336 6.29883 6.38672 5.82031 5.58594 5.82031C4.81445 5.82031 4.32617 6.21094 4.10156 6.91406C3.99414 7.23633 3.83789 7.39258 3.53516 7.39258C3.19336 7.39258 2.95898 7.13867 2.95898 6.77734C2.95898 6.65039 2.95898 6.54297 2.98828 6.41602C3.25195 5.42969 4.25781 4.64844 5.61523 4.64844C7.12891 4.64844 8.18359 5.54688 8.18359 6.83594C8.18359 7.7832 7.5293 8.62305 6.69922 8.75977L6.69922 8.81836C7.71484 8.92578 8.45703 9.78516 8.45703 10.8594C8.45703 12.3047 7.25586 13.3398 5.55664 13.3398ZM12.5293 13.3398C11.1426 13.3398 10.0781 12.5 9.81445 11.5723C9.77539 11.4453 9.76562 11.3379 9.76562 11.2012C9.76562 10.8496 10.0098 10.5957 10.3418 10.5957C10.6348 10.5957 10.8008 10.752 10.918 11.0742C11.1914 11.7773 11.7383 12.168 12.5391 12.168C13.4961 12.168 14.1602 11.582 14.1602 10.8008C14.1602 9.98047 13.5547 9.44336 12.5977 9.44336L12.002 9.44336C11.6797 9.44336 11.4551 9.18945 11.4551 8.86719C11.4551 8.49609 11.6797 8.26172 12.002 8.26172L12.5586 8.26172C13.3496 8.26172 13.9062 7.73438 13.9062 7.00195C13.9062 6.29883 13.3594 5.82031 12.5586 5.82031C11.7773 5.82031 11.2891 6.21094 11.0645 6.91406C10.9668 7.23633 10.8008 7.39258 10.498 7.39258C10.1562 7.39258 9.92188 7.13867 9.92188 6.77734C9.92188 6.65039 9.92188 6.54297 9.95117 6.41602C10.2148 5.42969 11.2207 4.64844 12.5879 4.64844C14.1016 4.64844 15.1562 5.54688 15.1562 6.83594C15.1562 7.7832 14.502 8.62305 13.6621 8.75977L13.6621 8.81836C14.6875 8.92578 15.4297 9.78516 15.4297 10.8594C15.4297 12.3047 14.2285 13.3398 12.5293 13.3398Z" fill="#ffffff"/>
 </g>
</svg>
