<?xml version="1.0" encoding="UTF-8"?>
<!--Generator: Apple Native CoreSVG 175.5-->
<!DOCTYPE svg
PUBLIC "-//W3C//DTD SVG 1.1//EN"
       "http://www.w3.org/Graphics/SVG/1.1/DTD/svg11.dtd">
<svg version="1.1" xmlns="http://www.w3.org/2000/svg" xmlns:xlink="http://www.w3.org/1999/xlink" width="17.9785" height="17.998">
 <g>
  <rect height="17.998" opacity="0" width="17.9785" x="0" y="0"/>
  <path d="M3.06641 17.998L14.9121 17.998C16.9629 17.998 17.9785 16.9824 17.9785 14.9707L17.9785 3.04688C17.9785 1.03516 16.9629 0.0195312 14.9121 0.0195312L3.06641 0.0195312C1.02539 0.0195312 0 1.02539 0 3.04688L0 14.9707C0 16.9922 1.02539 17.998 3.06641 17.998ZM3.08594 16.4258C2.10938 16.4258 1.57227 15.9082 1.57227 14.8926L1.57227 3.125C1.57227 2.10938 2.10938 1.5918 3.08594 1.5918L14.8926 1.5918C15.8594 1.5918 16.4062 2.10938 16.4062 3.125L16.4062 14.8926C16.4062 15.9082 15.8594 16.4258 14.8926 16.4258Z" fill="#000000" fill-opacity="0.85"/>
  <path d="M5.66406 13.2031C7.31445 13.2031 8.47656 12.207 8.47656 10.8008C8.47656 9.76562 7.75391 8.92578 6.76758 8.82812L6.76758 8.76953C7.57812 8.63281 8.21289 7.82227 8.21289 6.9043C8.21289 5.6543 7.1875 4.78516 5.72266 4.78516C4.4043 4.78516 3.42773 5.53711 3.17383 6.49414C3.14453 6.62109 3.14453 6.71875 3.14453 6.8457C3.14453 7.19727 3.36914 7.44141 3.70117 7.44141C3.99414 7.44141 4.15039 7.28516 4.24805 6.97266C4.46289 6.28906 4.94141 5.9082 5.69336 5.9082C6.47461 5.9082 7.01172 6.37695 7.01172 7.06055C7.01172 7.77344 6.46484 8.29102 5.69336 8.29102L5.15625 8.29102C4.84375 8.29102 4.62891 8.51562 4.62891 8.86719C4.62891 9.17969 4.84375 9.42383 5.15625 9.42383L5.73242 9.42383C6.66016 9.42383 7.25586 9.95117 7.25586 10.7422C7.25586 11.5039 6.61133 12.0801 5.67383 12.0801C4.89258 12.0801 4.36523 11.6992 4.10156 11.0156C3.98438 10.7031 3.82812 10.5469 3.54492 10.5469C3.22266 10.5469 2.98828 10.791 2.98828 11.1328C2.98828 11.2695 2.99805 11.3672 3.03711 11.4941C3.29102 12.3926 4.32617 13.2031 5.66406 13.2031ZM12.4219 13.2031C14.0723 13.2031 15.2344 12.207 15.2344 10.8008C15.2344 9.76562 14.5117 8.92578 13.5254 8.82812L13.5254 8.76953C14.3359 8.63281 14.9707 7.82227 14.9707 6.9043C14.9707 5.6543 13.9453 4.78516 12.4805 4.78516C11.1621 4.78516 10.1855 5.53711 9.93164 6.49414C9.90234 6.62109 9.90234 6.71875 9.90234 6.8457C9.90234 7.19727 10.127 7.44141 10.459 7.44141C10.752 7.44141 10.9082 7.28516 11.0059 6.97266C11.2207 6.28906 11.6992 5.9082 12.4512 5.9082C13.2324 5.9082 13.7695 6.37695 13.7695 7.06055C13.7695 7.77344 13.2227 8.29102 12.4512 8.29102L11.9141 8.29102C11.6016 8.29102 11.3867 8.51562 11.3867 8.86719C11.3867 9.17969 11.6016 9.42383 11.9141 9.42383L12.4902 9.42383C13.418 9.42383 14.0137 9.95117 14.0137 10.7422C14.0137 11.5039 13.3691 12.0801 12.4316 12.0801C11.6602 12.0801 11.123 11.6992 10.8594 11.0156C10.7422 10.7031 10.5859 10.5469 10.3027 10.5469C9.98047 10.5469 9.74609 10.791 9.74609 11.1328C9.74609 11.2695 9.75586 11.3672 9.79492 11.4941C10.0488 12.3926 11.084 13.2031 12.4219 13.2031Z" fill="#000000" fill-opacity="0.85"/>
 </g>
</svg>
