<?xml version="1.0" encoding="UTF-8"?>
<!--Generator: Apple Native CoreSVG 175.5-->
<!DOCTYPE svg
PUBLIC "-//W3C//DTD SVG 1.1//EN"
       "http://www.w3.org/Graphics/SVG/1.1/DTD/svg11.dtd">
<svg version="1.1" xmlns="http://www.w3.org/2000/svg" xmlns:xlink="http://www.w3.org/1999/xlink" width="19.9219" height="19.9316">
 <g>
  <rect height="19.9316" opacity="0" width="19.9219" x="0" y="0"/>
  <path d="M9.96094 19.9219C15.4102 19.9219 19.9219 15.4004 19.9219 9.96094C19.9219 4.51172 15.4004 0 9.95117 0C4.51172 0 0 4.51172 0 9.96094C0 15.4004 4.52148 19.9219 9.96094 19.9219Z" fill="#000000" fill-opacity="0.85"/>
  <path d="M6.50391 14.3066C5.12695 14.3066 4.05273 13.4668 3.78906 12.5391C3.75 12.4121 3.74023 12.3047 3.74023 12.168C3.74023 11.8164 3.98438 11.5625 4.32617 11.5625C4.60938 11.5625 4.78516 11.7188 4.90234 12.041C5.16602 12.7441 5.71289 13.1348 6.51367 13.1348C7.4707 13.1348 8.13477 12.5488 8.13477 11.7676C8.13477 10.9473 7.53906 10.4102 6.57227 10.4102L5.98633 10.4102C5.6543 10.4102 5.42969 10.1562 5.42969 9.83398C5.42969 9.46289 5.6543 9.22852 5.98633 9.22852L6.5332 9.22852C7.32422 9.22852 7.89062 8.70117 7.89062 7.96875C7.89062 7.26562 7.33398 6.78711 6.54297 6.78711C5.76172 6.78711 5.26367 7.17773 5.04883 7.88086C4.94141 8.20312 4.79492 8.35938 4.48242 8.35938C4.13086 8.35938 3.89648 8.10547 3.89648 7.74414C3.89648 7.61719 3.90625 7.50977 3.93555 7.38281C4.18945 6.39648 5.20508 5.61523 6.57227 5.61523C8.07617 5.61523 9.13086 6.51367 9.13086 7.80273C9.13086 8.75 8.47656 9.58984 7.65625 9.72656L7.65625 9.78516C8.67188 9.89258 9.4043 10.752 9.4043 11.8262C9.4043 13.2715 8.21289 14.3066 6.50391 14.3066ZM14.8047 14.2871C14.4043 14.2871 14.1895 13.9941 14.1895 13.6035L14.1895 12.4219L11.2598 12.4219C10.752 12.4219 10.4004 12.0996 10.4004 11.5625C10.4004 11.2891 10.459 11.0645 10.625 10.752C11.2988 9.53125 12.3047 7.8125 13.1543 6.39648C13.4766 5.83984 13.8379 5.61523 14.4238 5.61523C15.0098 5.61523 15.4199 5.99609 15.4199 6.58203L15.4199 11.2891L15.9668 11.2891C16.3086 11.2891 16.5332 11.5039 16.5332 11.8652C16.5332 12.2168 16.3086 12.4219 15.9668 12.4219L15.4199 12.4219L15.4199 13.6035C15.4199 14.0039 15.2051 14.2871 14.8047 14.2871ZM14.1895 11.2891L14.1895 6.98242L14.1406 6.98242C13.3398 8.34961 12.3047 10.1074 11.709 11.25L11.709 11.2891Z" fill="#ffffff"/>
 </g>
</svg>
