<?xml version="1.0" encoding="UTF-8"?>
<!--Generator: Apple Native CoreSVG 175.5-->
<!DOCTYPE svg
PUBLIC "-//W3C//DTD SVG 1.1//EN"
       "http://www.w3.org/Graphics/SVG/1.1/DTD/svg11.dtd">
<svg version="1.1" xmlns="http://www.w3.org/2000/svg" xmlns:xlink="http://www.w3.org/1999/xlink" width="19.9219" height="19.9316">
 <g>
  <rect height="19.9316" opacity="0" width="19.9219" x="0" y="0"/>
  <path d="M9.96094 19.9219C15.4102 19.9219 19.9219 15.4004 19.9219 9.96094C19.9219 4.51172 15.4004 0 9.95117 0C4.51172 0 0 4.51172 0 9.96094C0 15.4004 4.52148 19.9219 9.96094 19.9219ZM9.96094 18.2617C5.35156 18.2617 1.66992 14.5703 1.66992 9.96094C1.66992 5.35156 5.3418 1.66016 9.95117 1.66016C14.5605 1.66016 18.2617 5.35156 18.2617 9.96094C18.2617 14.5703 14.5703 18.2617 9.96094 18.2617Z" fill="#000000" fill-opacity="0.85"/>
  <path d="M6.60156 14.1699C8.26172 14.1699 9.41406 13.1738 9.41406 11.7676C9.41406 10.7324 8.70117 9.89258 7.71484 9.79492L7.71484 9.73633C8.51562 9.59961 9.15039 8.78906 9.15039 7.87109C9.15039 6.62109 8.125 5.75195 6.66992 5.75195C5.3418 5.75195 4.36523 6.50391 4.11133 7.46094C4.0918 7.58789 4.08203 7.68555 4.08203 7.8125C4.08203 8.16406 4.30664 8.4082 4.63867 8.4082C4.94141 8.4082 5.08789 8.25195 5.18555 7.93945C5.40039 7.25586 5.87891 6.875 6.64062 6.875C7.41211 6.875 7.94922 7.34375 7.94922 8.02734C7.94922 8.74023 7.40234 9.25781 6.63086 9.25781L6.10352 9.25781C5.78125 9.25781 5.56641 9.48242 5.56641 9.83398C5.56641 10.1465 5.78125 10.3906 6.10352 10.3906L6.66992 10.3906C7.60742 10.3906 8.19336 10.918 8.19336 11.709C8.19336 12.4707 7.54883 13.0469 6.61133 13.0469C5.83984 13.0469 5.30273 12.666 5.04883 11.9824C4.93164 11.6699 4.76562 11.5137 4.49219 11.5137C4.16016 11.5137 3.92578 11.7578 3.92578 12.0996C3.92578 12.2363 3.93555 12.334 3.97461 12.4609C4.22852 13.3594 5.27344 14.1699 6.60156 14.1699ZM14.6484 14.1504C15.0391 14.1504 15.2441 13.877 15.2441 13.4961L15.2441 12.3438L15.7812 12.3438C16.1133 12.3438 16.3281 12.1484 16.3281 11.8066C16.3281 11.4551 16.1133 11.25 15.7812 11.25L15.2441 11.25L15.2441 6.67969C15.2441 6.11328 14.8535 5.75195 14.2871 5.75195C13.7207 5.75195 13.3691 5.9668 13.0566 6.50391C12.2363 7.87109 11.25 9.55078 10.5957 10.7324C10.4395 11.0352 10.3809 11.25 10.3809 11.5137C10.3809 12.0312 10.7227 12.3438 11.2109 12.3438L14.0625 12.3438L14.0625 13.4961C14.0625 13.8672 14.2676 14.1504 14.6484 14.1504ZM14.0625 11.25L11.6504 11.25L11.6504 11.2109C12.2266 10.1074 13.2324 8.38867 14.0137 7.07031L14.0625 7.07031Z" fill="#000000" fill-opacity="0.85"/>
 </g>
</svg>
