<?xml version="1.0" encoding="UTF-8"?>
<!--Generator: Apple Native CoreSVG 175.5-->
<!DOCTYPE svg
PUBLIC "-//W3C//DTD SVG 1.1//EN"
       "http://www.w3.org/Graphics/SVG/1.1/DTD/svg11.dtd">
<svg version="1.1" xmlns="http://www.w3.org/2000/svg" xmlns:xlink="http://www.w3.org/1999/xlink" width="17.9785" height="17.998">
 <g>
  <rect height="17.998" opacity="0" width="17.9785" x="0" y="0"/>
  <path d="M3.06641 17.998L14.9121 17.998C16.9629 17.998 17.9785 16.9824 17.9785 14.9707L17.9785 3.04688C17.9785 1.03516 16.9629 0.0195312 14.9121 0.0195312L3.06641 0.0195312C1.02539 0.0195312 0 1.02539 0 3.04688L0 14.9707C0 16.9922 1.02539 17.998 3.06641 17.998Z" fill="#000000" fill-opacity="0.85"/>
  <path d="M5.53711 13.3398C4.16016 13.3398 3.08594 12.5 2.82227 11.5723C2.79297 11.4453 2.77344 11.3379 2.77344 11.2012C2.77344 10.8496 3.01758 10.5957 3.35938 10.5957C3.64258 10.5957 3.81836 10.752 3.93555 11.0742C4.20898 11.7773 4.74609 12.168 5.54688 12.168C6.50391 12.168 7.17773 11.582 7.17773 10.8008C7.17773 9.98047 6.57227 9.44336 5.61523 9.44336L5.01953 9.44336C4.6875 9.44336 4.46289 9.18945 4.46289 8.86719C4.46289 8.49609 4.6875 8.26172 5.01953 8.26172L5.56641 8.26172C6.36719 8.26172 6.92383 7.73438 6.92383 7.00195C6.92383 6.29883 6.36719 5.82031 5.57617 5.82031C4.79492 5.82031 4.29688 6.21094 4.08203 6.91406C3.98438 7.23633 3.82812 7.39258 3.52539 7.39258C3.16406 7.39258 2.93945 7.13867 2.93945 6.77734C2.93945 6.65039 2.93945 6.54297 2.96875 6.41602C3.22266 5.42969 4.23828 4.64844 5.60547 4.64844C7.10938 4.64844 8.16406 5.54688 8.16406 6.83594C8.16406 7.7832 7.50977 8.62305 6.68945 8.75977L6.68945 8.81836C7.70508 8.92578 8.4375 9.78516 8.4375 10.8594C8.4375 12.3047 7.24609 13.3398 5.53711 13.3398ZM13.8379 13.3203C13.4375 13.3203 13.2227 13.0273 13.2227 12.6367L13.2227 11.4551L10.3027 11.4551C9.78516 11.4551 9.43359 11.1328 9.43359 10.5957C9.43359 10.3223 9.49219 10.0977 9.6582 9.78516C10.332 8.56445 11.3379 6.8457 12.1875 5.42969C12.5098 4.87305 12.8711 4.64844 13.457 4.64844C14.043 4.64844 14.4531 5.0293 14.4531 5.61523L14.4531 10.3223L15 10.3223C15.3418 10.3223 15.5664 10.5371 15.5664 10.8984C15.5664 11.25 15.3418 11.4551 15 11.4551L14.4531 11.4551L14.4531 12.6367C14.4531 13.0371 14.248 13.3203 13.8379 13.3203ZM13.2227 10.3223L13.2227 6.01562L13.1738 6.01562C12.373 7.38281 11.3379 9.14062 10.752 10.2832L10.752 10.3223Z" fill="#ffffff"/>
 </g>
</svg>
