<?xml version="1.0" encoding="UTF-8"?>
<!--Generator: Apple Native CoreSVG 175.5-->
<!DOCTYPE svg
PUBLIC "-//W3C//DTD SVG 1.1//EN"
       "http://www.w3.org/Graphics/SVG/1.1/DTD/svg11.dtd">
<svg version="1.1" xmlns="http://www.w3.org/2000/svg" xmlns:xlink="http://www.w3.org/1999/xlink" width="19.9219" height="19.9316">
 <g>
  <rect height="19.9316" opacity="0" width="19.9219" x="0" y="0"/>
  <path d="M9.96094 19.9219C15.4102 19.9219 19.9219 15.4004 19.9219 9.96094C19.9219 4.51172 15.4004 0 9.95117 0C4.51172 0 0 4.51172 0 9.96094C0 15.4004 4.52148 19.9219 9.96094 19.9219Z" fill="#000000" fill-opacity="0.85"/>
  <path d="M6.63086 14.3066C5.26367 14.3066 4.18945 13.4668 3.92578 12.5391C3.89648 12.4121 3.86719 12.3047 3.86719 12.168C3.86719 11.8164 4.11133 11.5625 4.46289 11.5625C4.74609 11.5625 4.91211 11.7188 5.03906 12.041C5.30273 12.7441 5.84961 13.1348 6.64062 13.1348C7.60742 13.1348 8.28125 12.5488 8.28125 11.7676C8.28125 10.9473 7.66602 10.4102 6.70898 10.4102L6.12305 10.4102C5.79102 10.4102 5.56641 10.1562 5.56641 9.83398C5.56641 9.46289 5.80078 9.22852 6.12305 9.22852L6.66016 9.22852C7.4707 9.22852 8.02734 8.70117 8.02734 7.96875C8.02734 7.26562 7.4707 6.78711 6.66992 6.78711C5.88867 6.78711 5.41016 7.17773 5.17578 7.88086C5.08789 8.20312 4.92188 8.35938 4.61914 8.35938C4.26758 8.35938 4.04297 8.10547 4.04297 7.74414C4.04297 7.61719 4.04297 7.50977 4.0625 7.38281C4.32617 6.39648 5.3418 5.61523 6.69922 5.61523C8.20312 5.61523 9.26758 6.51367 9.26758 7.80273C9.26758 8.75 8.61328 9.58984 7.7832 9.72656L7.7832 9.78516C8.79883 9.89258 9.53125 10.752 9.53125 11.8262C9.53125 13.2715 8.34961 14.3066 6.63086 14.3066ZM13.3789 14.3066C12.1191 14.3066 11.123 13.6426 10.8203 12.8027C10.7715 12.666 10.7422 12.5098 10.7422 12.3438C10.7422 12.0117 10.9668 11.7578 11.3086 11.7578C11.543 11.7578 11.7383 11.9043 11.8848 12.1973C12.1777 12.8027 12.7734 13.1641 13.4473 13.1641C14.4238 13.1641 15.0879 12.5293 15.0879 11.4746C15.0879 10.5469 14.4824 9.84375 13.6035 9.84375C13.1641 9.84375 12.8418 9.99023 12.4316 10.3516C12.1094 10.6152 11.9141 10.7031 11.6016 10.7031C11.1328 10.7031 10.8594 10.3516 10.8887 9.82422L11.1426 6.68945C11.1719 6.15234 11.5234 5.83008 12.0508 5.83008L15.5176 5.83008C15.8105 5.83008 16.0156 6.07422 16.0156 6.39648C16.0156 6.72852 15.8008 6.96289 15.5176 6.96289L12.1875 6.96289L11.9922 9.55078L12.041 9.55078C12.334 9.0918 13.0566 8.75977 13.7305 8.75977C15.293 8.75977 16.3477 9.89258 16.3477 11.4453C16.3477 13.2129 15.1562 14.3066 13.3789 14.3066Z" fill="#ffffff"/>
 </g>
</svg>
