<?xml version="1.0" encoding="UTF-8"?>
<!--Generator: Apple Native CoreSVG 175.5-->
<!DOCTYPE svg
PUBLIC "-//W3C//DTD SVG 1.1//EN"
       "http://www.w3.org/Graphics/SVG/1.1/DTD/svg11.dtd">
<svg version="1.1" xmlns="http://www.w3.org/2000/svg" xmlns:xlink="http://www.w3.org/1999/xlink" width="17.9785" height="17.998">
 <g>
  <rect height="17.998" opacity="0" width="17.9785" x="0" y="0"/>
  <path d="M3.06641 17.998L14.9121 17.998C16.9629 17.998 17.9785 16.9824 17.9785 14.9707L17.9785 3.04688C17.9785 1.03516 16.9629 0.0195312 14.9121 0.0195312L3.06641 0.0195312C1.02539 0.0195312 0 1.02539 0 3.04688L0 14.9707C0 16.9922 1.02539 17.998 3.06641 17.998ZM3.08594 16.4258C2.10938 16.4258 1.57227 15.9082 1.57227 14.8926L1.57227 3.125C1.57227 2.10938 2.10938 1.5918 3.08594 1.5918L14.8926 1.5918C15.8594 1.5918 16.4062 2.10938 16.4062 3.125L16.4062 14.8926C16.4062 15.9082 15.8594 16.4258 14.8926 16.4258Z" fill="#000000" fill-opacity="0.85"/>
  <path d="M5.77148 13.2031C7.43164 13.2031 8.59375 12.207 8.59375 10.8008C8.59375 9.76562 7.87109 8.92578 6.88477 8.82812L6.88477 8.76953C7.69531 8.63281 8.33008 7.82227 8.33008 6.9043C8.33008 5.6543 7.29492 4.78516 5.83984 4.78516C4.52148 4.78516 3.54492 5.53711 3.29102 6.49414C3.26172 6.62109 3.26172 6.71875 3.26172 6.8457C3.26172 7.19727 3.47656 7.44141 3.81836 7.44141C4.11133 7.44141 4.26758 7.28516 4.36523 6.97266C4.58008 6.28906 5.04883 5.9082 5.81055 5.9082C6.58203 5.9082 7.12891 6.37695 7.12891 7.06055C7.12891 7.77344 6.58203 8.29102 5.80078 8.29102L5.27344 8.29102C4.96094 8.29102 4.73633 8.51562 4.73633 8.86719C4.73633 9.17969 4.95117 9.42383 5.27344 9.42383L5.84961 9.42383C6.77734 9.42383 7.37305 9.95117 7.37305 10.7422C7.37305 11.5039 6.71875 12.0801 5.78125 12.0801C5.00977 12.0801 4.48242 11.6992 4.21875 11.0156C4.10156 10.7031 3.93555 10.5469 3.66211 10.5469C3.33008 10.5469 3.0957 10.791 3.0957 11.1328C3.0957 11.2695 3.11523 11.3672 3.14453 11.4941C3.4082 12.3926 4.44336 13.2031 5.77148 13.2031ZM12.3145 13.2031C14.043 13.2031 15.1855 12.1484 15.1855 10.4297C15.1855 8.92578 14.1699 7.83203 12.6562 7.83203C12.002 7.83203 11.3086 8.1543 11.0156 8.59375L10.9668 8.59375L11.1523 6.08398L14.3848 6.08398C14.6582 6.08398 14.873 5.85938 14.873 5.53711C14.873 5.22461 14.668 4.99023 14.3848 4.99023L11.0254 4.99023C10.5176 4.99023 10.1758 5.30273 10.1465 5.82031L9.90234 8.86719C9.87305 9.375 10.1465 9.70703 10.5859 9.70703C10.8887 9.70703 11.0742 9.62891 11.3867 9.375C11.7871 9.02344 12.0996 8.87695 12.5293 8.87695C13.3887 8.87695 13.9746 9.56055 13.9746 10.459C13.9746 11.4844 13.3301 12.0996 12.3828 12.0996C11.7188 12.0996 11.1426 11.748 10.8691 11.1621C10.7227 10.8789 10.5273 10.7422 10.3027 10.7422C9.9707 10.7422 9.75586 10.9863 9.75586 11.3086C9.75586 11.4648 9.78516 11.6113 9.84375 11.748C10.127 12.5586 11.0938 13.2031 12.3145 13.2031Z" fill="#000000" fill-opacity="0.85"/>
 </g>
</svg>
