<?xml version="1.0" encoding="UTF-8"?>
<!--Generator: Apple Native CoreSVG 175.5-->
<!DOCTYPE svg
PUBLIC "-//W3C//DTD SVG 1.1//EN"
       "http://www.w3.org/Graphics/SVG/1.1/DTD/svg11.dtd">
<svg version="1.1" xmlns="http://www.w3.org/2000/svg" xmlns:xlink="http://www.w3.org/1999/xlink" width="17.9785" height="17.998">
 <g>
  <rect height="17.998" opacity="0" width="17.9785" x="0" y="0"/>
  <path d="M3.06641 17.998L14.9121 17.998C16.9629 17.998 17.9785 16.9824 17.9785 14.9707L17.9785 3.04688C17.9785 1.03516 16.9629 0.0195312 14.9121 0.0195312L3.06641 0.0195312C1.02539 0.0195312 0 1.02539 0 3.04688L0 14.9707C0 16.9922 1.02539 17.998 3.06641 17.998Z" fill="#000000" fill-opacity="0.85"/>
  <path d="M5.66406 13.3398C4.29688 13.3398 3.22266 12.5 2.95898 11.5723C2.92969 11.4453 2.90039 11.3379 2.90039 11.2012C2.90039 10.8496 3.14453 10.5957 3.49609 10.5957C3.7793 10.5957 3.94531 10.752 4.07227 11.0742C4.33594 11.7773 4.88281 12.168 5.67383 12.168C6.64062 12.168 7.31445 11.582 7.31445 10.8008C7.31445 9.98047 6.69922 9.44336 5.74219 9.44336L5.15625 9.44336C4.82422 9.44336 4.59961 9.18945 4.59961 8.86719C4.59961 8.49609 4.83398 8.26172 5.15625 8.26172L5.69336 8.26172C6.50391 8.26172 7.06055 7.73438 7.06055 7.00195C7.06055 6.29883 6.50391 5.82031 5.70312 5.82031C4.92188 5.82031 4.44336 6.21094 4.21875 6.91406C4.12109 7.23633 3.95508 7.39258 3.65234 7.39258C3.30078 7.39258 3.07617 7.13867 3.07617 6.77734C3.07617 6.65039 3.07617 6.54297 3.10547 6.41602C3.36914 5.42969 4.375 4.64844 5.73242 4.64844C7.23633 4.64844 8.31055 5.54688 8.31055 6.83594C8.31055 7.7832 7.65625 8.62305 6.81641 8.75977L6.81641 8.81836C7.83203 8.92578 8.57422 9.78516 8.57422 10.8594C8.57422 12.3047 7.38281 13.3398 5.66406 13.3398ZM12.4121 13.3398C11.1523 13.3398 10.1562 12.6758 9.86328 11.8359C9.80469 11.6992 9.77539 11.543 9.77539 11.377C9.77539 11.0449 10 10.791 10.3418 10.791C10.5762 10.791 10.7715 10.9375 10.9277 11.2305C11.2109 11.8359 11.8066 12.1973 12.4805 12.1973C13.457 12.1973 14.1211 11.5625 14.1211 10.5078C14.1211 9.58008 13.5156 8.87695 12.6367 8.87695C12.1973 8.87695 11.875 9.02344 11.4648 9.38477C11.1426 9.64844 10.9473 9.73633 10.6348 9.73633C10.1758 9.73633 9.89258 9.38477 9.92188 8.85742L10.1758 5.72266C10.2051 5.18555 10.5566 4.86328 11.084 4.86328L14.5508 4.86328C14.8438 4.86328 15.0586 5.10742 15.0586 5.42969C15.0586 5.76172 14.834 5.99609 14.5508 5.99609L11.2207 5.99609L11.0254 8.58398L11.0742 8.58398C11.377 8.125 12.0898 7.79297 12.7637 7.79297C14.3262 7.79297 15.3809 8.92578 15.3809 10.4785C15.3809 12.2461 14.1992 13.3398 12.4121 13.3398Z" fill="#ffffff"/>
 </g>
</svg>
