<?xml version="1.0" encoding="UTF-8"?>
<!--Generator: Apple Native CoreSVG 175.5-->
<!DOCTYPE svg
PUBLIC "-//W3C//DTD SVG 1.1//EN"
       "http://www.w3.org/Graphics/SVG/1.1/DTD/svg11.dtd">
<svg version="1.1" xmlns="http://www.w3.org/2000/svg" xmlns:xlink="http://www.w3.org/1999/xlink" width="19.9219" height="19.9316">
 <g>
  <rect height="19.9316" opacity="0" width="19.9219" x="0" y="0"/>
  <path d="M9.96094 19.9219C15.4102 19.9219 19.9219 15.4004 19.9219 9.96094C19.9219 4.51172 15.4004 0 9.95117 0C4.51172 0 0 4.51172 0 9.96094C0 15.4004 4.52148 19.9219 9.96094 19.9219Z" fill="#000000" fill-opacity="0.85"/>
  <path d="M6.45508 14.3066C5.08789 14.3066 4.00391 13.4668 3.74023 12.5391C3.70117 12.4121 3.69141 12.3047 3.69141 12.168C3.69141 11.8066 3.93555 11.5625 4.27734 11.5625C4.56055 11.5625 4.73633 11.7188 4.85352 12.041C5.11719 12.7441 5.67383 13.1348 6.46484 13.1348C7.43164 13.1348 8.0957 12.5488 8.0957 11.7676C8.0957 10.9473 7.49023 10.4102 6.52344 10.4102L5.94727 10.4102C5.60547 10.4102 5.39062 10.1562 5.39062 9.83398C5.39062 9.46289 5.60547 9.22852 5.94727 9.22852L6.48438 9.22852C7.27539 9.22852 7.8418 8.70117 7.8418 7.96875C7.8418 7.26562 7.28516 6.78711 6.49414 6.78711C5.71289 6.78711 5.22461 7.17773 5 7.88086C4.90234 8.20312 4.73633 8.35938 4.43359 8.35938C4.0918 8.35938 3.85742 8.10547 3.85742 7.74414C3.85742 7.61719 3.86719 7.50977 3.88672 7.38281C4.15039 6.39648 5.15625 5.61523 6.52344 5.61523C8.02734 5.61523 9.08203 6.51367 9.08203 7.80273C9.08203 8.75 8.42773 9.58984 7.60742 9.72656L7.60742 9.78516C8.62305 9.89258 9.35547 10.752 9.35547 11.8262C9.35547 13.2715 8.16406 14.3066 6.45508 14.3066ZM13.5059 14.3164C12.4805 14.3164 11.6113 13.9258 11.0938 12.9492C10.752 12.3242 10.5566 11.4258 10.5566 10.1953C10.5566 7.12891 11.748 5.61523 13.7012 5.61523C14.8438 5.61523 15.6445 6.21094 15.9082 6.88477C15.9668 7.02148 15.9863 7.13867 15.9863 7.27539C15.9863 7.60742 15.7617 7.83203 15.4883 7.83203C15.2051 7.83203 15.0488 7.70508 14.8828 7.45117C14.6289 7.06055 14.2188 6.78711 13.6426 6.78711C12.5098 6.78711 11.748 7.97852 11.748 9.87305C11.748 9.92188 11.748 9.94141 11.748 9.9707L11.8164 9.9707C12.0605 9.30664 12.7441 8.70117 13.8086 8.70117C15.1172 8.70117 16.3086 9.6582 16.3086 11.3867C16.3086 13.2324 15.1367 14.3164 13.5059 14.3164ZM13.4473 13.2031C14.4141 13.2031 15.0293 12.5195 15.0293 11.4453C15.0293 10.4395 14.3848 9.74609 13.4473 9.74609C12.5 9.74609 11.8555 10.4492 11.8555 11.4355C11.8555 12.4707 12.5098 13.2031 13.4473 13.2031Z" fill="#ffffff"/>
 </g>
</svg>
