<?xml version="1.0" encoding="UTF-8"?>
<!--Generator: Apple Native CoreSVG 175.5-->
<!DOCTYPE svg
PUBLIC "-//W3C//DTD SVG 1.1//EN"
       "http://www.w3.org/Graphics/SVG/1.1/DTD/svg11.dtd">
<svg version="1.1" xmlns="http://www.w3.org/2000/svg" xmlns:xlink="http://www.w3.org/1999/xlink" width="17.9785" height="17.998">
 <g>
  <rect height="17.998" opacity="0" width="17.9785" x="0" y="0"/>
  <path d="M3.06641 17.998L14.9121 17.998C16.9629 17.998 17.9785 16.9824 17.9785 14.9707L17.9785 3.04688C17.9785 1.03516 16.9629 0.0195312 14.9121 0.0195312L3.06641 0.0195312C1.02539 0.0195312 0 1.02539 0 3.04688L0 14.9707C0 16.9922 1.02539 17.998 3.06641 17.998ZM3.08594 16.4258C2.10938 16.4258 1.57227 15.9082 1.57227 14.8926L1.57227 3.125C1.57227 2.10938 2.10938 1.5918 3.08594 1.5918L14.8926 1.5918C15.8594 1.5918 16.4062 2.10938 16.4062 3.125L16.4062 14.8926C16.4062 15.9082 15.8594 16.4258 14.8926 16.4258Z" fill="#000000" fill-opacity="0.85"/>
  <path d="M5.5957 13.2031C7.25586 13.2031 8.4082 12.207 8.4082 10.8008C8.4082 9.76562 7.69531 8.92578 6.70898 8.82812L6.70898 8.76953C7.50977 8.63281 8.14453 7.82227 8.14453 6.9043C8.14453 5.6543 7.11914 4.78516 5.66406 4.78516C4.33594 4.78516 3.35938 5.53711 3.10547 6.49414C3.08594 6.62109 3.08594 6.71875 3.08594 6.8457C3.08594 7.19727 3.30078 7.44141 3.64258 7.44141C3.93555 7.44141 4.0918 7.28516 4.17969 6.97266C4.39453 6.28906 4.87305 5.9082 5.63477 5.9082C6.40625 5.9082 6.94336 6.37695 6.94336 7.06055C6.94336 7.77344 6.40625 8.29102 5.625 8.29102L5.09766 8.29102C4.77539 8.29102 4.56055 8.51562 4.56055 8.86719C4.56055 9.17969 4.77539 9.42383 5.09766 9.42383L5.67383 9.42383C6.60156 9.42383 7.1875 9.95117 7.1875 10.7422C7.1875 11.5039 6.54297 12.0801 5.60547 12.0801C4.83398 12.0801 4.30664 11.6992 4.04297 11.0156C3.92578 10.7031 3.75977 10.5469 3.48633 10.5469C3.1543 10.5469 2.91992 10.791 2.91992 11.1328C2.91992 11.2695 2.92969 11.3672 2.96875 11.4941C3.22266 12.3926 4.26758 13.2031 5.5957 13.2031ZM12.4316 13.2129C14.0137 13.2129 15.1465 12.168 15.1465 10.3809C15.1465 8.70117 14.0039 7.77344 12.7246 7.77344C11.6895 7.77344 11.0352 8.35938 10.791 9.00391L10.7227 9.00391C10.7227 8.97461 10.7227 8.95508 10.7227 8.91602C10.7227 7.07031 11.4648 5.9082 12.5684 5.9082C13.1348 5.9082 13.5254 6.18164 13.7695 6.5625C13.9355 6.80664 14.0918 6.92383 14.3555 6.92383C14.6289 6.92383 14.834 6.70898 14.834 6.38672C14.834 6.25977 14.8145 6.14258 14.7656 6.01562C14.5117 5.36133 13.7305 4.78516 12.6172 4.78516C10.7324 4.78516 9.58008 6.25 9.58008 9.21875C9.58008 10.4102 9.76562 11.2793 10.0977 11.8945C10.5957 12.832 11.4355 13.2129 12.4316 13.2129ZM12.373 12.1387C11.4648 12.1387 10.8301 11.4258 10.8301 10.4199C10.8301 9.46289 11.4551 8.7793 12.373 8.7793C13.291 8.7793 13.916 9.45312 13.916 10.4297C13.916 11.4746 13.3203 12.1387 12.373 12.1387Z" fill="#000000" fill-opacity="0.85"/>
 </g>
</svg>
