<?xml version="1.0" encoding="UTF-8"?>
<!--Generator: Apple Native CoreSVG 175.5-->
<!DOCTYPE svg
PUBLIC "-//W3C//DTD SVG 1.1//EN"
       "http://www.w3.org/Graphics/SVG/1.1/DTD/svg11.dtd">
<svg version="1.1" xmlns="http://www.w3.org/2000/svg" xmlns:xlink="http://www.w3.org/1999/xlink" width="17.9785" height="17.998">
 <g>
  <rect height="17.998" opacity="0" width="17.9785" x="0" y="0"/>
  <path d="M3.06641 17.998L14.9121 17.998C16.9629 17.998 17.9785 16.9824 17.9785 14.9707L17.9785 3.04688C17.9785 1.03516 16.9629 0.0195312 14.9121 0.0195312L3.06641 0.0195312C1.02539 0.0195312 0 1.02539 0 3.04688L0 14.9707C0 16.9922 1.02539 17.998 3.06641 17.998ZM3.08594 16.4258C2.10938 16.4258 1.57227 15.9082 1.57227 14.8926L1.57227 3.125C1.57227 2.10938 2.10938 1.5918 3.08594 1.5918L14.8926 1.5918C15.8594 1.5918 16.4062 2.10938 16.4062 3.125L16.4062 14.8926C16.4062 15.9082 15.8594 16.4258 14.8926 16.4258Z" fill="#000000" fill-opacity="0.85"/>
  <path d="M5.86914 13.2031C7.5293 13.2031 8.69141 12.207 8.69141 10.8008C8.69141 9.76562 7.96875 8.92578 6.98242 8.82812L6.98242 8.76953C7.79297 8.63281 8.42773 7.82227 8.42773 6.9043C8.42773 5.6543 7.40234 4.78516 5.9375 4.78516C4.61914 4.78516 3.64258 5.53711 3.38867 6.49414C3.35938 6.62109 3.35938 6.71875 3.35938 6.8457C3.35938 7.19727 3.58398 7.44141 3.91602 7.44141C4.20898 7.44141 4.36523 7.28516 4.46289 6.97266C4.67773 6.28906 5.14648 5.9082 5.9082 5.9082C6.67969 5.9082 7.22656 6.37695 7.22656 7.06055C7.22656 7.77344 6.67969 8.29102 5.89844 8.29102L5.37109 8.29102C5.05859 8.29102 4.84375 8.51562 4.84375 8.86719C4.84375 9.17969 5.05859 9.42383 5.37109 9.42383L5.94727 9.42383C6.875 9.42383 7.4707 9.95117 7.4707 10.7422C7.4707 11.5039 6.81641 12.0801 5.87891 12.0801C5.10742 12.0801 4.58008 11.6992 4.31641 11.0156C4.19922 10.7031 4.0332 10.5469 3.75977 10.5469C3.4375 10.5469 3.19336 10.791 3.19336 11.1328C3.19336 11.2695 3.21289 11.3672 3.24219 11.4941C3.50586 12.3926 4.54102 13.2031 5.86914 13.2031ZM11.1914 13.0957C11.4551 13.0957 11.6406 12.9492 11.8164 12.6172L14.8633 6.52344C15.0098 6.21094 15.0488 6.03516 15.0488 5.83008C15.0488 5.35156 14.707 4.98047 14.1797 4.98047L10.2344 4.98047C9.90234 4.98047 9.67773 5.20508 9.67773 5.53711C9.67773 5.85938 9.90234 6.07422 10.2344 6.07422L13.6719 6.07422L13.6719 6.15234L10.6445 12.0117C10.5566 12.1582 10.5371 12.2754 10.5371 12.4609C10.5371 12.832 10.8203 13.0957 11.1914 13.0957Z" fill="#000000" fill-opacity="0.85"/>
 </g>
</svg>
