<?xml version="1.0" encoding="UTF-8"?>
<!--Generator: Apple Native CoreSVG 175.5-->
<!DOCTYPE svg
PUBLIC "-//W3C//DTD SVG 1.1//EN"
       "http://www.w3.org/Graphics/SVG/1.1/DTD/svg11.dtd">
<svg version="1.1" xmlns="http://www.w3.org/2000/svg" xmlns:xlink="http://www.w3.org/1999/xlink" width="17.9785" height="17.998">
 <g>
  <rect height="17.998" opacity="0" width="17.9785" x="0" y="0"/>
  <path d="M3.06641 17.998L14.9121 17.998C16.9629 17.998 17.9785 16.9824 17.9785 14.9707L17.9785 3.04688C17.9785 1.03516 16.9629 0.0195312 14.9121 0.0195312L3.06641 0.0195312C1.02539 0.0195312 0 1.02539 0 3.04688L0 14.9707C0 16.9922 1.02539 17.998 3.06641 17.998Z" fill="#000000" fill-opacity="0.85"/>
  <path d="M5.76172 13.3398C4.39453 13.3398 3.33008 12.5 3.05664 11.5723C3.02734 11.4453 3.00781 11.3379 3.00781 11.2012C3.00781 10.8496 3.26172 10.5957 3.59375 10.5957C3.87695 10.5957 4.04297 10.752 4.16992 11.0742C4.44336 11.7773 4.98047 12.168 5.78125 12.168C6.73828 12.168 7.41211 11.582 7.41211 10.8008C7.41211 9.98047 6.79688 9.44336 5.84961 9.44336L5.25391 9.44336C4.93164 9.44336 4.70703 9.18945 4.70703 8.86719C4.70703 8.49609 4.93164 8.26172 5.25391 8.26172L5.80078 8.26172C6.60156 8.26172 7.1582 7.73438 7.1582 7.00195C7.1582 6.29883 6.60156 5.82031 5.81055 5.82031C5.01953 5.82031 4.54102 6.21094 4.31641 6.91406C4.21875 7.23633 4.05273 7.39258 3.75 7.39258C3.4082 7.39258 3.17383 7.13867 3.17383 6.77734C3.17383 6.65039 3.17383 6.54297 3.20312 6.41602C3.4668 5.42969 4.47266 4.64844 5.83984 4.64844C7.35352 4.64844 8.4082 5.54688 8.4082 6.83594C8.4082 7.7832 7.75391 8.62305 6.91406 8.75977L6.91406 8.81836C7.92969 8.92578 8.68164 9.78516 8.68164 10.8594C8.68164 12.3047 7.48047 13.3398 5.76172 13.3398ZM11.2598 13.2227C10.8789 13.2227 10.5762 12.9492 10.5762 12.5684C10.5762 12.373 10.6055 12.2559 10.6934 12.0996L13.8086 6.06445L13.8086 5.98633L10.2734 5.98633C9.93164 5.98633 9.69727 5.76172 9.69727 5.42969C9.69727 5.08789 9.93164 4.85352 10.2734 4.85352L14.3359 4.85352C14.8828 4.85352 15.2344 5.24414 15.2344 5.73242C15.2344 5.94727 15.1953 6.13281 15.0488 6.45508L11.9043 12.7246C11.7285 13.0762 11.5332 13.2227 11.2598 13.2227Z" fill="#ffffff"/>
 </g>
</svg>
