<?xml version="1.0" encoding="UTF-8"?>
<!--Generator: Apple Native CoreSVG 175.5-->
<!DOCTYPE svg
PUBLIC "-//W3C//DTD SVG 1.1//EN"
       "http://www.w3.org/Graphics/SVG/1.1/DTD/svg11.dtd">
<svg version="1.1" xmlns="http://www.w3.org/2000/svg" xmlns:xlink="http://www.w3.org/1999/xlink" width="17.9785" height="17.998">
 <g>
  <rect height="17.998" opacity="0" width="17.9785" x="0" y="0"/>
  <path d="M3.06641 17.998L14.9121 17.998C16.9629 17.998 17.9785 16.9824 17.9785 14.9707L17.9785 3.04688C17.9785 1.03516 16.9629 0.0195312 14.9121 0.0195312L3.06641 0.0195312C1.02539 0.0195312 0 1.02539 0 3.04688L0 14.9707C0 16.9922 1.02539 17.998 3.06641 17.998ZM3.08594 16.4258C2.10938 16.4258 1.57227 15.9082 1.57227 14.8926L1.57227 3.125C1.57227 2.10938 2.10938 1.5918 3.08594 1.5918L14.8926 1.5918C15.8594 1.5918 16.4062 2.10938 16.4062 3.125L16.4062 14.8926C16.4062 15.9082 15.8594 16.4258 14.8926 16.4258Z" fill="#000000" fill-opacity="0.85"/>
  <path d="M5.71289 13.2031C7.37305 13.2031 8.52539 12.207 8.52539 10.8008C8.52539 9.76562 7.8125 8.92578 6.82617 8.82812L6.82617 8.76953C7.62695 8.63281 8.26172 7.82227 8.26172 6.9043C8.26172 5.6543 7.23633 4.78516 5.78125 4.78516C4.45312 4.78516 3.47656 5.53711 3.22266 6.49414C3.20312 6.62109 3.19336 6.71875 3.19336 6.8457C3.19336 7.19727 3.41797 7.44141 3.75 7.44141C4.04297 7.44141 4.19922 7.28516 4.29688 6.97266C4.51172 6.28906 4.99023 5.9082 5.75195 5.9082C6.52344 5.9082 7.06055 6.37695 7.06055 7.06055C7.06055 7.77344 6.51367 8.29102 5.74219 8.29102L5.21484 8.29102C4.89258 8.29102 4.67773 8.51562 4.67773 8.86719C4.67773 9.17969 4.89258 9.42383 5.21484 9.42383L5.78125 9.42383C6.71875 9.42383 7.30469 9.95117 7.30469 10.7422C7.30469 11.5039 6.66016 12.0801 5.72266 12.0801C4.95117 12.0801 4.41406 11.6992 4.16016 11.0156C4.04297 10.7031 3.87695 10.5469 3.60352 10.5469C3.27148 10.5469 3.03711 10.791 3.03711 11.1328C3.03711 11.2695 3.04688 11.3672 3.08594 11.4941C3.33984 12.3926 4.38477 13.2031 5.71289 13.2031ZM12.4414 13.2031C14.1406 13.2031 15.3027 12.2266 15.3027 10.8105C15.3027 9.81445 14.6875 9.00391 13.6426 8.78906L13.6426 8.73047C14.541 8.48633 15.0195 7.7832 15.0195 6.93359C15.0195 5.66406 13.9648 4.78516 12.4609 4.78516C10.9668 4.78516 9.91211 5.66406 9.91211 6.93359C9.91211 7.7832 10.3809 8.4668 11.2891 8.73047L11.2891 8.78906C10.2246 9.00391 9.62891 9.82422 9.62891 10.8203C9.62891 12.2461 10.752 13.2031 12.4414 13.2031ZM12.4707 12.1875C11.543 12.1875 10.8691 11.5918 10.8691 10.7324C10.8691 9.89258 11.543 9.27734 12.4707 9.27734C13.418 9.27734 14.0723 9.88281 14.0723 10.7324C14.0723 11.5918 13.3984 12.1875 12.4707 12.1875ZM12.4609 8.33984C11.6992 8.33984 11.1621 7.79297 11.1621 7.05078C11.1621 6.30859 11.6992 5.80078 12.4609 5.80078C13.2324 5.80078 13.7695 6.30859 13.7695 7.05078C13.7695 7.79297 13.2324 8.33984 12.4609 8.33984Z" fill="#000000" fill-opacity="0.85"/>
 </g>
</svg>
