<?xml version="1.0" encoding="UTF-8"?>
<!--Generator: Apple Native CoreSVG 175.5-->
<!DOCTYPE svg
PUBLIC "-//W3C//DTD SVG 1.1//EN"
       "http://www.w3.org/Graphics/SVG/1.1/DTD/svg11.dtd">
<svg version="1.1" xmlns="http://www.w3.org/2000/svg" xmlns:xlink="http://www.w3.org/1999/xlink" width="19.9219" height="19.9316">
 <g>
  <rect height="19.9316" opacity="0" width="19.9219" x="0" y="0"/>
  <path d="M9.96094 19.9219C15.4102 19.9219 19.9219 15.4004 19.9219 9.96094C19.9219 4.51172 15.4004 0 9.95117 0C4.51172 0 0 4.51172 0 9.96094C0 15.4004 4.52148 19.9219 9.96094 19.9219Z" fill="#000000" fill-opacity="0.85"/>
  <path d="M6.64062 14.1699C5.30273 14.1699 4.26758 13.3594 4.01367 12.4609C3.97461 12.334 3.96484 12.2363 3.96484 12.0996C3.96484 11.7578 4.19922 11.5137 4.53125 11.5137C4.80469 11.5137 4.96094 11.6699 5.08789 11.9824C5.3418 12.666 5.87891 13.0469 6.65039 13.0469C7.58789 13.0469 8.23242 12.4707 8.23242 11.709C8.23242 10.918 7.63672 10.3906 6.70898 10.3906L6.14258 10.3906C5.82031 10.3906 5.60547 10.1465 5.60547 9.83398C5.60547 9.48242 5.82031 9.25781 6.14258 9.25781L6.66992 9.25781C7.44141 9.25781 7.98828 8.74023 7.98828 8.02734C7.98828 7.34375 7.45117 6.875 6.67969 6.875C5.91797 6.875 5.43945 7.25586 5.22461 7.93945C5.12695 8.25195 4.9707 8.4082 4.67773 8.4082C4.3457 8.4082 4.12109 8.16406 4.12109 7.8125C4.12109 7.68555 4.13086 7.58789 4.15039 7.46094C4.4043 6.50391 5.38086 5.75195 6.70898 5.75195C8.16406 5.75195 9.18945 6.62109 9.18945 7.87109C9.18945 8.78906 8.55469 9.59961 7.74414 9.73633L7.74414 9.79492C8.73047 9.89258 9.45312 10.7324 9.45312 11.7676C9.45312 13.1738 8.30078 14.1699 6.64062 14.1699ZM13.1348 14.1699C11.7871 14.1699 10.9863 13.4082 10.8301 12.8711C10.791 12.7539 10.752 12.6172 10.752 12.5195C10.752 12.1777 10.9668 11.9434 11.2695 11.9434C11.5234 11.9434 11.7188 12.0508 11.8652 12.3242C12.1094 12.7539 12.5488 13.0469 13.1152 13.0469C14.2383 13.0469 14.9902 11.8945 14.9707 9.95117L14.9121 9.95117C14.6484 10.6152 14.0137 11.1914 12.9395 11.1914C11.6699 11.1914 10.5273 10.2539 10.5273 8.57422C10.5273 6.85547 11.6016 5.75195 13.2422 5.75195C15.0684 5.75195 16.123 7.12891 16.123 9.6875C16.123 12.627 15.0781 14.1699 13.1348 14.1699ZM13.3105 10.1855C14.2285 10.1855 14.8633 9.49219 14.8633 8.53516C14.8633 7.5293 14.2188 6.81641 13.3203 6.81641C12.373 6.81641 11.7676 7.49023 11.7676 8.51562C11.7676 9.49219 12.3828 10.1855 13.3105 10.1855Z" fill="#ffffff"/>
 </g>
</svg>
