<?xml version="1.0" encoding="UTF-8"?>
<!--Generator: Apple Native CoreSVG 175.5-->
<!DOCTYPE svg
PUBLIC "-//W3C//DTD SVG 1.1//EN"
       "http://www.w3.org/Graphics/SVG/1.1/DTD/svg11.dtd">
<svg version="1.1" xmlns="http://www.w3.org/2000/svg" xmlns:xlink="http://www.w3.org/1999/xlink" width="17.9785" height="17.998">
 <g>
  <rect height="17.998" opacity="0" width="17.9785" x="0" y="0"/>
  <path d="M3.06641 17.998L14.9121 17.998C16.9629 17.998 17.9785 16.9824 17.9785 14.9707L17.9785 3.04688C17.9785 1.03516 16.9629 0.0195312 14.9121 0.0195312L3.06641 0.0195312C1.02539 0.0195312 0 1.02539 0 3.04688L0 14.9707C0 16.9922 1.02539 17.998 3.06641 17.998ZM3.08594 16.4258C2.10938 16.4258 1.57227 15.9082 1.57227 14.8926L1.57227 3.125C1.57227 2.10938 2.10938 1.5918 3.08594 1.5918L14.8926 1.5918C15.8594 1.5918 16.4062 2.10938 16.4062 3.125L16.4062 14.8926C16.4062 15.9082 15.8594 16.4258 14.8926 16.4258Z" fill="#000000" fill-opacity="0.85"/>
  <path d="M5.67383 13.2031C7.33398 13.2031 8.48633 12.207 8.48633 10.8008C8.48633 9.76562 7.77344 8.92578 6.78711 8.82812L6.78711 8.76953C7.58789 8.63281 8.22266 7.82227 8.22266 6.9043C8.22266 5.6543 7.19727 4.78516 5.74219 4.78516C4.41406 4.78516 3.4375 5.53711 3.18359 6.49414C3.16406 6.62109 3.1543 6.71875 3.1543 6.8457C3.1543 7.19727 3.37891 7.44141 3.7207 7.44141C4.01367 7.44141 4.16016 7.28516 4.25781 6.97266C4.47266 6.28906 4.95117 5.9082 5.71289 5.9082C6.48438 5.9082 7.02148 6.37695 7.02148 7.06055C7.02148 7.77344 6.47461 8.29102 5.70312 8.29102L5.17578 8.29102C4.85352 8.29102 4.63867 8.51562 4.63867 8.86719C4.63867 9.17969 4.85352 9.42383 5.17578 9.42383L5.74219 9.42383C6.67969 9.42383 7.26562 9.95117 7.26562 10.7422C7.26562 11.5039 6.62109 12.0801 5.68359 12.0801C4.91211 12.0801 4.38477 11.6992 4.12109 11.0156C4.00391 10.7031 3.83789 10.5469 3.56445 10.5469C3.23242 10.5469 2.99805 10.791 2.99805 11.1328C2.99805 11.2695 3.00781 11.3672 3.04688 11.4941C3.30078 12.3926 4.3457 13.2031 5.67383 13.2031ZM12.168 13.2031C14.1113 13.2031 15.1562 11.6602 15.1562 8.7207C15.1562 6.16211 14.1016 4.78516 12.2754 4.78516C10.6348 4.78516 9.56055 5.88867 9.56055 7.60742C9.56055 9.28711 10.7031 10.2246 11.9824 10.2246C13.0469 10.2246 13.6816 9.64844 13.9453 8.98438L14.0039 8.98438C14.0234 10.9277 13.2715 12.0801 12.1484 12.0801C11.582 12.0801 11.1426 11.7871 10.9082 11.3574C10.752 11.084 10.5566 10.9766 10.3027 10.9766C10 10.9766 9.78516 11.2109 9.78516 11.5527C9.78516 11.6504 9.82422 11.7871 9.86328 11.9043C10.0195 12.4414 10.8203 13.2031 12.168 13.2031ZM12.3438 9.21875C11.416 9.21875 10.8008 8.52539 10.8008 7.54883C10.8008 6.52344 11.4062 5.84961 12.3535 5.84961C13.252 5.84961 13.8965 6.5625 13.8965 7.56836C13.8965 8.52539 13.2617 9.21875 12.3438 9.21875Z" fill="#000000" fill-opacity="0.85"/>
 </g>
</svg>
