<?xml version="1.0" encoding="UTF-8"?>
<!--Generator: Apple Native CoreSVG 175.5-->
<!DOCTYPE svg
PUBLIC "-//W3C//DTD SVG 1.1//EN"
       "http://www.w3.org/Graphics/SVG/1.1/DTD/svg11.dtd">
<svg version="1.1" xmlns="http://www.w3.org/2000/svg" xmlns:xlink="http://www.w3.org/1999/xlink" width="17.9785" height="17.998">
 <g>
  <rect height="17.998" opacity="0" width="17.9785" x="0" y="0"/>
  <path d="M3.06641 17.998L14.9121 17.998C16.9629 17.998 17.9785 16.9824 17.9785 14.9707L17.9785 3.04688C17.9785 1.03516 16.9629 0.0195312 14.9121 0.0195312L3.06641 0.0195312C1.02539 0.0195312 0 1.02539 0 3.04688L0 14.9707C0 16.9922 1.02539 17.998 3.06641 17.998Z" fill="#000000" fill-opacity="0.85"/>
  <path d="M10.3027 13.584C9.84375 13.584 9.57031 13.2617 9.57031 12.7344L9.57031 11.709L5.95703 11.709C5.3125 11.709 4.91211 11.3184 4.91211 10.7227C4.91211 10.4199 4.98047 10.1758 5.18555 9.83398C6.01562 8.47656 7.25586 6.64062 8.30078 5.05859C8.70117 4.45312 9.14062 4.19922 9.84375 4.19922C10.5762 4.19922 11.0645 4.62891 11.0645 5.26367L11.0645 10.3809L11.8262 10.3809C12.2363 10.3809 12.5 10.6543 12.5 11.0547C12.5 11.4453 12.2266 11.709 11.8262 11.709L11.0645 11.709L11.0645 12.7344C11.0645 13.2715 10.791 13.584 10.3027 13.584ZM9.57031 10.3809L9.57031 5.50781L9.50195 5.50781C8.44727 7.09961 7.16797 9.00391 6.39648 10.3223L6.39648 10.3809Z" fill="#ffffff"/>
 </g>
</svg>
