<?xml version="1.0" encoding="UTF-8"?>
<!--Generator: Apple Native CoreSVG 175.5-->
<!DOCTYPE svg
PUBLIC "-//W3C//DTD SVG 1.1//EN"
       "http://www.w3.org/Graphics/SVG/1.1/DTD/svg11.dtd">
<svg version="1.1" xmlns="http://www.w3.org/2000/svg" xmlns:xlink="http://www.w3.org/1999/xlink" width="19.9219" height="19.9316">
 <g>
  <rect height="19.9316" opacity="0" width="19.9219" x="0" y="0"/>
  <path d="M9.96094 19.9219C15.4102 19.9219 19.9219 15.4004 19.9219 9.96094C19.9219 4.51172 15.4004 0 9.95117 0C4.51172 0 0 4.51172 0 9.96094C0 15.4004 4.52148 19.9219 9.96094 19.9219Z" fill="#000000" fill-opacity="0.85"/>
  <path d="M7.93945 14.2871C7.53906 14.2871 7.33398 13.9941 7.33398 13.6035L7.33398 12.4219L4.39453 12.4219C3.88672 12.4219 3.53516 12.0996 3.53516 11.5625C3.53516 11.2891 3.59375 11.0645 3.75977 10.752C4.43359 9.53125 5.43945 7.8125 6.28906 6.39648C6.61133 5.83984 6.97266 5.61523 7.55859 5.61523C8.14453 5.61523 8.55469 5.99609 8.55469 6.58203L8.55469 11.2891L9.10156 11.2891C9.44336 11.2891 9.66797 11.5039 9.66797 11.8652C9.66797 12.2168 9.44336 12.4219 9.10156 12.4219L8.55469 12.4219L8.55469 13.6035C8.55469 14.0039 8.33984 14.2871 7.93945 14.2871ZM7.33398 11.2891L7.33398 6.98242L7.27539 6.98242C6.47461 8.34961 5.44922 10.1074 4.85352 11.25L4.85352 11.2891ZM13.5352 14.3066C11.8066 14.3066 10.6543 12.6465 10.6543 9.96094C10.6543 7.27539 11.8066 5.61523 13.5352 5.61523C15.2734 5.61523 16.416 7.27539 16.416 9.96094C16.416 12.6465 15.2734 14.3066 13.5352 14.3066ZM13.5352 13.0762C14.502 13.0762 15.0879 11.8945 15.0879 9.96094C15.0879 8.02734 14.4922 6.8457 13.5352 6.8457C12.5781 6.8457 11.9824 8.02734 11.9824 9.96094C11.9824 11.8945 12.5781 13.0762 13.5352 13.0762Z" fill="#ffffff"/>
 </g>
</svg>
