<?xml version="1.0" encoding="UTF-8"?>
<!--Generator: Apple Native CoreSVG 175.5-->
<!DOCTYPE svg
PUBLIC "-//W3C//DTD SVG 1.1//EN"
       "http://www.w3.org/Graphics/SVG/1.1/DTD/svg11.dtd">
<svg version="1.1" xmlns="http://www.w3.org/2000/svg" xmlns:xlink="http://www.w3.org/1999/xlink" width="19.9219" height="19.9316">
 <g>
  <rect height="19.9316" opacity="0" width="19.9219" x="0" y="0"/>
  <path d="M9.96094 19.9219C15.4102 19.9219 19.9219 15.4004 19.9219 9.96094C19.9219 4.51172 15.4004 0 9.95117 0C4.51172 0 0 4.51172 0 9.96094C0 15.4004 4.52148 19.9219 9.96094 19.9219ZM9.96094 18.2617C5.35156 18.2617 1.66992 14.5703 1.66992 9.96094C1.66992 5.35156 5.3418 1.66016 9.95117 1.66016C14.5605 1.66016 18.2617 5.35156 18.2617 9.96094C18.2617 14.5703 14.5703 18.2617 9.96094 18.2617Z" fill="#000000" fill-opacity="0.85"/>
  <path d="M7.98828 14.1504C8.37891 14.1504 8.58398 13.877 8.58398 13.4961L8.58398 12.3438L9.12109 12.3438C9.45312 12.3438 9.66797 12.1484 9.66797 11.8066C9.66797 11.4551 9.45312 11.25 9.12109 11.25L8.58398 11.25L8.58398 6.67969C8.58398 6.11328 8.19336 5.75195 7.62695 5.75195C7.06055 5.75195 6.70898 5.9668 6.39648 6.50391C5.57617 7.87109 4.58984 9.55078 3.93555 10.7324C3.7793 11.0352 3.7207 11.25 3.7207 11.5137C3.7207 12.0312 4.0625 12.3438 4.55078 12.3438L7.40234 12.3438L7.40234 13.4961C7.40234 13.8672 7.60742 14.1504 7.98828 14.1504ZM7.40234 11.25L4.99023 11.25L4.99023 11.2109C5.56641 10.1074 6.57227 8.38867 7.35352 7.07031L7.40234 7.07031ZM13.418 14.1699C15.0977 14.1699 16.2109 12.5586 16.2109 9.96094C16.2109 7.36328 15.0977 5.75195 13.418 5.75195C11.7383 5.75195 10.625 7.36328 10.625 9.96094C10.625 12.5586 11.7383 14.1699 13.418 14.1699ZM13.418 12.9883C12.4902 12.9883 11.9043 11.8359 11.9043 9.96094C11.9043 8.08594 12.4902 6.93359 13.418 6.93359C14.3457 6.93359 14.9316 8.08594 14.9316 9.96094C14.9316 11.8359 14.3555 12.9883 13.418 12.9883Z" fill="#000000" fill-opacity="0.85"/>
 </g>
</svg>
