<?xml version="1.0" encoding="UTF-8"?>
<!--Generator: Apple Native CoreSVG 175.5-->
<!DOCTYPE svg
PUBLIC "-//W3C//DTD SVG 1.1//EN"
       "http://www.w3.org/Graphics/SVG/1.1/DTD/svg11.dtd">
<svg version="1.1" xmlns="http://www.w3.org/2000/svg" xmlns:xlink="http://www.w3.org/1999/xlink" width="17.9785" height="17.998">
 <g>
  <rect height="17.998" opacity="0" width="17.9785" x="0" y="0"/>
  <path d="M3.06641 17.998L14.9121 17.998C16.9629 17.998 17.9785 16.9824 17.9785 14.9707L17.9785 3.04688C17.9785 1.03516 16.9629 0.0195312 14.9121 0.0195312L3.06641 0.0195312C1.02539 0.0195312 0 1.02539 0 3.04688L0 14.9707C0 16.9922 1.02539 17.998 3.06641 17.998Z" fill="#000000" fill-opacity="0.85"/>
  <path d="M6.97266 13.3203C6.57227 13.3203 6.36719 13.0273 6.36719 12.6367L6.36719 11.4551L3.4375 11.4551C2.91992 11.4551 2.56836 11.1328 2.56836 10.5957C2.56836 10.3223 2.62695 10.0977 2.79297 9.78516C3.4668 8.56445 4.47266 6.8457 5.32227 5.42969C5.64453 4.87305 6.00586 4.64844 6.5918 4.64844C7.17773 4.64844 7.58789 5.0293 7.58789 5.61523L7.58789 10.3223L8.13477 10.3223C8.47656 10.3223 8.70117 10.5371 8.70117 10.8984C8.70117 11.25 8.47656 11.4551 8.13477 11.4551L7.58789 11.4551L7.58789 12.6367C7.58789 13.0371 7.38281 13.3203 6.97266 13.3203ZM6.36719 10.3223L6.36719 6.01562L6.30859 6.01562C5.50781 7.38281 4.49219 9.14062 3.89648 10.2832L3.89648 10.3223ZM12.5684 13.3398C10.8398 13.3398 9.6875 11.6797 9.6875 8.99414C9.6875 6.30859 10.8398 4.64844 12.5684 4.64844C14.3066 4.64844 15.4492 6.30859 15.4492 8.99414C15.4492 11.6797 14.3066 13.3398 12.5684 13.3398ZM12.5684 12.1094C13.5352 12.1094 14.1211 10.9277 14.1211 8.99414C14.1211 7.06055 13.5254 5.87891 12.5684 5.87891C11.6113 5.87891 11.0156 7.06055 11.0156 8.99414C11.0156 10.9277 11.6113 12.1094 12.5684 12.1094Z" fill="#ffffff"/>
 </g>
</svg>
