<?xml version="1.0" encoding="UTF-8"?>
<!--Generator: Apple Native CoreSVG 175.5-->
<!DOCTYPE svg
PUBLIC "-//W3C//DTD SVG 1.1//EN"
       "http://www.w3.org/Graphics/SVG/1.1/DTD/svg11.dtd">
<svg version="1.1" xmlns="http://www.w3.org/2000/svg" xmlns:xlink="http://www.w3.org/1999/xlink" width="17.9785" height="17.998">
 <g>
  <rect height="17.998" opacity="0" width="17.9785" x="0" y="0"/>
  <path d="M3.06641 17.998L14.9121 17.998C16.9629 17.998 17.9785 16.9824 17.9785 14.9707L17.9785 3.04688C17.9785 1.03516 16.9629 0.0195312 14.9121 0.0195312L3.06641 0.0195312C1.02539 0.0195312 0 1.02539 0 3.04688L0 14.9707C0 16.9922 1.02539 17.998 3.06641 17.998ZM3.08594 16.4258C2.10938 16.4258 1.57227 15.9082 1.57227 14.8926L1.57227 3.125C1.57227 2.10938 2.10938 1.5918 3.08594 1.5918L14.8926 1.5918C15.8594 1.5918 16.4062 2.10938 16.4062 3.125L16.4062 14.8926C16.4062 15.9082 15.8594 16.4258 14.8926 16.4258Z" fill="#000000" fill-opacity="0.85"/>
  <path d="M7.03125 13.1836C7.43164 13.1836 7.62695 12.9102 7.62695 12.5293L7.62695 11.377L8.16406 11.377C8.49609 11.377 8.71094 11.1816 8.71094 10.8398C8.71094 10.4883 8.49609 10.2832 8.16406 10.2832L7.62695 10.2832L7.62695 5.71289C7.62695 5.14648 7.23633 4.78516 6.66992 4.78516C6.10352 4.78516 5.75195 5 5.43945 5.53711C4.61914 6.9043 3.63281 8.58398 2.97852 9.76562C2.82227 10.0684 2.76367 10.2832 2.76367 10.5469C2.76367 11.0645 3.10547 11.377 3.60352 11.377L6.44531 11.377L6.44531 12.5293C6.44531 12.9004 6.65039 13.1836 7.03125 13.1836ZM6.44531 10.2832L4.04297 10.2832L4.04297 10.2441C4.60938 9.14062 5.61523 7.42188 6.39648 6.10352L6.44531 6.10352ZM12.4609 13.2031C14.1406 13.2031 15.2539 11.5918 15.2539 8.99414C15.2539 6.39648 14.1406 4.78516 12.4609 4.78516C10.7812 4.78516 9.66797 6.39648 9.66797 8.99414C9.66797 11.5918 10.7812 13.2031 12.4609 13.2031ZM12.4609 12.0215C11.5332 12.0215 10.9473 10.8691 10.9473 8.99414C10.9473 7.11914 11.5332 5.9668 12.4609 5.9668C13.3887 5.9668 13.9746 7.11914 13.9746 8.99414C13.9746 10.8691 13.3984 12.0215 12.4609 12.0215Z" fill="#000000" fill-opacity="0.85"/>
 </g>
</svg>
