<?xml version="1.0" encoding="UTF-8"?>
<!--Generator: Apple Native CoreSVG 175.5-->
<!DOCTYPE svg
PUBLIC "-//W3C//DTD SVG 1.1//EN"
       "http://www.w3.org/Graphics/SVG/1.1/DTD/svg11.dtd">
<svg version="1.1" xmlns="http://www.w3.org/2000/svg" xmlns:xlink="http://www.w3.org/1999/xlink" width="19.9219" height="19.9316">
 <g>
  <rect height="19.9316" opacity="0" width="19.9219" x="0" y="0"/>
  <path d="M9.96094 19.9219C15.4102 19.9219 19.9219 15.4004 19.9219 9.96094C19.9219 4.51172 15.4004 0 9.95117 0C4.51172 0 0 4.51172 0 9.96094C0 15.4004 4.52148 19.9219 9.96094 19.9219ZM9.96094 18.2617C5.35156 18.2617 1.66992 14.5703 1.66992 9.96094C1.66992 5.35156 5.3418 1.66016 9.95117 1.66016C14.5605 1.66016 18.2617 5.35156 18.2617 9.96094C18.2617 14.5703 14.5703 18.2617 9.96094 18.2617Z" fill="#000000" fill-opacity="0.85"/>
  <path d="M8.50586 14.1504C8.90625 14.1504 9.11133 13.877 9.11133 13.4961L9.11133 12.3438L9.63867 12.3438C9.98047 12.3438 10.1953 12.1484 10.1953 11.8066C10.1953 11.4551 9.9707 11.25 9.63867 11.25L9.11133 11.25L9.11133 6.67969C9.11133 6.11328 8.71094 5.75195 8.14453 5.75195C7.57812 5.75195 7.23633 5.9668 6.91406 6.50391C6.10352 7.87109 5.11719 9.55078 4.45312 10.7324C4.29688 11.0352 4.23828 11.25 4.23828 11.5137C4.23828 12.0312 4.58008 12.3438 5.07812 12.3438L7.92969 12.3438L7.92969 13.4961C7.92969 13.8672 8.125 14.1504 8.50586 14.1504ZM7.92969 11.25L5.51758 11.25L5.51758 11.2109C6.09375 10.1074 7.09961 8.38867 7.87109 7.07031L7.92969 7.07031ZM13.8867 14.0527C14.2578 14.0527 14.502 13.8086 14.502 13.4277L14.502 6.51367C14.502 6.10352 14.2188 5.81055 13.8184 5.81055C13.4961 5.81055 13.3105 5.9082 12.959 6.14258L11.4746 7.1582C11.2695 7.30469 11.1523 7.48047 11.1523 7.73438C11.1523 8.06641 11.4258 8.32031 11.709 8.32031C11.8652 8.32031 11.9531 8.31055 12.1875 8.13477L13.2227 7.36328L13.2812 7.36328L13.2812 13.4277C13.2812 13.8086 13.5254 14.0527 13.8867 14.0527Z" fill="#000000" fill-opacity="0.85"/>
 </g>
</svg>
