<?xml version="1.0" encoding="UTF-8"?>
<!--Generator: Apple Native CoreSVG 175.5-->
<!DOCTYPE svg
PUBLIC "-//W3C//DTD SVG 1.1//EN"
       "http://www.w3.org/Graphics/SVG/1.1/DTD/svg11.dtd">
<svg version="1.1" xmlns="http://www.w3.org/2000/svg" xmlns:xlink="http://www.w3.org/1999/xlink" width="17.9785" height="17.998">
 <g>
  <rect height="17.998" opacity="0" width="17.9785" x="0" y="0"/>
  <path d="M3.06641 17.998L14.9121 17.998C16.9629 17.998 17.9785 16.9824 17.9785 14.9707L17.9785 3.04688C17.9785 1.03516 16.9629 0.0195312 14.9121 0.0195312L3.06641 0.0195312C1.02539 0.0195312 0 1.02539 0 3.04688L0 14.9707C0 16.9922 1.02539 17.998 3.06641 17.998ZM3.08594 16.4258C2.10938 16.4258 1.57227 15.9082 1.57227 14.8926L1.57227 3.125C1.57227 2.10938 2.10938 1.5918 3.08594 1.5918L14.8926 1.5918C15.8594 1.5918 16.4062 2.10938 16.4062 3.125L16.4062 14.8926C16.4062 15.9082 15.8594 16.4258 14.8926 16.4258Z" fill="#000000" fill-opacity="0.85"/>
  <path d="M7.55859 13.1836C7.94922 13.1836 8.1543 12.9102 8.1543 12.5293L8.1543 11.377L8.68164 11.377C9.02344 11.377 9.23828 11.1816 9.23828 10.8398C9.23828 10.4883 9.02344 10.2832 8.68164 10.2832L8.1543 10.2832L8.1543 5.71289C8.1543 5.14648 7.76367 4.78516 7.1875 4.78516C6.62109 4.78516 6.2793 5 5.95703 5.53711C5.14648 6.9043 4.16016 8.58398 3.50586 9.76562C3.33984 10.0684 3.29102 10.2832 3.29102 10.5469C3.29102 11.0645 3.62305 11.377 4.12109 11.377L6.97266 11.377L6.97266 12.5293C6.97266 12.9004 7.17773 13.1836 7.55859 13.1836ZM6.97266 10.2832L4.56055 10.2832L4.56055 10.2441C5.13672 9.14062 6.14258 7.42188 6.92383 6.10352L6.97266 6.10352ZM12.9297 13.0859C13.3008 13.0859 13.5449 12.8418 13.5449 12.4609L13.5449 5.54688C13.5449 5.13672 13.2715 4.84375 12.8613 4.84375C12.5391 4.84375 12.3535 4.94141 12.002 5.17578L10.5176 6.19141C10.3125 6.33789 10.1953 6.51367 10.1953 6.76758C10.1953 7.09961 10.4688 7.35352 10.752 7.35352C10.9082 7.35352 11.0059 7.34375 11.2305 7.16797L12.2754 6.39648L12.3242 6.39648L12.3242 12.4609C12.3242 12.8418 12.5684 13.0859 12.9297 13.0859Z" fill="#000000" fill-opacity="0.85"/>
 </g>
</svg>
