<?xml version="1.0" encoding="UTF-8"?>
<!--Generator: Apple Native CoreSVG 175.5-->
<!DOCTYPE svg
PUBLIC "-//W3C//DTD SVG 1.1//EN"
       "http://www.w3.org/Graphics/SVG/1.1/DTD/svg11.dtd">
<svg version="1.1" xmlns="http://www.w3.org/2000/svg" xmlns:xlink="http://www.w3.org/1999/xlink" width="19.9219" height="19.9316">
 <g>
  <rect height="19.9316" opacity="0" width="19.9219" x="0" y="0"/>
  <path d="M9.96094 19.9219C15.4102 19.9219 19.9219 15.4004 19.9219 9.96094C19.9219 4.51172 15.4004 0 9.95117 0C4.51172 0 0 4.51172 0 9.96094C0 15.4004 4.52148 19.9219 9.96094 19.9219ZM9.96094 18.2617C5.35156 18.2617 1.66992 14.5703 1.66992 9.96094C1.66992 5.35156 5.3418 1.66016 9.95117 1.66016C14.5605 1.66016 18.2617 5.35156 18.2617 9.96094C18.2617 14.5703 14.5703 18.2617 9.96094 18.2617Z" fill="#000000" fill-opacity="0.85"/>
  <path d="M8.02734 14.1504C8.42773 14.1504 8.63281 13.877 8.63281 13.4961L8.63281 12.3438L9.16016 12.3438C9.49219 12.3438 9.70703 12.1484 9.70703 11.8066C9.70703 11.4551 9.49219 11.25 9.16016 11.25L8.63281 11.25L8.63281 6.67969C8.63281 6.11328 8.23242 5.75195 7.66602 5.75195C7.09961 5.75195 6.75781 5.9668 6.43555 6.50391C5.625 7.87109 4.63867 9.55078 3.97461 10.7324C3.81836 11.0352 3.75977 11.25 3.75977 11.5137C3.75977 12.0312 4.10156 12.3438 4.59961 12.3438L7.45117 12.3438L7.45117 13.4961C7.45117 13.8672 7.64648 14.1504 8.02734 14.1504ZM7.45117 11.25L5.03906 11.25L5.03906 11.2109C5.61523 10.1074 6.62109 8.38867 7.39258 7.07031L7.45117 7.07031ZM11.3086 13.9453L15.3516 13.9453C15.6641 13.9453 15.8984 13.7109 15.8984 13.3594C15.8984 12.998 15.6641 12.793 15.3516 12.793L12.5098 12.793L12.5098 12.7246L14.4238 10.498C15.1465 9.6582 15.6836 8.95508 15.6836 7.97852C15.6836 6.62109 14.6973 5.75195 13.1641 5.75195C12.002 5.75195 10.9668 6.49414 10.7129 7.49023C10.6836 7.61719 10.6641 7.72461 10.6641 7.8418C10.6641 8.19336 10.8691 8.42773 11.2109 8.42773C11.4941 8.42773 11.6406 8.26172 11.7676 7.96875C12.0117 7.23633 12.5098 6.875 13.2129 6.875C13.9941 6.875 14.502 7.36328 14.502 8.08594C14.502 8.7207 13.9941 9.26758 13.5254 9.81445L10.957 12.8418C10.8008 13.0078 10.7422 13.1738 10.7422 13.3691C10.7422 13.7207 10.9668 13.9453 11.3086 13.9453Z" fill="#000000" fill-opacity="0.85"/>
 </g>
</svg>
