<?xml version="1.0" encoding="UTF-8"?>
<!--Generator: Apple Native CoreSVG 175.5-->
<!DOCTYPE svg
PUBLIC "-//W3C//DTD SVG 1.1//EN"
       "http://www.w3.org/Graphics/SVG/1.1/DTD/svg11.dtd">
<svg version="1.1" xmlns="http://www.w3.org/2000/svg" xmlns:xlink="http://www.w3.org/1999/xlink" width="19.9219" height="19.9316">
 <g>
  <rect height="19.9316" opacity="0" width="19.9219" x="0" y="0"/>
  <path d="M9.96094 19.9219C15.4102 19.9219 19.9219 15.4004 19.9219 9.96094C19.9219 4.51172 15.4004 0 9.95117 0C4.51172 0 0 4.51172 0 9.96094C0 15.4004 4.52148 19.9219 9.96094 19.9219Z" fill="#000000" fill-opacity="0.85"/>
  <path d="M8.00781 14.2871C7.60742 14.2871 7.41211 13.9941 7.41211 13.6035L7.41211 12.4219L4.47266 12.4219C3.95508 12.4219 3.60352 12.0996 3.60352 11.5625C3.60352 11.2891 3.66211 11.0645 3.82812 10.752C4.51172 9.53125 5.51758 7.8125 6.35742 6.39648C6.68945 5.83984 7.04102 5.61523 7.63672 5.61523C8.22266 5.61523 8.63281 5.99609 8.63281 6.58203L8.63281 11.2891L9.16992 11.2891C9.52148 11.2891 9.73633 11.5039 9.73633 11.8652C9.73633 12.2168 9.52148 12.4219 9.16992 12.4219L8.63281 12.4219L8.63281 13.6035C8.63281 14.0039 8.41797 14.2871 8.00781 14.2871ZM7.41211 11.2891L7.41211 6.98242L7.35352 6.98242C6.55273 8.34961 5.52734 10.1074 4.93164 11.25L4.93164 11.2891ZM13.418 14.3066C12.0312 14.3066 10.9668 13.4668 10.7031 12.5391C10.6641 12.4121 10.6543 12.3047 10.6543 12.168C10.6543 11.8164 10.8984 11.5625 11.2305 11.5625C11.5234 11.5625 11.6895 11.7188 11.8066 12.041C12.0801 12.7441 12.627 13.1348 13.4277 13.1348C14.3848 13.1348 15.0488 12.5488 15.0488 11.7676C15.0488 10.9473 14.4434 10.4102 13.4863 10.4102L12.8906 10.4102C12.5684 10.4102 12.3438 10.1562 12.3438 9.83398C12.3438 9.46289 12.5684 9.22852 12.8906 9.22852L13.4473 9.22852C14.2383 9.22852 14.8047 8.70117 14.8047 7.96875C14.8047 7.26562 14.248 6.78711 13.4473 6.78711C12.6758 6.78711 12.1777 7.17773 11.9629 7.88086C11.8555 8.20312 11.6992 8.35938 11.3965 8.35938C11.0449 8.35938 10.8203 8.10547 10.8203 7.74414C10.8203 7.61719 10.8203 7.50977 10.8496 7.38281C11.1035 6.39648 12.1191 5.61523 13.4766 5.61523C14.9902 5.61523 16.0449 6.51367 16.0449 7.80273C16.0449 8.75 15.3906 9.58984 14.5605 9.72656L14.5605 9.78516C15.5762 9.89258 16.3184 10.752 16.3184 11.8262C16.3184 13.2715 15.1172 14.3066 13.418 14.3066Z" fill="#ffffff"/>
 </g>
</svg>
