<?xml version="1.0" encoding="UTF-8"?>
<!--Generator: Apple Native CoreSVG 175.5-->
<!DOCTYPE svg
PUBLIC "-//W3C//DTD SVG 1.1//EN"
       "http://www.w3.org/Graphics/SVG/1.1/DTD/svg11.dtd">
<svg version="1.1" xmlns="http://www.w3.org/2000/svg" xmlns:xlink="http://www.w3.org/1999/xlink" width="19.9219" height="19.9316">
 <g>
  <rect height="19.9316" opacity="0" width="19.9219" x="0" y="0"/>
  <path d="M9.96094 19.9219C15.4102 19.9219 19.9219 15.4004 19.9219 9.96094C19.9219 4.51172 15.4004 0 9.95117 0C4.51172 0 0 4.51172 0 9.96094C0 15.4004 4.52148 19.9219 9.96094 19.9219ZM9.96094 18.2617C5.35156 18.2617 1.66992 14.5703 1.66992 9.96094C1.66992 5.35156 5.3418 1.66016 9.95117 1.66016C14.5605 1.66016 18.2617 5.35156 18.2617 9.96094C18.2617 14.5703 14.5703 18.2617 9.96094 18.2617Z" fill="#000000" fill-opacity="0.85"/>
  <path d="M8.05664 14.1504C8.45703 14.1504 8.66211 13.877 8.66211 13.4961L8.66211 12.3438L9.18945 12.3438C9.52148 12.3438 9.73633 12.1484 9.73633 11.8066C9.73633 11.4551 9.52148 11.25 9.18945 11.25L8.66211 11.25L8.66211 6.67969C8.66211 6.11328 8.26172 5.75195 7.69531 5.75195C7.12891 5.75195 6.78711 5.9668 6.46484 6.50391C5.6543 7.87109 4.66797 9.55078 4.00391 10.7324C3.84766 11.0352 3.78906 11.25 3.78906 11.5137C3.78906 12.0312 4.13086 12.3438 4.62891 12.3438L7.48047 12.3438L7.48047 13.4961C7.48047 13.8672 7.67578 14.1504 8.05664 14.1504ZM7.48047 11.25L5.06836 11.25L5.06836 11.2109C5.64453 10.1074 6.65039 8.38867 7.42188 7.07031L7.48047 7.07031ZM13.3008 14.1699C14.9512 14.1699 16.1133 13.1738 16.1133 11.7676C16.1133 10.7324 15.3906 9.89258 14.4043 9.79492L14.4043 9.73633C15.2148 9.59961 15.8496 8.78906 15.8496 7.87109C15.8496 6.62109 14.8242 5.75195 13.3594 5.75195C12.041 5.75195 11.0645 6.50391 10.8105 7.46094C10.7812 7.58789 10.7812 7.68555 10.7812 7.8125C10.7812 8.16406 11.0059 8.4082 11.3379 8.4082C11.6309 8.4082 11.7871 8.25195 11.8848 7.93945C12.0996 7.25586 12.5781 6.875 13.3301 6.875C14.1113 6.875 14.6484 7.34375 14.6484 8.02734C14.6484 8.74023 14.1016 9.25781 13.3301 9.25781L12.793 9.25781C12.4805 9.25781 12.2656 9.48242 12.2656 9.83398C12.2656 10.1465 12.4805 10.3906 12.793 10.3906L13.3691 10.3906C14.2969 10.3906 14.8926 10.918 14.8926 11.709C14.8926 12.4707 14.248 13.0469 13.3105 13.0469C12.5391 13.0469 12.002 12.666 11.7383 11.9824C11.6211 11.6699 11.4648 11.5137 11.1816 11.5137C10.8594 11.5137 10.625 11.7578 10.625 12.0996C10.625 12.2363 10.6348 12.334 10.6738 12.4609C10.9277 13.3594 11.9629 14.1699 13.3008 14.1699Z" fill="#000000" fill-opacity="0.85"/>
 </g>
</svg>
