<?xml version="1.0" encoding="UTF-8"?>
<!--Generator: Apple Native CoreSVG 175.5-->
<!DOCTYPE svg
PUBLIC "-//W3C//DTD SVG 1.1//EN"
       "http://www.w3.org/Graphics/SVG/1.1/DTD/svg11.dtd">
<svg version="1.1" xmlns="http://www.w3.org/2000/svg" xmlns:xlink="http://www.w3.org/1999/xlink" width="17.9785" height="17.998">
 <g>
  <rect height="17.998" opacity="0" width="17.9785" x="0" y="0"/>
  <path d="M3.06641 17.998L14.9121 17.998C16.9629 17.998 17.9785 16.9824 17.9785 14.9707L17.9785 3.04688C17.9785 1.03516 16.9629 0.0195312 14.9121 0.0195312L3.06641 0.0195312C1.02539 0.0195312 0 1.02539 0 3.04688L0 14.9707C0 16.9922 1.02539 17.998 3.06641 17.998ZM3.08594 16.4258C2.10938 16.4258 1.57227 15.9082 1.57227 14.8926L1.57227 3.125C1.57227 2.10938 2.10938 1.5918 3.08594 1.5918L14.8926 1.5918C15.8594 1.5918 16.4062 2.10938 16.4062 3.125L16.4062 14.8926C16.4062 15.9082 15.8594 16.4258 14.8926 16.4258Z" fill="#000000" fill-opacity="0.85"/>
  <path d="M7.09961 13.1836C7.5 13.1836 7.70508 12.9102 7.70508 12.5293L7.70508 11.377L8.23242 11.377C8.56445 11.377 8.7793 11.1816 8.7793 10.8398C8.7793 10.4883 8.56445 10.2832 8.23242 10.2832L7.70508 10.2832L7.70508 5.71289C7.70508 5.14648 7.30469 4.78516 6.73828 4.78516C6.17188 4.78516 5.83008 5 5.50781 5.53711C4.69727 6.9043 3.71094 8.58398 3.04688 9.76562C2.89062 10.0684 2.83203 10.2832 2.83203 10.5469C2.83203 11.0645 3.17383 11.377 3.67188 11.377L6.52344 11.377L6.52344 12.5293C6.52344 12.9004 6.71875 13.1836 7.09961 13.1836ZM6.52344 10.2832L4.11133 10.2832L4.11133 10.2441C4.6875 9.14062 5.69336 7.42188 6.46484 6.10352L6.52344 6.10352ZM12.3438 13.2031C14.0039 13.2031 15.1562 12.207 15.1562 10.8008C15.1562 9.76562 14.4336 8.92578 13.457 8.82812L13.457 8.76953C14.2578 8.63281 14.8926 7.82227 14.8926 6.9043C14.8926 5.6543 13.8672 4.78516 12.4121 4.78516C11.084 4.78516 10.1074 5.53711 9.85352 6.49414C9.83398 6.62109 9.82422 6.71875 9.82422 6.8457C9.82422 7.19727 10.0488 7.44141 10.3809 7.44141C10.6738 7.44141 10.8301 7.28516 10.9277 6.97266C11.1426 6.28906 11.6211 5.9082 12.3828 5.9082C13.1543 5.9082 13.6914 6.37695 13.6914 7.06055C13.6914 7.77344 13.1445 8.29102 12.373 8.29102L11.8457 8.29102C11.5234 8.29102 11.3086 8.51562 11.3086 8.86719C11.3086 9.17969 11.5234 9.42383 11.8457 9.42383L12.4121 9.42383C13.3398 9.42383 13.9355 9.95117 13.9355 10.7422C13.9355 11.5039 13.291 12.0801 12.3535 12.0801C11.582 12.0801 11.0449 11.6992 10.791 11.0156C10.6641 10.7031 10.5078 10.5469 10.2344 10.5469C9.90234 10.5469 9.66797 10.791 9.66797 11.1328C9.66797 11.2695 9.67773 11.3672 9.7168 11.4941C9.9707 12.3926 11.0059 13.2031 12.3438 13.2031Z" fill="#000000" fill-opacity="0.85"/>
 </g>
</svg>
