<?xml version="1.0" encoding="UTF-8"?>
<!--Generator: Apple Native CoreSVG 175.5-->
<!DOCTYPE svg
PUBLIC "-//W3C//DTD SVG 1.1//EN"
       "http://www.w3.org/Graphics/SVG/1.1/DTD/svg11.dtd">
<svg version="1.1" xmlns="http://www.w3.org/2000/svg" xmlns:xlink="http://www.w3.org/1999/xlink" width="17.9785" height="17.998">
 <g>
  <rect height="17.998" opacity="0" width="17.9785" x="0" y="0"/>
  <path d="M3.06641 17.998L14.9121 17.998C16.9629 17.998 17.9785 16.9824 17.9785 14.9707L17.9785 3.04688C17.9785 1.03516 16.9629 0.0195312 14.9121 0.0195312L3.06641 0.0195312C1.02539 0.0195312 0 1.02539 0 3.04688L0 14.9707C0 16.9922 1.02539 17.998 3.06641 17.998Z" fill="#000000" fill-opacity="0.85"/>
  <path d="M7.04102 13.3203C6.64062 13.3203 6.44531 13.0273 6.44531 12.6367L6.44531 11.4551L3.50586 11.4551C2.98828 11.4551 2.63672 11.1328 2.63672 10.5957C2.63672 10.3223 2.69531 10.0977 2.86133 9.78516C3.54492 8.56445 4.55078 6.8457 5.39062 5.42969C5.72266 4.87305 6.07422 4.64844 6.66992 4.64844C7.25586 4.64844 7.66602 5.0293 7.66602 5.61523L7.66602 10.3223L8.20312 10.3223C8.55469 10.3223 8.76953 10.5371 8.76953 10.8984C8.76953 11.25 8.55469 11.4551 8.20312 11.4551L7.66602 11.4551L7.66602 12.6367C7.66602 13.0371 7.45117 13.3203 7.04102 13.3203ZM6.44531 10.3223L6.44531 6.01562L6.38672 6.01562C5.58594 7.38281 4.56055 9.14062 3.96484 10.2832L3.96484 10.3223ZM12.4512 13.3398C11.0645 13.3398 10 12.5 9.73633 11.5723C9.69727 11.4453 9.6875 11.3379 9.6875 11.2012C9.6875 10.8496 9.93164 10.5957 10.2734 10.5957C10.5566 10.5957 10.7227 10.752 10.8496 11.0742C11.1133 11.7773 11.6602 12.168 12.4609 12.168C13.418 12.168 14.082 11.582 14.082 10.8008C14.082 9.98047 13.4766 9.44336 12.5195 9.44336L11.9336 9.44336C11.6016 9.44336 11.377 9.18945 11.377 8.86719C11.377 8.49609 11.6016 8.26172 11.9336 8.26172L12.4805 8.26172C13.2715 8.26172 13.8379 7.73438 13.8379 7.00195C13.8379 6.29883 13.2812 5.82031 12.4902 5.82031C11.709 5.82031 11.2109 6.21094 10.9961 6.91406C10.8887 7.23633 10.7324 7.39258 10.4297 7.39258C10.0781 7.39258 9.85352 7.13867 9.85352 6.77734C9.85352 6.65039 9.86328 6.54297 9.88281 6.41602C10.1367 5.42969 11.1523 4.64844 12.5195 4.64844C14.0234 4.64844 15.0781 5.54688 15.0781 6.83594C15.0781 7.7832 14.4238 8.62305 13.5938 8.75977L13.5938 8.81836C14.6094 8.92578 15.3516 9.78516 15.3516 10.8594C15.3516 12.3047 14.1602 13.3398 12.4512 13.3398Z" fill="#ffffff"/>
 </g>
</svg>
