<?xml version="1.0" encoding="UTF-8"?>
<!--Generator: Apple Native CoreSVG 175.5-->
<!DOCTYPE svg
PUBLIC "-//W3C//DTD SVG 1.1//EN"
       "http://www.w3.org/Graphics/SVG/1.1/DTD/svg11.dtd">
<svg version="1.1" xmlns="http://www.w3.org/2000/svg" xmlns:xlink="http://www.w3.org/1999/xlink" width="19.9219" height="19.9316">
 <g>
  <rect height="19.9316" opacity="0" width="19.9219" x="0" y="0"/>
  <path d="M9.96094 19.9219C15.4102 19.9219 19.9219 15.4004 19.9219 9.96094C19.9219 4.51172 15.4004 0 9.95117 0C4.51172 0 0 4.51172 0 9.96094C0 15.4004 4.52148 19.9219 9.96094 19.9219ZM9.96094 18.2617C5.35156 18.2617 1.66992 14.5703 1.66992 9.96094C1.66992 5.35156 5.3418 1.66016 9.95117 1.66016C14.5605 1.66016 18.2617 5.35156 18.2617 9.96094C18.2617 14.5703 14.5703 18.2617 9.96094 18.2617Z" fill="#000000" fill-opacity="0.85"/>
  <path d="M7.79297 14.1504C8.19336 14.1504 8.39844 13.877 8.39844 13.4961L8.39844 12.3438L8.92578 12.3438C9.26758 12.3438 9.48242 12.1484 9.48242 11.8066C9.48242 11.4551 9.25781 11.25 8.92578 11.25L8.39844 11.25L8.39844 6.67969C8.39844 6.11328 7.99805 5.75195 7.43164 5.75195C6.86523 5.75195 6.52344 5.9668 6.20117 6.50391C5.39062 7.87109 4.4043 9.55078 3.74023 10.7324C3.58398 11.0352 3.52539 11.25 3.52539 11.5137C3.52539 12.0312 3.86719 12.3438 4.36523 12.3438L7.2168 12.3438L7.2168 13.4961C7.2168 13.8672 7.41211 14.1504 7.79297 14.1504ZM7.2168 11.25L4.80469 11.25L4.80469 11.2109C5.38086 10.1074 6.38672 8.38867 7.1582 7.07031L7.2168 7.07031ZM14.5312 14.1504C14.9219 14.1504 15.127 13.877 15.127 13.4961L15.127 12.3438L15.6641 12.3438C15.9961 12.3438 16.2109 12.1484 16.2109 11.8066C16.2109 11.4551 15.9961 11.25 15.6641 11.25L15.127 11.25L15.127 6.67969C15.127 6.11328 14.7363 5.75195 14.1602 5.75195C13.5938 5.75195 13.252 5.9668 12.9395 6.50391C12.1191 7.87109 11.1328 9.55078 10.4785 10.7324C10.3125 11.0352 10.2637 11.25 10.2637 11.5137C10.2637 12.0312 10.5957 12.3438 11.0938 12.3438L13.9453 12.3438L13.9453 13.4961C13.9453 13.8672 14.1504 14.1504 14.5312 14.1504ZM13.9453 11.25L11.5332 11.25L11.5332 11.2109C12.1094 10.1074 13.1152 8.38867 13.8965 7.07031L13.9453 7.07031Z" fill="#000000" fill-opacity="0.85"/>
 </g>
</svg>
