<?xml version="1.0" encoding="UTF-8"?>
<!--Generator: Apple Native CoreSVG 175.5-->
<!DOCTYPE svg
PUBLIC "-//W3C//DTD SVG 1.1//EN"
       "http://www.w3.org/Graphics/SVG/1.1/DTD/svg11.dtd">
<svg version="1.1" xmlns="http://www.w3.org/2000/svg" xmlns:xlink="http://www.w3.org/1999/xlink" width="19.9219" height="19.9316">
 <g>
  <rect height="19.9316" opacity="0" width="19.9219" x="0" y="0"/>
  <path d="M9.96094 19.9219C15.4102 19.9219 19.9219 15.4004 19.9219 9.96094C19.9219 4.51172 15.4004 0 9.95117 0C4.51172 0 0 4.51172 0 9.96094C0 15.4004 4.52148 19.9219 9.96094 19.9219Z" fill="#000000" fill-opacity="0.85"/>
  <path d="M7.73438 14.2871C7.34375 14.2871 7.13867 13.9941 7.13867 13.6035L7.13867 12.4219L4.20898 12.4219C3.69141 12.4219 3.33984 12.0996 3.33984 11.5625C3.33984 11.2891 3.39844 11.0645 3.55469 10.752C4.23828 9.53125 5.25391 7.8125 6.08398 6.39648C6.42578 5.83984 6.77734 5.61523 7.36328 5.61523C7.94922 5.61523 8.36914 5.99609 8.36914 6.58203L8.36914 11.2891L8.90625 11.2891C9.24805 11.2891 9.48242 11.5039 9.48242 11.8652C9.48242 12.2168 9.25781 12.4219 8.90625 12.4219L8.36914 12.4219L8.36914 13.6035C8.36914 14.0039 8.1543 14.2871 7.73438 14.2871ZM7.13867 11.2891L7.13867 6.98242L7.08008 6.98242C6.2793 8.34961 5.25391 10.1074 4.6582 11.25L4.6582 11.2891ZM14.6875 14.2871C14.2969 14.2871 14.082 13.9941 14.082 13.6035L14.082 12.4219L11.1426 12.4219C10.625 12.4219 10.2832 12.0996 10.2832 11.5625C10.2832 11.2891 10.332 11.0645 10.5078 10.752C11.1816 9.53125 12.1875 7.8125 13.0371 6.39648C13.3594 5.83984 13.7109 5.61523 14.3066 5.61523C14.9023 5.61523 15.3027 5.99609 15.3027 6.58203L15.3027 11.2891L15.8496 11.2891C16.2012 11.2891 16.416 11.5039 16.416 11.8652C16.416 12.2168 16.2012 12.4219 15.8496 12.4219L15.3027 12.4219L15.3027 13.6035C15.3027 14.0039 15.0879 14.2871 14.6875 14.2871ZM14.082 11.2891L14.082 6.98242L14.0332 6.98242C13.2227 8.34961 12.1973 10.1074 11.6016 11.25L11.6016 11.2891Z" fill="#ffffff"/>
 </g>
</svg>
