<?xml version="1.0" encoding="UTF-8"?>
<!--Generator: Apple Native CoreSVG 175.5-->
<!DOCTYPE svg
PUBLIC "-//W3C//DTD SVG 1.1//EN"
       "http://www.w3.org/Graphics/SVG/1.1/DTD/svg11.dtd">
<svg version="1.1" xmlns="http://www.w3.org/2000/svg" xmlns:xlink="http://www.w3.org/1999/xlink" width="17.9785" height="17.998">
 <g>
  <rect height="17.998" opacity="0" width="17.9785" x="0" y="0"/>
  <path d="M3.06641 17.998L14.9121 17.998C16.9629 17.998 17.9785 16.9824 17.9785 14.9707L17.9785 3.04688C17.9785 1.03516 16.9629 0.0195312 14.9121 0.0195312L3.06641 0.0195312C1.02539 0.0195312 0 1.02539 0 3.04688L0 14.9707C0 16.9922 1.02539 17.998 3.06641 17.998ZM3.08594 16.4258C2.10938 16.4258 1.57227 15.9082 1.57227 14.8926L1.57227 3.125C1.57227 2.10938 2.10938 1.5918 3.08594 1.5918L14.8926 1.5918C15.8594 1.5918 16.4062 2.10938 16.4062 3.125L16.4062 14.8926C16.4062 15.9082 15.8594 16.4258 14.8926 16.4258Z" fill="#000000" fill-opacity="0.85"/>
  <path d="M6.8457 13.1836C7.23633 13.1836 7.44141 12.9102 7.44141 12.5293L7.44141 11.377L7.96875 11.377C8.31055 11.377 8.52539 11.1816 8.52539 10.8398C8.52539 10.4883 8.30078 10.2832 7.96875 10.2832L7.44141 10.2832L7.44141 5.71289C7.44141 5.14648 7.04102 4.78516 6.47461 4.78516C5.9082 4.78516 5.56641 5 5.24414 5.53711C4.43359 6.9043 3.44727 8.58398 2.7832 9.76562C2.62695 10.0684 2.57812 10.2832 2.57812 10.5469C2.57812 11.0645 2.91016 11.377 3.4082 11.377L6.25977 11.377L6.25977 12.5293C6.25977 12.9004 6.46484 13.1836 6.8457 13.1836ZM6.25977 10.2832L3.84766 10.2832L3.84766 10.2441C4.42383 9.14062 5.42969 7.42188 6.20117 6.10352L6.25977 6.10352ZM13.5742 13.1836C13.9648 13.1836 14.1699 12.9102 14.1699 12.5293L14.1699 11.377L14.707 11.377C15.0391 11.377 15.2539 11.1816 15.2539 10.8398C15.2539 10.4883 15.0391 10.2832 14.707 10.2832L14.1699 10.2832L14.1699 5.71289C14.1699 5.14648 13.7793 4.78516 13.2031 4.78516C12.6465 4.78516 12.2949 5 11.9824 5.53711C11.1621 6.9043 10.1758 8.58398 9.52148 9.76562C9.36523 10.0684 9.30664 10.2832 9.30664 10.5469C9.30664 11.0645 9.64844 11.377 10.1367 11.377L12.9883 11.377L12.9883 12.5293C12.9883 12.9004 13.1934 13.1836 13.5742 13.1836ZM12.9883 10.2832L10.5762 10.2832L10.5762 10.2441C11.1523 9.14062 12.1582 7.42188 12.9395 6.10352L12.9883 6.10352Z" fill="#000000" fill-opacity="0.85"/>
 </g>
</svg>
