<?xml version="1.0" encoding="UTF-8"?>
<!--Generator: Apple Native CoreSVG 175.5-->
<!DOCTYPE svg
PUBLIC "-//W3C//DTD SVG 1.1//EN"
       "http://www.w3.org/Graphics/SVG/1.1/DTD/svg11.dtd">
<svg version="1.1" xmlns="http://www.w3.org/2000/svg" xmlns:xlink="http://www.w3.org/1999/xlink" width="19.9219" height="19.9316">
 <g>
  <rect height="19.9316" opacity="0" width="19.9219" x="0" y="0"/>
  <path d="M9.96094 19.9219C15.4102 19.9219 19.9219 15.4004 19.9219 9.96094C19.9219 4.51172 15.4004 0 9.95117 0C4.51172 0 0 4.51172 0 9.96094C0 15.4004 4.52148 19.9219 9.96094 19.9219Z" fill="#000000" fill-opacity="0.85"/>
  <path d="M7.86133 14.2871C7.46094 14.2871 7.26562 13.9941 7.26562 13.6035L7.26562 12.4219L4.32617 12.4219C3.80859 12.4219 3.45703 12.0996 3.45703 11.5625C3.45703 11.2891 3.51562 11.0645 3.68164 10.752C4.36523 9.53125 5.37109 7.8125 6.21094 6.39648C6.54297 5.83984 6.89453 5.61523 7.48047 5.61523C8.07617 5.61523 8.48633 5.99609 8.48633 6.58203L8.48633 11.2891L9.02344 11.2891C9.375 11.2891 9.58984 11.5039 9.58984 11.8652C9.58984 12.2168 9.375 12.4219 9.02344 12.4219L8.48633 12.4219L8.48633 13.6035C8.48633 14.0039 8.27148 14.2871 7.86133 14.2871ZM7.26562 11.2891L7.26562 6.98242L7.19727 6.98242C6.40625 8.34961 5.38086 10.1074 4.78516 11.25L4.78516 11.2891ZM13.252 14.3066C11.9922 14.3066 10.9961 13.6426 10.6934 12.8027C10.6348 12.666 10.5957 12.5098 10.5957 12.3438C10.5957 12.0117 10.8301 11.7578 11.1621 11.7578C11.4062 11.7578 11.6016 11.9043 11.748 12.1973C12.041 12.8027 12.627 13.1641 13.3105 13.1641C14.2871 13.1641 14.9414 12.5293 14.9414 11.4746C14.9414 10.5469 14.3457 9.84375 13.457 9.84375C13.0176 9.84375 12.7051 9.99023 12.2852 10.3516C11.9629 10.6152 11.7773 10.7031 11.4648 10.7031C11.0059 10.7031 10.7227 10.3516 10.7617 9.82422L10.9961 6.68945C11.0352 6.15234 11.3867 5.83008 11.9238 5.83008L15.3809 5.83008C15.6738 5.83008 15.8789 6.07422 15.8789 6.39648C15.8789 6.72852 15.6641 6.96289 15.3809 6.96289L12.0508 6.96289L11.8652 9.55078L11.9043 9.55078C12.207 9.0918 12.9297 8.75977 13.6035 8.75977C15.1562 8.75977 16.2012 9.89258 16.2012 11.4453C16.2012 13.2129 15.0195 14.3066 13.252 14.3066Z" fill="#ffffff"/>
 </g>
</svg>
