<?xml version="1.0" encoding="UTF-8"?>
<!--Generator: Apple Native CoreSVG 175.5-->
<!DOCTYPE svg
PUBLIC "-//W3C//DTD SVG 1.1//EN"
       "http://www.w3.org/Graphics/SVG/1.1/DTD/svg11.dtd">
<svg version="1.1" xmlns="http://www.w3.org/2000/svg" xmlns:xlink="http://www.w3.org/1999/xlink" width="17.9785" height="17.998">
 <g>
  <rect height="17.998" opacity="0" width="17.9785" x="0" y="0"/>
  <path d="M3.06641 17.998L14.9121 17.998C16.9629 17.998 17.9785 16.9824 17.9785 14.9707L17.9785 3.04688C17.9785 1.03516 16.9629 0.0195312 14.9121 0.0195312L3.06641 0.0195312C1.02539 0.0195312 0 1.02539 0 3.04688L0 14.9707C0 16.9922 1.02539 17.998 3.06641 17.998Z" fill="#000000" fill-opacity="0.85"/>
  <path d="M6.89453 13.3203C6.49414 13.3203 6.29883 13.0273 6.29883 12.6367L6.29883 11.4551L3.35938 11.4551C2.8418 11.4551 2.49023 11.1328 2.49023 10.5957C2.49023 10.3223 2.54883 10.0977 2.71484 9.78516C3.39844 8.56445 4.4043 6.8457 5.24414 5.42969C5.57617 4.87305 5.92773 4.64844 6.51367 4.64844C7.10938 4.64844 7.51953 5.0293 7.51953 5.61523L7.51953 10.3223L8.05664 10.3223C8.4082 10.3223 8.63281 10.5371 8.63281 10.8984C8.63281 11.25 8.41797 11.4551 8.05664 11.4551L7.51953 11.4551L7.51953 12.6367C7.51953 13.0371 7.30469 13.3203 6.89453 13.3203ZM6.29883 10.3223L6.29883 6.01562L6.23047 6.01562C5.43945 7.38281 4.41406 9.14062 3.81836 10.2832L3.81836 10.3223ZM12.2852 13.3398C11.0254 13.3398 10.0293 12.6758 9.72656 11.8359C9.66797 11.6992 9.62891 11.543 9.62891 11.377C9.62891 11.0449 9.86328 10.791 10.2051 10.791C10.4395 10.791 10.6348 10.9375 10.7812 11.2305C11.0742 11.8359 11.6602 12.1973 12.3438 12.1973C13.3203 12.1973 13.9844 11.5625 13.9844 10.5078C13.9844 9.58008 13.3789 8.87695 12.5 8.87695C12.0508 8.87695 11.7383 9.02344 11.3184 9.38477C10.9961 9.64844 10.8105 9.73633 10.498 9.73633C10.0391 9.73633 9.75586 9.38477 9.79492 8.85742L10.0293 5.72266C10.0781 5.18555 10.4199 4.86328 10.957 4.86328L14.4141 4.86328C14.707 4.86328 14.9121 5.10742 14.9121 5.42969C14.9121 5.76172 14.6973 5.99609 14.4141 5.99609L11.084 5.99609L10.8984 8.58398L10.9375 8.58398C11.2402 8.125 11.9629 7.79297 12.6367 7.79297C14.1895 7.79297 15.2441 8.92578 15.2441 10.4785C15.2441 12.2461 14.0527 13.3398 12.2852 13.3398Z" fill="#ffffff"/>
 </g>
</svg>
