<?xml version="1.0" encoding="UTF-8"?>
<!--Generator: Apple Native CoreSVG 175.5-->
<!DOCTYPE svg
PUBLIC "-//W3C//DTD SVG 1.1//EN"
       "http://www.w3.org/Graphics/SVG/1.1/DTD/svg11.dtd">
<svg version="1.1" xmlns="http://www.w3.org/2000/svg" xmlns:xlink="http://www.w3.org/1999/xlink" width="17.9785" height="17.998">
 <g>
  <rect height="17.998" opacity="0" width="17.9785" x="0" y="0"/>
  <path d="M3.06641 17.998L14.9121 17.998C16.9629 17.998 17.9785 16.9824 17.9785 14.9707L17.9785 3.04688C17.9785 1.03516 16.9629 0.0195312 14.9121 0.0195312L3.06641 0.0195312C1.02539 0.0195312 0 1.02539 0 3.04688L0 14.9707C0 16.9922 1.02539 17.998 3.06641 17.998ZM3.08594 16.4258C2.10938 16.4258 1.57227 15.9082 1.57227 14.8926L1.57227 3.125C1.57227 2.10938 2.10938 1.5918 3.08594 1.5918L14.8926 1.5918C15.8594 1.5918 16.4062 2.10938 16.4062 3.125L16.4062 14.8926C16.4062 15.9082 15.8594 16.4258 14.8926 16.4258Z" fill="#000000" fill-opacity="0.85"/>
  <path d="M6.95312 13.1836C7.35352 13.1836 7.55859 12.9102 7.55859 12.5293L7.55859 11.377L8.08594 11.377C8.42773 11.377 8.64258 11.1816 8.64258 10.8398C8.64258 10.4883 8.41797 10.2832 8.08594 10.2832L7.55859 10.2832L7.55859 5.71289C7.55859 5.14648 7.1582 4.78516 6.5918 4.78516C6.02539 4.78516 5.68359 5 5.36133 5.53711C4.55078 6.9043 3.56445 8.58398 2.90039 9.76562C2.74414 10.0684 2.68555 10.2832 2.68555 10.5469C2.68555 11.0645 3.02734 11.377 3.52539 11.377L6.37695 11.377L6.37695 12.5293C6.37695 12.9004 6.57227 13.1836 6.95312 13.1836ZM6.37695 10.2832L3.96484 10.2832L3.96484 10.2441C4.54102 9.14062 5.54688 7.42188 6.31836 6.10352L6.37695 6.10352ZM12.1777 13.2031C13.8965 13.2031 15.0488 12.1484 15.0488 10.4297C15.0488 8.92578 14.0234 7.83203 12.5195 7.83203C11.8652 7.83203 11.1621 8.1543 10.8691 8.59375L10.8301 8.59375L11.0156 6.08398L14.248 6.08398C14.5215 6.08398 14.7266 5.85938 14.7266 5.53711C14.7266 5.22461 14.5312 4.99023 14.248 4.99023L10.8887 4.99023C10.3711 4.99023 10.0391 5.30273 10 5.82031L9.76562 8.86719C9.72656 9.375 10 9.70703 10.4492 9.70703C10.752 9.70703 10.9277 9.62891 11.2402 9.375C11.6504 9.02344 11.9531 8.87695 12.3926 8.87695C13.2422 8.87695 13.8379 9.56055 13.8379 10.459C13.8379 11.4844 13.1836 12.0996 12.2363 12.0996C11.5723 12.0996 11.0059 11.748 10.7227 11.1621C10.5762 10.8789 10.3906 10.7422 10.166 10.7422C9.83398 10.7422 9.60938 10.9863 9.60938 11.3086C9.60938 11.4648 9.64844 11.6113 9.69727 11.748C9.99023 12.5586 10.957 13.2031 12.1777 13.2031Z" fill="#000000" fill-opacity="0.85"/>
 </g>
</svg>
