<?xml version="1.0" encoding="UTF-8"?>
<!--Generator: Apple Native CoreSVG 175.5-->
<!DOCTYPE svg
PUBLIC "-//W3C//DTD SVG 1.1//EN"
       "http://www.w3.org/Graphics/SVG/1.1/DTD/svg11.dtd">
<svg version="1.1" xmlns="http://www.w3.org/2000/svg" xmlns:xlink="http://www.w3.org/1999/xlink" width="19.9219" height="19.9316">
 <g>
  <rect height="19.9316" opacity="0" width="19.9219" x="0" y="0"/>
  <path d="M9.96094 19.9219C15.4102 19.9219 19.9219 15.4004 19.9219 9.96094C19.9219 4.51172 15.4004 0 9.95117 0C4.51172 0 0 4.51172 0 9.96094C0 15.4004 4.52148 19.9219 9.96094 19.9219Z" fill="#000000" fill-opacity="0.85"/>
  <path d="M7.94922 14.2871C7.54883 14.2871 7.34375 13.9941 7.34375 13.6035L7.34375 12.4219L4.4043 12.4219C3.89648 12.4219 3.54492 12.0996 3.54492 11.5625C3.54492 11.2891 3.60352 11.0645 3.76953 10.752C4.44336 9.53125 5.44922 7.8125 6.29883 6.39648C6.62109 5.83984 6.97266 5.61523 7.56836 5.61523C8.16406 5.61523 8.56445 5.99609 8.56445 6.58203L8.56445 11.2891L9.11133 11.2891C9.46289 11.2891 9.67773 11.5039 9.67773 11.8652C9.67773 12.2168 9.46289 12.4219 9.11133 12.4219L8.56445 12.4219L8.56445 13.6035C8.56445 14.0039 8.34961 14.2871 7.94922 14.2871ZM7.34375 11.2891L7.34375 6.98242L7.29492 6.98242C6.48438 8.34961 5.45898 10.1074 4.86328 11.25L4.86328 11.2891ZM13.4961 14.3164C12.4805 14.3164 11.6113 13.9258 11.0938 12.9492C10.752 12.3242 10.5566 11.4258 10.5566 10.1953C10.5566 7.12891 11.748 5.61523 13.6914 5.61523C14.834 5.61523 15.6445 6.21094 15.9082 6.88477C15.957 7.02148 15.9766 7.13867 15.9766 7.27539C15.9766 7.60742 15.7617 7.83203 15.4785 7.83203C15.2051 7.83203 15.0488 7.70508 14.873 7.45117C14.6191 7.06055 14.2188 6.78711 13.6426 6.78711C12.5 6.78711 11.7383 7.97852 11.7383 9.87305C11.7383 9.92188 11.7383 9.94141 11.7383 9.9707L11.8066 9.9707C12.0605 9.30664 12.7344 8.70117 13.8086 8.70117C15.1172 8.70117 16.2988 9.6582 16.2988 11.3867C16.2988 13.2324 15.127 14.3164 13.4961 14.3164ZM13.4375 13.2031C14.4141 13.2031 15.0195 12.5195 15.0195 11.4453C15.0195 10.4395 14.3945 9.74609 13.4473 9.74609C12.5 9.74609 11.8555 10.4492 11.8555 11.4355C11.8555 12.4707 12.5 13.2031 13.4375 13.2031Z" fill="#ffffff"/>
 </g>
</svg>
