<?xml version="1.0" encoding="UTF-8"?>
<!--Generator: Apple Native CoreSVG 175.5-->
<!DOCTYPE svg
PUBLIC "-//W3C//DTD SVG 1.1//EN"
       "http://www.w3.org/Graphics/SVG/1.1/DTD/svg11.dtd">
<svg version="1.1" xmlns="http://www.w3.org/2000/svg" xmlns:xlink="http://www.w3.org/1999/xlink" width="19.9219" height="19.9316">
 <g>
  <rect height="19.9316" opacity="0" width="19.9219" x="0" y="0"/>
  <path d="M9.96094 19.9219C15.4102 19.9219 19.9219 15.4004 19.9219 9.96094C19.9219 4.51172 15.4004 0 9.95117 0C4.51172 0 0 4.51172 0 9.96094C0 15.4004 4.52148 19.9219 9.96094 19.9219ZM9.96094 18.2617C5.35156 18.2617 1.66992 14.5703 1.66992 9.96094C1.66992 5.35156 5.3418 1.66016 9.95117 1.66016C14.5605 1.66016 18.2617 5.35156 18.2617 9.96094C18.2617 14.5703 14.5703 18.2617 9.96094 18.2617Z" fill="#000000" fill-opacity="0.85"/>
  <path d="M7.99805 14.1504C8.38867 14.1504 8.59375 13.877 8.59375 13.4961L8.59375 12.3438L9.13086 12.3438C9.46289 12.3438 9.67773 12.1484 9.67773 11.8066C9.67773 11.4551 9.46289 11.25 9.13086 11.25L8.59375 11.25L8.59375 6.67969C8.59375 6.11328 8.20312 5.75195 7.62695 5.75195C7.06055 5.75195 6.71875 5.9668 6.40625 6.50391C5.58594 7.87109 4.59961 9.55078 3.94531 10.7324C3.78906 11.0352 3.73047 11.25 3.73047 11.5137C3.73047 12.0312 4.07227 12.3438 4.56055 12.3438L7.41211 12.3438L7.41211 13.4961C7.41211 13.8672 7.61719 14.1504 7.99805 14.1504ZM7.41211 11.25L5 11.25L5 11.2109C5.57617 10.1074 6.58203 8.38867 7.36328 7.07031L7.41211 7.07031ZM13.3789 14.1797C14.9609 14.1797 16.0938 13.1348 16.0938 11.3477C16.0938 9.66797 14.9512 8.74023 13.6816 8.74023C12.6367 8.74023 11.9824 9.32617 11.7383 9.9707L11.6699 9.9707C11.6699 9.94141 11.6699 9.92188 11.6699 9.88281C11.6699 8.03711 12.4121 6.875 13.5156 6.875C14.082 6.875 14.4727 7.14844 14.7168 7.5293C14.8828 7.77344 15.0391 7.89062 15.3027 7.89062C15.5762 7.89062 15.7812 7.67578 15.7812 7.35352C15.7812 7.22656 15.7617 7.10938 15.7129 6.98242C15.459 6.32812 14.6777 5.75195 13.5645 5.75195C11.6797 5.75195 10.5273 7.2168 10.5273 10.1855C10.5273 11.377 10.7129 12.2461 11.0449 12.8613C11.5527 13.7988 12.3926 14.1797 13.3789 14.1797ZM13.3203 13.1055C12.4121 13.1055 11.7871 12.3926 11.7871 11.3867C11.7871 10.4297 12.4121 9.74609 13.3301 9.74609C14.248 9.74609 14.8633 10.4199 14.8633 11.3965C14.8633 12.4414 14.2676 13.1055 13.3203 13.1055Z" fill="#000000" fill-opacity="0.85"/>
 </g>
</svg>
