<?xml version="1.0" encoding="UTF-8"?>
<!--Generator: Apple Native CoreSVG 175.5-->
<!DOCTYPE svg
PUBLIC "-//W3C//DTD SVG 1.1//EN"
       "http://www.w3.org/Graphics/SVG/1.1/DTD/svg11.dtd">
<svg version="1.1" xmlns="http://www.w3.org/2000/svg" xmlns:xlink="http://www.w3.org/1999/xlink" width="17.9785" height="17.998">
 <g>
  <rect height="17.998" opacity="0" width="17.9785" x="0" y="0"/>
  <path d="M3.06641 17.998L14.9121 17.998C16.9629 17.998 17.9785 16.9824 17.9785 14.9707L17.9785 3.04688C17.9785 1.03516 16.9629 0.0195312 14.9121 0.0195312L3.06641 0.0195312C1.02539 0.0195312 0 1.02539 0 3.04688L0 14.9707C0 16.9922 1.02539 17.998 3.06641 17.998Z" fill="#000000" fill-opacity="0.85"/>
  <path d="M6.98242 13.3203C6.58203 13.3203 6.37695 13.0273 6.37695 12.6367L6.37695 11.4551L3.4375 11.4551C2.92969 11.4551 2.57812 11.1328 2.57812 10.5957C2.57812 10.3223 2.63672 10.0977 2.80273 9.78516C3.47656 8.56445 4.48242 6.8457 5.33203 5.42969C5.6543 4.87305 6.01562 4.64844 6.61133 4.64844C7.19727 4.64844 7.59766 5.0293 7.59766 5.61523L7.59766 10.3223L8.14453 10.3223C8.49609 10.3223 8.71094 10.5371 8.71094 10.8984C8.71094 11.25 8.49609 11.4551 8.14453 11.4551L7.59766 11.4551L7.59766 12.6367C7.59766 13.0371 7.38281 13.3203 6.98242 13.3203ZM6.37695 10.3223L6.37695 6.01562L6.32812 6.01562C5.51758 7.38281 4.49219 9.14062 3.90625 10.2832L3.90625 10.3223ZM12.5293 13.3496C11.5137 13.3496 10.6445 12.959 10.1367 11.9824C9.79492 11.3574 9.58984 10.459 9.58984 9.22852C9.58984 6.16211 10.791 4.64844 12.7246 4.64844C13.8672 4.64844 14.6777 5.24414 14.9414 5.91797C14.9902 6.05469 15.0195 6.17188 15.0195 6.30859C15.0195 6.64062 14.7949 6.86523 14.5117 6.86523C14.2383 6.86523 14.082 6.73828 13.9062 6.48438C13.6523 6.09375 13.252 5.82031 12.6758 5.82031C11.543 5.82031 10.7715 7.01172 10.7715 8.90625C10.7715 8.95508 10.7715 8.97461 10.7715 9.00391L10.8496 9.00391C11.0938 8.33984 11.7676 7.73438 12.8418 7.73438C14.1504 7.73438 15.332 8.69141 15.332 10.4199C15.332 12.2656 14.1699 13.3496 12.5293 13.3496ZM12.4707 12.2363C13.4473 12.2363 14.0527 11.5527 14.0527 10.4785C14.0527 9.47266 13.4277 8.7793 12.4805 8.7793C11.5332 8.7793 10.8887 9.48242 10.8887 10.4688C10.8887 11.5039 11.543 12.2363 12.4707 12.2363Z" fill="#ffffff"/>
 </g>
</svg>
