<?xml version="1.0" encoding="UTF-8"?>
<!--Generator: Apple Native CoreSVG 175.5-->
<!DOCTYPE svg
PUBLIC "-//W3C//DTD SVG 1.1//EN"
       "http://www.w3.org/Graphics/SVG/1.1/DTD/svg11.dtd">
<svg version="1.1" xmlns="http://www.w3.org/2000/svg" xmlns:xlink="http://www.w3.org/1999/xlink" width="19.9219" height="19.9316">
 <g>
  <rect height="19.9316" opacity="0" width="19.9219" x="0" y="0"/>
  <path d="M9.96094 19.9219C15.4102 19.9219 19.9219 15.4004 19.9219 9.96094C19.9219 4.51172 15.4004 0 9.95117 0C4.51172 0 0 4.51172 0 9.96094C0 15.4004 4.52148 19.9219 9.96094 19.9219ZM9.96094 18.2617C5.35156 18.2617 1.66992 14.5703 1.66992 9.96094C1.66992 5.35156 5.3418 1.66016 9.95117 1.66016C14.5605 1.66016 18.2617 5.35156 18.2617 9.96094C18.2617 14.5703 14.5703 18.2617 9.96094 18.2617Z" fill="#000000" fill-opacity="0.85"/>
  <path d="M7.95898 14.1504C8.34961 14.1504 8.55469 13.877 8.55469 13.4961L8.55469 12.3438L9.0918 12.3438C9.42383 12.3438 9.63867 12.1484 9.63867 11.8066C9.63867 11.4551 9.42383 11.25 9.0918 11.25L8.55469 11.25L8.55469 6.67969C8.55469 6.11328 8.16406 5.75195 7.59766 5.75195C7.03125 5.75195 6.67969 5.9668 6.36719 6.50391C5.54688 7.87109 4.56055 9.55078 3.90625 10.7324C3.75 11.0352 3.69141 11.25 3.69141 11.5137C3.69141 12.0312 4.0332 12.3438 4.52148 12.3438L7.37305 12.3438L7.37305 13.4961C7.37305 13.8672 7.57812 14.1504 7.95898 14.1504ZM7.37305 11.25L4.96094 11.25L4.96094 11.2109C5.53711 10.1074 6.54297 8.38867 7.32422 7.07031L7.37305 7.07031ZM12.0605 14.0625C12.3242 14.0625 12.5098 13.916 12.6855 13.584L15.7324 7.49023C15.8789 7.17773 15.918 7.00195 15.918 6.79688C15.918 6.31836 15.5762 5.94727 15.0488 5.94727L11.1133 5.94727C10.7715 5.94727 10.5469 6.17188 10.5469 6.50391C10.5469 6.82617 10.7715 7.04102 11.1133 7.04102L14.541 7.04102L14.541 7.11914L11.5137 12.9785C11.4355 13.125 11.4062 13.2422 11.4062 13.4277C11.4062 13.7988 11.6895 14.0625 12.0605 14.0625Z" fill="#000000" fill-opacity="0.85"/>
 </g>
</svg>
