<?xml version="1.0" encoding="UTF-8"?>
<!--Generator: Apple Native CoreSVG 175.5-->
<!DOCTYPE svg
PUBLIC "-//W3C//DTD SVG 1.1//EN"
       "http://www.w3.org/Graphics/SVG/1.1/DTD/svg11.dtd">
<svg version="1.1" xmlns="http://www.w3.org/2000/svg" xmlns:xlink="http://www.w3.org/1999/xlink" width="19.9219" height="19.9316">
 <g>
  <rect height="19.9316" opacity="0" width="19.9219" x="0" y="0"/>
  <path d="M9.96094 19.9219C15.4102 19.9219 19.9219 15.4004 19.9219 9.96094C19.9219 4.51172 15.4004 0 9.95117 0C4.51172 0 0 4.51172 0 9.96094C0 15.4004 4.52148 19.9219 9.96094 19.9219Z" fill="#000000" fill-opacity="0.85"/>
  <path d="M7.91016 14.2871C7.51953 14.2871 7.30469 13.9941 7.30469 13.6035L7.30469 12.4219L4.36523 12.4219C3.85742 12.4219 3.50586 12.0996 3.50586 11.5625C3.50586 11.2891 3.56445 11.0645 3.73047 10.752C4.4043 9.53125 5.41016 7.8125 6.25977 6.39648C6.58203 5.83984 6.95312 5.61523 7.53906 5.61523C8.125 5.61523 8.52539 5.99609 8.52539 6.58203L8.52539 11.2891L9.07227 11.2891C9.42383 11.2891 9.64844 11.5039 9.64844 11.8652C9.64844 12.2168 9.42383 12.4219 9.07227 12.4219L8.52539 12.4219L8.52539 13.6035C8.52539 14.0039 8.32031 14.2871 7.91016 14.2871ZM7.30469 11.2891L7.30469 6.98242L7.25586 6.98242C6.44531 8.34961 5.41992 10.1074 4.82422 11.25L4.82422 11.2891ZM12.1387 14.1895C11.7578 14.1895 11.4648 13.916 11.4648 13.5352C11.4648 13.3398 11.4941 13.2227 11.5723 13.0664L14.6973 7.03125L14.6973 6.95312L11.1621 6.95312C10.8105 6.95312 10.5762 6.72852 10.5762 6.39648C10.5762 6.05469 10.8105 5.82031 11.1621 5.82031L15.2246 5.82031C15.7715 5.82031 16.123 6.21094 16.123 6.69922C16.123 6.91406 16.084 7.09961 15.9277 7.42188L12.793 13.6914C12.6074 14.043 12.4121 14.1895 12.1387 14.1895Z" fill="#ffffff"/>
 </g>
</svg>
