<?xml version="1.0" encoding="UTF-8"?>
<!--Generator: Apple Native CoreSVG 175.5-->
<!DOCTYPE svg
PUBLIC "-//W3C//DTD SVG 1.1//EN"
       "http://www.w3.org/Graphics/SVG/1.1/DTD/svg11.dtd">
<svg version="1.1" xmlns="http://www.w3.org/2000/svg" xmlns:xlink="http://www.w3.org/1999/xlink" width="17.9785" height="17.998">
 <g>
  <rect height="17.998" opacity="0" width="17.9785" x="0" y="0"/>
  <path d="M3.06641 17.998L14.9121 17.998C16.9629 17.998 17.9785 16.9824 17.9785 14.9707L17.9785 3.04688C17.9785 1.03516 16.9629 0.0195312 14.9121 0.0195312L3.06641 0.0195312C1.02539 0.0195312 0 1.02539 0 3.04688L0 14.9707C0 16.9922 1.02539 17.998 3.06641 17.998ZM3.08594 16.4258C2.10938 16.4258 1.57227 15.9082 1.57227 14.8926L1.57227 3.125C1.57227 2.10938 2.10938 1.5918 3.08594 1.5918L14.8926 1.5918C15.8594 1.5918 16.4062 2.10938 16.4062 3.125L16.4062 14.8926C16.4062 15.9082 15.8594 16.4258 14.8926 16.4258Z" fill="#000000" fill-opacity="0.85"/>
  <path d="M7.00195 13.1836C7.40234 13.1836 7.59766 12.9102 7.59766 12.5293L7.59766 11.377L8.13477 11.377C8.4668 11.377 8.68164 11.1816 8.68164 10.8398C8.68164 10.4883 8.4668 10.2832 8.13477 10.2832L7.59766 10.2832L7.59766 5.71289C7.59766 5.14648 7.20703 4.78516 6.64062 4.78516C6.07422 4.78516 5.72266 5 5.41016 5.53711C4.58984 6.9043 3.60352 8.58398 2.94922 9.76562C2.79297 10.0684 2.73438 10.2832 2.73438 10.5469C2.73438 11.0645 3.07617 11.377 3.57422 11.377L6.41602 11.377L6.41602 12.5293C6.41602 12.9004 6.62109 13.1836 7.00195 13.1836ZM6.41602 10.2832L4.01367 10.2832L4.01367 10.2441C4.58008 9.14062 5.58594 7.42188 6.36719 6.10352L6.41602 6.10352ZM11.1035 13.0957C11.3672 13.0957 11.5625 12.9492 11.7285 12.6172L14.7754 6.52344C14.9316 6.21094 14.9609 6.03516 14.9609 5.83008C14.9609 5.35156 14.6191 4.98047 14.0918 4.98047L10.1562 4.98047C9.81445 4.98047 9.58984 5.20508 9.58984 5.53711C9.58984 5.85938 9.81445 6.07422 10.1562 6.07422L13.584 6.07422L13.584 6.15234L10.5566 12.0117C10.4785 12.1582 10.4492 12.2754 10.4492 12.4609C10.4492 12.832 10.7324 13.0957 11.1035 13.0957Z" fill="#000000" fill-opacity="0.85"/>
 </g>
</svg>
