<?xml version="1.0" encoding="UTF-8"?>
<!--Generator: Apple Native CoreSVG 175.5-->
<!DOCTYPE svg
PUBLIC "-//W3C//DTD SVG 1.1//EN"
       "http://www.w3.org/Graphics/SVG/1.1/DTD/svg11.dtd">
<svg version="1.1" xmlns="http://www.w3.org/2000/svg" xmlns:xlink="http://www.w3.org/1999/xlink" width="17.9785" height="17.998">
 <g>
  <rect height="17.998" opacity="0" width="17.9785" x="0" y="0"/>
  <path d="M3.06641 17.998L14.9121 17.998C16.9629 17.998 17.9785 16.9824 17.9785 14.9707L17.9785 3.04688C17.9785 1.03516 16.9629 0.0195312 14.9121 0.0195312L3.06641 0.0195312C1.02539 0.0195312 0 1.02539 0 3.04688L0 14.9707C0 16.9922 1.02539 17.998 3.06641 17.998Z" fill="#000000" fill-opacity="0.85"/>
  <path d="M6.875 13.3203C6.47461 13.3203 6.26953 13.0273 6.26953 12.6367L6.26953 11.4551L3.33984 11.4551C2.82227 11.4551 2.4707 11.1328 2.4707 10.5957C2.4707 10.3223 2.5293 10.0977 2.69531 9.78516C3.37891 8.56445 4.38477 6.8457 5.22461 5.42969C5.55664 4.87305 5.9082 4.64844 6.49414 4.64844C7.08008 4.64844 7.5 5.0293 7.5 5.61523L7.5 10.3223L8.03711 10.3223C8.37891 10.3223 8.60352 10.5371 8.60352 10.8984C8.60352 11.25 8.37891 11.4551 8.03711 11.4551L7.5 11.4551L7.5 12.6367C7.5 13.0371 7.28516 13.3203 6.875 13.3203ZM6.26953 10.3223L6.26953 6.01562L6.21094 6.01562C5.41992 7.38281 4.38477 9.14062 3.78906 10.2832L3.78906 10.3223ZM12.373 13.3398C10.9766 13.3398 10.1562 12.5488 10 11.9922C9.96094 11.875 9.92188 11.7383 9.92188 11.6309C9.92188 11.2793 10.1465 11.0352 10.459 11.0352C10.7227 11.0352 10.9082 11.1426 11.0742 11.4258C11.3184 11.875 11.7773 12.168 12.3535 12.168C13.5156 12.168 14.2773 10.9863 14.2578 8.98438L14.1992 8.98438C13.9355 9.66797 13.2812 10.2637 12.1777 10.2637C10.8691 10.2637 9.67773 9.29688 9.67773 7.56836C9.67773 5.79102 10.791 4.64844 12.4805 4.64844C14.375 4.64844 15.459 6.07422 15.459 8.71094C15.459 11.748 14.375 13.3398 12.373 13.3398ZM12.5586 9.21875C13.4961 9.21875 14.1504 8.50586 14.1504 7.51953C14.1504 6.48438 13.4863 5.75195 12.5586 5.75195C11.5918 5.75195 10.9668 6.44531 10.9668 7.5C10.9668 8.50586 11.6113 9.21875 12.5586 9.21875Z" fill="#ffffff"/>
 </g>
</svg>
