<?xml version="1.0" encoding="UTF-8"?>
<!--Generator: Apple Native CoreSVG 175.5-->
<!DOCTYPE svg
PUBLIC "-//W3C//DTD SVG 1.1//EN"
       "http://www.w3.org/Graphics/SVG/1.1/DTD/svg11.dtd">
<svg version="1.1" xmlns="http://www.w3.org/2000/svg" xmlns:xlink="http://www.w3.org/1999/xlink" width="24.4141" height="20.1855">
 <g>
  <rect height="20.1855" opacity="0" width="24.4141" x="0" y="0"/>
  <path d="M2.50977 16.875L21.9043 16.875C23.5547 16.875 24.4141 16.0254 24.4141 14.3652L24.4141 3.17383C24.4141 1.52344 23.5547 0.673828 21.9043 0.673828L2.50977 0.673828C0.859375 0.673828 0 1.52344 0 3.17383L0 14.3652C0 16.0254 0.859375 16.875 2.50977 16.875ZM2.53906 15.3027C1.89453 15.3027 1.57227 14.9805 1.57227 14.3457L1.57227 3.20312C1.57227 2.55859 1.89453 2.24609 2.53906 2.24609L21.875 2.24609C22.5195 2.24609 22.8418 2.55859 22.8418 3.20312L22.8418 14.3457C22.8418 14.9805 22.5195 15.3027 21.875 15.3027ZM7.29492 20.1855L17.1191 20.1855C17.5488 20.1855 17.9102 19.834 17.9102 19.3945C17.9102 18.9551 17.5488 18.6035 17.1191 18.6035L7.29492 18.6035C6.86523 18.6035 6.50391 18.9551 6.50391 19.3945C6.50391 19.834 6.86523 20.1855 7.29492 20.1855Z" fill="#000000" fill-opacity="0.85"/>
  <path d="M9.35547 13.0664C9.79492 13.0664 10.0391 12.793 10.0391 12.3047L10.0391 11.3184L10.7422 11.3184C11.1035 11.3184 11.3477 11.084 11.3477 10.7227C11.3477 10.3711 11.1133 10.127 10.7422 10.127L10.0391 10.127L10.0391 5.42969C10.0391 4.86328 9.59961 4.47266 8.94531 4.47266C8.31055 4.47266 7.91992 4.69727 7.55859 5.25391C6.61133 6.68945 5.44922 8.37891 4.69727 9.62891C4.51172 9.92188 4.44336 10.1562 4.44336 10.4199C4.44336 10.957 4.81445 11.3184 5.40039 11.3184L8.70117 11.3184L8.70117 12.3047C8.70117 12.7832 8.94531 13.0664 9.35547 13.0664ZM8.70117 10.127L5.79102 10.127L5.79102 10.0684C6.48438 8.85742 7.67578 7.09961 8.62305 5.6543L8.70117 5.6543ZM13.2617 13.0176C13.7012 13.0176 13.9551 12.7441 13.9551 12.2559L13.9551 10.3125L15.127 9.08203L17.8418 12.6855C18.0273 12.9199 18.2129 13.0176 18.4473 13.0176C18.8184 13.0176 19.0918 12.7539 19.0918 12.3828C19.0918 12.207 19.0137 12.0215 18.8965 11.8555L16.1035 8.23242L18.6719 5.58594C18.8184 5.44922 18.8867 5.30273 18.8867 5.10742C18.8867 4.78516 18.623 4.54102 18.2812 4.54102C18.0566 4.54102 17.9297 4.61914 17.7246 4.82422L14.0625 8.53516L13.9551 8.53516L13.9551 5.3125C13.9551 4.81445 13.7012 4.54102 13.2617 4.54102C12.8418 4.54102 12.5977 4.82422 12.5977 5.3125L12.5977 12.2559C12.5977 12.7344 12.8418 13.0176 13.2617 13.0176Z" fill="#000000" fill-opacity="0.85"/>
 </g>
</svg>
