<?xml version="1.0" encoding="UTF-8"?>
<!--Generator: Apple Native CoreSVG 175.5-->
<!DOCTYPE svg
PUBLIC "-//W3C//DTD SVG 1.1//EN"
       "http://www.w3.org/Graphics/SVG/1.1/DTD/svg11.dtd">
<svg version="1.1" xmlns="http://www.w3.org/2000/svg" xmlns:xlink="http://www.w3.org/1999/xlink" width="19.9219" height="19.9316">
 <g>
  <rect height="19.9316" opacity="0" width="19.9219" x="0" y="0"/>
  <path d="M9.96094 19.9219C15.4102 19.9219 19.9219 15.4004 19.9219 9.96094C19.9219 4.51172 15.4004 0 9.95117 0C4.51172 0 0 4.51172 0 9.96094C0 15.4004 4.52148 19.9219 9.96094 19.9219ZM9.96094 18.2617C5.35156 18.2617 1.66992 14.5703 1.66992 9.96094C1.66992 5.35156 5.3418 1.66016 9.95117 1.66016C14.5605 1.66016 18.2617 5.35156 18.2617 9.96094C18.2617 14.5703 14.5703 18.2617 9.96094 18.2617Z" fill="#000000" fill-opacity="0.85"/>
  <path d="M6.70898 14.1797C8.42773 14.1797 9.58008 13.125 9.58008 11.416C9.58008 9.90234 8.55469 8.80859 7.05078 8.80859C6.39648 8.80859 5.69336 9.13086 5.40039 9.57031L5.36133 9.57031L5.54688 7.06055L8.7793 7.06055C9.05273 7.06055 9.25781 6.83594 9.25781 6.51367C9.25781 6.20117 9.0625 5.97656 8.7793 5.97656L5.41992 5.97656C4.90234 5.97656 4.57031 6.28906 4.53125 6.79688L4.29688 9.84375C4.26758 10.3613 4.53125 10.6934 4.98047 10.6934C5.2832 10.6934 5.46875 10.6152 5.77148 10.3516C6.18164 10.0098 6.48438 9.86328 6.92383 9.86328C7.7832 9.86328 8.36914 10.5371 8.36914 11.4355C8.36914 12.4609 7.71484 13.0762 6.77734 13.0762C6.10352 13.0762 5.53711 12.7246 5.25391 12.1387C5.10742 11.8555 4.92188 11.7188 4.69727 11.7188C4.36523 11.7188 4.14062 11.9629 4.14062 12.2852C4.14062 12.4512 4.17969 12.5977 4.22852 12.7246C4.52148 13.5352 5.48828 14.1797 6.70898 14.1797ZM13.4277 14.1797C15.1074 14.1797 16.2207 12.5684 16.2207 9.9707C16.2207 7.37305 15.1074 5.76172 13.4277 5.76172C11.7383 5.76172 10.625 7.37305 10.625 9.9707C10.625 12.5684 11.7383 14.1797 13.4277 14.1797ZM13.4277 12.998C12.4902 12.998 11.9141 11.8457 11.9141 9.9707C11.9141 8.0957 12.4902 6.94336 13.4277 6.94336C14.3555 6.94336 14.9316 8.0957 14.9316 9.9707C14.9316 11.8457 14.3652 12.998 13.4277 12.998Z" fill="#000000" fill-opacity="0.85"/>
 </g>
</svg>
