<?xml version="1.0" encoding="UTF-8"?>
<!--Generator: Apple Native CoreSVG 175.5-->
<!DOCTYPE svg
PUBLIC "-//W3C//DTD SVG 1.1//EN"
       "http://www.w3.org/Graphics/SVG/1.1/DTD/svg11.dtd">
<svg version="1.1" xmlns="http://www.w3.org/2000/svg" xmlns:xlink="http://www.w3.org/1999/xlink" width="19.9219" height="19.9316">
 <g>
  <rect height="19.9316" opacity="0" width="19.9219" x="0" y="0"/>
  <path d="M9.96094 19.9219C15.4102 19.9219 19.9219 15.4004 19.9219 9.96094C19.9219 4.51172 15.4004 0 9.95117 0C4.51172 0 0 4.51172 0 9.96094C0 15.4004 4.52148 19.9219 9.96094 19.9219Z" fill="#000000" fill-opacity="0.85"/>
  <path d="M6.62109 14.3164C5.36133 14.3164 4.36523 13.6523 4.0625 12.8125C4.01367 12.6855 3.97461 12.5293 3.97461 12.3535C3.97461 12.0215 4.19922 11.7676 4.55078 11.7676C4.77539 11.7676 4.9707 11.9141 5.12695 12.207C5.41992 12.8125 5.99609 13.1738 6.68945 13.1738C7.65625 13.1738 8.33008 12.5391 8.33008 11.4844C8.33008 10.5566 7.72461 9.86328 6.8457 9.86328C6.39648 9.86328 6.08398 10.0098 5.66406 10.3613C5.3418 10.6348 5.15625 10.7227 4.84375 10.7227C4.375 10.7227 4.10156 10.3711 4.13086 9.83398L4.375 6.69922C4.41406 6.17188 4.75586 5.84961 5.29297 5.84961L8.75977 5.84961C9.05273 5.84961 9.24805 6.08398 9.24805 6.40625C9.24805 6.73828 9.04297 6.97266 8.75977 6.97266L5.42969 6.97266L5.23438 9.56055L5.27344 9.56055C5.57617 9.10156 6.29883 8.76953 6.97266 8.76953C8.52539 8.76953 9.58008 9.90234 9.58008 11.4648C9.58008 13.2227 8.39844 14.3164 6.62109 14.3164ZM13.5449 14.3164C11.8066 14.3164 10.6543 12.6562 10.6543 9.9707C10.6543 7.28516 11.8066 5.625 13.5449 5.625C15.2832 5.625 16.4258 7.28516 16.4258 9.9707C16.4258 12.6562 15.2832 14.3164 13.5449 14.3164ZM13.5449 13.0859C14.5117 13.0859 15.0977 11.9043 15.0977 9.9707C15.0977 8.03711 14.502 6.85547 13.5449 6.85547C12.5879 6.85547 11.9922 8.03711 11.9922 9.9707C11.9922 11.9043 12.5879 13.0859 13.5449 13.0859Z" fill="#ffffff"/>
 </g>
</svg>
