<?xml version="1.0" encoding="UTF-8"?>
<!--Generator: Apple Native CoreSVG 175.5-->
<!DOCTYPE svg
PUBLIC "-//W3C//DTD SVG 1.1//EN"
       "http://www.w3.org/Graphics/SVG/1.1/DTD/svg11.dtd">
<svg version="1.1" xmlns="http://www.w3.org/2000/svg" xmlns:xlink="http://www.w3.org/1999/xlink" width="19.9219" height="19.9316">
 <g>
  <rect height="19.9316" opacity="0" width="19.9219" x="0" y="0"/>
  <path d="M9.96094 19.9219C15.4102 19.9219 19.9219 15.4004 19.9219 9.96094C19.9219 4.51172 15.4004 0 9.95117 0C4.51172 0 0 4.51172 0 9.96094C0 15.4004 4.52148 19.9219 9.96094 19.9219ZM9.96094 18.2617C5.35156 18.2617 1.66992 14.5703 1.66992 9.96094C1.66992 5.35156 5.3418 1.66016 9.95117 1.66016C14.5605 1.66016 18.2617 5.35156 18.2617 9.96094C18.2617 14.5703 14.5703 18.2617 9.96094 18.2617Z" fill="#000000" fill-opacity="0.85"/>
  <path d="M9.9707 14.6094C11.9824 14.6094 13.3594 13.3203 13.3594 11.5039C13.3594 9.89258 12.1484 8.69141 10.4395 8.69141C9.78516 8.69141 9.10156 8.94531 8.7793 9.27734L8.68164 9.24805C8.7793 9.08203 8.90625 8.90625 9.20898 8.51562C9.70703 7.87109 10.3516 7.07031 10.8301 6.45508C10.9766 6.25977 11.0547 6.10352 11.0547 5.91797C11.0547 5.625 10.8691 5.32227 10.3906 5.32227C10.0879 5.32227 9.89258 5.52734 9.73633 5.72266C9.10156 6.5625 8.50586 7.31445 8.00781 7.98828C6.99219 9.31641 6.5625 10.3906 6.5625 11.4453C6.5625 13.3203 7.93945 14.6094 9.9707 14.6094ZM9.9707 13.3789C8.81836 13.3789 7.93945 12.5977 7.93945 11.5625C7.93945 10.5469 8.80859 9.79492 9.96094 9.79492C11.1426 9.79492 11.9922 10.5469 11.9922 11.582C11.9922 12.5977 11.1426 13.3789 9.9707 13.3789Z" fill="#000000" fill-opacity="0.85"/>
 </g>
</svg>
