<?xml version="1.0" encoding="UTF-8"?>
<!--Generator: Apple Native CoreSVG 175.5-->
<!DOCTYPE svg
PUBLIC "-//W3C//DTD SVG 1.1//EN"
       "http://www.w3.org/Graphics/SVG/1.1/DTD/svg11.dtd">
<svg version="1.1" xmlns="http://www.w3.org/2000/svg" xmlns:xlink="http://www.w3.org/1999/xlink" width="17.9785" height="17.998">
 <g>
  <rect height="17.998" opacity="0" width="17.9785" x="0" y="0"/>
  <path d="M3.06641 17.998L14.9121 17.998C16.9629 17.998 17.9785 16.9824 17.9785 14.9707L17.9785 3.04688C17.9785 1.03516 16.9629 0.0195312 14.9121 0.0195312L3.06641 0.0195312C1.02539 0.0195312 0 1.02539 0 3.04688L0 14.9707C0 16.9922 1.02539 17.998 3.06641 17.998Z" fill="#000000" fill-opacity="0.85"/>
  <path d="M7.63672 13.7793C7.19727 13.7793 6.83594 13.4766 6.83594 13.0469C6.83594 12.8418 6.875 12.7051 6.97266 12.5293L10.6738 5.75195L10.6738 5.67383L6.39648 5.67383C6.05469 5.67383 5.80078 5.41016 5.80078 5.04883C5.80078 4.67773 6.04492 4.42383 6.39648 4.42383L11.3281 4.42383C11.9824 4.42383 12.4219 4.84375 12.4219 5.40039C12.4219 5.61523 12.3828 5.82031 12.1777 6.19141L8.42773 13.2227C8.23242 13.6133 7.98828 13.7793 7.63672 13.7793Z" fill="#ffffff"/>
 </g>
</svg>
