<?xml version="1.0" encoding="UTF-8"?>
<!--Generator: Apple Native CoreSVG 175.5-->
<!DOCTYPE svg
PUBLIC "-//W3C//DTD SVG 1.1//EN"
       "http://www.w3.org/Graphics/SVG/1.1/DTD/svg11.dtd">
<svg version="1.1" xmlns="http://www.w3.org/2000/svg" xmlns:xlink="http://www.w3.org/1999/xlink" width="17.9785" height="17.998">
 <g>
  <rect height="17.998" opacity="0" width="17.9785" x="0" y="0"/>
  <path d="M3.06641 17.998L14.9121 17.998C16.9629 17.998 17.9785 16.9824 17.9785 14.9707L17.9785 3.04688C17.9785 1.03516 16.9629 0.0195312 14.9121 0.0195312L3.06641 0.0195312C1.02539 0.0195312 0 1.02539 0 3.04688L0 14.9707C0 16.9922 1.02539 17.998 3.06641 17.998Z" fill="#000000" fill-opacity="0.85"/>
  <path d="M8.97461 13.7891C6.83594 13.7891 5.40039 12.7051 5.40039 11.0742C5.40039 9.95117 6.2207 9.01367 7.43164 8.76953L7.43164 8.71094C6.41602 8.39844 5.80078 7.61719 5.80078 6.65039C5.80078 5.19531 7.11914 4.19922 8.99414 4.19922C10.8691 4.19922 12.1875 5.19531 12.1875 6.65039C12.1875 7.61719 11.5527 8.41797 10.5566 8.71094L10.5566 8.76953C11.7578 9.01367 12.5781 9.94141 12.5781 11.0645C12.5781 12.6855 11.123 13.7891 8.97461 13.7891ZM9.00391 12.6758C10.1758 12.6758 11.0449 11.9727 11.0449 10.9863C11.0449 10.0195 10.2051 9.31641 9.00391 9.31641C7.83203 9.31641 6.94336 10.0293 6.94336 10.9863C6.94336 11.9727 7.82227 12.6758 9.00391 12.6758ZM8.99414 8.25195C9.99023 8.25195 10.7031 7.63672 10.7031 6.76758C10.7031 5.92773 10 5.32227 8.99414 5.32227C7.98828 5.32227 7.28516 5.92773 7.28516 6.76758C7.28516 7.63672 7.98828 8.25195 8.99414 8.25195Z" fill="#ffffff"/>
 </g>
</svg>
