<?xml version="1.0" encoding="UTF-8"?>
<!--Generator: Apple Native CoreSVG 175.5-->
<!DOCTYPE svg
PUBLIC "-//W3C//DTD SVG 1.1//EN"
       "http://www.w3.org/Graphics/SVG/1.1/DTD/svg11.dtd">
<svg version="1.1" xmlns="http://www.w3.org/2000/svg" xmlns:xlink="http://www.w3.org/1999/xlink" width="19.9219" height="19.9316">
 <g>
  <rect height="19.9316" opacity="0" width="19.9219" x="0" y="0"/>
  <path d="M9.96094 19.9219C15.4102 19.9219 19.9219 15.4004 19.9219 9.96094C19.9219 4.51172 15.4004 0 9.95117 0C4.51172 0 0 4.51172 0 9.96094C0 15.4004 4.52148 19.9219 9.96094 19.9219Z" fill="#000000" fill-opacity="0.85"/>
  <path d="M6.46484 8.36914C6.46484 6.48438 7.90039 5.16602 9.99023 5.16602C12.0801 5.16602 13.5156 6.49414 13.5156 8.44727C13.5156 9.54102 13.0762 10.5664 12.1387 11.8066C11.6016 12.5195 10.8496 13.4961 10.3223 14.1504C10.0293 14.5117 9.87305 14.7461 9.49219 14.7461C9.08203 14.7461 8.81836 14.4531 8.81836 14.1504C8.81836 13.9551 8.89648 13.7695 9.0625 13.5742C9.6582 12.8418 10.3223 12.041 10.8789 11.3281C11.1035 11.0645 11.25 10.8496 11.3379 10.7031L11.2012 10.7031C10.8594 11.0547 10.1562 11.2891 9.48242 11.2891C7.74414 11.2891 6.46484 10.0586 6.46484 8.36914ZM7.89062 8.31055C7.89062 9.375 8.78906 10.1562 9.99023 10.1562C11.1816 10.1562 12.0801 9.38477 12.0801 8.31055C12.0801 7.25586 11.1719 6.45508 9.98047 6.45508C8.78906 6.45508 7.89062 7.24609 7.89062 8.31055Z" fill="#ffffff"/>
 </g>
</svg>
