<?xml version="1.0" encoding="UTF-8"?>
<!--Generator: Apple Native CoreSVG 175.5-->
<!DOCTYPE svg
PUBLIC "-//W3C//DTD SVG 1.1//EN"
       "http://www.w3.org/Graphics/SVG/1.1/DTD/svg11.dtd">
<svg version="1.1" xmlns="http://www.w3.org/2000/svg" xmlns:xlink="http://www.w3.org/1999/xlink" width="17.9785" height="17.998">
 <g>
  <rect height="17.998" opacity="0" width="17.9785" x="0" y="0"/>
  <path d="M3.06641 17.998L14.9121 17.998C16.9629 17.998 17.9785 16.9824 17.9785 14.9707L17.9785 3.04688C17.9785 1.03516 16.9629 0.0195312 14.9121 0.0195312L3.06641 0.0195312C1.02539 0.0195312 0 1.02539 0 3.04688L0 14.9707C0 16.9922 1.02539 17.998 3.06641 17.998Z" fill="#000000" fill-opacity="0.85"/>
  <path d="M5.49805 7.40234C5.49805 5.51758 6.93359 4.19922 9.02344 4.19922C11.1133 4.19922 12.5488 5.52734 12.5488 7.48047C12.5488 8.57422 12.1094 9.59961 11.1719 10.8398C10.6348 11.5527 9.88281 12.5293 9.35547 13.1836C9.0625 13.5449 8.91602 13.7793 8.52539 13.7793C8.11523 13.7793 7.85156 13.4863 7.85156 13.1836C7.85156 12.9883 7.92969 12.8027 8.0957 12.6074C8.69141 11.875 9.35547 11.0742 9.91211 10.3613C10.1367 10.0977 10.293 9.88281 10.3711 9.73633L10.2344 9.73633C9.90234 10.0879 9.18945 10.3223 8.51562 10.3223C6.77734 10.3223 5.49805 9.0918 5.49805 7.40234ZM6.92383 7.34375C6.92383 8.4082 7.82227 9.18945 9.02344 9.18945C10.2148 9.18945 11.1133 8.41797 11.1133 7.34375C11.1133 6.28906 10.2051 5.48828 9.01367 5.48828C7.82227 5.48828 6.92383 6.2793 6.92383 7.34375Z" fill="#ffffff"/>
 </g>
</svg>
