<?xml version="1.0" encoding="UTF-8"?>
<!--Generator: Apple Native CoreSVG 175.5-->
<!DOCTYPE svg
PUBLIC "-//W3C//DTD SVG 1.1//EN"
       "http://www.w3.org/Graphics/SVG/1.1/DTD/svg11.dtd">
<svg version="1.1" xmlns="http://www.w3.org/2000/svg" xmlns:xlink="http://www.w3.org/1999/xlink" width="19.9219" height="19.9316">
 <g>
  <rect height="19.9316" opacity="0" width="19.9219" x="0" y="0"/>
  <path d="M9.96094 19.9219C15.4102 19.9219 19.9219 15.4004 19.9219 9.96094C19.9219 4.51172 15.4004 0 9.95117 0C4.51172 0 0 4.51172 0 9.96094C0 15.4004 4.52148 19.9219 9.96094 19.9219Z" fill="#000000" fill-opacity="0.85"/>
  <path d="M9.70703 14.7559C8.00781 14.7559 7.06055 13.916 6.82617 13.2129C6.78711 13.0957 6.75781 12.9785 6.75781 12.8711C6.75781 12.4805 7.04102 12.2168 7.43164 12.2168C7.74414 12.2168 7.94922 12.3828 8.125 12.6172C8.53516 13.1836 9.00391 13.4668 9.6875 13.4668C11.084 13.4668 12.0215 12.1484 12.002 9.94141L11.9238 9.94141C11.6016 10.6836 10.8105 11.3477 9.47266 11.3477C7.90039 11.3477 6.46484 10.2734 6.46484 8.37891C6.46484 6.42578 7.80273 5.16602 9.89258 5.16602C12.1484 5.16602 13.4668 6.73828 13.4668 9.63867C13.4668 13.0176 12.1484 14.7559 9.70703 14.7559ZM9.95117 10.2051C11.0742 10.2051 11.875 9.41406 11.875 8.33008C11.875 7.19727 11.0547 6.36719 9.95117 6.36719C8.79883 6.36719 8.01758 7.13867 8.01758 8.31055C8.01758 9.41406 8.81836 10.2051 9.95117 10.2051Z" fill="#ffffff"/>
 </g>
</svg>
