<?xml version="1.0" encoding="UTF-8"?>
<!--Generator: Apple Native CoreSVG 175.5-->
<!DOCTYPE svg
PUBLIC "-//W3C//DTD SVG 1.1//EN"
       "http://www.w3.org/Graphics/SVG/1.1/DTD/svg11.dtd">
<svg version="1.1" xmlns="http://www.w3.org/2000/svg" xmlns:xlink="http://www.w3.org/1999/xlink" width="23.5254" height="18.9355">
 <g>
  <rect height="18.9355" opacity="0" width="23.5254" x="0" y="0"/>
  <path d="M7.44141 15.5762L6.77734 14.6191C6.16211 14.9902 5.43945 15.1855 4.64844 15.1855C2.97852 15.1855 1.83594 14.2871 1.83594 12.9199C1.83594 11.5918 2.91016 10.7422 4.83398 10.6152L5.54688 10.5664L5.25391 9.15039L4.61914 9.20898C1.66016 9.46289 0 10.752 0 12.9395C0 15.2051 1.72852 16.7285 4.25781 16.7285C5.44922 16.7285 6.58203 16.2891 7.44141 15.5762ZM6.62109 5.19531L7.58789 3.78906C6.97266 3.57422 6.28906 3.4668 5.50781 3.4668C3.33984 3.4668 1.52344 4.47266 0.830078 5.95703C0.683594 6.25 0.595703 6.55273 0.595703 6.79688C0.595703 7.29492 0.927734 7.61719 1.39648 7.61719C1.74805 7.61719 1.99219 7.4707 2.14844 7.14844C2.8125 5.68359 3.89648 5.05859 5.46875 5.05859C5.88867 5.05859 6.2793 5.10742 6.62109 5.19531Z" fill="#000000" fill-opacity="0.85"/>
  <path d="M14.0625 18.9258C19.2285 18.9258 23.5254 14.6289 23.5254 9.46289C23.5254 4.29688 19.2188 0 14.0527 0C8.88672 0 4.59961 4.29688 4.59961 9.46289C4.59961 14.6289 8.89648 18.9258 14.0625 18.9258ZM14.0625 17.334C9.67773 17.334 6.20117 13.8477 6.20117 9.46289C6.20117 5.07812 9.66797 1.58203 14.0527 1.58203C18.4375 1.58203 21.9238 5.07812 21.9434 9.46289C21.9531 13.8477 18.4473 17.334 14.0625 17.334ZM14.6289 18.0469L16.7188 18.0273L16.7188 6.81641C16.7188 3.95508 14.9316 2.01172 11.9141 1.5918C11.5332 1.54297 11.1328 1.51367 10.7324 1.50391L8.62305 3.65234C9.19922 3.48633 9.82422 3.39844 10.5762 3.39844C13.0469 3.39844 14.5117 4.75586 14.5117 7.04102L14.5117 8.47656L9.49219 8.7793C8.03711 8.87695 6.82617 9.19922 5.9082 9.73633L6.30859 12.0215C6.9043 11.1328 8.10547 10.6055 9.76562 10.4883L14.5117 10.1758L14.5117 11.8945C14.5117 14.2676 12.5977 16.1523 10.0586 16.3867L11.6699 17.7637C12.9492 17.2656 13.9746 16.4258 14.502 15.3809L14.6289 15.3809Z" fill="#000000" fill-opacity="0.85"/>
 </g>
</svg>
