<?xml version="1.0" encoding="UTF-8"?>
<!--Generator: Apple Native CoreSVG 175.5-->
<!DOCTYPE svg
PUBLIC "-//W3C//DTD SVG 1.1//EN"
       "http://www.w3.org/Graphics/SVG/1.1/DTD/svg11.dtd">
<svg version="1.1" xmlns="http://www.w3.org/2000/svg" xmlns:xlink="http://www.w3.org/1999/xlink" width="23.0547" height="23.4668">
 <g>
  <rect height="23.4668" opacity="0" width="23.0547" x="0" y="0"/>
  <path d="M2.2168 23.4668L8.27148 23.4668C9.61914 23.4668 10.4883 22.6074 10.4883 21.2891L10.4883 2.17773C10.4883 0.859375 9.61914 0 8.27148 0L2.2168 0C0.869141 0 0 0.859375 0 2.17773L0 21.2891C0 22.6074 0.869141 23.4668 2.2168 23.4668ZM7.8125 7.61719C7.51953 7.61719 7.30469 7.38281 7.30469 7.09961L7.30469 3.125C7.30469 2.8418 7.51953 2.60742 7.8125 2.60742C8.0957 2.60742 8.32031 2.8418 8.32031 3.125L8.32031 7.09961C8.32031 7.38281 8.0957 7.61719 7.8125 7.61719ZM5.74219 7.61719C5.44922 7.61719 5.21484 7.38281 5.21484 7.09961L5.21484 3.125C5.21484 2.8418 5.44922 2.60742 5.74219 2.60742C6.01562 2.60742 6.24023 2.8418 6.24023 3.125L6.24023 7.09961C6.24023 7.38281 6.01562 7.61719 5.74219 7.61719ZM7.8125 14.1992C7.51953 14.1992 7.30469 13.9746 7.30469 13.6816L7.30469 9.70703C7.30469 9.42383 7.51953 9.19922 7.8125 9.19922C8.0957 9.19922 8.32031 9.42383 8.32031 9.70703L8.32031 13.6816C8.32031 13.9746 8.0957 14.1992 7.8125 14.1992ZM5.74219 14.1992C5.44922 14.1992 5.21484 13.9746 5.21484 13.6816L5.21484 9.70703C5.21484 9.42383 5.44922 9.19922 5.74219 9.19922C6.01562 9.19922 6.24023 9.42383 6.24023 9.70703L6.24023 13.6816C6.24023 13.9746 6.01562 14.1992 5.74219 14.1992ZM7.8125 20.8008C7.51953 20.8008 7.30469 20.5664 7.30469 20.293L7.30469 16.3184C7.30469 16.0254 7.51953 15.791 7.8125 15.791C8.0957 15.791 8.32031 16.0254 8.32031 16.3184L8.32031 20.293C8.32031 20.5664 8.0957 20.8008 7.8125 20.8008ZM5.74219 20.8008C5.44922 20.8008 5.21484 20.5664 5.21484 20.293L5.21484 16.3184C5.21484 16.0254 5.44922 15.791 5.74219 15.791C6.01562 15.791 6.24023 16.0254 6.24023 16.3184L6.24023 20.293C6.24023 20.5664 6.01562 20.8008 5.74219 20.8008Z" fill="#000000" fill-opacity="0.85"/>
  <path d="M14.7949 7.51953C15.0098 7.51953 15.166 7.32422 15.1465 7.10938L15.0977 6.29883L15.7715 6.75781C15.9375 6.86523 16.1914 6.82617 16.3086 6.64062C16.4355 6.45508 16.3477 6.20117 16.1328 6.11328L15.4004 5.75195L16.1523 5.38086C16.3379 5.2832 16.4258 5.04883 16.3184 4.85352C16.2207 4.67773 15.9473 4.61914 15.7617 4.74609L15.0977 5.20508L15.1562 4.39453C15.1758 4.17969 15.0195 3.98438 14.7949 3.98438C14.5605 3.98438 14.4043 4.16016 14.4238 4.38477L14.4727 5.21484L13.7891 4.74609C13.6035 4.62891 13.3691 4.6582 13.2617 4.85352C13.1445 5.04883 13.2227 5.2832 13.418 5.38086L14.1504 5.75195L13.4277 6.10352C13.2227 6.19141 13.1348 6.43555 13.252 6.64062C13.3496 6.82617 13.6035 6.86523 13.7891 6.75781L14.4727 6.29883L14.4336 7.10938C14.4238 7.33398 14.5703 7.51953 14.7949 7.51953ZM20.127 19.4043C20.3516 19.4043 20.5176 19.2285 20.498 19.0039L20.4492 18.1836L21.1328 18.6523C21.3086 18.7695 21.5527 18.7305 21.6504 18.5449C21.7676 18.3398 21.6895 18.1055 21.4941 18.0176L20.7617 17.6465L21.4844 17.2754C21.6992 17.1973 21.7773 16.9531 21.6699 16.748C21.5723 16.5625 21.3086 16.5137 21.1328 16.6309L20.4492 17.0898L20.4883 16.2793C20.498 16.0547 20.3418 15.8789 20.127 15.8789C19.9121 15.8789 19.7559 16.0645 19.7754 16.2793L19.8242 17.0996L19.1406 16.6406C18.9844 16.5332 18.7305 16.5723 18.6133 16.748C18.4863 16.9336 18.5742 17.1973 18.7891 17.2852L19.5117 17.6465L18.7695 18.0176C18.584 18.1152 18.4961 18.3398 18.6035 18.5449C18.7012 18.7207 18.9746 18.7793 19.1504 18.6523L19.8242 18.1934L19.7656 18.9941C19.7461 19.209 19.9023 19.4043 20.127 19.4043ZM14.3457 10.5566C16.9531 10.5566 18.3008 8.4375 20.5762 8.4375C21.1035 8.4375 21.5527 8.54492 22.1094 8.85742C22.4609 9.05273 22.7734 8.91602 22.9297 8.69141C23.125 8.4082 23.1055 7.97852 22.6758 7.73438C22.0312 7.35352 21.3281 7.16797 20.5762 7.16797C17.9297 7.16797 16.582 9.29688 14.3457 9.29688C13.8184 9.29688 13.3691 9.17969 12.8027 8.85742C12.4707 8.67188 12.1484 8.79883 11.9824 9.05273C11.8066 9.32617 11.8262 9.75586 12.2363 9.99023C12.8809 10.3906 13.5938 10.5566 14.3457 10.5566ZM14.3555 13.4277C16.9531 13.4277 18.3105 11.3086 20.5762 11.3086C21.1133 11.3086 21.5625 11.416 22.1191 11.7285C22.4609 11.9238 22.7832 11.7871 22.9395 11.5625C23.125 11.2793 23.1152 10.8496 22.6953 10.6055C22.041 10.2246 21.3281 10.0391 20.5762 10.0391C17.9395 10.0391 16.5918 12.168 14.3555 12.168C13.8184 12.168 13.3691 12.0508 12.8125 11.7383C12.4805 11.543 12.1484 11.6699 11.9824 11.9238C11.8066 12.1973 11.8262 12.627 12.2461 12.8613C12.8906 13.2617 13.6035 13.4277 14.3555 13.4277ZM14.3457 16.2988C16.9531 16.2988 18.3008 14.1797 20.5762 14.1797C21.1035 14.1797 21.5527 14.2871 22.1094 14.6094C22.4609 14.8047 22.7734 14.6582 22.9297 14.4336C23.125 14.1504 23.1055 13.7207 22.6758 13.4766C22.0312 13.0957 21.3281 12.9102 20.5762 12.9102C17.9297 12.9102 16.582 15.0391 14.3457 15.0391C13.8184 15.0391 13.3691 14.9219 12.8027 14.6094C12.4707 14.4141 12.1484 14.541 11.9824 14.7949C11.8066 15.0684 11.8262 15.5078 12.2363 15.7422C12.8809 16.1328 13.5938 16.2988 14.3457 16.2988Z" fill="#000000" fill-opacity="0.85"/>
 </g>
</svg>
