<?xml version="1.0" encoding="UTF-8"?>
<!--Generator: Apple Native CoreSVG 175.5-->
<!DOCTYPE svg
PUBLIC "-//W3C//DTD SVG 1.1//EN"
       "http://www.w3.org/Graphics/SVG/1.1/DTD/svg11.dtd">
<svg version="1.1" xmlns="http://www.w3.org/2000/svg" xmlns:xlink="http://www.w3.org/1999/xlink" width="19.1149" height="22.9785">
 <g>
  <rect height="22.9785" opacity="0" width="19.1149" x="0" y="0"/>
  <path d="M3.01758 21.2402L11.8262 21.2402C13.8184 21.2402 14.834 20.2246 14.834 18.2617L14.834 10.8984C14.3066 11.2109 13.7793 11.4844 13.2617 11.709L13.2617 18.1836C13.2617 19.1406 12.7148 19.668 11.7969 19.668L3.03711 19.668C2.11914 19.668 1.57227 19.1406 1.57227 18.1836L1.57227 3.05664C1.57227 2.08984 2.11914 1.57227 3.03711 1.57227L12.0117 1.57227C12.5781 1.2207 13.1836 0.917969 13.7891 0.664062C13.3496 0.224609 12.666 0 11.7676 0L3.01758 0C1.03516 0 0 1.00586 0 2.96875L0 18.2617C0 20.2246 1.03516 21.2402 3.01758 21.2402ZM4.16016 5.66406C4.91211 5.66406 5.53711 5.03906 5.53711 4.27734C5.53711 3.52539 4.91211 2.91016 4.16016 2.91016C3.39844 2.91016 2.7832 3.52539 2.7832 4.27734C2.7832 5.03906 3.39844 5.66406 4.16016 5.66406ZM3.33984 13.3984L6.18164 13.3984C6.5332 13.3984 6.80664 13.1348 6.80664 12.7832C6.80664 12.4414 6.5332 12.168 6.18164 12.168L3.33984 12.168C2.99805 12.168 2.72461 12.4414 2.72461 12.7832C2.72461 13.1348 2.99805 13.3984 3.33984 13.3984ZM3.33984 15.8398L6.18164 15.8398C6.5332 15.8398 6.80664 15.5762 6.80664 15.2246C6.80664 14.873 6.5332 14.6094 6.18164 14.6094L3.33984 14.6094C2.99805 14.6094 2.72461 14.873 2.72461 15.2246C2.72461 15.5762 2.99805 15.8398 3.33984 15.8398ZM3.33984 18.2812L6.18164 18.2812C6.5332 18.2812 6.80664 18.0078 6.80664 17.666C6.80664 17.3145 6.5332 17.041 6.18164 17.041L3.33984 17.041C2.99805 17.041 2.72461 17.3145 2.72461 17.666C2.72461 18.0078 2.99805 18.2812 3.33984 18.2812ZM8.65234 13.3984L11.4941 13.3984C11.8359 13.3984 12.1094 13.1348 12.1094 12.7832C12.1094 12.4414 11.8359 12.168 11.4941 12.168L8.65234 12.168C8.30078 12.168 8.02734 12.4414 8.02734 12.7832C8.02734 13.1348 8.30078 13.3984 8.65234 13.3984ZM8.65234 15.8398L11.4941 15.8398C11.8359 15.8398 12.1094 15.5762 12.1094 15.2246C12.1094 14.873 11.8359 14.6094 11.4941 14.6094L8.65234 14.6094C8.30078 14.6094 8.02734 14.873 8.02734 15.2246C8.02734 15.5762 8.30078 15.8398 8.65234 15.8398ZM8.65234 18.2812L11.4941 18.2812C11.8359 18.2812 12.1094 18.0078 12.1094 17.666C12.1094 17.3145 11.8359 17.041 11.4941 17.041L8.65234 17.041C8.30078 17.041 8.02734 17.3145 8.02734 17.666C8.02734 18.0078 8.30078 18.2812 8.65234 18.2812ZM2.83203 22.959C3.30078 22.959 3.61328 22.6367 3.61328 22.168L3.61328 20.2539L2.04102 20.2539L2.04102 22.168C2.04102 22.6367 2.36328 22.959 2.83203 22.959ZM12.002 22.959C12.4805 22.959 12.793 22.6367 12.793 22.168L12.793 20.2539L11.2207 20.2539L11.2207 22.168C11.2207 22.6367 11.5332 22.959 12.002 22.959Z" fill="#000000" fill-opacity="0.85"/>
  <path d="M10.4004 5.09766C13.0078 5.09766 14.3652 2.97852 16.6406 2.97852C17.168 2.97852 17.6074 3.08594 18.1738 3.39844C18.5254 3.59375 18.8379 3.45703 18.9941 3.23242C19.1797 2.94922 19.1699 2.51953 18.7402 2.27539C18.0859 1.89453 17.3828 1.70898 16.6406 1.70898C13.9941 1.70898 12.6367 3.83789 10.4004 3.83789C9.87305 3.83789 9.43359 3.7207 8.86719 3.39844C8.53516 3.21289 8.20312 3.33984 8.04688 3.59375C7.87109 3.86719 7.89062 4.29688 8.30078 4.53125C8.94531 4.93164 9.6582 5.09766 10.4004 5.09766ZM10.4102 7.82227C13.0078 7.82227 14.375 5.69336 16.6406 5.69336C17.1777 5.69336 17.6172 5.80078 18.1836 6.12305C18.5254 6.31836 18.8477 6.18164 19.0039 5.94727C19.1797 5.67383 19.1797 5.23438 18.7598 4.99023C18.0957 4.60938 17.3828 4.42383 16.6406 4.42383C14.0039 4.42383 12.6465 6.5625 10.4102 6.5625C9.87305 6.5625 9.43359 6.43555 8.87695 6.12305C8.54492 5.92773 8.20312 6.06445 8.04688 6.31836C7.87109 6.5918 7.89062 7.02148 8.31055 7.25586C8.95508 7.64648 9.66797 7.82227 10.4102 7.82227ZM10.4004 10.5371C13.0078 10.5371 14.3652 8.41797 16.6406 8.41797C17.168 8.41797 17.6074 8.52539 18.1738 8.83789C18.5254 9.0332 18.8379 8.89648 18.9941 8.67188C19.1797 8.38867 19.1699 7.95898 18.7402 7.71484C18.0859 7.33398 17.3828 7.14844 16.6406 7.14844C13.9941 7.14844 12.6367 9.27734 10.4004 9.27734C9.87305 9.27734 9.43359 9.16016 8.86719 8.83789C8.53516 8.65234 8.20312 8.7793 8.04688 9.0332C7.87109 9.30664 7.89062 9.73633 8.30078 9.9707C8.94531 10.3711 9.6582 10.5371 10.4004 10.5371Z" fill="#000000" fill-opacity="0.85"/>
 </g>
</svg>
