<?xml version="1.0" encoding="UTF-8"?>
<!--Generator: Apple Native CoreSVG 175.5-->
<!DOCTYPE svg
PUBLIC "-//W3C//DTD SVG 1.1//EN"
       "http://www.w3.org/Graphics/SVG/1.1/DTD/svg11.dtd">
<svg version="1.1" xmlns="http://www.w3.org/2000/svg" xmlns:xlink="http://www.w3.org/1999/xlink" width="19.9219" height="19.9316">
 <g>
  <rect height="19.9316" opacity="0" width="19.9219" x="0" y="0"/>
  <path d="M9.96094 19.9316C15.4102 19.9316 19.9219 15.4199 19.9219 9.9707C19.9219 4.53125 15.4004 0.00976562 9.95117 0.00976562C4.51172 0.00976562 0 4.53125 0 9.9707C0 15.4199 4.52148 19.9316 9.96094 19.9316Z" fill="#000000" fill-opacity="0.85"/>
  <path d="M12.8809 15.0586L7.00195 15.0586C6.68945 15.0586 6.51367 14.6973 6.73828 14.4434L9.64844 11.1621C9.81445 11.0059 10.0977 11.0059 10.2441 11.1621L13.1445 14.4434C13.3691 14.6973 13.2129 15.0586 12.8809 15.0586ZM14.5117 5.72266C15.2539 5.72266 15.6836 6.15234 15.6836 6.875L15.6836 12.1191C15.6836 12.8516 15.2344 13.2617 14.5117 13.2617L13.1934 13.2617L12.2852 12.2363L14.3945 12.2363C14.5508 12.2363 14.6094 12.1875 14.6094 12.0312L14.6094 6.97266C14.6094 6.79688 14.5508 6.73828 14.3945 6.73828L5.49805 6.73828C5.3418 6.73828 5.29297 6.79688 5.29297 6.97266L5.29297 12.0312C5.29297 12.1875 5.3418 12.2363 5.49805 12.2363L7.60742 12.2363L6.68945 13.2617L5.37109 13.2617C4.64844 13.2617 4.21875 12.8516 4.21875 12.1191L4.21875 6.875C4.21875 6.16211 4.66797 5.72266 5.37109 5.72266Z" fill="#ffffff"/>
 </g>
</svg>
