<?xml version="1.0" encoding="UTF-8"?>
<!--Generator: Apple Native CoreSVG 175.5-->
<!DOCTYPE svg
PUBLIC "-//W3C//DTD SVG 1.1//EN"
       "http://www.w3.org/Graphics/SVG/1.1/DTD/svg11.dtd">
<svg version="1.1" xmlns="http://www.w3.org/2000/svg" xmlns:xlink="http://www.w3.org/1999/xlink" width="12.7344" height="17.2761">
 <g>
  <rect height="17.2761" opacity="0" width="12.7344" x="0" y="0"/>
  <path d="M8.82812 0.000340539C7.14844-0.0191907 5.2832 0.801122 4.04297 2.5394C3.85742 2.77378 3.69141 3.03745 3.51562 3.42807C5.63477 3.80893 7.35352 5.68393 7.35352 7.77378C7.35352 8.36948 7.23633 8.91636 7.03125 9.40464C8.32031 9.21909 9.12109 8.92612 9.85352 8.51597C11.4648 7.58823 12.7344 6.08432 12.7344 3.92612C12.7344 1.43589 10.9766 0.0198718 8.82812 0.000340539ZM9.19922 4.18979C9.00391 4.35581 8.70117 4.33628 8.54492 4.1312C8.36914 3.92612 8.39844 3.63315 8.60352 3.46714L10.0391 2.2562C10.2344 2.09018 10.5273 2.11948 10.6934 2.32456C10.8594 2.51987 10.8496 2.81284 10.6445 2.97886ZM7.42188 17.2757L8.18359 17.2757C8.78906 17.2757 9.17969 16.9632 9.17969 16.3578L9.17969 9.92222C8.34961 10.2249 7.42188 10.4105 6.40625 10.4789L6.40625 16.3578C6.40625 16.9632 6.80664 17.2757 7.42188 17.2757Z" fill="#000000" fill-opacity="0.85"/>
  <path d="M3.55469 10.6058C5.06836 10.6058 6.41602 9.66831 6.41602 7.77378C6.41602 6.08432 4.82422 4.29722 2.75391 4.29722C1.00586 4.29722 0 5.68393 0 7.09995C0 9.21909 1.80664 10.6058 3.55469 10.6058ZM3.06641 9.12143C2.79297 9.36557 2.32422 9.12143 1.74805 8.42807C1.18164 7.73472 1.03516 7.2562 1.30859 7.02182C1.5918 6.76792 2.05078 7.00229 2.63672 7.70542C3.19336 8.41831 3.33984 8.88706 3.06641 9.12143Z" fill="#000000" fill-opacity="0.425"/>
 </g>
</svg>
