<?xml version="1.0" encoding="UTF-8"?>
<!--Generator: Apple Native CoreSVG 175.5-->
<!DOCTYPE svg
PUBLIC "-//W3C//DTD SVG 1.1//EN"
       "http://www.w3.org/Graphics/SVG/1.1/DTD/svg11.dtd">
<svg version="1.1" xmlns="http://www.w3.org/2000/svg" xmlns:xlink="http://www.w3.org/1999/xlink" width="22.0117" height="19.8926">
 <g>
  <rect height="19.8926" opacity="0" width="22.0117" x="0" y="0"/>
  <path d="M22.0117 9.94141C22.002 8.79883 20.4492 7.96875 18.584 7.96875L14.6484 7.96875C14.1016 7.96875 13.8965 7.88086 13.5742 7.50977L7.01172 0.351562C6.80664 0.117188 6.55273 0 6.25977 0L5.12695 0C4.87305 0 4.72656 0.224609 4.85352 0.498047L8.23242 7.96875L3.27148 8.53516L1.50391 5.29297C1.37695 5.04883 1.16211 4.94141 0.839844 4.94141L0.419922 4.94141C0.166016 4.94141 0 5.10742 0 5.36133L0 14.5215C0 14.7754 0.166016 14.9316 0.419922 14.9316L0.839844 14.9316C1.16211 14.9316 1.37695 14.8242 1.50391 14.5898L3.27148 11.3477L8.23242 11.9141L4.85352 19.3848C4.72656 19.6484 4.87305 19.8828 5.12695 19.8828L6.25977 19.8828C6.55273 19.8828 6.80664 19.7559 7.01172 19.5312L13.5742 12.3633C13.8965 12.002 14.1016 11.9141 14.6484 11.9141L18.584 11.9141C20.4492 11.9141 22.002 11.0742 22.0117 9.94141Z" fill="#000000" fill-opacity="0.85"/>
 </g>
</svg>
