<?xml version="1.0" encoding="UTF-8"?>
<!--Generator: Apple Native CoreSVG 175.5-->
<!DOCTYPE svg
PUBLIC "-//W3C//DTD SVG 1.1//EN"
       "http://www.w3.org/Graphics/SVG/1.1/DTD/svg11.dtd">
<svg version="1.1" xmlns="http://www.w3.org/2000/svg" xmlns:xlink="http://www.w3.org/1999/xlink" width="17.7734" height="17.7832">
 <g>
  <rect height="17.7832" opacity="0" width="17.7734" x="0" y="0"/>
  <path d="M0 8.57422L4.6875 8.57422C3.36914 7.98828 2.46094 6.89453 2.46094 5.58594C2.46094 4.0625 3.57422 2.92969 5.08789 2.92969C6.38672 2.92969 7.55859 3.75 8.24219 5.08789L8.24219 0L9.52148 0L9.52148 5.08789C10.2051 3.75 11.377 2.92969 12.6855 2.92969C14.1895 2.92969 15.3125 4.0625 15.3125 5.58594C15.3125 6.89453 14.3945 7.98828 13.0762 8.57422L17.7734 8.57422L17.7734 9.73633L10.5371 9.73633C11.1426 10.9863 13.1445 12.8711 14.5898 13.0176C15.127 13.0664 15.4297 13.4082 15.4297 13.9258C15.4297 14.375 15.0586 14.8047 14.4629 14.7266C12.8613 14.4922 10.2832 12.6074 9.59961 10.459L9.52148 10.459L9.52148 17.7637L8.24219 17.7637L8.24219 10.459L8.17383 10.459C7.49023 12.6074 4.91211 14.4922 3.30078 14.7266C2.70508 14.8047 2.33398 14.375 2.33398 13.9258C2.33398 13.4082 2.63672 13.0762 3.18359 13.0176C4.62891 12.8516 6.62109 10.9863 7.22656 9.73633L0 9.73633ZM7.74414 8.41797L8.05664 8.41797L8.05664 8.11523C8.05664 6.14258 6.70898 4.42383 5.16602 4.42383C4.41406 4.42383 3.93555 4.92188 3.93555 5.69336C3.93555 7.01172 5.68359 8.41797 7.74414 8.41797ZM10.0293 8.41797C12.0801 8.41797 13.8281 7.01172 13.8281 5.69336C13.8281 4.92188 13.3594 4.42383 12.6074 4.42383C11.0547 4.42383 9.7168 6.14258 9.7168 8.11523L9.7168 8.41797ZM16.6309 1.15234C15.6348 0.15625 14.2285 0 12.5586 0L5.18555 0C3.54492 0 2.13867 0.15625 1.14258 1.15234C0.146484 2.14844 0 3.54492 0 5.17578L0 12.5586C0 14.2285 0.146484 15.6152 1.14258 16.6113C2.13867 17.6074 3.54492 17.7637 5.20508 17.7637L12.5586 17.7637C14.2285 17.7637 15.6348 17.6074 16.6309 16.6113C17.627 15.6152 17.7734 14.2285 17.7734 12.5586L17.7734 5.20508C17.7734 3.53516 17.627 2.13867 16.6309 1.15234Z" fill="#000000" fill-opacity="0.85"/>
 </g>
</svg>
