<?xml version="1.0" encoding="UTF-8"?>
<!--Generator: Apple Native CoreSVG 175.5-->
<!DOCTYPE svg
PUBLIC "-//W3C//DTD SVG 1.1//EN"
       "http://www.w3.org/Graphics/SVG/1.1/DTD/svg11.dtd">
<svg version="1.1" xmlns="http://www.w3.org/2000/svg" xmlns:xlink="http://www.w3.org/1999/xlink" width="18.0078" height="17.9395">
 <g>
  <rect height="17.9395" opacity="0" width="18.0078" x="0" y="0"/>
  <path d="M0.449219 8.71094L0.449219 9.78516L7.35352 9.78516C6.77734 10.9766 4.90234 12.7344 3.54492 12.8809C3.04688 12.9297 2.76367 13.2422 2.76367 13.7109C2.76367 14.1406 3.10547 14.541 3.65234 14.4629C5.16602 14.2285 7.56836 12.4805 8.22266 10.4688L8.29102 10.4688L8.29102 17.5098L9.47266 17.5098L9.47266 10.4688L9.55078 10.4688C10.1953 12.4805 12.6074 14.2285 14.1113 14.4629C14.668 14.541 15.0098 14.1406 15.0098 13.7109C15.0098 13.2422 14.7266 12.9297 14.2188 12.8809C12.8711 12.7344 10.9863 10.9766 10.4199 9.78516L17.3145 9.78516L17.3145 8.71094L12.793 8.71094C14.0332 8.1543 14.8926 7.13867 14.8926 5.9082C14.8926 4.48242 13.8477 3.4375 12.4414 3.4375C11.2207 3.4375 10.1172 4.20898 9.47266 5.45898L9.47266 0.791016L8.29102 0.791016L8.29102 5.45898C7.64648 4.20898 6.54297 3.4375 5.32227 3.4375C3.91602 3.4375 2.87109 4.48242 2.87109 5.9082C2.87109 7.13867 3.74023 8.1543 4.9707 8.71094ZM7.82227 8.56445C5.89844 8.56445 4.24805 7.24609 4.24805 6.01562C4.24805 5.27344 4.69727 4.82422 5.40039 4.82422C6.8457 4.82422 8.11523 6.43555 8.11523 8.29102L8.11523 8.56445ZM9.94141 8.56445L9.64844 8.56445L9.64844 8.29102C9.64844 6.43555 10.918 4.82422 12.3633 4.82422C13.0762 4.82422 13.5156 5.27344 13.5156 6.01562C13.5156 7.24609 11.875 8.56445 9.94141 8.56445ZM16.8652 1.17188C15.8691 0.175781 14.4629 0.0195312 12.793 0.0195312L5.18555 0.0195312C3.54492 0.0195312 2.13867 0.175781 1.14258 1.17188C0.146484 2.16797 0 3.56445 0 5.19531L0 12.7344C0 14.4043 0.146484 15.791 1.14258 16.7871C2.13867 17.7832 3.54492 17.9395 5.20508 17.9395L12.793 17.9395C14.4629 17.9395 15.8691 17.7832 16.8652 16.7871C17.8613 15.791 18.0078 14.4043 18.0078 12.7344L18.0078 5.22461C18.0078 3.55469 17.8613 2.1582 16.8652 1.17188ZM16.4355 4.95117L16.4355 12.998C16.4355 14.0137 16.3086 15.0488 15.7129 15.6445C15.127 16.2305 14.0723 16.3672 13.0664 16.3672L4.94141 16.3672C3.93555 16.3672 2.88086 16.2305 2.28516 15.6445C1.69922 15.0488 1.57227 14.0137 1.57227 12.998L1.57227 4.98047C1.57227 3.95508 1.69922 2.90039 2.28516 2.31445C2.88086 1.71875 3.94531 1.5918 4.9707 1.5918L13.0664 1.5918C14.0723 1.5918 15.127 1.72852 15.7129 2.31445C16.3086 2.91016 16.4355 3.94531 16.4355 4.95117Z" fill="#000000" fill-opacity="0.85"/>
 </g>
</svg>
