<?xml version="1.0" encoding="UTF-8"?>
<!--Generator: Apple Native CoreSVG 175.5-->
<!DOCTYPE svg
PUBLIC "-//W3C//DTD SVG 1.1//EN"
       "http://www.w3.org/Graphics/SVG/1.1/DTD/svg11.dtd">
<svg version="1.1" xmlns="http://www.w3.org/2000/svg" xmlns:xlink="http://www.w3.org/1999/xlink" width="17.5" height="17.4902">
 <g>
  <rect height="17.4902" opacity="0" width="17.5" x="0" y="0"/>
  <path d="M1.40625 1.39648C0.683594 2.11914 0.146484 3.23242 0.117188 4.14062C0.107422 4.47266 0.302734 4.70703 0.625 4.70703C0.917969 4.70703 1.11328 4.54102 1.17188 4.24805C1.31836 3.41797 1.5918 2.73438 2.1582 2.14844C2.8125 1.52344 3.42773 1.32812 4.30664 1.14258C4.58008 1.07422 4.74609 0.888672 4.74609 0.634766C4.74609 0.322266 4.52148 0.107422 4.19922 0.107422C3.34961 0.117188 2.1875 0.615234 1.40625 1.39648ZM11.2695 0L6.23047 0C5.9375 0 5.69336 0.244141 5.69336 0.537109C5.69336 0.830078 5.9375 1.08398 6.23047 1.08398L11.2695 1.08398C11.5625 1.08398 11.8066 0.830078 11.8066 0.537109C11.8066 0.244141 11.5625 0 11.2695 0ZM16.084 1.39648C15.3125 0.615234 14.1504 0.117188 13.3008 0.107422C12.9688 0.107422 12.7539 0.322266 12.7539 0.634766C12.7539 0.888672 12.9102 1.07422 13.1836 1.14258C14.0332 1.31836 14.6777 1.51367 15.3418 2.14844C15.9082 2.73438 16.1719 3.41797 16.3281 4.24805C16.3867 4.54102 16.5723 4.70703 16.875 4.70703C17.1875 4.70703 17.3926 4.47266 17.3828 4.14062C17.3535 3.23242 16.8164 2.11914 16.084 1.39648ZM17.5 11.2793L17.5 6.23047C17.5 5.9375 17.2461 5.69336 16.9531 5.69336C16.6602 5.69336 16.416 5.9375 16.416 6.23047L16.416 11.2793C16.416 11.5723 16.6602 11.8164 16.9531 11.8164C17.2461 11.8164 17.5 11.5723 17.5 11.2793ZM16.084 16.084C16.8164 15.3613 17.3535 14.248 17.3828 13.3398C17.3926 13.0078 17.1875 12.7734 16.875 12.7734C16.5723 12.7734 16.3867 12.9395 16.3281 13.2324C16.1719 14.0625 15.9082 14.7363 15.3418 15.332C14.6875 15.957 14.0625 16.1523 13.1836 16.3379C12.9102 16.3965 12.7539 16.5918 12.7539 16.8457C12.7539 17.1582 12.9688 17.373 13.3008 17.373C14.1504 17.3633 15.3125 16.8652 16.084 16.084ZM6.23047 17.4805L11.2695 17.4805C11.5625 17.4805 11.8066 17.2363 11.8066 16.9434C11.8066 16.6504 11.5625 16.3965 11.2695 16.3965L6.23047 16.3965C5.9375 16.3965 5.69336 16.6504 5.69336 16.9434C5.69336 17.2363 5.9375 17.4805 6.23047 17.4805ZM1.40625 16.084C2.1875 16.8652 3.34961 17.3633 4.19922 17.373C4.52148 17.373 4.74609 17.1582 4.74609 16.8457C4.74609 16.5918 4.58008 16.3965 4.30664 16.3379C3.45703 16.1621 2.82227 15.9668 2.1582 15.332C1.5918 14.7363 1.31836 14.0625 1.17188 13.2324C1.11328 12.9395 0.917969 12.7734 0.625 12.7734C0.302734 12.7734 0.107422 13.0078 0.117188 13.3398C0.146484 14.248 0.683594 15.3613 1.40625 16.084ZM0 6.23047L0 11.2793C0 11.5723 0.244141 11.8164 0.546875 11.8164C0.839844 11.8164 1.08398 11.5723 1.08398 11.2793L1.08398 6.23047C1.08398 5.9375 0.839844 5.69336 0.546875 5.69336C0.244141 5.69336 0 5.9375 0 6.23047Z" fill="#000000" fill-opacity="0.85"/>
  <path d="M14.375 3.125C13.6426 2.39258 12.627 2.28516 11.416 2.28516L6.06445 2.28516C4.87305 2.28516 3.85742 2.40234 3.125 3.125C2.40234 3.84766 2.29492 4.85352 2.29492 6.04492L2.29492 11.4062C2.29492 12.6172 2.40234 13.623 3.125 14.3457C3.85742 15.0684 4.87305 15.1855 6.08398 15.1855L11.416 15.1855C12.627 15.1855 13.6523 15.0684 14.375 14.3457C15.0977 13.623 15.2051 12.6172 15.2051 11.4062L15.2051 6.06445C15.2051 4.85352 15.0977 3.83789 14.375 3.125Z" fill="#000000" fill-opacity="0.85"/>
 </g>
</svg>
