<?xml version="1.0" encoding="UTF-8"?>
<!--Generator: Apple Native CoreSVG 175.5-->
<!DOCTYPE svg
PUBLIC "-//W3C//DTD SVG 1.1//EN"
       "http://www.w3.org/Graphics/SVG/1.1/DTD/svg11.dtd">
<svg version="1.1" xmlns="http://www.w3.org/2000/svg" xmlns:xlink="http://www.w3.org/1999/xlink" width="16.6687" height="20.9082">
 <g>
  <rect height="20.9082" opacity="0" width="16.6687" x="0" y="0"/>
  <path d="M6.05225 20.9082L10.564 20.9082C11.2378 20.9082 11.6577 20.6152 11.8335 19.9805L12.1558 18.9355C12.2925 18.457 12.4976 18.1543 12.8296 17.9004C12.8687 17.8711 12.9077 17.8418 12.9468 17.8027L11.5503 16.416C11.228 16.4844 10.8667 16.5234 10.4761 16.5234L5.41748 16.5234C3.9917 16.5234 3.14209 15.6445 3.14209 14.1992L3.14209 8.33008C3.14209 8.22266 3.14209 8.11523 3.15186 8.01758L1.72607 6.60156C1.72607 6.70898 1.71631 6.82617 1.71631 6.94336L1.71631 14.4043C1.71631 15.918 2.31201 17.0312 3.41553 17.6367C3.95264 17.9199 4.2749 18.2812 4.46045 18.9355L4.77295 19.9805C4.9585 20.6055 5.39795 20.9082 6.05225 20.9082ZM6.05225 0C5.39795 0 4.9585 0.302734 4.77295 0.927734L4.46045 1.98242C4.3042 2.5 4.021 2.8418 3.68896 3.10547L5.07568 4.49219C5.33936 4.42383 5.63232 4.38477 5.94482 4.38477L11.1987 4.38477C12.6245 4.38477 13.4741 5.26367 13.4741 6.71875L13.4741 12.4023C13.4741 12.5586 13.4741 12.7148 13.4741 12.8711L14.8804 14.2871C14.8901 14.0625 14.8999 13.8379 14.8999 13.6035L14.8999 6.50391C14.8999 4.99023 14.3042 3.88672 13.2007 3.27148C12.6636 2.98828 12.3413 2.62695 12.1558 1.98242L11.8335 0.927734C11.6577 0.3125 11.228 0 10.564 0ZM14.6851 9.76562L15.0366 9.76562C15.5444 9.76562 15.8765 9.42383 15.8765 8.86719L15.8765 7.54883C15.8765 6.99219 15.5444 6.65039 15.0366 6.65039L14.6851 6.65039Z" fill="#000000" fill-opacity="0.85"/>
  <path d="M15.3882 18.5645C15.6812 18.8672 16.1597 18.8672 16.4526 18.5645C16.7358 18.2715 16.7456 17.8027 16.4526 17.5L1.28662 2.34375C0.993652 2.05078 0.515137 2.04102 0.212402 2.34375C-0.0708008 2.62695-0.0708008 3.125 0.212402 3.4082Z" fill="#000000" fill-opacity="0.85"/>
 </g>
</svg>
