<?xml version="1.0" encoding="UTF-8"?>
<!--Generator: Apple Native CoreSVG 175.5-->
<!DOCTYPE svg
PUBLIC "-//W3C//DTD SVG 1.1//EN"
       "http://www.w3.org/Graphics/SVG/1.1/DTD/svg11.dtd">
<svg version="1.1" xmlns="http://www.w3.org/2000/svg" xmlns:xlink="http://www.w3.org/1999/xlink" width="9.51172" height="21.6309">
 <g>
  <rect height="21.6309" opacity="0" width="9.51172" x="0" y="0"/>
  <path d="M2.54883 21.5723L6.97266 21.5723C8.52539 21.5723 9.51172 20.6152 9.51172 19.1406L9.51172 2.43164C9.51172 0.957031 8.52539 0 6.97266 0L2.54883 0C0.986328 0 0 0.957031 0 2.43164L0 19.1406C0 20.6152 0.986328 21.5723 2.54883 21.5723ZM2.71484 20.1465C1.93359 20.1465 1.44531 19.6777 1.44531 18.9355L1.44531 2.64648C1.44531 1.89453 1.93359 1.42578 2.71484 1.42578L6.79688 1.42578C7.58789 1.42578 8.06641 1.89453 8.06641 2.64648L8.06641 18.9355C8.06641 19.6777 7.58789 20.1465 6.79688 20.1465ZM4.75586 8.22266C6.29883 8.22266 7.54883 6.97266 7.54883 5.43945C7.54883 3.88672 6.29883 2.64648 4.75586 2.64648C3.21289 2.64648 1.97266 3.88672 1.97266 5.43945C1.97266 6.97266 3.21289 8.22266 4.75586 8.22266ZM3.35938 11.0547C3.95508 11.0547 4.43359 10.5664 4.43359 9.98047C4.43359 9.38477 3.95508 8.90625 3.35938 8.90625C2.76367 8.90625 2.28516 9.38477 2.28516 9.98047C2.28516 10.5664 2.76367 11.0547 3.35938 11.0547ZM6.16211 11.0547C6.75781 11.0547 7.22656 10.5664 7.22656 9.98047C7.22656 9.38477 6.75781 8.90625 6.16211 8.90625C5.56641 8.90625 5.08789 9.38477 5.08789 9.98047C5.08789 10.5664 5.56641 11.0547 6.16211 11.0547ZM3.35938 13.7695C3.95508 13.7695 4.43359 13.2812 4.43359 12.6855C4.43359 12.0996 3.95508 11.6113 3.35938 11.6113C2.76367 11.6113 2.28516 12.0996 2.28516 12.6855C2.28516 13.2812 2.76367 13.7695 3.35938 13.7695ZM3.35938 16.4746C3.95508 16.4746 4.43359 15.9863 4.43359 15.4004C4.43359 14.8047 3.95508 14.3164 3.35938 14.3164C2.76367 14.3164 2.28516 14.8047 2.28516 15.4004C2.28516 15.9863 2.76367 16.4746 3.35938 16.4746ZM6.15234 16.4746C6.71875 16.4746 7.17773 16.0254 7.17773 15.459L7.17773 12.627C7.17773 12.0605 6.71875 11.6113 6.15234 11.6113C5.5957 11.6113 5.14648 12.0605 5.14648 12.627L5.14648 15.459C5.14648 16.0059 5.5957 16.4746 6.15234 16.4746Z" fill="#000000" fill-opacity="0.85"/>
 </g>
</svg>
