<?xml version="1.0" encoding="UTF-8"?>
<!--Generator: Apple Native CoreSVG 175.5-->
<!DOCTYPE svg
PUBLIC "-//W3C//DTD SVG 1.1//EN"
       "http://www.w3.org/Graphics/SVG/1.1/DTD/svg11.dtd">
<svg version="1.1" xmlns="http://www.w3.org/2000/svg" xmlns:xlink="http://www.w3.org/1999/xlink" width="25.4492" height="24.248">
 <g>
  <rect height="24.248" opacity="0" width="25.4492" x="0" y="0"/>
  <path d="M10.6055 13.9941C11.6504 13.9941 12.4902 13.1641 12.4902 12.1191C12.4902 11.084 11.6406 10.2441 10.6055 10.2441C9.58984 10.2441 8.73047 11.0938 8.73047 12.1191C8.73047 13.1543 9.58008 13.9941 10.6055 13.9941Z" fill="#000000" fill-opacity="0.85"/>
  <path d="M10.6055 8.34961C11.5234 8.34961 12.2559 7.61719 12.2559 6.69922C12.2559 5.80078 11.5137 5.05859 10.6055 5.05859C9.7168 5.05859 8.96484 5.81055 8.96484 6.69922C8.96484 7.60742 9.70703 8.34961 10.6055 8.34961ZM5.94727 11.0449C6.86523 11.0449 7.58789 10.3223 7.58789 9.4043C7.58789 8.49609 6.8457 7.76367 5.94727 7.76367C5.05859 7.76367 4.30664 8.51562 4.30664 9.4043C4.30664 10.3125 5.03906 11.0449 5.94727 11.0449ZM15.2734 11.0449C16.1914 11.0449 16.9141 10.3223 16.9141 9.4043C16.9141 8.49609 16.1719 7.76367 15.2734 7.76367C14.3848 7.76367 13.6328 8.51562 13.6328 9.4043C13.6328 10.3125 14.3652 11.0449 15.2734 11.0449ZM5.94727 16.4746C6.85547 16.4746 7.58789 15.752 7.58789 14.834C7.58789 13.9258 6.8457 13.1836 5.94727 13.1836C5.05859 13.1836 4.30664 13.9355 4.30664 14.834C4.30664 15.7324 5.04883 16.4746 5.94727 16.4746ZM15.2734 16.4746C15.5371 16.4746 15.7812 16.4062 15.9961 16.2988L16.8945 14.6777L16.8945 14.6289C16.7969 13.8184 16.1133 13.1836 15.2734 13.1836C14.3848 13.1836 13.6328 13.9355 13.6328 14.834C13.6328 15.7324 14.375 16.4746 15.2734 16.4746ZM10.6055 19.1797C11.5234 19.1797 12.2559 18.4473 12.2559 17.5293C12.2559 16.6309 11.5137 15.8887 10.6055 15.8887C9.7168 15.8887 8.96484 16.6406 8.96484 17.5293C8.96484 18.4375 9.70703 19.1797 10.6055 19.1797Z" fill="#000000" fill-opacity="0.85"/>
  <path d="M10.6055 2.56836C11.3379 2.56836 11.8945 2.01172 11.8945 1.28906C11.8945 0.576172 11.3184 0 10.6055 0C9.91211 0 9.32617 0.585938 9.32617 1.28906C9.32617 2.00195 9.90234 2.56836 10.6055 2.56836ZM5.94727 5.26367C6.66992 5.26367 7.22656 4.69727 7.22656 3.97461C7.22656 3.26172 6.66016 2.69531 5.94727 2.69531C5.24414 2.69531 4.66797 3.27148 4.66797 3.97461C4.66797 4.6875 5.23438 5.26367 5.94727 5.26367ZM15.2734 5.26367C15.9961 5.26367 16.5527 4.69727 16.5527 3.97461C16.5527 3.26172 15.9863 2.69531 15.2734 2.69531C14.5703 2.69531 13.9941 3.27148 13.9941 3.97461C13.9941 4.6875 14.5605 5.26367 15.2734 5.26367ZM1.28906 7.98828C2.01172 7.98828 2.56836 7.42188 2.56836 6.69922C2.56836 5.98633 1.99219 5.41992 1.28906 5.41992C0.585938 5.41992 0 5.99609 0 6.69922C0 7.41211 0.576172 7.98828 1.28906 7.98828ZM19.9023 7.98828C20.625 7.98828 21.1816 7.42188 21.1816 6.69922C21.1816 5.98633 20.6152 5.41992 19.9023 5.41992C19.1992 5.41992 18.6133 6.00586 18.6133 6.69922C18.6133 7.41211 19.1895 7.98828 19.9023 7.98828ZM1.28906 13.3984C2.01172 13.3984 2.56836 12.8418 2.56836 12.1191C2.56836 11.4062 1.99219 10.8398 1.28906 10.8398C0.585938 10.8398 0 11.416 0 12.1191C0 12.832 0.576172 13.3984 1.28906 13.3984ZM21.0742 12.627C21.1426 12.4707 21.1816 12.2949 21.1816 12.1191C21.1816 11.4062 20.6152 10.8398 19.9023 10.8398C19.1992 10.8398 18.6133 11.416 18.6133 12.1191C18.6133 12.2754 18.6523 12.4414 18.7207 12.6172C19.082 12.4512 19.4824 12.3438 19.9023 12.3438C20.3125 12.3438 20.7227 12.4512 21.0742 12.627ZM1.28906 18.8184C2.01172 18.8184 2.56836 18.2617 2.56836 17.5293C2.56836 16.8262 1.99219 16.25 1.28906 16.25C0.585938 16.25 0 16.8359 0 17.5293C0 18.252 0.566406 18.8184 1.28906 18.8184ZM5.94727 21.543C6.66992 21.543 7.22656 20.9863 7.22656 20.2637C7.22656 19.5508 6.66016 18.9746 5.94727 18.9746C5.24414 18.9746 4.66797 19.5605 4.66797 20.2637C4.66797 20.9766 5.23438 21.543 5.94727 21.543ZM10.6055 24.2285C11.3379 24.2285 11.8945 23.6719 11.8945 22.9492C11.8945 22.2363 11.3184 21.6699 10.6055 21.6699C9.91211 21.6699 9.32617 22.2461 9.32617 22.9492C9.32617 23.6621 9.90234 24.2285 10.6055 24.2285Z" fill="#000000" fill-opacity="0.85"/>
  <path d="M15.6641 23.8672L24.1211 23.8672C24.9316 23.8672 25.4492 23.3008 25.4492 22.5586C25.4492 22.334 25.3906 22.1191 25.2637 21.9043L21.0254 14.3457C20.7715 13.8965 20.332 13.6816 19.9023 13.6816C19.4531 13.6816 19.0039 13.8965 18.7598 14.3457L14.5312 21.9141C14.4043 22.1191 14.3457 22.334 14.3457 22.5586C14.3457 23.3008 14.8535 23.8672 15.6641 23.8672Z" fill="#000000" fill-opacity="0.85"/>
  <path d="M19.8926 22.3828C19.4434 22.3828 19.0723 22.0117 19.0723 21.5527C19.0723 21.1035 19.4531 20.7324 19.8926 20.7324C20.3516 20.7324 20.7227 21.1133 20.7227 21.5527C20.7227 22.0117 20.3516 22.3828 19.8926 22.3828ZM19.9023 20.0488C19.5605 20.0488 19.3164 19.8145 19.3066 19.4824L19.2285 16.6992C19.2188 16.2988 19.4922 16.0254 19.9023 16.0254C20.3027 16.0254 20.5762 16.2988 20.5664 16.6992L20.4883 19.4824C20.4785 19.8145 20.2441 20.0488 19.9023 20.0488Z" fill="#ffffff"/>
 </g>
</svg>
