<?xml version="1.0" encoding="UTF-8"?>
<!--Generator: Apple Native CoreSVG 175.5-->
<!DOCTYPE svg
PUBLIC "-//W3C//DTD SVG 1.1//EN"
       "http://www.w3.org/Graphics/SVG/1.1/DTD/svg11.dtd">
<svg version="1.1" xmlns="http://www.w3.org/2000/svg" xmlns:xlink="http://www.w3.org/1999/xlink" width="19.9219" height="19.9316">
 <g>
  <rect height="19.9316" opacity="0" width="19.9219" x="0" y="0"/>
  <path d="M9.96094 19.9316C15.4102 19.9316 19.9219 15.4199 19.9219 9.9707C19.9219 4.53125 15.4004 0.00976562 9.95117 0.00976562C4.51172 0.00976562 0 4.53125 0 9.9707C0 15.4199 4.52148 19.9316 9.96094 19.9316Z" fill="#000000" fill-opacity="0.85"/>
  <path d="M9.95117 15.9863C9.54102 15.9863 9.26758 15.7031 9.26758 15.3125L9.26758 10.7031L9.38477 8.84766L7.54883 10.9082L6.98242 11.5332C6.85547 11.6699 6.69922 11.7285 6.48438 11.7285C6.10352 11.7285 5.83984 11.4551 5.83984 11.0645C5.83984 10.9082 5.91797 10.6934 6.04492 10.5664L9.44336 7.08984C9.58984 6.93359 9.76562 6.85547 9.95117 6.85547C10.1367 6.85547 10.3125 6.95312 10.459 7.08984L13.8672 10.5566C14.0332 10.7129 14.082 10.8789 14.082 11.0645C14.082 11.4355 13.8184 11.7285 13.4473 11.7285C13.252 11.7285 13.0762 11.6699 12.9395 11.5332L12.3242 10.8984L10.5176 8.85742L10.625 10.7031L10.625 15.3125C10.625 15.7031 10.332 15.9863 9.95117 15.9863ZM6.18164 6.09375C5.79102 6.09375 5.50781 5.80078 5.50781 5.41992C5.50781 5.01953 5.79102 4.73633 6.18164 4.73633L13.75 4.73633C14.1406 4.73633 14.4141 5.01953 14.4141 5.41992C14.4141 5.80078 14.1406 6.09375 13.75 6.09375Z" fill="#ffffff"/>
 </g>
</svg>
