<?xml version="1.0" encoding="UTF-8"?>
<!--Generator: Apple Native CoreSVG 175.5-->
<!DOCTYPE svg
PUBLIC "-//W3C//DTD SVG 1.1//EN"
       "http://www.w3.org/Graphics/SVG/1.1/DTD/svg11.dtd">
<svg version="1.1" xmlns="http://www.w3.org/2000/svg" xmlns:xlink="http://www.w3.org/1999/xlink" width="17.7734" height="17.7832">
 <g>
  <rect height="17.7832" opacity="0" width="17.7734" x="0" y="0"/>
  <path d="M16.6309 1.15234C15.6348 0.15625 14.2285 0 12.5586 0L5.18555 0C3.54492 0 2.13867 0.15625 1.14258 1.15234C0.146484 2.14844 0 3.54492 0 5.17578L0 12.5586C0 14.2285 0.146484 15.6152 1.14258 16.6113C2.13867 17.6074 3.54492 17.7637 5.20508 17.7637L12.5586 17.7637C14.2285 17.7637 15.6348 17.6074 16.6309 16.6113C17.627 15.6152 17.7734 14.2285 17.7734 12.5586L17.7734 5.20508C17.7734 3.53516 17.627 2.13867 16.6309 1.15234Z" fill="#000000" fill-opacity="0.85"/>
  <path d="M12.0508 11.3867C11.5918 11.3867 11.2988 11.0742 11.2988 10.5957L11.2988 8.86719L11.4453 7.29492L9.99023 8.84766L6.30859 12.5391C6.16211 12.6855 5.9668 12.7734 5.72266 12.7734C5.2832 12.7734 4.99023 12.4805 4.99023 12.0215C4.99023 11.8262 5.08789 11.6211 5.23438 11.4746L8.92578 7.7832L10.498 6.31836L9.00391 6.47461L7.1875 6.47461C6.69922 6.47461 6.38672 6.18164 6.38672 5.74219C6.38672 5.29297 6.68945 5 7.16797 5L11.9434 5C12.4609 5 12.7832 5.23438 12.7832 5.83008L12.7832 10.5762C12.7832 11.0449 12.4902 11.3867 12.0508 11.3867Z" fill="#ffffff"/>
 </g>
</svg>
