<?xml version="1.0" encoding="UTF-8"?>
<!--Generator: Apple Native CoreSVG 175.5-->
<!DOCTYPE svg
PUBLIC "-//W3C//DTD SVG 1.1//EN"
       "http://www.w3.org/Graphics/SVG/1.1/DTD/svg11.dtd">
<svg version="1.1" xmlns="http://www.w3.org/2000/svg" xmlns:xlink="http://www.w3.org/1999/xlink" width="21.0547" height="17.9199">
 <g>
  <rect height="17.9199" opacity="0" width="21.0547" x="0" y="0"/>
  <path d="M21.0547 8.95508C21.0547 8.62305 20.9375 8.26172 20.5566 7.90039L12.8516 0.693359C12.334 0.205078 12.0117 0 11.5332 0C10.8496 0 10.3613 0.537109 10.3613 1.19141L10.3613 5.10742L2.24609 5.10742C0.830078 5.10742 0 5.9082 0 7.30469L0 10.6152C0 12.0117 0.830078 12.8125 2.24609 12.8125L10.3613 12.8125L10.3613 16.7676C10.3613 17.4219 10.8496 17.9102 11.5137 17.9102C11.9922 17.9102 12.3828 17.7148 12.8516 17.2754L20.5566 10C20.9277 9.64844 21.0547 9.27734 21.0547 8.95508Z" fill="#000000" fill-opacity="0.85"/>
 </g>
</svg>
