<?xml version="1.0" encoding="UTF-8"?>
<!--Generator: Apple Native CoreSVG 175.5-->
<!DOCTYPE svg
PUBLIC "-//W3C//DTD SVG 1.1//EN"
       "http://www.w3.org/Graphics/SVG/1.1/DTD/svg11.dtd">
<svg version="1.1" xmlns="http://www.w3.org/2000/svg" xmlns:xlink="http://www.w3.org/1999/xlink" width="25.918" height="17.9199">
 <g>
  <rect height="17.9199" opacity="0" width="25.918" x="0" y="0"/>
  <path d="M14.4043 17.9102C15.0684 17.9102 15.5469 17.4219 15.5469 16.7676L15.5469 13.0371L15.8301 13.0371C19.6191 13.0371 22.002 13.9941 23.7109 17.1875C24.0527 17.8125 24.502 17.9102 24.9121 17.9102C25.4297 17.9102 25.918 17.4414 25.918 16.6016C25.918 9.38477 22.8516 4.88281 15.8301 4.88281L15.5469 4.88281L15.5469 1.19141C15.5469 0.537109 15.0684 0 14.3848 0C13.9062 0 13.584 0.205078 13.0664 0.693359L5.36133 7.90039C4.98047 8.26172 4.86328 8.62305 4.86328 8.95508C4.86328 9.27734 4.99023 9.64844 5.36133 10L13.0664 17.2754C13.5352 17.7148 13.9258 17.9102 14.4043 17.9102ZM13.8477 15.8105C13.7891 15.8105 13.7305 15.7812 13.6719 15.7227L6.71875 9.14062C6.64062 9.0625 6.61133 9.01367 6.61133 8.95508C6.61133 8.89648 6.64062 8.83789 6.71875 8.76953L13.6719 2.09961C13.7207 2.06055 13.7793 2.02148 13.8379 2.02148C13.9258 2.02148 13.9746 2.08008 13.9746 2.1582L13.9746 6.03516C13.9746 6.25977 14.082 6.35742 14.3066 6.35742L15.6152 6.35742C22.3145 6.35742 24.3359 11.0059 24.5312 15.6152C24.5312 15.6934 24.502 15.7227 24.4531 15.7227C24.4141 15.7227 24.3945 15.6934 24.3652 15.625C23.2129 13.1738 20.2539 11.5625 15.6152 11.5625L14.3066 11.5625C14.082 11.5625 13.9746 11.6602 13.9746 11.8848L13.9746 15.6641C13.9746 15.752 13.9258 15.8105 13.8477 15.8105ZM9.54102 17.9102C10.2051 17.9102 10.6836 17.4219 10.6836 16.7676L10.6836 14.2578L9.11133 13.0078L9.11133 15.6641C9.11133 15.752 9.0625 15.8105 8.97461 15.8105C8.92578 15.8105 8.86719 15.7812 8.80859 15.7227L1.85547 9.14062C1.77734 9.0625 1.74805 9.01367 1.74805 8.95508C1.74805 8.89648 1.77734 8.83789 1.85547 8.76953L8.80859 2.09961C8.85742 2.06055 8.91602 2.02148 8.97461 2.02148C9.0625 2.02148 9.11133 2.08008 9.11133 2.1582L9.11133 4.88281L10.6836 3.64258L10.6836 1.19141C10.6836 0.537109 10.2051 0 9.52148 0C9.04297 0 8.7207 0.205078 8.20312 0.693359L0.488281 7.90039C0.107422 8.26172 0 8.62305 0 8.95508C0 9.27734 0.117188 9.64844 0.488281 10L8.20312 17.2754C8.66211 17.7148 9.0625 17.9102 9.54102 17.9102Z" fill="#000000" fill-opacity="0.85"/>
 </g>
</svg>
