<?xml version="1.0" encoding="UTF-8"?>
<!--Generator: Apple Native CoreSVG 175.5-->
<!DOCTYPE svg
PUBLIC "-//W3C//DTD SVG 1.1//EN"
       "http://www.w3.org/Graphics/SVG/1.1/DTD/svg11.dtd">
<svg version="1.1" xmlns="http://www.w3.org/2000/svg" xmlns:xlink="http://www.w3.org/1999/xlink" width="29.7266" height="18.5645">
 <g>
  <rect height="18.5645" opacity="0" width="29.7266" x="0" y="0"/>
  <path d="M12.2754 9.10156C12.2754 8.58398 11.9238 8.22266 11.416 8.22266L4.75586 8.22266L2.8125 8.29102L6.03516 5.17578C6.20117 5.00977 6.2793 4.77539 6.2793 4.55078C6.2793 4.05273 5.9082 3.70117 5.41992 3.70117C5.18555 3.70117 4.96094 3.78906 4.76562 3.98438L0.302734 8.4375C0.117188 8.63281 0 8.85742 0 9.10156C0 9.33594 0.117188 9.57031 0.302734 9.75586L4.76562 14.209C4.96094 14.4043 5.18555 14.4922 5.41992 14.4922C5.9082 14.4922 6.2793 14.1406 6.2793 13.6426C6.2793 13.4082 6.20117 13.1836 6.03516 13.0176L2.8125 9.91211L4.75586 9.9707L11.416 9.9707C11.9238 9.9707 12.2754 9.60938 12.2754 9.10156ZM14.8633 18.5645C15.3711 18.5645 15.7324 18.2031 15.7324 17.6953L15.7324 0.849609C15.7324 0.351562 15.3711 0 14.8633 0C14.3555 0 13.9844 0.351562 13.9844 0.849609L13.9844 17.6953C13.9844 18.2031 14.3555 18.5645 14.8633 18.5645ZM17.4512 9.10156C17.4512 9.60938 17.8027 9.9707 18.3105 9.9707L24.9609 9.9707L26.9141 9.91211L23.6914 13.0176C23.5254 13.1836 23.4473 13.4082 23.4473 13.6426C23.4473 14.1406 23.8184 14.4922 24.2969 14.4922C24.541 14.4922 24.7656 14.4043 24.9609 14.209L29.4238 9.75586C29.6094 9.57031 29.7266 9.33594 29.7266 9.10156C29.7266 8.85742 29.6094 8.63281 29.4238 8.4375L24.9609 3.98438C24.7656 3.78906 24.541 3.70117 24.2969 3.70117C23.8184 3.70117 23.4473 4.05273 23.4473 4.55078C23.4473 4.77539 23.5254 5.00977 23.6914 5.17578L26.9141 8.29102L24.9609 8.22266L18.3105 8.22266C17.8027 8.22266 17.4512 8.58398 17.4512 9.10156Z" fill="#000000" fill-opacity="0.85"/>
 </g>
</svg>
