<?xml version="1.0" encoding="UTF-8"?>
<!--Generator: Apple Native CoreSVG 175.5-->
<!DOCTYPE svg
PUBLIC "-//W3C//DTD SVG 1.1//EN"
       "http://www.w3.org/Graphics/SVG/1.1/DTD/svg11.dtd">
<svg version="1.1" xmlns="http://www.w3.org/2000/svg" xmlns:xlink="http://www.w3.org/1999/xlink" width="23.9062" height="17.9395">
 <g>
  <rect height="17.9395" opacity="0" width="23.9062" x="0" y="0"/>
  <path d="M14.3652 17.9199C14.8438 17.9199 15.2344 17.7246 15.7031 17.2852L23.4082 10.0098C23.7891 9.6582 23.9062 9.28711 23.9062 8.96484C23.9062 8.63281 23.7891 8.26172 23.4082 7.91016L15.7031 0.703125C15.1855 0.214844 14.8633 0 14.3848 0C13.7012 0 13.2227 0.546875 13.2227 1.20117L13.2227 4.99023L6.88477 4.99023C5.19531 4.99023 4.47266 5.69336 4.47266 7.35352L4.47266 9.39453L2.41211 9.39453C0.722656 9.39453 0 10.0879 0 11.748L0 15.498C0 17.1582 0.722656 17.8613 2.41211 17.8613L8.30078 17.8613C9.99023 17.8613 10.7129 17.1582 10.7129 15.498L10.7129 13.2715L13.2227 13.2715L13.2227 16.7773C13.2227 17.4316 13.7012 17.9199 14.3652 17.9199ZM9.59961 15.5859L5.6543 13.9355C4.69727 13.5352 4.3457 13.1152 4.29688 12.3438C4.28711 12.1484 4.49219 12.1094 4.58008 12.2949C4.87305 12.9395 5.53711 13.2715 6.51367 13.2715L9.72656 13.2715L9.72656 15.5273C9.72656 15.5859 9.6582 15.6152 9.59961 15.5859Z" fill="#000000" fill-opacity="0.85"/>
 </g>
</svg>
