<?xml version="1.0" encoding="UTF-8"?>
<!--Generator: Apple Native CoreSVG 175.5-->
<!DOCTYPE svg
PUBLIC "-//W3C//DTD SVG 1.1//EN"
       "http://www.w3.org/Graphics/SVG/1.1/DTD/svg11.dtd">
<svg version="1.1" xmlns="http://www.w3.org/2000/svg" xmlns:xlink="http://www.w3.org/1999/xlink" width="20.2565" height="22.998">
 <g>
  <rect height="22.998" opacity="0" width="20.2565" x="0" y="0"/>
  <path d="M20.2565 21.5137L20.2565 13.7598C20.2565 12.5977 19.7291 12.0703 18.567 12.0703L6.8971 12.0703C6.03773 12.0703 5.57874 12.7148 5.57874 13.4082C5.57874 13.877 5.79359 14.3262 6.25257 14.6387L17.9225 22.6855C18.235 22.9102 18.5963 22.998 18.9381 22.998C19.6412 22.998 20.2565 22.5293 20.2565 21.5137ZM18.567 10.9375C19.7291 10.9375 20.2565 10.4102 20.2565 9.24805L20.2565 1.49414C20.2565 0.478516 19.6412 0.00976562 18.9381 0.00976562C18.5963 0.00976562 18.235 0.0976562 17.9225 0.3125L6.25257 8.36914C5.79359 8.68164 5.57874 9.13086 5.57874 9.59961C5.57874 10.293 6.03773 10.9375 6.8971 10.9375Z" fill="#000000" fill-opacity="0.85"/>
  <path d="M3.18616 21.4844L5.12952 18.8672C5.53968 18.3301 5.29554 17.6758 4.63148 17.6758L3.22523 17.6758L3.22523 5.33203L4.63148 5.33203C5.29554 5.33203 5.53968 4.67773 5.12952 4.14062L3.18616 1.52344C2.92249 1.16211 2.42444 1.16211 2.16077 1.52344L0.197882 4.14062C-0.192743 4.6582 0.0221009 5.33203 0.71546 5.33203L2.09241 5.33203L2.09241 17.6758L0.71546 17.6758C0.0416322 17.6758-0.212274 18.3301 0.197882 18.8672L2.16077 21.4844C2.42444 21.8359 2.93226 21.8359 3.18616 21.4844Z" fill="#000000" fill-opacity="0.85"/>
 </g>
</svg>
