<?xml version="1.0" encoding="UTF-8"?>
<!--Generator: Apple Native CoreSVG 175.5-->
<!DOCTYPE svg
PUBLIC "-//W3C//DTD SVG 1.1//EN"
       "http://www.w3.org/Graphics/SVG/1.1/DTD/svg11.dtd">
<svg version="1.1" xmlns="http://www.w3.org/2000/svg" xmlns:xlink="http://www.w3.org/1999/xlink" width="26.6699" height="20.4395">
 <g>
  <rect height="20.4395" opacity="0" width="26.6699" x="0" y="0"/>
  <path d="M1.96289 15.9082L9.36523 11.377C10.3223 10.7812 10.3516 9.67773 9.36523 9.08203L1.96289 4.55078C0.957031 3.93555 0 4.4043 0 5.56641L0 14.8828C0 16.0742 0.976562 16.5137 1.96289 15.9082ZM13.3301 20.4395C13.7109 20.4395 14.0527 20.1367 14.0527 19.7559L14.0527 0.693359C14.0527 0.3125 13.7109 0.0195312 13.3301 0.0195312C12.9492 0.0195312 12.6172 0.3125 12.6172 0.693359L12.6172 19.7559C12.6172 20.1367 12.9492 20.4395 13.3301 20.4395ZM24.6973 15.9082C25.6934 16.5137 26.6699 16.0742 26.6699 14.8828L26.6699 5.56641C26.6699 4.4043 25.7129 3.93555 24.6973 4.55078L17.2949 9.08203C16.3184 9.67773 16.3379 10.7812 17.2949 11.377Z" fill="#000000" fill-opacity="0.85"/>
 </g>
</svg>
