<?xml version="1.0" encoding="UTF-8"?>
<!--Generator: Apple Native CoreSVG 175.5-->
<!DOCTYPE svg
PUBLIC "-//W3C//DTD SVG 1.1//EN"
       "http://www.w3.org/Graphics/SVG/1.1/DTD/svg11.dtd">
<svg version="1.1" xmlns="http://www.w3.org/2000/svg" xmlns:xlink="http://www.w3.org/1999/xlink" width="22.1473" height="22.1608">
 <g>
  <rect height="22.1608" opacity="0" width="22.1473" x="0" y="0"/>
  <path d="M1.09505 13.2337L8.91731 21.056C10.3626 22.5013 11.7884 22.5111 13.224 21.0853L21.0853 13.2142C22.5111 11.7884 22.5013 10.3529 21.056 8.90755L13.2435 1.09505C11.7982-0.350264 10.3724-0.369795 8.93685 1.06575L1.06575 8.92708C-0.369795 10.3626-0.350264 11.7884 1.09505 13.2337Z" fill="#000000" fill-opacity="0.85"/>
  <path d="M6.70052 13.9368L6.70052 11.3685C6.70052 9.41536 7.62825 8.47786 9.59114 8.47786L12.3646 8.47786L12.3646 7.1888C12.3646 6.5345 13.0384 6.2513 13.556 6.65169L15.9388 8.49739C16.5638 8.99544 16.5638 9.59114 15.9388 10.0892L13.556 11.9447C13.0384 12.345 12.3646 12.0618 12.3646 11.4075L12.3646 10.1087L9.61067 10.1087C8.7513 10.1087 8.32161 10.5384 8.32161 11.4466L8.32161 13.9368C8.32161 14.513 8.01888 14.8353 7.51106 14.845C6.98372 14.8548 6.70052 14.513 6.70052 13.9368Z" fill="#ffffff"/>
 </g>
</svg>
