<?xml version="1.0" encoding="UTF-8"?>
<!--Generator: Apple Native CoreSVG 175.5-->
<!DOCTYPE svg
PUBLIC "-//W3C//DTD SVG 1.1//EN"
       "http://www.w3.org/Graphics/SVG/1.1/DTD/svg11.dtd">
<svg version="1.1" xmlns="http://www.w3.org/2000/svg" xmlns:xlink="http://www.w3.org/1999/xlink" width="19.9219" height="19.9316">
 <g>
  <rect height="19.9316" opacity="0" width="19.9219" x="0" y="0"/>
  <path d="M9.96094 19.9219C15.4102 19.9219 19.9219 15.4004 19.9219 9.96094C19.9219 4.51172 15.4004 0 9.95117 0C4.51172 0 0 4.51172 0 9.96094C0 15.4004 4.52148 19.9219 9.96094 19.9219ZM9.96094 18.2617C5.35156 18.2617 1.66992 14.5703 1.66992 9.96094C1.66992 5.35156 5.3418 1.66016 9.95117 1.66016C14.5605 1.66016 18.2617 5.35156 18.2617 9.96094C18.2617 14.5703 14.5703 18.2617 9.96094 18.2617Z" fill="#000000" fill-opacity="0.85"/>
  <path d="M3.81836 9.9707C3.81836 10.3613 4.0918 10.625 4.46289 10.625L8.94531 10.625L10.7422 10.5176L8.75977 12.2754L8.13477 12.8516C7.99805 12.9688 7.93945 13.125 7.93945 13.3203C7.93945 13.7012 8.21289 13.9551 8.58398 13.9551C8.74023 13.9551 8.94531 13.8672 9.08203 13.7402L12.4414 10.459C12.5879 10.3223 12.6562 10.1465 12.6562 9.9707C12.6562 9.78516 12.5781 9.61914 12.4414 9.47266L9.07227 6.16211C8.92578 6.01562 8.75977 5.95703 8.58398 5.95703C8.23242 5.95703 7.93945 6.21094 7.93945 6.58203C7.93945 6.75781 7.99805 6.93359 8.13477 7.06055L8.75 7.66602L10.7324 9.42383L8.94531 9.31641L4.46289 9.31641C4.0918 9.31641 3.81836 9.58984 3.81836 9.9707ZM14.0527 14.2676C14.4434 14.2676 14.7168 14.0039 14.7168 13.623L14.7168 6.28906C14.7168 5.9082 14.4434 5.64453 14.0527 5.64453C13.6816 5.64453 13.4082 5.9082 13.4082 6.28906L13.4082 13.623C13.4082 14.0039 13.6816 14.2676 14.0527 14.2676Z" fill="#000000" fill-opacity="0.85"/>
 </g>
</svg>
