<?xml version="1.0" encoding="UTF-8"?>
<!--Generator: Apple Native CoreSVG 175.5-->
<!DOCTYPE svg
PUBLIC "-//W3C//DTD SVG 1.1//EN"
       "http://www.w3.org/Graphics/SVG/1.1/DTD/svg11.dtd">
<svg version="1.1" xmlns="http://www.w3.org/2000/svg" xmlns:xlink="http://www.w3.org/1999/xlink" width="22.9883" height="20.4785">
 <g>
  <rect height="20.4785" opacity="0" width="22.9883" x="0" y="0"/>
  <path d="M1.47461 20.4785L9.23828 20.4785C10.4004 20.4785 10.9277 19.9609 10.9277 18.7988L10.9277 7.12891C10.9277 6.26953 10.2832 5.81055 9.58984 5.81055C9.12109 5.81055 8.67188 6.02539 8.34961 6.47461L0.302734 18.1543C0.0878906 18.4668 0 18.8281 0 19.1602C0 19.873 0.46875 20.4785 1.47461 20.4785ZM2.08984 18.8867C2.03125 18.8867 1.97266 18.8574 1.97266 18.7891C1.97266 18.7598 1.98242 18.7305 2.00195 18.6816L9.16016 7.94922C9.18945 7.91016 9.21875 7.89062 9.24805 7.89062C9.29688 7.89062 9.32617 7.93945 9.32617 7.98828L9.32617 18.6035C9.32617 18.8281 9.25781 18.8867 9.0332 18.8867ZM13.75 20.4785L21.5039 20.4785C22.5195 20.4785 22.9883 19.873 22.9883 19.1602C22.9883 18.8281 22.8906 18.4668 22.6758 18.1543L14.6289 6.47461C14.3164 6.02539 13.8574 5.81055 13.3887 5.81055C12.6953 5.81055 12.0605 6.26953 12.0605 7.12891L12.0605 18.7988C12.0605 19.9609 12.5879 20.4785 13.75 20.4785ZM13.9551 18.8867C13.7207 18.8867 13.6621 18.8281 13.6621 18.6035L13.6621 7.99805C13.6621 7.93945 13.6914 7.89062 13.7305 7.89062C13.7598 7.89062 13.7988 7.91016 13.8281 7.95898L20.9766 18.6816C21.0059 18.7305 21.0156 18.7598 21.0156 18.7891C21.0156 18.8574 20.957 18.8867 20.8887 18.8867Z" fill="#000000" fill-opacity="0.85"/>
  <path d="M1.51367 3.36914L4.13086 5.3125C4.66797 5.72266 5.3125 5.47852 5.3125 4.80469L5.3125 3.4082L17.666 3.4082L17.666 4.80469C17.666 5.47852 18.3203 5.72266 18.8574 5.3125L21.4746 3.36914C21.8359 3.0957 21.8262 2.59766 21.4746 2.33398L18.8574 0.380859C18.3398-0.00976562 17.666 0.195312 17.666 0.898438L17.666 2.27539L5.3125 2.27539L5.3125 0.898438C5.3125 0.214844 4.66797-0.0292969 4.13086 0.380859L1.51367 2.33398C1.15234 2.59766 1.16211 3.10547 1.51367 3.36914Z" fill="#000000" fill-opacity="0.85"/>
 </g>
</svg>
