<?xml version="1.0" encoding="UTF-8"?>
<!--Generator: Apple Native CoreSVG 175.5-->
<!DOCTYPE svg
PUBLIC "-//W3C//DTD SVG 1.1//EN"
       "http://www.w3.org/Graphics/SVG/1.1/DTD/svg11.dtd">
<svg version="1.1" xmlns="http://www.w3.org/2000/svg" xmlns:xlink="http://www.w3.org/1999/xlink" width="19.9707" height="24.5996">
 <g>
  <rect height="24.5996" opacity="0" width="19.9707" x="0" y="0"/>
  <path d="M4.73633 5.78125L12.2363 5.78125C13.3594 5.78125 14.4824 6.47461 14.4824 8.08594L14.4824 19.6973L16.9434 19.6973C18.9551 19.6973 19.9707 18.6621 19.9707 16.6309L19.9707 3.06641C19.9707 1.03516 18.9551 0 16.9434 0L7.76367 0C5.75195 0 4.73633 1.02539 4.73633 3.06641ZM9.3457 2.77344L9.3457 2.56836C9.3457 2.26562 9.54102 1.99219 9.9707 1.99219L14.7363 1.99219C15.1562 1.99219 15.3613 2.26562 15.3613 2.56836L15.3613 2.77344C15.3613 3.06641 15.1562 3.34961 14.7363 3.34961L9.9707 3.34961C9.54102 3.34961 9.3457 3.06641 9.3457 2.77344Z" fill="#000000" fill-opacity="0.85"/>
  <path d="M0 21.5039C0 23.5449 1.00586 24.5703 3.02734 24.5703L12.207 24.5703C14.2285 24.5703 15.2344 23.5352 15.2344 21.5039L15.2344 7.93945C15.2344 5.89844 14.2285 4.87305 12.207 4.87305L3.02734 4.87305C1.00586 4.87305 0 5.88867 0 7.93945ZM1.57227 21.4746L1.57227 7.95898C1.57227 6.99219 2.08984 6.44531 3.0957 6.44531L12.1289 6.44531C13.1348 6.44531 13.6621 6.99219 13.6621 7.95898L13.6621 21.4746C13.6621 22.4512 13.1348 22.998 12.1289 22.998L3.0957 22.998C2.08984 22.998 1.57227 22.4512 1.57227 21.4746ZM7.66602 18.9941C8.62305 18.9941 9.58984 18.6621 10.2539 18.1055C10.6152 17.8223 10.7031 17.4219 10.4395 17.1387C10.1758 16.8457 9.82422 16.8945 9.52148 17.1191C8.96484 17.5488 8.41797 17.7832 7.66602 17.7832C6.14258 17.7832 4.88281 16.7578 4.53125 15.4004L5.3418 15.4004C5.70312 15.4004 5.78125 15.0586 5.58594 14.7852L4.33594 13.0566C4.13086 12.7734 3.7793 12.7441 3.56445 13.0566L2.33398 14.7852C2.13867 15.0586 2.2168 15.4004 2.56836 15.4004L3.37891 15.4004C3.75977 17.5293 5.47852 18.9941 7.66602 18.9941ZM7.65625 10.4004C6.69922 10.4004 5.73242 10.7422 5.06836 11.2891C4.70703 11.582 4.61914 11.9727 4.88281 12.2656C5.14648 12.5488 5.49805 12.5 5.80078 12.2754C6.35742 11.8457 6.91406 11.6113 7.65625 11.6113C9.17969 11.6113 10.4492 12.6367 10.791 13.9941L9.93164 13.9941C9.58008 13.9941 9.50195 14.3359 9.69727 14.6094L10.9375 16.3477C11.1426 16.6309 11.4941 16.6504 11.7188 16.3477L12.9395 14.6094C13.1445 14.3359 13.0664 13.9941 12.7051 13.9941L11.9434 13.9941C11.5723 11.8652 9.84375 10.4004 7.65625 10.4004Z" fill="#000000" fill-opacity="0.85"/>
 </g>
</svg>
