<?xml version="1.0" encoding="UTF-8"?>
<!--Generator: Apple Native CoreSVG 175.5-->
<!DOCTYPE svg
PUBLIC "-//W3C//DTD SVG 1.1//EN"
       "http://www.w3.org/Graphics/SVG/1.1/DTD/svg11.dtd">
<svg version="1.1" xmlns="http://www.w3.org/2000/svg" xmlns:xlink="http://www.w3.org/1999/xlink" width="25.918" height="18.1738">
 <g>
  <rect height="18.1738" opacity="0" width="25.918" x="0" y="0"/>
  <path d="M8.57422 18.1738C9.01367 18.1738 9.27734 17.959 9.375 17.5684C10.4297 14.3066 12.1094 13.1543 14.8828 13.1543L15.2344 13.1641L15.2344 16.8945C15.2344 17.5488 15.7129 18.0371 16.377 18.0371C16.8555 18.0371 17.2461 17.8418 17.7148 17.4023L25.4297 10.127C25.8008 9.77539 25.918 9.4043 25.918 9.08203C25.918 8.75 25.8008 8.37891 25.4297 8.02734L17.7148 0.820312C17.1973 0.332031 16.875 0.117188 16.3965 0.117188C15.7129 0.117188 15.2344 0.664062 15.2344 1.31836L15.2344 5.00977L14.9512 5.00977C11.8848 5.00977 9.21875 6.82617 8.61328 10.4785L8.50586 10.4785C7.83203 6.43555 5.05859 5.00977 2.43164 5.00977C2.38281 5.00977 2.22656 5.00977 1.88477 5.00977C0.537109 5.00977 0 5.51758 0 6.97266L0 11.6406C0 12.7441 0.527344 13.2129 1.79688 13.2129C2.08984 13.2129 2.35352 13.2129 2.65625 13.2129C5.32227 13.2129 7.08008 14.9902 7.7832 17.5586C7.87109 17.959 8.125 18.1738 8.57422 18.1738ZM8.05664 15.3711C6.96289 12.5977 4.98047 11.6992 2.53906 11.6797C2.34375 11.6797 2.13867 11.6797 1.95312 11.6797C1.70898 11.6797 1.57227 11.5332 1.57227 11.25L1.57227 6.97266C1.57227 6.68945 1.70898 6.5332 1.97266 6.5332C2.16797 6.5332 2.32422 6.5332 2.51953 6.5332C5.46875 6.57227 7.97852 8.65234 8.16406 15.3711ZM16.9434 15.9375C16.8555 15.9375 16.8066 15.8789 16.8066 15.791L16.8066 12.0117C16.8066 11.7871 16.6992 11.6895 16.4746 11.6895L14.834 11.6797C11.9824 11.6797 10.0977 12.8223 9.10156 15.3711L8.99414 15.3711C9.15039 9.39453 11.3281 6.48438 15 6.48438L16.4746 6.48438C16.6992 6.48438 16.8066 6.38672 16.8066 6.16211L16.8066 2.28516C16.8066 2.20703 16.8652 2.14844 16.9434 2.14844C17.0117 2.14844 17.0605 2.1875 17.1094 2.22656L24.0625 8.89648C24.1406 8.96484 24.1699 9.02344 24.1699 9.08203C24.1699 9.14062 24.1406 9.18945 24.0625 9.26758L17.1094 15.8496C17.0508 15.9082 16.9922 15.9375 16.9434 15.9375Z" fill="#000000" fill-opacity="0.85"/>
 </g>
</svg>
