<?xml version="1.0" encoding="UTF-8"?>
<!--Generator: Apple Native CoreSVG 175.5-->
<!DOCTYPE svg
PUBLIC "-//W3C//DTD SVG 1.1//EN"
       "http://www.w3.org/Graphics/SVG/1.1/DTD/svg11.dtd">
<svg version="1.1" xmlns="http://www.w3.org/2000/svg" xmlns:xlink="http://www.w3.org/1999/xlink" width="19.9707" height="24.5996">
 <g>
  <rect height="24.5996" opacity="0" width="19.9707" x="0" y="0"/>
  <path d="M4.73633 5.78125L12.2363 5.78125C13.3594 5.78125 14.4824 6.47461 14.4824 8.08594L14.4824 19.6973L16.9434 19.6973C18.9551 19.6973 19.9707 18.6621 19.9707 16.6309L19.9707 3.06641C19.9707 1.03516 18.9551 0 16.9434 0L7.76367 0C5.75195 0 4.73633 1.02539 4.73633 3.06641ZM9.3457 2.77344L9.3457 2.56836C9.3457 2.26562 9.54102 1.99219 9.9707 1.99219L14.7363 1.99219C15.1562 1.99219 15.3613 2.26562 15.3613 2.56836L15.3613 2.77344C15.3613 3.06641 15.1562 3.34961 14.7363 3.34961L9.9707 3.34961C9.54102 3.34961 9.3457 3.06641 9.3457 2.77344Z" fill="#000000" fill-opacity="0.85"/>
  <path d="M0 21.5039C0 23.5449 1.00586 24.5703 3.02734 24.5703L12.207 24.5703C14.2285 24.5703 15.2344 23.5352 15.2344 21.5039L15.2344 7.93945C15.2344 5.89844 14.2285 4.87305 12.207 4.87305L3.02734 4.87305C1.00586 4.87305 0 5.88867 0 7.93945ZM1.57227 21.4746L1.57227 7.95898C1.57227 6.99219 2.08984 6.44531 3.0957 6.44531L12.1289 6.44531C13.1348 6.44531 13.6621 6.99219 13.6621 7.95898L13.6621 21.4746C13.6621 22.4512 13.1348 22.998 12.1289 22.998L3.0957 22.998C2.08984 22.998 1.57227 22.4512 1.57227 21.4746ZM3.34961 14.707C3.34961 15.0684 3.60352 15.332 3.96484 15.332L8.19336 15.332L9.94141 15.2637L8.92578 16.1328L7.96875 17.0703C7.85156 17.1875 7.7832 17.334 7.7832 17.5098C7.7832 17.8418 8.03711 18.1152 8.37891 18.1152C8.54492 18.1152 8.69141 18.0469 8.79883 17.9395L11.5332 15.1953C11.6895 15.0391 11.7773 14.9023 11.7773 14.707C11.7773 14.541 11.6992 14.4043 11.5332 14.2383L8.79883 11.4844C8.69141 11.377 8.54492 11.3184 8.37891 11.3184C8.03711 11.3184 7.7832 11.582 7.7832 11.9141C7.7832 12.0898 7.86133 12.2363 7.96875 12.3535L8.92578 13.3008L9.94141 14.1602L8.19336 14.1016L3.96484 14.1016C3.61328 14.1016 3.34961 14.3457 3.34961 14.707Z" fill="#000000" fill-opacity="0.85"/>
 </g>
</svg>
