<?xml version="1.0" encoding="UTF-8"?>
<!--Generator: Apple Native CoreSVG 175.5-->
<!DOCTYPE svg
PUBLIC "-//W3C//DTD SVG 1.1//EN"
       "http://www.w3.org/Graphics/SVG/1.1/DTD/svg11.dtd">
<svg version="1.1" xmlns="http://www.w3.org/2000/svg" xmlns:xlink="http://www.w3.org/1999/xlink" width="21.0547" height="17.9199">
 <g>
  <rect height="17.9199" opacity="0" width="21.0547" x="0" y="0"/>
  <path d="M11.5137 17.9102C11.9922 17.9102 12.3828 17.7148 12.8516 17.2754L20.5566 10C20.9277 9.64844 21.0547 9.27734 21.0547 8.95508C21.0547 8.62305 20.9375 8.26172 20.5566 7.90039L12.8516 0.693359C12.334 0.205078 12.0117 0 11.5332 0C10.8496 0 10.3613 0.537109 10.3613 1.19141L10.3613 4.88281L10.0781 4.88281C3.05664 4.88281 0 9.38477 0 16.6016C0 17.4414 0.478516 17.9102 1.00586 17.9102C1.41602 17.9102 1.86523 17.8125 2.20703 17.1875C3.90625 13.9941 6.29883 13.0371 10.0781 13.0371L10.3613 13.0371L10.3613 16.7676C10.3613 17.4219 10.8496 17.9102 11.5137 17.9102Z" fill="#000000" fill-opacity="0.85"/>
 </g>
</svg>
