<?xml version="1.0" encoding="UTF-8"?>
<!--Generator: Apple Native CoreSVG 175.5-->
<!DOCTYPE svg
PUBLIC "-//W3C//DTD SVG 1.1//EN"
       "http://www.w3.org/Graphics/SVG/1.1/DTD/svg11.dtd">
<svg version="1.1" xmlns="http://www.w3.org/2000/svg" xmlns:xlink="http://www.w3.org/1999/xlink" width="14.2689" height="21.1426">
 <g>
  <rect height="21.1426" opacity="0" width="14.2689" x="0" y="0"/>
  <path d="M6.07422 21.123C9.70703 21.123 12.1289 18.7012 12.1289 15.0488L12.1289 13.1152C12.1289 12.6562 11.7578 12.2852 11.2988 12.2852C10.8398 12.2852 10.459 12.6562 10.459 13.1152L10.459 15.0488C10.459 17.6855 8.69141 19.4531 6.07422 19.4531C3.4375 19.4531 1.66992 17.6855 1.66992 15.0488L1.66992 6.05469C1.66992 3.4375 3.4375 1.66016 6.07422 1.66016C8.69141 1.66016 10.459 3.4375 10.459 6.05469L10.459 7.23633L12.1289 7.23633L12.1289 6.05469C12.1289 2.41211 9.70703 0 6.07422 0C2.42188 0 0 2.41211 0 6.05469L0 15.0488C0 18.7012 2.42188 21.123 6.07422 21.123ZM13.5742 6.09375L9.08203 6.09375C8.39844 6.09375 8.21289 6.57227 8.58398 7.10938L10.7715 10.2246C11.084 10.6641 11.5527 10.6738 11.875 10.2246L14.0723 7.11914C14.4531 6.57227 14.2773 6.09375 13.5742 6.09375Z" fill="#000000" fill-opacity="0.85"/>
 </g>
</svg>
