<?xml version="1.0" encoding="UTF-8"?>
<!--Generator: Apple Native CoreSVG 175.5-->
<!DOCTYPE svg
PUBLIC "-//W3C//DTD SVG 1.1//EN"
       "http://www.w3.org/Graphics/SVG/1.1/DTD/svg11.dtd">
<svg version="1.1" xmlns="http://www.w3.org/2000/svg" xmlns:xlink="http://www.w3.org/1999/xlink" width="25.918" height="18.1738">
 <g>
  <rect height="18.1738" opacity="0" width="25.918" x="0" y="0"/>
  <path d="M8.57422 18.1738C9.01367 18.1738 9.27734 17.959 9.375 17.5684C10.4297 14.3066 12.1094 13.1543 14.8828 13.1543L15.2344 13.1641L15.2344 16.8945C15.2344 17.5488 15.7129 18.0371 16.377 18.0371C16.8555 18.0371 17.2461 17.8418 17.7148 17.4023L25.4297 10.127C25.8008 9.77539 25.918 9.4043 25.918 9.08203C25.918 8.75 25.8008 8.37891 25.4297 8.02734L17.7148 0.820312C17.1973 0.332031 16.875 0.117188 16.3965 0.117188C15.7129 0.117188 15.2344 0.664062 15.2344 1.31836L15.2344 5.00977L14.9512 5.00977C11.8848 5.00977 9.21875 6.82617 8.61328 10.4785L8.50586 10.4785C7.83203 6.43555 5.05859 5.00977 2.43164 5.00977C2.38281 5.00977 2.22656 5.00977 1.88477 5.00977C0.537109 5.00977 0 5.51758 0 6.97266L0 11.6406C0 12.7441 0.527344 13.2129 1.79688 13.2129C2.08984 13.2129 2.35352 13.2129 2.65625 13.2129C5.32227 13.2129 7.08008 14.9902 7.7832 17.5586C7.87109 17.959 8.125 18.1738 8.57422 18.1738Z" fill="#000000" fill-opacity="0.85"/>
 </g>
</svg>
