<?xml version="1.0" encoding="UTF-8"?>
<!--Generator: Apple Native CoreSVG 175.5-->
<!DOCTYPE svg
PUBLIC "-//W3C//DTD SVG 1.1//EN"
       "http://www.w3.org/Graphics/SVG/1.1/DTD/svg11.dtd">
<svg version="1.1" xmlns="http://www.w3.org/2000/svg" xmlns:xlink="http://www.w3.org/1999/xlink" width="21.0547" height="17.9199">
 <g>
  <rect height="17.9199" opacity="0" width="21.0547" x="0" y="0"/>
  <path d="M11.5137 17.9102C11.9922 17.9102 12.3828 17.7148 12.8516 17.2754L20.5566 10C20.9277 9.64844 21.0547 9.27734 21.0547 8.95508C21.0547 8.62305 20.9375 8.26172 20.5566 7.90039L12.8516 0.693359C12.334 0.205078 12.0117 0 11.5332 0C10.8496 0 10.3613 0.537109 10.3613 1.19141L10.3613 4.88281L10.0781 4.88281C3.05664 4.88281 0 9.38477 0 16.6016C0 17.4414 0.478516 17.9102 1.00586 17.9102C1.41602 17.9102 1.86523 17.8125 2.20703 17.1875C3.90625 13.9941 6.29883 13.0371 10.0781 13.0371L10.3613 13.0371L10.3613 16.7676C10.3613 17.4219 10.8496 17.9102 11.5137 17.9102ZM12.0703 15.8105C11.9922 15.8105 11.9336 15.752 11.9336 15.6641L11.9336 11.8848C11.9336 11.6602 11.8359 11.5625 11.6113 11.5625L10.3027 11.5625C5.66406 11.5625 2.70508 13.1738 1.55273 15.625C1.52344 15.6934 1.50391 15.7227 1.45508 15.7227C1.41602 15.7227 1.38672 15.6934 1.38672 15.6152C1.58203 11.0059 3.59375 6.35742 10.3027 6.35742L11.6113 6.35742C11.8359 6.35742 11.9336 6.25977 11.9336 6.03516L11.9336 2.1582C11.9336 2.08008 11.9922 2.02148 12.0801 2.02148C12.1387 2.02148 12.1973 2.06055 12.2461 2.09961L19.1992 8.76953C19.2676 8.83789 19.2969 8.89648 19.2969 8.95508C19.2969 9.01367 19.2773 9.0625 19.1992 9.14062L12.2363 15.7227C12.1875 15.7812 12.1289 15.8105 12.0703 15.8105Z" fill="#000000" fill-opacity="0.85"/>
 </g>
</svg>
