<?xml version="1.0" encoding="UTF-8"?>
<!--Generator: Apple Native CoreSVG 175.5-->
<!DOCTYPE svg
PUBLIC "-//W3C//DTD SVG 1.1//EN"
       "http://www.w3.org/Graphics/SVG/1.1/DTD/svg11.dtd">
<svg version="1.1" xmlns="http://www.w3.org/2000/svg" xmlns:xlink="http://www.w3.org/1999/xlink" width="24.1602" height="16.0645">
 <g>
  <rect height="16.0645" opacity="0" width="24.1602" x="0" y="0"/>
  <path d="M3.80859 16.0547L14.0137 16.0547C16.3965 16.0547 17.8223 14.668 17.8223 12.2852L17.8223 3.75977C17.8223 1.38672 16.3965 0 14.0137 0L3.80859 0C1.5332 0 0 1.38672 0 3.75977L0 12.2852C0 14.668 1.42578 16.0547 3.80859 16.0547ZM4.08203 14.5801C2.48047 14.5801 1.57227 13.75 1.57227 12.0605L1.57227 3.99414C1.57227 2.29492 2.48047 1.46484 4.08203 1.46484L13.7402 1.46484C15.332 1.46484 16.25 2.29492 16.25 3.99414L16.25 12.0605C16.25 13.75 15.332 14.5801 13.7402 14.5801ZM17.5977 5.29297L17.5977 7.14844L22.2461 3.31055C22.334 3.24219 22.3926 3.19336 22.4805 3.19336C22.5977 3.19336 22.6465 3.29102 22.6465 3.42773L22.6465 12.627C22.6465 12.7637 22.5977 12.8516 22.4805 12.8516C22.3926 12.8516 22.334 12.8027 22.2461 12.7441L17.5977 8.90625L17.5977 10.752L21.5137 14.0723C21.9043 14.3945 22.334 14.6191 22.7344 14.6191C23.5938 14.6191 24.1602 13.9844 24.1602 13.0762L24.1602 2.97852C24.1602 2.07031 23.5938 1.43555 22.7344 1.43555C22.334 1.43555 21.9043 1.66016 21.5137 1.98242Z" fill="#000000" fill-opacity="0.85"/>
  <path d="M12.168 4.08203C11.9629 4.08203 11.8066 4.15039 11.6602 4.29688L7.65625 8.31055L6.15234 9.94141L6.31836 7.1582L6.31836 5.83984C6.31836 5.45898 6.03516 5.14648 5.6543 5.14648C5.25391 5.14648 4.93164 5.43945 4.93164 5.83984L4.93164 11.2695C4.93164 11.7773 5.17578 12.041 5.70312 12.041L11.1426 12.041C11.543 12.041 11.8457 11.709 11.8457 11.3086C11.8457 10.9277 11.5234 10.6543 11.1426 10.6543L9.80469 10.6543L7.01172 10.8203L8.66211 9.30664L12.6562 5.30273C12.8223 5.14648 12.8906 4.9707 12.8906 4.76562C12.8906 4.375 12.5781 4.08203 12.168 4.08203Z" fill="#000000" fill-opacity="0.85"/>
 </g>
</svg>
