<?xml version="1.0" encoding="UTF-8"?>
<!--Generator: Apple Native CoreSVG 175.5-->
<!DOCTYPE svg
PUBLIC "-//W3C//DTD SVG 1.1//EN"
       "http://www.w3.org/Graphics/SVG/1.1/DTD/svg11.dtd">
<svg version="1.1" xmlns="http://www.w3.org/2000/svg" xmlns:xlink="http://www.w3.org/1999/xlink" width="23.9746" height="15.8691">
 <g>
  <rect height="15.8691" opacity="0" width="23.9746" x="0" y="0"/>
  <path d="M3.13477 15.8594L13.623 15.8594C15.5859 15.8594 16.7578 14.7266 16.7578 12.7637L16.7578 3.08594C16.7578 1.13281 15.6836 0 13.7207 0L3.13477 0C1.25977 0 0 1.13281 0 3.08594L0 12.7637C0 14.7266 1.17188 15.8594 3.13477 15.8594ZM18.0859 10.8105L21.6406 13.8867C21.9727 14.1797 22.3633 14.3652 22.7148 14.3652C23.4766 14.3652 23.9746 13.8086 23.9746 13.0078L23.9746 2.85156C23.9746 2.05078 23.4766 1.49414 22.7148 1.49414C22.3633 1.49414 21.9727 1.67969 21.6406 1.97266L18.0859 5.03906Z" fill="#000000" fill-opacity="0.85"/>
  <path d="M5.0293 12.0801C4.59961 12.0801 4.27734 11.7773 4.27734 11.377C4.27734 11.1621 4.35547 10.9863 4.52148 10.8203L8.63281 6.68945L10.3418 5.13672L7.45117 5.3125L6.08398 5.3125C5.69336 5.3125 5.36133 5.01953 5.36133 4.62891C5.36133 4.20898 5.67383 3.87695 6.08398 3.87695L11.6992 3.87695C12.2363 3.87695 12.4902 4.14062 12.4902 4.67773L12.4902 10.2734C12.4902 10.6836 12.1582 10.9961 11.7383 10.9961C11.3477 10.9961 11.0547 10.6641 11.0547 10.2734L11.0547 8.92578L11.2305 6.04492L9.67773 7.73438L5.56641 11.8555C5.41016 12.0117 5.25391 12.0801 5.0293 12.0801Z" fill="#ffffff"/>
 </g>
</svg>
