<?xml version="1.0" encoding="UTF-8"?>
<!--Generator: Apple Native CoreSVG 175.5-->
<!DOCTYPE svg
PUBLIC "-//W3C//DTD SVG 1.1//EN"
       "http://www.w3.org/Graphics/SVG/1.1/DTD/svg11.dtd">
<svg version="1.1" xmlns="http://www.w3.org/2000/svg" xmlns:xlink="http://www.w3.org/1999/xlink" width="24.5508" height="18.5645">
 <g>
  <rect height="18.5645" opacity="0" width="24.5508" x="0" y="0"/>
  <path d="M19.2969 16.9727C22.2461 16.9727 24.5508 14.8145 24.5508 12.1289C24.5508 10.0781 23.3691 8.30078 21.4648 7.5C21.4844 3.14453 18.3496 0 14.3555 0C11.709 0 9.82422 1.41602 8.65234 3.125C6.25 2.42188 3.63281 4.24805 3.58398 6.98242C1.37695 7.33398 0 9.30664 0 11.6895C0 14.5605 2.50977 16.9727 5.84961 16.9727Z" fill="#000000" fill-opacity="0.85"/>
  <path d="M16.543 9.69727C16.543 11.9824 14.7363 13.7988 12.4805 13.7988C10.2344 13.7988 8.42773 11.9824 8.42773 9.72656C8.42773 9.39453 8.71094 9.11133 9.05273 9.11133C9.4043 9.11133 9.6875 9.39453 9.6875 9.72656C9.6875 11.2891 10.9277 12.5488 12.4805 12.5488C14.043 12.5488 15.2832 11.2891 15.2832 9.72656C15.2832 8.18359 14.043 6.93359 12.4805 6.93359C12.373 6.93359 12.2559 6.94336 12.168 6.96289L13.0371 7.82227C13.1445 7.92969 13.2129 8.07617 13.2129 8.23242C13.2129 8.56445 12.959 8.81836 12.6367 8.81836C12.4902 8.81836 12.334 8.75 12.2363 8.65234L10.4785 6.89453C10.2539 6.66992 10.2539 6.25977 10.4785 6.04492L12.2168 4.26758C12.3145 4.15039 12.4805 4.08203 12.6367 4.08203C12.959 4.08203 13.2129 4.35547 13.2129 4.67773C13.2129 4.82422 13.1445 4.99023 13.0469 5.08789L12.4316 5.74219C12.4902 5.73242 12.5781 5.72266 12.6562 5.72266C14.707 5.72266 16.543 7.46094 16.543 9.69727Z" fill="#ffffff"/>
 </g>
</svg>
