<?xml version="1.0" encoding="UTF-8"?>
<!--Generator: Apple Native CoreSVG 175.5-->
<!DOCTYPE svg
PUBLIC "-//W3C//DTD SVG 1.1//EN"
       "http://www.w3.org/Graphics/SVG/1.1/DTD/svg11.dtd">
<svg version="1.1" xmlns="http://www.w3.org/2000/svg" xmlns:xlink="http://www.w3.org/1999/xlink" width="67.2119" height="38.4033">
 <g>
  <rect height="38.4033" opacity="0" width="67.2119" x="0" y="0"/>
  <path d="M30.1514 38.4033C32.0557 38.4033 33.667 36.9385 33.667 34.2285L33.667 4.22363C33.667 1.51367 32.0557 0.0488281 30.1514 0.0488281C29.1504 0.0488281 28.3447 0.366211 27.3438 0.952148L2.46582 15.6006C0.732422 16.626 0 17.8223 0 19.2139C0 20.6299 0.732422 21.8262 2.46582 22.8516L27.3438 37.5C28.3203 38.0859 29.1504 38.4033 30.1514 38.4033ZM63.6963 38.4033C65.6006 38.4033 67.2119 36.9385 67.2119 34.2285L67.2119 4.22363C67.2119 1.51367 65.6006 0.0488281 63.6963 0.0488281C62.6953 0.0488281 61.8896 0.366211 60.8887 0.952148L36.0107 15.6006C34.2773 16.626 33.5449 17.8223 33.5449 19.2139C33.5449 20.6299 34.2773 21.8262 36.0107 22.8516L60.8887 37.5C61.8652 38.0859 62.6953 38.4033 63.6963 38.4033Z" fill="#000000" fill-opacity="0.85"/>
 </g>
</svg>
