<?xml version="1.0" encoding="UTF-8"?>
<!--Generator: Apple Native CoreSVG 175.5-->
<!DOCTYPE svg
PUBLIC "-//W3C//DTD SVG 1.1//EN"
       "http://www.w3.org/Graphics/SVG/1.1/DTD/svg11.dtd">
<svg version="1.1" xmlns="http://www.w3.org/2000/svg" xmlns:xlink="http://www.w3.org/1999/xlink" width="30.8105" height="15.8691">
 <g>
  <rect height="15.8691" opacity="0" width="30.8105" x="0" y="0"/>
  <path d="M11.4258 11.5527C12.6074 11.5527 13.877 10.8496 14.1504 9.35547L14.6289 6.77734C15.1172 4.10156 13.0957 2.09961 9.83398 0.976562C7.90039 0.302734 6.01562 0 4.11133 0C3.52539 0 3.33984 0.205078 3.33984 0.585938C3.33984 1.50391 3.81836 2.19727 4.74609 2.33398C6.25 2.55859 7.39258 2.87109 8.61328 3.4375C9.0918 3.66211 9.27734 3.99414 9.18945 4.48242L8.60352 8.00781C8.28125 10 9.61914 11.5527 11.4258 11.5527ZM11.4258 10.1758C10.5957 10.1758 9.93164 9.52148 9.93164 8.69141C9.93164 7.85156 10.5957 7.1875 11.4258 7.1875C12.2656 7.1875 12.9199 7.85156 12.9199 8.69141C12.9199 9.53125 12.2656 10.1758 11.4258 10.1758ZM11.4258 9.54102C11.9141 9.54102 12.2852 9.16992 12.2852 8.69141C12.2852 8.20312 11.9141 7.82227 11.4258 7.82227C10.9473 7.82227 10.5664 8.20312 10.5664 8.69141C10.5664 9.16992 10.9473 9.54102 11.4258 9.54102ZM11.4258 12.4121C9.0332 12.4121 7.34375 10.332 7.75391 7.86133L8.10547 5.75195C6.19141 6.24023 4.80469 7.06055 4.21875 8.30078C4.73633 10.5762 5.55664 12.6758 6.70898 14.6973C7.27539 14.9805 7.86133 15.0781 8.66211 15.0781C11.7188 15.0781 14.4141 13.5938 14.5996 10.6152C13.9844 11.7285 12.8027 12.4121 11.4258 12.4121ZM19.3945 11.5527C21.1914 11.5527 22.5391 10 22.207 8.00781L21.6211 4.48242C21.543 3.99414 21.7188 3.66211 22.207 3.4375C23.418 2.87109 24.5703 2.55859 26.0742 2.33398C27.002 2.19727 27.4805 1.50391 27.4805 0.585938C27.4805 0.205078 27.2852 0 26.709 0C24.8047 0 22.9102 0.302734 20.9863 0.976562C17.7246 2.09961 15.7031 4.10156 16.1914 6.77734L16.6699 9.35547C16.9434 10.8496 18.2129 11.5527 19.3945 11.5527ZM19.3945 10.1758C18.5547 10.1758 17.8906 9.53125 17.8906 8.69141C17.8906 7.85156 18.5547 7.1875 19.3945 7.1875C20.2246 7.1875 20.8789 7.85156 20.8789 8.69141C20.8789 9.52148 20.2246 10.1758 19.3945 10.1758ZM19.3945 9.54102C19.873 9.54102 20.2441 9.16992 20.2441 8.69141C20.2441 8.20312 19.873 7.82227 19.3945 7.82227C18.9062 7.82227 18.5254 8.20312 18.5254 8.69141C18.5254 9.16992 18.9062 9.54102 19.3945 9.54102ZM19.3945 12.4121C18.0176 12.4121 16.8359 11.7285 16.2109 10.6152C16.3965 13.5938 19.1016 15.0781 22.1582 15.0781C22.959 15.0781 23.5449 14.9805 24.1113 14.6973C25.2637 12.6758 26.084 10.5762 26.6016 8.30078C26.0059 7.06055 24.6289 6.24023 22.7051 5.75195L23.0664 7.86133C23.4766 10.332 21.7871 12.4121 19.3945 12.4121Z" fill="#000000" fill-opacity="0.85"/>
  <path d="M0 12.0508C0 14.3262 1.52344 15.8594 3.79883 15.8594C4.69727 15.8594 5.51758 15.5566 6.01562 15.2051C4.77539 13.0859 3.89648 10.8203 3.34961 8.39844C1.65039 8.56445 0 9.95117 0 12.0508ZM30.8105 12.0508C30.8105 9.95117 29.1602 8.56445 27.4707 8.39844C26.9238 10.8203 26.0449 13.0859 24.8047 15.2051C25.3027 15.5566 26.123 15.8594 27.0215 15.8594C29.2969 15.8594 30.8105 14.3262 30.8105 12.0508Z" fill="#000000" fill-opacity="0.425"/>
  <path d="M11.4258 10.1758C10.5957 10.1758 9.93164 9.52148 9.93164 8.69141C9.93164 7.85156 10.5957 7.1875 11.4258 7.1875C12.2656 7.1875 12.9199 7.85156 12.9199 8.69141C12.9199 9.53125 12.2656 10.1758 11.4258 10.1758ZM11.4258 9.54102C11.9141 9.54102 12.2852 9.16992 12.2852 8.69141C12.2852 8.20312 11.9141 7.82227 11.4258 7.82227C10.9473 7.82227 10.5664 8.20312 10.5664 8.69141C10.5664 9.16992 10.9473 9.54102 11.4258 9.54102ZM19.3945 10.1758C18.5547 10.1758 17.8906 9.53125 17.8906 8.69141C17.8906 7.85156 18.5547 7.1875 19.3945 7.1875C20.2246 7.1875 20.8789 7.85156 20.8789 8.69141C20.8789 9.52148 20.2246 10.1758 19.3945 10.1758ZM19.3945 9.54102C19.873 9.54102 20.2441 9.16992 20.2441 8.69141C20.2441 8.20312 19.873 7.82227 19.3945 7.82227C18.9062 7.82227 18.5254 8.20312 18.5254 8.69141C18.5254 9.16992 18.9062 9.54102 19.3945 9.54102Z" fill="#000000" fill-opacity="0.2125"/>
 </g>
</svg>
