<?xml version="1.0" encoding="UTF-8"?>
<!--Generator: Apple Native CoreSVG 175.5-->
<!DOCTYPE svg
PUBLIC "-//W3C//DTD SVG 1.1//EN"
       "http://www.w3.org/Graphics/SVG/1.1/DTD/svg11.dtd">
<svg version="1.1" xmlns="http://www.w3.org/2000/svg" xmlns:xlink="http://www.w3.org/1999/xlink" width="19.9219" height="19.9316">
 <g>
  <rect height="19.9316" opacity="0" width="19.9219" x="0" y="0"/>
  <path d="M9.96094 19.9219C15.4102 19.9219 19.9219 15.4004 19.9219 9.96094C19.9219 4.51172 15.4004 0 9.95117 0C4.51172 0 0 4.51172 0 9.96094C0 15.4004 4.52148 19.9219 9.96094 19.9219ZM9.96094 18.2617C5.35156 18.2617 1.66992 14.5703 1.66992 9.96094C1.66992 5.35156 5.3418 1.66016 9.95117 1.66016C14.5605 1.66016 18.2617 5.35156 18.2617 9.96094C18.2617 14.5703 14.5703 18.2617 9.96094 18.2617Z" fill="#000000" fill-opacity="0.85"/>
  <path d="M7.63672 5.94727L14.8926 13.2031C14.9805 13.1152 15.0391 12.9883 15.0391 12.832C15.0391 12.2949 14.502 11.8164 14.0234 11.3281C13.6523 10.9473 13.584 10.1758 13.5449 9.56055C13.5059 7.48047 12.9395 6.05469 11.5137 5.52734C11.2988 4.83398 10.7324 4.26758 9.94141 4.26758C9.16016 4.26758 8.59375 4.83398 8.37891 5.52734C8.08594 5.625 7.8418 5.77148 7.63672 5.94727ZM11.7578 13.4863L6.45508 8.18359C6.38672 8.60352 6.34766 9.05273 6.34766 9.56055C6.30859 10.1758 6.2207 10.9473 5.86914 11.3281C5.40039 11.8262 4.84375 12.2949 4.84375 12.8418C4.84375 13.2227 5.14648 13.4863 5.64453 13.4863ZM9.94141 15.7422C10.8594 15.7422 11.5332 15.0879 11.6016 14.2969L8.29102 14.2969C8.35938 15.0879 9.02344 15.7422 9.94141 15.7422ZM14.5508 15.1953C14.7168 15.3613 15.0098 15.3613 15.1758 15.1953C15.3516 15.0098 15.3516 14.7461 15.1758 14.5703L5.3418 4.72656C5.16602 4.55078 4.88281 4.55078 4.70703 4.72656C4.53125 4.89258 4.54102 5.18555 4.70703 5.35156Z" fill="#000000" fill-opacity="0.85"/>
 </g>
</svg>
