<?xml version="1.0" encoding="UTF-8"?>
<!--Generator: Apple Native CoreSVG 175.5-->
<!DOCTYPE svg
PUBLIC "-//W3C//DTD SVG 1.1//EN"
       "http://www.w3.org/Graphics/SVG/1.1/DTD/svg11.dtd">
<svg version="1.1" xmlns="http://www.w3.org/2000/svg" xmlns:xlink="http://www.w3.org/1999/xlink" width="19.0442" height="20.5566">
 <g>
  <rect height="20.5566" opacity="0" width="19.0442" x="0" y="0"/>
  <path d="M9.21875 20.5566C10.8691 20.5566 12.0801 19.3457 12.2168 17.9785L6.2207 17.9785C6.34766 19.3457 7.55859 20.5566 9.21875 20.5566ZM1.47461 16.6406L13.2617 16.6406L3.07617 6.44531C2.86133 7.37305 2.75391 8.39844 2.73438 9.55078C2.65625 10.6738 2.49023 12.0605 1.8457 12.7344C0.996094 13.6035 0 14.4824 0 15.459C0 16.1719 0.556641 16.6406 1.47461 16.6406ZM9.21875 0C7.77344 0 6.76758 1.00586 6.39648 2.28516C5.87891 2.46094 5.42969 2.70508 5.04883 3.01758L18.1836 16.1719C18.3496 15.9863 18.4277 15.7422 18.4277 15.459C18.4277 14.4824 17.4414 13.6035 16.5918 12.7344C15.9473 12.0605 15.7715 10.6738 15.7031 9.55078C15.625 5.80078 14.6387 3.22266 12.041 2.28516C11.6699 1.00586 10.6543 0 9.21875 0Z" fill="#000000" fill-opacity="0.85"/>
  <path d="M0.214844 1.98242L17.7637 19.502C18.0566 19.8047 18.5352 19.8047 18.8281 19.502C19.1113 19.209 19.1211 18.7402 18.8281 18.4375L1.28906 0.917969C0.996094 0.625 0.517578 0.625 0.214844 0.917969C-0.0683594 1.20117-0.0683594 1.69922 0.214844 1.98242Z" fill="#000000" fill-opacity="0.85"/>
 </g>
</svg>
