<?xml version="1.0" encoding="UTF-8"?>
<!--Generator: Apple Native CoreSVG 175.5-->
<!DOCTYPE svg
PUBLIC "-//W3C//DTD SVG 1.1//EN"
       "http://www.w3.org/Graphics/SVG/1.1/DTD/svg11.dtd">
<svg version="1.1" xmlns="http://www.w3.org/2000/svg" xmlns:xlink="http://www.w3.org/1999/xlink" width="19.9219" height="19.9316">
 <g>
  <rect height="19.9316" opacity="0" width="19.9219" x="0" y="0"/>
  <path d="M9.96094 19.9316C15.4102 19.9316 19.9219 15.4199 19.9219 9.9707C19.9219 4.53125 15.4004 0.00976562 9.95117 0.00976562C4.51172 0.00976562 0 4.53125 0 9.9707C0 15.4199 4.52148 19.9316 9.96094 19.9316Z" fill="#000000" fill-opacity="0.85"/>
  <path d="M12.0898 3.81836L10.3125 8.57422L8.50586 6.75781L11.2207 3.33984C11.6309 2.82227 12.3242 3.17383 12.0898 3.81836ZM10.4785 8.74023L13.6621 8.74023C13.916 8.74023 14.1211 8.92578 14.1211 9.17969C14.1211 9.30664 14.0625 9.44336 13.9648 9.57031L12.7832 11.0449ZM9.23828 10.9766L6.09375 10.9766C5.83984 10.9766 5.625 10.8008 5.625 10.5371C5.625 10.4199 5.70312 10.2832 5.80078 10.1465L6.95312 8.69141ZM11.2402 12.9883L8.45703 16.4746C8.03711 16.9922 7.35352 16.6406 7.59766 15.9961L9.39453 11.123ZM14.707 15.3613L4.56055 5.22461C4.39453 5.03906 4.38477 4.74609 4.56055 4.58008C4.74609 4.38477 5.03906 4.38477 5.22461 4.58008L15.3613 14.7168C15.5371 14.8926 15.5371 15.1758 15.3613 15.3613C15.1855 15.5371 14.8828 15.5273 14.707 15.3613Z" fill="#ffffff"/>
 </g>
</svg>
