<?xml version="1.0" encoding="UTF-8"?>
<!--Generator: Apple Native CoreSVG 175.5-->
<!DOCTYPE svg
PUBLIC "-//W3C//DTD SVG 1.1//EN"
       "http://www.w3.org/Graphics/SVG/1.1/DTD/svg11.dtd">
<svg version="1.1" xmlns="http://www.w3.org/2000/svg" xmlns:xlink="http://www.w3.org/1999/xlink" width="19.9219" height="19.9316">
 <g>
  <rect height="19.9316" opacity="0" width="19.9219" x="0" y="0"/>
  <path d="M9.96094 19.9219C15.4102 19.9219 19.9219 15.4102 19.9219 9.96094C19.9219 4.52148 15.4004 0 9.95117 0C4.51172 0 0 4.52148 0 9.96094C0 15.4102 4.52148 19.9219 9.96094 19.9219ZM9.96094 18.2617C5.35156 18.2617 1.66992 14.5703 1.66992 9.96094C1.66992 5.36133 5.3418 1.66016 9.95117 1.66016C14.5605 1.66016 18.2617 5.36133 18.2617 9.96094C18.2617 14.5703 14.5703 18.2617 9.96094 18.2617Z" fill="#000000" fill-opacity="0.85"/>
  <path d="M12.0117 3.99414C12.2461 3.36914 11.5723 3.02734 11.1719 3.53516L8.53516 6.85547L10.293 8.61328ZM10.4492 8.76953L12.6855 11.0059L13.8281 9.58008C13.9258 9.44336 13.9844 9.31641 13.9844 9.18945C13.9844 8.94531 13.7891 8.76953 13.5352 8.76953ZM9.25781 10.9375L7.04102 8.7207L5.91797 10.127C5.82031 10.2637 5.75195 10.3906 5.75195 10.5078C5.75195 10.7617 5.95703 10.9375 6.20117 10.9375ZM11.1914 12.8809L9.4043 11.084L7.65625 15.8008C7.42188 16.4355 8.08594 16.7676 8.48633 16.2695ZM14.5605 15.1953C14.7266 15.3613 15.0195 15.3613 15.1855 15.1953C15.3613 15.0098 15.3613 14.7461 15.1855 14.5703L5.35156 4.72656C5.17578 4.55078 4.89258 4.55078 4.7168 4.72656C4.54102 4.89258 4.55078 5.18555 4.7168 5.35156Z" fill="#000000" fill-opacity="0.85"/>
 </g>
</svg>
