<?xml version="1.0" encoding="UTF-8"?>
<!--Generator: Apple Native CoreSVG 175.5-->
<!DOCTYPE svg
PUBLIC "-//W3C//DTD SVG 1.1//EN"
       "http://www.w3.org/Graphics/SVG/1.1/DTD/svg11.dtd">
<svg version="1.1" xmlns="http://www.w3.org/2000/svg" xmlns:xlink="http://www.w3.org/1999/xlink" width="23.0273" height="17.998">
 <g>
  <rect height="17.998" opacity="0" width="23.0273" x="0" y="0"/>
  <path d="M3.06641 17.9785L19.9609 17.9785C22.0117 17.9785 23.0273 16.9727 23.0273 14.9609L23.0273 5.51758C23.0273 3.50586 22.0117 2.5 19.9609 2.5L3.06641 2.5C1.02539 2.5 0 3.50586 0 5.51758L0 14.9609C0 16.9727 1.02539 17.9785 3.06641 17.9785ZM3.08594 16.4062C2.10938 16.4062 1.57227 15.8887 1.57227 14.873L1.57227 5.60547C1.57227 4.58984 2.10938 4.07227 3.08594 4.07227L19.9414 4.07227C20.9082 4.07227 21.4551 4.58984 21.4551 5.60547L21.4551 14.873C21.4551 15.8887 20.9082 16.4062 19.9414 16.4062ZM4.29688 3.23242L9.54102 3.23242L9.54102 1.19141C9.54102 0.449219 9.11133 0 8.35938 0L5.47852 0C4.72656 0 4.29688 0.449219 4.29688 1.19141ZM13.4766 3.23242L18.7109 3.23242L18.7109 1.19141C18.7109 0.449219 18.2812 0 17.5293 0L14.6484 0C13.9062 0 13.4766 0.449219 13.4766 1.19141Z" fill="#000000" fill-opacity="0.85"/>
  <path d="M8.41797 10.8691C8.41797 11.0547 8.56445 11.1816 8.75 11.1816L11.1719 11.1816L9.87305 14.6484C9.70703 15.1074 10.2051 15.3613 10.498 14.9805L14.4043 10.0781C14.4824 9.99023 14.5312 9.88281 14.5312 9.79492C14.5312 9.61914 14.375 9.48242 14.1895 9.48242L11.7773 9.48242L13.0664 6.02539C13.2324 5.55664 12.7441 5.30273 12.4512 5.68359L8.53516 10.5957C8.4668 10.6934 8.41797 10.7812 8.41797 10.8691Z" fill="#000000" fill-opacity="0.85"/>
 </g>
</svg>
