<?xml version="1.0" encoding="UTF-8"?>
<!--Generator: Apple Native CoreSVG 175.5-->
<!DOCTYPE svg
PUBLIC "-//W3C//DTD SVG 1.1//EN"
       "http://www.w3.org/Graphics/SVG/1.1/DTD/svg11.dtd">
<svg version="1.1" xmlns="http://www.w3.org/2000/svg" xmlns:xlink="http://www.w3.org/1999/xlink" width="18.7683" height="20.9863">
 <g>
  <rect height="20.9863" opacity="0" width="18.7683" x="0" y="0"/>
  <path d="M15.7104 13.8184L15.7104 2.80273C15.7104 0.947266 14.7827 0 12.9468 0L5.31006 0C4.18701 0 3.41553 0.380859 3.00537 1.12305ZM2.54639 5.99609L2.54639 19.7559C2.54639 20.5176 2.92725 20.9473 3.58154 20.9473C4.06006 20.9473 4.34326 20.6738 5.22217 19.8242L9.04053 16.0645C9.08936 16.0156 9.17725 16.0156 9.21631 16.0645L13.0347 19.8242C13.9136 20.6738 14.1968 20.9473 14.6753 20.9473C15.3296 20.9473 15.7104 20.5176 15.7104 19.7559L15.7104 19.1797Z" fill="#000000" fill-opacity="0.85"/>
  <path d="M17.4878 19.2676C17.7808 19.5605 18.2593 19.5605 18.5522 19.2676C18.8354 18.9746 18.8452 18.4961 18.5522 18.2031L1.28662 0.927734C0.993652 0.634766 0.505371 0.634766 0.212402 0.927734C-0.0708008 1.21094-0.0708008 1.70898 0.212402 1.99219Z" fill="#000000" fill-opacity="0.85"/>
 </g>
</svg>
