<?xml version="1.0" encoding="UTF-8"?>
<!--Generator: Apple Native CoreSVG 175.5-->
<!DOCTYPE svg
PUBLIC "-//W3C//DTD SVG 1.1//EN"
       "http://www.w3.org/Graphics/SVG/1.1/DTD/svg11.dtd">
<svg version="1.1" xmlns="http://www.w3.org/2000/svg" xmlns:xlink="http://www.w3.org/1999/xlink" width="25.7031" height="21.6504">
 <g>
  <rect height="21.6504" opacity="0" width="25.7031" x="0" y="0"/>
  <path d="M0 10.1074C0 13.6719 2.44141 16.0352 6.10352 16.0352C9.70703 16.0352 12.1191 13.916 12.1191 10.7227C12.1191 9.38477 11.6504 8.31055 10.8691 7.64648C10.5078 7.34375 10.3027 7.24609 9.96094 7.24609C9.51172 7.24609 9.19922 7.51953 9.19922 7.91992C9.19922 8.4082 9.48242 8.53516 9.93164 8.94531C10.3418 9.3457 10.5762 9.95117 10.5762 10.6934C10.5762 12.959 8.79883 14.4727 6.13281 14.4727C3.39844 14.4727 1.57227 12.7246 1.57227 10.0977C1.57227 8.59375 2.33398 7.16797 3.58398 6.36719L2.80273 5.00977C1.06445 6.09375 0 8.03711 0 10.1074ZM2.63672 5.01953C2.63672 7.19727 4.15039 8.75 6.54297 8.75C6.96289 8.75 7.32422 8.38867 7.32422 7.96875C7.32422 7.53906 6.96289 7.17773 6.54297 7.17773C5.09766 7.17773 4.20898 6.26953 4.20898 5.01953C4.20898 3.63281 5.35156 2.65625 6.88477 2.65625C7.59766 2.65625 8.35938 2.88086 9.0625 3.35938L9.98047 2.08008C9.00391 1.39648 7.91992 1.08398 6.89453 1.08398C4.53125 1.08398 2.63672 2.70508 2.63672 5.01953ZM7.8418 4.75586C7.82227 5.26367 8.16406 5.60547 8.61328 5.60547C9.04297 5.60547 9.375 5.32227 9.39453 4.82422C9.46289 2.96875 10.8105 1.61133 12.7051 1.61133C13.8477 1.61133 14.8438 2.2168 15.2441 3.11523C15.3223 3.25195 15.4297 3.26172 15.6152 3.21289C15.9375 3.125 16.2988 3.07617 16.6504 3.07617C18.3984 3.0957 20.0586 4.4043 20.0586 6.51367C20.0586 11.0938 13.6133 10.4688 13.6133 14.9414C13.6133 17.0703 15.3027 18.3984 17.4902 18.3984C17.7246 18.3984 17.9785 18.3887 18.2324 18.3789C18.457 20.0391 19.502 21.6504 21.1914 21.6504C23.6328 21.6504 24.8242 18.6816 24.8242 15.791C24.8242 14.5312 24.7559 13.6816 24.668 12.8809L23.0957 13.3203C23.1836 14.1016 23.2617 14.834 23.2617 15.7715C23.2617 18.1445 22.3633 20.0781 21.1914 20.0781C19.9805 20.0781 19.4922 18.4668 19.4922 17.1777C19.4922 17.0801 19.4336 17.0117 19.2969 17.0215C19.0234 17.0215 18.6523 17.0215 18.4082 17.0215C16.4648 17.0215 15.1855 16.4258 15.1855 14.9121C15.1855 11.3379 21.6309 12.1484 21.6309 6.51367C21.6309 3.50586 19.4043 1.50391 16.8555 1.50391C16.6602 1.50391 16.3867 1.5332 16.1133 1.60156C15.332 0.634766 14.082 0.0488281 12.7148 0.0488281C9.94141 0.0488281 7.95898 1.99219 7.8418 4.75586ZM19.3262 14.3359C19.3262 14.7754 19.6777 15.0879 20.1172 15.1172C23.4668 15.332 25.7031 13.3594 25.7031 10.1855C25.7031 7.59766 23.8574 5.61523 21.084 5.24414L20.8398 6.80664C22.8125 6.83594 24.1309 8.18359 24.1309 10.1855C24.1309 12.3926 22.5195 13.7402 20.1172 13.5547C19.6777 13.5156 19.3262 13.9062 19.3262 14.3359ZM14.3066 15.6055C13.7305 15.8105 13.0566 15.9082 12.4219 15.9082C10.7715 15.9082 9.0918 15.2637 8.44727 14.2676L7.14844 15.3223C8.17383 16.6016 10.0293 17.4805 12.2559 17.4805C13.0566 17.4805 13.9551 17.3633 14.8438 17.0996ZM11.1719 8.71094L11.6992 10.1953C14.1602 9.7168 15.2637 8.17383 15.2637 5.88867C15.2637 5.45898 14.9023 5.10742 14.4727 5.10742C14.043 5.10742 13.6914 5.45898 13.6914 5.88867C13.6914 7.49023 13.0078 8.44727 11.1719 8.71094Z" fill="#000000" fill-opacity="0.85"/>
 </g>
</svg>
