<?xml version="1.0" encoding="UTF-8"?>
<!--Generator: Apple Native CoreSVG 175.5-->
<!DOCTYPE svg
PUBLIC "-//W3C//DTD SVG 1.1//EN"
       "http://www.w3.org/Graphics/SVG/1.1/DTD/svg11.dtd">
<svg version="1.1" xmlns="http://www.w3.org/2000/svg" xmlns:xlink="http://www.w3.org/1999/xlink" width="21.2305" height="25.5176">
 <g>
  <rect height="25.5176" opacity="0" width="21.2305" x="0" y="0"/>
  <path d="M12.2754 25.4395C16.2012 25.4395 18.5449 24.0527 18.5449 21.748L18.5449 16.3867C20.2344 14.9414 21.2305 12.5879 21.2305 9.99023C21.2305 3.98438 17.334 0 11.5039 0C5.70312 0 1.83594 3.90625 1.83594 9.76562C1.83594 10.127 1.8457 10.4199 1.875 10.6934L0.517578 13.125C0.166016 13.7598 0 14.3555 0 14.9121C0 15.9961 0.683594 16.8652 1.83594 17.1191L1.83594 19.3262C1.83594 21.1719 3.11523 22.0605 4.79492 21.8848L6.78711 21.6699L6.09375 20.9375L6.09375 21.748C6.09375 24.0527 8.39844 25.4395 12.2754 25.4395ZM12.2754 23.8672C9.3457 23.8672 7.57812 22.9395 7.57812 21.4355L7.57812 20.1953C7.57812 20.0586 7.5 20 7.36328 20.0098L4.58984 20.3223C3.83789 20.4004 3.4082 20.0684 3.4082 19.209L3.4082 15.9668C3.4082 15.8691 3.33008 15.8008 3.21289 15.8008L2.69531 15.8008C1.99219 15.8008 1.5918 15.4492 1.5918 14.8828C1.5918 14.5996 1.68945 14.2578 1.88477 13.9062L3.49609 11.0156C3.42773 10.5859 3.39844 10.1562 3.39844 9.74609C3.39844 4.83398 6.63086 1.57227 11.5039 1.57227C16.3867 1.57227 19.6582 4.93164 19.6582 9.99023C19.6582 12.4219 18.6426 14.5312 16.9727 15.6055L16.9727 21.4355C16.9727 22.9395 15.2051 23.8672 12.2754 23.8672Z" fill="#000000" fill-opacity="0.85"/>
  <path d="M5 8.10547C5 9.99023 6.30859 11.2598 8.24219 11.2598C10.1465 11.2598 11.4453 10.127 11.4453 8.42773C11.4453 7.72461 11.2012 7.12891 10.752 6.75781C10.5566 6.5918 10.4199 6.5332 10.2344 6.5332C9.95117 6.5332 9.73633 6.71875 9.73633 6.99219C9.73633 7.29492 9.93164 7.39258 10.127 7.57812C10.3223 7.77344 10.4395 8.05664 10.4395 8.4082C10.4395 9.51172 9.57031 10.2441 8.25195 10.2441C6.9043 10.2441 6.01562 9.39453 6.01562 8.10547C6.01562 7.32422 6.42578 6.60156 7.09961 6.2207L6.5918 5.3125C5.625 5.87891 5 6.96289 5 8.10547ZM6.34766 5.48828C6.34766 6.69922 7.20703 7.51953 8.4668 7.51953C8.73047 7.51953 8.97461 7.28516 8.97461 7.01172C8.97461 6.73828 8.74023 6.50391 8.4668 6.50391C7.80273 6.50391 7.36328 6.10352 7.36328 5.48828C7.36328 4.84375 7.90039 4.375 8.64258 4.375C9.04297 4.375 9.45312 4.52148 9.78516 4.77539L10.3809 3.94531C9.87305 3.56445 9.27734 3.35938 8.65234 3.35938C7.34375 3.35938 6.34766 4.26758 6.34766 5.48828ZM9.02344 5.35156C9.01367 5.6543 9.22852 5.88867 9.53125 5.88867C9.82422 5.88867 10.0195 5.69336 10.0293 5.39062C10.0781 4.47266 10.7324 3.83789 11.6406 3.82812C12.1777 3.82812 12.6562 4.11133 12.8418 4.56055C12.9199 4.70703 13.0762 4.70703 13.3008 4.64844C13.418 4.60938 13.5547 4.59961 13.6914 4.59961C14.6094 4.59961 15.3223 5.3125 15.3223 6.25977C15.3223 8.55469 11.9727 8.16406 11.9727 10.6055C11.9727 11.709 12.8613 12.4902 14.1113 12.4902C14.1992 12.4902 14.2871 12.4902 14.3945 12.4902C14.5605 13.4863 15.2051 14.1699 16.0059 14.1699C17.1582 14.1699 17.9785 12.8516 17.9785 11.0254C17.9785 10.3125 17.9297 9.84375 17.8906 9.39453L16.8555 9.6875C16.9043 10.127 16.9629 10.5078 16.9629 11.0059C16.9629 12.207 16.5332 13.1543 16.0059 13.1543C15.5469 13.1543 15.2441 12.5879 15.2441 11.7676C15.2441 11.6309 15.1465 11.5625 15.0195 11.5625C14.8633 11.5625 14.6777 11.5723 14.5605 11.5723C13.5156 11.5723 12.998 11.2402 12.998 10.5957C12.998 8.81836 16.3477 9.32617 16.3477 6.25977C16.3477 4.73633 15.2344 3.57422 13.7891 3.57422C13.6816 3.57422 13.5547 3.58398 13.4277 3.61328C12.998 3.11523 12.3438 2.82227 11.6406 2.82227C10.166 2.82227 9.08203 3.85742 9.02344 5.35156ZM14.9609 10.2734C14.9609 10.5469 15.166 10.7617 15.4492 10.791C17.2266 10.8984 18.4375 9.83398 18.4375 8.1543C18.4375 6.71875 17.3926 5.63477 15.8496 5.48828L15.6934 6.51367C16.7285 6.46484 17.4219 7.12891 17.4219 8.1543C17.4219 9.20898 16.6504 9.86328 15.4688 9.77539C15.2051 9.75586 14.9609 10 14.9609 10.2734ZM12.5195 10.8301C12.2168 10.9473 11.8262 11.0156 11.4648 11.0156C10.5566 11.0156 9.69727 10.625 9.46289 10.0977L8.61328 10.8008C9.17969 11.5723 10.2148 12.0312 11.3867 12.0312C11.8652 12.0312 12.3828 11.9531 12.8516 11.7969ZM10.6934 7.31445L11.0254 8.29102C12.3535 8.06641 13.0566 7.26562 13.0566 5.94727C13.0566 5.68359 12.8125 5.43945 12.5391 5.43945C12.2656 5.43945 12.041 5.67383 12.041 5.95703C12.041 6.81641 11.6309 7.2168 10.6934 7.31445Z" fill="#000000" fill-opacity="0.85"/>
 </g>
</svg>
