<?xml version="1.0" encoding="UTF-8"?>
<!--Generator: Apple Native CoreSVG 175.5-->
<!DOCTYPE svg
PUBLIC "-//W3C//DTD SVG 1.1//EN"
       "http://www.w3.org/Graphics/SVG/1.1/DTD/svg11.dtd">
<svg version="1.1" xmlns="http://www.w3.org/2000/svg" xmlns:xlink="http://www.w3.org/1999/xlink" width="20.6152" height="19.9316">
 <g>
  <rect height="19.9316" opacity="0" width="20.6152" x="0" y="0"/>
  <path d="M17.0215 19.9219C17.2266 19.9219 17.4023 19.7656 17.4316 19.5508C17.7441 17.207 17.7539 17.2266 20.2441 16.748C20.459 16.709 20.6152 16.543 20.6152 16.3379C20.6152 16.123 20.459 15.9668 20.2344 15.9277C17.7832 15.5762 17.7344 15.5371 17.4316 13.1348C17.4121 12.9102 17.2363 12.7539 17.0215 12.7539C16.7969 12.7539 16.6309 12.9199 16.6113 13.1445C16.3184 15.4883 16.2695 15.459 13.7891 15.9277C13.5742 15.9766 13.4277 16.1426 13.4277 16.3379C13.4277 16.5527 13.584 16.709 13.8281 16.748C16.2695 17.1484 16.3184 17.1875 16.6113 19.5312C16.6309 19.7559 16.7969 19.9219 17.0215 19.9219ZM6.41602 5.36133C6.58203 5.36133 6.71875 5.25391 6.74805 5.07812C7.08008 3.30078 7.03125 3.35938 8.80859 3.00781C8.98438 2.97852 9.10156 2.8418 9.10156 2.67578C9.10156 2.50977 8.98438 2.38281 8.80859 2.35352C7.03125 2.00195 7.08008 2.06055 6.74805 0.283203C6.71875 0.107422 6.58203 0 6.41602 0C6.25 0 6.11328 0.107422 6.08398 0.283203C5.75195 2.06055 5.80078 2.00195 4.02344 2.35352C3.84766 2.38281 3.73047 2.50977 3.73047 2.67578C3.73047 2.8418 3.84766 2.97852 4.02344 3.00781C5.80078 3.35938 5.75195 3.30078 6.08398 5.07812C6.11328 5.25391 6.25 5.36133 6.41602 5.36133Z" fill="#000000" fill-opacity="0.85"/>
  <path d="M11.6797 13.1055C13.6719 13.1055 15.2832 11.5039 15.2832 9.50195C15.2832 7.50977 13.6719 5.89844 11.6797 5.89844C9.6875 5.89844 8.07617 7.50977 8.07617 9.50195C8.07617 11.5039 9.6875 13.1055 11.6797 13.1055ZM2.58789 10.7715C3.99414 10.7715 5.16602 9.60938 5.16602 8.18359C5.16602 6.77734 3.99414 5.61523 2.58789 5.61523C1.16211 5.61523 0 6.77734 0 8.18359C0 9.60938 1.16211 10.7715 2.58789 10.7715ZM6.39648 19.6094C7.91016 19.6094 9.16016 18.3594 9.16016 16.8262C9.16016 15.3125 7.91016 14.0625 6.39648 14.0625C4.86328 14.0625 3.61328 15.3125 3.61328 16.8262C3.61328 18.3594 4.86328 19.6094 6.39648 19.6094ZM20.2246 5.70312C20.2246 3.1543 18.1543 1.08398 15.5957 1.08398C13.3594 1.08398 11.4941 2.68555 11.084 4.80469C11.2793 4.77539 11.4746 4.76562 11.6797 4.76562C14.2969 4.76562 16.416 6.88477 16.416 9.50195C16.416 9.76562 16.3965 10.0098 16.3574 10.2441C18.5449 9.89258 20.2246 7.99805 20.2246 5.70312Z" fill="#000000" fill-opacity="0.85"/>
 </g>
</svg>
