<?xml version="1.0" encoding="UTF-8"?>
<!--Generator: Apple Native CoreSVG 175.5-->
<!DOCTYPE svg
PUBLIC "-//W3C//DTD SVG 1.1//EN"
       "http://www.w3.org/Graphics/SVG/1.1/DTD/svg11.dtd">
<svg version="1.1" xmlns="http://www.w3.org/2000/svg" xmlns:xlink="http://www.w3.org/1999/xlink" width="28.0469" height="22.373">
 <g>
  <rect height="22.373" opacity="0" width="28.0469" x="0" y="0"/>
  <path d="M6.5918 21.2793C7.10938 21.2793 7.46094 21.1035 8.08594 20.5566L12.1875 16.8848L11.0547 15.791L6.99219 19.541L6.99219 16.748C6.99219 16.1914 6.66016 15.9375 6.23047 15.9375L4.32617 15.9375C2.59766 15.9375 1.57227 14.9902 1.57227 13.1738L1.57227 4.27734C1.57227 2.46094 2.59766 1.50391 4.32617 1.50391L18.1055 1.50391C19.834 1.50391 20.8594 2.46094 20.8594 4.27734L20.8594 5.64453L22.4316 5.64453L22.4316 4.21875C22.4316 1.57227 20.8594 0.0292969 18.2031 0.0292969L4.22852 0.0292969C1.67969 0.0292969 0 1.57227 0 4.21875L0 13.2129C0 15.8691 1.67969 17.4023 4.22852 17.4023L5.51758 17.4023L5.51758 20.0781C5.51758 20.8301 5.89844 21.2793 6.5918 21.2793Z" fill="#000000" fill-opacity="0.85"/>
  <path d="M22.5 22.373C23.1738 22.373 23.5547 21.8945 23.5547 21.1523L23.5547 18.8086L23.9648 18.8086C26.416 18.8086 28.0469 17.3242 28.0469 14.7754L28.0469 9.00391C28.0469 6.44531 26.416 4.96094 23.9648 4.96094L14.4824 4.96094C11.9238 4.96094 10.4102 6.44531 10.4102 9.00391L10.4102 14.7754C10.4102 17.334 11.9238 18.8086 14.4824 18.8086L17.8516 18.8086L21.1133 21.6016C21.709 22.1094 22.0312 22.373 22.5 22.373ZM22.0898 20.6055L18.9551 17.793C18.5645 17.4512 18.3301 17.334 17.793 17.334L14.5801 17.334C12.9492 17.334 11.9727 16.4551 11.9727 14.7266L11.9824 9.05273C11.9824 7.33398 12.9492 6.43555 14.5801 6.43555L23.877 6.43555C25.498 6.43555 26.4746 7.33398 26.4746 9.05273L26.4746 14.7266C26.4746 16.4551 25.498 17.334 23.877 17.334L22.8418 17.334C22.4219 17.334 22.0898 17.5879 22.0898 18.1348Z" fill="#000000" fill-opacity="0.85"/>
 </g>
</svg>
