<?xml version="1.0" encoding="UTF-8"?>
<!--Generator: Apple Native CoreSVG 175.5-->
<!DOCTYPE svg
PUBLIC "-//W3C//DTD SVG 1.1//EN"
       "http://www.w3.org/Graphics/SVG/1.1/DTD/svg11.dtd">
<svg version="1.1" xmlns="http://www.w3.org/2000/svg" xmlns:xlink="http://www.w3.org/1999/xlink" width="27.5977" height="22.2754">
 <g>
  <rect height="22.2754" opacity="0" width="27.5977" x="0" y="0"/>
  <path d="M6.20117 20.9277C6.5918 20.9277 6.86523 20.7324 7.32422 20.3027L10.166 17.6562C9.61914 17.2168 9.16992 16.5234 9.16992 14.9316L9.16992 8.45703C9.16992 5.46875 10.9863 3.68164 13.9844 3.68164L20.8203 3.68164L20.8105 3.32031C20.6641 1.30859 19.3457 0.00976562 17.1094 0.00976562L3.71094 0.00976562C1.47461 0.00976562 0 1.34766 0 3.68164L0 13.2715C0 15.5859 1.47461 17.0801 3.71094 17.0801L5.33203 17.0801L5.33203 19.9316C5.33203 20.5273 5.6543 20.9277 6.20117 20.9277Z" fill="#000000" fill-opacity="0.85"/>
  <path d="M21.9824 22.2754C22.5391 22.2754 22.8516 21.8848 22.8516 21.2793L22.8516 18.4375L23.8867 18.4375C26.123 18.4375 27.5977 16.9434 27.5977 14.6191L27.5977 8.68164C27.5977 6.35742 26.123 5.01953 23.8867 5.01953L14.209 5.01953C11.875 5.01953 10.5078 6.35742 10.5078 8.69141L10.5078 14.6191C10.5078 16.9434 11.875 18.4375 14.209 18.4375L17.334 18.4375L20.8594 21.6602C21.3184 22.0801 21.5918 22.2754 21.9824 22.2754Z" fill="#000000" fill-opacity="0.85"/>
 </g>
</svg>
