<?xml version="1.0" encoding="UTF-8"?>
<!--Generator: Apple Native CoreSVG 175.5-->
<!DOCTYPE svg
PUBLIC "-//W3C//DTD SVG 1.1//EN"
       "http://www.w3.org/Graphics/SVG/1.1/DTD/svg11.dtd">
<svg version="1.1" xmlns="http://www.w3.org/2000/svg" xmlns:xlink="http://www.w3.org/1999/xlink" width="22.9883" height="20.8301">
 <g>
  <rect height="20.8301" opacity="0" width="22.9883" x="0" y="0"/>
  <path d="M15.7422 20.8301L21.377 20.8301C22.3633 20.8301 22.9883 20.1367 22.9883 19.0527L22.9883 6.5918C22.9883 5.50781 22.3633 4.81445 21.377 4.81445L16.2207 4.81445L16.2207 19.0527C16.2207 19.707 16.0645 20.3027 15.7422 20.8301ZM18.4375 9.75586L18.4375 8.19336C18.4375 7.98828 18.5645 7.85156 18.7793 7.85156L20.4004 7.85156C20.6055 7.85156 20.7422 7.98828 20.7422 8.19336L20.7422 9.75586C20.7422 9.96094 20.6055 10.1074 20.4004 10.1074L18.7793 10.1074C18.5645 10.1074 18.4375 9.96094 18.4375 9.75586ZM18.4375 13.6035L18.4375 12.041C18.4375 11.8359 18.5645 11.6992 18.7793 11.6992L20.4004 11.6992C20.6055 11.6992 20.7422 11.8359 20.7422 12.041L20.7422 13.6035C20.7422 13.8086 20.6055 13.9453 20.4004 13.9453L18.7793 13.9453C18.5645 13.9453 18.4375 13.8086 18.4375 13.6035ZM18.4375 17.4512L18.4375 15.8887C18.4375 15.6836 18.5645 15.5371 18.7793 15.5371L20.4004 15.5371C20.6055 15.5371 20.7422 15.6836 20.7422 15.8887L20.7422 17.4512C20.7422 17.6562 20.6055 17.793 20.4004 17.793L18.7793 17.793C18.5645 17.793 18.4375 17.6562 18.4375 17.4512Z" fill="#000000" fill-opacity="0.85"/>
  <path d="M0 19.0527C0 20.1367 0.625 20.8301 1.62109 20.8301L13.2617 20.8301C14.2578 20.8301 14.8828 20.1367 14.8828 19.0527L14.8828 1.78711C14.8828 0.703125 14.2578 0.00976562 13.2617 0.00976562L1.62109 0.00976562C0.625 0.00976562 0 0.703125 0 1.78711ZM4.0625 19.2578L4.0625 16.084C4.0625 15.6348 4.35547 15.3418 4.80469 15.3418L10.166 15.3418C10.6152 15.3418 10.9082 15.6348 10.9082 16.084L10.9082 19.2578ZM3.74023 5.25391L3.74023 3.35938C3.74023 3.11523 3.89648 2.93945 4.14062 2.93945L6.09375 2.93945C6.33789 2.93945 6.51367 3.11523 6.51367 3.35938L6.51367 5.25391C6.51367 5.50781 6.33789 5.67383 6.09375 5.67383L4.14062 5.67383C3.89648 5.67383 3.74023 5.50781 3.74023 5.25391ZM8.45703 5.25391L8.45703 3.35938C8.45703 3.11523 8.61328 2.93945 8.86719 2.93945L10.8105 2.93945C11.0547 2.93945 11.2305 3.11523 11.2305 3.35938L11.2305 5.25391C11.2305 5.50781 11.0547 5.67383 10.8105 5.67383L8.86719 5.67383C8.61328 5.67383 8.45703 5.50781 8.45703 5.25391ZM3.74023 9.23828L3.74023 7.34375C3.74023 7.09961 3.89648 6.92383 4.14062 6.92383L6.09375 6.92383C6.33789 6.92383 6.51367 7.09961 6.51367 7.34375L6.51367 9.23828C6.51367 9.49219 6.33789 9.6582 6.09375 9.6582L4.14062 9.6582C3.89648 9.6582 3.74023 9.49219 3.74023 9.23828ZM8.45703 9.23828L8.45703 7.34375C8.45703 7.09961 8.61328 6.92383 8.86719 6.92383L10.8105 6.92383C11.0547 6.92383 11.2305 7.09961 11.2305 7.34375L11.2305 9.23828C11.2305 9.49219 11.0547 9.6582 10.8105 9.6582L8.86719 9.6582C8.61328 9.6582 8.45703 9.49219 8.45703 9.23828ZM3.74023 13.2227L3.74023 11.3281C3.74023 11.0742 3.89648 10.9082 4.14062 10.9082L6.09375 10.9082C6.33789 10.9082 6.51367 11.0742 6.51367 11.3281L6.51367 13.2227C6.51367 13.4668 6.33789 13.6426 6.09375 13.6426L4.14062 13.6426C3.89648 13.6426 3.74023 13.4668 3.74023 13.2227ZM8.45703 13.2227L8.45703 11.3281C8.45703 11.0742 8.61328 10.9082 8.86719 10.9082L10.8105 10.9082C11.0547 10.9082 11.2305 11.0742 11.2305 11.3281L11.2305 13.2227C11.2305 13.4668 11.0547 13.6426 10.8105 13.6426L8.86719 13.6426C8.61328 13.6426 8.45703 13.4668 8.45703 13.2227Z" fill="#000000" fill-opacity="0.85"/>
 </g>
</svg>
