<?xml version="1.0" encoding="UTF-8"?>
<!--Generator: Apple Native CoreSVG 175.5-->
<!DOCTYPE svg
PUBLIC "-//W3C//DTD SVG 1.1//EN"
       "http://www.w3.org/Graphics/SVG/1.1/DTD/svg11.dtd">
<svg version="1.1" xmlns="http://www.w3.org/2000/svg" xmlns:xlink="http://www.w3.org/1999/xlink" width="6.35742" height="22.2949">
 <g>
  <rect height="22.2949" opacity="0" width="6.35742" x="0" y="0"/>
  <path d="M2.37305 22.2852L4.00391 22.2852L4.00391 12.9102L2.37305 12.9102ZM1.20117 14.3945L5.16602 14.3945C6.01562 14.3945 6.35742 14.0527 6.35742 13.1934L6.35742 5.68359C6.35742 4.83398 6.01562 4.48242 5.16602 4.48242L1.20117 4.48242C0.341797 4.48242 0 4.83398 0 5.68359L0 13.1934C0 14.0527 0.341797 14.3945 1.20117 14.3945Z" fill="#000000" fill-opacity="0.85"/>
  <path d="M1.2793 3.33984L5.07812 3.33984L5.07812 1.20117C5.07812 0.341797 4.72656 0 3.87695 0L2.49023 0C1.63086 0 1.2793 0.341797 1.2793 1.20117Z" fill="#000000" fill-opacity="0.425"/>
 </g>
</svg>
