<?xml version="1.0" encoding="UTF-8"?>
<!--Generator: Apple Native CoreSVG 175.5-->
<!DOCTYPE svg
PUBLIC "-//W3C//DTD SVG 1.1//EN"
       "http://www.w3.org/Graphics/SVG/1.1/DTD/svg11.dtd">
<svg version="1.1" xmlns="http://www.w3.org/2000/svg" xmlns:xlink="http://www.w3.org/1999/xlink" width="21.5332" height="20.5176">
 <g>
  <rect height="20.5176" opacity="0" width="21.5332" x="0" y="0"/>
  <path d="M6.875 20.5176C10.6738 20.5176 13.75 17.4316 13.75 13.6328C13.75 9.85352 10.6641 6.76758 6.875 6.76758C3.08594 6.76758 0 9.85352 0 13.6328C0 17.4316 3.08594 20.5176 6.875 20.5176ZM6.875 18.9551C3.93555 18.9551 1.5625 16.582 1.5625 13.6328C1.5625 10.7129 3.93555 8.33008 6.875 8.33008C9.80469 8.33008 12.1875 10.7031 12.1875 13.6328C12.1875 16.5723 9.80469 18.9551 6.875 18.9551Z" fill="#000000" fill-opacity="0.2125"/>
  <path d="M14.668 20.5176C18.4473 20.5176 21.5332 17.4316 21.5332 13.6328C21.5332 9.85352 18.4473 6.76758 14.668 6.76758C10.8691 6.76758 7.7832 9.85352 7.7832 13.6328C7.7832 17.4316 10.8691 20.5176 14.668 20.5176ZM14.668 18.9551C11.7285 18.9551 9.3457 16.582 9.3457 13.6328C9.3457 10.7129 11.7285 8.33008 14.668 8.33008C17.5879 8.33008 19.9707 10.7031 19.9707 13.6328C19.9707 16.5723 17.6074 18.9551 14.668 18.9551Z" fill="#000000" fill-opacity="0.425"/>
  <path d="M10.7715 13.8086C14.5605 13.8086 17.6367 10.7324 17.6367 6.93359C17.6367 3.14453 14.5605 0.0585938 10.7715 0.0585938C6.97266 0.0585938 3.88672 3.14453 3.88672 6.93359C3.88672 10.7324 6.97266 13.8086 10.7715 13.8086ZM10.7715 12.2461C7.83203 12.2461 5.44922 9.87305 5.44922 6.93359C5.44922 4.00391 7.83203 1.62109 10.7715 1.62109C13.6914 1.62109 16.0742 4.00391 16.0742 6.93359C16.0742 9.87305 13.7012 12.2461 10.7715 12.2461Z" fill="#000000" fill-opacity="0.85"/>
 </g>
</svg>
