<?xml version="1.0" encoding="UTF-8"?>
<!--Generator: Apple Native CoreSVG 175.5-->
<!DOCTYPE svg
PUBLIC "-//W3C//DTD SVG 1.1//EN"
       "http://www.w3.org/Graphics/SVG/1.1/DTD/svg11.dtd">
<svg version="1.1" xmlns="http://www.w3.org/2000/svg" xmlns:xlink="http://www.w3.org/1999/xlink" width="31.1914" height="18.1543">
 <g>
  <rect height="18.1543" opacity="0" width="31.1914" x="0" y="0"/>
  <path d="M9.23828 15.4004L9.23828 14.1211C6.46484 14.0723 3.62305 13.9355 2.40234 13.7988C1.57227 13.7109 1.2793 13.2715 1.2793 12.5293L1.2793 11.2012C1.2793 9.86328 1.49414 9.23828 2.25586 8.24219L3.25195 6.93359C3.51562 5.51758 4.15039 3.54492 4.57031 2.64648C4.88281 1.97266 5.49805 1.55273 6.38672 1.44531C7.01172 1.36719 8.99414 1.2793 11.5527 1.2793C12.9688 1.2793 14.1895 1.30859 15.1367 1.34766L15.6641 0.0585938C14.6582 0.0195312 13.1934 0 11.5527 0C9.0332 0 6.89453 0.0585938 6.24023 0.136719C4.94141 0.292969 3.92578 0.966797 3.4082 2.07031C3.06641 2.79297 2.42188 4.63867 2.06055 6.39648L1.24023 7.46094C0.332031 8.63281 0 9.55078 0 11.2012L0 12.7246C0 14.1113 0.722656 14.8926 2.06055 15.0488C3.50586 15.2344 6.44531 15.3516 9.23828 15.4004ZM10.9961 6.40625L12.0117 2.35352C11.8652 2.35352 11.709 2.35352 11.5527 2.35352C8.93555 2.35352 7.33398 2.42188 6.62109 2.51953C6.11328 2.58789 5.83008 2.7832 5.57617 3.22266C5.26367 3.75977 4.81445 5.10742 4.58008 6.14258C4.50195 6.48438 4.64844 6.62109 5.01953 6.60156C6.48438 6.49414 8.21289 6.41602 10.9961 6.40625ZM1.79688 18.1152L2.93945 18.1152C3.67188 18.1152 4.23828 17.5488 4.23828 16.8262L4.23828 14.5312L0.498047 13.9746L0.498047 16.8262C0.498047 17.5488 1.06445 18.1152 1.79688 18.1152ZM4.51172 12.793C5.40039 12.793 6.08398 12.1094 6.08398 11.2207C6.08398 10.3223 5.40039 9.64844 4.51172 9.64844C3.62305 9.64844 2.93945 10.3223 2.93945 11.2207C2.93945 12.1094 3.62305 12.793 4.51172 12.793Z" fill="#000000" fill-opacity="0.85"/>
  <path d="M19.6387 15.4297C22.9199 15.4297 27.2754 15.2637 29.1309 15.0488C30.4492 14.9023 31.1914 14.1699 31.1914 12.9199L31.1914 11.2012C31.1914 9.55078 30.8594 8.63281 29.9512 7.46094L29.1309 6.39648C28.7695 4.63867 28.125 2.79297 27.7832 2.07031C27.2656 0.966797 26.25 0.3125 24.9512 0.136719C24.2969 0.0488281 22.1582 0 19.6387 0C17.1094 0 14.9707 0.0585938 14.3164 0.136719C13.0176 0.292969 12.002 0.966797 11.4844 2.07031C11.1523 2.79297 10.498 4.63867 10.1465 6.39648L9.31641 7.46094C8.4082 8.63281 8.07617 9.55078 8.07617 11.2012L8.07617 12.9199C8.07617 14.1699 8.81836 14.9023 10.1465 15.0488C11.9922 15.2637 16.3477 15.4297 19.6387 15.4297ZM19.6387 14.1504C16.3184 14.1504 12.0508 13.9941 10.4883 13.7988C9.6582 13.7012 9.35547 13.2715 9.35547 12.5293L9.35547 11.2012C9.35547 9.86328 9.58008 9.23828 10.332 8.24219L11.3379 6.93359C11.5918 5.51758 12.2363 3.54492 12.6465 2.64648C12.9688 1.97266 13.584 1.55273 14.4727 1.44531C15.0977 1.36719 17.0703 1.2793 19.6387 1.2793C22.1973 1.2793 24.2188 1.36719 24.7852 1.44531C25.7031 1.5625 26.3086 1.98242 26.6211 2.64648C27.0508 3.54492 27.6758 5.51758 27.9395 6.93359L28.9355 8.24219C29.6973 9.23828 29.9121 9.86328 29.9121 11.2012L29.9121 12.5293C29.9121 13.2715 29.6191 13.7012 28.7793 13.7988C27.2168 13.9941 22.959 14.1504 19.6387 14.1504ZM12.666 6.14258C12.5879 6.48438 12.7344 6.62109 13.0957 6.60156C14.6582 6.49414 16.5137 6.40625 19.6387 6.40625C22.7539 6.40625 24.6094 6.49414 26.1719 6.60156C26.543 6.62109 26.6797 6.48438 26.6016 6.14258C26.3672 5.10742 25.9277 3.75977 25.6152 3.22266C25.3613 2.7832 25.0781 2.58789 24.5703 2.51953C23.8574 2.42188 22.2559 2.35352 19.6387 2.35352C17.0117 2.35352 15.4102 2.42188 14.707 2.51953C14.1992 2.58789 13.9062 2.7832 13.6523 3.22266C13.3496 3.75977 12.9004 5.10742 12.666 6.14258ZM9.87305 18.1152L11.0254 18.1152C11.7578 18.1152 12.3145 17.5488 12.3145 16.8262L12.3145 14.502L8.58398 13.9648L8.58398 16.8262C8.58398 17.5488 9.14062 18.1152 9.87305 18.1152ZM28.252 18.1152L29.3945 18.1152C30.127 18.1152 30.6934 17.5488 30.6934 16.8262L30.6934 13.9648L26.9531 14.502L26.9531 16.8262C26.9531 17.5488 27.5195 18.1152 28.252 18.1152ZM12.5977 12.793C13.4863 12.793 14.1602 12.1094 14.1602 11.2207C14.1602 10.3223 13.4863 9.64844 12.5977 9.64844C11.6992 9.64844 11.0254 10.3223 11.0254 11.2207C11.0254 12.1094 11.6992 12.793 12.5977 12.793ZM17.0508 12.4023L22.2168 12.4023C22.8906 12.4023 23.3496 11.9434 23.3496 11.2695C23.3496 10.6055 22.8906 10.1465 22.2168 10.1465L17.0508 10.1465C16.3867 10.1465 15.918 10.6055 15.918 11.2695C15.918 11.9434 16.3867 12.4023 17.0508 12.4023ZM26.6797 12.793C27.5684 12.793 28.252 12.1094 28.252 11.2207C28.252 10.3223 27.5684 9.64844 26.6797 9.64844C25.7812 9.64844 25.1074 10.3223 25.1074 11.2207C25.1074 12.1094 25.7812 12.793 26.6797 12.793Z" fill="#000000" fill-opacity="0.85"/>
 </g>
</svg>
