<?xml version="1.0" encoding="UTF-8"?>
<!--Generator: Apple Native CoreSVG 175.5-->
<!DOCTYPE svg
PUBLIC "-//W3C//DTD SVG 1.1//EN"
       "http://www.w3.org/Graphics/SVG/1.1/DTD/svg11.dtd">
<svg version="1.1" xmlns="http://www.w3.org/2000/svg" xmlns:xlink="http://www.w3.org/1999/xlink" width="16.4258" height="20.9473">
 <g>
  <rect height="20.9473" opacity="0" width="16.4258" x="0" y="0"/>
  <path d="M3.60352 3.24219L9.58984 3.24219C9.98047 3.24219 10.2148 3.49609 10.2148 3.90625L10.2148 5.53711C10.2148 5.9375 9.98047 6.20117 9.58984 6.20117L3.60352 6.20117C3.20312 6.20117 2.96875 5.9375 2.96875 5.53711L2.96875 3.90625C2.96875 3.49609 3.20312 3.24219 3.60352 3.24219ZM3.60352 7.07031L12.8418 7.07031C13.2324 7.07031 13.4668 7.32422 13.4668 7.73438L13.4668 9.36523C13.4668 9.77539 13.2324 10.0293 12.8418 10.0293L3.60352 10.0293C3.20312 10.0293 2.96875 9.77539 2.96875 9.36523L2.96875 7.73438C2.96875 7.32422 3.20312 7.07031 3.60352 7.07031ZM3.60352 10.918L11.2305 10.918C11.6211 10.918 11.8555 11.1621 11.8555 11.5625L11.8555 13.2031C11.8555 13.6133 11.6211 13.8574 11.2305 13.8574L3.60352 13.8574C3.20312 13.8574 2.96875 13.6133 2.96875 13.2031L2.96875 11.5625C2.96875 11.1621 3.20312 10.918 3.60352 10.918ZM3.60352 14.7461L8.01758 14.7461C8.39844 14.7461 8.64258 15 8.64258 15.4102L8.64258 17.041C8.64258 17.4414 8.39844 17.7051 8.01758 17.7051L3.60352 17.7051C3.20312 17.7051 2.96875 17.4414 2.96875 17.041L2.96875 15.4102C2.96875 15 3.20312 14.7461 3.60352 14.7461ZM0 17.8809C0 19.9219 1.00586 20.9375 3.02734 20.9375L13.3984 20.9375C15.4199 20.9375 16.4258 19.9219 16.4258 17.8809L16.4258 3.06641C16.4258 1.03516 15.4199 0 13.3984 0L3.02734 0C1.00586 0 0 1.03516 0 3.06641Z" fill="#000000" fill-opacity="0.85"/>
 </g>
</svg>
