<?xml version="1.0" encoding="UTF-8"?>
<!--Generator: Apple Native CoreSVG 175.5-->
<!DOCTYPE svg
PUBLIC "-//W3C//DTD SVG 1.1//EN"
       "http://www.w3.org/Graphics/SVG/1.1/DTD/svg11.dtd">
<svg version="1.1" xmlns="http://www.w3.org/2000/svg" xmlns:xlink="http://www.w3.org/1999/xlink" width="20.9961" height="18.1738">
 <g>
  <rect height="18.1738" opacity="0" width="20.9961" x="0" y="0"/>
  <path d="M1.44531 12.1387L5.67383 7.83203C5.76172 7.74414 5.84961 7.69531 5.9375 7.69531C6.02539 7.69531 6.11328 7.74414 6.20117 7.83203L9.79492 11.5137C10.2148 11.9531 10.6543 12.1582 11.1133 12.1582C11.582 12.1582 12.002 11.9531 12.4414 11.5137L16.4258 7.50977L18.0273 9.12109C18.3789 9.47266 18.8379 9.25781 18.9648 8.75977L20.4102 3.03711C20.5273 2.58789 20.1367 2.2168 19.6973 2.33398L13.9844 3.76953C13.4863 3.90625 13.2715 4.35547 13.623 4.70703L15.2344 6.31836L11.3867 10.2148C11.2988 10.3027 11.2012 10.3516 11.1133 10.3516C11.0352 10.3516 10.9375 10.3027 10.8496 10.2148L7.25586 6.5332C6.82617 6.09375 6.39648 5.88867 5.9375 5.88867C5.47852 5.88867 5.06836 6.08398 4.61914 6.5332L0.253906 10.957Z" fill="#000000" fill-opacity="0.85"/>
  <path d="M0 17.4023C0 17.8711 0.3125 18.1738 0.78125 18.1738L20.2051 18.1738C20.6348 18.1738 20.9961 17.832 20.9961 17.3926C20.9961 16.9629 20.6348 16.6113 20.2051 16.6113L1.8457 16.6113C1.64062 16.6113 1.57227 16.543 1.57227 16.3379L1.57227 0.898438C1.57227 0.478516 1.2207 0.117188 0.791016 0.117188C0.351562 0.117188 0 0.478516 0 0.898438Z" fill="#000000" fill-opacity="0.85"/>
 </g>
</svg>
