<?xml version="1.0" encoding="UTF-8"?>
<!--Generator: Apple Native CoreSVG 175.5-->
<!DOCTYPE svg
PUBLIC "-//W3C//DTD SVG 1.1//EN"
       "http://www.w3.org/Graphics/SVG/1.1/DTD/svg11.dtd">
<svg version="1.1" xmlns="http://www.w3.org/2000/svg" xmlns:xlink="http://www.w3.org/1999/xlink" width="19.9219" height="19.873">
 <g>
  <rect height="19.873" opacity="0" width="19.9219" x="0" y="0"/>
  <path d="M9.93164 19.873C10.4297 19.873 10.8203 19.4727 10.8203 18.9844C10.8203 18.5059 10.4297 18.1055 9.93164 18.1055C9.46289 18.1055 9.0625 18.5059 9.0625 18.9844C9.0625 19.4727 9.46289 19.873 9.93164 19.873ZM12.7441 19.4238C13.2227 19.4238 13.6328 19.0234 13.6328 18.5352C13.6328 18.0566 13.2227 17.6562 12.7441 17.6562C12.2656 17.6562 11.8652 18.0566 11.8652 18.5352C11.8652 19.0234 12.2559 19.4238 12.7441 19.4238ZM15.2734 18.1348C15.752 18.1348 16.1621 17.7344 16.1621 17.2461C16.1621 16.7676 15.752 16.3672 15.2734 16.3672C14.7949 16.3672 14.3945 16.7676 14.3945 17.2461C14.3945 17.7344 14.7852 18.1348 15.2734 18.1348ZM17.2754 16.123C17.7637 16.123 18.1641 15.7227 18.1641 15.2344C18.1641 14.7559 17.7637 14.3652 17.2754 14.3652C16.7969 14.3652 16.3965 14.7559 16.3965 15.2344C16.3965 15.7227 16.7969 16.123 17.2754 16.123ZM18.5547 13.623C19.043 13.623 19.4434 13.2227 19.4434 12.7344C19.4434 12.2559 19.043 11.8555 18.5547 11.8555C18.0762 11.8555 17.6758 12.2559 17.6758 12.7344C17.6758 13.2227 18.0762 13.623 18.5547 13.623ZM19.0332 10.8203C19.5215 10.8203 19.9219 10.4199 19.9219 9.93164C19.9219 9.45312 19.5215 9.05273 19.0332 9.05273C18.5547 9.05273 18.1641 9.45312 18.1641 9.93164C18.1641 10.4199 18.5547 10.8203 19.0332 10.8203ZM18.5547 8.01758C19.043 8.01758 19.4434 7.61719 19.4434 7.13867C19.4434 6.65039 19.043 6.25 18.5547 6.25C18.0762 6.25 17.6758 6.65039 17.6758 7.13867C17.6758 7.61719 18.0762 8.01758 18.5547 8.01758ZM17.2754 5.50781C17.7637 5.50781 18.1641 5.11719 18.1641 4.63867C18.1641 4.15039 17.7637 3.75 17.2754 3.75C16.7969 3.75 16.3965 4.15039 16.3965 4.63867C16.3965 5.11719 16.7969 5.50781 17.2754 5.50781ZM15.2734 3.50586C15.752 3.50586 16.1621 3.10547 16.1621 2.62695C16.1621 2.13867 15.752 1.73828 15.2734 1.73828C14.7852 1.73828 14.3945 2.13867 14.3945 2.62695C14.3945 3.10547 14.7949 3.50586 15.2734 3.50586ZM12.7441 2.2168C13.2227 2.2168 13.6328 1.81641 13.6328 1.33789C13.6328 0.849609 13.2227 0.449219 12.7441 0.449219C12.2559 0.449219 11.8652 0.849609 11.8652 1.33789C11.8652 1.81641 12.2656 2.2168 12.7441 2.2168ZM9.93164 1.76758C10.4297 1.76758 10.8203 1.36719 10.8203 0.888672C10.8203 0.400391 10.4297 0 9.93164 0C9.46289 0 9.0625 0.400391 9.0625 0.888672C9.0625 1.36719 9.46289 1.76758 9.93164 1.76758ZM7.14844 2.2168C7.62695 2.2168 8.02734 1.81641 8.02734 1.33789C8.02734 0.849609 7.62695 0.449219 7.14844 0.449219C6.66016 0.449219 6.25977 0.849609 6.25977 1.33789C6.25977 1.81641 6.66016 2.2168 7.14844 2.2168ZM4.62891 3.50586C5.10742 3.50586 5.50781 3.10547 5.50781 2.62695C5.50781 2.13867 5.10742 1.73828 4.62891 1.73828C4.14062 1.73828 3.74023 2.13867 3.74023 2.62695C3.74023 3.10547 4.14062 3.50586 4.62891 3.50586ZM2.63672 5.50781C3.10547 5.50781 3.51562 5.11719 3.51562 4.63867C3.51562 4.15039 3.11523 3.75 2.63672 3.75C2.14844 3.75 1.74805 4.15039 1.74805 4.63867C1.74805 5.11719 2.14844 5.50781 2.63672 5.50781ZM1.35742 8.01758C1.83594 8.01758 2.23633 7.61719 2.23633 7.13867C2.23633 6.65039 1.83594 6.25 1.35742 6.25C0.869141 6.25 0.46875 6.65039 0.46875 7.13867C0.46875 7.61719 0.869141 8.01758 1.35742 8.01758ZM0.888672 10.8203C1.36719 10.8203 1.75781 10.4199 1.75781 9.93164C1.75781 9.45312 1.36719 9.05273 0.888672 9.05273C0.400391 9.05273 0 9.45312 0 9.93164C0 10.4199 0.400391 10.8203 0.888672 10.8203ZM1.35742 13.623C1.83594 13.623 2.23633 13.2227 2.23633 12.7344C2.23633 12.2559 1.83594 11.8555 1.35742 11.8555C0.869141 11.8555 0.46875 12.2559 0.46875 12.7344C0.46875 13.2227 0.869141 13.623 1.35742 13.623ZM2.63672 16.123C3.11523 16.123 3.51562 15.7227 3.51562 15.2344C3.51562 14.7559 3.10547 14.3652 2.63672 14.3652C2.14844 14.3652 1.74805 14.7559 1.74805 15.2344C1.74805 15.7227 2.14844 16.123 2.63672 16.123ZM4.62891 18.1348C5.10742 18.1348 5.50781 17.7344 5.50781 17.2461C5.50781 16.7676 5.10742 16.3672 4.62891 16.3672C4.14062 16.3672 3.74023 16.7676 3.74023 17.2461C3.74023 17.7344 4.14062 18.1348 4.62891 18.1348ZM7.14844 19.4238C7.62695 19.4238 8.02734 19.0234 8.02734 18.5352C8.02734 18.0566 7.62695 17.6562 7.14844 17.6562C6.66016 17.6562 6.25977 18.0566 6.25977 18.5352C6.25977 19.0234 6.66016 19.4238 7.14844 19.4238Z" fill="#000000" fill-opacity="0.85"/>
 </g>
</svg>
