<?xml version="1.0" encoding="UTF-8"?>
<!--Generator: Apple Native CoreSVG 175.5-->
<!DOCTYPE svg
PUBLIC "-//W3C//DTD SVG 1.1//EN"
       "http://www.w3.org/Graphics/SVG/1.1/DTD/svg11.dtd">
<svg version="1.1" xmlns="http://www.w3.org/2000/svg" xmlns:xlink="http://www.w3.org/1999/xlink" width="21.8177" height="19.9316">
 <g>
  <rect height="19.9316" opacity="0" width="21.8177" x="0" y="0"/>
  <path d="M11.8568 19.9219C17.2962 19.9219 21.8177 15.4004 21.8177 9.96094C21.8177 4.51172 17.2962 0 11.8568 0C6.40757 0 1.89585 4.50195 1.89585 9.95117L3.55601 9.95117C3.55601 5.3418 7.24741 1.66992 11.8568 1.66992C16.4662 1.66992 20.1576 5.35156 20.1576 9.96094C20.1576 14.5703 16.4662 18.2812 11.8568 18.2617C9.07358 18.252 6.63218 16.9043 5.13804 14.8242C4.8353 14.4238 4.37632 14.2969 3.96616 14.541C3.57554 14.7852 3.46811 15.3223 3.80015 15.752C5.65561 18.2422 8.56577 19.9219 11.8568 19.9219ZM0.694677 8.07617C-0.00844799 8.07617-0.184229 8.55469 0.19663 9.10156L2.38413 12.207C2.7064 12.6562 3.17515 12.6465 3.48765 12.207L5.67515 9.0918C6.04624 8.55469 5.87046 8.07617 5.1771 8.07617Z" fill="#000000" fill-opacity="0.85"/>
  <path d="M11.4857 4.23828C11.056 4.23828 10.7044 4.58008 10.7044 5.00977L10.7044 10.459C10.7044 10.6836 10.7728 10.8789 10.9388 11.0938L13.3509 14.2773C13.6732 14.6973 14.1224 14.7656 14.5228 14.4922C14.8841 14.2383 14.9134 13.7793 14.6205 13.3789L11.3685 8.99414L12.2572 11.7285L12.2572 5.00977C12.2572 4.58008 11.9154 4.23828 11.4857 4.23828Z" fill="#000000" fill-opacity="0.85"/>
 </g>
</svg>
