<?xml version="1.0" encoding="UTF-8"?>
<!--Generator: Apple Native CoreSVG 175.5-->
<!DOCTYPE svg
PUBLIC "-//W3C//DTD SVG 1.1//EN"
       "http://www.w3.org/Graphics/SVG/1.1/DTD/svg11.dtd">
<svg version="1.1" xmlns="http://www.w3.org/2000/svg" xmlns:xlink="http://www.w3.org/1999/xlink" width="25.6661" height="25.7655">
 <g>
  <rect height="25.7655" opacity="0" width="25.6661" x="0" y="0"/>
  <path d="M18.8672 12.5751C22.5195 12.79 24.7656 10.8564 25.5566 8.81535C25.8789 8.0341 25.459 7.32121 24.6973 7.32121C24.1113 7.32121 23.6328 7.57511 22.5977 7.57511C20.1074 7.57511 18.7891 6.1884 18.7891 3.93254C18.7891 2.81925 19.1309 2.22355 19.1309 1.67668C19.1309 0.866129 18.4375 0.475504 17.5781 0.768473C15.5078 1.45207 13.75 3.6591 13.75 6.35441C13.75 7.22355 13.9062 8.0634 14.2188 8.83488L15.8398 8.80558C15.4004 8.08293 15.1855 7.22355 15.1855 6.32511C15.1855 4.44035 16.3086 2.96574 17.5879 2.26261L17.6953 2.34074C17.5293 2.80949 17.3828 3.46379 17.3828 4.2255C17.3828 7.02824 19.4336 8.96183 22.2656 8.96183C22.959 8.96183 23.6035 8.83488 24.0527 8.6884L24.1211 8.75675C23.4668 9.99699 21.709 11.3642 18.8672 11.1493Z" fill="#000000" fill-opacity="0.85"/>
  <path d="M4.14062 17.5556L14.707 17.5556C17.5293 17.5556 19.7266 15.4267 19.7266 12.6728C19.7266 9.92863 17.5098 7.87785 14.5801 7.82902C13.4375 5.69035 11.3965 4.38175 8.98438 4.38175C5.75195 4.38175 3.04688 6.88175 2.72461 10.0849C1.10352 10.5927 0 11.9989 0 13.7763C0 15.9833 1.66016 17.5556 4.14062 17.5556ZM4.10156 15.9931C2.44141 15.9931 1.5625 15.0361 1.5625 13.8153C1.5625 12.79 2.16797 11.872 3.60352 11.4911C4.07227 11.3642 4.24805 11.1493 4.28711 10.6611C4.51172 7.91691 6.54297 5.94425 8.98438 5.94425C10.8789 5.94425 12.3535 6.98918 13.2617 8.81535C13.4766 9.23527 13.7109 9.37199 14.209 9.37199C16.7383 9.37199 18.1543 10.8954 18.1543 12.7118C18.1543 14.538 16.6699 15.9931 14.7363 15.9931ZM12.2266 21.0126L10.0879 21.0126L10.0684 21.4228L11.1816 19.3134C11.2891 19.0986 11.2012 18.9423 10.9863 18.9423L8.94531 18.9423C8.68164 18.9423 8.59375 19.0497 8.50586 19.2353L7.25586 22.0771C7.1582 22.3114 7.25586 22.4579 7.50977 22.4579L9.25781 22.4579L9.375 21.8915L7.89062 25.4853C7.83203 25.6122 7.86133 25.7196 7.94922 25.7489C8.03711 25.788 8.14453 25.7587 8.24219 25.6513L12.373 21.4814C12.5684 21.2763 12.5 21.0126 12.2266 21.0126Z" fill="#000000" fill-opacity="0.85"/>
 </g>
</svg>
