<?xml version="1.0" encoding="UTF-8"?>
<!--Generator: Apple Native CoreSVG 175.5-->
<!DOCTYPE svg
PUBLIC "-//W3C//DTD SVG 1.1//EN"
       "http://www.w3.org/Graphics/SVG/1.1/DTD/svg11.dtd">
<svg version="1.1" xmlns="http://www.w3.org/2000/svg" xmlns:xlink="http://www.w3.org/1999/xlink" width="28.3008" height="20.5176">
 <g>
  <rect height="20.5176" opacity="0" width="28.3008" x="0" y="0"/>
  <path d="M4.07227 19.668L14.6387 19.668C17.4219 19.668 19.5801 17.5586 19.5801 14.8438C19.5801 12.1484 17.3828 10.1074 14.4629 10.0879C13.3398 7.94922 11.3184 6.64062 8.90625 6.64062C5.72266 6.64062 3.02734 9.11133 2.72461 12.3242C1.10352 12.8125 0 14.1992 0 15.957C0 18.125 1.63086 19.668 4.07227 19.668Z" fill="#000000" fill-opacity="0.85"/>
  <path d="M20.7031 14.3164C22.1387 13.3398 23.0176 11.8555 23.0176 10.127C23.0176 7.44141 20.8789 5.2832 18.1934 5.2832C16.4258 5.2832 14.8926 6.24023 14.082 7.64648C14.4922 8.07617 14.8438 8.53516 15.1367 9.10156C18.3594 9.35547 20.4395 11.3672 20.7031 14.3164ZM12.5293 5.61523C12.8516 5.9375 13.3789 5.92773 13.6816 5.61523C13.9844 5.30273 13.9941 4.79492 13.6816 4.48242L12.1777 2.97852C11.8652 2.66602 11.3574 2.66602 11.0449 2.97852C10.7324 3.29102 10.7227 3.80859 11.0449 4.12109ZM18.1934 3.74023C18.6426 3.74023 19.0039 3.35938 19.0039 2.92969L19.0039 0.810547C19.0039 0.371094 18.6426 0 18.1934 0C17.7441 0 17.3828 0.371094 17.3828 0.810547L17.3828 2.92969C17.3828 3.35938 17.7441 3.74023 18.1934 3.74023ZM25.3809 10.9375L27.5 10.9375C27.9395 10.9375 28.3008 10.5762 28.3008 10.127C28.3008 9.6875 27.9395 9.31641 27.5 9.31641L25.3809 9.31641C24.9512 9.31641 24.5703 9.6875 24.5703 10.127C24.5703 10.5762 24.9512 10.9375 25.3809 10.9375ZM22.7051 5.61523C23.0078 5.92773 23.5352 5.9375 23.8574 5.61523L25.3516 4.12109C25.6641 3.80859 25.6641 3.29102 25.3516 2.97852C25.0391 2.66602 24.5312 2.66602 24.2188 2.97852L22.7051 4.48242C22.3926 4.79492 22.4023 5.30273 22.7051 5.61523ZM24.2188 17.2949C24.5312 17.6074 25.0391 17.5977 25.3516 17.2852C25.6641 16.9727 25.6641 16.4551 25.3516 16.1523L23.8379 14.6582C23.5254 14.3555 23.0176 14.3457 22.7051 14.6582C22.3926 14.9707 22.3926 15.4883 22.7051 15.8008Z" fill="#000000" fill-opacity="0.85"/>
 </g>
</svg>
