<?xml version="1.0" encoding="UTF-8"?>
<!--Generator: Apple Native CoreSVG 175.5-->
<!DOCTYPE svg
PUBLIC "-//W3C//DTD SVG 1.1//EN"
       "http://www.w3.org/Graphics/SVG/1.1/DTD/svg11.dtd">
<svg version="1.1" xmlns="http://www.w3.org/2000/svg" xmlns:xlink="http://www.w3.org/1999/xlink" width="22.2949" height="24.3066">
 <g>
  <rect height="24.3066" opacity="0" width="22.2949" x="0" y="0"/>
  <path d="M5.14648 20.6348C5.32227 20.6348 5.44922 20.4688 5.43945 20.293L5.38086 19.3555L6.15234 19.8828C6.28906 19.9805 6.51367 19.9414 6.61133 19.7949C6.69922 19.6484 6.65039 19.4238 6.45508 19.3359L5.625 18.9258L6.46484 18.5059C6.65039 18.418 6.68945 18.2129 6.62109 18.0566C6.5332 17.9004 6.28906 17.8711 6.15234 17.9688L5.38086 18.5059L5.44922 17.5684C5.46875 17.3828 5.32227 17.2266 5.14648 17.2266C4.94141 17.2266 4.82422 17.3828 4.83398 17.5684L4.89258 18.5059L4.11133 17.9688C3.96484 17.8711 3.75977 17.8906 3.66211 18.0566C3.57422 18.2129 3.61328 18.418 3.79883 18.5059L4.63867 18.9258L3.79883 19.3359C3.61328 19.4238 3.56445 19.6387 3.65234 19.7949C3.74023 19.9512 3.96484 19.9805 4.11133 19.8926L4.89258 19.3652L4.84375 20.293C4.83398 20.4688 4.94141 20.6348 5.14648 20.6348ZM10.5566 20.6348C10.7324 20.6348 10.8594 20.4688 10.8496 20.293L10.791 19.3555L11.5625 19.8828C11.6992 19.9805 11.9238 19.9414 12.0215 19.7949C12.1094 19.6484 12.0605 19.4238 11.8652 19.3359L11.0254 18.9258L11.875 18.5059C12.0605 18.418 12.0996 18.2129 12.0312 18.0566C11.9434 17.9004 11.6992 17.8711 11.5625 17.9688L10.791 18.5059L10.8594 17.5684C10.8789 17.3828 10.7324 17.2266 10.5566 17.2266C10.3516 17.2266 10.2344 17.3828 10.2441 17.5684L10.3027 18.5059L9.51172 17.9688C9.375 17.8711 9.16992 17.8906 9.07227 18.0566C8.98438 18.2129 9.02344 18.418 9.20898 18.5059L10.0488 18.9258L9.20898 19.3359C9.02344 19.4238 8.97461 19.6387 9.0625 19.7949C9.15039 19.9512 9.375 19.9805 9.51172 19.8926L10.3027 19.3652L10.2539 20.293C10.2441 20.4688 10.3516 20.6348 10.5566 20.6348ZM15.9668 20.6348C16.1426 20.6348 16.2695 20.4688 16.2598 20.293L16.1914 19.3555L16.9727 19.8828C17.1094 19.9805 17.334 19.9414 17.4316 19.7949C17.5195 19.6484 17.4707 19.4238 17.2754 19.3359L16.4355 18.9258L17.2852 18.5059C17.4707 18.418 17.5098 18.2129 17.4414 18.0566C17.3535 17.9004 17.1094 17.8711 16.9727 17.9688L16.1914 18.5059L16.2695 17.5684C16.2891 17.3828 16.1426 17.2266 15.9668 17.2266C15.7617 17.2266 15.6445 17.3828 15.6543 17.5684L15.7129 18.5059L14.9219 17.9688C14.7852 17.8711 14.5801 17.8906 14.4824 18.0566C14.3945 18.2129 14.4336 18.418 14.6191 18.5059L15.459 18.9258L14.6191 19.3359C14.4336 19.4238 14.3848 19.6387 14.4727 19.7949C14.5605 19.9512 14.7852 19.9805 14.9219 19.8926L15.7129 19.3652L15.6641 20.293C15.6543 20.4688 15.7617 20.6348 15.9668 20.6348ZM3.02734 24.3066C3.20312 24.3066 3.33008 24.1309 3.32031 23.9551L3.26172 23.0273L4.0332 23.5547C4.17969 23.6426 4.39453 23.6035 4.49219 23.457C4.58008 23.3105 4.53125 23.0859 4.33594 22.998L3.50586 22.5977L4.3457 22.1777C4.53125 22.0898 4.57031 21.875 4.50195 21.7285C4.41406 21.5723 4.17969 21.543 4.0332 21.6309L3.26172 22.1777L3.33008 21.2305C3.34961 21.0449 3.20312 20.8887 3.02734 20.8887C2.82227 20.8887 2.70508 21.0449 2.71484 21.2305L2.77344 22.1777L1.99219 21.6309C1.8457 21.543 1.64062 21.5625 1.54297 21.7285C1.45508 21.875 1.49414 22.0801 1.67969 22.1777L2.51953 22.5977L1.67969 23.0078C1.49414 23.0957 1.44531 23.3008 1.5332 23.457C1.62109 23.623 1.8457 23.6523 1.99219 23.5547L2.77344 23.0273L2.72461 23.9551C2.71484 24.1309 2.82227 24.3066 3.02734 24.3066ZM8.4375 24.3066C8.61328 24.3066 8.74023 24.1309 8.73047 23.9551L8.67188 23.0273L9.44336 23.5547C9.58008 23.6426 9.80469 23.6035 9.90234 23.457C9.99023 23.3105 9.94141 23.0859 9.74609 22.998L8.90625 22.5977L9.75586 22.1777C9.94141 22.0898 9.98047 21.875 9.91211 21.7285C9.82422 21.5723 9.58008 21.543 9.44336 21.6309L8.67188 22.1777L8.74023 21.2305C8.75977 21.0449 8.61328 20.8887 8.4375 20.8887C8.23242 20.8887 8.11523 21.0449 8.125 21.2305L8.18359 22.1777L7.39258 21.6309C7.25586 21.543 7.05078 21.5625 6.95312 21.7285C6.86523 21.875 6.9043 22.0801 7.08984 22.1777L7.92969 22.5977L7.08984 23.0078C6.9043 23.0957 6.85547 23.3008 6.94336 23.457C7.03125 23.623 7.25586 23.6523 7.39258 23.5547L8.18359 23.0273L8.13477 23.9551C8.125 24.1309 8.23242 24.3066 8.4375 24.3066ZM13.8477 24.3066C14.0234 24.3066 14.1504 24.1309 14.1406 23.9551L14.0723 23.0273L14.8535 23.5547C14.9902 23.6426 15.2148 23.6035 15.3125 23.457C15.4004 23.3105 15.3516 23.0859 15.1562 22.998L14.3164 22.5977L15.166 22.1777C15.3516 22.0898 15.3906 21.875 15.3223 21.7285C15.2344 21.5723 14.9902 21.543 14.8535 21.6309L14.0723 22.1777L14.1504 21.2305C14.1699 21.0449 14.0234 20.8887 13.8477 20.8887C13.6426 20.8887 13.5254 21.0449 13.5352 21.2305L13.5938 22.1777L12.8027 21.6309C12.666 21.543 12.4609 21.5625 12.3633 21.7285C12.2754 21.875 12.3145 22.0801 12.5 22.1777L13.3398 22.5977L12.5 23.0078C12.3145 23.0957 12.2656 23.3008 12.3535 23.457C12.4414 23.623 12.666 23.6523 12.8027 23.5547L13.5938 23.0273L13.5449 23.9551C13.5352 24.1309 13.6426 24.3066 13.8477 24.3066Z" fill="#000000" fill-opacity="0.85"/>
  <path d="M4.58984 15.7617L16.709 15.7617C19.9121 15.7617 22.2949 13.3301 22.2949 10.3223C22.2949 7.20703 19.7559 4.93164 16.4453 4.93164C15.2246 2.51953 12.959 0.966797 10.1367 0.966797C6.46484 0.966797 3.4375 3.84766 3.11523 7.4707C1.34766 7.98828 0 9.52148 0 11.582C0 13.8965 1.67969 15.7617 4.58984 15.7617ZM4.57031 14.1992C2.56836 14.1992 1.5625 13.0762 1.5625 11.6309C1.5625 10.459 2.24609 9.4043 3.90625 8.96484C4.44336 8.81836 4.63867 8.56445 4.6875 8.01758C4.91211 4.82422 7.30469 2.5293 10.1367 2.5293C12.334 2.5293 14.0625 3.74023 15.1172 5.89844C15.3418 6.37695 15.6348 6.54297 16.2109 6.54297C19.1016 6.54297 20.7324 8.28125 20.7324 10.3613C20.7324 12.4902 19.0332 14.1992 16.8066 14.1992Z" fill="#000000" fill-opacity="0.85"/>
 </g>
</svg>
