<?xml version="1.0" encoding="UTF-8"?>
<!--Generator: Apple Native CoreSVG 175.5-->
<!DOCTYPE svg
PUBLIC "-//W3C//DTD SVG 1.1//EN"
       "http://www.w3.org/Graphics/SVG/1.1/DTD/svg11.dtd">
<svg version="1.1" xmlns="http://www.w3.org/2000/svg" xmlns:xlink="http://www.w3.org/1999/xlink" width="25.6152" height="25.7069">
 <g>
  <rect height="25.7069" opacity="0" width="25.6152" x="0" y="0"/>
  <path d="M20.752 12.4189C23.7988 11.8818 25.6152 9.41105 25.6152 7.79972C25.6152 7.42863 25.4395 7.14543 25.127 7.14543C24.6582 7.14543 23.9453 7.77043 22.5977 7.77043C20.2051 7.77043 18.7012 6.32511 18.7012 4.14738C18.7012 2.84855 19.3945 1.91105 19.3945 1.39347C19.3945 1.09074 19.1895 0.885661 18.7988 0.905192C16.9922 0.973551 14.6973 2.99504 14.1895 5.59269C14.4922 5.8759 14.7852 6.25675 15.0195 6.77433C18.3105 7.02824 20.6934 9.49894 20.752 12.4189Z" fill="#000000" fill-opacity="0.85"/>
  <path d="M4.05273 17.3798L14.6191 17.3798C17.3828 17.3798 19.5312 15.2802 19.5312 12.5751C19.5312 9.88957 17.3438 7.85832 14.4238 7.83879C13.2812 5.65129 11.25 4.39152 8.88672 4.39152C5.71289 4.39152 3.01758 6.85246 2.72461 10.0653C1.06445 10.5634 0 11.9696 0 13.6884C0 15.8759 1.65039 17.3798 4.05273 17.3798ZM12.1973 20.9443L10.0586 20.9443L10.0391 21.3642L11.1523 19.2548C11.2695 19.04 11.1816 18.8837 10.9668 18.8837L8.92578 18.8837C8.65234 18.8837 8.56445 18.9814 8.47656 19.1767L7.22656 22.0185C7.12891 22.2528 7.23633 22.3993 7.48047 22.3993L9.22852 22.3993L9.35547 21.8232L7.86133 25.4169C7.80273 25.5536 7.83203 25.6513 7.92969 25.6903C8.01758 25.7294 8.125 25.7001 8.21289 25.5927L12.3438 21.413C12.5488 21.2079 12.4805 20.9443 12.1973 20.9443Z" fill="#000000" fill-opacity="0.85"/>
 </g>
</svg>
