<?xml version="1.0" encoding="UTF-8"?>
<!--Generator: Apple Native CoreSVG 175.5-->
<!DOCTYPE svg
PUBLIC "-//W3C//DTD SVG 1.1//EN"
       "http://www.w3.org/Graphics/SVG/1.1/DTD/svg11.dtd">
<svg version="1.1" xmlns="http://www.w3.org/2000/svg" xmlns:xlink="http://www.w3.org/1999/xlink" width="28.3789" height="27.4512">
 <g>
  <rect height="27.4512" opacity="0" width="28.3789" x="0" y="0"/>
  <path d="M3.97461 24.3164L5.24414 22.1094C5.41992 21.8164 5.33203 21.4746 5.03906 21.2988C4.73633 21.1328 4.4043 21.2207 4.22852 21.5234L2.94922 23.75C2.7832 24.0234 2.87109 24.3652 3.16406 24.541C3.45703 24.707 3.80859 24.5996 3.97461 24.3164ZM7.03125 27.0605L8.30078 24.8633C8.47656 24.5605 8.37891 24.2188 8.0957 24.0527C7.79297 23.877 7.46094 23.9746 7.28516 24.2773L6.00586 26.4941C5.83984 26.7773 5.92773 27.1191 6.2207 27.2852C6.51367 27.4512 6.86523 27.3535 7.03125 27.0605ZM11.748 24.3066L13.0176 22.0996C13.1934 21.8066 13.0957 21.4648 12.8027 21.2891C12.5098 21.123 12.1777 21.2109 12.002 21.5137L10.7227 23.7402C10.5566 24.0137 10.6348 24.3555 10.9375 24.5312C11.2305 24.6973 11.582 24.5898 11.748 24.3066ZM14.7949 27.0508L16.0742 24.8535C16.25 24.5508 16.1523 24.209 15.8594 24.043C15.5664 23.8672 15.2344 23.9648 15.0488 24.2676L13.7695 26.4844C13.6035 26.7676 13.6914 27.1094 13.9941 27.2754C14.2773 27.4414 14.6387 27.3438 14.7949 27.0508Z" fill="#000000" fill-opacity="0.85"/>
  <path d="M18.2715 5.2832C15.5859 5.2832 13.4375 7.44141 13.4375 10.127C13.4375 10.2441 13.4473 10.3711 13.457 10.4785L14.9316 10.625C14.8926 10.459 14.873 10.293 14.873 10.127C14.873 8.21289 16.3672 6.71875 18.2715 6.71875C20.1758 6.71875 21.6699 8.21289 21.6699 10.127C21.6699 11.6699 20.6836 12.9688 19.2773 13.418L19.2871 14.8926C21.4844 14.3945 23.0957 12.4414 23.0957 10.127C23.0957 7.44141 20.957 5.2832 18.2715 5.2832ZM12.6074 5.61523C12.9297 5.9375 13.457 5.92773 13.7598 5.61523C14.0625 5.30273 14.0723 4.79492 13.7598 4.48242L12.2559 2.96875C11.9434 2.65625 11.4355 2.65625 11.123 2.96875C10.8105 3.28125 10.8008 3.79883 11.123 4.12109ZM18.2715 3.73047C18.7207 3.73047 19.082 3.35938 19.082 2.91992L19.082 0.810547C19.082 0.361328 18.7207 0 18.2715 0C17.8223 0 17.4609 0.361328 17.4609 0.810547L17.4609 2.91992C17.4609 3.35938 17.8223 3.73047 18.2715 3.73047ZM22.7832 5.61523C23.0859 5.92773 23.6133 5.9375 23.9355 5.61523L25.4297 4.12109C25.7422 3.79883 25.7422 3.28125 25.4297 2.96875C25.1172 2.65625 24.6094 2.65625 24.2969 2.96875L22.7832 4.48242C22.4707 4.79492 22.4805 5.30273 22.7832 5.61523ZM25.459 10.9375L27.5781 10.9375C28.0176 10.9375 28.3789 10.5762 28.3789 10.127C28.3789 9.67773 28.0176 9.31641 27.5781 9.31641L25.459 9.31641C25.0293 9.31641 24.6484 9.67773 24.6484 10.127C24.6484 10.5762 25.0293 10.9375 25.459 10.9375ZM24.2969 17.2949C24.6094 17.6074 25.1172 17.5977 25.4297 17.2852C25.7422 16.9727 25.7422 16.4551 25.4297 16.1523L23.916 14.6484C23.6035 14.3457 23.0957 14.3359 22.7832 14.6484C22.4707 14.9609 22.4707 15.4785 22.7832 15.791Z" fill="#000000" fill-opacity="0.85"/>
  <path d="M4.14062 19.7363L14.707 19.7363C17.5293 19.7363 19.7266 17.5977 19.7266 14.8438C19.7266 12.1094 17.5098 10.0488 14.5801 10.0098C13.4375 7.87109 11.3965 6.55273 8.98438 6.55273C5.75195 6.55273 3.04688 9.05273 2.72461 12.2559C1.10352 12.7734 0 14.1797 0 15.957C0 18.1543 1.66016 19.7363 4.14062 19.7363ZM4.10156 18.1738C2.44141 18.1738 1.5625 17.2168 1.5625 15.9961C1.5625 14.9609 2.16797 14.043 3.60352 13.6621C4.07227 13.5352 4.24805 13.3203 4.28711 12.832C4.51172 10.0977 6.54297 8.125 8.98438 8.125C10.8789 8.125 12.3535 9.16016 13.2617 10.9863C13.4766 11.4062 13.7109 11.5527 14.209 11.5527C16.7383 11.5527 18.1543 13.0664 18.1543 14.8926C18.1543 16.709 16.6699 18.1738 14.7363 18.1738Z" fill="#000000" fill-opacity="0.85"/>
 </g>
</svg>
