<?xml version="1.0" encoding="UTF-8"?>
<!--Generator: Apple Native CoreSVG 175.5-->
<!DOCTYPE svg
PUBLIC "-//W3C//DTD SVG 1.1//EN"
       "http://www.w3.org/Graphics/SVG/1.1/DTD/svg11.dtd">
<svg version="1.1" xmlns="http://www.w3.org/2000/svg" xmlns:xlink="http://www.w3.org/1999/xlink" width="25.5371" height="17.1003">
 <g>
  <rect height="17.1003" opacity="0" width="25.5371" x="0" y="0"/>
  <path d="M20.6738 11.5238C23.7207 10.9867 25.5371 8.50619 25.5371 6.90463C25.5371 6.52377 25.3711 6.25033 25.0586 6.25033C24.5801 6.25033 23.8672 6.87533 22.5195 6.87533C20.1367 6.87533 18.6328 5.43002 18.6328 3.25229C18.6328 1.95346 19.3164 1.01596 19.3164 0.498381C19.3164 0.195647 19.1113-0.00943132 18.7207 0.000334308C16.9141 0.0784593 14.6289 2.09994 14.1113 4.6976C14.4141 4.9808 14.707 5.36166 14.9512 5.86947C18.2324 6.12338 20.6152 8.60385 20.6738 11.5238Z" fill="#000000" fill-opacity="0.85"/>
  <path d="M4.05273 16.514L14.6191 16.514C17.3926 16.514 19.541 14.4144 19.541 11.7093C19.541 9.02377 17.3535 6.99252 14.4336 6.97299C13.291 4.78549 11.25 3.51596 8.89648 3.51596C5.71289 3.51596 3.02734 5.98666 2.72461 9.19955C1.06445 9.6976 0 11.1038 0 12.8226C0 15.0101 1.65039 16.514 4.05273 16.514Z" fill="#000000" fill-opacity="0.85"/>
 </g>
</svg>
