<?xml version="1.0" encoding="UTF-8"?>
<!--Generator: Apple Native CoreSVG 175.5-->
<!DOCTYPE svg
PUBLIC "-//W3C//DTD SVG 1.1//EN"
       "http://www.w3.org/Graphics/SVG/1.1/DTD/svg11.dtd">
<svg version="1.1" xmlns="http://www.w3.org/2000/svg" xmlns:xlink="http://www.w3.org/1999/xlink" width="22.2949" height="25.6152">
 <g>
  <rect height="25.6152" opacity="0" width="22.2949" x="0" y="0"/>
  <path d="M4.04297 24.1211C4.21875 24.1211 4.3457 23.9551 4.33594 23.7793L4.26758 22.8418L5.04883 23.3691C5.18555 23.4668 5.41016 23.4277 5.49805 23.2812C5.5957 23.1348 5.53711 22.9102 5.35156 22.8223L4.51172 22.4121L5.36133 21.9922C5.53711 21.9043 5.58594 21.6992 5.50781 21.543C5.42969 21.3867 5.18555 21.3574 5.04883 21.4551L4.26758 21.9922L4.3457 21.0547C4.36523 20.8691 4.21875 20.7129 4.04297 20.7129C3.83789 20.7129 3.71094 20.8691 3.7207 21.0547L3.78906 21.9922L2.99805 21.4551C2.86133 21.3574 2.65625 21.377 2.55859 21.543C2.4707 21.6992 2.50977 21.9043 2.69531 21.9922L3.53516 22.4121L2.69531 22.8223C2.50977 22.9102 2.46094 23.125 2.54883 23.2812C2.63672 23.4473 2.86133 23.4766 2.99805 23.3789L3.78906 22.8516L3.73047 23.7793C3.7207 23.9551 3.83789 24.1211 4.04297 24.1211ZM8.70117 25.6152C8.88672 25.6152 9.00391 25.4492 8.99414 25.2734L8.93555 24.3457L9.70703 24.8633C9.85352 24.9609 10.0684 24.9219 10.166 24.7754C10.2637 24.6289 10.2051 24.4043 10.0195 24.3164L9.17969 23.916L10.0293 23.4961C10.2051 23.4082 10.2539 23.1934 10.1758 23.0371C10.0879 22.8809 9.85352 22.8516 9.70703 22.9492L8.93555 23.4961L9.00391 22.5488C9.02344 22.3633 8.88672 22.207 8.70117 22.207C8.49609 22.207 8.37891 22.3633 8.38867 22.5488L8.44727 23.4961L7.66602 22.9492C7.51953 22.8516 7.31445 22.8711 7.2168 23.0371C7.12891 23.1934 7.16797 23.3984 7.35352 23.4961L8.20312 23.916L7.35352 24.3262C7.16797 24.4141 7.11914 24.6191 7.20703 24.7754C7.29492 24.9414 7.51953 24.9707 7.66602 24.873L8.44727 24.3457L8.39844 25.2734C8.38867 25.4492 8.49609 25.6152 8.70117 25.6152ZM14.2773 24.1602C14.4531 24.1602 14.5801 23.9941 14.5703 23.8086L14.502 22.8809L15.2832 23.4082C15.4199 23.5059 15.6348 23.4668 15.7324 23.3203C15.8301 23.1738 15.7715 22.9492 15.5859 22.8613L14.7461 22.4512L15.5957 22.0312C15.7715 21.9434 15.8203 21.7285 15.7422 21.582C15.6543 21.4258 15.4199 21.3965 15.2832 21.4941L14.502 22.0312L14.5801 21.0938C14.5996 20.8984 14.4531 20.7422 14.2773 20.7422C14.0723 20.7422 13.9453 20.8984 13.9551 21.0938L14.0234 22.0312L13.2324 21.4941C13.0957 21.3965 12.8906 21.416 12.793 21.582C12.7051 21.7285 12.7441 21.9434 12.9297 22.0312L13.7695 22.4512L12.9297 22.8613C12.7441 22.9492 12.6953 23.1641 12.7832 23.3203C12.8711 23.4766 13.0957 23.5059 13.2324 23.4082L14.0234 22.8906L13.9648 23.8086C13.9551 23.9941 14.0723 24.1602 14.2773 24.1602Z" fill="#000000" fill-opacity="0.85"/>
  <path d="M5.84961 19.9316L6.50391 18.7793C6.67969 18.4863 6.5918 18.1348 6.29883 17.959C6.00586 17.793 5.66406 17.9004 5.48828 18.1836L4.82422 19.3652C4.66797 19.6387 4.73633 19.9805 5.03906 20.1562C5.33203 20.3223 5.68359 20.2246 5.84961 19.9316ZM10.1074 21.4258L11.6309 18.7891C11.7969 18.4863 11.709 18.1445 11.4258 17.9785C11.123 17.8027 10.7812 17.9004 10.6152 18.2031L9.08203 20.8594C8.91602 21.1426 9.00391 21.4844 9.30664 21.6504C9.58984 21.8164 9.95117 21.7188 10.1074 21.4258ZM16.084 19.9707L16.7383 18.8184C16.9141 18.5254 16.8262 18.1738 16.5332 17.998C16.2402 17.832 15.8984 17.9395 15.7227 18.2227L15.0586 19.4043C14.9023 19.6777 14.9707 20.0195 15.2734 20.1953C15.5664 20.3613 15.918 20.2539 16.084 19.9707Z" fill="#000000" fill-opacity="0.85"/>
  <path d="M4.58984 16.416L16.709 16.416C19.9121 16.416 22.2949 13.9844 22.2949 10.9766C22.2949 7.86133 19.7559 5.58594 16.4453 5.58594C15.2246 3.17383 12.959 1.62109 10.1367 1.62109C6.46484 1.62109 3.4375 4.50195 3.11523 8.125C1.34766 8.64258 0 10.1758 0 12.2363C0 14.5508 1.67969 16.416 4.58984 16.416Z" fill="#000000" fill-opacity="0.85"/>
 </g>
</svg>
