<?xml version="1.0" encoding="UTF-8"?>
<!--Generator: Apple Native CoreSVG 175.5-->
<!DOCTYPE svg
PUBLIC "-//W3C//DTD SVG 1.1//EN"
       "http://www.w3.org/Graphics/SVG/1.1/DTD/svg11.dtd">
<svg version="1.1" xmlns="http://www.w3.org/2000/svg" xmlns:xlink="http://www.w3.org/1999/xlink" width="25.6152" height="24.5852">
 <g>
  <rect height="24.5852" opacity="0" width="25.6152" x="0" y="0"/>
  <path d="M3.84766 21.526L5.12695 19.3287C5.30273 19.026 5.20508 18.6842 4.91211 18.5182C4.61914 18.3424 4.28711 18.44 4.10156 18.7428L2.82227 20.9596C2.65625 21.2428 2.74414 21.5846 3.04688 21.7604C3.33008 21.9166 3.68164 21.819 3.84766 21.526ZM6.9043 24.2799L8.17383 22.0729C8.35938 21.7799 8.26172 21.4381 7.96875 21.2623C7.67578 21.0963 7.34375 21.194 7.1582 21.4869L5.87891 23.7135C5.71289 23.9869 5.80078 24.3287 6.10352 24.5045C6.38672 24.6705 6.73828 24.5729 6.9043 24.2799ZM11.6211 21.5162L12.8906 19.319C13.0664 19.0162 12.9688 18.6744 12.6855 18.5084C12.3828 18.3326 12.0508 18.4303 11.875 18.733L10.5957 20.9498C10.4297 21.233 10.5078 21.5748 10.8105 21.7506C11.1035 21.9068 11.4551 21.8092 11.6211 21.5162ZM14.6777 24.2701L15.9473 22.0631C16.123 21.7701 16.0254 21.4283 15.7324 21.2525C15.4395 21.0865 15.1074 21.1842 14.9316 21.4772L13.6523 23.7037C13.4863 23.9772 13.5645 24.319 13.8672 24.4947C14.1602 24.6607 14.5117 24.5631 14.6777 24.2701Z" fill="#000000" fill-opacity="0.85"/>
  <path d="M20.752 11.8873C23.7988 11.3502 25.6152 8.8795 25.6152 7.27794C25.6152 6.89708 25.4395 6.61387 25.127 6.61387C24.6582 6.61387 23.9453 7.23887 22.5977 7.23887C20.2051 7.23887 18.7012 5.80333 18.7012 3.61583C18.7012 2.32677 19.3945 1.38927 19.3945 0.861921C19.3945 0.559187 19.1895 0.363875 18.7988 0.37364C16.9922 0.451765 14.6973 2.46348 14.1895 5.06114C14.4922 5.34434 14.7852 5.7252 15.0195 6.24278C18.3105 6.49669 20.6934 8.97716 20.752 11.8873Z" fill="#000000" fill-opacity="0.85"/>
  <path d="M4.05273 16.8482L14.6191 16.8482C17.3828 16.8482 19.5312 14.7584 19.5312 12.0533C19.5312 9.35802 17.3438 7.32677 14.4238 7.30723C13.2812 5.1295 11.25 3.85997 8.88672 3.85997C5.71289 3.85997 3.01758 6.33067 2.72461 9.5338C1.06445 10.0318 0 11.4381 0 13.1568C0 15.3443 1.65039 16.8482 4.05273 16.8482Z" fill="#000000" fill-opacity="0.85"/>
 </g>
</svg>
