<?xml version="1.0" encoding="UTF-8"?>
<!--Generator: Apple Native CoreSVG 175.5-->
<!DOCTYPE svg
PUBLIC "-//W3C//DTD SVG 1.1//EN"
       "http://www.w3.org/Graphics/SVG/1.1/DTD/svg11.dtd">
<svg version="1.1" xmlns="http://www.w3.org/2000/svg" xmlns:xlink="http://www.w3.org/1999/xlink" width="22.2949" height="22.5156">
 <g>
  <rect height="22.5156" opacity="0" width="22.2949" x="0" y="0"/>
  <path d="M2.8418 22.2099L5.71289 17.2392C5.88867 16.9267 5.79102 16.5947 5.49805 16.4287C5.20508 16.2529 4.87305 16.3408 4.69727 16.6533L1.81641 21.6435C1.66016 21.917 1.73828 22.2588 2.03125 22.4345C2.32422 22.6006 2.67578 22.5029 2.8418 22.2099ZM6.73828 22.2099L9.59961 17.2392C9.77539 16.9267 9.6875 16.5947 9.39453 16.4287C9.0918 16.2529 8.75977 16.3408 8.58398 16.6533L5.71289 21.6435C5.55664 21.917 5.625 22.2588 5.92773 22.4345C6.2207 22.6006 6.57227 22.5029 6.73828 22.2099ZM10.625 22.2099L13.4863 17.2392C13.6621 16.9267 13.5742 16.5947 13.2812 16.4287C12.9785 16.2529 12.6465 16.3408 12.4707 16.6533L9.59961 21.6435C9.44336 21.917 9.51172 22.2588 9.81445 22.4345C10.1074 22.6006 10.459 22.5029 10.625 22.2099ZM14.4824 22.2197L17.373 17.2197C17.5391 16.9267 17.4512 16.5752 17.1582 16.4287C16.875 16.2724 16.5332 16.3408 16.3672 16.6435L13.4961 21.624C13.3203 21.917 13.4082 22.2588 13.6914 22.4345C13.9648 22.6006 14.3262 22.5029 14.4824 22.2197Z" fill="#000000" fill-opacity="0.85"/>
  <path d="M4.58984 14.8662L16.709 14.8662C19.9121 14.8662 22.2949 12.4345 22.2949 9.42673C22.2949 6.31149 19.7559 4.0361 16.4453 4.0361C15.2246 1.62399 12.959 0.0712566 10.1367 0.0712566C6.46484 0.0712566 3.4375 2.95212 3.11523 6.57516C1.34766 7.09274 0 8.62594 0 10.6865C0 13.0009 1.67969 14.8662 4.58984 14.8662ZM4.57031 13.3037C2.56836 13.3037 1.5625 12.1806 1.5625 10.7353C1.5625 9.56344 2.24609 8.50876 3.90625 8.0693C4.44336 7.92282 4.63867 7.66891 4.6875 7.12204C4.91211 3.92868 7.30469 1.63376 10.1367 1.63376C12.334 1.63376 14.0625 2.84469 15.1172 5.0029C15.3418 5.48141 15.6348 5.64743 16.2109 5.64743C19.1016 5.64743 20.7324 7.38571 20.7324 9.46579C20.7324 11.5947 19.0332 13.3037 16.8066 13.3037Z" fill="#000000" fill-opacity="0.85"/>
 </g>
</svg>
