<?xml version="1.0" encoding="UTF-8"?>
<!--Generator: Apple Native CoreSVG 175.5-->
<!DOCTYPE svg
PUBLIC "-//W3C//DTD SVG 1.1//EN"
       "http://www.w3.org/Graphics/SVG/1.1/DTD/svg11.dtd">
<svg version="1.1" xmlns="http://www.w3.org/2000/svg" xmlns:xlink="http://www.w3.org/1999/xlink" width="22.2949" height="24.5155">
 <g>
  <rect height="24.5155" opacity="0" width="22.2949" x="0" y="0"/>
  <path d="M13.4961 19.4892L11.2793 19.4892L11.2598 19.9286L12.4512 17.6435C12.5684 17.4286 12.4805 17.2626 12.2656 17.2626L10.1465 17.2626C9.86328 17.2626 9.76562 17.3603 9.67773 17.5653L8.34961 20.5927C8.24219 20.8368 8.34961 20.9833 8.60352 20.9833L10.4102 20.9833L10.5371 20.4071L8.96484 24.2255C8.91602 24.3525 8.94531 24.4599 9.0332 24.4989C9.12109 24.538 9.22852 24.5087 9.33594 24.4013L13.6523 19.9775C13.8574 19.7626 13.7793 19.4892 13.4961 19.4892Z" fill="#000000" fill-opacity="0.85"/>
  <path d="M4.58984 15.8661L16.709 15.8661C19.9121 15.8661 22.2949 13.4345 22.2949 10.4267C22.2949 7.31144 19.7559 5.03605 16.4453 5.03605C15.2246 2.62394 12.959 1.07121 10.1367 1.07121C6.46484 1.07121 3.4375 3.95207 3.11523 7.57511C1.34766 8.09269 0 9.6259 0 11.6864C0 14.0009 1.67969 15.8661 4.58984 15.8661ZM4.57031 14.3036C2.56836 14.3036 1.5625 13.1806 1.5625 11.7353C1.5625 10.5634 2.24609 9.50871 3.90625 9.06925C4.44336 8.92277 4.63867 8.66886 4.6875 8.12199C4.91211 4.92863 7.30469 2.63371 10.1367 2.63371C12.334 2.63371 14.0625 3.84465 15.1172 6.00285C15.3418 6.48136 15.6348 6.64738 16.2109 6.64738C19.1016 6.64738 20.7324 8.38566 20.7324 10.4657C20.7324 12.5946 19.0332 14.3036 16.8066 14.3036Z" fill="#000000" fill-opacity="0.85"/>
 </g>
</svg>
