<?xml version="1.0" encoding="UTF-8"?>
<!--Generator: Apple Native CoreSVG 175.5-->
<!DOCTYPE svg
PUBLIC "-//W3C//DTD SVG 1.1//EN"
       "http://www.w3.org/Graphics/SVG/1.1/DTD/svg11.dtd">
<svg version="1.1" xmlns="http://www.w3.org/2000/svg" xmlns:xlink="http://www.w3.org/1999/xlink" width="25.6661" height="17.3016">
 <g>
  <rect height="17.3016" opacity="0" width="25.6661" x="0" y="0"/>
  <path d="M18.8672 11.9077C22.5195 12.1225 24.7656 10.1889 25.5566 8.14789C25.8789 7.35687 25.459 6.65374 24.6973 6.65374C24.1113 6.65374 23.6328 6.90765 22.5977 6.90765C20.1074 6.90765 18.7891 5.52093 18.7891 3.25531C18.7891 2.15179 19.1309 1.54632 19.1309 0.999448C19.1309 0.198666 18.4375-0.201724 17.5781 0.10101C15.5078 0.774838 13.75 2.98187 13.75 5.68695C13.75 6.55609 13.9062 7.39593 14.2188 8.16742L15.8398 8.13812C15.4004 7.41546 15.1855 6.55609 15.1855 5.65765C15.1855 3.76312 16.3086 2.29828 17.5879 1.59515L17.6953 1.67328C17.5293 2.14203 17.3828 2.79632 17.3828 3.54828C17.3828 6.36078 19.4336 8.2846 22.2656 8.2846C22.959 8.2846 23.6035 8.16742 24.0527 8.02093L24.1211 8.08929C23.4668 9.32953 21.709 10.6967 18.8672 10.4721Z" fill="#000000" fill-opacity="0.85"/>
  <path d="M4.14062 16.8881L14.707 16.8881C17.5293 16.8881 19.7266 14.7494 19.7266 11.9955C19.7266 9.26117 17.5098 7.20062 14.5801 7.16156C13.4375 5.02289 11.3965 3.71429 8.98438 3.71429C5.75195 3.71429 3.04688 6.20453 2.72461 9.41742C1.10352 9.92523 0 11.3315 0 13.1088C0 15.3061 1.66016 16.8881 4.14062 16.8881ZM4.10156 15.3256C2.44141 15.3256 1.5625 14.3686 1.5625 13.1479C1.5625 12.1127 2.16797 11.2045 3.60352 10.8139C4.07227 10.6967 4.24805 10.4819 4.28711 9.98382C4.51172 7.24945 6.54297 5.27679 8.98438 5.27679C10.8789 5.27679 12.3535 6.32171 13.2617 8.13812C13.4766 8.55804 13.7109 8.70453 14.209 8.70453C16.7383 8.70453 18.1543 10.228 18.1543 12.0444C18.1543 13.8608 16.6699 15.3256 14.7363 15.3256Z" fill="#000000" fill-opacity="0.85"/>
 </g>
</svg>
