<?xml version="1.0" encoding="UTF-8"?>
<!--Generator: Apple Native CoreSVG 175.5-->
<!DOCTYPE svg
PUBLIC "-//W3C//DTD SVG 1.1//EN"
       "http://www.w3.org/Graphics/SVG/1.1/DTD/svg11.dtd">
<svg version="1.1" xmlns="http://www.w3.org/2000/svg" xmlns:xlink="http://www.w3.org/1999/xlink" width="23.3398" height="15.5957">
 <g>
  <rect height="15.5957" opacity="0" width="23.3398" x="0" y="0"/>
  <path d="M4.78516 15.459L17.5 15.459C20.791 15.459 23.3398 12.9688 23.3398 9.78516C23.3398 6.57227 20.7324 4.15039 17.1875 4.15039C15.8887 1.57227 13.5059 0 10.6055 0C6.81641 0 3.61328 2.93945 3.27148 6.83594C1.31836 7.39258 0 9.0332 0 11.1133C0 13.5156 1.74805 15.459 4.78516 15.459ZM4.76562 13.8867C2.76367 13.8867 1.57227 12.8027 1.57227 11.1621C1.57227 9.75586 2.4707 8.74023 4.05273 8.32031C4.59961 8.18359 4.80469 7.92969 4.84375 7.36328C5.07812 4.05273 7.55859 1.57227 10.6055 1.57227C12.959 1.57227 14.7754 2.88086 15.8691 5.12695C16.1035 5.60547 16.3867 5.77148 16.9824 5.77148C20.0391 5.77148 21.7578 7.61719 21.7578 9.82422C21.7578 12.0996 19.9414 13.8867 17.6074 13.8867Z" fill="#000000" fill-opacity="0.85"/>
 </g>
</svg>
