<?xml version="1.0" encoding="UTF-8"?>
<!--Generator: Apple Native CoreSVG 175.5-->
<!DOCTYPE svg
PUBLIC "-//W3C//DTD SVG 1.1//EN"
       "http://www.w3.org/Graphics/SVG/1.1/DTD/svg11.dtd">
<svg version="1.1" xmlns="http://www.w3.org/2000/svg" xmlns:xlink="http://www.w3.org/1999/xlink" width="19.6191" height="19.5215">
 <g>
  <rect height="19.5215" opacity="0" width="19.6191" x="0" y="0"/>
  <path d="M6.12305 14.2773C5.60547 14.2773 5.35156 14.0332 5.35156 13.4961L5.35156 6.03516C5.35156 5.50781 5.60547 5.26367 6.12305 5.26367L13.6035 5.26367C14.1211 5.26367 14.375 5.50781 14.375 6.03516L14.375 13.4961C14.375 14.0332 14.1211 14.2773 13.6035 14.2773ZM6.92383 12.9492L12.793 12.9492C12.9492 12.9492 13.0469 12.8516 13.0469 12.7051L13.0469 6.83594C13.0469 6.67969 12.9492 6.5918 12.793 6.5918L6.92383 6.5918C6.77734 6.5918 6.67969 6.67969 6.67969 6.83594L6.67969 12.7051C6.67969 12.8516 6.77734 12.9492 6.92383 12.9492ZM2.60742 17.8027L17.1191 17.8027C17.5879 17.8027 17.9004 17.5 17.9004 17.0312L17.9004 2.50977C17.9004 2.04102 17.5879 1.72852 17.1191 1.72852L2.60742 1.72852C2.12891 1.72852 1.82617 2.04102 1.82617 2.50977L1.82617 17.0312C1.82617 17.5 2.12891 17.8027 2.60742 17.8027ZM7.41211 16.4258L5.83984 16.4258L5.83984 18.7402C5.83984 19.209 6.15234 19.5215 6.62109 19.5215C7.08984 19.5215 7.41211 19.209 7.41211 18.7402ZM10.6445 16.4258L9.07227 16.4258L9.07227 18.7402C9.07227 19.209 9.39453 19.5215 9.86328 19.5215C10.332 19.5215 10.6445 19.209 10.6445 18.7402ZM13.916 16.4258L12.3438 16.4258L12.3438 18.7402C12.3438 19.209 12.6562 19.5215 13.125 19.5215C13.5938 19.5215 13.916 19.209 13.916 18.7402ZM16.5234 12.207L16.5234 13.7793L18.8281 13.7793C19.2969 13.7793 19.6191 13.457 19.6191 12.9883C19.6191 12.5195 19.2969 12.207 18.8281 12.207ZM16.5234 8.96484L16.5234 10.5371L18.8281 10.5371C19.2969 10.5371 19.6191 10.2246 19.6191 9.75586C19.6191 9.28711 19.2969 8.96484 18.8281 8.96484ZM16.5234 5.73242L16.5234 7.30469L18.8281 7.30469C19.2969 7.30469 19.6191 6.98242 19.6191 6.51367C19.6191 6.04492 19.2969 5.73242 18.8281 5.73242ZM12.3145 3.10547L13.8867 3.10547L13.8867 0.800781C13.8867 0.332031 13.5645 0.0195312 13.0957 0.0195312C12.627 0.0195312 12.3145 0.332031 12.3145 0.800781ZM9.07227 3.10547L10.6445 3.10547L10.6445 0.800781C10.6445 0.332031 10.332 0.0195312 9.86328 0.0195312C9.39453 0.0195312 9.07227 0.332031 9.07227 0.800781ZM5.83984 3.10547L7.41211 3.10547L7.41211 0.800781C7.41211 0.332031 7.08984 0.0195312 6.62109 0.0195312C6.15234 0.0195312 5.83984 0.332031 5.83984 0.800781ZM3.20312 7.31445L3.20312 5.74219L0.78125 5.74219C0.3125 5.74219 0 6.05469 0 6.52344C0 6.99219 0.3125 7.31445 0.78125 7.31445ZM3.20312 10.5469L3.20312 8.97461L0.78125 8.97461C0.3125 8.97461 0 9.29688 0 9.76562C0 10.2344 0.3125 10.5469 0.78125 10.5469ZM3.20312 13.7891L3.20312 12.2168L0.78125 12.2168C0.3125 12.2168 0 12.5293 0 12.998C0 13.4668 0.3125 13.7891 0.78125 13.7891Z" fill="#000000" fill-opacity="0.85"/>
 </g>
</svg>
