<?xml version="1.0" encoding="UTF-8"?>
<!--Generator: Apple Native CoreSVG 175.5-->
<!DOCTYPE svg
PUBLIC "-//W3C//DTD SVG 1.1//EN"
       "http://www.w3.org/Graphics/SVG/1.1/DTD/svg11.dtd">
<svg version="1.1" xmlns="http://www.w3.org/2000/svg" xmlns:xlink="http://www.w3.org/1999/xlink" width="24.7461" height="18.623">
 <g>
  <rect height="18.623" opacity="0" width="24.7461" x="0" y="0"/>
  <path d="M3.06641 17.6562L11.0059 17.6562L11.0059 16.084L3.0957 16.084C2.11914 16.084 1.57227 15.5664 1.57227 14.5508L1.57227 4.0918C1.57227 3.07617 2.11914 2.54883 3.0957 2.54883L19.8633 2.54883C20.8301 2.54883 21.377 3.07617 21.377 4.0918L21.377 10.3613C21.6406 10.3125 21.9043 10.2832 22.1777 10.2832C22.4414 10.2832 22.7051 10.3027 22.9492 10.3516L22.9492 4.00391C22.9492 1.99219 21.9336 0.976562 19.8828 0.976562L3.06641 0.976562C1.03516 0.976562 0 1.99219 0 4.00391L0 14.6387C0 16.6504 1.03516 17.6562 3.06641 17.6562ZM0.800781 7.08008L22.168 7.08008L22.168 4.86328L0.800781 4.86328Z" fill="#000000" fill-opacity="0.85"/>
  <path d="M12.959 18.6133C13.3496 18.6133 13.6035 18.3594 13.6035 17.9785L13.6035 12.3242C13.6035 11.9238 13.3301 11.6504 12.9102 11.6504C12.6953 11.6504 12.5391 11.709 12.2949 11.875L10.8203 12.832C10.5859 12.9785 10.4785 13.1641 10.4785 13.3887C10.4785 13.7012 10.7227 13.9258 11.0449 13.9258C11.1719 13.9258 11.2891 13.8867 11.416 13.7988L12.2852 13.252L12.3438 13.252L12.3438 17.9785C12.3438 18.3594 12.5977 18.6133 12.959 18.6133ZM15.0879 18.5254L18.7598 18.5254C19.1016 18.5254 19.3555 18.2812 19.3555 17.9492C19.3555 17.5977 19.1016 17.3438 18.7598 17.3438L16.4355 17.3438L16.4355 17.2949L17.7148 16.0254C18.7988 14.9609 19.1406 14.375 19.1406 13.6328C19.1406 12.4805 18.1445 11.6113 16.8066 11.6113C15.7617 11.6113 14.873 12.207 14.5801 13.0664C14.5312 13.2129 14.4922 13.3594 14.4922 13.5254C14.4922 13.877 14.7363 14.1113 15.0684 14.1113C15.3711 14.1113 15.5566 13.9648 15.6445 13.6328C15.6641 13.5547 15.6836 13.4863 15.7129 13.418C15.9082 13.0078 16.3086 12.7734 16.8066 12.7734C17.3926 12.7734 17.8711 13.1934 17.8711 13.6816C17.8711 14.1211 17.6758 14.4238 16.8457 15.2441L14.7754 17.3047C14.5508 17.5195 14.4629 17.7051 14.4629 17.9297C14.4629 18.2812 14.7168 18.5254 15.0879 18.5254ZM22.1875 18.623C23.6621 18.623 24.7461 17.7344 24.7461 16.5234C24.7461 15.5957 24.1016 14.8828 23.2129 14.7949L23.2129 15.1367C24.0039 14.9023 24.4727 14.2871 24.4727 13.4961C24.4727 12.4023 23.5059 11.6113 22.1777 11.6113C21.1719 11.6113 20.3418 12.0703 20 12.8027C19.9121 12.9883 19.8633 13.1934 19.8633 13.3887C19.8633 13.7305 20.0977 13.9648 20.4395 13.9648C20.7422 13.9648 20.918 13.8281 21.0059 13.5352C21.1719 13.0469 21.5625 12.7734 22.1484 12.7734C22.8125 12.7734 23.2129 13.0957 23.2129 13.6035C23.2129 14.1309 22.7832 14.4629 22.1094 14.4629L21.6211 14.4629C21.2891 14.4629 21.0547 14.707 21.0547 15.0293C21.0547 15.3516 21.2891 15.5859 21.6211 15.5859L22.1191 15.5859C22.9785 15.5859 23.4473 15.918 23.4473 16.5234C23.4473 17.0801 22.9492 17.4512 22.1973 17.4512C21.5234 17.4512 21.0547 17.168 20.8984 16.6895C20.8105 16.3965 20.6152 16.2598 20.3223 16.2598C19.9707 16.2598 19.7168 16.5039 19.7168 16.8555C19.7168 17.041 19.7656 17.2461 19.8633 17.4219C20.2734 18.1836 21.1035 18.623 22.1875 18.623Z" fill="#000000" fill-opacity="0.85"/>
 </g>
</svg>
