<?xml version="1.0" encoding="UTF-8"?>
<!--Generator: Apple Native CoreSVG 175.5-->
<!DOCTYPE svg
PUBLIC "-//W3C//DTD SVG 1.1//EN"
       "http://www.w3.org/Graphics/SVG/1.1/DTD/svg11.dtd">
<svg version="1.1" xmlns="http://www.w3.org/2000/svg" xmlns:xlink="http://www.w3.org/1999/xlink" width="19.1113" height="24.3362">
 <g>
  <rect height="24.3362" opacity="0" width="19.1113" x="0" y="0"/>
  <path d="M19.1113 15.9718C19.1113 15.5324 18.7988 15.2394 18.3398 15.2394L6.83594 15.2394C6.63086 15.2394 6.55273 15.171 6.55273 14.9562L6.55273 3.54995C6.55273 3.06167 6.24023 2.72964 5.77148 2.72964C5.29297 2.72964 4.98047 3.06167 4.98047 3.54995L4.98047 15.9425C4.98047 16.4113 5.2832 16.714 5.76172 16.714L18.3398 16.714C18.7988 16.714 19.1113 16.421 19.1113 15.9718ZM0 8.44253C0 8.88198 0.3125 9.17495 0.761719 9.17495L12.334 9.17495C12.5391 9.17495 12.6172 9.25307 12.6172 9.45815L12.6172 20.9328C12.6172 21.421 12.9297 21.7531 13.3984 21.7531C13.877 21.7531 14.1895 21.421 14.1895 20.9328L14.1895 8.48159C14.1895 8.01284 13.877 7.70034 13.4082 7.70034L0.761719 7.70034C0.3125 7.70034 0 8.00307 0 8.44253Z" fill="#000000" fill-opacity="0.85"/>
  <path d="M0.214844 17.671C0.214844 20.4738 2.08008 22.3585 4.89258 22.3585L5.08789 22.3585L5.08789 23.6378C5.08789 24.3605 5.63477 24.5265 6.18164 24.1164L8.64258 22.3097C9.05273 22.007 9.0625 21.6652 8.64258 21.3527L6.18164 19.5558C5.63477 19.1652 5.08789 19.3214 5.08789 20.0246L5.08789 21.2257L4.90234 21.2257C2.7832 21.2257 1.43555 19.7511 1.43555 17.671L1.43555 16.216C1.43555 15.8839 1.16211 15.6007 0.830078 15.6007C0.498047 15.6007 0.214844 15.8839 0.214844 16.216ZM10.5371 3.07143L13.0078 4.86831C13.5449 5.2687 14.1016 5.10268 14.1016 4.39956L14.1016 3.20815L14.2871 3.20815C16.4062 3.20815 17.7441 4.673 17.7441 6.76284L17.7441 8.21792C17.7441 8.54995 18.0176 8.82339 18.3594 8.82339C18.6914 8.82339 18.9648 8.54995 18.9648 8.21792L18.9648 6.75307C18.9648 3.9601 17.0996 2.07534 14.2969 2.07534L14.1016 2.07534L14.1016 0.786277C14.1016 0.0636205 13.5449-0.102395 13.0078 0.307761L10.5371 2.1144C10.1367 2.4269 10.127 2.7687 10.5371 3.07143Z" fill="#000000" fill-opacity="0.85"/>
 </g>
</svg>
