<?xml version="1.0" encoding="UTF-8"?>
<!--Generator: Apple Native CoreSVG 175.5-->
<!DOCTYPE svg
PUBLIC "-//W3C//DTD SVG 1.1//EN"
       "http://www.w3.org/Graphics/SVG/1.1/DTD/svg11.dtd">
<svg version="1.1" xmlns="http://www.w3.org/2000/svg" xmlns:xlink="http://www.w3.org/1999/xlink" width="22.6074" height="20.8496">
 <g>
  <rect height="20.8496" opacity="0" width="22.6074" x="0" y="0"/>
  <path d="M3.01758 18.9258L19.5898 18.9258C21.6113 18.9258 22.6074 17.9395 22.6074 15.9473L22.6074 6.44531C22.6074 4.44336 21.6113 3.4668 19.5898 3.4668L3.01758 3.4668C1.00586 3.4668 0 4.44336 0 6.44531L0 15.9473C0 17.9395 1.00586 18.9258 3.01758 18.9258ZM6.34766 4.31641L7.86133 4.31641L7.86133 2.58789C7.86133 1.8457 8.30078 1.42578 9.0625 1.42578L13.5449 1.42578C14.3066 1.42578 14.7363 1.8457 14.7363 2.58789L14.7363 4.29688L16.25 4.29688L16.25 2.69531C16.25 0.859375 15.2832 0 13.5156 0L9.08203 0C7.41211 0 6.34766 0.859375 6.34766 2.69531Z" fill="#000000" fill-opacity="0.85"/>
  <path d="M6.70898 12.0605L6.70898 10.3027C6.70898 9.79492 7.05078 9.44336 7.56836 9.44336L9.57031 9.44336L9.57031 7.45117C9.57031 6.93359 9.91211 6.5918 10.4297 6.5918L12.1875 6.5918C12.6953 6.5918 13.0469 6.93359 13.0469 7.45117L13.0469 9.44336L15.0391 9.44336C15.5566 9.44336 15.9082 9.79492 15.9082 10.3027L15.9082 12.0605C15.9082 12.5684 15.5566 12.9199 15.0391 12.9199L13.0469 12.9199L13.0469 14.9121C13.0469 15.4395 12.6953 15.7812 12.1875 15.7812L10.4297 15.7812C9.91211 15.7812 9.57031 15.4395 9.57031 14.9121L9.57031 12.9199L7.56836 12.9199C7.06055 12.9199 6.70898 12.5684 6.70898 12.0605Z" fill="#ffffff"/>
 </g>
</svg>
