<?xml version="1.0" encoding="UTF-8"?>
<!--Generator: Apple Native CoreSVG 175.5-->
<!DOCTYPE svg
PUBLIC "-//W3C//DTD SVG 1.1//EN"
       "http://www.w3.org/Graphics/SVG/1.1/DTD/svg11.dtd">
<svg version="1.1" xmlns="http://www.w3.org/2000/svg" xmlns:xlink="http://www.w3.org/1999/xlink" width="16.5723" height="24.7559">
 <g>
  <rect height="24.7559" opacity="0" width="16.5723" x="0" y="0"/>
  <path d="M7.86133 7.17773C7.86133 5.78125 8.4375 4.58984 8.75 3.90625C9.17969 2.97852 9.80469 1.89453 10.4102 0.888672L2.33398 0.888672C0.927734 0.888672 0 1.79688 0 3.17383L0 19.834C0 21.2109 0.927734 22.1289 2.33398 22.1289L12.5098 22.1289C13.916 22.1289 14.834 21.2109 14.834 19.834L14.834 11.748C14.248 11.9629 13.584 12.0801 12.8809 12.0801C9.95117 12.0801 7.86133 10.0586 7.86133 7.17773ZM4.16016 6.60156C3.36914 6.60156 2.73438 5.95703 2.73438 5.16602C2.73438 4.38477 3.36914 3.75 4.16016 3.75C4.94141 3.75 5.58594 4.38477 5.58594 5.16602C5.58594 5.95703 4.94141 6.60156 4.16016 6.60156ZM3.21289 14.5605C2.86133 14.5605 2.57812 14.2871 2.57812 13.9258C2.57812 13.5742 2.86133 13.291 3.21289 13.291L6.14258 13.291C6.50391 13.291 6.78711 13.5742 6.78711 13.9258C6.78711 14.2871 6.50391 14.5605 6.14258 14.5605ZM3.21289 17.0801C2.86133 17.0801 2.57812 16.8066 2.57812 16.4453C2.57812 16.084 2.86133 15.8105 3.21289 15.8105L6.14258 15.8105C6.50391 15.8105 6.78711 16.084 6.78711 16.4453C6.78711 16.8066 6.50391 17.0801 6.14258 17.0801ZM3.21289 19.5996C2.86133 19.5996 2.57812 19.3164 2.57812 18.9648C2.57812 18.6035 2.86133 18.3203 3.21289 18.3203L6.14258 18.3203C6.50391 18.3203 6.78711 18.6035 6.78711 18.9648C6.78711 19.3164 6.50391 19.5996 6.14258 19.5996ZM8.69141 14.5605C8.33008 14.5605 8.04688 14.2871 8.04688 13.9258C8.04688 13.5742 8.33008 13.291 8.69141 13.291L11.6211 13.291C11.9727 13.291 12.2559 13.5742 12.2559 13.9258C12.2559 14.2871 11.9727 14.5605 11.6211 14.5605ZM8.69141 17.0801C8.33008 17.0801 8.04688 16.8066 8.04688 16.4453C8.04688 16.084 8.33008 15.8105 8.69141 15.8105L11.6211 15.8105C11.9727 15.8105 12.2559 16.084 12.2559 16.4453C12.2559 16.8066 11.9727 17.0801 11.6211 17.0801ZM8.69141 19.5996C8.33008 19.5996 8.04688 19.3164 8.04688 18.9648C8.04688 18.6035 8.33008 18.3203 8.69141 18.3203L11.6211 18.3203C11.9727 18.3203 12.2559 18.6035 12.2559 18.9648C12.2559 19.3164 11.9727 19.5996 11.6211 19.5996ZM2.83203 23.8477C3.30078 23.8477 3.61328 23.5254 3.61328 23.0566L3.61328 21.1426L2.04102 21.1426L2.04102 23.0566C2.04102 23.5254 2.36328 23.8477 2.83203 23.8477ZM12.002 23.8477C12.4805 23.8477 12.793 23.5254 12.793 23.0566L12.793 21.1426L11.2207 21.1426L11.2207 23.0566C11.2207 23.5254 11.5332 23.8477 12.002 23.8477Z" fill="#000000" fill-opacity="0.85"/>
  <path d="M12.8809 10.752C15.0879 10.752 16.5723 9.31641 16.5723 7.17773C16.5723 6.11328 16.123 5.17578 15.8008 4.45312C15.2148 3.19336 14.2578 1.62109 13.4375 0.351562C13.2715 0.107422 13.0957 0 12.8809 0C12.666 0 12.4902 0.107422 12.3242 0.351562C11.5039 1.62109 10.5469 3.19336 9.96094 4.45312C9.63867 5.17578 9.18945 6.11328 9.18945 7.17773C9.18945 9.31641 10.6738 10.752 12.8809 10.752Z" fill="#000000" fill-opacity="0.85"/>
 </g>
</svg>
