<?xml version="1.0" encoding="UTF-8"?>
<!--Generator: Apple Native CoreSVG 175.5-->
<!DOCTYPE svg
PUBLIC "-//W3C//DTD SVG 1.1//EN"
       "http://www.w3.org/Graphics/SVG/1.1/DTD/svg11.dtd">
<svg version="1.1" xmlns="http://www.w3.org/2000/svg" xmlns:xlink="http://www.w3.org/1999/xlink" width="21.1621" height="17.998">
 <g>
  <rect height="17.998" opacity="0" width="21.1621" x="0" y="0"/>
  <path d="M3.06641 17.998L11.543 17.9883C12.6855 17.9883 13.6719 17.6367 14.4727 16.7969L20.2344 10.8496C20.8789 10.1953 21.1621 9.59961 21.1621 8.99414C21.1621 8.37891 20.8789 7.79297 20.2344 7.13867L14.4824 1.16211C13.6816 0.3125 12.6953 0.0195312 11.5527 0.0195312L3.06641 0.0195312C1.03516 0.0195312 0 1.02539 0 3.04688L0 14.9707C0 16.9922 1.03516 17.998 3.06641 17.998ZM3.0957 16.4258C2.11914 16.4258 1.57227 15.9082 1.57227 14.8926L1.57227 3.125C1.57227 2.10938 2.11914 1.5918 3.0957 1.5918L11.582 1.5918C12.3145 1.5918 12.8027 1.71875 13.3008 2.23633L19.0137 8.16406C19.3359 8.50586 19.4531 8.74023 19.4531 8.99414C19.4531 9.23828 19.3457 9.47266 19.0137 9.81445L13.291 15.7227C12.7832 16.25 12.3145 16.4258 11.5723 16.4258Z" fill="#000000" fill-opacity="0.85"/>
  <path d="M5.46875 13.1348C5.69336 13.1348 5.88867 13.0469 6.03516 12.8906L8.79883 10.1074L11.582 12.8906C11.7285 13.0371 11.9141 13.1348 12.1387 13.1348C12.5781 13.1348 12.9199 12.7734 12.9199 12.3438C12.9199 12.1191 12.8418 11.9336 12.6855 11.7871L9.91211 9.01367L12.6953 6.2207C12.8613 6.05469 12.9297 5.88867 12.9297 5.67383C12.9297 5.23438 12.5879 4.89258 12.1484 4.89258C11.9434 4.89258 11.7773 4.96094 11.6113 5.12695L8.79883 7.91992L6.01562 5.13672C5.86914 4.98047 5.69336 4.91211 5.46875 4.91211C5.03906 4.91211 4.6875 5.24414 4.6875 5.68359C4.6875 5.89844 4.77539 6.08398 4.92188 6.23047L7.69531 9.01367L4.92188 11.7969C4.77539 11.9336 4.6875 12.1289 4.6875 12.3438C4.6875 12.7734 5.03906 13.1348 5.46875 13.1348Z" fill="#000000" fill-opacity="0.85"/>
 </g>
</svg>
