<?xml version="1.0" encoding="UTF-8"?>
<!--Generator: Apple Native CoreSVG 175.5-->
<!DOCTYPE svg
PUBLIC "-//W3C//DTD SVG 1.1//EN"
       "http://www.w3.org/Graphics/SVG/1.1/DTD/svg11.dtd">
<svg version="1.1" xmlns="http://www.w3.org/2000/svg" xmlns:xlink="http://www.w3.org/1999/xlink" width="23.5547" height="21.9629">
 <g>
  <rect height="21.9629" opacity="0" width="23.5547" x="0" y="0"/>
  <path d="M11.7773 18.877C15.6934 18.877 18.877 15.7129 18.877 11.7676C18.877 7.8418 15.6934 4.67773 11.7773 4.67773C7.86133 4.67773 4.66797 7.8418 4.66797 11.7676C4.66797 15.7031 7.86133 18.877 11.7773 18.877ZM11.7773 6.25977C14.8242 6.25977 17.2949 8.73047 17.2949 11.7676C17.2949 14.8145 14.8242 17.2852 11.7773 17.2852C8.73047 17.2852 6.25 14.8145 6.25 11.7676C6.25 8.73047 8.73047 6.25977 11.7773 6.25977ZM15.293 16.1816L16.3086 15.1367L12.2559 11.0938C11.9824 10.8203 11.5039 10.8203 11.2402 11.0938C10.9473 11.4062 10.9473 11.8359 11.2402 12.1289Z" fill="#000000" fill-opacity="0.85"/>
  <path d="M19.2676 20.4199C19.9316 20.4199 20.4785 19.8926 20.4785 19.209C20.4785 18.5449 19.9414 17.998 19.2676 17.998C18.5938 17.998 18.0469 18.5352 18.0469 19.209C18.0469 19.8828 18.584 20.4199 19.2676 20.4199ZM22.334 12.9883C22.998 12.9883 23.5547 12.4414 23.5547 11.7676C23.5547 11.1035 23.0078 10.5566 22.334 10.5566C21.6699 10.5566 21.1133 11.084 21.1133 11.7676C21.1133 12.4316 21.6504 12.9883 22.334 12.9883ZM19.2676 5.55664C19.9316 5.55664 20.4785 5.01953 20.4785 4.3457C20.4785 3.67188 19.9414 3.13477 19.2676 3.13477C18.5938 3.13477 18.0469 3.66211 18.0469 4.3457C18.0469 5.00977 18.584 5.55664 19.2676 5.55664ZM11.7773 2.43164C12.4414 2.43164 12.9883 1.89453 12.9883 1.21094C12.9883 0.546875 12.4512 0 11.7773 0C11.1035 0 10.5664 0.537109 10.5664 1.21094C10.5664 1.88477 11.0938 2.43164 11.7773 2.43164ZM4.29688 5.53711C4.96094 5.53711 5.50781 5 5.50781 4.32617C5.50781 3.65234 4.9707 3.11523 4.29688 3.11523C3.63281 3.11523 3.08594 3.64258 3.08594 4.32617C3.08594 4.99023 3.62305 5.53711 4.29688 5.53711ZM1.2207 12.9883C1.875 12.9883 2.43164 12.4414 2.43164 11.7676C2.43164 11.1035 1.89453 10.5566 1.2207 10.5566C0.556641 10.5566 0 11.084 0 11.7676C0 12.4316 0.546875 12.9883 1.2207 12.9883ZM4.30664 20.4297C4.9707 20.4297 5.51758 19.9023 5.51758 19.2188C5.51758 18.5547 4.98047 18.0078 4.30664 18.0078C3.64258 18.0078 3.0957 18.5449 3.0957 19.2188C3.0957 19.8926 3.63281 20.4297 4.30664 20.4297Z" fill="#000000" fill-opacity="0.85"/>
 </g>
</svg>
