<?xml version="1.0" encoding="UTF-8"?>
<!--Generator: Apple Native CoreSVG 175.5-->
<!DOCTYPE svg
PUBLIC "-//W3C//DTD SVG 1.1//EN"
       "http://www.w3.org/Graphics/SVG/1.1/DTD/svg11.dtd">
<svg version="1.1" xmlns="http://www.w3.org/2000/svg" xmlns:xlink="http://www.w3.org/1999/xlink" width="23.5547" height="21.9629">
 <g>
  <rect height="21.9629" opacity="0" width="23.5547" x="0" y="0"/>
  <path d="M11.7773 18.877C15.6934 18.877 18.877 15.7031 18.877 11.7676C18.877 8.0957 16.084 5.07812 12.5 4.7168L12.4902 11.9141C12.4902 12.3047 12.1484 12.6465 11.7773 12.6367C11.3477 12.6172 11.0449 12.3145 11.0449 11.8945L11.0449 4.7168C7.4707 5.07812 4.66797 8.0957 4.66797 11.7676C4.66797 15.7129 7.86133 18.877 11.7773 18.877Z" fill="#000000" fill-opacity="0.85"/>
  <path d="M4.28711 20.4199C4.96094 20.4199 5.49805 19.8828 5.49805 19.209C5.49805 18.5352 4.95117 17.998 4.28711 17.998C3.61328 17.998 3.07617 18.5449 3.07617 19.209C3.07617 19.8926 3.62305 20.4199 4.28711 20.4199ZM1.2207 12.9883C1.89453 12.9883 2.43164 12.4316 2.43164 11.7676C2.43164 11.084 1.875 10.5566 1.2207 10.5566C0.546875 10.5566 0 11.1035 0 11.7676C0 12.4414 0.556641 12.9883 1.2207 12.9883ZM4.28711 5.55664C4.96094 5.55664 5.49805 5.00977 5.49805 4.3457C5.49805 3.66211 4.95117 3.13477 4.28711 3.13477C3.61328 3.13477 3.07617 3.67188 3.07617 4.3457C3.07617 5.01953 3.62305 5.55664 4.28711 5.55664ZM11.7773 2.43164C12.4512 2.43164 12.9883 1.88477 12.9883 1.21094C12.9883 0.537109 12.4414 0 11.7773 0C11.0938 0 10.5664 0.546875 10.5664 1.21094C10.5664 1.89453 11.1035 2.43164 11.7773 2.43164ZM19.2578 5.53711C19.9316 5.53711 20.4688 4.99023 20.4688 4.32617C20.4688 3.64258 19.9219 3.11523 19.2578 3.11523C18.5742 3.11523 18.0371 3.65234 18.0371 4.32617C18.0371 5 18.584 5.53711 19.2578 5.53711ZM22.334 12.9883C23.0078 12.9883 23.5547 12.4316 23.5547 11.7676C23.5547 11.084 22.998 10.5566 22.334 10.5566C21.6504 10.5566 21.1133 11.1035 21.1133 11.7676C21.1133 12.4414 21.6699 12.9883 22.334 12.9883ZM19.248 20.4297C19.9219 20.4297 20.459 19.8926 20.459 19.2188C20.459 18.5449 19.9121 18.0078 19.248 18.0078C18.5645 18.0078 18.0273 18.5547 18.0273 19.2188C18.0273 19.9023 18.5742 20.4297 19.248 20.4297Z" fill="#000000" fill-opacity="0.85"/>
 </g>
</svg>
