<?xml version="1.0" encoding="UTF-8"?>
<!--Generator: Apple Native CoreSVG 175.5-->
<!DOCTYPE svg
PUBLIC "-//W3C//DTD SVG 1.1//EN"
       "http://www.w3.org/Graphics/SVG/1.1/DTD/svg11.dtd">
<svg version="1.1" xmlns="http://www.w3.org/2000/svg" xmlns:xlink="http://www.w3.org/1999/xlink" width="20.6641" height="20.4785">
 <g>
  <rect height="20.4785" opacity="0" width="20.6641" x="0" y="0"/>
  <path d="M0 12.9297C0 14.9414 1.01562 15.957 3.06641 15.957L3.39844 15.957L3.39844 7.56836C3.39844 4.80469 5.01953 3.21289 7.80273 3.21289L15.9277 3.21289L15.9277 3.04688C15.9277 1.03516 14.9023 0.0195312 12.8711 0.0195312L3.06641 0.0195312C1.01562 0.0195312 0 1.03516 0 3.04688Z" fill="#000000" fill-opacity="0.85"/>
  <path d="M7.80273 20.4785L17.6074 20.4785C19.6387 20.4785 20.6641 19.4629 20.6641 17.4512L20.6641 7.56836C20.6641 5.55664 19.6387 4.54102 17.6074 4.54102L7.80273 4.54102C5.75195 4.54102 4.73633 5.54688 4.73633 7.56836L4.73633 17.4512C4.73633 19.4629 5.75195 20.4785 7.80273 20.4785Z" fill="#000000" fill-opacity="0.85"/>
  <path d="M8.75977 10C7.96875 9.99023 7.33398 9.36523 7.33398 8.56445C7.33398 7.7832 7.96875 7.14844 8.75977 7.14844C9.54102 7.14844 10.1855 7.7832 10.1855 8.56445C10.1855 9.36523 9.54102 10.0195 8.75977 10ZM16.6406 10C15.8594 9.99023 15.2148 9.36523 15.2148 8.56445C15.2148 7.7832 15.8594 7.14844 16.6406 7.14844C17.4219 7.14844 18.0664 7.7832 18.0664 8.56445C18.0664 9.36523 17.4219 10.0195 16.6406 10ZM12.6953 13.9551C11.9141 13.9551 11.2793 13.3105 11.2793 12.5098C11.2793 11.7285 11.9141 11.1035 12.6953 11.1035C13.4766 11.1035 14.1211 11.7285 14.1211 12.5098C14.1211 13.3105 13.4766 13.9551 12.6953 13.9551ZM8.75977 17.9004C7.96875 17.9004 7.34375 17.2559 7.34375 16.4648C7.34375 15.6738 7.96875 15.0488 8.75977 15.0488C9.54102 15.0488 10.1758 15.6738 10.1758 16.4648C10.1758 17.2559 9.54102 17.9004 8.75977 17.9004ZM16.6406 17.9004C15.8594 17.9004 15.2246 17.2559 15.2246 16.4648C15.2246 15.6738 15.8594 15.0488 16.6406 15.0488C17.4219 15.0488 18.0664 15.6738 18.0664 16.4648C18.0664 17.2559 17.4219 17.9004 16.6406 17.9004Z" fill="#ffffff"/>
 </g>
</svg>
