<?xml version="1.0" encoding="UTF-8"?>
<!--Generator: Apple Native CoreSVG 175.5-->
<!DOCTYPE svg
PUBLIC "-//W3C//DTD SVG 1.1//EN"
       "http://www.w3.org/Graphics/SVG/1.1/DTD/svg11.dtd">
<svg version="1.1" xmlns="http://www.w3.org/2000/svg" xmlns:xlink="http://www.w3.org/1999/xlink" width="18.5254" height="22.002">
 <g>
  <rect height="22.002" opacity="0" width="18.5254" x="0" y="0"/>
  <path d="M0 5.55664L16.9434 5.55664L16.9434 2.98828C16.9434 1.5918 16.0352 0.654297 14.6875 0.654297L2.26562 0.654297C0.908203 0.654297 0 1.5918 0 2.98828ZM3.53516 4.47266C3.04688 4.47266 2.64648 4.0625 2.64648 3.58398C2.64648 3.08594 3.04688 2.68555 3.53516 2.68555C4.02344 2.68555 4.41406 3.08594 4.41406 3.58398C4.41406 4.0625 4.02344 4.47266 3.53516 4.47266ZM6.10352 4.47266C5.61523 4.47266 5.22461 4.0625 5.22461 3.58398C5.22461 3.08594 5.61523 2.68555 6.10352 2.68555C6.5918 2.68555 6.98242 3.08594 6.98242 3.58398C6.98242 4.0625 6.5918 4.47266 6.10352 4.47266ZM0 17.373L5.12695 17.373C5.11719 17.2266 5.10742 17.0996 5.10742 16.9531C5.10742 13.5254 7.86133 10.7715 11.2988 10.7715C11.6211 10.7715 11.9434 10.791 12.2461 10.8398C12.627 10.791 13.0371 10.7715 13.4766 10.7715C14.7656 10.7715 15.957 11.1621 16.9434 11.8262L16.9434 6.88477L0 6.88477ZM6.09375 9.28711C5.79102 9.28711 5.58594 9.07227 5.58594 8.76953C5.58594 8.4668 5.79102 8.26172 6.09375 8.26172L10.8594 8.26172C11.1621 8.26172 11.3574 8.4668 11.3574 8.76953C11.3574 9.07227 11.1621 9.28711 10.8594 9.28711ZM2.26562 21.1621L6.75781 21.1621C6.11328 20.4785 5.625 19.6387 5.35156 18.7012L0 18.7012L0 18.8379C0 20.2344 0.908203 21.1621 2.26562 21.1621Z" fill="#000000" fill-opacity="0.85"/>
  <path d="M11.2988 22.002C14.0918 22.002 16.3379 19.7559 16.3379 16.9531C16.3379 14.1504 14.0918 11.9043 11.2988 11.9043C8.49609 11.9043 6.24023 14.1504 6.24023 16.9531C6.24023 19.7559 8.49609 22.002 11.2988 22.002ZM11.2988 20.918C9.02344 20.918 7.32422 19.2188 7.32422 16.9531C7.32422 14.6875 9.02344 12.9883 11.2988 12.9883C13.5547 12.9883 15.2539 14.6875 15.2539 16.9531C15.2539 19.2188 13.5547 20.918 11.2988 20.918ZM11.2988 19.8926C12.9102 19.8926 14.2285 18.5742 14.2285 16.9531C14.2285 15.332 12.9102 14.0234 11.2988 14.0234C9.66797 14.0234 8.35938 15.332 8.35938 16.9531C8.35938 18.5742 9.66797 19.8926 11.2988 19.8926ZM11.2988 19.0039C10.0977 19.0039 9.24805 18.1445 9.24805 16.9531C9.24805 15.7617 10.0977 14.9121 11.2988 14.9121C12.4902 14.9121 13.3398 15.7617 13.3398 16.9531C13.3398 18.1543 12.4805 19.0039 11.2988 19.0039ZM13.4766 22.002C16.2695 22.002 18.5254 19.7559 18.5254 16.9531C18.5254 14.1504 16.2695 11.9043 13.4766 11.9043C12.8711 11.9043 12.2949 12.0117 11.7676 12.2168L13.0176 13.0176C13.1738 12.998 13.3203 12.9883 13.4766 12.9883C15.7422 12.9883 17.4414 14.6875 17.4414 16.9531C17.4414 19.2188 15.7422 20.918 13.4766 20.918C13.3203 20.918 13.1641 20.9082 13.0078 20.8984L12.1191 21.8164C12.5586 21.9434 13.0078 22.002 13.4766 22.002Z" fill="#000000" fill-opacity="0.85"/>
 </g>
</svg>
