<?xml version="1.0" encoding="UTF-8"?>
<!--Generator: Apple Native CoreSVG 175.5-->
<!DOCTYPE svg
PUBLIC "-//W3C//DTD SVG 1.1//EN"
       "http://www.w3.org/Graphics/SVG/1.1/DTD/svg11.dtd">
<svg version="1.1" xmlns="http://www.w3.org/2000/svg" xmlns:xlink="http://www.w3.org/1999/xlink" width="23.2812" height="24.873">
 <g>
  <rect height="24.873" opacity="0" width="23.2812" x="0" y="0"/>
  <path d="M2.24609 19.1504L21.0254 19.1504C22.4316 19.1504 23.2812 18.3008 23.2812 16.8945L23.2812 5.18555C23.2812 3.7793 22.4316 2.93945 21.0254 2.93945L13.6719 2.93945L13.6719 4.51172L21.0059 4.51172C21.4355 4.51172 21.709 4.77539 21.709 5.21484L21.709 16.875C21.709 17.3047 21.4355 17.5781 21.0059 17.5781L2.27539 17.5781C1.8457 17.5781 1.57227 17.3047 1.57227 16.875L1.57227 5.21484C1.57227 4.77539 1.8457 4.51172 2.27539 4.51172L9.60938 4.51172L9.60938 2.93945L2.24609 2.93945C0.849609 2.93945 0 3.7793 0 5.18555L0 16.8945C0 18.3008 0.849609 19.1504 2.24609 19.1504ZM8.55469 21.4746L14.7266 21.4746L14.7266 19.0234L8.55469 19.0234ZM8.49609 22.6172L14.7852 22.6172C15.2148 22.6172 15.5664 22.2656 15.5664 21.8262C15.5664 21.3867 15.2148 21.0352 14.7852 21.0352L8.49609 21.0352C8.06641 21.0352 7.70508 21.3867 7.70508 21.8262C7.70508 22.2656 8.06641 22.6172 8.49609 22.6172Z" fill="#000000" fill-opacity="0.85"/>
  <path d="M10.9375 0.703125L10.9375 8.4668L11.0352 10.5273L9.13086 8.38867L8.56445 7.8418C8.42773 7.70508 8.25195 7.62695 8.03711 7.62695C7.64648 7.62695 7.37305 7.91016 7.37305 8.29102C7.37305 8.49609 7.44141 8.67188 7.58789 8.80859L11.1133 12.3535C11.2793 12.5195 11.4648 12.6172 11.6406 12.6172C11.8066 12.6172 12.002 12.5195 12.1582 12.3535L15.6934 8.80859C15.8301 8.67188 15.9082 8.49609 15.9082 8.29102C15.9082 7.91016 15.625 7.62695 15.2344 7.62695C15.0293 7.62695 14.8438 7.70508 14.707 7.8418L14.1504 8.38867L12.2363 10.5273L12.334 8.4668L12.334 0.703125C12.334 0.263672 12.002 0 11.6406 0C11.2793 0 10.9375 0.263672 10.9375 0.703125Z" fill="#000000" fill-opacity="0.85"/>
 </g>
</svg>
