<?xml version="1.0" encoding="UTF-8"?>
<!--Generator: Apple Native CoreSVG 175.5-->
<!DOCTYPE svg
PUBLIC "-//W3C//DTD SVG 1.1//EN"
       "http://www.w3.org/Graphics/SVG/1.1/DTD/svg11.dtd">
<svg version="1.1" xmlns="http://www.w3.org/2000/svg" xmlns:xlink="http://www.w3.org/1999/xlink" width="31.4355" height="20.3613">
 <g>
  <rect height="20.3613" opacity="0" width="31.4355" x="0" y="0"/>
  <path d="M2.24609 16.8945L14.7266 16.8945L14.7266 15.3223L2.27539 15.3223C1.8457 15.3223 1.57227 15.0488 1.57227 14.6191L1.57227 2.95898C1.57227 2.51953 1.8457 2.25586 2.27539 2.25586L21.0059 2.25586C21.4355 2.25586 21.709 2.51953 21.709 2.95898L21.709 5.86914L23.2812 5.86914L23.2812 2.92969C23.2812 1.52344 22.4316 0.683594 21.0254 0.683594L2.24609 0.683594C0.849609 0.683594 0 1.52344 0 2.92969L0 14.6387C0 16.0449 0.849609 16.8945 2.24609 16.8945ZM8.55469 19.2188L14.7266 19.2188L14.7266 16.7676L8.55469 16.7676ZM8.49609 20.3613L14.7852 20.3613C15.2148 20.3613 15.5664 20.0098 15.5664 19.5703C15.5664 19.1309 15.2148 18.7793 14.7852 18.7793L8.49609 18.7793C8.06641 18.7793 7.70508 19.1309 7.70508 19.5703C7.70508 20.0098 8.06641 20.3613 8.49609 20.3613Z" fill="#000000" fill-opacity="0.85"/>
  <path d="M13.2812 15.3027C13.2812 17.0117 14.1211 17.8027 15.791 17.8027L28.9355 17.8027C30.6055 17.8027 31.4355 17.0117 31.4355 15.3027L31.4355 7.8418C31.4355 6.13281 30.6055 5.33203 28.9355 5.33203L15.791 5.33203C14.1211 5.33203 13.2812 6.13281 13.2812 7.8418ZM14.8535 15.2734L14.8535 7.87109C14.8535 7.17773 15.1465 6.9043 15.8203 6.9043L28.9062 6.9043C29.5703 6.9043 29.8633 7.17773 29.8633 7.87109L29.8633 15.2734C29.8633 15.957 29.5703 16.2305 28.9062 16.2305L15.8203 16.2305C15.1465 16.2305 14.8535 15.957 14.8535 15.2734ZM19.7754 19.2188L24.9512 19.2188L24.9512 16.875L19.7754 16.875ZM19.7168 20.3613L25 20.3613C25.4395 20.3613 25.791 20.0098 25.791 19.5703C25.791 19.1309 25.4395 18.7793 25 18.7793L19.7168 18.7793C19.2871 18.7793 18.9258 19.1309 18.9258 19.5703C18.9258 20.0098 19.2871 20.3613 19.7168 20.3613Z" fill="#000000" fill-opacity="0.85"/>
 </g>
</svg>
