<?xml version="1.0" encoding="UTF-8"?>
<!--Generator: Apple Native CoreSVG 175.5-->
<!DOCTYPE svg
PUBLIC "-//W3C//DTD SVG 1.1//EN"
       "http://www.w3.org/Graphics/SVG/1.1/DTD/svg11.dtd">
<svg version="1.1" xmlns="http://www.w3.org/2000/svg" xmlns:xlink="http://www.w3.org/1999/xlink" width="18.1348" height="23.8184">
 <g>
  <rect height="23.8184" opacity="0" width="18.1348" x="0" y="0"/>
  <path d="M3.02734 22.0117L8.37891 22.0117C7.87109 21.5723 7.43164 21.0352 7.10938 20.4395L3.11523 20.4395C2.10938 20.4395 1.57227 19.9219 1.57227 18.9453L1.57227 4.16016C1.57227 3.20312 2.09961 2.64648 3.11523 2.64648L13.3203 2.64648C14.2969 2.64648 14.8535 3.19336 14.8535 4.16016L14.8535 12.6855C15.4492 13.0078 15.9863 13.4375 16.4258 13.9551L16.4258 4.14062C16.4258 2.08984 15.4199 1.07422 13.3984 1.07422L3.02734 1.07422C1.01562 1.07422 0 2.09961 0 4.14062L0 18.9453C0 20.9961 1.01562 22.0117 3.02734 22.0117ZM4.52148 6.63086L11.9238 6.63086C12.2656 6.63086 12.5293 6.35742 12.5293 6.01562C12.5293 5.68359 12.2656 5.42969 11.9238 5.42969L4.52148 5.42969C4.16016 5.42969 3.90625 5.68359 3.90625 6.01562C3.90625 6.35742 4.16016 6.63086 4.52148 6.63086ZM4.52148 10.0293L11.9238 10.0293C12.2656 10.0293 12.5293 9.76562 12.5293 9.42383C12.5293 9.0918 12.2656 8.82812 11.9238 8.82812L4.52148 8.82812C4.16016 8.82812 3.90625 9.0918 3.90625 9.42383C3.90625 9.76562 4.16016 10.0293 4.52148 10.0293Z" fill="#000000" fill-opacity="0.85"/>
  <path d="M12.041 22.0117C14.4629 22.0117 16.4258 20.0488 16.4258 17.627C16.4258 15.1855 14.4629 13.2227 12.041 13.2227C9.61914 13.2227 7.63672 15.2051 7.63672 17.627C7.63672 20.0488 9.61914 22.0117 12.041 22.0117ZM12.041 20.6152C10.3809 20.6152 9.0332 19.2676 9.0332 17.627C9.0332 15.9863 10.3809 14.6289 12.041 14.6289C13.6719 14.6289 15.0195 15.9863 15.0195 17.627C15.0195 19.2676 13.6816 20.6152 12.041 20.6152ZM17.3438 23.8184C17.793 23.8184 18.1348 23.4668 18.1348 22.9688C18.1348 22.7539 18.0273 22.5391 17.8613 22.373L15.127 19.6289L13.8867 20.7422L16.6309 23.4961C16.8652 23.7305 17.0801 23.8184 17.3438 23.8184Z" fill="#000000" fill-opacity="0.85"/>
 </g>
</svg>
