<?xml version="1.0" encoding="UTF-8"?>
<!--Generator: Apple Native CoreSVG 175.5-->
<!DOCTYPE svg
PUBLIC "-//W3C//DTD SVG 1.1//EN"
       "http://www.w3.org/Graphics/SVG/1.1/DTD/svg11.dtd">
<svg version="1.1" xmlns="http://www.w3.org/2000/svg" xmlns:xlink="http://www.w3.org/1999/xlink" width="19.9707" height="24.5996">
 <g>
  <rect height="24.5996" opacity="0" width="19.9707" x="0" y="0"/>
  <path d="M4.73633 3.54492L6.15234 3.54492C7.51953 3.54492 8.62305 3.85742 9.7168 4.95117L15.2637 10.4883C16.3574 11.5918 16.5625 12.7246 16.5625 14.0527L16.5625 19.6973L16.9434 19.6973C18.9551 19.6973 19.9707 18.6621 19.9707 16.6309L19.9707 3.06641C19.9707 1.03516 18.9551 0 16.9434 0L7.76367 0C5.75195 0 4.73633 1.02539 4.73633 3.06641ZM9.3457 2.77344L9.3457 2.56836C9.3457 2.26562 9.54102 1.99219 9.9707 1.99219L14.7363 1.99219C15.1562 1.99219 15.3613 2.26562 15.3613 2.56836L15.3613 2.77344C15.3613 3.06641 15.1562 3.34961 14.7363 3.34961L9.9707 3.34961C9.54102 3.34961 9.3457 3.06641 9.3457 2.77344Z" fill="#000000" fill-opacity="0.85"/>
  <path d="M0 21.5039C0 23.5449 1.00586 24.5703 3.02734 24.5703L12.207 24.5703C14.2285 24.5703 15.2344 23.5352 15.2344 21.5039L15.2344 13.7891L8.41797 13.7891C7.1582 13.7891 6.57227 13.1934 6.57227 11.9434L6.57227 4.87305L3.02734 4.87305C1.01562 4.87305 0 5.89844 0 7.93945ZM8.4082 12.4512L15.0586 12.4512C14.9609 12.0703 14.7363 11.7188 14.2969 11.2695L9.08203 5.95703C8.65234 5.51758 8.28125 5.22461 7.90039 5.11719L7.90039 11.9531C7.90039 12.2852 8.07617 12.4512 8.4082 12.4512Z" fill="#000000" fill-opacity="0.85"/>
 </g>
</svg>
