<?xml version="1.0" encoding="UTF-8"?>
<!--Generator: Apple Native CoreSVG 175.5-->
<!DOCTYPE svg
PUBLIC "-//W3C//DTD SVG 1.1//EN"
       "http://www.w3.org/Graphics/SVG/1.1/DTD/svg11.dtd">
<svg version="1.1" xmlns="http://www.w3.org/2000/svg" xmlns:xlink="http://www.w3.org/1999/xlink" width="19.9707" height="24.5996">
 <g>
  <rect height="24.5996" opacity="0" width="19.9707" x="0" y="0"/>
  <path d="M4.73633 5.78125L7.75391 5.78125L14.7754 12.8711L14.7754 19.6973L16.9434 19.6973C18.9551 19.6973 19.9707 18.6621 19.9707 16.6309L19.9707 3.06641C19.9707 1.03516 18.9551 0 16.9434 0L7.76367 0C5.75195 0 4.73633 1.02539 4.73633 3.06641ZM9.9707 3.34961C9.54102 3.34961 9.3457 3.06641 9.3457 2.77344L9.3457 2.56836C9.3457 2.26562 9.54102 1.99219 9.9707 1.99219L14.7363 1.99219C15.1562 1.99219 15.3613 2.26562 15.3613 2.56836L15.3613 2.77344C15.3613 3.06641 15.1562 3.34961 14.7363 3.34961Z" fill="#000000" fill-opacity="0.85"/>
  <path d="M0 21.5039C0 23.5449 1.00586 24.5703 3.02734 24.5703L12.207 24.5703C14.2285 24.5703 15.2344 23.5352 15.2344 21.5039L15.2344 13.877C15.2344 12.627 15.0879 12.0801 14.3066 11.2793L8.92578 5.80078C8.18359 5.03906 7.56836 4.87305 6.47461 4.87305L3.02734 4.87305C1.01562 4.87305 0 5.89844 0 7.93945ZM1.57227 21.4746L1.57227 7.95898C1.57227 7.00195 2.08984 6.44531 3.10547 6.44531L6.30859 6.44531L6.30859 12.1094C6.30859 13.3398 6.93359 13.9551 8.14453 13.9551L13.6621 13.9551L13.6621 21.4746C13.6621 22.4512 13.1348 22.998 12.1289 22.998L3.0957 22.998C2.08984 22.998 1.57227 22.4512 1.57227 21.4746ZM8.33008 12.4805C7.93945 12.4805 7.7832 12.3242 7.7832 11.9336L7.7832 6.80664L13.3594 12.4805Z" fill="#000000" fill-opacity="0.85"/>
 </g>
</svg>
