<?xml version="1.0" encoding="UTF-8"?>
<!--Generator: Apple Native CoreSVG 175.5-->
<!DOCTYPE svg
PUBLIC "-//W3C//DTD SVG 1.1//EN"
       "http://www.w3.org/Graphics/SVG/1.1/DTD/svg11.dtd">
<svg version="1.1" xmlns="http://www.w3.org/2000/svg" xmlns:xlink="http://www.w3.org/1999/xlink" width="59.6924" height="51.8311">
 <g>
  <rect height="51.8311" opacity="0" width="59.6924" x="0" y="0"/>
  <path d="M1.95312 51.8066C3.05176 51.8066 3.93066 50.9277 3.93066 49.8535L3.93066 5.22461C3.93066 4.44336 4.44336 3.93066 5.17578 3.93066L54.5166 3.93066C55.249 3.93066 55.7617 4.44336 55.7617 5.22461L55.7617 49.8535C55.7617 50.9277 56.6406 51.8066 57.7148 51.8066C58.8135 51.8066 59.6924 50.9277 59.6924 49.8535L59.6924 4.98047C59.6924 2.00195 57.6416 0 54.5654 0L5.10254 0C2.05078 0 0 2.00195 0 4.98047L0 49.8535C0 50.9277 0.878906 51.8066 1.95312 51.8066Z" fill="#ff453a"/>
  <path d="M7.61719 17.1387L52.0752 17.1387C52.5391 17.1387 52.9053 16.7725 52.9053 16.333L52.9053 7.59277C52.9053 7.12891 52.5391 6.7627 52.0752 6.7627L7.61719 6.7627C7.15332 6.7627 6.78711 7.12891 6.78711 7.59277L6.78711 16.333C6.78711 16.7725 7.15332 17.1387 7.61719 17.1387ZM25.0732 13.1348C24.3652 13.1348 23.9014 12.6465 23.9014 11.9629C23.9014 11.2549 24.3652 10.7666 25.0732 10.7666L34.6191 10.7666C35.3271 10.7666 35.791 11.2549 35.791 11.9629C35.791 12.6465 35.3271 13.1348 34.6191 13.1348Z" fill="#ffffff"/>
 </g>
</svg>
