<?xml version="1.0" encoding="UTF-8"?>
<!--Generator: Apple Native CoreSVG 175.5-->
<!DOCTYPE svg
PUBLIC "-//W3C//DTD SVG 1.1//EN"
       "http://www.w3.org/Graphics/SVG/1.1/DTD/svg11.dtd">
<svg version="1.1" xmlns="http://www.w3.org/2000/svg" xmlns:xlink="http://www.w3.org/1999/xlink" width="59.6924" height="51.8311">
 <g>
  <rect height="51.8311" opacity="0" width="59.6924" x="0" y="0"/>
  <path d="M1.95312 51.8066C3.05176 51.8066 3.93066 50.9277 3.93066 49.8535L3.93066 5.22461C3.93066 4.44336 4.44336 3.93066 5.17578 3.93066L54.5166 3.93066C55.249 3.93066 55.7617 4.44336 55.7617 5.22461L55.7617 49.8535C55.7617 50.9277 56.6406 51.8066 57.7148 51.8066C58.8135 51.8066 59.6924 50.9277 59.6924 49.8535L59.6924 4.98047C59.6924 2.00195 57.6416 0 54.5654 0L5.10254 0C2.05078 0 0 2.00195 0 4.98047L0 49.8535C0 50.9277 0.878906 51.8066 1.95312 51.8066Z" fill="#98989d"/>
  <path d="M7.61719 50.9521L52.0752 50.9521C52.5391 50.9521 52.9053 50.5615 52.9053 50.1221L52.9053 7.59277C52.9053 7.12891 52.5391 6.7627 52.0752 6.7627L7.61719 6.7627C7.15332 6.7627 6.78711 7.12891 6.78711 7.59277L6.78711 50.1221C6.78711 50.5615 7.15332 50.9521 7.61719 50.9521ZM25.0732 46.8262C24.3652 46.8262 23.9014 46.3379 23.9014 45.6543C23.9014 44.9463 24.3652 44.458 25.0732 44.458L34.6191 44.458C35.3271 44.458 35.791 44.9463 35.791 45.6543C35.791 46.3379 35.3271 46.8262 34.6191 46.8262ZM10.9619 20.2148C10.4736 20.2148 10.1074 19.8486 10.1074 19.3604L10.1074 10.7178C10.1074 10.2295 10.4736 9.83887 10.9619 9.83887L20.4102 9.83887C20.8984 9.83887 21.2646 10.2295 21.2646 10.7178L21.2646 19.3604C21.2646 19.8486 20.8984 20.2148 20.4102 20.2148ZM25.1709 20.2148C24.6826 20.2148 24.3164 19.8486 24.3164 19.3604L24.3164 10.7178C24.3164 10.2295 24.6826 9.83887 25.1709 9.83887L34.5947 9.83887C35.083 9.83887 35.4736 10.2295 35.4736 10.7178L35.4736 19.3604C35.4736 19.8486 35.083 20.2148 34.5947 20.2148ZM39.3555 20.2148C38.8672 20.2148 38.4766 19.8486 38.4766 19.3604L38.4766 10.7178C38.4766 10.2295 38.8672 9.83887 39.3555 9.83887L48.7305 9.83887C49.2188 9.83887 49.585 10.2295 49.585 10.7178L49.585 19.3604C49.585 19.8486 49.2188 20.2148 48.9258 20.2148Z" fill="#ffffff"/>
 </g>
</svg>
