<?xml version="1.0" encoding="UTF-8"?>
<!--Generator: Apple Native CoreSVG 175.5-->
<!DOCTYPE svg
PUBLIC "-//W3C//DTD SVG 1.1//EN"
       "http://www.w3.org/Graphics/SVG/1.1/DTD/svg11.dtd">
<svg version="1.1" xmlns="http://www.w3.org/2000/svg" xmlns:xlink="http://www.w3.org/1999/xlink" width="19.9219" height="19.9316">
 <g>
  <rect height="19.9316" opacity="0" width="19.9219" x="0" y="0"/>
  <path d="M9.96094 19.9219C15.4102 19.9219 19.9219 15.4004 19.9219 9.96094C19.9219 4.51172 15.4004 0 9.95117 0C4.51172 0 0 4.51172 0 9.96094C0 15.4004 4.52148 19.9219 9.96094 19.9219ZM9.96094 18.2617C5.35156 18.2617 1.66992 14.5703 1.66992 9.96094C1.66992 5.35156 5.3418 1.66016 9.95117 1.66016C14.5605 1.66016 18.2617 5.35156 18.2617 9.96094C18.2617 14.5703 14.5703 18.2617 9.96094 18.2617Z" fill="#000000" fill-opacity="0.85"/>
  <path d="M9.95117 15.1367C12.1582 15.1367 13.6426 13.7012 13.6426 11.5625C13.6426 10.498 13.1934 9.56055 12.8711 8.83789C12.2852 7.57812 11.3281 6.00586 10.5078 4.73633C10.3418 4.49219 10.166 4.38477 9.95117 4.38477C9.73633 4.38477 9.56055 4.49219 9.39453 4.73633C8.57422 6.00586 7.61719 7.57812 7.03125 8.83789C6.70898 9.56055 6.25977 10.498 6.25977 11.5625C6.25977 13.7012 7.74414 15.1367 9.95117 15.1367Z" fill="#000000" fill-opacity="0.85"/>
 </g>
</svg>
