<?xml version="1.0" encoding="UTF-8"?>
<!--Generator: Apple Native CoreSVG 175.5-->
<!DOCTYPE svg
PUBLIC "-//W3C//DTD SVG 1.1//EN"
       "http://www.w3.org/Graphics/SVG/1.1/DTD/svg11.dtd">
<svg version="1.1" xmlns="http://www.w3.org/2000/svg" xmlns:xlink="http://www.w3.org/1999/xlink" width="17.8235" height="24.6387">
 <g>
  <rect height="24.6387" opacity="0" width="17.8235" x="0" y="0"/>
  <path d="M4.53249 6.49414L5.70436 7.66602C6.37819 6.55273 7.09108 5.47852 7.7942 4.42383C7.8528 4.32617 7.94069 4.32617 7.99928 4.42383C9.3567 6.48438 10.8118 8.59375 11.886 11.1523C12.3352 12.1875 12.9602 13.7891 12.9602 14.5312C12.9602 14.6777 12.9505 14.7754 12.9309 14.8828L14.5813 16.5332C14.6301 16.2305 14.6594 15.918 14.6594 15.5859C14.6594 13.6328 13.888 11.6895 13.3215 10.3906C12.2766 8.03711 10.636 5.44922 9.21022 3.24219C8.86842 2.72461 8.45827 2.42188 7.89186 2.42188C7.30592 2.42188 6.9153 2.72461 6.5735 3.24219C5.89967 4.26758 5.20631 5.38086 4.53249 6.49414ZM7.89186 22.1973C10.0012 22.1973 11.7395 21.4746 12.9309 20.2344L11.7688 19.082C10.8704 20.0488 9.52272 20.5957 7.89186 20.5957C4.78639 20.5957 2.71608 18.5938 2.71608 15.5859C2.71608 14.0234 3.31178 12.5098 3.86842 11.1914L2.64772 9.9707C1.886 11.6895 1.12428 13.6328 1.12428 15.5859C1.12428 19.5508 3.82936 22.1973 7.89186 22.1973ZM14.8352 5.9668C16.5149 5.9668 17.8235 4.6582 17.8235 2.98828C17.8235 1.30859 16.5149 0 14.8352 0C13.1653 0 11.8567 1.30859 11.8567 2.98828C11.8567 4.6582 13.1653 5.9668 14.8352 5.9668ZM14.8352 4.58984C13.9368 4.58984 13.2337 3.88672 13.2337 2.98828C13.2337 2.08008 13.9368 1.37695 14.8352 1.37695C15.7434 1.37695 16.4465 2.08008 16.4465 2.98828C16.4465 3.88672 15.7434 4.58984 14.8352 4.58984Z" fill="#000000" fill-opacity="0.85"/>
  <path d="M15.763 21.4648C16.0657 21.7578 16.5442 21.7578 16.8274 21.4648C17.1204 21.1621 17.1301 20.6934 16.8274 20.4004L1.2903 4.86328C0.99733 4.57031 0.518814 4.57031 0.21608 4.86328C-0.0671232 5.15625-0.0768888 5.63477 0.21608 5.92773Z" fill="#000000" fill-opacity="0.85"/>
 </g>
</svg>
