<?xml version="1.0" encoding="UTF-8"?>
<!--Generator: Apple Native CoreSVG 175.5-->
<!DOCTYPE svg
PUBLIC "-//W3C//DTD SVG 1.1//EN"
       "http://www.w3.org/Graphics/SVG/1.1/DTD/svg11.dtd">
<svg version="1.1" xmlns="http://www.w3.org/2000/svg" xmlns:xlink="http://www.w3.org/1999/xlink" width="18.2715" height="22.344">
 <g>
  <rect height="22.344" opacity="0" width="18.2715" x="0" y="0"/>
  <path d="M2.26562 21.421L9.56055 21.421C9.59961 20.9914 9.87305 20.757 9.88281 20.3957C9.89258 20.2394 9.81445 20.0636 9.6875 19.8488L2.33398 19.8488C1.88477 19.8488 1.57227 19.5363 1.57227 19.0773L1.57227 3.25698C1.57227 2.78823 1.88477 2.48549 2.33398 2.48549L14.6094 2.48549C15.0684 2.48549 15.3711 2.78823 15.3711 3.25698L15.3711 12.3976C15.8496 12.1046 16.416 12.0363 16.9434 12.1925L16.9434 3.24721C16.9434 1.84096 16.0352 0.913228 14.6875 0.913228L2.26562 0.913228C0.908203 0.913228 0 1.84096 0 3.24721L0 19.0871C0 20.4933 0.908203 21.421 2.26562 21.421ZM3.68164 5.10268C4.16016 5.10268 4.54102 4.71206 4.54102 4.24331C4.54102 3.76479 4.16016 3.38393 3.68164 3.38393C3.21289 3.38393 2.82227 3.76479 2.82227 4.24331C2.82227 4.71206 3.21289 5.10268 3.68164 5.10268ZM6.17188 5.10268C6.65039 5.10268 7.03125 4.71206 7.03125 4.24331C7.03125 3.76479 6.65039 3.38393 6.17188 3.38393C5.70312 3.38393 5.32227 3.76479 5.32227 4.24331C5.32227 4.71206 5.70312 5.10268 6.17188 5.10268ZM11.2793 4.73159L13.6133 4.73159C13.9062 4.73159 14.1016 4.53628 14.1016 4.24331C14.1016 3.95034 13.9062 3.74526 13.6133 3.74526L11.2793 3.74526C10.9863 3.74526 10.791 3.95034 10.791 4.24331C10.791 4.53628 10.9863 4.73159 11.2793 4.73159ZM0.859375 7.28042L16.0742 7.28042L16.0742 6.00112L0.859375 6.00112ZM4.6875 18.1691L8.91602 18.1691C8.78906 17.8566 8.67188 17.4953 8.58398 17.0851L4.86328 17.0851C4.62891 17.0851 4.47266 16.9289 4.47266 16.6847L4.47266 10.4445C4.47266 10.2003 4.62891 10.0441 4.86328 10.0441L12.0801 10.0441C12.3145 10.0441 12.4707 10.2003 12.4707 10.4445L12.4707 12.4171C12.8027 12.2121 13.1836 12.1046 13.5645 12.1242L13.5645 10.2687C13.5645 9.48745 13.0273 8.9601 12.2559 8.9601L4.6875 8.9601C3.91602 8.9601 3.38867 9.48745 3.38867 10.2687L3.38867 16.8605C3.38867 17.6417 3.91602 18.1691 4.6875 18.1691Z" fill="#000000" fill-opacity="0.85"/>
  <path d="M11.1426 22.2218C11.4355 22.4171 11.8945 22.4074 12.1582 21.9777C12.4414 21.4601 12.6074 20.8546 12.6074 20.2687C12.6074 18.1398 10.9766 17.0949 10.9766 15.5226C10.9766 15.1222 11.0547 14.839 11.2988 14.4289C11.4941 14.0871 11.3477 13.716 11.0742 13.5597C10.791 13.3644 10.332 13.4035 10.0977 13.8136C9.79492 14.3214 9.63867 14.9269 9.63867 15.5226C9.63867 17.6124 11.2598 18.6574 11.2598 20.2687C11.2598 20.6691 11.1914 20.9328 10.9473 21.3527C10.7422 21.7042 10.918 22.0656 11.1426 22.2218ZM13.9746 22.2121C14.2871 22.4171 14.7461 22.3878 14.9805 21.9679C15.2734 21.4503 15.4395 20.8546 15.4395 20.2687C15.4395 18.13 13.8086 17.0851 13.8086 15.5128C13.8086 15.1222 13.8867 14.839 14.1211 14.4191C14.3262 14.0773 14.1699 13.7062 13.8965 13.5597C13.623 13.3644 13.1543 13.4035 12.9199 13.8039C12.627 14.3214 12.4707 14.9171 12.4707 15.5128C12.4707 17.6124 14.0918 18.6476 14.0918 20.2687C14.0918 20.6593 14.0234 20.923 13.7891 21.3429C13.584 21.7042 13.7402 22.0558 13.9746 22.2121ZM16.8066 22.2023C17.1191 22.4074 17.5781 22.3781 17.8125 21.9582C18.1055 21.4406 18.2715 20.8449 18.2715 20.2589C18.2715 18.1203 16.6406 17.0753 16.6406 15.5031C16.6406 15.1124 16.7188 14.8292 16.9531 14.4093C17.1582 14.0675 17.002 13.6964 16.7285 13.5499C16.4453 13.3546 15.9863 13.3937 15.752 13.7941C15.4492 14.3117 15.3027 14.9074 15.3027 15.5031C15.3027 17.6027 16.9238 18.6378 16.9238 20.2589C16.9238 20.6496 16.8555 20.9132 16.6113 21.3332C16.4062 21.6945 16.5723 22.046 16.8066 22.2023Z" fill="#000000" fill-opacity="0.85"/>
 </g>
</svg>
