<?xml version="1.0" encoding="UTF-8"?>
<!--Generator: Apple Native CoreSVG 175.5-->
<!DOCTYPE svg
PUBLIC "-//W3C//DTD SVG 1.1//EN"
       "http://www.w3.org/Graphics/SVG/1.1/DTD/svg11.dtd">
<svg version="1.1" xmlns="http://www.w3.org/2000/svg" xmlns:xlink="http://www.w3.org/1999/xlink" width="15" height="22.7051">
 <g>
  <rect height="22.7051" opacity="0" width="15" x="0" y="0"/>
  <path d="M0 16.4062C0 19.1016 1.67969 20.8203 4.30664 20.8203C6.26953 20.8203 7.73438 19.9609 8.66211 18.3008L9.54102 16.7285C11.6016 12.959 15 12.4707 15 7.62695C15 3.05664 12.041 0 7.60742 0C3.06641 0 0 3.07617 0 7.66602Z" fill="#000000" fill-opacity="0.85"/>
  <path d="M2.62695 12.1875L2.62695 7.31445C2.62695 4.57031 4.55078 2.72461 7.59766 2.72461C10.5469 2.72461 12.3828 4.57031 12.3828 7.31445C12.3828 7.71484 12.041 8.05664 11.6406 8.05664C11.2402 8.05664 10.9082 7.71484 10.9082 7.31445C10.9082 5.42969 9.6875 4.19922 7.59766 4.19922C5.41016 4.19922 4.10156 5.43945 4.10156 7.31445L4.10156 8.55469L7.05078 8.55469C8.63281 8.55469 9.67773 9.52148 9.67773 10.957C9.67773 11.5625 9.41406 12.3047 9.01367 12.8125L7.74414 14.4238C7.57812 14.6289 7.36328 14.7461 7.13867 14.7461C6.73828 14.7461 6.39648 14.4141 6.39648 14.0137C6.39648 13.8281 6.46484 13.6523 6.5918 13.4863L7.76367 12.0117C7.99805 11.7285 8.1543 11.3184 8.1543 11.0156C8.1543 10.4297 7.73438 10.0293 7.07031 10.0293L4.10156 10.0293L4.10156 12.1875C4.10156 12.5879 3.75977 12.9297 3.35938 12.9297C2.95898 12.9297 2.62695 12.5879 2.62695 12.1875Z" fill="#ffffff"/>
 </g>
</svg>
