<?xml version="1.0" encoding="UTF-8"?>
<!--Generator: Apple Native CoreSVG 175.5-->
<!DOCTYPE svg
PUBLIC "-//W3C//DTD SVG 1.1//EN"
       "http://www.w3.org/Graphics/SVG/1.1/DTD/svg11.dtd">
<svg version="1.1" xmlns="http://www.w3.org/2000/svg" xmlns:xlink="http://www.w3.org/1999/xlink" width="22.1484" height="20.3613">
 <g>
  <rect height="20.3613" opacity="0" width="22.1484" x="0" y="0"/>
  <path d="M3.86719 20.3613C5.03906 20.3613 7.95898 19.082 9.61914 17.8906C9.78516 17.7734 9.92188 17.7246 10.0586 17.7246C10.1855 17.7344 10.3125 17.7441 10.4395 17.7441C17.4805 17.7441 22.1484 13.7402 22.1484 8.87695C22.1484 3.96484 17.2266 0 11.0742 0C4.92188 0 0 3.96484 0 8.87695C0 12.002 1.92383 14.7461 5.05859 16.4258C5.20508 16.5039 5.25391 16.6504 5.17578 16.7969C4.62891 17.6953 3.65234 18.7695 3.28125 19.2578C2.90039 19.7461 3.11523 20.3613 3.86719 20.3613Z" fill="#000000" fill-opacity="0.85"/>
  <path d="M6.37695 10.4395C5.56641 10.4395 4.90234 9.77539 4.90234 8.96484C4.90234 8.1543 5.56641 7.5 6.37695 7.5C7.17773 7.5 7.8418 8.1543 7.8418 8.96484C7.8418 9.77539 7.1875 10.4395 6.37695 10.4395Z" fill="#ffffff"/>
  <path d="M11.0742 10.4395C10.2637 10.4395 9.59961 9.77539 9.59961 8.96484C9.59961 8.1543 10.2637 7.5 11.0742 7.5C11.8848 7.5 12.5488 8.1543 12.5488 8.96484C12.5488 9.77539 11.8848 10.4395 11.0742 10.4395Z" fill="#ffffff"/>
  <path d="M15.7812 10.4395C14.9609 10.4395 14.3066 9.77539 14.3066 8.96484C14.3066 8.1543 14.9609 7.5 15.7812 7.5C16.582 7.5 17.2461 8.1543 17.2461 8.96484C17.2461 9.77539 16.582 10.4395 15.7812 10.4395Z" fill="#ffffff"/>
 </g>
</svg>
