<?xml version="1.0" encoding="UTF-8"?>
<!--Generator: Apple Native CoreSVG 175.5-->
<!DOCTYPE svg
PUBLIC "-//W3C//DTD SVG 1.1//EN"
       "http://www.w3.org/Graphics/SVG/1.1/DTD/svg11.dtd">
<svg version="1.1" xmlns="http://www.w3.org/2000/svg" xmlns:xlink="http://www.w3.org/1999/xlink" width="24.3164" height="20.1855">
 <g>
  <rect height="20.1855" opacity="0" width="24.3164" x="0" y="0"/>
  <path d="M0 10.0879C0 10.6543 0.322266 11.0547 0.996094 11.1621C2.20703 11.3477 2.68555 11.9629 2.68555 13.5352L2.68555 16.2793C2.68555 18.9355 3.89648 20.1855 6.5332 20.1855C6.68945 20.1855 6.85547 20.1562 6.97266 20.1172C7.27539 19.9902 7.44141 19.7461 7.44141 19.4238C7.44141 19.043 7.27539 18.8477 6.93359 18.7598C6.83594 18.7402 6.73828 18.7207 6.62109 18.7109C4.98047 18.5938 4.38477 17.8906 4.38477 16.084L4.38477 12.8418C4.38477 11.1914 3.51562 10.2734 1.99219 10.127C1.96289 10.127 1.96289 10.0879 1.99219 10.0879C3.51562 9.94141 4.38477 9.02344 4.38477 7.37305L4.38477 4.12109C4.38477 2.30469 4.98047 1.62109 6.62109 1.50391C6.77734 1.49414 6.91406 1.47461 7.01172 1.43555C7.29492 1.33789 7.44141 1.12305 7.44141 0.78125C7.44141 0.439453 7.26562 0.205078 6.93359 0.0878906C6.78711 0.0390625 6.63086 0.0195312 6.43555 0.0195312C3.88672 0.0195312 2.68555 1.28906 2.68555 3.92578L2.68555 6.67969C2.68555 8.23242 2.20703 8.85742 0.996094 9.04297C0.322266 9.15039 0 9.53125 0 10.0879ZM24.3164 10.0879C24.3164 9.53125 23.9941 9.15039 23.3203 9.04297C22.1094 8.85742 21.6309 8.23242 21.6309 6.67969L21.6309 3.92578C21.6309 1.28906 20.4297 0.0195312 17.8809 0.0195312C17.6855 0.0195312 17.5391 0.0390625 17.3926 0.0878906C17.0508 0.205078 16.875 0.439453 16.875 0.78125C16.875 1.12305 17.0215 1.33789 17.3145 1.43555C17.4121 1.47461 17.5391 1.49414 17.6953 1.50391C19.3359 1.62109 19.9414 2.30469 19.9414 4.12109L19.9414 7.37305C19.9414 9.02344 20.8008 9.94141 22.3242 10.0879C22.3535 10.0879 22.3535 10.127 22.3242 10.127C20.8008 10.2734 19.9414 11.1914 19.9414 12.8418L19.9414 16.084C19.9414 17.8906 19.3359 18.5938 17.6953 18.7109C17.5781 18.7207 17.4902 18.7402 17.3926 18.7598C17.041 18.8477 16.875 19.043 16.875 19.4238C16.875 19.7461 17.041 19.9902 17.3535 20.1172C17.4707 20.1562 17.627 20.1855 17.7832 20.1855C20.4199 20.1855 21.6309 18.9355 21.6309 16.2793L21.6309 13.5352C21.6309 11.9629 22.1094 11.3477 23.3203 11.1621C23.9941 11.0547 24.3164 10.6543 24.3164 10.0879Z" fill="#000000" fill-opacity="0.85"/>
  <path d="M7.76367 11.6406C8.61328 11.6406 9.31641 10.918 9.31641 10.0879C9.31641 9.26758 8.61328 8.53516 7.76367 8.53516C6.91406 8.53516 6.20117 9.26758 6.20117 10.0879C6.20117 10.918 6.91406 11.6406 7.76367 11.6406Z" fill="#000000" fill-opacity="0.85"/>
  <path d="M12.1582 11.6406C12.9883 11.6406 13.7109 10.918 13.7109 10.0879C13.7109 9.26758 12.9883 8.53516 12.1582 8.53516C11.3281 8.53516 10.6055 9.26758 10.6055 10.0879C10.6055 10.918 11.3281 11.6406 12.1582 11.6406Z" fill="#000000" fill-opacity="0.85"/>
  <path d="M16.5527 11.6406C17.4023 11.6406 18.1152 10.918 18.1152 10.0879C18.1152 9.26758 17.4023 8.53516 16.5527 8.53516C15.7129 8.53516 15 9.26758 15 10.0879C15 10.918 15.7129 11.6406 16.5527 11.6406Z" fill="#000000" fill-opacity="0.85"/>
 </g>
</svg>
