<?xml version="1.0" encoding="UTF-8"?>
<!--Generator: Apple Native CoreSVG 175.5-->
<!DOCTYPE svg
PUBLIC "-//W3C//DTD SVG 1.1//EN"
       "http://www.w3.org/Graphics/SVG/1.1/DTD/svg11.dtd">
<svg version="1.1" xmlns="http://www.w3.org/2000/svg" xmlns:xlink="http://www.w3.org/1999/xlink" width="21.1523" height="13.6816">
 <g>
  <rect height="13.6816" opacity="0" width="21.1523" x="0" y="0"/>
  <path d="M0 10.8594C0 12.7051 1.01562 13.6816 2.85156 13.6816L18.291 13.6816C20.1367 13.6816 21.1523 12.7051 21.1523 10.8594L21.1523 2.80273C21.1523 0.966797 20.1367 0 18.291 0L2.85156 0C1.01562 0 0 0.966797 0 2.80273Z" fill="#000000" fill-opacity="0.85"/>
  <path d="M5.6543 8.28125C4.85352 8.28125 4.19922 7.63672 4.19922 6.83594C4.19922 6.03516 4.85352 5.39062 5.6543 5.39062C6.45508 5.39062 7.09961 6.03516 7.09961 6.83594C7.09961 7.63672 6.45508 8.28125 5.6543 8.28125Z" fill="#ffffff"/>
  <path d="M10.5859 8.28125C9.78516 8.28125 9.14062 7.63672 9.14062 6.83594C9.14062 6.03516 9.78516 5.39062 10.5859 5.39062C11.3867 5.39062 12.0312 6.03516 12.0312 6.83594C12.0312 7.63672 11.3867 8.28125 10.5859 8.28125Z" fill="#ffffff"/>
  <path d="M15.5176 8.28125C14.7168 8.28125 14.0723 7.63672 14.0723 6.83594C14.0723 6.03516 14.7168 5.39062 15.5176 5.39062C16.3184 5.39062 16.9629 6.03516 16.9629 6.83594C16.9629 7.63672 16.3184 8.28125 15.5176 8.28125Z" fill="#ffffff"/>
 </g>
</svg>
