<?xml version="1.0" encoding="UTF-8"?>
<!--Generator: Apple Native CoreSVG 175.5-->
<!DOCTYPE svg
PUBLIC "-//W3C//DTD SVG 1.1//EN"
       "http://www.w3.org/Graphics/SVG/1.1/DTD/svg11.dtd">
<svg version="1.1" xmlns="http://www.w3.org/2000/svg" xmlns:xlink="http://www.w3.org/1999/xlink" width="21.1523" height="13.6816">
 <g>
  <rect height="13.6816" opacity="0" width="21.1523" x="0" y="0"/>
  <path d="M0 10.8594C0 12.7051 1.01562 13.6816 2.85156 13.6816L18.291 13.6816C20.1367 13.6816 21.1523 12.7051 21.1523 10.8594L21.1523 2.80273C21.1523 0.966797 20.1367 0 18.291 0L2.85156 0C1.01562 0 0 0.966797 0 2.80273ZM1.57227 10.9375L1.57227 2.72461C1.57227 1.91406 2.03125 1.45508 2.8418 1.45508L18.3105 1.45508C19.1211 1.45508 19.5801 1.91406 19.5801 2.72461L19.5801 10.9375C19.5801 11.748 19.1211 12.207 18.3105 12.207L2.8418 12.207C2.03125 12.207 1.57227 11.748 1.57227 10.9375Z" fill="#000000" fill-opacity="0.85"/>
  <path d="M5.81055 8.23242C6.58203 8.23242 7.20703 7.60742 7.20703 6.83594C7.20703 6.06445 6.58203 5.43945 5.81055 5.43945C5.03906 5.43945 4.4043 6.06445 4.4043 6.83594C4.4043 7.60742 5.03906 8.23242 5.81055 8.23242Z" fill="#000000" fill-opacity="0.85"/>
  <path d="M10.5859 8.23242C11.3574 8.23242 11.9824 7.60742 11.9824 6.83594C11.9824 6.06445 11.3574 5.43945 10.5859 5.43945C9.81445 5.43945 9.18945 6.06445 9.18945 6.83594C9.18945 7.60742 9.81445 8.23242 10.5859 8.23242Z" fill="#000000" fill-opacity="0.85"/>
  <path d="M15.3613 8.23242C16.1328 8.23242 16.7578 7.60742 16.7578 6.83594C16.7578 6.06445 16.1328 5.43945 15.3613 5.43945C14.5898 5.43945 13.9648 6.06445 13.9648 6.83594C13.9648 7.60742 14.5898 8.23242 15.3613 8.23242Z" fill="#000000" fill-opacity="0.85"/>
 </g>
</svg>
