<?xml version="1.0" encoding="UTF-8"?>
<!--Generator: Apple Native CoreSVG 175.5-->
<!DOCTYPE svg
PUBLIC "-//W3C//DTD SVG 1.1//EN"
       "http://www.w3.org/Graphics/SVG/1.1/DTD/svg11.dtd">
<svg version="1.1" xmlns="http://www.w3.org/2000/svg" xmlns:xlink="http://www.w3.org/1999/xlink" width="15.9082" height="20.5176">
 <g>
  <rect height="20.5176" opacity="0" width="15.9082" x="0" y="0"/>
  <path d="M3.06641 20.4785L10.6543 20.4785C12.6953 20.4785 13.7109 19.4629 13.7109 17.4707L13.7109 17.2852L9.18945 17.2852C8.64258 17.959 7.79297 18.3887 6.85547 18.3887C5.18555 18.3887 3.83789 17.041 3.83789 15.3711C3.83789 13.7109 5.18555 12.3633 6.85547 12.3633C7.79297 12.3633 8.63281 12.7832 9.17969 13.457L13.7109 13.457L13.7109 3.02734C13.7109 1.01562 12.6953 0 10.6543 0L3.06641 0C1.03516 0 0 1.00586 0 3.02734L0 17.4512C0 19.4727 1.03516 20.4785 3.06641 20.4785ZM3.74023 4.90234C3.05664 4.90234 2.51953 4.35547 2.51953 3.69141C2.51953 3.00781 3.05664 2.46094 3.74023 2.46094C4.41406 2.46094 4.96094 3.00781 4.96094 3.69141C4.96094 4.35547 4.41406 4.90234 3.74023 4.90234ZM6.85547 4.90234C6.18164 4.90234 5.64453 4.35547 5.64453 3.69141C5.64453 3.00781 6.18164 2.46094 6.85547 2.46094C7.54883 2.46094 8.08594 3.00781 8.08594 3.69141C8.08594 4.35547 7.54883 4.90234 6.85547 4.90234ZM9.99023 4.90234C9.30664 4.90234 8.76953 4.35547 8.76953 3.69141C8.76953 3.00781 9.30664 2.46094 9.99023 2.46094C10.6738 2.46094 11.2012 3.00781 11.2012 3.69141C11.2012 4.35547 10.6738 4.90234 9.99023 4.90234ZM3.74023 7.91016C3.05664 7.91016 2.51953 7.36328 2.51953 6.68945C2.51953 6.00586 3.05664 5.45898 3.74023 5.45898C4.41406 5.45898 4.96094 6.00586 4.96094 6.68945C4.96094 7.36328 4.41406 7.91016 3.74023 7.91016ZM6.85547 7.91016C6.18164 7.91016 5.64453 7.36328 5.64453 6.68945C5.64453 6.00586 6.18164 5.45898 6.85547 5.45898C7.54883 5.45898 8.08594 6.00586 8.08594 6.68945C8.08594 7.36328 7.54883 7.91016 6.85547 7.91016ZM9.99023 7.91016C9.30664 7.91016 8.76953 7.36328 8.76953 6.68945C8.76953 6.00586 9.30664 5.45898 9.99023 5.45898C10.6738 5.45898 11.2012 6.00586 11.2012 6.68945C11.2012 7.36328 10.6738 7.91016 9.99023 7.91016ZM3.74023 10.9277C3.05664 10.9277 2.51953 10.3809 2.51953 9.69727C2.51953 9.02344 3.05664 8.47656 3.74023 8.47656C4.41406 8.47656 4.96094 9.02344 4.96094 9.69727C4.96094 10.3809 4.41406 10.9277 3.74023 10.9277ZM6.85547 10.9277C6.18164 10.9277 5.64453 10.3809 5.64453 9.69727C5.64453 9.02344 6.18164 8.47656 6.85547 8.47656C7.54883 8.47656 8.08594 9.02344 8.08594 9.69727C8.08594 10.3809 7.54883 10.9277 6.85547 10.9277ZM9.99023 10.9277C9.30664 10.9277 8.76953 10.3809 8.76953 9.69727C8.76953 9.02344 9.30664 8.47656 9.99023 8.47656C10.6738 8.47656 11.2012 9.02344 11.2012 9.69727C11.2012 10.3809 10.6738 10.9277 9.99023 10.9277Z" fill="#000000" fill-opacity="0.85"/>
  <path d="M6.85547 16.5527L14.7266 16.5527C15.3711 16.5527 15.9082 16.0156 15.9082 15.3711C15.9082 14.7168 15.3711 14.1895 14.7266 14.1895L6.85547 14.1895C6.21094 14.1895 5.67383 14.7168 5.67383 15.3711C5.67383 16.0156 6.21094 16.5527 6.85547 16.5527Z" fill="#000000" fill-opacity="0.85"/>
 </g>
</svg>
