<?xml version="1.0" encoding="UTF-8"?>
<!--Generator: Apple Native CoreSVG 175.5-->
<!DOCTYPE svg
PUBLIC "-//W3C//DTD SVG 1.1//EN"
       "http://www.w3.org/Graphics/SVG/1.1/DTD/svg11.dtd">
<svg version="1.1" xmlns="http://www.w3.org/2000/svg" xmlns:xlink="http://www.w3.org/1999/xlink" width="15.9082" height="20.5176">
 <g>
  <rect height="20.5176" opacity="0" width="15.9082" x="0" y="0"/>
  <path d="M13.7109 16.7773L12.1387 16.7773L12.1387 17.373C12.1387 18.3887 11.5918 18.9062 10.625 18.9062L3.0957 18.9062C2.11914 18.9062 1.57227 18.3887 1.57227 17.373L1.57227 3.10547C1.57227 2.08984 2.11914 1.57227 3.0957 1.57227L10.625 1.57227C11.5918 1.57227 12.1387 2.08984 12.1387 3.10547L12.1387 13.0664L13.7109 13.0664L13.7109 3.02734C13.7109 1.01562 12.6953 0 10.6543 0L3.06641 0C1.03516 0 0 1.00586 0 3.02734L0 17.4512C0 19.4727 1.03516 20.4785 3.06641 20.4785L10.6543 20.4785C12.6953 20.4785 13.7109 19.4629 13.7109 17.4512ZM3.88672 4.99023C4.53125 4.99023 5.04883 4.46289 5.04883 3.83789C5.04883 3.18359 4.53125 2.66602 3.88672 2.66602C3.24219 2.66602 2.72461 3.18359 2.72461 3.83789C2.72461 4.46289 3.24219 4.99023 3.88672 4.99023ZM6.85547 4.99023C7.51953 4.99023 8.02734 4.46289 8.02734 3.83789C8.02734 3.18359 7.51953 2.66602 6.85547 2.66602C6.21094 2.66602 5.70312 3.18359 5.70312 3.83789C5.70312 4.46289 6.21094 4.99023 6.85547 4.99023ZM9.84375 4.99023C10.4883 4.99023 10.9961 4.46289 10.9961 3.83789C10.9961 3.18359 10.4883 2.66602 9.84375 2.66602C9.18945 2.66602 8.68164 3.18359 8.68164 3.83789C8.68164 4.46289 9.18945 4.99023 9.84375 4.99023ZM3.88672 7.85156C4.53125 7.85156 5.04883 7.33398 5.04883 6.68945C5.04883 6.03516 4.53125 5.51758 3.88672 5.51758C3.24219 5.51758 2.72461 6.03516 2.72461 6.68945C2.72461 7.33398 3.24219 7.85156 3.88672 7.85156ZM6.85547 7.85156C7.51953 7.85156 8.02734 7.33398 8.02734 6.68945C8.02734 6.03516 7.51953 5.51758 6.85547 5.51758C6.21094 5.51758 5.70312 6.03516 5.70312 6.68945C5.70312 7.33398 6.21094 7.85156 6.85547 7.85156ZM9.84375 7.85156C10.4883 7.85156 10.9961 7.33398 10.9961 6.68945C10.9961 6.03516 10.4883 5.51758 9.84375 5.51758C9.18945 5.51758 8.68164 6.03516 8.68164 6.68945C8.68164 7.33398 9.18945 7.85156 9.84375 7.85156ZM3.88672 10.7227C4.53125 10.7227 5.04883 10.2051 5.04883 9.55078C5.04883 8.91602 4.53125 8.38867 3.88672 8.38867C3.24219 8.38867 2.72461 8.91602 2.72461 9.55078C2.72461 10.2051 3.24219 10.7227 3.88672 10.7227ZM6.85547 10.7227C7.51953 10.7227 8.02734 10.2051 8.02734 9.55078C8.02734 8.91602 7.51953 8.38867 6.85547 8.38867C6.21094 8.38867 5.70312 8.91602 5.70312 9.55078C5.70312 10.2051 6.21094 10.7227 6.85547 10.7227ZM9.84375 10.7227C10.4883 10.7227 10.9961 10.2051 10.9961 9.55078C10.9961 8.91602 10.4883 8.38867 9.84375 8.38867C9.18945 8.38867 8.68164 8.91602 8.68164 9.55078C8.68164 10.2051 9.18945 10.7227 9.84375 10.7227Z" fill="#000000" fill-opacity="0.85"/>
  <path d="M6.85547 17.793C8.45703 17.793 9.73633 16.5137 9.73633 14.9219C9.73633 13.3398 8.45703 12.0605 6.85547 12.0605C5.26367 12.0605 3.98438 13.3398 3.98438 14.9219C3.98438 16.5137 5.26367 17.793 6.85547 17.793ZM7.03125 16.0449L14.7852 16.0449C15.3906 16.0449 15.9082 15.5469 15.9082 14.9219C15.9082 14.2969 15.3906 13.7988 14.7852 13.7988L7.03125 13.7988C6.41602 13.7988 5.9082 14.2969 5.9082 14.9219C5.9082 15.5469 6.41602 16.0449 7.03125 16.0449Z" fill="#000000" fill-opacity="0.85"/>
 </g>
</svg>
