<?xml version="1.0" encoding="UTF-8"?>
<!--Generator: Apple Native CoreSVG 175.5-->
<!DOCTYPE svg
PUBLIC "-//W3C//DTD SVG 1.1//EN"
       "http://www.w3.org/Graphics/SVG/1.1/DTD/svg11.dtd">
<svg version="1.1" xmlns="http://www.w3.org/2000/svg" xmlns:xlink="http://www.w3.org/1999/xlink" width="21.5625" height="16.8457">
 <g>
  <rect height="16.8457" opacity="0" width="21.5625" x="0" y="0"/>
  <path d="M10.8008 9.56055C11.2012 9.56055 11.5723 9.375 12.002 8.94531L20.498 0.537109C20.1367 0.185547 19.4629 0.0195312 18.4961 0.0195312L2.77344 0.0195312C1.95312 0.0195312 1.37695 0.175781 1.05469 0.498047L9.59961 8.94531C10.0195 9.36523 10.3906 9.56055 10.8008 9.56055ZM0.244141 15.2734L7.14844 8.44727L0.224609 1.62109C0.078125 1.89453 0 2.36328 0 3.03711L0 13.8184C0 14.5117 0.078125 15 0.244141 15.2734ZM3.06641 16.8457L18.7891 16.8457C19.6094 16.8457 20.1758 16.6895 20.498 16.377L13.457 9.4043L12.8125 10.0586C12.1387 10.7031 11.5039 10.9961 10.8008 10.9961C10.0879 10.9961 9.45312 10.7031 8.78906 10.0586L8.13477 9.4043L1.11328 16.3672C1.48438 16.6895 2.12891 16.8457 3.06641 16.8457ZM21.3281 15.2637C21.4844 14.9805 21.5625 14.502 21.5625 13.8184L21.5625 3.03711C21.5625 2.38281 21.4844 1.91406 21.3477 1.65039L14.4434 8.44727Z" fill="#000000" fill-opacity="0.85"/>
 </g>
</svg>
