<?xml version="1.0" encoding="UTF-8"?>
<!--Generator: Apple Native CoreSVG 175.5-->
<!DOCTYPE svg
PUBLIC "-//W3C//DTD SVG 1.1//EN"
       "http://www.w3.org/Graphics/SVG/1.1/DTD/svg11.dtd">
<svg version="1.1" xmlns="http://www.w3.org/2000/svg" xmlns:xlink="http://www.w3.org/1999/xlink" width="21.5625" height="24.5997">
 <g>
  <rect height="24.5997" opacity="0" width="21.5625" x="0" y="0"/>
  <path d="M0 18.9454C0 19.5704 0.0683594 20.0391 0.224609 20.3516L6.86523 13.7598L0.195312 7.91019C0.078125 8.21293 0 8.63285 0 9.21879ZM1.03516 6.67973L9.62891 14.2383C10.0684 14.6289 10.4004 14.8438 10.8008 14.8438C11.1914 14.8438 11.5234 14.6289 11.9727 14.2383L20.5469 6.68949C20.1855 6.40629 19.5898 6.19144 18.7891 6.19144L11.7969 6.19144L11.7969 10.5567C11.7969 11.084 11.3379 11.5332 10.8008 11.5332C10.2539 11.5332 9.79492 11.084 9.79492 10.5567L9.79492 6.19144L2.77344 6.19144C1.99219 6.19144 1.39648 6.40629 1.03516 6.67973ZM1.16211 21.5137C1.5625 21.7774 2.1875 21.9727 3.06641 21.9727L18.4961 21.9727C19.3848 21.9727 20.0098 21.7774 20.4199 21.4942L13.6133 14.7559L12.8516 15.4395C12.1191 16.0547 11.5137 16.3965 10.8008 16.3965C10.0879 16.3965 9.47266 16.0547 8.75 15.4395L7.97852 14.7559ZM14.7266 13.7598L21.3477 20.3321C21.4941 20.0196 21.5625 19.5606 21.5625 18.9454L21.5625 9.21879C21.5625 8.64262 21.4844 8.23246 21.377 7.92973Z" fill="#000000" fill-opacity="0.85"/>
  <path d="M3.75977 2.24613L5.77148 4.35551C6.20117 4.78519 6.66016 4.65824 6.76758 4.08207L6.96289 3.03715C9.0332 3.38871 10.0195 4.63871 10.0195 6.15238L10.0195 6.42582C10.0195 7.00199 10.3125 7.33402 10.8008 7.33402C11.2891 7.33402 11.5723 7.00199 11.5723 6.42582L11.5723 6.15238C11.5723 4.63871 12.5684 3.38871 14.6387 3.03715L14.834 4.08207C14.9414 4.65824 15.4004 4.78519 15.8203 4.35551L17.8418 2.24613C18.1836 1.90433 18.0859 1.47465 17.6465 1.26957L14.9902 0.0879287C14.4434-0.156212 14.082 0.126991 14.1895 0.703163L14.3848 1.72855C12.8613 2.03129 11.1719 3.01762 10.8008 4.12113C10.4297 3.01762 8.74023 2.03129 7.2168 1.72855L7.41211 0.703163C7.51953 0.126991 7.1582-0.156212 6.60156 0.0879287L3.95508 1.26957C3.51562 1.47465 3.41797 1.90433 3.75977 2.24613Z" fill="#000000" fill-opacity="0.85"/>
 </g>
</svg>
