<?xml version="1.0" encoding="UTF-8"?>
<!--Generator: Apple Native CoreSVG 175.5-->
<!DOCTYPE svg
PUBLIC "-//W3C//DTD SVG 1.1//EN"
       "http://www.w3.org/Graphics/SVG/1.1/DTD/svg11.dtd">
<svg version="1.1" xmlns="http://www.w3.org/2000/svg" xmlns:xlink="http://www.w3.org/1999/xlink" width="19.9219" height="19.9316">
 <g>
  <rect height="19.9316" opacity="0" width="19.9219" x="0" y="0"/>
  <path d="M9.96094 19.9316C15.4102 19.9316 19.9219 15.4199 19.9219 9.9707C19.9219 4.53125 15.4004 0.00976562 9.95117 0.00976562C4.51172 0.00976562 0 4.53125 0 9.9707C0 15.4199 4.52148 19.9316 9.96094 19.9316Z" fill="#000000" fill-opacity="0.85"/>
  <path d="M7.99805 9.99023L4.54102 13.4375C4.47266 13.3203 4.44336 13.0859 4.44336 12.7246L4.44336 7.2168C4.44336 6.86523 4.47266 6.63086 4.52148 6.52344ZM9.9707 10.498C9.80469 10.498 9.61914 10.4492 9.41406 10.2637L5.01953 5.85938C5.14648 5.76172 5.42969 5.66406 5.84961 5.66406L14.0723 5.66406C14.4922 5.66406 14.7852 5.76172 14.9121 5.85938L10.5176 10.2637C10.3223 10.4395 10.1465 10.498 9.9707 10.498ZM11.9043 9.99023L15.3809 6.52344C15.4297 6.63086 15.4688 6.86523 15.4688 7.2168L15.4688 12.7246C15.4688 13.0859 15.4297 13.3203 15.3613 13.4375ZM9.96094 11.2988C10.3223 11.2988 10.5957 11.1816 10.9863 10.8203L11.3086 10.5273L14.873 14.0918C14.7559 14.1992 14.4824 14.2773 14.0625 14.2773L5.84961 14.2773C5.43945 14.2773 5.15625 14.1992 5.03906 14.0918L8.61328 10.5273L8.93555 10.8203C9.31641 11.1816 9.59961 11.2988 9.96094 11.2988Z" fill="#ffffff"/>
 </g>
</svg>
