<?xml version="1.0" encoding="UTF-8"?>
<!--Generator: Apple Native CoreSVG 175.5-->
<!DOCTYPE svg
PUBLIC "-//W3C//DTD SVG 1.1//EN"
       "http://www.w3.org/Graphics/SVG/1.1/DTD/svg11.dtd">
<svg version="1.1" xmlns="http://www.w3.org/2000/svg" xmlns:xlink="http://www.w3.org/1999/xlink" width="21.5625" height="25.1465">
 <g>
  <rect height="25.1465" opacity="0" width="21.5625" x="0" y="0"/>
  <path d="M3.06641 22.373L18.4961 22.373C20.5371 22.373 21.5625 21.3574 21.5625 19.3457L21.5625 9.62891C21.5625 8.22266 21.2695 7.59766 20.3418 6.86523L12.793 0.927734C12.0898 0.361328 11.5039 0 10.7812 0C10.0586 0 9.47266 0.361328 8.76953 0.927734L1.2207 6.86523C0.292969 7.59766 0 8.22266 0 9.62891L0 19.3457C0 21.3672 1.02539 22.373 3.06641 22.373ZM3.00781 20.8789C2.03125 20.8789 1.49414 20.3613 1.49414 19.3457L1.49414 9.36523C1.49414 8.66211 1.67969 8.32031 2.14844 7.95898L9.60938 2.13867C10.0879 1.76758 10.3516 1.5625 10.7812 1.5625C11.2012 1.5625 11.4746 1.76758 11.9531 2.13867L19.4141 7.95898C19.8828 8.32031 20.0684 8.66211 20.0684 9.36523L20.0684 19.3457C20.0684 20.3613 19.5117 20.8789 18.5547 20.8789ZM1.10352 20.5273L2.12891 21.543L9.61914 14.1602C10.0293 13.7402 10.4102 13.5547 10.8008 13.5547C11.1816 13.5547 11.5625 13.7402 11.9824 14.1602L19.4727 21.543L20.4883 20.5273L12.832 13.0078C12.1484 12.3242 11.4844 12.0508 10.8008 12.0508C10.1074 12.0508 9.45312 12.3242 8.76953 13.0078ZM7.24609 14.7754L8.27148 13.7695L2.16797 7.73438L1.15234 8.75ZM13.3301 13.7695L14.3457 14.7754L20.4395 8.75L19.4238 7.73438Z" fill="#000000" fill-opacity="0.85"/>
 </g>
</svg>
