<?xml version="1.0" encoding="UTF-8"?>
<!--Generator: Apple Native CoreSVG 175.5-->
<!DOCTYPE svg
PUBLIC "-//W3C//DTD SVG 1.1//EN"
       "http://www.w3.org/Graphics/SVG/1.1/DTD/svg11.dtd">
<svg version="1.1" xmlns="http://www.w3.org/2000/svg" xmlns:xlink="http://www.w3.org/1999/xlink" width="19.9219" height="19.9316">
 <g>
  <rect height="19.9316" opacity="0" width="19.9219" x="0" y="0"/>
  <path d="M9.96094 19.9219C15.4102 19.9219 19.9219 15.4004 19.9219 9.96094C19.9219 4.51172 15.4004 0 9.95117 0C4.51172 0 0 4.51172 0 9.96094C0 15.4004 4.52148 19.9219 9.96094 19.9219ZM9.96094 18.2617C5.35156 18.2617 1.66992 14.5703 1.66992 9.96094C1.66992 5.35156 5.3418 1.66016 9.95117 1.66016C14.5605 1.66016 18.2617 5.35156 18.2617 9.96094C18.2617 14.5703 14.5703 18.2617 9.96094 18.2617Z" fill="#000000" fill-opacity="0.85"/>
  <path d="M8.04688 9.9707L4.67773 6.62109C4.62891 6.70898 4.59961 6.94336 4.59961 7.28516L4.59961 12.6367C4.59961 12.9688 4.62891 13.2129 4.69727 13.3203ZM9.96094 10.4785C10.127 10.4785 10.3027 10.4199 10.4883 10.2344L14.7559 5.9668C14.6289 5.86914 14.3457 5.78125 13.9355 5.78125L5.9668 5.78125C5.55664 5.78125 5.2832 5.86914 5.15625 5.9668L9.42383 10.2344C9.61914 10.4297 9.79492 10.4785 9.96094 10.4785ZM11.8359 9.9707L15.1855 13.3203C15.2539 13.2129 15.293 12.9688 15.293 12.6367L15.293 7.28516C15.293 6.94336 15.2539 6.70898 15.2051 6.62109ZM9.95117 11.25C9.59961 11.25 9.32617 11.123 8.95508 10.7812L8.64258 10.498L5.17578 13.9551C5.29297 14.0625 5.56641 14.1309 5.9668 14.1309L13.9258 14.1309C14.3359 14.1309 14.5996 14.0625 14.7168 13.9551L11.2598 10.498L10.9473 10.7812C10.5664 11.123 10.3027 11.25 9.95117 11.25Z" fill="#000000" fill-opacity="0.85"/>
 </g>
</svg>
