<?xml version="1.0" encoding="UTF-8"?>
<!--Generator: Apple Native CoreSVG 175.5-->
<!DOCTYPE svg
PUBLIC "-//W3C//DTD SVG 1.1//EN"
       "http://www.w3.org/Graphics/SVG/1.1/DTD/svg11.dtd">
<svg version="1.1" xmlns="http://www.w3.org/2000/svg" xmlns:xlink="http://www.w3.org/1999/xlink" width="17.5362" height="18.3937">
 <g>
  <rect height="18.3937" opacity="0" width="17.5362" x="0" y="0"/>
  <path d="M1.02607 13.3717L4.2292 16.565C5.49873 17.8346 7.10029 17.8443 8.34052 16.6041L16.9343 8.00058C17.7546 7.18026 17.7253 6.05722 16.9147 5.2369L12.2858 0.617764C11.4655-0.192783 10.3425-0.212314 9.5124 0.598233L0.908883 9.18222C-0.331351 10.4225-0.31182 12.0338 1.02607 13.3717ZM2.07099 12.3267C1.37763 11.6334 1.34834 10.8228 2.0124 10.1685L10.5085 1.69198C10.7429 1.47714 11.0261 1.45761 11.2507 1.67245L15.8601 6.27206C16.0847 6.4869 16.0554 6.78964 15.8308 7.01425L7.3542 15.5006C6.6999 16.1646 5.91865 16.1646 5.25459 15.5006ZM2.3542 8.72323L8.79951 15.149L9.70771 14.2408L3.27216 7.81503Z" fill="#000000" fill-opacity="0.85"/>
 </g>
</svg>
