<?xml version="1.0" encoding="UTF-8"?>
<!--Generator: Apple Native CoreSVG 175.5-->
<!DOCTYPE svg
PUBLIC "-//W3C//DTD SVG 1.1//EN"
       "http://www.w3.org/Graphics/SVG/1.1/DTD/svg11.dtd">
<svg version="1.1" xmlns="http://www.w3.org/2000/svg" xmlns:xlink="http://www.w3.org/1999/xlink" width="14.1602" height="20.9082">
 <g>
  <rect height="20.9082" opacity="0" width="14.1602" x="0" y="0"/>
  <path d="M0 14.4043C0 15.918 0.595703 17.0312 1.69922 17.6367C2.23633 17.9199 2.54883 18.2812 2.74414 18.9355L3.05664 19.9805C3.24219 20.6055 3.68164 20.9082 4.33594 20.9082L8.84766 20.9082C9.52148 20.9082 9.93164 20.6152 10.1172 19.9805L10.4395 18.9355C10.6348 18.2812 10.9473 17.9199 11.4844 17.6367C12.5879 17.0312 13.1836 15.918 13.1836 14.4043L13.1836 6.50391C13.1836 4.99023 12.5879 3.88672 11.4844 3.27148C10.9473 2.98828 10.6348 2.62695 10.4395 1.98242L10.1172 0.927734C9.95117 0.3125 9.51172 0 8.84766 0L4.33594 0C3.68164 0 3.24219 0.302734 3.05664 0.927734L2.74414 1.98242C2.55859 2.61719 2.24609 2.99805 1.69922 3.27148C0.605469 3.85742 0 4.9707 0 6.50391ZM1.42578 14.1992L1.42578 6.71875C1.42578 5.26367 2.27539 4.38477 3.70117 4.38477L9.48242 4.38477C10.9082 4.38477 11.7578 5.26367 11.7578 6.71875L11.7578 14.1992C11.7578 15.6445 10.9082 16.5234 9.48242 16.5234L3.70117 16.5234C2.27539 16.5234 1.42578 15.6445 1.42578 14.1992ZM12.9688 9.76562L13.3203 9.76562C13.8281 9.76562 14.1602 9.42383 14.1602 8.86719L14.1602 7.54883C14.1602 6.99219 13.8281 6.65039 13.3203 6.65039L12.9688 6.65039Z" fill="#000000" fill-opacity="0.85"/>
  <path d="M6.63086 11.3672C7.07031 11.3672 7.32422 11.1133 7.34375 10.625L7.4707 7.2168C7.49023 6.70898 7.10938 6.34766 6.62109 6.34766C6.12305 6.34766 5.75195 6.69922 5.77148 7.20703L5.89844 10.625C5.91797 11.1035 6.16211 11.3672 6.63086 11.3672ZM6.62109 14.3359C7.1582 14.3359 7.61719 13.9062 7.61719 13.3691C7.61719 12.8223 7.16797 12.4023 6.62109 12.4023C6.07422 12.4023 5.61523 12.832 5.61523 13.3691C5.61523 13.8965 6.08398 14.3359 6.62109 14.3359Z" fill="#000000" fill-opacity="0.85"/>
 </g>
</svg>
