<?xml version="1.0" encoding="UTF-8"?>
<!--Generator: Apple Native CoreSVG 175.5-->
<!DOCTYPE svg
PUBLIC "-//W3C//DTD SVG 1.1//EN"
       "http://www.w3.org/Graphics/SVG/1.1/DTD/svg11.dtd">
<svg version="1.1" xmlns="http://www.w3.org/2000/svg" xmlns:xlink="http://www.w3.org/1999/xlink" width="22.4707" height="16.3574">
 <g>
  <rect height="16.3574" opacity="0" width="22.4707" x="0" y="0"/>
  <path d="M3.86719 16.3574L18.6035 16.3574C20.8887 16.3574 22.4707 14.7852 22.4707 12.5195C22.4707 10.2539 20.8887 8.67188 18.6035 8.67188L3.86719 8.67188C1.58203 8.67188 0 10.2539 0 12.5195C0 14.7852 1.58203 16.3574 3.86719 16.3574ZM3.86719 7.33398L18.6035 7.33398C19.5215 7.33398 20.3613 7.53906 21.084 7.91016L18.75 2.27539C18.1445 0.800781 16.8652 0.00976562 15.1758 0.00976562L7.29492 0.00976562C5.60547 0.00976562 4.32617 0.800781 3.7207 2.27539L1.37695 7.91016C2.10938 7.53906 2.94922 7.33398 3.86719 7.33398ZM17.1973 12.5195C17.1973 11.8457 17.7734 11.2695 18.4668 11.2695C19.1309 11.2695 19.7168 11.8457 19.7168 12.5195C19.7168 13.2129 19.1309 13.7695 18.4668 13.7695C17.7734 13.7793 17.1973 13.2227 17.1973 12.5195Z" fill="#000000" fill-opacity="0.85"/>
 </g>
</svg>
