<?xml version="1.0" encoding="UTF-8"?>
<!--Generator: Apple Native CoreSVG 175.5-->
<!DOCTYPE svg
PUBLIC "-//W3C//DTD SVG 1.1//EN"
       "http://www.w3.org/Graphics/SVG/1.1/DTD/svg11.dtd">
<svg version="1.1" xmlns="http://www.w3.org/2000/svg" xmlns:xlink="http://www.w3.org/1999/xlink" width="20.0684" height="22.4707">
 <g>
  <rect height="22.4707" opacity="0" width="20.0684" x="0" y="0"/>
  <path d="M3.45703 7.41211L16.6113 7.41211C17.4316 7.41211 18.1934 7.59766 18.8281 7.91992L16.748 2.90039C16.2109 1.57227 15.0586 0.869141 13.5547 0.869141L6.51367 0.869141C5 0.869141 3.85742 1.57227 3.32031 2.90039L1.23047 7.91992C1.875 7.59766 2.63672 7.41211 3.45703 7.41211ZM3.45703 15.4785L16.6113 15.4785C18.6621 15.4785 20.0684 14.082 20.0684 12.0508C20.0684 10.0195 18.6621 8.60352 16.6113 8.60352L3.45703 8.60352C1.40625 8.60352 0 10.0195 0 12.0508C0 14.082 1.40625 15.4785 3.45703 15.4785ZM15.3516 12.0508C15.3516 11.4551 15.8691 10.9277 16.4746 10.9277C17.0801 10.9277 17.6074 11.4551 17.6074 12.0508C17.6074 12.6758 17.0801 13.1641 16.4746 13.1738C15.8691 13.1738 15.3516 12.6855 15.3516 12.0508ZM9.24805 20.2539L10.8203 20.2539L10.8203 14.7559L9.24805 14.7559ZM1.91406 21.0352L18.1543 21.0352C18.584 21.0352 18.9355 20.6836 18.9355 20.2539C18.9355 19.8145 18.584 19.4629 18.1543 19.4629L1.91406 19.4629C1.48438 19.4629 1.13281 19.8145 1.13281 20.2539C1.13281 20.6836 1.48438 21.0352 1.91406 21.0352ZM10.0293 22.4707C11.2402 22.4707 12.2363 21.4746 12.2363 20.2637C12.2363 19.0527 11.2402 18.0566 10.0293 18.0566C8.82812 18.0566 7.83203 19.0527 7.83203 20.2637C7.83203 21.4746 8.82812 22.4707 10.0293 22.4707Z" fill="#000000" fill-opacity="0.85"/>
 </g>
</svg>
