<?xml version="1.0" encoding="UTF-8"?>
<!--Generator: Apple Native CoreSVG 175.5-->
<!DOCTYPE svg
PUBLIC "-//W3C//DTD SVG 1.1//EN"
       "http://www.w3.org/Graphics/SVG/1.1/DTD/svg11.dtd">
<svg version="1.1" xmlns="http://www.w3.org/2000/svg" xmlns:xlink="http://www.w3.org/1999/xlink" width="21.0059" height="21.0254">
 <g>
  <rect height="21.0254" opacity="0" width="21.0059" x="0" y="0"/>
  <path d="M15.4199 0.693359C12.8516 0.693359 11.3965 3.14453 10.127 7.46094L12.4707 9.79492L18.2324 9.79492C20.0293 9.79492 21.0059 8.82812 21.0059 7.08984C20.9961 3.96484 18.1738 0.693359 15.4199 0.693359ZM5.5957 20.3027C8.16406 20.3027 9.58008 17.8711 10.8887 13.584L8.51562 11.2207L2.79297 11.2207C0.966797 11.2207 0 12.1582 0 13.916C0.00976562 17.0508 2.83203 20.3027 5.5957 20.3027ZM7.10938 0C5.9375 0 4.74609 0.410156 3.74023 1.06445L9.80469 7.12891L9.80469 2.79297C9.80469 0.996094 8.83789 0 7.10938 0ZM0.712891 5.5957C0.712891 8.4082 3.64258 9.83398 8.63281 11.3281L1.14258 3.82812C0.869141 4.39453 0.712891 4.99023 0.712891 5.5957ZM20.3125 15.4199C20.3125 12.6074 17.373 11.1816 12.3535 9.6875L19.8828 17.2168C20.1562 16.6406 20.3125 16.0254 20.3125 15.4199ZM13.9258 21.0156C15.0977 21.0059 16.2695 20.625 17.2754 19.9707L11.2207 13.916L11.2207 18.2324C11.2207 20.0293 12.1875 21.0156 13.9258 21.0156Z" fill="#000000" fill-opacity="0.85"/>
  <path d="M18.9355 20.0098C19.2285 20.3027 19.707 20.293 20 20C20.2832 19.707 20.293 19.2285 20 18.9355L2.08008 1.02539C1.78711 0.732422 1.30859 0.722656 1.00586 1.02539C0.722656 1.30859 0.722656 1.79688 1.00586 2.08984Z" fill="#000000" fill-opacity="0.85"/>
 </g>
</svg>
