<?xml version="1.0" encoding="UTF-8"?>
<!--Generator: Apple Native CoreSVG 175.5-->
<!DOCTYPE svg
PUBLIC "-//W3C//DTD SVG 1.1//EN"
       "http://www.w3.org/Graphics/SVG/1.1/DTD/svg11.dtd">
<svg version="1.1" xmlns="http://www.w3.org/2000/svg" xmlns:xlink="http://www.w3.org/1999/xlink" width="21.0156" height="21.0254">
 <g>
  <rect height="21.0254" opacity="0" width="21.0156" x="0" y="0"/>
  <path d="M15.4199 0.703125C12.8613 0.703125 11.4355 3.14453 10.127 7.46094L12.4609 9.79492L18.2324 9.79492C20.0293 9.79492 21.0156 8.82812 21.0156 7.08984C21.0059 3.96484 18.1836 0.703125 15.4199 0.703125ZM15.4199 2.19727C17.373 2.19727 19.5215 4.78516 19.5215 7.08984C19.5215 7.99805 19.1992 8.30078 18.2324 8.30078L11.4551 8.30078C12.6562 4.3457 13.6035 2.19727 15.4199 2.19727ZM5.5957 20.3027C8.1543 20.3027 9.58008 17.8711 10.8887 13.584L8.51562 11.2109L2.7832 11.2109C0.996094 11.2109 0 12.1777 0 13.916C0.00976562 17.0508 2.83203 20.3027 5.5957 20.3027ZM5.5957 18.8086C3.64258 18.8086 1.49414 16.2305 1.49414 13.916C1.49414 13.0078 1.81641 12.7051 2.7832 12.7051L9.56055 12.7051C8.35938 16.6602 7.42188 18.8086 5.5957 18.8086ZM7.09961 0C5.92773 0 4.74609 0.410156 3.73047 1.06445L4.83398 2.1582C5.52734 1.74805 6.32812 1.49414 7.09961 1.49414C8.00781 1.49414 8.31055 1.82617 8.31055 2.79297L8.31055 5.63477L9.80469 7.12891L9.80469 2.79297C9.80469 0.996094 8.83789 0 7.09961 0ZM0.712891 5.5957C0.712891 8.4082 3.63281 9.83398 8.63281 11.3281L6.01562 8.71094C3.50586 7.90039 2.20703 7.02148 2.20703 5.5957C2.20703 5.39062 2.24609 5.20508 2.32422 5.00977L1.14258 3.82812C0.869141 4.39453 0.712891 4.99023 0.712891 5.5957ZM20.3125 15.4199C20.3125 12.6074 17.373 11.1816 12.3535 9.6875L14.9609 12.2949C17.5098 13.1055 18.8184 13.9941 18.8184 15.4199C18.8184 15.6348 18.7793 15.8398 18.7012 16.0352L19.8828 17.2168C20.1562 16.6406 20.3125 16.0254 20.3125 15.4199ZM13.9258 21.0156C15.0977 21.0059 16.2695 20.625 17.2754 19.9707L16.1816 18.8672C15.4785 19.2773 14.6973 19.5215 13.9258 19.5215C13.0176 19.5215 12.7148 19.1992 12.7148 18.2324L12.7148 15.4102L11.2207 13.916L11.2207 18.2324C11.2207 20.0293 12.1875 21.0156 13.9258 21.0156Z" fill="#000000" fill-opacity="0.85"/>
  <path d="M18.9258 20.0098C19.2285 20.3027 19.707 20.293 19.9902 20C20.2832 19.707 20.2832 19.2285 19.9902 18.9355L2.08008 1.02539C1.78711 0.732422 1.30859 0.722656 1.00586 1.02539C0.722656 1.30859 0.722656 1.79688 1.00586 2.08984Z" fill="#000000" fill-opacity="0.85"/>
 </g>
</svg>
