<?xml version="1.0" encoding="UTF-8"?>
<!--Generator: Apple Native CoreSVG 175.5-->
<!DOCTYPE svg
PUBLIC "-//W3C//DTD SVG 1.1//EN"
       "http://www.w3.org/Graphics/SVG/1.1/DTD/svg11.dtd">
<svg version="1.1" xmlns="http://www.w3.org/2000/svg" xmlns:xlink="http://www.w3.org/1999/xlink" width="22.0605" height="21.3574">
 <g>
  <rect height="21.3574" opacity="0" width="22.0605" x="0" y="0"/>
  <path d="M3.86719 4.47266L5.38086 4.47266L5.38086 2.96875C5.38086 2.14844 5.80078 1.74805 6.61133 1.74805L15.4492 1.74805C16.2695 1.74805 16.6797 2.14844 16.6797 2.96875L16.6797 4.45312L18.1934 4.45312L18.1934 3.07617C18.1934 1.17188 17.2461 0.322266 15.4297 0.322266L6.63086 0.322266C4.91211 0.322266 3.86719 1.17188 3.86719 3.07617ZM2.91016 18.457L4.84375 18.457L4.84375 16.9824L2.89062 16.9824C2.02148 16.9824 1.58203 16.5332 1.58203 15.6738L1.58203 6.37695C1.58203 5.51758 2.02148 5.06836 2.89062 5.06836L19.1797 5.06836C20.0391 5.06836 20.4883 5.51758 20.4883 6.37695L20.4883 15.6738C20.4883 16.5332 20.0391 16.9824 19.1797 16.9824L17.3535 16.9824L17.3535 18.457L19.1602 18.457C21.0547 18.457 22.0605 17.5 22.0605 15.5957L22.0605 6.45508C22.0605 4.56055 21.0547 3.59375 19.1602 3.59375L2.91016 3.59375C1.10352 3.59375 0 4.56055 0 6.45508L0 15.5957C0 17.5 1.00586 18.457 2.91016 18.457ZM5.80078 21.3574L16.2598 21.3574C17.5 21.3574 18.125 20.791 18.125 19.4922L18.125 15.3809C18.125 14.0918 17.5 13.5156 16.2598 13.5156L5.80078 13.5156C4.61914 13.5156 3.93555 14.0918 3.93555 15.3809L3.93555 19.4922C3.93555 20.791 4.56055 21.3574 5.80078 21.3574ZM6.28906 19.8828C5.77148 19.8828 5.50781 19.6289 5.50781 19.1016L5.50781 15.7617C5.50781 15.2441 5.77148 14.9902 6.28906 14.9902L15.7812 14.9902C16.3086 14.9902 16.5527 15.2441 16.5527 15.7617L16.5527 19.1016C16.5527 19.6289 16.3086 19.8828 15.7812 19.8828ZM6.96289 17.4219C6.96289 17.8418 7.28516 18.1738 7.70508 18.1738L14.3652 18.1738C14.7754 18.1738 15.0977 17.8418 15.0977 17.4219C15.0977 17.0215 14.7754 16.6895 14.3652 16.6895L7.70508 16.6895C7.28516 16.6895 6.96289 17.0215 6.96289 17.4219ZM5.77148 8.53516L6.66992 8.53516C6.94336 8.53516 7.10938 8.36914 7.10938 8.0957L7.10938 7.20703C7.10938 6.93359 6.94336 6.76758 6.66992 6.76758L5.77148 6.76758C5.50781 6.76758 5.3418 6.93359 5.3418 7.20703L5.3418 8.0957C5.3418 8.36914 5.50781 8.53516 5.77148 8.53516ZM8.98438 8.53516L9.87305 8.53516C10.1465 8.53516 10.3125 8.36914 10.3125 8.0957L10.3125 7.20703C10.3125 6.93359 10.1465 6.76758 9.87305 6.76758L8.98438 6.76758C8.71094 6.76758 8.54492 6.93359 8.54492 7.20703L8.54492 8.0957C8.54492 8.36914 8.71094 8.53516 8.98438 8.53516ZM12.1875 8.53516L13.0859 8.53516C13.3496 8.53516 13.5156 8.36914 13.5156 8.0957L13.5156 7.20703C13.5156 6.93359 13.3496 6.76758 13.0859 6.76758L12.1875 6.76758C11.9141 6.76758 11.748 6.93359 11.748 7.20703L11.748 8.0957C11.748 8.36914 11.9141 8.53516 12.1875 8.53516ZM15.3906 8.53516L16.2891 8.53516C16.5625 8.53516 16.7285 8.36914 16.7285 8.0957L16.7285 7.20703C16.7285 6.93359 16.5625 6.76758 16.2891 6.76758L15.3906 6.76758C15.127 6.76758 14.9609 6.93359 14.9609 7.20703L14.9609 8.0957C14.9609 8.36914 15.127 8.53516 15.3906 8.53516ZM5.77148 11.8262L6.66992 11.8262C6.94336 11.8262 7.10938 11.6602 7.10938 11.3867L7.10938 10.4883C7.10938 10.2148 6.94336 10.0488 6.66992 10.0488L5.77148 10.0488C5.50781 10.0488 5.3418 10.2148 5.3418 10.4883L5.3418 11.3867C5.3418 11.6602 5.50781 11.8262 5.77148 11.8262ZM8.98438 11.8262L9.87305 11.8262C10.1465 11.8262 10.3125 11.6602 10.3125 11.3867L10.3125 10.4883C10.3125 10.2148 10.1465 10.0488 9.87305 10.0488L8.98438 10.0488C8.71094 10.0488 8.54492 10.2148 8.54492 10.4883L8.54492 11.3867C8.54492 11.6602 8.71094 11.8262 8.98438 11.8262ZM12.1875 11.8262L13.0859 11.8262C13.3496 11.8262 13.5156 11.6602 13.5156 11.3867L13.5156 10.4883C13.5156 10.2148 13.3496 10.0488 13.0859 10.0488L12.1875 10.0488C11.9141 10.0488 11.748 10.2148 11.748 10.4883L11.748 11.3867C11.748 11.6602 11.9141 11.8262 12.1875 11.8262ZM15.3906 11.8262L16.2891 11.8262C16.5625 11.8262 16.7285 11.6602 16.7285 11.3867L16.7285 10.4883C16.7285 10.2148 16.5625 10.0488 16.2891 10.0488L15.3906 10.0488C15.127 10.0488 14.9609 10.2148 14.9609 10.4883L14.9609 11.3867C14.9609 11.6602 15.127 11.8262 15.3906 11.8262Z" fill="#000000" fill-opacity="0.85"/>
 </g>
</svg>
