<?xml version="1.0" encoding="UTF-8"?>
<!--Generator: Apple Native CoreSVG 175.5-->
<!DOCTYPE svg
PUBLIC "-//W3C//DTD SVG 1.1//EN"
       "http://www.w3.org/Graphics/SVG/1.1/DTD/svg11.dtd">
<svg version="1.1" xmlns="http://www.w3.org/2000/svg" xmlns:xlink="http://www.w3.org/1999/xlink" width="15.4161" height="22.9199">
 <g>
  <rect height="22.9199" opacity="0" width="15.4161" x="0" y="0"/>
  <path d="M13.1775 4.26758C14.3396 4.26758 15.2966 3.31055 15.2966 2.11914C15.2966 0.947266 14.3396 0 13.1775 0C11.9861 0 11.0291 0.947266 11.0291 2.11914C11.0291 3.31055 11.9861 4.26758 13.1775 4.26758ZM8.27516 19.3457C8.84156 19.3457 9.30055 18.8867 9.30055 18.3398L9.30055 13.2227C9.30055 12.9785 9.21266 12.7637 9.06617 12.5879L6.75172 9.74609C6.60523 9.56055 6.65406 9.36523 6.83961 9.26758L9.65211 7.80273C9.85719 7.69531 10.072 7.77344 10.1013 8.01758L10.3455 9.74609C10.4041 10.127 10.6189 10.3906 11.0193 10.5859L13.8025 11.9824C14.5545 12.3633 15.1502 12.0508 15.3455 11.5723C15.5212 11.123 15.3845 10.5371 14.7595 10.2246L12.2791 8.95508L11.8787 6.00586C11.6541 4.43359 9.92555 3.4668 8.26539 4.33594L4.59351 6.25C2.91383 7.12891 2.67945 9.05273 3.93922 10.3125L7.28883 13.6523L7.28883 18.3398C7.28883 18.8867 7.73805 19.3457 8.27516 19.3457ZM0.462655 13.0273C0.843515 13.7109 1.54664 13.916 2.24976 13.7598L4.35914 13.291C4.65211 13.2324 4.83766 13.0176 4.83766 12.7051C4.83766 12.4023 4.63258 12.1875 4.33961 12.1387L0.736093 11.5137C0.130624 11.4062-0.17211 11.8945 0.101327 12.3926ZM2.17164 13.125L4.80836 20.957L5.87281 20.5859L3.27516 12.793ZM8.25562 22.8711C10.4236 22.8711 12.1228 21.1523 12.1228 19.0137C12.1228 17.5391 11.3025 16.2695 10.0818 15.6152L10.0818 17.0801C10.6091 17.5586 10.9119 18.252 10.9119 19.0137C10.9119 20.4785 9.72047 21.6602 8.25562 21.6602C6.82008 21.6602 5.60914 20.4492 5.60914 19.0137C5.60914 18.2422 5.9607 17.5293 6.49781 17.041L6.49781 15.5957C5.25758 16.2207 4.3982 17.5195 4.3982 19.0137C4.3982 21.1523 6.13648 22.8711 8.25562 22.8711ZM10.6189 20.6934L11.7127 21.0645L14.1736 13.584C14.281 13.291 14.115 12.959 13.8416 12.8711C13.5095 12.7734 13.2263 12.9395 13.1287 13.2324ZM2.88453 22.041C2.48414 22.3047 2.60133 22.9004 3.07008 22.9004L13.4314 22.9004C13.9002 22.9004 14.0173 22.2852 13.6365 22.041L11.3416 20.5371L9.26148 21.9727L7.24976 21.9727L5.16969 20.5371Z" fill="#000000" fill-opacity="0.85"/>
 </g>
</svg>
