<?xml version="1.0" encoding="UTF-8"?>
<!--Generator: Apple Native CoreSVG 175.5-->
<!DOCTYPE svg
PUBLIC "-//W3C//DTD SVG 1.1//EN"
       "http://www.w3.org/Graphics/SVG/1.1/DTD/svg11.dtd">
<svg version="1.1" xmlns="http://www.w3.org/2000/svg" xmlns:xlink="http://www.w3.org/1999/xlink" width="22.1473" height="22.1608">
 <g>
  <rect height="22.1608" opacity="0" width="22.1473" x="0" y="0"/>
  <path d="M1.09505 13.2337L8.91731 21.056C10.3626 22.5013 11.7884 22.5111 13.224 21.0853L21.0853 13.2142C22.5111 11.7884 22.5013 10.3529 21.056 8.90755L13.2435 1.09505C11.7982-0.350264 10.3724-0.369795 8.93685 1.06575L1.06575 8.92708C-0.369795 10.3626-0.350264 11.7884 1.09505 13.2337ZM2.22786 12.1497C1.5345 11.4466 1.51497 10.7142 2.23763 9.99153L9.99153 2.23763C10.7142 1.51497 11.4466 1.52474 12.1497 2.22786L19.9232 10.0013C20.6165 10.6947 20.6361 11.4368 19.9134 12.1595L12.1595 19.9134C11.4368 20.6361 10.6849 20.6165 10.0013 19.9329Z" fill="#000000" fill-opacity="0.85"/>
  <path d="M13.3802 17.0325C13.6829 17.0325 13.9857 16.8275 13.9857 16.4564C13.9857 16.3099 13.9466 16.1829 13.8685 16.0267L12.7161 13.6732C12.599 13.429 12.472 13.263 12.3743 13.1263L11.6908 12.14L11.7493 11.974C11.9544 11.3783 12.0521 10.9876 12.0911 10.4017L12.1986 8.83919C12.2572 7.99935 11.7786 7.31575 10.8509 7.31575C10.2454 7.31575 9.6888 7.61849 9.10286 8.19466L8.20442 9.0638C7.90169 9.35677 7.8138 9.59114 7.7845 9.96224L7.66731 11.2708C7.63802 11.6615 7.86263 11.9154 8.21419 11.9447C8.54622 11.9642 8.79036 11.7689 8.82942 11.349L8.93685 9.9427L9.42513 9.52278C9.57161 9.39583 9.74739 9.47395 9.72786 9.6888L9.63997 10.8802C9.58138 11.5345 9.90364 12.0033 10.2259 12.4036L11.349 13.8197C11.4564 13.9466 11.4759 13.9954 11.5345 14.1029L12.7747 16.6322C12.9017 16.9056 13.1165 17.0325 13.3802 17.0325ZM8.0677 17.0325C8.25325 17.0325 8.41927 16.9642 8.53645 16.8275L10.3236 14.6986C10.5189 14.4642 10.5384 14.4544 10.5872 14.2396L10.6849 13.8197L9.70833 12.5892L9.41536 13.9661L7.76497 15.9193C7.63802 16.0755 7.51106 16.2318 7.51106 16.4661C7.51106 16.8177 7.74544 17.0325 8.0677 17.0325ZM13.7025 10.7435L15.0892 10.7435C15.4993 10.7435 15.7337 10.5189 15.7337 10.1575C15.7337 9.81575 15.4993 9.58138 15.0892 9.58138L13.6146 9.58138L12.7064 8.56575L12.599 10.0892L12.9993 10.4896C13.1947 10.6947 13.3704 10.7435 13.7025 10.7435ZM11.5931 6.85677C12.2865 6.85677 12.8626 6.2806 12.8626 5.597C12.8626 4.88411 12.2865 4.32747 11.5931 4.32747C10.89 4.32747 10.3333 4.88411 10.3333 5.597C10.3333 6.2806 10.89 6.85677 11.5931 6.85677Z" fill="#000000" fill-opacity="0.85"/>
 </g>
</svg>
