<?xml version="1.0" encoding="UTF-8"?>
<!--Generator: Apple Native CoreSVG 175.5-->
<!DOCTYPE svg
PUBLIC "-//W3C//DTD SVG 1.1//EN"
       "http://www.w3.org/Graphics/SVG/1.1/DTD/svg11.dtd">
<svg version="1.1" xmlns="http://www.w3.org/2000/svg" xmlns:xlink="http://www.w3.org/1999/xlink" width="19.9219" height="19.9316">
 <g>
  <rect height="19.9316" opacity="0" width="19.9219" x="0" y="0"/>
  <path d="M9.96094 19.9219C15.4102 19.9219 19.9219 15.4004 19.9219 9.96094C19.9219 4.51172 15.4004 0 9.95117 0C4.51172 0 0 4.51172 0 9.96094C0 15.4004 4.52148 19.9219 9.96094 19.9219ZM9.96094 18.2617C5.35156 18.2617 1.66992 14.5703 1.66992 9.96094C1.66992 5.35156 5.3418 1.66016 9.95117 1.66016C14.5605 1.66016 18.2617 5.35156 18.2617 9.96094C18.2617 14.5703 14.5703 18.2617 9.96094 18.2617Z" fill="#000000" fill-opacity="0.85"/>
  <path d="M6.03516 15.918C6.25 15.918 6.41602 15.8105 6.5918 15.6348L8.4082 13.8477C8.58398 13.6914 8.61328 13.6426 8.70117 13.4082L9.51172 11.2988C9.62891 10.9961 9.90234 10.918 10.2148 11.1035L11.748 12.002L10.332 13.2129C10.1953 13.3301 10.0977 13.4961 10.0977 13.6816C10.0977 13.9746 10.3125 14.2383 10.625 14.2383C10.8301 14.2383 10.9863 14.1602 11.1816 13.9941L13.1152 12.3535C13.291 12.207 13.3496 12.0605 13.3496 11.8848C13.3496 11.709 13.2422 11.5527 13.0078 11.3965L10.9375 10.0391L11.3477 8.62305C11.3965 8.41797 11.5918 8.38867 11.7188 8.57422L12.2656 9.375C12.4219 9.60938 12.6953 9.66797 12.9492 9.56055L14.8438 8.7207C15.1758 8.57422 15.3027 8.28125 15.1562 7.99805C15.0195 7.71484 14.7461 7.60742 14.4043 7.75391L12.9492 8.39844L11.9336 6.96289C11.4453 6.26953 10.8008 5.97656 9.84375 6.04492L7.56836 6.2207C7.25586 6.24023 7.02148 6.45508 6.97266 6.79688L6.69922 8.85742C6.65039 9.22852 6.82617 9.48242 7.20703 9.51172C7.50977 9.54102 7.74414 9.36523 7.79297 8.99414L8.02734 7.36328L8.88672 7.31445C9.07227 7.29492 9.17969 7.41211 9.13086 7.59766L7.59766 13.0078L5.69336 14.9023C5.54688 15.0488 5.47852 15.1953 5.47852 15.3516C5.47852 15.6445 5.70312 15.918 6.03516 15.918ZM11.6309 5.82031C12.334 5.82031 12.9102 5.24414 12.9102 4.57031C12.9102 3.85742 12.3438 3.29102 11.6309 3.29102C10.9277 3.29102 10.3711 3.85742 10.3711 4.57031C10.3711 5.24414 10.9277 5.82031 11.6309 5.82031Z" fill="#000000" fill-opacity="0.85"/>
 </g>
</svg>
