<?xml version="1.0" encoding="UTF-8"?>
<!--Generator: Apple Native CoreSVG 175.5-->
<!DOCTYPE svg
PUBLIC "-//W3C//DTD SVG 1.1//EN"
       "http://www.w3.org/Graphics/SVG/1.1/DTD/svg11.dtd">
<svg version="1.1" xmlns="http://www.w3.org/2000/svg" xmlns:xlink="http://www.w3.org/1999/xlink" width="19.1054" height="22.0605">
 <g>
  <rect height="22.0605" opacity="0" width="19.1054" x="0" y="0"/>
  <path d="M6.56287 4.20898C7.73475 4.20898 8.67225 3.28125 8.67225 2.10938C8.67225 0.9375 7.73475 0 6.56287 0C5.391 0 4.4535 0.9375 4.4535 2.10938C4.4535 3.28125 5.391 4.20898 6.56287 4.20898ZM3.19373 21.7773C3.65272 21.7773 3.96522 21.5234 4.13123 20.918C4.46326 19.7168 5.44959 15.625 5.78162 14.6387C6.00623 13.9355 6.16248 13.6621 6.56287 13.6621C6.96326 13.6621 7.11951 13.9355 7.34412 14.6387C7.67615 15.625 8.66248 19.7168 8.99451 20.918C9.16053 21.5234 9.47303 21.7773 9.93201 21.7773C10.557 21.7773 10.9379 21.2109 10.7621 20.5957C10.6937 20.332 9.27772 14.4141 9.07264 13.1934C8.90662 12.1191 8.86756 9.95117 8.86756 8.92578C8.86756 8.76953 9.04334 8.71094 9.141 8.84766L10.2445 10.3906C10.3617 9.80469 10.9086 9.16992 11.7289 9.15039L10.2152 6.94336C9.3949 5.75195 8.41834 5.23438 6.56287 5.23438C4.7074 5.23438 3.71131 5.76172 2.91053 6.94336L0.381232 10.6641C0.283576 10.8105 0.176154 10.957 0.0980289 11.1035C-0.107049 11.4746 0.000372633 12.0117 0.508185 12.2754C0.889045 12.4902 1.35779 12.4316 1.641 12.0996C1.90467 11.7871 3.25233 9.88281 3.98475 8.84766C4.07264 8.7207 4.25819 8.76953 4.25819 8.93555C4.25819 9.96094 4.20936 12.1191 4.04334 13.1934C3.84803 14.4141 2.43201 20.332 2.36365 20.5957C2.18787 21.2109 2.56873 21.7773 3.19373 21.7773ZM14.7758 10.957C15.6351 10.957 16.348 10.2539 16.348 9.39453C16.348 8.53516 15.6351 7.83203 14.7758 7.83203C13.9164 7.83203 13.2133 8.53516 13.2133 9.39453C13.2133 10.2539 13.9164 10.957 14.7758 10.957ZM12.6078 21.7773C12.9789 21.7773 13.2816 21.5625 13.4086 21.0742C13.6137 20.3418 14.2094 17.8223 14.4047 17.207C14.5414 16.8066 14.5707 16.7773 14.6781 16.7773C14.7855 16.7773 14.8051 16.8066 14.9418 17.207C15.1371 17.8223 15.7328 20.3418 15.9476 21.0742C16.0648 21.5625 16.3773 21.7773 16.7484 21.7773C17.3051 21.7773 17.6273 21.2598 17.4906 20.752C17.4418 20.5859 16.5922 16.9629 16.4555 16.2012C16.3773 15.7324 16.3383 14.9121 16.3383 14.5703C16.3383 14.4141 16.5238 14.3652 16.6117 14.4922L17.8617 16.2988C18.1254 16.6797 18.5551 16.6895 18.8285 16.4844C19.0922 16.3086 19.2191 15.9473 18.975 15.5762L17.3539 13.0762C16.7972 12.2168 15.9183 11.875 15.0199 11.875L14.6781 11.875C14.0238 11.875 13.7406 11.6699 13.3012 11.2012L12.266 10.0977C12.0023 9.82422 11.4847 9.81445 11.1918 10.1562C10.9183 10.4297 10.8402 10.8301 11.0648 11.1719C11.1722 11.3379 12.0707 12.3438 12.7738 13.2227C12.9301 13.418 13.018 13.6035 13.018 13.8867C13.018 14.375 12.9984 15.5957 12.9008 16.2012C12.764 16.9629 11.9144 20.5859 11.8558 20.752C11.7289 21.2598 12.0512 21.7773 12.6078 21.7773Z" fill="#000000" fill-opacity="0.85"/>
 </g>
</svg>
