<?xml version="1.0" encoding="UTF-8"?>
<!--Generator: Apple Native CoreSVG 175.5-->
<!DOCTYPE svg
PUBLIC "-//W3C//DTD SVG 1.1//EN"
       "http://www.w3.org/Graphics/SVG/1.1/DTD/svg11.dtd">
<svg version="1.1" xmlns="http://www.w3.org/2000/svg" xmlns:xlink="http://www.w3.org/1999/xlink" width="22.1473" height="22.1608">
 <g>
  <rect height="22.1608" opacity="0" width="22.1473" x="0" y="0"/>
  <path d="M1.09505 13.2337L8.91731 21.056C10.3626 22.5013 11.7884 22.5111 13.224 21.0853L21.0853 13.2142C22.5111 11.7884 22.5013 10.3529 21.056 8.90755L13.2435 1.09505C11.7982-0.350264 10.3724-0.369795 8.93685 1.06575L1.06575 8.92708C-0.369795 10.3626-0.350264 11.7884 1.09505 13.2337Z" fill="#000000" fill-opacity="0.85"/>
  <path d="M13.4681 17.2962C13.2044 17.2962 13.0091 17.1693 12.8919 16.9056L11.5833 14.2591C11.515 14.1419 11.4857 14.0833 11.3783 13.9564L10.1868 12.4622C9.85481 12.0423 9.54231 11.5638 9.59114 10.89L9.6888 9.54231C9.70833 9.33724 9.50325 9.22005 9.347 9.36653L8.76106 9.88411L8.64388 11.3783C8.61458 11.7689 8.3802 11.974 8.04817 11.9544C7.69661 11.9251 7.49153 11.681 7.52083 11.3001L7.63802 9.93294C7.67708 9.55208 7.77474 9.30794 8.0677 9.02474L9.01497 8.10677C9.62044 7.52083 10.1868 7.20833 10.8118 7.20833C11.7103 7.20833 12.2376 7.82356 12.1693 8.7513L12.0618 10.3919C12.0228 10.9876 11.8861 11.388 11.7005 12.0228L11.6322 12.2279L12.3743 13.2728C12.4818 13.4095 12.6087 13.595 12.7161 13.849L13.9368 16.3197C14.015 16.4759 14.054 16.6029 14.054 16.7396C14.054 17.0618 13.8001 17.2962 13.4681 17.2962ZM7.88216 17.306C7.55989 17.306 7.35481 17.0814 7.35481 16.7591C7.35481 16.5443 7.46224 16.3978 7.60872 16.222L9.35677 14.1517L9.63997 12.7943L10.5872 13.9954L10.4896 14.4056C10.4408 14.6107 10.431 14.6107 10.2259 14.8646L8.34114 17.1009C8.22395 17.2376 8.05794 17.306 7.88216 17.306ZM13.8001 10.6947C13.4583 10.6947 13.2923 10.6361 13.1068 10.4408L12.6966 10.0306L12.7943 8.58528L13.6927 9.58138L15.2552 9.58138C15.6458 9.58138 15.89 9.79622 15.89 10.138C15.89 10.4798 15.6556 10.6947 15.2552 10.6947ZM11.5931 6.61263C10.8997 6.61263 10.3236 6.02669 10.3236 5.33333C10.3236 4.62044 10.89 4.04427 11.5931 4.04427C12.306 4.04427 12.8822 4.62044 12.8822 5.33333C12.8822 6.01692 12.2865 6.61263 11.5931 6.61263Z" fill="#ffffff"/>
 </g>
</svg>
