<?xml version="1.0" encoding="UTF-8"?>
<!--Generator: Apple Native CoreSVG 175.5-->
<!DOCTYPE svg
PUBLIC "-//W3C//DTD SVG 1.1//EN"
       "http://www.w3.org/Graphics/SVG/1.1/DTD/svg11.dtd">
<svg version="1.1" xmlns="http://www.w3.org/2000/svg" xmlns:xlink="http://www.w3.org/1999/xlink" width="17.3438" height="19.1699">
 <g>
  <rect height="19.1699" opacity="0" width="17.3438" x="0" y="0"/>
  <path d="M0.742188 19.1699C1.15234 19.1699 1.48438 18.8477 1.48438 18.4375L1.48438 13.0078C1.72852 12.9004 2.64648 12.5488 4.08203 12.5488C7.69531 12.5488 9.96094 14.3164 13.3984 14.3164C14.9219 14.3164 15.4883 14.1504 16.2305 13.8184C16.9043 13.5156 17.3438 13.0078 17.3438 12.1094L17.3438 2.19727C17.3438 1.66992 16.8945 1.36719 16.3281 1.36719C15.8496 1.36719 14.9512 1.77734 13.2715 1.77734C9.83398 1.77734 7.57812 0.00976562 3.95508 0.00976562C2.43164 0.00976562 1.85547 0.175781 1.11328 0.507812C0.439453 0.810547 0 1.31836 0 2.20703L0 18.4375C0 18.8379 0.341797 19.1699 0.742188 19.1699ZM1.48438 8.54492L1.48438 5.23438C1.62109 4.91211 2.43164 4.46289 3.95508 4.46289C4.26758 4.46289 4.69727 4.48242 5.03906 4.52148L5.03906 1.54297C6.35742 1.67969 7.51953 2.06055 8.71094 2.41211L8.71094 5.39062C9.92188 5.76172 11.0547 6.07422 12.373 6.19141L12.373 3.21289C12.666 3.24219 12.959 3.25195 13.2715 3.25195C14.3359 3.25195 15.2148 3.125 15.8691 2.93945L15.8691 5.91797C15.3809 6.05469 14.4434 6.23047 13.2715 6.23047C12.9688 6.23047 12.6562 6.21094 12.373 6.19141L12.373 9.50195C12.6562 9.53125 12.9297 9.54102 13.2715 9.54102C14.3359 9.54102 15.2148 9.41406 15.8691 9.22852L15.8691 12.0703C15.7324 12.3926 14.9219 12.8418 13.3984 12.8418C13.0469 12.8418 12.7051 12.8223 12.373 12.7832L12.373 9.50195C11.0547 9.35547 9.96094 9.11133 8.71094 8.70117L8.71094 11.8945C7.57812 11.5527 6.40625 11.2207 5.03906 11.1035L5.03906 7.83203C4.66797 7.79297 4.41406 7.77344 3.95508 7.77344C2.43164 7.77344 1.62109 8.22266 1.48438 8.54492ZM5.03906 7.83203C6.38672 7.97852 7.41211 8.32031 8.71094 8.70117L8.71094 5.39062C7.49023 5.0293 6.39648 4.6582 5.03906 4.52148Z" fill="#000000" fill-opacity="0.85"/>
 </g>
</svg>
