<?xml version="1.0" encoding="UTF-8"?>
<!--Generator: Apple Native CoreSVG 175.5-->
<!DOCTYPE svg
PUBLIC "-//W3C//DTD SVG 1.1//EN"
       "http://www.w3.org/Graphics/SVG/1.1/DTD/svg11.dtd">
<svg version="1.1" xmlns="http://www.w3.org/2000/svg" xmlns:xlink="http://www.w3.org/1999/xlink" width="18.4729" height="22.9297">
 <g>
  <rect height="22.9297" opacity="0" width="18.4729" x="0" y="0"/>
  <path d="M0.495605 20.3174C0.495605 20.7178 0.837402 21.0498 1.23779 21.0498C1.64795 21.0498 1.97998 20.7275 1.97998 20.3174L1.97998 14.8877C2.22412 14.7803 3.14209 14.4287 4.57764 14.4287C8.04443 14.4287 10.2026 16.04 13.4741 16.1865L0.690918 3.42285C0.57373 3.6084 0.495605 3.82324 0.495605 4.08691ZM4.60693 1.88965L17.5952 14.8682C17.7612 14.6338 17.8394 14.3408 17.8394 13.9893L17.8394 4.07715C17.8394 3.5498 17.3901 3.24707 16.8237 3.24707C16.3452 3.24707 15.4468 3.65723 13.7671 3.65723C10.3979 3.65723 8.15186 1.94824 4.60693 1.88965Z" fill="#000000" fill-opacity="0.85"/>
  <path d="M17.1851 18.2471C17.4878 18.54 17.9663 18.54 18.2495 18.2471C18.5425 17.9443 18.5522 17.4756 18.2495 17.1826L1.28662 0.219727C0.993652-0.0732422 0.505371-0.0732422 0.212402 0.219727C-0.0708008 0.50293-0.0708008 1.00098 0.212402 1.28418Z" fill="#000000" fill-opacity="0.85"/>
 </g>
</svg>
