<?xml version="1.0" encoding="UTF-8"?>
<!--Generator: Apple Native CoreSVG 175.5-->
<!DOCTYPE svg
PUBLIC "-//W3C//DTD SVG 1.1//EN"
       "http://www.w3.org/Graphics/SVG/1.1/DTD/svg11.dtd">
<svg version="1.1" xmlns="http://www.w3.org/2000/svg" xmlns:xlink="http://www.w3.org/1999/xlink" width="26.8945" height="15.3613">
 <g>
  <rect height="15.3613" opacity="0" width="26.8945" x="0" y="0"/>
  <path d="M1.40625 15.3613C1.80664 15.3613 2.13867 15.2344 2.5293 15L12.4805 9.14062C13.1738 8.73047 13.4766 8.25195 13.4766 7.68555C13.4766 7.12891 13.1738 6.65039 12.4805 6.24023L2.5293 0.380859C2.12891 0.146484 1.80664 0.0195312 1.40625 0.0195312C0.644531 0.0195312 0 0.605469 0 1.68945L0 13.6914C0 14.7754 0.644531 15.3613 1.40625 15.3613ZM14.8242 15.3613C15.2246 15.3613 15.5566 15.2344 15.9473 15L25.9082 9.14062C26.5918 8.73047 26.8945 8.25195 26.8945 7.68555C26.8945 7.12891 26.5918 6.65039 25.9082 6.24023L15.9473 0.380859C15.5566 0.146484 15.2246 0.0195312 14.8242 0.0195312C14.0625 0.0195312 13.418 0.605469 13.418 1.68945L13.418 13.6914C13.418 14.7754 14.0625 15.3613 14.8242 15.3613Z" fill="#000000" fill-opacity="0.85"/>
 </g>
</svg>
