<?xml version="1.0" encoding="UTF-8"?>
<!--Generator: Apple Native CoreSVG 175.5-->
<!DOCTYPE svg
PUBLIC "-//W3C//DTD SVG 1.1//EN"
       "http://www.w3.org/Graphics/SVG/1.1/DTD/svg11.dtd">
<svg version="1.1" xmlns="http://www.w3.org/2000/svg" xmlns:xlink="http://www.w3.org/1999/xlink" width="67.2363" height="38.4033">
 <g>
  <rect height="38.4033" opacity="0" width="67.2363" x="0" y="0"/>
  <path d="M3.51562 38.4033C4.5166 38.4033 5.34668 38.0859 6.32324 37.5L31.2012 22.8516C32.9346 21.8262 33.6914 20.6299 33.6914 19.2139C33.6914 17.8223 32.9346 16.626 31.2012 15.6006L6.32324 0.952148C5.32227 0.366211 4.5166 0.0488281 3.51562 0.0488281C1.61133 0.0488281 0 1.51367 0 4.22363L0 34.2285C0 36.9385 1.61133 38.4033 3.51562 38.4033ZM37.0605 38.4033C38.0615 38.4033 38.8916 38.0859 39.8682 37.5L64.7705 22.8516C66.4795 21.8262 67.2363 20.6299 67.2363 19.2139C67.2363 17.8223 66.4795 16.626 64.7705 15.6006L39.8682 0.952148C38.8916 0.366211 38.0615 0.0488281 37.0605 0.0488281C35.1562 0.0488281 33.5449 1.51367 33.5449 4.22363L33.5449 34.2285C33.5449 36.9385 35.1562 38.4033 37.0605 38.4033Z" fill="#000000" fill-opacity="0.85"/>
 </g>
</svg>
