<?xml version="1.0" encoding="UTF-8"?>
<!--Generator: Apple Native CoreSVG 175.5-->
<!DOCTYPE svg
PUBLIC "-//W3C//DTD SVG 1.1//EN"
       "http://www.w3.org/Graphics/SVG/1.1/DTD/svg11.dtd">
<svg version="1.1" xmlns="http://www.w3.org/2000/svg" xmlns:xlink="http://www.w3.org/1999/xlink" width="25.4722" height="20.1074">
 <g>
  <rect height="20.1074" opacity="0" width="25.4722" x="0" y="0"/>
  <path d="M10.7031 12.2754C13.6328 12.2754 15.8984 9.96094 15.8984 6.70898C15.8984 5.16602 15.4492 3.78906 14.6484 2.70508L12.7148 4.64844C13.2031 5.25391 13.4961 6.02539 13.4961 6.86523C13.4961 8.66211 12.2363 9.95117 10.6055 9.95117C9.28711 9.95117 8.25195 9.0918 8.25195 8.08594C8.25195 7.74414 8.52539 7.5293 8.81836 7.5293C9.05273 7.5293 9.26758 7.67578 9.35547 7.99805C9.48242 8.47656 9.89258 8.83789 10.5469 8.83789C11.5918 8.83789 12.2461 8.0957 12.2461 6.94336C12.2461 5.55664 11.0742 4.48242 9.56055 4.48242C7.70508 4.48242 6.16211 6.06445 6.16211 8.08594C6.16211 10.4297 8.07617 12.2754 10.7031 12.2754ZM9.55078 3.20312C10.332 3.21289 11.1621 3.42773 11.8262 3.84766L13.8574 1.82617C12.7637 0.810547 11.2695 0.166016 9.55078 0.0488281ZM6.54297 4.32617C7.07031 3.87695 7.68555 3.54492 8.35938 3.35938L8.35938 0.0195312C6.64062 0.107422 5.08789 0.654297 3.78906 1.55273ZM0.146484 7.4707L4.94141 7.4707C5.00977 6.66016 5.32227 5.85938 5.76172 5.21484L2.86133 2.29492C1.45508 3.58398 0.488281 5.37109 0.146484 7.4707ZM0 9.19922C0 11.5723 0.654297 13.6719 1.83594 15.3906L5.95703 11.25C5.39062 10.4883 5.0293 9.59961 4.92188 8.65234L0.00976562 8.65234C0 8.84766 0 9.02344 0 9.19922ZM2.55859 16.3379C4.27734 18.2812 6.76758 19.5801 9.79492 19.9707L9.79492 13.4766C8.61328 13.3203 7.56836 12.832 6.76758 12.1094ZM10.9863 20.0879C11.25 20.1074 11.5234 20.1074 11.8066 20.1074C14.7363 20.1074 17.3633 19.2578 19.5312 17.793L14.248 12.5391C13.3691 13.1152 12.2754 13.4961 10.9863 13.5449ZM20.4785 17.0996C22.959 15.0977 24.707 12.1875 25.4395 8.99414C25.625 8.18359 24.9902 7.69531 24.3457 7.69531L17.0898 7.69531C16.9824 9.0625 16.3477 10.625 15.166 11.7871Z" fill="#000000" fill-opacity="0.85"/>
 </g>
</svg>
