<?xml version="1.0" encoding="UTF-8"?>
<!--Generator: Apple Native CoreSVG 175.5-->
<!DOCTYPE svg
PUBLIC "-//W3C//DTD SVG 1.1//EN"
       "http://www.w3.org/Graphics/SVG/1.1/DTD/svg11.dtd">
<svg version="1.1" xmlns="http://www.w3.org/2000/svg" xmlns:xlink="http://www.w3.org/1999/xlink" width="19.9219" height="19.9316">
 <g>
  <rect height="19.9316" opacity="0" width="19.9219" x="0" y="0"/>
  <path d="M9.96094 19.9219C15.4102 19.9219 19.9219 15.4004 19.9219 9.96094C19.9219 4.51172 15.4004 0 9.95117 0C4.51172 0 0 4.51172 0 9.96094C0 15.4004 4.52148 19.9219 9.96094 19.9219ZM9.96094 18.2617C5.35156 18.2617 1.66992 14.5703 1.66992 9.96094C1.66992 5.35156 5.3418 1.66016 9.95117 1.66016C14.5605 1.66016 18.2617 5.35156 18.2617 9.96094C18.2617 14.5703 14.5703 18.2617 9.96094 18.2617Z" fill="#000000" fill-opacity="0.85"/>
  <path d="M11.1523 13.7891L13.623 10.2637C13.8477 9.95117 13.7598 9.55078 13.4766 9.35547C13.1934 9.16016 12.7832 9.21875 12.5684 9.53125L10.1074 13.0469ZM9.95117 15.8984C10.8203 15.8984 11.5039 15.2148 11.5039 14.3457C11.5039 13.4863 10.8203 12.793 9.95117 12.793C9.0918 12.793 8.39844 13.4863 8.39844 14.3457C8.39844 15.2148 9.0918 15.8984 9.95117 15.8984ZM4.99023 8.4668C5.52734 8.4668 5.94727 8.03711 5.94727 7.50977C5.94727 6.97266 5.52734 6.54297 4.99023 6.54297C4.46289 6.54297 4.0332 6.97266 4.0332 7.50977C4.0332 8.03711 4.46289 8.4668 4.99023 8.4668ZM7.1582 6.40625C7.69531 6.40625 8.11523 5.9668 8.11523 5.43945C8.11523 4.91211 7.69531 4.48242 7.1582 4.48242C6.63086 4.48242 6.20117 4.91211 6.20117 5.43945C6.20117 5.9668 6.63086 6.40625 7.1582 6.40625ZM9.95117 5.53711C10.4688 5.53711 10.9082 5.09766 10.9082 4.58008C10.9082 4.04297 10.4688 3.62305 9.95117 3.62305C9.42383 3.62305 8.99414 4.04297 8.99414 4.58008C8.99414 5.09766 9.42383 5.53711 9.95117 5.53711ZM12.7441 6.40625C13.2812 6.40625 13.7012 5.9668 13.7012 5.43945C13.7012 4.91211 13.2812 4.47266 12.7441 4.47266C12.2168 4.47266 11.7871 4.91211 11.7871 5.43945C11.7871 5.9668 12.2168 6.40625 12.7441 6.40625ZM14.9121 8.4668C15.4492 8.4668 15.8691 8.03711 15.8691 7.50977C15.8691 6.97266 15.4492 6.54297 14.9121 6.54297C14.3848 6.54297 13.9551 6.97266 13.9551 7.50977C13.9551 8.03711 14.3848 8.4668 14.9121 8.4668Z" fill="#000000" fill-opacity="0.85"/>
 </g>
</svg>
