<?xml version="1.0" encoding="UTF-8"?>
<!--Generator: Apple Native CoreSVG 175.5-->
<!DOCTYPE svg
PUBLIC "-//W3C//DTD SVG 1.1//EN"
       "http://www.w3.org/Graphics/SVG/1.1/DTD/svg11.dtd">
<svg version="1.1" xmlns="http://www.w3.org/2000/svg" xmlns:xlink="http://www.w3.org/1999/xlink" width="19.9219" height="23.7188">
 <g>
  <rect height="23.7188" opacity="0" width="19.9219" x="0" y="0"/>
  <path d="M0 11.8545C0 17.3037 4.52148 21.8155 9.96094 21.8155C15.4102 21.8155 19.9219 17.3037 19.9219 11.8545C19.9219 7.04983 16.416 2.97756 11.8457 2.07912L11.8457 0.692405C11.8457-0.000954238 11.3672-0.186501 10.8398 0.194358L7.72461 2.37209C7.27539 2.68459 7.26562 3.15334 7.72461 3.47561L10.8301 5.66311C11.3672 6.05373 11.8457 5.86819 11.8457 5.16506L11.8457 3.77834C15.5371 4.61819 18.252 7.89944 18.252 11.8545C18.252 16.4639 14.5703 20.1553 9.96094 20.1553C5.35156 20.1553 1.65039 16.4639 1.66016 11.8545C1.66992 9.08108 3.01758 6.62991 5.09766 5.14553C5.49805 4.8428 5.625 4.38381 5.38086 3.97366C5.13672 3.57326 4.59961 3.46584 4.16992 3.79787C1.66016 5.62405 0 8.57326 0 11.8545Z" fill="#000000" fill-opacity="0.85"/>
  <path d="M7.93945 15.9463C8.32031 15.9463 8.55469 15.6729 8.55469 15.2139L8.55469 14.4033L9.02344 14.4033C9.35547 14.4033 9.58008 14.1885 9.58008 13.8467C9.58008 13.5147 9.35547 13.2998 9.02344 13.2998L8.55469 13.2998L8.55469 9.14944C8.55469 8.54397 8.13477 8.26076 7.57812 8.26076C7.05078 8.26076 6.74805 8.45608 6.44531 8.97366C5.74219 10.1455 4.86328 11.6494 4.19922 12.8506C4.04297 13.1436 3.99414 13.3389 3.99414 13.6221C3.99414 14.0908 4.28711 14.4033 4.79492 14.4033L7.35352 14.4033L7.35352 15.2139C7.35352 15.6729 7.56836 15.9463 7.93945 15.9463ZM5.27344 13.2998L5.27344 13.2705C5.95703 11.9912 6.63086 10.7217 7.31445 9.45217L7.35352 9.45217L7.35352 13.2998ZM12.8906 15.9756C14.5117 15.9756 15.5859 14.9307 15.5859 13.3584C15.5859 11.9229 14.6191 10.8975 13.2227 10.8975C12.6074 10.8975 11.9336 11.2002 11.6797 11.6983L11.7285 11.6983L11.9043 9.49123L14.8242 9.49123C15.1074 9.49123 15.3613 9.25686 15.3613 8.92483C15.3613 8.5928 15.1074 8.37795 14.8242 8.37795L11.6992 8.37795C11.1914 8.37795 10.9082 8.67092 10.8691 9.1885L10.6543 12.001C10.6152 12.4893 10.8691 12.7237 11.2891 12.7237C11.6113 12.7237 11.7578 12.6651 12.0312 12.4502C12.4121 12.1084 12.7051 11.9717 13.0957 11.9717C13.8574 11.9717 14.3652 12.5283 14.3652 13.378C14.3652 14.2373 13.7598 14.8623 12.9492 14.8623C12.373 14.8623 11.875 14.5303 11.6211 14.0225C11.4746 13.7686 11.3086 13.6319 11.0547 13.6319C10.7324 13.6319 10.5176 13.8662 10.5176 14.1983C10.5176 14.335 10.5469 14.4619 10.5957 14.5889C10.8594 15.292 11.7188 15.9756 12.8906 15.9756Z" fill="#000000" fill-opacity="0.85"/>
 </g>
</svg>
