<?xml version="1.0" encoding="UTF-8"?>
<!--Generator: Apple Native CoreSVG 175.5-->
<!DOCTYPE svg
PUBLIC "-//W3C//DTD SVG 1.1//EN"
       "http://www.w3.org/Graphics/SVG/1.1/DTD/svg11.dtd">
<svg version="1.1" xmlns="http://www.w3.org/2000/svg" xmlns:xlink="http://www.w3.org/1999/xlink" width="19.9219" height="23.7188">
 <g>
  <rect height="23.7188" opacity="0" width="19.9219" x="0" y="0"/>
  <path d="M0 11.8545C0 17.3037 4.52148 21.8155 9.96094 21.8155C15.4102 21.8155 19.9219 17.3037 19.9219 11.8545C19.9219 7.04983 16.416 2.97756 11.8457 2.07912L11.8457 0.692405C11.8457-0.000954238 11.3672-0.186501 10.8398 0.194358L7.72461 2.37209C7.27539 2.68459 7.26562 3.15334 7.72461 3.47561L10.8301 5.66311C11.3672 6.05373 11.8457 5.86819 11.8457 5.16506L11.8457 3.77834C15.5371 4.61819 18.252 7.89944 18.252 11.8545C18.252 16.4639 14.5703 20.1553 9.96094 20.1553C5.35156 20.1553 1.65039 16.4639 1.66016 11.8545C1.66992 9.08108 3.01758 6.62991 5.09766 5.14553C5.49805 4.8428 5.625 4.38381 5.38086 3.97366C5.13672 3.57326 4.59961 3.46584 4.16992 3.79787C1.66016 5.62405 0 8.57326 0 11.8545Z" fill="#000000" fill-opacity="0.85"/>
  <path d="M7.10938 15.8584C7.49023 15.8584 7.73438 15.5947 7.73438 15.1846L7.73438 9.02248C7.73438 8.52444 7.48047 8.26076 7.04102 8.26076C6.76758 8.26076 6.57227 8.34866 6.23047 8.58303L4.88281 9.49123C4.6582 9.65725 4.55078 9.83303 4.55078 10.0576C4.55078 10.3799 4.80469 10.6533 5.12695 10.6533C5.3125 10.6533 5.41016 10.6143 5.5957 10.4678L6.52344 9.7842L6.51367 9.7842L6.51367 15.1846C6.51367 15.585 6.74805 15.8584 7.10938 15.8584ZM12.0703 15.9756C13.6914 15.9756 14.7656 14.9307 14.7656 13.3584C14.7656 11.9229 13.7988 10.8975 12.4023 10.8975C11.7871 10.8975 11.1133 11.2002 10.8594 11.6983L10.9082 11.6983L11.0742 9.49123L14.0039 9.49123C14.2871 9.49123 14.5312 9.25686 14.5312 8.92483C14.5312 8.5928 14.2871 8.37795 14.0039 8.37795L10.8789 8.37795C10.3711 8.37795 10.0879 8.67092 10.0391 9.1885L9.83398 12.001C9.78516 12.4893 10.0391 12.7237 10.4688 12.7237C10.791 12.7237 10.9277 12.6651 11.2109 12.4502C11.582 12.1084 11.8848 11.9717 12.2656 11.9717C13.0273 11.9717 13.5352 12.5283 13.5352 13.378C13.5352 14.2373 12.9395 14.8623 12.1289 14.8623C11.5527 14.8623 11.0547 14.5303 10.8008 14.0225C10.6543 13.7686 10.4785 13.6319 10.2344 13.6319C9.91211 13.6319 9.6875 13.8662 9.6875 14.1983C9.6875 14.335 9.7168 14.4619 9.76562 14.5889C10.0293 15.292 10.8887 15.9756 12.0703 15.9756Z" fill="#000000" fill-opacity="0.85"/>
 </g>
</svg>
