<?xml version="1.0" encoding="UTF-8"?>
<!--Generator: Apple Native CoreSVG 175.5-->
<!DOCTYPE svg
PUBLIC "-//W3C//DTD SVG 1.1//EN"
       "http://www.w3.org/Graphics/SVG/1.1/DTD/svg11.dtd">
<svg version="1.1" xmlns="http://www.w3.org/2000/svg" xmlns:xlink="http://www.w3.org/1999/xlink" width="19.9219" height="23.7188">
 <g>
  <rect height="23.7188" opacity="0" width="19.9219" x="0" y="0"/>
  <path d="M0 11.8545C0 17.3037 4.52148 21.8155 9.96094 21.8155C15.4102 21.8155 19.9219 17.3037 19.9219 11.8545C19.9219 7.04983 16.416 2.97756 11.8457 2.07912L11.8457 0.692405C11.8457-0.000954238 11.3672-0.186501 10.8398 0.194358L7.72461 2.37209C7.27539 2.68459 7.26562 3.15334 7.72461 3.47561L10.8301 5.66311C11.3672 6.05373 11.8457 5.86819 11.8457 5.16506L11.8457 3.77834C15.5371 4.61819 18.252 7.89944 18.252 11.8545C18.252 16.4639 14.5703 20.1553 9.96094 20.1553C5.35156 20.1553 1.65039 16.4639 1.66016 11.8545C1.66992 9.08108 3.01758 6.62991 5.09766 5.14553C5.49805 4.8428 5.625 4.38381 5.38086 3.97366C5.13672 3.57326 4.59961 3.46584 4.16992 3.79787C1.66016 5.62405 0 8.57326 0 11.8545Z" fill="#000000" fill-opacity="0.85"/>
  <path d="M9.86328 15.9756C11.4844 15.9756 12.5488 14.9307 12.5488 13.3584C12.5488 11.9229 11.582 10.8975 10.1855 10.8975C9.57031 10.8975 8.89648 11.2002 8.64258 11.6983L8.69141 11.6983L8.86719 9.49123L11.7871 9.49123C12.0801 9.49123 12.3242 9.25686 12.3242 8.92483C12.3242 8.5928 12.0801 8.37795 11.7871 8.37795L8.66211 8.37795C8.1543 8.37795 7.87109 8.67092 7.83203 9.1885L7.61719 12.001C7.57812 12.4893 7.83203 12.7237 8.25195 12.7237C8.57422 12.7237 8.7207 12.6651 8.99414 12.4502C9.375 12.1084 9.66797 11.9717 10.0586 11.9717C10.8203 11.9717 11.3281 12.5283 11.3281 13.378C11.3281 14.2373 10.7227 14.8623 9.92188 14.8623C9.33594 14.8623 8.84766 14.5303 8.59375 14.0225C8.44727 13.7686 8.27148 13.6319 8.02734 13.6319C7.70508 13.6319 7.48047 13.8662 7.48047 14.1983C7.48047 14.335 7.50977 14.4619 7.55859 14.5889C7.82227 15.292 8.68164 15.9756 9.86328 15.9756Z" fill="#000000" fill-opacity="0.85"/>
 </g>
</svg>
