<?xml version="1.0" encoding="UTF-8"?>
<!--Generator: Apple Native CoreSVG 175.5-->
<!DOCTYPE svg
PUBLIC "-//W3C//DTD SVG 1.1//EN"
       "http://www.w3.org/Graphics/SVG/1.1/DTD/svg11.dtd">
<svg version="1.1" xmlns="http://www.w3.org/2000/svg" xmlns:xlink="http://www.w3.org/1999/xlink" width="19.9219" height="23.7188">
 <g>
  <rect height="23.7188" opacity="0" width="19.9219" x="0" y="0"/>
  <path d="M0 11.8545C0 17.3037 4.52148 21.8155 9.96094 21.8155C15.4102 21.8155 19.9219 17.3037 19.9219 11.8545C19.9219 7.04983 16.416 2.97756 11.8457 2.07912L11.8457 0.692405C11.8457-0.000954238 11.3672-0.186501 10.8398 0.194358L7.72461 2.37209C7.27539 2.68459 7.26562 3.15334 7.72461 3.47561L10.8301 5.66311C11.3672 6.05373 11.8457 5.86819 11.8457 5.16506L11.8457 3.77834C15.5371 4.61819 18.252 7.89944 18.252 11.8545C18.252 16.4639 14.5703 20.1553 9.96094 20.1553C5.35156 20.1553 1.65039 16.4639 1.66016 11.8545C1.66992 9.08108 3.01758 6.62991 5.09766 5.14553C5.49805 4.8428 5.625 4.38381 5.38086 3.97366C5.13672 3.57326 4.59961 3.46584 4.16992 3.79787C1.66016 5.62405 0 8.57326 0 11.8545Z" fill="#000000" fill-opacity="0.85"/>
  <path d="M6.86523 15.9658C8.44727 15.9658 9.46289 14.9209 9.46289 13.3194C9.46289 11.9033 8.48633 10.8975 7.16797 10.8975C6.25 10.8975 5.55664 11.3565 5.29297 12.0401L5.3418 12.1084C5.3418 12.0498 5.3418 12.0401 5.3418 11.9912C5.3418 10.3799 5.99609 9.31545 7.00195 9.31545C7.50977 9.31545 7.83203 9.51076 8.05664 9.88186C8.22266 10.1358 8.37891 10.2432 8.67188 10.2432C8.96484 10.2432 9.16992 10.0186 9.16992 9.70608C9.16992 9.56936 9.14062 9.44241 9.10156 9.33498C8.83789 8.68069 8.08594 8.18264 7.05078 8.18264C5.18555 8.18264 4.15039 9.64748 4.15039 12.2647C4.15039 13.2998 4.30664 14.1397 4.64844 14.7451C5.07812 15.5557 5.87891 15.9658 6.86523 15.9658ZM6.81641 14.8819C6.01562 14.8819 5.43945 14.2569 5.43945 13.378C5.43945 12.5186 6.00586 11.9229 6.81641 11.9229C7.62695 11.9229 8.19336 12.5088 8.19336 13.378C8.19336 14.3057 7.65625 14.8819 6.81641 14.8819ZM13.3008 15.9658C14.9219 15.9658 15.9863 14.4326 15.9863 12.0889C15.9863 9.72561 14.9219 8.17287 13.3008 8.17287C11.6699 8.17287 10.6152 9.72561 10.6152 12.0987C10.6152 14.4424 11.6797 15.9658 13.3008 15.9658ZM13.3008 14.7842C12.4316 14.7842 11.8848 13.7588 11.8848 12.0889C11.8848 10.3897 12.4219 9.35451 13.3008 9.35451C14.1699 9.35451 14.707 10.3799 14.707 12.0889C14.707 13.7588 14.1602 14.7842 13.3008 14.7842Z" fill="#000000" fill-opacity="0.85"/>
 </g>
</svg>
