<?xml version="1.0" encoding="UTF-8"?>
<!--Generator: Apple Native CoreSVG 175.5-->
<!DOCTYPE svg
PUBLIC "-//W3C//DTD SVG 1.1//EN"
       "http://www.w3.org/Graphics/SVG/1.1/DTD/svg11.dtd">
<svg version="1.1" xmlns="http://www.w3.org/2000/svg" xmlns:xlink="http://www.w3.org/1999/xlink" width="19.9219" height="23.7125">
 <g>
  <rect height="23.7125" opacity="0" width="19.9219" x="0" y="0"/>
  <path d="M0 11.8514C0 17.3006 4.52148 21.8123 9.96094 21.8123C15.4102 21.8123 19.9219 17.3006 19.9219 11.8514C19.9219 8.57011 18.2617 5.62089 15.752 3.79472C15.3223 3.46269 14.7852 3.57011 14.541 3.9705C14.2969 4.38065 14.4238 4.83964 14.8242 5.14237C16.9043 6.62675 18.252 9.07792 18.2617 11.8514C18.2715 16.4607 14.5703 20.1521 9.96094 20.1521C5.35156 20.1521 1.66992 16.4607 1.66992 11.8514C1.66992 7.89628 4.38477 4.61503 8.07617 3.77519L8.07617 5.17167C8.07617 5.86503 8.55469 6.05058 9.0918 5.66972L12.207 3.48222C12.6465 3.17948 12.6562 2.71073 12.207 2.38847L9.10156 0.200966C8.55469-0.189659 8.07617-0.00411175 8.07617 0.699013L8.07617 2.07597C3.50586 2.9744 0 7.04667 0 11.8514Z" fill="#000000" fill-opacity="0.85"/>
  <path d="M7.89062 15.9432C8.27148 15.9432 8.50586 15.6697 8.50586 15.2107L8.50586 14.4002L8.97461 14.4002C9.30664 14.4002 9.53125 14.1853 9.53125 13.8435C9.53125 13.5115 9.30664 13.2967 8.97461 13.2967L8.50586 13.2967L8.50586 9.14628C8.50586 8.54081 8.08594 8.25761 7.5293 8.25761C7.00195 8.25761 6.69922 8.45292 6.39648 8.9705C5.69336 10.1424 4.81445 11.6463 4.15039 12.8475C3.99414 13.1404 3.94531 13.3357 3.94531 13.6189C3.94531 14.0877 4.23828 14.4002 4.74609 14.4002L7.30469 14.4002L7.30469 15.2107C7.30469 15.6697 7.51953 15.9432 7.89062 15.9432ZM5.22461 13.2967L5.22461 13.2674C5.9082 11.9881 6.58203 10.7185 7.26562 9.44901L7.30469 9.44901L7.30469 13.2967ZM12.8418 15.9725C14.4629 15.9725 15.5371 14.9275 15.5371 13.3553C15.5371 11.9197 14.5703 10.8943 13.1738 10.8943C12.5586 10.8943 11.8848 11.1971 11.6309 11.6951L11.6797 11.6951L11.8555 9.48808L14.7754 9.48808C15.0586 9.48808 15.3125 9.2537 15.3125 8.92167C15.3125 8.58964 15.0586 8.37479 14.7754 8.37479L11.6504 8.37479C11.1426 8.37479 10.8594 8.66776 10.8203 9.18534L10.6055 11.9978C10.5664 12.4861 10.8203 12.7205 11.2402 12.7205C11.5625 12.7205 11.709 12.6619 11.9824 12.4471C12.3633 12.1053 12.6562 11.9685 13.0469 11.9685C13.8086 11.9685 14.3164 12.5252 14.3164 13.3748C14.3164 14.2342 13.7109 14.8592 12.9004 14.8592C12.3242 14.8592 11.8262 14.5271 11.5723 14.0193C11.4258 13.7654 11.2598 13.6287 11.0059 13.6287C10.6836 13.6287 10.4688 13.8631 10.4688 14.1951C10.4688 14.3318 10.498 14.4588 10.5469 14.5857C10.8105 15.2889 11.6699 15.9725 12.8418 15.9725Z" fill="#000000" fill-opacity="0.85"/>
 </g>
</svg>
