<?xml version="1.0" encoding="UTF-8"?>
<!--Generator: Apple Native CoreSVG 175.5-->
<!DOCTYPE svg
PUBLIC "-//W3C//DTD SVG 1.1//EN"
       "http://www.w3.org/Graphics/SVG/1.1/DTD/svg11.dtd">
<svg version="1.1" xmlns="http://www.w3.org/2000/svg" xmlns:xlink="http://www.w3.org/1999/xlink" width="19.9219" height="23.7125">
 <g>
  <rect height="23.7125" opacity="0" width="19.9219" x="0" y="0"/>
  <path d="M0 11.8514C0 17.3006 4.52148 21.8123 9.96094 21.8123C15.4102 21.8123 19.9219 17.3006 19.9219 11.8514C19.9219 8.57011 18.2617 5.62089 15.752 3.79472C15.3223 3.46269 14.7852 3.57011 14.541 3.9705C14.2969 4.38065 14.4238 4.83964 14.8242 5.14237C16.9043 6.62675 18.252 9.07792 18.2617 11.8514C18.2715 16.4607 14.5703 20.1521 9.96094 20.1521C5.35156 20.1521 1.66992 16.4607 1.66992 11.8514C1.66992 7.89628 4.38477 4.61503 8.07617 3.77519L8.07617 5.17167C8.07617 5.86503 8.55469 6.05058 9.0918 5.66972L12.207 3.48222C12.6465 3.17948 12.6562 2.71073 12.207 2.38847L9.10156 0.200966C8.55469-0.189659 8.07617-0.00411175 8.07617 0.699013L8.07617 2.07597C3.50586 2.9744 0 7.04667 0 11.8514Z" fill="#000000" fill-opacity="0.85"/>
  <path d="M6.63086 15.9725C8.4375 15.9725 9.42383 14.5174 9.42383 11.8807C9.42383 10.6014 9.15039 9.61503 8.62305 9.01933C8.18359 8.48222 7.53906 8.18925 6.75781 8.18925C5.19531 8.18925 4.19922 9.21464 4.19922 10.826C4.19922 12.2517 5.14648 13.2576 6.46484 13.2576C7.33398 13.2576 8.00781 12.8182 8.30078 12.1248L8.25195 12.0564C8.25195 12.0955 8.25195 12.1443 8.25195 12.1834C8.25195 13.7947 7.60742 14.8494 6.62109 14.8494C6.15234 14.8494 5.76172 14.615 5.53711 14.2146C5.37109 13.951 5.21484 13.8435 4.96094 13.8435C4.64844 13.8435 4.39453 14.1072 4.39453 14.41C4.39453 14.5271 4.4043 14.6248 4.47266 14.7615C4.66797 15.1619 5.3418 15.9725 6.63086 15.9725ZM6.79688 12.2225C5.98633 12.2225 5.43945 11.6463 5.43945 10.7674C5.43945 9.8494 5.97656 9.27323 6.79688 9.27323C7.59766 9.27323 8.1543 9.89823 8.1543 10.7869C8.1543 11.6365 7.59766 12.2225 6.79688 12.2225ZM13.2715 15.9627C14.8926 15.9627 15.957 14.4295 15.957 12.0857C15.957 9.72245 14.8926 8.16972 13.2715 8.16972C11.6406 8.16972 10.5957 9.72245 10.5957 12.0955C10.5957 14.4392 11.6504 15.9627 13.2715 15.9627ZM13.2715 14.781C12.4121 14.781 11.8652 13.7557 11.8652 12.0857C11.8652 10.3865 12.4023 9.35136 13.2715 9.35136C14.1504 9.35136 14.6777 10.3767 14.6777 12.0857C14.6777 13.7557 14.1406 14.781 13.2715 14.781Z" fill="#000000" fill-opacity="0.85"/>
 </g>
</svg>
