<?xml version="1.0" encoding="UTF-8"?>
<!--Generator: Apple Native CoreSVG 175.5-->
<!DOCTYPE svg
PUBLIC "-//W3C//DTD SVG 1.1//EN"
       "http://www.w3.org/Graphics/SVG/1.1/DTD/svg11.dtd">
<svg version="1.1" xmlns="http://www.w3.org/2000/svg" xmlns:xlink="http://www.w3.org/1999/xlink" width="19.9219" height="23.7125">
 <g>
  <rect height="23.7125" opacity="0" width="19.9219" x="0" y="0"/>
  <path d="M0 11.8514C0 17.3006 4.52148 21.8123 9.96094 21.8123C15.4102 21.8123 19.9219 17.3006 19.9219 11.8514C19.9219 8.57011 18.2617 5.62089 15.752 3.79472C15.3223 3.46269 14.7852 3.57011 14.541 3.9705C14.2969 4.38065 14.4238 4.83964 14.8242 5.14237C16.9043 6.62675 18.252 9.07792 18.2617 11.8514C18.2715 16.4607 14.5703 20.1521 9.96094 20.1521C5.35156 20.1521 1.66992 16.4607 1.66992 11.8514C1.66992 7.89628 4.38477 4.61503 8.07617 3.77519L8.07617 5.17167C8.07617 5.86503 8.55469 6.05058 9.0918 5.66972L12.207 3.48222C12.6465 3.17948 12.6562 2.71073 12.207 2.38847L9.10156 0.200966C8.55469-0.189659 8.07617-0.00411175 8.07617 0.699013L8.07617 2.07597C3.50586 2.9744 0 7.04667 0 11.8514Z" fill="#000000" fill-opacity="0.85"/>
  <path d="M5.81055 15.9432C6.07422 15.9432 6.25977 15.8162 6.42578 15.4842L9.16992 9.85917C9.29688 9.5955 9.3457 9.41972 9.3457 9.21464C9.3457 8.73612 8.98438 8.38456 8.50586 8.38456L4.88281 8.38456C4.59961 8.38456 4.39453 8.61894 4.39453 8.93144C4.39453 9.2537 4.59961 9.47831 4.88281 9.47831L7.97852 9.47831L7.97852 9.47831L5.2832 14.8787C5.20508 15.0252 5.16602 15.1424 5.16602 15.3084C5.16602 15.6697 5.43945 15.9432 5.81055 15.9432ZM12.6074 15.9725C14.2285 15.9725 15.293 14.9275 15.293 13.3553C15.293 11.9197 14.3262 10.8943 12.9297 10.8943C12.3145 10.8943 11.6406 11.1971 11.3867 11.6951L11.4355 11.6951L11.6113 9.48808L14.5312 9.48808C14.8242 9.48808 15.0684 9.2537 15.0684 8.92167C15.0684 8.58964 14.8242 8.37479 14.5312 8.37479L11.4062 8.37479C10.8984 8.37479 10.6152 8.66776 10.5762 9.18534L10.3613 11.9978C10.3223 12.4861 10.5762 12.7205 10.9961 12.7205C11.3184 12.7205 11.4648 12.6619 11.7383 12.4471C12.1191 12.1053 12.4121 11.9685 12.8027 11.9685C13.5645 11.9685 14.0723 12.5252 14.0723 13.3748C14.0723 14.2342 13.4668 14.8592 12.666 14.8592C12.0801 14.8592 11.5918 14.5271 11.3379 14.0193C11.1914 13.7654 11.0156 13.6287 10.7715 13.6287C10.4492 13.6287 10.2246 13.8631 10.2246 14.1951C10.2246 14.3318 10.2539 14.4588 10.3027 14.5857C10.5664 15.2889 11.4258 15.9725 12.6074 15.9725Z" fill="#000000" fill-opacity="0.85"/>
 </g>
</svg>
