<?xml version="1.0" encoding="UTF-8"?>
<!--Generator: Apple Native CoreSVG 175.5-->
<!DOCTYPE svg
PUBLIC "-//W3C//DTD SVG 1.1//EN"
       "http://www.w3.org/Graphics/SVG/1.1/DTD/svg11.dtd">
<svg version="1.1" xmlns="http://www.w3.org/2000/svg" xmlns:xlink="http://www.w3.org/1999/xlink" width="24.9581" height="20.7324">
 <g>
  <rect height="20.7324" opacity="0" width="24.9581" x="0" y="0"/>
  <path d="M0.143636 18.9648C-0.207927 19.7656 0.0752765 20.7031 1.11043 20.7031C1.50106 20.7031 1.81356 20.5371 2.28231 20.1562L4.95809 17.9199C5.06551 17.832 5.13387 17.793 5.20223 17.793C5.27059 17.793 5.33895 17.832 5.44637 17.9199L8.12215 20.1562C8.58114 20.5371 8.9034 20.7031 9.29403 20.7031C10.3292 20.7031 10.6124 19.7656 10.2608 18.9648L5.94442 9.20898L5.94442 4.67773C5.94442 2.45117 6.31551 0.791016 6.31551 0.478516C6.31551 0.205078 6.13973 0.0390625 5.88582 0.0390625C5.71981 0.0390625 5.56356 0.146484 5.32918 0.400391L3.18075 2.87109C3.00496 3.07617 3.04403 3.32031 3.26864 3.4375C4.13778 3.80859 4.45028 3.95508 4.45028 4.67773L4.45028 9.19922ZM7.44832 17.1875C7.18465 17.1875 6.96981 16.9629 6.96981 16.6992C6.96981 16.4355 7.19442 16.2012 7.44832 16.2012C7.72176 16.2012 7.94637 16.4355 7.94637 16.6992C7.94637 16.9531 7.712 17.1875 7.44832 17.1875ZM6.92098 15.9277C6.66707 15.9277 6.4327 15.7031 6.4327 15.4395C6.4327 15.1758 6.66707 14.9414 6.92098 14.9414C7.19442 14.9414 7.41903 15.166 7.41903 15.4395C7.41903 15.7031 7.19442 15.9277 6.92098 15.9277ZM6.39364 14.6582C6.12996 14.6582 5.90535 14.4336 5.90535 14.1797C5.90535 13.916 6.12996 13.6719 6.39364 13.6719C6.65731 13.6719 6.88192 13.9062 6.88192 14.1797C6.88192 14.4434 6.65731 14.6582 6.39364 14.6582Z" fill="#000000" fill-opacity="0.85"/>
  <path d="M12.9757 20.7324C15.5831 20.7324 17.3214 19.1895 17.3214 16.8555C17.3214 14.9219 16.1104 14.0332 16.1104 13.3887C16.1104 12.627 16.7745 12.0117 16.7745 11.0352C16.7745 10.332 16.3155 9.83398 15.6612 9.83398C15.0655 9.83398 14.7139 10.1953 14.46 10.5469C14.2647 10.8203 14.1182 11.0254 13.9815 11.0254C13.7374 11.0254 13.6983 10.5664 13.6983 10.2246L13.7081 4.22852C13.7081 3.93555 13.7276 3.89648 13.8936 3.83789C14.1182 3.76953 14.1768 3.65234 14.1964 3.37891L14.3917 1.38672C14.4112 1.21094 14.3331 1.04492 14.1964 0.917969L13.3565 0.185547C13.2393 0.078125 13.0929 0.0390625 12.9757 0.0390625C12.8487 0.0390625 12.712 0.078125 12.585 0.185547L11.7452 0.917969C11.6182 1.03516 11.5401 1.21094 11.5499 1.38672L11.7452 3.37891C11.7745 3.66211 11.8526 3.7793 12.0577 3.83789C12.2042 3.87695 12.2335 3.93555 12.2335 4.22852L12.253 10.2148C12.253 10.6543 12.1847 11.0254 11.9796 11.0254C11.8331 11.0254 11.6964 10.8008 11.4815 10.5469C11.2374 10.1953 10.8858 9.83398 10.2999 9.83398C9.63582 9.83398 9.17684 10.332 9.17684 11.0352C9.17684 12.0117 9.83114 12.627 9.83114 13.3887C9.83114 13.7598 9.44051 14.209 9.09871 14.8926L10.5831 18.252C10.8761 18.9062 10.9835 19.2773 10.9835 19.707C10.9835 19.9316 10.9444 20.1465 10.8663 20.332C11.5011 20.5859 12.2139 20.7324 12.9757 20.7324ZM10.8272 16.6895C10.6222 16.6211 10.505 16.377 10.5733 16.1719L11.4132 13.8672C11.4913 13.6523 11.7257 13.5449 11.9405 13.623C12.1456 13.6914 12.2725 13.9355 12.1944 14.1504L11.3546 16.4453C11.2764 16.6602 11.0421 16.7676 10.8272 16.6895ZM15.1241 16.6895C14.9093 16.7676 14.6749 16.6602 14.5968 16.4453L13.7569 14.1504C13.6788 13.9355 13.796 13.6914 14.0011 13.623C14.2159 13.5449 14.4503 13.6523 14.5284 13.8672L15.3682 16.1719C15.4366 16.377 15.3292 16.6211 15.1241 16.6895Z" fill="#000000" fill-opacity="0.85"/>
  <path d="M20.6319 20.6738C23.2784 20.6738 24.9581 19.4238 24.9581 17.4316C24.9581 15.4395 23.6495 14.9414 23.6495 14.0723C23.6495 13.4082 23.9425 12.8223 23.9425 12.0117C23.9425 10.6934 22.9952 9.85352 21.3643 9.6582L21.3643 3.86719C21.3643 3.45703 21.4229 3.33984 21.6573 3.18359C21.8429 3.05664 21.9112 2.94922 21.9014 2.7832L21.755 0.371094C21.7354 0.175781 21.5987 0.0390625 21.4229 0.0390625L19.8214 0.0390625C19.6456 0.0390625 19.5089 0.175781 19.4991 0.371094L19.3526 2.7832C19.3429 2.95898 19.4112 3.05664 19.5968 3.18359C19.8311 3.34961 19.8897 3.4668 19.8897 3.86719L19.8897 9.6582C18.2491 9.85352 17.3116 10.6934 17.3116 12.0117C17.3116 12.8223 17.6046 13.4082 17.6046 14.0723C17.6046 14.2773 17.5264 14.4629 17.4093 14.6484C17.6827 15.2344 17.9171 15.9766 17.9171 16.8555C17.9171 17.8711 17.6241 18.7598 17.1065 19.4727C17.8487 20.2441 19.0694 20.6738 20.6319 20.6738ZM20.6319 14.873C20.0167 14.873 19.5284 14.3848 19.5284 13.7891C19.5284 13.1836 20.0264 12.6953 20.6319 12.6953C21.2276 12.6953 21.7159 13.1836 21.7159 13.7891C21.7159 14.3848 21.2276 14.873 20.6319 14.873ZM19.3429 17.627C19.0889 17.627 18.8936 17.4316 18.8936 17.1875C18.8936 16.9434 19.0987 16.7285 19.3429 16.7285L21.9014 16.7285C22.1456 16.7285 22.3409 16.9336 22.3409 17.1875C22.3409 17.4316 22.1456 17.627 21.9014 17.627Z" fill="#000000" fill-opacity="0.85"/>
 </g>
</svg>
