<?xml version="1.0" encoding="UTF-8"?>
<!--Generator: Apple Native CoreSVG 175.5-->
<!DOCTYPE svg
PUBLIC "-//W3C//DTD SVG 1.1//EN"
       "http://www.w3.org/Graphics/SVG/1.1/DTD/svg11.dtd">
<svg version="1.1" xmlns="http://www.w3.org/2000/svg" xmlns:xlink="http://www.w3.org/1999/xlink" width="25.0577" height="20.8105">
 <g>
  <rect height="20.8105" opacity="0" width="25.0577" x="0" y="0"/>
  <path d="M0.145544 18.9844C-0.215784 19.8047 0.0869503 20.7812 1.1514 20.7812C1.53226 20.7812 1.85453 20.6348 2.35258 20.2246L5.02836 17.9883C5.13578 17.9004 5.19437 17.8711 5.2432 17.8711C5.29203 17.8711 5.35062 17.9004 5.45804 17.9883L8.13383 20.2246C8.63187 20.6348 8.95414 20.7812 9.335 20.7812C10.3995 20.7812 10.7022 19.8047 10.3409 18.9844L6.03422 9.24805L6.03422 4.7168C6.03422 2.49023 6.40531 0.830078 6.40531 0.517578C6.40531 0.224609 6.22953 0.0390625 5.94633 0.0390625C5.76078 0.0390625 5.59476 0.146484 5.35062 0.410156L3.20218 2.88086C3.00687 3.10547 3.0557 3.37891 3.30961 3.51562C4.16898 3.88672 4.47172 4.02344 4.47172 4.7168L4.47172 9.21875ZM1.1514 19.375L5.18461 10.1758L5.30179 10.1758L9.335 19.375C9.44242 19.6191 9.23734 19.7461 9.06156 19.5898L6.05375 17.0801C5.74125 16.8262 5.47758 16.6992 5.2432 16.6992C5.00883 16.6992 4.75492 16.8262 4.43265 17.0801L1.42484 19.5898C1.24906 19.7461 1.05375 19.6191 1.1514 19.375ZM7.28422 17.3633C7.54789 17.3633 7.7725 17.1387 7.7725 16.8945C7.7725 16.6406 7.55765 16.416 7.28422 16.416C7.04984 16.416 6.835 16.6406 6.835 16.8945C6.835 17.1484 7.03031 17.3633 7.28422 17.3633ZM6.78617 16.1426C7.04008 16.1426 7.26468 15.9277 7.26468 15.6738C7.26468 15.4102 7.04008 15.1953 6.78617 15.1953C6.53226 15.1953 6.30765 15.4199 6.30765 15.6738C6.30765 15.9277 6.53226 16.1426 6.78617 16.1426ZM6.26859 14.9121C6.5225 14.9121 6.73734 14.707 6.73734 14.4531C6.73734 14.1895 6.53226 13.9648 6.26859 13.9648C6.01468 13.9648 5.79984 14.1992 5.79984 14.4531C5.79984 14.6973 6.01468 14.9121 6.26859 14.9121ZM9.11039 14.9414L9.80375 16.4844C9.94047 14.9902 10.9561 14.4238 10.9561 13.4375C10.9561 12.4316 10.292 11.8457 10.292 11.0645C10.292 10.9668 10.3506 10.9082 10.419 10.9082C10.8584 10.9082 11.0928 12.0898 12.0596 12.0898C12.5088 12.0898 12.8409 11.8262 12.9873 11.3281L13.0655 11.3281C13.2217 11.8359 13.5635 12.0898 14.003 12.0898C14.96 12.0898 15.1944 10.9082 15.6241 10.9082C15.7022 10.9082 15.7705 10.9766 15.7705 11.0645C15.7705 11.8457 15.0967 12.4316 15.0967 13.4375C15.0967 14.5117 16.2979 15.0977 16.2979 16.8945C16.2979 18.6426 15.0674 19.6875 13.0264 19.6875C12.2354 19.6875 11.5518 19.5312 10.9366 19.2285C11.0342 19.6875 11.0245 20.0293 10.8584 20.3906C11.5518 20.6641 12.2745 20.8105 13.0264 20.8105C15.6631 20.8105 17.4112 19.248 17.4112 16.8945C17.4112 14.9512 16.2002 14.0527 16.2002 13.4277C16.2002 12.6758 16.8643 12.0605 16.8643 11.0742C16.8643 10.3516 16.3858 9.83398 15.712 9.83398C15.0967 9.83398 14.7159 10.1855 14.4815 10.5664C14.3155 10.8398 14.1495 11.0254 14.0323 11.0254C13.8467 11.0254 13.7881 10.6934 13.7979 10.2344L13.8077 4.26758C13.8077 3.98438 13.8077 3.96484 13.9541 3.91602C14.1885 3.84766 14.2569 3.7207 14.2862 3.41797L14.4912 1.42578C14.501 1.24023 14.4229 1.06445 14.2764 0.927734L13.4366 0.195312C13.3291 0.0976562 13.1827 0.0390625 13.0264 0.0390625C12.8702 0.0390625 12.7237 0.0976562 12.6065 0.195312L11.7764 0.927734C11.6299 1.05469 11.5518 1.25 11.5616 1.42578L11.7569 3.41797C11.7862 3.71094 11.8741 3.84766 12.0987 3.91602C12.2256 3.94531 12.2452 3.99414 12.2452 4.26758L12.2647 10.2344C12.2745 10.6641 12.2061 11.0254 12.0303 11.0254C11.9034 11.0254 11.7471 10.8105 11.5713 10.5664C11.3077 10.2148 10.9561 9.83398 10.3506 9.83398C9.66703 9.83398 9.18851 10.3418 9.18851 11.0742C9.18851 12.0605 9.85258 12.6758 9.85258 13.4277C9.85258 13.7891 9.45218 14.2383 9.11039 14.9414ZM11.0928 16.7285C11.2979 16.8066 11.5225 16.6992 11.6006 16.4941L12.4112 14.2676C12.4795 14.0625 12.3721 13.8281 12.1768 13.7598C11.9717 13.6816 11.7373 13.7891 11.6592 13.9941L10.8487 16.2305C10.7803 16.4258 10.8877 16.6602 11.0928 16.7285ZM14.96 16.7285C15.1651 16.6602 15.2725 16.4258 15.1944 16.2305L14.3838 13.9941C14.3057 13.7891 14.0811 13.6816 13.876 13.7598C13.6807 13.8281 13.5733 14.0625 13.6416 14.2676L14.4522 16.4941C14.5303 16.6992 14.7549 16.8066 14.96 16.7285ZM20.6827 20.752C23.3584 20.752 25.0577 19.4824 25.0577 17.4707C25.0577 15.459 23.7393 14.9609 23.7393 14.1113C23.7393 13.457 24.0323 12.8613 24.0323 12.0508C24.0323 10.7129 23.0948 9.86328 21.4541 9.66797L21.4541 3.90625C21.4541 3.51562 21.503 3.4082 21.7276 3.25195C21.9327 3.125 22.001 3.00781 21.9912 2.82227L21.8448 0.410156C21.835 0.195312 21.6787 0.0390625 21.4737 0.0390625L19.8721 0.0390625C19.6866 0.0390625 19.5303 0.195312 19.5108 0.410156L19.3643 2.82227C19.3545 3.00781 19.4327 3.125 19.628 3.25195C19.8526 3.41797 19.9014 3.52539 19.9014 3.90625L19.9014 9.66797C18.2705 9.86328 17.3233 10.7129 17.3233 12.0508C17.3233 12.8613 17.6162 13.457 17.6162 14.1113C17.6162 14.248 17.5772 14.4238 17.4307 14.707C17.626 15.127 17.7432 15.5176 17.8311 15.918C18.251 15.3906 18.7295 14.7949 18.7295 14.0918C18.7295 13.4082 18.4268 12.6855 18.4268 12.0508C18.4268 11.0352 19.3252 10.6934 20.6827 10.6934C22.0108 10.6934 22.9287 11.0156 22.9287 12.0508C22.9287 12.6855 22.626 13.4082 22.626 14.0918C22.626 15.2832 23.9444 15.8984 23.9444 17.4707C23.9444 18.8281 22.7334 19.6484 20.6827 19.6484C19.2373 19.6484 18.1827 19.248 17.6553 18.4863C17.4991 18.916 17.333 19.2188 17.1084 19.5312C17.8995 20.332 19.1495 20.752 20.6827 20.752ZM20.6827 14.8828C21.2588 14.8828 21.7373 14.4043 21.7373 13.8281C21.7373 13.2422 21.2588 12.7637 20.6827 12.7637C20.0967 12.7637 19.6084 13.2422 19.6084 13.8281C19.6084 14.4043 20.087 14.8828 20.6827 14.8828ZM19.4327 17.6465L21.9131 17.6465C22.1475 17.6465 22.333 17.4609 22.333 17.2266C22.333 16.9824 22.1475 16.7871 21.9131 16.7871L19.4327 16.7871C19.1983 16.7871 19.003 16.9922 19.003 17.2266C19.003 17.4609 19.1885 17.6465 19.4327 17.6465Z" fill="#000000" fill-opacity="0.85"/>
 </g>
</svg>
