<?xml version="1.0" encoding="UTF-8"?>
<!--Generator: Apple Native CoreSVG 175.5-->
<!DOCTYPE svg
PUBLIC "-//W3C//DTD SVG 1.1//EN"
       "http://www.w3.org/Graphics/SVG/1.1/DTD/svg11.dtd">
<svg version="1.1" xmlns="http://www.w3.org/2000/svg" xmlns:xlink="http://www.w3.org/1999/xlink" width="20.6641" height="20.459">
 <g>
  <rect height="20.459" opacity="0" width="20.6641" x="0" y="0"/>
  <path d="M12.8711 0.00976562L3.06641 0.00976562C1.02539 0.00976562 0 1.02539 0 3.03711L0 12.9102C0 14.9219 1.02539 15.9375 3.06641 15.9375L12.8711 15.9375C14.9121 15.9375 15.9277 14.9316 15.9277 12.9102L15.9277 3.03711C15.9277 1.01562 14.9121 0.00976562 12.8711 0.00976562ZM20.6641 7.54883C20.6641 5.53711 19.6484 4.53125 17.6074 4.53125L17.2656 4.53125L17.2656 12.9102C17.2656 15.6738 15.6445 17.2754 12.8711 17.2754L4.73633 17.2754L4.73633 17.4316C4.73633 19.4434 5.76172 20.459 7.80273 20.459L17.6074 20.459C19.6484 20.459 20.6641 19.4531 20.6641 17.4316Z" fill="#000000" fill-opacity="0.85"/>
  <path d="M4.79492 12.5879C4.28711 12.5879 3.99414 12.2559 3.99414 11.6895L3.99414 4.08203C3.99414 3.50586 4.28711 3.17383 4.79492 3.17383C5.3125 3.17383 5.60547 3.49609 5.60547 4.08203L5.60547 7.10938L10.3125 7.10938L10.3125 4.08203C10.3125 3.50586 10.6152 3.17383 11.1133 3.17383C11.6406 3.17383 11.9336 3.49609 11.9336 4.08203L11.9336 11.6895C11.9336 12.2656 11.6406 12.5879 11.1133 12.5879C10.6152 12.5879 10.3125 12.2559 10.3125 11.6895L10.3125 8.36914L5.60547 8.36914L5.60547 11.6895C5.60547 12.2656 5.3125 12.5879 4.79492 12.5879Z" fill="#ffffff"/>
 </g>
</svg>
