<?xml version="1.0" encoding="UTF-8"?>
<!--Generator: Apple Native CoreSVG 175.5-->
<!DOCTYPE svg
PUBLIC "-//W3C//DTD SVG 1.1//EN"
       "http://www.w3.org/Graphics/SVG/1.1/DTD/svg11.dtd">
<svg version="1.1" xmlns="http://www.w3.org/2000/svg" xmlns:xlink="http://www.w3.org/1999/xlink" width="15.5664" height="21.5723">
 <g>
  <rect height="21.5723" opacity="0" width="15.5664" x="0" y="0"/>
  <path d="M0 14.0234C0 18.3301 2.82227 20.8789 6.69922 20.8789C9.80469 20.8789 11.7285 19.5801 13.0078 16.9727C13.7598 15.5273 14.3359 13.7891 14.9512 11.7773C15.2051 10.957 15.5664 9.91211 15.5664 9.44336C15.5664 8.91602 15.1855 8.56445 14.6289 8.56445C14.0137 8.56445 13.6426 8.95508 13.1934 9.88281L11.8359 12.7344C11.6992 13.0469 11.543 13.1641 11.3867 13.1641C11.1816 13.1641 11.0449 13.0469 11.0449 12.7051L11.0449 2.46094C11.0449 1.88477 10.5762 1.41602 10 1.41602C9.42383 1.41602 8.95508 1.88477 8.95508 2.46094L8.95508 9.78516C8.69141 9.6875 8.39844 9.60938 8.08594 9.55078L8.08594 1.05469C8.08594 0.478516 7.61719 0 7.04102 0C6.46484 0 5.98633 0.478516 5.98633 1.05469L5.98633 9.44336C5.68359 9.46289 5.37109 9.51172 5.06836 9.56055L5.06836 1.88477C5.06836 1.30859 4.59961 0.839844 4.02344 0.839844C3.44727 0.839844 2.97852 1.30859 2.97852 1.88477L2.97852 10.2246C2.65625 10.3809 2.36328 10.5469 2.09961 10.7227L2.09961 4.92188C2.09961 4.3457 1.63086 3.87695 1.05469 3.87695C0.478516 3.87695 0 4.3457 0 4.92188Z" fill="#000000" fill-opacity="0.85"/>
 </g>
</svg>
