<?xml version="1.0" encoding="UTF-8"?>
<!--Generator: Apple Native CoreSVG 175.5-->
<!DOCTYPE svg
PUBLIC "-//W3C//DTD SVG 1.1//EN"
       "http://www.w3.org/Graphics/SVG/1.1/DTD/svg11.dtd">
<svg version="1.1" xmlns="http://www.w3.org/2000/svg" xmlns:xlink="http://www.w3.org/1999/xlink" width="19.4507" height="22.3926">
 <g>
  <rect height="22.3926" opacity="0" width="19.4507" x="0" y="0"/>
  <path d="M10.4077 21.2598C12.019 21.2598 13.4253 20.8398 14.5679 20.0098L13.6011 19.0527C12.6636 19.6289 11.5796 19.9023 10.3589 19.9023C6.90186 19.9023 4.79248 17.6855 4.79248 13.7598L4.79248 10.2637L3.50342 8.97461L3.50342 13.916C3.50342 18.4863 6.27686 21.2598 10.4077 21.2598ZM16.0229 16.1328L16.98 17.0898C17.1851 16.6699 17.3901 16.2207 17.5562 15.7324L19.2749 10.8984C19.3921 10.5762 19.4507 10.2637 19.4507 9.96094C19.4409 8.99414 18.7573 8.20312 17.6245 8.20312C16.98 8.20312 16.394 8.60352 16.062 9.375L15.4272 10.9277C15.4077 10.9766 15.3784 10.9961 15.3394 10.9961C15.2905 10.9961 15.271 10.9668 15.271 10.9082L15.271 3.07617C15.271 1.94336 14.5581 1.2207 13.4644 1.2207C13.064 1.2207 12.7026 1.35742 12.4292 1.62109C12.3022 0.615234 11.6577 0 10.6909 0C9.74365 0 9.07959 0.634766 8.93311 1.60156C8.68896 1.34766 8.3374 1.2207 7.98584 1.2207C6.97021 1.2207 6.29639 1.93359 6.29639 3.00781L6.29639 4.10156C6.03271 3.81836 5.63232 3.67188 5.22217 3.67188C4.74365 3.67188 4.34326 3.87695 4.10889 4.21875L5.16357 5.27344L5.16357 5.20508C5.19287 5.04883 5.29053 4.95117 5.46631 4.95117C5.8667 4.95117 6.15967 5.24414 6.15967 5.66406L6.15967 6.26953L7.3999 7.51953L7.3999 3.18359C7.3999 2.77344 7.66357 2.48047 8.06396 2.48047C8.47412 2.48047 8.75732 2.77344 8.75732 3.18359L8.75732 8.86719L9.99756 10.1074L9.99756 1.98242C9.99756 1.5625 10.2808 1.25977 10.6909 1.25977C11.0815 1.25977 11.3647 1.5625 11.3647 1.98242L11.3647 10.1562C11.3647 10.498 11.6382 10.752 11.98 10.752C12.312 10.752 12.605 10.498 12.605 10.1562L12.605 3.18359C12.605 2.77344 12.8882 2.48047 13.2886 2.48047C13.689 2.48047 13.9722 2.77344 13.9722 3.18359L13.9722 12.8027C13.9722 13.2422 14.2554 13.5742 14.6655 13.5742C15.0171 13.5742 15.3101 13.418 15.5347 12.9297L16.9116 9.86328C17.1069 9.4043 17.4487 9.21875 17.8101 9.3457C18.1909 9.46289 18.3179 9.85352 18.1421 10.3516L16.3647 15.3223C16.2573 15.6055 16.1499 15.8789 16.0229 16.1328Z" fill="#000000" fill-opacity="0.85"/>
  <path d="M17.5757 21.4062C17.8589 21.6895 18.3569 21.6992 18.6401 21.4062C18.9233 21.1035 18.9331 20.6348 18.6401 20.3418L1.28662 2.99805C0.993652 2.70508 0.515137 2.70508 0.212402 2.99805C-0.0708008 3.29102-0.0708008 3.7793 0.212402 4.0625Z" fill="#000000" fill-opacity="0.85"/>
 </g>
</svg>
