<?xml version="1.0" encoding="UTF-8"?>
<!--Generator: Apple Native CoreSVG 175.5-->
<!DOCTYPE svg
PUBLIC "-//W3C//DTD SVG 1.1//EN"
       "http://www.w3.org/Graphics/SVG/1.1/DTD/svg11.dtd">
<svg version="1.1" xmlns="http://www.w3.org/2000/svg" xmlns:xlink="http://www.w3.org/1999/xlink" width="18.0078" height="18.1738">
 <g>
  <rect height="18.1738" opacity="0" width="18.0078" x="0" y="0"/>
  <path d="M16.8652 1.39648C15.8691 0.400391 14.4629 0.244141 12.793 0.244141L5.18555 0.244141C3.54492 0.244141 2.13867 0.400391 1.14258 1.39648C0.146484 2.39258 0 3.78906 0 5.42969L0 12.959C0 14.6289 0.146484 16.0254 1.14258 17.0215C2.13867 18.0176 3.54492 18.1738 5.20508 18.1738L12.793 18.1738C14.4629 18.1738 15.8691 18.0176 16.8652 17.0215C17.8613 16.0254 18.0078 14.6289 18.0078 12.959L18.0078 5.44922C18.0078 3.7793 17.8613 2.39258 16.8652 1.39648ZM16.4355 5.18555L16.4355 13.2324C16.4355 14.2383 16.3086 15.2832 15.7129 15.8691C15.127 16.4648 14.0723 16.6016 13.0664 16.6016L4.94141 16.6016C3.93555 16.6016 2.88086 16.4648 2.28516 15.8691C1.69922 15.2832 1.57227 14.2383 1.57227 13.2324L1.57227 5.21484C1.57227 4.17969 1.69922 3.13477 2.28516 2.53906C2.88086 1.95312 3.94531 1.81641 4.9707 1.81641L13.0664 1.81641C14.0723 1.81641 15.127 1.95312 15.7129 2.54883C16.3086 3.13477 16.4355 4.17969 16.4355 5.18555Z" fill="#000000" fill-opacity="0.85"/>
  <path d="M4.86328 11.0254C4.86328 13.5156 6.47461 15.0293 8.76953 15.0293C10.498 15.0293 11.6797 14.3359 12.4707 12.7148C12.9004 11.875 13.2324 10.8691 13.584 9.70703C13.7305 9.22852 13.9355 8.63281 13.9355 8.36914C13.9355 8.05664 13.7012 7.8418 13.3789 7.8418C13.0078 7.8418 12.793 8.06641 12.5293 8.60352L11.7383 10.2734C11.6602 10.4492 11.582 10.5078 11.4941 10.5078C11.377 10.5078 11.3086 10.4297 11.3086 10.2637L11.3086 4.31641C11.3086 3.97461 11.0254 3.69141 10.6836 3.69141C10.3418 3.69141 10.0684 3.97461 10.0684 4.31641L10.0684 8.53516C9.91211 8.49609 9.75586 8.4375 9.58984 8.4082L9.58984 3.48633C9.58984 3.1543 9.31641 2.86133 8.96484 2.86133C8.62305 2.86133 8.33984 3.1543 8.33984 3.48633L8.33984 8.33984C8.17383 8.35938 8.00781 8.37891 7.8418 8.4082L7.8418 3.97461C7.8418 3.63281 7.55859 3.35938 7.2168 3.35938C6.875 3.35938 6.5918 3.63281 6.5918 3.97461L6.5918 8.80859C6.41602 8.88672 6.26953 8.98438 6.11328 9.07227L6.11328 5.75195C6.11328 5.41016 5.83008 5.11719 5.49805 5.11719C5.14648 5.11719 4.86328 5.41016 4.86328 5.75195Z" fill="#000000" fill-opacity="0.85"/>
 </g>
</svg>
