<?xml version="1.0" encoding="UTF-8"?>
<!--Generator: Apple Native CoreSVG 175.5-->
<!DOCTYPE svg
PUBLIC "-//W3C//DTD SVG 1.1//EN"
       "http://www.w3.org/Graphics/SVG/1.1/DTD/svg11.dtd">
<svg version="1.1" xmlns="http://www.w3.org/2000/svg" xmlns:xlink="http://www.w3.org/1999/xlink" width="17.7734" height="17.7832">
 <g>
  <rect height="17.7832" opacity="0" width="17.7734" x="0" y="0"/>
  <path d="M16.6309 1.15234C15.6348 0.15625 14.2285 0 12.5586 0L5.18555 0C3.54492 0 2.13867 0.15625 1.14258 1.15234C0.146484 2.14844 0 3.54492 0 5.17578L0 12.5586C0 14.2285 0.146484 15.6152 1.14258 16.6113C2.13867 17.6074 3.54492 17.7637 5.20508 17.7637L12.5586 17.7637C14.2285 17.7637 15.6348 17.6074 16.6309 16.6113C17.627 15.6152 17.7734 14.2285 17.7734 12.5586L17.7734 5.20508C17.7734 3.53516 17.627 2.13867 16.6309 1.15234Z" fill="#000000" fill-opacity="0.85"/>
  <path d="M4.85352 10.791L4.85352 5.35156C4.85352 5 5.14648 4.69727 5.51758 4.69727C5.85938 4.69727 6.16211 5 6.16211 5.35156L6.16211 8.76953C6.30859 8.68164 6.45508 8.58398 6.64062 8.50586L6.64062 3.51562C6.64062 3.16406 6.93359 2.88086 7.28516 2.88086C7.63672 2.88086 7.93945 3.16406 7.93945 3.51562L7.93945 8.08594C8.10547 8.05664 8.27148 8.03711 8.44727 8.01758L8.44727 3.01758C8.44727 2.67578 8.73047 2.37305 9.0918 2.37305C9.45312 2.37305 9.73633 2.67578 9.73633 3.01758L9.73633 8.07617C9.90234 8.125 10.0684 8.18359 10.2246 8.22266L10.2246 3.86719C10.2246 3.51562 10.5078 3.22266 10.8691 3.22266C11.2109 3.22266 11.5039 3.51562 11.5039 3.86719L11.5039 10C11.5039 10.1758 11.5723 10.2539 11.6992 10.2539C11.7871 10.2539 11.875 10.1953 11.9434 10.0098L12.7637 8.29102C13.0371 7.73438 13.252 7.5 13.6426 7.5C13.9844 7.5 14.2285 7.72461 14.2285 8.04688C14.2285 8.32031 14.0039 8.93555 13.8477 9.43359C13.4863 10.6348 13.1445 11.6699 12.6953 12.5391C11.8848 14.1992 10.6641 14.9121 8.88672 14.9121C6.51367 14.9121 4.85352 13.3398 4.85352 10.791Z" fill="#ffffff"/>
 </g>
</svg>
