<?xml version="1.0" encoding="UTF-8"?>
<!--Generator: Apple Native CoreSVG 175.5-->
<!DOCTYPE svg
PUBLIC "-//W3C//DTD SVG 1.1//EN"
       "http://www.w3.org/Graphics/SVG/1.1/DTD/svg11.dtd">
<svg version="1.1" xmlns="http://www.w3.org/2000/svg" xmlns:xlink="http://www.w3.org/1999/xlink" width="17.677" height="22.2363">
 <g>
  <rect height="22.2363" opacity="0" width="17.677" x="0" y="0"/>
  <path d="M8.30414 21.2598C11.7319 21.2598 13.9194 19.3066 15.4526 15.7422L17.4936 10.9277C17.9623 9.84375 17.4741 8.89648 16.6928 8.48633C15.9311 8.0957 14.8959 8.23242 14.2514 9.27734L13.3237 10.9375C13.2944 10.9766 13.2748 11.0059 13.2358 11.0059C13.187 11.0059 13.1479 10.9668 13.1674 10.9082L14.437 3.53516C14.6518 2.32422 14.0366 1.47461 12.9721 1.2793C11.8198 1.08398 10.9213 1.62109 10.6772 2.89062L10.3842 4.59961L10.5014 4.59961L10.5014 1.97266C10.5014 0.820312 9.70062 0 8.58734 0C7.42523 0 6.65375 0.849609 6.65375 2.04102L6.65375 3.29102L6.89789 3.24219L6.7807 2.46094C6.4975 1.38672 5.59906 0.927734 4.66156 1.09375C3.52875 1.28906 2.95258 2.23633 3.0893 3.35938L3.27484 4.96094L3.63617 4.88281C3.30414 3.81836 2.47406 3.47656 1.56586 3.64258C0.393984 3.84766-0.143126 4.6875 0.0326554 5.88867L1.33148 14.5996C1.94672 18.7402 4.17328 21.2598 8.30414 21.2598ZM8.25531 19.9121C4.79828 19.9121 3.17719 17.9395 2.63031 14.4434L1.22406 5.67383C1.16547 5.27344 1.39008 4.95117 1.77094 4.88281C2.1225 4.82422 2.44476 5.05859 2.53266 5.41992L3.94867 10.7227C4.04633 11.0938 4.3393 11.2402 4.64203 11.1816C4.97406 11.1328 5.19867 10.8398 5.15961 10.5078L4.31976 3.1543C4.27094 2.72461 4.46625 2.41211 4.86664 2.34375C5.26703 2.27539 5.5893 2.5293 5.64789 2.91992L6.66351 10.293C6.70258 10.6055 6.98578 10.8105 7.32758 10.7617C7.7475 10.6934 7.89398 10.4395 7.89398 10.0879L7.89398 1.97266C7.89398 1.5625 8.17719 1.26953 8.58734 1.26953C8.97797 1.26953 9.26117 1.5625 9.26117 1.97266L9.26117 10.1758C9.26117 10.5078 9.54437 10.7617 9.86664 10.7617C10.1987 10.7617 10.433 10.5469 10.4916 10.2148L11.8784 3.10547C11.9662 2.63672 12.2983 2.44141 12.6694 2.50977C13.0502 2.56836 13.2748 2.89062 13.2065 3.32031L11.8198 12.4609C11.6928 13.291 12.1518 13.5742 12.562 13.5742C12.9135 13.5742 13.1577 13.3984 13.4311 12.9297L15.1694 9.84375C15.3745 9.45312 15.7455 9.3457 16.0483 9.47266C16.3803 9.58984 16.5561 9.94141 16.3705 10.3809L14.2612 15.3223C12.8647 18.5547 10.9799 19.9121 8.25531 19.9121Z" fill="#000000" fill-opacity="0.85"/>
 </g>
</svg>
