<?xml version="1.0" encoding="UTF-8"?>
<!--Generator: Apple Native CoreSVG 175.5-->
<!DOCTYPE svg
PUBLIC "-//W3C//DTD SVG 1.1//EN"
       "http://www.w3.org/Graphics/SVG/1.1/DTD/svg11.dtd">
<svg version="1.1" xmlns="http://www.w3.org/2000/svg" xmlns:xlink="http://www.w3.org/1999/xlink" width="21.1009" height="18.2084">
 <g>
  <rect height="18.2084" opacity="0" width="21.1009" x="0" y="0"/>
  <path d="M16.709 17.7321C20.6934 16.2868 22.0215 12.9763 20.4688 8.70867L19.834 6.95086C19.2383 5.33953 18.1152 4.63641 17.2363 4.94891C17.0312 5.02703 16.9629 5.17352 17.0312 5.35906L17.3145 6.14031C17.4512 6.51141 17.334 6.75555 17.1094 6.84344C16.875 6.92156 16.6211 6.81414 16.4844 6.44305L16.2988 5.93523C15.9473 4.9782 15.1172 4.57781 14.2969 4.88055C13.9258 5.01727 13.8086 5.23211 13.9258 5.54461L14.3164 6.60906C14.4531 6.98016 14.3262 7.2243 14.1113 7.31219C13.8672 7.40008 13.6133 7.28289 13.4766 6.9118L13.125 5.93523C12.7344 4.86102 11.9336 4.58758 11.1328 4.88055C10.7812 5.0075 10.6543 5.24188 10.7617 5.54461L11.5234 7.62469C11.6602 7.99578 11.5332 8.23992 11.3184 8.32781C11.0742 8.4157 10.8203 8.29852 10.6836 7.92742L8.1543 0.964531C7.91016 0.280938 7.30469 0.00750004 6.72852 0.212578C6.11328 0.437188 5.84961 1.03289 6.09375 1.71648L9.80469 11.9118C9.89258 12.1657 9.78516 12.3513 9.62891 12.4098C9.47266 12.4684 9.30664 12.4196 9.11133 12.2048L6.60156 9.50945C6.2207 9.11883 5.83984 9.02117 5.42969 9.17742C4.80469 9.40203 4.56055 9.9782 4.74609 10.5055C4.82422 10.7106 4.93164 10.8669 5.0293 10.9938L8.13477 14.8903C10.752 18.1716 13.7793 18.7966 16.709 17.7321Z" fill="#000000" fill-opacity="0.85"/>
  <path d="M4.77539 2.01922C1.9043 3.7575 0 7.00945 0 11.0134C0 11.3649 0.302734 11.6677 0.634766 11.6579C0.976562 11.6481 1.2207 11.3845 1.23047 11.0329C1.31836 7.52703 2.82227 4.77313 5.21484 3.22039Z" fill="#000000" fill-opacity="0.85"/>
 </g>
</svg>
