<?xml version="1.0" encoding="UTF-8"?>
<!--Generator: Apple Native CoreSVG 175.5-->
<!DOCTYPE svg
PUBLIC "-//W3C//DTD SVG 1.1//EN"
       "http://www.w3.org/Graphics/SVG/1.1/DTD/svg11.dtd">
<svg version="1.1" xmlns="http://www.w3.org/2000/svg" xmlns:xlink="http://www.w3.org/1999/xlink" width="26.0254" height="18.5052">
 <g>
  <rect height="18.5052" opacity="0" width="26.0254" x="0" y="0"/>
  <path d="M9.67773 9.26726C9.66797 11.152 9.81445 12.9684 10.332 14.8044C10.9375 16.8356 12.0605 17.5583 14.4531 17.5583L15.0098 17.5583C20.8398 17.5583 26.0254 13.7399 26.0254 9.26726C26.0254 4.80437 20.8398 0.976249 15.0098 0.976249L14.4531 0.976249C12.0703 0.976249 10.9473 1.69891 10.332 3.73016C9.81445 5.57586 9.66797 7.39226 9.67773 9.26726ZM0.664062 6.15203C0.244141 6.25945 0 6.56219 0 6.96258C0 7.48016 0.410156 7.82195 0.986328 7.67547L8.28125 5.72234C8.37891 4.89226 8.4668 4.61883 8.56445 4.03289ZM0.664062 9.74578C0.244141 9.8532 0 10.1657 0 10.5661C0 11.0837 0.429688 11.4255 0.986328 11.279L8.05664 9.37469C8.05664 8.79851 8.05664 8.40789 8.07617 7.76336ZM0.664062 13.3493C0.244141 13.4567 0 13.7692 0 14.1501C0 14.6872 0.410156 15.0192 0.986328 14.863L8.29102 12.9196C8.20312 12.4216 8.1543 11.8942 8.125 11.3571ZM0.664062 16.9528C0.244141 17.0602 0 17.363 0 17.7536C0 18.2907 0.419922 18.6227 0.986328 18.4665L9.13086 16.279C8.94531 15.8493 8.75 15.2536 8.65234 14.8141Z" fill="#000000" fill-opacity="0.85"/>
 </g>
</svg>
