<?xml version="1.0" encoding="UTF-8"?>
<!--Generator: Apple Native CoreSVG 175.5-->
<!DOCTYPE svg
PUBLIC "-//W3C//DTD SVG 1.1//EN"
       "http://www.w3.org/Graphics/SVG/1.1/DTD/svg11.dtd">
<svg version="1.1" xmlns="http://www.w3.org/2000/svg" xmlns:xlink="http://www.w3.org/1999/xlink" width="21.7188" height="20.8496">
 <g>
  <rect height="20.8496" opacity="0" width="21.7188" x="0" y="0"/>
  <path d="M6.71875 16.4062C6.71875 19.1113 8.38867 20.8301 11.0254 20.8301C12.9883 20.8301 14.4531 19.9609 15.3711 18.3008L16.25 16.7285C18.3105 12.9688 21.7188 12.4707 21.7188 7.63672C21.7188 3.05664 18.7598 0 14.3262 0C9.77539 0 6.71875 3.07617 6.71875 7.66602ZM9.57031 13.7109C9.57031 11.8262 11.6406 12.0508 11.6406 10.9766C11.6406 9.99023 9.57031 9.27734 9.57031 7.09961C9.57031 4.60938 11.4746 2.83203 14.3066 2.83203C17.1484 2.83203 19.0527 4.72656 19.0527 7.56836C19.0527 7.98828 18.7012 8.33008 18.2812 8.33008C17.8711 8.33008 17.5195 7.98828 17.5195 7.56836C17.5195 5.625 16.2598 4.36523 14.3066 4.36523C12.3828 4.36523 11.1035 5.51758 11.1035 7.09961C11.1035 9.14062 14.1016 9.61914 14.1016 12.5293C14.1016 14.1406 13.0664 15.4395 11.5527 15.4492C10.3711 15.4492 9.57031 14.7559 9.57031 13.7109Z" fill="#000000" fill-opacity="0.85"/>
  <path d="M1.79688 19.9902C2.77344 19.9902 3.56445 19.1992 3.56445 18.2227C3.56445 17.2266 2.77344 16.4453 1.79688 16.4453C0.791016 16.4453 0 17.2266 0 18.2227C0 19.1992 0.800781 19.9902 1.79688 19.9902Z" fill="#000000" fill-opacity="0.85"/>
  <path d="M1.79688 14.9121C2.77344 14.9121 3.56445 14.1113 3.56445 13.1152C3.56445 12.1387 2.77344 11.3477 1.79688 11.3477C0.800781 11.3477 0 12.1387 0 13.1152C0 14.1211 0.791016 14.9121 1.79688 14.9121Z" fill="#000000" fill-opacity="0.85"/>
  <path d="M1.79688 9.80469C2.77344 9.80469 3.56445 9.01367 3.56445 8.02734C3.56445 7.03125 2.77344 6.24023 1.79688 6.24023C0.791016 6.24023 0 7.03125 0 8.02734C0 9.01367 0.791016 9.80469 1.79688 9.80469Z" fill="#000000" fill-opacity="0.85"/>
  <path d="M1.79688 4.70703C2.77344 4.70703 3.56445 3.92578 3.56445 2.92969C3.56445 1.95312 2.77344 1.16211 1.79688 1.16211C0.800781 1.16211 0 1.95312 0 2.92969C0 3.92578 0.791016 4.70703 1.79688 4.70703Z" fill="#000000" fill-opacity="0.85"/>
 </g>
</svg>
