<?xml version="1.0" encoding="UTF-8"?>
<!--Generator: Apple Native CoreSVG 175.5-->
<!DOCTYPE svg
PUBLIC "-//W3C//DTD SVG 1.1//EN"
       "http://www.w3.org/Graphics/SVG/1.1/DTD/svg11.dtd">
<svg version="1.1" xmlns="http://www.w3.org/2000/svg" xmlns:xlink="http://www.w3.org/1999/xlink" width="19.9219" height="19.9316">
 <g>
  <rect height="19.9316" opacity="0" width="19.9219" x="0" y="0"/>
  <path d="M9.96094 19.9219C15.4102 19.9219 19.9219 15.4004 19.9219 9.96094C19.9219 4.51172 15.4004 0 9.95117 0C4.51172 0 0 4.51172 0 9.96094C0 15.4004 4.52148 19.9219 9.96094 19.9219Z" fill="#000000" fill-opacity="0.85"/>
  <path d="M7.38281 5.68359C7.46094 5.66406 7.53906 5.6543 7.61719 5.6543C8.66211 5.6543 9.47266 6.25 9.96094 7.13867C10.4395 6.25 11.2695 5.6543 12.3047 5.6543C13.9551 5.6543 15.1562 6.9043 15.1562 8.63281C15.1562 9.84375 14.5312 10.9766 13.6816 11.9922ZM11.9824 13.6523C11.4551 14.1016 10.9082 14.502 10.4395 14.834C10.293 14.9414 10.0977 15.0684 9.98047 15.0684C9.85352 15.0684 9.63867 14.9316 9.47266 14.834C7.44141 13.6035 4.76562 11.2012 4.76562 8.63281C4.76562 7.97852 4.94141 7.39258 5.24414 6.92383ZM14.5605 15.1855L4.7168 5.3418C4.55078 5.17578 4.55078 4.89258 4.7168 4.7168C4.89258 4.54102 5.17578 4.54102 5.35156 4.7168L15.1855 14.5605C15.3711 14.7363 15.3711 15.0098 15.1855 15.1855C15.0195 15.3516 14.7363 15.3516 14.5605 15.1855Z" fill="#ffffff"/>
 </g>
</svg>
