<?xml version="1.0" encoding="UTF-8"?>
<!--Generator: Apple Native CoreSVG 175.5-->
<!DOCTYPE svg
PUBLIC "-//W3C//DTD SVG 1.1//EN"
       "http://www.w3.org/Graphics/SVG/1.1/DTD/svg11.dtd">
<svg version="1.1" xmlns="http://www.w3.org/2000/svg" xmlns:xlink="http://www.w3.org/1999/xlink" width="20.3003" height="20.0977">
 <g>
  <rect height="20.0977" opacity="0" width="20.3003" x="0" y="0"/>
  <path d="M17.0483 14.3701C19.1187 12.0947 20.3003 9.69238 20.3003 7.28027C20.3003 3.82324 17.9272 1.38184 14.7632 1.38184C12.9565 1.38184 11.4917 2.24121 10.603 3.55957C9.73389 2.25098 8.24951 1.38184 6.44287 1.38184C5.72998 1.38184 5.05615 1.50879 4.44092 1.74316L5.74951 3.05176C5.95459 2.9834 6.18896 2.9541 6.42334 2.9541C8.25928 2.9541 9.31396 4.09668 9.93896 5.07324C10.2026 5.46387 10.3687 5.57129 10.603 5.57129C10.8374 5.57129 10.9839 5.4541 11.2671 5.07324C11.9409 4.11621 12.9565 2.9541 14.7827 2.9541C17.0483 2.9541 18.728 4.68262 18.728 7.28027C18.728 9.25293 17.5952 11.3135 15.896 13.2178ZM14.2554 16.958L13.1323 15.835C12.3999 16.4307 11.5991 17.0166 10.8081 17.5439C10.7104 17.6123 10.6421 17.6611 10.603 17.6611C10.564 17.6611 10.4956 17.6123 10.4077 17.5439C6.31592 14.8291 2.47803 10.9131 2.47803 7.28027C2.47803 6.62598 2.60498 6.03027 2.82959 5.53223L1.61865 4.31152C1.15967 5.16113 0.905762 6.16699 0.905762 7.28027C0.905762 11.4404 4.39209 15.5322 9.8999 19.0479C10.105 19.1748 10.3979 19.3115 10.603 19.3115C10.8081 19.3115 11.1011 19.1748 11.3159 19.0479C12.3608 18.374 13.3569 17.6709 14.2554 16.958Z" fill="#000000" fill-opacity="0.85"/>
  <path d="M17.8394 18.8916C18.1323 19.1943 18.6206 19.1943 18.9038 18.8916C19.187 18.5986 19.1968 18.1299 18.9038 17.8271L1.28662 0.219727C0.993652-0.0732422 0.505371-0.0732422 0.212402 0.219727C-0.0708008 0.50293-0.0708008 1.00098 0.212402 1.28418Z" fill="#000000" fill-opacity="0.85"/>
 </g>
</svg>
