<?xml version="1.0" encoding="UTF-8"?>
<!--Generator: Apple Native CoreSVG 175.5-->
<!DOCTYPE svg
PUBLIC "-//W3C//DTD SVG 1.1//EN"
       "http://www.w3.org/Graphics/SVG/1.1/DTD/svg11.dtd">
<svg version="1.1" xmlns="http://www.w3.org/2000/svg" xmlns:xlink="http://www.w3.org/1999/xlink" width="23.0547" height="23.4668">
 <g>
  <rect height="23.4668" opacity="0" width="23.0547" x="0" y="0"/>
  <path d="M2.2168 23.4668L8.27148 23.4668C9.61914 23.4668 10.4883 22.6074 10.4883 21.2891L10.4883 2.17773C10.4883 0.859375 9.61914 0 8.27148 0L2.2168 0C0.869141 0 0 0.859375 0 2.17773L0 21.2891C0 22.6074 0.869141 23.4668 2.2168 23.4668ZM2.24609 21.8945C1.82617 21.8945 1.57227 21.6309 1.57227 21.2012L1.57227 2.26562C1.57227 1.83594 1.82617 1.57227 2.24609 1.57227L8.24219 1.57227C8.66211 1.57227 8.91602 1.83594 8.91602 2.26562L8.91602 21.2012C8.91602 21.6309 8.66211 21.8945 8.24219 21.8945ZM7.44141 7.74414C7.71484 7.74414 7.92969 7.51953 7.92969 7.24609L7.92969 3.38867C7.92969 3.11523 7.71484 2.89062 7.44141 2.89062C7.1582 2.89062 6.94336 3.11523 6.94336 3.38867L6.94336 7.24609C6.94336 7.51953 7.1582 7.74414 7.44141 7.74414ZM5.42969 7.74414C5.69336 7.74414 5.91797 7.51953 5.91797 7.24609L5.91797 3.38867C5.91797 3.11523 5.69336 2.89062 5.42969 2.89062C5.14648 2.89062 4.92188 3.11523 4.92188 3.38867L4.92188 7.24609C4.92188 7.51953 5.14648 7.74414 5.42969 7.74414ZM7.44141 14.1211C7.71484 14.1211 7.92969 13.9062 7.92969 13.623L7.92969 9.76562C7.92969 9.49219 7.71484 9.27734 7.44141 9.27734C7.1582 9.27734 6.94336 9.49219 6.94336 9.76562L6.94336 13.623C6.94336 13.9062 7.1582 14.1211 7.44141 14.1211ZM5.42969 14.1211C5.69336 14.1211 5.91797 13.9062 5.91797 13.623L5.91797 9.76562C5.91797 9.49219 5.69336 9.27734 5.42969 9.27734C5.14648 9.27734 4.92188 9.49219 4.92188 9.76562L4.92188 13.623C4.92188 13.9062 5.14648 14.1211 5.42969 14.1211ZM7.44141 20.5176C7.71484 20.5176 7.92969 20.293 7.92969 20.0293L7.92969 16.1719C7.92969 15.8887 7.71484 15.6738 7.44141 15.6738C7.1582 15.6738 6.94336 15.8887 6.94336 16.1719L6.94336 20.0293C6.94336 20.293 7.1582 20.5176 7.44141 20.5176ZM5.42969 20.5176C5.69336 20.5176 5.91797 20.293 5.91797 20.0293L5.91797 16.1719C5.91797 15.8887 5.69336 15.6738 5.42969 15.6738C5.14648 15.6738 4.92188 15.8887 4.92188 16.1719L4.92188 20.0293C4.92188 20.293 5.14648 20.5176 5.42969 20.5176Z" fill="#000000" fill-opacity="0.85"/>
  <path d="M14.3457 10.5566C16.9531 10.5566 18.3008 8.4375 20.5762 8.4375C21.1035 8.4375 21.5527 8.54492 22.1094 8.85742C22.4609 9.05273 22.7734 8.91602 22.9297 8.69141C23.125 8.4082 23.1055 7.97852 22.6758 7.73438C22.0312 7.35352 21.3281 7.16797 20.5762 7.16797C17.9297 7.16797 16.582 9.29688 14.3457 9.29688C13.8184 9.29688 13.3691 9.17969 12.8027 8.85742C12.4707 8.67188 12.1484 8.79883 11.9824 9.05273C11.8066 9.32617 11.8262 9.75586 12.2363 9.99023C12.8809 10.3906 13.5938 10.5566 14.3457 10.5566ZM14.3555 13.4277C16.9531 13.4277 18.3105 11.3086 20.5762 11.3086C21.1133 11.3086 21.5625 11.416 22.1191 11.7285C22.4609 11.9238 22.7832 11.7871 22.9395 11.5625C23.125 11.2793 23.1152 10.8496 22.6953 10.6055C22.041 10.2246 21.3281 10.0391 20.5762 10.0391C17.9395 10.0391 16.5918 12.168 14.3555 12.168C13.8184 12.168 13.3691 12.0508 12.8125 11.7383C12.4805 11.543 12.1484 11.6699 11.9824 11.9238C11.8066 12.1973 11.8262 12.627 12.2461 12.8613C12.8906 13.2617 13.6035 13.4277 14.3555 13.4277ZM14.3457 16.2988C16.9531 16.2988 18.3008 14.1797 20.5762 14.1797C21.1035 14.1797 21.5527 14.2871 22.1094 14.6094C22.4609 14.8047 22.7734 14.6582 22.9297 14.4336C23.125 14.1504 23.1055 13.7207 22.6758 13.4766C22.0312 13.0957 21.3281 12.9102 20.5762 12.9102C17.9297 12.9102 16.582 15.0391 14.3457 15.0391C13.8184 15.0391 13.3691 14.9219 12.8027 14.6094C12.4707 14.4141 12.1484 14.541 11.9824 14.7949C11.8066 15.0684 11.8262 15.5078 12.2363 15.7422C12.8809 16.1328 13.5938 16.2988 14.3457 16.2988Z" fill="#000000" fill-opacity="0.85"/>
 </g>
</svg>
