<?xml version="1.0" encoding="UTF-8"?>
<!--Generator: Apple Native CoreSVG 175.5-->
<!DOCTYPE svg
PUBLIC "-//W3C//DTD SVG 1.1//EN"
       "http://www.w3.org/Graphics/SVG/1.1/DTD/svg11.dtd">
<svg version="1.1" xmlns="http://www.w3.org/2000/svg" xmlns:xlink="http://www.w3.org/1999/xlink" width="19.8145" height="21.1475">
 <g>
  <rect height="21.1475" opacity="0" width="19.8145" x="0" y="0"/>
  <path d="M1.39648 16.7993L8.18359 20.647C9.33594 21.3111 10.459 21.3111 11.6309 20.647L18.418 16.7993C19.3262 16.2818 19.8145 15.7544 19.8145 14.3384L19.8145 6.74075C19.8145 5.3638 19.3164 4.86575 18.4863 4.38723L11.6797 0.520045C10.4688-0.18308 9.31641-0.163548 8.13477 0.520045L1.33789 4.38723C0.498047 4.86575 0 5.3638 0 6.74075L0 14.3384C0 15.7544 0.498047 16.2818 1.39648 16.7993ZM2.32422 15.4419C1.76758 15.1294 1.58203 14.8267 1.58203 14.2896L1.58203 6.81887C1.58203 6.32083 1.77734 6.03762 2.26562 5.75442L8.82812 2.00442C9.56055 1.5845 10.2344 1.56497 10.9961 2.00442L17.5488 5.75442C18.0469 6.03762 18.2324 6.32083 18.2324 6.81887L18.2324 14.2896C18.2324 14.8267 18.0469 15.1294 17.5 15.4419L10.9961 19.1333C10.2148 19.5825 9.58008 19.563 8.82812 19.1333Z" fill="#000000" fill-opacity="0.85"/>
 </g>
</svg>
