<?xml version="1.0" encoding="UTF-8"?>
<!--Generator: Apple Native CoreSVG 175.5-->
<!DOCTYPE svg
PUBLIC "-//W3C//DTD SVG 1.1//EN"
       "http://www.w3.org/Graphics/SVG/1.1/DTD/svg11.dtd">
<svg version="1.1" xmlns="http://www.w3.org/2000/svg" xmlns:xlink="http://www.w3.org/1999/xlink" width="25.6152" height="22.8809">
 <g>
  <rect height="22.8809" opacity="0" width="25.6152" x="0" y="0"/>
  <path d="M16.748 22.2852C20.0391 22.2852 21.4062 21.8555 22.7051 20.6445C24.541 18.9746 25.6152 16.5332 25.6152 13.9648C25.6152 11.8848 24.9121 9.90234 23.6328 8.45703C23.2422 7.96875 22.5879 7.87109 22.0312 8.20312C20.957 9.00391 19.5996 9.56055 16.748 9.56055C13.8965 9.56055 12.5391 9.00391 11.4551 8.20312C10.8984 7.87109 10.2539 7.95898 9.86328 8.45703C8.58398 9.90234 7.87109 11.875 7.87109 13.9648C7.87109 16.5332 8.94531 18.9746 10.7812 20.6445C12.0801 21.8555 13.457 22.2852 16.748 22.2852ZM16.748 20.6152C13.9746 20.6152 12.9004 20.3516 11.9238 19.4141C10.4004 18.0273 9.55078 16.0645 9.55078 13.9648C9.55078 12.207 10.1562 10.498 11.4453 9.14062L10.1953 9.48242C11.5332 10.6055 13.7207 11.2305 16.748 11.2305C19.7754 11.2305 21.9629 10.6055 23.3008 9.47266L22.041 9.14062C23.3398 10.4883 23.9453 12.1973 23.9453 13.9648C23.9453 16.0645 23.0859 18.0273 21.5723 19.4141C20.5762 20.3516 19.5215 20.6152 16.748 20.6152Z" fill="#000000" fill-opacity="0.425"/>
  <path d="M2.73438 17.0801L7.01172 17.0801C6.85547 16.5918 6.74805 16.0938 6.66992 15.5957L2.8125 15.5957C1.95312 15.5957 1.48438 15.1172 1.48438 14.2871L1.48438 2.79297C1.48438 1.96289 1.95312 1.48438 2.8125 1.48438L10.6348 1.48438C11.5039 1.48438 11.9727 1.96289 11.9727 2.79297L11.9727 5.54688C12.4219 5.37109 12.9199 5.23438 13.457 5.12695L13.457 2.76367C13.457 0.947266 12.5293 0 10.7227 0L2.73438 0C0.927734 0 0 0.947266 0 2.76367L0 14.3164C0 16.1426 0.927734 17.0801 2.73438 17.0801ZM3.13477 10.9375C3.13477 12.8711 4.63867 14.4434 6.55273 14.541C6.51367 14.0039 6.5625 13.0176 6.65039 12.4414C5.83984 12.4023 5.20508 11.748 5.20508 10.9277C5.20508 10.0781 5.88867 9.39453 6.73828 9.39453C7.02148 9.39453 7.29492 9.46289 7.50977 9.60938C7.8125 8.97461 8.17383 8.38867 8.60352 7.8418C8.04688 7.51953 7.42188 7.32422 6.73828 7.32422C4.73633 7.32422 3.13477 8.93555 3.13477 10.9375ZM6.72852 6.55273C7.8125 6.55273 8.71094 5.66406 8.71094 4.57031C8.71094 3.48633 7.82227 2.59766 6.72852 2.59766C5.63477 2.59766 4.74609 3.48633 4.74609 4.57031C4.74609 5.66406 5.64453 6.55273 6.72852 6.55273ZM6.72852 5.57617C6.17188 5.57617 5.72266 5.12695 5.72266 4.57031C5.72266 4.02344 6.17188 3.57422 6.72852 3.57422C7.28516 3.57422 7.73438 4.02344 7.73438 4.57031C7.73438 5.12695 7.28516 5.57617 6.72852 5.57617ZM16.748 8.44727C19.1895 8.44727 20.918 7.95898 20.918 7.31445C20.918 6.66016 19.1895 6.18164 16.748 6.18164C14.2969 6.18164 12.5684 6.66016 12.5684 7.31445C12.5684 7.95898 14.2969 8.44727 16.748 8.44727Z" fill="#000000" fill-opacity="0.85"/>
 </g>
</svg>
