<?xml version="1.0" encoding="UTF-8"?>
<!--Generator: Apple Native CoreSVG 175.5-->
<!DOCTYPE svg
PUBLIC "-//W3C//DTD SVG 1.1//EN"
       "http://www.w3.org/Graphics/SVG/1.1/DTD/svg11.dtd">
<svg version="1.1" xmlns="http://www.w3.org/2000/svg" xmlns:xlink="http://www.w3.org/1999/xlink" width="22.2266" height="22.4902">
 <g>
  <rect height="22.4902" opacity="0" width="22.2266" x="0" y="0"/>
  <path d="M2.19727 16.3086L6.62109 16.3086L6.62109 14.1992C6.49414 14.2188 6.39648 14.2285 6.23047 14.2285C4.41406 14.2285 2.91016 12.7539 2.91016 10.9082C2.91016 9.08203 4.4043 7.58789 6.23047 7.58789C6.39648 7.58789 6.50391 7.60742 6.62109 7.61719L6.62109 6.00586C6.51367 6.02539 6.39648 6.03516 6.23047 6.03516C5.23438 6.03516 4.44336 5.24414 4.44336 4.24805C4.44336 3.22266 5.26367 2.4707 6.23047 2.48047C6.78711 2.49023 7.27539 2.72461 7.56836 3.07617C8.19336 2.40234 9.13086 1.9043 10.5664 1.9043L12.0605 1.9043C12.0605 1.85547 12.0508 1.76758 12.041 1.68945C11.8848 0.585938 11.1523 0 9.89258 0L2.19727 0C0.751953 0 0 0.751953 0 2.19727L0 14.0918C0 15.5566 0.751953 16.3086 2.19727 16.3086ZM5.3125 4.24805C5.3125 4.77539 5.71289 5.17578 6.23047 5.17578C6.45508 5.17578 6.65039 5.08789 6.70898 5.0293C6.75781 4.58008 6.82617 4.29688 7.05078 3.88672C6.94336 3.56445 6.65039 3.32031 6.23047 3.32031C5.72266 3.32031 5.3125 3.69141 5.3125 4.24805ZM4.81445 10.9082C4.81445 11.6895 5.43945 12.334 6.23047 12.334C6.39648 12.334 6.55273 12.3047 6.62109 12.2852L6.62109 9.54102C6.55273 9.52148 6.40625 9.49219 6.25 9.49219C5.44922 9.49219 4.81445 10.1172 4.81445 10.9082ZM7.95898 5.87891L7.95898 19.8438C7.95898 21.6016 8.83789 22.4805 10.5664 22.4805L19.6094 22.4805C21.3574 22.4805 22.2266 21.6016 22.2266 19.8438L22.2266 5.87891C22.2266 4.11133 21.3574 3.23242 19.6094 3.23242L10.5664 3.23242C8.82812 3.23242 7.95898 4.11133 7.95898 5.87891ZM15.0879 19.7852C12.9297 19.7852 11.1816 18.0566 11.1816 15.8789C11.1816 13.6914 12.9297 11.9531 15.0879 11.9629C17.2559 11.9727 19.0039 13.6914 19.0039 15.8789C19.0039 18.0566 17.2559 19.7852 15.0879 19.7852ZM15.0879 10.2734C13.8867 10.2734 12.9102 9.31641 12.9102 8.0957C12.9102 6.88477 13.8867 5.92773 15.0879 5.92773C16.2988 5.9375 17.2559 6.88477 17.2656 8.0957C17.2852 9.30664 16.2988 10.2734 15.0879 10.2734ZM15.0879 17.5391C16.0352 17.5391 16.748 16.7969 16.748 15.8789C16.748 14.9316 16.0352 14.209 15.0879 14.209C14.1602 14.209 13.4277 14.9316 13.4277 15.8789C13.4277 16.7969 14.1797 17.5391 15.0879 17.5391ZM15.0879 9.20898C15.7129 9.20898 16.2012 8.70117 16.2012 8.0957C16.2012 7.48047 15.6934 6.99219 15.0879 6.99219C14.4629 6.99219 13.9844 7.46094 13.9844 8.0957C13.9844 8.70117 14.4727 9.20898 15.0879 9.20898Z" fill="#000000" fill-opacity="0.85"/>
  <path d="M15.0879 19.7852C12.9297 19.7852 11.1816 18.0566 11.1816 15.8789C11.1816 13.6914 12.9297 11.9531 15.0879 11.9629C17.2559 11.9727 19.0039 13.6914 19.0039 15.8789C19.0039 18.0566 17.2559 19.7852 15.0879 19.7852ZM15.0879 10.2734C13.8867 10.2734 12.9102 9.31641 12.9102 8.0957C12.9102 6.88477 13.8867 5.92773 15.0879 5.92773C16.2988 5.9375 17.2559 6.88477 17.2656 8.0957C17.2852 9.30664 16.2988 10.2734 15.0879 10.2734Z" fill="#000000" fill-opacity="0.2125"/>
 </g>
</svg>
