<?xml version="1.0" encoding="UTF-8"?>
<!--Generator: Apple Native CoreSVG 175.5-->
<!DOCTYPE svg
PUBLIC "-//W3C//DTD SVG 1.1//EN"
       "http://www.w3.org/Graphics/SVG/1.1/DTD/svg11.dtd">
<svg version="1.1" xmlns="http://www.w3.org/2000/svg" xmlns:xlink="http://www.w3.org/1999/xlink" width="23.6621" height="22.8809">
 <g>
  <rect height="22.8809" opacity="0" width="23.6621" x="0" y="0"/>
  <path d="M15.8008 22.7832C21.1914 22.7832 23.6621 20.8691 23.6621 16.5137L23.6621 9.08203C23.6621 7.24609 23.2227 6.00586 22.5293 5.12695C22.2949 4.83398 21.9238 4.81445 21.6309 5.04883C20.6934 5.86914 18.252 6.57227 15.8008 6.57227C13.3594 6.57227 10.918 5.86914 9.98047 5.04883C9.6875 4.81445 9.31641 4.83398 9.08203 5.12695C8.38867 6.00586 7.94922 7.24609 7.94922 9.08203L7.94922 16.5137C7.94922 20.8691 10.4199 22.7832 15.8008 22.7832ZM15.8008 21.2109C11.2891 21.2109 9.52148 19.6973 9.52148 16.3574L9.52148 9.16992C9.52148 8.31055 9.66797 7.50977 10.0293 6.81641C11.1914 7.72461 13.3887 8.14453 15.8008 8.14453C18.2227 8.14453 20.4199 7.72461 21.582 6.81641C21.9434 7.50977 22.0898 8.31055 22.0898 9.16992L22.0898 16.3574C22.0898 19.6973 20.3223 21.2109 15.8008 21.2109Z" fill="#000000" fill-opacity="0.425"/>
  <path d="M2.73438 17.0801L6.62109 17.0801L6.62109 15.5957L2.8125 15.5957C1.95312 15.5957 1.48438 15.1172 1.48438 14.2871L1.48438 2.79297C1.48438 1.96289 1.95312 1.48438 2.8125 1.48438L10.4492 1.48438C10.7227 1.48438 10.9277 1.60156 11.0156 1.79688C11.0742 1.83594 11.0742 1.9043 11.1035 2.01172C11.6602 1.79688 12.2656 1.63086 12.9395 1.50391C12.9102 1.35742 12.8711 1.24023 12.832 1.17188C12.4512 0.419922 11.6602 0 10.5273 0L2.73438 0C0.927734 0 0 0.947266 0 2.76367L0 14.3164C0 16.1426 0.927734 17.0801 2.73438 17.0801ZM3.07617 10.9277C3.07617 12.9199 4.6875 14.4824 6.62109 14.4922L6.62109 12.4219C5.84961 12.4121 5.12695 11.8164 5.12695 10.918C5.12695 10.127 5.75195 9.44336 6.62109 9.41406C6.62109 8.51562 6.65039 7.96875 6.74805 7.37305C4.72656 7.31445 3.07617 8.92578 3.07617 10.9277ZM4.69727 4.57031C4.69727 5.76172 5.67383 6.67969 6.9043 6.61133C7.01172 6.21094 7.13867 5.82031 7.28516 5.46875C7.12891 5.57617 6.94336 5.63477 6.72852 5.63477C6.14258 5.63477 5.66406 5.15625 5.66406 4.57031C5.66406 3.99414 6.15234 3.50586 6.72852 3.50586C7.34375 3.50586 7.8125 4.04297 7.75391 4.61914C7.96875 4.26758 8.21289 3.95508 8.48633 3.66211C8.20312 2.98828 7.5293 2.51953 6.72852 2.5293C5.5957 2.53906 4.69727 3.42773 4.69727 4.57031ZM15.8008 5.23438C18.3105 5.23438 20.3223 4.6875 20.3223 3.98438C20.3223 3.26172 18.3105 2.72461 15.8008 2.72461C13.3008 2.72461 11.2891 3.26172 11.2891 3.98438C11.2891 4.6875 13.3008 5.23438 15.8008 5.23438Z" fill="#000000" fill-opacity="0.85"/>
 </g>
</svg>
