<?xml version="1.0" encoding="UTF-8"?>
<!--Generator: Apple Native CoreSVG 175.5-->
<!DOCTYPE svg
PUBLIC "-//W3C//DTD SVG 1.1//EN"
       "http://www.w3.org/Graphics/SVG/1.1/DTD/svg11.dtd">
<svg version="1.1" xmlns="http://www.w3.org/2000/svg" xmlns:xlink="http://www.w3.org/1999/xlink" width="25.498" height="22.8809">
 <g>
  <rect height="22.8809" opacity="0" width="25.498" x="0" y="0"/>
  <path d="M16.748 22.168C19.9805 22.168 21.3379 21.7578 22.627 20.5566C24.4336 18.9062 25.498 16.5039 25.498 13.9648C25.498 11.875 24.7852 9.93164 23.3984 8.33984C23.0664 7.92969 22.7246 7.91016 22.3633 8.1543C21.0547 9.16016 19.6094 9.67773 16.748 9.67773C13.877 9.67773 12.4316 9.16016 11.123 8.1543C10.7715 7.91016 10.4199 7.92969 10.0879 8.33984C8.71094 9.93164 7.98828 11.875 7.98828 13.9648C7.98828 16.5039 9.05273 18.9062 10.8594 20.5566C12.1484 21.7578 13.5156 22.168 16.748 22.168Z" fill="#000000" fill-opacity="0.425"/>
  <path d="M2.24609 17.0801L6.98242 17.0801C6.76758 16.3965 6.64062 15.7617 6.55273 14.9805C4.58008 14.8828 3.01758 13.2617 3.01758 11.2598C3.01758 9.20898 4.67773 7.53906 6.73828 7.53906C7.36328 7.53906 7.95898 7.70508 8.4668 7.97852C9.67773 6.39648 11.2695 5.53711 13.457 5.10742L13.457 2.26562C13.457 0.78125 12.6855 0 11.2109 0L2.24609 0C0.771484 0 0 0.78125 0 2.26562L0 14.8145C0 16.2988 0.771484 17.0801 2.24609 17.0801ZM6.72852 6.21094C5.60547 6.21094 4.67773 5.29297 4.67773 4.16992C4.67773 3.04688 5.5957 2.12891 6.72852 2.12891C7.86133 2.12891 8.7793 3.04688 8.7793 4.16992C8.7793 5.29297 7.85156 6.21094 6.72852 6.21094ZM6.72852 5.20508C7.30469 5.20508 7.76367 4.73633 7.76367 4.16992C7.76367 3.60352 7.30469 3.14453 6.72852 3.14453C6.15234 3.14453 5.69336 3.60352 5.69336 4.16992C5.69336 4.73633 6.15234 5.20508 6.72852 5.20508ZM5.15625 11.25C5.15625 12.0898 5.79102 12.7539 6.5918 12.8125C6.70898 11.7578 6.99219 10.752 7.42188 9.82422C7.2168 9.72656 6.98242 9.67773 6.73828 9.67773C5.85938 9.67773 5.15625 10.3809 5.15625 11.25ZM16.748 8.44727C19.1895 8.44727 20.918 7.95898 20.918 7.31445C20.918 6.66016 19.1895 6.18164 16.748 6.18164C14.2969 6.18164 12.5684 6.66016 12.5684 7.31445C12.5684 7.95898 14.2969 8.44727 16.748 8.44727Z" fill="#000000" fill-opacity="0.85"/>
 </g>
</svg>
