<?xml version="1.0" encoding="UTF-8"?>
<!--Generator: Apple Native CoreSVG 175.5-->
<!DOCTYPE svg
PUBLIC "-//W3C//DTD SVG 1.1//EN"
       "http://www.w3.org/Graphics/SVG/1.1/DTD/svg11.dtd">
<svg version="1.1" xmlns="http://www.w3.org/2000/svg" xmlns:xlink="http://www.w3.org/1999/xlink" width="23.4668" height="22.8613">
 <g>
  <rect height="22.8613" opacity="0" width="23.4668" x="0" y="0"/>
  <path d="M0 12.5C0 16.3086 2.08008 18.0566 6.58203 18.1738C6.49414 17.7344 6.44531 17.2461 6.43555 16.7383C2.86133 16.5918 1.43555 15.2051 1.43555 12.3535L1.43555 5.84961C1.43555 5.06836 1.57227 4.3457 1.89453 3.7207C2.95898 4.56055 5.06836 4.93164 7.41211 4.91211C7.74414 4.30664 8.125 3.68164 8.33984 3.41797C8.20312 3.4375 7.67578 3.48633 7.12891 3.48633C4.92188 3.48633 2.69531 2.85156 1.8457 2.09961C1.5918 1.88477 1.25 1.9043 1.03516 2.17773C0.400391 2.96875 0 4.10156 0 5.76172ZM15.6152 22.7734C20.9961 22.7734 23.4668 20.8594 23.4668 16.5039L23.4668 9.07227C23.4668 7.23633 23.0273 5.99609 22.334 5.11719C22.0996 4.82422 21.7285 4.80469 21.4355 5.03906C20.5078 5.85938 18.0566 6.5625 15.6152 6.5625C13.1641 6.5625 10.7227 5.85938 9.78516 5.03906C9.49219 4.80469 9.12109 4.82422 8.88672 5.11719C8.19336 5.99609 7.75391 7.23633 7.75391 9.07227L7.75391 16.5039C7.75391 20.8594 10.2246 22.7734 15.6152 22.7734ZM15.6152 21.2012C11.0938 21.2012 9.32617 19.6875 9.32617 16.3477L9.32617 9.16016C9.32617 8.30078 9.47266 7.5 9.83398 6.80664C10.9961 7.71484 13.1934 8.13477 15.6152 8.13477C18.0273 8.13477 20.2246 7.71484 21.3867 6.80664C21.748 7.5 21.8945 8.30078 21.8945 9.16016L21.8945 16.3477C21.8945 19.6875 20.127 21.2012 15.6152 21.2012Z" fill="#000000" fill-opacity="0.425"/>
  <path d="M7.12891 2.27539C9.4043 2.27539 11.2305 1.78711 11.2305 1.14258C11.2305 0.488281 9.4043 0 7.12891 0C4.85352 0 3.02734 0.488281 3.02734 1.14258C3.02734 1.78711 4.85352 2.27539 7.12891 2.27539ZM15.6152 5.22461C18.1152 5.22461 20.127 4.67773 20.127 3.97461C20.127 3.25195 18.1152 2.71484 15.6152 2.71484C13.1055 2.71484 11.0938 3.25195 11.0938 3.97461C11.0938 4.67773 13.1055 5.22461 15.6152 5.22461Z" fill="#000000" fill-opacity="0.85"/>
 </g>
</svg>
