<?xml version="1.0" encoding="UTF-8"?>
<!--Generator: Apple Native CoreSVG 175.5-->
<!DOCTYPE svg
PUBLIC "-//W3C//DTD SVG 1.1//EN"
       "http://www.w3.org/Graphics/SVG/1.1/DTD/svg11.dtd">
<svg version="1.1" xmlns="http://www.w3.org/2000/svg" xmlns:xlink="http://www.w3.org/1999/xlink" width="25.6152" height="23.0566">
 <g>
  <rect height="23.0566" opacity="0" width="25.6152" x="0" y="0"/>
  <path d="M0 13.7988C0 18.5254 2.90039 20.0781 7.99805 20.0781C7.70508 19.5703 7.4707 19.0332 7.27539 18.4961C3.19336 18.3594 1.57227 16.8359 1.57227 13.6523L1.57227 6.46484C1.57227 5.60547 1.71875 4.80469 2.08008 4.11133C3.24219 5.01953 5.43945 5.42969 7.85156 5.42969C10.2734 5.42969 12.4707 5.01953 13.623 4.11133C13.9062 4.51172 14.1113 5.24414 14.1113 5.79102L14.1113 5.80078C14.6094 5.72266 15.1367 5.67383 15.6836 5.64453C15.5957 4.19922 15.166 3.17383 14.5801 2.42188C14.3457 2.11914 13.9648 2.09961 13.6816 2.34375C12.7441 3.16406 10.293 3.85742 7.85156 3.85742C5.41016 3.85742 2.95898 3.16406 2.03125 2.34375C1.73828 2.09961 1.36719 2.11914 1.13281 2.42188C0.439453 3.29102 0 4.54102 0 6.37695ZM16.748 23.0566C20.0391 23.0566 21.4062 22.627 22.7051 21.416C24.541 19.7461 25.6152 17.3145 25.6152 14.7461C25.6152 12.666 24.9121 10.6738 23.6328 9.22852C23.2422 8.75 22.5879 8.64258 22.0312 8.98438C20.957 9.77539 19.5996 10.332 16.748 10.332C13.8965 10.332 12.5391 9.77539 11.4551 8.98438C10.8984 8.64258 10.2539 8.74023 9.86328 9.22852C8.58398 10.6738 7.87109 12.6562 7.87109 14.7461C7.87109 17.3145 8.94531 19.7461 10.7812 21.416C12.0801 22.627 13.457 23.0566 16.748 23.0566ZM16.748 21.3867C13.9746 21.3867 12.9004 21.123 11.9238 20.1953C10.4004 18.7988 9.55078 16.8359 9.55078 14.7461C9.55078 12.9785 10.1562 11.2695 11.4453 9.91211L10.1953 10.2539C11.5332 11.377 13.7207 12.002 16.748 12.002C19.7754 12.002 21.9629 11.377 23.3008 10.2441L22.041 9.91211C23.3398 11.2598 23.9453 12.9688 23.9453 14.7461C23.9453 16.8359 23.0859 18.7988 21.5723 20.1953C20.5762 21.123 19.5215 21.3867 16.748 21.3867Z" fill="#000000" fill-opacity="0.425"/>
  <path d="M7.85156 2.5293C10.3613 2.5293 12.373 1.98242 12.373 1.26953C12.373 0.556641 10.3613 0.0195312 7.85156 0.0195312C5.35156 0.0195312 3.33984 0.556641 3.33984 1.26953C3.33984 1.98242 5.35156 2.5293 7.85156 2.5293ZM16.748 9.22852C19.1895 9.22852 20.918 8.73047 20.918 8.0957C20.918 7.44141 19.1895 6.95312 16.748 6.95312C14.2969 6.95312 12.5684 7.44141 12.5684 8.0957C12.5684 8.73047 14.2969 9.22852 16.748 9.22852Z" fill="#000000" fill-opacity="0.85"/>
 </g>
</svg>
