<?xml version="1.0" encoding="UTF-8"?>
<!--Generator: Apple Native CoreSVG 175.5-->
<!DOCTYPE svg
PUBLIC "-//W3C//DTD SVG 1.1//EN"
       "http://www.w3.org/Graphics/SVG/1.1/DTD/svg11.dtd">
<svg version="1.1" xmlns="http://www.w3.org/2000/svg" xmlns:xlink="http://www.w3.org/1999/xlink" width="25.2148" height="22.8418">
 <g>
  <rect height="22.8418" opacity="0" width="25.2148" x="0" y="0"/>
  <path d="M0 7.63672C0 10.1562 1.05469 12.5488 2.86133 14.1895C4.00391 15.2637 5.23438 15.6934 7.76367 15.7715L7.76367 14.1113C5.73242 14.043 4.82422 13.75 3.99414 12.959C2.50977 11.6016 1.67969 9.6875 1.67969 7.63672C1.67969 6.18164 2.10938 4.84375 2.95898 3.70117C4.26758 4.54102 6.2207 4.9707 8.71094 4.9707C11.2109 4.9707 13.1641 4.54102 14.4629 3.70117C14.9023 4.18945 15.1953 4.75586 15.332 5.40039L17.0996 5.40039C16.8359 4.18945 16.2891 3.0957 15.4883 2.24609C15.0977 1.75781 14.4434 1.66016 13.8867 1.99219C12.8125 2.76367 11.5039 3.30078 8.71094 3.30078C5.91797 3.30078 4.60938 2.76367 3.52539 1.99219C2.96875 1.66016 2.32422 1.74805 1.93359 2.24609C0.693359 3.66211 0 5.5957 0 7.63672Z" fill="#000000" fill-opacity="0.425"/>
  <path d="M8.71094 2.2168C11.1035 2.2168 12.793 1.72852 12.793 1.11328C12.793 0.46875 11.1035 0 8.71094 0C6.30859 0 4.60938 0.46875 4.60938 1.11328C4.60938 1.72852 6.30859 2.2168 8.71094 2.2168ZM13.4082 22.7832L20.918 22.7832C22.2949 22.7832 23.457 22.6562 24.2773 21.8359C25.0977 21.0059 25.2148 19.8535 25.2148 18.4766L25.2148 11.0449C25.2148 9.6582 25.0977 8.50586 24.2773 7.68555C23.457 6.86523 22.2949 6.72852 20.918 6.72852L13.3887 6.72852C12.041 6.72852 10.8691 6.86523 10.0488 7.69531C9.22852 8.51562 9.10156 9.66797 9.10156 11.0156L9.10156 18.4766C9.10156 19.8535 9.22852 21.0059 10.0488 21.8359C10.8691 22.6562 12.0312 22.7832 13.4082 22.7832ZM15.7324 15.8203C15.6055 16.25 15.3223 16.7578 14.9512 17.1191C14.8438 17.2168 14.6875 17.2949 14.4727 17.2949C14.2871 17.2949 14.1699 17.2266 13.9941 17.1777C13.8965 17.1387 13.75 17.0605 13.5645 17.0605C13.1543 17.0605 12.9688 17.3145 12.6367 17.3145C12.4023 17.3145 12.2168 17.1777 11.9629 16.8945C11.4844 16.3574 11.1719 15.5176 11.1719 14.7852C11.1719 14.3359 11.2793 13.9258 11.5625 13.5742C11.7969 13.2715 12.1582 13.0957 12.5977 13.0957C12.998 13.0957 13.2422 13.3496 13.4668 13.3496C13.7109 13.3496 14.0039 13.0859 14.5215 13.0859C14.9707 13.0859 15.3516 13.2715 15.5957 13.6328C15.2734 13.8086 15.1465 14.043 15.0879 14.2383C14.9805 14.5117 14.9512 14.8438 15.0879 15.1855C15.2051 15.4785 15.4004 15.6836 15.7324 15.8203ZM13.4277 12.9492C13.4082 12.3242 13.916 11.7285 14.5801 11.6797C14.6387 12.2852 14.1113 13.0176 13.4277 12.9492ZM17.998 12.0898L17.998 13.0859L18.7988 13.0859L18.7988 13.7402L17.998 13.7402L17.998 16.0547C17.998 16.4453 18.1641 16.5918 18.5059 16.5918C18.5938 16.5918 18.75 16.5918 18.7988 16.5625L18.7988 17.2656C18.7109 17.2754 18.5059 17.2949 18.3301 17.2949C17.4707 17.2949 17.1387 17.002 17.1387 16.1621L17.1387 13.7402L16.5527 13.7402L16.5527 13.0859L17.1387 13.0859L17.1387 12.0898ZM21.6309 17.2656L20.7324 17.2656L19.1992 13.0859L20.0977 13.0859L21.1816 16.4453L22.207 13.0859L23.1348 13.0859Z" fill="#000000" fill-opacity="0.85"/>
 </g>
</svg>
