<?xml version="1.0" encoding="UTF-8"?>
<!--Generator: Apple Native CoreSVG 175.5-->
<!DOCTYPE svg
PUBLIC "-//W3C//DTD SVG 1.1//EN"
       "http://www.w3.org/Graphics/SVG/1.1/DTD/svg11.dtd">
<svg version="1.1" xmlns="http://www.w3.org/2000/svg" xmlns:xlink="http://www.w3.org/1999/xlink" width="25.5273" height="21.2793">
 <g>
  <rect height="21.2793" opacity="0" width="25.5273" x="0" y="0"/>
  <path d="M0 7.8418C0 10.3711 1.06445 12.7539 2.87109 14.4141C3.61328 15.1074 4.375 15.5273 5.51758 15.7715C5.15625 14.6484 4.96094 13.4766 4.96094 12.2852C4.96094 9.60938 5.9082 7.13867 7.58789 5.25391C8.24219 4.54102 8.89648 3.96484 9.58984 3.51562C9.33594 3.54492 9.05273 3.55469 8.73047 3.55469C5.87891 3.55469 4.43359 3.02734 3.125 2.04102C2.76367 1.77734 2.42188 1.81641 2.08984 2.22656C0.712891 3.80859 0 5.75195 0 7.8418ZM15.9082 21.2793C19.4531 21.2793 20.957 20.8301 22.373 19.5117C24.3555 17.6953 25.5273 15.0684 25.5273 12.2852C25.5273 10.0293 24.7656 7.87109 23.2227 6.10352C22.8613 5.6543 22.4805 5.625 22.0898 5.89844C20.6445 6.99219 18.9746 7.54883 15.9082 7.54883C12.8418 7.54883 11.1719 6.99219 9.72656 5.89844C9.33594 5.625 8.96484 5.6543 8.60352 6.10352C7.05078 7.87109 6.29883 10.0293 6.29883 12.2852C6.29883 15.0684 7.46094 17.6953 9.45312 19.5117C10.8691 20.8301 12.3633 21.2793 15.9082 21.2793Z" fill="#000000" fill-opacity="0.425"/>
  <path d="M8.73047 2.33398C11.1816 2.33398 12.9102 1.83594 12.9102 1.19141C12.9102 0.546875 11.1816 0.0683594 8.73047 0.0683594C6.29883 0.0683594 4.57031 0.546875 4.57031 1.19141C4.57031 1.83594 6.29883 2.33398 8.73047 2.33398ZM15.9082 6.21094C18.623 6.21094 20.5273 5.66406 20.5273 4.96094C20.5273 4.25781 18.623 3.7207 15.9082 3.7207C13.1934 3.7207 11.2891 4.25781 11.2891 4.96094C11.2891 5.66406 13.1934 6.21094 15.9082 6.21094Z" fill="#000000" fill-opacity="0.85"/>
 </g>
</svg>
