<?xml version="1.0" encoding="UTF-8"?>
<!--Generator: Apple Native CoreSVG 175.5-->
<!DOCTYPE svg
PUBLIC "-//W3C//DTD SVG 1.1//EN"
       "http://www.w3.org/Graphics/SVG/1.1/DTD/svg11.dtd">
<svg version="1.1" xmlns="http://www.w3.org/2000/svg" xmlns:xlink="http://www.w3.org/1999/xlink" width="21.0044" height="18.3887">
 <g>
  <rect height="18.3887" opacity="0" width="21.0044" x="0" y="0"/>
  <path d="M3.96341 6.58203C8.30912 6.58203 10.6626 2.90039 14.7544 2.90039C15.7115 2.90039 16.5611 3.11523 17.5572 3.68164C17.9771 3.91602 18.3677 3.75977 18.5728 3.4668C18.8169 3.11523 18.7876 2.58789 18.2408 2.26562C17.1372 1.63086 16.0044 1.32812 14.7544 1.32812C10.3208 1.32812 7.98685 5.00977 3.96341 5.00977C2.99662 5.00977 2.14701 4.79492 1.15091 4.22852C0.730992 3.99414 0.340367 4.15039 0.135289 4.45312C-0.0893201 4.80469-0.0697888 5.33203 0.467321 5.64453C1.57084 6.2793 2.70365 6.58203 3.96341 6.58203ZM3.97318 11.8262C7.84037 11.8262 10.1451 8.86719 13.5337 8.28125C13.8365 7.70508 14.149 7.14844 14.4517 6.57227C10.1158 6.77734 7.91849 10.2539 3.97318 10.2539C3.00638 10.2539 2.15677 10.0293 1.16068 9.46289C0.750524 9.22852 0.350133 9.38477 0.154821 9.6875C-0.0795545 10.0391-0.0600232 10.5664 0.477086 10.8789C1.5806 11.5137 2.72318 11.8262 3.97318 11.8262ZM3.96341 17.0605C6.91263 17.0605 8.96341 15.3223 11.2779 14.2578C11.229 13.8281 11.3462 13.0566 11.522 12.4805C8.92435 13.5254 6.8931 15.4883 3.96341 15.4883C2.99662 15.4883 2.14701 15.2734 1.15091 14.6973C0.730992 14.4629 0.340367 14.6191 0.135289 14.9219C-0.0893201 15.2734-0.0697888 15.8105 0.467321 16.1133C1.57084 16.7578 2.70365 17.0605 3.96341 17.0605Z" fill="#000000" fill-opacity="0.85"/>
  <path d="M16.7857 18.3887C19.1294 18.3887 21.0044 16.5625 21.0044 14.2676C21.0044 12.998 20.3697 11.748 19.813 10.7129L17.5962 6.58203C17.4107 6.23047 17.1372 6.07422 16.7857 6.07422C16.4244 6.07422 16.1509 6.23047 15.9654 6.58203L13.7583 10.7129C13.2017 11.748 12.5767 12.998 12.5767 14.2676C12.5767 16.5625 14.4419 18.3887 16.7857 18.3887Z" fill="#000000" fill-opacity="0.85"/>
 </g>
</svg>
