<?xml version="1.0" encoding="UTF-8"?>
<!--Generator: Apple Native CoreSVG 175.5-->
<!DOCTYPE svg
PUBLIC "-//W3C//DTD SVG 1.1//EN"
       "http://www.w3.org/Graphics/SVG/1.1/DTD/svg11.dtd">
<svg version="1.1" xmlns="http://www.w3.org/2000/svg" xmlns:xlink="http://www.w3.org/1999/xlink" width="24.5508" height="21.8066">
 <g>
  <rect height="21.8066" opacity="0" width="24.5508" x="0" y="0"/>
  <path d="M14.873 15.2344L14.873 16.8066L19.7559 16.8066C22.7539 16.8066 24.5508 15 24.5508 12.6367C24.5508 10.6641 23.3691 9.04297 21.4648 8.27148C21.4844 3.91602 18.3496 0.771484 14.3555 0.771484C11.709 0.771484 9.82422 2.1875 8.65234 3.89648C6.43555 3.30078 3.63281 5.01953 3.58398 7.76367C1.37695 8.10547 0 9.91211 0 12.2168C0 14.7559 1.9043 16.8066 5.10742 16.8066L9.76562 16.8066L9.76562 15.2344L5.09766 15.2344C2.7832 15.2344 1.57227 13.8965 1.57227 12.2168C1.57227 10.3516 2.75391 8.96484 4.82422 8.96484C4.96094 8.96484 5.00977 8.88672 5.00977 8.75977C5.00977 5.76172 7.16797 4.93164 9.17969 5.51758C9.29688 5.55664 9.36523 5.53711 9.42383 5.42969C10.3711 3.74023 11.8262 2.34375 14.3555 2.34375C17.5586 2.34375 19.7754 4.88281 19.9414 7.79297C19.9707 8.23242 19.9414 8.75977 19.9023 9.21875C19.8926 9.3457 19.9414 9.42383 20.0586 9.44336C21.8359 9.83398 22.9785 10.9473 22.9785 12.6367C22.9785 14.1406 21.8848 15.2344 19.7461 15.2344Z" fill="#000000" fill-opacity="0.85"/>
  <path d="M12.3242 21.8066C12.7441 21.8066 13.0957 21.4648 13.0957 21.0547L13.0957 11.8945L13.0371 10.0879L13.6914 10.7812L15.1758 12.2559C15.3223 12.4023 15.5176 12.4902 15.7031 12.4902C16.1035 12.4902 16.416 12.207 16.416 11.8066C16.416 11.6016 16.3379 11.4258 16.1816 11.2891L12.8809 8.20312C12.6758 8.01758 12.5195 7.94922 12.3242 7.94922C12.1191 7.94922 11.9629 8.01758 11.7578 8.20312L8.45703 11.2891C8.30078 11.4258 8.22266 11.6016 8.22266 11.8066C8.22266 12.207 8.51562 12.4902 8.92578 12.4902C9.11133 12.4902 9.31641 12.4023 9.46289 12.2559L10.9473 10.7812L11.6016 10.0879L11.543 11.8945L11.543 21.0547C11.543 21.4648 11.9043 21.8066 12.3242 21.8066Z" fill="#000000" fill-opacity="0.85"/>
 </g>
</svg>
