<?xml version="1.0" encoding="UTF-8"?>
<!--Generator: Apple Native CoreSVG 175.5-->
<!DOCTYPE svg
PUBLIC "-//W3C//DTD SVG 1.1//EN"
       "http://www.w3.org/Graphics/SVG/1.1/DTD/svg11.dtd">
<svg version="1.1" xmlns="http://www.w3.org/2000/svg" xmlns:xlink="http://www.w3.org/1999/xlink" width="19.9219" height="19.9316">
 <g>
  <rect height="19.9316" opacity="0" width="19.9219" x="0" y="0"/>
  <path d="M9.96094 19.9316C15.4102 19.9316 19.9219 15.4199 19.9219 9.9707C19.9219 4.53125 15.4004 0.00976562 9.95117 0.00976562C4.51172 0.00976562 0 4.53125 0 9.9707C0 15.4199 4.52148 19.9316 9.96094 19.9316Z" fill="#000000" fill-opacity="0.85"/>
  <path d="M7.76367 16.3281C6.76758 16.3281 6.12305 15.6934 6.12305 14.7559L6.12305 7.88086L7.10938 8.87695L7.10938 14.2773L12.4023 14.2773L12.4023 14.1699L13.6035 15.3711L13.6035 15.4297C13.3887 15.9961 12.8809 16.3281 12.168 16.3281ZM9.9707 15.7129C10.2539 15.7129 10.4785 15.4785 10.4785 15.1953C10.4785 14.9219 10.2539 14.6777 9.9707 14.6777C9.6875 14.6777 9.45312 14.9219 9.45312 15.1953C9.45312 15.4785 9.6875 15.7129 9.9707 15.7129ZM12.168 3.62305C13.1543 3.62305 13.8086 4.24805 13.8086 5.19531L13.8086 12.0801L12.8223 11.0938L12.8223 5.67383L7.5 5.67383L7.5 5.76172L6.31836 4.57031L6.31836 4.53125C6.54297 3.94531 7.04102 3.62305 7.76367 3.62305ZM8.80859 4.6875C8.80859 4.82422 8.92578 4.93164 9.05273 4.93164L10.8789 4.93164C11.0156 4.93164 11.123 4.82422 11.123 4.6875C11.123 4.53125 11.0156 4.44336 10.8789 4.44336L9.05273 4.44336C8.92578 4.44336 8.80859 4.53125 8.80859 4.6875ZM14.4531 15.1074L4.80469 5.46875C4.63867 5.30273 4.63867 5.00977 4.80469 4.82422C4.99023 4.64844 5.2832 4.64844 5.45898 4.82422L15.0977 14.4629C15.2734 14.6387 15.2734 14.9121 15.0977 15.1074C14.9121 15.2734 14.6191 15.2734 14.4531 15.1074Z" fill="#ffffff"/>
 </g>
</svg>
