<?xml version="1.0" encoding="UTF-8"?>
<!--Generator: Apple Native CoreSVG 175.5-->
<!DOCTYPE svg
PUBLIC "-//W3C//DTD SVG 1.1//EN"
       "http://www.w3.org/Graphics/SVG/1.1/DTD/svg11.dtd">
<svg version="1.1" xmlns="http://www.w3.org/2000/svg" xmlns:xlink="http://www.w3.org/1999/xlink" width="17.688" height="20.6934">
 <g>
  <rect height="20.6934" opacity="0" width="17.688" x="0" y="0"/>
  <path d="M5.2124 20.6836L12.4683 20.6836C13.6499 20.6836 14.4995 20.127 14.8608 19.1797L14.8608 19.1309L13.0054 17.2852L13.0054 17.373L4.12842 17.373L4.12842 8.41797L2.55615 6.8457L2.55615 18.1445C2.55615 19.668 3.62061 20.6836 5.2124 20.6836ZM8.84521 19.7168C8.37646 19.7168 7.99561 19.3359 7.99561 18.8672C7.99561 18.4082 8.37646 18.0273 8.84521 18.0273C9.3042 18.0273 9.68506 18.4082 9.68506 18.8672C9.68506 19.3359 9.3042 19.7168 8.84521 19.7168ZM15.1245 13.9551L15.1245 2.53906C15.1245 1.01562 14.0601 0 12.4683 0L5.2124 0C4.00146 0 3.13232 0.576172 2.79053 1.5625L2.79053 1.62109L4.55811 3.38867L4.55811 3.31055L13.5425 3.31055L13.5425 12.3828ZM7.10693 1.70898C7.10693 1.48438 7.25342 1.33789 7.46826 1.33789L10.4468 1.33789C10.6616 1.33789 10.8081 1.48438 10.8081 1.70898C10.8081 1.93359 10.6616 2.07031 10.4468 2.07031L7.46826 2.07031C7.25342 2.07031 7.10693 1.93359 7.10693 1.70898Z" fill="#000000" fill-opacity="0.85"/>
  <path d="M16.4038 19.0039C16.6968 19.3066 17.1851 19.2969 17.4683 19.0039C17.7612 18.7207 17.7612 18.2422 17.4683 17.9395L1.28662 1.76758C0.993652 1.47461 0.515137 1.46484 0.212402 1.76758C-0.0708008 2.05078-0.0708008 2.54883 0.212402 2.83203Z" fill="#000000" fill-opacity="0.85"/>
 </g>
</svg>
