<?xml version="1.0" encoding="UTF-8"?>
<!--Generator: Apple Native CoreSVG 175.5-->
<!DOCTYPE svg
PUBLIC "-//W3C//DTD SVG 1.1//EN"
       "http://www.w3.org/Graphics/SVG/1.1/DTD/svg11.dtd">
<svg version="1.1" xmlns="http://www.w3.org/2000/svg" xmlns:xlink="http://www.w3.org/1999/xlink" width="15.4883" height="20.6934">
 <g>
  <rect height="20.6934" opacity="0" width="15.4883" x="0" y="0"/>
  <path d="M2.93945 12.373L2.93945 18.1348C2.93945 19.6582 4.00391 20.6738 5.5957 20.6738L12.832 20.6738C14.4238 20.6738 15.4883 19.6582 15.4883 18.1348L15.4883 2.53906C15.4883 1.01562 14.4238 0 12.832 0L5.5957 0C4.00391 0 2.93945 1.01562 2.93945 2.53906L2.93945 8.31055L4.51172 8.31055L4.51172 2.79297C4.51172 2.01172 4.9707 1.57227 5.80078 1.57227L12.6367 1.57227C13.457 1.57227 13.916 2.01172 13.916 2.79297L13.916 17.8809C13.916 18.6621 13.457 19.1016 12.6367 19.1016L5.80078 19.1016C4.9707 19.1016 4.51172 18.6621 4.51172 17.8809L4.51172 12.373Z" fill="#000000" fill-opacity="0.85"/>
  <path d="M0.712891 11.0254L7.08008 11.0254L9.14062 10.9277L7.01172 12.8418L6.45508 13.3984C6.32812 13.5352 6.24023 13.7207 6.24023 13.9258C6.24023 14.3262 6.5332 14.5996 6.91406 14.5996C7.10938 14.5996 7.29492 14.5215 7.43164 14.3848L10.9668 10.8496C11.1426 10.6836 11.2305 10.498 11.2305 10.332C11.2305 10.166 11.1426 9.96094 10.9668 9.80469L7.43164 6.2793C7.29492 6.14258 7.10938 6.06445 6.91406 6.06445C6.5332 6.06445 6.24023 6.33789 6.24023 6.72852C6.24023 6.94336 6.32812 7.11914 6.45508 7.25586L7.01172 7.82227L9.14062 9.72656L7.08008 9.62891L0.712891 9.62891C0.273438 9.62891 0 9.9707 0 10.332C0 10.6934 0.273438 11.0254 0.712891 11.0254Z" fill="#000000" fill-opacity="0.85"/>
 </g>
</svg>
