<?xml version="1.0" encoding="UTF-8"?>
<!--Generator: Apple Native CoreSVG 175.5-->
<!DOCTYPE svg
PUBLIC "-//W3C//DTD SVG 1.1//EN"
       "http://www.w3.org/Graphics/SVG/1.1/DTD/svg11.dtd">
<svg version="1.1" xmlns="http://www.w3.org/2000/svg" xmlns:xlink="http://www.w3.org/1999/xlink" width="19.9219" height="19.9316">
 <g>
  <rect height="19.9316" opacity="0" width="19.9219" x="0" y="0"/>
  <path d="M9.96094 19.9316C15.4102 19.9316 19.9219 15.4199 19.9219 9.9707C19.9219 4.53125 15.4004 0.00976562 9.95117 0.00976562C4.51172 0.00976562 0 4.53125 0 9.9707C0 15.4199 4.52148 19.9316 9.96094 19.9316Z" fill="#000000" fill-opacity="0.85"/>
  <path d="M7.76367 16.3281C6.77734 16.3281 6.12305 15.6934 6.12305 14.7363L6.12305 7.88086L7.09961 8.86719L7.09961 14.5898C7.09961 15.0684 7.37305 15.3418 7.89062 15.3418L12.041 15.3418C12.5 15.3418 12.7539 15.1367 12.8223 14.7461L12.8223 14.5898L13.6035 15.3711L13.6035 15.4199C13.3789 15.9961 12.8809 16.3281 12.168 16.3281ZM8.71094 14.9023C8.54492 14.9023 8.41797 14.7852 8.41797 14.6191C8.41797 14.4336 8.54492 14.3164 8.71094 14.3164L11.2305 14.3164C11.4062 14.3164 11.5137 14.4336 11.5137 14.6191C11.5137 14.7852 11.4062 14.9023 11.2305 14.9023ZM13.8086 12.0801L12.832 11.1035L12.832 5.35156C12.832 4.87305 12.5586 4.59961 12.041 4.59961L11.3184 4.59961C11.2305 4.59961 11.1914 4.63867 11.1914 4.72656L11.1914 4.86328C11.1914 5.12695 11.0254 5.29297 10.7812 5.29297L9.16016 5.29297C8.90625 5.29297 8.73047 5.12695 8.73047 4.86328L8.73047 4.72656C8.73047 4.63867 8.70117 4.59961 8.60352 4.59961L7.89062 4.59961C7.41211 4.59961 7.14844 4.83398 7.10938 5.23438L7.10938 5.38086L6.30859 4.57031L6.30859 4.54102C6.52344 3.96484 7.03125 3.61328 7.76367 3.61328L12.168 3.61328C13.1543 3.61328 13.8086 4.23828 13.8086 5.20508ZM14.4531 15.1074L4.80469 5.46875C4.63867 5.30273 4.63867 5.00977 4.80469 4.82422C4.99023 4.64844 5.2832 4.64844 5.45898 4.82422L15.0977 14.4629C15.2734 14.6387 15.2734 14.9121 15.0977 15.1074C14.9121 15.2734 14.6191 15.2734 14.4531 15.1074Z" fill="#ffffff"/>
 </g>
</svg>
