<?xml version="1.0" encoding="UTF-8"?>
<!--Generator: Apple Native CoreSVG 175.5-->
<!DOCTYPE svg
PUBLIC "-//W3C//DTD SVG 1.1//EN"
       "http://www.w3.org/Graphics/SVG/1.1/DTD/svg11.dtd">
<svg version="1.1" xmlns="http://www.w3.org/2000/svg" xmlns:xlink="http://www.w3.org/1999/xlink" width="17.688" height="20.6934">
 <g>
  <rect height="20.6934" opacity="0" width="17.688" x="0" y="0"/>
  <path d="M5.22217 20.6836L12.478 20.6836C13.6597 20.6836 14.5093 20.127 14.8706 19.1797L14.8706 19.1309L13.0151 17.2852L13.0151 17.373L4.13818 17.373L4.13818 8.41797L2.56592 6.8457L2.56592 18.1445C2.56592 19.668 3.63037 20.6836 5.22217 20.6836ZM8.85498 19.7168C8.38623 19.7168 8.00537 19.3359 8.00537 18.8672C8.00537 18.4082 8.38623 18.0273 8.85498 18.0273C9.31396 18.0273 9.69482 18.4082 9.69482 18.8672C9.69482 19.3359 9.31396 19.7168 8.85498 19.7168ZM15.1343 13.9551L15.1343 2.53906C15.1343 1.01562 14.0698 0 12.478 0L5.22217 0C4.01123 0 3.14209 0.576172 2.80029 1.5625L2.80029 1.62109L4.56787 3.38867L4.56787 3.31055L13.5522 3.31055L13.5522 12.3828ZM8.85498 2.22656C8.53271 2.22656 8.27881 1.96289 8.27881 1.64062C8.27881 1.32812 8.53271 1.07422 8.85498 1.07422C9.17725 1.07422 9.42139 1.32812 9.42139 1.64062C9.42139 1.96289 9.17725 2.22656 8.85498 2.22656Z" fill="#000000" fill-opacity="0.85"/>
  <path d="M16.4038 19.0039C16.6968 19.3066 17.1851 19.2969 17.4683 19.0039C17.7612 18.7207 17.7612 18.2422 17.4683 17.9395L1.28662 1.76758C0.993652 1.47461 0.515137 1.46484 0.212402 1.76758C-0.0708008 2.05078-0.0708008 2.54883 0.212402 2.83203Z" fill="#000000" fill-opacity="0.85"/>
 </g>
</svg>
