<?xml version="1.0" encoding="UTF-8"?>
<!--Generator: Apple Native CoreSVG 175.5-->
<!DOCTYPE svg
PUBLIC "-//W3C//DTD SVG 1.1//EN"
       "http://www.w3.org/Graphics/SVG/1.1/DTD/svg11.dtd">
<svg version="1.1" xmlns="http://www.w3.org/2000/svg" xmlns:xlink="http://www.w3.org/1999/xlink" width="20.6641" height="20.459">
 <g>
  <rect height="20.459" opacity="0" width="20.6641" x="0" y="0"/>
  <path d="M12.8711 0.00976562L3.06641 0.00976562C1.02539 0.00976562 0 1.02539 0 3.03711L0 12.9102C0 14.9219 1.02539 15.9375 3.06641 15.9375L12.8711 15.9375C14.9121 15.9375 15.9277 14.9316 15.9277 12.9102L15.9277 3.03711C15.9277 1.01562 14.9121 0.00976562 12.8711 0.00976562ZM20.6641 7.54883C20.6641 5.53711 19.6484 4.53125 17.6074 4.53125L17.2656 4.53125L17.2656 12.9102C17.2656 15.6738 15.6445 17.2754 12.8711 17.2754L4.73633 17.2754L4.73633 17.4316C4.73633 19.4434 5.76172 20.459 7.80273 20.459L17.6074 20.459C19.6484 20.459 20.6641 19.4531 20.6641 17.4316Z" fill="#000000" fill-opacity="0.85"/>
  <path d="M7.49023 12.6855C6.09375 12.6855 5.00977 12.0117 4.6582 10.957C4.59961 10.8008 4.57031 10.6543 4.57031 10.4883C4.57031 10.0391 4.87305 9.73633 5.32227 9.73633C5.66406 9.73633 5.88867 9.90234 6.06445 10.2734C6.31836 10.9277 6.81641 11.3086 7.56836 11.3086C8.39844 11.3086 8.91602 10.7031 8.91602 9.69727L8.91602 4.08203C8.91602 3.53516 9.19922 3.17383 9.7168 3.17383C10.2539 3.17383 10.5371 3.51562 10.5371 4.08203L10.5371 9.7168C10.5371 11.6406 9.47266 12.6855 7.49023 12.6855Z" fill="#ffffff"/>
 </g>
</svg>
