<?xml version="1.0" encoding="UTF-8"?>
<!--Generator: Apple Native CoreSVG 175.5-->
<!DOCTYPE svg
PUBLIC "-//W3C//DTD SVG 1.1//EN"
       "http://www.w3.org/Graphics/SVG/1.1/DTD/svg11.dtd">
<svg version="1.1" xmlns="http://www.w3.org/2000/svg" xmlns:xlink="http://www.w3.org/1999/xlink" width="24.5508" height="18.5645">
 <g>
  <rect height="18.5645" opacity="0" width="24.5508" x="0" y="0"/>
  <path d="M19.2969 16.9727C22.2461 16.9727 24.5508 14.8145 24.5508 12.1289C24.5508 10.0781 23.3691 8.30078 21.4648 7.5C21.4844 3.14453 18.3496 0 14.3555 0C11.709 0 9.82422 1.41602 8.65234 3.125C6.25 2.42188 3.63281 4.24805 3.58398 6.98242C1.37695 7.33398 0 9.30664 0 11.6895C0 14.5605 2.50977 16.9727 5.84961 16.9727ZM19.2969 15.4004L5.84961 15.4004C3.38867 15.4004 1.57227 13.6816 1.57227 11.6895C1.57227 9.73633 2.75391 8.18359 4.82422 8.18359C4.96094 8.18359 5.00977 8.11523 5.00977 7.98828C5.00977 4.98047 7.17773 4.0918 9.17969 4.74609C9.29688 4.78516 9.36523 4.75586 9.42383 4.64844C10.3711 2.95898 11.8262 1.57227 14.3555 1.57227C17.5586 1.57227 19.7754 4.11133 19.9414 7.01172C19.9707 7.46094 19.9414 7.98828 19.9023 8.44727C19.8926 8.57422 19.9414 8.64258 20.0586 8.67188C21.8359 9.0625 22.9785 10.3613 22.9785 12.1289C22.9785 13.9453 21.377 15.4004 19.2969 15.4004Z" fill="#000000" fill-opacity="0.85"/>
  <path d="M6.91406 9.61914C6.91406 11.2305 8.21289 12.5195 9.81445 12.5195C11.0645 12.5195 12.0996 11.7383 12.666 10.332L13.8965 11.543C13.9941 11.6406 14.1406 11.6504 14.2188 11.5625L15.4395 10.3223L16.3281 11.2207C16.416 11.3184 16.5625 11.3184 16.6602 11.2207L18.0957 9.77539C18.1836 9.6875 18.1738 9.54102 18.0957 9.46289L17.334 8.70117C17.2363 8.60352 17.1484 8.57422 17.041 8.57422L12.5488 8.57422C12.1094 7.43164 11.0352 6.70898 9.81445 6.70898C8.21289 6.70898 6.91406 7.99805 6.91406 9.61914ZM8.31055 9.60938C8.31055 9.11133 8.71094 8.7207 9.20898 8.7207C9.7168 8.7207 10.1074 9.12109 10.1074 9.60938C10.1074 10.0977 9.7168 10.498 9.20898 10.498C8.71094 10.498 8.31055 10.0977 8.31055 9.60938Z" fill="#000000" fill-opacity="0.85"/>
 </g>
</svg>
