<?xml version="1.0" encoding="UTF-8"?>
<!--Generator: Apple Native CoreSVG 175.5-->
<!DOCTYPE svg
PUBLIC "-//W3C//DTD SVG 1.1//EN"
       "http://www.w3.org/Graphics/SVG/1.1/DTD/svg11.dtd">
<svg version="1.1" xmlns="http://www.w3.org/2000/svg" xmlns:xlink="http://www.w3.org/1999/xlink" width="24.7949" height="29.7827">
 <g>
  <rect height="29.7827" opacity="0" width="24.7949" x="0" y="0"/>
  <path d="M12.3926 2.49391C5.54688 2.49391 0 8.04078 0 14.8865C0 20.3455 3.53516 24.9841 8.4375 26.6345C8.35938 26.0681 8.51562 25.5213 8.84766 25.1013C4.61914 23.6365 1.57227 19.6228 1.57227 14.8865C1.57227 8.90992 6.41602 4.06617 12.3926 4.06617C18.3691 4.06617 23.2227 8.90992 23.2227 14.8865C23.2227 19.6033 20.1855 23.6267 15.957 25.1013C16.2988 25.5115 16.4453 26.0584 16.3672 26.6248C21.2695 24.9646 24.7949 20.3357 24.7949 14.8865C24.7949 8.04078 19.2383 2.49391 12.3926 2.49391Z" fill="#000000" fill-opacity="0.85"/>
  <path d="M12.3926 6.3025C7.65625 6.3025 3.81836 10.1502 3.81836 14.8865C3.81836 19.6228 7.65625 23.4607 12.3926 23.4607C17.1387 23.4607 20.9766 19.6228 20.9766 14.8865C20.9766 10.1502 17.1387 6.3025 12.3926 6.3025ZM12.3926 7.87477C16.2695 7.87477 19.4043 11.0193 19.4043 14.8865C19.4043 18.7537 16.2695 21.8884 12.3926 21.8884C8.52539 21.8884 5.39062 18.7537 5.39062 14.8865C5.39062 11.0193 8.52539 7.87477 12.3926 7.87477ZM9.94141 26.8982L11.8848 29.5154C12.1484 29.8767 12.6465 29.867 12.9199 29.5154L14.873 26.8982C15.2637 26.3806 15.0586 25.7068 14.3555 25.7068L10.4492 25.7068C9.77539 25.7068 9.54102 26.3611 9.94141 26.8982ZM10.6738 19.0271L14.9414 19.0271C15.3027 19.0271 15.5664 18.7927 15.5664 18.4216C15.5664 18.0408 15.3027 17.8162 14.9414 17.8162L11.4258 17.8162L11.4258 11.3025C11.4258 10.7849 11.1621 10.4627 10.6738 10.4627C10.1953 10.4627 9.94141 10.8045 9.94141 11.3025L9.94141 18.197C9.94141 18.6951 10.1953 19.0271 10.6738 19.0271Z" fill="#000000" fill-opacity="0.85"/>
 </g>
</svg>
