<?xml version="1.0" encoding="UTF-8"?>
<!--Generator: Apple Native CoreSVG 175.5-->
<!DOCTYPE svg
PUBLIC "-//W3C//DTD SVG 1.1//EN"
       "http://www.w3.org/Graphics/SVG/1.1/DTD/svg11.dtd">
<svg version="1.1" xmlns="http://www.w3.org/2000/svg" xmlns:xlink="http://www.w3.org/1999/xlink" width="24.7949" height="29.7827">
 <g>
  <rect height="29.7827" opacity="0" width="24.7949" x="0" y="0"/>
  <path d="M12.3926 2.49391C5.54688 2.49391 0 8.04078 0 14.8865C0 20.3455 3.53516 24.9841 8.4375 26.6345C8.35938 26.0681 8.51562 25.5213 8.84766 25.1013C4.61914 23.6365 1.57227 19.6228 1.57227 14.8865C1.57227 8.90992 6.41602 4.06617 12.3926 4.06617C18.3691 4.06617 23.2227 8.90992 23.2227 14.8865C23.2227 19.6033 20.1855 23.6267 15.957 25.1013C16.2988 25.5115 16.4453 26.0584 16.3672 26.6248C21.2695 24.9646 24.7949 20.3357 24.7949 14.8865C24.7949 8.04078 19.2383 2.49391 12.3926 2.49391Z" fill="#000000" fill-opacity="0.85"/>
  <path d="M12.3926 6.3025C7.65625 6.3025 3.81836 10.1502 3.81836 14.8865C3.81836 19.6228 7.65625 23.4607 12.3926 23.4607C17.1387 23.4607 20.9766 19.6228 20.9766 14.8865C20.9766 10.1502 17.1387 6.3025 12.3926 6.3025ZM9.94141 26.8982L11.8848 29.5154C12.1484 29.8767 12.6465 29.867 12.9199 29.5154L14.873 26.8982C15.2637 26.3806 15.0586 25.7068 14.3555 25.7068L10.4492 25.7068C9.77539 25.7068 9.54102 26.3611 9.94141 26.8982ZM10.6152 19.1638C10.1172 19.1638 9.85352 18.8025 9.85352 18.2849L9.85352 11.1853C9.85352 10.6677 10.1172 10.3162 10.6152 10.3162C11.1133 10.3162 11.3867 10.658 11.3867 11.1853L11.3867 17.8943L15.0195 17.8943C15.3906 17.8943 15.6641 18.1287 15.6641 18.5193C15.6641 18.9197 15.3906 19.1638 15.0195 19.1638Z" fill="#000000" fill-opacity="0.85"/>
 </g>
</svg>
