<?xml version="1.0" encoding="UTF-8"?>
<!--Generator: Apple Native CoreSVG 175.5-->
<!DOCTYPE svg
PUBLIC "-//W3C//DTD SVG 1.1//EN"
       "http://www.w3.org/Graphics/SVG/1.1/DTD/svg11.dtd">
<svg version="1.1" xmlns="http://www.w3.org/2000/svg" xmlns:xlink="http://www.w3.org/1999/xlink" width="19.9805" height="25.2441">
 <g>
  <rect height="25.2441" opacity="0" width="19.9805" x="0" y="0"/>
  <path d="M9.99023 17.7441C16.2305 17.7441 19.9805 14.9316 19.9805 11.4453C19.9805 7.96875 16.2305 5.15625 9.98047 5.15625C3.75 5.15625 0 7.96875 0 11.4453C0 14.9316 3.75 17.7441 9.99023 17.7441ZM9.99023 22.1777C12.3633 22.1777 13.7695 21.0645 13.7695 19.1895L13.7695 18.7012C12.5879 18.9355 11.3281 19.0723 9.99023 19.0723C8.65234 19.0723 7.39258 18.9355 6.2207 18.7012L6.2207 19.1895C6.2207 21.0645 7.62695 22.1777 9.99023 22.1777Z" fill="#000000" fill-opacity="0.85"/>
  <path d="M8.65234 14.6094C8.20312 14.6094 7.91016 14.2773 7.91016 13.7891L7.91016 8.75977C7.91016 8.27148 8.21289 7.94922 8.65234 7.94922C9.11133 7.94922 9.4043 8.26172 9.4043 8.75977L9.4043 13.3008L11.7578 13.3008C12.1484 13.3008 12.4219 13.5645 12.4219 13.9551C12.4219 14.3359 12.1484 14.6094 11.7578 14.6094Z" fill="#ffffff"/>
  <path d="M7.60742 1.19141L9.55078 3.80859C9.81445 4.16992 10.3125 4.16992 10.5762 3.80859L12.5391 1.19141C12.9297 0.673828 12.7246 0 12.0215 0L8.10547 0C7.44141 0 7.19727 0.654297 7.60742 1.19141Z" fill="#000000" fill-opacity="0.85"/>
 </g>
</svg>
