<?xml version="1.0" encoding="UTF-8"?>
<!--Generator: Apple Native CoreSVG 175.5-->
<!DOCTYPE svg
PUBLIC "-//W3C//DTD SVG 1.1//EN"
       "http://www.w3.org/Graphics/SVG/1.1/DTD/svg11.dtd">
<svg version="1.1" xmlns="http://www.w3.org/2000/svg" xmlns:xlink="http://www.w3.org/1999/xlink" width="19.9805" height="19.1113">
 <g>
  <rect height="19.1113" opacity="0" width="19.9805" x="0" y="0"/>
  <path d="M9.99023 14.6777C16.2305 14.6777 19.9805 11.8652 19.9805 8.37891C19.9805 4.90234 16.2305 2.08984 9.98047 2.08984C3.75 2.08984 0 4.90234 0 8.37891C0 11.8652 3.75 14.6777 9.99023 14.6777ZM9.99023 19.1113C12.3633 19.1113 13.7695 17.998 13.7695 16.123L13.7695 15.6348C12.5879 15.8691 11.3281 16.0059 9.99023 16.0059C8.65234 16.0059 7.39258 15.8691 6.2207 15.6348L6.2207 16.123C6.2207 17.998 7.62695 19.1113 9.99023 19.1113Z" fill="#000000" fill-opacity="0.85"/>
  <path d="M8.65234 11.543C8.20312 11.543 7.91016 11.2109 7.91016 10.7227L7.91016 5.69336C7.91016 5.20508 8.21289 4.88281 8.65234 4.88281C9.11133 4.88281 9.4043 5.19531 9.4043 5.69336L9.4043 10.2344L11.7578 10.2344C12.1484 10.2344 12.4219 10.498 12.4219 10.8887C12.4219 11.2695 12.1484 11.543 11.7578 11.543Z" fill="#ffffff"/>
 </g>
</svg>
