<?xml version="1.0" encoding="UTF-8"?>
<!--Generator: Apple Native CoreSVG 175.5-->
<!DOCTYPE svg
PUBLIC "-//W3C//DTD SVG 1.1//EN"
       "http://www.w3.org/Graphics/SVG/1.1/DTD/svg11.dtd">
<svg version="1.1" xmlns="http://www.w3.org/2000/svg" xmlns:xlink="http://www.w3.org/1999/xlink" width="27.2925" height="24.7949">
 <g>
  <rect height="24.7949" opacity="0" width="27.2925" x="0" y="0"/>
  <path d="M14.8999 0C9.44092 0 4.80225 3.53516 3.15186 8.4375C3.71826 8.35938 4.26514 8.50586 4.68506 8.84766C6.1499 4.60938 10.1636 1.57227 14.8999 1.57227C20.8765 1.57227 25.7202 6.41602 25.7202 12.3926C25.7202 18.3691 20.8765 23.2129 14.8999 23.2129C10.1733 23.2129 6.15967 20.1855 4.68506 15.957C4.2749 16.2891 3.72803 16.4453 3.16162 16.3672C4.82178 21.2598 9.45068 24.7852 14.8999 24.7852C21.7456 24.7852 27.2925 19.2383 27.2925 12.3926C27.2925 5.54688 21.7456 0 14.8999 0Z" fill="#000000" fill-opacity="0.85"/>
  <path d="M14.8999 20.9668C19.6362 20.9668 23.4839 17.1289 23.4839 12.3926C23.4839 7.65625 19.6362 3.80859 14.8999 3.80859C10.1636 3.80859 6.31592 7.65625 6.31592 12.3926C6.31592 17.1289 10.1636 20.9668 14.8999 20.9668ZM2.88818 9.93164L0.270996 11.8848C-0.090332 12.1484-0.090332 12.6465 0.270996 12.9102L2.88818 14.8633C3.40576 15.2539 4.07959 15.0488 4.07959 14.3555L4.07959 10.4395C4.07959 9.76562 3.42529 9.52148 2.88818 9.93164ZM13.1226 16.6699C12.6245 16.6699 12.3608 16.3086 12.3608 15.791L12.3608 8.69141C12.3608 8.17383 12.6245 7.82227 13.1226 7.82227C13.6206 7.82227 13.894 8.16406 13.894 8.69141L13.894 15.4004L17.5269 15.4004C17.8979 15.4004 18.1714 15.6348 18.1714 16.0254C18.1714 16.4258 17.8979 16.6699 17.5269 16.6699Z" fill="#000000" fill-opacity="0.85"/>
 </g>
</svg>
