<?xml version="1.0" encoding="UTF-8"?>
<!--Generator: Apple Native CoreSVG 175.5-->
<!DOCTYPE svg
PUBLIC "-//W3C//DTD SVG 1.1//EN"
       "http://www.w3.org/Graphics/SVG/1.1/DTD/svg11.dtd">
<svg version="1.1" xmlns="http://www.w3.org/2000/svg" xmlns:xlink="http://www.w3.org/1999/xlink" width="20.1367" height="25.2441">
 <g>
  <rect height="25.2441" opacity="0" width="20.1367" x="0" y="0"/>
  <path d="M10.0684 18.0371C16.1621 18.0371 20.1367 15.3418 20.1367 11.4453C20.1367 7.55859 16.1523 4.86328 10.0586 4.86328C3.97461 4.86328 0 7.55859 0 11.4453C0 15.3418 3.97461 18.0371 10.0684 18.0371ZM10.0684 16.3574C5.09766 16.3574 1.76758 14.3652 1.76758 11.4453C1.76758 8.52539 5.09766 6.54297 10.0586 6.54297C15.0293 6.54297 18.3691 8.52539 18.3691 11.4453C18.3691 14.3652 15.0391 16.3574 10.0684 16.3574ZM10.0684 22.1777C12.4414 22.1777 13.8477 21.0645 13.8477 19.1895L13.8477 18.7988C12.6855 19.043 11.4258 19.1699 10.0684 19.1699C8.71094 19.1699 7.45117 19.043 6.29883 18.7988L6.29883 19.1895C6.29883 21.0645 7.70508 22.1777 10.0684 22.1777Z" fill="#000000" fill-opacity="0.85"/>
  <path d="M8.70117 14.502L11.709 14.502C12.0898 14.502 12.3535 14.2383 12.3535 13.877C12.3535 13.4961 12.0898 13.2422 11.709 13.2422L9.42383 13.2422L9.42383 8.83789C9.42383 8.34961 9.14062 8.05664 8.70117 8.05664C8.27148 8.05664 7.97852 8.35938 7.97852 8.83789L7.97852 13.7207C7.97852 14.1895 8.26172 14.502 8.70117 14.502Z" fill="#000000" fill-opacity="0.85"/>
  <path d="M7.60742 1.19141L9.55078 3.80859C9.81445 4.16992 10.3125 4.16992 10.5762 3.80859L12.5391 1.19141C12.9297 0.673828 12.7246 0 12.0215 0L8.10547 0C7.44141 0 7.19727 0.654297 7.60742 1.19141Z" fill="#000000" fill-opacity="0.85"/>
 </g>
</svg>
