<?xml version="1.0" encoding="UTF-8"?>
<!--Generator: Apple Native CoreSVG 175.5-->
<!DOCTYPE svg
PUBLIC "-//W3C//DTD SVG 1.1//EN"
       "http://www.w3.org/Graphics/SVG/1.1/DTD/svg11.dtd">
<svg version="1.1" xmlns="http://www.w3.org/2000/svg" xmlns:xlink="http://www.w3.org/1999/xlink" width="23.6133" height="17.998">
 <g>
  <rect height="17.998" opacity="0" width="23.6133" x="0" y="0"/>
  <path d="M8.39844 17.998L15.2246 17.998C21.0352 17.998 23.6133 15.332 23.6133 9.85352L23.6133 3.04688C23.6133 1.03516 22.5879 0.0195312 20.5469 0.0195312L3.06641 0.0195312C1.02539 0.0195312 0 1.02539 0 3.04688L0 9.85352C0 15.332 2.57812 17.998 8.39844 17.998ZM8.39844 16.4062C3.65234 16.4062 1.57227 14.3262 1.57227 9.95117L1.57227 3.125C1.57227 2.10938 2.10938 1.5918 3.08594 1.5918L20.5273 1.5918C21.4941 1.5918 22.041 2.10938 22.041 3.125L22.041 9.95117C22.041 14.3262 19.9609 16.4062 15.2148 16.4062Z" fill="#000000" fill-opacity="0.85"/>
  <path d="M10 13.3887L14.4922 13.3887C14.873 13.3887 15.1465 13.1445 15.1465 12.7441C15.1465 12.3438 14.873 12.1094 14.4922 12.1094L10.791 12.1094L10.791 5.25391C10.791 4.70703 10.5078 4.375 10 4.375C9.49219 4.375 9.22852 4.72656 9.22852 5.25391L9.22852 12.5098C9.22852 13.0273 9.49219 13.3887 10 13.3887Z" fill="#000000" fill-opacity="0.85"/>
 </g>
</svg>
