<?xml version="1.0" encoding="UTF-8"?>
<!--Generator: Apple Native CoreSVG 175.5-->
<!DOCTYPE svg
PUBLIC "-//W3C//DTD SVG 1.1//EN"
       "http://www.w3.org/Graphics/SVG/1.1/DTD/svg11.dtd">
<svg version="1.1" xmlns="http://www.w3.org/2000/svg" xmlns:xlink="http://www.w3.org/1999/xlink" width="23.6133" height="17.998">
 <g>
  <rect height="17.998" opacity="0" width="23.6133" x="0" y="0"/>
  <path d="M8.39844 17.998L15.2246 17.998C21.0352 17.998 23.6133 15.332 23.6133 9.85352L23.6133 3.04688C23.6133 1.03516 22.5879 0.0195312 20.5469 0.0195312L3.06641 0.0195312C1.02539 0.0195312 0 1.02539 0 3.04688L0 9.85352C0 15.332 2.57812 17.998 8.39844 17.998Z" fill="#000000" fill-opacity="0.85"/>
  <path d="M7.43164 13.5254C6.91406 13.5254 6.64062 13.1543 6.64062 12.6172L6.64062 5.13672C6.64062 4.58984 6.91406 4.22852 7.43164 4.22852C7.95898 4.22852 8.24219 4.57031 8.24219 5.13672L8.24219 12.1973L12.0703 12.1973C12.4609 12.1973 12.7441 12.4414 12.7441 12.8613C12.7441 13.2715 12.4609 13.5254 12.0703 13.5254ZM16.084 13.7598C15.5859 13.7598 15.293 13.418 15.293 12.8516L15.293 5.99609L15.2148 5.99609L13.916 6.85547C13.6914 7.01172 13.584 7.03125 13.4277 7.03125C13.1055 7.03125 12.8516 6.73828 12.8516 6.42578C12.8516 6.17188 12.9395 6.02539 13.1641 5.85938L14.9707 4.62891C15.4102 4.33594 15.6738 4.23828 16.0449 4.23828C16.582 4.23828 16.8945 4.56055 16.8945 5.14648L16.8945 12.8516C16.8945 13.418 16.6016 13.7598 16.084 13.7598Z" fill="#ffffff"/>
 </g>
</svg>
