<?xml version="1.0" encoding="UTF-8"?>
<!--Generator: Apple Native CoreSVG 175.5-->
<!DOCTYPE svg
PUBLIC "-//W3C//DTD SVG 1.1//EN"
       "http://www.w3.org/Graphics/SVG/1.1/DTD/svg11.dtd">
<svg version="1.1" xmlns="http://www.w3.org/2000/svg" xmlns:xlink="http://www.w3.org/1999/xlink" width="23.6133" height="17.998">
 <g>
  <rect height="17.998" opacity="0" width="23.6133" x="0" y="0"/>
  <path d="M8.39844 17.998L15.2246 17.998C21.0352 17.998 23.6133 15.332 23.6133 9.85352L23.6133 3.04688C23.6133 1.03516 22.5879 0.0195312 20.5469 0.0195312L3.06641 0.0195312C1.02539 0.0195312 0 1.02539 0 3.04688L0 9.85352C0 15.332 2.57812 17.998 8.39844 17.998ZM8.39844 16.4062C3.65234 16.4062 1.57227 14.3262 1.57227 9.95117L1.57227 3.125C1.57227 2.10938 2.10938 1.5918 3.08594 1.5918L20.5273 1.5918C21.4941 1.5918 22.041 2.10938 22.041 3.125L22.041 9.95117C22.041 14.3262 19.9609 16.4062 15.2148 16.4062Z" fill="#000000" fill-opacity="0.85"/>
  <path d="M7.56836 13.3887L12.0605 13.3887C12.4414 13.3887 12.7148 13.1445 12.7148 12.7441C12.7148 12.3438 12.4414 12.1094 12.0605 12.1094L8.34961 12.1094L8.34961 5.25391C8.34961 4.70703 8.07617 4.375 7.56836 4.375C7.06055 4.375 6.79688 4.72656 6.79688 5.25391L6.79688 12.5098C6.79688 13.0273 7.06055 13.3887 7.56836 13.3887ZM15.957 13.6133C16.4551 13.6133 16.7383 13.2812 16.7383 12.7344L16.7383 5.26367C16.7383 4.69727 16.4355 4.38477 15.918 4.38477C15.5566 4.38477 15.3027 4.48242 14.8828 4.76562L13.125 5.95703C12.9102 6.11328 12.8223 6.25977 12.8223 6.50391C12.8223 6.80664 13.0664 7.08984 13.3789 7.08984C13.5254 7.08984 13.6328 7.07031 13.8477 6.91406L15.1172 6.08398L15.1855 6.08398L15.1855 12.7344C15.1855 13.2812 15.4688 13.6133 15.957 13.6133Z" fill="#000000" fill-opacity="0.85"/>
 </g>
</svg>
