<?xml version="1.0" encoding="UTF-8"?>
<!--Generator: Apple Native CoreSVG 175.5-->
<!DOCTYPE svg
PUBLIC "-//W3C//DTD SVG 1.1//EN"
       "http://www.w3.org/Graphics/SVG/1.1/DTD/svg11.dtd">
<svg version="1.1" xmlns="http://www.w3.org/2000/svg" xmlns:xlink="http://www.w3.org/1999/xlink" width="23.6133" height="17.998">
 <g>
  <rect height="17.998" opacity="0" width="23.6133" x="0" y="0"/>
  <path d="M8.39844 0.0195312C2.57812 0.0195312 0 2.68555 0 8.1543L0 14.9707C0 16.9922 1.02539 17.998 3.06641 17.998L20.5469 17.998C22.5879 17.998 23.6133 16.9824 23.6133 14.9707L23.6133 8.1543C23.6133 2.68555 21.0352 0.0195312 15.2246 0.0195312Z" fill="#000000" fill-opacity="0.85"/>
  <path d="M6.38672 13.5449C5.87891 13.5449 5.60547 13.1641 5.60547 12.627L5.60547 5.15625C5.60547 4.60938 5.87891 4.23828 6.38672 4.23828C6.92383 4.23828 7.20703 4.58984 7.20703 5.15625L7.20703 12.2168L10.8301 12.2168C11.2207 12.2168 11.5137 12.4609 11.5137 12.8711C11.5137 13.291 11.2305 13.5449 10.8301 13.5449ZM13.2129 13.5449C12.7734 13.5449 12.5 13.2812 12.5 12.8711C12.5 12.6562 12.5879 12.4707 12.7637 12.2754L15.9766 8.88672C16.5723 8.26172 17.1875 7.64648 17.1875 6.91406C17.1875 6.08398 16.5527 5.52734 15.6055 5.52734C14.6191 5.52734 14.1113 6.17188 13.8281 6.77734C13.6523 7.06055 13.4668 7.28516 13.1055 7.28516C12.7246 7.28516 12.4609 7.03125 12.4609 6.64062C12.4609 6.51367 12.4707 6.38672 12.5098 6.24023C12.832 5.10742 14.1016 4.23828 15.5273 4.23828C17.3926 4.23828 18.623 5.26367 18.623 6.79688C18.623 7.91016 18.0078 8.7207 17.1094 9.66797L14.7266 12.1484L14.7266 12.2168L18.291 12.2168C18.6719 12.2168 18.9648 12.4609 18.9648 12.8711C18.9648 13.2812 18.6719 13.5449 18.291 13.5449Z" fill="#ffffff"/>
 </g>
</svg>
