<?xml version="1.0" encoding="UTF-8"?>
<!--Generator: Apple Native CoreSVG 175.5-->
<!DOCTYPE svg
PUBLIC "-//W3C//DTD SVG 1.1//EN"
       "http://www.w3.org/Graphics/SVG/1.1/DTD/svg11.dtd">
<svg version="1.1" xmlns="http://www.w3.org/2000/svg" xmlns:xlink="http://www.w3.org/1999/xlink" width="15.1758" height="20.9473">
 <g>
  <rect height="20.9473" opacity="0" width="15.1758" x="0" y="0"/>
  <path d="M0 17.8809C0 19.9219 1.00586 20.9375 3.02734 20.9375L12.1582 20.9375C14.1699 20.9375 15.1758 19.9219 15.1758 17.8809L15.1758 3.06641C15.1758 1.03516 14.1699 0 12.1582 0L3.02734 0C1.00586 0 0 1.03516 0 3.06641ZM1.57227 17.8516L1.57227 3.0957C1.57227 2.11914 2.08984 1.57227 3.10547 1.57227L12.0703 1.57227C13.0859 1.57227 13.6035 2.11914 13.6035 3.0957L13.6035 17.8516C13.6035 18.8281 13.0859 19.3652 12.0703 19.3652L3.10547 19.3652C2.08984 19.3652 1.57227 18.8281 1.57227 17.8516ZM5.26367 3.92578L9.92188 3.92578C10.2734 3.92578 10.5566 3.64258 10.5566 3.29102C10.5566 2.93945 10.2734 2.65625 9.92188 2.65625L5.26367 2.65625C4.92188 2.65625 4.62891 2.93945 4.62891 3.29102C4.62891 3.64258 4.92188 3.92578 5.26367 3.92578Z" fill="#000000" fill-opacity="0.85"/>
 </g>
</svg>
