<?xml version="1.0" encoding="UTF-8"?>
<!--Generator: Apple Native CoreSVG 175.5-->
<!DOCTYPE svg
PUBLIC "-//W3C//DTD SVG 1.1//EN"
       "http://www.w3.org/Graphics/SVG/1.1/DTD/svg11.dtd">
<svg version="1.1" xmlns="http://www.w3.org/2000/svg" xmlns:xlink="http://www.w3.org/1999/xlink" width="27.1973" height="16.6504">
 <g>
  <rect height="16.6504" opacity="0" width="27.1973" x="0" y="0"/>
  <path d="M3.24219 14.3945L4.81445 14.3945L4.81445 2.50977C4.81445 1.88477 5.12695 1.57227 5.75195 1.57227L24.8242 1.57227C24.7559 0.537109 24.1211 0 23.0371 0L5.33203 0C4.04297 0 3.24219 0.703125 3.24219 2.07031ZM1.10352 15.8887L18.2617 15.8887C17.9883 15.4492 17.832 14.9316 17.8125 14.3262C17.8125 14.1016 17.8027 13.8867 17.8027 13.6621L1.10352 13.6621C0.498047 13.6621 0 14.1602 0 14.7754C0 15.3906 0.498047 15.8887 1.10352 15.8887Z" fill="#000000" fill-opacity="0.85"/>
  <path d="M20.8398 16.0156L25.293 16.0156C26.5039 16.0156 27.1973 15.3516 27.1973 14.1895L27.1973 4.46289C27.1973 3.30078 26.4941 2.62695 25.293 2.62695L20.8398 2.62695C19.6289 2.62695 18.9355 3.30078 18.9355 4.46289L18.9355 14.1895C18.9355 15.3516 19.6289 16.0156 20.8398 16.0156ZM20.8594 14.7363C20.4297 14.7363 20.2148 14.502 20.2148 14.0625L20.2148 4.58984C20.2148 4.14062 20.4297 3.90625 20.8594 3.90625L21.748 3.90625C21.7773 3.90625 21.8066 3.93555 21.8066 3.96484L21.8066 4.05273C21.8066 4.39453 22.0312 4.61914 22.373 4.61914L23.7598 4.61914C24.0918 4.61914 24.3262 4.39453 24.3262 4.05273L24.3262 3.96484C24.3262 3.93555 24.3457 3.90625 24.3848 3.90625L25.2637 3.90625C25.6934 3.90625 25.918 4.14062 25.918 4.58984L25.918 14.0625C25.918 14.502 25.6934 14.7363 25.2637 14.7363ZM21.7285 14.2383L24.3848 14.2383C24.5801 14.2383 24.7266 14.1016 24.7266 13.8965C24.7266 13.7109 24.5801 13.5645 24.3848 13.5645L21.7285 13.5645C21.5332 13.5645 21.4062 13.7109 21.4062 13.8965C21.4062 14.1113 21.5234 14.2383 21.7285 14.2383Z" fill="#000000" fill-opacity="0.85"/>
 </g>
</svg>
