<?xml version="1.0" encoding="UTF-8"?>
<!--Generator: Apple Native CoreSVG 175.5-->
<!DOCTYPE svg
PUBLIC "-//W3C//DTD SVG 1.1//EN"
       "http://www.w3.org/Graphics/SVG/1.1/DTD/svg11.dtd">
<svg version="1.1" xmlns="http://www.w3.org/2000/svg" xmlns:xlink="http://www.w3.org/1999/xlink" width="22.8711" height="27.6074">
 <g>
  <rect height="27.6074" opacity="0" width="22.8711" x="0" y="0"/>
  <path d="M12.4121 19.3066C12.1094 19.3262 11.7969 19.3359 11.4941 19.3359C7.5293 19.3359 4.22852 17.5 4.22852 13.8086C4.22852 13.3203 4.32617 12.8711 4.48242 12.4414C4.22852 12.1094 3.82812 11.9824 3.08594 11.8652C2.87109 12.4707 2.75391 13.1152 2.75391 13.7988C2.75391 18.2812 6.60156 20.8008 11.4062 20.8008C11.8555 20.8008 12.3047 20.7812 12.7637 20.7422ZM8.93555 6.02539C9.05273 6.72852 9.16016 7.14844 9.4043 7.42188C10.7812 6.86523 12.2949 6.5625 13.7891 6.5625C17.8809 6.5625 21.4062 9.10156 21.4062 12.959C21.4062 16.5137 17.5781 19.5605 13.9551 19.5605C13.252 19.5605 12.7441 19.2871 12.7441 18.8184C12.7441 17.998 13.8867 17.4512 15.3027 17.4512C16.9824 17.4512 18.2617 18.6816 18.2617 20.3711C18.2617 21.543 17.5977 22.6855 16.5039 23.3789C16.2207 23.584 16.0156 23.7891 16.0156 24.1406C16.0156 24.502 16.3086 24.8145 16.7676 24.8145C16.9824 24.8145 17.1094 24.7559 17.2949 24.6387C18.7988 23.6621 19.7266 22.0312 19.7266 20.3418C19.7266 17.8418 17.7344 15.9668 15.1855 15.9668C12.9492 15.9668 11.2598 17.1387 11.2598 18.8672C11.2598 20.1758 12.3535 21.0254 13.9551 21.0254C18.3691 21.0254 22.8711 17.3633 22.8711 12.9688C22.8711 8.32031 18.7305 5.08789 13.7793 5.08789C12.1289 5.08789 10.459 5.41992 8.93555 6.02539Z" fill="#000000" fill-opacity="0.85"/>
  <path d="M7.03125 15.2246C7.25586 15.2246 7.41211 15.0684 7.45117 14.8535C8.10547 11.3379 8.38867 10.8984 11.8555 10.4297C12.0898 10.4004 12.2559 10.2344 12.2559 10.0098C12.2559 9.78516 12.0898 9.61914 11.8555 9.58984C8.39844 9.12109 7.95898 8.69141 7.45117 5.17578C7.42188 4.95117 7.25586 4.78516 7.03125 4.78516C6.81641 4.78516 6.65039 4.94141 6.61133 5.16602C5.97656 8.68164 5.67383 9.12109 2.20703 9.58984C1.97266 9.61914 1.80664 9.78516 1.80664 10.0098C1.80664 10.2344 1.97266 10.4004 2.20703 10.4297C5.66406 10.8984 6.10352 11.3184 6.61133 14.8438C6.64062 15.0684 6.79688 15.2246 7.03125 15.2246ZM2.61719 8.03711C2.7832 8.03711 2.91992 7.91992 2.94922 7.75391C3.27148 6.09375 3.14453 6.04492 4.94141 5.76172C5.12695 5.73242 5.23438 5.5957 5.23438 5.42969C5.23438 5.26367 5.12695 5.12695 4.94141 5.09766C3.14453 4.79492 3.27148 4.73633 2.94922 3.125C2.91992 2.94922 2.79297 2.82227 2.61719 2.82227C2.44141 2.82227 2.32422 2.93945 2.28516 3.125C1.95312 4.73633 2.08008 4.79492 0.292969 5.09766C0.117188 5.12695 0 5.26367 0 5.42969C0 5.61523 0.117188 5.73242 0.3125 5.76172C2.08008 6.04492 1.95312 6.09375 2.28516 7.72461C2.32422 7.91016 2.43164 8.03711 2.61719 8.03711ZM5.78125 3.57422C5.88867 3.57422 5.97656 3.48633 5.99609 3.37891C6.20117 2.26562 6.14258 2.23633 7.37305 2.01172C7.49023 1.98242 7.55859 1.89453 7.55859 1.78711C7.55859 1.67969 7.49023 1.58203 7.37305 1.5625C6.13281 1.32812 6.18164 1.28906 5.99609 0.205078C5.97656 0.0878906 5.89844 0 5.78125 0C5.66406 0 5.58594 0.0878906 5.55664 0.205078C5.32227 1.28906 5.41016 1.32812 4.17969 1.5625C4.07227 1.58203 3.99414 1.67969 3.99414 1.78711C3.99414 1.9043 4.07227 1.98242 4.18945 2.01172C5.41016 2.20703 5.32227 2.26562 5.55664 3.35938C5.58594 3.48633 5.66406 3.57422 5.78125 3.57422Z" fill="#000000" fill-opacity="0.85"/>
 </g>
</svg>
