<?xml version="1.0" encoding="UTF-8"?>
<!--Generator: Apple Native CoreSVG 175.5-->
<!DOCTYPE svg
PUBLIC "-//W3C//DTD SVG 1.1//EN"
       "http://www.w3.org/Graphics/SVG/1.1/DTD/svg11.dtd">
<svg version="1.1" xmlns="http://www.w3.org/2000/svg" xmlns:xlink="http://www.w3.org/1999/xlink" width="22.6074" height="20.8496">
 <g>
  <rect height="20.8496" opacity="0" width="22.6074" x="0" y="0"/>
  <path d="M1.36719 10.6836L21.2402 10.6836L21.2402 9.20898L1.36719 9.20898ZM5.21484 12.0215L7.63672 12.0215C8.33008 12.0215 8.7207 11.6406 8.7207 10.957L8.7207 8.95508C8.7207 8.27148 8.33008 7.88086 7.63672 7.88086L5.21484 7.88086C4.53125 7.88086 4.14062 8.27148 4.14062 8.95508L4.14062 10.957C4.14062 11.6406 4.53125 12.0215 5.21484 12.0215ZM14.9609 12.0215L17.3828 12.0215C18.0762 12.0215 18.4668 11.6406 18.4668 10.957L18.4668 8.95508C18.4668 8.27148 18.0762 7.88086 17.3828 7.88086L14.9609 7.88086C14.2676 7.88086 13.877 8.27148 13.877 8.95508L13.877 10.957C13.877 11.6406 14.2676 12.0215 14.9609 12.0215ZM3.01758 18.9258L19.5898 18.9258C21.6113 18.9258 22.6074 17.9395 22.6074 15.9473L22.6074 6.44531C22.6074 4.44336 21.6113 3.4668 19.5898 3.4668L3.01758 3.4668C1.00586 3.4668 0 4.44336 0 6.44531L0 15.9473C0 17.9395 1.00586 18.9258 3.01758 18.9258ZM3.03711 17.3633C2.08008 17.3633 1.57227 16.8652 1.57227 15.8691L1.57227 6.52344C1.57227 5.51758 2.08008 5.0293 3.03711 5.0293L19.5703 5.0293C20.5273 5.0293 21.0352 5.51758 21.0352 6.52344L21.0352 15.8691C21.0352 16.8652 20.5273 17.3633 19.5703 17.3633ZM6.34766 4.31641L7.86133 4.31641L7.86133 2.58789C7.86133 1.8457 8.30078 1.42578 9.0625 1.42578L13.5449 1.42578C14.3066 1.42578 14.7363 1.8457 14.7363 2.58789L14.7363 4.29688L16.25 4.29688L16.25 2.69531C16.25 0.859375 15.2832 0 13.5156 0L9.08203 0C7.41211 0 6.34766 0.859375 6.34766 2.69531Z" fill="#000000" fill-opacity="0.85"/>
 </g>
</svg>
