<?xml version="1.0" encoding="UTF-8"?>
<!--Generator: Apple Native CoreSVG 175.5-->
<!DOCTYPE svg
PUBLIC "-//W3C//DTD SVG 1.1//EN"
       "http://www.w3.org/Graphics/SVG/1.1/DTD/svg11.dtd">
<svg version="1.1" xmlns="http://www.w3.org/2000/svg" xmlns:xlink="http://www.w3.org/1999/xlink" width="23.6133" height="17.998">
 <g>
  <rect height="17.998" opacity="0" width="23.6133" x="0" y="0"/>
  <path d="M8.39844 17.998L15.2246 17.998C21.0352 17.998 23.6133 15.332 23.6133 9.85352L23.6133 3.04688C23.6133 1.03516 22.5879 0.0195312 20.5469 0.0195312L3.06641 0.0195312C1.02539 0.0195312 0 1.02539 0 3.04688L0 9.85352C0 15.332 2.57812 17.998 8.39844 17.998Z" fill="#000000" fill-opacity="0.85"/>
  <path d="M5.83008 13.5254C5.3125 13.5254 5.0293 13.1445 5.0293 12.6074L5.0293 5.13672C5.0293 4.58984 5.30273 4.21875 5.83008 4.21875C6.36719 4.21875 6.65039 4.57031 6.65039 5.13672L6.65039 12.1973L10.4688 12.1973C10.8594 12.1973 11.1426 12.4414 11.1426 12.8516C11.1426 13.2715 10.8594 13.5254 10.4688 13.5254ZM13.5059 13.5352C12.9395 13.5352 12.5977 13.1934 12.5977 12.627L12.5977 5.22461C12.5977 4.64844 12.9395 4.32617 13.5059 4.32617L16.4648 4.32617C18.1934 4.32617 19.3164 5.22461 19.3164 6.5918C19.3164 7.59766 18.7012 8.37891 17.7051 8.62305L17.7051 8.68164C19.043 8.85742 19.8633 9.7168 19.8633 10.9375C19.8633 12.5195 18.5254 13.5352 16.4453 13.5352ZM14.1699 8.23242L15.6836 8.23242C17.0312 8.23242 17.7637 7.73438 17.7637 6.8457C17.7637 6.02539 17.1582 5.51758 16.1426 5.51758L14.1699 5.51758ZM14.1699 12.334L15.8008 12.334C17.4805 12.334 18.252 11.875 18.252 10.8789C18.252 9.90234 17.5391 9.3457 16.2988 9.3457L14.1699 9.3457Z" fill="#ffffff"/>
 </g>
</svg>
