<?xml version="1.0" encoding="UTF-8"?>
<!--Generator: Apple Native CoreSVG 175.5-->
<!DOCTYPE svg
PUBLIC "-//W3C//DTD SVG 1.1//EN"
       "http://www.w3.org/Graphics/SVG/1.1/DTD/svg11.dtd">
<svg version="1.1" xmlns="http://www.w3.org/2000/svg" xmlns:xlink="http://www.w3.org/1999/xlink" width="17.616" height="23.3301">
 <g>
  <rect height="23.3301" opacity="0" width="17.616" x="0" y="0"/>
  <path d="M9.26149 0C7.16188 0 5.33571 0.869141 4.13454 2.23633L5.17946 3.28125C6.11696 2.1582 7.6111 1.47461 9.26149 1.47461C12.0056 1.47461 14.3201 3.37891 14.3201 6.01562C14.3201 7.79297 13.5681 8.7207 12.7966 10.8887L13.9978 12.0996C14.8377 9.70703 15.7947 8.4668 15.7947 6.01562C15.7947 2.64648 12.9138 0 9.26149 0ZM6.20485 17.7832L12.3084 17.7832C12.6892 17.7832 12.9138 17.5684 12.9236 17.207L13.0017 16.582L11.9568 15.6152L11.8689 16.3086L6.93727 16.3086C6.42946 12.0996 5.43337 10.4395 4.99391 8.76953C4.95485 8.63281 4.92555 8.49609 4.90602 8.35938L2.76735 6.2207C2.74782 6.46484 2.75758 6.69922 2.77712 6.93359C3.08962 9.96094 5.02321 11.2305 5.58962 17.207C5.62868 17.5586 5.82399 17.7832 6.20485 17.7832ZM6.16579 19.8926L12.3474 19.8926C12.6697 19.8926 12.9236 19.6387 12.9236 19.3164C12.9236 19.0039 12.6697 18.75 12.3474 18.75L6.16579 18.75C5.84352 18.75 5.59938 19.0039 5.59938 19.3164C5.59938 19.6387 5.84352 19.8926 6.16579 19.8926ZM9.26149 22.7246C10.7654 22.7246 12.0349 21.9824 12.1228 20.8594L6.3904 20.8594C6.45876 21.9824 7.73805 22.7246 9.26149 22.7246Z" fill="#000000" fill-opacity="0.85"/>
  <path d="M16.3318 18.1641C16.6345 18.4766 17.1033 18.4668 17.3963 18.1641C17.6892 17.8711 17.6892 17.4023 17.3963 17.0996L1.28298 0.986328C0.990006 0.683594 0.501725 0.703125 0.208756 0.986328C-0.0744468 1.26953-0.0646812 1.77734 0.208756 2.05078Z" fill="#000000" fill-opacity="0.85"/>
 </g>
</svg>
