<?xml version="1.0" encoding="UTF-8"?>
<!--Generator: Apple Native CoreSVG 175.5-->
<!DOCTYPE svg
PUBLIC "-//W3C//DTD SVG 1.1//EN"
       "http://www.w3.org/Graphics/SVG/1.1/DTD/svg11.dtd">
<svg version="1.1" xmlns="http://www.w3.org/2000/svg" xmlns:xlink="http://www.w3.org/1999/xlink" width="23.291" height="13.3887">
 <g>
  <rect height="13.3887" opacity="0" width="23.291" x="0" y="0"/>
  <path d="M1.25 13.3887C1.95312 13.3887 2.5293 12.8223 2.5293 12.1289C2.5293 11.4453 1.95312 10.8789 1.25 10.8789C0.566406 10.8789 0 11.4453 0 12.1289C0 12.8125 0.566406 13.3887 1.25 13.3887ZM3.90625 6.2793C4.59961 6.2793 5.16602 5.71289 5.16602 5.0293C5.16602 4.33594 4.59961 3.76953 3.90625 3.76953C3.22266 3.76953 2.64648 4.33594 2.64648 5.0293C2.64648 5.71289 3.22266 6.2793 3.90625 6.2793ZM11.6406 2.91992C12.3242 2.91992 12.9004 2.34375 12.9004 1.65039C12.9004 0.966797 12.3242 0.400391 11.6406 0.400391C10.9668 0.400391 10.3906 0.966797 10.3906 1.65039C10.3906 2.34375 10.9668 2.91992 11.6406 2.91992ZM19.4141 6.2793C20.0977 6.2793 20.6641 5.71289 20.6641 5.0293C20.6641 4.33594 20.0977 3.76953 19.4141 3.76953C18.7207 3.76953 18.1543 4.33594 18.1543 5.0293C18.1543 5.71289 18.7207 6.2793 19.4141 6.2793ZM22.041 13.3887C22.7246 13.3887 23.291 12.8125 23.291 12.1289C23.291 11.4355 22.7246 10.8691 22.041 10.8691C21.3281 10.8691 20.7617 11.4355 20.7617 12.1289C20.7617 12.8125 21.3281 13.3887 22.041 13.3887Z" fill="#000000" fill-opacity="0.85"/>
  <path d="M7.69531 13.0762L15.5176 13.0762C15.9863 13.0762 16.3867 12.6758 16.3867 12.2168C16.3867 11.7383 15.9863 11.3477 15.5176 11.3477L7.69531 11.3477C7.2168 11.3477 6.81641 11.748 6.81641 12.2168C6.81641 12.6758 7.22656 13.0762 7.69531 13.0762Z" fill="#000000" fill-opacity="0.85"/>
 </g>
</svg>
