<?xml version="1.0" encoding="UTF-8"?>
<!--Generator: Apple Native CoreSVG 175.5-->
<!DOCTYPE svg
PUBLIC "-//W3C//DTD SVG 1.1//EN"
       "http://www.w3.org/Graphics/SVG/1.1/DTD/svg11.dtd">
<svg version="1.1" xmlns="http://www.w3.org/2000/svg" xmlns:xlink="http://www.w3.org/1999/xlink" width="16.4258" height="24.7949">
 <g>
  <rect height="24.7949" opacity="0" width="16.4258" x="0" y="0"/>
  <path d="M3.90625 10.4102L12.5195 10.4102C12.8516 10.4102 13.1348 10.1367 13.1348 9.80469C13.1348 9.47266 12.8516 9.18945 12.5195 9.18945L3.90625 9.18945C3.57422 9.18945 3.29102 9.47266 3.29102 9.80469C3.29102 10.1367 3.57422 10.4102 3.90625 10.4102ZM3.90625 13.877L12.5195 13.877C12.8613 13.877 13.1348 13.6035 13.1348 13.2617C13.1348 12.9297 12.8613 12.666 12.5195 12.666L3.90625 12.666C3.56445 12.666 3.29102 12.9297 3.29102 13.2617C3.29102 13.6035 3.56445 13.877 3.90625 13.877ZM3.90625 17.5293L8.24219 17.5293C8.57422 17.5293 8.84766 17.2559 8.84766 16.9238C8.84766 16.5918 8.58398 16.3184 8.24219 16.3184L3.90625 16.3184C3.56445 16.3184 3.29102 16.5918 3.29102 16.9238C3.29102 17.2559 3.57422 17.5293 3.90625 17.5293ZM3.02734 23.6621L13.3984 23.6621C15.4199 23.6621 16.4258 22.6465 16.4258 20.5957L16.4258 5.79102C16.4258 3.78906 15.459 2.72461 13.5059 2.72461L13.2715 2.72461C13.2812 2.80273 13.2812 2.89062 13.2812 2.96875L13.2812 3.84766C13.2812 4.00391 13.2715 4.16016 13.2422 4.29688L13.4766 4.29688C14.3945 4.29688 14.8535 4.89258 14.8535 5.81055L14.8535 20.5762C14.8535 21.5527 14.3359 22.0898 13.3203 22.0898L3.10547 22.0898C2.08984 22.0898 1.57227 21.5527 1.57227 20.5762L1.57227 5.81055C1.57227 4.89258 2.03125 4.29688 2.94922 4.29688L3.18359 4.29688C3.1543 4.16016 3.14453 4.00391 3.14453 3.84766L3.14453 2.96875C3.14453 2.89062 3.14453 2.80273 3.1543 2.72461L2.91992 2.72461C0.966797 2.72461 0 3.78906 0 5.79102L0 20.5957C0 22.6465 1.00586 23.6621 3.02734 23.6621ZM5.19531 4.96094L11.2305 4.96094C11.7969 4.96094 12.1387 4.59961 12.1387 3.99414L12.1387 2.96875C12.1387 2.36328 11.7969 2.00195 11.2305 2.00195L10.332 2.00195C10.2637 0.898438 9.3457 0 8.21289 0C7.08008 0 6.16211 0.898438 6.09375 2.00195L5.19531 2.00195C4.62891 2.00195 4.28711 2.36328 4.28711 2.96875L4.28711 3.99414C4.28711 4.59961 4.62891 4.96094 5.19531 4.96094ZM8.21289 2.92969C7.74414 2.92969 7.36328 2.53906 7.36328 2.08008C7.36328 1.60156 7.74414 1.2207 8.21289 1.2207C8.68164 1.2207 9.0625 1.60156 9.0625 2.08008C9.0625 2.53906 8.68164 2.92969 8.21289 2.92969Z" fill="#000000" fill-opacity="0.85"/>
 </g>
</svg>
