<?xml version="1.0" encoding="UTF-8"?>
<!--Generator: Apple Native CoreSVG 175.5-->
<!DOCTYPE svg
PUBLIC "-//W3C//DTD SVG 1.1//EN"
       "http://www.w3.org/Graphics/SVG/1.1/DTD/svg11.dtd">
<svg version="1.1" xmlns="http://www.w3.org/2000/svg" xmlns:xlink="http://www.w3.org/1999/xlink" width="21.6992" height="21.7285">
 <g>
  <rect height="21.7285" opacity="0" width="21.6992" x="0" y="0"/>
  <path d="M10.8594 14.9121C13.0762 14.9121 14.8633 13.125 14.8633 10.8984C14.8633 8.68164 13.0762 6.89453 10.8594 6.89453C8.63281 6.89453 6.8457 8.68164 6.8457 10.8984C6.8457 13.1348 8.62305 14.9121 10.8594 14.9121ZM10.8594 13.0762C9.64844 13.0762 8.68164 12.1094 8.68164 10.8984C8.68164 9.70703 9.6582 8.73047 10.8594 8.73047C12.0508 8.73047 13.0273 9.7168 13.0273 10.8984C13.0273 12.0996 12.0605 13.0762 10.8594 13.0762Z" fill="#000000" fill-opacity="0.85"/>
  <path d="M10.8594 18.7695C15.2148 18.7695 18.7402 15.2539 18.7402 10.8789C18.7402 6.54297 15.1953 2.99805 10.8594 2.99805C6.47461 2.99805 2.96875 6.51367 2.96875 10.8789C2.96875 15.2734 6.46484 18.7695 10.8594 18.7695ZM10.8594 17.8125C6.99219 17.8125 3.92578 14.7461 3.92578 10.8789C3.92578 7.04102 7.01172 3.95508 10.8594 3.95508C14.6777 3.95508 17.7832 7.06055 17.7832 10.8789C17.7832 14.7266 14.6973 17.8125 10.8594 17.8125Z" fill="#000000" fill-opacity="0.85"/>
  <path d="M10.8496 1.04492C11.1328 1.04492 11.3477 0.820312 11.3477 0.546875C11.3477 0.273438 11.1328 0.0292969 10.8496 0.0292969C10.5859 0.0292969 10.3418 0.273438 10.3418 0.546875C10.3418 0.820312 10.5859 1.04492 10.8496 1.04492ZM12.6562 1.20117C12.9199 1.20117 13.1641 0.966797 13.1641 0.703125C13.1641 0.429688 12.9199 0.185547 12.6562 0.185547C12.3633 0.185547 12.1484 0.429688 12.1484 0.703125C12.1484 0.966797 12.3633 1.20117 12.6562 1.20117ZM14.3945 1.66016C14.6484 1.66016 14.8926 1.43555 14.8926 1.17188C14.8926 0.898438 14.6484 0.654297 14.3945 0.654297C14.1016 0.654297 13.8867 0.898438 13.8867 1.17188C13.8867 1.43555 14.1016 1.66016 14.3945 1.66016ZM16.0254 2.43164C16.2891 2.43164 16.5234 2.20703 16.5234 1.93359C16.5234 1.66016 16.2891 1.42578 16.0254 1.42578C15.7422 1.42578 15.5176 1.66016 15.5176 1.93359C15.5176 2.20703 15.7422 2.43164 16.0254 2.43164ZM17.5 3.4668C17.7734 3.4668 18.0078 3.23242 18.0078 2.97852C18.0078 2.69531 17.7734 2.46094 17.5 2.46094C17.2266 2.46094 17.0117 2.69531 17.0117 2.97852C17.0117 3.23242 17.2266 3.4668 17.5 3.4668ZM18.7793 4.73633C19.0527 4.73633 19.2871 4.51172 19.2871 4.24805C19.2871 3.96484 19.0527 3.73047 18.7793 3.73047C18.4961 3.73047 18.2715 3.96484 18.2715 4.24805C18.2715 4.51172 18.4961 4.73633 18.7793 4.73633ZM19.8145 6.2207C20.0781 6.2207 20.3125 5.99609 20.3125 5.72266C20.3125 5.45898 20.0781 5.21484 19.8145 5.21484C19.5312 5.21484 19.3164 5.45898 19.3164 5.72266C19.3164 5.99609 19.5312 6.2207 19.8145 6.2207ZM20.5762 7.86133C20.8398 7.86133 21.0742 7.63672 21.0742 7.36328C21.0742 7.08984 20.8398 6.8457 20.5762 6.8457C20.2832 6.8457 20.0684 7.08984 20.0684 7.36328C20.0684 7.63672 20.2832 7.86133 20.5762 7.86133ZM21.0352 9.59961C21.2988 9.59961 21.543 9.36523 21.543 9.0918C21.543 8.82812 21.2988 8.58398 21.0352 8.58398C20.7422 8.58398 20.5273 8.82812 20.5273 9.0918C20.5273 9.36523 20.7422 9.59961 21.0352 9.59961ZM21.1914 11.3867C21.4551 11.3867 21.6992 11.1523 21.6992 10.8984C21.6992 10.6152 21.4551 10.3809 21.1914 10.3809C20.9082 10.3809 20.6836 10.6152 20.6836 10.8984C20.6836 11.1523 20.9082 11.3867 21.1914 11.3867ZM21.0352 13.1836C21.2988 13.1836 21.543 12.9395 21.543 12.666C21.543 12.4023 21.2988 12.168 21.0352 12.168C20.7422 12.168 20.5273 12.4023 20.5273 12.666C20.5273 12.9395 20.7422 13.1836 21.0352 13.1836ZM20.5762 14.9121C20.8398 14.9121 21.0742 14.6777 21.0742 14.3945C21.0742 14.1406 20.8398 13.8965 20.5762 13.8965C20.2832 13.8965 20.0684 14.1406 20.0684 14.3945C20.0684 14.6777 20.2832 14.9121 20.5762 14.9121ZM19.8145 16.5527C20.0781 16.5527 20.3125 16.3086 20.3125 16.0352C20.3125 15.7617 20.0781 15.5371 19.8145 15.5371C19.5312 15.5371 19.3164 15.7617 19.3164 16.0352C19.3164 16.3086 19.5312 16.5527 19.8145 16.5527ZM18.7793 18.0273C19.0527 18.0273 19.2871 17.793 19.2871 17.5195C19.2871 17.2461 19.0527 17.0215 18.7793 17.0215C18.4961 17.0215 18.2715 17.2461 18.2715 17.5195C18.2715 17.793 18.4961 18.0273 18.7793 18.0273ZM17.5 19.3066C17.7734 19.3066 18.0078 19.0723 18.0078 18.7891C18.0078 18.5254 17.7734 18.3008 17.5 18.3008C17.2266 18.3008 17.0117 18.5254 17.0117 18.7891C17.0117 19.0723 17.2266 19.3066 17.5 19.3066ZM16.0254 20.3418C16.2891 20.3418 16.5234 20.0977 16.5234 19.8242C16.5234 19.5605 16.2891 19.3262 16.0254 19.3262C15.7422 19.3262 15.5176 19.5605 15.5176 19.8242C15.5176 20.0977 15.7422 20.3418 16.0254 20.3418ZM14.3945 21.1133C14.6484 21.1133 14.8926 20.8691 14.8926 20.5957C14.8926 20.3223 14.6484 20.0977 14.3945 20.0977C14.1016 20.0977 13.8867 20.3223 13.8867 20.5957C13.8867 20.8691 14.1016 21.1133 14.3945 21.1133ZM12.6562 21.5723C12.9199 21.5723 13.1641 21.3281 13.1641 21.0547C13.1641 20.791 12.9199 20.5664 12.6562 20.5664C12.3633 20.5664 12.1484 20.791 12.1484 21.0547C12.1484 21.3281 12.3633 21.5723 12.6562 21.5723ZM10.8496 21.7285C11.1328 21.7285 11.3477 21.4941 11.3477 21.2109C11.3477 20.957 11.1328 20.7227 10.8496 20.7227C10.5859 20.7227 10.3418 20.957 10.3418 21.2109C10.3418 21.4941 10.5859 21.7285 10.8496 21.7285ZM9.04297 21.5723C9.32617 21.5723 9.54102 21.3281 9.54102 21.0547C9.54102 20.791 9.32617 20.5664 9.04297 20.5664C8.7793 20.5664 8.53516 20.791 8.53516 21.0547C8.53516 21.3281 8.7793 21.5723 9.04297 21.5723ZM7.30469 21.1133C7.58789 21.1133 7.80273 20.8691 7.80273 20.5957C7.80273 20.3223 7.58789 20.0977 7.30469 20.0977C7.04102 20.0977 6.80664 20.3223 6.80664 20.5957C6.80664 20.8691 7.04102 21.1133 7.30469 21.1133ZM5.67383 20.3418C5.9668 20.3418 6.18164 20.0977 6.18164 19.8242C6.18164 19.5605 5.9668 19.3262 5.67383 19.3262C5.40039 19.3262 5.16602 19.5605 5.16602 19.8242C5.16602 20.0977 5.40039 20.3418 5.67383 20.3418ZM4.18945 19.3066C4.47266 19.3066 4.69727 19.0723 4.69727 18.7891C4.69727 18.5254 4.47266 18.3008 4.18945 18.3008C3.92578 18.3008 3.68164 18.5254 3.68164 18.7891C3.68164 19.0723 3.92578 19.3066 4.18945 19.3066ZM2.91016 18.0273C3.19336 18.0273 3.41797 17.793 3.41797 17.5195C3.41797 17.2461 3.19336 17.0215 2.91016 17.0215C2.64648 17.0215 2.41211 17.2461 2.41211 17.5195C2.41211 17.793 2.64648 18.0273 2.91016 18.0273ZM1.88477 16.5527C2.1582 16.5527 2.39258 16.3086 2.39258 16.0352C2.39258 15.7617 2.1582 15.5371 1.88477 15.5371C1.61133 15.5371 1.37695 15.7617 1.37695 16.0352C1.37695 16.3086 1.61133 16.5527 1.88477 16.5527ZM1.12305 14.9121C1.41602 14.9121 1.63086 14.6777 1.63086 14.3945C1.63086 14.1406 1.41602 13.8965 1.12305 13.8965C0.849609 13.8965 0.615234 14.1406 0.615234 14.3945C0.615234 14.6777 0.849609 14.9121 1.12305 14.9121ZM0.654297 13.1836C0.947266 13.1836 1.16211 12.9395 1.16211 12.666C1.16211 12.4023 0.947266 12.168 0.654297 12.168C0.390625 12.168 0.15625 12.4023 0.15625 12.666C0.15625 12.9395 0.390625 13.1836 0.654297 13.1836ZM0.507812 11.3867C0.791016 11.3867 1.00586 11.1523 1.00586 10.8984C1.00586 10.6152 0.791016 10.3809 0.507812 10.3809C0.234375 10.3809 0 10.6152 0 10.8984C0 11.1523 0.234375 11.3867 0.507812 11.3867ZM0.654297 9.59961C0.947266 9.59961 1.16211 9.36523 1.16211 9.0918C1.16211 8.82812 0.947266 8.58398 0.654297 8.58398C0.390625 8.58398 0.15625 8.82812 0.15625 9.0918C0.15625 9.36523 0.390625 9.59961 0.654297 9.59961ZM1.12305 7.86133C1.41602 7.86133 1.63086 7.63672 1.63086 7.36328C1.63086 7.08984 1.41602 6.8457 1.12305 6.8457C0.849609 6.8457 0.615234 7.08984 0.615234 7.36328C0.615234 7.63672 0.849609 7.86133 1.12305 7.86133ZM1.88477 6.2207C2.1582 6.2207 2.39258 5.99609 2.39258 5.72266C2.39258 5.45898 2.1582 5.21484 1.88477 5.21484C1.61133 5.21484 1.37695 5.45898 1.37695 5.72266C1.37695 5.99609 1.61133 6.2207 1.88477 6.2207ZM2.91016 4.73633C3.19336 4.73633 3.41797 4.51172 3.41797 4.24805C3.41797 3.96484 3.19336 3.73047 2.91016 3.73047C2.64648 3.73047 2.41211 3.96484 2.41211 4.24805C2.41211 4.51172 2.64648 4.73633 2.91016 4.73633ZM4.18945 3.4668C4.47266 3.4668 4.69727 3.23242 4.69727 2.97852C4.69727 2.69531 4.47266 2.46094 4.18945 2.46094C3.92578 2.46094 3.68164 2.69531 3.68164 2.97852C3.68164 3.23242 3.92578 3.4668 4.18945 3.4668ZM5.67383 2.43164C5.9668 2.43164 6.18164 2.20703 6.18164 1.93359C6.18164 1.66016 5.9668 1.42578 5.67383 1.42578C5.40039 1.42578 5.16602 1.66016 5.16602 1.93359C5.16602 2.20703 5.40039 2.43164 5.67383 2.43164ZM7.30469 1.66016C7.58789 1.66016 7.80273 1.43555 7.80273 1.17188C7.80273 0.898438 7.58789 0.654297 7.30469 0.654297C7.04102 0.654297 6.80664 0.898438 6.80664 1.17188C6.80664 1.43555 7.04102 1.66016 7.30469 1.66016ZM9.04297 1.20117C9.32617 1.20117 9.54102 0.966797 9.54102 0.703125C9.54102 0.429688 9.32617 0.185547 9.04297 0.185547C8.7793 0.185547 8.53516 0.429688 8.53516 0.703125C8.53516 0.966797 8.7793 1.20117 9.04297 1.20117Z" fill="#000000" fill-opacity="0.85"/>
 </g>
</svg>
