<?xml version="1.0" encoding="UTF-8"?>
<!--Generator: Apple Native CoreSVG 175.5-->
<!DOCTYPE svg
PUBLIC "-//W3C//DTD SVG 1.1//EN"
       "http://www.w3.org/Graphics/SVG/1.1/DTD/svg11.dtd">
<svg version="1.1" xmlns="http://www.w3.org/2000/svg" xmlns:xlink="http://www.w3.org/1999/xlink" width="21.709" height="21.7285">
 <g>
  <rect height="21.7285" opacity="0" width="21.709" x="0" y="0"/>
  <path d="M10.8594 18.7695C12.1973 18.7695 13.4473 18.4277 14.5312 17.8418L13.8184 17.1191C12.9199 17.5684 11.9238 17.8125 10.8594 17.8125C6.99219 17.8125 3.92578 14.7461 3.92578 10.8789C3.92578 9.82422 4.17969 8.81836 4.61914 7.93945L3.89648 7.20703C3.30078 8.30078 2.96875 9.55078 2.96875 10.8789C2.96875 15.2734 6.46484 18.7695 10.8594 18.7695ZM10.8594 14.8926C11.084 14.8926 11.2988 14.8633 11.4941 14.8047L6.93359 10.2441C6.875 10.4492 6.8457 10.6641 6.8457 10.8789C6.8457 13.1152 8.62305 14.8926 10.8594 14.8926ZM10.8594 6.875C10.3223 6.875 9.79492 6.97266 9.33594 7.16797L14.5703 12.4121C14.7656 11.9434 14.873 11.4355 14.873 10.8789C14.873 8.66211 13.0762 6.875 10.8594 6.875ZM10.8594 2.99805C9.22852 2.99805 7.72461 3.48633 6.46484 4.31641L7.16797 5.00977C8.23242 4.3457 9.49219 3.95508 10.8594 3.95508C14.6875 3.95508 17.7832 7.06055 17.7832 10.8789C17.7832 12.2461 17.4023 13.5059 16.7285 14.5703L17.4121 15.2637C18.252 14.0137 18.7402 12.5098 18.7402 10.8789C18.7402 6.54297 15.1953 2.99805 10.8594 2.99805ZM5.68359 2.43164C5.97656 2.43164 6.19141 2.20703 6.19141 1.93359C6.19141 1.66016 5.97656 1.42578 5.68359 1.42578C5.41016 1.42578 5.17578 1.66016 5.17578 1.93359C5.17578 2.20703 5.41016 2.43164 5.68359 2.43164ZM7.32422 1.66016C7.59766 1.66016 7.8125 1.43555 7.8125 1.17188C7.8125 0.898438 7.59766 0.654297 7.32422 0.654297C7.05078 0.654297 6.81641 0.898438 6.81641 1.17188C6.81641 1.43555 7.05078 1.66016 7.32422 1.66016ZM9.05273 1.20117C9.33594 1.20117 9.55078 0.966797 9.55078 0.703125C9.55078 0.429688 9.33594 0.185547 9.05273 0.185547C8.78906 0.185547 8.55469 0.429688 8.55469 0.703125C8.55469 0.966797 8.78906 1.20117 9.05273 1.20117ZM10.8594 1.04492C11.1426 1.04492 11.3672 0.820312 11.3672 0.546875C11.3672 0.273438 11.1426 0.0292969 10.8594 0.0292969C10.5957 0.0292969 10.3516 0.273438 10.3516 0.546875C10.3516 0.820312 10.5957 1.04492 10.8594 1.04492ZM12.666 1.20117C12.9297 1.20117 13.1738 0.966797 13.1738 0.703125C13.1738 0.429688 12.9297 0.185547 12.666 0.185547C12.373 0.185547 12.1582 0.429688 12.1582 0.703125C12.1582 0.966797 12.373 1.20117 12.666 1.20117ZM14.4043 1.66016C14.668 1.66016 14.9121 1.43555 14.9121 1.17188C14.9121 0.898438 14.668 0.654297 14.4043 0.654297C14.1113 0.654297 13.8965 0.898438 13.8965 1.17188C13.8965 1.43555 14.1113 1.66016 14.4043 1.66016ZM16.0449 2.43164C16.2988 2.43164 16.5332 2.20703 16.5332 1.93359C16.5332 1.66016 16.2988 1.42578 16.0449 1.42578C15.752 1.42578 15.5371 1.66016 15.5371 1.93359C15.5371 2.20703 15.752 2.43164 16.0449 2.43164ZM17.5195 3.4668C17.793 3.4668 18.0273 3.23242 18.0273 2.97852C18.0273 2.69531 17.793 2.46094 17.5195 2.46094C17.2363 2.46094 17.0215 2.69531 17.0215 2.97852C17.0215 3.23242 17.2363 3.4668 17.5195 3.4668ZM18.7891 4.73633C19.0625 4.73633 19.2969 4.51172 19.2969 4.24805C19.2969 3.96484 19.0625 3.73047 18.7891 3.73047C18.5059 3.73047 18.291 3.96484 18.291 4.24805C18.291 4.51172 18.5059 4.73633 18.7891 4.73633ZM19.834 6.2207C20.0879 6.2207 20.3223 5.99609 20.3223 5.72266C20.3223 5.45898 20.0879 5.21484 19.834 5.21484C19.541 5.21484 19.3262 5.45898 19.3262 5.72266C19.3262 5.99609 19.541 6.2207 19.834 6.2207ZM20.5859 7.86133C20.8496 7.86133 21.084 7.63672 21.084 7.36328C21.084 7.08984 20.8496 6.8457 20.5859 6.8457C20.293 6.8457 20.0781 7.08984 20.0781 7.36328C20.0781 7.63672 20.293 7.86133 20.5859 7.86133ZM21.0449 9.59961C21.3086 9.59961 21.5527 9.36523 21.5527 9.0918C21.5527 8.82812 21.3086 8.58398 21.0449 8.58398C20.752 8.58398 20.5371 8.82812 20.5371 9.0918C20.5371 9.36523 20.752 9.59961 21.0449 9.59961ZM21.2012 11.3867C21.4648 11.3867 21.709 11.1523 21.709 10.8984C21.709 10.6152 21.4648 10.3809 21.2012 10.3809C20.918 10.3809 20.7031 10.6152 20.7031 10.8984C20.7031 11.1523 20.918 11.3867 21.2012 11.3867ZM21.0449 13.1836C21.3086 13.1836 21.5527 12.9395 21.5527 12.666C21.5527 12.4023 21.3086 12.168 21.0449 12.168C20.752 12.168 20.5371 12.4023 20.5371 12.666C20.5371 12.9395 20.752 13.1836 21.0449 13.1836ZM20.5859 14.9121C20.8496 14.9121 21.084 14.6777 21.084 14.3945C21.084 14.1406 20.8496 13.8965 20.5859 13.8965C20.293 13.8965 20.0781 14.1406 20.0781 14.3945C20.0781 14.6777 20.293 14.9121 20.5859 14.9121ZM19.834 16.5527C20.0879 16.5527 20.3223 16.3086 20.3223 16.0352C20.3223 15.7617 20.0879 15.5371 19.834 15.5371C19.541 15.5371 19.3262 15.7617 19.3262 16.0352C19.3262 16.3086 19.541 16.5527 19.834 16.5527ZM16.0254 20.3418C16.2891 20.3418 16.5332 20.0977 16.5332 19.8242C16.5332 19.5605 16.2891 19.3262 16.0254 19.3262C15.7422 19.3262 15.5176 19.5605 15.5176 19.8242C15.5176 20.0977 15.7422 20.3418 16.0254 20.3418ZM14.3945 21.1035C14.6582 21.1035 14.8926 20.8691 14.8926 20.5957C14.8926 20.332 14.6582 20.0977 14.3945 20.0977C14.1016 20.0977 13.8867 20.332 13.8867 20.5957C13.8867 20.8691 14.1016 21.1035 14.3945 21.1035ZM12.6562 21.5723C12.9199 21.5723 13.1641 21.3281 13.1641 21.0547C13.1641 20.791 12.9199 20.5664 12.6562 20.5664C12.3633 20.5664 12.1484 20.791 12.1484 21.0547C12.1484 21.3281 12.3633 21.5723 12.6562 21.5723ZM10.8496 21.7285C11.1328 21.7285 11.3574 21.4941 11.3574 21.2207C11.3574 20.9473 11.1328 20.7227 10.8496 20.7227C10.5859 20.7227 10.3418 20.9473 10.3418 21.2207C10.3418 21.4941 10.5859 21.7285 10.8496 21.7285ZM9.04297 21.5723C9.32617 21.5723 9.55078 21.3281 9.55078 21.0547C9.55078 20.791 9.32617 20.5664 9.04297 20.5664C8.7793 20.5664 8.54492 20.791 8.54492 21.0547C8.54492 21.3281 8.7793 21.5723 9.04297 21.5723ZM7.30469 21.1035C7.58789 21.1035 7.8125 20.8691 7.8125 20.5957C7.8125 20.332 7.58789 20.0977 7.30469 20.0977C7.04102 20.0977 6.79688 20.332 6.79688 20.5957C6.79688 20.8691 7.04102 21.1035 7.30469 21.1035ZM5.67383 20.3418C5.95703 20.3418 6.18164 20.0977 6.18164 19.8242C6.18164 19.5605 5.95703 19.3262 5.67383 19.3262C5.41016 19.3262 5.16602 19.5605 5.16602 19.8242C5.16602 20.0977 5.41016 20.3418 5.67383 20.3418ZM4.18945 19.3066C4.47266 19.3066 4.69727 19.0625 4.69727 18.7891C4.69727 18.5254 4.47266 18.291 4.18945 18.291C3.92578 18.291 3.68164 18.5254 3.68164 18.7891C3.68164 19.0625 3.92578 19.3066 4.18945 19.3066ZM2.91016 18.0273C3.20312 18.0273 3.41797 17.793 3.41797 17.5195C3.41797 17.2461 3.20312 17.0215 2.91016 17.0215C2.64648 17.0215 2.41211 17.2461 2.41211 17.5195C2.41211 17.793 2.64648 18.0273 2.91016 18.0273ZM1.88477 16.543C2.16797 16.543 2.38281 16.3086 2.38281 16.0352C2.38281 15.7617 2.16797 15.5371 1.88477 15.5371C1.62109 15.5371 1.37695 15.7617 1.37695 16.0352C1.37695 16.3086 1.62109 16.543 1.88477 16.543ZM1.12305 14.9121C1.40625 14.9121 1.63086 14.6777 1.63086 14.3945C1.63086 14.1309 1.40625 13.9062 1.12305 13.9062C0.859375 13.9062 0.625 14.1309 0.625 14.3945C0.625 14.6777 0.859375 14.9121 1.12305 14.9121ZM0.664062 13.1738C0.947266 13.1738 1.16211 12.9395 1.16211 12.666C1.16211 12.3926 0.947266 12.168 0.664062 12.168C0.400391 12.168 0.15625 12.3926 0.15625 12.666C0.15625 12.9395 0.400391 13.1738 0.664062 13.1738ZM0.507812 11.3867C0.791016 11.3867 1.00586 11.1621 1.00586 10.8887C1.00586 10.6152 0.791016 10.3809 0.507812 10.3809C0.234375 10.3809 0 10.6152 0 10.8887C0 11.1621 0.234375 11.3867 0.507812 11.3867ZM0.664062 9.59961C0.947266 9.59961 1.16211 9.36523 1.16211 9.10156C1.16211 8.81836 0.947266 8.58398 0.664062 8.58398C0.400391 8.58398 0.15625 8.81836 0.15625 9.10156C0.15625 9.36523 0.400391 9.59961 0.664062 9.59961ZM1.12305 7.86133C1.40625 7.86133 1.63086 7.62695 1.63086 7.36328C1.63086 7.08984 1.40625 6.8457 1.12305 6.8457C0.859375 6.8457 0.625 7.08984 0.625 7.36328C0.625 7.62695 0.859375 7.86133 1.12305 7.86133ZM1.88477 6.2207C2.16797 6.2207 2.38281 5.99609 2.38281 5.73242C2.38281 5.44922 2.16797 5.21484 1.88477 5.21484C1.62109 5.21484 1.37695 5.44922 1.37695 5.73242C1.37695 5.99609 1.62109 6.2207 1.88477 6.2207Z" fill="#000000" fill-opacity="0.85"/>
  <path d="M18.7793 20.4395C19.0723 20.7227 19.5605 20.7324 19.8438 20.4395C20.1367 20.1367 20.1465 19.668 19.8438 19.375L1.81641 1.34766C1.52344 1.05469 1.03516 1.05469 0.742188 1.34766C0.458984 1.63086 0.458984 2.12891 0.742188 2.41211Z" fill="#000000" fill-opacity="0.85"/>
 </g>
</svg>
