<?xml version="1.0" encoding="UTF-8"?>
<!--Generator: Apple Native CoreSVG 175.5-->
<!DOCTYPE svg
PUBLIC "-//W3C//DTD SVG 1.1//EN"
       "http://www.w3.org/Graphics/SVG/1.1/DTD/svg11.dtd">
<svg version="1.1" xmlns="http://www.w3.org/2000/svg" xmlns:xlink="http://www.w3.org/1999/xlink" width="24.4379" height="27.1973">
 <g>
  <rect height="27.1973" opacity="0" width="24.4379" x="0" y="0"/>
  <path d="M11.1719 0.0585938C8.39844 0.0585938 7.13867 4.27734 7.13867 6.02539C7.13867 8.41797 8.67188 8.61328 8.67188 8.95508C8.67188 9.07227 8.56445 9.15039 8.4082 9.25781L5.35156 11.2793L4.58008 10.3027C4.30664 9.94141 4.42383 9.32617 5.07812 9.32617C5.69336 9.32617 6.09375 8.91602 6.09375 8.36914C6.09375 7.82227 5.6543 7.39258 5.11719 7.39258C4.57031 7.39258 4.13086 7.82227 4.13086 8.36914C4.13086 8.44727 4.14062 8.50586 4.15039 8.56445C4.24805 9.29688 3.125 9.0332 3.54492 8.4668C3.67188 8.30078 3.74023 8.0957 3.74023 7.88086C3.74023 7.33398 3.30078 6.9043 2.75391 6.9043C2.2168 6.9043 1.77734 7.33398 1.77734 7.88086C1.77734 8.31055 2.04102 8.63281 2.41211 8.80859C3.00781 9.08203 2.32422 9.79492 2.00195 9.32617C1.81641 9.0625 1.51367 8.88672 1.17188 8.88672C0.634766 8.88672 0.195312 9.31641 0.195312 9.86328C0.195312 10.4102 0.634766 10.8496 1.17188 10.8496C1.36719 10.8496 1.54297 10.791 1.69922 10.6934C2.13867 10.4199 2.5 10.4395 2.86133 10.8984L4.36523 12.8223C4.73633 13.3105 5.36133 13.5254 5.9082 13.2227L7.11914 12.5586L6.72852 12.4902C6.46484 13.3789 6.28906 14.4629 6.34766 15.791L6.85547 15.5371L5.71289 14.9121C5.16602 14.6094 4.55078 14.8242 4.16992 15.3125L2.67578 17.2363C2.30469 17.6855 1.95312 17.7148 1.50391 17.4414C1.34766 17.3438 1.17188 17.2852 0.986328 17.2852C0.439453 17.2852 0 17.7246 0 18.2715C0 18.8086 0.439453 19.248 0.986328 19.248C1.31836 19.248 1.63086 19.0723 1.80664 18.7988C2.12891 18.3398 2.82227 19.043 2.2168 19.3262C1.8457 19.4922 1.58203 19.8242 1.58203 20.2441C1.58203 20.791 2.02148 21.2305 2.56836 21.2305C3.10547 21.2305 3.54492 20.791 3.54492 20.2441C3.54492 20.0293 3.47656 19.834 3.35938 19.6582C2.92969 19.1016 4.05273 18.8379 3.95508 19.5703C3.94531 19.6289 3.93555 19.6973 3.93555 19.7656C3.93555 20.3027 4.375 20.7422 4.92188 20.7422C5.46875 20.7422 5.89844 20.3027 5.89844 19.7656C5.89844 19.2188 5.49805 18.8086 4.88281 18.8086C4.23828 18.8086 4.11133 18.1934 4.38477 17.832L5.16602 16.8555L8.55469 19.5703C8.33984 23.6914 12.1191 27.1973 17.041 27.1973C21.5234 27.1973 23.7207 24.3262 24.248 23.2129C25.0195 21.5723 23.2715 20.459 22.0215 21.5332C20.7812 22.5977 19.2773 22.8125 18.0762 22.8125C16.3477 22.8125 14.1016 21.4941 13.9844 19.3945L17.1582 16.8555L17.9297 17.832C18.2129 18.1934 18.0859 18.8086 17.4414 18.8086C16.8164 18.8086 16.4258 19.2188 16.4258 19.7656C16.4258 20.3027 16.8555 20.7422 17.4023 20.7422C17.9492 20.7422 18.3887 20.3027 18.3887 19.7656C18.3887 19.6875 18.3789 19.6191 18.3691 19.5605C18.2812 18.8379 19.3945 19.1016 18.9648 19.6582C18.8477 19.834 18.7793 20.0293 18.7793 20.2441C18.7793 20.791 19.2188 21.2305 19.7559 21.2305C20.3027 21.2305 20.7422 20.791 20.7422 20.2441C20.7422 19.8242 20.4785 19.4922 20.1074 19.3262C19.502 19.043 20.1855 18.3398 20.5176 18.7988C20.6934 19.0723 21.0059 19.248 21.3379 19.248C21.8848 19.248 22.3242 18.8086 22.3242 18.2715C22.3242 17.7246 21.8848 17.2852 21.3379 17.2852C21.1523 17.2852 20.9766 17.3438 20.8105 17.4414C20.3711 17.7148 20.0098 17.6855 19.6484 17.2363L18.1543 15.3125C17.7734 14.8242 17.1582 14.6094 16.6113 14.9121L15.4785 15.5273L15.9863 15.7812C16.0449 14.4629 15.8789 13.3789 15.6055 12.4902L15.2148 12.5586L16.4258 13.2227C16.9727 13.5254 17.5977 13.3105 17.9688 12.8223L19.4727 10.8984C19.834 10.4395 20.1953 10.4199 20.6348 10.6934C20.791 10.791 20.9668 10.8496 21.1621 10.8496C21.6992 10.8496 22.1387 10.4102 22.1387 9.86328C22.1387 9.31641 21.6992 8.88672 21.1621 8.88672C20.8203 8.88672 20.5176 9.0625 20.332 9.32617C20.0098 9.79492 19.3262 9.08203 19.9219 8.80859C20.293 8.63281 20.5566 8.31055 20.5566 7.88086C20.5566 7.33398 20.1172 6.9043 19.5801 6.9043C19.0332 6.9043 18.5938 7.33398 18.5938 7.88086C18.5938 8.0957 18.6621 8.30078 18.7891 8.4668C19.209 9.0332 18.0957 9.29688 18.1836 8.57422C18.1934 8.51562 18.2031 8.44727 18.2031 8.36914C18.2031 7.82227 17.7637 7.39258 17.2168 7.39258C16.6797 7.39258 16.2402 7.82227 16.2402 8.36914C16.2402 8.91602 16.6406 9.32617 17.2559 9.32617C17.9102 9.32617 18.0273 9.94141 17.7539 10.3027L16.9824 11.2793L13.9062 9.25781C13.7402 9.14062 13.6328 9.07227 13.6328 8.95508C13.6328 8.61328 15.1953 8.39844 15.1953 6.02539C15.1953 4.27734 13.9355 0.0585938 11.1719 0.0585938ZM11.1719 1.55273C12.7539 1.55273 13.6914 4.58008 13.6914 6.02539C13.6914 7.7832 12.168 7.67578 12.168 8.94531C12.168 10.0098 14.6875 11.4941 14.6875 15.2832C14.6875 16.9238 14.209 17.5781 12.2949 18.8281C12.1875 22.2949 15.4492 24.2676 18.3691 24.2676C19.3652 24.2676 21.1719 24.0723 22.5879 22.8809C22.7148 22.7637 22.8711 22.8809 22.7637 23.0664C22.1094 24.0527 20.3418 25.752 17.041 25.752C12.5586 25.752 9.43359 22.6074 10.127 18.8965C8.125 17.627 7.64648 16.9434 7.64648 15.2832C7.64648 11.4941 10.166 10.0098 10.166 8.94531C10.166 7.66602 8.64258 7.7832 8.64258 6.02539C8.64258 4.58008 9.58008 1.55273 11.1719 1.55273Z" fill="#000000" fill-opacity="0.85"/>
 </g>
</svg>
