<?xml version="1.0" encoding="UTF-8"?>
<!--Generator: Apple Native CoreSVG 175.5-->
<!DOCTYPE svg
PUBLIC "-//W3C//DTD SVG 1.1//EN"
       "http://www.w3.org/Graphics/SVG/1.1/DTD/svg11.dtd">
<svg version="1.1" xmlns="http://www.w3.org/2000/svg" xmlns:xlink="http://www.w3.org/1999/xlink" width="19.9219" height="19.9316">
 <g>
  <rect height="19.9316" opacity="0" width="19.9219" x="0" y="0"/>
  <path d="M9.96094 19.9219C15.4102 19.9219 19.9219 15.4004 19.9219 9.96094C19.9219 4.51172 15.4004 0 9.95117 0C4.51172 0 0 4.51172 0 9.96094C0 15.4004 4.52148 19.9219 9.96094 19.9219Z" fill="#000000" fill-opacity="0.85"/>
  <path d="M12.6367 10.7422L8.99414 7.10938L13.75 4.85352C14.5703 4.46289 15.2539 5.16602 14.8828 5.9668ZM4.30664 10.8105C3.37891 10.8105 3.27148 9.83398 3.94531 9.50195L6.45508 8.31055L8.95508 10.8105ZM10.2734 15.791C9.96094 16.4648 8.97461 16.3672 8.97461 15.4395L8.97461 10.8301L11.4355 13.3008ZM14.3066 14.9023L5.01953 5.61523C4.82422 5.41992 4.82422 5.12695 5.01953 4.95117C5.20508 4.74609 5.48828 4.75586 5.69336 4.95117L14.9805 14.2285C15.1758 14.4141 15.166 14.707 14.9805 14.9023C14.8047 15.0781 14.4922 15.0879 14.3066 14.9023Z" fill="#ffffff"/>
 </g>
</svg>
