<?xml version="1.0" encoding="UTF-8"?>
<!--Generator: Apple Native CoreSVG 175.5-->
<!DOCTYPE svg
PUBLIC "-//W3C//DTD SVG 1.1//EN"
       "http://www.w3.org/Graphics/SVG/1.1/DTD/svg11.dtd">
<svg version="1.1" xmlns="http://www.w3.org/2000/svg" xmlns:xlink="http://www.w3.org/1999/xlink" width="20.459" height="21.6504">
 <g>
  <rect height="21.6504" opacity="0" width="20.459" x="0" y="0"/>
  <path d="M3.06641 21.6211L17.3926 21.6211C19.4238 21.6211 20.459 20.6055 20.459 18.5938L20.459 8.56445C20.459 6.55273 19.4238 5.53711 17.3926 5.53711L3.06641 5.53711C1.01562 5.53711 0 6.55273 0 8.56445L0 18.5938C0 20.6055 1.01562 21.6211 3.06641 21.6211ZM3.08594 20.0488C2.10938 20.0488 1.57227 19.5215 1.57227 18.5059L1.57227 8.65234C1.57227 7.63672 2.10938 7.10938 3.08594 7.10938L17.3633 7.10938C18.3301 7.10938 18.8867 7.63672 18.8867 8.65234L18.8867 18.5059C18.8867 19.5215 18.3301 20.0488 17.3633 20.0488ZM2.06055 3.96484L18.4082 3.96484C18.2617 3.07617 17.8418 2.58789 16.8652 2.58789L3.60352 2.58789C2.62695 2.58789 2.20703 3.07617 2.06055 3.96484ZM4.07227 1.25977L16.3965 1.25977C16.3379 0.429688 15.8691 0 14.9609 0L5.49805 0C4.59961 0 4.13086 0.429688 4.07227 1.25977Z" fill="#000000" fill-opacity="0.85"/>
  <path d="M6.70898 17.4316C6.70898 18.1641 7.03125 18.5059 7.70508 18.5059L12.7637 18.5059C13.4375 18.5059 13.7598 18.1641 13.7598 17.4316L13.7598 13.5449C13.7598 12.8613 13.4766 12.5195 12.9004 12.4805L12.9004 11.3281C12.9004 9.53125 11.8262 8.33008 10.2344 8.33008C8.64258 8.33008 7.56836 9.53125 7.56836 11.3281L7.56836 12.4805C6.99219 12.5195 6.70898 12.8613 6.70898 13.5449ZM8.58398 12.4707L8.58398 11.2207C8.58398 10.0684 9.24805 9.31641 10.2344 9.31641C11.2207 9.31641 11.8848 10.0684 11.8848 11.2207L11.8848 12.4707Z" fill="#000000" fill-opacity="0.85"/>
 </g>
</svg>
