<?xml version="1.0" encoding="UTF-8"?>
<!--Generator: Apple Native CoreSVG 175.5-->
<!DOCTYPE svg
PUBLIC "-//W3C//DTD SVG 1.1//EN"
       "http://www.w3.org/Graphics/SVG/1.1/DTD/svg11.dtd">
<svg version="1.1" xmlns="http://www.w3.org/2000/svg" xmlns:xlink="http://www.w3.org/1999/xlink" width="18.2556" height="20.1172">
 <g>
  <rect height="20.1172" opacity="0" width="18.2556" x="0" y="0"/>
  <path d="M8.93066 1.7041C10.7568 1.7041 12.3486 3.00293 12.3486 5.47363L12.3486 8.0127L8.80371 8.0127L15.6006 14.79L15.6006 10.3271C15.6006 8.97949 15.0049 8.20801 13.8916 8.05176L13.8916 5.67871C13.8916 2.00684 11.4893 0.229492 8.93066 0.229492C6.91895 0.229492 5.04395 1.34277 4.33105 3.53027L5.58105 4.79004C5.83496 2.77832 7.27051 1.7041 8.93066 1.7041ZM4.46777 19.3799L13.4033 19.3799C13.8623 19.3799 14.2529 19.2725 14.5361 19.0869L3.61816 8.17871L3.53027 8.17871C2.72949 8.44238 2.27051 9.18457 2.27051 10.3271L2.27051 17.0557C2.27051 18.5986 3.03223 19.3799 4.46777 19.3799Z" fill="#000000" fill-opacity="0.85"/>
  <path d="M16.9678 19.8975C17.2705 20.1904 17.749 20.1904 18.0322 19.8975C18.3252 19.6045 18.335 19.126 18.0322 18.833L1.29395 2.09473C1.00098 1.80176 0.512695 1.80176 0.219727 2.09473C-0.0732422 2.3877-0.0732422 2.87598 0.219727 3.15918Z" fill="#000000" fill-opacity="0.85"/>
 </g>
</svg>
