<?xml version="1.0" encoding="UTF-8"?>
<!--Generator: Apple Native CoreSVG 175.5-->
<!DOCTYPE svg
PUBLIC "-//W3C//DTD SVG 1.1//EN"
       "http://www.w3.org/Graphics/SVG/1.1/DTD/svg11.dtd">
<svg version="1.1" xmlns="http://www.w3.org/2000/svg" xmlns:xlink="http://www.w3.org/1999/xlink" width="24.2969" height="19.7949">
 <g>
  <rect height="19.7949" opacity="0" width="24.2969" x="0" y="0"/>
  <path d="M7.89062 19.7852L21.2305 19.7852C23.2617 19.7852 24.2969 18.7695 24.2969 16.7578L24.2969 7.54883C24.2969 5.53711 23.2617 4.52148 21.2305 4.52148L7.89062 4.52148C5.83984 4.52148 4.82422 5.53711 4.82422 7.54883L4.82422 16.7578C4.82422 18.7793 5.83984 19.7852 7.89062 19.7852ZM7.89062 3.19336L19.3652 3.19336L19.3652 3.02734C19.3652 1.01562 18.3301 0 16.2988 0L3.06641 0C1.01562 0 0 1.01562 0 3.02734L0 12.2363C0 14.2578 1.01562 15.2637 3.06641 15.2637L3.48633 15.2637L3.48633 7.54883C3.48633 4.79492 5.10742 3.19336 7.89062 3.19336Z" fill="#000000" fill-opacity="0.85"/>
  <path d="M10.9277 16.1426L10.9277 12.1387C10.9277 11.4258 11.2207 11.0742 11.8066 11.0352L11.8066 9.85352C11.8066 7.99805 12.9297 6.74805 14.5605 6.74805C16.2012 6.74805 17.3145 7.99805 17.3145 9.85352L17.3145 11.0352C17.9102 11.0742 18.2031 11.4258 18.2031 12.1387L18.2031 16.1426C18.2031 16.8945 17.8711 17.2461 17.168 17.2461L11.9531 17.2461C11.2598 17.2461 10.9277 16.8945 10.9277 16.1426ZM12.8613 11.0254L16.2598 11.0254L16.2598 9.73633C16.2598 8.55469 15.5859 7.76367 14.5605 7.76367C13.5449 7.76367 12.8613 8.55469 12.8613 9.73633Z" fill="#ffffff"/>
 </g>
</svg>
