<?xml version="1.0" encoding="UTF-8"?>
<!--Generator: Apple Native CoreSVG 175.5-->
<!DOCTYPE svg
PUBLIC "-//W3C//DTD SVG 1.1//EN"
       "http://www.w3.org/Graphics/SVG/1.1/DTD/svg11.dtd">
<svg version="1.1" xmlns="http://www.w3.org/2000/svg" xmlns:xlink="http://www.w3.org/1999/xlink" width="28.1117" height="20.5566">
 <g>
  <rect height="20.5566" opacity="0" width="28.1117" x="0" y="0"/>
  <path d="M3.83123 20.2441L8.10857 19.4141C10.3547 18.9746 11.341 17.7637 11.341 15.3711L11.341 3.55469C11.341 1.41602 9.85662 0 7.63006 0C5.74529 0 4.13396 1.33789 3.59685 3.33984L0.169118 16.3379C-0.543772 19.043 1.05779 20.7715 3.83123 20.2441ZM9.76873 3.55469L9.76873 15.3711C9.76873 17.0117 9.30974 17.5684 7.80584 17.8613L3.50896 18.6914C2.23943 18.9453 1.34099 18.1348 1.72185 16.6797L5.13006 3.74023C5.47185 2.44141 6.47771 1.57227 7.63006 1.57227C8.89959 1.57227 9.76873 2.37305 9.76873 3.55469ZM24.2804 20.2441C27.0539 20.7715 28.6554 19.043 27.9426 16.3379L24.5148 3.33984C23.9875 1.33789 22.3664 0 20.4816 0C18.2551 0 16.7804 1.41602 16.7804 3.55469L16.7804 15.3711C16.7804 17.7637 17.757 18.9746 20.0129 19.4141ZM18.3527 3.55469C18.3527 2.37305 19.2121 1.57227 20.4816 1.57227C21.634 1.57227 22.6398 2.44141 22.9816 3.74023L26.3996 16.6797C26.7707 18.1348 25.8722 18.9453 24.6027 18.6914L20.3058 17.8613C18.8117 17.5684 18.3527 17.0117 18.3527 15.3711Z" fill="#000000" fill-opacity="0.85"/>
  <path d="M11.341 14.1309L11.341 12.5293L9.96404 12.8223L6.60467 9.79492C6.30193 9.52148 5.77459 9.53125 5.50115 9.84375C5.20818 10.166 5.24724 10.6836 5.55974 10.957L8.07927 13.2129L5.0031 13.877C4.60271 13.9551 4.31951 14.375 4.39763 14.7949C4.48552 15.2051 4.92498 15.4883 5.33513 15.4004ZM16.7804 12.5293L16.7804 14.1309L22.7863 15.4004C23.1965 15.4883 23.6359 15.2051 23.714 14.7949C23.8019 14.375 23.5187 13.9551 23.1086 13.877L20.0324 13.2129L22.5617 10.957C22.8742 10.6836 22.9133 10.166 22.6203 9.84375C22.3371 9.53125 21.8097 9.52148 21.507 9.79492L18.1574 12.8223Z" fill="#000000" fill-opacity="0.85"/>
  <path d="M16.7804 14.1309L16.7804 12.5293L14.8469 12.1094L14.8469 1.28906C14.8469 0.859375 14.4953 0.498047 14.0656 0.498047C13.6359 0.498047 13.2746 0.859375 13.2746 1.28906L13.2746 12.1094L11.341 12.5293L11.341 14.1309L14.0656 13.5449Z" fill="#000000" fill-opacity="0.85"/>
 </g>
</svg>
