<?xml version="1.0" encoding="UTF-8"?>
<!--Generator: Apple Native CoreSVG 175.5-->
<!DOCTYPE svg
PUBLIC "-//W3C//DTD SVG 1.1//EN"
       "http://www.w3.org/Graphics/SVG/1.1/DTD/svg11.dtd">
<svg version="1.1" xmlns="http://www.w3.org/2000/svg" xmlns:xlink="http://www.w3.org/1999/xlink" width="24.2969" height="19.7949">
 <g>
  <rect height="19.7949" opacity="0" width="24.2969" x="0" y="0"/>
  <path d="M3.06641 15.2637L5.10742 15.2637L5.10742 13.6914L3.08594 13.6914C2.10938 13.6914 1.57227 13.1738 1.57227 12.1582L1.57227 3.11523C1.57227 2.09961 2.10938 1.57227 3.08594 1.57227L16.2695 1.57227C17.2363 1.57227 17.793 2.09961 17.793 3.11523L17.793 5.23438L19.3652 5.23438L19.3652 3.02734C19.3652 1.01562 18.3301 0 16.2988 0L3.06641 0C1.01562 0 0 1.01562 0 3.02734L0 12.2363C0 14.2578 1.01562 15.2637 3.06641 15.2637Z" fill="#000000" fill-opacity="0.85"/>
  <path d="M7.89062 19.7852L21.2305 19.7852C23.2617 19.7852 24.2969 18.7695 24.2969 16.7578L24.2969 7.54883C24.2969 5.53711 23.2617 4.52148 21.2305 4.52148L7.89062 4.52148C5.83984 4.52148 4.82422 5.53711 4.82422 7.54883L4.82422 16.7578C4.82422 18.7793 5.83984 19.7852 7.89062 19.7852ZM6.39648 9.45312L22.7246 9.45312L22.7246 16.6797C22.7246 17.6953 22.168 18.2129 21.2012 18.2129L7.91016 18.2129C6.93359 18.2129 6.39648 17.6953 6.39648 16.6797ZM7.91992 7.86133C7.44141 7.86133 7.05078 7.44141 7.05078 6.99219C7.05078 6.52344 7.44141 6.11328 7.91992 6.11328C8.39844 6.11328 8.78906 6.52344 8.78906 6.99219C8.78906 7.44141 8.39844 7.86133 7.91992 7.86133ZM10.7227 7.86133C10.2441 7.86133 9.85352 7.45117 9.85352 6.99219C9.85352 6.52344 10.2441 6.11328 10.7227 6.11328C11.2012 6.11328 11.5918 6.52344 11.5918 6.99219C11.5918 7.45117 11.2012 7.86133 10.7227 7.86133ZM13.5254 7.86133C13.0469 7.86133 12.6562 7.45117 12.6562 6.99219C12.6562 6.52344 13.0469 6.11328 13.5254 6.11328C14.0039 6.11328 14.3945 6.52344 14.3945 6.99219C14.3945 7.45117 14.0039 7.86133 13.5254 7.86133Z" fill="#000000" fill-opacity="0.85"/>
 </g>
</svg>
