<?xml version="1.0" encoding="UTF-8"?>
<!--Generator: Apple Native CoreSVG 175.5-->
<!DOCTYPE svg
PUBLIC "-//W3C//DTD SVG 1.1//EN"
       "http://www.w3.org/Graphics/SVG/1.1/DTD/svg11.dtd">
<svg version="1.1" xmlns="http://www.w3.org/2000/svg" xmlns:xlink="http://www.w3.org/1999/xlink" width="25.332" height="20.2832">
 <g>
  <rect height="20.2832" opacity="0" width="25.332" x="0" y="0"/>
  <path d="M19.082 10.4102C20.3613 10.4102 21.4062 9.36523 21.4062 8.06641C21.4062 6.76758 20.3613 5.72266 19.082 5.72266C17.7832 5.72266 16.7383 6.76758 16.7383 8.06641C16.7383 9.36523 17.7832 10.4102 19.082 10.4102ZM22.2656 1.16211L10.8496 1.16211L10.8496 2.73438L22.2363 2.73438C23.2031 2.73438 23.7598 3.25195 23.7598 4.26758L23.7598 16.0352C23.7598 17.0508 23.2031 17.5684 22.2363 17.5684L20.0977 17.5684C20.5078 17.9883 20.7324 18.5352 20.7324 19.1406L22.2656 19.1406C24.3066 19.1406 25.332 18.125 25.332 16.1133L25.332 4.18945C25.332 2.17773 24.3066 1.16211 22.2656 1.16211ZM5.39062 17.5684C4.41406 17.5684 3.86719 17.0508 3.86719 16.0352L3.86719 13.1738L2.29492 13.1738L2.29492 16.1133C2.29492 18.1348 3.33008 19.1406 5.36133 19.1406L15.459 19.1406L13.8867 17.5684Z" fill="#000000" fill-opacity="0.85"/>
  <path d="M0 8.22266C0 12.5195 3.49609 16.0156 7.79297 16.0156C9.49219 16.0156 11.0449 15.4688 12.3242 14.5508L17.7246 19.9512C17.959 20.1855 18.2422 20.2832 18.5449 20.2832C19.209 20.2832 19.668 19.7852 19.668 19.1309C19.668 18.8184 19.5508 18.5254 19.3555 18.3301L13.9844 12.9395C14.9902 11.6309 15.5859 10 15.5859 8.22266C15.5859 3.92578 12.0996 0.429688 7.79297 0.429688C3.49609 0.429688 0 3.92578 0 8.22266ZM1.66992 8.22266C1.66992 4.84375 4.41406 2.09961 7.79297 2.09961C11.1816 2.09961 13.916 4.84375 13.916 8.22266C13.916 11.6016 11.1816 14.3457 7.79297 14.3457C4.41406 14.3457 1.66992 11.6016 1.66992 8.22266ZM4.69727 7.60742L10.8887 7.60742C11.2695 7.60742 11.5723 7.29492 11.5723 6.91406C11.5723 6.5332 11.2695 6.24023 10.8887 6.24023L4.69727 6.24023C4.30664 6.24023 4.02344 6.5332 4.02344 6.91406C4.02344 7.29492 4.30664 7.60742 4.69727 7.60742ZM4.69727 10.2051L9.19922 10.2051C9.58008 10.2051 9.88281 9.91211 9.88281 9.53125C9.88281 9.15039 9.58008 8.83789 9.19922 8.83789L4.69727 8.83789C4.30664 8.83789 4.02344 9.15039 4.02344 9.53125C4.02344 9.91211 4.30664 10.2051 4.69727 10.2051Z" fill="#000000" fill-opacity="0.85"/>
 </g>
</svg>
