<?xml version="1.0" encoding="UTF-8"?>
<!--Generator: Apple Native CoreSVG 175.5-->
<!DOCTYPE svg
PUBLIC "-//W3C//DTD SVG 1.1//EN"
       "http://www.w3.org/Graphics/SVG/1.1/DTD/svg11.dtd">
<svg version="1.1" xmlns="http://www.w3.org/2000/svg" xmlns:xlink="http://www.w3.org/1999/xlink" width="15.1257" height="21.4551">
 <g>
  <rect height="21.4551" opacity="0" width="15.1257" x="0" y="0"/>
  <path d="M4.25537 3.68164C4.25537 5.40039 5.41748 6.83594 7.00928 7.23633L7.00928 8.42773L8.82568 10.2441L8.82568 7.23633C10.4175 6.8457 11.5894 5.40039 11.5894 3.68164C11.5894 1.66016 9.9585 0 7.91748 0C5.88623 0 4.25537 1.66016 4.25537 3.68164ZM7.00928 16.2988C7.00928 19.1797 7.52686 20.752 7.91748 20.752C8.28857 20.752 8.81592 19.3555 8.81592 16.9336L8.81592 15.5762L7.00928 13.7695ZM6.87256 3.88672C6.19873 3.88672 5.61279 3.30078 5.61279 2.61719C5.61279 1.94336 6.19873 1.36719 6.87256 1.36719C7.55615 1.36719 8.12256 1.94336 8.12256 2.61719C8.12256 3.30078 7.55615 3.88672 6.87256 3.88672Z" fill="#000000" fill-opacity="0.85"/>
  <path d="M13.8452 18.9844C14.1382 19.2773 14.6265 19.2773 14.9097 18.9844C15.1929 18.6914 15.2026 18.2227 14.9097 17.9199L1.28662 4.30664C0.993652 4.02344 0.505371 4.01367 0.212402 4.30664C-0.0708008 4.58984-0.0708008 5.08789 0.212402 5.37109Z" fill="#000000" fill-opacity="0.85"/>
 </g>
</svg>
