<?xml version="1.0" encoding="UTF-8"?>
<!--Generator: Apple Native CoreSVG 175.5-->
<!DOCTYPE svg
PUBLIC "-//W3C//DTD SVG 1.1//EN"
       "http://www.w3.org/Graphics/SVG/1.1/DTD/svg11.dtd">
<svg version="1.1" xmlns="http://www.w3.org/2000/svg" xmlns:xlink="http://www.w3.org/1999/xlink" width="24.9316" height="21.9629">
 <g>
  <rect height="21.9629" opacity="0" width="24.9316" x="0" y="0"/>
  <path d="M3.86719 21.1621C5.03906 21.1621 7.95898 19.8828 9.61914 18.6914C9.78516 18.5742 9.92188 18.5254 10.0586 18.5254C10.1855 18.5352 10.3125 18.5449 10.4395 18.5449C11.3672 18.5449 12.2656 18.4668 13.0859 18.3203L13.0859 16.6016C13.0859 15.4199 14.043 14.4727 15.2148 14.4727C15.3027 14.4727 15.3906 14.4922 15.4688 14.5215C15.4883 14.4238 15.498 14.3555 15.5176 14.2773C15.791 13.4375 16.5723 12.832 17.5098 12.832C17.5977 12.832 17.666 12.8516 17.7441 12.8809C17.7539 12.8027 17.7734 12.7051 17.793 12.6172C18.0566 11.7773 18.8672 11.1523 19.7949 11.1523C20.5664 11.1523 21.2305 11.5625 21.582 12.1582C21.6309 12.1484 21.6797 12.1387 21.7285 12.1387C22.0117 11.3477 22.1484 10.5273 22.1484 9.67773C22.1484 4.76562 17.2266 0.800781 11.0742 0.800781C4.92188 0.800781 0 4.76562 0 9.67773C0 12.8027 1.92383 15.5469 5.05859 17.2266C5.20508 17.3047 5.25391 17.4512 5.17578 17.5977C4.62891 18.4961 3.65234 19.5703 3.28125 20.0586C2.90039 20.5469 3.11523 21.1621 3.86719 21.1621Z" fill="#000000" fill-opacity="0.85"/>
  <path d="M15.2148 18.6328C15.5273 18.6328 15.7715 18.3887 15.7715 18.0859L15.7715 16.6016C15.7715 16.2988 15.5273 16.0547 15.2148 16.0547C14.9121 16.0547 14.668 16.2988 14.668 16.6016L14.668 18.0859C14.668 18.3887 14.9121 18.6328 15.2148 18.6328Z" fill="#000000" fill-opacity="0.85"/>
  <path d="M17.5098 20.2734C17.8223 20.2734 18.0566 20.0293 18.0566 19.7168L18.0566 14.9707C18.0566 14.6582 17.8223 14.4141 17.5098 14.4141C17.1973 14.4141 16.9629 14.6582 16.9629 14.9707L16.9629 19.7168C16.9629 20.0293 17.1973 20.2734 17.5098 20.2734Z" fill="#000000" fill-opacity="0.85"/>
  <path d="M19.8047 21.9629C20.1074 21.9629 20.3516 21.7188 20.3516 21.416L20.3516 13.291C20.3516 12.9785 20.1074 12.7344 19.8047 12.7344C19.4922 12.7344 19.248 12.9785 19.248 13.291L19.248 21.416C19.248 21.7285 19.4824 21.9629 19.8047 21.9629Z" fill="#000000" fill-opacity="0.85"/>
  <path d="M22.0801 20.9863C22.4023 20.9863 22.6367 20.7422 22.6367 20.4395L22.6367 14.248C22.6367 13.9453 22.4023 13.7012 22.0801 13.7012C21.7773 13.7012 21.543 13.9453 21.543 14.248L21.543 20.4395C21.543 20.7422 21.7773 20.9863 22.0801 20.9863Z" fill="#000000" fill-opacity="0.85"/>
  <path d="M24.3848 19.1406C24.6973 19.1406 24.9316 18.916 24.9316 18.5938L24.9316 16.084C24.9316 15.7812 24.6973 15.5371 24.3848 15.5371C24.0723 15.5371 23.8281 15.791 23.8281 16.084L23.8281 18.5938C23.8281 18.9062 24.0723 19.1406 24.3848 19.1406Z" fill="#000000" fill-opacity="0.85"/>
 </g>
</svg>
