<?xml version="1.0" encoding="UTF-8"?>
<!--Generator: Apple Native CoreSVG 175.5-->
<!DOCTYPE svg
PUBLIC "-//W3C//DTD SVG 1.1//EN"
       "http://www.w3.org/Graphics/SVG/1.1/DTD/svg11.dtd">
<svg version="1.1" xmlns="http://www.w3.org/2000/svg" xmlns:xlink="http://www.w3.org/1999/xlink" width="24.9316" height="21.748">
 <g>
  <rect height="21.748" opacity="0" width="24.9316" x="0" y="0"/>
  <path d="M4.23828 21.1035C5.55664 21.1035 8.25195 19.7754 10.2344 18.3594C11.2012 18.418 12.1387 18.3496 13.1055 18.1836C13.0957 18.0859 13.0859 17.9883 13.0859 17.9004L13.0859 16.8848C13.0859 16.7773 13.0957 16.6797 13.1055 16.5918C12.4023 16.709 11.7383 16.7773 11.0742 16.7773C10.8789 16.7773 10.5762 16.7676 10.1855 16.7578C9.77539 16.7578 9.46289 16.8848 9.0918 17.1777C7.89062 18.0469 6.15234 19.1211 5.26367 19.4824C5.18555 19.5117 5.15625 19.4531 5.20508 19.3848C5.75195 18.7109 6.5332 17.6953 6.86523 17.0703C7.13867 16.5625 7.07031 16.1133 6.44531 15.8203C3.37891 14.3945 1.62109 12.1191 1.62109 9.52148C1.62109 5.51758 5.81055 2.25586 11.0742 2.25586C16.3477 2.25586 20.5371 5.51758 20.5371 9.52148C20.5371 10.0879 20.459 10.6348 20.3027 11.1523C20.8301 11.2695 21.2793 11.582 21.5723 12.0215C21.6211 12.0215 21.6797 12.041 21.7188 12.0508C21.9922 11.25 22.1484 10.4004 22.1484 9.52148C22.1484 4.60938 17.2266 0.644531 11.0742 0.644531C4.92188 0.644531 0 4.60938 0 9.52148C0 12.7246 2.05078 15.5664 5.13672 16.9922C4.69727 17.8418 3.87695 18.9941 3.4375 19.5703C2.91992 20.2539 3.23242 21.1035 4.23828 21.1035Z" fill="#000000" fill-opacity="0.85"/>
  <path d="M15.2148 18.418C15.5273 18.418 15.7715 18.1738 15.7715 17.8711L15.7715 16.3867C15.7715 16.084 15.5273 15.8398 15.2148 15.8398C14.9121 15.8398 14.668 16.084 14.668 16.3867L14.668 17.8711C14.668 18.1738 14.9121 18.418 15.2148 18.418Z" fill="#000000" fill-opacity="0.85"/>
  <path d="M17.5098 20.0586C17.8223 20.0586 18.0566 19.8145 18.0566 19.502L18.0566 14.7559C18.0566 14.4434 17.8223 14.1992 17.5098 14.1992C17.1973 14.1992 16.9629 14.4434 16.9629 14.7559L16.9629 19.502C16.9629 19.8145 17.1973 20.0586 17.5098 20.0586Z" fill="#000000" fill-opacity="0.85"/>
  <path d="M19.8047 21.748C20.1074 21.748 20.3516 21.5039 20.3516 21.2012L20.3516 13.0762C20.3516 12.7637 20.1074 12.5195 19.8047 12.5195C19.4922 12.5195 19.248 12.7637 19.248 13.0762L19.248 21.2012C19.248 21.5137 19.4824 21.748 19.8047 21.748Z" fill="#000000" fill-opacity="0.85"/>
  <path d="M22.0801 20.7715C22.4023 20.7715 22.6367 20.5273 22.6367 20.2246L22.6367 14.0332C22.6367 13.7305 22.4023 13.4863 22.0801 13.4863C21.7773 13.4863 21.543 13.7305 21.543 14.0332L21.543 20.2246C21.543 20.5273 21.7773 20.7715 22.0801 20.7715Z" fill="#000000" fill-opacity="0.85"/>
  <path d="M24.3848 18.9258C24.6973 18.9258 24.9316 18.7012 24.9316 18.3789L24.9316 15.8789C24.9316 15.5664 24.6973 15.3223 24.3848 15.3223C24.0723 15.3223 23.8281 15.5762 23.8281 15.8789L23.8281 18.3789C23.8281 18.6914 24.0723 18.9258 24.3848 18.9258Z" fill="#000000" fill-opacity="0.85"/>
 </g>
</svg>
