<?xml version="1.0" encoding="UTF-8"?>
<!--Generator: Apple Native CoreSVG 175.5-->
<!DOCTYPE svg
PUBLIC "-//W3C//DTD SVG 1.1//EN"
       "http://www.w3.org/Graphics/SVG/1.1/DTD/svg11.dtd">
<svg version="1.1" xmlns="http://www.w3.org/2000/svg" xmlns:xlink="http://www.w3.org/1999/xlink" width="18.9844" height="19.4629">
 <g>
  <rect height="19.4629" opacity="0" width="18.9844" x="0" y="0"/>
  <path d="M3.06641 9.50195L0.380859 14.7656C0.126953 15.2637 0 15.791 0 16.2891C0 17.7051 1.01562 18.916 2.73438 18.916L16.25 18.916C17.9688 18.916 18.9844 17.7051 18.9844 16.2891C18.9844 15.791 18.8574 15.2637 18.6035 14.7559L11.8164 1.45508C11.3672 0.566406 10.4102 0 9.49219 0C8.58398 0 7.61719 0.566406 7.16797 1.45508L4.81445 6.06445L5.9668 7.20703L8.50586 2.14844C8.7207 1.72852 9.08203 1.45508 9.49219 1.45508C9.90234 1.45508 10.2637 1.72852 10.4785 2.14844L15.8105 12.7734L3.17383 12.7734L4.23828 10.6738ZM2.73438 17.3828C2.02148 17.3828 1.60156 16.8359 1.60156 16.2305C1.60156 16.0254 1.65039 15.8105 1.74805 15.5957L2.41211 14.2871L16.5625 14.2676L17.2363 15.5957C17.3438 15.8008 17.3926 16.0156 17.3926 16.2207C17.3926 16.8359 16.9727 17.3828 16.25 17.3828ZM10.3125 11.543L10.3125 4.69727C10.3125 4.20898 10.0195 3.89648 9.53125 3.89648C9.05273 3.89648 8.75977 4.20898 8.75977 4.69727L8.75977 9.99023ZM8.99414 13.9648L10.0977 12.8516L1.66992 4.43359C1.33789 4.11133 0.908203 4.10156 0.566406 4.43359C0.214844 4.77539 0.234375 5.22461 0.566406 5.55664Z" fill="#000000" fill-opacity="0.85"/>
 </g>
</svg>
