<?xml version="1.0" encoding="UTF-8"?>
<!--Generator: Apple Native CoreSVG 175.5-->
<!DOCTYPE svg
PUBLIC "-//W3C//DTD SVG 1.1//EN"
       "http://www.w3.org/Graphics/SVG/1.1/DTD/svg11.dtd">
<svg version="1.1" xmlns="http://www.w3.org/2000/svg" xmlns:xlink="http://www.w3.org/1999/xlink" width="18.9844" height="19.4629">
 <g>
  <rect height="19.4629" opacity="0" width="18.9844" x="0" y="0"/>
  <path d="M2.73438 18.916L16.25 18.916C17.9688 18.916 18.9844 17.7051 18.9844 16.2891C18.9844 15.791 18.8574 15.2637 18.6035 14.7559L18.3008 14.1797L0.683594 14.1797L0.380859 14.7656C0.126953 15.2539 0 15.791 0 16.2891C0 17.7051 1.01562 18.916 2.73438 18.916ZM1.35742 12.8516L6.41602 12.8516L3.06641 9.50195ZM7.87109 12.8516L10.0879 12.8516L1.66992 4.43359C1.33789 4.11133 0.908203 4.10156 0.566406 4.43359C0.214844 4.77539 0.234375 5.22461 0.566406 5.55664ZM11.6113 12.8516L17.627 12.8516L11.8164 1.45508C11.3672 0.566406 10.4102 0 9.49219 0C8.58398 0 7.61719 0.566406 7.16797 1.45508L4.81445 6.06445L8.75977 10L8.75977 4.69727C8.75977 4.20898 9.05273 3.89648 9.53125 3.89648C10.0195 3.89648 10.3125 4.20898 10.3125 4.69727L10.3125 11.543Z" fill="#000000" fill-opacity="0.85"/>
 </g>
</svg>
