<?xml version="1.0" encoding="UTF-8"?>
<!--Generator: Apple Native CoreSVG 175.5-->
<!DOCTYPE svg
PUBLIC "-//W3C//DTD SVG 1.1//EN"
       "http://www.w3.org/Graphics/SVG/1.1/DTD/svg11.dtd">
<svg version="1.1" xmlns="http://www.w3.org/2000/svg" xmlns:xlink="http://www.w3.org/1999/xlink" width="19.9219" height="19.9316">
 <g>
  <rect height="19.9316" opacity="0" width="19.9219" x="0" y="0"/>
  <path d="M9.96094 19.9219C15.4102 19.9219 19.9219 15.4004 19.9219 9.96094C19.9219 4.51172 15.4004 0 9.95117 0C4.51172 0 0 4.51172 0 9.96094C0 15.4004 4.52148 19.9219 9.96094 19.9219ZM9.96094 18.2617C5.35156 18.2617 1.66992 14.5703 1.66992 9.96094C1.66992 5.35156 5.3418 1.66016 9.95117 1.66016C14.5605 1.66016 18.2617 5.35156 18.2617 9.96094C18.2617 14.5703 14.5703 18.2617 9.96094 18.2617Z" fill="#000000" fill-opacity="0.85"/>
  <path d="M13.9746 14.2871C14.1504 14.4629 14.4238 14.4727 14.5898 14.2871C14.7656 14.1211 14.7656 13.8379 14.5898 13.6621L6.14258 5.20508C5.95703 5.0293 5.68359 5.0293 5.51758 5.20508C5.33203 5.38086 5.33203 5.66406 5.51758 5.83008ZM11.1719 12.5586C10.8301 12.7344 10.4199 12.832 9.95117 12.832C8.33984 12.832 7.2168 11.709 7.2168 10.1074L7.2168 8.84766C7.2168 8.57422 6.98242 8.33984 6.69922 8.33984C6.41602 8.33984 6.18164 8.57422 6.18164 8.84766L6.18164 10.1074C6.18164 12.0898 7.49023 13.5742 9.43359 13.7891L9.43359 14.7754L7.4707 14.7754C7.1875 14.7754 6.94336 15.0195 6.94336 15.3027C6.94336 15.5859 7.1875 15.8301 7.4707 15.8301L12.4414 15.8301C12.7148 15.8301 12.9688 15.5762 12.9688 15.3027C12.9688 15.0195 12.7246 14.7754 12.4414 14.7754L10.4883 14.7754L10.4883 13.7891C11.0254 13.7305 11.5137 13.5645 11.9336 13.3203ZM8.33008 9.7168L8.33008 10.1074C8.33008 11.1035 8.99414 11.8457 9.95117 11.8457C10.1172 11.8457 10.2539 11.8066 10.3809 11.7578ZM11.5723 9.58008L11.5723 5.91797C11.5723 4.93164 10.9082 4.19922 9.95117 4.19922C8.99414 4.19922 8.33008 4.93164 8.33008 5.91797L8.33008 6.32812ZM13.4863 11.4941C13.6426 11.0645 13.7305 10.6055 13.7305 10.1074L13.7305 8.84766C13.7305 8.57422 13.4863 8.33984 13.2129 8.33984C12.9297 8.33984 12.6953 8.57422 12.6953 8.84766L12.6953 10.1074C12.6953 10.293 12.666 10.4688 12.627 10.6348Z" fill="#000000" fill-opacity="0.85"/>
 </g>
</svg>
