<?xml version="1.0" encoding="UTF-8"?>
<!--Generator: Apple Native CoreSVG 175.5-->
<!DOCTYPE svg
PUBLIC "-//W3C//DTD SVG 1.1//EN"
       "http://www.w3.org/Graphics/SVG/1.1/DTD/svg11.dtd">
<svg version="1.1" xmlns="http://www.w3.org/2000/svg" xmlns:xlink="http://www.w3.org/1999/xlink" width="16.6101" height="22.2949">
 <g>
  <rect height="22.2949" opacity="0" width="16.6101" x="0" y="0"/>
  <path d="M1.16943 10.3223C1.16943 14.1504 3.69873 16.8359 7.41943 17.1484L7.41943 19.4238L3.79639 19.4238C3.38623 19.4238 3.0542 19.7559 3.0542 20.166C3.0542 20.5762 3.38623 20.8984 3.79639 20.8984L12.5171 20.8984C12.9272 20.8984 13.2593 20.5762 13.2593 20.166C13.2593 19.7559 12.9272 19.4238 12.5171 19.4238L8.89404 19.4238L8.89404 17.1484C9.99756 17.0605 10.9839 16.7578 11.8433 16.2793L10.7886 15.2344C10.0366 15.5957 9.15771 15.8008 8.16162 15.8008C4.81201 15.8008 2.64404 13.5938 2.64404 10.2637L2.64404 8.33984C2.64404 7.92969 2.32178 7.60742 1.90186 7.60742C1.4917 7.60742 1.16943 7.92969 1.16943 8.33984ZM13.3276 12.334L14.4702 13.4766C14.9097 12.5586 15.144 11.4941 15.144 10.3223L15.144 8.33984C15.144 7.92969 14.8218 7.60742 14.4116 7.60742C14.0015 7.60742 13.6694 7.92969 13.6694 8.33984L13.6694 10.2637C13.6694 11.0156 13.5522 11.709 13.3276 12.334ZM8.16162 13.7988C8.53271 13.7988 8.87451 13.7402 9.18701 13.6328L7.69287 12.1289C7.61475 12.168 7.52686 12.1777 7.43896 12.1777C6.86279 12.0508 6.45264 11.5918 6.31592 10.9961L6.30615 10.752L4.60693 9.05273L4.60693 9.9707C4.60693 12.2168 6.05225 13.7988 8.16162 13.7988ZM11.7065 3.82812C11.7065 1.57227 10.2612 0 8.16162 0C6.22803 0 4.86084 1.32812 4.646 3.28125L4.646 3.67188L6.08154 5.09766L6.08154 3.82812C6.08154 2.38281 6.91162 1.45508 8.16162 1.45508C9.41162 1.45508 10.2319 2.38281 10.2319 3.82812L10.2319 9.01367C10.2319 9.0918 10.2319 9.16992 10.2222 9.23828L11.6479 10.6641C11.687 10.4395 11.7065 10.2051 11.7065 9.9707Z" fill="#000000" fill-opacity="0.85"/>
  <path d="M15.3296 18.1152C15.6226 18.4082 16.1011 18.4082 16.394 18.1152C16.6772 17.8125 16.687 17.3438 16.394 17.0508L1.28662 1.95312C0.993652 1.66992 0.505371 1.66016 0.212402 1.95312C-0.0708008 2.24609-0.0708008 2.73438 0.212402 3.01758Z" fill="#000000" fill-opacity="0.85"/>
 </g>
</svg>
