<?xml version="1.0" encoding="UTF-8"?>
<!--Generator: Apple Native CoreSVG 175.5-->
<!DOCTYPE svg
PUBLIC "-//W3C//DTD SVG 1.1//EN"
       "http://www.w3.org/Graphics/SVG/1.1/DTD/svg11.dtd">
<svg version="1.1" xmlns="http://www.w3.org/2000/svg" xmlns:xlink="http://www.w3.org/1999/xlink" width="20.6934" height="22.2949">
 <g>
  <rect height="22.2949" opacity="0" width="20.6934" x="0" y="0"/>
  <path d="M6.71875 10.3223C6.71875 14.1504 9.24805 16.8359 12.9688 17.1484L12.9688 19.4238L9.3457 19.4238C8.93555 19.4238 8.60352 19.7559 8.60352 20.166C8.60352 20.5762 8.93555 20.8984 9.3457 20.8984L18.0664 20.8984C18.4766 20.8984 18.8086 20.5762 18.8086 20.166C18.8086 19.7559 18.4766 19.4238 18.0664 19.4238L14.4434 19.4238L14.4434 17.1484C18.1641 16.8359 20.6934 14.1504 20.6934 10.3223L20.6934 8.33984C20.6934 7.92969 20.3711 7.60742 19.9609 7.60742C19.5508 7.60742 19.2188 7.92969 19.2188 8.33984L19.2188 10.2637C19.2188 13.5938 17.0508 15.8008 13.7012 15.8008C10.3613 15.8008 8.19336 13.5938 8.19336 10.2637L8.19336 8.33984C8.19336 7.92969 7.86133 7.60742 7.45117 7.60742C7.04102 7.60742 6.71875 7.92969 6.71875 8.33984ZM10.1562 9.9707C10.1562 12.2168 11.6016 13.7988 13.7012 13.7988C15.8105 13.7988 17.2559 12.2168 17.2559 9.9707L17.2559 3.82812C17.2559 1.57227 15.8105 0 13.7012 0C11.6016 0 10.1562 1.57227 10.1562 3.82812ZM11.6309 9.9707L11.6309 3.82812C11.6309 2.38281 12.4512 1.45508 13.7012 1.45508C14.9512 1.45508 15.7812 2.38281 15.7812 3.82812L15.7812 9.9707C15.7812 11.416 14.9512 12.3438 13.7012 12.3438C12.4512 12.3438 11.6309 11.416 11.6309 9.9707Z" fill="#000000" fill-opacity="0.85"/>
  <path d="M1.79688 20.4492C2.77344 20.4492 3.56445 19.6582 3.56445 18.6816C3.56445 17.6855 2.77344 16.9043 1.79688 16.9043C0.791016 16.9043 0 17.6855 0 18.6816C0 19.6582 0.800781 20.4492 1.79688 20.4492Z" fill="#000000" fill-opacity="0.85"/>
  <path d="M1.79688 15.3711C2.77344 15.3711 3.56445 14.5703 3.56445 13.5742C3.56445 12.5977 2.77344 11.8066 1.79688 11.8066C0.800781 11.8066 0 12.5977 0 13.5742C0 14.5801 0.791016 15.3711 1.79688 15.3711Z" fill="#000000" fill-opacity="0.85"/>
  <path d="M1.79688 10.2637C2.77344 10.2637 3.56445 9.48242 3.56445 8.48633C3.56445 7.49023 2.77344 6.69922 1.79688 6.69922C0.791016 6.69922 0 7.49023 0 8.48633C0 9.48242 0.791016 10.2637 1.79688 10.2637Z" fill="#000000" fill-opacity="0.85"/>
  <path d="M1.79688 5.16602C2.77344 5.16602 3.56445 4.38477 3.56445 3.38867C3.56445 2.41211 2.77344 1.62109 1.79688 1.62109C0.800781 1.62109 0 2.41211 0 3.38867C0 4.38477 0.791016 5.16602 1.79688 5.16602Z" fill="#000000" fill-opacity="0.85"/>
 </g>
</svg>
