<?xml version="1.0" encoding="UTF-8"?>
<!--Generator: Apple Native CoreSVG 175.5-->
<!DOCTYPE svg
PUBLIC "-//W3C//DTD SVG 1.1//EN"
       "http://www.w3.org/Graphics/SVG/1.1/DTD/svg11.dtd">
<svg version="1.1" xmlns="http://www.w3.org/2000/svg" xmlns:xlink="http://www.w3.org/1999/xlink" width="19.9219" height="19.9316">
 <g>
  <rect height="19.9316" opacity="0" width="19.9219" x="0" y="0"/>
  <path d="M9.96094 19.9219C15.4102 19.9219 19.9219 15.4004 19.9219 9.96094C19.9219 4.51172 15.4004 0 9.95117 0C4.51172 0 0 4.51172 0 9.96094C0 15.4004 4.52148 19.9219 9.96094 19.9219ZM9.96094 18.2617C5.35156 18.2617 1.66992 14.5703 1.66992 9.96094C1.66992 5.35156 5.3418 1.66016 9.95117 1.66016C14.5605 1.66016 18.2617 5.35156 18.2617 9.96094C18.2617 14.5703 14.5703 18.2617 9.96094 18.2617Z" fill="#000000" fill-opacity="0.85"/>
  <path d="M9.9707 5.71289C10.3711 5.71289 10.6738 5.40039 10.6738 5.00977C10.6738 4.61914 10.3711 4.29688 9.9707 4.29688C9.58008 4.29688 9.26758 4.61914 9.26758 5.00977C9.26758 5.40039 9.58008 5.71289 9.9707 5.71289ZM12.0898 6.2793C12.4414 6.48438 12.8809 6.36719 13.0566 6.02539C13.2617 5.69336 13.1445 5.25391 12.8027 5.06836C12.4707 4.86328 12.041 4.9707 11.8457 5.3125C11.6406 5.6543 11.7578 6.08398 12.0898 6.2793ZM13.6621 7.85156C13.8574 8.18359 14.2871 8.30078 14.6191 8.0957C14.9609 7.91016 15.0781 7.4707 14.873 7.13867C14.6875 6.78711 14.2578 6.66992 13.916 6.875C13.5742 7.06055 13.457 7.49023 13.6621 7.85156ZM14.2285 9.96094C14.2285 10.3516 14.541 10.6641 14.9316 10.6641C15.3223 10.6641 15.6348 10.3613 15.6348 9.96094C15.6348 9.57031 15.3223 9.25781 14.9316 9.25781C14.541 9.25781 14.2285 9.57031 14.2285 9.96094ZM13.6621 12.0801C13.457 12.4316 13.5742 12.8711 13.916 13.0469C14.248 13.252 14.6875 13.1445 14.873 12.793C15.0781 12.4609 14.9609 12.0312 14.6289 11.8359C14.2871 11.6309 13.8574 11.748 13.6621 12.0801ZM12.0898 13.6523C11.7578 13.8477 11.6406 14.2773 11.8457 14.6094C12.0312 14.9512 12.4707 15.0684 12.8027 14.8633C13.1445 14.6777 13.252 14.248 13.0566 13.9062C12.8809 13.5645 12.4414 13.4473 12.0898 13.6523ZM9.9707 14.2188C9.58008 14.2188 9.26758 14.5312 9.26758 14.9219C9.26758 15.3125 9.58008 15.625 9.9707 15.625C10.3711 15.625 10.6738 15.3125 10.6738 14.9219C10.6738 14.5312 10.3711 14.2188 9.9707 14.2188ZM7.86133 13.6523C7.5 13.4473 7.07031 13.5645 6.88477 13.9062C6.67969 14.2383 6.79688 14.6777 7.14844 14.8633C7.48047 15.0684 7.91016 14.9512 8.10547 14.6191C8.31055 14.2773 8.19336 13.8477 7.86133 13.6523ZM6.28906 12.0801C6.09375 11.748 5.66406 11.6309 5.33203 11.8359C4.98047 12.0215 4.86328 12.4609 5.07812 12.793C5.26367 13.1445 5.68359 13.252 6.03516 13.0469C6.37695 12.8711 6.49414 12.4316 6.28906 12.0801ZM5.72266 9.9707C5.72266 9.57031 5.41016 9.25781 5.01953 9.25781C4.62891 9.25781 4.30664 9.57031 4.30664 9.96094C4.30664 10.3613 4.62891 10.6641 5.01953 10.6641C5.41016 10.6641 5.72266 10.3613 5.72266 9.9707ZM6.28906 7.85156C6.49414 7.49023 6.37695 7.06055 6.03516 6.875C5.69336 6.66992 5.26367 6.78711 5.07812 7.13867C4.86328 7.4707 4.98047 7.90039 5.32227 8.0957C5.66406 8.30078 6.09375 8.18359 6.28906 7.85156ZM7.86133 6.2793C8.19336 6.08398 8.31055 5.6543 8.10547 5.32227C7.91992 4.9707 7.48047 4.86328 7.14844 5.06836C6.79688 5.25391 6.68945 5.68359 6.88477 6.02539C7.07031 6.36719 7.5 6.48438 7.86133 6.2793ZM9.96094 13.3301C11.8164 13.3301 13.3301 11.8164 13.3301 9.96094C13.3301 8.10547 11.8164 6.5918 9.96094 6.5918C8.10547 6.5918 6.5918 8.10547 6.5918 9.96094C6.5918 11.8164 8.10547 13.3301 9.96094 13.3301Z" fill="#000000" fill-opacity="0.85"/>
 </g>
</svg>
