<?xml version="1.0" encoding="UTF-8"?>
<!--Generator: Apple Native CoreSVG 175.5-->
<!DOCTYPE svg
PUBLIC "-//W3C//DTD SVG 1.1//EN"
       "http://www.w3.org/Graphics/SVG/1.1/DTD/svg11.dtd">
<svg version="1.1" xmlns="http://www.w3.org/2000/svg" xmlns:xlink="http://www.w3.org/1999/xlink" width="19.9219" height="19.9316">
 <g>
  <rect height="19.9316" opacity="0" width="19.9219" x="0" y="0"/>
  <path d="M9.96094 19.9219C15.4102 19.9219 19.9219 15.4004 19.9219 9.96094C19.9219 4.51172 15.4004 0 9.95117 0C4.51172 0 0 4.51172 0 9.96094C0 15.4004 4.52148 19.9219 9.96094 19.9219Z" fill="#000000" fill-opacity="0.85"/>
  <path d="M9.9707 5.55664C9.58008 5.55664 9.27734 5.25391 9.27734 4.85352C9.27734 4.46289 9.58008 4.15039 9.9707 4.15039C10.3613 4.15039 10.6738 4.46289 10.6738 4.85352C10.6738 5.25391 10.3613 5.55664 9.9707 5.55664ZM12.1777 6.15234C11.8262 5.94727 11.7188 5.51758 11.9238 5.17578C12.1191 4.84375 12.5488 4.73633 12.8809 4.93164C13.2227 5.11719 13.3398 5.55664 13.1348 5.89844C12.9492 6.24023 12.5293 6.34766 12.1777 6.15234ZM13.7891 7.77344C13.5938 7.41211 13.7012 6.99219 14.043 6.80664C14.4043 6.5918 14.8242 6.71875 15.0098 7.06055C15.2051 7.39258 15.0977 7.83203 14.7461 8.01758C14.4238 8.22266 13.9844 8.10547 13.7891 7.77344ZM14.3848 9.96094C14.3848 9.57031 14.6875 9.26758 15.0879 9.26758C15.4785 9.26758 15.791 9.57031 15.791 9.96094C15.791 10.3516 15.4785 10.6641 15.0879 10.6641C14.6875 10.6641 14.3848 10.3516 14.3848 9.96094ZM13.7891 12.168C13.9941 11.8164 14.4238 11.709 14.7559 11.9141C15.0977 12.1094 15.2051 12.5391 15.0098 12.8711C14.8242 13.2129 14.3848 13.3301 14.043 13.125C13.7012 12.9395 13.5938 12.5195 13.7891 12.168ZM12.168 13.7793C12.5293 13.584 12.9492 13.6914 13.1348 14.0332C13.3301 14.3945 13.2227 14.8145 12.8809 15C12.5488 15.1953 12.1094 15.0879 11.9238 14.7363C11.7188 14.4141 11.8262 13.9746 12.168 13.7793ZM9.9707 14.375C10.3613 14.375 10.6738 14.6777 10.6738 15.0781C10.6738 15.4688 10.3613 15.7812 9.9707 15.7812C9.58008 15.7812 9.27734 15.4688 9.27734 15.0781C9.27734 14.6777 9.58008 14.375 9.9707 14.375ZM7.77344 13.7793C8.11523 13.9844 8.23242 14.4141 8.01758 14.7461C7.83203 15.0879 7.40234 15.1953 7.07031 15C6.72852 14.8145 6.60156 14.375 6.81641 14.0332C7.00195 13.6914 7.42188 13.584 7.77344 13.7793ZM6.16211 12.1582C6.35742 12.5195 6.25 12.9395 5.9082 13.125C5.54688 13.3301 5.12695 13.2129 4.94141 12.8711C4.74609 12.5391 4.85352 12.0996 5.19531 11.9141C5.52734 11.709 5.95703 11.8164 6.16211 12.1582ZM5.56641 9.9707C5.56641 10.3516 5.26367 10.6641 4.86328 10.6641C4.47266 10.6641 4.16016 10.3516 4.16016 9.96094C4.16016 9.57031 4.47266 9.26758 4.86328 9.26758C5.26367 9.26758 5.56641 9.58008 5.56641 9.9707ZM6.16211 7.77344C5.95703 8.10547 5.52734 8.22266 5.18555 8.01758C4.85352 7.82227 4.74609 7.39258 4.94141 7.06055C5.12695 6.71875 5.56641 6.5918 5.9082 6.80664C6.25 6.99219 6.35742 7.41211 6.16211 7.77344ZM7.77344 6.15234C7.42188 6.34766 7.00195 6.24023 6.81641 5.89844C6.61133 5.53711 6.72852 5.11719 7.07031 4.93164C7.40234 4.73633 7.8418 4.84375 8.01758 5.18555C8.23242 5.51758 8.11523 5.94727 7.77344 6.15234ZM9.96094 13.4375C8.04688 13.4375 6.48438 11.875 6.48438 9.96094C6.48438 8.04688 8.04688 6.48438 9.96094 6.48438C11.875 6.48438 13.4375 8.04688 13.4375 9.96094C13.4375 11.875 11.875 13.4375 9.96094 13.4375Z" fill="#ffffff"/>
 </g>
</svg>
