<?xml version="1.0" encoding="UTF-8"?>
<!--Generator: Apple Native CoreSVG 175.5-->
<!DOCTYPE svg
PUBLIC "-//W3C//DTD SVG 1.1//EN"
       "http://www.w3.org/Graphics/SVG/1.1/DTD/svg11.dtd">
<svg version="1.1" xmlns="http://www.w3.org/2000/svg" xmlns:xlink="http://www.w3.org/1999/xlink" width="23.0273" height="17.998">
 <g>
  <rect height="17.998" opacity="0" width="23.0273" x="0" y="0"/>
  <path d="M3.06641 17.9785L19.9609 17.9785C22.0117 17.9785 23.0273 16.9727 23.0273 14.9609L23.0273 5.51758C23.0273 3.50586 22.0117 2.5 19.9609 2.5L3.06641 2.5C1.02539 2.5 0 3.50586 0 5.51758L0 14.9609C0 16.9727 1.02539 17.9785 3.06641 17.9785ZM4.29688 3.23242L9.54102 3.23242L9.54102 1.19141C9.54102 0.449219 9.11133 0 8.35938 0L5.47852 0C4.72656 0 4.29688 0.449219 4.29688 1.19141ZM13.4766 3.23242L18.7109 3.23242L18.7109 1.19141C18.7109 0.449219 18.2812 0 17.5293 0L14.6484 0C13.9062 0 13.4766 0.449219 13.4766 1.19141Z" fill="#000000" fill-opacity="0.85"/>
  <path d="M3.41797 10.2441C3.41797 9.81445 3.75 9.49219 4.16992 9.49219L9.38477 9.49219C9.80469 9.49219 10.127 9.81445 10.127 10.2441C10.127 10.6641 9.80469 10.9863 9.38477 10.9863L4.16992 10.9863C3.75 10.9863 3.41797 10.6641 3.41797 10.2441ZM12.8809 10.2441C12.8809 9.81445 13.2031 9.49219 13.623 9.49219L15.4883 9.49219L15.4883 7.62695C15.4883 7.2168 15.8203 6.875 16.2305 6.875C16.6504 6.875 16.9727 7.2168 16.9727 7.62695L16.9727 9.49219L18.8379 9.49219C19.2578 9.49219 19.5898 9.81445 19.5898 10.2441C19.5898 10.6641 19.2578 10.9863 18.8379 10.9863L16.9727 10.9863L16.9727 12.8516C16.9727 13.2617 16.6504 13.6035 16.2305 13.5938C15.8203 13.6035 15.4883 13.2617 15.4883 12.8516L15.4883 10.9863L13.623 10.9863C13.2031 10.9863 12.8809 10.6641 12.8809 10.2441Z" fill="#ffffff"/>
 </g>
</svg>
