<?xml version="1.0" encoding="UTF-8"?>
<!--Generator: Apple Native CoreSVG 175.5-->
<!DOCTYPE svg
PUBLIC "-//W3C//DTD SVG 1.1//EN"
       "http://www.w3.org/Graphics/SVG/1.1/DTD/svg11.dtd">
<svg version="1.1" xmlns="http://www.w3.org/2000/svg" xmlns:xlink="http://www.w3.org/1999/xlink" width="23.0273" height="17.998">
 <g>
  <rect height="17.998" opacity="0" width="23.0273" x="0" y="0"/>
  <path d="M3.06641 17.9785L19.9609 17.9785C22.0117 17.9785 23.0273 16.9727 23.0273 14.9609L23.0273 5.51758C23.0273 3.50586 22.0117 2.5 19.9609 2.5L3.06641 2.5C1.02539 2.5 0 3.50586 0 5.51758L0 14.9609C0 16.9727 1.02539 17.9785 3.06641 17.9785ZM3.08594 16.4062C2.10938 16.4062 1.57227 15.8887 1.57227 14.873L1.57227 5.60547C1.57227 4.58984 2.10938 4.07227 3.08594 4.07227L19.9414 4.07227C20.9082 4.07227 21.4551 4.58984 21.4551 5.60547L21.4551 14.873C21.4551 15.8887 20.9082 16.4062 19.9414 16.4062ZM4.29688 3.23242L9.54102 3.23242L9.54102 1.19141C9.54102 0.449219 9.11133 0 8.35938 0L5.47852 0C4.72656 0 4.29688 0.449219 4.29688 1.19141ZM13.4766 3.23242L18.7109 3.23242L18.7109 1.19141C18.7109 0.449219 18.2812 0 17.5293 0L14.6484 0C13.9062 0 13.4766 0.449219 13.4766 1.19141Z" fill="#000000" fill-opacity="0.85"/>
  <path d="M3.66211 10.2441C3.66211 10.6445 3.98438 10.957 4.38477 10.957L9.45312 10.957C9.85352 10.957 10.166 10.6445 10.166 10.2441C10.166 9.83398 9.85352 9.52148 9.45312 9.52148L4.38477 9.52148C3.98438 9.52148 3.66211 9.83398 3.66211 10.2441ZM12.8418 10.2441C12.8418 10.6445 13.1543 10.957 13.5547 10.957L15.3711 10.957L15.3711 12.7734C15.3711 13.1738 15.6934 13.4961 16.0938 13.4863C16.4941 13.4961 16.8066 13.1738 16.8066 12.7734L16.8066 10.957L18.623 10.957C19.0234 10.957 19.3457 10.6445 19.3457 10.2441C19.3457 9.83398 19.0234 9.52148 18.623 9.52148L16.8066 9.52148L16.8066 7.70508C16.8066 7.30469 16.4941 6.98242 16.0938 6.98242C15.6934 6.98242 15.3711 7.30469 15.3711 7.70508L15.3711 9.52148L13.5547 9.52148C13.1543 9.52148 12.8418 9.83398 12.8418 10.2441Z" fill="#000000" fill-opacity="0.85"/>
 </g>
</svg>
