<?xml version="1.0" encoding="UTF-8"?>
<!--Generator: Apple Native CoreSVG 175.5-->
<!DOCTYPE svg
PUBLIC "-//W3C//DTD SVG 1.1//EN"
       "http://www.w3.org/Graphics/SVG/1.1/DTD/svg11.dtd">
<svg version="1.1" xmlns="http://www.w3.org/2000/svg" xmlns:xlink="http://www.w3.org/1999/xlink" width="25.9961" height="16.0254">
 <g>
  <rect height="16.0254" opacity="0" width="25.9961" x="0" y="0"/>
  <path d="M25.9961 7.44141C25.9961 3.50586 23.7109 0.917969 19.834 0.46875C16.7676 0.136719 11.582 0.00976562 8.94531 0C6.40625 0 5.05859 1.34766 5.29297 3.58398L5.56641 6.25977C5.625 6.82617 5.35156 7.08008 4.73633 7.08008L1.33789 7.08008L1.33789 14.3066C2.55859 13.5059 4.22852 13.1445 6.60156 13.1445L20 13.1445C23.7695 13.1445 25.9961 11.1426 25.9961 7.44141ZM24.3945 7.44141C24.3945 10.1465 22.7637 11.5723 20 11.5723L9.94141 11.5723C8.36914 11.5723 7.75391 11.0742 7.59766 9.63867L6.89453 3.4082C6.74805 2.13867 7.35352 1.5918 8.94531 1.5918C11.5723 1.5918 16.6406 1.72852 19.6484 2.07031C22.6367 2.40234 24.3945 4.41406 24.3945 7.44141ZM0.78125 16.0059C1.2207 16.0059 1.57227 15.6445 1.57227 15.2148L1.57227 4.6875C1.57227 4.25781 1.2207 3.90625 0.78125 3.90625C0.351562 3.90625 0 4.25781 0 4.6875L0 15.2148C0 15.6445 0.351562 16.0059 0.78125 16.0059Z" fill="#000000" fill-opacity="0.85"/>
  <path d="M24.3945 7.44141C24.3945 10.1465 22.7637 11.5723 20 11.5723L9.94141 11.5723C8.36914 11.5723 7.75391 11.0742 7.59766 9.63867L6.89453 3.4082C6.74805 2.13867 7.35352 1.5918 8.94531 1.5918C11.5723 1.5918 16.6406 1.72852 19.6484 2.07031C22.6367 2.40234 24.3945 4.41406 24.3945 7.44141Z" fill="#ffffff"/>
 </g>
</svg>
