<?xml version="1.0" encoding="UTF-8"?>
<!--Generator: Apple Native CoreSVG 175.5-->
<!DOCTYPE svg
PUBLIC "-//W3C//DTD SVG 1.1//EN"
       "http://www.w3.org/Graphics/SVG/1.1/DTD/svg11.dtd">
<svg version="1.1" xmlns="http://www.w3.org/2000/svg" xmlns:xlink="http://www.w3.org/1999/xlink" width="18.8574" height="24.209">
 <g>
  <rect height="24.209" opacity="0" width="18.8574" x="0" y="0"/>
  <path d="M8.52539 22.2754C12.1094 22.2754 15 20.4785 16.3184 17.4121C16.4941 17.002 16.4355 16.6699 16.25 16.4844C16.0742 16.3086 15.7812 16.2793 15.4297 16.416C14.6973 16.6992 13.7988 16.875 12.6758 16.875C8.31055 16.875 5.49805 14.1406 5.49805 9.86328C5.49805 8.68164 5.72266 7.5 6.02539 6.88477C6.2207 6.50391 6.20117 6.16211 6.03516 5.9668C5.84961 5.75195 5.51758 5.68359 5.05859 5.85938C2.06055 7.08008 0 10.2148 0 13.8574C0 18.6133 3.49609 22.2754 8.52539 22.2754ZM8.54492 20.7812C4.38477 20.7812 1.48438 17.7441 1.48438 13.7402C1.48438 11.2891 2.62695 9.11133 4.44336 7.72461C4.20898 8.36914 4.07227 9.33594 4.07227 10.2734C4.07227 15.0879 7.39258 18.3105 12.3047 18.3105C13.1836 18.3105 13.9844 18.1934 14.3945 18.0566C13.1738 19.7461 10.9961 20.7812 8.54492 20.7812Z" fill="#000000" fill-opacity="0.85"/>
  <path d="M13.7988 4.15039L11.582 4.15039L11.582 4.10156L13.8574 1.10352C14.0625 0.830078 14.1406 0.673828 14.1406 0.498047C14.1406 0.185547 13.9062 0 13.5742 0L10.4492 0C10.1465 0 9.93164 0.205078 9.93164 0.507812C9.93164 0.820312 10.1465 1.01562 10.4492 1.01562L12.5391 1.01562L12.5391 1.06445L10.2344 4.05273C10.0293 4.31641 9.96094 4.46289 9.96094 4.66797C9.96094 4.95117 10.1758 5.15625 10.5078 5.15625L13.7988 5.15625C14.1016 5.15625 14.3164 4.9707 14.3164 4.64844C14.3164 4.3457 14.1016 4.15039 13.7988 4.15039ZM18.3691 7.89062L16.8066 7.89062L16.8066 7.85156L18.4277 5.72266C18.6133 5.47852 18.6914 5.33203 18.6914 5.14648C18.6914 4.86328 18.4668 4.6875 18.1641 4.6875L15.7715 4.6875C15.498 4.6875 15.293 4.88281 15.293 5.15625C15.293 5.46875 15.498 5.6543 15.7715 5.6543L17.1777 5.6543L17.1777 5.69336L15.5762 7.80273C15.3906 8.03711 15.3223 8.19336 15.3223 8.38867C15.3223 8.65234 15.5273 8.84766 15.8301 8.84766L18.3691 8.84766C18.6621 8.84766 18.8574 8.67188 18.8574 8.36914C18.8574 8.07617 18.6621 7.89062 18.3691 7.89062ZM14.0625 11.2207L12.7344 11.2207L12.7344 11.1816L14.1113 9.35547C14.2871 9.11133 14.3652 8.97461 14.3652 8.80859C14.3652 8.53516 14.1504 8.36914 13.8574 8.36914L11.7578 8.36914C11.4941 8.36914 11.2988 8.54492 11.2988 8.81836C11.2988 9.11133 11.4941 9.27734 11.7578 9.27734L12.9297 9.27734L12.9297 9.32617L11.5723 11.1426C11.3965 11.3672 11.3281 11.5137 11.3281 11.6992C11.3281 11.9531 11.5234 12.1387 11.8066 12.1387L14.0625 12.1387C14.3359 12.1387 14.5215 11.9531 14.5215 11.6797C14.5215 11.4062 14.3359 11.2207 14.0625 11.2207Z" fill="#000000" fill-opacity="0.85"/>
 </g>
</svg>
