<?xml version="1.0" encoding="UTF-8"?>
<!--Generator: Apple Native CoreSVG 175.5-->
<!DOCTYPE svg
PUBLIC "-//W3C//DTD SVG 1.1//EN"
       "http://www.w3.org/Graphics/SVG/1.1/DTD/svg11.dtd">
<svg version="1.1" xmlns="http://www.w3.org/2000/svg" xmlns:xlink="http://www.w3.org/1999/xlink" width="24.4141" height="20.1855">
 <g>
  <rect height="20.1855" opacity="0" width="24.4141" x="0" y="0"/>
  <path d="M2.50977 16.875L21.9043 16.875C23.5742 16.875 24.4141 16.084 24.4141 14.3652L24.4141 3.17383C24.4141 1.46484 23.5742 0.673828 21.9043 0.673828L2.50977 0.673828C0.839844 0.673828 0 1.46484 0 3.17383L0 14.3652C0 16.084 0.839844 16.875 2.50977 16.875ZM7.29492 20.1855L17.1191 20.1855C17.5488 20.1855 17.9102 19.834 17.9102 19.3945C17.9102 18.9551 17.5488 18.6035 17.1191 18.6035L7.29492 18.6035C6.86523 18.6035 6.50391 18.9551 6.50391 19.3945C6.50391 19.834 6.86523 20.1855 7.29492 20.1855Z" fill="#000000" fill-opacity="0.85"/>
  <path d="M15.3027 6.875L12.9004 7.46094C12.666 7.51953 12.5781 7.60742 12.5781 7.98828L12.5781 11.5039C12.5781 12.9883 11.582 14.0332 10.1172 14.0332C9.0918 14.0332 8.4375 13.4082 8.4375 12.5293C8.4375 11.5234 9.21875 10.9766 10.1465 10.7324L11.0938 10.4883C11.6016 10.3516 11.6406 10.2539 11.6406 9.79492L11.6406 5.19531C11.6406 4.58008 11.7578 4.48242 12.2559 4.35547L15.2637 3.61328C15.8105 3.4668 15.9375 3.64258 15.9375 4.0332L15.9375 6.05469C15.9375 6.65039 15.8008 6.75781 15.3027 6.875Z" fill="#ffffff"/>
 </g>
</svg>
