<?xml version="1.0" encoding="UTF-8"?>
<!--Generator: Apple Native CoreSVG 175.5-->
<!DOCTYPE svg
PUBLIC "-//W3C//DTD SVG 1.1//EN"
       "http://www.w3.org/Graphics/SVG/1.1/DTD/svg11.dtd">
<svg version="1.1" xmlns="http://www.w3.org/2000/svg" xmlns:xlink="http://www.w3.org/1999/xlink" width="17.7734" height="17.7832">
 <g>
  <rect height="17.7832" opacity="0" width="17.7734" x="0" y="0"/>
  <path d="M16.6309 1.15234C15.6348 0.15625 14.2285 0 12.5586 0L5.18555 0C3.54492 0 2.13867 0.15625 1.14258 1.15234C0.146484 2.14844 0 3.54492 0 5.17578L0 12.5586C0 14.2285 0.146484 15.6152 1.14258 16.6113C2.13867 17.6074 3.54492 17.7637 5.20508 17.7637L12.5586 17.7637C14.2285 17.7637 15.6348 17.6074 16.6309 16.6113C17.627 15.6152 17.7734 14.2285 17.7734 12.5586L17.7734 5.20508C17.7734 3.53516 17.627 2.13867 16.6309 1.15234Z" fill="#000000" fill-opacity="0.85"/>
  <path d="M8.88672 14.2969C5.9668 14.2969 3.49609 11.8262 3.49609 8.89648C3.49609 5.95703 5.94727 3.49609 8.88672 3.49609C11.8164 3.49609 14.2871 5.9668 14.2871 8.89648C14.2871 11.8359 11.8359 14.2969 8.88672 14.2969ZM4.98047 8.89648C4.98047 11.0254 6.76758 12.8125 8.88672 12.8125C9.6875 12.8125 10.4297 12.5586 11.0449 12.1289L5.6543 6.73828C5.24414 7.36328 4.98047 8.10547 4.98047 8.89648ZM6.72852 5.66406L12.1289 11.0547C12.5391 10.4297 12.8027 9.6875 12.8027 8.89648C12.8027 6.76758 11.0156 4.98047 8.88672 4.98047C8.0957 4.98047 7.35352 5.23438 6.72852 5.66406Z" fill="#ffffff"/>
 </g>
</svg>
