<?xml version="1.0" encoding="UTF-8"?>
<!--Generator: Apple Native CoreSVG 175.5-->
<!DOCTYPE svg
PUBLIC "-//W3C//DTD SVG 1.1//EN"
       "http://www.w3.org/Graphics/SVG/1.1/DTD/svg11.dtd">
<svg version="1.1" xmlns="http://www.w3.org/2000/svg" xmlns:xlink="http://www.w3.org/1999/xlink" width="23.4473" height="20.7324">
 <g>
  <rect height="20.7324" opacity="0" width="23.4473" x="0" y="0"/>
  <path d="M0.791016 20.7227C1.2207 20.7227 1.57227 20.3711 1.57227 19.9414L1.57227 0.78125C1.57227 0.351562 1.2207 0 0.791016 0C0.351562 0 0 0.351562 0 0.78125L0 19.9414C0 20.3711 0.351562 20.7227 0.791016 20.7227ZM22.666 20.7227C23.0957 20.7227 23.4473 20.3711 23.4473 19.9414L23.4473 0.78125C23.4473 0.351562 23.0957 0 22.666 0C22.2266 0 21.875 0.351562 21.875 0.78125L21.875 19.9414C21.875 20.3711 22.2266 20.7227 22.666 20.7227ZM20.0586 4.08203L22.666 4.08203L22.666 2.80273L20.0586 2.80273ZM20.0586 8.71094L22.666 8.71094L22.666 7.43164L20.0586 7.43164ZM20.0586 13.3301L22.666 13.3301L22.666 12.0508L20.0586 12.0508ZM20.0586 17.9492L22.666 17.9492L22.666 16.6699L20.0586 16.6699Z" fill="#000000" fill-opacity="0.85"/>
  <path d="M10.5469 6.43555L20.0391 5.32227C20.459 5.27344 20.7324 5.04883 20.7324 4.63867L20.7324 2.22656C20.7324 1.80664 20.459 1.44531 20.0391 1.54297L10.4199 3.67188C10.0293 3.75977 9.85352 4.01367 9.85352 4.31641L9.85352 5.82031C9.85352 6.25977 10.0879 6.49414 10.5469 6.43555ZM10.4199 9.96094L20.0391 9.96094C20.459 9.96094 20.7324 9.6875 20.7324 9.27734L20.7324 6.86523C20.7324 6.44531 20.4688 6.13281 20.0391 6.18164L10.4199 7.30469C10.0684 7.34375 9.85352 7.60742 9.85352 7.96875L9.85352 9.32617C9.85352 9.7168 10.0879 9.96094 10.4199 9.96094ZM10.4199 13.4668L20.0391 14.5898C20.4688 14.6387 20.7324 14.3262 20.7324 13.9062L20.7324 11.4941C20.7324 11.084 20.459 10.8105 20.0391 10.8105L10.4199 10.8105C10.0879 10.8105 9.85352 11.0547 9.85352 11.4453L9.85352 12.8027C9.85352 13.1641 10.0684 13.418 10.4199 13.4668ZM10.4199 17.0996L20.0391 19.2285C20.459 19.3164 20.7324 18.9648 20.7324 18.5449L20.7324 16.123C20.7324 15.7227 20.459 15.498 20.0391 15.4492L10.5469 14.3359C10.0879 14.2773 9.85352 14.5117 9.85352 14.9512L9.85352 16.4551C9.85352 16.7578 10.0293 17.0117 10.4199 17.0996Z" fill="#000000" fill-opacity="0.85"/>
 </g>
</svg>
