<?xml version="1.0" encoding="UTF-8"?>
<!--Generator: Apple Native CoreSVG 175.5-->
<!DOCTYPE svg
PUBLIC "-//W3C//DTD SVG 1.1//EN"
       "http://www.w3.org/Graphics/SVG/1.1/DTD/svg11.dtd">
<svg version="1.1" xmlns="http://www.w3.org/2000/svg" xmlns:xlink="http://www.w3.org/1999/xlink" width="15.5634" height="15.8121">
 <g>
  <rect height="15.8121" opacity="0" width="15.5634" x="0" y="0"/>
  <path d="M2.66795 14.9227L7.93162 9.659L6.21287 7.95002L0.949202 13.2137L0.021468 15.3817C-0.0761882 15.616 0.177718 15.8895 0.412093 15.7918ZM10.5976 7.00275L13.3222 4.27814L11.6133 2.55939L8.88866 5.29377ZM14.1816 3.4383L15.168 2.4715C15.666 1.97345 15.6953 1.44611 15.2461 0.987125L14.914 0.66486C14.4648 0.215641 13.9277 0.264469 13.4394 0.742985L12.4433 1.71955Z" fill="#000000" fill-opacity="0.85"/>
  <path d="M14.123 14.2684C14.416 14.5613 14.9043 14.5613 15.1875 14.2684C15.4707 13.9656 15.4805 13.4969 15.1875 13.2039L2.91209 0.928532C2.61912 0.635563 2.12108 0.625797 1.83787 0.928532C1.54491 1.21173 1.54491 1.70978 1.83787 1.99298Z" fill="#000000" fill-opacity="0.85"/>
 </g>
</svg>
