<?xml version="1.0" encoding="UTF-8"?>
<!--Generator: Apple Native CoreSVG 175.5-->
<!DOCTYPE svg
PUBLIC "-//W3C//DTD SVG 1.1//EN"
       "http://www.w3.org/Graphics/SVG/1.1/DTD/svg11.dtd">
<svg version="1.1" xmlns="http://www.w3.org/2000/svg" xmlns:xlink="http://www.w3.org/1999/xlink" width="19.9219" height="19.9316">
 <g>
  <rect height="19.9316" opacity="0" width="19.9219" x="0" y="0"/>
  <path d="M0 9.96094C0 15.4004 4.52148 19.9219 9.96094 19.9219C15.4102 19.9219 19.9219 15.4004 19.9219 9.96094C19.9219 4.51172 15.4004 0 9.95117 0C4.51172 0 0 4.51172 0 9.96094ZM1.66992 9.96094C1.66992 5.35156 5.3418 1.66016 9.95117 1.66016C14.5605 1.66016 18.252 5.35156 18.2617 9.96094C18.2715 12.9199 16.7383 15.5078 14.4238 16.9727L13.2031 11.2402C13.1152 10.7715 12.7441 10.4297 12.2949 10.4004L12.2266 10.4004L10.6055 5.52734C10.3906 4.89258 9.54102 4.89258 9.32617 5.52734L7.70508 10.4004L7.63672 10.4004C7.19727 10.4297 6.81641 10.7715 6.72852 11.2305L5.51758 16.9727C3.19336 15.5078 1.66992 12.9297 1.66992 9.96094ZM6.67969 17.5879L7.92969 11.6602L12.0117 11.6602L13.2617 17.5879C12.2461 18.0176 11.1328 18.2617 9.96094 18.2617C8.78906 18.2617 7.67578 18.0273 6.67969 17.5879Z" fill="#000000" fill-opacity="0.85"/>
 </g>
</svg>
