<?xml version="1.0" encoding="UTF-8"?>
<!--Generator: Apple Native CoreSVG 175.5-->
<!DOCTYPE svg
PUBLIC "-//W3C//DTD SVG 1.1//EN"
       "http://www.w3.org/Graphics/SVG/1.1/DTD/svg11.dtd">
<svg version="1.1" xmlns="http://www.w3.org/2000/svg" xmlns:xlink="http://www.w3.org/1999/xlink" width="18.5144" height="15.8301">
 <g>
  <rect height="15.8301" opacity="0" width="18.5144" x="0" y="0"/>
  <path d="M3.64138 15.8301L17.7332 15.8301C18.1629 15.8301 18.5144 15.4785 18.5144 15.0488C18.5144 14.6191 18.1629 14.2578 17.7332 14.2578L5.22341 14.2578Z" fill="#000000" fill-opacity="0.85"/>
  <path d="M2.66482 14.9316L13.3191 4.28711L11.6101 2.56836L0.94607 13.2227L0.0183355 15.3906C-0.0695552 15.625 0.174585 15.8984 0.40896 15.8008ZM14.1785 3.44727L15.1648 2.48047C15.6629 1.98242 15.6824 1.44531 15.2429 0.996094L14.9109 0.664062C14.4715 0.224609 13.9344 0.273438 13.4363 0.751953L12.45 1.72852Z" fill="#000000" fill-opacity="0.85"/>
 </g>
</svg>
