<?xml version="1.0" encoding="UTF-8"?>
<!--Generator: Apple Native CoreSVG 175.5-->
<!DOCTYPE svg
PUBLIC "-//W3C//DTD SVG 1.1//EN"
       "http://www.w3.org/Graphics/SVG/1.1/DTD/svg11.dtd">
<svg version="1.1" xmlns="http://www.w3.org/2000/svg" xmlns:xlink="http://www.w3.org/1999/xlink" width="19.9219" height="23.7188">
 <g>
  <rect height="23.7188" opacity="0" width="19.9219" x="0" y="0"/>
  <path d="M0 11.8545C0 17.3037 4.52148 21.8155 9.96094 21.8155C15.4102 21.8155 19.9219 17.3037 19.9219 11.8545C19.9219 7.04983 16.416 2.97756 11.8457 2.07912L11.8457 0.692405C11.8457-0.000954238 11.3672-0.186501 10.8398 0.194358L7.72461 2.37209C7.27539 2.68459 7.26562 3.15334 7.72461 3.47561L10.8301 5.66311C11.3672 6.05373 11.8457 5.86819 11.8457 5.16506L11.8457 3.77834C15.5371 4.61819 18.252 7.89944 18.252 11.8545C18.252 16.4639 14.5703 20.1553 9.96094 20.1553C5.35156 20.1553 1.65039 16.4639 1.66016 11.8545C1.66992 9.08108 3.01758 6.62991 5.09766 5.14553C5.49805 4.8428 5.625 4.38381 5.38086 3.97366C5.13672 3.57326 4.59961 3.46584 4.16992 3.79787C1.66016 5.62405 0 8.57326 0 11.8545Z" fill="#000000" fill-opacity="0.85"/>
  <path d="M9.52148 15.7412L15.4883 15.7412C16.2402 15.7412 16.5039 15.5264 16.5039 15.1065C16.5039 13.8858 14.9707 12.1963 12.5098 12.1963C10.0391 12.1963 8.49609 13.8858 8.49609 15.1065C8.49609 15.5264 8.76953 15.7412 9.52148 15.7412ZM12.5098 11.3565C13.5352 11.3565 14.4043 10.4287 14.4043 9.23733C14.4043 8.06545 13.5254 7.20608 12.5098 7.20608C11.4844 7.20608 10.6055 8.09475 10.6055 9.24709C10.6152 10.4287 11.4844 11.3565 12.5098 11.3565ZM4.375 15.7412L7.99805 15.7412C7.5 15.0381 8.10547 13.583 9.13086 12.8018C8.59375 12.4502 7.91016 12.1865 7.03125 12.1865C4.88281 12.1865 3.54492 13.7686 3.54492 15.0772C3.54492 15.5069 3.7793 15.7412 4.375 15.7412ZM7.03125 11.4541C7.91992 11.4541 8.68164 10.6533 8.68164 9.61819C8.68164 8.60256 7.91992 7.84084 7.03125 7.84084C6.15234 7.84084 5.37109 8.62209 5.37109 9.62795C5.38086 10.6533 6.14258 11.4541 7.03125 11.4541Z" fill="#000000" fill-opacity="0.85"/>
 </g>
</svg>
