<?xml version="1.0" encoding="UTF-8"?>
<!--Generator: Apple Native CoreSVG 175.5-->
<!DOCTYPE svg
PUBLIC "-//W3C//DTD SVG 1.1//EN"
       "http://www.w3.org/Graphics/SVG/1.1/DTD/svg11.dtd">
<svg version="1.1" xmlns="http://www.w3.org/2000/svg" xmlns:xlink="http://www.w3.org/1999/xlink" width="19.9219" height="19.9316">
 <g>
  <rect height="19.9316" opacity="0" width="19.9219" x="0" y="0"/>
  <path d="M9.96094 19.9316C15.4102 19.9316 19.9219 15.4199 19.9219 9.9707C19.9219 4.53125 15.4004 0.00976562 9.95117 0.00976562C4.51172 0.00976562 0 4.53125 0 9.9707C0 15.4199 4.52148 19.9316 9.96094 19.9316Z" fill="#000000" fill-opacity="0.85"/>
  <path d="M9.46289 14.0039C8.68164 14.0039 8.39844 13.7695 8.39844 13.3496C8.39844 12.0801 9.99023 10.3418 12.5391 10.3418C15.0781 10.3418 16.6602 12.0801 16.6602 13.3496C16.6602 13.7695 16.3867 14.0039 15.6055 14.0039ZM12.5391 9.47266C11.4844 9.47266 10.5859 8.51562 10.5762 7.29492C10.5762 6.11328 11.4844 5.18555 12.5391 5.18555C13.584 5.18555 14.4922 6.08398 14.4922 7.28516C14.4922 8.51562 13.5938 9.47266 12.5391 9.47266ZM4.15039 14.0039C3.53516 14.0039 3.29102 13.75 3.29102 13.3008C3.29102 11.9531 4.67773 10.3223 6.89453 10.3223C7.79297 10.3223 8.49609 10.5957 9.05273 10.957C7.99805 11.7676 7.37305 13.2617 7.88086 14.0039ZM6.89453 9.57031C5.97656 9.57031 5.18555 8.75 5.18555 7.68555C5.17578 6.65039 5.98633 5.84961 6.89453 5.84961C7.80273 5.84961 8.59375 6.63086 8.59375 7.67578C8.59375 8.75 7.80273 9.57031 6.89453 9.57031Z" fill="#ffffff"/>
 </g>
</svg>
