<?xml version="1.0" encoding="UTF-8"?>
<!--Generator: Apple Native CoreSVG 175.5-->
<!DOCTYPE svg
PUBLIC "-//W3C//DTD SVG 1.1//EN"
       "http://www.w3.org/Graphics/SVG/1.1/DTD/svg11.dtd">
<svg version="1.1" xmlns="http://www.w3.org/2000/svg" xmlns:xlink="http://www.w3.org/1999/xlink" width="26.6211" height="23.9062">
 <g>
  <rect height="23.9062" opacity="0" width="26.6211" x="0" y="0"/>
  <path d="M3.75977 8.33496C3.75977 10.4346 5.3418 12.0752 7.1582 12.0752C8.1543 12.0752 9.07227 11.5771 9.6875 10.7861L4.70703 5.80566C4.13086 6.4502 3.75 7.33887 3.75977 8.33496ZM1.71875 20.8936L9.13086 20.8936C8.11523 19.4189 9.35547 16.4502 11.4648 14.8291C10.3711 14.1064 8.97461 13.5693 7.1582 13.5693C2.75391 13.5693 0 16.8213 0 19.5264C0 20.4053 0.478516 20.8936 1.71875 20.8936ZM18.4082 11.8506C20.498 11.8506 22.3047 9.97559 22.3047 7.53418C22.3047 5.12207 20.4883 3.33496 18.4082 3.33496C16.3184 3.33496 14.4922 5.16113 14.502 7.55371C14.502 9.97559 16.3086 11.8506 18.4082 11.8506ZM10.1855 19.5947C10.1855 20.4541 10.7324 20.8936 12.2656 20.8936L19.8047 20.8936L13.6914 14.7803C11.4551 16.0107 10.1855 17.9932 10.1855 19.5947ZM25.0684 20.8057L25.4883 20.7959C26.2891 20.6494 26.6211 20.2588 26.6211 19.5947C26.6211 17.0752 23.4668 13.5986 18.3984 13.5986C18.2324 13.5986 18.0566 13.6182 17.9102 13.6377Z" fill="#000000" fill-opacity="0.85"/>
  <path d="M24.209 23.6865C24.502 23.9795 24.9902 23.9795 25.2734 23.6865C25.5664 23.3936 25.5762 22.9248 25.2734 22.6221L4.6582 2.00684C4.35547 1.7041 3.88672 1.71387 3.58398 2.00684C3.30078 2.29004 3.30078 2.78809 3.58398 3.07129Z" fill="#000000" fill-opacity="0.85"/>
 </g>
</svg>
