<?xml version="1.0" encoding="UTF-8"?>
<!--Generator: Apple Native CoreSVG 175.5-->
<!DOCTYPE svg
PUBLIC "-//W3C//DTD SVG 1.1//EN"
       "http://www.w3.org/Graphics/SVG/1.1/DTD/svg11.dtd">
<svg version="1.1" xmlns="http://www.w3.org/2000/svg" xmlns:xlink="http://www.w3.org/1999/xlink" width="23.1641" height="18.4863">
 <g>
  <rect height="18.4863" opacity="0" width="23.1641" x="0" y="0"/>
  <path d="M0.800781 1.34766C1.09375 1.34766 1.34766 1.09375 1.34766 0.800781C1.34766 0.498047 1.09375 0.253906 0.800781 0.253906C0.498047 0.253906 0.253906 0.498047 0.253906 0.800781C0.253906 1.09375 0.498047 1.34766 0.800781 1.34766ZM3.87695 1.34766C4.17969 1.34766 4.42383 1.09375 4.42383 0.800781C4.42383 0.498047 4.17969 0.253906 3.87695 0.253906C3.57422 0.253906 3.33008 0.498047 3.33008 0.800781C3.33008 1.09375 3.57422 1.34766 3.87695 1.34766ZM6.95312 1.34766C7.25586 1.34766 7.5 1.09375 7.5 0.800781C7.5 0.498047 7.25586 0.253906 6.95312 0.253906C6.66016 0.253906 6.40625 0.498047 6.40625 0.800781C6.40625 1.09375 6.66016 1.34766 6.95312 1.34766ZM10.0391 1.5918C10.4688 1.5918 10.8301 1.23047 10.8301 0.800781C10.8301 0.361328 10.4688 0 10.0391 0C9.59961 0 9.23828 0.361328 9.23828 0.800781C9.23828 1.23047 9.59961 1.5918 10.0391 1.5918ZM13.1152 1.5918C13.5449 1.5918 13.9062 1.23047 13.9062 0.800781C13.9062 0.361328 13.5449 0 13.1152 0C12.6758 0 12.3145 0.361328 12.3145 0.800781C12.3145 1.23047 12.6758 1.5918 13.1152 1.5918ZM16.2012 1.34766C16.5039 1.34766 16.748 1.09375 16.748 0.800781C16.748 0.498047 16.5039 0.253906 16.2012 0.253906C15.9082 0.253906 15.6543 0.498047 15.6543 0.800781C15.6543 1.09375 15.9082 1.34766 16.2012 1.34766ZM19.2871 1.34766C19.5801 1.34766 19.834 1.09375 19.834 0.800781C19.834 0.498047 19.5801 0.253906 19.2871 0.253906C18.9844 0.253906 18.7305 0.498047 18.7305 0.800781C18.7305 1.09375 18.9844 1.34766 19.2871 1.34766ZM22.3633 1.34766C22.6562 1.34766 22.9102 1.09375 22.9102 0.800781C22.9102 0.498047 22.6562 0.253906 22.3633 0.253906C22.0605 0.253906 21.8164 0.498047 21.8164 0.800781C21.8164 1.09375 22.0605 1.34766 22.3633 1.34766ZM0.800781 4.7168C1.09375 4.7168 1.34766 4.46289 1.34766 4.16016C1.34766 3.86719 1.09375 3.61328 0.800781 3.61328C0.498047 3.61328 0.253906 3.86719 0.253906 4.16016C0.253906 4.46289 0.498047 4.7168 0.800781 4.7168ZM3.87695 4.96094C4.31641 4.96094 4.67773 4.59961 4.67773 4.16016C4.67773 3.73047 4.31641 3.36914 3.87695 3.36914C3.4375 3.36914 3.07617 3.73047 3.07617 4.16016C3.07617 4.59961 3.4375 4.96094 3.87695 4.96094ZM6.95312 4.96094C7.08008 4.96094 7.20703 4.92188 7.31445 4.87305C7.44141 4.62891 7.58789 4.38477 7.75391 4.16016C7.75391 3.73047 7.39258 3.36914 6.95312 3.36914C6.52344 3.36914 6.16211 3.73047 6.16211 4.16016C6.16211 4.59961 6.52344 4.96094 6.95312 4.96094ZM16.2012 4.96094C16.6406 4.96094 17.002 4.59961 17.002 4.16016C17.002 3.73047 16.6406 3.36914 16.2012 3.36914C15.791 3.36914 15.459 3.68164 15.4102 4.07227C15.6055 4.33594 15.7812 4.60938 15.9277 4.91211C16.0156 4.95117 16.1035 4.96094 16.2012 4.96094ZM19.2871 4.96094C19.7168 4.96094 20.0781 4.59961 20.0781 4.16016C20.0781 3.73047 19.7168 3.36914 19.2871 3.36914C18.8477 3.36914 18.4863 3.73047 18.4863 4.16016C18.4863 4.59961 18.8477 4.96094 19.2871 4.96094ZM22.3633 4.7168C22.6562 4.7168 22.9102 4.46289 22.9102 4.16016C22.9102 3.86719 22.6562 3.61328 22.3633 3.61328C22.0605 3.61328 21.8164 3.86719 21.8164 4.16016C21.8164 4.46289 22.0605 4.7168 22.3633 4.7168ZM0.800781 8.33008C1.23047 8.33008 1.5918 7.96875 1.5918 7.5293C1.5918 7.08984 1.23047 6.72852 0.800781 6.72852C0.361328 6.72852 0 7.08984 0 7.5293C0 7.96875 0.361328 8.33008 0.800781 8.33008ZM3.87695 8.57422C4.45312 8.57422 4.92188 8.10547 4.92188 7.5293C4.92188 6.95312 4.45312 6.48438 3.87695 6.48438C3.30078 6.48438 2.83203 6.95312 2.83203 7.5293C2.83203 8.10547 3.30078 8.57422 3.87695 8.57422ZM5.9082 7.5293C5.9082 8.08594 6.35742 8.55469 6.9043 8.57422C6.79688 8.16406 6.74805 7.72461 6.74805 7.27539C6.74805 7.00195 6.76758 6.74805 6.80664 6.49414C6.29883 6.57227 5.9082 7.00195 5.9082 7.5293ZM17.2559 7.5293C17.2559 7.03125 16.8945 6.61133 16.416 6.50391C16.4551 6.74805 16.4648 6.99219 16.4648 7.25586C16.4648 7.71484 16.416 8.1543 16.3086 8.57422C16.8262 8.51562 17.2559 8.06641 17.2559 7.5293ZM19.2871 8.57422C19.8535 8.57422 20.332 8.10547 20.332 7.5293C20.332 6.95312 19.8535 6.48438 19.2871 6.48438C18.7109 6.48438 18.2324 6.95312 18.2324 7.5293C18.2324 8.10547 18.7109 8.57422 19.2871 8.57422ZM22.3633 8.33008C22.8027 8.33008 23.1641 7.96875 23.1641 7.5293C23.1641 7.08984 22.8027 6.72852 22.3633 6.72852C21.9238 6.72852 21.5625 7.08984 21.5625 7.5293C21.5625 7.96875 21.9238 8.33008 22.3633 8.33008ZM0.800781 11.6895C1.23047 11.6895 1.5918 11.3281 1.5918 10.8984C1.5918 10.459 1.23047 10.0977 0.800781 10.0977C0.361328 10.0977 0 10.459 0 10.8984C0 11.3281 0.361328 11.6895 0.800781 11.6895ZM3.87695 11.9434C4.45312 11.9434 4.92188 11.4648 4.92188 10.8984C4.92188 10.3223 4.45312 9.84375 3.87695 9.84375C3.30078 9.84375 2.83203 10.3223 2.83203 10.8984C2.83203 11.4648 3.30078 11.9434 3.87695 11.9434ZM6.50391 11.8457C6.95312 11.5527 7.45117 11.3184 7.97852 11.1035C8.10547 10.459 7.61719 9.84375 6.95312 9.84375C6.38672 9.84375 5.9082 10.3223 5.9082 10.8984C5.9082 11.3086 6.16211 11.6699 6.50391 11.8457ZM16.6895 11.8164C17.0117 11.6406 17.2559 11.2891 17.2559 10.8984C17.2559 10.3223 16.7773 9.84375 16.2012 9.84375C15.5469 9.84375 15.0586 10.4492 15.1855 11.0938C15.7227 11.2891 16.2207 11.543 16.6895 11.8164ZM19.2871 11.9434C19.8535 11.9434 20.332 11.4648 20.332 10.8984C20.332 10.3223 19.8535 9.84375 19.2871 9.84375C18.7109 9.84375 18.2324 10.3223 18.2324 10.8984C18.2324 11.4648 18.7109 11.9434 19.2871 11.9434ZM22.3633 11.6895C22.8027 11.6895 23.1641 11.3281 23.1641 10.8984C23.1641 10.459 22.8027 10.0977 22.3633 10.0977C21.9238 10.0977 21.5625 10.459 21.5625 10.8984C21.5625 11.3281 21.9238 11.6895 22.3633 11.6895ZM0.800781 14.8047C1.09375 14.8047 1.34766 14.5605 1.34766 14.2578C1.34766 13.9648 1.09375 13.7109 0.800781 13.7109C0.498047 13.7109 0.253906 13.9648 0.253906 14.2578C0.253906 14.5605 0.498047 14.8047 0.800781 14.8047ZM3.53516 14.9707C3.75977 14.5215 4.05273 14.0723 4.38477 13.6523C4.24805 13.5352 4.07227 13.4668 3.87695 13.4668C3.4375 13.4668 3.07617 13.8281 3.07617 14.2578C3.07617 14.5703 3.26172 14.8438 3.53516 14.9707ZM19.668 14.9609C19.9023 14.8242 20.0781 14.5605 20.0781 14.2578C20.0781 13.8281 19.7168 13.4668 19.2871 13.4668C19.0918 13.4668 18.9355 13.5254 18.7988 13.623C19.1504 14.0527 19.4336 14.502 19.668 14.9609ZM22.3633 14.8047C22.6562 14.8047 22.9102 14.5605 22.9102 14.2578C22.9102 13.9648 22.6562 13.7109 22.3633 13.7109C22.0605 13.7109 21.8164 13.9648 21.8164 14.2578C21.8164 14.5605 22.0605 14.8047 22.3633 14.8047ZM0.800781 18.1738C1.09375 18.1738 1.34766 17.9297 1.34766 17.627C1.34766 17.3242 1.09375 17.0801 0.800781 17.0801C0.498047 17.0801 0.253906 17.3242 0.253906 17.627C0.253906 17.9297 0.498047 18.1738 0.800781 18.1738ZM22.3633 18.1738C22.6562 18.1738 22.9102 17.9297 22.9102 17.627C22.9102 17.3242 22.6562 17.0801 22.3633 17.0801C22.0605 17.0801 21.8164 17.3242 21.8164 17.627C21.8164 17.9297 22.0605 18.1738 22.3633 18.1738Z" fill="#000000" fill-opacity="0.425"/>
  <path d="M11.6016 10.9668C13.3887 10.9668 14.9707 9.33594 14.9707 7.25586C14.9707 5.17578 13.3887 3.66211 11.6016 3.66211C9.82422 3.66211 8.24219 5.21484 8.24219 7.27539C8.24219 9.33594 9.82422 10.9668 11.6016 10.9668ZM6.60156 18.3594L16.6016 18.3594C18.0469 18.3594 18.4863 17.9492 18.4863 17.2266C18.4863 15.1172 15.8594 12.207 11.6016 12.207C7.35352 12.207 4.72656 15.1172 4.72656 17.2266C4.72656 17.9492 5.15625 18.3594 6.60156 18.3594Z" fill="#000000" fill-opacity="0.85"/>
 </g>
</svg>
