<?xml version="1.0" encoding="UTF-8"?>
<!--Generator: Apple Native CoreSVG 175.5-->
<!DOCTYPE svg
PUBLIC "-//W3C//DTD SVG 1.1//EN"
       "http://www.w3.org/Graphics/SVG/1.1/DTD/svg11.dtd">
<svg version="1.1" xmlns="http://www.w3.org/2000/svg" xmlns:xlink="http://www.w3.org/1999/xlink" width="32.5684" height="22.8036">
 <g>
  <rect height="22.8036" opacity="0" width="32.5684" x="0" y="0"/>
  <path d="M12.5391 20.6059L24.8047 20.6059C26.4258 20.6059 27.1973 20.1176 27.1973 19.0434C27.1973 16.4848 23.9648 12.7837 18.6719 12.7837C13.3691 12.7837 10.1367 16.4848 10.1367 19.0434C10.1367 20.1176 10.9082 20.6059 12.5391 20.6059ZM12.0703 19.1313C11.8164 19.1313 11.709 19.0629 11.709 18.8579C11.709 17.2563 14.1895 14.2583 18.6719 14.2583C23.1445 14.2583 25.625 17.2563 25.625 18.8579C25.625 19.0629 25.5273 19.1313 25.2734 19.1313ZM18.6719 11.436C20.9961 11.436 22.8906 9.36568 22.8906 6.84615C22.8906 4.35592 21.0059 2.38326 18.6719 2.38326C16.3574 2.38326 14.4531 4.38521 14.4531 6.86568C14.4629 9.37545 16.3574 11.436 18.6719 11.436ZM18.6719 9.96139C17.2461 9.96139 16.0254 8.5942 16.0254 6.86568C16.0254 5.16646 17.2266 3.85787 18.6719 3.85787C20.127 3.85787 21.3184 5.14693 21.3184 6.84615C21.3184 8.57467 20.1172 9.96139 18.6719 9.96139ZM1.99219 20.6059L9.6582 20.6059C9.18945 20.3422 8.82812 19.7563 8.89648 19.1606L1.74805 19.1606C1.55273 19.1606 1.45508 19.0825 1.45508 18.8969C1.45508 16.4751 4.21875 14.2094 7.41211 14.2094C8.64258 14.2094 9.74609 14.5024 10.6934 15.059C11.0059 14.6684 11.3574 14.3266 11.7969 14.0239C10.5371 13.1938 9.02344 12.7641 7.41211 12.7641C3.32031 12.7641 0 15.7329 0 18.9848C0 20.0688 0.664062 20.6059 1.99219 20.6059ZM7.42188 11.6508C9.43359 11.6508 11.084 9.8442 11.084 7.6274C11.084 5.45943 9.45312 3.71139 7.42188 3.71139C5.41016 3.71139 3.75 5.48873 3.75977 7.64693C3.76953 9.85396 5.41016 11.6508 7.42188 11.6508ZM7.42188 10.1958C6.23047 10.1958 5.21484 9.05318 5.21484 7.64693C5.21484 6.26998 6.2207 5.16646 7.42188 5.16646C8.65234 5.16646 9.63867 6.25045 9.63867 7.6274C9.63867 9.05318 8.62305 10.1958 7.42188 10.1958Z" fill="#000000" fill-opacity="0.85"/>
  <path d="M25.8984 11.0063C26.2207 11.2309 26.6797 11.1626 26.9434 10.7817C27.6953 9.79537 28.1445 8.34029 28.1445 6.84615C28.1445 5.35201 27.6953 3.9067 26.9434 2.9106C26.6797 2.52974 26.2207 2.46139 25.8984 2.68599C25.498 2.95943 25.4395 3.44771 25.7422 3.8481C26.3086 4.62935 26.6309 5.71334 26.6309 6.84615C26.6309 7.97896 26.2988 9.05318 25.7422 9.8442C25.4492 10.2544 25.498 10.7231 25.8984 11.0063Z" fill="#000000" fill-opacity="0.85"/>
  <path d="M29.5117 13.5551C29.873 13.7993 30.3223 13.7114 30.5859 13.3403C31.8359 11.6215 32.5684 9.25826 32.5684 6.84615C32.5684 4.43404 31.8457 2.05123 30.5859 0.352011C30.3223-0.0190832 29.873-0.106974 29.5117 0.137167C29.1602 0.381307 29.0918 0.840292 29.375 1.24068C30.4492 2.74459 31.0547 4.76607 31.0547 6.84615C31.0547 8.92623 30.4297 10.9379 29.375 12.4516C29.1016 12.852 29.1602 13.311 29.5117 13.5551Z" fill="#000000" fill-opacity="0.85"/>
 </g>
</svg>
