<?xml version="1.0" encoding="UTF-8"?>
<!--Generator: Apple Native CoreSVG 175.5-->
<!DOCTYPE svg
PUBLIC "-//W3C//DTD SVG 1.1//EN"
       "http://www.w3.org/Graphics/SVG/1.1/DTD/svg11.dtd">
<svg version="1.1" xmlns="http://www.w3.org/2000/svg" xmlns:xlink="http://www.w3.org/1999/xlink" width="23.916" height="17.8809">
 <g>
  <rect height="17.8809" opacity="0" width="23.916" x="0" y="0"/>
  <path d="M1.66992 17.8809L14.7656 17.8809C15.8105 17.8809 16.4355 17.3926 16.4355 16.582C16.4355 14.0625 13.2812 10.5859 8.21289 10.5859C3.1543 10.5859 0 14.0625 0 16.582C0 17.3926 0.625 17.8809 1.66992 17.8809ZM8.22266 8.83789C10.3125 8.83789 12.1289 6.96289 12.1289 4.52148C12.1289 2.10938 10.3125 0.322266 8.22266 0.322266C6.13281 0.322266 4.31641 2.14844 4.31641 4.54102C4.31641 6.96289 6.12305 8.83789 8.22266 8.83789Z" fill="#000000" fill-opacity="0.85"/>
  <path d="M18.4277 9.41406C18.75 9.41406 19.0234 9.25781 19.2188 8.96484L23.6816 1.93359C23.7891 1.74805 23.916 1.5332 23.916 1.30859C23.916 0.878906 23.5254 0.595703 23.1152 0.595703C22.8613 0.595703 22.627 0.742188 22.4414 1.03516L18.3887 7.53906L16.4648 5.04883C16.2305 4.73633 16.0156 4.64844 15.7422 4.64844C15.3223 4.64844 14.9902 4.99023 14.9902 5.42969C14.9902 5.63477 15.0781 5.84961 15.2148 6.03516L17.5977 8.96484C17.8418 9.28711 18.1055 9.41406 18.4277 9.41406Z" fill="#000000" fill-opacity="0.85"/>
 </g>
</svg>
