<?xml version="1.0" encoding="UTF-8"?>
<!--Generator: Apple Native CoreSVG 175.5-->
<!DOCTYPE svg
PUBLIC "-//W3C//DTD SVG 1.1//EN"
       "http://www.w3.org/Graphics/SVG/1.1/DTD/svg11.dtd">
<svg version="1.1" xmlns="http://www.w3.org/2000/svg" xmlns:xlink="http://www.w3.org/1999/xlink" width="26.6211" height="17.8809">
 <g>
  <rect height="17.8809" opacity="0" width="26.6211" x="0" y="0"/>
  <path d="M12.2656 17.8809L24.5312 17.8809C26.0742 17.8809 26.6211 17.4414 26.6211 16.582C26.6211 14.0625 23.4668 10.5859 18.3984 10.5859C13.3398 10.5859 10.1855 14.0625 10.1855 16.582C10.1855 17.4414 10.7324 17.8809 12.2656 17.8809ZM18.4082 8.83789C20.498 8.83789 22.3047 6.96289 22.3047 4.52148C22.3047 2.10938 20.4883 0.322266 18.4082 0.322266C16.3184 0.322266 14.4922 2.14844 14.502 4.54102C14.502 6.96289 16.3086 8.83789 18.4082 8.83789Z" fill="#000000" fill-opacity="0.85"/>
  <path d="M1.71875 17.8809L9.13086 17.8809C8.11523 16.4062 9.35547 13.4375 11.4648 11.8164C10.3711 11.0938 8.97461 10.5566 7.1582 10.5566C2.75391 10.5566 0 13.8086 0 16.5137C0 17.3926 0.478516 17.8809 1.71875 17.8809ZM7.1582 9.0625C8.98438 9.0625 10.5566 7.42188 10.5566 5.30273C10.5566 3.20312 8.97461 1.65039 7.1582 1.65039C5.35156 1.65039 3.75 3.24219 3.75977 5.32227C3.75977 7.42188 5.3418 9.0625 7.1582 9.0625Z" fill="#000000" fill-opacity="0.85"/>
 </g>
</svg>
