<?xml version="1.0" encoding="UTF-8"?>
<!--Generator: Apple Native CoreSVG 175.5-->
<!DOCTYPE svg
PUBLIC "-//W3C//DTD SVG 1.1//EN"
       "http://www.w3.org/Graphics/SVG/1.1/DTD/svg11.dtd">
<svg version="1.1" xmlns="http://www.w3.org/2000/svg" xmlns:xlink="http://www.w3.org/1999/xlink" width="22.4316" height="22.8036">
 <g>
  <rect height="22.8036" opacity="0" width="22.4316" x="0" y="0"/>
  <path d="M2.40234 20.6059L14.668 20.6059C16.2891 20.6059 17.0605 20.1176 17.0605 19.0434C17.0605 16.4848 13.8379 12.7837 8.53516 12.7837C3.23242 12.7837 0 16.4848 0 19.0434C0 20.1176 0.771484 20.6059 2.40234 20.6059ZM1.93359 19.1313C1.67969 19.1313 1.57227 19.0629 1.57227 18.8579C1.57227 17.2563 4.05273 14.2583 8.53516 14.2583C13.0176 14.2583 15.4883 17.2563 15.4883 18.8579C15.4883 19.0629 15.3906 19.1313 15.1367 19.1313ZM8.53516 11.436C10.8594 11.436 12.7539 9.36568 12.7539 6.84615C12.7539 4.35592 10.8789 2.38326 8.53516 2.38326C6.2207 2.38326 4.31641 4.38521 4.31641 6.86568C4.32617 9.37545 6.2207 11.436 8.53516 11.436ZM8.53516 9.96139C7.10938 9.96139 5.88867 8.5942 5.88867 6.86568C5.88867 5.16646 7.08984 3.85787 8.53516 3.85787C10 3.85787 11.1816 5.14693 11.1816 6.84615C11.1816 8.57467 9.98047 9.96139 8.53516 9.96139Z" fill="#000000" fill-opacity="0.85"/>
  <path d="M15.7617 11.0063C16.084 11.2309 16.5527 11.1626 16.8066 10.7817C17.5586 9.79537 18.0078 8.34029 18.0078 6.84615C18.0078 5.35201 17.5586 3.9067 16.8066 2.9106C16.5527 2.52974 16.084 2.46139 15.7617 2.68599C15.3613 2.95943 15.3027 3.44771 15.6055 3.8481C16.1816 4.62935 16.4941 5.71334 16.4941 6.84615C16.4941 7.97896 16.1719 9.05318 15.6055 9.8442C15.3125 10.2544 15.3613 10.7231 15.7617 11.0063Z" fill="#000000" fill-opacity="0.85"/>
  <path d="M19.375 13.5551C19.7363 13.7993 20.1855 13.7114 20.4492 13.3403C21.6992 11.6215 22.4316 9.25826 22.4316 6.84615C22.4316 4.43404 21.709 2.05123 20.4492 0.352011C20.1855-0.0190832 19.7363-0.106974 19.375 0.137167C19.0234 0.381307 18.9551 0.840292 19.248 1.24068C20.3125 2.74459 20.918 4.76607 20.918 6.84615C20.918 8.92623 20.293 10.9379 19.248 12.4516C18.9648 12.852 19.0234 13.311 19.375 13.5551Z" fill="#000000" fill-opacity="0.85"/>
 </g>
</svg>
