<?xml version="1.0" encoding="UTF-8"?>
<!--Generator: Apple Native CoreSVG 175.5-->
<!DOCTYPE svg
PUBLIC "-//W3C//DTD SVG 1.1//EN"
       "http://www.w3.org/Graphics/SVG/1.1/DTD/svg11.dtd">
<svg version="1.1" xmlns="http://www.w3.org/2000/svg" xmlns:xlink="http://www.w3.org/1999/xlink" width="17.1289" height="22.6855">
 <g>
  <rect height="22.6855" opacity="0" width="17.1289" x="0" y="0"/>
  <path d="M3.06641 22.6855L14.3555 22.6855C16.1035 22.6855 17.1289 21.6699 17.1289 19.6582L17.1289 8.58398C17.1289 6.57227 16.0938 5.55664 14.0625 5.55664L3.06641 5.55664C1.02539 5.55664 0 6.5625 0 8.58398L0 19.6582C0 21.6699 1.02539 22.6855 3.06641 22.6855ZM3.08594 21.1133C2.10938 21.1133 1.57227 20.5859 1.57227 19.5703L1.57227 8.66211C1.57227 7.65625 2.10938 7.12891 3.08594 7.12891L14.0332 7.12891C15 7.12891 15.5566 7.65625 15.5566 8.66211L15.5566 19.5703C15.5566 20.5859 15 21.1133 14.3262 21.1133ZM2.12891 3.98438L14.9902 3.98438C14.8438 3.0957 14.4238 2.60742 13.4473 2.60742L3.67188 2.60742C2.69531 2.60742 2.27539 3.0957 2.12891 3.98438ZM3.82812 1.2793L13.3008 1.2793C13.2422 0.449219 12.7637 0.0195312 11.8652 0.0195312L5.25391 0.0195312C4.35547 0.0195312 3.88672 0.449219 3.82812 1.2793ZM7.79297 21.377L14.7559 21.377C15.8496 21.377 16.1719 20.7422 16.1719 20.0977C15.9961 18.5547 14.3359 16.7773 11.6797 16.7773C8.86719 16.7773 7.10938 18.7988 7.10938 20.3809C7.10938 21.0449 7.39258 21.377 7.79297 21.377ZM11.6797 15.5957C12.8418 15.5957 13.8379 14.5508 13.8379 13.2031C13.8379 11.8652 12.8418 10.8789 11.6797 10.8789C10.5176 10.8789 9.50195 11.8945 9.51172 13.2227C9.51172 14.5508 10.5176 15.5957 11.6797 15.5957ZM5.43945 16.7578C3.05664 16.7578 1.48438 18.4766 1.42578 20.0488C1.42578 20.7812 1.76758 21.377 2.73438 21.377L6.15234 21.377C6.03516 21.0742 5.97656 20.7324 5.97656 20.3809C5.97656 19.1992 6.54297 18.0957 7.46094 17.2559C6.92383 16.9238 6.25 16.7578 5.43945 16.7578ZM5.43945 15.7324C6.45508 15.7324 7.32422 14.8242 7.32422 13.6328C7.32422 12.4707 6.44531 11.6113 5.43945 11.6113C4.42383 11.6113 3.54492 12.4902 3.54492 13.6426C3.55469 14.8242 4.42383 15.7324 5.43945 15.7324Z" fill="#000000" fill-opacity="0.85"/>
 </g>
</svg>
