<?xml version="1.0" encoding="UTF-8"?>
<!--Generator: Apple Native CoreSVG 175.5-->
<!DOCTYPE svg
PUBLIC "-//W3C//DTD SVG 1.1//EN"
       "http://www.w3.org/Graphics/SVG/1.1/DTD/svg11.dtd">
<svg version="1.1" xmlns="http://www.w3.org/2000/svg" xmlns:xlink="http://www.w3.org/1999/xlink" width="20.1196" height="21.3037">
 <g>
  <rect height="21.3037" opacity="0" width="20.1196" x="0" y="0"/>
  <path d="M4.95117 15.0708C7.77344 17.8931 11.2109 20.0708 14.0137 20.0708C15.2734 20.0708 16.377 19.6313 17.2656 18.6548C17.7832 18.0786 18.1055 17.4048 18.1055 16.7407C18.1055 16.2524 17.9199 15.7837 17.4512 15.4517L14.4629 13.3228C14.0039 13.0103 13.623 12.854 13.2715 12.854C12.8223 12.854 12.4316 13.1079 11.9824 13.5474L11.2891 14.231C11.1816 14.3384 11.0449 14.3872 10.918 14.3872C10.7617 14.3872 10.625 14.3286 10.5176 14.2798C9.92188 13.9575 8.88672 13.0688 7.91992 12.1118C6.96289 11.1548 6.07422 10.1196 5.76172 9.51416C5.70312 9.40674 5.6543 9.27002 5.6543 9.12354C5.6543 8.99658 5.69336 8.86963 5.80078 8.76221L6.48438 8.04932C6.92383 7.6001 7.17773 7.20947 7.17773 6.76025C7.17773 6.40869 7.02148 6.02783 6.69922 5.56885L4.59961 2.60986C4.25781 2.14111 3.7793 1.93604 3.25195 1.93604C2.60742 1.93604 1.93359 2.229 1.36719 2.78564C0.419922 3.69385 0 4.81689 0 6.05713C0 8.85986 2.13867 12.2583 4.95117 15.0708Z" fill="#000000" fill-opacity="0.85"/>
  <path d="M10 10.1099C10.5273 10.6372 11.3672 10.6372 11.8945 10.1099C12.4219 9.58252 12.4219 8.74268 11.8945 8.23486C11.3672 7.69775 10.5273 7.69775 10 8.21533C9.48242 8.74268 9.48242 9.58252 10 10.1099ZM10.9668 4.69971C10.6543 5.00244 10.6543 5.51025 10.9668 5.81299L14.2969 9.15283C14.5996 9.45557 15.1074 9.45557 15.4102 9.15283C15.7129 8.8501 15.7129 8.34229 15.4102 8.03955L12.0703 4.69971C11.7676 4.39697 11.2695 4.39697 10.9668 4.69971ZM14.4824 5.64697C15.0098 6.14502 15.8496 6.15479 16.3672 5.62744C16.8848 5.10986 16.8848 4.27002 16.3672 3.75244C15.8496 3.2251 15 3.2251 14.4824 3.74268C13.9551 4.27002 13.9551 5.1001 14.4824 5.64697ZM15.4492 0.227051C15.1465 0.529785 15.1465 1.02783 15.4492 1.34033L18.7793 4.67041C19.082 4.98291 19.5898 4.98291 19.8926 4.67041C20.1953 4.36768 20.1953 3.86963 19.8926 3.56689L16.5625 0.227051C16.25-0.0756836 15.7422-0.0756836 15.4492 0.227051Z" fill="#000000" fill-opacity="0.85"/>
 </g>
</svg>
