<?xml version="1.0" encoding="UTF-8"?>
<!--Generator: Apple Native CoreSVG 175.5-->
<!DOCTYPE svg
PUBLIC "-//W3C//DTD SVG 1.1//EN"
       "http://www.w3.org/Graphics/SVG/1.1/DTD/svg11.dtd">
<svg version="1.1" xmlns="http://www.w3.org/2000/svg" xmlns:xlink="http://www.w3.org/1999/xlink" width="20.7446" height="22.3193">
 <g>
  <rect height="22.3193" opacity="0" width="20.7446" x="0" y="0"/>
  <path d="M14.1992 20.7349C15.8984 20.7349 17.0215 20.2759 18.0176 19.1626C18.0957 19.0845 18.1641 18.9966 18.2422 18.9185C18.8281 18.2642 19.1016 17.6196 19.1016 17.0044C19.1016 16.3013 18.6914 15.647 17.8223 15.0415L14.9805 13.0688C14.1016 12.4634 13.0762 12.395 12.2559 13.2056L11.5039 13.9575C11.2793 14.1821 11.084 14.1919 10.8594 14.0552C10.3418 13.7231 9.27734 12.7954 8.55469 12.0728C7.79297 11.3208 7.05078 10.481 6.66992 9.86572C6.5332 9.64111 6.55273 9.45557 6.77734 9.23096L7.51953 8.479C8.33984 7.65869 8.27148 6.62354 7.66602 5.75439L5.68359 2.9126C5.08789 2.04346 4.43359 1.64307 3.73047 1.6333C3.11523 1.62354 2.4707 1.90674 1.81641 2.49268C1.72852 2.5708 1.65039 2.63916 1.5625 2.70752C0.458984 3.70361 0 4.82666 0 6.51611C0 9.30908 1.71875 12.7075 4.87305 15.8618C8.00781 18.9966 11.416 20.7349 14.1992 20.7349ZM14.209 19.231C11.7188 19.2798 8.52539 17.3657 5.99609 14.8462C3.44727 12.3071 1.44531 9.00635 1.49414 6.51611C1.51367 5.44189 1.88477 4.51416 2.65625 3.8501C2.71484 3.7915 2.77344 3.74268 2.8418 3.69385C3.125 3.43994 3.44727 3.30322 3.7207 3.30322C4.01367 3.30322 4.26758 3.41064 4.45312 3.70361L6.34766 6.54541C6.55273 6.84814 6.57227 7.18994 6.26953 7.49268L5.41016 8.35205C4.72656 9.02588 4.78516 9.84619 5.27344 10.5005C5.83008 11.2524 6.79688 12.3462 7.53906 13.0884C8.29102 13.8403 9.47266 14.895 10.2246 15.4614C10.8789 15.9497 11.709 15.9985 12.3828 15.3247L13.2422 14.4653C13.5449 14.1626 13.877 14.1821 14.1797 14.3774L17.0215 16.272C17.3145 16.4673 17.4316 16.7114 17.4316 17.0044C17.4316 17.2876 17.2949 17.6001 17.0312 17.8931C16.9824 17.9614 16.9434 18.0103 16.8848 18.0786C16.2109 18.8403 15.2832 19.2114 14.209 19.231Z" fill="#000000" fill-opacity="0.85"/>
  <path d="M10.625 10.1099C11.1523 10.6372 11.9922 10.6372 12.5195 10.1099C13.0371 9.58252 13.0371 8.74268 12.5195 8.23486C11.9922 7.69775 11.1523 7.69775 10.625 8.21533C10.0977 8.74268 10.0977 9.58252 10.625 10.1099ZM11.5918 4.69971C11.2793 5.00244 11.2793 5.51025 11.5918 5.81299L14.9219 9.15283C15.2246 9.45557 15.7324 9.45557 16.0352 9.15283C16.3379 8.8501 16.3379 8.34229 16.0352 8.03955L12.6953 4.69971C12.3926 4.39697 11.8848 4.39697 11.5918 4.69971ZM15.1074 5.64697C15.6348 6.14502 16.4746 6.15479 16.9922 5.62744C17.5098 5.10986 17.5098 4.27002 16.9922 3.75244C16.4746 3.2251 15.625 3.2251 15.1074 3.74268C14.5801 4.27002 14.5801 5.1001 15.1074 5.64697ZM16.0742 0.227051C15.7715 0.529785 15.7715 1.02783 16.0742 1.34033L19.3945 4.67041C19.707 4.98291 20.2148 4.98291 20.5176 4.67041C20.8203 4.36768 20.8203 3.86963 20.5176 3.56689L17.1875 0.227051C16.875-0.0756836 16.3672-0.0756836 16.0742 0.227051Z" fill="#000000" fill-opacity="0.85"/>
 </g>
</svg>
