<?xml version="1.0" encoding="UTF-8"?>
<!--Generator: Apple Native CoreSVG 175.5-->
<!DOCTYPE svg
PUBLIC "-//W3C//DTD SVG 1.1//EN"
       "http://www.w3.org/Graphics/SVG/1.1/DTD/svg11.dtd">
<svg version="1.1" xmlns="http://www.w3.org/2000/svg" xmlns:xlink="http://www.w3.org/1999/xlink" width="24.4141" height="20.1855">
 <g>
  <rect height="20.1855" opacity="0" width="24.4141" x="0" y="0"/>
  <path d="M23.291 13.9062L17.4805 8.45703C17.0508 8.05664 16.543 7.86133 16.0059 7.86133C15.4785 7.86133 14.9902 8.04688 14.541 8.44727L9.52148 12.9297L9.95117 12.9297L7.53906 10.752C7.13867 10.3809 6.68945 10.1953 6.23047 10.1953C5.78125 10.1953 5.36133 10.3809 4.9707 10.7422L1.24023 14.1113C1.24023 15.4199 1.74805 16.084 2.75391 16.084L21.3477 16.084C22.5879 16.084 23.291 15.3027 23.291 13.9062ZM7.95898 8.57422C9.20898 8.57422 10.2441 7.53906 10.2441 6.25C10.2441 5 9.20898 3.95508 7.95898 3.95508C6.68945 3.95508 5.64453 5 5.64453 6.25C5.64453 7.53906 6.68945 8.57422 7.95898 8.57422ZM2.50977 16.875L21.9043 16.875C23.5547 16.875 24.4141 16.0254 24.4141 14.3652L24.4141 3.17383C24.4141 1.52344 23.5547 0.673828 21.9043 0.673828L2.50977 0.673828C0.859375 0.673828 0 1.52344 0 3.17383L0 14.3652C0 16.0254 0.859375 16.875 2.50977 16.875ZM2.53906 15.3027C1.89453 15.3027 1.57227 14.9805 1.57227 14.3457L1.57227 3.20312C1.57227 2.55859 1.89453 2.24609 2.53906 2.24609L21.875 2.24609C22.5195 2.24609 22.8418 2.55859 22.8418 3.20312L22.8418 14.3457C22.8418 14.9805 22.5195 15.3027 21.875 15.3027ZM7.29492 20.1855L17.1191 20.1855C17.5488 20.1855 17.9102 19.834 17.9102 19.3945C17.9102 18.9551 17.5488 18.6035 17.1191 18.6035L7.29492 18.6035C6.86523 18.6035 6.50391 18.9551 6.50391 19.3945C6.50391 19.834 6.86523 20.1855 7.29492 20.1855Z" fill="#000000" fill-opacity="0.85"/>
 </g>
</svg>
