<?xml version="1.0" encoding="UTF-8"?>
<!--Generator: Apple Native CoreSVG 175.5-->
<!DOCTYPE svg
PUBLIC "-//W3C//DTD SVG 1.1//EN"
       "http://www.w3.org/Graphics/SVG/1.1/DTD/svg11.dtd">
<svg version="1.1" xmlns="http://www.w3.org/2000/svg" xmlns:xlink="http://www.w3.org/1999/xlink" width="24.8929" height="21.2032">
 <g>
  <rect height="21.2032" opacity="0" width="24.8929" x="0" y="0"/>
  <path d="M1.68001 14.9619C2.04134 16.9444 3.20345 17.7549 5.22493 17.4034L6.43587 17.1983L6.43587 15.6065L4.98079 15.8506C4.01399 16.0264 3.38899 15.6065 3.21321 14.6104L1.64095 5.70413C1.46517 4.69828 1.90462 4.08304 2.87142 3.91703L15.8499 1.63187C16.7972 1.46585 17.432 1.87601 17.6175 2.88187L18.1253 5.72367L19.7171 5.72367L19.1409 2.53031C18.7894 0.547885 17.6175-0.272428 15.6058 0.0791346L2.56868 2.37406C0.556963 2.73538-0.273115 3.90726 0.0784478 5.88968Z" fill="#000000" fill-opacity="0.85"/>
  <path d="M8.52571 19.9717L21.6019 19.9717C23.3011 19.9717 24.1995 19.1123 24.1995 17.4034L24.1995 16.7784L19.6781 12.501C19.2972 12.1494 18.8284 11.9737 18.3499 11.9737C17.8714 11.9737 17.4417 12.1299 17.0316 12.4912L13.0863 15.9873L11.5238 14.5713C11.1429 14.2295 10.7523 14.0733 10.3324 14.0733C9.95149 14.0733 9.59017 14.2295 9.20931 14.5518L5.91829 17.4131C5.91829 19.1123 6.82649 19.9717 8.52571 19.9717ZM12.3831 12.7159C13.5257 12.7159 14.4534 11.7686 14.4534 10.626C14.4534 9.50296 13.5257 8.5557 12.3831 8.5557C11.2406 8.5557 10.3226 9.50296 10.3226 10.626C10.3226 11.7686 11.2406 12.7159 12.3831 12.7159ZM8.49642 20.4893L21.8363 20.4893C23.8675 20.4893 24.8929 19.4737 24.8929 17.4619L24.8929 8.25296C24.8929 6.24124 23.8675 5.22562 21.8363 5.22562L8.49642 5.22562C6.44564 5.22562 5.43001 6.24124 5.43001 8.25296L5.43001 17.4619C5.43001 19.4834 6.44564 20.4893 8.49642 20.4893ZM8.51595 18.917C7.53939 18.917 7.00228 18.3994 7.00228 17.3838L7.00228 8.34085C7.00228 7.32523 7.53939 6.79788 8.51595 6.79788L21.807 6.79788C22.7738 6.79788 23.3206 7.32523 23.3206 8.34085L23.3206 17.3838C23.3206 18.3994 22.7738 18.917 21.807 18.917Z" fill="#000000" fill-opacity="0.85"/>
 </g>
</svg>
