<?xml version="1.0" encoding="UTF-8"?>
<!--Generator: Apple Native CoreSVG 175.5-->
<!DOCTYPE svg
PUBLIC "-//W3C//DTD SVG 1.1//EN"
       "http://www.w3.org/Graphics/SVG/1.1/DTD/svg11.dtd">
<svg version="1.1" xmlns="http://www.w3.org/2000/svg" xmlns:xlink="http://www.w3.org/1999/xlink" width="19.1565" height="23.3691">
 <g>
  <rect height="23.3691" opacity="0" width="19.1565" x="0" y="0"/>
  <path d="M2.38037 14.6973C2.38037 15.5273 2.93701 16.0742 3.81592 16.0742L9.09912 16.0742L9.09912 20.6348C9.09912 22.1289 9.72412 23.3691 9.96826 23.3691C10.2026 23.3691 10.8276 22.1289 10.8276 20.6348L10.8276 16.2109L11.394 16.2109L5.37842 10.1758C3.49365 11.2793 2.38037 13.0176 2.38037 14.6973ZM4.76318 0.605469C4.06982 0.605469 3.62061 1.04492 3.62061 1.64062C3.62061 1.92383 3.72803 2.24609 3.98193 2.57812C4.47998 3.24219 5.66162 4.16992 7.09717 4.98047L7.00928 6.25977L16.7261 15.9668C17.2437 15.7617 17.5464 15.3125 17.5464 14.6973C17.5464 12.6367 15.896 10.459 13.1519 9.46289L12.8296 4.98047C14.2554 4.16992 15.4175 3.26172 15.9253 2.60742C16.189 2.26562 16.3159 1.93359 16.3159 1.64062C16.3159 1.04492 15.8569 0.605469 15.1733 0.605469Z" fill="#000000" fill-opacity="0.85"/>
  <path d="M0.212402 3.30078L17.8687 20.9375C18.1714 21.2305 18.6499 21.2305 18.9331 20.9375C19.2261 20.6445 19.2358 20.166 18.9331 19.873L1.28662 2.23633C0.993652 1.94336 0.505371 1.93359 0.212402 2.23633C-0.0708008 2.51953-0.0708008 3.00781 0.212402 3.30078Z" fill="#000000" fill-opacity="0.85"/>
 </g>
</svg>
