<?xml version="1.0" encoding="UTF-8"?>
<!--Generator: Apple Native CoreSVG 175.5-->
<!DOCTYPE svg
PUBLIC "-//W3C//DTD SVG 1.1//EN"
       "http://www.w3.org/Graphics/SVG/1.1/DTD/svg11.dtd">
<svg version="1.1" xmlns="http://www.w3.org/2000/svg" xmlns:xlink="http://www.w3.org/1999/xlink" width="25.3027" height="20.4785">
 <g>
  <rect height="20.4785" opacity="0" width="25.3027" x="0" y="0"/>
  <path d="M3.06641 15.957L10.293 15.957L10.293 14.3848L3.08594 14.3848C2.10938 14.3848 1.57227 13.8574 1.57227 12.8418L1.57227 3.13477C1.57227 2.11914 2.10938 1.5918 3.08594 1.5918L17.2852 1.5918C18.252 1.5918 18.7988 2.11914 18.7988 3.13477L18.7988 8.78906L20.3711 8.78906L20.3711 3.04688C20.3711 1.03516 19.3457 0.0195312 17.3145 0.0195312L3.06641 0.0195312C1.01562 0.0195312 0 1.03516 0 3.04688L0 12.9297C0 14.9414 1.01562 15.957 3.06641 15.957Z" fill="#000000" fill-opacity="0.85"/>
  <path d="M12.6465 20.4785L22.2461 20.4785C24.2773 20.4785 25.3027 19.4629 25.3027 17.4512L25.3027 11.123C25.3027 9.11133 24.2773 8.0957 22.2461 8.0957L12.6465 8.0957C10.6055 8.0957 9.58008 9.10156 9.58008 11.123L9.58008 17.4512C9.58008 19.4629 10.6055 20.4785 12.6465 20.4785ZM7.68555 4.17969C7.63672 3.87695 7.27539 3.55469 6.88477 3.93555L5.80078 5.00977L4.20898 3.4082C3.97461 3.17383 3.58398 3.17383 3.34961 3.4082C3.11523 3.64258 3.11523 4.0332 3.34961 4.26758L4.95117 5.85938L3.87695 6.94336C3.49609 7.33398 3.81836 7.69531 4.12109 7.74414L7.64648 8.29102C7.82227 8.32031 7.97852 8.26172 8.0957 8.1543C8.20312 8.03711 8.26172 7.88086 8.23242 7.70508ZM12.9297 14.6094L12.373 11.084C12.3535 10.9082 12.4121 10.752 12.5098 10.6348C12.627 10.5273 12.793 10.4688 12.959 10.498L16.4941 11.0449C16.7871 11.084 17.1191 11.4648 16.7383 11.8457L15.6641 12.9297L17.2656 14.5215C17.5 14.7559 17.5 15.1465 17.2656 15.3809C17.0215 15.6152 16.6406 15.6152 16.4062 15.3809L14.8047 13.7793L13.7207 14.8535C13.3496 15.2441 12.9688 14.9121 12.9297 14.6094Z" fill="#000000" fill-opacity="0.85"/>
 </g>
</svg>
