<?xml version="1.0" encoding="UTF-8"?>
<!--Generator: Apple Native CoreSVG 175.5-->
<!DOCTYPE svg
PUBLIC "-//W3C//DTD SVG 1.1//EN"
       "http://www.w3.org/Graphics/SVG/1.1/DTD/svg11.dtd">
<svg version="1.1" xmlns="http://www.w3.org/2000/svg" xmlns:xlink="http://www.w3.org/1999/xlink" width="25.3027" height="20.4785">
 <g>
  <rect height="20.4785" opacity="0" width="25.3027" x="0" y="0"/>
  <path d="M3.06641 15.957L10.293 15.957L10.293 14.3848L3.08594 14.3848C2.10938 14.3848 1.57227 13.8574 1.57227 12.8418L1.57227 3.13477C1.57227 2.11914 2.10938 1.5918 3.08594 1.5918L17.2852 1.5918C18.252 1.5918 18.7988 2.11914 18.7988 3.13477L18.7988 8.78906L20.3711 8.78906L20.3711 3.04688C20.3711 1.03516 19.3457 0.0195312 17.3145 0.0195312L3.06641 0.0195312C1.01562 0.0195312 0 1.03516 0 3.04688L0 12.9297C0 14.9414 1.01562 15.957 3.06641 15.957Z" fill="#000000" fill-opacity="0.85"/>
  <path d="M12.6465 20.4785L22.2461 20.4785C24.2773 20.4785 25.3027 19.4629 25.3027 17.4512L25.3027 11.123C25.3027 9.11133 24.2773 8.0957 22.2461 8.0957L12.6465 8.0957C10.6055 8.0957 9.58008 9.10156 9.58008 11.123L9.58008 17.4512C9.58008 19.4629 10.6055 20.4785 12.6465 20.4785ZM7.68555 4.17969C7.64648 3.87695 7.26562 3.54492 6.88477 3.93555L5.80078 5.00977L4.20898 3.4082C3.97461 3.17383 3.58398 3.17383 3.34961 3.4082C3.11523 3.64258 3.11523 4.0332 3.34961 4.26758L4.95117 5.85938L3.87695 6.94336C3.48633 7.32422 3.81836 7.70508 4.12109 7.74414L7.64648 8.29102C7.82227 8.32031 7.97852 8.26172 8.0957 8.1543C8.20312 8.03711 8.26172 7.88086 8.23242 7.70508Z" fill="#000000" fill-opacity="0.85"/>
 </g>
</svg>
