<?xml version="1.0" encoding="UTF-8"?>
<!--Generator: Apple Native CoreSVG 175.5-->
<!DOCTYPE svg
PUBLIC "-//W3C//DTD SVG 1.1//EN"
       "http://www.w3.org/Graphics/SVG/1.1/DTD/svg11.dtd">
<svg version="1.1" xmlns="http://www.w3.org/2000/svg" xmlns:xlink="http://www.w3.org/1999/xlink" width="25.3027" height="20.4785">
 <g>
  <rect height="20.4785" opacity="0" width="25.3027" x="0" y="0"/>
  <path d="M3.06641 15.957L10.293 15.957L10.293 14.3848L3.08594 14.3848C2.10938 14.3848 1.57227 13.8574 1.57227 12.8418L1.57227 3.13477C1.57227 2.11914 2.10938 1.5918 3.08594 1.5918L17.2852 1.5918C18.252 1.5918 18.7988 2.11914 18.7988 3.13477L18.7988 8.78906L20.3711 8.78906L20.3711 3.04688C20.3711 1.03516 19.3457 0.0195312 17.3145 0.0195312L3.06641 0.0195312C1.01562 0.0195312 0 1.03516 0 3.04688L0 12.9297C0 14.9414 1.01562 15.957 3.06641 15.957Z" fill="#000000" fill-opacity="0.85"/>
  <path d="M12.6465 20.4785L22.2461 20.4785C24.2773 20.4785 25.3027 19.4629 25.3027 17.4512L25.3027 11.123C25.3027 9.11133 24.2773 8.0957 22.2461 8.0957L12.6465 8.0957C10.6055 8.0957 9.58008 9.10156 9.58008 11.123L9.58008 17.4512C9.58008 19.4629 10.6055 20.4785 12.6465 20.4785Z" fill="#000000" fill-opacity="0.85"/>
  <path d="M14.7852 17.7246C14.3555 17.7246 14.0039 17.373 14.0039 16.9336C14.0039 16.7285 14.1016 16.543 14.2383 16.3965L16.3379 14.2871L14.2383 12.1777C14.1016 12.0215 14.0039 11.8457 14.0039 11.6309C14.0039 11.2012 14.3555 10.8594 14.7852 10.8594C15.0098 10.8594 15.1758 10.9473 15.332 11.0938L17.4414 13.1934L19.5703 11.084C19.7363 10.9277 19.9023 10.8398 20.1074 10.8398C20.5469 10.8398 20.8984 11.1914 20.8984 11.6211C20.8984 11.8359 20.8203 12.002 20.6543 12.168L18.5547 14.2871L20.6445 16.3867C20.8008 16.5332 20.8887 16.7188 20.8887 16.9336C20.8887 17.373 20.5371 17.7246 20.0977 17.7246C19.873 17.7246 19.6875 17.6367 19.541 17.4902L17.4414 15.3906L15.3516 17.4902C15.2051 17.6465 15.0098 17.7246 14.7852 17.7246Z" fill="#ffffff"/>
 </g>
</svg>
