<?xml version="1.0" encoding="UTF-8"?>
<!--Generator: Apple Native CoreSVG 175.5-->
<!DOCTYPE svg
PUBLIC "-//W3C//DTD SVG 1.1//EN"
       "http://www.w3.org/Graphics/SVG/1.1/DTD/svg11.dtd">
<svg version="1.1" xmlns="http://www.w3.org/2000/svg" xmlns:xlink="http://www.w3.org/1999/xlink" width="23.5742" height="18.7012">
 <g>
  <rect height="18.7012" opacity="0" width="23.5742" x="0" y="0"/>
  <path d="M2.00195 10.4492L3.23242 10.4492C4.56055 10.4492 5.22461 9.80469 5.22461 8.50586L5.22461 1.94336C5.22461 0.644531 4.56055 0 3.23242 0L2.00195 0C0.664062 0 0 0.644531 0 1.94336L0 8.50586C0 9.80469 0.664062 10.4492 2.00195 10.4492ZM2.00195 8.97461C1.65039 8.97461 1.47461 8.79883 1.47461 8.4375L1.47461 2.01172C1.47461 1.65039 1.65039 1.47461 2.00195 1.47461L3.23242 1.47461C3.57422 1.47461 3.75 1.65039 3.75 2.01172L3.75 8.4375C3.75 8.79883 3.57422 8.97461 3.23242 8.97461ZM20.3516 10.4492L21.5723 10.4492C22.9199 10.4492 23.5742 9.80469 23.5742 8.50586L23.5742 1.94336C23.5742 0.644531 22.9199 0 21.5723 0L20.3516 0C19.0137 0 18.3496 0.644531 18.3496 1.94336L18.3496 8.50586C18.3496 9.80469 19.0137 10.4492 20.3516 10.4492ZM20.3516 8.97461C20 8.97461 19.8242 8.79883 19.8242 8.4375L19.8242 2.01172C19.8242 1.65039 20 1.47461 20.3516 1.47461L21.5723 1.47461C21.9238 1.47461 22.0996 1.65039 22.0996 2.01172L22.0996 8.4375C22.0996 8.79883 21.9238 8.97461 21.5723 8.97461ZM4.50195 3.7207L19.082 3.7207L19.082 2.29492L4.50195 2.29492ZM4.50195 8.0957L8.59375 8.0957L9.35547 6.66992L4.50195 6.66992ZM19.082 8.0957L19.082 6.66992L14.2383 6.66992L15.0098 8.0957Z" fill="#000000" fill-opacity="0.85"/>
  <path d="M11.7969 18.7012C14.2285 18.7012 16.1621 16.8066 16.1621 14.4336C16.1621 13.1348 15.5078 11.8457 14.9609 10.8301L12.7637 6.73828C12.5098 6.26953 12.2266 6.05469 11.7969 6.05469C11.3672 6.05469 11.084 6.26953 10.8301 6.72852L8.64258 10.8301C8.0957 11.8457 7.44141 13.1348 7.44141 14.4336C7.44141 16.8066 9.375 18.7012 11.7969 18.7012ZM11.7969 17.3145C10.1465 17.3145 8.82812 16.0449 8.82812 14.4336C8.82812 13.4473 9.32617 12.5 9.87305 11.4746L11.6992 8.06641C11.7578 7.96875 11.8555 7.96875 11.9141 8.06641L13.7305 11.4746C14.2676 12.5 14.7754 13.4473 14.7754 14.4336C14.7754 16.0449 13.457 17.3145 11.7969 17.3145Z" fill="#000000" fill-opacity="0.85"/>
 </g>
</svg>
