<?xml version="1.0" encoding="UTF-8"?>
<!--Generator: Apple Native CoreSVG 175.5-->
<!DOCTYPE svg
PUBLIC "-//W3C//DTD SVG 1.1//EN"
       "http://www.w3.org/Graphics/SVG/1.1/DTD/svg11.dtd">
<svg version="1.1" xmlns="http://www.w3.org/2000/svg" xmlns:xlink="http://www.w3.org/1999/xlink" width="23.5742" height="18.7012">
 <g>
  <rect height="18.7012" opacity="0" width="23.5742" x="0" y="0"/>
  <path d="M1.80664 10.4492L3.42773 10.4492C4.58008 10.4492 5.22461 9.82422 5.22461 8.70117L5.22461 1.74805C5.22461 0.625 4.58008 0 3.42773 0L1.80664 0C0.644531 0 0 0.625 0 1.74805L0 8.70117C0 9.82422 0.644531 10.4492 1.80664 10.4492ZM4.50195 8.0957L8.59375 8.0957L9.6582 6.10352C10.1367 5.19531 10.8691 4.7168 11.7969 4.7168C12.7148 4.7168 13.4375 5.19531 13.9258 6.10352L15.0098 8.0957L19.082 8.0957L19.082 2.29492L4.50195 2.29492ZM20.1562 10.4492L21.7676 10.4492C22.9395 10.4492 23.5742 9.82422 23.5742 8.70117L23.5742 1.74805C23.5742 0.625 22.9395 0 21.7676 0L20.1562 0C18.9941 0 18.3496 0.625 18.3496 1.74805L18.3496 8.70117C18.3496 9.82422 18.9941 10.4492 20.1562 10.4492Z" fill="#000000" fill-opacity="0.85"/>
  <path d="M11.7969 18.7012C14.2285 18.7012 16.1621 16.8066 16.1621 14.4336C16.1621 13.1348 15.5078 11.8457 14.9609 10.8301L12.7637 6.73828C12.5098 6.26953 12.2266 6.05469 11.7969 6.05469C11.3672 6.05469 11.084 6.26953 10.8301 6.72852L8.64258 10.8301C8.0957 11.8457 7.44141 13.1348 7.44141 14.4336C7.44141 16.8066 9.375 18.7012 11.7969 18.7012Z" fill="#000000" fill-opacity="0.85"/>
 </g>
</svg>
