<?xml version="1.0" encoding="UTF-8"?>
<!--Generator: Apple Native CoreSVG 175.5-->
<!DOCTYPE svg
PUBLIC "-//W3C//DTD SVG 1.1//EN"
       "http://www.w3.org/Graphics/SVG/1.1/DTD/svg11.dtd">
<svg version="1.1" xmlns="http://www.w3.org/2000/svg" xmlns:xlink="http://www.w3.org/1999/xlink" width="24.6367" height="19.0918">
 <g>
  <rect height="19.0918" opacity="0" width="24.6367" x="0" y="0"/>
  <path d="M9.23777 0C10.9468 0.380859 13.3784 1.11328 14.726 1.5625C18.1245 2.69531 19.3257 4.15039 19.3257 7.42188C19.3257 9.80469 18.2124 11.0645 16.5815 11.0645C16.0346 11.0645 15.4292 10.9082 14.7944 10.6152L14.7944 4.67773C14.7944 4.00391 14.726 3.4082 14.062 3.19336C13.5151 3.01758 13.2417 3.49609 13.2417 4.15039L13.2417 19.0625L9.23777 17.8027ZM13.9839 16.4746L13.9839 18.7598L22.1675 15.8496C23.3882 15.4102 24.1499 14.9902 24.4331 14.6094C24.8823 14.0234 24.6772 13.1055 22.9096 12.4902C21.0932 11.875 18.9448 11.6602 17.2358 11.7969C16.1811 11.8848 14.9116 12.2168 13.9839 12.5293L13.9839 14.9902L18.2905 13.4277C19.0132 13.1641 20.0288 13.1445 20.6538 13.3496C21.2495 13.5547 21.1909 13.8867 20.4292 14.1602ZM1.4741 16.0547C3.28074 16.6992 5.58542 17.2168 8.42722 16.6113L8.42722 14.541L6.53269 15.2344C5.75144 15.5273 4.49167 15.5762 4.05222 15.4199C3.42722 15.2148 3.55417 14.8047 4.38425 14.502L8.42722 13.0566L8.42722 10.7617L2.88035 12.7637C2.12839 13.0469 1.3862 13.252 0.52683 13.8379C-0.41067 14.4727-0.0981701 15.498 1.4741 16.0547Z" fill="#000000" fill-opacity="0.85"/>
 </g>
</svg>
