<?xml version="1.0" encoding="UTF-8"?>
<!--Generator: Apple Native CoreSVG 175.5-->
<!DOCTYPE svg
PUBLIC "-//W3C//DTD SVG 1.1//EN"
       "http://www.w3.org/Graphics/SVG/1.1/DTD/svg11.dtd">
<svg version="1.1" xmlns="http://www.w3.org/2000/svg" xmlns:xlink="http://www.w3.org/1999/xlink" width="19.9219" height="19.9316">
 <g>
  <rect height="19.9316" opacity="0" width="19.9219" x="0" y="0"/>
  <path d="M9.96094 19.9219C15.4102 19.9219 19.9219 15.4004 19.9219 9.96094C19.9219 4.51172 15.4004 0 9.95117 0C4.51172 0 0 4.51172 0 9.96094C0 15.4004 4.52148 19.9219 9.96094 19.9219ZM9.96094 18.2617C5.35156 18.2617 1.66992 14.5703 1.66992 9.96094C1.66992 5.35156 5.3418 1.66016 9.95117 1.66016C14.5605 1.66016 18.2617 5.35156 18.2617 9.96094C18.2617 14.5703 14.5703 18.2617 9.96094 18.2617Z" fill="#000000" fill-opacity="0.85"/>
  <path d="M7.74414 14.5117L14.2773 14.5117C15.166 14.5117 15.6152 14.0723 15.6152 13.1836L15.6152 8.61328C15.6152 7.74414 15.166 7.28516 14.2773 7.28516L7.74414 7.28516C6.8457 7.28516 6.40625 7.74414 6.40625 8.61328L6.40625 13.1836C6.40625 14.0723 6.8457 14.5117 7.74414 14.5117ZM9.70703 12.5781L9.70703 9.23828C9.70703 9.01367 9.93164 8.94531 10.1074 9.05273L12.9004 10.6934C13.0664 10.791 13.0762 11.0156 12.9102 11.1133L10.1074 12.7734C9.93164 12.8809 9.70703 12.793 9.70703 12.5781ZM5.82031 8.55469C5.82031 7.33398 6.45508 6.69922 7.68555 6.69922L13.4766 6.69922L13.4766 6.5918C13.4766 5.70312 13.0273 5.26367 12.1289 5.26367L5.60547 5.26367C4.70703 5.26367 4.25781 5.70312 4.25781 6.5918L4.25781 11.123C4.25781 12.002 4.70703 12.4512 5.60547 12.4512L5.82031 12.4512Z" fill="#000000" fill-opacity="0.85"/>
 </g>
</svg>
