<?xml version="1.0" encoding="UTF-8"?>
<!--Generator: Apple Native CoreSVG 175.5-->
<!DOCTYPE svg
PUBLIC "-//W3C//DTD SVG 1.1//EN"
       "http://www.w3.org/Graphics/SVG/1.1/DTD/svg11.dtd">
<svg version="1.1" xmlns="http://www.w3.org/2000/svg" xmlns:xlink="http://www.w3.org/1999/xlink" width="16.853" height="17.1484">
 <g>
  <rect height="17.1484" opacity="0" width="16.853" x="0" y="0"/>
  <path d="M10.3198 13.0322L2.0874 4.7998L2.0874 15.4443C2.0874 16.2939 2.53662 16.8506 3.25928 16.8506C3.6499 16.8506 3.98193 16.6943 4.37256 16.4697ZM13.7671 11.04L15.7593 9.8877C16.5698 9.40918 16.853 9.09668 16.853 8.5791C16.853 8.06152 16.5698 7.74902 15.7593 7.28027L4.37256 0.688477C4.03076 0.483398 3.73779 0.327148 3.396 0.327148C3.30811 0.327148 3.23975 0.405273 3.22998 0.512695Z" fill="#000000" fill-opacity="0.85"/>
  <path d="M14.6655 15.7178C14.9683 16.0107 15.4468 16.0107 15.73 15.7178C16.0229 15.4248 16.0327 14.9463 15.73 14.6533L1.28662 0.219727C0.993652-0.0732422 0.515137-0.0732422 0.212402 0.219727C-0.0708008 0.50293-0.0708008 1.00098 0.212402 1.28418Z" fill="#000000" fill-opacity="0.85"/>
 </g>
</svg>
