<?xml version="1.0" encoding="UTF-8"?>
<!--Generator: Apple Native CoreSVG 175.5-->
<!DOCTYPE svg
PUBLIC "-//W3C//DTD SVG 1.1//EN"
       "http://www.w3.org/Graphics/SVG/1.1/DTD/svg11.dtd">
<svg version="1.1" xmlns="http://www.w3.org/2000/svg" xmlns:xlink="http://www.w3.org/1999/xlink" width="26.3672" height="20.0684">
 <g>
  <rect height="20.0684" opacity="0" width="26.3672" x="0" y="0"/>
  <path d="M3.06641 18.9062L19.4043 18.9062C21.1523 18.9062 22.1777 17.8906 22.1777 15.8789L22.1777 11.0352L20.6055 11.0352L20.6055 15.8105C20.6055 16.8164 20.0488 17.334 19.082 17.334L3.08594 17.334C2.10938 17.334 1.57227 16.8164 1.57227 15.8008L1.57227 4.0625C1.57227 3.0957 2.08008 2.59766 3.01758 2.59766L5.07812 2.59766C5.72266 2.59766 6.11328 2.76367 6.61133 3.18359L7.20703 3.68164C7.8418 4.20898 8.35938 4.39453 9.32617 4.39453L12.6562 4.39453L12.6562 2.82227L9.73633 2.82227C9.07227 2.82227 8.67188 2.66602 8.18359 2.24609L7.58789 1.75781C6.94336 1.21094 6.44531 1.03516 5.47852 1.03516L2.69531 1.03516C0.986328 1.03516 0 2.01172 0 3.97461L0 15.8789C0 17.9004 1.02539 18.9062 3.06641 18.9062ZM0.957031 7.96875L12.6562 7.96875L12.6562 6.49414L0.957031 6.49414Z" fill="#000000" fill-opacity="0.85"/>
  <path d="M14.9121 11.8457L23.3008 11.8457C25.3418 11.8457 26.3672 10.8301 26.3672 8.81836L26.3672 3.02734C26.3672 1.00586 25.3418 0 23.3008 0L14.9121 0C12.8711 0 11.8555 1.00586 11.8555 3.02734L11.8555 8.81836C11.8555 10.8301 12.8711 11.8457 14.9121 11.8457ZM14.8633 10.3711C13.877 10.3711 13.3301 9.84375 13.3301 8.80859L13.3301 3.02734C13.3301 2.00195 13.877 1.47461 14.8633 1.47461L23.3594 1.47461C24.3359 1.47461 24.8926 2.00195 24.8926 3.02734L24.8926 8.80859C24.8926 9.84375 24.3359 10.3711 23.3789 10.3711ZM19.1113 9.04297C19.4727 9.04297 19.707 8.80859 19.707 8.44727L19.707 6.54297L21.6113 6.54297C21.9727 6.54297 22.2168 6.30859 22.2168 5.9375C22.2168 5.57617 21.9727 5.3418 21.6113 5.3418L19.707 5.3418L19.707 3.4375C19.707 3.07617 19.4727 2.83203 19.1113 2.83203C18.75 2.83203 18.5156 3.07617 18.5156 3.4375L18.5156 5.3418L16.6016 5.3418C16.25 5.3418 16.0059 5.57617 16.0059 5.9375C16.0059 6.30859 16.25 6.54297 16.6016 6.54297L18.5156 6.54297L18.5156 8.44727C18.5156 8.80859 18.75 9.04297 19.1113 9.04297Z" fill="#000000" fill-opacity="0.85"/>
 </g>
</svg>
