<?xml version="1.0" encoding="UTF-8"?>
<!--Generator: Apple Native CoreSVG 175.5-->
<!DOCTYPE svg
PUBLIC "-//W3C//DTD SVG 1.1//EN"
       "http://www.w3.org/Graphics/SVG/1.1/DTD/svg11.dtd">
<svg version="1.1" xmlns="http://www.w3.org/2000/svg" xmlns:xlink="http://www.w3.org/1999/xlink" width="20.8789" height="17.041">
 <g>
  <rect height="17.041" opacity="0" width="20.8789" x="0" y="0"/>
  <path d="M7.93945 4.08203C8.37891 4.08203 8.75977 3.71094 8.75977 3.25195C8.75977 2.8125 8.37891 2.43164 7.93945 2.43164C7.48047 2.43164 7.10938 2.8125 7.10938 3.25195C7.10938 3.71094 7.48047 4.08203 7.93945 4.08203ZM10.4199 4.08203C10.8789 4.08203 11.25 3.71094 11.25 3.25195C11.25 2.8125 10.8789 2.43164 10.4199 2.43164C9.98047 2.43164 9.59961 2.8125 9.59961 3.25195C9.59961 3.71094 9.98047 4.08203 10.4199 4.08203ZM12.9297 4.08203C13.3789 4.08203 13.7598 3.71094 13.7598 3.25195C13.7598 2.8125 13.3789 2.43164 12.9297 2.43164C12.4805 2.43164 12.1094 2.8125 12.1094 3.25195C12.1094 3.71094 12.4805 4.08203 12.9297 4.08203ZM15.2148 8.4375C15.6738 8.4375 16.0449 8.05664 16.0449 7.60742C16.0449 7.1582 15.6738 6.78711 15.2148 6.78711C14.7754 6.78711 14.4043 7.1582 14.4043 7.60742C14.4043 8.05664 14.7754 8.4375 15.2148 8.4375ZM13.3984 10.4395C13.8574 10.4395 14.2285 10.0684 14.2285 9.60938C14.2285 9.16992 13.8574 8.78906 13.3984 8.78906C12.959 8.78906 12.5781 9.16992 12.5781 9.60938C12.5781 10.0684 12.959 10.4395 13.3984 10.4395ZM7.46094 10.4395C7.91016 10.4395 8.28125 10.0684 8.28125 9.60938C8.28125 9.16992 7.91016 8.78906 7.46094 8.78906C7.01172 8.78906 6.63086 9.16992 6.63086 9.60938C6.63086 10.0684 7.01172 10.4395 7.46094 10.4395ZM5.64453 8.4375C6.09375 8.4375 6.46484 8.05664 6.46484 7.60742C6.46484 7.1582 6.09375 6.78711 5.64453 6.78711C5.18555 6.78711 4.81445 7.1582 4.81445 7.60742C4.81445 8.05664 5.18555 8.4375 5.64453 8.4375Z" fill="#000000" fill-opacity="0.85"/>
  <path d="M3.14453 6.31836C4.88281 6.31836 6.28906 4.91211 6.28906 3.16406C6.28906 1.43555 4.88281 0.0195312 3.14453 0.0195312C1.40625 0.0195312 0 1.43555 0 3.16406C0 4.91211 1.40625 6.31836 3.14453 6.31836ZM3.14453 4.78516C2.24609 4.78516 1.5332 4.07227 1.5332 3.16406C1.5332 2.25586 2.24609 1.55273 3.14453 1.55273C4.05273 1.55273 4.75586 2.25586 4.75586 3.16406C4.75586 4.07227 4.0625 4.78516 3.14453 4.78516ZM17.7246 6.31836C19.4727 6.31836 20.8789 4.91211 20.8789 3.16406C20.8789 1.43555 19.4727 0.0195312 17.7246 0.0195312C15.9961 0.0195312 14.5801 1.43555 14.5801 3.16406C14.5801 4.91211 15.9961 6.31836 17.7246 6.31836ZM17.7246 4.78516C16.8262 4.78516 16.1133 4.07227 16.1133 3.16406C16.1133 2.25586 16.8359 1.55273 17.7246 1.55273C18.6426 1.55273 19.3457 2.25586 19.3457 3.16406C19.3457 4.07227 18.6426 4.78516 17.7246 4.78516ZM10.4395 17.041C12.1777 17.041 13.584 15.625 13.584 13.8867C13.584 12.1484 12.1777 10.7422 10.4395 10.7422C8.70117 10.7422 7.29492 12.1484 7.29492 13.8867C7.29492 15.625 8.70117 17.041 10.4395 17.041ZM10.4395 15.5078C9.54102 15.5078 8.82812 14.7949 8.82812 13.8867C8.82812 12.9785 9.54102 12.2754 10.4395 12.2754C11.3477 12.2754 12.0508 12.9785 12.0508 13.8867C12.0508 14.7949 11.3477 15.5078 10.4395 15.5078Z" fill="#000000" fill-opacity="0.85"/>
 </g>
</svg>
