<?xml version="1.0" encoding="UTF-8"?>
<!--Generator: Apple Native CoreSVG 175.5-->
<!DOCTYPE svg
PUBLIC "-//W3C//DTD SVG 1.1//EN"
       "http://www.w3.org/Graphics/SVG/1.1/DTD/svg11.dtd">
<svg version="1.1" xmlns="http://www.w3.org/2000/svg" xmlns:xlink="http://www.w3.org/1999/xlink" width="17.6953" height="24.7168">
 <g>
  <rect height="24.7168" opacity="0" width="17.6953" x="0" y="0"/>
  <path d="M0.429688 7.12891C0.996094 6.81641 1.65039 6.65039 2.31445 6.65039C3.33984 6.65039 4.36523 7.05078 5.03906 7.88086C5.73242 6.875 6.94336 6.31836 8.16406 6.31836C9.38477 6.31836 10.5957 6.875 11.2891 7.88086C11.9629 7.05078 12.998 6.65039 14.043 6.65039C14.668 6.65039 15.3125 6.80664 15.8691 7.10938C16.2109 6.62109 16.416 6.04492 16.416 5.40039C16.416 3.7207 15.332 2.53906 13.7891 2.5C13.3789 1.55273 12.6172 0.917969 11.5625 0.917969C10.8887 0.917969 10.2734 1.15234 9.80469 1.58203C9.56055 1.51367 9.22852 1.49414 8.95508 1.55273C8.52539 0.605469 7.60742 0 6.5625 0C5.17578 0 4.25781 0.849609 4.0918 1.69922C3.33984 1.63086 2.71484 2.31445 2.71484 2.97852C1.23047 2.92969 0 4.16016 0 5.6543C0 6.17188 0.126953 6.65039 0.429688 7.12891ZM4.33594 23.1348L5.68359 23.1348L4.49219 10.0098C4.375 8.63281 3.32031 7.96875 2.26562 7.96875C0.996094 7.96875-0.283203 8.93555 0.0683594 10.8105L1.99219 20.9375C2.25586 22.3242 2.93945 23.1348 4.33594 23.1348ZM6.96289 23.1348L8.59375 23.1348L8.59375 23.0859C8.14453 22.4902 7.89062 21.748 7.89062 20.957C7.89062 19.5605 8.63281 18.3008 9.86328 17.6562L10.5371 10.0977C10.6934 8.33984 9.21875 7.64648 8.16406 7.64648C7.10938 7.64648 5.63477 8.33984 5.79102 10.0977ZM13.4961 15.1758C14.1797 15.1758 14.8047 15.3516 15.3418 15.6641L16.2598 10.8105C16.6211 8.93555 15.332 7.96875 14.0625 7.96875C13.0176 7.96875 11.9629 8.63281 11.8359 10.0098L11.2891 15.9961C11.8555 15.4883 12.6367 15.1758 13.4961 15.1758ZM13.4961 24.6973C14.4434 24.6973 15.3223 24.1602 15.7324 23.3398C17.041 23.0469 17.6953 22.0215 17.6953 20.9668C17.6953 19.8828 17.002 18.8574 15.7324 18.6523C15.6934 17.4121 14.7559 16.5137 13.4961 16.5137C12.2559 16.5137 11.3281 17.3828 11.2695 18.584C9.96094 18.7891 9.21875 19.8535 9.21875 20.957C9.21875 22.0508 9.94141 23.0859 11.2695 23.3594C11.6504 24.1602 12.5293 24.6973 13.4961 24.6973Z" fill="#000000" fill-opacity="0.85"/>
 </g>
</svg>
