<?xml version="1.0" encoding="UTF-8"?>
<!--Generator: Apple Native CoreSVG 175.5-->
<!DOCTYPE svg
PUBLIC "-//W3C//DTD SVG 1.1//EN"
       "http://www.w3.org/Graphics/SVG/1.1/DTD/svg11.dtd">
<svg version="1.1" xmlns="http://www.w3.org/2000/svg" xmlns:xlink="http://www.w3.org/1999/xlink" width="27.1387" height="18.7012">
 <g>
  <rect height="18.7012" opacity="0" width="27.1387" x="0" y="0"/>
  <path d="M0 11.3965C0 12.9004 0.771484 13.6621 2.30469 13.6621L5.84961 13.6621C7.36328 13.6621 8.17383 14.0723 9.16016 15.3613C10.8203 17.5 13.3691 18.6621 16.0059 18.6621L19.4238 18.6621C20.166 18.6621 20.6348 18.1934 20.6348 17.4609L20.6348 1.17188C20.6348 0.458984 20.1562 0 19.4238 0L16.0059 0C13.3691 0 10.8203 1.16211 9.16016 3.30078C8.17383 4.58984 7.36328 5.00977 5.84961 5.00977L2.30469 5.00977C0.771484 5.00977 0 5.76172 0 7.26562ZM1.47461 11.2402L1.47461 7.42188C1.47461 6.80664 1.82617 6.48438 2.41211 6.48438L5.84961 6.48438C7.83203 6.48438 9.05273 5.85938 10.3223 4.20898C11.6992 2.42188 13.8086 1.47461 16.0059 1.47461L18.8281 1.47461C19.043 1.47461 19.1602 1.5918 19.1602 1.79688L19.1602 16.8652C19.1602 17.0703 19.043 17.1875 18.8281 17.1875L16.0059 17.1875C13.8086 17.1875 11.6992 16.25 10.3223 14.4531C9.05273 12.8027 7.83203 12.1875 5.84961 12.1875L2.41211 12.1875C1.82617 12.1875 1.47461 11.8652 1.47461 11.2402ZM19.7559 7.13867L25.5566 7.13867C26.4258 7.13867 27.1387 6.42578 27.1387 5.55664C27.1387 4.6875 26.4258 3.97461 25.5566 3.97461L19.7559 3.97461ZM19.7559 14.6875L25.5566 14.6875C26.4258 14.6875 27.1387 13.9746 27.1387 13.1055C27.1387 12.2363 26.4258 11.5234 25.5566 11.5234L19.7559 11.5234Z" fill="#000000" fill-opacity="0.85"/>
 </g>
</svg>
