<?xml version="1.0" encoding="UTF-8"?>
<!--Generator: Apple Native CoreSVG 175.5-->
<!DOCTYPE svg
PUBLIC "-//W3C//DTD SVG 1.1//EN"
       "http://www.w3.org/Graphics/SVG/1.1/DTD/svg11.dtd">
<svg version="1.1" xmlns="http://www.w3.org/2000/svg" xmlns:xlink="http://www.w3.org/1999/xlink" width="37.9297" height="12.6465">
 <g>
  <rect height="12.6465" opacity="0" width="37.9297" x="0" y="0"/>
  <path d="M2.75391 11.1914L27.168 11.1914C28.7695 11.1914 29.9219 10.0293 29.9219 8.4375L29.9219 2.76367C29.9219 1.17188 28.7695 0 27.168 0L2.75391 0C1.15234 0 0 1.16211 0 2.76367L0 8.4375C0 10.0391 1.15234 11.1914 2.75391 11.1914ZM2.75391 9.81445C1.93359 9.81445 1.37695 9.24805 1.37695 8.4375L1.37695 2.76367C1.37695 1.94336 1.93359 1.37695 2.75391 1.37695L27.168 1.37695C27.9785 1.37695 28.5449 1.94336 28.5449 2.76367L28.5449 8.4375C28.5449 9.24805 27.9785 9.81445 27.168 9.81445ZM29.1895 8.96484L30.7031 8.96484C31.377 8.96484 31.875 8.47656 31.875 7.80273L31.875 3.60352C31.875 2.92969 31.377 2.44141 30.7031 2.44141L29.1895 2.44141L29.1895 3.52539L30.3711 3.52539C30.6152 3.52539 30.791 3.69141 30.791 3.93555L30.791 7.46094C30.791 7.71484 30.6152 7.88086 30.3711 7.88086L29.1895 7.88086ZM31.5918 6.41602L37.9297 6.41602L37.9297 5.13672L31.5918 5.13672Z" fill="#000000" fill-opacity="0.85"/>
  <path d="M3.74023 7.8125L4.4043 7.8125C4.67773 7.8125 4.87305 7.61719 4.87305 7.33398L4.87305 3.84766C4.87305 3.54492 4.67773 3.35938 4.4043 3.35938L3.74023 3.35938C3.44727 3.35938 3.26172 3.54492 3.26172 3.84766L3.26172 7.33398C3.26172 7.61719 3.44727 7.8125 3.74023 7.8125ZM9.60938 8.60352C11.2695 8.60352 12.6172 7.26562 12.6172 5.5957C12.6172 3.94531 11.2695 2.58789 9.60938 2.58789C7.94922 2.58789 6.60156 3.94531 6.60156 5.5957C6.60156 7.26562 7.94922 8.60352 9.60938 8.60352ZM8.50586 7.17773C8.27148 7.17773 8.07617 6.98242 8.07617 6.75781L8.07617 4.44336C8.07617 4.21875 8.27148 4.01367 8.50586 4.01367C8.74023 4.01367 8.91602 4.20898 8.91602 4.44336L8.91602 6.75781C8.91602 6.99219 8.74023 7.17773 8.50586 7.17773ZM10.7129 7.17773C10.4785 7.17773 10.2832 6.99219 10.2832 6.75781L10.2832 4.44336C10.2832 4.20898 10.4688 4.01367 10.7129 4.01367C10.9473 4.01367 11.123 4.20898 11.123 4.44336L11.123 6.75781C11.123 6.99219 10.9473 7.17773 10.7129 7.17773ZM16.8555 8.60352C18.5156 8.60352 19.873 7.26562 19.873 5.5957C19.873 3.94531 18.5156 2.58789 16.8555 2.58789C15.1953 2.58789 13.8574 3.94531 13.8574 5.5957C13.8574 7.26562 15.1953 8.60352 16.8555 8.60352ZM15.7422 7.17773C15.5176 7.17773 15.3223 6.99219 15.3223 6.75781L15.3223 4.44336C15.3223 4.21875 15.5176 4.01367 15.7422 4.01367C15.9863 4.01367 16.1719 4.20898 16.1719 4.44336L16.1719 6.75781C16.1719 6.99219 15.9863 7.17773 15.7422 7.17773ZM17.959 7.17773C17.7246 7.17773 17.5293 6.99219 17.5293 6.75781L17.5293 4.44336C17.5293 4.20898 17.7246 4.01367 17.959 4.01367C18.1934 4.01367 18.3789 4.20898 18.3789 4.44336L18.3789 6.75781C18.3789 6.99219 18.1836 7.17773 17.959 7.17773ZM24.1016 8.60352C25.7617 8.60352 27.1094 7.26562 27.1094 5.5957C27.1094 3.94531 25.7617 2.58789 24.1016 2.58789C22.4414 2.58789 21.1035 3.94531 21.1035 5.5957C21.1035 7.26562 22.4414 8.60352 24.1016 8.60352ZM22.998 7.17773C22.7637 7.17773 22.5684 6.99219 22.5684 6.75781L22.5684 4.44336C22.5684 4.21875 22.7637 4.01367 22.998 4.01367C23.2324 4.01367 23.418 4.20898 23.418 4.44336L23.418 6.75781C23.418 6.99219 23.2227 7.17773 22.998 7.17773ZM25.2051 7.17773C24.9707 7.17773 24.7754 6.99219 24.7754 6.75781L24.7754 4.44336C24.7754 4.20898 24.9609 4.01367 25.2051 4.01367C25.4395 4.01367 25.6152 4.20898 25.6152 4.44336L25.6152 6.75781C25.6152 6.99219 25.4395 7.17773 25.2051 7.17773Z" fill="#000000" fill-opacity="0.85"/>
 </g>
</svg>
