<?xml version="1.0" encoding="UTF-8"?>
<!--Generator: Apple Native CoreSVG 175.5-->
<!DOCTYPE svg
PUBLIC "-//W3C//DTD SVG 1.1//EN"
       "http://www.w3.org/Graphics/SVG/1.1/DTD/svg11.dtd">
<svg version="1.1" xmlns="http://www.w3.org/2000/svg" xmlns:xlink="http://www.w3.org/1999/xlink" width="19.6973" height="21.3965">
 <g>
  <rect height="21.3965" opacity="0" width="19.6973" x="0" y="0"/>
  <path d="M9.85352 2.32422C10.498 2.32422 11.0059 1.80664 11.0059 1.16211C11.0059 0.517578 10.498 0 9.85352 0C9.19922 0 8.69141 0.517578 8.69141 1.16211C8.69141 1.80664 9.19922 2.32422 9.85352 2.32422ZM9.85352 6.85547C10.498 6.85547 11.0059 6.34766 11.0059 5.70312C11.0059 5.04883 10.498 4.54102 9.85352 4.54102C9.19922 4.54102 8.69141 5.04883 8.69141 5.70312C8.69141 6.34766 9.19922 6.85547 9.85352 6.85547ZM9.85352 11.4062C10.498 11.4062 11.0059 10.8887 11.0059 10.2441C11.0059 9.59961 10.498 9.08203 9.85352 9.08203C9.19922 9.08203 8.69141 9.59961 8.69141 10.2441C8.69141 10.8887 9.19922 11.4062 9.85352 11.4062ZM3.02734 6.33789C3.67188 6.33789 4.18945 5.83008 4.18945 5.17578C4.18945 4.53125 3.67188 4.02344 3.02734 4.02344C2.38281 4.02344 1.86523 4.53125 1.86523 5.17578C1.86523 5.83008 2.38281 6.33789 3.02734 6.33789ZM1.16211 10.8105C1.80664 10.8105 2.31445 10.3027 2.31445 9.6582C2.31445 9.01367 1.80664 8.49609 1.16211 8.49609C0.517578 8.49609 0 9.01367 0 9.6582C0 10.3027 0.507812 10.8105 1.16211 10.8105ZM1.9043 15.3613C2.54883 15.3613 3.06641 14.8535 3.06641 14.209C3.06641 13.5645 2.54883 13.0469 1.9043 13.0469C1.25977 13.0469 0.742188 13.5645 0.742188 14.209C0.742188 14.8535 1.25977 15.3613 1.9043 15.3613ZM5.0293 19.1211C5.67383 19.1211 6.19141 18.6133 6.19141 17.9688C6.19141 17.3242 5.67383 16.8066 5.0293 16.8066C4.38477 16.8066 3.86719 17.3242 3.86719 17.9688C3.86719 18.6133 4.38477 19.1211 5.0293 19.1211ZM9.85352 20.5566C10.498 20.5566 11.0059 20.0391 11.0059 19.3945C11.0059 18.75 10.498 18.2324 9.85352 18.2324C9.19922 18.2324 8.69141 18.75 8.69141 19.3945C8.69141 20.0391 9.19922 20.5566 9.85352 20.5566ZM14.668 19.1211C15.3125 19.1211 15.8301 18.6133 15.8301 17.9688C15.8301 17.3242 15.3125 16.8066 14.668 16.8066C14.0234 16.8066 13.5156 17.3242 13.5156 17.9688C13.5156 18.6133 14.0234 19.1211 14.668 19.1211ZM17.793 15.3613C18.4375 15.3613 18.9551 14.8535 18.9551 14.209C18.9551 13.5645 18.4375 13.0469 17.793 13.0469C17.1484 13.0469 16.6309 13.5645 16.6309 14.209C16.6309 14.8535 17.1484 15.3613 17.793 15.3613ZM18.5449 10.8105C19.1895 10.8105 19.6973 10.3027 19.6973 9.6582C19.6973 9.01367 19.1797 8.49609 18.5352 8.49609C17.8906 8.49609 17.3828 9.01367 17.3828 9.6582C17.3828 10.3027 17.8906 10.8105 18.5449 10.8105ZM16.6699 6.33789C17.3145 6.33789 17.832 5.83008 17.832 5.17578C17.832 4.53125 17.3145 4.02344 16.6699 4.02344C16.0254 4.02344 15.5078 4.53125 15.5078 5.17578C15.5078 5.83008 16.0254 6.33789 16.6699 6.33789Z" fill="#000000" fill-opacity="0.85"/>
 </g>
</svg>
