<?xml version="1.0" encoding="UTF-8"?>
<!--Generator: Apple Native CoreSVG 175.5-->
<!DOCTYPE svg
PUBLIC "-//W3C//DTD SVG 1.1//EN"
       "http://www.w3.org/Graphics/SVG/1.1/DTD/svg11.dtd">
<svg version="1.1" xmlns="http://www.w3.org/2000/svg" xmlns:xlink="http://www.w3.org/1999/xlink" width="21.9434" height="21.3574">
 <g>
  <rect height="21.3574" opacity="0" width="21.9434" x="0" y="0"/>
  <path d="M3.86719 2.63672L18.0762 2.63672L18.0762 2.4707C18.0762 1.02539 16.9531 0.380859 15.3711 0.380859L6.57227 0.380859C5.05859 0.380859 3.86719 1.02539 3.86719 2.4707ZM2.90039 17.6172L3.125 17.6172L3.125 12.1973C3.125 10.7812 3.96484 9.94141 5.38086 9.94141L16.5625 9.94141C17.9785 9.94141 18.8184 10.7812 18.8184 12.1973L18.8184 17.6172L19.0332 17.6172C20.9375 17.6172 21.9434 16.6602 21.9434 14.7559L21.9434 6.80664C21.9434 4.90234 20.9375 3.93555 19.0332 3.93555L2.90039 3.93555C1.10352 3.93555 0 4.90234 0 6.80664L0 14.7559C0 16.6602 1.00586 17.6172 2.90039 17.6172ZM4.46289 20.0391C4.46289 20.8301 4.99023 21.3574 5.77148 21.3574L16.1719 21.3574C16.9629 21.3574 17.4805 20.8301 17.4805 20.0391L17.4805 12.1973C17.4805 11.6406 17.1191 11.2793 16.5625 11.2793L5.38086 11.2793C4.83398 11.2793 4.46289 11.6406 4.46289 12.1973ZM7.85156 19.8828C7.37305 19.8828 6.97266 19.502 6.97266 19.0039C6.97266 18.5156 7.37305 18.1348 7.85156 18.1348C8.33984 18.1348 8.74023 18.5156 8.74023 19.0039C8.74023 19.502 8.33984 19.8828 7.85156 19.8828ZM7.85156 17.1875C7.37305 17.1875 6.97266 16.8066 6.97266 16.3184C6.97266 15.8203 7.37305 15.4395 7.85156 15.4395C8.33984 15.4395 8.74023 15.8203 8.74023 16.3184C8.74023 16.8066 8.33984 17.1875 7.85156 17.1875ZM7.85156 14.502C7.37305 14.502 6.97266 14.1211 6.97266 13.623C6.97266 13.1348 7.37305 12.7539 7.85156 12.7539C8.33984 12.7539 8.74023 13.1348 8.74023 13.623C8.74023 14.1211 8.33984 14.502 7.85156 14.502ZM14.1016 19.8828C13.6133 19.8828 13.2227 19.502 13.2227 19.0039C13.2227 18.5156 13.6133 18.1348 14.1016 18.1348C14.5898 18.1348 14.9805 18.5156 14.9805 19.0039C14.9805 19.502 14.5898 19.8828 14.1016 19.8828ZM14.1016 17.1875C13.6133 17.1875 13.2227 16.8066 13.2227 16.3184C13.2227 15.8203 13.6133 15.4395 14.1016 15.4395C14.5898 15.4395 14.9805 15.8203 14.9805 16.3184C14.9805 16.8066 14.5898 17.1875 14.1016 17.1875ZM14.1016 14.502C13.6133 14.502 13.2227 14.1211 13.2227 13.623C13.2227 13.1348 13.6133 12.7539 14.1016 12.7539C14.5898 12.7539 14.9805 13.1348 14.9805 13.623C14.9805 14.1211 14.5898 14.502 14.1016 14.502ZM15.7227 7.16797C15.7227 6.49414 16.2988 5.9082 16.9922 5.9082C17.6562 5.9082 18.2422 6.49414 18.2422 7.16797C18.2422 7.86133 17.6562 8.4082 16.9922 8.41797C16.2988 8.41797 15.7227 7.87109 15.7227 7.16797Z" fill="#000000" fill-opacity="0.85"/>
 </g>
</svg>
