<?xml version="1.0" encoding="UTF-8"?>
<!--Generator: Apple Native CoreSVG 175.5-->
<!DOCTYPE svg
PUBLIC "-//W3C//DTD SVG 1.1//EN"
       "http://www.w3.org/Graphics/SVG/1.1/DTD/svg11.dtd">
<svg version="1.1" xmlns="http://www.w3.org/2000/svg" xmlns:xlink="http://www.w3.org/1999/xlink" width="22.0605" height="21.3574">
 <g>
  <rect height="21.3574" opacity="0" width="22.0605" x="0" y="0"/>
  <path d="M2.91016 18.457L4.84375 18.457L4.84375 16.9824L2.89062 16.9824C2.02148 16.9824 1.58203 16.5332 1.58203 15.6738L1.58203 6.37695C1.58203 5.51758 2.02148 5.06836 2.89062 5.06836L19.1797 5.06836C20.0391 5.06836 20.4883 5.51758 20.4883 6.37695L20.4883 15.6738C20.4883 16.5332 20.0391 16.9824 19.1797 16.9824L17.3535 16.9824L17.3535 18.457L19.1602 18.457C21.0547 18.457 22.0605 17.5 22.0605 15.5957L22.0605 6.45508C22.0605 4.56055 21.0547 3.59375 19.1602 3.59375L2.91016 3.59375C1.10352 3.59375 0 4.56055 0 6.45508L0 15.5957C0 17.5 1.00586 18.457 2.91016 18.457ZM5.80078 21.3574L16.2598 21.3574C17.5 21.3574 18.125 20.791 18.125 19.4922L18.125 11.5234C18.125 10.2246 17.5 9.6582 16.2598 9.6582L5.80078 9.6582C4.61914 9.6582 3.93555 10.2246 3.93555 11.5234L3.93555 19.4922C3.93555 20.791 4.56055 21.3574 5.80078 21.3574ZM6.28906 19.8828C5.77148 19.8828 5.50781 19.6289 5.50781 19.1016L5.50781 11.9043C5.50781 11.377 5.77148 11.1328 6.28906 11.1328L15.7812 11.1328C16.3086 11.1328 16.5527 11.377 16.5527 11.9043L16.5527 19.1016C16.5527 19.6289 16.3086 19.8828 15.7812 19.8828ZM3.86719 4.47266L5.38086 4.47266L5.38086 2.96875C5.38086 2.14844 5.80078 1.74805 6.61133 1.74805L15.4492 1.74805C16.2695 1.74805 16.6797 2.14844 16.6797 2.96875L16.6797 4.45312L18.1934 4.45312L18.1934 3.07617C18.1934 1.17188 17.2461 0.322266 15.4297 0.322266L6.63086 0.322266C4.91211 0.322266 3.86719 1.17188 3.86719 3.07617ZM7.64648 14.4043L14.4434 14.4043C14.7852 14.4043 15.0391 14.1406 15.0391 13.7891C15.0391 13.457 14.7852 13.2031 14.4434 13.2031L7.64648 13.2031C7.29492 13.2031 7.03125 13.457 7.03125 13.7891C7.03125 14.1406 7.29492 14.4043 7.64648 14.4043ZM7.64648 17.8125L14.4434 17.8125C14.7852 17.8125 15.0391 17.5488 15.0391 17.2168C15.0391 16.875 14.7852 16.6113 14.4434 16.6113L7.64648 16.6113C7.29492 16.6113 7.03125 16.875 7.03125 17.2168C7.03125 17.5488 7.29492 17.8125 7.64648 17.8125ZM15.7617 7.38281C15.7617 8.06641 16.3281 8.60352 16.9922 8.60352C17.6465 8.60352 18.2031 8.06641 18.2031 7.38281C18.2031 6.73828 17.6465 6.17188 16.9922 6.17188C16.3281 6.17188 15.7617 6.73828 15.7617 7.38281Z" fill="#000000" fill-opacity="0.85"/>
 </g>
</svg>
