<?xml version="1.0" encoding="UTF-8"?>
<!--Generator: Apple Native CoreSVG 175.5-->
<!DOCTYPE svg
PUBLIC "-//W3C//DTD SVG 1.1//EN"
       "http://www.w3.org/Graphics/SVG/1.1/DTD/svg11.dtd">
<svg version="1.1" xmlns="http://www.w3.org/2000/svg" xmlns:xlink="http://www.w3.org/1999/xlink" width="21.9434" height="21.3574">
 <g>
  <rect height="21.3574" opacity="0" width="21.9434" x="0" y="0"/>
  <path d="M2.90039 17.6172L3.125 17.6172L3.125 12.1973C3.125 10.8008 3.98438 9.94141 5.38086 9.94141L16.5625 9.94141C17.959 9.94141 18.8184 10.8008 18.8184 12.1973L18.8184 17.6172L19.0332 17.6172C20.9375 17.6172 21.9434 16.6602 21.9434 14.7559L21.9434 6.80664C21.9434 4.90234 20.9375 3.93555 19.0332 3.93555L2.90039 3.93555C1.10352 3.93555 0 4.90234 0 6.80664L0 14.7559C0 16.6602 1.00586 17.6172 2.90039 17.6172ZM3.86719 2.63672L18.0762 2.63672L18.0762 2.4707C18.0762 1.02539 16.9531 0.380859 15.3711 0.380859L6.57227 0.380859C5.05859 0.380859 3.86719 1.02539 3.86719 2.4707ZM4.46289 20.0391C4.46289 20.8301 4.99023 21.3574 5.77148 21.3574L16.1719 21.3574C16.9629 21.3574 17.4805 20.8301 17.4805 20.0391L17.4805 12.1973C17.4805 11.6406 17.1191 11.2793 16.5625 11.2793L5.38086 11.2793C4.83398 11.2793 4.46289 11.6406 4.46289 12.1973ZM7.79297 15.1953C7.43164 15.1953 7.1582 14.9121 7.1582 14.5508C7.1582 14.209 7.43164 13.9453 7.79297 13.9453L14.1699 13.9453C14.5312 13.9453 14.7949 14.209 14.7949 14.5508C14.7949 14.9121 14.5312 15.1953 14.1699 15.1953ZM7.79297 18.6914C7.43164 18.6914 7.1582 18.418 7.1582 18.0762C7.1582 17.7148 7.43164 17.4414 7.79297 17.4414L14.1699 17.4414C14.5312 17.4414 14.7949 17.7148 14.7949 18.0762C14.7949 18.418 14.5312 18.6914 14.1699 18.6914ZM15.7227 7.16797C15.7227 6.49414 16.2988 5.9082 16.9922 5.9082C17.6562 5.9082 18.2422 6.49414 18.2422 7.16797C18.2422 7.86133 17.6562 8.4082 16.9922 8.41797C16.2988 8.41797 15.7227 7.87109 15.7227 7.16797Z" fill="#000000" fill-opacity="0.85"/>
 </g>
</svg>
