<?xml version="1.0" encoding="UTF-8"?>
<!--Generator: Apple Native CoreSVG 175.5-->
<!DOCTYPE svg
PUBLIC "-//W3C//DTD SVG 1.1//EN"
       "http://www.w3.org/Graphics/SVG/1.1/DTD/svg11.dtd">
<svg version="1.1" xmlns="http://www.w3.org/2000/svg" xmlns:xlink="http://www.w3.org/1999/xlink" width="23.9746" height="15.8691">
 <g>
  <rect height="15.8691" opacity="0" width="23.9746" x="0" y="0"/>
  <path d="M3.13477 15.8594L13.623 15.8594C15.5859 15.8594 16.7578 14.7266 16.7578 12.7637L16.7578 3.08594C16.7578 1.13281 15.6836 0 13.7207 0L3.13477 0C1.25977 0 0 1.13281 0 3.08594L0 12.7637C0 14.7266 1.17188 15.8594 3.13477 15.8594ZM18.0859 10.8105L21.6406 13.8867C21.9727 14.1797 22.3633 14.3652 22.7148 14.3652C23.4766 14.3652 23.9746 13.8086 23.9746 13.0078L23.9746 2.85156C23.9746 2.05078 23.4766 1.49414 22.7148 1.49414C22.3633 1.49414 21.9727 1.67969 21.6406 1.97266L18.0859 5.03906Z" fill="#000000" fill-opacity="0.85"/>
  <path d="M8.11523 9.87305C7.63672 9.87305 7.38281 9.62891 7.38281 9.14062C7.38281 9.11133 7.38281 9.0625 7.38281 9.02344C7.38281 8.13477 7.87109 7.65625 8.52539 7.1875C9.31641 6.64062 9.70703 6.33789 9.70703 5.71289C9.70703 5.01953 9.16992 4.56055 8.33984 4.56055C7.73438 4.56055 7.29492 4.85352 6.99219 5.3418C6.69922 5.69336 6.61133 5.97656 6.09375 5.97656C5.79102 5.97656 5.45898 5.75195 5.45898 5.3418C5.45898 5.18555 5.48828 5.0293 5.53711 4.88281C5.81055 4.04297 6.81641 3.31055 8.38867 3.31055C9.95117 3.31055 11.3086 4.12109 11.3086 5.64453C11.3086 6.73828 10.6738 7.27539 9.79492 7.86133C9.15039 8.28125 8.85742 8.59375 8.85742 9.11133C8.85742 9.15039 8.85742 9.18945 8.85742 9.21875C8.85742 9.58984 8.57422 9.87305 8.11523 9.87305ZM8.08594 12.5977C7.55859 12.5977 7.10938 12.168 7.10938 11.6504C7.10938 11.123 7.54883 10.6934 8.08594 10.6934C8.62305 10.6934 9.07227 11.123 9.07227 11.6504C9.07227 12.1777 8.61328 12.5977 8.08594 12.5977Z" fill="#ffffff"/>
 </g>
</svg>
