<?xml version="1.0" encoding="UTF-8"?>
<!--Generator: Apple Native CoreSVG 175.5-->
<!DOCTYPE svg
PUBLIC "-//W3C//DTD SVG 1.1//EN"
       "http://www.w3.org/Graphics/SVG/1.1/DTD/svg11.dtd">
<svg version="1.1" xmlns="http://www.w3.org/2000/svg" xmlns:xlink="http://www.w3.org/1999/xlink" width="24.7949" height="29.7827">
 <g>
  <rect height="29.7827" opacity="0" width="24.7949" x="0" y="0"/>
  <path d="M12.3926 2.49391C5.54688 2.49391 0 8.04078 0 14.8865C0 20.3455 3.53516 24.9841 8.4375 26.6345C8.35938 26.0681 8.51562 25.5213 8.84766 25.1013C4.61914 23.6365 1.57227 19.6228 1.57227 14.8865C1.57227 8.90992 6.41602 4.06617 12.3926 4.06617C18.3691 4.06617 23.2227 8.90992 23.2227 14.8865C23.2227 19.6033 20.1855 23.6267 15.957 25.1013C16.2988 25.5115 16.4453 26.0584 16.3672 26.6248C21.2695 24.9646 24.7949 20.3357 24.7949 14.8865C24.7949 8.04078 19.2383 2.49391 12.3926 2.49391Z" fill="#000000" fill-opacity="0.85"/>
  <path d="M12.3926 6.3025C7.65625 6.3025 3.81836 10.1502 3.81836 14.8865C3.81836 19.6228 7.65625 23.4607 12.3926 23.4607C17.1387 23.4607 20.9766 19.6228 20.9766 14.8865C20.9766 10.1502 17.1387 6.3025 12.3926 6.3025ZM9.94141 26.8982L11.8848 29.5154C12.1484 29.8767 12.6465 29.867 12.9199 29.5154L14.873 26.8982C15.2637 26.3806 15.0586 25.7068 14.3555 25.7068L10.4492 25.7068C9.77539 25.7068 9.54102 26.3611 9.94141 26.8982ZM9.93164 19.2713C9.44336 19.2713 9.17969 18.9295 9.17969 18.4119L9.17969 11.3123C9.17969 10.7849 9.44336 10.4334 9.92188 10.4334L12.6855 10.4334C14.6191 10.4334 15.8496 11.5369 15.8496 13.2556C15.8496 14.447 15.127 15.4431 14.0137 15.8142L15.4395 18.0603C15.5566 18.2556 15.6055 18.4021 15.6055 18.617C15.6055 19.0076 15.3223 19.2713 14.9121 19.2713C14.5703 19.2713 14.375 19.1345 14.1504 18.7732L12.4902 16.0388L10.7129 16.0388L10.7129 18.4119C10.7129 18.949 10.4395 19.2713 9.93164 19.2713ZM10.7129 14.9158L12.4609 14.9158C13.6035 14.9158 14.3359 14.3298 14.3359 13.2947C14.3359 12.2205 13.5938 11.615 12.4902 11.615L10.7129 11.615Z" fill="#000000" fill-opacity="0.85"/>
 </g>
</svg>
