<?xml version="1.0" encoding="UTF-8"?>
<!--Generator: Apple Native CoreSVG 175.5-->
<!DOCTYPE svg
PUBLIC "-//W3C//DTD SVG 1.1//EN"
       "http://www.w3.org/Graphics/SVG/1.1/DTD/svg11.dtd">
<svg version="1.1" xmlns="http://www.w3.org/2000/svg" xmlns:xlink="http://www.w3.org/1999/xlink" width="27.2925" height="24.7949">
 <g>
  <rect height="24.7949" opacity="0" width="27.2925" x="0" y="0"/>
  <path d="M14.8999 0C9.44092 0 4.80225 3.53516 3.15186 8.4375C3.71826 8.35938 4.26514 8.50586 4.68506 8.84766C6.1499 4.60938 10.1636 1.57227 14.8999 1.57227C20.8765 1.57227 25.7202 6.41602 25.7202 12.3926C25.7202 18.3691 20.8765 23.2129 14.8999 23.2129C10.1733 23.2129 6.15967 20.1855 4.68506 15.957C4.2749 16.2891 3.72803 16.4453 3.16162 16.3672C4.82178 21.2598 9.45068 24.7852 14.8999 24.7852C21.7456 24.7852 27.2925 19.2383 27.2925 12.3926C27.2925 5.54688 21.7456 0 14.8999 0Z" fill="#000000" fill-opacity="0.85"/>
  <path d="M14.8999 20.9668C19.6362 20.9668 23.4839 17.1289 23.4839 12.3926C23.4839 7.65625 19.6362 3.80859 14.8999 3.80859C10.1636 3.80859 6.31592 7.65625 6.31592 12.3926C6.31592 17.1289 10.1636 20.9668 14.8999 20.9668ZM2.88818 9.93164L0.270996 11.8848C-0.090332 12.1484-0.090332 12.6465 0.270996 12.9102L2.88818 14.8633C3.40576 15.2539 4.07959 15.0488 4.07959 14.3555L4.07959 10.4395C4.07959 9.76562 3.42529 9.52148 2.88818 9.93164ZM12.439 16.7773C11.9507 16.7773 11.687 16.4355 11.687 15.918L11.687 8.81836C11.687 8.29102 11.9507 7.93945 12.4292 7.93945L15.1929 7.93945C17.1265 7.93945 18.3569 9.04297 18.3569 10.7617C18.3569 11.9531 17.6343 12.9492 16.521 13.3203L17.9468 15.5664C18.064 15.7617 18.1128 15.9082 18.1128 16.123C18.1128 16.5137 17.8296 16.7773 17.4194 16.7773C17.0776 16.7773 16.8823 16.6406 16.6577 16.2793L14.9976 13.5449L13.2202 13.5449L13.2202 15.918C13.2202 16.4551 12.9468 16.7773 12.439 16.7773ZM13.2202 12.4219L14.9683 12.4219C16.1108 12.4219 16.8433 11.8359 16.8433 10.8008C16.8433 9.72656 16.1011 9.12109 14.9976 9.12109L13.2202 9.12109Z" fill="#000000" fill-opacity="0.85"/>
 </g>
</svg>
