<?xml version="1.0" encoding="UTF-8"?>
<!--Generator: Apple Native CoreSVG 175.5-->
<!DOCTYPE svg
PUBLIC "-//W3C//DTD SVG 1.1//EN"
       "http://www.w3.org/Graphics/SVG/1.1/DTD/svg11.dtd">
<svg version="1.1" xmlns="http://www.w3.org/2000/svg" xmlns:xlink="http://www.w3.org/1999/xlink" width="19.9805" height="19.1113">
 <g>
  <rect height="19.1113" opacity="0" width="19.9805" x="0" y="0"/>
  <path d="M9.99023 14.6777C16.2305 14.6777 19.9805 11.8652 19.9805 8.37891C19.9805 4.90234 16.2305 2.08984 9.98047 2.08984C3.75 2.08984 0 4.90234 0 8.37891C0 11.8652 3.75 14.6777 9.99023 14.6777ZM9.99023 19.1113C12.3633 19.1113 13.7695 17.998 13.7695 16.123L13.7695 15.6348C12.5879 15.8691 11.3281 16.0059 9.99023 16.0059C8.65234 16.0059 7.39258 15.8691 6.2207 15.6348L6.2207 16.123C6.2207 17.998 7.62695 19.1113 9.99023 19.1113Z" fill="#000000" fill-opacity="0.85"/>
  <path d="M8.38867 11.3867C8.01758 11.3867 7.7832 11.123 7.7832 10.7129L7.7832 5.95703C7.7832 5.52734 8.01758 5.26367 8.38867 5.26367L10.2246 5.26367C11.5625 5.26367 12.4414 6.04492 12.4414 7.25586C12.4414 8.04688 11.9922 8.7207 11.2598 9.01367L12.168 10.4297C12.2559 10.5664 12.3047 10.6934 12.3047 10.8594C12.3047 11.1816 12.041 11.4062 11.7285 11.4062C11.4746 11.4062 11.3086 11.2988 11.1426 11.0156L10.0391 9.21875L9.01367 9.21875L9.01367 10.7129C9.01367 11.123 8.76953 11.3867 8.38867 11.3867ZM9.01367 8.26172L10.0781 8.26172C10.8105 8.26172 11.2207 7.90039 11.2207 7.27539C11.2207 6.65039 10.8008 6.25977 10.0977 6.25977L9.01367 6.25977Z" fill="#ffffff"/>
 </g>
</svg>
