<?xml version="1.0" encoding="UTF-8"?>
<!--Generator: Apple Native CoreSVG 175.5-->
<!DOCTYPE svg
PUBLIC "-//W3C//DTD SVG 1.1//EN"
       "http://www.w3.org/Graphics/SVG/1.1/DTD/svg11.dtd">
<svg version="1.1" xmlns="http://www.w3.org/2000/svg" xmlns:xlink="http://www.w3.org/1999/xlink" width="24.7949" height="29.8096">
 <g>
  <rect height="29.8096" opacity="0" width="24.7949" x="0" y="0"/>
  <path d="M12.3926 27.2925C19.2383 27.2925 24.7949 21.7456 24.7949 14.8999C24.7949 9.45068 21.2695 4.81201 16.3672 3.16162C16.4453 3.71826 16.2988 4.2749 15.957 4.68506C20.1855 6.15967 23.2227 10.1733 23.2227 14.8999C23.2227 20.8765 18.3691 25.7202 12.3926 25.7202C6.41602 25.7202 1.57227 20.8765 1.57227 14.8999C1.57227 10.1636 4.61914 6.1499 8.84766 4.68506C8.51562 4.26514 8.35938 3.7085 8.4375 3.15186C3.53516 4.79248 0 9.44092 0 14.8999C0 21.7456 5.54688 27.2925 12.3926 27.2925Z" fill="#000000" fill-opacity="0.85"/>
  <path d="M12.3926 23.4741C17.1387 23.4741 20.9766 19.6362 20.9766 14.8999C20.9766 10.1636 17.1387 6.31592 12.3926 6.31592C7.65625 6.31592 3.81836 10.1636 3.81836 14.8999C3.81836 19.6362 7.65625 23.4741 12.3926 23.4741ZM9.94141 2.88818C9.54102 3.42529 9.77539 4.07959 10.4492 4.07959L14.3555 4.07959C15.0586 4.07959 15.2637 3.40576 14.873 2.88818L12.9199 0.270996C12.6465-0.090332 12.1484-0.090332 11.8848 0.270996ZM9.93164 19.2847C9.44336 19.2847 9.17969 18.9429 9.17969 18.4253L9.17969 11.3257C9.17969 10.7983 9.44336 10.4468 9.92188 10.4468L12.6855 10.4468C14.6191 10.4468 15.8496 11.5503 15.8496 13.269C15.8496 14.4604 15.127 15.4565 14.0137 15.8276L15.4395 18.0737C15.5566 18.269 15.6055 18.4155 15.6055 18.6304C15.6055 19.021 15.3223 19.2847 14.9121 19.2847C14.5703 19.2847 14.375 19.1479 14.1504 18.7866L12.4902 16.0522L10.7129 16.0522L10.7129 18.4253C10.7129 18.9624 10.4395 19.2847 9.93164 19.2847ZM10.7129 14.9292L12.4609 14.9292C13.6035 14.9292 14.3359 14.3433 14.3359 13.3081C14.3359 12.2339 13.5938 11.6284 12.4902 11.6284L10.7129 11.6284Z" fill="#000000" fill-opacity="0.85"/>
 </g>
</svg>
