<?xml version="1.0" encoding="UTF-8"?>
<!--Generator: Apple Native CoreSVG 175.5-->
<!DOCTYPE svg
PUBLIC "-//W3C//DTD SVG 1.1//EN"
       "http://www.w3.org/Graphics/SVG/1.1/DTD/svg11.dtd">
<svg version="1.1" xmlns="http://www.w3.org/2000/svg" xmlns:xlink="http://www.w3.org/1999/xlink" width="23.6133" height="17.998">
 <g>
  <rect height="17.998" opacity="0" width="23.6133" x="0" y="0"/>
  <path d="M8.39844 17.998L15.2246 17.998C21.0352 17.998 23.6133 15.332 23.6133 9.85352L23.6133 3.04688C23.6133 1.03516 22.5879 0.0195312 20.5469 0.0195312L3.06641 0.0195312C1.02539 0.0195312 0 1.02539 0 3.04688L0 9.85352C0 15.332 2.57812 17.998 8.39844 17.998Z" fill="#000000" fill-opacity="0.85"/>
  <path d="M9.22852 13.6426C8.71094 13.6426 8.4375 13.2812 8.4375 12.7344L8.4375 5.25391C8.4375 4.7168 8.71094 4.33594 9.21875 4.33594L12.1191 4.33594C14.1602 4.33594 15.459 5.49805 15.459 7.30469C15.459 8.56445 14.6875 9.61914 13.5156 10.0098L15.0195 12.3633C15.1465 12.5684 15.1953 12.7246 15.1953 12.9492C15.1953 13.3594 14.8926 13.6426 14.4629 13.6426C14.1016 13.6426 13.9062 13.4961 13.6621 13.1152L11.9141 10.2441L10.0391 10.2441L10.0391 12.7344C10.0391 13.3008 9.75586 13.6426 9.22852 13.6426ZM10.0391 9.0625L11.8848 9.0625C13.0957 9.0625 13.8574 8.44727 13.8574 7.34375C13.8574 6.2207 13.0762 5.57617 11.9238 5.57617L10.0391 5.57617Z" fill="#ffffff"/>
 </g>
</svg>
