<?xml version="1.0" encoding="UTF-8"?>
<!--Generator: Apple Native CoreSVG 175.5-->
<!DOCTYPE svg
PUBLIC "-//W3C//DTD SVG 1.1//EN"
       "http://www.w3.org/Graphics/SVG/1.1/DTD/svg11.dtd">
<svg version="1.1" xmlns="http://www.w3.org/2000/svg" xmlns:xlink="http://www.w3.org/1999/xlink" width="20.6641" height="20.459">
 <g>
  <rect height="20.459" opacity="0" width="20.6641" x="0" y="0"/>
  <path d="M12.8711 0.00976562L3.06641 0.00976562C1.02539 0.00976562 0 1.02539 0 3.03711L0 12.9102C0 14.9219 1.02539 15.9375 3.06641 15.9375L12.8711 15.9375C14.9121 15.9375 15.9277 14.9316 15.9277 12.9102L15.9277 3.03711C15.9277 1.01562 14.9121 0.00976562 12.8711 0.00976562ZM20.6641 7.54883C20.6641 5.53711 19.6484 4.53125 17.6074 4.53125L17.2656 4.53125L17.2656 12.9102C17.2656 15.6738 15.6445 17.2754 12.8711 17.2754L4.73633 17.2754L4.73633 17.4316C4.73633 19.4434 5.76172 20.459 7.80273 20.459L17.6074 20.459C19.6484 20.459 20.6641 19.4531 20.6641 17.4316Z" fill="#000000" fill-opacity="0.85"/>
  <path d="M5.38086 12.5879C4.87305 12.5879 4.58984 12.2266 4.58984 11.6895L4.58984 4.20898C4.58984 3.66211 4.86328 3.28125 5.38086 3.28125L8.28125 3.28125C10.3223 3.28125 11.6113 4.44336 11.6113 6.25977C11.6113 7.50977 10.8496 8.56445 9.67773 8.95508L11.1816 11.3184C11.2988 11.5137 11.3574 11.6797 11.3574 11.8945C11.3574 12.3145 11.0547 12.5879 10.625 12.5879C10.2637 12.5879 10.0684 12.4414 9.82422 12.0605L8.07617 9.18945L6.20117 9.18945L6.20117 11.6895C6.20117 12.2461 5.91797 12.5879 5.38086 12.5879ZM6.20117 8.00781L8.03711 8.00781C9.24805 8.00781 10.0195 7.39258 10.0195 6.29883C10.0195 5.16602 9.22852 4.52148 8.07617 4.52148L6.20117 4.52148Z" fill="#ffffff"/>
 </g>
</svg>
