<?xml version="1.0" encoding="UTF-8"?>
<!--Generator: Apple Native CoreSVG 175.5-->
<!DOCTYPE svg
PUBLIC "-//W3C//DTD SVG 1.1//EN"
       "http://www.w3.org/Graphics/SVG/1.1/DTD/svg11.dtd">
<svg version="1.1" xmlns="http://www.w3.org/2000/svg" xmlns:xlink="http://www.w3.org/1999/xlink" width="20.6641" height="20.459">
 <g>
  <rect height="20.459" opacity="0" width="20.6641" x="0" y="0"/>
  <path d="M7.80273 20.459L17.6074 20.459C19.6484 20.459 20.6641 19.4531 20.6641 17.4316L20.6641 7.54883C20.6641 5.53711 19.6484 4.53125 17.6074 4.53125L15.127 4.53125L15.127 6.10352L17.5781 6.10352C18.5547 6.10352 19.0918 6.62109 19.0918 7.63672L19.0918 17.3535C19.0918 18.3691 18.5547 18.8867 17.5781 18.8867L7.82227 18.8867C6.86523 18.8867 6.30859 18.3691 6.30859 17.3535L6.30859 15.2051L4.73633 15.2051L4.73633 17.4316C4.73633 19.4434 5.76172 20.459 7.80273 20.459Z" fill="#000000" fill-opacity="0.85"/>
  <path d="M3.06641 15.9375L12.8711 15.9375C14.9121 15.9375 15.9277 14.9316 15.9277 12.9102L15.9277 3.03711C15.9277 1.01562 14.9121 0.00976562 12.8711 0.00976562L3.06641 0.00976562C1.02539 0.00976562 0 1.02539 0 3.03711L0 12.9102C0 14.9219 1.02539 15.9375 3.06641 15.9375ZM3.08594 14.3652C2.12891 14.3652 1.57227 13.8477 1.57227 12.832L1.57227 3.11523C1.57227 2.09961 2.12891 1.58203 3.08594 1.58203L12.8418 1.58203C13.8184 1.58203 14.3555 2.09961 14.3555 3.11523L14.3555 12.832C14.3555 13.8477 13.8184 14.3652 12.8418 14.3652ZM5.46875 12.4414C5.98633 12.4414 6.25977 12.1191 6.25977 11.582L6.25977 9.15039L8.07617 9.15039L9.77539 11.9336C10.0098 12.3047 10.2051 12.4414 10.5469 12.4414C10.9668 12.4414 11.2598 12.1777 11.2598 11.7773C11.2598 11.5723 11.2012 11.4062 11.084 11.2207L9.61914 8.92578C10.7617 8.54492 11.5039 7.51953 11.5039 6.30859C11.5039 4.55078 10.2539 3.42773 8.27148 3.42773L5.46875 3.42773C4.96094 3.42773 4.69727 3.78906 4.69727 4.31641L4.69727 11.582C4.69727 12.0996 4.9707 12.4414 5.46875 12.4414ZM6.25977 8.00781L6.25977 4.61914L8.07617 4.61914C9.19922 4.61914 9.96094 5.24414 9.96094 6.34766C9.96094 7.41211 9.21875 8.00781 8.03711 8.00781Z" fill="#000000" fill-opacity="0.85"/>
 </g>
</svg>
