<?xml version="1.0" encoding="UTF-8"?>
<!--Generator: Apple Native CoreSVG 175.5-->
<!DOCTYPE svg
PUBLIC "-//W3C//DTD SVG 1.1//EN"
       "http://www.w3.org/Graphics/SVG/1.1/DTD/svg11.dtd">
<svg version="1.1" xmlns="http://www.w3.org/2000/svg" xmlns:xlink="http://www.w3.org/1999/xlink" width="23.6133" height="17.998">
 <g>
  <rect height="17.998" opacity="0" width="23.6133" x="0" y="0"/>
  <path d="M8.39844 0.0195312C2.57812 0.0195312 0 2.68555 0 8.1543L0 14.9707C0 16.9922 1.02539 17.998 3.06641 17.998L20.5469 17.998C22.5879 17.998 23.6133 16.9824 23.6133 14.9707L23.6133 8.1543C23.6133 2.68555 21.0352 0.0195312 15.2246 0.0195312Z" fill="#000000" fill-opacity="0.85"/>
  <path d="M5.6543 13.6621C5.13672 13.6621 4.86328 13.3008 4.86328 12.7539L4.86328 5.27344C4.86328 4.73633 5.13672 4.36523 5.6543 4.36523L8.54492 4.36523C10.5957 4.36523 11.8945 5.51758 11.8945 7.32422C11.8945 8.58398 11.123 9.63867 9.94141 10.0391L11.4551 12.3828C11.582 12.5879 11.6309 12.7441 11.6309 12.9688C11.6309 13.3789 11.3281 13.6621 10.8984 13.6621C10.5371 13.6621 10.3418 13.5156 10.0977 13.1348L8.34961 10.2734L6.47461 10.2734L6.47461 12.7539C6.47461 13.3301 6.19141 13.6621 5.6543 13.6621ZM6.47461 9.08203L8.31055 9.08203C9.53125 9.08203 10.2832 8.47656 10.2832 7.36328C10.2832 6.24023 9.51172 5.5957 8.35938 5.5957L6.47461 5.5957ZM13.916 13.5449C13.4766 13.5449 13.2031 13.2812 13.2031 12.8809C13.2031 12.666 13.291 12.4805 13.4766 12.2852L16.6895 8.89648C17.2754 8.27148 17.8906 7.65625 17.8906 6.92383C17.8906 6.08398 17.2656 5.53711 16.3086 5.53711C15.332 5.53711 14.8145 6.18164 14.541 6.78711C14.3555 7.07031 14.1699 7.29492 13.8184 7.29492C13.4277 7.29492 13.1641 7.04102 13.1641 6.65039C13.1641 6.51367 13.1738 6.39648 13.2129 6.24023C13.5449 5.11719 14.8047 4.24805 16.2402 4.24805C18.1055 4.24805 19.3359 5.26367 19.3359 6.79688C19.3359 7.91992 18.7207 8.73047 17.8223 9.66797L15.4297 12.1484L15.4297 12.2266L18.9941 12.2266C19.3945 12.2266 19.6777 12.4609 19.6777 12.8809C19.6777 13.2812 19.3945 13.5449 18.9941 13.5449Z" fill="#ffffff"/>
 </g>
</svg>
