<?xml version="1.0" encoding="UTF-8"?>
<!--Generator: Apple Native CoreSVG 175.5-->
<!DOCTYPE svg
PUBLIC "-//W3C//DTD SVG 1.1//EN"
       "http://www.w3.org/Graphics/SVG/1.1/DTD/svg11.dtd">
<svg version="1.1" xmlns="http://www.w3.org/2000/svg" xmlns:xlink="http://www.w3.org/1999/xlink" width="23.6133" height="17.998">
 <g>
  <rect height="17.998" opacity="0" width="23.6133" x="0" y="0"/>
  <path d="M8.39844 0.0195312C2.57812 0.0195312 0 2.68555 0 8.1543L0 14.9707C0 16.9922 1.02539 17.998 3.06641 17.998L20.5469 17.998C22.5879 17.998 23.6133 16.9824 23.6133 14.9707L23.6133 8.1543C23.6133 2.68555 21.0352 0.0195312 15.2246 0.0195312ZM8.39844 1.61133L15.2148 1.61133C19.9609 1.61133 22.041 3.68164 22.041 8.06641L22.041 14.8926C22.041 15.9082 21.4941 16.4258 20.5273 16.4258L3.08594 16.4258C2.10938 16.4258 1.57227 15.9082 1.57227 14.8926L1.57227 8.06641C1.57227 3.68164 3.65234 1.61133 8.39844 1.61133Z" fill="#000000" fill-opacity="0.85"/>
  <path d="M5.70312 13.5156C6.2207 13.5156 6.49414 13.1934 6.49414 12.6465L6.49414 10.2246L8.31055 10.2246L10.0098 13.0078C10.2441 13.3789 10.4395 13.5156 10.7812 13.5156C11.2012 13.5156 11.4941 13.2422 11.4941 12.8516C11.4941 12.6367 11.4453 12.4805 11.3184 12.2852L9.85352 10C10.9961 9.61914 11.748 8.59375 11.748 7.37305C11.748 5.625 10.4883 4.50195 8.50586 4.50195L5.70312 4.50195C5.20508 4.50195 4.94141 4.86328 4.94141 5.38086L4.94141 12.6465C4.94141 13.1738 5.20508 13.5156 5.70312 13.5156ZM6.49414 9.08203L6.49414 5.69336L8.32031 5.69336C9.44336 5.69336 10.1953 6.31836 10.1953 7.41211C10.1953 8.48633 9.46289 9.08203 8.28125 9.08203ZM13.7109 13.4082L18.6328 13.4082C19.0137 13.4082 19.2871 13.1543 19.2871 12.7637C19.2871 12.3633 19.0137 12.1289 18.6328 12.1289L15.166 12.1289L15.166 12.0605L17.4902 9.64844C18.3594 8.73047 18.9551 7.94922 18.9551 6.86523C18.9551 5.38086 17.7637 4.39453 15.957 4.39453C14.5703 4.39453 13.3496 5.23438 13.0273 6.32812C12.9883 6.47461 12.9785 6.5918 12.9785 6.71875C12.9785 7.09961 13.2324 7.34375 13.6133 7.34375C13.9551 7.34375 14.1309 7.12891 14.3066 6.85547C14.5703 6.25977 15.0781 5.63477 16.0254 5.63477C16.9531 5.63477 17.5684 6.17188 17.5684 6.98242C17.5684 7.69531 16.9727 8.29102 16.3965 8.89648L13.2812 12.1875C13.1055 12.373 13.0176 12.5586 13.0176 12.7637C13.0176 13.1543 13.2812 13.4082 13.7109 13.4082Z" fill="#000000" fill-opacity="0.85"/>
 </g>
</svg>
