<?xml version="1.0" encoding="UTF-8"?>
<!--Generator: Apple Native CoreSVG 175.5-->
<!DOCTYPE svg
PUBLIC "-//W3C//DTD SVG 1.1//EN"
       "http://www.w3.org/Graphics/SVG/1.1/DTD/svg11.dtd">
<svg version="1.1" xmlns="http://www.w3.org/2000/svg" xmlns:xlink="http://www.w3.org/1999/xlink" width="19.0125" height="21.4941">
 <g>
  <rect height="21.4941" opacity="0" width="19.0125" x="0" y="0"/>
  <path d="M12.2729 4.6582C11.8726 4.6582 11.6675 4.9707 11.6675 5.2832C11.6675 5.5957 11.8823 5.91797 12.3022 5.91797L13.8257 5.91797L14.9878 5.84961L13.8647 6.9043L12.3413 8.41797C12.1948 8.57422 12.1265 8.74023 12.1265 8.89648C12.1265 9.28711 12.4878 9.63867 12.8784 9.63867C13.0347 9.63867 13.2007 9.58008 13.3472 9.43359L14.8608 7.91016L15.9058 6.78711L15.8472 7.93945L15.8472 9.50195C15.8472 9.93164 16.1694 10.1465 16.4917 10.1465C16.7944 10.1465 17.1069 9.94141 17.1069 9.53125L17.1069 5.46875C17.1069 4.94141 16.814 4.6582 16.2964 4.6582ZM2.72217 16.416L6.74561 16.416C7.15576 16.416 7.36084 16.0938 7.36084 15.7812C7.36084 15.459 7.146 15.1465 6.71631 15.1465L5.19287 15.1465L4.03076 15.2148L5.15381 14.1602L6.67725 12.6465C6.82373 12.5 6.89209 12.334 6.89209 12.168C6.89209 11.7773 6.53076 11.4355 6.14014 11.4355C5.98389 11.4355 5.81787 11.4844 5.67139 11.6309L4.15771 13.1641L3.11279 14.2773L3.17139 13.125L3.17139 11.5625C3.17139 11.1328 2.84912 10.918 2.53662 10.918C2.22412 10.918 1.91162 11.123 1.91162 11.5332L1.91162 15.5957C1.91162 16.123 2.20459 16.416 2.72217 16.416ZM5.49561 21.0742L13.5327 21.0742C14.7534 21.0742 15.603 20.4688 15.9253 19.4922L15.9253 19.4824L14.6753 18.2129L14.6753 18.3691C14.6753 19.1699 14.2065 19.6484 13.3374 19.6484L5.69092 19.6484C4.82178 19.6484 4.36279 19.1699 4.36279 18.3691L4.36279 17.6074L2.88818 17.6074L2.88818 18.5742C2.88818 20.0391 3.90381 21.0742 5.49561 21.0742ZM2.88818 9.81445L4.36279 9.81445L4.36279 7.90039L2.88818 6.43555ZM16.1401 11.25L14.6753 11.25L14.6753 12.3535L16.1401 13.8184ZM5.48584 0C4.50928 0 3.80615 0.390625 3.43506 1.09375L3.43506 1.10352L4.55811 2.22656L4.55811 2.10938C4.71436 1.65039 5.07568 1.42578 5.68115 1.42578L13.3276 1.42578C14.1968 1.42578 14.6655 1.9043 14.6655 2.69531L14.6655 3.45703L16.1304 3.45703L16.1304 2.49023C16.1304 1.02539 15.1147 0 13.5229 0Z" fill="#000000" fill-opacity="0.85"/>
  <path d="M17.7319 19.4141C18.0151 19.6973 18.5132 19.707 18.7964 19.4141C19.0796 19.1113 19.0894 18.6426 18.7964 18.3496L1.28662 0.820312C0.993652 0.527344 0.505371 0.527344 0.212402 0.820312C-0.0708008 1.11328-0.0708008 1.60156 0.212402 1.88477Z" fill="#000000" fill-opacity="0.85"/>
 </g>
</svg>
