<?xml version="1.0" encoding="UTF-8"?>
<!--Generator: Apple Native CoreSVG 175.5-->
<!DOCTYPE svg
PUBLIC "-//W3C//DTD SVG 1.1//EN"
       "http://www.w3.org/Graphics/SVG/1.1/DTD/svg11.dtd">
<svg version="1.1" xmlns="http://www.w3.org/2000/svg" xmlns:xlink="http://www.w3.org/1999/xlink" width="24.2969" height="23.0859">
 <g>
  <rect height="23.0859" opacity="0" width="24.2969" x="0" y="0"/>
  <path d="M16.2988 1.64551L5.36133 1.64551L6.93359 3.21777L16.2695 3.21777C17.2363 3.21777 17.793 3.74512 17.793 4.76074L17.793 6.16699L9.88281 6.16699L11.4453 7.73926L21.2012 7.73926C22.168 7.73926 22.7246 8.2666 22.7246 9.28223L22.7246 18.3252C22.7246 18.54 22.627 18.6865 22.4707 18.7549L23.8184 20.1025C24.1309 19.6826 24.2969 19.126 24.2969 18.4033L24.2969 9.19434C24.2969 7.18262 23.2617 6.16699 21.2305 6.16699L19.3652 6.16699L19.3652 4.67285C19.3652 2.66113 18.3301 1.64551 16.2988 1.64551ZM7.89062 21.4307L19.7949 21.4307L18.2227 19.8584L7.91016 19.8584C6.93359 19.8584 6.39648 19.3408 6.39648 18.3252L6.39648 9.28223C6.39648 8.87207 6.50391 8.54004 6.69922 8.33496L5.46875 7.10449C5.03906 7.58301 4.82422 8.28613 4.82422 9.19434L4.82422 15.3369L3.08594 15.3369C2.10938 15.3369 1.57227 14.8193 1.57227 13.8037L1.57227 4.76074C1.57227 4.24316 1.72852 3.8623 2.02148 3.64746L0.810547 2.44629C0.273438 2.91504 0 3.65723 0 4.67285L0 13.8818C0 15.9033 1.01562 16.9092 3.06641 16.9092L4.82422 16.9092L4.82422 18.4033C4.82422 20.4248 5.83984 21.4307 7.89062 21.4307Z" fill="#000000" fill-opacity="0.85"/>
  <path d="M22.832 22.8662C23.125 23.1592 23.6133 23.1592 23.8965 22.8662C24.1895 22.5635 24.1895 22.0947 23.8965 21.8018L2.35352 0.239258C2.06055-0.0439453 1.58203-0.0537109 1.2793 0.239258C0.996094 0.532227 0.996094 1.02051 1.2793 1.30371Z" fill="#000000" fill-opacity="0.85"/>
 </g>
</svg>
