<?xml version="1.0" encoding="UTF-8"?>
<!--Generator: Apple Native CoreSVG 175.5-->
<!DOCTYPE svg
PUBLIC "-//W3C//DTD SVG 1.1//EN"
       "http://www.w3.org/Graphics/SVG/1.1/DTD/svg11.dtd">
<svg version="1.1" xmlns="http://www.w3.org/2000/svg" xmlns:xlink="http://www.w3.org/1999/xlink" width="19.9219" height="19.9316">
 <g>
  <rect height="19.9316" opacity="0" width="19.9219" x="0" y="0"/>
  <path d="M9.96094 19.9219C15.4102 19.9219 19.9219 15.4004 19.9219 9.96094C19.9219 4.51172 15.4004 0 9.95117 0C4.51172 0 0 4.51172 0 9.96094C0 15.4004 4.52148 19.9219 9.96094 19.9219Z" fill="#000000" fill-opacity="0.85"/>
  <path d="M7.69531 14.6582C6.76758 14.6582 6.30859 14.209 6.30859 13.291L6.30859 8.57422C6.30859 7.67578 6.76758 7.20703 7.69531 7.20703L14.4238 7.20703C15.3516 7.20703 15.8008 7.67578 15.8008 8.57422L15.8008 13.291C15.8008 14.209 15.3516 14.6582 14.4238 14.6582ZM5.71289 8.51562L5.71289 12.5293L5.47852 12.5293C4.56055 12.5293 4.10156 12.0703 4.10156 11.1621L4.10156 6.48438C4.10156 5.56641 4.56055 5.11719 5.47852 5.11719L12.2168 5.11719C13.1445 5.11719 13.5938 5.56641 13.5938 6.48438L13.5938 6.60156L7.63672 6.60156C6.36719 6.60156 5.71289 7.25586 5.71289 8.51562Z" fill="#ffffff"/>
 </g>
</svg>
