<?xml version="1.0" encoding="UTF-8"?>
<!--Generator: Apple Native CoreSVG 175.5-->
<!DOCTYPE svg
PUBLIC "-//W3C//DTD SVG 1.1//EN"
       "http://www.w3.org/Graphics/SVG/1.1/DTD/svg11.dtd">
<svg version="1.1" xmlns="http://www.w3.org/2000/svg" xmlns:xlink="http://www.w3.org/1999/xlink" width="24.0418" height="22.4692">
 <g>
  <rect height="22.4692" opacity="0" width="24.0418" x="0" y="0"/>
  <path d="M2.96875 16.3665L8.97461 16.3665L7.80273 14.8528C7.41211 14.3352 7.42188 13.7395 7.83203 13.3684L8.125 13.095C8.60352 12.636 9.28711 12.6946 9.82422 13.2024L11.5625 14.8821L12.1777 14.384L9.07227 5.73169C8.84766 5.12622 9.10156 4.75513 9.49219 4.58911L10.3613 4.23755C10.9863 3.97388 11.3281 4.25708 11.5234 4.76489L13.0957 8.85669L14.2578 8.36841C15.1562 7.99731 15.8203 8.4856 16.1035 9.052C16.5332 8.75903 16.9531 8.60278 17.4219 8.60278L18.8672 8.60278L18.8672 3.57349C18.8672 1.62036 17.8906 0.643799 15.9082 0.643799L2.96875 0.643799C0.986328 0.643799 0 1.6106 0 3.57349L0 13.4465C0 15.4094 0.986328 16.3665 2.96875 16.3665Z" fill="#000000" fill-opacity="0.85"/>
  <path d="M19.4824 21.9719C23.3691 20.5559 25.0195 17.0012 23.457 12.7043L22.7246 10.7024C21.9531 8.59302 20.5078 7.71411 18.7988 8.31958C18.3398 7.72388 17.6367 7.50903 16.8652 7.79224C16.5918 7.88989 16.3379 8.03638 16.1133 8.22192C15.6152 7.56763 14.834 7.33325 14.043 7.62622C13.8281 7.70435 13.623 7.81177 13.4277 7.95825L12.3145 4.90161C11.8945 3.7395 10.8398 3.25122 9.75586 3.65161C8.66211 4.04224 8.16406 5.09692 8.59375 6.25903L11.377 13.9153C11.3965 13.9543 11.3867 14.0032 11.3379 14.0227C11.2988 14.0325 11.2695 14.0129 11.2402 13.9836L10.0879 12.7434C9.52148 12.1282 8.84766 11.9524 8.19336 12.1868C7.30469 12.509 6.72852 13.3684 7.08984 14.3743C7.1875 14.6477 7.38281 14.9993 7.60742 15.2727L10.8789 19.2278C13.3594 22.2258 16.25 23.1536 19.4824 21.9719ZM19.0723 20.6926C16.5039 21.6204 14.1113 21.1516 11.8555 18.427L8.58398 14.4817C8.48633 14.3645 8.41797 14.2571 8.35938 14.1008C8.24219 13.7786 8.37891 13.427 8.75 13.2903C9.05273 13.1731 9.29688 13.2903 9.55078 13.554L11.8164 15.8879C12.1973 16.2786 12.5293 16.3176 12.8516 16.2004C13.2324 16.0637 13.3984 15.6633 13.2422 15.2434L9.78516 5.73169C9.63867 5.34106 9.80469 4.96997 10.1855 4.83325C10.5664 4.69653 10.918 4.87231 11.0645 5.26294L13.5352 12.05C13.6523 12.3723 14.0137 12.5188 14.3359 12.4016C14.6484 12.2844 14.8145 11.9524 14.6973 11.6301L13.8086 9.18872C13.9355 9.052 14.1309 8.92505 14.3164 8.86646C14.7754 8.70044 15.1562 8.89575 15.332 9.37427L16.1035 11.5129C16.2305 11.8547 16.5918 11.9817 16.9043 11.8645C17.207 11.7571 17.3926 11.425 17.2754 11.093L16.6406 9.35474C16.7676 9.21802 16.9629 9.09106 17.1387 9.03247C17.6074 8.86646 17.9883 9.06177 18.1641 9.54028L18.6816 10.9758C18.8086 11.3079 19.1699 11.4348 19.4824 11.3274C19.7852 11.22 19.9707 10.8879 19.8438 10.5461L19.4629 9.50122C20.2832 9.19849 21.0547 9.87231 21.582 11.3274L22.1875 13.0071C23.5352 16.6985 22.3145 19.511 19.0723 20.6926Z" fill="#000000" fill-opacity="0.85"/>
 </g>
</svg>
