<?xml version="1.0" encoding="UTF-8"?>
<!--Generator: Apple Native CoreSVG 175.5-->
<!DOCTYPE svg
PUBLIC "-//W3C//DTD SVG 1.1//EN"
       "http://www.w3.org/Graphics/SVG/1.1/DTD/svg11.dtd">
<svg version="1.1" xmlns="http://www.w3.org/2000/svg" xmlns:xlink="http://www.w3.org/1999/xlink" width="18.4766" height="24.248">
 <g>
  <rect height="24.248" opacity="0" width="18.4766" x="0" y="0"/>
  <path d="M3.06641 18.5156L15.4102 18.5156C17.4609 18.5156 18.4766 17.5 18.4766 15.4883L18.4766 8.75977C18.4766 6.74805 17.4609 5.73242 15.4102 5.73242L3.06641 5.73242C1.01562 5.73242 0 6.73828 0 8.75977L0 15.4883C0 17.5098 1.01562 18.5156 3.06641 18.5156ZM3.08594 16.9434C2.10938 16.9434 1.57227 16.416 1.57227 15.4102L1.57227 8.83789C1.57227 7.82227 2.10938 7.30469 3.08594 7.30469L15.3906 7.30469C16.3574 7.30469 16.9043 7.82227 16.9043 8.83789L16.9043 15.4102C16.9043 16.416 16.3574 16.9434 15.3906 16.9434Z" fill="#000000" fill-opacity="0.85"/>
  <path d="M7.30469 0C6.55273 0 6.31836 0.654297 6.74805 1.2793L8.59375 4.00391C8.91602 4.48242 9.61914 4.49219 9.94141 4.00391L11.7578 1.2793C12.1582 0.683594 11.9336 0 11.2012 0ZM7.30469 24.248L11.2012 24.248C11.9336 24.248 12.1582 23.5645 11.7578 22.9688L9.94141 20.2441C9.61914 19.7559 8.91602 19.7656 8.59375 20.2441L6.74805 22.9688C6.31836 23.5938 6.55273 24.248 7.30469 24.248Z" fill="#000000" fill-opacity="0.85"/>
 </g>
</svg>
