<?xml version="1.0" encoding="UTF-8"?>
<!--Generator: Apple Native CoreSVG 175.5-->
<!DOCTYPE svg
PUBLIC "-//W3C//DTD SVG 1.1//EN"
       "http://www.w3.org/Graphics/SVG/1.1/DTD/svg11.dtd">
<svg version="1.1" xmlns="http://www.w3.org/2000/svg" xmlns:xlink="http://www.w3.org/1999/xlink" width="27.3535" height="17.9785">
 <g>
  <rect height="17.9785" opacity="0" width="27.3535" x="0" y="0"/>
  <path d="M3.76953 15.0781L14.7754 15.0781C15.4492 13.6035 17.0312 12.373 18.9258 11.8164C17.9492 11.0449 17.3145 9.80469 17.3145 8.39844C17.3047 6.49414 18.4961 4.85352 20.127 4.31641L20.127 3.78906C20.127 3.23242 19.8145 2.91016 19.2676 2.91016L3.76953 2.91016C3.22266 2.91016 2.91016 3.23242 2.91016 3.78906L2.91016 14.1992C2.91016 14.7559 3.22266 15.0781 3.76953 15.0781Z" fill="#000000" fill-opacity="0.2125"/>
  <path d="M3.06641 17.9785L14.4043 17.9785C14.1992 17.5195 14.1895 16.9629 14.2969 16.4062L3.0957 16.4062C2.11914 16.4062 1.57227 15.8887 1.57227 14.873L1.57227 3.11523C1.57227 2.09961 2.11914 1.57227 3.0957 1.57227L19.9414 1.57227C20.9082 1.57227 21.4648 2.09961 21.4648 3.11523L21.4648 4.05273C22.0117 4.0625 22.5 4.13086 23.0371 4.36523L23.0371 3.02734C23.0371 1.01562 22.0117 0 19.9707 0L3.06641 0C1.03516 0 0 1.01562 0 3.02734L0 14.9609C0 16.9727 1.03516 17.9785 3.06641 17.9785ZM16.7383 17.9785L26.1621 17.9785C26.8945 17.9785 27.3535 17.6367 27.3535 17.0508C27.3535 15.2344 25.0879 12.7344 21.4551 12.7344C17.8027 12.7344 15.5469 15.2344 15.5469 17.0508C15.5469 17.6367 15.9961 17.9785 16.7383 17.9785ZM21.4551 11.4844C22.9492 11.4844 24.2578 10.1367 24.2578 8.37891C24.2578 6.65039 22.9492 5.37109 21.4551 5.37109C19.9512 5.37109 18.6426 6.66992 18.6426 8.39844C18.6426 10.1367 19.9512 11.4844 21.4551 11.4844Z" fill="#000000" fill-opacity="0.85"/>
 </g>
</svg>
