<?xml version="1.0" encoding="UTF-8"?>
<!--Generator: Apple Native CoreSVG 175.5-->
<!DOCTYPE svg
PUBLIC "-//W3C//DTD SVG 1.1//EN"
       "http://www.w3.org/Graphics/SVG/1.1/DTD/svg11.dtd">
<svg version="1.1" xmlns="http://www.w3.org/2000/svg" xmlns:xlink="http://www.w3.org/1999/xlink" width="23.0493" height="24.3066">
 <g>
  <rect height="24.3066" opacity="0" width="23.0493" x="0" y="0"/>
  <path d="M6.1499 9.50195L6.1499 21.2305C6.1499 23.2715 7.16553 24.2969 9.17725 24.2969L18.3862 24.2969C19.2358 24.2969 19.8999 24.0918 20.3491 23.7012ZM1.62842 4.98047L1.62842 16.2988C1.62842 18.3398 2.64404 19.3652 4.65576 19.3652L4.81201 19.3652L4.81201 8.61328C4.81201 8.4668 4.81201 8.31055 4.81201 8.16406ZM6.39404 4.31641C7.10693 3.76953 8.04443 3.49609 9.17725 3.49609L16.8921 3.49609L16.8921 3.06641C16.8921 1.02539 15.8862 0 13.8647 0L4.65576 0C3.81592 0 3.16162 0.195312 2.66357 0.595703ZM21.4136 19.3457L21.4136 7.89062C21.4136 5.84961 20.4077 4.82422 18.3862 4.82422L9.17725 4.82422C8.42529 4.82422 7.81982 4.98047 7.36084 5.29297Z" fill="#000000" fill-opacity="0.85"/>
  <path d="M21.7651 23.4766C22.0581 23.7695 22.5464 23.7695 22.8296 23.4766C23.1226 23.1738 23.1226 22.7051 22.8296 22.4121L1.28662 0.849609C0.993652 0.566406 0.515137 0.556641 0.212402 0.849609C-0.0708008 1.14258-0.0708008 1.63086 0.212402 1.91406Z" fill="#000000" fill-opacity="0.85"/>
 </g>
</svg>
