<?xml version="1.0" encoding="UTF-8"?>
<!--Generator: Apple Native CoreSVG 175.5-->
<!DOCTYPE svg
PUBLIC "-//W3C//DTD SVG 1.1//EN"
       "http://www.w3.org/Graphics/SVG/1.1/DTD/svg11.dtd">
<svg version="1.1" xmlns="http://www.w3.org/2000/svg" xmlns:xlink="http://www.w3.org/1999/xlink" width="24.2969" height="23.0859">
 <g>
  <rect height="23.0859" opacity="0" width="24.2969" x="0" y="0"/>
  <path d="M5.36133 1.64551L8.54492 4.83887C8.62305 4.83887 8.70117 4.83887 8.7793 4.83887L19.3652 4.83887L19.3652 4.67285C19.3652 2.66113 18.3301 1.64551 16.2988 1.64551ZM0 13.8818C0 15.9033 1.01562 16.9092 3.06641 16.9092L3.48633 16.9092L3.48633 9.19434C3.48633 7.89551 3.84766 6.87012 4.52148 6.15723L0.820312 2.44629C0.273438 2.91504 0 3.65723 0 4.67285ZM9.88281 6.16699L23.8184 20.1025C24.1309 19.6924 24.2969 19.126 24.2969 18.4033L24.2969 9.19434C24.2969 7.18262 23.2617 6.16699 21.2305 6.16699ZM4.82422 18.4033C4.82422 20.4248 5.83984 21.4307 7.89062 21.4307L19.7949 21.4307L5.47852 7.10449C5.04883 7.58301 4.82422 8.28613 4.82422 9.19434Z" fill="#000000" fill-opacity="0.85"/>
  <path d="M22.832 22.8662C23.125 23.1592 23.6133 23.1592 23.8965 22.8662C24.1895 22.5635 24.1895 22.0947 23.8965 21.8018L2.35352 0.239258C2.06055-0.0439453 1.58203-0.0537109 1.2793 0.239258C0.996094 0.532227 0.996094 1.02051 1.2793 1.30371Z" fill="#000000" fill-opacity="0.85"/>
 </g>
</svg>
