<?xml version="1.0" encoding="UTF-8"?>
<!--Generator: Apple Native CoreSVG 175.5-->
<!DOCTYPE svg
PUBLIC "-//W3C//DTD SVG 1.1//EN"
       "http://www.w3.org/Graphics/SVG/1.1/DTD/svg11.dtd">
<svg version="1.1" xmlns="http://www.w3.org/2000/svg" xmlns:xlink="http://www.w3.org/1999/xlink" width="23.9551" height="18.9746">
 <g>
  <rect height="18.9746" opacity="0" width="23.9551" x="0" y="0"/>
  <path d="M5.85938 3.06641L5.85938 15.9082C5.85938 17.959 6.875 18.9746 8.88672 18.9746L15.5176 18.9746C17.5293 18.9746 18.5449 17.959 18.5449 15.9082L18.5449 3.06641C18.5449 1.01562 17.5391 0 15.5176 0L8.88672 0C6.86523 0 5.85938 1.01562 5.85938 3.06641ZM7.43164 3.08594C7.43164 2.10938 7.95898 1.57227 8.96484 1.57227L15.4395 1.57227C16.4453 1.57227 16.9727 2.10938 16.9727 3.08594L16.9727 15.8887C16.9727 16.8457 16.4453 17.4023 15.4395 17.4023L8.96484 17.4023C7.95898 17.4023 7.43164 16.8457 7.43164 15.8887Z" fill="#000000" fill-opacity="0.85"/>
  <path d="M22.6758 12.002C23.2812 12.4023 23.9551 12.1875 23.9551 11.4551L23.9551 7.55859C23.9551 6.79688 23.3008 6.5625 22.6758 6.99219L19.9609 8.83789C19.4727 9.16016 19.4629 9.86328 19.9609 10.1953ZM1.2793 12.002L4.00391 10.1953C4.49219 9.86328 4.48242 9.16016 4.00391 8.83789L1.2793 6.99219C0.654297 6.5625 0 6.79688 0 7.55859L0 11.4551C0 12.1875 0.683594 12.4023 1.2793 12.002Z" fill="#000000" fill-opacity="0.85"/>
 </g>
</svg>
