<?xml version="1.0" encoding="UTF-8"?>
<!--Generator: Apple Native CoreSVG 175.5-->
<!DOCTYPE svg
PUBLIC "-//W3C//DTD SVG 1.1//EN"
       "http://www.w3.org/Graphics/SVG/1.1/DTD/svg11.dtd">
<svg version="1.1" xmlns="http://www.w3.org/2000/svg" xmlns:xlink="http://www.w3.org/1999/xlink" width="29.2359" height="19.8797">
 <g>
  <rect height="19.8797" opacity="0" width="29.2359" x="0" y="0"/>
  <path d="M2.85156 18.9096L22.0801 18.9096C23.916 18.9096 24.9316 17.9428 24.9316 16.0971L24.9316 8.11856L23.3594 9.69083L23.3594 16.1752C23.3594 16.9857 22.9004 17.4447 22.0898 17.4447L2.8418 17.4447C2.03125 17.4447 1.57227 16.9857 1.57227 16.1752L1.57227 7.96231C1.57227 7.15177 2.03125 6.69278 2.8418 6.69278L18.7598 6.69278L20.2344 5.22794L2.85156 5.22794C1.01562 5.22794 0 6.19473 0 8.04044L0 16.0971C0 17.9428 1.01562 18.9096 2.85156 18.9096Z" fill="#000000" fill-opacity="0.85"/>
  <path d="M16.9238 12.5717L18.916 11.6928L27.5195 3.09903L26.1426 1.74161L17.5586 10.3354L16.6211 12.2592C16.5332 12.4252 16.7383 12.6596 16.9238 12.5717ZM28.2422 2.36661L28.9746 1.62442C29.3164 1.26309 29.3262 0.784578 28.9844 0.452547L28.75 0.218172C28.4375-0.0943281 27.9492-0.0650313 27.6172 0.267L26.8848 0.989656Z" fill="#000000" fill-opacity="0.85"/>
  <path d="M5.18555 13.4604C5.95703 13.4604 6.58203 12.8354 6.58203 12.0639C6.58203 11.2924 5.95703 10.6674 5.18555 10.6674C4.41406 10.6674 3.78906 11.2924 3.78906 12.0639C3.78906 12.8354 4.41406 13.4604 5.18555 13.4604Z" fill="#000000" fill-opacity="0.85"/>
  <path d="M9.39453 13.4604C10.166 13.4604 10.791 12.8354 10.791 12.0639C10.791 11.2924 10.166 10.6674 9.39453 10.6674C8.62305 10.6674 7.99805 11.2924 7.99805 12.0639C7.99805 12.8354 8.62305 13.4604 9.39453 13.4604Z" fill="#000000" fill-opacity="0.85"/>
  <path d="M13.6035 13.4604C14.375 13.4604 15 12.8354 15 12.0639C15 11.2924 14.375 10.6674 13.6035 10.6674C12.832 10.6674 12.207 11.2924 12.207 12.0639C12.207 12.8354 12.832 13.4604 13.6035 13.4604Z" fill="#000000" fill-opacity="0.85"/>
 </g>
</svg>
