<?xml version="1.0" encoding="UTF-8"?>
<!--Generator: Apple Native CoreSVG 175.5-->
<!DOCTYPE svg
PUBLIC "-//W3C//DTD SVG 1.1//EN"
       "http://www.w3.org/Graphics/SVG/1.1/DTD/svg11.dtd">
<svg version="1.1" xmlns="http://www.w3.org/2000/svg" xmlns:xlink="http://www.w3.org/1999/xlink" width="19.9219" height="19.9316">
 <g>
  <rect height="19.9316" opacity="0" width="19.9219" x="0" y="0"/>
  <path d="M9.96094 19.9219C15.4102 19.9219 19.9219 15.4004 19.9219 9.96094C19.9219 4.51172 15.4004 0 9.95117 0C4.51172 0 0 4.51172 0 9.96094C0 15.4004 4.52148 19.9219 9.96094 19.9219ZM9.96094 18.2617C5.35156 18.2617 1.66992 14.5703 1.66992 9.96094C1.66992 5.35156 5.3418 1.66016 9.95117 1.66016C14.5605 1.66016 18.2617 5.35156 18.2617 9.96094C18.2617 14.5703 14.5703 18.2617 9.96094 18.2617Z" fill="#000000" fill-opacity="0.85"/>
  <path d="M14.7656 14.9121C14.9414 15.0879 15.2148 15.0879 15.3906 14.9121C15.5664 14.7363 15.5664 14.4629 15.3906 14.2871L5.83008 4.72656C5.6543 4.55078 5.37109 4.55078 5.20508 4.72656C5.01953 4.89258 5.0293 5.17578 5.20508 5.35156ZM7.7832 14.5215L13.3105 14.5215L6.63086 7.8418C6.50391 8.03711 6.43555 8.30078 6.43555 8.61328L6.43555 13.1836C6.43555 14.082 6.88477 14.5215 7.7832 14.5215ZM15.5566 13.3887C15.6152 13.2324 15.6543 13.0273 15.6543 12.8125L15.6543 8.61328C15.6543 7.74414 15.2051 7.29492 14.3066 7.29492L9.46289 7.29492ZM4.29688 11.1328C4.29688 12.0117 4.74609 12.4512 5.63477 12.4512L5.85938 12.4512L5.85938 8.55469C5.85938 8.06641 5.9668 7.67578 6.17188 7.38281L4.53125 5.75195C4.375 5.95703 4.29688 6.24023 4.29688 6.60156ZM8.87695 6.70898L13.5059 6.70898L13.5059 6.60156C13.5059 5.71289 13.0664 5.27344 12.168 5.27344L7.44141 5.27344Z" fill="#000000" fill-opacity="0.85"/>
 </g>
</svg>
