<?xml version="1.0" encoding="UTF-8"?>
<!--Generator: Apple Native CoreSVG 175.5-->
<!DOCTYPE svg
PUBLIC "-//W3C//DTD SVG 1.1//EN"
       "http://www.w3.org/Graphics/SVG/1.1/DTD/svg11.dtd">
<svg version="1.1" xmlns="http://www.w3.org/2000/svg" xmlns:xlink="http://www.w3.org/1999/xlink" width="18.4766" height="24.5118">
 <g>
  <rect height="24.5118" opacity="0" width="18.4766" x="0" y="0"/>
  <path d="M3.06641 18.6475L15.4102 18.6475C17.4609 18.6475 18.4766 17.6319 18.4766 15.6202L18.4766 8.89164C18.4766 6.87992 17.4609 5.86429 15.4102 5.86429L3.06641 5.86429C1.01562 5.86429 0 6.87015 0 8.89164L0 15.6202C0 17.6416 1.01562 18.6475 3.06641 18.6475ZM3.08594 17.0752C2.10938 17.0752 1.57227 16.5479 1.57227 15.542L1.57227 8.96976C1.57227 7.95414 2.10938 7.43656 3.08594 7.43656L15.3906 7.43656C16.3574 7.43656 16.9043 7.95414 16.9043 8.96976L16.9043 15.542C16.9043 16.5479 16.3574 17.0752 15.3906 17.0752Z" fill="#000000" fill-opacity="0.85"/>
  <path d="M11.7578 3.08109L9.94141 0.366248C9.61914-0.131799 8.91602-0.112268 8.59375 0.366248L6.74805 3.08109C6.31836 3.70609 6.55273 4.37015 7.30469 4.37015L11.2012 4.37015C11.9336 4.37015 12.1582 3.68656 11.7578 3.08109ZM11.7578 21.4209C12.1582 20.8252 11.9336 20.1416 11.2012 20.1416L7.30469 20.1416C6.55273 20.1416 6.31836 20.7959 6.74805 21.4209L8.59375 24.1455C8.91602 24.6241 9.61914 24.6338 9.94141 24.1455Z" fill="#000000" fill-opacity="0.85"/>
 </g>
</svg>
