<?xml version="1.0" encoding="UTF-8"?>
<!--Generator: Apple Native CoreSVG 175.5-->
<!DOCTYPE svg
PUBLIC "-//W3C//DTD SVG 1.1//EN"
       "http://www.w3.org/Graphics/SVG/1.1/DTD/svg11.dtd">
<svg version="1.1" xmlns="http://www.w3.org/2000/svg" xmlns:xlink="http://www.w3.org/1999/xlink" width="20.6553" height="24.672">
 <g>
  <rect height="24.672" opacity="0" width="20.6553" x="0" y="0"/>
  <path d="M20.6553 8.07332C20.6553 6.0323 19.6494 5.00691 17.628 5.00691L8.41898 5.00691C6.40726 5.00691 5.39163 6.0323 5.39163 8.07332L5.39163 21.4132C5.39163 23.4542 6.40726 24.4796 8.41898 24.4796L17.628 24.4796C19.6397 24.4796 20.6553 23.4542 20.6553 21.4132Z" fill="#000000" fill-opacity="0.85"/>
  <path d="M8.41898 3.67879L15.294 3.67879L15.1084 2.57527C14.7569 0.553788 13.5752-0.266524 11.5928 0.0752726L2.53031 1.66707C0.547885 2.01863-0.272428 3.20027 0.0791346 5.22176L2.37406 18.2491C2.59867 19.5284 3.16507 20.3096 4.06351 20.6319L4.06351 8.07332C4.06351 5.29012 5.65531 3.67879 8.41898 3.67879Z" fill="#000000" fill-opacity="0.85"/>
 </g>
</svg>
