<?xml version="1.0" encoding="UTF-8"?>
<!--Generator: Apple Native CoreSVG 175.5-->
<!DOCTYPE svg
PUBLIC "-//W3C//DTD SVG 1.1//EN"
       "http://www.w3.org/Graphics/SVG/1.1/DTD/svg11.dtd">
<svg version="1.1" xmlns="http://www.w3.org/2000/svg" xmlns:xlink="http://www.w3.org/1999/xlink" width="24.8929" height="21.2032">
 <g>
  <rect height="21.2032" opacity="0" width="24.8929" x="0" y="0"/>
  <path d="M4.09212 8.25296C4.09212 5.49906 5.71321 3.89749 8.49642 3.89749L19.3851 3.89749L19.1409 2.53031C18.7894 0.547885 17.6175-0.272428 15.6058 0.0791346L2.56868 2.37406C0.556963 2.73538-0.273115 3.90726 0.0784478 5.88968L1.68001 14.9619C1.96321 16.544 2.76399 17.3741 4.09212 17.4717C4.09212 17.4424 4.09212 17.4034 4.09212 17.3741Z" fill="#000000" fill-opacity="0.85"/>
  <path d="M8.49642 20.4893L21.8363 20.4893C23.8675 20.4893 24.8929 19.4737 24.8929 17.4619L24.8929 8.25296C24.8929 6.24124 23.8675 5.22562 21.8363 5.22562L8.49642 5.22562C6.44564 5.22562 5.43001 6.24124 5.43001 8.25296L5.43001 17.4619C5.43001 19.4834 6.44564 20.4893 8.49642 20.4893Z" fill="#000000" fill-opacity="0.85"/>
 </g>
</svg>
