<?xml version="1.0" encoding="UTF-8"?>
<!--Generator: Apple Native CoreSVG 175.5-->
<!DOCTYPE svg
PUBLIC "-//W3C//DTD SVG 1.1//EN"
       "http://www.w3.org/Graphics/SVG/1.1/DTD/svg11.dtd">
<svg version="1.1" xmlns="http://www.w3.org/2000/svg" xmlns:xlink="http://www.w3.org/1999/xlink" width="23.0273" height="21.1597">
 <g>
  <rect height="21.1597" opacity="0" width="23.0273" x="0" y="0"/>
  <path d="M19.9609 1.59059L5.23438 1.59059L6.80664 3.16286L19.9414 3.16286C20.9082 3.16286 21.4551 3.6902 21.4551 4.70583L21.4551 16.4636C21.4551 16.9031 21.3184 17.2254 21.0645 17.4207L22.3145 18.6609C22.7832 18.1922 23.0273 17.4793 23.0273 16.5515L23.0273 4.61793C23.0273 2.60622 22.0117 1.59059 19.9609 1.59059ZM3.06641 19.5691L17.8711 19.5691L16.2988 17.9968L3.08594 17.9968C2.10938 17.9968 1.57227 17.4793 1.57227 16.4636L1.57227 4.70583C1.57227 4.23708 1.71875 3.90504 1.98242 3.70973L0.751953 2.47926C0.253906 2.93825 0 3.6609 0 4.61793L0 16.5515C0 18.5632 1.02539 19.5691 3.06641 19.5691Z" fill="#000000" fill-opacity="0.85"/>
  <path d="M20.8398 20.9363C21.1426 21.2293 21.6211 21.239 21.9043 20.9363C22.1973 20.6433 22.207 20.1648 21.9043 19.8718L2.26562 0.242935C1.97266-0.0500338 1.49414-0.0597994 1.19141 0.242935C0.908203 0.526138 0.908203 1.01442 1.19141 1.30739Z" fill="#000000" fill-opacity="0.85"/>
 </g>
</svg>
