<?xml version="1.0" encoding="UTF-8"?>
<!--Generator: Apple Native CoreSVG 175.5-->
<!DOCTYPE svg
PUBLIC "-//W3C//DTD SVG 1.1//EN"
       "http://www.w3.org/Graphics/SVG/1.1/DTD/svg11.dtd">
<svg version="1.1" xmlns="http://www.w3.org/2000/svg" xmlns:xlink="http://www.w3.org/1999/xlink" width="19.9219" height="19.9316">
 <g>
  <rect height="19.9316" opacity="0" width="19.9219" x="0" y="0"/>
  <path d="M9.96094 19.9219C15.4102 19.9219 19.9219 15.4004 19.9219 9.96094C19.9219 4.51172 15.4004 0 9.95117 0C4.51172 0 0 4.51172 0 9.96094C0 15.4004 4.52148 19.9219 9.96094 19.9219Z" fill="#000000" fill-opacity="0.85"/>
  <path d="M14.9121 15.0684L5.05859 5.21484C4.88281 5.03906 4.87305 4.75586 5.05859 4.57031C5.23438 4.38477 5.52734 4.38477 5.70312 4.57031L15.5566 14.4238C15.7422 14.6094 15.7422 14.8926 15.5566 15.0684C15.3809 15.2637 15.0977 15.2637 14.9121 15.0684ZM7.71484 14.668C6.78711 14.668 6.32812 14.2188 6.32812 13.3008L6.32812 8.58398C6.32812 8.25195 6.39648 7.99805 6.52344 7.79297L13.418 14.668ZM15.7324 13.4961L9.45312 7.22656L14.4434 7.22656C15.3711 7.22656 15.8301 7.69531 15.8301 8.58398L15.8301 12.9102C15.8301 13.1348 15.791 13.3301 15.7324 13.4961ZM4.12109 11.1719L4.12109 6.51367C4.12109 6.14258 4.19922 5.83984 4.35547 5.625L6.05469 7.31445C5.83984 7.60742 5.73242 8.01758 5.73242 8.52539L5.73242 12.5391L5.49805 12.5391C4.58008 12.5391 4.12109 12.0898 4.12109 11.1719ZM8.84766 6.61133L7.37305 5.12695L12.2363 5.12695C13.1641 5.12695 13.6133 5.58594 13.6133 6.51367L13.6133 6.61133Z" fill="#ffffff"/>
 </g>
</svg>
