<?xml version="1.0" encoding="UTF-8"?>
<!--Generator: Apple Native CoreSVG 175.5-->
<!DOCTYPE svg
PUBLIC "-//W3C//DTD SVG 1.1//EN"
       "http://www.w3.org/Graphics/SVG/1.1/DTD/svg11.dtd">
<svg version="1.1" xmlns="http://www.w3.org/2000/svg" xmlns:xlink="http://www.w3.org/1999/xlink" width="19.7852" height="24.3066">
 <g>
  <rect height="24.3066" opacity="0" width="19.7852" x="0" y="0"/>
  <path d="M3.18359 7.89062C3.18359 5.10742 4.78516 3.49609 7.54883 3.49609L15.2637 3.49609L15.2637 3.06641C15.2637 1.02539 14.2578 0 12.2363 0L3.02734 0C1.00586 0 0 1.02539 0 3.06641L0 16.2988C0 18.3398 1.01562 19.3652 3.02734 19.3652L3.18359 19.3652Z" fill="#000000" fill-opacity="0.85"/>
  <path d="M19.7852 7.89062C19.7852 5.84961 18.7793 4.82422 16.7578 4.82422L7.54883 4.82422C5.52734 4.82422 4.52148 5.84961 4.52148 7.89062L4.52148 21.2305C4.52148 23.2715 5.53711 24.2969 7.54883 24.2969L16.7578 24.2969C18.7695 24.2969 19.7852 23.2715 19.7852 21.2305Z" fill="#000000" fill-opacity="0.85"/>
 </g>
</svg>
