<?xml version="1.0" encoding="UTF-8"?>
<!--Generator: Apple Native CoreSVG 175.5-->
<!DOCTYPE svg
PUBLIC "-//W3C//DTD SVG 1.1//EN"
       "http://www.w3.org/Graphics/SVG/1.1/DTD/svg11.dtd">
<svg version="1.1" xmlns="http://www.w3.org/2000/svg" xmlns:xlink="http://www.w3.org/1999/xlink" width="24.8929" height="21.2032">
 <g>
  <rect height="21.2032" opacity="0" width="24.8929" x="0" y="0"/>
  <path d="M1.68001 14.9619C2.04134 16.9444 3.20345 17.7549 5.22493 17.4034L6.43587 17.1983L6.43587 15.6065L4.98079 15.8506C4.01399 16.0264 3.38899 15.6065 3.21321 14.6104L1.64095 5.70413C1.46517 4.69828 1.90462 4.08304 2.87142 3.91703L15.8499 1.63187C16.7972 1.46585 17.432 1.87601 17.6175 2.88187L18.1253 5.72367L19.7171 5.72367L19.1409 2.53031C18.7894 0.547885 17.6175-0.272428 15.6058 0.0791346L2.56868 2.37406C0.556963 2.73538-0.273115 3.90726 0.0784478 5.88968Z" fill="#000000" fill-opacity="0.85"/>
  <path d="M8.49642 20.4893L21.8363 20.4893C23.8675 20.4893 24.8929 19.4737 24.8929 17.4619L24.8929 8.25296C24.8929 6.24124 23.8675 5.22562 21.8363 5.22562L8.49642 5.22562C6.44564 5.22562 5.43001 6.24124 5.43001 8.25296L5.43001 17.4619C5.43001 19.4834 6.44564 20.4893 8.49642 20.4893ZM8.51595 18.917C7.53939 18.917 7.00228 18.3994 7.00228 17.3838L7.00228 8.34085C7.00228 7.32523 7.53939 6.79788 8.51595 6.79788L21.807 6.79788C22.7738 6.79788 23.3206 7.32523 23.3206 8.34085L23.3206 17.3838C23.3206 18.3994 22.7738 18.917 21.807 18.917Z" fill="#000000" fill-opacity="0.85"/>
 </g>
</svg>
