<?xml version="1.0" encoding="UTF-8"?>
<!--Generator: Apple Native CoreSVG 175.5-->
<!DOCTYPE svg
PUBLIC "-//W3C//DTD SVG 1.1//EN"
       "http://www.w3.org/Graphics/SVG/1.1/DTD/svg11.dtd">
<svg version="1.1" xmlns="http://www.w3.org/2000/svg" xmlns:xlink="http://www.w3.org/1999/xlink" width="19.5605" height="25.0893">
 <g>
  <rect height="25.0893" opacity="0" width="19.5605" x="0" y="0"/>
  <path d="M7.37305 21.5437L17.0508 21.5437C18.7207 21.5437 19.5605 20.7429 19.5605 19.0339L19.5605 9.3757C19.5605 7.66672 18.7207 6.86594 17.0508 6.86594L7.37305 6.86594C5.70312 6.86594 4.86328 7.66672 4.86328 9.3757L4.86328 19.0339C4.86328 20.7429 5.70312 21.5437 7.37305 21.5437Z" fill="#000000" fill-opacity="0.85"/>
  <path d="M0.605469 8.73117C0.9375 8.73117 1.2207 8.45774 1.2207 8.1257L1.2207 6.67063C1.2207 4.58078 2.55859 3.11594 4.67773 3.11594L4.86328 3.11594L4.86328 4.30734C4.86328 5.01047 5.41016 5.17649 5.95703 4.77609L8.41797 2.97922C8.83789 2.67649 8.82812 2.33469 8.41797 2.02219L5.95703 0.215548C5.41016-0.184843 4.86328-0.0285926 4.86328 0.694064L4.86328 1.98313L4.66797 1.98313C1.85547 1.98313 0 3.86789 0 6.66086L0 8.1257C0 8.45774 0.273438 8.73117 0.605469 8.73117Z" fill="#000000" fill-opacity="0.85"/>
 </g>
</svg>
