<?xml version="1.0" encoding="UTF-8"?>
<!--Generator: Apple Native CoreSVG 175.5-->
<!DOCTYPE svg
PUBLIC "-//W3C//DTD SVG 1.1//EN"
       "http://www.w3.org/Graphics/SVG/1.1/DTD/svg11.dtd">
<svg version="1.1" xmlns="http://www.w3.org/2000/svg" xmlns:xlink="http://www.w3.org/1999/xlink" width="19.5703" height="25.0893">
 <g>
  <rect height="25.0893" opacity="0" width="19.5703" x="0" y="0"/>
  <path d="M2.50977 21.5437L12.1875 21.5437C13.8574 21.5437 14.6973 20.7429 14.6973 19.0339L14.6973 9.3757C14.6973 7.66672 13.8574 6.86594 12.1875 6.86594L2.50977 6.86594C0.839844 6.86594 0 7.66672 0 9.3757L0 19.0339C0 20.7429 0.839844 21.5437 2.50977 21.5437Z" fill="#000000" fill-opacity="0.85"/>
  <path d="M18.9551 8.73117C19.2871 8.73117 19.5703 8.45774 19.5703 8.1257L19.5703 6.66086C19.5703 3.86789 17.7051 1.98313 14.9023 1.98313L14.6973 1.98313L14.6973 0.694064C14.6973-0.0285926 14.1504-0.184843 13.6035 0.215548L11.1426 2.02219C10.7227 2.32492 10.7227 2.67649 11.1426 2.97922L13.6035 4.77609C14.1504 5.17649 14.6973 5.01047 14.6973 4.30734L14.6973 3.11594L14.8926 3.11594C17.0117 3.11594 18.3496 4.58078 18.3496 6.67063L18.3496 8.1257C18.3496 8.45774 18.623 8.73117 18.9551 8.73117Z" fill="#000000" fill-opacity="0.85"/>
 </g>
</svg>
