<?xml version="1.0" encoding="UTF-8"?>
<!--Generator: Apple Native CoreSVG 175.5-->
<!DOCTYPE svg
PUBLIC "-//W3C//DTD SVG 1.1//EN"
       "http://www.w3.org/Graphics/SVG/1.1/DTD/svg11.dtd">
<svg version="1.1" xmlns="http://www.w3.org/2000/svg" xmlns:xlink="http://www.w3.org/1999/xlink" width="23.6133" height="17.998">
 <g>
  <rect height="17.998" opacity="0" width="23.6133" x="0" y="0"/>
  <path d="M8.39844 0.0195312C2.57812 0.0195312 0 2.68555 0 8.1543L0 14.9707C0 16.9922 1.02539 17.998 3.06641 17.998L20.5469 17.998C22.5879 17.998 23.6133 16.9824 23.6133 14.9707L23.6133 8.1543C23.6133 2.68555 21.0352 0.0195312 15.2246 0.0195312ZM8.39844 1.61133L15.2148 1.61133C19.9609 1.61133 22.041 3.68164 22.041 8.06641L22.041 14.8926C22.041 15.9082 21.4941 16.4258 20.5273 16.4258L3.08594 16.4258C2.10938 16.4258 1.57227 15.9082 1.57227 14.8926L1.57227 8.06641C1.57227 3.68164 3.65234 1.61133 8.39844 1.61133Z" fill="#000000" fill-opacity="0.85"/>
  <path d="M5.2832 13.5156C5.80078 13.5156 6.07422 13.1934 6.07422 12.6465L6.07422 10.2246L7.89062 10.2246L9.58008 13.0078C9.81445 13.3789 10.0195 13.5156 10.3613 13.5156C10.7812 13.5156 11.0742 13.2422 11.0742 12.8516C11.0742 12.6367 11.0156 12.4805 10.8984 12.2852L9.42383 10C10.5762 9.61914 11.3184 8.59375 11.3184 7.37305C11.3184 5.625 10.0586 4.50195 8.08594 4.50195L5.27344 4.50195C4.77539 4.50195 4.51172 4.86328 4.51172 5.38086L4.51172 12.6465C4.51172 13.1738 4.78516 13.5156 5.2832 13.5156ZM6.07422 9.08203L6.07422 5.69336L7.89062 5.69336C9.01367 5.69336 9.77539 6.31836 9.77539 7.41211C9.77539 8.48633 9.0332 9.08203 7.85156 9.08203ZM16.084 13.5156C16.6016 13.5156 16.875 13.1836 16.875 12.6367L16.875 5.78125L19.3066 5.78125C19.6777 5.78125 19.9512 5.53711 19.9512 5.14648C19.9512 4.73633 19.6777 4.50195 19.3066 4.50195L12.9102 4.50195C12.5391 4.50195 12.2656 4.73633 12.2656 5.14648C12.2656 5.53711 12.5391 5.78125 12.9102 5.78125L15.3125 5.78125L15.3125 12.6367C15.3125 13.1641 15.5859 13.5156 16.084 13.5156Z" fill="#000000" fill-opacity="0.85"/>
 </g>
</svg>
