<?xml version="1.0" encoding="UTF-8"?>
<!--Generator: Apple Native CoreSVG 175.5-->
<!DOCTYPE svg
PUBLIC "-//W3C//DTD SVG 1.1//EN"
       "http://www.w3.org/Graphics/SVG/1.1/DTD/svg11.dtd">
<svg version="1.1" xmlns="http://www.w3.org/2000/svg" xmlns:xlink="http://www.w3.org/1999/xlink" width="22.4216" height="25.4395">
 <g>
  <rect height="25.4395" opacity="0" width="22.4216" x="0" y="0"/>
  <path d="M0.0820954 19.9023L0.921939 22.7832C1.06842 23.2812 1.2735 23.6426 1.54694 23.9062L2.82624 23.0762C2.48444 22.9395 2.25983 22.666 2.12311 22.2168L1.46881 19.7949C1.41999 19.6387 1.47858 19.5312 1.6446 19.5312L20.5997 19.5312C20.7657 19.5312 20.8145 19.668 20.6973 19.7949L18.588 22.207C18.2559 22.5781 17.9825 22.8906 17.3965 23.0566L18.588 23.9355C19.1055 23.584 19.4962 23.0957 19.9942 22.5195L22.1036 20.0977C22.7969 19.2871 22.2989 18.2031 21.1661 18.2031L1.31256 18.2031C0.257877 18.2031-0.201108 18.9258 0.0820954 19.9023ZM9.3692 19.0234L10.6876 19.0234L10.6876 0.664062C10.6876 0.302734 10.3946 0 10.0333 0C9.67194 0 9.3692 0.302734 9.3692 0.664062ZM10.1212 15.6641L14.1348 15.6641C17.0743 15.6641 18.7149 14.1602 18.7149 11.7285C18.7149 7.58789 14.418 2.92969 10.4044 0.839844L9.7403 1.98242C13.0606 3.42773 17.3965 7.76367 17.3965 11.5234C17.3965 13.2227 16.1954 14.3359 14.1544 14.3359L10.1212 14.3359ZM10.9415 2.59766C14.1934 7.24609 13.1485 12.9004 10.0723 14.4531L10.3458 15.6055C14.5352 13.6816 15.5411 7.60742 12.0743 2.40234ZM2.43561 15.6641L9.87702 15.6641L9.87702 14.3359L3.70514 14.3359C3.58795 14.3359 3.54889 14.2188 3.63678 14.1504C6.98639 11.6309 10.0626 5.83008 10.5704 1.85547L9.3692 1.02539C9.44733 4.31641 6.38092 10.5762 1.8985 13.8281C0.94147 14.5215 1.47858 15.6641 2.43561 15.6641ZM10.336 24.9609C13.002 24.9609 13.4219 22.9785 14.9747 22.9785C16.5567 22.9785 16.8106 24.9609 19.8575 24.9609L20.8536 24.9609C21.2344 24.9609 21.5372 24.6484 21.5372 24.2676C21.5372 23.8867 21.2344 23.584 20.8536 23.584L19.8575 23.584C18.8126 23.584 18.2169 23.1445 17.4844 22.627C16.8497 22.168 16.0587 21.6016 14.9747 21.6016C13.8516 21.6016 13.0508 22.1973 12.4161 22.6758C11.7423 23.1836 11.2149 23.584 10.336 23.584C9.4571 23.584 8.92975 23.1836 8.25592 22.6758C7.62116 22.1973 6.82038 21.6016 5.69733 21.6016C4.61335 21.6016 3.82233 22.168 3.18756 22.627C2.45514 23.1445 1.85944 23.584 0.814517 23.584L0.765689 23.584C0.38483 23.584 0.0723298 23.8867 0.0723298 24.2676C0.0723298 24.6484 0.38483 24.9609 0.765689 24.9609L0.814517 24.9609C3.86139 24.9609 4.1153 22.9785 5.69733 22.9785C7.25006 22.9785 7.66999 24.9609 10.336 24.9609Z" fill="#000000" fill-opacity="0.85"/>
 </g>
</svg>
