<?xml version="1.0" encoding="UTF-8"?>
<!--Generator: Apple Native CoreSVG 175.5-->
<!DOCTYPE svg
PUBLIC "-//W3C//DTD SVG 1.1//EN"
       "http://www.w3.org/Graphics/SVG/1.1/DTD/svg11.dtd">
<svg version="1.1" xmlns="http://www.w3.org/2000/svg" xmlns:xlink="http://www.w3.org/1999/xlink" width="29.1309" height="22.5391">
 <g>
  <rect height="22.5391" opacity="0" width="29.1309" x="0" y="0"/>
  <path d="M0.791016 19.3604C1.2207 19.3604 1.57227 19.0283 1.57227 18.5791C1.57227 13.999 3.60352 9.93652 6.72852 7.36816L5.625 6.24512C2.20703 9.10645 0 13.5791 0 18.5791C0 19.0283 0.351562 19.3604 0.791016 19.3604ZM28.3301 19.3604C28.7695 19.3604 29.1309 19.0283 29.1309 18.5791C29.1309 9.96582 22.5781 2.91504 14.5605 2.91504C12.5488 2.91504 10.6348 3.35449 8.89648 4.16504L10.0977 5.36621C11.4844 4.80957 12.9883 4.49707 14.5605 4.49707C21.7188 4.49707 27.5586 10.8252 27.5586 18.5791C27.5586 19.0283 27.9004 19.3604 28.3301 19.3604ZM5.3125 19.3604C5.74219 19.3604 6.12305 19.0283 6.12305 18.5889C6.12305 15.376 7.73438 12.4951 10.2441 10.874C10.1562 10.7764 10.0586 10.6787 9.9707 10.6006L9.13086 9.75098C6.32812 11.6553 4.53125 14.9658 4.53125 18.5889C4.53125 19.0283 4.87305 19.3604 5.3125 19.3604ZM24.248 19.2334C24.4629 19.1064 24.6094 18.8623 24.6094 18.5889C24.6094 14.4873 22.3438 10.7861 18.8965 9.04785C18.9551 9.61426 18.916 10.2002 18.7695 10.7764C21.2012 12.29 22.8125 14.9658 22.998 17.9834ZM16.6113 11.8896C17.2168 11.3135 17.5977 10.4541 17.5977 9.47754C17.5977 7.63184 16.1719 6.24512 14.5801 6.24512C13.6328 6.24512 12.7734 6.74316 12.2363 7.50488ZM9.64844 19.5947L18.9648 19.5947L13.4277 14.0576C10.2441 14.4971 8.32031 16.8018 8.32031 18.5498C8.32031 19.2041 8.81836 19.5947 9.64844 19.5947Z" fill="#000000" fill-opacity="0.425"/>
  <path d="M23.3008 22.3193C23.5938 22.6123 24.082 22.6123 24.3652 22.3193C24.6484 22.0264 24.6582 21.5576 24.3652 21.2549L6.12305 3.00293C5.82031 2.7002 5.35156 2.7002 5.04883 3.00293C4.76562 3.28613 4.76562 3.77441 5.04883 4.06738Z" fill="#000000" fill-opacity="0.85"/>
 </g>
</svg>
