<?xml version="1.0" encoding="UTF-8"?>
<!--Generator: Apple Native CoreSVG 175.5-->
<!DOCTYPE svg
PUBLIC "-//W3C//DTD SVG 1.1//EN"
       "http://www.w3.org/Graphics/SVG/1.1/DTD/svg11.dtd">
<svg version="1.1" xmlns="http://www.w3.org/2000/svg" xmlns:xlink="http://www.w3.org/1999/xlink" width="19.7424" height="19.7656">
 <g>
  <rect height="19.7656" opacity="0" width="19.7424" x="0" y="0"/>
  <path d="M2.37428 5.1416L2.37428 11.6846C2.37428 15.1904 4.25905 16.4795 9.71803 19.5557C9.97194 19.6924 10.2063 19.7412 10.3626 19.7412C10.5188 19.7412 10.763 19.6826 11.0071 19.5557C12.4915 18.7744 13.7024 18.0908 14.679 17.4658ZM17.5305 14.8682C18.1165 13.9697 18.3508 12.9639 18.3508 11.6846L18.3508 4.32129C18.3508 3.31543 17.9212 2.99316 17.1008 2.65137C15.9583 2.18262 12.3059 0.854492 11.1731 0.463867C10.9094 0.375977 10.636 0.327148 10.3626 0.327148C10.0891 0.327148 9.81569 0.385742 9.56178 0.463867C8.66335 0.766602 6.47585 1.55762 4.84499 2.17285Z" fill="#000000" fill-opacity="0.85"/>
  <path d="M18.4583 19.5459C18.7512 19.8389 19.2395 19.8389 19.5227 19.5459C19.8157 19.2529 19.8157 18.7744 19.5227 18.4814L1.2903 0.258789C0.99733-0.0341797 0.518814-0.0341797 0.21608 0.258789C-0.0768888 0.541992-0.0671232 1.03027 0.21608 1.32324Z" fill="#000000" fill-opacity="0.85"/>
 </g>
</svg>
