<?xml version="1.0" encoding="UTF-8"?>
<!--Generator: Apple Native CoreSVG 175.5-->
<!DOCTYPE svg
PUBLIC "-//W3C//DTD SVG 1.1//EN"
       "http://www.w3.org/Graphics/SVG/1.1/DTD/svg11.dtd">
<svg version="1.1" xmlns="http://www.w3.org/2000/svg" xmlns:xlink="http://www.w3.org/1999/xlink" width="19.7424" height="20.2441">
 <g>
  <rect height="20.2441" opacity="0" width="19.7424" x="0" y="0"/>
  <path d="M2.26686 12.0508C2.26686 15.6152 4.18092 16.9238 9.7278 20.0488C9.9817 20.1855 10.2258 20.2441 10.3821 20.2441C10.5383 20.2441 10.7923 20.1855 11.0364 20.0488C12.5696 19.1895 13.8098 18.4668 14.8157 17.8027L13.6243 16.6016C12.8919 17.0801 12.0227 17.5977 10.9876 18.2422C10.7044 18.418 10.5383 18.4766 10.3821 18.4766C10.2258 18.4766 10.0696 18.418 9.77663 18.2422C5.26491 15.5078 3.8196 14.707 3.8196 11.6895L3.8196 6.79688L2.26686 5.25391ZM17.6673 15.2148C18.2532 14.3262 18.4973 13.3398 18.4973 12.0508L18.4973 4.58008C18.4973 3.55469 18.0579 3.23242 17.2278 2.88086C16.0755 2.40234 12.3548 1.06445 11.2024 0.664062C10.9387 0.576172 10.6555 0.517578 10.3821 0.517578C10.1087 0.517578 9.82545 0.595703 9.57155 0.664062C8.67311 0.947266 6.48561 1.73828 4.83522 2.37305L6.05592 3.60352C7.39381 3.10547 9.03444 2.51953 9.99147 2.17773C10.1477 2.10938 10.2747 2.08984 10.3821 2.08984C10.4895 2.08984 10.6165 2.11914 10.7727 2.17773C12.2669 2.71484 15.1087 3.79883 16.6223 4.31641C16.886 4.41406 16.9446 4.55078 16.9446 4.88281L16.9446 11.6895C16.9446 12.6367 16.7981 13.3691 16.4465 13.9941Z" fill="#000000" fill-opacity="0.85"/>
  <path d="M18.4583 19.7852C18.7512 20.0781 19.2395 20.0781 19.5227 19.7852C19.8157 19.4922 19.8157 19.0137 19.5227 18.7207L1.2903 0.498047C0.99733 0.205078 0.518814 0.205078 0.21608 0.498047C-0.0768888 0.78125-0.0671232 1.26953 0.21608 1.5625Z" fill="#000000" fill-opacity="0.85"/>
 </g>
</svg>
