<?xml version="1.0" encoding="UTF-8"?>
<!--Generator: Apple Native CoreSVG 175.5-->
<!DOCTYPE svg
PUBLIC "-//W3C//DTD SVG 1.1//EN"
       "http://www.w3.org/Graphics/SVG/1.1/DTD/svg11.dtd">
<svg version="1.1" xmlns="http://www.w3.org/2000/svg" xmlns:xlink="http://www.w3.org/1999/xlink" width="28.418" height="21.4746">
 <g>
  <rect height="21.4746" opacity="0" width="28.418" x="0" y="0"/>
  <path d="M8.68164 6.2207C8.62305 6.43555 8.60352 6.66992 8.60352 6.96289L8.60352 10.0781L11.5137 10.0781C12.6758 10.0781 13.3496 10.7617 13.3496 11.9434C13.3496 13.125 12.6758 13.8086 11.5137 13.8086L8.60352 13.8086L8.60352 14.5703C8.60352 15.9863 9.10156 16.5137 10 17.0312L17.6562 21.3867C17.7148 21.4258 17.7734 21.4551 17.8418 21.4746L17.8418 11.4551ZM19.1797 21.4746C19.248 21.4551 19.3066 21.4258 19.375 21.3867L27.0215 17.0312C27.9297 16.5137 28.418 15.9863 28.418 14.5703L28.418 6.96289C28.418 6.66992 28.3984 6.43555 28.3398 6.2207L19.1797 11.4551ZM18.5156 10.2832L22.6855 7.91992L13.4375 2.63672L9.85352 4.67773C9.63867 4.79492 9.46289 4.91211 9.30664 5.05859ZM24.043 7.14844L27.7148 5.05859C27.5684 4.91211 27.3926 4.79492 27.1777 4.67773L20.2832 0.751953C19.6875 0.410156 19.0918 0.224609 18.5156 0.224609C17.9297 0.224609 17.334 0.410156 16.7383 0.751953L14.7559 1.875Z" fill="#000000" fill-opacity="0.85"/>
  <path d="M12.3535 11.9434C12.3535 11.4355 11.9922 11.0742 11.4941 11.0742L4.93164 11.0742L1.92383 11.1719L1.92383 11.7188L4.58984 9.29688L5.9375 8.10547C6.15234 7.91992 6.2207 7.67578 6.2207 7.44141C6.2207 6.95312 5.84961 6.60156 5.36133 6.60156C5.13672 6.60156 4.93164 6.67969 4.73633 6.86523L0.302734 11.2891C0.107422 11.4746 0 11.6992 0 11.9434C0 12.1875 0.107422 12.4121 0.302734 12.5977L4.70703 16.9922C4.92188 17.207 5.13672 17.2852 5.36133 17.2852C5.84961 17.2852 6.2207 16.9336 6.2207 16.4453C6.2207 16.2109 6.16211 15.9668 5.9375 15.7812L4.58984 14.5898L1.92383 12.168L1.92383 12.7148L4.93164 12.8125L11.4941 12.8125C11.9922 12.8125 12.3535 12.4512 12.3535 11.9434Z" fill="#000000" fill-opacity="0.85"/>
 </g>
</svg>
