<?xml version="1.0" encoding="UTF-8"?>
<!--Generator: Apple Native CoreSVG 175.5-->
<!DOCTYPE svg
PUBLIC "-//W3C//DTD SVG 1.1//EN"
       "http://www.w3.org/Graphics/SVG/1.1/DTD/svg11.dtd">
<svg version="1.1" xmlns="http://www.w3.org/2000/svg" xmlns:xlink="http://www.w3.org/1999/xlink" width="58.612" height="51.8384">
 <g>
  <rect height="51.8384" opacity="0" width="58.612" x="0" y="0"/>
  <path d="M1.96861 51.8074C3.06176 51.8074 3.93202 50.9113 3.93202 49.844L3.93202 1.9634C3.93202 0.896179 3.06176 0 1.96861 0C0.890892 0 0 0.896179 0 1.9634L0 49.844C0 50.9113 0.890892 51.8074 1.96861 51.8074ZM56.6484 51.8074C57.716 51.8074 58.612 50.9113 58.612 49.844L58.612 1.9634C58.612 0.896179 57.716 0 56.6484 0C55.5449 0 54.68 0.896179 54.68 1.9634L54.68 49.844C54.68 50.9113 55.5449 51.8074 56.6484 51.8074ZM50.143 10.2087L56.6484 10.2087L56.6484 7.03243L50.143 7.03243ZM50.143 21.779L56.6484 21.779L56.6484 18.5768L50.143 18.5768ZM50.143 33.3288L56.6484 33.3288L56.6484 30.1213L50.143 30.1213ZM50.143 44.8733L56.6484 44.8733L56.6484 41.6711L50.143 41.6711Z" fill="#007aff"/>
  <path d="M8.54281 13.347L50.0639 13.347C51.1273 13.347 51.8328 12.6469 51.8328 11.6198L51.8328 5.62126C51.8328 4.5995 51.1273 3.89936 50.0639 3.89936L8.54281 3.89936C7.48464 3.89936 6.77918 4.5995 6.77918 5.62126L6.77918 11.6198C6.77918 12.6469 7.48464 13.347 8.54281 13.347ZM8.54281 24.8915L50.0639 24.8915C51.1273 24.8915 51.8328 24.2172 51.8328 23.1696L51.8328 17.1657C51.8328 16.144 51.1273 15.4491 50.0639 15.4491L8.54281 15.4491C7.48464 15.4491 6.77918 16.144 6.77918 17.1657L6.77918 23.1696C6.77918 24.2172 7.48464 24.8915 8.54281 24.8915ZM8.54281 36.436L50.0639 36.436C51.1273 36.436 51.8328 35.767 51.8328 34.7399L51.8328 28.7102C51.8328 27.6937 51.1273 27.0194 50.0639 27.0194L8.54281 27.0194C7.48464 27.0194 6.77918 27.6937 6.77918 28.7102L6.77918 34.7399C6.77918 35.767 7.48464 36.436 8.54281 36.436ZM8.54281 48.0116L50.0639 48.0116C51.1273 48.0116 51.8328 47.3114 51.8328 46.2844L51.8328 40.2858C51.8328 39.2382 51.1273 38.5639 50.0639 38.5639L8.54281 38.5639C7.48464 38.5639 6.77918 39.2382 6.77918 40.2858L6.77918 46.2844C6.77918 47.3114 7.48464 48.0116 8.54281 48.0116Z" fill="#ffffff"/>
 </g>
</svg>
