<?xml version="1.0" encoding="UTF-8"?>
<!--Generator: Apple Native CoreSVG 175.5-->
<!DOCTYPE svg
PUBLIC "-//W3C//DTD SVG 1.1//EN"
       "http://www.w3.org/Graphics/SVG/1.1/DTD/svg11.dtd">
<svg version="1.1" xmlns="http://www.w3.org/2000/svg" xmlns:xlink="http://www.w3.org/1999/xlink" width="20.0098" height="21.3574">
 <g>
  <rect height="21.3574" opacity="0" width="20.0098" x="0" y="0"/>
  <path d="M17.9395 12.4512C19.2676 12.4512 20.0098 11.7188 20.0098 10.4102L20.0098 4.9707C20.0098 3.66211 19.2676 2.93945 17.9395 2.93945L5.18556 2.93945C4.31642 2.93945 3.90627 3.20312 3.40822 3.68164L0.810564 6.16211C-0.283186 7.2168-0.25389 8.20312 0.800798 9.20898L3.40822 11.6992C3.90627 12.1777 4.31642 12.4316 5.19533 12.4316ZM17.9004 10.8691L5.24416 10.8691C4.8633 10.8691 4.72658 10.791 4.5508 10.6152L1.85549 8.06641C1.60158 7.83203 1.60158 7.5293 1.85549 7.30469L4.54103 4.76562C4.72658 4.58984 4.8633 4.51172 5.23439 4.51172L17.9004 4.51172C18.2031 4.51172 18.3985 4.70703 18.3985 5.01953L18.3985 10.3613C18.3985 10.6738 18.2031 10.8691 17.9004 10.8691ZM11.7676 4.16992L11.7676 0.791016C11.7676 0.361328 11.416 0 10.9863 0C10.5567 0 10.1953 0.361328 10.1953 0.791016L10.1953 4.16992ZM11.7676 11.8945L10.1953 11.8945L10.1953 20.5078L11.7676 20.5078ZM15.5274 19.7754C15.5274 19.3457 15.1758 18.9844 14.7461 18.9844L7.21681 18.9844C6.78713 18.9844 6.43556 19.3457 6.43556 19.7754C6.43556 20.2051 6.78713 20.5566 7.21681 20.5566L14.7461 20.5566C15.1758 20.5566 15.5274 20.2051 15.5274 19.7754Z" fill="#000000" fill-opacity="0.85"/>
 </g>
</svg>
