<?xml version="1.0" encoding="UTF-8"?>
<!--Generator: Apple Native CoreSVG 175.5-->
<!DOCTYPE svg
PUBLIC "-//W3C//DTD SVG 1.1//EN"
       "http://www.w3.org/Graphics/SVG/1.1/DTD/svg11.dtd">
<svg version="1.1" xmlns="http://www.w3.org/2000/svg" xmlns:xlink="http://www.w3.org/1999/xlink" width="29.3457" height="25.0098">
 <g>
  <rect height="25.0098" opacity="0" width="29.3457" x="0" y="0"/>
  <path d="M0.78125 21.4355L28.5547 21.4355C28.9844 21.4355 29.3457 21.0742 29.3457 20.6445C29.3457 20.2148 28.9844 19.8633 28.5547 19.8633L0.78125 19.8633C0.351562 19.8633 0 20.2148 0 20.6445C0 21.0742 0.351562 21.4355 0.78125 21.4355ZM0.507812 17.627C0.761719 17.8809 1.14258 17.8711 1.39648 17.627L4.73633 14.2969C5 14.043 5 13.6621 4.73633 13.4082C4.48242 13.1445 4.10156 13.1543 3.84766 13.4082L0.507812 16.7285C0.244141 16.9922 0.244141 17.373 0.507812 17.627ZM3.84766 17.627C4.10156 17.8809 4.48242 17.8809 4.73633 17.627C5 17.373 5 16.9824 4.73633 16.7285L1.39648 13.4082C1.14258 13.1445 0.761719 13.1445 0.507812 13.4082C0.244141 13.6621 0.244141 14.0527 0.507812 14.2969Z" fill="#000000" fill-opacity="0.85"/>
  <path d="M9.78516 25.0098C13.8281 25.0098 16.4746 19.9121 16.4746 13.4375C16.4746 7.93945 13.9844 3.50586 10.0781 3.50586C7.56836 3.50586 5.625 5.64453 5.625 8.36914C5.625 12.4023 8.94531 15.6836 12.4023 17.3145C12.5391 17.373 12.6562 17.4023 12.7734 17.4023C13.1641 17.4023 13.457 17.0898 13.457 16.748C13.457 16.5137 13.3301 16.2793 13.0469 16.1426C10.8105 15.0586 7.11914 12.3047 7.11914 8.36914C7.11914 6.46484 8.4082 4.99023 10.0781 4.99023C13.0762 4.99023 14.9902 8.80859 14.9902 13.4375C14.9902 18.9648 12.832 23.5254 9.96094 23.5254C9.02344 23.5254 8.58398 22.9102 8.58398 22.0312C8.58398 19.3066 12.7148 13.9941 18.3887 13.9941C18.7305 13.9941 18.9258 14.1406 18.9258 14.3945C18.9258 15.2441 18.4668 15.9082 18.4668 16.7578C18.4668 17.5 19.0039 17.9492 19.7266 17.9492C21.709 17.9492 24.0918 14.5605 24.8926 14.5605C25.6152 14.5605 24.7168 17.6074 27.168 17.6074C27.5781 17.6074 28.0957 17.5 28.4961 17.2363C28.7305 17.0801 28.8965 16.8457 28.8965 16.543C28.8965 16.1719 28.6523 15.8691 28.2715 15.8691C27.9297 15.8691 27.6465 16.1523 27.3145 16.1523C26.2598 16.1523 27.2656 12.9102 25.3223 12.9102C23.6133 12.9102 20.9668 16.2109 20.2832 16.2109C20.2051 16.2109 20.1367 16.1621 20.1367 16.0449C20.1367 15.6934 20.5664 14.8926 20.5664 14.1113C20.5664 13.1348 19.7559 12.5098 18.4961 12.5098C11.9727 12.5098 7.06055 18.6328 7.06055 22.3145C7.06055 23.8867 7.94922 25.0098 9.78516 25.0098Z" fill="#000000" fill-opacity="0.85"/>
 </g>
</svg>
