<?xml version="1.0" encoding="UTF-8"?>
<!--Generator: Apple Native CoreSVG 175.5-->
<!DOCTYPE svg
PUBLIC "-//W3C//DTD SVG 1.1//EN"
       "http://www.w3.org/Graphics/SVG/1.1/DTD/svg11.dtd">
<svg version="1.1" xmlns="http://www.w3.org/2000/svg" xmlns:xlink="http://www.w3.org/1999/xlink" width="19.8633" height="21.1621">
 <g>
  <rect height="21.1621" opacity="0" width="19.8633" x="0" y="0"/>
  <path d="M0 15.4688C0 17.2949 0.927734 18.2324 2.73438 18.2324L4.0332 18.2324L4.0332 15.3809L3.33984 15.3809C2.59766 15.3809 2.11914 14.9023 2.11914 14.1406L2.11914 11.1914L4.0332 11.1914L4.0332 10.2051L2.11914 10.2051L2.11914 9.08203C2.11914 8.32031 2.59766 7.85156 3.33984 7.85156L4.0332 7.85156L4.0332 4.99023C4.0332 2.75391 5.46875 1.29883 7.67578 1.29883L10.8008 1.29883L10.2246 0.712891C9.7168 0.205078 9.20898 0 8.4082 0L2.73438 0C0.927734 0 0 0.947266 0 2.7832Z" fill="#000000" fill-opacity="0.85"/>
  <path d="M5.36133 18.2812C5.36133 20.1074 6.29883 21.0547 8.10547 21.0547L17.1289 21.0547C18.9355 21.0547 19.8633 20.1074 19.8633 18.2812L19.8633 8.75977C19.8633 7.89062 19.6973 7.45117 19.1992 6.95312L15.5859 3.33984C15.0781 2.83203 14.5703 2.62695 13.7793 2.62695L8.10547 2.62695C6.29883 2.62695 5.36133 3.57422 5.36133 5.41016ZM8.49609 16.9629L8.49609 14.0137L10.752 14.0137C10.8496 14.0137 10.8984 14.0625 10.8984 14.1504L10.8984 18.1934L9.72656 18.1934C8.98438 18.1934 8.49609 17.7148 8.49609 16.9629ZM8.49609 13.0273L8.49609 11.9043C8.49609 11.1328 8.98438 10.6641 9.72656 10.6641L13.5352 10.6641L13.5352 18.1934L11.8848 18.1934L11.8848 13.5645C11.8848 13.2324 11.6895 13.0273 11.3379 13.0273ZM14.5215 18.1934L14.5215 10.6641L15.4785 10.6641C16.2305 10.6641 16.6992 11.1328 16.6992 11.9043L16.6992 16.9629C16.6992 17.7148 16.2305 18.1934 15.4785 18.1934Z" fill="#000000" fill-opacity="0.85"/>
 </g>
</svg>
