<?xml version="1.0" encoding="UTF-8"?>
<!--Generator: Apple Native CoreSVG 175.5-->
<!DOCTYPE svg
PUBLIC "-//W3C//DTD SVG 1.1//EN"
       "http://www.w3.org/Graphics/SVG/1.1/DTD/svg11.dtd">
<svg version="1.1" xmlns="http://www.w3.org/2000/svg" xmlns:xlink="http://www.w3.org/1999/xlink" width="28.2609" height="21.6895">
 <g>
  <rect height="21.6895" opacity="0" width="28.2609" x="0" y="0"/>
  <path d="M3.06641 19.8438L16.4062 19.8438C15.8398 19.3555 15.625 18.8281 15.4883 18.2715L3.08594 18.2715C2.12891 18.2715 1.57227 17.7539 1.57227 16.7383L1.57227 4.9707C1.57227 3.95508 2.12891 3.4375 3.08594 3.4375L19.9414 3.4375C20.918 3.4375 21.4551 3.95508 21.4551 4.9707L21.4551 10.4785C21.9727 10.4199 22.4707 10.4199 23.0273 10.4785L23.0273 4.89258C23.0273 2.87109 22.0117 1.86523 19.9609 1.86523L3.06641 1.86523C1.02539 1.86523 0 2.88086 0 4.89258L0 16.8164C0 18.8281 1.02539 19.8438 3.06641 19.8438ZM13.0957 6.35742L4.0332 6.35742C3.68164 6.35742 3.38867 6.64062 3.38867 7.00195C3.38867 7.35352 3.68164 7.63672 4.0332 7.63672L13.0957 7.63672ZM14.3555 8.92578C15.4102 8.92578 16.2891 8.04688 16.2891 6.99219C16.2891 5.92773 15.4102 5.05859 14.3555 5.05859C13.291 5.05859 12.4219 5.9375 12.4219 6.99219C12.4219 8.04688 13.2812 8.92578 14.3555 8.92578ZM14.3555 7.94922C13.8086 7.94922 13.4082 7.5293 13.4082 6.99219C13.4082 6.44531 13.8086 6.04492 14.3555 6.04492C14.9023 6.04492 15.3125 6.45508 15.3125 6.99219C15.3125 7.5293 14.9023 7.94922 14.3555 7.94922ZM19.0332 6.35742L15.6543 6.35742L15.6543 7.63672L19.0332 7.63672C19.3555 7.63672 19.6387 7.35352 19.6387 7.00195C19.6387 6.64062 19.3555 6.35742 19.0332 6.35742ZM4.00391 11.1816C3.68164 11.1816 3.38867 11.4746 3.38867 11.8262C3.38867 12.1777 3.68164 12.4609 4.00391 12.4609L7.30469 12.4609L7.30469 11.1816ZM8.70117 13.75C9.76562 13.75 10.6348 12.8809 10.6348 11.8262C10.6348 10.7715 9.76562 9.88281 8.70117 9.88281C7.62695 9.88281 6.77734 10.7715 6.77734 11.8262C6.77734 12.8809 7.63672 13.75 8.70117 13.75ZM8.70117 12.7734C8.16406 12.7734 7.75391 12.3633 7.75391 11.8262C7.75391 11.2695 8.16406 10.8691 8.70117 10.8691C9.24805 10.8691 9.6582 11.2695 9.6582 11.8262C9.6582 12.3535 9.24805 12.7734 8.70117 12.7734ZM9.99023 12.4609L17.666 12.4609C18.1348 11.9531 18.6719 11.5137 19.2871 11.1816L9.99023 11.1816Z" fill="#000000" fill-opacity="0.85"/>
  <path d="M25.166 19.043C24.4824 19.9121 23.4277 20.4785 22.2461 20.4785C20.1953 20.4785 18.4961 18.7793 18.4961 16.7285L17.2852 16.7285C17.2852 19.4531 19.5215 21.6895 22.2461 21.6895C23.7793 21.6895 25.166 20.9766 26.0645 19.8633C26.6406 19.1797 25.6738 18.4277 25.166 19.043ZM17.5586 15.5859L16.3672 17.1582C16.0645 17.5586 16.2793 17.9785 16.7871 17.9785L19.2676 17.9785C19.7754 17.9785 20.0098 17.5293 19.6973 17.1582L18.4082 15.5859C18.1445 15.2734 17.8125 15.2637 17.5586 15.5859ZM19.3262 14.4141C20.0098 13.5449 21.0645 12.9785 22.2461 12.9785C24.2969 12.9785 25.9961 14.6777 25.9961 16.7285L27.207 16.7285C27.207 14.0137 24.9609 11.7676 22.2461 11.7676C20.7031 11.7676 19.3262 12.4902 18.4277 13.5938C17.8516 14.2773 18.8086 15.0293 19.3262 14.4141ZM26.9336 17.8711L28.1152 16.2988C28.4277 15.8984 28.2129 15.4785 27.7051 15.4785L25.2148 15.4785C24.707 15.4785 24.4727 15.9277 24.7949 16.2988L26.0742 17.8711C26.3379 18.1934 26.6797 18.2031 26.9336 17.8711Z" fill="#000000" fill-opacity="0.85"/>
 </g>
</svg>
