<?xml version="1.0" encoding="UTF-8"?>
<!--Generator: Apple Native CoreSVG 175.5-->
<!DOCTYPE svg
PUBLIC "-//W3C//DTD SVG 1.1//EN"
       "http://www.w3.org/Graphics/SVG/1.1/DTD/svg11.dtd">
<svg version="1.1" xmlns="http://www.w3.org/2000/svg" xmlns:xlink="http://www.w3.org/1999/xlink" width="20.6641" height="20.4785">
 <g>
  <rect height="20.4785" opacity="0" width="20.6641" x="0" y="0"/>
  <path d="M3.06641 15.957L5.53711 15.957L5.53711 14.3848L3.08594 14.3848C2.10938 14.3848 1.57227 13.8574 1.57227 12.8418L1.57227 3.13477C1.57227 2.11914 2.10938 1.5918 3.08594 1.5918L12.8418 1.5918C13.8086 1.5918 14.3555 2.11914 14.3555 3.13477L14.3555 5.27344L15.9277 5.27344L15.9277 3.04688C15.9277 1.03516 14.9023 0.0195312 12.8711 0.0195312L3.06641 0.0195312C1.01562 0.0195312 0 1.03516 0 3.04688L0 12.9297C0 14.9414 1.01562 15.957 3.06641 15.957Z" fill="#000000" fill-opacity="0.85"/>
  <path d="M7.80273 20.4785L17.6074 20.4785C19.6387 20.4785 20.6641 19.4629 20.6641 17.4512L20.6641 7.56836C20.6641 5.55664 19.6387 4.54102 17.6074 4.54102L7.80273 4.54102C5.75195 4.54102 4.73633 5.54688 4.73633 7.56836L4.73633 17.4512C4.73633 19.4629 5.75195 20.4785 7.80273 20.4785Z" fill="#000000" fill-opacity="0.85"/>
  <path d="M13.2129 16.5625C12.998 16.5625 12.8613 16.4258 12.8223 16.2305C12.4023 13.2812 12.0117 12.627 8.93555 12.3145C8.73047 12.2852 8.59375 12.1387 8.59375 11.9434C8.59375 11.7578 8.73047 11.6113 8.93555 11.582C12.002 11.1621 12.2754 10.6348 12.8223 7.66602C12.8809 7.4707 13.0176 7.33398 13.2129 7.33398C13.3887 7.33398 13.5352 7.48047 13.5742 7.67578C14.0039 10.5762 14.4141 11.1621 17.4805 11.582C17.6758 11.6113 17.8125 11.7578 17.8125 11.9434C17.8125 12.1387 17.6758 12.2949 17.4805 12.3145C14.4043 12.7246 14.1309 13.2812 13.5742 16.2402C13.5254 16.4258 13.3887 16.5625 13.2129 16.5625ZM9.23828 18.2031C9.0918 18.2031 9.00391 18.1055 8.95508 17.9492C8.67188 16.5039 8.79883 16.4453 7.2168 16.2012C7.05078 16.1719 6.95312 16.084 6.95312 15.9277C6.95312 15.7812 7.05078 15.6738 7.19727 15.6543C8.79883 15.3809 8.67188 15.3125 8.95508 13.8867C9.00391 13.7305 9.10156 13.6328 9.23828 13.6328C9.39453 13.6328 9.49219 13.7402 9.53125 13.8867C9.79492 15.3125 9.70703 15.3809 11.2988 15.6543C11.4355 15.6738 11.543 15.7812 11.543 15.9277C11.543 16.0645 11.4355 16.1719 11.2988 16.2012C9.69727 16.4453 9.79492 16.5039 9.53125 17.9785C9.49219 18.1152 9.38477 18.2031 9.23828 18.2031Z" fill="#ffffff"/>
 </g>
</svg>
