<?xml version="1.0" encoding="UTF-8"?>
<!--Generator: Apple Native CoreSVG 175.5-->
<!DOCTYPE svg
PUBLIC "-//W3C//DTD SVG 1.1//EN"
       "http://www.w3.org/Graphics/SVG/1.1/DTD/svg11.dtd">
<svg version="1.1" xmlns="http://www.w3.org/2000/svg" xmlns:xlink="http://www.w3.org/1999/xlink" width="24.4141" height="20.1855">
 <g>
  <rect height="20.1855" opacity="0" width="24.4141" x="0" y="0"/>
  <path d="M2.50977 16.875L21.9043 16.875C23.5547 16.875 24.4141 16.0254 24.4141 14.3652L24.4141 3.17383C24.4141 1.52344 23.5547 0.673828 21.9043 0.673828L2.50977 0.673828C0.859375 0.673828 0 1.52344 0 3.17383L0 14.3652C0 16.0254 0.859375 16.875 2.50977 16.875ZM2.53906 15.3027C1.89453 15.3027 1.57227 14.9805 1.57227 14.3457L1.57227 3.20312C1.57227 2.55859 1.89453 2.24609 2.53906 2.24609L21.875 2.24609C22.5195 2.24609 22.8418 2.55859 22.8418 3.20312L22.8418 14.3457C22.8418 14.9805 22.5195 15.3027 21.875 15.3027ZM7.29492 20.1855L17.1191 20.1855C17.5488 20.1855 17.9102 19.834 17.9102 19.3945C17.9102 18.9551 17.5488 18.6035 17.1191 18.6035L7.29492 18.6035C6.86523 18.6035 6.50391 18.9551 6.50391 19.3945C6.50391 19.834 6.86523 20.1855 7.29492 20.1855Z" fill="#000000" fill-opacity="0.85"/>
  <path d="M12.6855 12.7148C12.8711 12.7148 12.998 12.5879 13.0371 12.4023C13.5742 9.53125 13.8379 8.99414 16.8262 8.59375C17.0215 8.56445 17.1484 8.42773 17.1484 8.24219C17.1484 8.05664 17.0215 7.91016 16.8262 7.88086C13.8477 7.48047 13.4668 6.91406 13.0371 4.0918C13.0078 3.89648 12.8711 3.76953 12.6855 3.76953C12.5 3.76953 12.3633 3.88672 12.3242 4.08203C11.7773 6.96289 11.5234 7.48047 8.53516 7.88086C8.33984 7.91016 8.21289 8.05664 8.21289 8.24219C8.21289 8.42773 8.33984 8.56445 8.53516 8.59375C11.5332 8.89648 11.9043 9.53125 12.3242 12.3926C12.3535 12.5879 12.4805 12.7148 12.6855 12.7148ZM8.83789 14.3066C8.97461 14.3066 9.08203 14.2188 9.11133 14.082C9.38477 12.666 9.28711 12.5977 10.8398 12.3633C10.9766 12.3438 11.0645 12.2266 11.0645 12.0898C11.0645 11.9629 10.9766 11.8457 10.8398 11.8262C9.28711 11.5723 9.38477 11.5039 9.11133 10.127C9.08203 9.98047 8.98438 9.87305 8.83789 9.87305C8.70117 9.87305 8.61328 9.9707 8.57422 10.127C8.29102 11.5039 8.4082 11.5723 6.85547 11.8262C6.70898 11.8457 6.63086 11.9629 6.63086 12.0898C6.63086 12.2461 6.70898 12.3438 6.875 12.3633C8.4082 12.5977 8.29102 12.666 8.57422 14.0527C8.61328 14.209 8.69141 14.3066 8.83789 14.3066Z" fill="#000000" fill-opacity="0.85"/>
 </g>
</svg>
