<?xml version="1.0" encoding="UTF-8"?>
<!--Generator: Apple Native CoreSVG 175.5-->
<!DOCTYPE svg
PUBLIC "-//W3C//DTD SVG 1.1//EN"
       "http://www.w3.org/Graphics/SVG/1.1/DTD/svg11.dtd">
<svg version="1.1" xmlns="http://www.w3.org/2000/svg" xmlns:xlink="http://www.w3.org/1999/xlink" width="20.0684" height="21.2402">
 <g>
  <rect height="21.2402" opacity="0" width="20.0684" x="0" y="0"/>
  <path d="M2.96875 21.2305L17.0996 21.2305C19.0625 21.2305 20.0684 20.2344 20.0684 18.291L20.0684 8.4668C20.0684 6.52344 19.0625 5.53711 17.0996 5.53711L2.96875 5.53711C0.986328 5.53711 0 6.52344 0 8.4668L0 18.291C0 20.2344 0.986328 21.2305 2.96875 21.2305ZM1.86523 3.96484L18.2129 3.96484C18.0664 3.07617 17.6465 2.58789 16.6699 2.58789L3.4082 2.58789C2.43164 2.58789 2.01172 3.07617 1.86523 3.96484ZM3.87695 1.25977L16.2012 1.25977C16.1426 0.429688 15.6738 0 14.7656 0L5.30273 0C4.4043 0 3.93555 0.429688 3.87695 1.25977Z" fill="#000000" fill-opacity="0.85"/>
  <path d="M10.5371 17.4219C10.332 17.4219 10.1855 17.2949 10.1562 17.0898C9.72656 14.1504 9.3457 13.4961 6.25977 13.1836C6.05469 13.1543 5.92773 13.0078 5.92773 12.8125C5.92773 12.627 6.05469 12.4805 6.25977 12.4414C9.33594 12.0312 9.60938 11.4941 10.1562 8.52539C10.2051 8.33008 10.3516 8.20312 10.5371 8.20312C10.7227 8.20312 10.8691 8.33984 10.8984 8.53516C11.3379 11.4453 11.7383 12.0312 14.8047 12.4414C15 12.4805 15.1465 12.627 15.1465 12.8125C15.1465 13.0078 15 13.1543 14.8047 13.1836C11.7285 13.5938 11.4551 14.1504 10.8984 17.0996C10.8594 17.2949 10.7227 17.4219 10.5371 17.4219ZM6.57227 19.0723C6.42578 19.0723 6.33789 18.9648 6.28906 18.8184C5.99609 17.373 6.12305 17.3047 4.54102 17.0703C4.375 17.041 4.28711 16.9434 4.28711 16.7871C4.28711 16.6504 4.375 16.5332 4.52148 16.5137C6.12305 16.25 5.99609 16.1816 6.28906 14.7559C6.33789 14.5996 6.43555 14.4922 6.57227 14.4922C6.72852 14.4922 6.81641 14.6094 6.85547 14.7559C7.12891 16.1816 7.03125 16.25 8.63281 16.5137C8.76953 16.5332 8.86719 16.6504 8.86719 16.7871C8.86719 16.9238 8.76953 17.041 8.63281 17.0703C7.03125 17.3047 7.12891 17.373 6.85547 18.8477C6.81641 18.9746 6.71875 19.0723 6.57227 19.0723Z" fill="#ffffff"/>
 </g>
</svg>
