<?xml version="1.0" encoding="UTF-8"?>
<!--Generator: Apple Native CoreSVG 175.5-->
<!DOCTYPE svg
PUBLIC "-//W3C//DTD SVG 1.1//EN"
       "http://www.w3.org/Graphics/SVG/1.1/DTD/svg11.dtd">
<svg version="1.1" xmlns="http://www.w3.org/2000/svg" xmlns:xlink="http://www.w3.org/1999/xlink" width="19.9219" height="19.9316">
 <g>
  <rect height="19.9316" opacity="0" width="19.9219" x="0" y="0"/>
  <path d="M9.96094 19.9219C15.4102 19.9219 19.9219 15.4004 19.9219 9.96094C19.9219 4.51172 15.4004 0 9.95117 0C4.51172 0 0 4.51172 0 9.96094C0 15.4004 4.52148 19.9219 9.96094 19.9219ZM9.96094 18.2617C5.35156 18.2617 1.66992 14.5703 1.66992 9.96094C1.66992 5.35156 5.3418 1.66016 9.95117 1.66016C14.5605 1.66016 18.2617 5.35156 18.2617 9.96094C18.2617 14.5703 14.5703 18.2617 9.96094 18.2617Z" fill="#000000" fill-opacity="0.85"/>
  <path d="M7.35352 11.9727L8.78906 11.9727C8.83789 11.9727 8.87695 11.9922 8.91602 12.0215L11.0449 14.0527C11.2695 14.2578 11.4648 14.3555 11.6992 14.3555C11.8652 14.3555 11.9824 14.2773 12.0703 14.1699L12.1777 13.8379L6.66992 8.33008L6.5918 8.33008C6.43555 8.4668 6.31836 8.73047 6.31836 9.0332L6.31836 10.8984C6.31836 11.6016 6.68945 11.9727 7.35352 11.9727ZM9.26758 7.57812L12.2559 10.5664L12.2559 6.14258C12.2559 5.82031 12.0215 5.55664 11.6895 5.55664C11.4551 5.55664 11.2988 5.66406 11.0449 5.89844ZM14.5605 15.1855C14.7266 15.3516 15.0195 15.3516 15.1855 15.1855C15.3613 15.0098 15.3613 14.7363 15.1855 14.5605L5.35156 4.7168C5.17578 4.54102 4.89258 4.54102 4.7168 4.7168C4.54102 4.89258 4.55078 5.17578 4.7168 5.3418Z" fill="#000000" fill-opacity="0.85"/>
 </g>
</svg>
