<?xml version="1.0" encoding="UTF-8"?>
<!--Generator: Apple Native CoreSVG 175.5-->
<!DOCTYPE svg
PUBLIC "-//W3C//DTD SVG 1.1//EN"
       "http://www.w3.org/Graphics/SVG/1.1/DTD/svg11.dtd">
<svg version="1.1" xmlns="http://www.w3.org/2000/svg" xmlns:xlink="http://www.w3.org/1999/xlink" width="18.2324" height="19.7266">
 <g>
  <rect height="19.7266" opacity="0" width="18.2324" x="0" y="0"/>
  <path d="M3.94043 13.833L6.7334 13.833C6.82129 13.833 6.89941 13.8623 6.96777 13.9209L11.3721 17.8662C11.8506 18.2861 12.2021 18.4814 12.6709 18.4814C13.0518 18.4814 13.3643 18.3057 13.5889 17.9736L12.4561 16.8506L7.73926 12.6221C7.54395 12.4463 7.42676 12.4072 7.17285 12.4072L4.00879 12.4072C3.6377 12.4072 3.47168 12.2412 3.47168 11.8799L3.47168 7.85645L2.2998 6.68457C2.0752 6.99707 1.94824 7.43652 1.94824 8.0127L1.94824 11.7529C1.94824 13.1689 2.6123 13.833 3.94043 13.833ZM13.7744 12.3975L13.7744 2.40723C13.7744 1.77246 13.3057 1.25488 12.6514 1.25488C12.1826 1.25488 11.8896 1.46973 11.3721 1.92871L7.10449 5.71777L8.14941 6.77246L11.958 3.31543C12.0068 3.2666 12.0654 3.2373 12.124 3.2373C12.1924 3.2373 12.251 3.28613 12.251 3.37402L12.251 10.874Z" fill="#000000" fill-opacity="0.85"/>
  <path d="M16.9482 19.5068C17.2412 19.7998 17.7295 19.7998 18.0127 19.5068C18.3057 19.2041 18.3057 18.7354 18.0127 18.4424L1.29395 1.72363C1.00098 1.43066 0.512695 1.43066 0.219727 1.72363C-0.0732422 2.00684-0.0732422 2.50488 0.219727 2.78809Z" fill="#000000" fill-opacity="0.85"/>
 </g>
</svg>
