<?xml version="1.0" encoding="UTF-8"?>
<!--Generator: Apple Native CoreSVG 175.5-->
<!DOCTYPE svg
PUBLIC "-//W3C//DTD SVG 1.1//EN"
       "http://www.w3.org/Graphics/SVG/1.1/DTD/svg11.dtd">
<svg version="1.1" xmlns="http://www.w3.org/2000/svg" xmlns:xlink="http://www.w3.org/1999/xlink" width="17.9785" height="17.998">
 <g>
  <rect height="17.998" opacity="0" width="17.9785" x="0" y="0"/>
  <path d="M0 17.2168C0 17.6855 0.3125 17.998 0.78125 17.998L17.207 17.998C17.6758 17.998 17.9785 17.6855 17.9785 17.2168L17.9785 0.791016C17.9785 0.322266 17.6758 0.0195312 17.207 0.0195312L0.78125 0.0195312C0.3125 0.0195312 0 0.322266 0 0.791016ZM1.57227 16.1426L1.57227 1.875C1.57227 1.66016 1.65039 1.5918 1.85547 1.5918L16.123 1.5918C16.3379 1.5918 16.4062 1.66016 16.4062 1.875L16.4062 16.1426C16.4062 16.3477 16.3379 16.4258 16.123 16.4258L1.85547 16.4258C1.65039 16.4258 1.57227 16.3477 1.57227 16.1426Z" fill="#000000" fill-opacity="0.85"/>
 </g>
</svg>
