<?xml version="1.0" encoding="UTF-8"?>
<!--Generator: Apple Native CoreSVG 175.5-->
<!DOCTYPE svg
PUBLIC "-//W3C//DTD SVG 1.1//EN"
       "http://www.w3.org/Graphics/SVG/1.1/DTD/svg11.dtd">
<svg version="1.1" xmlns="http://www.w3.org/2000/svg" xmlns:xlink="http://www.w3.org/1999/xlink" width="19.9219" height="19.9316">
 <g>
  <rect height="19.9316" opacity="0" width="19.9219" x="0" y="0"/>
  <path d="M9.96094 19.9219C15.4102 19.9219 19.9219 15.4004 19.9219 9.96094C19.9219 4.51172 15.4004 0 9.95117 0C4.51172 0 0 4.51172 0 9.96094C0 15.4004 4.52148 19.9219 9.96094 19.9219ZM9.96094 18.2617C5.35156 18.2617 1.66992 14.5703 1.66992 9.96094C1.66992 5.35156 5.3418 1.66016 9.95117 1.66016C14.5605 1.66016 18.2617 5.35156 18.2617 9.96094C18.2617 14.5703 14.5703 18.2617 9.96094 18.2617Z" fill="#000000" fill-opacity="0.85"/>
  <path d="M7.19727 14.707L12.7246 14.707C13.7891 14.707 14.3457 14.1602 14.3457 13.1055L14.3457 8.29102C14.3457 7.23633 13.7891 6.69922 12.7246 6.69922L11.2793 6.69922L11.2793 7.68555L12.7148 7.68555C13.1445 7.68555 13.3594 7.90039 13.3594 8.33984L13.3594 13.0762C13.3594 13.5059 13.1445 13.7305 12.7148 13.7305L7.20703 13.7305C6.77734 13.7305 6.5625 13.5156 6.5625 13.0762L6.5625 8.33984C6.5625 7.90039 6.77734 7.68555 7.20703 7.68555L8.65234 7.68555L8.65234 6.69922L7.19727 6.69922C6.14258 6.69922 5.58594 7.24609 5.57617 8.29102L5.57617 13.1055C5.58594 14.1504 6.14258 14.707 7.19727 14.707ZM9.95117 10.8691C10.2246 10.8691 10.4395 10.6641 10.4395 10.4004L10.4395 5.45898L10.4199 5L10.8496 5.45898L11.2891 5.91797C11.3672 6.00586 11.4844 6.05469 11.6309 6.05469C11.8945 6.05469 12.0801 5.87891 12.0801 5.625C12.0801 5.50781 12.041 5.39062 11.9336 5.30273L10.3027 3.7207C10.1855 3.60352 10.0684 3.55469 9.95117 3.55469C9.83398 3.55469 9.7168 3.61328 9.60938 3.7207L7.96875 5.29297C7.86133 5.40039 7.83203 5.50781 7.83203 5.625C7.83203 5.87891 8.01758 6.05469 8.27148 6.05469C8.4082 6.05469 8.53516 6.00586 8.61328 5.91797L9.05273 5.45898L9.49219 5L9.47266 5.45898L9.47266 10.4004C9.47266 10.6641 9.6875 10.8691 9.95117 10.8691Z" fill="#000000" fill-opacity="0.85"/>
 </g>
</svg>
