<?xml version="1.0" encoding="UTF-8"?>
<!--Generator: Apple Native CoreSVG 175.5-->
<!DOCTYPE svg
PUBLIC "-//W3C//DTD SVG 1.1//EN"
       "http://www.w3.org/Graphics/SVG/1.1/DTD/svg11.dtd">
<svg version="1.1" xmlns="http://www.w3.org/2000/svg" xmlns:xlink="http://www.w3.org/1999/xlink" width="21.582" height="19.9902">
 <g>
  <rect height="19.9902" opacity="0" width="21.582" x="0" y="0"/>
  <path d="M5.72266 19.5801C6.07422 19.5801 6.35742 19.2969 6.35742 18.9355C6.35742 18.5742 6.07422 18.291 5.72266 18.291C5.36133 18.291 5.07812 18.5742 5.07812 18.9355C5.07812 19.2969 5.36133 19.5801 5.72266 19.5801ZM4.70703 17.7637C5.06836 17.7637 5.35156 17.4805 5.35156 17.1191C5.35156 16.7676 5.06836 16.4844 4.70703 16.4844C4.35547 16.4844 4.07227 16.7676 4.07227 17.1191C4.07227 17.4805 4.35547 17.7637 4.70703 17.7637ZM3.69141 15.957C4.05273 15.957 4.33594 15.6641 4.33594 15.3125C4.33594 14.9609 4.05273 14.668 3.69141 14.668C3.33984 14.668 3.05664 14.9609 3.05664 15.3125C3.05664 15.6641 3.33984 15.957 3.69141 15.957ZM2.66602 14.1602C3.02734 14.1602 3.31055 13.8672 3.31055 13.5156C3.31055 13.1641 3.02734 12.8711 2.66602 12.8711C2.31445 12.8711 2.03125 13.1641 2.03125 13.5156C2.03125 13.8672 2.31445 14.1602 2.66602 14.1602ZM1.66016 12.334C2.01172 12.334 2.29492 12.0508 2.29492 11.6992C2.29492 11.3379 2.01172 11.0547 1.66016 11.0547C1.30859 11.0547 1.01562 11.3379 1.01562 11.6992C1.01562 12.0508 1.30859 12.334 1.66016 12.334ZM0.644531 10.5273C0.996094 10.5273 1.2793 10.2441 1.2793 9.89258C1.2793 9.53125 0.996094 9.24805 0.644531 9.24805C0.283203 9.24805 0 9.53125 0 9.89258C0 10.2441 0.283203 10.5273 0.644531 10.5273ZM1.66016 8.7207C2.01172 8.7207 2.29492 8.4375 2.29492 8.08594C2.29492 7.72461 2.01172 7.44141 1.66016 7.44141C1.30859 7.44141 1.01562 7.72461 1.01562 8.08594C1.01562 8.4375 1.30859 8.7207 1.66016 8.7207ZM2.66602 6.9043C3.02734 6.9043 3.31055 6.62109 3.31055 6.25977C3.31055 5.9082 3.02734 5.625 2.66602 5.625C2.31445 5.625 2.03125 5.9082 2.03125 6.25977C2.03125 6.62109 2.31445 6.9043 2.66602 6.9043ZM3.69141 5.10742C4.05273 5.10742 4.33594 4.81445 4.33594 4.46289C4.33594 4.11133 4.05273 3.81836 3.69141 3.81836C3.33984 3.81836 3.05664 4.11133 3.05664 4.46289C3.05664 4.81445 3.33984 5.10742 3.69141 5.10742ZM4.70703 3.28125C5.06836 3.28125 5.35156 2.99805 5.35156 2.64648C5.35156 2.28516 5.06836 2.00195 4.70703 2.00195C4.35547 2.00195 4.07227 2.28516 4.07227 2.64648C4.07227 2.99805 4.35547 3.28125 4.70703 3.28125ZM5.72266 1.47461C6.07422 1.47461 6.35742 1.19141 6.35742 0.839844C6.35742 0.478516 6.07422 0.195312 5.72266 0.195312C5.36133 0.195312 5.07812 0.478516 5.07812 0.839844C5.07812 1.19141 5.36133 1.47461 5.72266 1.47461Z" fill="#000000" fill-opacity="0.85"/>
  <path d="M10.498 19.9805C10.8984 19.9805 11.2207 19.6875 11.3574 19.4141L6.11328 10.3613C6.03516 10.2246 5.97656 10.0977 5.97656 9.99023C5.97656 9.88281 6.03516 9.75586 6.11328 9.61914L11.3574 0.566406C11.2207 0.292969 10.8984 0 10.498 0C10.1953 0 9.85352 0.175781 9.63867 0.537109L4.6875 8.92578C4.43359 9.33594 4.26758 9.62891 4.26758 9.99023C4.26758 10.3418 4.43359 10.6445 4.6875 11.0547L9.64844 19.4434C9.87305 19.8145 10.1953 19.9805 10.498 19.9805Z" fill="#000000" fill-opacity="0.85"/>
  <path d="M15.3809 19.9707C15.918 19.9707 16.2695 19.6582 16.7285 18.877L21.1816 11.2305C21.4551 10.7617 21.582 10.3809 21.582 9.99023C21.582 9.58984 21.4551 9.21875 21.1816 8.75L16.7285 1.10352C16.2695 0.322266 15.918 0.00976562 15.3809 0.00976562C14.8438 0.00976562 14.4922 0.322266 14.0234 1.10352L9.58008 8.75C9.29688 9.21875 9.17969 9.58984 9.17969 9.99023C9.17969 10.3809 9.30664 10.7617 9.58008 11.2305L14.0234 18.877C14.4922 19.6582 14.8438 19.9707 15.3809 19.9707ZM15.3809 17.9297C15.332 17.9297 15.3027 17.9004 15.2832 17.8516L11.0254 10.4199C10.9277 10.2637 10.8789 10.127 10.8789 9.99023C10.8789 9.85352 10.9277 9.7168 11.0156 9.56055L15.2832 2.11914C15.3027 2.08008 15.332 2.05078 15.3809 2.05078C15.4297 2.05078 15.4492 2.08008 15.4785 2.11914L19.7363 9.56055C19.834 9.7168 19.873 9.85352 19.873 9.99023C19.873 10.127 19.834 10.2637 19.7363 10.4199L15.4785 17.8516C15.4492 17.9004 15.4297 17.9297 15.3809 17.9297Z" fill="#000000" fill-opacity="0.85"/>
 </g>
</svg>
