<?xml version="1.0" encoding="UTF-8"?>
<!--Generator: Apple Native CoreSVG 175.5-->
<!DOCTYPE svg
PUBLIC "-//W3C//DTD SVG 1.1//EN"
       "http://www.w3.org/Graphics/SVG/1.1/DTD/svg11.dtd">
<svg version="1.1" xmlns="http://www.w3.org/2000/svg" xmlns:xlink="http://www.w3.org/1999/xlink" width="19.9707" height="22.1191">
 <g>
  <rect height="22.1191" opacity="0" width="19.9707" x="0" y="0"/>
  <path d="M9.99023 22.1191C10.3418 22.1191 10.6445 21.9531 11.0547 21.709L19.4434 16.7578C19.7949 16.5527 19.9707 16.2109 19.9707 15.9082C19.9707 15.5078 19.6777 15.1855 19.4043 15.0488L10.3613 20.2832C10.2148 20.3613 10.0977 20.4199 9.99023 20.4199C9.87305 20.4199 9.75586 20.3613 9.60938 20.2832L0.566406 15.0488C0.292969 15.1855 0 15.5078 0 15.9082C0 16.2109 0.175781 16.5527 0.537109 16.7578L8.91602 21.709C9.33594 21.9531 9.62891 22.1191 9.99023 22.1191Z" fill="#000000" fill-opacity="0.85"/>
  <path d="M9.99023 17.627C10.3418 17.627 10.6445 17.4609 11.0547 17.2168L19.4434 12.2656C19.8047 12.041 19.9707 11.7188 19.9707 11.416C19.9707 11.0156 19.6777 10.6836 19.4043 10.5566L10.3613 15.7812C10.2148 15.8594 10.0977 15.918 9.99023 15.918C9.87305 15.918 9.75586 15.8594 9.60938 15.7812L0.566406 10.5566C0.292969 10.6836 0 11.0156 0 11.416C0 11.7188 0.175781 12.0508 0.537109 12.2656L8.91602 17.2168C9.33594 17.4609 9.62891 17.627 9.99023 17.627Z" fill="#000000" fill-opacity="0.85"/>
  <path d="M9.99023 12.8125C10.3809 12.8125 10.7617 12.6855 11.2305 12.4121L18.8672 7.97852C19.6582 7.51953 19.9609 7.1582 19.9609 6.62109C19.9609 6.09375 19.6582 5.73242 18.8672 5.27344L11.2305 0.839844C10.7617 0.566406 10.3809 0.439453 9.99023 0.439453C9.58984 0.439453 9.21875 0.566406 8.74023 0.839844L1.10352 5.27344C0.3125 5.73242 0.00976562 6.09375 0.00976562 6.62109C0.00976562 7.1582 0.3125 7.51953 1.10352 7.97852L8.74023 12.4121C9.21875 12.6855 9.58984 12.8125 9.99023 12.8125ZM9.99023 11.1133C9.84375 11.1133 9.7168 11.0645 9.55078 10.9766L2.11914 6.71875C2.08008 6.69922 2.05078 6.66992 2.05078 6.62109C2.05078 6.58203 2.08008 6.55273 2.11914 6.5332L9.55078 2.27539C9.7168 2.1875 9.84375 2.13867 9.99023 2.13867C10.127 2.13867 10.2539 2.1875 10.4199 2.27539L17.8516 6.5332C17.9004 6.55273 17.9199 6.58203 17.9199 6.62109C17.9199 6.66992 17.9004 6.69922 17.8516 6.71875L10.4199 10.9766C10.2539 11.0645 10.127 11.1133 9.99023 11.1133Z" fill="#000000" fill-opacity="0.85"/>
 </g>
</svg>
