<?xml version="1.0" encoding="UTF-8"?>
<!--Generator: Apple Native CoreSVG 175.5-->
<!DOCTYPE svg
PUBLIC "-//W3C//DTD SVG 1.1//EN"
       "http://www.w3.org/Graphics/SVG/1.1/DTD/svg11.dtd">
<svg version="1.1" xmlns="http://www.w3.org/2000/svg" xmlns:xlink="http://www.w3.org/1999/xlink" width="20.5261" height="22.279">
 <g>
  <rect height="22.279" opacity="0" width="20.5261" x="0" y="0"/>
  <path d="M10.4004 21.7889L15.6543 18.7518L14.4531 17.5604L9.79492 20.2557C9.69727 20.3045 9.63867 20.2655 9.63867 20.1678L9.63867 12.7557L8.04688 11.1834L8.04688 20.4119C8.04688 22.0428 9.0332 22.5799 10.4004 21.7889ZM6.25 19.3475L8.90625 17.8045L8.90625 15.9198L5.63477 17.8045C5.54688 17.8534 5.48828 17.8241 5.48828 17.7264L5.48828 9.17172C5.48828 9.05453 5.50781 8.87875 5.61523 8.74203L4.42383 7.56039C4.0625 7.88265 3.89648 8.46859 3.89648 9.11312L3.89648 17.9705C3.89648 19.6014 4.88281 20.1385 6.25 19.3475ZM2.35352 17.0916L4.67773 15.7537L4.67773 13.8592L1.74805 15.5584C1.65039 15.6073 1.5918 15.578 1.5918 15.4803L1.5918 6.97445C1.5918 6.57406 1.73828 6.33968 2.04102 6.13461C2.23633 6.00765 2.43164 5.8807 2.62695 5.76351L1.45508 4.6014C1.29883 4.69906 1.12305 4.80648 0.966797 4.9139C0.283203 5.36312 0 5.89047 0 6.86703L0 15.7147C0 17.3553 1.00586 17.8729 2.35352 17.0916ZM6.12305 3.82015L9.46289 1.88656C9.56055 1.82797 9.62891 1.87679 9.62891 1.97445L9.62891 5.31429L11.2207 4.52328L11.2207 1.43734C11.2207 0.0506216 10-0.300941 9.0332 0.245934L4.92188 2.61898ZM8.97461 6.66195L13.3594 4.13265C13.457 4.07406 13.5254 4.13265 13.5254 4.22054L13.5254 7.88265L15.1172 7.05257L15.1172 3.68343C15.1172 2.30648 13.8867 1.94515 12.9199 2.50179L7.77344 5.46078ZM18.8379 16.5155C18.9355 16.3787 19.0039 16.2323 19.082 16.076C19.2285 15.8319 19.2676 15.578 19.2676 15.2264L19.2676 6.12484C19.2676 4.74789 18.0469 4.39632 17.0801 4.9432L10.8398 8.52718L12.0508 9.72836L17.5195 6.57406C17.6074 6.52523 17.6758 6.57406 17.6758 6.66195L17.6758 14.533C17.6758 14.66 17.666 14.7381 17.6172 14.8162C17.5586 14.9139 17.5 15.0116 17.4414 15.119Z" fill="#000000" fill-opacity="0.85"/>
  <path d="M19.2383 20.7049C19.541 20.9979 20.0195 20.9979 20.3027 20.7049C20.5957 20.4119 20.6055 19.9334 20.3027 19.6405L1.41602 0.763512C1.12305 0.470543 0.644531 0.470543 0.341797 0.763512C0.0585938 1.04672 0.0585938 1.54476 0.341797 1.82797Z" fill="#000000" fill-opacity="0.85"/>
 </g>
</svg>
