<?xml version="1.0" encoding="UTF-8"?>
<!--Generator: Apple Native CoreSVG 175.5-->
<!DOCTYPE svg
PUBLIC "-//W3C//DTD SVG 1.1//EN"
       "http://www.w3.org/Graphics/SVG/1.1/DTD/svg11.dtd">
<svg version="1.1" xmlns="http://www.w3.org/2000/svg" xmlns:xlink="http://www.w3.org/1999/xlink" width="19.8071" height="19.812">
 <g>
  <rect height="19.812" opacity="0" width="19.8071" x="0" y="0"/>
  <path d="M15.8276 0.926529L3.98193 0.926529C3.85498 0.926529 3.73779 0.936294 3.63037 0.955826L5.18311 2.50856C5.25146 2.49879 5.32959 2.49879 5.40771 2.49879L15.8081 2.49879C16.7651 2.49879 17.3218 3.01637 17.3218 4.032L17.3218 14.4031C17.3218 14.4715 17.3218 14.5593 17.312 14.6277L18.8647 16.1804C18.8843 16.0828 18.894 15.9851 18.894 15.8777L18.894 3.95387C18.894 1.94215 17.8784 0.926529 15.8276 0.926529ZM3.98193 18.905L15.8276 18.905C15.9644 18.905 16.0815 18.8953 16.2085 18.8757L14.6558 17.323C14.5874 17.3328 14.4995 17.3328 14.4312 17.3328L4.00146 17.3328C3.0249 17.3328 2.48779 16.8152 2.48779 15.7996L2.48779 5.40895C2.48779 5.33083 2.48779 5.2527 2.49756 5.18434L0.944824 3.63161C0.925293 3.72926 0.915527 3.82692 0.915527 3.95387L0.915527 15.8777C0.915527 17.8992 1.94092 18.905 3.98193 18.905Z" fill="#000000" fill-opacity="0.85"/>
  <path d="M18.5229 19.5789C18.8159 19.8718 19.3042 19.8718 19.5874 19.5789C19.8804 19.2859 19.8804 18.8074 19.5874 18.5144L1.28662 0.223404C0.993652-0.0695651 0.515137-0.0793307 0.212402 0.223404C-0.0708008 0.506607-0.0708008 0.994888 0.212402 1.28786Z" fill="#000000" fill-opacity="0.85"/>
 </g>
</svg>
