<?xml version="1.0" encoding="UTF-8"?>
<!--Generator: Apple Native CoreSVG 175.5-->
<!DOCTYPE svg
PUBLIC "-//W3C//DTD SVG 1.1//EN"
       "http://www.w3.org/Graphics/SVG/1.1/DTD/svg11.dtd">
<svg version="1.1" xmlns="http://www.w3.org/2000/svg" xmlns:xlink="http://www.w3.org/1999/xlink" width="19.9609" height="22.1191">
 <g>
  <rect height="22.1191" opacity="0" width="19.9609" x="0" y="0"/>
  <path d="M15.0098 14.2188L17.8418 15.8398C17.8906 15.8594 17.9199 15.8887 17.9199 15.9277C17.9199 15.9766 17.8906 16.0059 17.8418 16.0254L10.4102 20.2832C10.2539 20.3711 10.1172 20.4199 9.98047 20.4199C9.84375 20.4199 9.70703 20.3711 9.54102 20.2832L2.10938 16.0254C2.07031 16.0059 2.04102 15.9766 2.04102 15.9277C2.04102 15.8887 2.07031 15.8594 2.10938 15.8398L5.17578 14.0918L3.53516 13.1641L1.09375 14.5801C0.302734 15.0391 0 15.4004 0 15.9277C0 16.4648 0.302734 16.8262 1.09375 17.2852L8.74023 21.7188C9.20898 21.9922 9.58008 22.1191 9.98047 22.1191C10.3711 22.1191 10.752 21.9922 11.2207 21.7188L18.8574 17.2852C19.6484 16.8262 19.9609 16.4648 19.9609 15.9277C19.9609 15.4004 19.6484 15.0391 18.8574 14.5801L16.5332 13.2227ZM14.7949 9.59961L17.8418 11.3379C17.8906 11.3574 17.9199 11.3867 17.9199 11.4355C17.9199 11.4844 17.8906 11.5039 17.8418 11.5332L10.4102 15.7812C10.2539 15.8691 10.1172 15.918 9.98047 15.918C9.84375 15.918 9.70703 15.8691 9.54102 15.7812L2.10938 11.5332C2.07031 11.5039 2.04102 11.4844 2.04102 11.4355C2.04102 11.3867 2.07031 11.3574 2.10938 11.3379L5.40039 9.45312L3.83789 8.49609L1.09375 10.0781C0.302734 10.5469 0 10.8984 0 11.4355C0 11.9727 0.302734 12.3242 1.09375 12.7832L8.74023 17.2266C9.20898 17.5 9.58008 17.627 9.98047 17.627C10.3711 17.627 10.752 17.5 11.2207 17.2266L18.8574 12.7832C19.6484 12.3242 19.9609 11.9727 19.9609 11.4355C19.9609 10.8984 19.6484 10.5469 18.8574 10.0781L16.3086 8.59375Z" fill="#000000" fill-opacity="0.85"/>
  <path d="M9.98047 12.8125C10.3711 12.8125 10.752 12.6855 11.2207 12.4121L18.8574 7.97852C19.6484 7.51953 19.9609 7.1582 19.9609 6.62109C19.9609 6.09375 19.6484 5.73242 18.8574 5.27344L11.2207 0.839844C10.752 0.566406 10.3711 0.439453 9.98047 0.439453C9.58008 0.439453 9.20898 0.566406 8.74023 0.839844L1.09375 5.27344C0.302734 5.73242 0 6.09375 0 6.62109C0 7.1582 0.302734 7.51953 1.09375 7.97852L8.74023 12.4121C9.20898 12.6855 9.58008 12.8125 9.98047 12.8125Z" fill="#000000" fill-opacity="0.85"/>
 </g>
</svg>
