<?xml version="1.0" encoding="UTF-8"?>
<!--Generator: Apple Native CoreSVG 175.5-->
<!DOCTYPE svg
PUBLIC "-//W3C//DTD SVG 1.1//EN"
       "http://www.w3.org/Graphics/SVG/1.1/DTD/svg11.dtd">
<svg version="1.1" xmlns="http://www.w3.org/2000/svg" xmlns:xlink="http://www.w3.org/1999/xlink" width="20.3931" height="22.279">
 <g>
  <rect height="22.279" opacity="0" width="20.3931" x="0" y="0"/>
  <path d="M1.99951 17.3651L9.63623 21.7889C11.0132 22.5799 11.9897 22.0428 11.9897 20.4119L11.9897 15.8319L10.3979 14.2401L10.3979 20.1678C10.3979 20.2655 10.3394 20.3045 10.2515 20.2557L2.78076 15.9393C2.44873 15.744 2.36084 15.5877 2.36084 15.1971L2.36084 7.38461C2.36084 6.99398 2.4292 6.65218 2.48779 6.32992L1.21826 5.05062C0.95459 5.26547 0.769043 5.63656 0.769043 6.12484L0.769043 15.2264C0.769043 16.2616 1.03271 16.8182 1.99951 17.3651ZM11.1304 17.8045L13.7964 19.3475C14.5581 19.7869 15.2124 19.8162 15.6323 19.4647L13.2397 17.0819C13.1128 17.0428 12.9565 16.9744 12.8101 16.8768L11.1304 15.9198ZM14.5581 12.9608L16.1499 14.5623L16.1499 9.11312C16.1499 8.10726 15.8179 7.53109 14.9487 7.01351L7.1167 2.50179C6.32568 2.04281 5.39795 2.21859 5.07568 2.99984L5.07568 3.12679L5.98389 4.05453L5.98389 3.83968C6.04248 3.81039 6.1499 3.82015 6.25732 3.87875L14.1187 8.42953C14.4312 8.60531 14.5581 8.75179 14.5581 9.17172ZM19.4995 17.2381C19.8413 16.9647 20.0366 16.4569 20.0366 15.7147L20.0366 6.86703C20.0366 5.8514 19.7144 5.27523 18.8354 4.76742L11.0132 0.245934C10.0464-0.300941 8.81592 0.0506216 8.81592 1.43734L8.81592 4.52328L10.4077 5.31429L10.4077 1.97445C10.4077 1.87679 10.4858 1.82797 10.5737 1.88656L18.0151 6.18343C18.3276 6.36898 18.4448 6.5057 18.4448 6.92562L18.4448 16.0077C18.4448 16.0662 18.4351 16.1248 18.4155 16.1541Z" fill="#000000" fill-opacity="0.85"/>
  <path d="M19.1089 21.3006C19.4116 21.5936 19.8901 21.5936 20.1733 21.3006C20.4663 21.0077 20.4663 20.5291 20.1733 20.2362L1.28662 1.35922C0.993652 1.06625 0.515137 1.06625 0.212402 1.35922C-0.0708008 1.64242-0.0708008 2.14047 0.212402 2.42367Z" fill="#000000" fill-opacity="0.85"/>
 </g>
</svg>
