<?xml version="1.0" encoding="UTF-8"?>
<!--Generator: Apple Native CoreSVG 175.5-->
<!DOCTYPE svg
PUBLIC "-//W3C//DTD SVG 1.1//EN"
       "http://www.w3.org/Graphics/SVG/1.1/DTD/svg11.dtd">
<svg version="1.1" xmlns="http://www.w3.org/2000/svg" xmlns:xlink="http://www.w3.org/1999/xlink" width="19.2676" height="22.279">
 <g>
  <rect height="22.279" opacity="0" width="19.2676" x="0" y="0"/>
  <path d="M4.67773 15.7537L4.67773 13.8592L1.73828 15.5584C1.65039 15.6073 1.5918 15.578 1.5918 15.4803L1.5918 6.92562C1.5918 6.5057 1.70898 6.36898 2.02148 6.18343L9.46289 1.88656C9.56055 1.82797 9.62891 1.87679 9.62891 1.97445L9.62891 5.31429L11.2207 4.52328L11.2207 1.43734C11.2207 0.0506216 9.99023-0.300941 9.02344 0.245934L1.20117 4.76742C0.332031 5.27523 0 5.8514 0 6.86703L0 15.7147C0 17.3553 0.986328 17.8827 2.35352 17.0916Z" fill="#000000" fill-opacity="0.85"/>
  <path d="M8.90625 17.8045L8.90625 15.9198L5.63477 17.8045C5.54688 17.8534 5.48828 17.8241 5.48828 17.7264L5.48828 9.17172C5.48828 8.75179 5.60547 8.61507 5.91797 8.42953L13.3594 4.13265C13.457 4.07406 13.5254 4.13265 13.5254 4.22054L13.5254 7.88265L15.1172 7.05257L15.1172 3.68343C15.1172 2.30648 13.8867 1.94515 12.9199 2.50179L5.09766 7.01351C4.21875 7.53109 3.89648 8.10726 3.89648 9.11312L3.89648 17.9705C3.89648 19.6014 4.87305 20.1287 6.25 19.3475Z" fill="#000000" fill-opacity="0.85"/>
  <path d="M8.04688 11.5545L8.04688 20.4119C8.04688 22.0428 9.0332 22.5799 10.4004 21.7889L18.0469 17.3651C19.0039 16.8182 19.2676 16.2616 19.2676 15.2264L19.2676 6.12484C19.2676 4.74789 18.0371 4.39632 17.0703 4.9432L9.24805 9.46468C8.37891 9.9725 8.04688 10.5487 8.04688 11.5545ZM10.0684 10.8709L17.5098 6.57406C17.6074 6.52523 17.6758 6.57406 17.6758 6.66195L17.6758 15.1971C17.6758 15.5877 17.5977 15.744 17.2656 15.9393L9.78516 20.2557C9.69727 20.3045 9.63867 20.2655 9.63867 20.1678L9.63867 11.6131C9.63867 11.1932 9.75586 11.0565 10.0684 10.8709Z" fill="#000000" fill-opacity="0.85"/>
 </g>
</svg>
