<?xml version="1.0" encoding="UTF-8"?>
<!--Generator: Apple Native CoreSVG 175.5-->
<!DOCTYPE svg
PUBLIC "-//W3C//DTD SVG 1.1//EN"
       "http://www.w3.org/Graphics/SVG/1.1/DTD/svg11.dtd">
<svg version="1.1" xmlns="http://www.w3.org/2000/svg" xmlns:xlink="http://www.w3.org/1999/xlink" width="22.207" height="26.5527">
 <g>
  <rect height="26.5527" opacity="0" width="22.207" x="0" y="0"/>
  <path d="M3.06641 22.0312L14.2676 22.0312C16.3086 22.0312 17.334 21.0156 17.334 19.0039L17.334 9.46289C17.334 7.45117 16.3086 6.43555 14.2676 6.43555L9.63867 6.43555L9.63867 13.6523C9.63867 14.1699 9.18945 14.6094 8.66211 14.6094C8.13477 14.6094 7.69531 14.1699 7.69531 13.6523L7.69531 6.43555L3.06641 6.43555C1.02539 6.43555 0 7.44141 0 9.46289L0 19.0039C0 21.0254 1.02539 22.0312 3.06641 22.0312ZM8.76953 26.5527L19.1406 26.5527C21.1914 26.5527 22.207 25.5469 22.207 23.5254L22.207 13.7891C22.207 11.7676 21.1914 10.7617 19.1406 10.7617L18.6621 10.7617L18.6621 19.1504C18.6621 21.9238 17.207 23.3691 14.4141 23.3691L5.70312 23.3691L5.70312 23.4668C5.70312 25.5078 6.66992 26.5527 8.76953 26.5527ZM8.67188 7.19727C9.0918 7.19727 9.44336 6.85547 9.44336 6.44531L9.44336 3.59375L9.38477 2.13867L10.0391 2.83203L11.5234 4.4043C11.6602 4.56055 11.8652 4.63867 12.0508 4.63867C12.4512 4.63867 12.7637 4.35547 12.7637 3.95508C12.7637 3.74023 12.6758 3.58398 12.5293 3.4375L9.22852 0.253906C9.0332 0.0585938 8.86719 0 8.67188 0C8.4668 0 8.30078 0.0585938 8.10547 0.253906L4.80469 3.4375C4.6582 3.58398 4.57031 3.74023 4.57031 3.95508C4.57031 4.35547 4.86328 4.63867 5.27344 4.63867C5.45898 4.63867 5.67383 4.56055 5.81055 4.4043L7.29492 2.83203L7.94922 2.13867L7.89062 3.59375L7.89062 6.44531C7.89062 6.85547 8.25195 7.19727 8.67188 7.19727Z" fill="#000000" fill-opacity="0.85"/>
 </g>
</svg>
