<?xml version="1.0" encoding="UTF-8"?>
<!--Generator: Apple Native CoreSVG 175.5-->
<!DOCTYPE svg
PUBLIC "-//W3C//DTD SVG 1.1//EN"
       "http://www.w3.org/Graphics/SVG/1.1/DTD/svg11.dtd">
<svg version="1.1" xmlns="http://www.w3.org/2000/svg" xmlns:xlink="http://www.w3.org/1999/xlink" width="17.9785" height="17.9785">
 <g>
  <rect height="17.9785" opacity="0" width="17.9785" x="0" y="0"/>
  <path d="M0.869141 1.72852C1.34766 1.72852 1.72852 1.33789 1.72852 0.859375C1.72852 0.380859 1.34766 0 0.869141 0C0.390625 0 0 0.380859 0 0.859375C0 1.33789 0.390625 1.72852 0.869141 1.72852ZM3.57422 1.72852C4.05273 1.72852 4.44336 1.33789 4.44336 0.859375C4.44336 0.380859 4.05273 0 3.57422 0C3.0957 0 2.71484 0.380859 2.71484 0.859375C2.71484 1.33789 3.0957 1.72852 3.57422 1.72852ZM6.2793 1.72852C6.75781 1.72852 7.14844 1.33789 7.14844 0.859375C7.14844 0.380859 6.75781 0 6.2793 0C5.80078 0 5.41992 0.380859 5.41992 0.859375C5.41992 1.33789 5.80078 1.72852 6.2793 1.72852ZM8.99414 1.72852C9.47266 1.72852 9.85352 1.33789 9.85352 0.859375C9.85352 0.380859 9.47266 0 8.99414 0C8.51562 0 8.125 0.380859 8.125 0.859375C8.125 1.33789 8.51562 1.72852 8.99414 1.72852ZM11.6992 1.72852C12.1777 1.72852 12.5684 1.33789 12.5684 0.859375C12.5684 0.380859 12.1777 0 11.6992 0C11.2207 0 10.8398 0.380859 10.8398 0.859375C10.8398 1.33789 11.2207 1.72852 11.6992 1.72852ZM14.4043 1.72852C14.8828 1.72852 15.2734 1.33789 15.2734 0.859375C15.2734 0.380859 14.8828 0 14.4043 0C13.9258 0 13.5449 0.380859 13.5449 0.859375C13.5449 1.33789 13.9258 1.72852 14.4043 1.72852ZM17.1191 1.72852C17.5977 1.72852 17.9785 1.33789 17.9785 0.859375C17.9785 0.380859 17.5977 0 17.1191 0C16.6406 0 16.25 0.380859 16.25 0.859375C16.25 1.33789 16.6406 1.72852 17.1191 1.72852ZM17.1191 4.43359C17.5977 4.43359 17.9785 4.05273 17.9785 3.57422C17.9785 3.0957 17.5977 2.70508 17.1191 2.70508C16.6406 2.70508 16.25 3.0957 16.25 3.57422C16.25 4.05273 16.6406 4.43359 17.1191 4.43359ZM17.1191 7.13867C17.5977 7.13867 17.9785 6.75781 17.9785 6.2793C17.9785 5.80078 17.5977 5.41016 17.1191 5.41016C16.6406 5.41016 16.25 5.80078 16.25 6.2793C16.25 6.75781 16.6406 7.13867 17.1191 7.13867ZM17.1191 9.85352C17.5977 9.85352 17.9785 9.46289 17.9785 8.98438C17.9785 8.50586 17.5977 8.125 17.1191 8.125C16.6406 8.125 16.25 8.50586 16.25 8.98438C16.25 9.46289 16.6406 9.85352 17.1191 9.85352ZM17.1191 12.5586C17.5977 12.5586 17.9785 12.1777 17.9785 11.6992C17.9785 11.2207 17.5977 10.8301 17.1191 10.8301C16.6406 10.8301 16.25 11.2207 16.25 11.6992C16.25 12.1777 16.6406 12.5586 17.1191 12.5586ZM17.1191 15.2637C17.5977 15.2637 17.9785 14.8828 17.9785 14.4043C17.9785 13.9258 17.5977 13.5352 17.1191 13.5352C16.6406 13.5352 16.25 13.9258 16.25 14.4043C16.25 14.8828 16.6406 15.2637 17.1191 15.2637ZM17.1191 17.9785C17.5977 17.9785 17.9785 17.5879 17.9785 17.1094C17.9785 16.6309 17.5977 16.25 17.1191 16.25C16.6406 16.25 16.25 16.6309 16.25 17.1094C16.25 17.5879 16.6406 17.9785 17.1191 17.9785ZM14.4043 17.9785C14.8828 17.9785 15.2734 17.5879 15.2734 17.1094C15.2734 16.6309 14.8828 16.25 14.4043 16.25C13.9258 16.25 13.5449 16.6309 13.5449 17.1094C13.5449 17.5879 13.9258 17.9785 14.4043 17.9785ZM11.6992 17.9785C12.1777 17.9785 12.5684 17.5879 12.5684 17.1094C12.5684 16.6309 12.1777 16.25 11.6992 16.25C11.2207 16.25 10.8398 16.6309 10.8398 17.1094C10.8398 17.5879 11.2207 17.9785 11.6992 17.9785ZM8.99414 17.9785C9.47266 17.9785 9.85352 17.5879 9.85352 17.1094C9.85352 16.6309 9.47266 16.25 8.99414 16.25C8.51562 16.25 8.125 16.6309 8.125 17.1094C8.125 17.5879 8.51562 17.9785 8.99414 17.9785ZM6.2793 17.9785C6.75781 17.9785 7.14844 17.5879 7.14844 17.1094C7.14844 16.6309 6.75781 16.25 6.2793 16.25C5.80078 16.25 5.41992 16.6309 5.41992 17.1094C5.41992 17.5879 5.80078 17.9785 6.2793 17.9785ZM3.57422 17.9785C4.05273 17.9785 4.44336 17.5879 4.44336 17.1094C4.44336 16.6309 4.05273 16.25 3.57422 16.25C3.0957 16.25 2.71484 16.6309 2.71484 17.1094C2.71484 17.5879 3.0957 17.9785 3.57422 17.9785ZM0.869141 17.9785C1.34766 17.9785 1.72852 17.5879 1.72852 17.1094C1.72852 16.6309 1.34766 16.25 0.869141 16.25C0.390625 16.25 0 16.6309 0 17.1094C0 17.5879 0.390625 17.9785 0.869141 17.9785ZM0.869141 15.2637C1.34766 15.2637 1.72852 14.8828 1.72852 14.4043C1.72852 13.9258 1.34766 13.5352 0.869141 13.5352C0.390625 13.5352 0 13.9258 0 14.4043C0 14.8828 0.390625 15.2637 0.869141 15.2637ZM0.869141 12.5586C1.34766 12.5586 1.72852 12.1777 1.72852 11.6992C1.72852 11.2207 1.34766 10.8301 0.869141 10.8301C0.390625 10.8301 0 11.2207 0 11.6992C0 12.1777 0.390625 12.5586 0.869141 12.5586ZM0.869141 9.85352C1.34766 9.85352 1.72852 9.46289 1.72852 8.98438C1.72852 8.50586 1.34766 8.125 0.869141 8.125C0.390625 8.125 0 8.50586 0 8.98438C0 9.46289 0.390625 9.85352 0.869141 9.85352ZM0.869141 7.13867C1.34766 7.13867 1.72852 6.75781 1.72852 6.2793C1.72852 5.80078 1.34766 5.41016 0.869141 5.41016C0.390625 5.41016 0 5.80078 0 6.2793C0 6.75781 0.390625 7.13867 0.869141 7.13867ZM0.869141 4.43359C1.34766 4.43359 1.72852 4.05273 1.72852 3.57422C1.72852 3.0957 1.34766 2.70508 0.869141 2.70508C0.390625 2.70508 0 3.0957 0 3.57422C0 4.05273 0.390625 4.43359 0.869141 4.43359ZM8.99414 4.43359C9.47266 4.43359 9.85352 4.05273 9.85352 3.57422C9.85352 3.0957 9.47266 2.70508 8.99414 2.70508C8.51562 2.70508 8.125 3.0957 8.125 3.57422C8.125 4.05273 8.51562 4.43359 8.99414 4.43359ZM8.99414 7.13867C9.47266 7.13867 9.85352 6.75781 9.85352 6.2793C9.85352 5.80078 9.47266 5.41016 8.99414 5.41016C8.51562 5.41016 8.125 5.80078 8.125 6.2793C8.125 6.75781 8.51562 7.13867 8.99414 7.13867ZM8.99414 9.85352C9.47266 9.85352 9.85352 9.46289 9.85352 8.98438C9.85352 8.50586 9.47266 8.125 8.99414 8.125C8.51562 8.125 8.125 8.50586 8.125 8.98438C8.125 9.46289 8.51562 9.85352 8.99414 9.85352ZM8.99414 12.5586C9.47266 12.5586 9.85352 12.1777 9.85352 11.6992C9.85352 11.2207 9.47266 10.8301 8.99414 10.8301C8.51562 10.8301 8.125 11.2207 8.125 11.6992C8.125 12.1777 8.51562 12.5586 8.99414 12.5586ZM8.99414 15.2637C9.47266 15.2637 9.85352 14.8828 9.85352 14.4043C9.85352 13.9258 9.47266 13.5352 8.99414 13.5352C8.51562 13.5352 8.125 13.9258 8.125 14.4043C8.125 14.8828 8.51562 15.2637 8.99414 15.2637ZM3.57422 9.85352C4.05273 9.85352 4.44336 9.46289 4.44336 8.98438C4.44336 8.50586 4.05273 8.125 3.57422 8.125C3.0957 8.125 2.71484 8.50586 2.71484 8.98438C2.71484 9.46289 3.0957 9.85352 3.57422 9.85352ZM6.2793 9.85352C6.75781 9.85352 7.14844 9.46289 7.14844 8.98438C7.14844 8.50586 6.75781 8.125 6.2793 8.125C5.80078 8.125 5.41992 8.50586 5.41992 8.98438C5.41992 9.46289 5.80078 9.85352 6.2793 9.85352ZM11.6992 9.85352C12.1777 9.85352 12.5684 9.46289 12.5684 8.98438C12.5684 8.50586 12.1777 8.125 11.6992 8.125C11.2207 8.125 10.8398 8.50586 10.8398 8.98438C10.8398 9.46289 11.2207 9.85352 11.6992 9.85352ZM14.4043 9.85352C14.8828 9.85352 15.2734 9.46289 15.2734 8.98438C15.2734 8.50586 14.8828 8.125 14.4043 8.125C13.9258 8.125 13.5449 8.50586 13.5449 8.98438C13.5449 9.46289 13.9258 9.85352 14.4043 9.85352Z" fill="#000000" fill-opacity="0.85"/>
 </g>
</svg>
