<?xml version="1.0" encoding="UTF-8"?>
<!--Generator: Apple Native CoreSVG 175.5-->
<!DOCTYPE svg
PUBLIC "-//W3C//DTD SVG 1.1//EN"
       "http://www.w3.org/Graphics/SVG/1.1/DTD/svg11.dtd">
<svg version="1.1" xmlns="http://www.w3.org/2000/svg" xmlns:xlink="http://www.w3.org/1999/xlink" width="17.9785" height="17.998">
 <g>
  <rect height="17.998" opacity="0" width="17.9785" x="0" y="0"/>
  <path d="M4.0625 14.6875C4.48242 14.6875 4.82422 14.3457 4.82422 13.9355C4.82422 13.5156 4.48242 13.1738 4.0625 13.1738C3.64258 13.1738 3.30078 13.5156 3.30078 13.9355C3.30078 14.3457 3.64258 14.6875 4.0625 14.6875ZM4.0625 12.2266C4.48242 12.2266 4.82422 11.8848 4.82422 11.4648C4.82422 11.0449 4.48242 10.7031 4.0625 10.7031C3.64258 10.7031 3.30078 11.0449 3.30078 11.4648C3.30078 11.8848 3.64258 12.2266 4.0625 12.2266ZM4.0625 9.75586C4.48242 9.75586 4.82422 9.41406 4.82422 8.99414C4.82422 8.58398 4.48242 8.24219 4.0625 8.24219C3.64258 8.24219 3.30078 8.58398 3.30078 8.99414C3.30078 9.41406 3.64258 9.75586 4.0625 9.75586ZM4.0625 7.29492C4.48242 7.29492 4.82422 6.95312 4.82422 6.5332C4.82422 6.11328 4.48242 5.77148 4.0625 5.77148C3.64258 5.77148 3.30078 6.11328 3.30078 6.5332C3.30078 6.95312 3.64258 7.29492 4.0625 7.29492ZM4.0625 4.82422C4.48242 4.82422 4.82422 4.48242 4.82422 4.0625C4.82422 3.64258 4.48242 3.30078 4.0625 3.30078C3.64258 3.30078 3.30078 3.64258 3.30078 4.0625C3.30078 4.48242 3.64258 4.82422 4.0625 4.82422ZM6.5332 4.82422C6.94336 4.82422 7.29492 4.48242 7.29492 4.0625C7.29492 3.64258 6.94336 3.30078 6.5332 3.30078C6.11328 3.30078 5.77148 3.64258 5.77148 4.0625C5.77148 4.48242 6.11328 4.82422 6.5332 4.82422ZM8.99414 4.82422C9.41406 4.82422 9.75586 4.48242 9.75586 4.0625C9.75586 3.64258 9.41406 3.30078 8.99414 3.30078C8.57422 3.30078 8.23242 3.64258 8.23242 4.0625C8.23242 4.48242 8.57422 4.82422 8.99414 4.82422ZM11.4648 4.82422C11.8848 4.82422 12.2266 4.48242 12.2266 4.0625C12.2266 3.64258 11.8848 3.30078 11.4648 3.30078C11.0449 3.30078 10.7031 3.64258 10.7031 4.0625C10.7031 4.48242 11.0449 4.82422 11.4648 4.82422ZM13.9355 4.82422C14.3555 4.82422 14.6973 4.48242 14.6973 4.0625C14.6973 3.64258 14.3555 3.30078 13.9355 3.30078C13.5156 3.30078 13.1738 3.64258 13.1738 4.0625C13.1738 4.48242 13.5156 4.82422 13.9355 4.82422ZM13.9355 7.29492C14.3555 7.29492 14.6973 6.95312 14.6973 6.5332C14.6973 6.11328 14.3555 5.77148 13.9355 5.77148C13.5156 5.77148 13.1738 6.11328 13.1738 6.5332C13.1738 6.95312 13.5156 7.29492 13.9355 7.29492ZM13.9355 9.75586C14.3555 9.75586 14.6973 9.41406 14.6973 8.99414C14.6973 8.58398 14.3555 8.24219 13.9355 8.24219C13.5156 8.24219 13.1738 8.58398 13.1738 8.99414C13.1738 9.41406 13.5156 9.75586 13.9355 9.75586ZM13.9355 12.2266C14.3555 12.2266 14.6973 11.8848 14.6973 11.4648C14.6973 11.0449 14.3555 10.7031 13.9355 10.7031C13.5156 10.7031 13.1738 11.0449 13.1738 11.4648C13.1738 11.8848 13.5156 12.2266 13.9355 12.2266ZM13.9355 14.6875C14.3555 14.6875 14.6973 14.3457 14.6973 13.9355C14.6973 13.5156 14.3555 13.1738 13.9355 13.1738C13.5156 13.1738 13.1738 13.5156 13.1738 13.9355C13.1738 14.3457 13.5156 14.6875 13.9355 14.6875ZM11.4648 14.6875C11.8848 14.6875 12.2266 14.3457 12.2266 13.9355C12.2266 13.5156 11.8848 13.1738 11.4648 13.1738C11.0449 13.1738 10.7031 13.5156 10.7031 13.9355C10.7031 14.3457 11.0449 14.6875 11.4648 14.6875ZM8.99414 14.6875C9.41406 14.6875 9.75586 14.3457 9.75586 13.9355C9.75586 13.5156 9.41406 13.1738 8.99414 13.1738C8.57422 13.1738 8.23242 13.5156 8.23242 13.9355C8.23242 14.3457 8.57422 14.6875 8.99414 14.6875ZM6.5332 14.6875C6.94336 14.6875 7.29492 14.3457 7.29492 13.9355C7.29492 13.5156 6.94336 13.1738 6.5332 13.1738C6.11328 13.1738 5.77148 13.5156 5.77148 13.9355C5.77148 14.3457 6.11328 14.6875 6.5332 14.6875Z" fill="#000000" fill-opacity="0.85"/>
  <path d="M0 17.2168C0 17.6855 0.3125 17.998 0.78125 17.998L17.207 17.998C17.6758 17.998 17.9785 17.6855 17.9785 17.2168L17.9785 0.791016C17.9785 0.322266 17.6758 0.0195312 17.207 0.0195312L0.78125 0.0195312C0.3125 0.0195312 0 0.322266 0 0.791016ZM1.57227 16.1426L1.57227 1.875C1.57227 1.66016 1.65039 1.5918 1.85547 1.5918L16.123 1.5918C16.3379 1.5918 16.4062 1.66016 16.4062 1.875L16.4062 16.1426C16.4062 16.3477 16.3379 16.4258 16.123 16.4258L1.85547 16.4258C1.65039 16.4258 1.57227 16.3477 1.57227 16.1426Z" fill="#000000" fill-opacity="0.85"/>
 </g>
</svg>
