<?xml version="1.0" encoding="UTF-8"?>
<!--Generator: Apple Native CoreSVG 175.5-->
<!DOCTYPE svg
PUBLIC "-//W3C//DTD SVG 1.1//EN"
       "http://www.w3.org/Graphics/SVG/1.1/DTD/svg11.dtd">
<svg version="1.1" xmlns="http://www.w3.org/2000/svg" xmlns:xlink="http://www.w3.org/1999/xlink" width="20.6641" height="20.4785">
 <g>
  <rect height="20.4785" opacity="0" width="20.6641" x="0" y="0"/>
  <path d="M7.80273 20.4785L17.6074 20.4785C19.6387 20.4785 20.6641 19.4629 20.6641 17.4512L20.6641 7.56836C20.6641 5.55664 19.6387 4.54102 17.6074 4.54102L7.80273 4.54102C5.75195 4.54102 4.73633 5.54688 4.73633 7.56836L4.73633 17.4512C4.73633 19.4629 5.75195 20.4785 7.80273 20.4785ZM0 12.9297C0 14.9414 1.01562 15.957 3.06641 15.957L3.39844 15.957L3.39844 7.56836C3.39844 4.80469 5.01953 3.21289 7.80273 3.21289L15.9277 3.21289L15.9277 3.04688C15.9277 1.03516 14.9023 0.0195312 12.8711 0.0195312L3.06641 0.0195312C1.01562 0.0195312 0 1.03516 0 3.04688Z" fill="#000000" fill-opacity="0.85"/>
  <path d="M10.293 16.8848C9.79492 17.2656 9.27734 16.875 9.47266 16.2988L10.4297 13.4375L7.96875 11.6797C7.50977 11.3477 7.66602 10.6836 8.29102 10.6934L11.3086 10.7227L12.2168 7.8418C12.4023 7.27539 13.0469 7.27539 13.2227 7.8418L14.1406 10.7227L17.1484 10.6934C17.7832 10.6836 17.9199 11.3477 17.4707 11.6797L15.0195 13.4375L15.9766 16.2988C16.1719 16.875 15.6445 17.2656 15.1465 16.8848L12.7246 15.1172Z" fill="#ffffff"/>
 </g>
</svg>
