<?xml version="1.0" encoding="UTF-8"?>
<!--Generator: Apple Native CoreSVG 175.5-->
<!DOCTYPE svg
PUBLIC "-//W3C//DTD SVG 1.1//EN"
       "http://www.w3.org/Graphics/SVG/1.1/DTD/svg11.dtd">
<svg version="1.1" xmlns="http://www.w3.org/2000/svg" xmlns:xlink="http://www.w3.org/1999/xlink" width="21.6876" height="22.1191">
 <g>
  <rect height="22.1191" opacity="0" width="21.6876" x="0" y="0"/>
  <path d="M4.16109 20.5469C4.56149 20.8594 5.0693 20.752 5.67477 20.3125L10.8408 16.5137L16.0166 20.3125C16.622 20.752 17.1103 20.8496 17.5302 20.5469C17.6474 20.459 17.7353 20.3418 17.8818 20.127L11.3388 15.0098C11.0263 14.7656 10.665 14.7656 10.3525 15.0098L5.65524 18.5938C5.61617 18.623 5.58688 18.6426 5.56734 18.6133C5.54781 18.5938 5.55758 18.584 5.56734 18.5254L7.5107 12.9395C7.64742 12.5586 7.5693 12.2559 7.2275 12.0215L2.36422 8.66211C2.31539 8.63281 2.30563 8.61328 2.31539 8.58398C2.32516 8.55469 2.34469 8.55469 2.40328 8.55469L6.40719 8.62305L4.94234 7.16797L1.41695 7.14844C0.665001 7.13867 0.206017 7.37305 0.0497668 7.8418C-0.116249 8.33008 0.137657 8.7793 0.743126 9.20898L5.95797 12.959L3.91695 19.0332C3.67281 19.7461 3.7607 20.2441 4.16109 20.5469ZM16.0068 12.7637L20.9482 9.20898C21.5537 8.7793 21.7978 8.33008 21.6416 7.8418C21.4853 7.37305 21.0263 7.13867 20.2744 7.14844L13.8779 7.1875L11.9345 1.08398C11.7002 0.361328 11.3486 0 10.8408 0C10.3427 0 9.99117 0.361328 9.7568 1.08398L8.43844 5.22461L9.60055 6.38672L10.792 2.45117C10.8017 2.39258 10.8213 2.37305 10.8408 2.37305C10.8701 2.37305 10.8896 2.39258 10.8994 2.45117L12.5986 8.10547C12.7255 8.50586 12.9795 8.67188 13.3798 8.66211L19.288 8.55469C19.3466 8.55469 19.3662 8.55469 19.3759 8.58398C19.3857 8.61328 19.3662 8.63281 19.3271 8.66211L14.9326 11.6992Z" fill="#000000" fill-opacity="0.85"/>
  <path d="M19.288 19.8145C19.581 20.1074 20.0693 20.1074 20.3525 19.8145C20.6357 19.5117 20.6455 19.043 20.3525 18.75L4.54195 2.98828C4.24899 2.69531 3.7607 2.68555 3.46774 2.98828C3.18453 3.27148 3.18453 3.75977 3.46774 4.05273Z" fill="#000000" fill-opacity="0.85"/>
 </g>
</svg>
