<?xml version="1.0" encoding="UTF-8"?>
<!--Generator: Apple Native CoreSVG 175.5-->
<!DOCTYPE svg
PUBLIC "-//W3C//DTD SVG 1.1//EN"
       "http://www.w3.org/Graphics/SVG/1.1/DTD/svg11.dtd">
<svg version="1.1" xmlns="http://www.w3.org/2000/svg" xmlns:xlink="http://www.w3.org/1999/xlink" width="26.1328" height="21.4551">
 <g>
  <rect height="21.4551" opacity="0" width="26.1328" x="0" y="0"/>
  <path d="M0 4.28711C0 8.28125 3.61328 14.1992 7.00195 14.1992L7.44141 14.1992C10.8301 14.1992 14.4434 8.28125 14.4434 4.28711C14.4434 2.12891 13.3789 1.02539 11.3184 1.02539L10.2832 1.02539L10.2832 2.59766L11.3965 2.59766C12.3828 2.59766 12.8711 3.18359 12.8711 4.26758C12.8711 7.36328 10 12.627 7.2168 12.627C4.43359 12.627 1.57227 7.36328 1.57227 4.26758C1.57227 3.18359 2.06055 2.59766 3.03711 2.59766L4.15039 2.59766L4.15039 1.02539L3.11523 1.02539C1.06445 1.02539 0 2.12891 0 4.28711ZM11.377 21.4551C14.3457 21.4551 15.8887 19.0918 16.709 14.3262C17.334 10.7715 18.1934 9.6582 19.6191 9.6582C21.2598 9.6582 22.0508 11.3184 22.1973 14.7168L23.7695 14.7168C23.4766 10.3027 22.2559 8.08594 19.6191 8.08594C17.2363 8.08594 15.9473 9.70703 15.166 13.9746C14.4727 17.8125 13.6035 19.8828 11.2793 19.8828C9.16992 19.8828 7.97852 17.5977 7.98828 13.5645L6.41602 13.5645C6.40625 18.6328 8.20312 21.4551 11.377 21.4551Z" fill="#000000" fill-opacity="0.85"/>
  <path d="M4.63867 3.27148C5.43945 3.27148 6.10352 2.60742 6.10352 1.79688C6.10352 0.986328 5.43945 0.322266 4.63867 0.322266C3.82812 0.322266 3.16406 0.986328 3.16406 1.79688C3.16406 2.60742 3.82812 3.27148 4.63867 3.27148ZM9.78516 3.27148C10.5957 3.27148 11.2598 2.60742 11.2598 1.79688C11.2598 0.986328 10.5957 0.322266 9.78516 0.322266C8.98438 0.322266 8.32031 0.986328 8.32031 1.79688C8.32031 2.60742 8.98438 3.27148 9.78516 3.27148ZM23.0469 20.1562C24.7461 20.1562 26.1328 18.7793 26.1328 17.0605C26.1328 15.3613 24.7461 13.9844 23.0469 13.9746C21.3379 13.9648 19.9512 15.3613 19.9512 17.0605C19.9512 18.7793 21.3379 20.1562 23.0469 20.1562ZM23.0469 18.7793C22.0996 18.7793 21.3184 18.0078 21.3184 17.0605C21.3184 16.1035 22.0996 15.3418 23.0469 15.3418C23.9941 15.3418 24.7656 16.1035 24.7656 17.0605C24.7656 18.0078 23.9941 18.7793 23.0469 18.7793Z" fill="#000000" fill-opacity="0.85"/>
 </g>
</svg>
