<?xml version="1.0" encoding="UTF-8"?>
<!--Generator: Apple Native CoreSVG 175.5-->
<!DOCTYPE svg
PUBLIC "-//W3C//DTD SVG 1.1//EN"
       "http://www.w3.org/Graphics/SVG/1.1/DTD/svg11.dtd">
<svg version="1.1" xmlns="http://www.w3.org/2000/svg" xmlns:xlink="http://www.w3.org/1999/xlink" width="21.1426" height="21.2207">
 <g>
  <rect height="21.2207" opacity="0" width="21.1426" x="0" y="0"/>
  <path d="M10.5664 5.61523C7.8418 5.61523 5.58594 7.87109 5.58594 10.6055C5.58594 13.3301 7.8418 15.5859 10.5664 15.5859C13.2812 15.5859 15.5371 13.3301 15.5371 10.6055C15.5371 7.87109 13.2812 5.61523 10.5664 5.61523ZM11.4258 0.859375C11.4258 0.390625 11.0352 0 10.5664 0C10.1074 0 9.7168 0.390625 9.7168 0.859375L9.7168 2.91016C9.7168 3.36914 10.1074 3.75977 10.5664 3.75977C11.0352 3.75977 11.4258 3.36914 11.4258 2.91016ZM15.3906 4.58008C15.0684 4.91211 15.0684 5.44922 15.3906 5.78125C15.7227 6.10352 16.2695 6.11328 16.6016 5.78125L18.0566 4.32617C18.3887 3.99414 18.3887 3.4375 18.0566 3.11523C17.7344 2.7832 17.1875 2.7832 16.8652 3.11523ZM20.2832 11.4551C20.752 11.4551 21.1426 11.0645 21.1426 10.6055C21.1426 10.1465 20.752 9.75586 20.2832 9.75586L18.2422 9.75586C17.7832 9.75586 17.3926 10.1465 17.3926 10.6055C17.3926 11.0645 17.7832 11.4551 18.2422 11.4551ZM16.5918 15.4395C16.2695 15.1074 15.7227 15.1074 15.3906 15.4395C15.0684 15.7617 15.0684 16.3086 15.3906 16.6406L16.8652 18.1055C17.1875 18.4277 17.7344 18.418 18.0566 18.0957C18.3887 17.7637 18.3887 17.2168 18.0566 16.8945ZM11.4258 18.3008C11.4258 17.832 11.0352 17.4414 10.5664 17.4414C10.1074 17.4414 9.7168 17.832 9.7168 18.3008L9.7168 20.3516C9.7168 20.8105 10.1074 21.2012 10.5664 21.2012C11.0352 21.2012 11.4258 20.8105 11.4258 20.3516ZM3.07617 16.8848C2.75391 17.207 2.75391 17.7539 3.06641 18.0859C3.38867 18.4082 3.94531 18.418 4.27734 18.0957L5.73242 16.6406C6.06445 16.3184 6.06445 15.7715 5.74219 15.4395C5.41992 15.1172 4.86328 15.1172 4.53125 15.4395ZM0.849609 9.75586C0.390625 9.75586 0 10.1465 0 10.6055C0 11.0645 0.390625 11.4551 0.849609 11.4551L2.89062 11.4551C3.35938 11.4551 3.75 11.0645 3.75 10.6055C3.75 10.1465 3.35938 9.75586 2.89062 9.75586ZM4.53125 5.78125C4.86328 6.10352 5.41016 6.10352 5.73242 5.78125C6.06445 5.46875 6.06445 4.90234 5.74219 4.58008L4.28711 3.11523C3.97461 2.79297 3.41797 2.7832 3.08594 3.11523C2.76367 3.4375 2.76367 3.99414 3.07617 4.31641Z" fill="#000000" fill-opacity="0.85"/>
 </g>
</svg>
