<?xml version="1.0" encoding="UTF-8"?>
<!--Generator: Apple Native CoreSVG 175.5-->
<!DOCTYPE svg
PUBLIC "-//W3C//DTD SVG 1.1//EN"
       "http://www.w3.org/Graphics/SVG/1.1/DTD/svg11.dtd">
<svg version="1.1" xmlns="http://www.w3.org/2000/svg" xmlns:xlink="http://www.w3.org/1999/xlink" width="22.5391" height="23.5059">
 <g>
  <rect height="23.5059" opacity="0" width="22.5391" x="0" y="0"/>
  <path d="M16.5625 11.25C16.5625 8.36914 14.1602 5.95703 11.2695 5.95703C8.37891 5.95703 5.97656 8.36914 5.97656 11.25C5.97656 11.9531 6.13281 12.627 6.38672 13.2227L16.1426 13.2227C16.4062 12.627 16.5625 11.9531 16.5625 11.25ZM0.869141 11.8066L3.27148 11.8066C3.7793 11.8066 4.16016 11.4551 4.15039 11.0156C4.14062 10.5859 3.7793 10.2246 3.27148 10.2246L0.869141 10.2246C0.361328 10.2246 0 10.5762 0 11.0156C0 11.4551 0.361328 11.8066 0.869141 11.8066ZM6.23047 6.23047C6.5332 5.91797 6.5332 5.41016 6.17188 5.04883L4.47266 3.34961C4.11133 2.98828 3.61328 2.99805 3.30078 3.30078C2.98828 3.60352 2.98828 4.11133 3.34961 4.47266L5.04883 6.17188C5.41016 6.5332 5.92773 6.54297 6.23047 6.23047ZM11.2695 4.15039C11.709 4.14062 12.0605 3.76953 12.0605 3.27148L12.0605 0.869141C12.0605 0.361328 11.709 0 11.2695 0C10.8301 0 10.4785 0.361328 10.4785 0.869141L10.4785 3.27148C10.4785 3.76953 10.8301 4.16016 11.2695 4.15039ZM16.3086 6.23047C16.6113 6.5332 17.1289 6.5332 17.4902 6.17188L19.1895 4.47266C19.5508 4.11133 19.541 3.61328 19.2285 3.30078C18.9355 2.98828 18.4277 2.98828 18.0566 3.34961L16.3574 5.04883C16.0059 5.41016 15.9961 5.92773 16.3086 6.23047ZM19.2676 11.8066L21.6699 11.8066C22.1777 11.8164 22.5391 11.4551 22.5391 11.0156C22.5391 10.5859 22.1777 10.2246 21.6699 10.2246L19.2676 10.2246C18.7598 10.2246 18.3789 10.5762 18.3887 11.0156C18.3984 11.4551 18.7598 11.8066 19.2676 11.8066Z" fill="#000000" fill-opacity="0.85"/>
  <path d="M1.32812 15.5957L21.1621 15.5957C21.5137 15.5957 21.7773 15.332 21.7773 14.9805C21.7773 14.6289 21.5137 14.3652 21.1621 14.3652L1.32812 14.3652C0.986328 14.3652 0.712891 14.6289 0.712891 14.9805C0.712891 15.332 0.986328 15.5957 1.32812 15.5957ZM2.20703 18.75C2.4707 18.75 2.69531 18.5254 2.69531 18.252C2.69531 17.9785 2.4707 17.7539 2.20703 17.7539C1.92383 17.7539 1.70898 17.9785 1.70898 18.252C1.70898 18.5254 1.92383 18.75 2.20703 18.75ZM6.32812 18.75C6.60156 18.75 6.82617 18.5254 6.82617 18.252C6.82617 17.9785 6.60156 17.7539 6.32812 17.7539C6.05469 17.7539 5.83008 17.9785 5.83008 18.252C5.83008 18.5254 6.05469 18.75 6.32812 18.75ZM10.459 18.75C10.7227 18.75 10.9473 18.5254 10.9473 18.252C10.9473 17.9785 10.7227 17.7539 10.459 17.7539C10.1758 17.7539 9.96094 17.9785 9.96094 18.252C9.96094 18.5254 10.1758 18.75 10.459 18.75ZM14.5801 18.75C14.8535 18.75 15.0781 18.5254 15.0781 18.252C15.0781 17.9785 14.8535 17.7539 14.5801 17.7539C14.3066 17.7539 14.082 17.9785 14.082 18.252C14.082 18.5254 14.3066 18.75 14.5801 18.75ZM18.7109 18.75C18.9746 18.75 19.1992 18.5254 19.1992 18.252C19.1992 17.9785 18.9746 17.7539 18.7109 17.7539C18.4277 17.7539 18.2129 17.9785 18.2129 18.252C18.2129 18.5254 18.4277 18.75 18.7109 18.75ZM0.957031 21.123C1.23047 21.123 1.45508 20.8984 1.45508 20.6152C1.45508 20.3516 1.23047 20.127 0.957031 20.127C0.683594 20.127 0.458984 20.3516 0.458984 20.6152C0.458984 20.8984 0.683594 21.123 0.957031 21.123ZM5.08789 21.123C5.35156 21.123 5.57617 20.8984 5.57617 20.6152C5.57617 20.3516 5.35156 20.127 5.08789 20.127C4.80469 20.127 4.58008 20.3516 4.58008 20.6152C4.58008 20.8984 4.80469 21.123 5.08789 21.123ZM9.20898 21.123C9.48242 21.123 9.70703 20.8984 9.70703 20.6152C9.70703 20.3516 9.48242 20.127 9.20898 20.127C8.93555 20.127 8.71094 20.3516 8.71094 20.6152C8.71094 20.8984 8.93555 21.123 9.20898 21.123ZM13.3398 21.123C13.6035 21.123 13.8281 20.8984 13.8281 20.6152C13.8281 20.3516 13.6035 20.127 13.3398 20.127C13.0566 20.127 12.832 20.3516 12.832 20.6152C12.832 20.8984 13.0566 21.123 13.3398 21.123ZM17.4609 21.123C17.7344 21.123 17.959 20.8984 17.959 20.6152C17.959 20.3516 17.7344 20.127 17.4609 20.127C17.1875 20.127 16.9629 20.3516 16.9629 20.6152C16.9629 20.8984 17.1875 21.123 17.4609 21.123ZM21.5918 21.123C21.8555 21.123 22.0801 20.8984 22.0801 20.6152C22.0801 20.3516 21.8555 20.127 21.5918 20.127C21.3086 20.127 21.084 20.3516 21.084 20.6152C21.084 20.8984 21.3086 21.123 21.5918 21.123ZM3.83789 23.4766C4.11133 23.4766 4.32617 23.252 4.32617 22.9688C4.32617 22.7051 4.11133 22.4805 3.83789 22.4805C3.55469 22.4805 3.33984 22.7051 3.33984 22.9688C3.33984 23.252 3.55469 23.4766 3.83789 23.4766ZM7.96875 23.4766C8.23242 23.4766 8.45703 23.252 8.45703 22.9688C8.45703 22.7051 8.23242 22.4805 7.96875 22.4805C7.68555 22.4805 7.46094 22.7051 7.46094 22.9688C7.46094 23.252 7.68555 23.4766 7.96875 23.4766ZM12.0898 23.4766C12.3633 23.4766 12.5781 23.252 12.5781 22.9688C12.5781 22.7051 12.3633 22.4805 12.0898 22.4805C11.8066 22.4805 11.5918 22.7051 11.5918 22.9688C11.5918 23.252 11.8066 23.4766 12.0898 23.4766ZM16.2207 23.4766C16.4844 23.4766 16.709 23.252 16.709 22.9688C16.709 22.7051 16.4844 22.4805 16.2207 22.4805C15.9375 22.4805 15.7129 22.7051 15.7129 22.9688C15.7129 23.252 15.9375 23.4766 16.2207 23.4766ZM20.3418 23.4766C20.6152 23.4766 20.8301 23.252 20.8301 22.9688C20.8301 22.7051 20.6152 22.4805 20.3418 22.4805C20.0586 22.4805 19.8438 22.7051 19.8438 22.9688C19.8438 23.252 20.0586 23.4766 20.3418 23.4766Z" fill="#000000" fill-opacity="0.85"/>
 </g>
</svg>
