<?xml version="1.0" encoding="UTF-8"?>
<!--Generator: Apple Native CoreSVG 175.5-->
<!DOCTYPE svg
PUBLIC "-//W3C//DTD SVG 1.1//EN"
       "http://www.w3.org/Graphics/SVG/1.1/DTD/svg11.dtd">
<svg version="1.1" xmlns="http://www.w3.org/2000/svg" xmlns:xlink="http://www.w3.org/1999/xlink" width="25.0293" height="17.4316">
 <g>
  <rect height="17.4316" opacity="0" width="25.0293" x="0" y="0"/>
  <path d="M8.44727 14.6875L11.0156 14.6875C9.6875 14.1309 8.74023 12.8027 8.74023 11.2695C8.74023 9.19922 10.4492 7.49023 12.5195 7.49023C14.5801 7.49023 16.2891 9.19922 16.2891 11.2695C16.2891 12.8027 15.3418 14.1309 14.0137 14.6875L16.582 14.6875C17.373 13.7598 17.8516 12.5684 17.8516 11.2695C17.8516 8.33984 15.4297 5.91797 12.5195 5.91797C9.59961 5.91797 7.17773 8.33984 7.17773 11.2695C7.17773 12.5684 7.65625 13.7598 8.44727 14.6875ZM2.11914 11.8066L4.52148 11.8066C5.0293 11.8066 5.41016 11.4551 5.40039 11.0156C5.39062 10.5762 5.01953 10.2246 4.52148 10.2246L2.11914 10.2246C1.61133 10.2246 1.25 10.5762 1.25 11.0156C1.25 11.4551 1.61133 11.8066 2.11914 11.8066ZM7.48047 6.23047C7.7832 5.91797 7.7832 5.40039 7.42188 5.04883L5.72266 3.34961C5.36133 2.97852 4.86328 2.99805 4.55078 3.30078C4.23828 3.60352 4.22852 4.11133 4.59961 4.47266L6.29883 6.17188C6.65039 6.5332 7.17773 6.54297 7.48047 6.23047ZM17.5488 6.23047C17.8613 6.5332 18.3789 6.5332 18.7305 6.17188L20.4297 4.47266C20.8008 4.11133 20.7812 3.61328 20.4785 3.30078C20.1758 2.98828 19.668 2.97852 19.3066 3.34961L17.6074 5.04883C17.2461 5.40039 17.2363 5.92773 17.5488 6.23047ZM20.5078 11.8066L22.9102 11.8066C23.418 11.8066 23.7793 11.4551 23.7793 11.0156C23.7793 10.5762 23.418 10.2246 22.9102 10.2246L20.5078 10.2246C20.0098 10.2246 19.6191 10.5762 19.6289 11.0156C19.6387 11.4551 20.0098 11.8066 20.5078 11.8066ZM12.5195 4.15039C12.9492 4.14062 13.3105 3.76953 13.3105 3.27148L13.3105 0.869141C13.3105 0.361328 12.9492 0 12.5195 0C12.0801 0 11.7188 0.361328 11.7188 0.869141L11.7188 3.27148C11.7188 3.76953 12.0801 4.16016 12.5195 4.15039Z" fill="#000000" fill-opacity="0.85"/>
  <path d="M0.849609 15.9277L24.1797 15.9277C24.6387 15.9277 25.0293 15.5762 25.0293 15.1465C25.0293 14.7168 24.6387 14.3652 24.1797 14.3652L0.849609 14.3652C0.390625 14.3652 0 14.7168 0 15.1465C0 15.5762 0.390625 15.9277 0.849609 15.9277Z" fill="#000000" fill-opacity="0.85"/>
 </g>
</svg>
