<?xml version="1.0" encoding="UTF-8"?>
<!--Generator: Apple Native CoreSVG 175.5-->
<!DOCTYPE svg
PUBLIC "-//W3C//DTD SVG 1.1//EN"
       "http://www.w3.org/Graphics/SVG/1.1/DTD/svg11.dtd">
<svg version="1.1" xmlns="http://www.w3.org/2000/svg" xmlns:xlink="http://www.w3.org/1999/xlink" width="25.0293" height="20.4004">
 <g>
  <rect height="20.4004" opacity="0" width="25.0293" x="0" y="0"/>
  <path d="M8.44727 19.1406L11.0156 19.1406C9.6875 18.584 8.74023 17.2559 8.74023 15.7227C8.74023 13.6523 10.4492 11.9434 12.5195 11.9434C14.5801 11.9434 16.2891 13.6523 16.2891 15.7227C16.2891 17.2559 15.3418 18.584 14.0137 19.1406L16.582 19.1406C17.373 18.2227 17.8516 17.0215 17.8516 15.7227C17.8516 12.793 15.4297 10.3711 12.5195 10.3711C9.59961 10.3711 7.17773 12.793 7.17773 15.7227C7.17773 17.0215 7.65625 18.2227 8.44727 19.1406ZM2.11914 16.2598L4.52148 16.2598C5.0293 16.2598 5.41016 15.9082 5.40039 15.4688C5.39062 15.0293 5.01953 14.6777 4.52148 14.6777L2.11914 14.6777C1.61133 14.6777 1.25 15.0293 1.25 15.4688C1.25 15.9082 1.61133 16.2598 2.11914 16.2598ZM7.48047 10.6836C7.7832 10.3711 7.7832 9.85352 7.42188 9.50195L5.72266 7.80273C5.36133 7.44141 4.86328 7.45117 4.55078 7.75391C4.23828 8.05664 4.22852 8.56445 4.59961 8.92578L6.29883 10.625C6.65039 10.9863 7.17773 10.9961 7.48047 10.6836ZM17.5488 10.6836C17.8613 10.9863 18.3789 10.9863 18.7305 10.625L20.4297 8.92578C20.8008 8.56445 20.7812 8.06641 20.4785 7.75391C20.1758 7.44141 19.668 7.44141 19.3066 7.80273L17.6074 9.50195C17.2461 9.85352 17.2363 10.3809 17.5488 10.6836ZM20.5078 16.2598L22.9102 16.2598C23.418 16.2598 23.7793 15.9082 23.7793 15.4688C23.7793 15.0293 23.418 14.6777 22.9102 14.6777L20.5078 14.6777C20.0098 14.6777 19.6191 15.0293 19.6289 15.4688C19.6387 15.9082 20.0098 16.2598 20.5078 16.2598Z" fill="#000000" fill-opacity="0.85"/>
  <path d="M0.849609 20.3809L24.1797 20.3809C24.6387 20.3809 25.0293 20.0293 25.0293 19.5996C25.0293 19.1699 24.6387 18.8184 24.1797 18.8184L0.849609 18.8184C0.390625 18.8184 0 19.1699 0 19.5996C0 20.0293 0.390625 20.3809 0.849609 20.3809ZM12.5195 7.96875C12.9492 7.96875 13.3105 7.58789 13.3105 7.10938L13.3105 3.44727L13.1934 1.97266L13.916 2.80273L15.1367 4.04297C15.2832 4.17969 15.4688 4.26758 15.6543 4.26758C16.0449 4.26758 16.3281 3.99414 16.3281 3.61328C16.3281 3.4082 16.2598 3.25195 16.0938 3.0957L13.0469 0.253906C12.8418 0.0683594 12.6953 0 12.5195 0C12.334 0 12.1875 0.0683594 11.9824 0.253906L8.93555 3.0957C8.76953 3.25195 8.70117 3.4082 8.70117 3.61328C8.70117 3.99414 8.98438 4.26758 9.375 4.26758C9.56055 4.26758 9.74609 4.17969 9.89258 4.04297L11.2109 2.70508L11.8359 1.97266L11.7188 3.44727L11.7188 7.10938C11.7188 7.58789 12.0801 7.96875 12.5195 7.96875Z" fill="#000000" fill-opacity="0.85"/>
 </g>
</svg>
