<?xml version="1.0" encoding="UTF-8"?>
<!--Generator: Apple Native CoreSVG 175.5-->
<!DOCTYPE svg
PUBLIC "-//W3C//DTD SVG 1.1//EN"
       "http://www.w3.org/Graphics/SVG/1.1/DTD/svg11.dtd">
<svg version="1.1" xmlns="http://www.w3.org/2000/svg" xmlns:xlink="http://www.w3.org/1999/xlink" width="21.1363" height="22.5488">
 <g>
  <rect height="22.5488" opacity="0" width="21.1363" x="0" y="0"/>
  <path d="M0 6.66016L8.36914 6.66016L8.36914 2.43164C8.36914 0.9375 7.41211 0 5.88867 0L2.57812 0C0.996094 0 0 0.9375 0 2.43164ZM0 14.541L8.36914 14.541L8.36914 7.98828L0 7.98828ZM2.57812 22.5391L5.88867 22.5391C7.41211 22.5391 8.36914 21.5918 8.36914 20.0977L8.36914 15.8789L0 15.8789L0 20.0977C0 21.5918 0.996094 22.5391 2.57812 22.5391ZM9.69727 7.75391L14.3652 10.4492L16.4746 6.78711C17.2168 5.49805 16.8652 4.19922 15.5371 3.4375L12.6855 1.78711C11.5918 1.15234 10.5273 1.24023 9.77539 1.96289C9.76562 2.1875 9.73633 2.41211 9.69727 2.64648ZM9.69727 18.5254L13.7012 11.6016L9.69727 9.29688ZM16.2207 16.7285L19.873 14.6191C21.1621 13.877 21.4941 12.5684 20.7324 11.2402L19.0918 8.38867C18.7402 7.77344 18.2812 7.38281 17.7637 7.20703C17.7051 7.33398 17.6367 7.44141 17.5781 7.55859L14.2578 13.3203ZM10.3125 20.1367L15.0586 17.3926L13.4766 14.6484Z" fill="#000000" fill-opacity="0.85"/>
 </g>
</svg>
