<?xml version="1.0" encoding="UTF-8"?>
<!--Generator: Apple Native CoreSVG 175.5-->
<!DOCTYPE svg
PUBLIC "-//W3C//DTD SVG 1.1//EN"
       "http://www.w3.org/Graphics/SVG/1.1/DTD/svg11.dtd">
<svg version="1.1" xmlns="http://www.w3.org/2000/svg" xmlns:xlink="http://www.w3.org/1999/xlink" width="21.6699" height="19.4434">
 <g>
  <rect height="19.4434" opacity="0" width="21.6699" x="0" y="0"/>
  <path d="M0 12.4219C1.64062 15.0977 5.92773 19.2188 11.6992 19.2188C15.3809 19.2188 16.3867 17.5098 18.5254 17.5098C20.3027 17.5098 21.0059 18.7012 21.2793 19.1699C21.3574 19.3164 21.4844 19.4141 21.5723 19.1309C21.6211 18.9258 21.6699 18.6523 21.6699 18.3203C21.6699 17.3828 21.3867 15.5957 19.8242 13.6328C20.166 12.666 20.2051 11.6016 20.2051 10.9766C20.2051 8.13477 18.6035 3.19336 13.3008 0C14.4043 1.5625 15.8887 3.92578 15.8887 7.2168C15.8887 8.4082 15.5566 9.7168 15.293 10.3711C12.4121 8.70117 6.9043 4.11133 4.69727 1.76758C6.46484 4.48242 8.56445 6.94336 10.8887 9.52148C7.76367 7.54883 4.85352 5.33203 2.13867 2.90039C4.73633 6.67969 8.02734 10.4004 12.3633 13.9062C11.123 14.5898 9.84375 15.1367 7.66602 15.1367C5.00977 15.1367 1.76758 13.8477 0 12.4219Z" fill="#000000" fill-opacity="0.85"/>
 </g>
</svg>
