<?xml version="1.0" encoding="UTF-8"?>
<!--Generator: Apple Native CoreSVG 175.5-->
<!DOCTYPE svg
PUBLIC "-//W3C//DTD SVG 1.1//EN"
       "http://www.w3.org/Graphics/SVG/1.1/DTD/svg11.dtd">
<svg version="1.1" xmlns="http://www.w3.org/2000/svg" xmlns:xlink="http://www.w3.org/1999/xlink" width="24.6046" height="22.7441">
 <g>
  <rect height="22.7441" opacity="0" width="24.6046" x="0" y="0"/>
  <path d="M2.97852 21.0547L13.6133 21.0547C13.6035 20.957 13.5938 20.8789 13.584 20.7812L12.5684 10.1465C12.4414 8.83789 13.3594 7.77344 14.6777 7.77344L17.3242 7.77344C17.3145 7.16797 17.2266 6.88477 16.9238 6.47461L15.0586 4.00391L15.0586 2.14844C15.0586 0.761719 14.248 0 12.7734 0L4.55078 0C3.08594 0 2.26562 0.761719 2.26562 2.14844L2.26562 4.00391L0.410156 6.47461C0.0878906 6.9043 0 7.19727 0 7.88086L0 18.1152C0 20.0684 0.996094 21.0547 2.97852 21.0547ZM6.01562 3.81836C5.67383 3.81836 5.39062 3.53516 5.39062 3.18359C5.39062 2.8418 5.67383 2.53906 6.01562 2.53906L11.2793 2.53906C11.6211 2.53906 11.9043 2.8418 11.9043 3.18359C11.9043 3.53516 11.6211 3.81836 11.2793 3.81836Z" fill="#000000" fill-opacity="0.85"/>
  <path d="M16.9824 22.7148L21.5039 22.7148C22.793 22.7148 23.4375 22.0605 23.5742 20.6543L24.5996 10.0195C24.6484 9.47266 24.3359 9.11133 23.7988 9.11133L14.6777 9.11133C14.1504 9.11133 13.8379 9.48242 13.8867 10.0195L14.9121 20.6543C15.0488 22.0605 15.6836 22.7148 16.9824 22.7148ZM18.6035 9.60938L19.9512 9.60938L20.0098 8.69141C20.0488 8.20312 20.1953 7.91992 20.5566 7.65625L23.8184 5.3125C24.5605 4.78516 23.7793 3.66211 22.9883 4.23828L19.8438 6.51367C19.0918 7.06055 18.7695 7.65625 18.6816 8.61328Z" fill="#000000" fill-opacity="0.85"/>
 </g>
</svg>
