<?xml version="1.0" encoding="UTF-8"?>
<!--Generator: Apple Native CoreSVG 175.5-->
<!DOCTYPE svg
PUBLIC "-//W3C//DTD SVG 1.1//EN"
       "http://www.w3.org/Graphics/SVG/1.1/DTD/svg11.dtd">
<svg version="1.1" xmlns="http://www.w3.org/2000/svg" xmlns:xlink="http://www.w3.org/1999/xlink" width="28.0005" height="20.6304">
 <g>
  <rect height="20.6304" opacity="0" width="28.0005" x="0" y="0"/>
  <path d="M17.4439 19.3435C18.479 18.3181 18.1567 17.5467 17.1118 16.6873L14.3775 14.4705C13.3521 13.6404 12.6978 13.9822 11.9556 14.6658L11.7896 14.8318C11.1353 15.4373 10.1685 14.9392 7.93214 12.7029C5.85206 10.6131 5.20753 9.43142 5.79347 8.84548L5.95948 8.6697C6.70167 7.93728 6.98487 7.27322 6.16456 6.25759L3.938 3.50369C3.09815 2.45876 2.3169 2.14626 1.29151 3.17165C-1.54052 6.00369 0.529795 10.906 5.11964 15.5056C9.71925 20.1052 14.6314 22.1658 17.4439 19.3435ZM9.68019 6.86306L11.438 6.86306C12.1216 6.86306 12.5122 6.47244 12.5122 5.77908L12.5122 4.0115C12.5122 3.31814 12.1216 2.92751 11.438 2.92751L9.68019 2.92751C8.97706 2.92751 8.57667 3.31814 8.57667 4.0115L8.57667 5.77908C8.57667 6.47244 8.97706 6.86306 9.68019 6.86306ZM14.8364 6.86306L16.5942 6.86306C17.2778 6.86306 17.6782 6.47244 17.6782 5.77908L17.6782 4.0115C17.6782 3.31814 17.2778 2.92751 16.5942 2.92751L14.8364 2.92751C14.1431 2.92751 13.7329 3.31814 13.7329 4.0115L13.7329 5.77908C13.7329 6.47244 14.1431 6.86306 14.8364 6.86306ZM19.9829 6.86306L21.7407 6.86306C22.4341 6.86306 22.8345 6.47244 22.8345 5.77908L22.8345 4.0115C22.8345 3.31814 22.4341 2.92751 21.7407 2.92751L19.9829 2.92751C19.2896 2.92751 18.8989 3.31814 18.8989 4.0115L18.8989 5.77908C18.8989 6.47244 19.2896 6.86306 19.9829 6.86306ZM25.1294 6.86306L26.897 6.86306C27.5903 6.86306 28.0005 6.47244 28.0005 5.77908L28.0005 4.0115C28.0005 3.31814 27.5903 2.92751 26.897 2.92751L25.1294 2.92751C24.4458 2.92751 24.065 3.31814 24.065 4.0115L24.065 5.77908C24.065 6.47244 24.4458 6.86306 25.1294 6.86306ZM9.65089 12.0291L11.4087 12.0291C12.1118 12.0291 12.5122 11.6385 12.5122 10.9451L12.5122 9.16775C12.5122 8.48415 12.1118 8.08376 11.4087 8.08376L9.65089 8.08376C8.96729 8.08376 8.57667 8.48415 8.57667 9.16775L8.57667 10.9451C8.57667 11.6385 8.96729 12.0291 9.65089 12.0291ZM14.8071 12.0291L21.77 12.0291C22.4634 12.0291 22.8442 11.6385 22.8442 10.9451L22.8442 9.16775C22.8442 8.48415 22.4634 8.08376 21.77 8.08376L14.8071 8.08376C14.1138 8.08376 13.7329 8.48415 13.7329 9.16775L13.7329 10.9451C13.7329 11.6385 14.1138 12.0291 14.8071 12.0291ZM25.1685 12.0291L26.9263 12.0291C27.6196 12.0291 28.0005 11.6385 28.0005 10.9451L28.0005 9.16775C28.0005 8.48415 27.6196 8.08376 26.9263 8.08376L25.1685 8.08376C24.4751 8.08376 24.0747 8.48415 24.0747 9.16775L24.0747 10.9451C24.0747 11.6385 24.4751 12.0291 25.1685 12.0291Z" fill="#000000" fill-opacity="0.85"/>
 </g>
</svg>
