<?xml version="1.0" encoding="UTF-8"?>
<!--Generator: Apple Native CoreSVG 175.5-->
<!DOCTYPE svg
PUBLIC "-//W3C//DTD SVG 1.1//EN"
       "http://www.w3.org/Graphics/SVG/1.1/DTD/svg11.dtd">
<svg version="1.1" xmlns="http://www.w3.org/2000/svg" xmlns:xlink="http://www.w3.org/1999/xlink" width="23.0273" height="17.9785">
 <g>
  <rect height="17.9785" opacity="0" width="23.0273" x="0" y="0"/>
  <path d="M4.0625 7.58789L6.48438 6.11328L4.0625 4.6582C3.26172 4.16992 3.93555 2.97852 4.81445 3.52539L7.70508 5.33203C8.25195 5.68359 8.28125 6.54297 7.70508 6.9043L4.81445 8.7207C3.93555 9.26758 3.27148 8.05664 4.0625 7.58789ZM8.31055 8.70117C8.31055 8.33984 8.59375 8.04688 8.95508 8.04688L12.793 8.04688C13.1641 8.04688 13.4473 8.33984 13.4473 8.70117C13.4473 9.0625 13.1641 9.35547 12.793 9.35547L8.95508 9.35547C8.59375 9.35547 8.31055 9.0625 8.31055 8.70117ZM3.06641 17.9785L19.9609 17.9785C22.0117 17.9785 23.0273 16.9727 23.0273 14.9609L23.0273 3.02734C23.0273 1.01562 22.0117 0 19.9609 0L3.06641 0C1.02539 0 0 1.01562 0 3.02734L0 14.9609C0 16.9727 1.02539 17.9785 3.06641 17.9785Z" fill="#000000" fill-opacity="0.85"/>
 </g>
</svg>
