<?xml version="1.0" encoding="UTF-8"?>
<!--Generator: Apple Native CoreSVG 175.5-->
<!DOCTYPE svg
PUBLIC "-//W3C//DTD SVG 1.1//EN"
       "http://www.w3.org/Graphics/SVG/1.1/DTD/svg11.dtd">
<svg version="1.1" xmlns="http://www.w3.org/2000/svg" xmlns:xlink="http://www.w3.org/1999/xlink" width="25.8301" height="19.9427">
 <g>
  <rect height="19.9427" opacity="0" width="25.8301" x="0" y="0"/>
  <path d="M6.89453 2.60317L25.0879 2.60317C25.498 2.60317 25.8301 2.2809 25.8301 1.87074C25.8301 1.45082 25.498 1.12856 25.0879 1.12856L6.89453 1.12856C6.48438 1.12856 6.16211 1.45082 6.16211 1.87074C6.16211 2.2809 6.48438 2.60317 6.89453 2.60317ZM6.89453 7.6227L25.0879 7.6227C25.498 7.6227 25.8301 7.30043 25.8301 6.89028C25.8301 6.47035 25.498 6.14809 25.0879 6.14809L6.89453 6.14809C6.48438 6.14809 6.16211 6.47035 6.16211 6.89028C6.16211 7.30043 6.48438 7.6227 6.89453 7.6227ZM6.89453 12.6422L25.0879 12.6422C25.498 12.6422 25.8301 12.32 25.8301 11.9098C25.8301 11.4899 25.498 11.1676 25.0879 11.1676L6.89453 11.1676C6.48438 11.1676 6.16211 11.4899 6.16211 11.9098C6.16211 12.32 6.48438 12.6422 6.89453 12.6422Z" fill="#000000" fill-opacity="0.85"/>
  <path d="M7.39258 18.8043L24.5996 18.8043C25.4199 18.8043 25.8301 18.3942 25.8301 17.5934L25.8301 16.8707C25.8301 16.0504 25.4199 15.6403 24.5996 15.6403L7.39258 15.6403C6.57227 15.6403 6.16211 16.0504 6.16211 16.8707L6.16211 17.5934C6.16211 18.3942 6.57227 18.8043 7.39258 18.8043ZM1.02539 19.8102L4.28711 17.8278C4.79492 17.525 4.80469 16.9391 4.28711 16.6364L1.02539 14.6539C0.517578 14.3317 0 14.5758 0 15.1911L0 19.2633C0 19.859 0.498047 20.1227 1.02539 19.8102Z" fill="#000000" fill-opacity="0.85"/>
 </g>
</svg>
