<?xml version="1.0" encoding="UTF-8"?>
<!--Generator: Apple Native CoreSVG 175.5-->
<!DOCTYPE svg
PUBLIC "-//W3C//DTD SVG 1.1//EN"
       "http://www.w3.org/Graphics/SVG/1.1/DTD/svg11.dtd">
<svg version="1.1" xmlns="http://www.w3.org/2000/svg" xmlns:xlink="http://www.w3.org/1999/xlink" width="23.2346" height="24.6822">
 <g>
  <rect height="24.6822" opacity="0" width="23.2346" x="0" y="0"/>
  <path d="M6.65027 22.5901C8.66199 24.6116 12.3534 24.7776 14.3553 22.7952C16.0643 21.096 16.1229 18.9085 14.5018 17.2776C13.0468 15.8128 10.8495 15.7151 9.63855 16.9456C8.24207 18.3616 9.1698 19.8069 8.31042 20.6761C7.58777 21.4085 6.94324 21.1448 6.55261 21.5257C6.26941 21.7894 6.24988 22.1898 6.65027 22.5901ZM14.619 15.7933C15.4393 16.3694 16.1327 17.2093 16.3964 17.9515C17.1581 17.678 17.7343 17.1898 18.2323 16.4769C18.3202 16.3499 18.4178 16.2132 18.496 16.0765C17.6659 13.8304 15.3905 12.2679 13.037 12.2483C12.9296 12.3753 12.8221 12.5218 12.7245 12.6683C12.2362 13.3812 11.9823 14.1136 11.9921 14.8753C12.7635 14.8655 13.7987 15.2171 14.619 15.7933ZM20.2733 4.11358C19.7362 4.58233 16.3768 7.81475 13.7792 11.2816C16.0643 11.5843 18.0663 12.971 19.1405 15.0511C21.4843 11.262 22.8221 6.93585 23.076 6.23272C23.8182 4.16241 21.7968 2.82452 20.2733 4.11358Z" fill="#000000" fill-opacity="0.85"/>
  <path d="M1.77722 11.8773C2.71472 15.4124 4.95105 17.4144 7.93933 17.5511C8.16394 16.9651 8.48621 16.3206 9.05261 15.8128C9.50183 15.2366 10.078 14.7972 10.7323 14.5237C10.8104 13.8401 10.996 13.1761 11.2303 12.6292C10.7909 12.9905 10.2147 13.2835 9.56042 13.4593C7.88074 13.889 6.16199 13.3909 5.22449 11.9066C4.99988 11.5452 5.24402 11.223 5.67371 11.2816C6.953 11.428 8.18347 11.1351 8.92566 10.9202C9.61902 10.7249 10.8104 10.3636 11.8065 9.65069C12.1874 9.36749 12.5487 9.52374 12.5389 9.95343C12.5292 10.305 12.4901 10.6175 12.4022 10.8909C13.1932 9.89483 14.3065 8.51788 15.4589 7.20929L14.0526 2.00421C13.5936 0.334286 12.4413-0.310246 10.7323 0.138973L2.05066 2.45343C0.35144 2.90265-0.312622 4.03546 0.136596 5.73468ZM5.14636 8.0003C4.5116 8.17608 4.40417 8.596 4.13074 8.6839C3.93542 8.73272 3.74011 8.55694 3.64246 8.20538C3.41785 7.41436 3.90613 6.59405 4.73621 6.37921C5.51746 6.14483 6.37683 6.61358 6.58191 7.4339C6.6698 7.77569 6.59167 8.01007 6.37683 8.06866C6.11316 8.13702 5.79089 7.84405 5.14636 8.0003ZM10.5077 6.55499C9.86316 6.71124 9.7655 7.15069 9.4823 7.22882C9.28699 7.27765 9.09167 7.11163 8.99402 6.76983C8.75964 5.96905 9.26746 5.14874 10.0878 4.9339C10.8885 4.71905 11.7284 5.17804 11.9335 5.98858C12.0311 6.31085 11.9432 6.56475 11.7382 6.61358C11.4745 6.68194 11.1522 6.36944 10.5077 6.55499Z" fill="#000000" fill-opacity="0.85"/>
 </g>
</svg>
