<?xml version="1.0" encoding="UTF-8"?>
<!--Generator: Apple Native CoreSVG 175.5-->
<!DOCTYPE svg
PUBLIC "-//W3C//DTD SVG 1.1//EN"
       "http://www.w3.org/Graphics/SVG/1.1/DTD/svg11.dtd">
<svg version="1.1" xmlns="http://www.w3.org/2000/svg" xmlns:xlink="http://www.w3.org/1999/xlink" width="19.8535" height="28.623">
 <g>
  <rect height="28.623" opacity="0" width="19.8535" x="0" y="0"/>
  <path d="M9.76562 14.9609C12.4512 14.9609 14.5898 12.8125 14.5898 10.127C14.5898 7.43164 12.4512 5.2832 9.76562 5.2832C8.88672 5.2832 8.04688 5.52734 7.30469 5.97656L8.08594 7.19727C8.58398 6.89453 9.16016 6.70898 9.76562 6.70898C11.6699 6.70898 13.1641 8.20312 13.1641 10.127C13.1641 12.041 11.6699 13.5352 9.76562 13.5352C8.98438 13.5352 8.25195 13.2617 7.64648 12.793L7.64648 14.4629C8.30078 14.7949 9.01367 14.9609 9.76562 14.9609ZM9.76562 3.73047C10.2148 3.73047 10.5762 3.35938 10.5762 2.91992L10.5762 0.810547C10.5762 0.361328 10.2148 0 9.76562 0C9.31641 0 8.95508 0.361328 8.95508 0.810547L8.95508 2.91992C8.95508 3.35938 9.31641 3.73047 9.76562 3.73047ZM14.2773 5.61523C14.5801 5.92773 15.1074 5.9375 15.4297 5.61523L16.9141 4.11133C17.2363 3.79883 17.2266 3.28125 16.9141 2.96875C16.6113 2.65625 16.1035 2.65625 15.7812 2.96875L14.2773 4.48242C13.9648 4.79492 13.9746 5.30273 14.2773 5.61523ZM16.9434 10.9375L19.0527 10.9375C19.4922 10.9375 19.8535 10.5664 19.8535 10.127C19.8535 9.67773 19.4922 9.31641 19.0527 9.31641L16.9434 9.31641C16.5039 9.31641 16.1328 9.67773 16.1328 10.127C16.1328 10.5664 16.5039 10.9375 16.9434 10.9375ZM15.7812 17.2949C16.1035 17.6074 16.6113 17.5977 16.9141 17.2852C17.2266 16.9727 17.2363 16.4551 16.9141 16.1523L15.4102 14.6484C15.0977 14.3457 14.5898 14.3359 14.2773 14.6484C13.9648 14.9609 13.9648 15.4785 14.2773 15.791Z" fill="#000000" fill-opacity="0.85"/>
  <path d="M5.11719 25.1562C7.92969 25.1562 10.2051 22.8711 10.2051 20.0586C10.2051 18.5742 9.59961 17.2754 8.42773 16.2207C8.22266 16.0254 8.17383 15.918 8.17383 15.625L8.18359 6.79688C8.18359 4.81445 6.93359 3.45703 5.11719 3.45703C3.28125 3.45703 2.02148 4.81445 2.02148 6.79688L2.03125 15.625C2.03125 15.918 1.99219 16.0254 1.77734 16.2207C0.615234 17.2754 0 18.5742 0 20.0586C0 22.8711 2.28516 25.1562 5.11719 25.1562ZM5.11719 23.7402C3.07617 23.7402 1.43555 22.0801 1.43555 20.0586C1.43555 18.8379 2.01172 17.7344 3.04688 17.041C3.34961 16.8359 3.4668 16.6504 3.4668 16.25L3.4668 6.85547C3.4668 5.68359 4.14062 4.89258 5.11719 4.89258C6.07422 4.89258 6.74805 5.68359 6.74805 6.85547L6.74805 16.25C6.74805 16.6504 6.86523 16.8359 7.16797 17.041C8.20312 17.7344 8.7793 18.8379 8.7793 20.0586C8.7793 22.0801 7.12891 23.7402 5.11719 23.7402Z" fill="#000000" fill-opacity="0.85"/>
  <path d="M5.10742 22.4219C6.41602 22.4219 7.4707 21.3574 7.4707 20.0488C7.4707 19.1309 6.95312 18.3789 6.20117 17.9688C5.88867 17.8027 5.78125 17.6855 5.78125 17.207L5.78125 7.68555C5.78125 7.2168 5.47852 6.91406 5.10742 6.91406C4.72656 6.91406 4.43359 7.2168 4.43359 7.68555L4.43359 17.207C4.43359 17.6855 4.32617 17.8027 4.01367 17.9688C3.26172 18.3789 2.74414 19.1309 2.74414 20.0488C2.74414 21.3672 3.79883 22.4219 5.10742 22.4219Z" fill="#000000" fill-opacity="0.85"/>
 </g>
</svg>
