<?xml version="1.0" encoding="UTF-8"?>
<!--Generator: Apple Native CoreSVG 175.5-->
<!DOCTYPE svg
PUBLIC "-//W3C//DTD SVG 1.1//EN"
       "http://www.w3.org/Graphics/SVG/1.1/DTD/svg11.dtd">
<svg version="1.1" xmlns="http://www.w3.org/2000/svg" xmlns:xlink="http://www.w3.org/1999/xlink" width="19.9219" height="19.9316">
 <g>
  <rect height="19.9316" opacity="0" width="19.9219" x="0" y="0"/>
  <path d="M9.96094 19.9219C15.4102 19.9219 19.9219 15.4004 19.9219 9.96094C19.9219 4.51172 15.4004 0 9.95117 0C4.51172 0 0 4.51172 0 9.96094C0 15.4004 4.52148 19.9219 9.96094 19.9219ZM9.96094 18.2617C5.35156 18.2617 1.66992 14.5703 1.66992 9.96094C1.66992 5.35156 5.3418 1.66016 9.95117 1.66016C14.5605 1.66016 18.2617 5.35156 18.2617 9.96094C18.2617 14.5703 14.5703 18.2617 9.96094 18.2617Z" fill="#000000" fill-opacity="0.85"/>
  <path d="M7.43164 15.7129L12.4805 15.7129C12.9199 15.7129 13.2812 15.5078 13.4082 15.1953L13.4375 15.0977L11.9727 13.6426L11.9434 13.9355C11.9141 14.1016 11.7676 14.1992 11.6016 14.1992C11.377 14.1992 11.2598 14.0625 11.2598 13.8672L11.2891 12.959L10.3027 11.9727L10.3027 13.8672C10.3027 14.0625 10.1465 14.1992 9.93164 14.1992C9.7168 14.1992 9.58008 14.0625 9.58008 13.8672L9.58008 11.2402L8.47656 10.1465L8.60352 13.8672C8.61328 14.0625 8.48633 14.1992 8.27148 14.1992C8.06641 14.1992 7.91992 14.0625 7.91992 13.8672L7.75391 9.41406L6.05469 7.71484L6.35742 14.6875C6.38672 15.3418 6.76758 15.7129 7.43164 15.7129ZM14.3262 14.9316C14.5117 15.1074 14.7754 15.0977 14.9414 14.9219C15.127 14.7461 15.127 14.4727 14.9414 14.2969L5.74219 5.09766C5.56641 4.91211 5.2832 4.91211 5.11719 5.09766C4.94141 5.26367 4.94141 5.53711 5.11719 5.72266ZM13.6719 11.9531L13.8867 6.96289L14.6582 6.96289C14.8926 6.96289 15.0781 6.77734 15.0879 6.55273C15.0977 6.31836 14.8926 6.13281 14.6582 6.13281L12.3242 6.13281L12.3242 5.3418C12.3242 4.53125 11.7871 4.02344 10.9277 4.02344L8.95508 4.02344C8.10547 4.02344 7.56836 4.53125 7.56836 5.3418C7.56836 5.44922 7.56836 5.54688 7.56836 5.6543L7.37305 5.6543L9.78516 8.06641L9.78516 7.88086C9.82422 7.8418 9.87305 7.82227 9.93164 7.82227C10.1562 7.82227 10.3027 7.95898 10.3027 8.16406L10.3027 8.58398L11.3867 9.66797L11.4453 8.16406C11.4453 7.94922 11.5918 7.82227 11.8066 7.82227C12.0215 7.82227 12.1582 7.95898 12.1484 8.16406L12.0703 10.3418ZM8.55469 6.13281L8.55469 5.39062C8.55469 5.13672 8.74023 4.9707 9.00391 4.9707L10.8691 4.9707C11.1328 4.9707 11.3184 5.13672 11.3184 5.39062L11.3184 6.13281Z" fill="#000000" fill-opacity="0.85"/>
 </g>
</svg>
