<?xml version="1.0" encoding="UTF-8"?>
<!--Generator: Apple Native CoreSVG 175.5-->
<!DOCTYPE svg
PUBLIC "-//W3C//DTD SVG 1.1//EN"
       "http://www.w3.org/Graphics/SVG/1.1/DTD/svg11.dtd">
<svg version="1.1" xmlns="http://www.w3.org/2000/svg" xmlns:xlink="http://www.w3.org/1999/xlink" width="19.9219" height="19.9316">
 <g>
  <rect height="19.9316" opacity="0" width="19.9219" x="0" y="0"/>
  <path d="M9.96094 19.9316C15.4102 19.9316 19.9219 15.4199 19.9219 9.9707C19.9219 4.53125 15.4004 0.00976562 9.95117 0.00976562C4.51172 0.00976562 0 4.53125 0 9.9707C0 15.4199 4.52148 19.9316 9.96094 19.9316Z" fill="#000000" fill-opacity="0.85"/>
  <path d="M7.44141 15.7227C6.77734 15.7227 6.39648 15.3516 6.36719 14.6973L6.06445 7.72461L7.76367 9.42383L7.92969 13.877C7.92969 14.0723 8.07617 14.209 8.28125 14.209C8.49609 14.209 8.62305 14.0723 8.61328 13.877L8.48633 10.1562L9.58984 11.25L9.58984 13.877C9.58984 14.0723 9.72656 14.209 9.94141 14.209C10.1562 14.209 10.3125 14.0723 10.3125 13.877L10.3125 11.9824L11.2988 12.9688L11.2695 13.877C11.2695 14.0723 11.3867 14.209 11.6113 14.209C11.7773 14.209 11.9238 14.1113 11.9531 13.9453L11.9824 13.6523L13.4473 15.1172L13.418 15.2051C13.291 15.5176 12.9297 15.7227 12.4902 15.7227ZM14.3359 14.9414L5.12695 5.73242C4.95117 5.55664 4.95117 5.27344 5.12695 5.10742C5.29297 4.93164 5.57617 4.93164 5.75195 5.10742L14.9512 14.3066C15.1367 14.4824 15.1367 14.7656 14.9512 14.9316C14.7852 15.1172 14.5215 15.1172 14.3359 14.9414ZM13.6816 11.9629L12.0801 10.3516L12.1582 8.17383C12.168 7.96875 12.0312 7.83203 11.8164 7.83203C11.6016 7.83203 11.4551 7.96875 11.4551 8.17383L11.3965 9.67773L10.3125 8.59375L10.3125 8.17383C10.3125 7.96875 10.166 7.83203 9.94141 7.83203C9.88281 7.83203 9.83398 7.85156 9.79492 7.89062L9.79492 8.07617L7.38281 5.66406L7.57812 5.66406C7.57812 5.55664 7.57812 5.45898 7.57812 5.35156C7.57812 4.55078 8.11523 4.0332 8.96484 4.0332L10.9375 4.0332C11.7969 4.0332 12.334 4.55078 12.334 5.35156L12.334 6.14258L14.668 6.14258C14.9023 6.14258 15.1074 6.32812 15.0977 6.5625C15.0879 6.78711 14.9023 6.97266 14.668 6.97266L13.8965 6.97266ZM8.56445 6.14258L11.3281 6.14258L11.3281 5.41016C11.3281 5.15625 11.1426 4.98047 10.8789 4.98047L9.01367 4.98047C8.75 4.98047 8.56445 5.15625 8.56445 5.41016Z" fill="#ffffff"/>
 </g>
</svg>
