<?xml version="1.0" encoding="UTF-8"?>
<!--Generator: Apple Native CoreSVG 175.5-->
<!DOCTYPE svg
PUBLIC "-//W3C//DTD SVG 1.1//EN"
       "http://www.w3.org/Graphics/SVG/1.1/DTD/svg11.dtd">
<svg version="1.1" xmlns="http://www.w3.org/2000/svg" xmlns:xlink="http://www.w3.org/1999/xlink" width="17.9785" height="18.2129">
 <g>
  <rect height="18.2129" opacity="0" width="17.9785" x="0" y="0"/>
  <path d="M3.06641 18.2129L14.9121 18.2129C16.9629 18.2129 17.9785 17.207 17.9785 15.1953L17.9785 3.26172C17.9785 1.25 16.9629 0.234375 14.9121 0.234375L3.06641 0.234375C1.02539 0.234375 0 1.25 0 3.26172L0 15.1953C0 17.207 1.02539 18.2129 3.06641 18.2129ZM3.08594 16.6406C2.10938 16.6406 1.57227 16.123 1.57227 15.1074L1.57227 3.34961C1.57227 2.33398 2.10938 1.80664 3.08594 1.80664L14.8926 1.80664C15.8594 1.80664 16.4062 2.33398 16.4062 3.34961L16.4062 15.1074C16.4062 16.123 15.8594 16.6406 14.8926 16.6406Z" fill="#000000" fill-opacity="0.85"/>
  <path d="M6.47461 14.9609L11.5234 14.9609C11.9629 14.9609 12.3242 14.7656 12.4512 14.4434L12.4805 14.3555L11.0156 12.8906L10.9863 13.1934C10.957 13.3594 10.8105 13.457 10.6445 13.457C10.4199 13.457 10.3027 13.3105 10.3027 13.1152L10.332 12.207L9.3457 11.2207L9.3457 13.1152C9.3457 13.3105 9.18945 13.4473 8.97461 13.4473C8.75977 13.4473 8.62305 13.3105 8.62305 13.1152L8.62305 10.498L7.51953 9.39453L7.65625 13.1152C7.65625 13.3105 7.5293 13.457 7.31445 13.457C7.11914 13.457 6.96289 13.3203 6.96289 13.125L6.79688 8.66211L5.09766 6.96289L5.40039 13.9355C5.42969 14.5996 5.81055 14.9609 6.47461 14.9609ZM13.3691 14.1797C13.5547 14.3652 13.8184 14.3555 13.9844 14.1699C14.1699 14.0039 14.1699 13.7305 13.9844 13.5449L4.78516 4.3457C4.60938 4.16992 4.33594 4.16992 4.16016 4.3457C3.98438 4.51172 3.98438 4.79492 4.16016 4.9707ZM12.7148 11.2109L12.9297 6.2207L13.7012 6.2207C13.9355 6.2207 14.1211 6.02539 14.1309 5.80078C14.1406 5.57617 13.9355 5.38086 13.7012 5.38086L11.3672 5.38086L11.3672 4.58984C11.3672 3.78906 10.8301 3.28125 9.9707 3.28125L7.99805 3.28125C7.14844 3.28125 6.62109 3.78906 6.62109 4.58984C6.62109 4.69727 6.62109 4.79492 6.62109 4.90234L6.41602 4.90234L8.82812 7.31445L8.82812 7.12891C8.86719 7.08984 8.91602 7.07031 8.97461 7.07031C9.19922 7.07031 9.3457 7.20703 9.3457 7.41211L9.3457 7.8418L10.4297 8.91602L10.4883 7.41211C10.4883 7.20703 10.6445 7.07031 10.8496 7.07031C11.0645 7.07031 11.2012 7.20703 11.2012 7.42188L11.1133 9.58984ZM7.59766 5.38086L7.59766 4.64844C7.59766 4.39453 7.79297 4.22852 8.04688 4.22852L9.91211 4.22852C10.1758 4.22852 10.3613 4.39453 10.3613 4.64844L10.3613 5.38086Z" fill="#000000" fill-opacity="0.85"/>
 </g>
</svg>
