<?xml version="1.0" encoding="UTF-8"?>
<!--Generator: Apple Native CoreSVG 175.5-->
<!DOCTYPE svg
PUBLIC "-//W3C//DTD SVG 1.1//EN"
       "http://www.w3.org/Graphics/SVG/1.1/DTD/svg11.dtd">
<svg version="1.1" xmlns="http://www.w3.org/2000/svg" xmlns:xlink="http://www.w3.org/1999/xlink" width="23.0273" height="22.8223">
 <g>
  <rect height="22.8223" opacity="0" width="23.0273" x="0" y="0"/>
  <path d="M3.06641 14.8242L19.9609 14.8242C22.0117 14.8242 23.0273 13.8184 23.0273 11.9336L23.0273 6.54297C23.0273 5.6543 22.9688 5.04883 22.4707 4.58008L19.0137 1.30859C17.9492 0.3125 17.1875 0 15.7422 0L7.28516 0C5.84961 0 5.07812 0.3125 4.02344 1.30859L0.556641 4.58008C0.0585938 5.04883 0 5.6543 0 6.54297L0 11.9336C0 13.8184 1.02539 14.8242 3.06641 14.8242ZM11.5137 9.00391C10.1367 9.00391 9.24805 7.8125 9.24805 6.67969L9.24805 6.64062C9.24805 6.23047 9.00391 5.84961 8.49609 5.84961L2.29492 5.84961C1.73828 5.84961 1.55273 5.5957 2.00195 5.17578L5.22461 2.13867C5.82031 1.58203 6.21094 1.36719 7.13867 1.36719L15.8887 1.36719C16.8262 1.36719 17.207 1.58203 17.8027 2.13867L21.0254 5.17578C21.4941 5.61523 21.2793 5.84961 20.7422 5.84961L14.5312 5.84961C14.0234 5.84961 13.7891 6.23047 13.7891 6.64062L13.7891 6.67969C13.7891 7.8125 12.9004 9.00391 11.5137 9.00391ZM3.08594 13.3887C2.10938 13.3887 1.57227 12.8613 1.57227 11.8457L1.57227 7.28516L7.76367 7.28516C7.99805 9.10156 9.53125 10.459 11.5137 10.459C13.4961 10.459 15.0293 9.10156 15.2637 7.28516L21.4551 7.28516L21.4551 11.8457C21.4551 12.8613 20.9082 13.3887 19.9414 13.3887ZM3.06641 22.4707L19.9609 22.4707C22.002 22.4707 23.0273 21.4551 23.0273 19.4434L23.0273 14.4727C23.0273 13.916 22.666 13.3887 22.0801 13.3887L14.5312 13.3887C14.0234 13.3887 13.7891 13.7695 13.7891 14.1797L13.7891 14.2188C13.7891 15.3516 12.9004 16.543 11.5137 16.543C10.1367 16.543 9.24805 15.3516 9.24805 14.2188L9.24805 14.1797C9.24805 13.7695 9.00391 13.3887 8.49609 13.3887L0.947266 13.3887C0.361328 13.3887 0 13.916 0 14.4727L0 19.4434C0 21.4551 1.02539 22.4707 3.06641 22.4707ZM3.08594 20.8984C2.10938 20.8984 1.57227 20.3711 1.57227 19.3555L1.57227 14.8242L7.76367 14.8242C7.99805 16.6406 9.53125 17.998 11.5137 17.998C13.4961 17.998 15.0293 16.6406 15.2637 14.8242L21.4551 14.8242L21.4551 19.3555C21.4551 20.3711 20.9082 20.8984 19.9414 20.8984Z" fill="#000000" fill-opacity="0.85"/>
 </g>
</svg>
