<?xml version="1.0" encoding="UTF-8"?>
<!--Generator: Apple Native CoreSVG 175.5-->
<!DOCTYPE svg
PUBLIC "-//W3C//DTD SVG 1.1//EN"
       "http://www.w3.org/Graphics/SVG/1.1/DTD/svg11.dtd">
<svg version="1.1" xmlns="http://www.w3.org/2000/svg" xmlns:xlink="http://www.w3.org/1999/xlink" width="23.0273" height="22.8223">
 <g>
  <rect height="22.8223" opacity="0" width="23.0273" x="0" y="0"/>
  <path d="M3.06641 13.3887L19.9609 13.3887C22.0117 13.3887 23.0273 12.3926 23.0273 10.498L23.0273 6.54297C23.0273 5.6543 22.9688 5.04883 22.4707 4.58008L19.0137 1.30859C17.9492 0.3125 17.1875 0 15.7422 0L7.28516 0C5.84961 0 5.07812 0.3125 4.02344 1.30859L0.556641 4.58008C0.0585938 5.04883 0 5.6543 0 6.54297L0 10.498C0 12.3926 1.02539 13.3887 3.06641 13.3887ZM11.5137 9.00391C10.1367 9.00391 9.24805 7.8125 9.24805 6.67969L9.24805 6.64062C9.24805 6.23047 9.00391 5.84961 8.49609 5.84961L2.29492 5.84961C1.73828 5.84961 1.55273 5.5957 2.00195 5.17578L5.22461 2.13867C5.82031 1.58203 6.21094 1.36719 7.13867 1.36719L15.8887 1.36719C16.8262 1.36719 17.207 1.58203 17.8027 2.13867L21.0254 5.17578C21.4941 5.61523 21.2793 5.84961 20.7422 5.84961L14.5312 5.84961C14.0234 5.84961 13.7891 6.23047 13.7891 6.64062L13.7891 6.67969C13.7891 7.8125 12.9004 9.00391 11.5137 9.00391ZM3.06641 22.4707L19.9609 22.4707C22.002 22.4707 23.0273 21.4551 23.0273 19.4434L23.0273 15.8496C23.0273 15.293 22.666 14.7656 22.0801 14.7656L14.5312 14.7656C14.0234 14.7656 13.7891 15.1465 13.7891 15.5469L13.7891 15.5859C13.7891 16.7188 12.9004 17.9199 11.5137 17.9199C10.1367 17.9199 9.24805 16.7188 9.24805 15.5859L9.24805 15.5469C9.24805 15.1465 9.00391 14.7656 8.49609 14.7656L0.947266 14.7656C0.361328 14.7656 0 15.293 0 15.8496L0 19.4434C0 21.4551 1.02539 22.4707 3.06641 22.4707Z" fill="#000000" fill-opacity="0.85"/>
 </g>
</svg>
