<?xml version="1.0" encoding="UTF-8"?>
<!--Generator: Apple Native CoreSVG 175.5-->
<!DOCTYPE svg
PUBLIC "-//W3C//DTD SVG 1.1//EN"
       "http://www.w3.org/Graphics/SVG/1.1/DTD/svg11.dtd">
<svg version="1.1" xmlns="http://www.w3.org/2000/svg" xmlns:xlink="http://www.w3.org/1999/xlink" width="23.0273" height="24.6777">
 <g>
  <rect height="24.6777" opacity="0" width="23.0273" x="0" y="0"/>
  <path d="M3.06641 22.6367L19.9609 22.6367C22.0117 22.6367 23.0273 21.6211 23.0273 19.6094L23.0273 13.8281C23.0273 12.9395 22.9199 12.5 22.4707 11.9727L19.3945 8.16406C18.1836 6.68945 17.7441 6.34766 16.0059 6.34766L14.0918 6.34766L14.0918 7.72461L16.123 7.72461C16.8359 7.72461 17.2852 7.85156 17.8516 8.55469L21.0352 12.5391C21.4355 13.0371 21.2891 13.2324 20.752 13.2324L14.5312 13.2324C14.0234 13.2324 13.7891 13.623 13.7891 14.0234L13.7891 14.0625C13.7891 15.1953 12.9004 16.3867 11.5137 16.3867C10.1367 16.3867 9.24805 15.1953 9.24805 14.0625L9.24805 14.0234C9.24805 13.623 9.00391 13.2324 8.49609 13.2324L2.29492 13.2324C1.72852 13.2324 1.62109 13.0078 2.00195 12.5391L5.15625 8.58398C5.74219 7.86133 6.19141 7.72461 6.9043 7.72461L8.94531 7.72461L8.94531 6.34766L7.02148 6.34766C5.2832 6.34766 4.86328 6.67969 3.62305 8.19336L0.556641 11.9727C0.126953 12.4902 0 12.9395 0 13.8281L0 19.6094C0 21.6211 1.02539 22.6367 3.06641 22.6367ZM3.08594 21.0645C2.10938 21.0645 1.57227 20.5371 1.57227 19.5215L1.57227 14.668L7.76367 14.668C7.99805 16.4941 9.53125 17.8418 11.5137 17.8418C13.4961 17.8418 15.0293 16.4844 15.2637 14.668L21.4551 14.668L21.4551 19.5215C21.4551 20.5371 20.9082 21.0645 19.9414 21.0645Z" fill="#000000" fill-opacity="0.85"/>
  <path d="M11.5137 14.3945C11.9336 14.3945 12.2949 14.043 12.2949 13.6328L12.2949 3.60352L12.2266 2.14844L12.8906 2.83203L14.3652 4.41406C14.502 4.57031 14.707 4.64844 14.9023 4.64844C15.3027 4.64844 15.6055 4.35547 15.6055 3.96484C15.6055 3.75 15.5273 3.59375 15.3809 3.44727L12.0801 0.263672C11.8848 0.0683594 11.7188 0 11.5137 0C11.3184 0 11.1426 0.0683594 10.9473 0.263672L7.64648 3.44727C7.5 3.59375 7.42188 3.75 7.42188 3.96484C7.42188 4.35547 7.71484 4.64844 8.11523 4.64844C8.31055 4.64844 8.51562 4.57031 8.66211 4.41406L10.1367 2.83203L10.8008 2.13867L10.7422 3.60352L10.7422 13.6328C10.7422 14.043 11.0938 14.3945 11.5137 14.3945Z" fill="#000000" fill-opacity="0.85"/>
 </g>
</svg>
