<?xml version="1.0" encoding="UTF-8"?>
<!--Generator: Apple Native CoreSVG 175.5-->
<!DOCTYPE svg
PUBLIC "-//W3C//DTD SVG 1.1//EN"
       "http://www.w3.org/Graphics/SVG/1.1/DTD/svg11.dtd">
<svg version="1.1" xmlns="http://www.w3.org/2000/svg" xmlns:xlink="http://www.w3.org/1999/xlink" width="23.0273" height="24.6777">
 <g>
  <rect height="24.6777" opacity="0" width="23.0273" x="0" y="0"/>
  <path d="M3.06641 22.6367L19.9609 22.6367C22.0117 22.6367 23.0273 21.6211 23.0273 19.6094L23.0273 14.2188C23.0273 13.3301 22.9102 12.9102 22.4707 12.3633L19.1992 8.16406C18.0176 6.65039 17.5488 6.34766 15.8105 6.34766L14.0918 6.34766L14.0918 7.72461L15.9277 7.72461C16.6406 7.72461 17.1094 7.8418 17.6562 8.55469L21.0352 12.9297C21.416 13.4277 21.2891 13.623 20.752 13.623L14.7266 13.623C14.1797 13.623 13.9258 14.043 13.9258 14.4727L13.9258 14.5117C13.9258 15.7129 12.9883 16.9727 11.5137 16.9727C10.0488 16.9727 9.11133 15.7129 9.11133 14.5117L9.11133 14.4727C9.11133 14.043 8.84766 13.623 8.30078 13.623L2.29492 13.623C1.72852 13.623 1.64062 13.3887 2.00195 12.9297L5.35156 8.58398C5.91797 7.85156 6.38672 7.72461 7.09961 7.72461L8.94531 7.72461L8.94531 6.34766L7.2168 6.34766C5.47852 6.34766 5.0293 6.65039 3.81836 8.19336L0.556641 12.3633C0.126953 12.9102 0 13.3301 0 14.2188L0 19.6094C0 21.6211 1.02539 22.6367 3.06641 22.6367Z" fill="#000000" fill-opacity="0.85"/>
  <path d="M11.5137 14.3945C11.9336 14.3945 12.2949 14.043 12.2949 13.6328L12.2949 3.60352L12.2266 2.14844L12.8906 2.83203L14.3652 4.41406C14.502 4.57031 14.707 4.64844 14.9023 4.64844C15.3027 4.64844 15.6055 4.35547 15.6055 3.96484C15.6055 3.75 15.5273 3.59375 15.3809 3.44727L12.0801 0.263672C11.8848 0.0683594 11.7188 0 11.5137 0C11.3184 0 11.1426 0.0683594 10.9473 0.263672L7.64648 3.44727C7.5 3.59375 7.42188 3.75 7.42188 3.96484C7.42188 4.35547 7.71484 4.64844 8.11523 4.64844C8.31055 4.64844 8.51562 4.57031 8.66211 4.41406L10.1367 2.83203L10.8008 2.13867L10.7422 3.60352L10.7422 13.6328C10.7422 14.043 11.0938 14.3945 11.5137 14.3945Z" fill="#000000" fill-opacity="0.85"/>
 </g>
</svg>
