<?xml version="1.0" encoding="UTF-8"?>
<!--Generator: Apple Native CoreSVG 175.5-->
<!DOCTYPE svg
PUBLIC "-//W3C//DTD SVG 1.1//EN"
       "http://www.w3.org/Graphics/SVG/1.1/DTD/svg11.dtd">
<svg version="1.1" xmlns="http://www.w3.org/2000/svg" xmlns:xlink="http://www.w3.org/1999/xlink" width="27.7441" height="22.002">
 <g>
  <rect height="22.002" opacity="0" width="27.7441" x="0" y="0"/>
  <path d="M2.50977 17.7832L15.9277 17.7832L15.9277 16.2109L2.53906 16.2109C1.86523 16.2109 1.57227 15.9375 1.57227 15.2539L1.57227 4.11133C1.57227 3.41797 1.86523 3.1543 2.53906 3.1543L21.8555 3.1543C22.5195 3.1543 22.8125 3.41797 22.8125 4.11133L22.8125 7.06055L24.3848 7.06055L24.3848 4.08203C24.3848 2.37305 23.5547 1.58203 21.8848 1.58203L2.50977 1.58203C0.839844 1.58203 0 2.37305 0 4.08203L0 15.2734C0 16.9922 0.839844 17.7832 2.50977 17.7832ZM6.74805 21.0938L16.0742 21.0938C15.9863 20.7617 15.9277 20.3906 15.9277 19.5117L6.74805 19.5117C6.30859 19.5117 5.95703 19.8633 5.95703 20.3027C5.95703 20.7422 6.30859 21.0938 6.74805 21.0938Z" fill="#000000" fill-opacity="0.425"/>
  <path d="M19.3262 22.002L25.6738 22.002C27.041 22.002 27.7441 21.3086 27.7441 19.9121L27.7441 10.4883C27.7441 9.0918 27.041 8.38867 25.6738 8.38867L19.3262 8.38867C17.9297 8.38867 17.2559 9.0918 17.2559 10.4883L17.2559 19.9121C17.2559 21.3086 17.9297 22.002 19.3262 22.002ZM22.5 13.3691C21.5625 13.3691 20.8105 12.6172 20.8203 11.6699C20.8301 10.7324 21.5625 10 22.5 10C23.4375 10 24.1797 10.7324 24.1797 11.6699C24.1797 12.6172 23.4375 13.3691 22.5 13.3691ZM22.4902 20.3125C20.8301 20.3125 19.5117 18.9746 19.5117 17.3145C19.5117 15.6445 20.8301 14.3164 22.4902 14.3066C24.1406 14.2969 25.4883 15.6445 25.4883 17.3145C25.4883 18.9746 24.1406 20.3125 22.4902 20.3125ZM22.4902 12.5098C22.9492 12.5098 23.3203 12.1387 23.3203 11.6699C23.3203 11.2012 22.9492 10.8496 22.4902 10.8496C22.041 10.8496 21.6699 11.2207 21.6699 11.6699C21.6699 12.1387 22.0312 12.5098 22.4902 12.5098ZM22.4902 18.5645C23.1934 18.5645 23.7598 18.0078 23.7598 17.3145C23.7598 16.582 23.2031 16.0352 22.4902 16.0352C21.7969 16.0352 21.2402 16.582 21.2402 17.3145C21.2402 18.0078 21.7969 18.5645 22.4902 18.5645Z" fill="#000000" fill-opacity="0.85"/>
  <path d="M22.5 13.3691C21.5625 13.3691 20.8105 12.6172 20.8203 11.6699C20.8301 10.7324 21.5625 10 22.5 10C23.4375 10 24.1797 10.7324 24.1797 11.6699C24.1797 12.6172 23.4375 13.3691 22.5 13.3691ZM22.4902 20.3125C20.8301 20.3125 19.5117 18.9746 19.5117 17.3145C19.5117 15.6445 20.8301 14.3164 22.4902 14.3066C24.1406 14.2969 25.4883 15.6445 25.4883 17.3145C25.4883 18.9746 24.1406 20.3125 22.4902 20.3125ZM22.4902 12.5098C22.9492 12.5098 23.3203 12.1387 23.3203 11.6699C23.3203 11.2012 22.9492 10.8496 22.4902 10.8496C22.041 10.8496 21.6699 11.2207 21.6699 11.6699C21.6699 12.1387 22.0312 12.5098 22.4902 12.5098ZM22.4902 18.5645C23.1934 18.5645 23.7598 18.0078 23.7598 17.3145C23.7598 16.582 23.2031 16.0352 22.4902 16.0352C21.7969 16.0352 21.2402 16.582 21.2402 17.3145C21.2402 18.0078 21.7969 18.5645 22.4902 18.5645Z" fill="#000000" fill-opacity="0.2125"/>
 </g>
</svg>
