<?xml version="1.0" encoding="UTF-8"?>
<!--Generator: Apple Native CoreSVG 175.5-->
<!DOCTYPE svg
PUBLIC "-//W3C//DTD SVG 1.1//EN"
       "http://www.w3.org/Graphics/SVG/1.1/DTD/svg11.dtd">
<svg version="1.1" xmlns="http://www.w3.org/2000/svg" xmlns:xlink="http://www.w3.org/1999/xlink" width="19.9219" height="19.9316">
 <g>
  <rect height="19.9316" opacity="0" width="19.9219" x="0" y="0"/>
  <path d="M9.96094 19.9219C15.4102 19.9219 19.9219 15.4004 19.9219 9.96094C19.9219 4.51172 15.4004 0 9.95117 0C4.51172 0 0 4.51172 0 9.96094C0 15.4004 4.52148 19.9219 9.96094 19.9219Z" fill="#000000" fill-opacity="0.85"/>
  <path d="M5.47852 13.457C4.57031 13.457 4.04297 12.9492 4.04297 12.0312L4.04297 6.9043C4.04297 5.97656 4.56055 5.45898 5.47852 5.45898L14.4336 5.45898C15.3613 5.45898 15.8691 5.97656 15.8691 6.9043L15.8691 12.0312C15.8691 12.9492 15.3516 13.457 14.4336 13.457ZM5.5957 12.1875L14.3164 12.1875C14.5312 12.1875 14.5996 12.1191 14.5996 11.9141L14.5996 7.01172C14.5996 6.80664 14.5312 6.73828 14.3164 6.73828L5.5957 6.73828C5.38086 6.73828 5.32227 6.79688 5.32227 7.01172L5.32227 11.9141C5.32227 12.1289 5.38086 12.1875 5.5957 12.1875ZM7.35352 15.5078C7.00195 15.5078 6.70898 15.2148 6.70898 14.8535C6.70898 14.5215 7.01172 14.2285 7.35352 14.2285L12.5879 14.2285C12.9199 14.2285 13.2129 14.5215 13.2129 14.8535C13.2129 15.2148 12.9297 15.5078 12.5879 15.5078Z" fill="#ffffff"/>
 </g>
</svg>
