<?xml version="1.0" encoding="UTF-8"?>
<!--Generator: Apple Native CoreSVG 175.5-->
<!DOCTYPE svg
PUBLIC "-//W3C//DTD SVG 1.1//EN"
       "http://www.w3.org/Graphics/SVG/1.1/DTD/svg11.dtd">
<svg version="1.1" xmlns="http://www.w3.org/2000/svg" xmlns:xlink="http://www.w3.org/1999/xlink" width="20.9277" height="23.0957">
 <g>
  <rect height="23.0957" opacity="0" width="20.9277" x="0" y="0"/>
  <path d="M8.92578 2.91992L10.5469 2.91992L10.5469 0.820312C10.5469 0.371094 10.1855 0 9.73633 0C9.28711 0 8.92578 0.371094 8.92578 0.820312ZM0.810547 12.3926C1.10352 12.3926 1.37695 12.207 1.5918 11.8848C2.23633 10.8984 2.91992 10.4883 3.84766 10.4883C4.75586 10.4883 5.37109 10.8984 5.9375 11.875C6.14258 12.2363 6.34766 12.3926 6.62109 12.3926C6.91406 12.3926 7.11914 12.2363 7.31445 11.875C7.8418 10.9766 8.79883 10.4297 9.73633 10.4297C10.6738 10.4297 11.6309 10.9766 12.1582 11.875C12.3535 12.2363 12.5586 12.3926 12.8516 12.3926C13.125 12.3926 13.3301 12.2363 13.5449 11.875C14.1016 10.8984 14.7168 10.4883 15.625 10.4883C16.5527 10.4883 17.2363 10.8984 17.8906 11.8848C18.1055 12.207 18.3691 12.3926 18.6621 12.3926C19.1504 12.3926 19.4727 11.9922 19.4727 11.4648C19.4727 7.58789 16.416 2.14844 9.73633 2.14844C3.05664 2.14844 0 7.58789 0 11.4648C0 11.9922 0.322266 12.3926 0.810547 12.3926ZM9.73633 8.90625C8.56445 8.90625 7.42188 9.43359 6.70898 10.3027C6.66016 10.3711 6.62109 10.3711 6.58203 10.3027C5.92773 9.41406 5.01953 8.96484 3.84766 8.96484C2.59766 8.96484 1.5625 9.47266 0.693359 10.5273L1.5918 10.6055C2.03125 6.78711 5.3125 3.67188 9.73633 3.67188C14.1504 3.67188 17.4316 6.76758 17.8906 10.5859L18.7695 10.5078C17.9102 9.47266 16.875 8.96484 15.625 8.96484C14.4531 8.96484 13.5449 9.41406 12.9004 10.3027C12.8516 10.3711 12.8125 10.3613 12.7637 10.3027C12.0508 9.43359 10.9082 8.90625 9.73633 8.90625ZM7.45117 22.5781C9.20898 22.5781 10.5469 21.2402 10.5469 19.4629L10.5469 9.96094L8.92578 9.96094L8.92578 19.4629C8.92578 20.3125 8.31055 20.9277 7.45117 20.9277C6.5918 20.9277 5.99609 20.3125 5.99609 19.4629C5.99609 18.8965 5.64453 18.5156 5.14648 18.5156C4.6582 18.5156 4.3457 18.8965 4.3457 19.4629C4.3457 21.2402 5.68359 22.5781 7.45117 22.5781Z" fill="#000000" fill-opacity="0.85"/>
  <path d="M14.2578 18.6816C15.3027 18.6816 15.9766 17.832 15.9766 16.5137C15.9766 15.1953 15.3027 14.3555 14.2578 14.3555C13.2129 14.3555 12.5391 15.1953 12.5391 16.5137C12.5391 17.832 13.2129 18.6816 14.2578 18.6816ZM14.2578 17.4902C13.9746 17.4902 13.8086 17.1289 13.8086 16.5137C13.8086 15.9082 13.9844 15.5469 14.2578 15.5469C14.5215 15.5469 14.707 15.9082 14.707 16.5137C14.707 17.1289 14.5312 17.4902 14.2578 17.4902ZM13.9941 22.5488C14.2871 22.7246 14.6973 22.6367 14.9023 22.3438L19.6387 15.332C19.873 14.9902 19.7852 14.5605 19.4531 14.375C19.1602 14.209 18.7891 14.3066 18.5742 14.6191L13.8086 21.6113C13.5645 21.9629 13.6426 22.3633 13.9941 22.5488ZM19.209 22.5879C20.2539 22.5879 20.9277 21.7285 20.9277 20.4102C20.9277 19.0918 20.2539 18.252 19.209 18.252C18.1641 18.252 17.4902 19.0918 17.4902 20.4102C17.4902 21.7285 18.1641 22.5879 19.209 22.5879ZM19.209 21.3867C18.9258 21.3867 18.7598 21.0352 18.7598 20.4102C18.7598 19.8047 18.9355 19.4434 19.209 19.4434C19.4727 19.4434 19.6582 19.8047 19.6582 20.4102C19.6582 21.0352 19.4922 21.3867 19.209 21.3867Z" fill="#000000" fill-opacity="0.85"/>
 </g>
</svg>
