<?xml version="1.0" encoding="UTF-8"?>
<!--Generator: Apple Native CoreSVG 175.5-->
<!DOCTYPE svg
PUBLIC "-//W3C//DTD SVG 1.1//EN"
       "http://www.w3.org/Graphics/SVG/1.1/DTD/svg11.dtd">
<svg version="1.1" xmlns="http://www.w3.org/2000/svg" xmlns:xlink="http://www.w3.org/1999/xlink" width="25.6226" height="20.8398">
 <g>
  <rect height="20.8398" opacity="0" width="25.6226" x="0" y="0"/>
  <path d="M5.271 18.4424L15.6519 18.4424L14.187 16.9678L5.54443 16.9678C3.94287 16.9678 3.03467 16.1377 3.03467 14.4482L3.03467 5.89355L1.4624 4.31152C1.4624 4.75098 1.4624 5.1709 1.4624 5.61035L1.4624 14.6729C1.4624 17.0557 2.88818 18.4424 5.271 18.4424ZM15.4761 2.3877L5.05615 2.3877L6.521 3.85254L15.2026 3.85254C16.7944 3.85254 17.7124 4.68262 17.7124 6.38184L17.7124 14.3701C17.7124 14.6045 17.6831 14.7705 17.6245 14.9561L18.9917 16.3232C19.1772 15.8838 19.2847 15.3369 19.2847 14.7998L19.2847 6.14746C19.2847 3.77441 17.8589 2.3877 15.4761 2.3877ZM19.0503 7.69043L19.0503 9.5459L23.7085 5.69824C23.7964 5.62988 23.855 5.58105 23.9429 5.58105C24.0601 5.58105 24.1089 5.67871 24.1089 5.81543L24.1089 15.0146C24.1089 15.1514 24.0601 15.2393 23.9429 15.2393C23.855 15.2393 23.7964 15.1904 23.7085 15.1318L19.0503 11.2842L19.0503 13.1396L22.9761 16.46C23.3667 16.7822 23.7964 17.0068 24.1968 17.0068C25.0562 17.0068 25.6226 16.3721 25.6226 15.4639L25.6226 5.36621C25.6226 4.45801 25.0562 3.82324 24.1968 3.82324C23.7964 3.82324 23.3667 4.04785 22.9761 4.37012Z" fill="#000000" fill-opacity="0.85"/>
  <path d="M19.5093 20.6201C19.8022 20.9131 20.2905 20.9131 20.5737 20.6201C20.8569 20.3174 20.8667 19.8486 20.5737 19.5557L1.28662 0.27832C0.993652-0.0146484 0.505371-0.0244141 0.212402 0.27832C-0.0708008 0.561523-0.0708008 1.05957 0.212402 1.34277Z" fill="#000000" fill-opacity="0.85"/>
 </g>
</svg>
