<?xml version="1.0" encoding="UTF-8"?>
<!--Generator: Apple Native CoreSVG 175.5-->
<!DOCTYPE svg
PUBLIC "-//W3C//DTD SVG 1.1//EN"
       "http://www.w3.org/Graphics/SVG/1.1/DTD/svg11.dtd">
<svg version="1.1" xmlns="http://www.w3.org/2000/svg" xmlns:xlink="http://www.w3.org/1999/xlink" width="23.9746" height="15.8691">
 <g>
  <rect height="15.8691" opacity="0" width="23.9746" x="0" y="0"/>
  <path d="M3.13477 15.8594L13.623 15.8594C15.5859 15.8594 16.7578 14.7266 16.7578 12.7637L16.7578 3.08594C16.7578 1.13281 15.6836 0 13.7207 0L3.13477 0C1.25977 0 0 1.13281 0 3.08594L0 12.7637C0 14.7266 1.17188 15.8594 3.13477 15.8594ZM18.0859 10.8105L21.6406 13.8867C21.9727 14.1797 22.3633 14.3652 22.7148 14.3652C23.4766 14.3652 23.9746 13.8086 23.9746 13.0078L23.9746 2.85156C23.9746 2.05078 23.4766 1.49414 22.7148 1.49414C22.3633 1.49414 21.9727 1.67969 21.6406 1.97266L18.0859 5.03906Z" fill="#000000" fill-opacity="0.85"/>
 </g>
</svg>
