<?xml version="1.0" encoding="UTF-8"?>
<!--Generator: Apple Native CoreSVG 175.5-->
<!DOCTYPE svg
PUBLIC "-//W3C//DTD SVG 1.1//EN"
       "http://www.w3.org/Graphics/SVG/1.1/DTD/svg11.dtd">
<svg version="1.1" xmlns="http://www.w3.org/2000/svg" xmlns:xlink="http://www.w3.org/1999/xlink" width="28.4668" height="22.2949">
 <g>
  <rect height="22.2949" opacity="0" width="28.4668" x="0" y="0"/>
  <path d="M11.8359 19.1699L18.3203 19.1699C20.7031 19.1699 22.1289 17.7832 22.1289 15.4004L22.1289 14.0625L25.8203 17.1875C26.2109 17.5098 26.6406 17.7344 27.041 17.7344C27.9004 17.7344 28.4668 17.0996 28.4668 16.1914L28.4668 6.09375C28.4668 5.18555 27.9004 4.55078 27.041 4.55078C26.6406 4.55078 26.2109 4.77539 25.8203 5.09766L22.1289 8.22266L22.1289 6.875C22.1289 4.50195 20.7031 3.11523 18.3203 3.11523L8.11523 3.11523C5.83984 3.11523 4.30664 4.50195 4.30664 6.875L4.30664 11.6504C4.56055 11.543 4.83398 11.4844 5.12695 11.4844C5.39062 11.4844 5.64453 11.5332 5.87891 11.6211L5.87891 7.10938C5.87891 5.41016 6.78711 4.58008 8.38867 4.58008L18.0469 4.58008C19.6387 4.58008 20.5566 5.41016 20.5566 7.10938L20.5566 15.1758C20.5566 16.8652 19.6387 17.6953 18.0469 17.6953L11.8359 17.6953ZM22.1289 12.207L22.1289 10.0781L26.5527 6.42578C26.6406 6.35742 26.6992 6.30859 26.7871 6.30859C26.9043 6.30859 26.9531 6.40625 26.9531 6.54297L26.9531 15.7422C26.9531 15.8789 26.9043 15.9668 26.7871 15.9668C26.6992 15.9668 26.6406 15.918 26.5527 15.8594Z" fill="#000000" fill-opacity="0.85"/>
  <path d="M0.537109 18.9648C0.859375 18.9648 1.09375 18.7207 1.09375 18.418L1.09375 16.9336C1.09375 16.6309 0.859375 16.3867 0.537109 16.3867C0.234375 16.3867 0 16.6309 0 16.9336L0 18.418C0 18.7207 0.234375 18.9648 0.537109 18.9648Z" fill="#000000" fill-opacity="0.85"/>
  <path d="M2.83203 20.6055C3.14453 20.6055 3.38867 20.3613 3.38867 20.0488L3.38867 15.3027C3.38867 14.9902 3.14453 14.7461 2.83203 14.7461C2.5293 14.7461 2.28516 14.9902 2.28516 15.3027L2.28516 20.0488C2.28516 20.3613 2.5293 20.6055 2.83203 20.6055Z" fill="#000000" fill-opacity="0.85"/>
  <path d="M5.12695 22.2949C5.42969 22.2949 5.67383 22.0508 5.67383 21.748L5.67383 13.623C5.67383 13.3105 5.42969 13.0664 5.12695 13.0664C4.81445 13.0664 4.58008 13.3105 4.58008 13.623L4.58008 21.748C4.58008 22.0605 4.80469 22.2949 5.12695 22.2949Z" fill="#000000" fill-opacity="0.85"/>
  <path d="M7.40234 21.3184C7.72461 21.3184 7.96875 21.0742 7.96875 20.7715L7.96875 14.5801C7.96875 14.2773 7.72461 14.0332 7.40234 14.0332C7.10938 14.0332 6.86523 14.2773 6.86523 14.5801L6.86523 20.7715C6.86523 21.0742 7.10938 21.3184 7.40234 21.3184Z" fill="#000000" fill-opacity="0.85"/>
  <path d="M9.70703 19.4727C10.0195 19.4727 10.2539 19.248 10.2539 18.9258L10.2539 16.416C10.2539 16.1133 10.0195 15.8691 9.70703 15.8691C9.39453 15.8691 9.16016 16.123 9.16016 16.416L9.16016 18.9258C9.16016 19.2383 9.39453 19.4727 9.70703 19.4727Z" fill="#000000" fill-opacity="0.85"/>
 </g>
</svg>
