<?xml version="1.0" encoding="UTF-8"?>
<!--Generator: Apple Native CoreSVG 175.5-->
<!DOCTYPE svg
PUBLIC "-//W3C//DTD SVG 1.1//EN"
       "http://www.w3.org/Graphics/SVG/1.1/DTD/svg11.dtd">
<svg version="1.1" xmlns="http://www.w3.org/2000/svg" xmlns:xlink="http://www.w3.org/1999/xlink" width="19.1345" height="20.7324">
 <g>
  <rect height="20.7324" opacity="0" width="19.1345" x="0" y="0"/>
  <path d="M14.6875 0L2.26562 0C0.908203 0 0 0.9375 0 2.33398L0 4.93164L16.9434 4.93164L16.9434 2.33398C16.9434 0.9375 16.0352 0 14.6875 0ZM3.53516 3.81836C3.04688 3.81836 2.64648 3.4082 2.64648 2.92969C2.64648 2.43164 3.04688 2.03125 3.53516 2.03125C4.02344 2.03125 4.41406 2.43164 4.41406 2.92969C4.41406 3.4082 4.02344 3.81836 3.53516 3.81836ZM6.10352 3.81836C5.61523 3.81836 5.22461 3.4082 5.22461 2.92969C5.22461 2.43164 5.61523 2.03125 6.10352 2.03125C6.5918 2.03125 6.98242 2.43164 6.98242 2.92969C6.98242 3.4082 6.5918 3.81836 6.10352 3.81836ZM11.5625 3.4375C11.2598 3.4375 11.0645 3.23242 11.0645 2.92969C11.0645 2.61719 11.2598 2.41211 11.5625 2.41211L13.9648 2.41211C14.2773 2.41211 14.4727 2.61719 14.4727 2.92969C14.4727 3.23242 14.2773 3.4375 13.9648 3.4375ZM2.26562 20.5078L9.72656 20.5078C9.6582 20.3906 9.58984 20.2637 9.54102 20.127L8.85742 18.291C8.74023 18.3008 8.60352 18.3008 8.47656 18.3008C5.55664 18.3008 3.19336 15.9375 3.19336 13.0273C3.19336 10.1172 5.55664 7.74414 8.47656 7.74414C11.3867 7.74414 13.75 10.1172 13.75 13.0273C13.75 13.0957 13.75 13.1738 13.7402 13.252C13.7793 13.2617 13.7988 13.2617 13.8574 13.2617C14.209 13.2617 15.0098 12.5586 16.1035 12.5586C16.4551 12.5586 16.748 12.6172 16.9434 12.6855L16.9434 6.25977L0 6.25977L0 18.1836C0 19.5801 0.908203 20.5078 2.26562 20.5078ZM4.28711 13.0273C4.28711 15.4688 6.35742 17.2266 8.45703 17.207L7.55859 14.7852C7.1875 13.7793 7.67578 12.7734 8.58398 12.4414C9.20898 12.2168 9.91211 12.3535 10.4004 12.8027C10.7129 12.6758 11.1035 12.5586 11.6016 12.5586C11.9531 12.5586 12.2949 12.6562 12.627 12.793C12.627 12.6465 12.6172 12.5 12.5977 12.3535C12.2852 10.3516 10.5566 8.83789 8.47656 8.83789C6.15234 8.83789 4.28711 10.7031 4.28711 13.0273Z" fill="#000000" fill-opacity="0.85"/>
  <path d="M13.8574 15.3516C14.9707 15.3516 15.2246 14.6191 16.0938 14.6191C16.8555 14.6191 17.1387 15.2051 18.1348 15.3223L18.2031 14.4336C17.4707 14.2969 17.041 13.7012 16.0938 13.7012C14.9902 13.7012 14.6289 14.4336 13.8574 14.4336C13.0859 14.4336 12.7148 13.7012 11.6113 13.7012C10.6738 13.7012 10.2344 14.2969 9.50195 14.4336L9.57031 15.3223C10.5664 15.2051 10.8496 14.6191 11.6113 14.6191C12.4805 14.6191 12.7344 15.3516 13.8574 15.3516ZM11.7285 20.5273L15.9766 20.5273C16.4746 20.5273 16.9043 20.2441 17.0996 19.7266L19.082 14.3848C19.2383 13.9453 19.0234 13.623 18.7305 13.5156C18.4277 13.4082 18.0469 13.5059 17.8809 13.9355L15.9961 18.9844C15.9277 19.1699 15.8105 19.248 15.6543 19.248L12.0508 19.248C11.8945 19.248 11.7773 19.1699 11.709 18.9844L9.82422 13.9355C9.66797 13.5059 9.27734 13.4082 8.98438 13.5156C8.68164 13.623 8.47656 13.9453 8.63281 14.3848L10.6152 19.7266C10.8008 20.2441 11.2402 20.5273 11.7285 20.5273Z" fill="#000000" fill-opacity="0.85"/>
 </g>
</svg>
