<?xml version="1.0" encoding="UTF-8"?>
<!--Generator: Apple Native CoreSVG 175.5-->
<!DOCTYPE svg
PUBLIC "-//W3C//DTD SVG 1.1//EN"
       "http://www.w3.org/Graphics/SVG/1.1/DTD/svg11.dtd">
<svg version="1.1" xmlns="http://www.w3.org/2000/svg" xmlns:xlink="http://www.w3.org/1999/xlink" width="19.1345" height="20.7324">
 <g>
  <rect height="20.7324" opacity="0" width="19.1345" x="0" y="0"/>
  <path d="M2.26562 20.5078L9.72656 20.5078C9.66797 20.4004 9.60938 20.293 9.56055 20.166L9.10156 18.9355L2.33398 18.9355C1.88477 18.9355 1.57227 18.6328 1.57227 18.1641L1.57227 2.35352C1.57227 1.88477 1.88477 1.57227 2.33398 1.57227L14.6094 1.57227C15.0684 1.57227 15.3711 1.88477 15.3711 2.35352L15.3711 12.6562C15.9082 12.5195 16.4746 12.5293 16.9434 12.6855L16.9434 2.33398C16.9434 0.9375 16.0352 0 14.6875 0L2.26562 0C0.908203 0 0 0.9375 0 2.33398L0 18.1836C0 19.5801 0.908203 20.5078 2.26562 20.5078ZM3.68164 4.19922C4.16016 4.19922 4.54102 3.80859 4.54102 3.33008C4.54102 2.86133 4.16016 2.4707 3.68164 2.4707C3.21289 2.4707 2.82227 2.86133 2.82227 3.33008C2.82227 3.80859 3.21289 4.19922 3.68164 4.19922ZM6.17188 4.19922C6.65039 4.19922 7.03125 3.80859 7.03125 3.33008C7.03125 2.86133 6.65039 2.4707 6.17188 2.4707C5.70312 2.4707 5.32227 2.86133 5.32227 3.33008C5.32227 3.80859 5.70312 4.19922 6.17188 4.19922ZM11.2793 3.82812L13.6133 3.82812C13.9062 3.82812 14.1016 3.63281 14.1016 3.33008C14.1016 3.03711 13.9062 2.8418 13.6133 2.8418L11.2793 2.8418C10.9863 2.8418 10.791 3.03711 10.791 3.33008C10.791 3.63281 10.9863 3.82812 11.2793 3.82812ZM0.859375 6.37695L16.0742 6.37695L16.0742 5.09766L0.859375 5.09766ZM3.35938 12.6562C3.35938 15.4785 5.64453 17.7637 8.47656 17.7637C8.54492 17.7637 8.59375 17.7637 8.66211 17.7637C8.53516 17.4121 8.41797 17.0605 8.29102 16.709C8.27148 16.709 8.23242 16.709 8.21289 16.709C6.5332 16.709 4.41406 15.0684 4.41406 12.6562C4.41406 10.4004 6.2207 8.59375 8.47656 8.59375C10.7129 8.59375 12.5293 10.4004 12.5293 12.6172C12.5293 12.666 12.5293 12.7246 12.5195 12.7734C12.9199 12.8711 13.3105 13.0371 13.5645 13.1641C13.584 12.998 13.584 12.8223 13.584 12.6562C13.584 9.83398 11.2988 7.53906 8.47656 7.53906C5.64453 7.53906 3.35938 9.83398 3.35938 12.6562Z" fill="#000000" fill-opacity="0.85"/>
  <path d="M13.8574 15.3516C14.9707 15.3516 15.2246 14.6191 16.0938 14.6191C16.8555 14.6191 17.1387 15.2051 18.1348 15.3223L18.2031 14.4336C17.4707 14.2969 17.041 13.7012 16.0938 13.7012C14.9902 13.7012 14.6289 14.4336 13.8574 14.4336C13.0859 14.4336 12.7148 13.7012 11.6113 13.7012C10.6738 13.7012 10.2344 14.2969 9.50195 14.4336L9.57031 15.3223C10.5664 15.2051 10.8496 14.6191 11.6113 14.6191C12.4805 14.6191 12.7344 15.3516 13.8574 15.3516ZM11.7285 20.5273L15.9766 20.5273C16.4746 20.5273 16.9043 20.2441 17.0996 19.7266L19.082 14.3848C19.2383 13.9453 19.0234 13.623 18.7305 13.5156C18.4277 13.4082 18.0469 13.5059 17.8809 13.9355L15.9961 18.9844C15.9277 19.1699 15.8105 19.248 15.6543 19.248L12.0508 19.248C11.8945 19.248 11.7773 19.1699 11.709 18.9844L9.82422 13.9355C9.66797 13.5059 9.27734 13.4082 8.98438 13.5156C8.68164 13.623 8.47656 13.9453 8.63281 14.3848L10.6152 19.7266C10.8008 20.2441 11.2402 20.5273 11.7285 20.5273Z" fill="#000000" fill-opacity="0.85"/>
 </g>
</svg>
