<?xml version="1.0" encoding="UTF-8"?>
<!--Generator: Apple Native CoreSVG 175.5-->
<!DOCTYPE svg
PUBLIC "-//W3C//DTD SVG 1.1//EN"
       "http://www.w3.org/Graphics/SVG/1.1/DTD/svg11.dtd">
<svg version="1.1" xmlns="http://www.w3.org/2000/svg" xmlns:xlink="http://www.w3.org/1999/xlink" width="17.5" height="18.6816">
 <g>
  <rect height="18.6816" opacity="0" width="17.5" x="0" y="0"/>
  <path d="M4.38477 18.6816L11.8262 18.6816C14.5703 18.6816 16.2109 17.0117 16.2109 14.2188L16.2109 4.48242C16.2109 1.68945 14.5703 0.0292969 11.8262 0.0292969L4.38477 0.0292969C1.64062 0.0292969 0 1.68945 0 4.48242L0 14.2188C0 17.0117 1.64062 18.6816 4.38477 18.6816ZM4.31641 17.1094C2.59766 17.1094 1.57227 16.0645 1.57227 14.2871L1.57227 4.46289C1.57227 2.69531 2.59766 1.65039 4.31641 1.65039L11.8945 1.65039C13.623 1.65039 14.6387 2.69531 14.6387 4.46289L14.6387 14.2871C14.6387 16.0645 13.623 17.1094 11.8945 17.1094ZM16.0352 8.33008L16.4746 8.33008C17.0996 8.33008 17.5 7.90039 17.5 7.22656L17.5 5.5957C17.5 4.90234 17.0996 4.47266 16.4746 4.47266L16.0352 4.47266Z" fill="#000000" fill-opacity="0.85"/>
  <path d="M7.05078 10.0391C7.53906 10.4492 7.98828 10.4492 8.45703 10.0391L12.4902 6.52344C12.7832 6.25977 12.7832 5.80078 12.5 5.50781C12.2168 5.22461 11.7871 5.22461 11.4648 5.50781L7.74414 8.73047L5.47852 6.80664C5.18555 6.55273 4.7168 6.60156 4.46289 6.89453C4.19922 7.20703 4.24805 7.66602 4.56055 7.92969Z" fill="#000000" fill-opacity="0.85"/>
 </g>
</svg>
