<?xml version="1.0" encoding="UTF-8"?>
<!--Generator: Apple Native CoreSVG 175.5-->
<!DOCTYPE svg
PUBLIC "-//W3C//DTD SVG 1.1//EN"
       "http://www.w3.org/Graphics/SVG/1.1/DTD/svg11.dtd">
<svg version="1.1" xmlns="http://www.w3.org/2000/svg" xmlns:xlink="http://www.w3.org/1999/xlink" width="22.998" height="20.4004">
 <g>
  <rect height="20.4004" opacity="0" width="22.998" x="0" y="0"/>
  <path d="M0.771484 12.4707C1.23047 12.4707 1.57227 12.1191 1.57227 11.6797L1.57227 8.7207C1.57227 8.28125 1.23047 7.91992 0.771484 7.91992C0.332031 7.91992 0 8.28125 0 8.7207L0 11.6797C0 12.1191 0.332031 12.4707 0.771484 12.4707Z" fill="#000000" fill-opacity="0.85"/>
  <path d="M4.0625 16.4648C4.51172 16.4648 4.85352 16.1133 4.85352 15.6738L4.85352 4.72656C4.85352 4.28711 4.51172 3.92578 4.0625 3.92578C3.62305 3.92578 3.28125 4.28711 3.28125 4.72656L3.28125 15.6738C3.28125 16.1133 3.62305 16.4648 4.0625 16.4648Z" fill="#000000" fill-opacity="0.85"/>
  <path d="M7.34375 20.4004C7.79297 20.4004 8.14453 20.0488 8.14453 19.6094L8.14453 0.791016C8.14453 0.351562 7.79297 0 7.34375 0C6.9043 0 6.57227 0.351562 6.57227 0.791016L6.57227 19.6094C6.57227 20.0488 6.9043 20.4004 7.34375 20.4004Z" fill="#000000" fill-opacity="0.85"/>
  <path d="M10.6348 15.2734C11.084 15.2734 11.4258 14.9316 11.4258 14.4922L11.4258 5.9082C11.4258 5.46875 11.084 5.11719 10.6348 5.11719C10.1855 5.11719 9.85352 5.46875 9.85352 5.9082L9.85352 14.4922C9.85352 14.9316 10.1855 15.2734 10.6348 15.2734Z" fill="#000000" fill-opacity="0.85"/>
  <path d="M13.1348 10.9375C13.5742 10.4199 14.1016 9.99023 14.707 9.69727L14.707 2.94922C14.707 2.51953 14.3652 2.1582 13.9258 2.1582C13.4668 2.1582 13.1348 2.51953 13.1348 2.94922Z" fill="#000000" fill-opacity="0.85"/>
  <path d="M16.4258 9.17969C16.9531 9.11133 17.4707 9.12109 17.998 9.21875L17.998 7.87109C17.998 7.44141 17.6465 7.08008 17.207 7.08008C16.7578 7.08008 16.4258 7.44141 16.4258 7.87109Z" fill="#000000" fill-opacity="0.85"/>
  <path d="M17.0508 18.2715C19.2285 18.2715 20.9961 16.5039 20.9961 14.3262C20.9961 12.1582 19.2285 10.3906 17.0508 10.3906C14.8926 10.3906 13.1152 12.168 13.1152 14.3262C13.1152 16.4941 14.8926 18.2715 17.0508 18.2715ZM17.0508 16.9629C15.6152 16.9629 14.4238 15.7715 14.4238 14.3262C14.4238 12.9004 15.6152 11.709 17.0508 11.709C18.4961 11.709 19.6777 12.8906 19.6777 14.3262C19.6777 15.7715 18.4961 16.9629 17.0508 16.9629ZM22.207 20.3418C22.666 20.3418 22.998 20 22.998 19.5215C22.998 19.3066 22.8809 19.1016 22.7246 18.9355L19.7656 15.957L18.5352 17.0703L21.5332 20.0488C21.7285 20.2441 21.9336 20.3418 22.207 20.3418Z" fill="#000000" fill-opacity="0.85"/>
 </g>
</svg>
