<?xml version="1.0" encoding="UTF-8"?>
<!--Generator: Apple Native CoreSVG 175.5-->
<!DOCTYPE svg
PUBLIC "-//W3C//DTD SVG 1.1//EN"
       "http://www.w3.org/Graphics/SVG/1.1/DTD/svg11.dtd">
<svg version="1.1" xmlns="http://www.w3.org/2000/svg" xmlns:xlink="http://www.w3.org/1999/xlink" width="22.487" height="18.4277">
 <g>
  <rect height="18.4277" opacity="0" width="22.487" x="0" y="0"/>
  <path d="M8.81985 1.29883C5.24563 1.89453 2.01321 3.66211 0.0991432 6.01562C-0.0375756 6.17188-0.0375756 6.39648 0.12844 6.57227L1.4761 7.93945C1.67141 8.125 1.94485 8.125 2.13039 7.92969C3.9761 5.9668 6.29055 4.7168 8.85891 4.26758ZM13.6538 1.30859L13.6245 4.27734C16.1929 4.70703 18.4878 5.97656 20.3726 7.93945C20.5484 8.11523 20.812 8.10547 21.0073 7.91992L22.355 6.57227C22.5308 6.39648 22.521 6.17188 22.3843 6.01562C20.4507 3.68164 17.2671 1.86523 13.6538 1.30859ZM13.6148 7.08984L13.5855 10.2051C14.6597 10.5957 15.6167 11.2402 16.3296 12.0117C16.5054 12.207 16.7495 12.1973 16.9644 12.002L18.4683 10.5078C18.6245 10.3418 18.6441 10.127 18.4976 9.96094C17.4136 8.64258 15.6558 7.53906 13.6148 7.08984ZM8.88821 7.08984C6.84719 7.56836 5.10891 8.61328 3.99563 9.96094C3.84914 10.127 3.85891 10.332 4.02492 10.5078L5.5386 12.0215C5.75344 12.2266 6.01711 12.1973 6.21242 11.9727C6.90578 11.2012 7.85305 10.5762 8.9175 10.1855Z" fill="#000000" fill-opacity="0.85"/>
  <path d="M11.2417 17.334C12.0718 17.334 12.7261 16.6602 12.7261 15.8398C12.7261 15.0098 12.0718 14.3555 11.2417 14.3555C10.4214 14.3555 9.75735 15.0098 9.75735 15.8398C9.75735 16.6602 10.4214 17.334 11.2417 17.334ZM11.2515 12.627C11.7691 12.627 12.1206 12.2852 12.1304 11.748C12.1597 8.1543 12.189 4.54102 12.2183 0.9375C12.2183 0.380859 11.7691 0 11.2417 0C10.7144 0 10.2652 0.380859 10.2652 0.9375C10.3042 4.54102 10.3335 8.1543 10.3726 11.748C10.3823 12.2852 10.7339 12.627 11.2515 12.627Z" fill="#000000" fill-opacity="0.85"/>
 </g>
</svg>
