<?xml version="1.0" encoding="UTF-8"?>
<!--Generator: Apple Native CoreSVG 175.5-->
<!DOCTYPE svg
PUBLIC "-//W3C//DTD SVG 1.1//EN"
       "http://www.w3.org/Graphics/SVG/1.1/DTD/svg11.dtd">
<svg version="1.1" xmlns="http://www.w3.org/2000/svg" xmlns:xlink="http://www.w3.org/1999/xlink" width="20.0477" height="17.334">
 <g>
  <rect height="17.334" opacity="0" width="20.0477" x="0" y="0"/>
  <path d="M0.887545 5.87891C2.2938 5.42969 3.74887 5.19531 5.13559 5.19531C6.93247 5.19531 8.25083 5.48828 9.95005 5.48828C11.7079 5.48828 12.8016 4.29688 12.8016 2.74414C12.8016 1.15234 11.5809 0.00976562 10.077 0.00976562C8.96372 0.00976562 7.98715 0.712891 7.577 1.64062C7.42075 1.96289 7.47934 2.33398 7.82114 2.50977C8.13364 2.66602 8.5145 2.56836 8.71958 2.17773C8.93442 1.67969 9.46176 1.28906 10.077 1.28906C10.8875 1.28906 11.5223 1.85547 11.5223 2.74414C11.5223 3.63281 10.9071 4.21875 9.95005 4.21875C8.32895 4.21875 6.99106 3.92578 5.13559 3.92578C3.5438 3.92578 1.93247 4.20898 0.49692 4.66797C0.0867638 4.78516-0.0694862 5.13672 0.0281701 5.46875C0.125826 5.81055 0.448092 6.00586 0.887545 5.87891ZM16.161 10.4492C18.4364 10.4492 20.0477 9.00391 20.0477 6.98242C20.0477 4.99023 18.5145 3.54492 16.6102 3.54492C14.8426 3.54492 13.534 4.77539 13.2997 6.38672C13.2411 6.79688 13.4657 7.11914 13.8172 7.16797C14.1786 7.2168 14.4911 6.99219 14.5692 6.5332C14.7352 5.50781 15.5848 4.81445 16.6102 4.81445C17.8016 4.81445 18.7684 5.70312 18.7684 6.98242C18.7684 8.28125 17.743 9.17969 16.161 9.17969C13.1825 9.17969 9.96958 7.48047 6.06333 7.48047C4.05161 7.48047 2.21567 7.80273 0.49692 8.4082C0.0965294 8.55469-0.0694862 8.89648 0.0281701 9.22852C0.125826 9.57031 0.457858 9.77539 0.887545 9.62891C2.47934 9.02344 4.1395 8.75977 6.06333 8.75977C9.95981 8.75977 12.87 10.4492 16.161 10.4492ZM9.95981 17.334C11.4637 17.334 12.6258 16.2207 12.6258 14.6289C12.6258 12.3242 10.2723 11.0352 5.93637 11.0352C4.11997 11.0352 2.15708 11.3867 0.49692 11.9531C0.0965294 12.0996-0.0694862 12.4414 0.0281701 12.7734C0.125826 13.1152 0.457858 13.3203 0.887545 13.1738C2.44028 12.6172 4.17856 12.3145 5.93637 12.3145C9.4813 12.3145 11.3563 13.2031 11.3563 14.6289C11.3563 15.5176 10.7313 16.0645 9.95981 16.0645C9.18833 16.0645 8.71958 15.5469 8.58286 14.7266C8.52426 14.3652 8.26059 14.0625 7.84067 14.0918C7.40122 14.1211 7.22544 14.4922 7.28403 14.8926C7.45981 16.25 8.46567 17.334 9.95981 17.334Z" fill="#000000" fill-opacity="0.85"/>
 </g>
</svg>
