<?xml version="1.0" encoding="UTF-8"?>
<!--Generator: Apple Native CoreSVG 175.5-->
<!DOCTYPE svg
PUBLIC "-//W3C//DTD SVG 1.1//EN"
       "http://www.w3.org/Graphics/SVG/1.1/DTD/svg11.dtd">
<svg version="1.1" xmlns="http://www.w3.org/2000/svg" xmlns:xlink="http://www.w3.org/1999/xlink" width="28.3183" height="20.8105">
 <g>
  <rect height="20.8105" opacity="0" width="28.3183" x="0" y="0"/>
  <path d="M14.1631 15.2148C15.9991 15.2148 18.3038 15.8203 19.8858 16.6797C20.335 16.9141 20.8331 16.8164 21.126 16.4453L27.8936 7.80273C28.5479 6.96289 28.4405 6.07422 27.6104 5.42969C26.5362 4.59961 25.0811 3.84766 23.3819 3.23242C23.7725 4.01367 24.0362 4.75586 24.1143 5.46875C24.8663 5.80078 25.5792 6.16211 26.2237 6.5918C26.4776 6.76758 26.5167 6.99219 26.3213 7.24609L20.4229 14.7656C20.2374 15.0098 20.1202 15.0391 19.876 14.9316C17.9424 14.1211 15.8721 13.6523 14.1631 13.6523C12.4444 13.6523 10.3741 14.1211 8.44049 14.9316C8.19634 15.0391 8.08892 15.0098 7.89361 14.7656L1.99517 7.24609C1.80963 6.99219 1.83892 6.76758 2.10259 6.5918C5.46197 4.46289 9.75884 3.26172 14.1631 3.26172C14.7686 3.26172 15.3741 3.29102 15.9795 3.34961C16.0577 3.10547 16.5167 2.23633 16.7706 1.81641C15.9014 1.72852 15.042 1.68945 14.1631 1.68945C8.66509 1.68945 3.44049 3.32031 0.70611 5.42969C-0.123968 6.07422-0.23139 6.96289 0.432673 7.80273L7.20025 16.4453C7.49322 16.8164 7.9815 16.9141 8.43072 16.6797C10.0225 15.8203 12.3174 15.2148 14.1631 15.2148Z" fill="#000000" fill-opacity="0.85"/>
  <path d="M14.3292 16.9531L5.09088 1.14258C4.8858 0.78125 4.39752 0.644531 3.99713 0.859375C3.62603 1.08398 3.50884 1.5625 3.73345 1.94336L12.9327 17.6953ZM14.1631 20.8105C15.3545 20.8105 16.3604 19.8145 16.3604 18.6133C16.3604 17.4023 15.3643 16.4062 14.1631 16.4062C12.9522 16.4062 11.9561 17.4023 11.9561 18.6133C11.9561 19.8242 12.9424 20.8105 14.1631 20.8105ZM14.1631 19.5117C13.6553 19.5117 13.2549 19.1113 13.2549 18.6133C13.2549 18.1055 13.6553 17.6855 14.1631 17.6855C14.6514 17.6855 15.0811 18.1152 15.0811 18.6133C15.0811 19.1113 14.6514 19.5117 14.1631 19.5117ZM19.7003 9.33594C21.6143 9.33594 22.8838 8.0957 22.8838 6.24023C22.8838 5.3125 22.503 4.51172 22.2295 3.91602C21.7217 2.8125 20.8819 1.45508 20.1788 0.361328C20.042 0.15625 19.8956 0.0488281 19.7003 0.0488281C19.5147 0.0488281 19.3585 0.15625 19.2217 0.361328C18.5186 1.45508 17.6788 2.8125 17.1807 3.91602C16.9073 4.51172 16.5167 5.3125 16.5167 6.24023C16.5167 8.0957 17.7862 9.33594 19.7003 9.33594Z" fill="#000000" fill-opacity="0.85"/>
 </g>
</svg>
