<?xml version="1.0" encoding="UTF-8"?>
<!--Generator: Apple Native CoreSVG 175.5-->
<!DOCTYPE svg
PUBLIC "-//W3C//DTD SVG 1.1//EN"
       "http://www.w3.org/Graphics/SVG/1.1/DTD/svg11.dtd">
<svg version="1.1" xmlns="http://www.w3.org/2000/svg" xmlns:xlink="http://www.w3.org/1999/xlink" width="28.3183" height="19.7691">
 <g>
  <rect height="19.7691" opacity="0" width="28.3183" x="0" y="0"/>
  <path d="M14.1631 18.1805C15.9991 18.1805 18.3038 18.7762 19.8858 19.6355C20.335 19.8797 20.8331 19.782 21.126 19.4012L27.8936 10.7684C28.5479 9.92851 28.4405 9.03984 27.6104 8.39531C25.2471 6.56914 21.0284 5.10429 16.3897 4.75273L16.3897 6.33476C19.9835 6.65703 23.4307 7.78984 26.2237 9.54765C26.4776 9.72343 26.5167 9.95781 26.3213 10.2117L20.4229 17.7312C20.2374 17.9656 20.1202 17.9949 19.876 17.8973C17.9424 17.0769 15.8721 16.6082 14.1631 16.6082C12.4444 16.6082 10.3741 17.0769 8.44049 17.8973C8.19634 17.9949 8.08892 17.9656 7.89361 17.7312L1.99517 10.2117C1.80963 9.95781 1.83892 9.72343 2.10259 9.54765C4.8858 7.78984 8.34283 6.65703 11.9366 6.33476L11.9366 4.74296C7.29791 5.10429 3.06939 6.55937 0.70611 8.39531C-0.123968 9.03984-0.23139 9.92851 0.432673 10.7684L7.20025 19.4012C7.49322 19.782 7.9815 19.8797 8.43072 19.6355C10.0225 18.7762 12.3174 18.1805 14.1631 18.1805Z" fill="#000000" fill-opacity="0.85"/>
  <path d="M14.1631 14.9383C14.5928 14.9383 14.9444 14.5867 14.9444 14.157L14.9444 11.657C14.9444 11.2273 14.5928 10.8758 14.1631 10.8758C13.7335 10.8758 13.3721 11.2273 13.3721 11.657L13.3721 14.157C13.3721 14.5867 13.7335 14.9383 14.1631 14.9383ZM14.1631 8.70781C14.5928 8.70781 14.9444 8.34648 14.9444 7.91679L14.9444 5.42656C14.9444 4.99687 14.5928 4.64531 14.1631 4.64531C13.7335 4.64531 13.3721 4.99687 13.3721 5.42656L13.3721 7.91679C13.3721 8.34648 13.7335 8.70781 14.1631 8.70781ZM3.46002 3.1707C3.83111 3.38554 4.25103 3.27812 4.53424 2.93632C5.07134 2.30156 5.74517 1.81328 6.51666 1.54961C6.93658 1.39336 7.20025 1.03203 7.11236 0.592574C7.00494 0.104293 6.52642-0.120317 5.95025 0.0749957C4.94439 0.416793 4.00689 1.09062 3.28424 1.97929C2.93267 2.40898 3.05963 2.92656 3.46002 3.1707ZM13.0499 3.15117C13.4503 2.90703 13.5479 2.39921 13.2061 1.96953C12.4835 1.08086 11.5264 0.416793 10.5499 0.0847613C9.93463-0.130082 9.47564 0.143355 9.38775 0.612105C9.31939 1.04179 9.56353 1.39336 9.98345 1.54961C10.7452 1.81328 11.419 2.30156 11.9463 2.92656C12.2588 3.29765 12.669 3.36601 13.0499 3.15117ZM24.8663 3.1707C25.2667 2.92656 25.3936 2.40898 25.042 1.97929C24.3194 1.09062 23.3721 0.416793 22.3663 0.0749957C21.7901-0.120317 21.3116 0.104293 21.2139 0.592574C21.1163 1.03203 21.3897 1.39336 21.8096 1.54961C22.5811 1.81328 23.2549 2.30156 23.7823 2.93632C24.0753 3.27812 24.4854 3.38554 24.8663 3.1707ZM15.2667 3.15117C15.6573 3.36601 16.0577 3.29765 16.3799 2.92656C16.8975 2.30156 17.5713 1.81328 18.3331 1.54961C18.753 1.39336 19.0069 1.04179 18.9288 0.612105C18.8506 0.143355 18.3917-0.130082 17.7764 0.0847613C16.7901 0.416793 15.8331 1.08086 15.1104 1.96953C14.7686 2.39921 14.8663 2.90703 15.2667 3.15117Z" fill="#000000" fill-opacity="0.85"/>
 </g>
</svg>
