<?xml version="1.0" encoding="UTF-8"?>
<!--Generator: Apple Native CoreSVG 175.5-->
<!DOCTYPE svg
PUBLIC "-//W3C//DTD SVG 1.1//EN"
       "http://www.w3.org/Graphics/SVG/1.1/DTD/svg11.dtd">
<svg version="1.1" xmlns="http://www.w3.org/2000/svg" xmlns:xlink="http://www.w3.org/1999/xlink" width="23.9258" height="20.1465">
 <g>
  <rect height="20.1465" opacity="0" width="23.9258" x="0" y="0"/>
  <path d="M3.06641 15.0488L20.8594 15.0488C22.9102 15.0488 23.9258 14.0332 23.9258 12.0215L23.9258 4.54102C23.9258 2.5293 22.9102 1.51367 20.8594 1.51367L3.06641 1.51367C1.02539 1.51367 0 2.51953 0 4.54102L0 12.0215C0 14.043 1.02539 15.0488 3.06641 15.0488ZM3.08594 13.4766C2.10938 13.4766 1.57227 12.959 1.57227 11.9434L1.57227 4.62891C1.57227 3.61328 2.10938 3.08594 3.08594 3.08594L20.8301 3.08594C21.7969 3.08594 22.3535 3.61328 22.3535 4.62891L22.3535 11.9434C22.3535 12.959 21.7969 13.4766 20.8301 13.4766Z" fill="#000000" fill-opacity="0.85"/>
  <path d="M11.9434 20.1465C13.1445 20.1465 14.1504 19.1504 14.1504 17.9492C14.1504 16.7285 13.1543 15.7422 11.9434 15.7422C10.7422 15.7422 9.74609 16.7285 9.74609 17.9492C9.74609 19.1602 10.7324 20.1465 11.9434 20.1465ZM11.9434 18.8477C11.4453 18.8477 11.0352 18.4375 11.0352 17.9492C11.0352 17.4414 11.4453 17.0215 11.9434 17.0215C12.4414 17.0215 12.8613 17.4414 12.8613 17.9492C12.8613 18.4375 12.4414 18.8477 11.9434 18.8477ZM12.1094 16.2891L2.88086 0.478516C2.67578 0.117188 2.1875-0.0195312 1.78711 0.195312C1.41602 0.410156 1.29883 0.898438 1.51367 1.26953L10.7227 17.0312Z" fill="#000000" fill-opacity="0.85"/>
 </g>
</svg>
