<?xml version="1.0" encoding="UTF-8"?>
<!--Generator: Apple Native CoreSVG 175.5-->
<!DOCTYPE svg
PUBLIC "-//W3C//DTD SVG 1.1//EN"
       "http://www.w3.org/Graphics/SVG/1.1/DTD/svg11.dtd">
<svg version="1.1" xmlns="http://www.w3.org/2000/svg" xmlns:xlink="http://www.w3.org/1999/xlink" width="23.2041" height="23.5767">
 <g>
  <rect height="23.5767" opacity="0" width="23.2041" x="0" y="0"/>
  <path d="M7.4451 13.971L8.3826 13.053L1.90799 6.54909C1.1951 5.8362 1.20486 5.09402 1.90799 4.38112L3.28494 2.99441C3.9783 2.29128 4.74002 2.30105 5.45291 3.00417L12.4256 9.96706L13.4021 9.09792L6.4783 2.12527C5.10135 0.758078 3.6365 0.758078 2.29861 2.09597L0.999786 3.3948C-0.338105 4.73269-0.338105 6.19753 1.02908 7.56472ZM6.81033 9.62527C6.95682 9.77175 7.19119 9.77175 7.32791 9.62527C7.46463 9.48855 7.47439 9.26394 7.32791 9.11745L3.67557 5.46511C3.54861 5.34792 3.30447 5.32839 3.15799 5.46511C3.02127 5.62136 3.0115 5.85573 3.15799 5.99245ZM8.0115 8.43386C8.14822 8.58034 8.40213 8.56081 8.52908 8.43386C8.67557 8.26784 8.67557 8.04323 8.53885 7.90652L4.8865 4.26394C4.74002 4.11745 4.50564 4.12722 4.37869 4.26394C4.23221 4.41042 4.24197 4.63503 4.37869 4.77175ZM20.5799 23.4143L22.3279 21.6663C22.533 21.4514 22.5037 21.1389 22.3084 20.8362L20.2674 17.7893C20.0623 17.4866 19.7498 17.2717 19.3982 17.2229L18.5193 17.0862L13.783 12.3499L12.8748 13.3948L17.9529 18.4534L19.0467 18.6389L20.9119 21.1194L20.0232 22.0081L17.5525 20.1428L17.3572 19.0491L12.3279 14.01L11.4099 15.0452L15.99 19.6155L16.1267 20.4944C16.1756 20.846 16.4002 21.1585 16.6931 21.3538L19.7498 23.4241C20.0623 23.6292 20.365 23.6292 20.5799 23.4143Z" fill="#000000" fill-opacity="0.85"/>
  <path d="M1.52713 22.262C3.22635 23.9417 5.50174 23.9612 7.17166 22.2815C9.3201 20.1135 8.92947 17.6526 15.824 10.7874L14.9744 9.928C7.45486 17.4768 8.59744 18.8831 6.17557 21.305C5.09158 22.3987 3.62674 22.4085 2.49393 21.2952C1.37088 20.1526 1.39041 18.6975 2.46463 17.6135C4.90604 15.1819 6.31229 16.3342 13.8513 8.81472L13.0017 7.96511C6.1365 14.8596 3.67557 14.469 1.5076 16.6077C-0.181855 18.2776-0.162324 20.5628 1.52713 22.262ZM4.31033 20.7092C4.97439 20.7092 5.52127 20.1624 5.52127 19.4983C5.52127 18.8342 4.97439 18.2971 4.31033 18.2971C3.64627 18.2971 3.10916 18.8342 3.10916 19.4983C3.10916 20.1624 3.64627 20.7092 4.31033 20.7092ZM13.6756 10.1038C15.9119 12.3401 19.4763 12.4182 21.6443 10.26C23.4021 8.50222 23.7049 5.72878 22.3963 3.48269L21.449 4.43972C22.2693 6.11941 21.9959 8.07253 20.7263 9.35183C19.076 11.0022 16.3416 10.9241 14.5935 9.19558C12.8553 7.4573 12.7869 4.70339 14.4471 3.06277C15.7166 1.79323 17.699 1.5198 19.3299 2.34987L20.2869 1.39284C18.0603 0.0940154 15.2967 0.386984 13.5388 2.15456C11.3806 4.303 11.449 7.86745 13.6756 10.1038ZM16.6346 5.71902L18.0799 7.15456C18.8025 7.87722 19.7303 7.89675 20.4138 7.20339L22.4646 5.14284L21.6053 4.29323L19.74 6.13894C19.4763 6.40261 19.1443 6.42214 18.8611 6.13894L17.6697 4.93777C17.3865 4.6448 17.3572 4.303 17.6209 4.03933L19.5056 2.17409L18.617 1.31472L16.5857 3.35573C15.8631 4.06862 15.8826 4.98659 16.6346 5.71902Z" fill="#000000" fill-opacity="0.85"/>
 </g>
</svg>
