<?xml version="1.0" encoding="UTF-8"?>
<!--Generator: Apple Native CoreSVG 175.5-->
<!DOCTYPE svg
PUBLIC "-//W3C//DTD SVG 1.1//EN"
       "http://www.w3.org/Graphics/SVG/1.1/DTD/svg11.dtd">
<svg version="1.1" xmlns="http://www.w3.org/2000/svg" xmlns:xlink="http://www.w3.org/1999/xlink" width="18.0078" height="17.9395">
 <g>
  <rect height="17.9395" opacity="0" width="18.0078" x="0" y="0"/>
  <path d="M16.8652 1.17188C15.8691 0.175781 14.4629 0.0195312 12.793 0.0195312L5.18555 0.0195312C3.54492 0.0195312 2.13867 0.175781 1.14258 1.17188C0.146484 2.16797 0 3.56445 0 5.19531L0 12.7344C0 14.4043 0.146484 15.791 1.14258 16.7871C2.13867 17.7832 3.54492 17.9395 5.20508 17.9395L12.793 17.9395C14.4629 17.9395 15.8691 17.7832 16.8652 16.7871C17.8613 15.791 18.0078 14.4043 18.0078 12.7344L18.0078 5.22461C18.0078 3.55469 17.8613 2.1582 16.8652 1.17188ZM16.4355 4.95117L16.4355 12.998C16.4355 14.0137 16.3086 15.0488 15.7129 15.6445C15.127 16.2305 14.0723 16.3672 13.0664 16.3672L4.94141 16.3672C3.93555 16.3672 2.88086 16.2305 2.28516 15.6445C1.69922 15.0488 1.57227 14.0137 1.57227 12.998L1.57227 4.98047C1.57227 3.95508 1.69922 2.90039 2.28516 2.31445C2.88086 1.71875 3.94531 1.5918 4.9707 1.5918L13.0664 1.5918C14.0723 1.5918 15.127 1.72852 15.7129 2.31445C16.3086 2.91016 16.4355 3.94531 16.4355 4.95117Z" fill="#000000" fill-opacity="0.85"/>
  <path d="M5.68359 13.0957C5.89844 13.0957 6.09375 13.0078 6.24023 12.8516L9.00391 10.0781L11.7871 12.8516C11.9336 12.998 12.1191 13.0957 12.3438 13.0957C12.7832 13.0957 13.1348 12.7441 13.1348 12.3047C13.1348 12.0801 13.0469 11.9043 12.8906 11.748L10.1172 8.97461L12.9004 6.18164C13.0664 6.01562 13.1445 5.84961 13.1445 5.63477C13.1445 5.20508 12.793 4.85352 12.3535 4.85352C12.1484 4.85352 11.9824 4.93164 11.8164 5.09766L9.00391 7.88086L6.2207 5.10742C6.07422 4.95117 5.89844 4.87305 5.68359 4.87305C5.24414 4.87305 4.89258 5.21484 4.89258 5.64453C4.89258 5.85938 4.98047 6.04492 5.13672 6.19141L7.91016 8.97461L5.13672 11.7578C4.98047 11.9043 4.89258 12.0898 4.89258 12.3047C4.89258 12.7441 5.24414 13.0957 5.68359 13.0957Z" fill="#000000" fill-opacity="0.85"/>
 </g>
</svg>
