<?xml version="1.0" encoding="UTF-8"?>
<!--Generator: Apple Native CoreSVG 175.5-->
<!DOCTYPE svg
PUBLIC "-//W3C//DTD SVG 1.1//EN"
       "http://www.w3.org/Graphics/SVG/1.1/DTD/svg11.dtd">
<svg version="1.1" xmlns="http://www.w3.org/2000/svg" xmlns:xlink="http://www.w3.org/1999/xlink" width="23.6133" height="17.998">
 <g>
  <rect height="17.998" opacity="0" width="23.6133" x="0" y="0"/>
  <path d="M8.39844 0.0195312C2.57812 0.0195312 0 2.68555 0 8.1543L0 14.9707C0 16.9922 1.02539 17.998 3.06641 17.998L20.5469 17.998C22.5879 17.998 23.6133 16.9824 23.6133 14.9707L23.6133 8.1543C23.6133 2.68555 21.0352 0.0195312 15.2246 0.0195312Z" fill="#000000" fill-opacity="0.85"/>
  <path d="M5.47852 13.5449C5.04883 13.5449 4.74609 13.252 4.74609 12.8516C4.74609 12.627 4.80469 12.4805 5.01953 12.168L9.64844 5.76172L9.64844 5.68359L5.40039 5.68359C5 5.68359 4.7168 5.43945 4.7168 5.01953C4.7168 4.61914 5 4.35547 5.40039 4.35547L10.9863 4.35547C11.4258 4.35547 11.7285 4.6582 11.7285 5.06836C11.7285 5.3125 11.6797 5.44922 11.4844 5.72266L6.86523 12.1387L6.86523 12.2168L11.377 12.2168C11.7773 12.2168 12.0605 12.4609 12.0605 12.8711C12.0605 13.2812 11.7773 13.5449 11.377 13.5449ZM14.4238 13.5449C13.9062 13.5449 13.623 13.1641 13.623 12.627L13.623 5.15625C13.623 4.60938 13.8965 4.23828 14.4238 4.23828C14.9609 4.23828 15.2441 4.58984 15.2441 5.15625L15.2441 12.2168L19.0625 12.2168C19.4531 12.2168 19.7363 12.4609 19.7363 12.8711C19.7363 13.291 19.4531 13.5449 19.0625 13.5449Z" fill="#ffffff"/>
 </g>
</svg>
