<?xml version="1.0" encoding="UTF-8"?>
<!--Generator: Apple Native CoreSVG 175.5-->
<!DOCTYPE svg
PUBLIC "-//W3C//DTD SVG 1.1//EN"
       "http://www.w3.org/Graphics/SVG/1.1/DTD/svg11.dtd">
<svg version="1.1" xmlns="http://www.w3.org/2000/svg" xmlns:xlink="http://www.w3.org/1999/xlink" width="23.6133" height="17.998">
 <g>
  <rect height="17.998" opacity="0" width="23.6133" x="0" y="0"/>
  <path d="M8.39844 0.0195312C2.57812 0.0195312 0 2.68555 0 8.1543L0 14.9707C0 16.9922 1.02539 17.998 3.06641 17.998L20.5469 17.998C22.5879 17.998 23.6133 16.9824 23.6133 14.9707L23.6133 8.1543C23.6133 2.68555 21.0352 0.0195312 15.2246 0.0195312Z" fill="#000000" fill-opacity="0.85"/>
  <path d="M4.75586 13.5449C4.33594 13.5449 4.0332 13.252 4.0332 12.8613C4.0332 12.627 4.0918 12.4902 4.31641 12.168L8.92578 5.76172L8.92578 5.68359L4.67773 5.68359C4.29688 5.68359 4.00391 5.43945 4.00391 5.0293C4.00391 4.61914 4.29688 4.35547 4.67773 4.35547L10.2637 4.35547C10.7031 4.35547 11.0156 4.6582 11.0156 5.07812C11.0156 5.32227 10.9668 5.44922 10.7617 5.72266L6.14258 12.1387L6.14258 12.2168L10.6738 12.2168C11.0547 12.2168 11.3379 12.4609 11.3379 12.8809C11.3379 13.2812 11.0547 13.5449 10.6738 13.5449ZM13.5938 13.6621C13.0762 13.6621 12.793 13.3008 12.793 12.7539L12.793 5.27344C12.793 4.73633 13.0664 4.35547 13.5938 4.35547L16.4941 4.35547C18.5352 4.35547 19.8242 5.51758 19.8242 7.32422C19.8242 8.58398 19.0625 9.63867 17.8906 10.0293L19.3945 12.3828C19.5117 12.5879 19.5703 12.7441 19.5703 12.9688C19.5703 13.3789 19.2676 13.6621 18.8379 13.6621C18.4766 13.6621 18.2812 13.5156 18.0371 13.1348L16.2891 10.2637L14.4141 10.2637L14.4141 12.7539C14.4141 13.3203 14.1309 13.6621 13.5938 13.6621ZM14.4141 9.08203L16.25 9.08203C17.4609 9.08203 18.2324 8.4668 18.2324 7.36328C18.2324 6.24023 17.4414 5.5957 16.2891 5.5957L14.4141 5.5957Z" fill="#ffffff"/>
 </g>
</svg>
