<?xml version="1.0" encoding="UTF-8"?>
<!--Generator: Apple Native CoreSVG 175.5-->
<!DOCTYPE svg
PUBLIC "-//W3C//DTD SVG 1.1//EN"
       "http://www.w3.org/Graphics/SVG/1.1/DTD/svg11.dtd">
<svg version="1.1" xmlns="http://www.w3.org/2000/svg" xmlns:xlink="http://www.w3.org/1999/xlink" width="23.6133" height="17.998">
 <g>
  <rect height="17.998" opacity="0" width="23.6133" x="0" y="0"/>
  <path d="M8.39844 0.0195312C2.57812 0.0195312 0 2.68555 0 8.1543L0 14.9707C0 16.9922 1.02539 17.998 3.06641 17.998L20.5469 17.998C22.5879 17.998 23.6133 16.9824 23.6133 14.9707L23.6133 8.1543C23.6133 2.68555 21.0352 0.0195312 15.2246 0.0195312ZM8.39844 1.61133L15.2148 1.61133C19.9609 1.61133 22.041 3.68164 22.041 8.06641L22.041 14.8926C22.041 15.9082 21.4941 16.4258 20.5273 16.4258L3.08594 16.4258C2.10938 16.4258 1.57227 15.9082 1.57227 14.8926L1.57227 8.06641C1.57227 3.68164 3.65234 1.61133 8.39844 1.61133Z" fill="#000000" fill-opacity="0.85"/>
  <path d="M4.9707 13.4082L10.7031 13.4082C11.0742 13.4082 11.3477 13.1543 11.3477 12.7637C11.3477 12.3633 11.0742 12.1289 10.7031 12.1289L6.30859 12.1289L6.30859 12.0508L10.791 5.82031C10.9863 5.55664 11.0352 5.42969 11.0352 5.19531C11.0352 4.79492 10.7324 4.50195 10.3125 4.50195L4.89258 4.50195C4.52148 4.50195 4.23828 4.75586 4.23828 5.14648C4.23828 5.54688 4.52148 5.78125 4.89258 5.78125L9.02344 5.78125L9.02344 5.85938L4.54102 12.0801C4.32617 12.3828 4.26758 12.5293 4.26758 12.7441C4.26758 13.1348 4.56055 13.4082 4.9707 13.4082ZM13.5352 13.5156C14.0527 13.5156 14.3262 13.1934 14.3262 12.6465L14.3262 10.2246L16.1426 10.2246L17.8418 13.0078C18.0762 13.3789 18.2715 13.5156 18.6133 13.5156C19.0332 13.5156 19.3262 13.2422 19.3262 12.8516C19.3262 12.6367 19.2676 12.4805 19.1504 12.2852L17.6855 10C18.8281 9.61914 19.5703 8.59375 19.5703 7.37305C19.5703 5.625 18.3203 4.50195 16.3379 4.50195L13.5352 4.50195C13.0273 4.50195 12.7637 4.86328 12.7637 5.38086L12.7637 12.6465C12.7637 13.1738 13.0371 13.5156 13.5352 13.5156ZM14.3262 9.08203L14.3262 5.69336L16.1426 5.69336C17.2656 5.69336 18.0273 6.31836 18.0273 7.41211C18.0273 8.48633 17.2852 9.08203 16.1035 9.08203Z" fill="#000000" fill-opacity="0.85"/>
 </g>
</svg>
